<?xml version="1.0" encoding="UTF-8" standalone="no"?>
<!DOCTYPE svg PUBLIC "-//W3C//DTD SVG 1.1//EN"
 "http://www.w3.org/Graphics/SVG/1.1/DTD/svg11.dtd">
<!-- Generated by graphviz version 2.30.1 (20150305.2338)
 -->
<!-- Title: Prologue Pages: 1 -->
<svg width="390pt" height="94pt"
 viewBox="0.00 0.00 390.00 94.00" xmlns="http://www.w3.org/2000/svg" xmlns:xlink="http://www.w3.org/1999/xlink">
<g id="graph0" class="graph" transform="scale(1 1) rotate(0) translate(4 90)">
<title>Prologue</title>
<!-- Node1 -->
<g id="node1" class="node"><title>Node1</title>
<polygon fill="#bfbfbf" stroke="black" points="0.5,-28.5 0.5,-47.5 55.5,-47.5 55.5,-28.5 0.5,-28.5"/>
<text text-anchor="middle" x="28" y="-35.5" font-family="Helvetica,sans-Serif" font-size="10.00">Prologue</text>
</g>
<!-- Node2 -->
<g id="node2" class="node"><title>Node2</title>
<g id="a_node2"><a xlink:href="classElmerModuleDriver_1_1TestingObject_a046f7ab06db0acf616b0d2bf3d3146aa.html#a046f7ab06db0acf616b0d2bf3d3146aa" target="_top" xlink:title="Process">
<polygon fill="none" stroke="black" points="92.5,-66.5 92.5,-85.5 145.5,-85.5 145.5,-66.5 92.5,-66.5"/>
<text text-anchor="middle" x="119" y="-73.5" font-family="Helvetica,sans-Serif" font-size="10.00">Process</text>
</a>
</g>
</g>
<!-- Node1&#45;&gt;Node2 -->
<g id="edge1" class="edge"><title>Node1&#45;&gt;Node2</title>
<path fill="none" stroke="midnightblue" d="M60.7558,-51.5587C72.2619,-56.4714 85.0093,-61.9141 95.5487,-66.4141"/>
<polygon fill="midnightblue" stroke="midnightblue" points="62.0296,-48.2969 51.4585,-47.589 59.2809,-54.7347 62.0296,-48.2969"/>
</g>
<!-- Node5 -->
<g id="node5" class="node"><title>Node5</title>
<g id="a_node5"><a xlink:href="classElmerModuleDriver_1_1TestingObject_a21159bd2efac623e5a5079f6a20f3444.html#a21159bd2efac623e5a5079f6a20f3444" target="_top" xlink:title="Runs a list of tests specified by name. ">
<polygon fill="none" stroke="black" points="206.5,-0.5 206.5,-19.5 283.5,-19.5 283.5,-0.5 206.5,-0.5"/>
<text text-anchor="middle" x="245" y="-7.5" font-family="Helvetica,sans-Serif" font-size="10.00">ProcessTests</text>
</a>
</g>
</g>
<!-- Node1&#45;&gt;Node5 -->
<g id="edge4" class="edge"><title>Node1&#45;&gt;Node5</title>
<path fill="none" stroke="midnightblue" d="M65.4189,-25.4432C74.0405,-22.9111 83.2691,-20.5529 92,-19 130.519,-12.1486 175.303,-10.2111 206.234,-9.79571"/>
<polygon fill="midnightblue" stroke="midnightblue" points="64.1673,-22.1665 55.6428,-28.458 66.2301,-28.8557 64.1673,-22.1665"/>
</g>
<!-- Node6 -->
<g id="node6" class="node"><title>Node6</title>
<g id="a_node6"><a xlink:href="classElmerModuleDriver_1_1TestingObject_af1f07f14b9af7708e4264bb38937eed2.html#af1f07f14b9af7708e4264bb38937eed2" target="_top" xlink:title="Runs a test specified by name. ">
<polygon fill="none" stroke="black" points="92,-28.5 92,-47.5 146,-47.5 146,-28.5 92,-28.5"/>
<text text-anchor="middle" x="119" y="-35.5" font-family="Helvetica,sans-Serif" font-size="10.00">RunTest</text>
</a>
</g>
</g>
<!-- Node1&#45;&gt;Node6 -->
<g id="edge5" class="edge"><title>Node1&#45;&gt;Node6</title>
<path fill="none" stroke="midnightblue" d="M65.7427,-38C74.531,-38 83.7357,-38 91.9284,-38"/>
<polygon fill="midnightblue" stroke="midnightblue" points="65.703,-34.5001 55.7029,-38 65.7029,-41.5001 65.703,-34.5001"/>
</g>
<!-- Node3 -->
<g id="node3" class="node"><title>Node3</title>
<g id="a_node3"><a xlink:href="namespaceElmerModuleDriver_a657930328d3dc159ded2e9fd6473b2b6.html#a657930328d3dc159ded2e9fd6473b2b6" target="_top" xlink:title="Drives the ElmerModuleDriver::TestObject. ">
<polygon fill="none" stroke="black" points="182.5,-47.5 182.5,-66.5 307.5,-66.5 307.5,-47.5 182.5,-47.5"/>
<text text-anchor="middle" x="245" y="-54.5" font-family="Helvetica,sans-Serif" font-size="10.00">ElmerModuleDriver::Test</text>
</a>
</g>
</g>
<!-- Node2&#45;&gt;Node3 -->
<g id="edge2" class="edge"><title>Node2&#45;&gt;Node3</title>
<path fill="none" stroke="midnightblue" d="M155.764,-70.52C164.089,-69.2445 173.187,-67.8504 182.277,-66.4576"/>
<polygon fill="midnightblue" stroke="midnightblue" points="155.047,-67.0889 145.693,-72.0632 156.108,-74.0081 155.047,-67.0889"/>
</g>
<!-- Node4 -->
<g id="node4" class="node"><title>Node4</title>
<g id="a_node4"><a xlink:href="TestElmerModuleDriver_8C_a0ddf1224851353fc92bfbff6f499fa97.html#a0ddf1224851353fc92bfbff6f499fa97" target="_top" xlink:title="main">
<polygon fill="none" stroke="black" points="344,-47.5 344,-66.5 382,-66.5 382,-47.5 344,-47.5"/>
<text text-anchor="middle" x="363" y="-54.5" font-family="Helvetica,sans-Serif" font-size="10.00">main</text>
</a>
</g>
</g>
<!-- Node3&#45;&gt;Node4 -->
<g id="edge3" class="edge"><title>Node3&#45;&gt;Node4</title>
<path fill="none" stroke="midnightblue" d="M317.848,-57C327.412,-57 336.442,-57 343.813,-57"/>
<polygon fill="midnightblue" stroke="midnightblue" points="317.736,-53.5001 307.736,-57 317.736,-60.5001 317.736,-53.5001"/>
</g>
<!-- Node6&#45;&gt;Node5 -->
<g id="edge6" class="edge"><title>Node6&#45;&gt;Node5</title>
<path fill="none" stroke="midnightblue" d="M156.226,-29.8199C172.014,-26.2549 190.514,-22.0774 206.449,-18.4793"/>
<polygon fill="midnightblue" stroke="midnightblue" points="155.281,-26.4452 146.297,-32.0619 156.823,-33.2733 155.281,-26.4452"/>
</g>
<!-- Node6&#45;&gt;Node3 -->
<g id="edge7" class="edge"><title>Node6&#45;&gt;Node3</title>
<path fill="none" stroke="midnightblue" d="M156.233,-43.5519C164.43,-44.8079 173.358,-46.1758 182.278,-47.5426"/>
<polygon fill="midnightblue" stroke="midnightblue" points="156.712,-40.0845 146.297,-42.0294 155.652,-47.0037 156.712,-40.0845"/>
</g>
</g>
</svg>
