<?xml version="1.0" encoding="UTF-8" standalone="no"?>
<!DOCTYPE svg PUBLIC "-//W3C//DTD SVG 1.1//EN"
 "http://www.w3.org/Graphics/SVG/1.1/DTD/svg11.dtd">
<!-- Generated by graphviz version 2.30.1 (20150305.2338)
 -->
<!-- Title: ProcessOptions Pages: 1 -->
<svg width="344pt" height="290pt"
 viewBox="0.00 0.00 344.00 290.00" xmlns="http://www.w3.org/2000/svg" xmlns:xlink="http://www.w3.org/1999/xlink">
<g id="graph0" class="graph" transform="scale(1 1) rotate(0) translate(4 286)">
<title>ProcessOptions</title>
<!-- Node1 -->
<g id="node1" class="node"><title>Node1</title>
<polygon fill="#bfbfbf" stroke="black" points="0,-125.5 0,-144.5 86,-144.5 86,-125.5 0,-125.5"/>
<text text-anchor="middle" x="43" y="-132.5" font-family="Helvetica,sans-Serif" font-size="10.00">ProcessOptions</text>
</g>
<!-- Node2 -->
<g id="node2" class="node"><title>Node2</title>
<g id="a_node2"><a xlink:href="namespaceElmerFoamFSI_ae544cb65d02e78238b4c6f1690b9ffda.html#ae544cb65d02e78238b4c6f1690b9ffda" target="_top" xlink:title="Drives the ElmerFoamFSI::TestObject. ">
<polygon fill="none" stroke="black" points="122,-262.5 122,-281.5 262,-281.5 262,-262.5 122,-262.5"/>
<text text-anchor="middle" x="192" y="-269.5" font-family="Helvetica,sans-Serif" font-size="10.00">ElmerFoamFSI::ParallelTest</text>
</a>
</g>
</g>
<!-- Node1&#45;&gt;Node2 -->
<g id="edge1" class="edge"><title>Node1&#45;&gt;Node2</title>
<path fill="none" stroke="midnightblue" d="M51.6381,-154.014C63.0565,-180.023 87.0415,-226.379 122,-252 127.935,-256.35 134.8,-259.757 141.85,-262.425"/>
<polygon fill="midnightblue" stroke="midnightblue" points="54.7492,-152.384 47.6383,-144.53 48.2993,-155.104 54.7492,-152.384"/>
</g>
<!-- Node4 -->
<g id="node4" class="node"><title>Node4</title>
<g id="a_node4"><a xlink:href="namespaceOpenFoamModuleDriver_a2dc08fd0ec5c64aa9b09d8bb8b65f88e.html#a2dc08fd0ec5c64aa9b09d8bb8b65f88e" target="_top" xlink:title="Drives the OpenFoamModuleDriver::TestObject. ">
<polygon fill="none" stroke="black" points="131,-213 131,-243 253,-243 253,-213 131,-213"/>
<text text-anchor="start" x="139" y="-231" font-family="Helvetica,sans-Serif" font-size="10.00">OpenFoamModuleDriver</text>
<text text-anchor="middle" x="192" y="-220" font-family="Helvetica,sans-Serif" font-size="10.00">::ParallelTest</text>
</a>
</g>
</g>
<!-- Node1&#45;&gt;Node4 -->
<g id="edge3" class="edge"><title>Node1&#45;&gt;Node4</title>
<path fill="none" stroke="midnightblue" d="M60.0542,-152.225C74.9102,-167.327 98.2293,-188.999 122,-203 128.367,-206.751 135.391,-210.085 142.448,-212.999"/>
<polygon fill="midnightblue" stroke="midnightblue" points="62.1769,-149.383 52.7224,-144.601 57.1315,-154.235 62.1769,-149.383"/>
</g>
<!-- Node6 -->
<g id="node6" class="node"><title>Node6</title>
<g id="a_node6"><a xlink:href="namespaceElmerModuleDriver_a81f0cdc909567e8d6ef1546887dfa3e2.html#a81f0cdc909567e8d6ef1546887dfa3e2" target="_top" xlink:title="Drives the ElmerModuleDriver::TestObject. ">
<polygon fill="none" stroke="black" points="139,-164 139,-194 245,-194 245,-164 139,-164"/>
<text text-anchor="start" x="147" y="-182" font-family="Helvetica,sans-Serif" font-size="10.00">ElmerModuleDriver::</text>
<text text-anchor="middle" x="192" y="-171" font-family="Helvetica,sans-Serif" font-size="10.00">ParallelTest</text>
</a>
</g>
</g>
<!-- Node1&#45;&gt;Node6 -->
<g id="edge5" class="edge"><title>Node1&#45;&gt;Node6</title>
<path fill="none" stroke="midnightblue" d="M85.6119,-147.455C102.738,-152.581 122.728,-158.565 140.668,-163.935"/>
<polygon fill="midnightblue" stroke="midnightblue" points="86.4805,-144.062 75.8968,-144.547 84.4732,-150.768 86.4805,-144.062"/>
</g>
<!-- Node8 -->
<g id="node8" class="node"><title>Node8</title>
<g id="a_node8"><a xlink:href="classIRAD_1_1Util_1_1ComLineObject_a23c350962544b3ce7497a8add2195eb8.html#a23c350962544b3ce7497a8add2195eb8" target="_top" xlink:title="One fell swoop processing of command line. ">
<polygon fill="none" stroke="black" points="134,-125.5 134,-144.5 250,-144.5 250,-125.5 134,-125.5"/>
<text text-anchor="middle" x="192" y="-132.5" font-family="Helvetica,sans-Serif" font-size="10.00">ProcessCommandLine</text>
</a>
</g>
</g>
<!-- Node1&#45;&gt;Node8 -->
<g id="edge7" class="edge"><title>Node1&#45;&gt;Node8</title>
<path fill="none" stroke="midnightblue" d="M96.1363,-135C108.336,-135 121.395,-135 133.802,-135"/>
<polygon fill="midnightblue" stroke="midnightblue" points="96.1243,-131.5 86.1243,-135 96.1243,-138.5 96.1243,-131.5"/>
</g>
<!-- Node9 -->
<g id="node9" class="node"><title>Node9</title>
<g id="a_node9"><a xlink:href="namespaceElmerFoamFSI_aeb590657609088b8ab12a5cbd164fcfa.html#aeb590657609088b8ab12a5cbd164fcfa" target="_top" xlink:title="Drives the ElmerFoamFSI::TestObject. ">
<polygon fill="none" stroke="black" points="138,-87.5 138,-106.5 246,-106.5 246,-87.5 138,-87.5"/>
<text text-anchor="middle" x="192" y="-94.5" font-family="Helvetica,sans-Serif" font-size="10.00">ElmerFoamFSI::Test</text>
</a>
</g>
</g>
<!-- Node1&#45;&gt;Node9 -->
<g id="edge8" class="edge"><title>Node1&#45;&gt;Node9</title>
<path fill="none" stroke="midnightblue" d="M90.8548,-122.888C111.328,-117.596 134.99,-111.479 154.172,-106.52"/>
<polygon fill="midnightblue" stroke="midnightblue" points="89.9001,-119.52 81.0943,-125.411 91.652,-126.297 89.9001,-119.52"/>
</g>
<!-- Node11 -->
<g id="node11" class="node"><title>Node11</title>
<g id="a_node11"><a xlink:href="namespaceElmerModuleDriver_a657930328d3dc159ded2e9fd6473b2b6.html#a657930328d3dc159ded2e9fd6473b2b6" target="_top" xlink:title="Drives the ElmerModuleDriver::TestObject. ">
<polygon fill="none" stroke="black" points="129.5,-49.5 129.5,-68.5 254.5,-68.5 254.5,-49.5 129.5,-49.5"/>
<text text-anchor="middle" x="192" y="-56.5" font-family="Helvetica,sans-Serif" font-size="10.00">ElmerModuleDriver::Test</text>
</a>
</g>
</g>
<!-- Node1&#45;&gt;Node11 -->
<g id="edge10" class="edge"><title>Node1&#45;&gt;Node11</title>
<path fill="none" stroke="midnightblue" d="M62.7835,-118.228C77.847,-105.563 100.032,-88.6088 122,-78 129.832,-74.2177 138.54,-71.0833 147.059,-68.5252"/>
<polygon fill="midnightblue" stroke="midnightblue" points="60.0869,-115.931 54.7928,-125.108 64.6544,-121.235 60.0869,-115.931"/>
</g>
<!-- Node13 -->
<g id="node13" class="node"><title>Node13</title>
<g id="a_node13"><a xlink:href="namespaceOpenFoamModuleDriver_a98bd69551725493def1a31bfe72b0781.html#a98bd69551725493def1a31bfe72b0781" target="_top" xlink:title="Drives the OpenFoamModuleDriver::TestObject. ">
<polygon fill="none" stroke="black" points="131,-0 131,-30 253,-30 253,-0 131,-0"/>
<text text-anchor="start" x="139" y="-18" font-family="Helvetica,sans-Serif" font-size="10.00">OpenFoamModuleDriver</text>
<text text-anchor="middle" x="192" y="-7" font-family="Helvetica,sans-Serif" font-size="10.00">::Test</text>
</a>
</g>
</g>
<!-- Node1&#45;&gt;Node13 -->
<g id="edge12" class="edge"><title>Node1&#45;&gt;Node13</title>
<path fill="none" stroke="midnightblue" d="M54.6759,-116.794C67.963,-95.5957 92.5356,-60.8344 122,-40 127.41,-36.1748 133.469,-32.8721 139.69,-30.0375"/>
<polygon fill="midnightblue" stroke="midnightblue" points="51.5981,-115.119 49.3881,-125.481 57.5774,-118.759 51.5981,-115.119"/>
</g>
<!-- Node3 -->
<g id="node3" class="node"><title>Node3</title>
<g id="a_node3"><a xlink:href="ParallelTestElmerFoamFSI_8C_a0ddf1224851353fc92bfbff6f499fa97.html#a0ddf1224851353fc92bfbff6f499fa97" target="_top" xlink:title="main">
<polygon fill="none" stroke="black" points="298,-262.5 298,-281.5 336,-281.5 336,-262.5 298,-262.5"/>
<text text-anchor="middle" x="317" y="-269.5" font-family="Helvetica,sans-Serif" font-size="10.00">main</text>
</a>
</g>
</g>
<!-- Node2&#45;&gt;Node3 -->
<g id="edge2" class="edge"><title>Node2&#45;&gt;Node3</title>
<path fill="none" stroke="midnightblue" d="M272.08,-272C281.535,-272 290.384,-272 297.627,-272"/>
<polygon fill="midnightblue" stroke="midnightblue" points="272.05,-268.5 262.05,-272 272.05,-275.5 272.05,-268.5"/>
</g>
<!-- Node5 -->
<g id="node5" class="node"><title>Node5</title>
<g id="a_node5"><a xlink:href="ParallelTestOpenFoamModuleDriver_8C_a0ddf1224851353fc92bfbff6f499fa97.html#a0ddf1224851353fc92bfbff6f499fa97" target="_top" xlink:title="main">
<polygon fill="none" stroke="black" points="298,-218.5 298,-237.5 336,-237.5 336,-218.5 298,-218.5"/>
<text text-anchor="middle" x="317" y="-225.5" font-family="Helvetica,sans-Serif" font-size="10.00">main</text>
</a>
</g>
</g>
<!-- Node4&#45;&gt;Node5 -->
<g id="edge4" class="edge"><title>Node4&#45;&gt;Node5</title>
<path fill="none" stroke="midnightblue" d="M263.376,-228C276.154,-228 288.411,-228 297.876,-228"/>
<polygon fill="midnightblue" stroke="midnightblue" points="263.059,-224.5 253.059,-228 263.059,-231.5 263.059,-224.5"/>
</g>
<!-- Node7 -->
<g id="node7" class="node"><title>Node7</title>
<g id="a_node7"><a xlink:href="ParallelTestElmerModuleDriver_8C_a0ddf1224851353fc92bfbff6f499fa97.html#a0ddf1224851353fc92bfbff6f499fa97" target="_top" xlink:title="main">
<polygon fill="none" stroke="black" points="298,-169.5 298,-188.5 336,-188.5 336,-169.5 298,-169.5"/>
<text text-anchor="middle" x="317" y="-176.5" font-family="Helvetica,sans-Serif" font-size="10.00">main</text>
</a>
</g>
</g>
<!-- Node6&#45;&gt;Node7 -->
<g id="edge6" class="edge"><title>Node6&#45;&gt;Node7</title>
<path fill="none" stroke="midnightblue" d="M255.331,-179C270.851,-179 286.3,-179 297.725,-179"/>
<polygon fill="midnightblue" stroke="midnightblue" points="255.163,-175.5 245.163,-179 255.163,-182.5 255.163,-175.5"/>
</g>
<!-- Node10 -->
<g id="node10" class="node"><title>Node10</title>
<g id="a_node10"><a xlink:href="TestElmerFoamFSI_8C_a0ddf1224851353fc92bfbff6f499fa97.html#a0ddf1224851353fc92bfbff6f499fa97" target="_top" xlink:title="main">
<polygon fill="none" stroke="black" points="298,-87.5 298,-106.5 336,-106.5 336,-87.5 298,-87.5"/>
<text text-anchor="middle" x="317" y="-94.5" font-family="Helvetica,sans-Serif" font-size="10.00">main</text>
</a>
</g>
</g>
<!-- Node9&#45;&gt;Node10 -->
<g id="edge9" class="edge"><title>Node9&#45;&gt;Node10</title>
<path fill="none" stroke="midnightblue" d="M256.668,-97C271.763,-97 286.684,-97 297.787,-97"/>
<polygon fill="midnightblue" stroke="midnightblue" points="256.234,-93.5001 246.234,-97 256.234,-100.5 256.234,-93.5001"/>
</g>
<!-- Node12 -->
<g id="node12" class="node"><title>Node12</title>
<g id="a_node12"><a xlink:href="TestElmerModuleDriver_8C_a0ddf1224851353fc92bfbff6f499fa97.html#a0ddf1224851353fc92bfbff6f499fa97" target="_top" xlink:title="main">
<polygon fill="none" stroke="black" points="298,-49.5 298,-68.5 336,-68.5 336,-49.5 298,-49.5"/>
<text text-anchor="middle" x="317" y="-56.5" font-family="Helvetica,sans-Serif" font-size="10.00">main</text>
</a>
</g>
</g>
<!-- Node11&#45;&gt;Node12 -->
<g id="edge11" class="edge"><title>Node11&#45;&gt;Node12</title>
<path fill="none" stroke="midnightblue" d="M265.177,-59C277.348,-59 288.945,-59 297.979,-59"/>
<polygon fill="midnightblue" stroke="midnightblue" points="264.86,-55.5001 254.86,-59 264.86,-62.5001 264.86,-55.5001"/>
</g>
<!-- Node14 -->
<g id="node14" class="node"><title>Node14</title>
<g id="a_node14"><a xlink:href="TestOpenFoamModuleDriver_8C_a0ddf1224851353fc92bfbff6f499fa97.html#a0ddf1224851353fc92bfbff6f499fa97" target="_top" xlink:title="main">
<polygon fill="none" stroke="black" points="298,-5.5 298,-24.5 336,-24.5 336,-5.5 298,-5.5"/>
<text text-anchor="middle" x="317" y="-12.5" font-family="Helvetica,sans-Serif" font-size="10.00">main</text>
</a>
</g>
</g>
<!-- Node13&#45;&gt;Node14 -->
<g id="edge13" class="edge"><title>Node13&#45;&gt;Node14</title>
<path fill="none" stroke="midnightblue" d="M263.376,-15C276.154,-15 288.411,-15 297.876,-15"/>
<polygon fill="midnightblue" stroke="midnightblue" points="263.059,-11.5001 253.059,-15 263.059,-18.5001 263.059,-11.5001"/>
</g>
</g>
</svg>
