<?xml version="1.0" encoding="UTF-8" standalone="no"?>
<!DOCTYPE svg PUBLIC "-//W3C//DTD SVG 1.1//EN"
 "http://www.w3.org/Graphics/SVG/1.1/DTD/svg11.dtd">
<!-- Generated by graphviz version 2.30.1 (20150305.2338)
 -->
<!-- Title: get_next_real_edge Pages: 1 -->
<svg width="656pt" height="372pt"
 viewBox="0.00 0.00 656.00 372.22" xmlns="http://www.w3.org/2000/svg" xmlns:xlink="http://www.w3.org/1999/xlink">
<g id="graph0" class="graph" transform="scale(1 1) rotate(0) translate(4 368.217)">
<title>get_next_real_edge</title>
<!-- Node1 -->
<g id="node1" class="node"><title>Node1</title>
<polygon fill="#bfbfbf" stroke="black" points="0.5,-204.402 0.5,-223.402 101.5,-223.402 101.5,-204.402 0.5,-204.402"/>
<text text-anchor="middle" x="51" y="-211.402" font-family="Helvetica,sans-Serif" font-size="10.00">get_next_real_edge</text>
</g>
<!-- Node2 -->
<g id="node2" class="node"><title>Node2</title>
<g id="a_node2"><a xlink:href="classSimple__manifold__2_a5a0839973515aaf6ec86f3e88d6e1034.html#a5a0839973515aaf6ec86f3e88d6e1034" target="_top" xlink:title="get_next_real_edge\l_interior">
<polygon fill="none" stroke="black" points="294.5,-72.9024 294.5,-102.902 395.5,-102.902 395.5,-72.9024 294.5,-72.9024"/>
<text text-anchor="start" x="302.5" y="-90.9024" font-family="Helvetica,sans-Serif" font-size="10.00">get_next_real_edge</text>
<text text-anchor="middle" x="345" y="-79.9024" font-family="Helvetica,sans-Serif" font-size="10.00">_interior</text>
</a>
</g>
</g>
<!-- Node1&#45;&gt;Node2 -->
<g id="edge1" class="edge"><title>Node1&#45;&gt;Node2</title>
<path fill="none" stroke="midnightblue" d="M74.4279,-204.225C122.57,-183.451 236.558,-134.264 299.803,-106.974"/>
<polygon fill="midnightblue" stroke="midnightblue" points="301.331,-110.126 309.126,-102.951 298.557,-103.699 301.331,-110.126"/>
</g>
<!-- Node7 -->
<g id="node7" class="node"><title>Node7</title>
<g id="a_node7"><a xlink:href="classSimple__manifold__2_a388807b9a6d8f961084b971ad0967d6e.html#a388807b9a6d8f961084b971ad0967d6e" target="_top" xlink:title="Get the ID of the opposite real edge of a given real or border edge. ">
<polygon fill="none" stroke="black" points="138.5,-248.402 138.5,-267.402 257.5,-267.402 257.5,-248.402 138.5,-248.402"/>
<text text-anchor="middle" x="198" y="-255.402" font-family="Helvetica,sans-Serif" font-size="10.00">get_opposite_real_edge</text>
</a>
</g>
</g>
<!-- Node1&#45;&gt;Node7 -->
<g id="edge8" class="edge"><title>Node1&#45;&gt;Node7</title>
<path fill="none" stroke="midnightblue" d="M83.4628,-223.45C104.649,-229.879 132.806,-238.423 155.78,-245.394"/>
<polygon fill="midnightblue" stroke="midnightblue" points="155.013,-248.819 165.599,-248.374 157.046,-242.121 155.013,-248.819"/>
</g>
<!-- Node8 -->
<g id="node8" class="node"><title>Node8</title>
<g id="a_node8"><a xlink:href="classSimple__manifold__2_a97484283cf37c9ffd5d002c22335d5db.html#a97484283cf37c9ffd5d002c22335d5db" target="_top" xlink:title="Get the opposite edge of an interior edge of the real part. ">
<polygon fill="none" stroke="black" points="138.5,-198.902 138.5,-228.902 257.5,-228.902 257.5,-198.902 138.5,-198.902"/>
<text text-anchor="start" x="146.5" y="-216.902" font-family="Helvetica,sans-Serif" font-size="10.00">get_opposite_real_edge</text>
<text text-anchor="middle" x="198" y="-205.902" font-family="Helvetica,sans-Serif" font-size="10.00">_interior</text>
</a>
</g>
</g>
<!-- Node1&#45;&gt;Node8 -->
<g id="edge9" class="edge"><title>Node1&#45;&gt;Node8</title>
<path fill="none" stroke="midnightblue" d="M101.901,-213.902C110.321,-213.902 119.192,-213.902 127.995,-213.902"/>
<polygon fill="midnightblue" stroke="midnightblue" points="128.266,-217.402 138.266,-213.902 128.266,-210.402 128.266,-217.402"/>
</g>
<!-- Node12 -->
<g id="node12" class="node"><title>Node12</title>
<g id="a_node12"><a xlink:href="classSimple__manifold__2_ac5bd537a36f17699f9410f428f154f40.html#ac5bd537a36f17699f9410f428f154f40" target="_top" xlink:title="get_prev_real_edge\l_interior">
<polygon fill="none" stroke="black" points="294.5,-23.9024 294.5,-53.9024 395.5,-53.9024 395.5,-23.9024 294.5,-23.9024"/>
<text text-anchor="start" x="302.5" y="-41.9024" font-family="Helvetica,sans-Serif" font-size="10.00">get_prev_real_edge</text>
<text text-anchor="middle" x="345" y="-30.9024" font-family="Helvetica,sans-Serif" font-size="10.00">_interior</text>
</a>
</g>
</g>
<!-- Node1&#45;&gt;Node12 -->
<g id="edge21" class="edge"><title>Node1&#45;&gt;Node12</title>
<path fill="none" stroke="midnightblue" d="M58.7385,-204.265C71.9907,-185.938 103.198,-145.766 138,-121.902 183.138,-90.9519 241.552,-68.8065 284.643,-55.2171"/>
<polygon fill="midnightblue" stroke="midnightblue" points="285.899,-58.4925 294.421,-52.1971 283.833,-51.8043 285.899,-58.4925"/>
</g>
<!-- Node10 -->
<g id="node10" class="node"><title>Node10</title>
<g id="a_node10"><a xlink:href="classFacet__ID_aa126fd94949c810d24869ad04cd97e15.html#aa126fd94949c810d24869ad04cd97e15" target="_top" xlink:title="Determines whether the facet is on border. ">
<polygon fill="none" stroke="black" points="432.5,-245.402 432.5,-264.402 535.5,-264.402 535.5,-245.402 432.5,-245.402"/>
<text text-anchor="middle" x="484" y="-252.402" font-family="Helvetica,sans-Serif" font-size="10.00">Facet_ID::is_border</text>
</a>
</g>
</g>
<!-- Node1&#45;&gt;Node10 -->
<g id="edge26" class="edge"><title>Node1&#45;&gt;Node10</title>
<path fill="none" stroke="midnightblue" d="M63.0293,-223.539C95.525,-251.15 194.855,-330.036 294,-352.902 338.174,-363.09 354.651,-371.487 396,-352.902 432.133,-336.662 459.362,-297.176 473.083,-273.58"/>
<polygon fill="midnightblue" stroke="midnightblue" points="476.304,-274.991 478.123,-264.554 470.192,-271.578 476.304,-274.991"/>
</g>
<!-- Node3 -->
<g id="node3" class="node"><title>Node3</title>
<g id="a_node3"><a xlink:href="classFacet__ID_a1dea367be190d5726e3aa6b8d0c47076.html#a1dea367be190d5726e3aa6b8d0c47076" target="_top" xlink:title="Element ID of the halfedge. ">
<polygon fill="none" stroke="black" points="572,-128.402 572,-147.402 648,-147.402 648,-128.402 572,-128.402"/>
<text text-anchor="middle" x="610" y="-135.402" font-family="Helvetica,sans-Serif" font-size="10.00">Facet_ID::eid</text>
</a>
</g>
</g>
<!-- Node2&#45;&gt;Node3 -->
<g id="edge2" class="edge"><title>Node2&#45;&gt;Node3</title>
<path fill="none" stroke="midnightblue" d="M395.841,-94.7414C434.303,-100.331 488.748,-108.921 536,-118.902 545.51,-120.911 555.641,-123.352 565.235,-125.806"/>
<polygon fill="midnightblue" stroke="midnightblue" points="564.429,-129.213 574.988,-128.35 566.196,-122.44 564.429,-129.213"/>
</g>
<!-- Node4 -->
<g id="node4" class="node"><title>Node4</title>
<g id="a_node4"><a xlink:href="classSimple__manifold__2_a678219ca5d2b29febb0820f195f668ba.html#a678219ca5d2b29febb0820f195f668ba" target="_top" xlink:title="Get an index for internal edges. ">
<polygon fill="none" stroke="black" points="441.5,-128.402 441.5,-147.402 526.5,-147.402 526.5,-128.402 441.5,-128.402"/>
<text text-anchor="middle" x="484" y="-135.402" font-family="Helvetica,sans-Serif" font-size="10.00">get_edge_index</text>
</a>
</g>
</g>
<!-- Node2&#45;&gt;Node4 -->
<g id="edge3" class="edge"><title>Node2&#45;&gt;Node4</title>
<path fill="none" stroke="midnightblue" d="M387.105,-102.904C406.212,-109.878 428.724,-118.094 447.134,-124.812"/>
<polygon fill="midnightblue" stroke="midnightblue" points="446.024,-128.133 456.618,-128.274 448.424,-121.558 446.024,-128.133"/>
</g>
<!-- Node6 -->
<g id="node6" class="node"><title>Node6</title>
<g id="a_node6"><a xlink:href="classSimple__manifold__2_ab06c9b0093094a1e15b3c1d91b6d7012.html#ab06c9b0093094a1e15b3c1d91b6d7012" target="_top" xlink:title="Is the element incident on the give edge a ghost element? ">
<polygon fill="none" stroke="black" points="437.5,-166.402 437.5,-185.402 530.5,-185.402 530.5,-166.402 437.5,-166.402"/>
<text text-anchor="middle" x="484" y="-173.402" font-family="Helvetica,sans-Serif" font-size="10.00">is_ghost_element</text>
</a>
</g>
</g>
<!-- Node2&#45;&gt;Node6 -->
<g id="edge6" class="edge"><title>Node2&#45;&gt;Node6</title>
<path fill="none" stroke="midnightblue" d="M361.667,-103.07C378.094,-118.318 405.2,-141.686 432,-156.902 435.505,-158.892 439.258,-160.747 443.079,-162.455"/>
<polygon fill="midnightblue" stroke="midnightblue" points="442.035,-165.811 452.614,-166.397 444.709,-159.342 442.035,-165.811"/>
</g>
<!-- Node5 -->
<g id="node5" class="node"><title>Node5</title>
<g id="a_node5"><a xlink:href="classFacet__ID_ae7df635a2e18521c31e7da0b999b802b.html#ae7df635a2e18521c31e7da0b999b802b" target="_top" xlink:title="Local edge ID of the halfedge within its element. ">
<polygon fill="none" stroke="black" points="573.5,-71.4024 573.5,-90.4024 646.5,-90.4024 646.5,-71.4024 573.5,-71.4024"/>
<text text-anchor="middle" x="610" y="-78.4024" font-family="Helvetica,sans-Serif" font-size="10.00">Facet_ID::lid</text>
</a>
</g>
</g>
<!-- Node2&#45;&gt;Node5 -->
<g id="edge7" class="edge"><title>Node2&#45;&gt;Node5</title>
<path fill="none" stroke="midnightblue" d="M395.777,-86.5775C443.957,-85.2952 516.386,-83.3674 563.18,-82.1219"/>
<polygon fill="midnightblue" stroke="midnightblue" points="563.433,-85.6165 573.336,-81.8516 563.247,-78.619 563.433,-85.6165"/>
</g>
<!-- Node4&#45;&gt;Node3 -->
<g id="edge4" class="edge"><title>Node4&#45;&gt;Node3</title>
<path fill="none" stroke="midnightblue" d="M526.635,-137.902C537.84,-137.902 550.042,-137.902 561.538,-137.902"/>
<polygon fill="midnightblue" stroke="midnightblue" points="561.848,-141.402 571.848,-137.902 561.848,-134.402 561.848,-141.402"/>
</g>
<!-- Node4&#45;&gt;Node5 -->
<g id="edge5" class="edge"><title>Node4&#45;&gt;Node5</title>
<path fill="none" stroke="midnightblue" d="M505.755,-128.362C525.783,-119.155 556.321,-105.118 578.995,-94.695"/>
<polygon fill="midnightblue" stroke="midnightblue" points="580.553,-97.8308 588.177,-90.474 577.63,-91.4706 580.553,-97.8308"/>
</g>
<!-- Node8&#45;&gt;Node3 -->
<g id="edge10" class="edge"><title>Node8&#45;&gt;Node3</title>
<path fill="none" stroke="midnightblue" d="M236.038,-229.028C243.366,-232.18 250.965,-235.563 258,-238.902 274.344,-246.661 276.719,-252.547 294,-257.902 396.959,-289.811 443.497,-329.237 536,-273.902 578.602,-248.418 597.774,-188.601 605.117,-157.484"/>
<polygon fill="midnightblue" stroke="midnightblue" points="608.597,-157.951 607.308,-147.435 601.758,-156.46 608.597,-157.951"/>
</g>
<!-- Node8&#45;&gt;Node4 -->
<g id="edge11" class="edge"><title>Node8&#45;&gt;Node4</title>
<path fill="none" stroke="midnightblue" d="M231.401,-198.747C249.504,-190.754 272.654,-181.306 294,-174.902 339.567,-161.233 392.867,-151.329 431.227,-145.227"/>
<polygon fill="midnightblue" stroke="midnightblue" points="431.795,-148.681 441.137,-143.682 430.717,-141.764 431.795,-148.681"/>
</g>
<!-- Node9 -->
<g id="node9" class="node"><title>Node9</title>
<g id="a_node9"><a xlink:href="classSimple__manifold__2_aa81d979ace76b3412a00645efe09cfff.html#aa81d979ace76b3412a00645efe09cfff" target="_top" xlink:title="Get the opposite edge of an interior edge of the ghost part. ">
<polygon fill="none" stroke="black" points="294.5,-198.902 294.5,-228.902 395.5,-228.902 395.5,-198.902 294.5,-198.902"/>
<text text-anchor="start" x="302.5" y="-216.902" font-family="Helvetica,sans-Serif" font-size="10.00">get_opposite_ghost</text>
<text text-anchor="middle" x="345" y="-205.902" font-family="Helvetica,sans-Serif" font-size="10.00">_edge_interior</text>
</a>
</g>
</g>
<!-- Node8&#45;&gt;Node9 -->
<g id="edge12" class="edge"><title>Node8&#45;&gt;Node9</title>
<path fill="none" stroke="midnightblue" d="M257.559,-213.902C266.259,-213.902 275.237,-213.902 283.967,-213.902"/>
<polygon fill="midnightblue" stroke="midnightblue" points="284.069,-217.402 294.069,-213.902 284.069,-210.402 284.069,-217.402"/>
</g>
<!-- Node8&#45;&gt;Node10 -->
<g id="edge18" class="edge"><title>Node8&#45;&gt;Node10</title>
<path fill="none" stroke="midnightblue" d="M252.443,-228.974C265.918,-232.339 280.416,-235.59 294,-237.902 336.452,-245.128 384.826,-249.406 422.006,-251.864"/>
<polygon fill="midnightblue" stroke="midnightblue" points="421.981,-255.369 432.182,-252.51 422.424,-248.384 421.981,-255.369"/>
</g>
<!-- Node8&#45;&gt;Node6 -->
<g id="edge19" class="edge"><title>Node8&#45;&gt;Node6</title>
<path fill="none" stroke="midnightblue" d="M248.908,-198.88C263.337,-195.053 279.191,-191.338 294,-188.902 338.349,-181.609 389.205,-178.398 426.984,-176.989"/>
<polygon fill="midnightblue" stroke="midnightblue" points="427.402,-180.477 437.277,-176.637 427.163,-173.481 427.402,-180.477"/>
</g>
<!-- Node11 -->
<g id="node11" class="node"><title>Node11</title>
<g id="a_node11"><a xlink:href="classSimple__manifold__2_ae1611b1b5b6feb95d11d299ef4150866.html#ae1611b1b5b6feb95d11d299ef4150866" target="_top" xlink:title="Is the element incident on the give edge a real element? ">
<polygon fill="none" stroke="black" points="302.5,-324.402 302.5,-343.402 387.5,-343.402 387.5,-324.402 302.5,-324.402"/>
<text text-anchor="middle" x="345" y="-331.402" font-family="Helvetica,sans-Serif" font-size="10.00">is_real_element</text>
</a>
</g>
</g>
<!-- Node8&#45;&gt;Node11 -->
<g id="edge20" class="edge"><title>Node8&#45;&gt;Node11</title>
<path fill="none" stroke="midnightblue" d="M244.23,-229.039C249.206,-231.839 253.935,-235.106 258,-238.902 283.859,-263.049 268.712,-285.158 294,-309.902 297.774,-313.596 302.226,-316.808 306.893,-319.576"/>
<polygon fill="midnightblue" stroke="midnightblue" points="305.526,-322.812 316.007,-324.361 308.78,-316.614 305.526,-322.812"/>
</g>
<!-- Node9&#45;&gt;Node3 -->
<g id="edge13" class="edge"><title>Node9&#45;&gt;Node3</title>
<path fill="none" stroke="midnightblue" d="M395.806,-216.367C435.215,-216.585 490.922,-212.975 536,-194.902 558.207,-185.999 579.261,-168.189 593,-154.834"/>
<polygon fill="midnightblue" stroke="midnightblue" points="595.635,-157.148 600.198,-147.586 590.668,-152.216 595.635,-157.148"/>
</g>
<!-- Node9&#45;&gt;Node4 -->
<g id="edge14" class="edge"><title>Node9&#45;&gt;Node4</title>
<path fill="none" stroke="midnightblue" d="M366.048,-198.7C382.985,-186.335 408.216,-169.013 432,-156.902 435.992,-154.87 440.254,-152.939 444.549,-151.141"/>
<polygon fill="midnightblue" stroke="midnightblue" points="445.907,-154.368 453.915,-147.431 443.328,-147.86 445.907,-154.368"/>
</g>
<!-- Node9&#45;&gt;Node10 -->
<g id="edge15" class="edge"><title>Node9&#45;&gt;Node10</title>
<path fill="none" stroke="midnightblue" d="M395.848,-228.82C410.767,-233.285 426.963,-238.132 441.3,-242.423"/>
<polygon fill="midnightblue" stroke="midnightblue" points="440.307,-245.779 450.89,-245.293 442.314,-239.073 440.307,-245.779"/>
</g>
<!-- Node9&#45;&gt;Node6 -->
<g id="edge17" class="edge"><title>Node9&#45;&gt;Node6</title>
<path fill="none" stroke="midnightblue" d="M395.848,-200.076C409.884,-196.183 425.052,-191.976 438.738,-188.179"/>
<polygon fill="midnightblue" stroke="midnightblue" points="439.704,-191.544 448.404,-185.498 437.833,-184.799 439.704,-191.544"/>
</g>
<!-- Node10&#45;&gt;Node5 -->
<g id="edge16" class="edge"><title>Node10&#45;&gt;Node5</title>
<path fill="none" stroke="midnightblue" d="M494.519,-245.347C505.47,-234.007 523.54,-214.196 536,-194.902 556.277,-163.505 550.674,-149.597 572,-118.902 577.246,-111.352 584.028,-103.911 590.35,-97.6427"/>
<polygon fill="midnightblue" stroke="midnightblue" points="593.123,-99.8353 597.961,-90.4096 588.301,-94.7609 593.123,-99.8353"/>
</g>
<!-- Node12&#45;&gt;Node3 -->
<g id="edge22" class="edge"><title>Node12&#45;&gt;Node3</title>
<path fill="none" stroke="midnightblue" d="M395.849,-50.9662C434.791,-61.1369 489.859,-77.1758 536,-96.9024 553.049,-104.191 571.233,-114.396 585.187,-122.802"/>
<polygon fill="midnightblue" stroke="midnightblue" points="583.753,-126.028 594.107,-128.275 587.414,-120.061 583.753,-126.028"/>
</g>
<!-- Node12&#45;&gt;Node4 -->
<g id="edge23" class="edge"><title>Node12&#45;&gt;Node4</title>
<path fill="none" stroke="midnightblue" d="M380.547,-54.0019C385.851,-56.7398 391.166,-59.7388 396,-62.9024 422.385,-80.1698 449.368,-104.72 466.143,-120.969"/>
<polygon fill="midnightblue" stroke="midnightblue" points="463.926,-123.697 473.511,-128.21 468.833,-118.704 463.926,-123.697"/>
</g>
<!-- Node12&#45;&gt;Node6 -->
<g id="edge24" class="edge"><title>Node12&#45;&gt;Node6</title>
<path fill="none" stroke="midnightblue" d="M385.183,-53.956C389.153,-56.5353 392.868,-59.5034 396,-62.9024 426.314,-95.8027 400.222,-125.413 432,-156.902 433.46,-158.349 435.04,-159.687 436.709,-160.924"/>
<polygon fill="midnightblue" stroke="midnightblue" points="435.281,-164.15 445.653,-166.309 438.891,-158.153 435.281,-164.15"/>
</g>
<!-- Node12&#45;&gt;Node5 -->
<g id="edge25" class="edge"><title>Node12&#45;&gt;Node5</title>
<path fill="none" stroke="midnightblue" d="M378.814,-23.7793C417.684,-8.11914 483.752,11.3156 536,-9.90239 562.224,-20.5519 584.198,-45.6486 596.981,-62.9581"/>
<polygon fill="midnightblue" stroke="midnightblue" points="594.168,-65.0421 602.803,-71.1822 599.882,-60.9979 594.168,-65.0421"/>
</g>
</g>
</svg>
