<?xml version="1.0" encoding="UTF-8" standalone="no"?>
<!DOCTYPE svg PUBLIC "-//W3C//DTD SVG 1.1//EN"
 "http://www.w3.org/Graphics/SVG/1.1/DTD/svg11.dtd">
<!-- Generated by graphviz version 2.30.1 (20150305.2338)
 -->
<!-- Title: operator&lt; Pages: 1 -->
<svg width="284pt" height="136pt"
 viewBox="0.00 0.00 284.00 136.00" xmlns="http://www.w3.org/2000/svg" xmlns:xlink="http://www.w3.org/1999/xlink">
<g id="graph0" class="graph" transform="scale(1 1) rotate(0) translate(4 132)">
<title>operator&lt;</title>
<!-- Node1 -->
<g id="node1" class="node"><title>Node1</title>
<polygon fill="#bfbfbf" stroke="black" points="0,-54.5 0,-73.5 58,-73.5 58,-54.5 0,-54.5"/>
<text text-anchor="middle" x="29" y="-61.5" font-family="Helvetica,sans-Serif" font-size="10.00">operator&lt;</text>
</g>
<!-- Node2 -->
<g id="node2" class="node"><title>Node2</title>
<g id="a_node2"><a xlink:href="classSolverUtils_1_1GeoPrim_1_1C3Box_ad5a3c5c8c5d76644ff248ff8c50ddf1f.html#ad5a3c5c8c5d76644ff248ff8c50ddf1f" target="_top" xlink:title="size">
<polygon fill="none" stroke="black" points="94.5,-54.5 94.5,-73.5 129.5,-73.5 129.5,-54.5 94.5,-54.5"/>
<text text-anchor="middle" x="112" y="-61.5" font-family="Helvetica,sans-Serif" font-size="10.00">size</text>
</a>
</g>
</g>
<!-- Node1&#45;&gt;Node2 -->
<g id="edge1" class="edge"><title>Node1&#45;&gt;Node2</title>
<path fill="none" stroke="midnightblue" d="M58.3299,-64C66.7042,-64 75.8439,-64 84.1237,-64"/>
<polygon fill="midnightblue" stroke="midnightblue" points="84.3763,-67.5001 94.3762,-64 84.3762,-60.5001 84.3763,-67.5001"/>
</g>
<!-- Node3 -->
<g id="node3" class="node"><title>Node3</title>
<g id="a_node3"><a xlink:href="classSolverUtils_1_1GeoPrim_1_1C3Vector_a3b195b867437acf8de45f48c83e81932.html#a3b195b867437acf8de45f48c83e81932" target="_top" xlink:title="SolverUtils::GeoPrim\l::C3Vector::x">
<polygon fill="none" stroke="black" points="166.5,-98 166.5,-128 275.5,-128 275.5,-98 166.5,-98"/>
<text text-anchor="start" x="174.5" y="-116" font-family="Helvetica,sans-Serif" font-size="10.00">SolverUtils::GeoPrim</text>
<text text-anchor="middle" x="221" y="-105" font-family="Helvetica,sans-Serif" font-size="10.00">::C3Vector::x</text>
</a>
</g>
</g>
<!-- Node2&#45;&gt;Node3 -->
<g id="edge2" class="edge"><title>Node2&#45;&gt;Node3</title>
<path fill="none" stroke="midnightblue" d="M129.719,-71.6562C142.613,-77.5611 161.032,-85.9959 177.874,-93.7086"/>
<polygon fill="midnightblue" stroke="midnightblue" points="176.474,-96.9171 187.023,-97.8986 179.389,-90.5527 176.474,-96.9171"/>
</g>
<!-- Node4 -->
<g id="node4" class="node"><title>Node4</title>
<g id="a_node4"><a xlink:href="classSolverUtils_1_1GeoPrim_1_1C3Vector_ad927d9808ded1fc49c05ae9e1a3ed2a6.html#ad927d9808ded1fc49c05ae9e1a3ed2a6" target="_top" xlink:title="SolverUtils::GeoPrim\l::C3Vector::y">
<polygon fill="none" stroke="black" points="166.5,-49 166.5,-79 275.5,-79 275.5,-49 166.5,-49"/>
<text text-anchor="start" x="174.5" y="-67" font-family="Helvetica,sans-Serif" font-size="10.00">SolverUtils::GeoPrim</text>
<text text-anchor="middle" x="221" y="-56" font-family="Helvetica,sans-Serif" font-size="10.00">::C3Vector::y</text>
</a>
</g>
</g>
<!-- Node2&#45;&gt;Node4 -->
<g id="edge3" class="edge"><title>Node2&#45;&gt;Node4</title>
<path fill="none" stroke="midnightblue" d="M129.719,-64C137.135,-64 146.378,-64 156.098,-64"/>
<polygon fill="midnightblue" stroke="midnightblue" points="156.343,-67.5001 166.343,-64 156.343,-60.5001 156.343,-67.5001"/>
</g>
<!-- Node5 -->
<g id="node5" class="node"><title>Node5</title>
<g id="a_node5"><a xlink:href="classSolverUtils_1_1GeoPrim_1_1C3Vector_a2134ad02d68f29e9c7cd87e4cd4c75b8.html#a2134ad02d68f29e9c7cd87e4cd4c75b8" target="_top" xlink:title="SolverUtils::GeoPrim\l::C3Vector::z">
<polygon fill="none" stroke="black" points="166.5,-0 166.5,-30 275.5,-30 275.5,-0 166.5,-0"/>
<text text-anchor="start" x="174.5" y="-18" font-family="Helvetica,sans-Serif" font-size="10.00">SolverUtils::GeoPrim</text>
<text text-anchor="middle" x="221" y="-7" font-family="Helvetica,sans-Serif" font-size="10.00">::C3Vector::z</text>
</a>
</g>
</g>
<!-- Node2&#45;&gt;Node5 -->
<g id="edge4" class="edge"><title>Node2&#45;&gt;Node5</title>
<path fill="none" stroke="midnightblue" d="M129.719,-56.3438C142.613,-50.4389 161.032,-42.0041 177.874,-34.2914"/>
<polygon fill="midnightblue" stroke="midnightblue" points="179.389,-37.4473 187.023,-30.1014 176.474,-31.0829 179.389,-37.4473"/>
</g>
</g>
</svg>
