<?xml version="1.0" encoding="UTF-8" standalone="no"?>
<!DOCTYPE svg PUBLIC "-//W3C//DTD SVG 1.1//EN"
 "http://www.w3.org/Graphics/SVG/1.1/DTD/svg11.dtd">
<!-- Generated by graphviz version 2.30.1 (20150305.2338)
 -->
<!-- Title: TestTransfer Pages: 1 -->
<svg width="772pt" height="279pt"
 viewBox="0.00 0.00 772.00 279.00" xmlns="http://www.w3.org/2000/svg" xmlns:xlink="http://www.w3.org/1999/xlink">
<g id="graph0" class="graph" transform="scale(1 1) rotate(0) translate(4 275)">
<title>TestTransfer</title>
<!-- Node1 -->
<g id="node1" class="node"><title>Node1</title>
<polygon fill="#bfbfbf" stroke="black" points="0,-131.5 0,-150.5 72,-150.5 72,-131.5 0,-131.5"/>
<text text-anchor="middle" x="36" y="-138.5" font-family="Helvetica,sans-Serif" font-size="10.00">TestTransfer</text>
</g>
<!-- Node2 -->
<g id="node2" class="node"><title>Node2</title>
<g id="a_node2"><a xlink:href="com__c_8h_a6dd240c15a2b3e85d2d91cbe9eec6611.html#a6dd240c15a2b3e85d2d91cbe9eec6611" target="_top" xlink:title="Get the address for an dataitem on a specific pane. ">
<polygon fill="none" stroke="black" points="143,-251.5 143,-270.5 229,-270.5 229,-251.5 143,-251.5"/>
<text text-anchor="middle" x="186" y="-258.5" font-family="Helvetica,sans-Serif" font-size="10.00">COM_get_array</text>
</a>
</g>
</g>
<!-- Node1&#45;&gt;Node2 -->
<g id="edge1" class="edge"><title>Node1&#45;&gt;Node2</title>
<path fill="none" stroke="midnightblue" d="M40.8883,-150.514C49.6561,-170.723 72.9737,-218.037 108,-242 115.431,-247.084 124.09,-250.81 132.864,-253.541"/>
<polygon fill="midnightblue" stroke="midnightblue" points="132.193,-256.985 142.76,-256.22 134.023,-250.228 132.193,-256.985"/>
</g>
<!-- Node3 -->
<g id="node3" class="node"><title>Node3</title>
<g id="a_node3"><a xlink:href="classopenfoamagentpar_a11af20e113d9cb3bad41a7504f10da2c.html#a11af20e113d9cb3bad41a7504f10da2c" target="_top" xlink:title="openfoamagentpar::Coordinates">
<polygon fill="none" stroke="black" points="108.5,-213.5 108.5,-232.5 263.5,-232.5 263.5,-213.5 108.5,-213.5"/>
<text text-anchor="middle" x="186" y="-220.5" font-family="Helvetica,sans-Serif" font-size="10.00">openfoamagentpar::Coordinates</text>
</a>
</g>
</g>
<!-- Node1&#45;&gt;Node3 -->
<g id="edge2" class="edge"><title>Node1&#45;&gt;Node3</title>
<path fill="none" stroke="midnightblue" d="M45.1146,-150.712C57.308,-164.661 81.7421,-190.201 108,-204 112.456,-206.342 117.211,-208.402 122.086,-210.214"/>
<polygon fill="midnightblue" stroke="midnightblue" points="120.973,-213.532 131.567,-213.4 123.203,-206.897 120.973,-213.532"/>
</g>
<!-- Node4 -->
<g id="node4" class="node"><title>Node4</title>
<g id="a_node4"><a xlink:href="classelmeragentpar_a11af20e113d9cb3bad41a7504f10da2c.html#a11af20e113d9cb3bad41a7504f10da2c" target="_top" xlink:title="elmeragentpar::Coordinates">
<polygon fill="none" stroke="black" points="117.5,-175.5 117.5,-194.5 254.5,-194.5 254.5,-175.5 117.5,-175.5"/>
<text text-anchor="middle" x="186" y="-182.5" font-family="Helvetica,sans-Serif" font-size="10.00">elmeragentpar::Coordinates</text>
</a>
</g>
</g>
<!-- Node1&#45;&gt;Node4 -->
<g id="edge3" class="edge"><title>Node1&#45;&gt;Node4</title>
<path fill="none" stroke="midnightblue" d="M63.826,-150.575C77.0534,-155.167 93.2877,-160.609 108,-165 117.135,-167.726 126.942,-170.437 136.394,-172.941"/>
<polygon fill="midnightblue" stroke="midnightblue" points="135.512,-176.328 146.072,-175.469 137.281,-169.555 135.512,-176.328"/>
</g>
<!-- Node5 -->
<g id="node5" class="node"><title>Node5</title>
<g id="a_node5"><a xlink:href="classSolverUtils_1_1TransferObjectPar_aa6208b5bc1a6a9e86d72320e39a84a25.html#aa6208b5bc1a6a9e86d72320e39a84a25" target="_top" xlink:title="SolverUtils::TransferObject\lPar::Interpolate">
<polygon fill="none" stroke="black" points="118.5,-126 118.5,-156 253.5,-156 253.5,-126 118.5,-126"/>
<text text-anchor="start" x="126.5" y="-144" font-family="Helvetica,sans-Serif" font-size="10.00">SolverUtils::TransferObject</text>
<text text-anchor="middle" x="186" y="-133" font-family="Helvetica,sans-Serif" font-size="10.00">Par::Interpolate</text>
</a>
</g>
</g>
<!-- Node1&#45;&gt;Node5 -->
<g id="edge4" class="edge"><title>Node1&#45;&gt;Node5</title>
<path fill="none" stroke="midnightblue" d="M72.0739,-141C83.0006,-141 95.5103,-141 108.131,-141"/>
<polygon fill="midnightblue" stroke="midnightblue" points="108.249,-144.5 118.249,-141 108.249,-137.5 108.249,-144.5"/>
</g>
<!-- Node11 -->
<g id="node11" class="node"><title>Node11</title>
<g id="a_node11"><a xlink:href="classopenfoamagentpar_a84634b1a9101359943436cfa37a4b88e.html#a84634b1a9101359943436cfa37a4b88e" target="_top" xlink:title="openfoamagentpar::PaneID">
<polygon fill="none" stroke="black" points="118,-87.5 118,-106.5 254,-106.5 254,-87.5 118,-87.5"/>
<text text-anchor="middle" x="186" y="-94.5" font-family="Helvetica,sans-Serif" font-size="10.00">openfoamagentpar::PaneID</text>
</a>
</g>
</g>
<!-- Node1&#45;&gt;Node11 -->
<g id="edge10" class="edge"><title>Node1&#45;&gt;Node11</title>
<path fill="none" stroke="midnightblue" d="M63.826,-131.425C77.0534,-126.833 93.2877,-121.391 108,-117 117.135,-114.274 126.942,-111.563 136.394,-109.059"/>
<polygon fill="midnightblue" stroke="midnightblue" points="137.281,-112.445 146.072,-106.531 135.512,-105.672 137.281,-112.445"/>
</g>
<!-- Node12 -->
<g id="node12" class="node"><title>Node12</title>
<g id="a_node12"><a xlink:href="classelmeragentpar_a84634b1a9101359943436cfa37a4b88e.html#a84634b1a9101359943436cfa37a4b88e" target="_top" xlink:title="elmeragentpar::PaneID">
<polygon fill="none" stroke="black" points="127.5,-49.5 127.5,-68.5 244.5,-68.5 244.5,-49.5 127.5,-49.5"/>
<text text-anchor="middle" x="186" y="-56.5" font-family="Helvetica,sans-Serif" font-size="10.00">elmeragentpar::PaneID</text>
</a>
</g>
</g>
<!-- Node1&#45;&gt;Node12 -->
<g id="edge11" class="edge"><title>Node1&#45;&gt;Node12</title>
<path fill="none" stroke="midnightblue" d="M45.1146,-131.288C57.308,-117.339 81.7421,-91.7987 108,-78 112.456,-75.6581 117.211,-73.5976 122.086,-71.7859"/>
<polygon fill="midnightblue" stroke="midnightblue" points="123.203,-75.1031 131.567,-68.5999 120.973,-68.4678 123.203,-75.1031"/>
</g>
<!-- Node13 -->
<g id="node13" class="node"><title>Node13</title>
<g id="a_node13"><a xlink:href="classIRAD_1_1Global_1_1GlobalObj_a4604cffc6d9588606aa2a5866b026226.html#a4604cffc6d9588606aa2a5866b026226" target="_top" xlink:title="IRAD::Global::GlobalObj\l::StdOut">
<polygon fill="none" stroke="black" points="124,-0 124,-30 248,-30 248,-0 124,-0"/>
<text text-anchor="start" x="132" y="-18" font-family="Helvetica,sans-Serif" font-size="10.00">IRAD::Global::GlobalObj</text>
<text text-anchor="middle" x="186" y="-7" font-family="Helvetica,sans-Serif" font-size="10.00">::StdOut</text>
</a>
</g>
</g>
<!-- Node1&#45;&gt;Node13 -->
<g id="edge12" class="edge"><title>Node1&#45;&gt;Node13</title>
<path fill="none" stroke="midnightblue" d="M41.1626,-131.375C50.298,-111.371 74.0315,-65.0809 108,-40 110.519,-38.1398 113.183,-36.4141 115.948,-34.8135"/>
<polygon fill="midnightblue" stroke="midnightblue" points="117.779,-37.8076 125.065,-30.1159 114.572,-31.585 117.779,-37.8076"/>
</g>
<!-- Node6 -->
<g id="node6" class="node"><title>Node6</title>
<g id="a_node6"><a xlink:href="com__c_09_09_8hpp_a86224e33f2e17b4cee6c3256bfdff75d.html#a86224e33f2e17b4cee6c3256bfdff75d" target="_top" xlink:title="COM_get_dataitem_handle">
<polygon fill="none" stroke="black" points="300.5,-153.5 300.5,-172.5 435.5,-172.5 435.5,-153.5 300.5,-153.5"/>
<text text-anchor="middle" x="368" y="-160.5" font-family="Helvetica,sans-Serif" font-size="10.00">COM_get_dataitem_handle</text>
</a>
</g>
</g>
<!-- Node5&#45;&gt;Node6 -->
<g id="edge5" class="edge"><title>Node5&#45;&gt;Node6</title>
<path fill="none" stroke="midnightblue" d="M253.514,-149.129C265.485,-150.593 278.051,-152.129 290.283,-153.624"/>
<polygon fill="midnightblue" stroke="midnightblue" points="290.108,-157.128 300.459,-154.867 290.958,-150.18 290.108,-157.128"/>
</g>
<!-- Node10 -->
<g id="node10" class="node"><title>Node10</title>
<g id="a_node10"><a xlink:href="namespaceSolverUtils_ab602f331b052ecdbea6aa8caa0eeed75.html#ab602f331b052ecdbea6aa8caa0eeed75" target="_top" xlink:title="SolverUtils::COM_call\l_function">
<polygon fill="none" stroke="black" points="311,-104 311,-134 425,-134 425,-104 311,-104"/>
<text text-anchor="start" x="319" y="-122" font-family="Helvetica,sans-Serif" font-size="10.00">SolverUtils::COM_call</text>
<text text-anchor="middle" x="368" y="-111" font-family="Helvetica,sans-Serif" font-size="10.00">_function</text>
</a>
</g>
</g>
<!-- Node5&#45;&gt;Node10 -->
<g id="edge9" class="edge"><title>Node5&#45;&gt;Node10</title>
<path fill="none" stroke="midnightblue" d="M253.514,-132.871C268.958,-130.983 285.395,-128.974 300.825,-127.088"/>
<polygon fill="midnightblue" stroke="midnightblue" points="301.297,-130.556 310.799,-125.869 300.448,-123.608 301.297,-130.556"/>
</g>
<!-- Node7 -->
<g id="node7" class="node"><title>Node7</title>
<g id="a_node7"><a xlink:href="COM__base_8hpp_a49353596e53127db61529b5c9000549d.html#a49353596e53127db61529b5c9000549d" target="_top" xlink:title="COM_get_com">
<polygon fill="none" stroke="black" points="488.5,-175.5 488.5,-194.5 571.5,-194.5 571.5,-175.5 488.5,-175.5"/>
<text text-anchor="middle" x="530" y="-182.5" font-family="Helvetica,sans-Serif" font-size="10.00">COM_get_com</text>
</a>
</g>
</g>
<!-- Node6&#45;&gt;Node7 -->
<g id="edge6" class="edge"><title>Node6&#45;&gt;Node7</title>
<path fill="none" stroke="midnightblue" d="M435.927,-172.203C450.121,-174.154 464.879,-176.183 478.348,-178.035"/>
<polygon fill="midnightblue" stroke="midnightblue" points="477.983,-181.518 488.367,-179.413 478.937,-174.583 477.983,-181.518"/>
</g>
<!-- Node9 -->
<g id="node9" class="node"><title>Node9</title>
<g id="a_node9"><a xlink:href="classCOM_1_1COM__base_a9fd7945150b9f390f5560bce2b7ea375.html#a9fd7945150b9f390f5560bce2b7ea375" target="_top" xlink:title="COM::COM_base::get\l_dataitem_handle">
<polygon fill="none" stroke="black" points="472.5,-126 472.5,-156 587.5,-156 587.5,-126 472.5,-126"/>
<text text-anchor="start" x="480.5" y="-144" font-family="Helvetica,sans-Serif" font-size="10.00">COM::COM_base::get</text>
<text text-anchor="middle" x="530" y="-133" font-family="Helvetica,sans-Serif" font-size="10.00">_dataitem_handle</text>
</a>
</g>
</g>
<!-- Node6&#45;&gt;Node9 -->
<g id="edge8" class="edge"><title>Node6&#45;&gt;Node9</title>
<path fill="none" stroke="midnightblue" d="M435.927,-153.797C444.667,-152.596 453.621,-151.365 462.356,-150.163"/>
<polygon fill="midnightblue" stroke="midnightblue" points="463.054,-153.601 472.484,-148.771 462.101,-146.666 463.054,-153.601"/>
</g>
<!-- Node8 -->
<g id="node8" class="node"><title>Node8</title>
<g id="a_node8"><a xlink:href="classCOM_1_1COM__base_a77bb770b9ec1aac99361c45efbccabc1.html#a77bb770b9ec1aac99361c45efbccabc1" target="_top" xlink:title="Get a pointer to the COM object. ">
<polygon fill="none" stroke="black" points="624.5,-175.5 624.5,-194.5 763.5,-194.5 763.5,-175.5 624.5,-175.5"/>
<text text-anchor="middle" x="694" y="-182.5" font-family="Helvetica,sans-Serif" font-size="10.00">COM::COM_base::get_com</text>
</a>
</g>
</g>
<!-- Node7&#45;&gt;Node8 -->
<g id="edge7" class="edge"><title>Node7&#45;&gt;Node8</title>
<path fill="none" stroke="midnightblue" d="M571.879,-185C584.826,-185 599.603,-185 614.279,-185"/>
<polygon fill="midnightblue" stroke="midnightblue" points="614.4,-188.5 624.4,-185 614.4,-181.5 614.4,-188.5"/>
</g>
</g>
</svg>
