<?xml version="1.0" encoding="UTF-8" standalone="no"?>
<!DOCTYPE svg PUBLIC "-//W3C//DTD SVG 1.1//EN"
 "http://www.w3.org/Graphics/SVG/1.1/DTD/svg11.dtd">
<!-- Generated by graphviz version 2.30.1 (20150305.2338)
 -->
<!-- Title: Param Pages: 1 -->
<svg width="176pt" height="66pt"
 viewBox="0.00 0.00 176.00 66.00" xmlns="http://www.w3.org/2000/svg" xmlns:xlink="http://www.w3.org/1999/xlink">
<g id="graph0" class="graph" transform="scale(1 1) rotate(0) translate(4 62)">
<title>Param</title>
<!-- Node1 -->
<g id="node1" class="node"><title>Node1</title>
<polygon fill="#bfbfbf" stroke="black" points="0.5,-19.5 0.5,-38.5 45.5,-38.5 45.5,-19.5 0.5,-19.5"/>
<text text-anchor="middle" x="23" y="-26.5" font-family="Helvetica,sans-Serif" font-size="10.00">Param</text>
</g>
<!-- Node2 -->
<g id="node2" class="node"><title>Node2</title>
<g id="a_node2"><a xlink:href="classIRAD_1_1Util_1_1Parameters_adc851e6e938e00661b79b90a17c19ea8.html#adc851e6e938e00661b79b90a17c19ea8" target="_top" xlink:title="GetValue">
<polygon fill="none" stroke="black" points="96.5,-38.5 96.5,-57.5 153.5,-57.5 153.5,-38.5 96.5,-38.5"/>
<text text-anchor="middle" x="125" y="-45.5" font-family="Helvetica,sans-Serif" font-size="10.00">GetValue</text>
</a>
</g>
</g>
<!-- Node1&#45;&gt;Node2 -->
<g id="edge1" class="edge"><title>Node1&#45;&gt;Node2</title>
<path fill="none" stroke="midnightblue" d="M55.6551,-35.0145C68.6887,-37.4909 83.653,-40.3341 96.2503,-42.7275"/>
<polygon fill="midnightblue" stroke="midnightblue" points="56.1761,-31.5509 45.6985,-33.1227 54.8694,-38.4279 56.1761,-31.5509"/>
</g>
<!-- Node3 -->
<g id="node3" class="node"><title>Node3</title>
<g id="a_node3"><a xlink:href="classIRAD_1_1Util_1_1Parameters_a7aab5d716bbb1989b5cea87914264794.html#a7aab5d716bbb1989b5cea87914264794" target="_top" xlink:title="GetValueVector">
<polygon fill="none" stroke="black" points="82,-0.5 82,-19.5 168,-19.5 168,-0.5 82,-0.5"/>
<text text-anchor="middle" x="125" y="-7.5" font-family="Helvetica,sans-Serif" font-size="10.00">GetValueVector</text>
</a>
</g>
</g>
<!-- Node1&#45;&gt;Node3 -->
<g id="edge2" class="edge"><title>Node1&#45;&gt;Node3</title>
<path fill="none" stroke="midnightblue" d="M55.6941,-22.9781C63.9795,-21.4039 73.0429,-19.6819 81.7812,-18.0216"/>
<polygon fill="midnightblue" stroke="midnightblue" points="54.8694,-19.5721 45.6985,-24.8773 56.1761,-26.4491 54.8694,-19.5721"/>
</g>
</g>
</svg>
