<?xml version="1.0" encoding="UTF-8" standalone="no"?>
<!DOCTYPE svg PUBLIC "-//W3C//DTD SVG 1.1//EN"
 "http://www.w3.org/Graphics/SVG/1.1/DTD/svg11.dtd">
<!-- Generated by graphviz version 2.30.1 (20150305.2338)
 -->
<!-- Title: Pane::Connectivity_friend Pages: 1 -->
<!--zoomable 543 -->
<svg id="main" version="1.1" xmlns="http://www.w3.org/2000/svg" xmlns:xlink="http://www.w3.org/1999/xlink" xml:space="preserve" onload="init(evt)">
<style type="text/css"><![CDATA[
.edge:hover path { stroke: red; }
.edge:hover polygon { stroke: red; fill: red; }
]]></style>
<script type="text/javascript"><![CDATA[
var edges = document.getElementsByTagName('g');
if (edges && edges.length) {
  for (var i=0;i<edges.length;i++) {
    if (edges[i].id.substr(0,4)=='edge') {
      edges[i].setAttribute('class','edge');
    }
  }
}
]]></script>
        <defs>
                <circle id="rim" cx="0" cy="0" r="7"/>
                <circle id="rim2" cx="0" cy="0" r="3.5"/>
                <g id="zoomPlus">
                        <use xlink:href="#rim" fill="#404040">
                                <set attributeName="fill" to="#808080" begin="zoomplus.mouseover" end="zoomplus.mouseout"/>
                        </use>
                        <path d="M-4,0h8M0,-4v8" fill="none" stroke="white" stroke-width="1.5" pointer-events="none"/>
                </g>
                <g id="zoomMin">
                        <use xlink:href="#rim" fill="#404040">
                                <set attributeName="fill" to="#808080" begin="zoomminus.mouseover" end="zoomminus.mouseout"/>
                        </use>
                        <path d="M-4,0h8" fill="none" stroke="white" stroke-width="1.5" pointer-events="none"/>
                </g>
                <g id="dirArrow">
                        <path fill="none" stroke="white" stroke-width="1.5" d="M0,-3.0v7 M-2.5,-0.5L0,-3.0L2.5,-0.5"/>
                </g>
               <g id="resetDef">
                       <use xlink:href="#rim2" fill="#404040">
                               <set attributeName="fill" to="#808080" begin="reset.mouseover" end="reset.mouseout"/>
                       </use>
               </g>
        </defs>

<script type="text/javascript">
var viewWidth = 1548;
var viewHeight = 543;
var sectionId = 'dynsection-1';
</script>
<script xlink:href="svgpan.js"/>
<svg id="graph" class="graph">
<g id="viewport">
<title>Pane::Connectivity_friend</title>
<!-- Node1 -->
<g id="node1" class="node"><title>Node1</title>
<polygon fill="#bfbfbf" stroke="black" points="314,-418 314,-448 414,-448 414,-418 314,-418"/>
<text text-anchor="start" x="322" y="-436" font-family="Helvetica,sans-Serif" font-size="10.00">Pane::Connectivity</text>
<text text-anchor="middle" x="364" y="-425" font-family="Helvetica,sans-Serif" font-size="10.00">_friend</text>
</g>
<!-- Node2 -->
<g id="node2" class="node"><title>Node2</title>
<g id="a_node2"><a xlink:href="classConnectivity.html" target="_top" xlink:title="Encapsulates an element&#45;connectivity of a mesh. ">
<polygon fill="none" stroke="black" points="110.5,-380.5 110.5,-399.5 181.5,-399.5 181.5,-380.5 110.5,-380.5"/>
<text text-anchor="middle" x="146" y="-387.5" font-family="Helvetica,sans-Serif" font-size="10.00">Connectivity</text>
</a>
</g>
</g>
<!-- Node2&#45;&gt;Node1 -->
<g id="edge1" class="edge"><title>Node2&#45;&gt;Node1</title>
<path fill="none" stroke="midnightblue" d="M188.262,-402.133C192.215,-403.158 196.175,-404.133 200,-405 237.943,-413.603 281.385,-420.943 313.875,-425.947"/>
<polygon fill="midnightblue" stroke="midnightblue" points="189.095,-398.733 178.529,-399.514 187.275,-405.493 189.095,-398.733"/>
</g>
<!-- Node5 -->
<g id="node5" class="node"><title>Node5</title>
<polygon fill="none" stroke="#bfbfbf" points="302.5,-379.5 302.5,-398.5 425.5,-398.5 425.5,-379.5 302.5,-379.5"/>
<text text-anchor="middle" x="364" y="-386.5" font-family="Helvetica,sans-Serif" font-size="10.00">vector&lt; Connectivity * &gt;</text>
</g>
<!-- Node2&#45;&gt;Node5 -->
<g id="edge5" class="edge"><title>Node2&#45;&gt;Node5</title>
<path fill="none" stroke="#9a32cd" stroke-dasharray="5,2" d="M192.076,-389.791C224.018,-389.643 267.235,-389.443 302.221,-389.281"/>
<polygon fill="#9a32cd" stroke="#9a32cd" points="191.688,-386.293 181.704,-389.839 191.72,-393.293 191.688,-386.293"/>
<text text-anchor="middle" x="242" y="-393" font-family="Helvetica,sans-Serif" font-size="10.00"> elements</text>
</g>
<!-- Node3 -->
<g id="node3" class="node"><title>Node3</title>
<g id="a_node3"><a xlink:href="classDataItem.html" target="_top" xlink:title="A DataItem object is a data member of a window. ">
<polygon fill="none" stroke="black" points="721.5,-268.5 721.5,-287.5 778.5,-287.5 778.5,-268.5 721.5,-268.5"/>
<text text-anchor="middle" x="750" y="-275.5" font-family="Helvetica,sans-Serif" font-size="10.00">DataItem</text>
</a>
</g>
</g>
<!-- Node3&#45;&gt;Node2 -->
<g id="edge2" class="edge"><title>Node3&#45;&gt;Node2</title>
<path fill="none" stroke="darkgreen" d="M711.501,-284.977C602.479,-305.26 286.691,-364.011 181.528,-383.576"/>
<polygon fill="darkgreen" stroke="darkgreen" points="712.201,-288.406 721.392,-283.136 710.92,-281.525 712.201,-288.406"/>
</g>
<!-- Node8 -->
<g id="node8" class="node"><title>Node8</title>
<polygon fill="none" stroke="#bfbfbf" points="960.5,-402.5 960.5,-421.5 1069.5,-421.5 1069.5,-402.5 960.5,-402.5"/>
<text text-anchor="middle" x="1015" y="-409.5" font-family="Helvetica,sans-Serif" font-size="10.00">vector&lt; DataItem * &gt;</text>
</g>
<!-- Node3&#45;&gt;Node8 -->
<g id="edge9" class="edge"><title>Node3&#45;&gt;Node8</title>
<path fill="none" stroke="#9a32cd" stroke-dasharray="5,2" d="M765.432,-295.42C775.351,-306.509 789.337,-320.517 804,-330 859.542,-365.921 933.27,-390.151 976.968,-402.471"/>
<polygon fill="#9a32cd" stroke="#9a32cd" points="767.885,-292.906 758.695,-287.633 762.591,-297.486 767.885,-292.906"/>
<text text-anchor="middle" x="863" y="-388" font-family="Helvetica,sans-Serif" font-size="10.00"> elements</text>
</g>
<!-- Node11 -->
<g id="node11" class="node"><title>Node11</title>
<g id="a_node11"><a xlink:href="classFunction.html" target="_top" xlink:title="A Function object corresponds to a function member of a window. ">
<polygon fill="none" stroke="black" points="988,-77.5 988,-96.5 1042,-96.5 1042,-77.5 988,-77.5"/>
<text text-anchor="middle" x="1015" y="-84.5" font-family="Helvetica,sans-Serif" font-size="10.00">Function</text>
</a>
</g>
</g>
<!-- Node3&#45;&gt;Node11 -->
<g id="edge18" class="edge"><title>Node3&#45;&gt;Node11</title>
<path fill="none" stroke="#9a32cd" stroke-dasharray="5,2" d="M779.981,-262.4C782.213,-260.45 784.268,-258.317 786,-256 803.691,-232.333 786.006,-215.437 804,-192 841.134,-143.633 869.761,-153.455 922,-122 930.032,-117.164 931.482,-114.918 940,-111 955.338,-103.946 973.34,-98.0581 987.748,-93.88"/>
<polygon fill="#9a32cd" stroke="#9a32cd" points="777.905,-259.581 771.915,-268.321 782.048,-265.224 777.905,-259.581"/>
<text text-anchor="middle" x="863" y="-195" font-family="Helvetica,sans-Serif" font-size="10.00"> _attr</text>
</g>
<!-- Node19 -->
<g id="node19" class="node"><title>Node19</title>
<polygon fill="none" stroke="#bfbfbf" points="940,-255.5 940,-274.5 1090,-274.5 1090,-255.5 940,-255.5"/>
<text text-anchor="middle" x="1015" y="-262.5" font-family="Helvetica,sans-Serif" font-size="10.00">map&lt; std::string, DataItem * &gt;</text>
</g>
<!-- Node3&#45;&gt;Node19 -->
<g id="edge32" class="edge"><title>Node3&#45;&gt;Node19</title>
<path fill="none" stroke="#9a32cd" stroke-dasharray="5,2" d="M773.846,-292.615C782.871,-297.576 793.566,-302.496 804,-305 854.996,-317.241 871.516,-319.205 922,-305 931.025,-302.461 931.603,-298.171 940,-294 954.83,-286.634 972.016,-279.801 986.092,-274.621"/>
<polygon fill="#9a32cd" stroke="#9a32cd" points="775.527,-289.543 765.125,-287.529 772,-295.59 775.527,-289.543"/>
<text text-anchor="middle" x="863" y="-318" font-family="Helvetica,sans-Serif" font-size="10.00"> elements</text>
</g>
<!-- Node3&#45;&gt;Node3 -->
<g id="edge35" class="edge"><title>Node3&#45;&gt;Node3</title>
<path fill="none" stroke="#9a32cd" stroke-dasharray="5,2" d="M737.109,-297.766C738.122,-302.497 742.419,-306 750,-306 762.441,-306 766.038,-296.565 760.789,-287.757"/>
<polygon fill="#9a32cd" stroke="#9a32cd" points="740.581,-298.263 739.211,-287.757 733.73,-296.824 740.581,-298.263"/>
<text text-anchor="middle" x="750" y="-309" font-family="Helvetica,sans-Serif" font-size="10.00"> _parent</text>
</g>
<!-- Node4 -->
<g id="node4" class="node"><title>Node4</title>
<g id="a_node4"><a xlink:href="classPane.html" target="_top" xlink:title="A Pane object contains a mesh, pane dataitem, and field variables. ">
<polygon fill="none" stroke="black" points="589.5,-420.5 589.5,-439.5 628.5,-439.5 628.5,-420.5 589.5,-420.5"/>
<text text-anchor="middle" x="609" y="-427.5" font-family="Helvetica,sans-Serif" font-size="10.00">Pane</text>
</a>
</g>
</g>
<!-- Node4&#45;&gt;Node3 -->
<g id="edge3" class="edge"><title>Node4&#45;&gt;Node3</title>
<path fill="none" stroke="#9a32cd" stroke-dasharray="5,2" d="M627.662,-413.36C632.997,-408.2 638.813,-402.44 644,-397 681.458,-357.719 723.445,-308.425 740.808,-287.79"/>
<polygon fill="#9a32cd" stroke="#9a32cd" points="625.127,-410.941 620.319,-420.382 629.965,-416 625.127,-410.941"/>
<text text-anchor="middle" x="679" y="-378" font-family="Helvetica,sans-Serif" font-size="10.00"> _pane</text>
</g>
<!-- Node18 -->
<g id="node18" class="node"><title>Node18</title>
<polygon fill="none" stroke="#bfbfbf" points="965.5,-303.5 965.5,-322.5 1064.5,-322.5 1064.5,-303.5 965.5,-303.5"/>
<text text-anchor="middle" x="1015" y="-310.5" font-family="Helvetica,sans-Serif" font-size="10.00">map&lt; int, Pane * &gt;</text>
</g>
<!-- Node4&#45;&gt;Node18 -->
<g id="edge26" class="edge"><title>Node4&#45;&gt;Node18</title>
<path fill="none" stroke="#9a32cd" stroke-dasharray="5,2" d="M638.37,-420.173C676.011,-407.275 744.632,-384.254 804,-367 862.742,-349.928 931.524,-332.771 973.931,-322.516"/>
<polygon fill="#9a32cd" stroke="#9a32cd" points="636.927,-416.968 628.608,-423.529 639.203,-423.587 636.927,-416.968"/>
<text text-anchor="middle" x="750" y="-398" font-family="Helvetica,sans-Serif" font-size="10.00"> elements</text>
</g>
<!-- Node9 -->
<g id="node9" class="node"><title>Node9</title>
<g id="a_node9"><a xlink:href="classComponentInterface.html" target="_top" xlink:title="A ComponentInterface object contains multiple panes and multiple data dataitems. ">
<polygon fill="none" stroke="black" points="1434.5,-256.5 1434.5,-275.5 1539.5,-275.5 1539.5,-256.5 1434.5,-256.5"/>
<text text-anchor="middle" x="1487" y="-263.5" font-family="Helvetica,sans-Serif" font-size="10.00">ComponentInterface</text>
</a>
</g>
</g>
<!-- Node4&#45;&gt;Node9 -->
<g id="edge28" class="edge"><title>Node4&#45;&gt;Node9</title>
<path fill="none" stroke="#9a32cd" stroke-dasharray="5,2" d="M623.715,-447.689C646.526,-474.921 695.111,-524 749,-524 749,-524 749,-524 1277,-524 1350.6,-524 1371.98,-492.983 1416,-434 1455.5,-381.074 1477.16,-302.591 1483.78,-275.557"/>
<polygon fill="#9a32cd" stroke="#9a32cd" points="626.258,-445.268 617.241,-439.706 620.821,-449.677 626.258,-445.268"/>
<text text-anchor="middle" x="1015" y="-527" font-family="Helvetica,sans-Serif" font-size="10.00"> _dummy</text>
</g>
<!-- Node5&#45;&gt;Node4 -->
<g id="edge4" class="edge"><title>Node5&#45;&gt;Node4</title>
<path fill="none" stroke="#9a32cd" stroke-dasharray="5,2" d="M431.444,-400.211C484.838,-409.22 556.222,-421.264 589.486,-426.876"/>
<polygon fill="#9a32cd" stroke="#9a32cd" points="431.803,-396.722 421.36,-398.509 430.638,-403.624 431.803,-396.722"/>
<text text-anchor="middle" x="500" y="-425" font-family="Helvetica,sans-Serif" font-size="10.00"> _cnct_set</text>
</g>
<!-- Node6 -->
<g id="node6" class="node"><title>Node6</title>
<g id="a_node6"><a xlink:title="STL class. ">
<polygon fill="none" stroke="#bfbfbf" points="112,-275.5 112,-294.5 180,-294.5 180,-275.5 112,-275.5"/>
<text text-anchor="middle" x="146" y="-282.5" font-family="Helvetica,sans-Serif" font-size="10.00">vector&lt; T &gt;</text>
</a>
</g>
</g>
<!-- Node6&#45;&gt;Node5 -->
<g id="edge6" class="edge"><title>Node6&#45;&gt;Node5</title>
<path fill="none" stroke="orange" stroke-dasharray="5,2" d="M176.078,-299.001C220.677,-320.474 304.817,-360.986 343.115,-379.426"/>
<polygon fill="orange" stroke="orange" points="177.462,-295.782 166.934,-294.598 174.425,-302.089 177.462,-295.782"/>
<text text-anchor="middle" x="242" y="-353" font-family="Helvetica,sans-Serif" font-size="10.00"> &lt; Connectivity * &gt;</text>
</g>
<!-- Node6&#45;&gt;Node8 -->
<g id="edge10" class="edge"><title>Node6&#45;&gt;Node8</title>
<path fill="none" stroke="orange" stroke-dasharray="5,2" d="M190.278,-293.049C316.512,-316.43 682.994,-383.6 804,-398 856.974,-404.304 917.828,-407.971 960.344,-409.959"/>
<polygon fill="orange" stroke="orange" points="190.683,-289.565 180.212,-291.183 189.407,-296.447 190.683,-289.565"/>
<text text-anchor="middle" x="609" y="-377" font-family="Helvetica,sans-Serif" font-size="10.00"> &lt; DataItem * &gt;</text>
</g>
<!-- Node12 -->
<g id="node12" class="node"><title>Node12</title>
<polygon fill="none" stroke="#bfbfbf" points="444,-255.5 444,-274.5 556,-274.5 556,-255.5 444,-255.5"/>
<text text-anchor="middle" x="500" y="-262.5" font-family="Helvetica,sans-Serif" font-size="10.00">vector&lt; COM_Type &gt;</text>
</g>
<!-- Node6&#45;&gt;Node12 -->
<g id="edge15" class="edge"><title>Node6&#45;&gt;Node12</title>
<path fill="none" stroke="orange" stroke-dasharray="5,2" d="M190.118,-274.504C193.449,-273.919 196.77,-273.405 200,-273 284.63,-262.391 383.747,-262.102 443.922,-263.258"/>
<polygon fill="orange" stroke="orange" points="189.33,-271.092 180.185,-276.441 190.67,-277.963 189.33,-271.092"/>
<text text-anchor="middle" x="242" y="-276" font-family="Helvetica,sans-Serif" font-size="10.00"> &lt; COM_Type &gt;</text>
</g>
<!-- Node7 -->
<g id="node7" class="node"><title>Node7</title>
<polygon fill="none" stroke="#bfbfbf" points="0.5,-244.5 0.5,-263.5 29.5,-263.5 29.5,-244.5 0.5,-244.5"/>
<text text-anchor="middle" x="15" y="-251.5" font-family="Helvetica,sans-Serif" font-size="10.00">T</text>
</g>
<!-- Node7&#45;&gt;Node6 -->
<g id="edge7" class="edge"><title>Node7&#45;&gt;Node6</title>
<path fill="none" stroke="#9a32cd" stroke-dasharray="5,2" d="M39.7502,-259.707C59.9962,-264.573 89.3143,-271.618 111.868,-277.038"/>
<polygon fill="#9a32cd" stroke="#9a32cd" points="40.3463,-256.251 29.8053,-257.318 38.7106,-263.057 40.3463,-256.251"/>
<text text-anchor="middle" x="70" y="-275" font-family="Helvetica,sans-Serif" font-size="10.00"> elements</text>
</g>
<!-- Node15 -->
<g id="node15" class="node"><title>Node15</title>
<g id="a_node15"><a xlink:title="STL class. ">
<polygon fill="none" stroke="#bfbfbf" points="714,-227.5 714,-246.5 786,-246.5 786,-227.5 714,-227.5"/>
<text text-anchor="middle" x="750" y="-234.5" font-family="Helvetica,sans-Serif" font-size="10.00">map&lt; K, T &gt;</text>
</a>
</g>
</g>
<!-- Node7&#45;&gt;Node15 -->
<g id="edge22" class="edge"><title>Node7&#45;&gt;Node15</title>
<path fill="none" stroke="#9a32cd" stroke-dasharray="5,2" d="M39.7652,-247.77C65.506,-241.579 107.872,-233 145,-233 145,-233 145,-233 610,-233 645.368,-233 685.777,-234.31 713.875,-235.431"/>
<polygon fill="#9a32cd" stroke="#9a32cd" points="38.6743,-244.435 29.815,-250.246 40.3642,-251.228 38.6743,-244.435"/>
<text text-anchor="middle" x="364" y="-236" font-family="Helvetica,sans-Serif" font-size="10.00"> elements</text>
</g>
<!-- Node8&#45;&gt;Node4 -->
<g id="edge8" class="edge"><title>Node8&#45;&gt;Node4</title>
<path fill="none" stroke="#9a32cd" stroke-dasharray="5,2" d="M950.024,-421.268C940.642,-422.359 931.083,-423.322 922,-424 810.975,-432.283 677.15,-431.134 628.672,-430.359"/>
<polygon fill="#9a32cd" stroke="#9a32cd" points="950.599,-424.724 960.104,-420.043 949.754,-417.775 950.599,-424.724"/>
<text text-anchor="middle" x="750" y="-434" font-family="Helvetica,sans-Serif" font-size="10.00"> _attr_set</text>
</g>
<!-- Node9&#45;&gt;Node4 -->
<g id="edge11" class="edge"><title>Node9&#45;&gt;Node4</title>
<path fill="none" stroke="#9a32cd" stroke-dasharray="5,2" d="M1478.23,-285.002C1455.62,-336.866 1384.57,-477 1277,-477 749,-477 749,-477 749,-477 702.637,-477 651.941,-453.245 626.507,-439.511"/>
<polygon fill="#9a32cd" stroke="#9a32cd" points="1481.53,-286.187 1482.21,-275.615 1475.08,-283.455 1481.53,-286.187"/>
<text text-anchor="middle" x="1015" y="-480" font-family="Helvetica,sans-Serif" font-size="10.00"> _window</text>
</g>
<!-- Node10 -->
<g id="node10" class="node"><title>Node10</title>
<polygon fill="none" stroke="#bfbfbf" points="1206,-105.5 1206,-124.5 1346,-124.5 1346,-105.5 1206,-105.5"/>
<text text-anchor="middle" x="1276" y="-112.5" font-family="Helvetica,sans-Serif" font-size="10.00">map&lt; std::string, Function &gt;</text>
</g>
<!-- Node10&#45;&gt;Node9 -->
<g id="edge12" class="edge"><title>Node10&#45;&gt;Node9</title>
<path fill="none" stroke="#9a32cd" stroke-dasharray="5,2" d="M1307.19,-129.04C1336.42,-143.332 1381.28,-167.154 1416,-194 1441.1,-213.408 1465.89,-241.611 1478.13,-256.295"/>
<polygon fill="#9a32cd" stroke="#9a32cd" points="1308.44,-125.759 1297.92,-124.569 1305.4,-132.064 1308.44,-125.759"/>
<text text-anchor="middle" x="1390" y="-197" font-family="Helvetica,sans-Serif" font-size="10.00"> _func_map</text>
</g>
<!-- Node11&#45;&gt;Node10 -->
<g id="edge13" class="edge"><title>Node11&#45;&gt;Node10</title>
<path fill="none" stroke="#9a32cd" stroke-dasharray="5,2" d="M1052.26,-90.9203C1091.9,-95.2053 1156.34,-102.172 1205.73,-107.512"/>
<polygon fill="#9a32cd" stroke="#9a32cd" points="1052.58,-87.4341 1042.26,-89.8389 1051.83,-94.3935 1052.58,-87.4341"/>
<text text-anchor="middle" x="1148" y="-109" font-family="Helvetica,sans-Serif" font-size="10.00"> elements</text>
</g>
<!-- Node12&#45;&gt;Node11 -->
<g id="edge14" class="edge"><title>Node12&#45;&gt;Node11</title>
<path fill="none" stroke="#9a32cd" stroke-dasharray="5,2" d="M542.619,-252.369C599.85,-234.029 704.96,-196.814 786,-148 794.92,-142.627 794.647,-137.578 804,-133 865.514,-102.891 946.739,-92.3112 987.812,-88.7338"/>
<polygon fill="#9a32cd" stroke="#9a32cd" points="541.319,-249.109 532.844,-255.467 543.434,-255.782 541.319,-249.109"/>
<text text-anchor="middle" x="679" y="-212" font-family="Helvetica,sans-Serif" font-size="10.00"> _types</text>
</g>
<!-- Node13 -->
<g id="node13" class="node"><title>Node13</title>
<g id="a_node13"><a xlink:title="STL class. ">
<polygon fill="none" stroke="#bfbfbf" points="588.5,-75.5 588.5,-94.5 629.5,-94.5 629.5,-75.5 588.5,-75.5"/>
<text text-anchor="middle" x="609" y="-82.5" font-family="Helvetica,sans-Serif" font-size="10.00">string</text>
</a>
</g>
</g>
<!-- Node13&#45;&gt;Node11 -->
<g id="edge16" class="edge"><title>Node13&#45;&gt;Node11</title>
<path fill="none" stroke="#9a32cd" stroke-dasharray="5,2" d="M640.084,-85.1489C716.349,-85.5265 916.271,-86.5162 987.954,-86.8711"/>
<polygon fill="#9a32cd" stroke="#9a32cd" points="639.776,-81.6475 629.759,-85.0978 639.742,-88.6474 639.776,-81.6475"/>
<text text-anchor="middle" x="750" y="-89" font-family="Helvetica,sans-Serif" font-size="10.00"> _intents</text>
</g>
<!-- Node13&#45;&gt;Node10 -->
<g id="edge19" class="edge"><title>Node13&#45;&gt;Node10</title>
<path fill="none" stroke="#9a32cd" stroke-dasharray="5,2" d="M639.979,-80.6358C715.73,-70.3229 920.839,-46.848 1090,-68 1146.56,-75.072 1210.63,-93.8576 1246.58,-105.424"/>
<polygon fill="#9a32cd" stroke="#9a32cd" points="639.184,-77.2125 629.76,-82.055 640.147,-84.1459 639.184,-77.2125"/>
<text text-anchor="middle" x="863" y="-67" font-family="Helvetica,sans-Serif" font-size="10.00"> keys</text>
</g>
<!-- Node13&#45;&gt;Node9 -->
<g id="edge29" class="edge"><title>Node13&#45;&gt;Node9</title>
<path fill="none" stroke="#9a32cd" stroke-dasharray="5,2" d="M625.117,-67.9108C648.837,-43.0909 697.441,-0 749,-0 749,-0 749,-0 1277,-0 1410.02,-0 1471.27,-208.228 1483.61,-256.217"/>
<polygon fill="#9a32cd" stroke="#9a32cd" points="622.547,-65.5351 618.318,-75.2494 627.682,-70.2924 622.547,-65.5351"/>
<text text-anchor="middle" x="1015" y="-3" font-family="Helvetica,sans-Serif" font-size="10.00"> _name</text>
</g>
<!-- Node13&#45;&gt;Node19 -->
<g id="edge31" class="edge"><title>Node13&#45;&gt;Node19</title>
<path fill="none" stroke="#9a32cd" stroke-dasharray="5,2" d="M639.477,-93.0048C716.042,-113.825 915.735,-168.318 922,-172 960.18,-194.441 993.575,-236.655 1007.32,-255.498"/>
<polygon fill="#9a32cd" stroke="#9a32cd" points="640.091,-89.5448 629.523,-90.2992 638.255,-96.2997 640.091,-89.5448"/>
<text text-anchor="middle" x="750" y="-136" font-family="Helvetica,sans-Serif" font-size="10.00"> keys</text>
</g>
<!-- Node13&#45;&gt;Node3 -->
<g id="edge34" class="edge"><title>Node13&#45;&gt;Node3</title>
<path fill="none" stroke="#9a32cd" stroke-dasharray="5,2" d="M630.75,-100.926C640.204,-108.087 651.586,-116.579 662,-124 676.858,-134.587 686.157,-131.639 696,-147 722.49,-188.342 686.819,-215.109 714,-256 717.337,-261.021 722.253,-265.115 727.352,-268.351"/>
<polygon fill="#9a32cd" stroke="#9a32cd" points="632.77,-98.0647 622.694,-94.7918 628.53,-103.634 632.77,-98.0647"/>
<text text-anchor="middle" x="679" y="-161" font-family="Helvetica,sans-Serif" font-size="10.00"> _name</text>
<text text-anchor="middle" x="679" y="-150" font-family="Helvetica,sans-Serif" font-size="10.00">_unit</text>
</g>
<!-- Node14 -->
<g id="node14" class="node"><title>Node14</title>
<g id="a_node14"><a xlink:title="STL class. ">
<polygon fill="none" stroke="#bfbfbf" points="311,-75.5 311,-94.5 417,-94.5 417,-75.5 311,-75.5"/>
<text text-anchor="middle" x="364" y="-82.5" font-family="Helvetica,sans-Serif" font-size="10.00">basic_string&lt; char &gt;</text>
</a>
</g>
</g>
<!-- Node14&#45;&gt;Node13 -->
<g id="edge17" class="edge"><title>Node14&#45;&gt;Node13</title>
<path fill="none" stroke="midnightblue" d="M427.138,-85C480.279,-85 553.507,-85 588.217,-85"/>
<polygon fill="midnightblue" stroke="midnightblue" points="427.13,-81.5001 417.13,-85 427.13,-88.5001 427.13,-81.5001"/>
</g>
<!-- Node15&#45;&gt;Node10 -->
<g id="edge20" class="edge"><title>Node15&#45;&gt;Node10</title>
<path fill="none" stroke="orange" stroke-dasharray="5,2" d="M768.304,-220.089C774.505,-213.343 781.154,-205.23 786,-197 797.985,-176.648 785.148,-161.228 804,-147 811.911,-141.029 1076.96,-125.802 1205.9,-118.723"/>
<polygon fill="orange" stroke="orange" points="765.773,-217.671 761.364,-227.305 770.819,-222.524 765.773,-217.671"/>
<text text-anchor="middle" x="1015" y="-138" font-family="Helvetica,sans-Serif" font-size="10.00"> &lt; std::string, Function &gt;</text>
</g>
<!-- Node17 -->
<g id="node17" class="node"><title>Node17</title>
<polygon fill="none" stroke="#bfbfbf" points="1108,-213.5 1108,-232.5 1188,-232.5 1188,-213.5 1108,-213.5"/>
<text text-anchor="middle" x="1148" y="-220.5" font-family="Helvetica,sans-Serif" font-size="10.00">map&lt; int, int &gt;</text>
</g>
<!-- Node15&#45;&gt;Node17 -->
<g id="edge24" class="edge"><title>Node15&#45;&gt;Node17</title>
<path fill="none" stroke="orange" stroke-dasharray="5,2" d="M796.309,-229.756C798.907,-229.467 801.485,-229.211 804,-229 913.797,-219.794 1044.03,-220.76 1107.82,-222.004"/>
<polygon fill="orange" stroke="orange" points="795.763,-226.297 786.275,-231.011 796.632,-233.243 795.763,-226.297"/>
<text text-anchor="middle" x="863" y="-232" font-family="Helvetica,sans-Serif" font-size="10.00"> &lt; int, int &gt;</text>
</g>
<!-- Node15&#45;&gt;Node18 -->
<g id="edge27" class="edge"><title>Node15&#45;&gt;Node18</title>
<path fill="none" stroke="orange" stroke-dasharray="5,2" d="M775.159,-252.068C778.802,-254.374 782.508,-256.739 786,-259 794.071,-264.225 795.078,-267.415 804,-271 853.428,-290.86 869.796,-281.403 922,-292 939.179,-295.487 958.07,-299.728 974.24,-303.483"/>
<polygon fill="orange" stroke="orange" points="776.718,-248.913 766.39,-246.549 772.99,-254.838 776.718,-248.913"/>
<text text-anchor="middle" x="863" y="-295" font-family="Helvetica,sans-Serif" font-size="10.00"> &lt; int, Pane * &gt;</text>
</g>
<!-- Node15&#45;&gt;Node19 -->
<g id="edge33" class="edge"><title>Node15&#45;&gt;Node19</title>
<path fill="none" stroke="orange" stroke-dasharray="5,2" d="M796.311,-241.824C835.773,-246.025 893.742,-252.197 939.94,-257.115"/>
<polygon fill="orange" stroke="orange" points="796.511,-238.326 786.196,-240.747 795.77,-245.286 796.511,-238.326"/>
<text text-anchor="middle" x="863" y="-259" font-family="Helvetica,sans-Serif" font-size="10.00"> &lt; std::string, DataItem * &gt;</text>
</g>
<!-- Node16 -->
<g id="node16" class="node"><title>Node16</title>
<polygon fill="none" stroke="#bfbfbf" points="594.5,-261.5 594.5,-280.5 623.5,-280.5 623.5,-261.5 594.5,-261.5"/>
<text text-anchor="middle" x="609" y="-268.5" font-family="Helvetica,sans-Serif" font-size="10.00">K</text>
</g>
<!-- Node16&#45;&gt;Node15 -->
<g id="edge21" class="edge"><title>Node16&#45;&gt;Node15</title>
<path fill="none" stroke="#9a32cd" stroke-dasharray="5,2" d="M633.382,-265.281C655.351,-259.907 688.526,-251.792 713.713,-245.631"/>
<polygon fill="#9a32cd" stroke="#9a32cd" points="632.463,-261.902 623.581,-267.678 634.126,-268.702 632.463,-261.902"/>
<text text-anchor="middle" x="679" y="-262" font-family="Helvetica,sans-Serif" font-size="10.00"> keys</text>
</g>
<!-- Node17&#45;&gt;Node9 -->
<g id="edge23" class="edge"><title>Node17&#45;&gt;Node9</title>
<path fill="none" stroke="#9a32cd" stroke-dasharray="5,2" d="M1198.1,-223.036C1238.09,-223.654 1295.94,-225.889 1346,-233 1383.21,-238.285 1425.05,-248.762 1453.22,-256.499"/>
<polygon fill="#9a32cd" stroke="#9a32cd" points="1198.12,-219.536 1188.07,-222.909 1198.03,-226.536 1198.12,-219.536"/>
<text text-anchor="middle" x="1276" y="-236" font-family="Helvetica,sans-Serif" font-size="10.00"> _proc_map</text>
</g>
<!-- Node18&#45;&gt;Node9 -->
<g id="edge25" class="edge"><title>Node18&#45;&gt;Node9</title>
<path fill="none" stroke="#9a32cd" stroke-dasharray="5,2" d="M1074.67,-310.278C1152.83,-306.167 1295.32,-296.988 1416,-280 1424.59,-278.791 1433.72,-277.196 1442.44,-275.517"/>
<polygon fill="#9a32cd" stroke="#9a32cd" points="1074.34,-306.79 1064.53,-310.801 1074.7,-313.78 1074.34,-306.79"/>
<text text-anchor="middle" x="1276" y="-305" font-family="Helvetica,sans-Serif" font-size="10.00"> _pane_map</text>
</g>
<!-- Node19&#45;&gt;Node9 -->
<g id="edge30" class="edge"><title>Node19&#45;&gt;Node9</title>
<path fill="none" stroke="#9a32cd" stroke-dasharray="5,2" d="M1100.29,-265.179C1197.35,-265.386 1353.73,-265.719 1434.32,-265.89"/>
<polygon fill="#9a32cd" stroke="#9a32cd" points="1100.22,-261.679 1090.21,-265.158 1100.21,-268.679 1100.22,-261.679"/>
<text text-anchor="middle" x="1276" y="-269" font-family="Helvetica,sans-Serif" font-size="10.00"> _attr_map</text>
</g>
</g>
</svg>
        <g id="navigator" transform="translate(0 0)" fill="#404254">
                <rect fill="#f2f5e9" fill-opacity="0.5" stroke="#606060" stroke-width=".5" x="0" y="0" width="60" height="60"/>
                <use id="zoomplus" xlink:href="#zoomPlus" x="17" y="9" onmousedown="handleZoom(evt,'in')"/>
                <use id="zoomminus" xlink:href="#zoomMin" x="42" y="9" onmousedown="handleZoom(evt,'out')"/>
                <use id="reset" xlink:href="#resetDef" x="30" y="36" onmousedown="handleReset()"/>
                <g id="arrowUp" xlink:href="#dirArrow" transform="translate(30 24)" onmousedown="handlePan(0,-1)">
                  <use xlink:href="#rim" fill="#404040">
                        <set attributeName="fill" to="#808080" begin="arrowUp.mouseover" end="arrowUp.mouseout"/>
                  </use>
                  <path fill="none" stroke="white" stroke-width="1.5" d="M0,-3.0v7 M-2.5,-0.5L0,-3.0L2.5,-0.5"/>
                </g>
                <g id="arrowRight" xlink:href="#dirArrow" transform="rotate(90) translate(36 -43)" onmousedown="handlePan(1,0)">
                  <use xlink:href="#rim" fill="#404040">
                        <set attributeName="fill" to="#808080" begin="arrowRight.mouseover" end="arrowRight.mouseout"/>
                  </use>
                  <path fill="none" stroke="white" stroke-width="1.5" d="M0,-3.0v7 M-2.5,-0.5L0,-3.0L2.5,-0.5"/>
                </g>
                <g id="arrowDown" xlink:href="#dirArrow" transform="rotate(180) translate(-30 -48)" onmousedown="handlePan(0,1)">
                  <use xlink:href="#rim" fill="#404040">
                        <set attributeName="fill" to="#808080" begin="arrowDown.mouseover" end="arrowDown.mouseout"/>
                  </use>
                  <path fill="none" stroke="white" stroke-width="1.5" d="M0,-3.0v7 M-2.5,-0.5L0,-3.0L2.5,-0.5"/>
                </g>
                <g id="arrowLeft" xlink:href="#dirArrow" transform="rotate(270) translate(-36 17)" onmousedown="handlePan(-1,0)">
                  <use xlink:href="#rim" fill="#404040">
                        <set attributeName="fill" to="#808080" begin="arrowLeft.mouseover" end="arrowLeft.mouseout"/>
                  </use>
                  <path fill="none" stroke="white" stroke-width="1.5" d="M0,-3.0v7 M-2.5,-0.5L0,-3.0L2.5,-0.5"/>
                </g>
        </g>
        <svg viewBox="0 0 15 15" width="100%" height="30px" preserveAspectRatio="xMaxYMin meet">
         <g id="arrow_out" transform="scale(0.3 0.3)">
          <a xlink:href="classPane_1_1Connectivity__friend__coll__graph_org.svg" target="_base">
           <rect id="button" ry="5" rx="5" y="6" x="6" height="38" width="38"
                fill="#f2f5e9" fill-opacity="0.5" stroke="#606060" stroke-width="1.0"/>
           <path id="arrow"
             d="M 11.500037,31.436501 C 11.940474,20.09759 22.043105,11.32322 32.158766,21.979434 L 37.068811,17.246167 C 37.068811,17.246167 37.088388,32 37.088388,32 L 22.160133,31.978069 C 22.160133,31.978069 26.997745,27.140456 26.997745,27.140456 C 18.528582,18.264221 13.291696,25.230495 11.500037,31.436501 z"
             style="fill:#404040;"/>
          </a>
         </g>
        </svg>
</svg>
