<?xml version="1.0" encoding="UTF-8" standalone="no"?>
<!DOCTYPE svg PUBLIC "-//W3C//DTD SVG 1.1//EN"
 "http://www.w3.org/Graphics/SVG/1.1/DTD/svg11.dtd">
<!-- Generated by graphviz version 2.30.1 (20150305.2338)
 -->
<!-- Title: Run Pages: 1 -->
<svg width="372pt" height="38pt"
 viewBox="0.00 0.00 372.00 38.00" xmlns="http://www.w3.org/2000/svg" xmlns:xlink="http://www.w3.org/1999/xlink">
<g id="graph0" class="graph" transform="scale(1 1) rotate(0) translate(4 34)">
<title>Run</title>
<!-- Node1 -->
<g id="node1" class="node"><title>Node1</title>
<polygon fill="#bfbfbf" stroke="black" points="0.5,-5.5 0.5,-24.5 35.5,-24.5 35.5,-5.5 0.5,-5.5"/>
<text text-anchor="middle" x="18" y="-12.5" font-family="Helvetica,sans-Serif" font-size="10.00">Run</text>
</g>
<!-- Node2 -->
<g id="node2" class="node"><title>Node2</title>
<g id="a_node2"><a xlink:href="classElmerFoamFSI_1_1SerialDriverProgram_a5803949d99491a7186bf1ee9cee81a3b.html#a5803949d99491a7186bf1ee9cee81a3b" target="_top" xlink:title="This function implements the main function executed by the program. ">
<polygon fill="none" stroke="black" points="72,-0 72,-30 212,-30 212,-0 72,-0"/>
<text text-anchor="start" x="80" y="-18" font-family="Helvetica,sans-Serif" font-size="10.00">ElmerFoamFSI::SerialDriver</text>
<text text-anchor="middle" x="142" y="-7" font-family="Helvetica,sans-Serif" font-size="10.00">Program::DriverRun</text>
</a>
</g>
</g>
<!-- Node1&#45;&gt;Node2 -->
<g id="edge1" class="edge"><title>Node1&#45;&gt;Node2</title>
<path fill="none" stroke="midnightblue" d="M45.9649,-15C53.8028,-15 62.7433,-15 71.9323,-15"/>
<polygon fill="midnightblue" stroke="midnightblue" points="45.7078,-11.5001 35.7078,-15 45.7077,-18.5001 45.7078,-11.5001"/>
</g>
<!-- Node3 -->
<g id="node3" class="node"><title>Node3</title>
<g id="a_node3"><a xlink:href="namespaceElmerFoamFSI_aff46f457934a8e2d3712bdbfb1688e99.html#aff46f457934a8e2d3712bdbfb1688e99" target="_top" xlink:title="Unified driver for the example programs. ">
<polygon fill="none" stroke="black" points="248.5,-5.5 248.5,-24.5 363.5,-24.5 363.5,-5.5 248.5,-5.5"/>
<text text-anchor="middle" x="306" y="-12.5" font-family="Helvetica,sans-Serif" font-size="10.00">ElmerFoamFSI::Driver</text>
</a>
</g>
</g>
<!-- Node2&#45;&gt;Node3 -->
<g id="edge2" class="edge"><title>Node2&#45;&gt;Node3</title>
<path fill="none" stroke="midnightblue" d="M222.391,-15C231.127,-15 239.887,-15 248.266,-15"/>
<polygon fill="midnightblue" stroke="midnightblue" points="222.173,-11.5001 212.172,-15 222.172,-18.5001 222.173,-11.5001"/>
</g>
</g>
</svg>
