<?xml version="1.0" encoding="UTF-8" standalone="no"?>
<!DOCTYPE svg PUBLIC "-//W3C//DTD SVG 1.1//EN"
 "http://www.w3.org/Graphics/SVG/1.1/DTD/svg11.dtd">
<!-- Generated by graphviz version 2.26.0 (20091210.2329)
 -->
<!-- Title: addvtuoutputsolverhack Pages: 1 -->
<svg width="492pt" height="30pt"
 viewBox="0.00 0.00 492.00 30.00" xmlns="http://www.w3.org/2000/svg" xmlns:xlink="http://www.w3.org/1999/xlink">
<g id="graph1" class="graph" transform="scale(1 1) rotate(0) translate(4 26)">
<title>addvtuoutputsolverhack</title>
<!-- Node1 -->
<g id="node1" class="node"><title>Node1</title>
<polygon fill="#bfbfbf" stroke="black" points="0,-0.5 0,-21.5 120,-21.5 120,-0.5 0,-0.5"/>
<text text-anchor="middle" x="60" y="-8.5" font-family="Helvetica,sans-Serif" font-size="10.00">addvtuoutputsolverhack</text>
</g>
<!-- Node2 -->
<g id="node3" class="node"><title>Node2</title>
<a xlink:href="MyInitialize_8F90_a5efd0681c40e89427aed63760a3dd706.html#a5efd0681c40e89427aed63760a3dd706" target="_top" xlink:title="ElmerLib Elmer library routines ">
<polygon fill="none" stroke="black" points="156.5,-0.5 156.5,-21.5 221.5,-21.5 221.5,-0.5 156.5,-0.5"/>
<text text-anchor="middle" x="189" y="-8.5" font-family="Helvetica,sans-Serif" font-size="10.00">myinitialize</text>
</a>
</g>
<!-- Node1&#45;&gt;Node2 -->
<g id="edge2" class="edge"><title>Node1&#45;&gt;Node2</title>
<path fill="none" stroke="midnightblue" d="M130.574,-11C139.607,-11 148.48,-11 156.475,-11"/>
<polygon fill="midnightblue" stroke="midnightblue" points="130.345,-7.5001 120.345,-11 130.345,-14.5001 130.345,-7.5001"/>
</g>
<!-- Node3 -->
<g id="node5" class="node"><title>Node3</title>
<a xlink:href="SolverModule_8F90_a4de4792abefc1f58f85b334aa265a623.html#a4de4792abefc1f58f85b334aa265a623" target="_top" xlink:title="A caller for the Elmer main program. ">
<polygon fill="none" stroke="black" points="258.5,-0.5 258.5,-21.5 313.5,-21.5 313.5,-0.5 258.5,-0.5"/>
<text text-anchor="middle" x="286" y="-8.5" font-family="Helvetica,sans-Serif" font-size="10.00">initializer</text>
</a>
</g>
<!-- Node2&#45;&gt;Node3 -->
<g id="edge4" class="edge"><title>Node2&#45;&gt;Node3</title>
<path fill="none" stroke="midnightblue" d="M231.576,-11C240.603,-11 249.909,-11 258.216,-11"/>
<polygon fill="midnightblue" stroke="midnightblue" points="231.569,-7.5001 221.569,-11 231.569,-14.5001 231.569,-7.5001"/>
</g>
<!-- Node4 -->
<g id="node7" class="node"><title>Node4</title>
<a xlink:href="SolverModule_8F90_a2363fcb6699317c59c1f2f041ee860d2.html#a2363fcb6699317c59c1f2f041ee860d2" target="_top" xlink:title="solvermodule_load_module">
<polygon fill="none" stroke="black" points="350,-0.5 350,-21.5 484,-21.5 484,-0.5 350,-0.5"/>
<text text-anchor="middle" x="417" y="-8.5" font-family="Helvetica,sans-Serif" font-size="10.00">solvermodule_load_module</text>
</a>
</g>
<!-- Node3&#45;&gt;Node4 -->
<g id="edge6" class="edge"><title>Node3&#45;&gt;Node4</title>
<path fill="none" stroke="midnightblue" d="M324.039,-11C332.186,-11 341.026,-11 349.905,-11"/>
<polygon fill="midnightblue" stroke="midnightblue" points="323.782,-7.5001 313.782,-11 323.782,-14.5001 323.782,-7.5001"/>
</g>
</g>
</svg>
