<?xml version="1.0" encoding="UTF-8" standalone="no"?>
<!DOCTYPE svg PUBLIC "-//W3C//DTD SVG 1.1//EN"
 "http://www.w3.org/Graphics/SVG/1.1/DTD/svg11.dtd">
<!-- Generated by graphviz version 2.30.1 (20150305.2338)
 -->
<!-- Title: get_opposite_edge_border Pages: 1 -->
<svg width="390pt" height="66pt"
 viewBox="0.00 0.00 390.00 66.00" xmlns="http://www.w3.org/2000/svg" xmlns:xlink="http://www.w3.org/1999/xlink">
<g id="graph0" class="graph" transform="scale(1 1) rotate(0) translate(4 62)">
<title>get_opposite_edge_border</title>
<!-- Node1 -->
<g id="node1" class="node"><title>Node1</title>
<polygon fill="#bfbfbf" stroke="black" points="0.5,-19.5 0.5,-38.5 131.5,-38.5 131.5,-19.5 0.5,-19.5"/>
<text text-anchor="middle" x="66" y="-26.5" font-family="Helvetica,sans-Serif" font-size="10.00">get_opposite_edge_border</text>
</g>
<!-- Node2 -->
<g id="node2" class="node"><title>Node2</title>
<g id="a_node2"><a xlink:href="classFacet__ID_a1dea367be190d5726e3aa6b8d0c47076.html#a1dea367be190d5726e3aa6b8d0c47076" target="_top" xlink:title="Element ID of the halfedge. ">
<polygon fill="none" stroke="black" points="182,-38.5 182,-57.5 258,-57.5 258,-38.5 182,-38.5"/>
<text text-anchor="middle" x="220" y="-45.5" font-family="Helvetica,sans-Serif" font-size="10.00">Facet_ID::eid</text>
</a>
</g>
</g>
<!-- Node1&#45;&gt;Node2 -->
<g id="edge1" class="edge"><title>Node1&#45;&gt;Node2</title>
<path fill="none" stroke="midnightblue" d="M131.903,-37.1128C145.267,-38.7834 159.099,-40.5124 171.698,-42.0872"/>
<polygon fill="midnightblue" stroke="midnightblue" points="171.596,-45.6017 181.953,-43.3692 172.465,-38.6558 171.596,-45.6017"/>
</g>
<!-- Node3 -->
<g id="node3" class="node"><title>Node3</title>
<g id="a_node3"><a xlink:href="classFacet__ID_aa126fd94949c810d24869ad04cd97e15.html#aa126fd94949c810d24869ad04cd97e15" target="_top" xlink:title="Determines whether the facet is on border. ">
<polygon fill="none" stroke="black" points="168.5,-0.5 168.5,-19.5 271.5,-19.5 271.5,-0.5 168.5,-0.5"/>
<text text-anchor="middle" x="220" y="-7.5" font-family="Helvetica,sans-Serif" font-size="10.00">Facet_ID::is_border</text>
</a>
</g>
</g>
<!-- Node1&#45;&gt;Node3 -->
<g id="edge2" class="edge"><title>Node1&#45;&gt;Node3</title>
<path fill="none" stroke="midnightblue" d="M131.903,-20.8872C140.602,-19.7998 149.5,-18.6876 158.126,-17.6092"/>
<polygon fill="midnightblue" stroke="midnightblue" points="158.612,-21.0758 168.101,-16.3624 157.744,-14.1299 158.612,-21.0758"/>
</g>
<!-- Node4 -->
<g id="node4" class="node"><title>Node4</title>
<g id="a_node4"><a xlink:href="classFacet__ID_ae7df635a2e18521c31e7da0b999b802b.html#ae7df635a2e18521c31e7da0b999b802b" target="_top" xlink:title="Local edge ID of the halfedge within its element. ">
<polygon fill="none" stroke="black" points="308.5,-0.5 308.5,-19.5 381.5,-19.5 381.5,-0.5 308.5,-0.5"/>
<text text-anchor="middle" x="345" y="-7.5" font-family="Helvetica,sans-Serif" font-size="10.00">Facet_ID::lid</text>
</a>
</g>
</g>
<!-- Node3&#45;&gt;Node4 -->
<g id="edge3" class="edge"><title>Node3&#45;&gt;Node4</title>
<path fill="none" stroke="midnightblue" d="M271.739,-10C280.49,-10 289.54,-10 298.152,-10"/>
<polygon fill="midnightblue" stroke="midnightblue" points="298.39,-13.5001 308.39,-10 298.39,-6.5001 298.39,-13.5001"/>
</g>
</g>
</svg>
