<?xml version="1.0" encoding="UTF-8" standalone="no"?>
<!DOCTYPE svg PUBLIC "-//W3C//DTD SVG 1.1//EN"
 "http://www.w3.org/Graphics/SVG/1.1/DTD/svg11.dtd">
<!-- Generated by graphviz version 2.30.1 (20150305.2338)
 -->
<!-- Title: ErrOut Pages: 1 -->
<svg width="254pt" height="126pt"
 viewBox="0.00 0.00 254.00 126.00" xmlns="http://www.w3.org/2000/svg" xmlns:xlink="http://www.w3.org/1999/xlink">
<g id="graph0" class="graph" transform="scale(1 1) rotate(0) translate(4 122)">
<title>ErrOut</title>
<!-- Node1 -->
<g id="node1" class="node"><title>Node1</title>
<polygon fill="#bfbfbf" stroke="black" points="0.5,-44.5 0.5,-63.5 45.5,-63.5 45.5,-44.5 0.5,-44.5"/>
<text text-anchor="middle" x="23" y="-51.5" font-family="Helvetica,sans-Serif" font-size="10.00">ErrOut</text>
</g>
<!-- Node2 -->
<g id="node2" class="node"><title>Node2</title>
<g id="a_node2"><a xlink:href="namespaceElmerFoamFSI_1_1ExampleProgram_a51e123c8b200fe0d466698ff7429bba6.html#a51e123c8b200fe0d466698ff7429bba6" target="_top" xlink:title="Unified driver for the example programs. ">
<polygon fill="none" stroke="black" points="82,-88 82,-118 246,-118 246,-88 82,-88"/>
<text text-anchor="start" x="90" y="-106" font-family="Helvetica,sans-Serif" font-size="10.00">ElmerFoamFSI::ExampleProgram</text>
<text text-anchor="middle" x="164" y="-95" font-family="Helvetica,sans-Serif" font-size="10.00">::Driver</text>
</a>
</g>
</g>
<!-- Node1&#45;&gt;Node2 -->
<g id="edge1" class="edge"><title>Node1&#45;&gt;Node2</title>
<path fill="none" stroke="midnightblue" d="M54.958,-67.4337C63.6433,-71.0318 73.1359,-74.8059 82,-78 91.5535,-81.4425 101.841,-84.8454 111.774,-87.98"/>
<polygon fill="midnightblue" stroke="midnightblue" points="56.1464,-64.1366 45.5715,-63.4865 53.4329,-70.5893 56.1464,-64.1366"/>
</g>
<!-- Node3 -->
<g id="node3" class="node"><title>Node3</title>
<g id="a_node3"><a xlink:href="namespaceElmerModuleDriver_1_1ExampleProgram_a945c2d21d14578304f149399117a364c.html#a945c2d21d14578304f149399117a364c" target="_top" xlink:title="Unified driver for the example programs. ">
<polygon fill="none" stroke="black" points="102,-39 102,-69 226,-69 226,-39 102,-39"/>
<text text-anchor="start" x="110" y="-57" font-family="Helvetica,sans-Serif" font-size="10.00">ElmerModuleDriver::</text>
<text text-anchor="middle" x="164" y="-46" font-family="Helvetica,sans-Serif" font-size="10.00">ExampleProgram::Driver</text>
</a>
</g>
</g>
<!-- Node1&#45;&gt;Node3 -->
<g id="edge2" class="edge"><title>Node1&#45;&gt;Node3</title>
<path fill="none" stroke="midnightblue" d="M56.0025,-54C69.6399,-54 86.0266,-54 101.83,-54"/>
<polygon fill="midnightblue" stroke="midnightblue" points="55.7188,-50.5001 45.7188,-54 55.7187,-57.5001 55.7188,-50.5001"/>
</g>
<!-- Node4 -->
<g id="node4" class="node"><title>Node4</title>
<g id="a_node4"><a xlink:href="namespaceElmerFoamFSI_aff46f457934a8e2d3712bdbfb1688e99.html#aff46f457934a8e2d3712bdbfb1688e99" target="_top" xlink:title="Unified driver for the example programs. ">
<polygon fill="none" stroke="black" points="106.5,-0.5 106.5,-19.5 221.5,-19.5 221.5,-0.5 106.5,-0.5"/>
<text text-anchor="middle" x="164" y="-7.5" font-family="Helvetica,sans-Serif" font-size="10.00">ElmerFoamFSI::Driver</text>
</a>
</g>
</g>
<!-- Node1&#45;&gt;Node4 -->
<g id="edge3" class="edge"><title>Node1&#45;&gt;Node4</title>
<path fill="none" stroke="midnightblue" d="M54.4053,-40.412C63.2068,-36.7545 72.8976,-32.9883 82,-30 93.9731,-26.0693 107.163,-22.5004 119.36,-19.5013"/>
<polygon fill="midnightblue" stroke="midnightblue" points="52.7547,-37.3106 44.9247,-44.4479 55.4966,-43.7513 52.7547,-37.3106"/>
</g>
</g>
</svg>
