<?xml version="1.0" encoding="UTF-8" standalone="no"?>
<!DOCTYPE svg PUBLIC "-//W3C//DTD SVG 1.1//EN"
 "http://www.w3.org/Graphics/SVG/1.1/DTD/svg11.dtd">
<!-- Generated by graphviz version 2.26.0 (20091210.2329)
 -->
<!-- Title: Process Pages: 1 -->
<svg width="452pt" height="230pt"
 viewBox="0.00 0.00 452.00 230.00" xmlns="http://www.w3.org/2000/svg" xmlns:xlink="http://www.w3.org/1999/xlink">
<g id="graph1" class="graph" transform="scale(1 1) rotate(0) translate(4 226)">
<title>Process</title>
<!-- Node1 -->
<g id="node1" class="node"><title>Node1</title>
<polygon fill="#bfbfbf" stroke="black" points="0.5,-120.5 0.5,-141.5 53.5,-141.5 53.5,-120.5 0.5,-120.5"/>
<text text-anchor="middle" x="27" y="-128.5" font-family="Helvetica,sans-Serif" font-size="10.00">Process</text>
</g>
<!-- Node2 -->
<g id="node3" class="node"><title>Node2</title>
<a xlink:href="classElmerFoamFSI_1_1TestingObject_aa25f45634aafbb580d94840ad8452745.html#aa25f45634aafbb580d94840ad8452745" target="_top" xlink:title="Tears down the testing fixtures if needed. ">
<polygon fill="none" stroke="black" points="132,-200.5 132,-221.5 186,-221.5 186,-200.5 132,-200.5"/>
<text text-anchor="middle" x="159" y="-208.5" font-family="Helvetica,sans-Serif" font-size="10.00">Epilogue</text>
</a>
</g>
<!-- Node1&#45;&gt;Node2 -->
<g id="edge2" class="edge"><title>Node1&#45;&gt;Node2</title>
<path fill="none" stroke="midnightblue" d="M35.622,-141.96C46.7788,-155.421 67.4751,-178.056 90,-191 99.752,-196.604 111.196,-200.742 121.929,-203.75"/>
<polygon fill="midnightblue" stroke="midnightblue" points="121.369,-207.22 131.924,-206.301 123.099,-200.437 121.369,-207.22"/>
</g>
<!-- Node3 -->
<g id="node5" class="node"><title>Node3</title>
<a xlink:href="classElmerFoamFSI_1_1TestingObject_aa3cdb6d60e9d9834c19efaab0b044421.html#aa3cdb6d60e9d9834c19efaab0b044421" target="_top" xlink:title="Sets up the data fixtures for the tests. ">
<polygon fill="none" stroke="black" points="131.5,-160.5 131.5,-181.5 186.5,-181.5 186.5,-160.5 131.5,-160.5"/>
<text text-anchor="middle" x="159" y="-168.5" font-family="Helvetica,sans-Serif" font-size="10.00">Prologue</text>
</a>
</g>
<!-- Node1&#45;&gt;Node3 -->
<g id="edge4" class="edge"><title>Node1&#45;&gt;Node3</title>
<path fill="none" stroke="midnightblue" d="M53.6229,-139.616C64.8334,-143.201 78.0313,-147.366 90,-151 100.204,-154.098 111.288,-157.357 121.527,-160.325"/>
<polygon fill="midnightblue" stroke="midnightblue" points="120.842,-163.77 131.42,-163.179 122.782,-157.044 120.842,-163.77"/>
</g>
<!-- Node4 -->
<g id="node7" class="node"><title>Node4</title>
<a xlink:href="classElmerFoamFSI_1_1TestingObject_a14258b94075936cb7bfadbcfc9a37b87.html#a14258b94075936cb7bfadbcfc9a37b87" target="_top" xlink:title="Test for ElmerFoamFSI::ExampleFunction. ">
<polygon fill="none" stroke="black" points="98,-120.5 98,-141.5 220,-141.5 220,-120.5 98,-120.5"/>
<text text-anchor="middle" x="159" y="-128.5" font-family="Helvetica,sans-Serif" font-size="10.00">Test__ExampleFunction</text>
</a>
</g>
<!-- Node1&#45;&gt;Node4 -->
<g id="edge6" class="edge"><title>Node1&#45;&gt;Node4</title>
<path fill="none" stroke="midnightblue" d="M53.7122,-131C63.7174,-131 75.6166,-131 87.7538,-131"/>
<polygon fill="midnightblue" stroke="midnightblue" points="87.9688,-134.5 97.9688,-131 87.9687,-127.5 87.9688,-134.5"/>
</g>
<!-- Node6 -->
<g id="node11" class="node"><title>Node6</title>
<a xlink:href="classElmerFoamFSI_1_1TestingObject_a7de28a366b07117111ce7c1e9515a434.html#a7de28a366b07117111ce7c1e9515a434" target="_top" xlink:title="Test for ElmerFoamFSI::MidPointQuadrature. ">
<polygon fill="none" stroke="black" points="92.5,-40.5 92.5,-61.5 225.5,-61.5 225.5,-40.5 92.5,-40.5"/>
<text text-anchor="middle" x="159" y="-48.5" font-family="Helvetica,sans-Serif" font-size="10.00">Test__MidPointQuadrature</text>
</a>
</g>
<!-- Node1&#45;&gt;Node6 -->
<g id="edge10" class="edge"><title>Node1&#45;&gt;Node6</title>
<path fill="none" stroke="midnightblue" d="M35.622,-120.04C46.7788,-106.579 67.4751,-83.9439 90,-71 93.7105,-68.8678 97.666,-66.9478 101.734,-65.2215"/>
<polygon fill="midnightblue" stroke="midnightblue" points="103.279,-68.3781 111.368,-61.5363 100.778,-61.8401 103.279,-68.3781"/>
</g>
<!-- Node10 -->
<g id="node19" class="node"><title>Node10</title>
<a xlink:href="classElmerFoamFSI_1_1TestingObject_a7928083cb5586c2b361e1d29a8dc2b54.html#a7928083cb5586c2b361e1d29a8dc2b54" target="_top" xlink:title="Test for ElmerFoamFSI::TrapezoidQuadrature. ">
<polygon fill="none" stroke="black" points="90.5,-80.5 90.5,-101.5 227.5,-101.5 227.5,-80.5 90.5,-80.5"/>
<text text-anchor="middle" x="159" y="-88.5" font-family="Helvetica,sans-Serif" font-size="10.00">Test__TrapezoidQuadrature</text>
</a>
</g>
<!-- Node1&#45;&gt;Node10 -->
<g id="edge18" class="edge"><title>Node1&#45;&gt;Node10</title>
<path fill="none" stroke="midnightblue" d="M53.6229,-122.384C64.8334,-118.799 78.0313,-114.634 90,-111 97.2193,-108.808 104.88,-106.535 112.369,-104.342"/>
<polygon fill="midnightblue" stroke="midnightblue" points="113.443,-107.675 122.065,-101.519 111.486,-100.954 113.443,-107.675"/>
</g>
<!-- Node5 -->
<g id="node9" class="node"><title>Node5</title>
<a xlink:href="namespaceElmerFoamFSI_a4cc78661909b0a33b6b886a4d4290997.html#a4cc78661909b0a33b6b886a4d4290997" target="_top" xlink:title="Example function for ElmerFoamFSI (this is a brief description). ">
<polygon fill="none" stroke="black" points="272,-160.5 272,-181.5 436,-181.5 436,-160.5 272,-160.5"/>
<text text-anchor="middle" x="354" y="-168.5" font-family="Helvetica,sans-Serif" font-size="10.00">ElmerFoamFSI::ExampleFunction</text>
</a>
</g>
<!-- Node4&#45;&gt;Node5 -->
<g id="edge8" class="edge"><title>Node4&#45;&gt;Node5</title>
<path fill="none" stroke="midnightblue" d="M210.234,-141.51C235.549,-146.702 266.281,-153.006 292.823,-158.451"/>
<polygon fill="midnightblue" stroke="midnightblue" points="292.271,-161.91 302.77,-160.491 293.677,-155.053 292.271,-161.91"/>
</g>
<!-- Node7 -->
<g id="node13" class="node"><title>Node7</title>
<a xlink:href="namespaceElmerFoamFSI_1_1TestFixture_a9c8d4061c611e98ad87be909ec0139c2.html#a9c8d4061c611e98ad87be909ec0139c2" target="_top" xlink:title="Simple test function fixture returns . ">
<polygon fill="none" stroke="black" points="276.5,-40.5 276.5,-61.5 431.5,-61.5 431.5,-40.5 276.5,-40.5"/>
<text text-anchor="middle" x="354" y="-48.5" font-family="Helvetica,sans-Serif" font-size="10.00">ElmerFoamFSI::TestFixture::F1</text>
</a>
</g>
<!-- Node6&#45;&gt;Node7 -->
<g id="edge12" class="edge"><title>Node6&#45;&gt;Node7</title>
<path fill="none" stroke="midnightblue" d="M225.563,-51C238.575,-51 252.407,-51 265.992,-51"/>
<polygon fill="midnightblue" stroke="midnightblue" points="266.314,-54.5001 276.314,-51 266.314,-47.5001 266.314,-54.5001"/>
</g>
<!-- Node8 -->
<g id="node15" class="node"><title>Node8</title>
<a xlink:href="namespaceElmerFoamFSI_1_1TestFixture_a3b7a7eff5f830fd464df46a8f2caecbf.html#a3b7a7eff5f830fd464df46a8f2caecbf" target="_top" xlink:title="Simple test function fixture returns . ">
<polygon fill="none" stroke="black" points="276.5,-80.5 276.5,-101.5 431.5,-101.5 431.5,-80.5 276.5,-80.5"/>
<text text-anchor="middle" x="354" y="-88.5" font-family="Helvetica,sans-Serif" font-size="10.00">ElmerFoamFSI::TestFixture::F2</text>
</a>
</g>
<!-- Node6&#45;&gt;Node8 -->
<g id="edge14" class="edge"><title>Node6&#45;&gt;Node8</title>
<path fill="none" stroke="midnightblue" d="M210.234,-61.5095C235.549,-66.7023 266.281,-73.0064 292.823,-78.4508"/>
<polygon fill="midnightblue" stroke="midnightblue" points="292.271,-81.9104 302.77,-80.4913 293.677,-75.0532 292.271,-81.9104"/>
</g>
<!-- Node9 -->
<g id="node17" class="node"><title>Node9</title>
<a xlink:href="namespaceElmerFoamFSI_a94390a668cbb6637ea246c660d00d430.html#a94390a668cbb6637ea246c660d00d430" target="_top" xlink:title="Integrates f with composite midpoint rule. ">
<polygon fill="none" stroke="black" points="266.5,-0.5 266.5,-21.5 441.5,-21.5 441.5,-0.5 266.5,-0.5"/>
<text text-anchor="middle" x="354" y="-8.5" font-family="Helvetica,sans-Serif" font-size="10.00">ElmerFoamFSI::MidPointQuadrature</text>
</a>
</g>
<!-- Node6&#45;&gt;Node9 -->
<g id="edge16" class="edge"><title>Node6&#45;&gt;Node9</title>
<path fill="none" stroke="midnightblue" d="M210.234,-40.4905C235.549,-35.2977 266.281,-28.9936 292.823,-23.5492"/>
<polygon fill="midnightblue" stroke="midnightblue" points="293.677,-26.9468 302.77,-21.5087 292.271,-20.0896 293.677,-26.9468"/>
</g>
<!-- Node10&#45;&gt;Node7 -->
<g id="edge20" class="edge"><title>Node10&#45;&gt;Node7</title>
<path fill="none" stroke="midnightblue" d="M210.234,-80.4905C235.549,-75.2977 266.281,-68.9936 292.823,-63.5492"/>
<polygon fill="midnightblue" stroke="midnightblue" points="293.677,-66.9468 302.77,-61.5087 292.271,-60.0896 293.677,-66.9468"/>
</g>
<!-- Node10&#45;&gt;Node8 -->
<g id="edge22" class="edge"><title>Node10&#45;&gt;Node8</title>
<path fill="none" stroke="midnightblue" d="M227.75,-91C240.122,-91 253.173,-91 266.003,-91"/>
<polygon fill="midnightblue" stroke="midnightblue" points="266.227,-94.5001 276.227,-91 266.227,-87.5001 266.227,-94.5001"/>
</g>
<!-- Node11 -->
<g id="node23" class="node"><title>Node11</title>
<a xlink:href="namespaceElmerFoamFSI_a7ea1066c129172a0edf5647d8254e957.html#a7ea1066c129172a0edf5647d8254e957" target="_top" xlink:title="Integrates f with composite trapezoid rule. ">
<polygon fill="none" stroke="black" points="264.5,-120.5 264.5,-141.5 443.5,-141.5 443.5,-120.5 264.5,-120.5"/>
<text text-anchor="middle" x="354" y="-128.5" font-family="Helvetica,sans-Serif" font-size="10.00">ElmerFoamFSI::TrapezoidQuadrature</text>
</a>
</g>
<!-- Node10&#45;&gt;Node11 -->
<g id="edge24" class="edge"><title>Node10&#45;&gt;Node11</title>
<path fill="none" stroke="midnightblue" d="M210.234,-101.51C235.549,-106.702 266.281,-113.006 292.823,-118.451"/>
<polygon fill="midnightblue" stroke="midnightblue" points="292.271,-121.91 302.77,-120.491 293.677,-115.053 292.271,-121.91"/>
</g>
</g>
</svg>
