<?xml version="1.0" encoding="UTF-8" standalone="no"?>
<!DOCTYPE svg PUBLIC "-//W3C//DTD SVG 1.1//EN"
 "http://www.w3.org/Graphics/SVG/1.1/DTD/svg11.dtd">
<!-- Generated by graphviz version 2.30.1 (20150305.2338)
 -->
<!-- Title: window_init_done Pages: 1 -->
<!--zoomable 485 -->
<svg id="main" version="1.1" xmlns="http://www.w3.org/2000/svg" xmlns:xlink="http://www.w3.org/1999/xlink" xml:space="preserve" onload="init(evt)">
<style type="text/css"><![CDATA[
.edge:hover path { stroke: red; }
.edge:hover polygon { stroke: red; fill: red; }
]]></style>
<script type="text/javascript"><![CDATA[
var edges = document.getElementsByTagName('g');
if (edges && edges.length) {
  for (var i=0;i<edges.length;i++) {
    if (edges[i].id.substr(0,4)=='edge') {
      edges[i].setAttribute('class','edge');
    }
  }
}
]]></script>
        <defs>
                <circle id="rim" cx="0" cy="0" r="7"/>
                <circle id="rim2" cx="0" cy="0" r="3.5"/>
                <g id="zoomPlus">
                        <use xlink:href="#rim" fill="#404040">
                                <set attributeName="fill" to="#808080" begin="zoomplus.mouseover" end="zoomplus.mouseout"/>
                        </use>
                        <path d="M-4,0h8M0,-4v8" fill="none" stroke="white" stroke-width="1.5" pointer-events="none"/>
                </g>
                <g id="zoomMin">
                        <use xlink:href="#rim" fill="#404040">
                                <set attributeName="fill" to="#808080" begin="zoomminus.mouseover" end="zoomminus.mouseout"/>
                        </use>
                        <path d="M-4,0h8" fill="none" stroke="white" stroke-width="1.5" pointer-events="none"/>
                </g>
                <g id="dirArrow">
                        <path fill="none" stroke="white" stroke-width="1.5" d="M0,-3.0v7 M-2.5,-0.5L0,-3.0L2.5,-0.5"/>
                </g>
               <g id="resetDef">
                       <use xlink:href="#rim2" fill="#404040">
                               <set attributeName="fill" to="#808080" begin="reset.mouseover" end="reset.mouseout"/>
                       </use>
               </g>
        </defs>

<script type="text/javascript">
var viewWidth = 1272;
var viewHeight = 485;
var sectionId = 'dynsection-0';
</script>
<script xlink:href="svgpan.js"/>
<svg id="graph" class="graph">
<g id="viewport">
<title>window_init_done</title>
<!-- Node1 -->
<g id="node1" class="node"><title>Node1</title>
<polygon fill="#bfbfbf" stroke="black" points="0,-153.5 0,-172.5 94,-172.5 94,-153.5 0,-153.5"/>
<text text-anchor="middle" x="47" y="-160.5" font-family="Helvetica,sans-Serif" font-size="10.00">window_init_done</text>
</g>
<!-- Node2 -->
<g id="node2" class="node"><title>Node2</title>
<g id="a_node2"><a xlink:href="com__c_8h_a3d47f9a5c36995bdf40384ed242dded8.html#a3d47f9a5c36995bdf40384ed242dded8" target="_top" xlink:title="COM_window_init_done">
<polygon fill="none" stroke="black" points="130,-153.5 130,-172.5 252,-172.5 252,-153.5 130,-153.5"/>
<text text-anchor="middle" x="191" y="-160.5" font-family="Helvetica,sans-Serif" font-size="10.00">COM_window_init_done</text>
</a>
</g>
</g>
<!-- Node1&#45;&gt;Node2 -->
<g id="edge1" class="edge"><title>Node1&#45;&gt;Node2</title>
<path fill="none" stroke="midnightblue" d="M104.218,-163C112.656,-163 121.387,-163 129.902,-163"/>
<polygon fill="midnightblue" stroke="midnightblue" points="104.103,-159.5 94.1033,-163 104.103,-166.5 104.103,-159.5"/>
</g>
<!-- Node3 -->
<g id="node3" class="node"><title>Node3</title>
<g id="a_node3"><a xlink:href="classopenfoamagent_a9a8261713154978fa009d8cb2c533055.html#a9a8261713154978fa009d8cb2c533055" target="_top" xlink:title="openfoamagent::Initialize">
<polygon fill="none" stroke="black" points="301.5,-251.5 301.5,-270.5 426.5,-270.5 426.5,-251.5 301.5,-251.5"/>
<text text-anchor="middle" x="364" y="-258.5" font-family="Helvetica,sans-Serif" font-size="10.00">openfoamagent::Initialize</text>
</a>
</g>
</g>
<!-- Node2&#45;&gt;Node3 -->
<g id="edge2" class="edge"><title>Node2&#45;&gt;Node3</title>
<path fill="none" stroke="midnightblue" d="M208.079,-180.118C225.936,-198.128 256.433,-226.031 288,-242 295.551,-245.82 303.928,-248.91 312.266,-251.399"/>
<polygon fill="midnightblue" stroke="midnightblue" points="210.279,-177.359 200.805,-172.617 205.254,-182.233 210.279,-177.359"/>
</g>
<!-- Node18 -->
<g id="node18" class="node"><title>Node18</title>
<g id="a_node18"><a xlink:href="classopenfoamagentpar_a9a8261713154978fa009d8cb2c533055.html#a9a8261713154978fa009d8cb2c533055" target="_top" xlink:title="openfoamagentpar::Initialize">
<polygon fill="none" stroke="black" points="294.5,-213.5 294.5,-232.5 433.5,-232.5 433.5,-213.5 294.5,-213.5"/>
<text text-anchor="middle" x="364" y="-220.5" font-family="Helvetica,sans-Serif" font-size="10.00">openfoamagentpar::Initialize</text>
</a>
</g>
</g>
<!-- Node2&#45;&gt;Node18 -->
<g id="edge28" class="edge"><title>Node2&#45;&gt;Node18</title>
<path fill="none" stroke="midnightblue" d="M221.081,-176.821C239.884,-185.406 265.046,-196.243 288,-204 298.435,-207.526 309.88,-210.743 320.617,-213.486"/>
<polygon fill="midnightblue" stroke="midnightblue" points="222.419,-173.584 211.873,-172.566 219.482,-179.938 222.419,-173.584"/>
</g>
<!-- Node20 -->
<g id="node20" class="node"><title>Node20</title>
<g id="a_node20"><a xlink:href="classelmeragent_a66d8ac5294227a11adf08cdfa91f59b5.html#a66d8ac5294227a11adf08cdfa91f59b5" target="_top" xlink:title="elmeragent::Initialize">
<polygon fill="none" stroke="black" points="310.5,-289.5 310.5,-308.5 417.5,-308.5 417.5,-289.5 310.5,-289.5"/>
<text text-anchor="middle" x="364" y="-296.5" font-family="Helvetica,sans-Serif" font-size="10.00">elmeragent::Initialize</text>
</a>
</g>
</g>
<!-- Node2&#45;&gt;Node20 -->
<g id="edge30" class="edge"><title>Node2&#45;&gt;Node20</title>
<path fill="none" stroke="midnightblue" d="M202.026,-181.492C217.142,-207.566 248.274,-254.766 288,-280 294.803,-284.321 302.537,-287.66 310.392,-290.241"/>
<polygon fill="midnightblue" stroke="midnightblue" points="204.988,-179.619 197.032,-172.623 198.889,-183.054 204.988,-179.619"/>
</g>
<!-- Node22 -->
<g id="node22" class="node"><title>Node22</title>
<g id="a_node22"><a xlink:href="classelmeragentpar_a66d8ac5294227a11adf08cdfa91f59b5.html#a66d8ac5294227a11adf08cdfa91f59b5" target="_top" xlink:title="elmeragentpar::Initialize">
<polygon fill="none" stroke="black" points="304,-175.5 304,-194.5 424,-194.5 424,-175.5 304,-175.5"/>
<text text-anchor="middle" x="364" y="-182.5" font-family="Helvetica,sans-Serif" font-size="10.00">elmeragentpar::Initialize</text>
</a>
</g>
</g>
<!-- Node2&#45;&gt;Node22 -->
<g id="edge35" class="edge"><title>Node2&#45;&gt;Node22</title>
<path fill="none" stroke="midnightblue" d="M262.232,-172.036C276.051,-173.814 290.42,-175.662 303.832,-177.388"/>
<polygon fill="midnightblue" stroke="midnightblue" points="262.653,-168.561 252.288,-170.756 261.76,-175.504 262.653,-168.561"/>
</g>
<!-- Node23 -->
<g id="node23" class="node"><title>Node23</title>
<g id="a_node23"><a xlink:href="classIcoFoamMod_1_1IcoFoamModule_a0163351bbf2a7fe37cedf5d673bd3ded.html#a0163351bbf2a7fe37cedf5d673bd3ded" target="_top" xlink:title="&quot;Loads&quot; IcoFoamModule ">
<polygon fill="none" stroke="black" points="289.5,-77 289.5,-107 438.5,-107 438.5,-77 289.5,-77"/>
<text text-anchor="start" x="297.5" y="-95" font-family="Helvetica,sans-Serif" font-size="10.00">IcoFoamMod::IcoFoamModule</text>
<text text-anchor="middle" x="364" y="-84" font-family="Helvetica,sans-Serif" font-size="10.00">::Load</text>
</a>
</g>
</g>
<!-- Node2&#45;&gt;Node23 -->
<g id="edge37" class="edge"><title>Node2&#45;&gt;Node23</title>
<path fill="none" stroke="midnightblue" d="M219.075,-148.906C238.086,-139.289 264.256,-126.602 288,-117 296.525,-113.552 305.725,-110.197 314.663,-107.122"/>
<polygon fill="midnightblue" stroke="midnightblue" points="217.413,-145.825 210.098,-153.489 220.596,-152.059 217.413,-145.825"/>
</g>
<!-- Node25 -->
<g id="node25" class="node"><title>Node25</title>
<g id="a_node25"><a xlink:href="classSolverUtils_1_1TransferObjectPar_a735bf8439c33b9d8f45d213ff1a113d6.html#a735bf8439c33b9d8f45d213ff1a113d6" target="_top" xlink:title="SolverUtils::TransferObject\lPar::Overlay">
<polygon fill="none" stroke="black" points="296.5,-126 296.5,-156 431.5,-156 431.5,-126 296.5,-126"/>
<text text-anchor="start" x="304.5" y="-144" font-family="Helvetica,sans-Serif" font-size="10.00">SolverUtils::TransferObject</text>
<text text-anchor="middle" x="364" y="-133" font-family="Helvetica,sans-Serif" font-size="10.00">Par::Overlay</text>
</a>
</g>
</g>
<!-- Node2&#45;&gt;Node25 -->
<g id="edge39" class="edge"><title>Node2&#45;&gt;Node25</title>
<path fill="none" stroke="midnightblue" d="M262.44,-153.938C273.628,-152.498 285.172,-151.013 296.271,-149.585"/>
<polygon fill="midnightblue" stroke="midnightblue" points="261.76,-150.496 252.288,-155.244 262.653,-157.439 261.76,-150.496"/>
</g>
<!-- Node26 -->
<g id="node26" class="node"><title>Node26</title>
<g id="a_node26"><a xlink:href="namespaceSolverUtils_abd82bb11c3dd2f2f88ff31ca33755f5b.html#abd82bb11c3dd2f2f88ff31ca33755f5b" target="_top" xlink:title="SolverUtils::RegisterSolver">
<polygon fill="none" stroke="black" points="296.5,-38.5 296.5,-57.5 431.5,-57.5 431.5,-38.5 296.5,-38.5"/>
<text text-anchor="middle" x="364" y="-45.5" font-family="Helvetica,sans-Serif" font-size="10.00">SolverUtils::RegisterSolver</text>
</a>
</g>
</g>
<!-- Node2&#45;&gt;Node26 -->
<g id="edge41" class="edge"><title>Node2&#45;&gt;Node26</title>
<path fill="none" stroke="midnightblue" d="M205.103,-145.274C221.924,-123.788 253.133,-87.9812 288,-68 295.6,-63.6448 304.175,-60.2118 312.742,-57.5136"/>
<polygon fill="midnightblue" stroke="midnightblue" points="202.29,-143.191 198.997,-153.261 207.851,-147.442 202.29,-143.191"/>
</g>
<!-- Node27 -->
<g id="node27" class="node"><title>Node27</title>
<g id="a_node27"><a xlink:href="namespaceSolverUtils_a4dc3eadf3c5b31e96ea58eaee60c4a59.html#a4dc3eadf3c5b31e96ea58eaee60c4a59" target="_top" xlink:title="SolverUtils::RegisterSolverInto">
<polygon fill="none" stroke="black" points="288,-0.5 288,-19.5 440,-19.5 440,-0.5 288,-0.5"/>
<text text-anchor="middle" x="364" y="-7.5" font-family="Helvetica,sans-Serif" font-size="10.00">SolverUtils::RegisterSolverInto</text>
</a>
</g>
</g>
<!-- Node2&#45;&gt;Node27 -->
<g id="edge42" class="edge"><title>Node2&#45;&gt;Node27</title>
<path fill="none" stroke="midnightblue" d="M200.126,-144.335C213.846,-115.083 244.435,-58.7167 288,-29 293.659,-25.1398 300.04,-22.0635 306.631,-19.6121"/>
<polygon fill="midnightblue" stroke="midnightblue" points="196.929,-142.911 195.982,-153.463 203.303,-145.804 196.929,-142.911"/>
</g>
<!-- Node4 -->
<g id="node4" class="node"><title>Node4</title>
<g id="a_node4"><a xlink:href="classfsicoupling_ae855141f7b214925c25f7797b8b122a8.html#ae855141f7b214925c25f7797b8b122a8" target="_top" xlink:title="fsicoupling::Initialize">
<polygon fill="none" stroke="black" points="483.5,-280.5 483.5,-299.5 588.5,-299.5 588.5,-280.5 483.5,-280.5"/>
<text text-anchor="middle" x="536" y="-287.5" font-family="Helvetica,sans-Serif" font-size="10.00">fsicoupling::Initialize</text>
</a>
</g>
</g>
<!-- Node3&#45;&gt;Node4 -->
<g id="edge3" class="edge"><title>Node3&#45;&gt;Node4</title>
<path fill="none" stroke="midnightblue" d="M431.162,-272.286C448.444,-275.235 466.82,-278.369 483.234,-281.169"/>
<polygon fill="midnightblue" stroke="midnightblue" points="431.582,-268.808 421.135,-270.576 430.405,-275.708 431.582,-268.808"/>
</g>
<!-- Node17 -->
<g id="node17" class="node"><title>Node17</title>
<g id="a_node17"><a xlink:href="classElmerFoamFSI_1_1TestingObject_a08d0370a943e7c47c0098eb76664a71b.html#a08d0370a943e7c47c0098eb76664a71b" target="_top" xlink:title="Run an initialization check to make sure the OpenFoamFluids are running as they should. ">
<polygon fill="none" stroke="black" points="650.5,-104 650.5,-134 799.5,-134 799.5,-104 650.5,-104"/>
<text text-anchor="start" x="658.5" y="-122" font-family="Helvetica,sans-Serif" font-size="10.00">ElmerFoamFSI::TestingObject</text>
<text text-anchor="middle" x="725" y="-111" font-family="Helvetica,sans-Serif" font-size="10.00">::Test__OpenFoamFluids</text>
</a>
</g>
</g>
<!-- Node3&#45;&gt;Node17 -->
<g id="edge25" class="edge"><title>Node3&#45;&gt;Node17</title>
<path fill="none" stroke="midnightblue" d="M436.842,-257.525C485.799,-251.959 549.857,-238.08 596,-204 621.015,-185.524 607.203,-162.767 632,-144 637.543,-139.805 643.744,-136.313 650.237,-133.407"/>
<polygon fill="midnightblue" stroke="midnightblue" points="436.218,-254.071 426.636,-258.591 436.945,-261.033 436.218,-254.071"/>
</g>
<!-- Node5 -->
<g id="node5" class="node"><title>Node5</title>
<g id="a_node5"><a xlink:href="classElmerFoamFSI_1_1SerialDriverProgram_a5803949d99491a7186bf1ee9cee81a3b.html#a5803949d99491a7186bf1ee9cee81a3b" target="_top" xlink:title="This function implements the main function executed by the program. ">
<polygon fill="none" stroke="black" points="655,-447 655,-477 795,-477 795,-447 655,-447"/>
<text text-anchor="start" x="663" y="-465" font-family="Helvetica,sans-Serif" font-size="10.00">ElmerFoamFSI::SerialDriver</text>
<text text-anchor="middle" x="725" y="-454" font-family="Helvetica,sans-Serif" font-size="10.00">Program::DriverRun</text>
</a>
</g>
</g>
<!-- Node4&#45;&gt;Node5 -->
<g id="edge4" class="edge"><title>Node4&#45;&gt;Node5</title>
<path fill="none" stroke="midnightblue" d="M544.011,-309.036C556.62,-340.572 586.156,-403.491 632,-437 638.815,-441.981 646.566,-445.97 654.609,-449.164"/>
<polygon fill="midnightblue" stroke="midnightblue" points="547.249,-307.703 540.385,-299.632 540.718,-310.222 547.249,-307.703"/>
</g>
<!-- Node7 -->
<g id="node7" class="node"><title>Node7</title>
<g id="a_node7"><a xlink:href="classElmerFoamFSI_1_1TestingObject_aa7d577bcec96bb12da930ede076b6023.html#aa7d577bcec96bb12da930ede076b6023" target="_top" xlink:title="Test for fluidAgent&#45;&gt;Run() function. ">
<polygon fill="none" stroke="black" points="650.5,-153 650.5,-183 799.5,-183 799.5,-153 650.5,-153"/>
<text text-anchor="start" x="658.5" y="-171" font-family="Helvetica,sans-Serif" font-size="10.00">ElmerFoamFSI::TestingObject</text>
<text text-anchor="middle" x="725" y="-160" font-family="Helvetica,sans-Serif" font-size="10.00">::Test__FluidAgentRun</text>
</a>
</g>
</g>
<!-- Node4&#45;&gt;Node7 -->
<g id="edge6" class="edge"><title>Node4&#45;&gt;Node7</title>
<path fill="none" stroke="midnightblue" d="M568.564,-275.838C578.125,-270.543 588.159,-263.87 596,-256 618.762,-233.155 606.494,-212.734 632,-193 637.498,-188.746 643.669,-185.215 650.143,-182.284"/>
<polygon fill="midnightblue" stroke="midnightblue" points="566.885,-272.766 559.63,-280.486 570.116,-278.976 566.885,-272.766"/>
</g>
<!-- Node13 -->
<g id="node13" class="node"><title>Node13</title>
<g id="a_node13"><a xlink:href="classElmerFoamFSI_1_1TestingObject_a07ff57097065c5066a4421176b63242b.html#a07ff57097065c5066a4421176b63242b" target="_top" xlink:title="Test the functionality of the fsiCoupler. ">
<polygon fill="none" stroke="black" points="650.5,-349 650.5,-379 799.5,-379 799.5,-349 650.5,-349"/>
<text text-anchor="start" x="658.5" y="-367" font-family="Helvetica,sans-Serif" font-size="10.00">ElmerFoamFSI::TestingObject</text>
<text text-anchor="middle" x="725" y="-356" font-family="Helvetica,sans-Serif" font-size="10.00">::Test__FsiCoupler</text>
</a>
</g>
</g>
<!-- Node4&#45;&gt;Node13 -->
<g id="edge13" class="edge"><title>Node4&#45;&gt;Node13</title>
<path fill="none" stroke="midnightblue" d="M561.785,-304.623C580.573,-315.249 607.289,-329.394 632,-339 641.41,-342.658 651.56,-345.993 661.561,-348.95"/>
<polygon fill="midnightblue" stroke="midnightblue" points="563.405,-301.518 552.989,-299.578 559.922,-307.589 563.405,-301.518"/>
</g>
<!-- Node14 -->
<g id="node14" class="node"><title>Node14</title>
<g id="a_node14"><a xlink:href="classElmerFoamFSI_1_1TestingObject_a1fae1ccecf337df1572d5a43cdae1a08.html#a1fae1ccecf337df1572d5a43cdae1a08" target="_top" xlink:title="Test for solidAgent&#45;&gt;Run() function. ">
<polygon fill="none" stroke="black" points="650.5,-300 650.5,-330 799.5,-330 799.5,-300 650.5,-300"/>
<text text-anchor="start" x="658.5" y="-318" font-family="Helvetica,sans-Serif" font-size="10.00">ElmerFoamFSI::TestingObject</text>
<text text-anchor="middle" x="725" y="-307" font-family="Helvetica,sans-Serif" font-size="10.00">::Test__SolidAgentRun</text>
</a>
</g>
</g>
<!-- Node4&#45;&gt;Node14 -->
<g id="edge16" class="edge"><title>Node4&#45;&gt;Node14</title>
<path fill="none" stroke="midnightblue" d="M598.641,-298.241C615.125,-300.445 633.109,-302.849 650.177,-305.131"/>
<polygon fill="midnightblue" stroke="midnightblue" points="598.969,-294.754 588.594,-296.898 598.042,-301.692 598.969,-294.754"/>
</g>
<!-- Node15 -->
<g id="node15" class="node"><title>Node15</title>
<g id="a_node15"><a xlink:href="classElmerFoamFSI_1_1TestingObject_abb3c0f68a2d2e212fa6e05e4628c78f0.html#abb3c0f68a2d2e212fa6e05e4628c78f0" target="_top" xlink:title="Test for fsiCoupling::TrasferDisplacementsToFluid function. ">
<polygon fill="none" stroke="black" points="632,-251 632,-281 818,-281 818,-251 632,-251"/>
<text text-anchor="start" x="640" y="-269" font-family="Helvetica,sans-Serif" font-size="10.00">ElmerFoamFSI::TestingObject</text>
<text text-anchor="middle" x="725" y="-258" font-family="Helvetica,sans-Serif" font-size="10.00">::Test__TransferDisplacementsToFluid</text>
</a>
</g>
</g>
<!-- Node4&#45;&gt;Node15 -->
<g id="edge19" class="edge"><title>Node4&#45;&gt;Node15</title>
<path fill="none" stroke="midnightblue" d="M598.567,-282.098C609.192,-280.735 620.441,-279.291 631.668,-277.85"/>
<polygon fill="midnightblue" stroke="midnightblue" points="598.067,-278.634 588.594,-283.378 598.958,-285.577 598.067,-278.634"/>
</g>
<!-- Node16 -->
<g id="node16" class="node"><title>Node16</title>
<g id="a_node16"><a xlink:href="classElmerFoamFSI_1_1TestingObject_a8c738943eca358248eb583bd29c5c332.html#a8c738943eca358248eb583bd29c5c332" target="_top" xlink:title="Test for TransferLoadsToStructures() function. ">
<polygon fill="none" stroke="black" points="639.5,-202 639.5,-232 810.5,-232 810.5,-202 639.5,-202"/>
<text text-anchor="start" x="647.5" y="-220" font-family="Helvetica,sans-Serif" font-size="10.00">ElmerFoamFSI::TestingObject</text>
<text text-anchor="middle" x="725" y="-209" font-family="Helvetica,sans-Serif" font-size="10.00">::Test__TransferLoadsToStructures</text>
</a>
</g>
</g>
<!-- Node4&#45;&gt;Node16 -->
<g id="edge22" class="edge"><title>Node4&#45;&gt;Node16</title>
<path fill="none" stroke="midnightblue" d="M562.162,-275.519C580.951,-265.147 607.502,-251.406 632,-242 641.426,-238.381 651.583,-235.067 661.588,-232.119"/>
<polygon fill="midnightblue" stroke="midnightblue" points="560.368,-272.512 553.351,-280.45 563.787,-278.62 560.368,-272.512"/>
</g>
<!-- Node6 -->
<g id="node6" class="node"><title>Node6</title>
<g id="a_node6"><a xlink:href="namespaceElmerFoamFSI_aff46f457934a8e2d3712bdbfb1688e99.html#aff46f457934a8e2d3712bdbfb1688e99" target="_top" xlink:title="Unified driver for the example programs. ">
<polygon fill="none" stroke="black" points="871.5,-452.5 871.5,-471.5 986.5,-471.5 986.5,-452.5 871.5,-452.5"/>
<text text-anchor="middle" x="929" y="-459.5" font-family="Helvetica,sans-Serif" font-size="10.00">ElmerFoamFSI::Driver</text>
</a>
</g>
</g>
<!-- Node5&#45;&gt;Node6 -->
<g id="edge5" class="edge"><title>Node5&#45;&gt;Node6</title>
<path fill="none" stroke="midnightblue" d="M805.243,-462C827.284,-462 850.777,-462 871.247,-462"/>
<polygon fill="midnightblue" stroke="midnightblue" points="805.234,-458.5 795.234,-462 805.234,-465.5 805.234,-458.5"/>
</g>
<!-- Node8 -->
<g id="node8" class="node"><title>Node8</title>
<g id="a_node8"><a xlink:href="classElmerFoamFSI_1_1TestingObject_a046f7ab06db0acf616b0d2bf3d3146aa.html#a046f7ab06db0acf616b0d2bf3d3146aa" target="_top" xlink:title="Runs all tests implemented by the ElmerFoamFSI::TestingObject. ">
<polygon fill="none" stroke="black" points="854.5,-226 854.5,-256 1003.5,-256 1003.5,-226 854.5,-226"/>
<text text-anchor="start" x="862.5" y="-244" font-family="Helvetica,sans-Serif" font-size="10.00">ElmerFoamFSI::TestingObject</text>
<text text-anchor="middle" x="929" y="-233" font-family="Helvetica,sans-Serif" font-size="10.00">::Process</text>
</a>
</g>
</g>
<!-- Node7&#45;&gt;Node8 -->
<g id="edge7" class="edge"><title>Node7&#45;&gt;Node8</title>
<path fill="none" stroke="midnightblue" d="M796.056,-185.886C803.512,-188.131 810.944,-190.517 818,-193 845.123,-202.546 874.969,-215.748 896.72,-225.891"/>
<polygon fill="midnightblue" stroke="midnightblue" points="796.852,-182.472 786.271,-183.019 794.884,-189.19 796.852,-182.472"/>
</g>
<!-- Node11 -->
<g id="node11" class="node"><title>Node11</title>
<g id="a_node11"><a xlink:href="classElmerFoamFSI_1_1TestingObject_af1f07f14b9af7708e4264bb38937eed2.html#af1f07f14b9af7708e4264bb38937eed2" target="_top" xlink:title="Runs a test specified by name. ">
<polygon fill="none" stroke="black" points="854.5,-275 854.5,-305 1003.5,-305 1003.5,-275 854.5,-275"/>
<text text-anchor="start" x="862.5" y="-293" font-family="Helvetica,sans-Serif" font-size="10.00">ElmerFoamFSI::TestingObject</text>
<text text-anchor="middle" x="929" y="-282" font-family="Helvetica,sans-Serif" font-size="10.00">::RunTest</text>
</a>
</g>
</g>
<!-- Node7&#45;&gt;Node11 -->
<g id="edge10" class="edge"><title>Node7&#45;&gt;Node11</title>
<path fill="none" stroke="midnightblue" d="M808.654,-186.477C811.939,-188.437 815.075,-190.604 818,-193 845.678,-215.67 827.02,-241.504 854,-265 858.397,-268.829 863.405,-272.078 868.695,-274.832"/>
<polygon fill="midnightblue" stroke="midnightblue" points="810.132,-183.299 799.65,-181.755 806.881,-189.499 810.132,-183.299"/>
</g>
<!-- Node9 -->
<g id="node9" class="node"><title>Node9</title>
<g id="a_node9"><a xlink:href="namespaceElmerFoamFSI_aeb590657609088b8ab12a5cbd164fcfa.html#aeb590657609088b8ab12a5cbd164fcfa" target="_top" xlink:title="Drives the ElmerFoamFSI::TestObject. ">
<polygon fill="none" stroke="black" points="1061,-234.5 1061,-253.5 1169,-253.5 1169,-234.5 1061,-234.5"/>
<text text-anchor="middle" x="1115" y="-241.5" font-family="Helvetica,sans-Serif" font-size="10.00">ElmerFoamFSI::Test</text>
</a>
</g>
</g>
<!-- Node8&#45;&gt;Node9 -->
<g id="edge8" class="edge"><title>Node8&#45;&gt;Node9</title>
<path fill="none" stroke="midnightblue" d="M1013.96,-242.369C1029.97,-242.63 1046.3,-242.896 1061,-243.136"/>
<polygon fill="midnightblue" stroke="midnightblue" points="1013.57,-238.862 1003.51,-242.199 1013.46,-245.861 1013.57,-238.862"/>
</g>
<!-- Node10 -->
<g id="node10" class="node"><title>Node10</title>
<g id="a_node10"><a xlink:href="TestElmerFoamFSI_8C_a0ddf1224851353fc92bfbff6f499fa97.html#a0ddf1224851353fc92bfbff6f499fa97" target="_top" xlink:title="main">
<polygon fill="none" stroke="black" points="1226,-234.5 1226,-253.5 1264,-253.5 1264,-234.5 1226,-234.5"/>
<text text-anchor="middle" x="1245" y="-241.5" font-family="Helvetica,sans-Serif" font-size="10.00">main</text>
</a>
</g>
</g>
<!-- Node9&#45;&gt;Node10 -->
<g id="edge9" class="edge"><title>Node9&#45;&gt;Node10</title>
<path fill="none" stroke="midnightblue" d="M1179.19,-244C1196.29,-244 1213.47,-244 1225.84,-244"/>
<polygon fill="midnightblue" stroke="midnightblue" points="1179.17,-240.5 1169.17,-244 1179.17,-247.5 1179.17,-240.5"/>
</g>
<!-- Node12 -->
<g id="node12" class="node"><title>Node12</title>
<g id="a_node12"><a xlink:href="classElmerFoamFSI_1_1TestingObject_a21159bd2efac623e5a5079f6a20f3444.html#a21159bd2efac623e5a5079f6a20f3444" target="_top" xlink:title="Runs a list of tests specified by name. ">
<polygon fill="none" stroke="black" points="1040.5,-275 1040.5,-305 1189.5,-305 1189.5,-275 1040.5,-275"/>
<text text-anchor="start" x="1048.5" y="-293" font-family="Helvetica,sans-Serif" font-size="10.00">ElmerFoamFSI::TestingObject</text>
<text text-anchor="middle" x="1115" y="-282" font-family="Helvetica,sans-Serif" font-size="10.00">::ProcessTests</text>
</a>
</g>
</g>
<!-- Node11&#45;&gt;Node12 -->
<g id="edge11" class="edge"><title>Node11&#45;&gt;Node12</title>
<path fill="none" stroke="midnightblue" d="M1013.53,-290C1022.46,-290 1031.5,-290 1040.3,-290"/>
<polygon fill="midnightblue" stroke="midnightblue" points="1013.51,-286.5 1003.51,-290 1013.51,-293.5 1013.51,-286.5"/>
</g>
<!-- Node11&#45;&gt;Node9 -->
<g id="edge12" class="edge"><title>Node11&#45;&gt;Node9</title>
<path fill="none" stroke="midnightblue" d="M999.986,-272.503C1025.75,-266.061 1053.97,-259.008 1075.89,-253.529"/>
<polygon fill="midnightblue" stroke="midnightblue" points="999.101,-269.117 990.248,-274.938 1000.8,-275.908 999.101,-269.117"/>
</g>
<!-- Node13&#45;&gt;Node8 -->
<g id="edge14" class="edge"><title>Node13&#45;&gt;Node8</title>
<path fill="none" stroke="midnightblue" d="M808.67,-345.543C811.951,-343.578 815.082,-341.404 818,-339 845.923,-316.001 826.785,-289.832 854,-266 858.387,-262.159 863.388,-258.902 868.673,-256.143"/>
<polygon fill="midnightblue" stroke="midnightblue" points="806.896,-342.522 799.676,-350.276 810.155,-348.717 806.896,-342.522"/>
</g>
<!-- Node13&#45;&gt;Node11 -->
<g id="edge15" class="edge"><title>Node13&#45;&gt;Node11</title>
<path fill="none" stroke="midnightblue" d="M796.667,-345.989C803.92,-343.786 811.14,-341.444 818,-339 845.572,-329.179 875.885,-315.445 897.695,-305.015"/>
<polygon fill="midnightblue" stroke="midnightblue" points="795.387,-342.718 786.786,-348.905 797.368,-349.432 795.387,-342.718"/>
</g>
<!-- Node14&#45;&gt;Node8 -->
<g id="edge17" class="edge"><title>Node14&#45;&gt;Node8</title>
<path fill="none" stroke="midnightblue" d="M801.407,-296.675C807.101,-294.636 812.691,-292.413 818,-290 835.506,-282.042 836.743,-274.484 854,-266 861.423,-262.351 869.511,-259.021 877.524,-256.066"/>
<polygon fill="midnightblue" stroke="midnightblue" points="800.113,-293.417 791.759,-299.933 802.353,-300.049 800.113,-293.417"/>
</g>
<!-- Node14&#45;&gt;Node11 -->
<g id="edge18" class="edge"><title>Node14&#45;&gt;Node11</title>
<path fill="none" stroke="midnightblue" d="M809.913,-304.615C824.683,-302.787 839.955,-300.897 854.416,-299.107"/>
<polygon fill="midnightblue" stroke="midnightblue" points="809.278,-301.166 799.784,-305.868 810.138,-308.113 809.278,-301.166"/>
</g>
<!-- Node15&#45;&gt;Node8 -->
<g id="edge20" class="edge"><title>Node15&#45;&gt;Node8</title>
<path fill="none" stroke="midnightblue" d="M828.144,-253.358C837.019,-252.26 845.883,-251.163 854.461,-250.101"/>
<polygon fill="midnightblue" stroke="midnightblue" points="827.628,-249.896 818.133,-254.597 828.487,-256.843 827.628,-249.896"/>
</g>
<!-- Node15&#45;&gt;Node11 -->
<g id="edge21" class="edge"><title>Node15&#45;&gt;Node11</title>
<path fill="none" stroke="midnightblue" d="M828.144,-278.136C837.019,-279.19 845.883,-280.244 854.461,-281.263"/>
<polygon fill="midnightblue" stroke="midnightblue" points="828.476,-274.651 818.133,-276.947 827.65,-281.602 828.476,-274.651"/>
</g>
<!-- Node16&#45;&gt;Node8 -->
<g id="edge23" class="edge"><title>Node16&#45;&gt;Node8</title>
<path fill="none" stroke="midnightblue" d="M821.02,-228.29C832.209,-229.619 843.496,-230.96 854.329,-232.247"/>
<polygon fill="midnightblue" stroke="midnightblue" points="821.131,-224.778 810.788,-227.074 820.305,-231.729 821.131,-224.778"/>
</g>
<!-- Node16&#45;&gt;Node11 -->
<g id="edge24" class="edge"><title>Node16&#45;&gt;Node11</title>
<path fill="none" stroke="midnightblue" d="M801.044,-235.331C806.857,-237.374 812.571,-239.595 818,-242 835.36,-249.689 836.88,-256.79 854,-265 861.581,-268.635 869.83,-271.976 877.98,-274.952"/>
<polygon fill="midnightblue" stroke="midnightblue" points="801.795,-231.893 791.201,-232.062 799.588,-238.536 801.795,-231.893"/>
</g>
<!-- Node17&#45;&gt;Node8 -->
<g id="edge26" class="edge"><title>Node17&#45;&gt;Node8</title>
<path fill="none" stroke="midnightblue" d="M804.713,-137.723C809.296,-139.63 813.76,-141.717 818,-144 858.127,-165.61 895.919,-204.424 915.023,-225.818"/>
<polygon fill="midnightblue" stroke="midnightblue" points="805.763,-134.377 795.173,-134.06 803.253,-140.912 805.763,-134.377"/>
</g>
<!-- Node17&#45;&gt;Node11 -->
<g id="edge27" class="edge"><title>Node17&#45;&gt;Node11</title>
<path fill="none" stroke="midnightblue" d="M808.47,-136.377C811.881,-138.625 815.086,-141.154 818,-144 858.144,-183.198 815.059,-224.606 854,-265 857.765,-268.905 862.159,-272.2 866.896,-274.981"/>
<polygon fill="midnightblue" stroke="midnightblue" points="810.035,-133.241 799.611,-131.349 806.58,-139.329 810.035,-133.241"/>
</g>
<!-- Node19 -->
<g id="node19" class="node"><title>Node19</title>
<g id="a_node19"><a xlink:href="classfsicouplingpar_ae855141f7b214925c25f7797b8b122a8.html#ae855141f7b214925c25f7797b8b122a8" target="_top" xlink:title="fsicouplingpar::Initialize">
<polygon fill="none" stroke="black" points="476.5,-175.5 476.5,-194.5 595.5,-194.5 595.5,-175.5 476.5,-175.5"/>
<text text-anchor="middle" x="536" y="-182.5" font-family="Helvetica,sans-Serif" font-size="10.00">fsicouplingpar::Initialize</text>
</a>
</g>
</g>
<!-- Node18&#45;&gt;Node19 -->
<g id="edge29" class="edge"><title>Node18&#45;&gt;Node19</title>
<path fill="none" stroke="midnightblue" d="M417.898,-211.176C441.865,-205.818 469.824,-199.569 492.41,-194.52"/>
<polygon fill="midnightblue" stroke="midnightblue" points="416.894,-207.814 407.898,-213.411 418.421,-214.645 416.894,-207.814"/>
</g>
<!-- Node20&#45;&gt;Node4 -->
<g id="edge31" class="edge"><title>Node20&#45;&gt;Node4</title>
<path fill="none" stroke="midnightblue" d="M428.087,-295.66C446.286,-294.697 465.924,-293.657 483.342,-292.735"/>
<polygon fill="midnightblue" stroke="midnightblue" points="427.658,-292.178 417.857,-296.202 428.028,-299.168 427.658,-292.178"/>
</g>
<!-- Node21 -->
<g id="node21" class="node"><title>Node21</title>
<g id="a_node21"><a xlink:href="classElmerFoamFSI_1_1TestingObject_af35b4f0c5c244be91e637c17b3ebabd9.html#af35b4f0c5c244be91e637c17b3ebabd9" target="_top" xlink:title="Run an initialization check to make sure that the ElmerStructures are running as they should...">
<polygon fill="none" stroke="black" points="650.5,-398 650.5,-428 799.5,-428 799.5,-398 650.5,-398"/>
<text text-anchor="start" x="658.5" y="-416" font-family="Helvetica,sans-Serif" font-size="10.00">ElmerFoamFSI::TestingObject</text>
<text text-anchor="middle" x="725" y="-405" font-family="Helvetica,sans-Serif" font-size="10.00">::Test__ElmerStructures</text>
</a>
</g>
</g>
<!-- Node20&#45;&gt;Node21 -->
<g id="edge32" class="edge"><title>Node20&#45;&gt;Node21</title>
<path fill="none" stroke="midnightblue" d="M401.772,-311.989C453.065,-329.94 549.127,-362.95 632,-388 643.09,-391.352 654.994,-394.741 666.438,-397.894"/>
<polygon fill="midnightblue" stroke="midnightblue" points="402.723,-308.614 392.128,-308.607 400.406,-315.219 402.723,-308.614"/>
</g>
<!-- Node21&#45;&gt;Node8 -->
<g id="edge33" class="edge"><title>Node21&#45;&gt;Node8</title>
<path fill="none" stroke="midnightblue" d="M808.478,-395.631C811.887,-393.381 815.089,-390.849 818,-388 858.405,-348.459 814.809,-306.744 854,-266 857.76,-262.091 862.152,-258.793 866.886,-256.01"/>
<polygon fill="midnightblue" stroke="midnightblue" points="806.588,-392.679 799.622,-400.663 810.046,-398.766 806.588,-392.679"/>
</g>
<!-- Node21&#45;&gt;Node11 -->
<g id="edge34" class="edge"><title>Node21&#45;&gt;Node11</title>
<path fill="none" stroke="midnightblue" d="M804.727,-394.302C809.306,-392.39 813.766,-390.294 818,-388 858.253,-366.189 895.995,-326.967 915.057,-305.345"/>
<polygon fill="midnightblue" stroke="midnightblue" points="803.265,-391.114 795.192,-397.976 805.782,-397.646 803.265,-391.114"/>
</g>
<!-- Node22&#45;&gt;Node19 -->
<g id="edge36" class="edge"><title>Node22&#45;&gt;Node19</title>
<path fill="none" stroke="midnightblue" d="M434.478,-185C448.411,-185 462.919,-185 476.436,-185"/>
<polygon fill="midnightblue" stroke="midnightblue" points="434.458,-181.5 424.458,-185 434.458,-188.5 434.458,-181.5"/>
</g>
<!-- Node24 -->
<g id="node24" class="node"><title>Node24</title>
<g id="a_node24"><a xlink:href="icoFoamModule_8C_a6a4b606029cee6c85493fbaee4201ec5.html#a6a4b606029cee6c85493fbaee4201ec5" target="_top" xlink:title="C/C++ bindings to load IcoFoamModule. ">
<polygon fill="none" stroke="black" points="481,-77 481,-107 591,-107 591,-77 481,-77"/>
<text text-anchor="start" x="489" y="-95" font-family="Helvetica,sans-Serif" font-size="10.00">IcoFoamModule_load</text>
<text text-anchor="middle" x="536" y="-84" font-family="Helvetica,sans-Serif" font-size="10.00">_module</text>
</a>
</g>
</g>
<!-- Node23&#45;&gt;Node24 -->
<g id="edge38" class="edge"><title>Node23&#45;&gt;Node24</title>
<path fill="none" stroke="midnightblue" d="M448.595,-92C459.537,-92 470.511,-92 480.789,-92"/>
<polygon fill="midnightblue" stroke="midnightblue" points="448.576,-88.5001 438.576,-92 448.576,-95.5001 448.576,-88.5001"/>
</g>
<!-- Node25&#45;&gt;Node19 -->
<g id="edge40" class="edge"><title>Node25&#45;&gt;Node19</title>
<path fill="none" stroke="midnightblue" d="M432.814,-158.552C455.146,-164.332 479.131,-170.54 498.247,-175.488"/>
<polygon fill="midnightblue" stroke="midnightblue" points="433.587,-155.137 423.029,-156.019 431.833,-161.913 433.587,-155.137"/>
</g>
</g>
</svg>
        <g id="navigator" transform="translate(0 0)" fill="#404254">
                <rect fill="#f2f5e9" fill-opacity="0.5" stroke="#606060" stroke-width=".5" x="0" y="0" width="60" height="60"/>
                <use id="zoomplus" xlink:href="#zoomPlus" x="17" y="9" onmousedown="handleZoom(evt,'in')"/>
                <use id="zoomminus" xlink:href="#zoomMin" x="42" y="9" onmousedown="handleZoom(evt,'out')"/>
                <use id="reset" xlink:href="#resetDef" x="30" y="36" onmousedown="handleReset()"/>
                <g id="arrowUp" xlink:href="#dirArrow" transform="translate(30 24)" onmousedown="handlePan(0,-1)">
                  <use xlink:href="#rim" fill="#404040">
                        <set attributeName="fill" to="#808080" begin="arrowUp.mouseover" end="arrowUp.mouseout"/>
                  </use>
                  <path fill="none" stroke="white" stroke-width="1.5" d="M0,-3.0v7 M-2.5,-0.5L0,-3.0L2.5,-0.5"/>
                </g>
                <g id="arrowRight" xlink:href="#dirArrow" transform="rotate(90) translate(36 -43)" onmousedown="handlePan(1,0)">
                  <use xlink:href="#rim" fill="#404040">
                        <set attributeName="fill" to="#808080" begin="arrowRight.mouseover" end="arrowRight.mouseout"/>
                  </use>
                  <path fill="none" stroke="white" stroke-width="1.5" d="M0,-3.0v7 M-2.5,-0.5L0,-3.0L2.5,-0.5"/>
                </g>
                <g id="arrowDown" xlink:href="#dirArrow" transform="rotate(180) translate(-30 -48)" onmousedown="handlePan(0,1)">
                  <use xlink:href="#rim" fill="#404040">
                        <set attributeName="fill" to="#808080" begin="arrowDown.mouseover" end="arrowDown.mouseout"/>
                  </use>
                  <path fill="none" stroke="white" stroke-width="1.5" d="M0,-3.0v7 M-2.5,-0.5L0,-3.0L2.5,-0.5"/>
                </g>
                <g id="arrowLeft" xlink:href="#dirArrow" transform="rotate(270) translate(-36 17)" onmousedown="handlePan(-1,0)">
                  <use xlink:href="#rim" fill="#404040">
                        <set attributeName="fill" to="#808080" begin="arrowLeft.mouseover" end="arrowLeft.mouseout"/>
                  </use>
                  <path fill="none" stroke="white" stroke-width="1.5" d="M0,-3.0v7 M-2.5,-0.5L0,-3.0L2.5,-0.5"/>
                </g>
        </g>
        <svg viewBox="0 0 15 15" width="100%" height="30px" preserveAspectRatio="xMaxYMin meet">
         <g id="arrow_out" transform="scale(0.3 0.3)">
          <a xlink:href="classCOM_1_1COM__base_a1546f81f8d44d2745bbdddf6eee2a03f_a1546f81f8d44d2745bbdddf6eee2a03f_icgraph_org.svg" target="_base">
           <rect id="button" ry="5" rx="5" y="6" x="6" height="38" width="38"
                fill="#f2f5e9" fill-opacity="0.5" stroke="#606060" stroke-width="1.0"/>
           <path id="arrow"
             d="M 11.500037,31.436501 C 11.940474,20.09759 22.043105,11.32322 32.158766,21.979434 L 37.068811,17.246167 C 37.068811,17.246167 37.088388,32 37.088388,32 L 22.160133,31.978069 C 22.160133,31.978069 26.997745,27.140456 26.997745,27.140456 C 18.528582,18.264221 13.291696,25.230495 11.500037,31.436501 z"
             style="fill:#404040;"/>
          </a>
         </g>
        </svg>
</svg>
