<?xml version="1.0" encoding="UTF-8" standalone="no"?>
<!DOCTYPE svg PUBLIC "-//W3C//DTD SVG 1.1//EN"
 "http://www.w3.org/Graphics/SVG/1.1/DTD/svg11.dtd">
<!-- Generated by graphviz version 2.30.1 (20150305.2338)
 -->
<!-- Title: Facet_node_enumerator Pages: 1 -->
<!--zoomable 649 -->
<svg id="main" version="1.1" xmlns="http://www.w3.org/2000/svg" xmlns:xlink="http://www.w3.org/1999/xlink" xml:space="preserve" onload="init(evt)">
<style type="text/css"><![CDATA[
.edge:hover path { stroke: red; }
.edge:hover polygon { stroke: red; fill: red; }
]]></style>
<script type="text/javascript"><![CDATA[
var edges = document.getElementsByTagName('g');
if (edges && edges.length) {
  for (var i=0;i<edges.length;i++) {
    if (edges[i].id.substr(0,4)=='edge') {
      edges[i].setAttribute('class','edge');
    }
  }
}
]]></script>
        <defs>
                <circle id="rim" cx="0" cy="0" r="7"/>
                <circle id="rim2" cx="0" cy="0" r="3.5"/>
                <g id="zoomPlus">
                        <use xlink:href="#rim" fill="#404040">
                                <set attributeName="fill" to="#808080" begin="zoomplus.mouseover" end="zoomplus.mouseout"/>
                        </use>
                        <path d="M-4,0h8M0,-4v8" fill="none" stroke="white" stroke-width="1.5" pointer-events="none"/>
                </g>
                <g id="zoomMin">
                        <use xlink:href="#rim" fill="#404040">
                                <set attributeName="fill" to="#808080" begin="zoomminus.mouseover" end="zoomminus.mouseout"/>
                        </use>
                        <path d="M-4,0h8" fill="none" stroke="white" stroke-width="1.5" pointer-events="none"/>
                </g>
                <g id="dirArrow">
                        <path fill="none" stroke="white" stroke-width="1.5" d="M0,-3.0v7 M-2.5,-0.5L0,-3.0L2.5,-0.5"/>
                </g>
               <g id="resetDef">
                       <use xlink:href="#rim2" fill="#404040">
                               <set attributeName="fill" to="#808080" begin="reset.mouseover" end="reset.mouseout"/>
                       </use>
               </g>
        </defs>

<script type="text/javascript">
var viewWidth = 1610;
var viewHeight = 649;
var sectionId = 'dynsection-0';
</script>
<script xlink:href="svgpan.js"/>
<svg id="graph" class="graph">
<g id="viewport">
<title>Facet_node_enumerator</title>
<!-- Node1 -->
<g id="node1" class="node"><title>Node1</title>
<polygon fill="#bfbfbf" stroke="black" points="1016,-574.5 1016,-593.5 1138,-593.5 1138,-574.5 1016,-574.5"/>
<text text-anchor="middle" x="1077" y="-581.5" font-family="Helvetica,sans-Serif" font-size="10.00">Facet_node_enumerator</text>
</g>
<!-- Node2 -->
<g id="node2" class="node"><title>Node2</title>
<g id="a_node2"><a xlink:href="classElement__node__enumerator.html" target="_top" xlink:title="An adaptor for enumerating node IDs of an element. ">
<polygon fill="none" stroke="black" points="714.5,-574.5 714.5,-593.5 847.5,-593.5 847.5,-574.5 714.5,-574.5"/>
<text text-anchor="middle" x="781" y="-581.5" font-family="Helvetica,sans-Serif" font-size="10.00">Element_node_enumerator</text>
</a>
</g>
</g>
<!-- Node2&#45;&gt;Node1 -->
<g id="edge1" class="edge"><title>Node2&#45;&gt;Node1</title>
<path fill="none" stroke="#9a32cd" stroke-dasharray="5,2" d="M857.861,-584C906.926,-584 969.925,-584 1015.59,-584"/>
<polygon fill="#9a32cd" stroke="#9a32cd" points="857.613,-580.5 847.613,-584 857.613,-587.5 857.613,-580.5"/>
<text text-anchor="middle" x="925" y="-587" font-family="Helvetica,sans-Serif" font-size="10.00"> _ene</text>
</g>
<!-- Node3 -->
<g id="node3" class="node"><title>Node3</title>
<g id="a_node3"><a xlink:href="classConnectivity.html" target="_top" xlink:title="Encapsulates an element&#45;connectivity of a mesh. ">
<polygon fill="none" stroke="black" points="110.5,-486.5 110.5,-505.5 181.5,-505.5 181.5,-486.5 110.5,-486.5"/>
<text text-anchor="middle" x="146" y="-493.5" font-family="Helvetica,sans-Serif" font-size="10.00">Connectivity</text>
</a>
</g>
</g>
<!-- Node3&#45;&gt;Node2 -->
<g id="edge2" class="edge"><title>Node3&#45;&gt;Node2</title>
<path fill="none" stroke="#9a32cd" stroke-dasharray="5,2" d="M188.091,-508.147C192.1,-509.176 196.118,-510.147 200,-511 403.039,-555.607 454.757,-567.728 662,-584 678.951,-585.331 697.315,-585.799 714.393,-585.823"/>
<polygon fill="#9a32cd" stroke="#9a32cd" points="188.797,-504.713 178.232,-505.506 186.986,-511.474 188.797,-504.713"/>
<text text-anchor="middle" x="500" y="-577" font-family="Helvetica,sans-Serif" font-size="10.00"> _conn</text>
</g>
<!-- Node6 -->
<g id="node6" class="node"><title>Node6</title>
<polygon fill="none" stroke="#bfbfbf" points="302.5,-486.5 302.5,-505.5 425.5,-505.5 425.5,-486.5 302.5,-486.5"/>
<text text-anchor="middle" x="364" y="-493.5" font-family="Helvetica,sans-Serif" font-size="10.00">vector&lt; Connectivity * &gt;</text>
</g>
<!-- Node3&#45;&gt;Node6 -->
<g id="edge6" class="edge"><title>Node3&#45;&gt;Node6</title>
<path fill="none" stroke="#9a32cd" stroke-dasharray="5,2" d="M192.076,-496C224.018,-496 267.235,-496 302.221,-496"/>
<polygon fill="#9a32cd" stroke="#9a32cd" points="191.704,-492.5 181.704,-496 191.704,-499.5 191.704,-492.5"/>
<text text-anchor="middle" x="242" y="-499" font-family="Helvetica,sans-Serif" font-size="10.00"> elements</text>
</g>
<!-- Node4 -->
<g id="node4" class="node"><title>Node4</title>
<g id="a_node4"><a xlink:href="classDataItem.html" target="_top" xlink:title="A DataItem object is a data member of a window. ">
<polygon fill="none" stroke="black" points="752.5,-336.5 752.5,-355.5 809.5,-355.5 809.5,-336.5 752.5,-336.5"/>
<text text-anchor="middle" x="781" y="-343.5" font-family="Helvetica,sans-Serif" font-size="10.00">DataItem</text>
</a>
</g>
</g>
<!-- Node4&#45;&gt;Node3 -->
<g id="edge3" class="edge"><title>Node4&#45;&gt;Node3</title>
<path fill="none" stroke="darkgreen" d="M742.066,-349.079C628.883,-358.751 295.521,-390.89 200,-441 179.333,-451.842 162.032,-473.772 153.238,-486.42"/>
<polygon fill="darkgreen" stroke="darkgreen" points="742.646,-352.543 752.316,-348.214 742.057,-345.568 742.646,-352.543"/>
</g>
<!-- Node9 -->
<g id="node9" class="node"><title>Node9</title>
<polygon fill="none" stroke="#bfbfbf" points="1022.5,-443.5 1022.5,-462.5 1131.5,-462.5 1131.5,-443.5 1022.5,-443.5"/>
<text text-anchor="middle" x="1077" y="-450.5" font-family="Helvetica,sans-Serif" font-size="10.00">vector&lt; DataItem * &gt;</text>
</g>
<!-- Node4&#45;&gt;Node9 -->
<g id="edge10" class="edge"><title>Node4&#45;&gt;Node9</title>
<path fill="none" stroke="#9a32cd" stroke-dasharray="5,2" d="M817.773,-359.019C877.625,-380.802 996.695,-424.137 1049.6,-443.393"/>
<polygon fill="#9a32cd" stroke="#9a32cd" points="818.943,-355.721 808.349,-355.59 816.549,-362.299 818.943,-355.721"/>
<text text-anchor="middle" x="925" y="-421" font-family="Helvetica,sans-Serif" font-size="10.00"> elements</text>
</g>
<!-- Node12 -->
<g id="node12" class="node"><title>Node12</title>
<g id="a_node12"><a xlink:href="classFunction.html" target="_top" xlink:title="A Function object corresponds to a function member of a window. ">
<polygon fill="none" stroke="black" points="1050,-259.5 1050,-278.5 1104,-278.5 1104,-259.5 1050,-259.5"/>
<text text-anchor="middle" x="1077" y="-266.5" font-family="Helvetica,sans-Serif" font-size="10.00">Function</text>
</a>
</g>
</g>
<!-- Node4&#45;&gt;Node12 -->
<g id="edge19" class="edge"><title>Node4&#45;&gt;Node12</title>
<path fill="none" stroke="#9a32cd" stroke-dasharray="5,2" d="M819.641,-351.133C870.809,-357.263 958.84,-364.536 984,-346 1005.73,-329.991 982.447,-306.606 1002,-288 1014.68,-275.93 1033.96,-271.256 1049.66,-269.56"/>
<polygon fill="#9a32cd" stroke="#9a32cd" points="819.977,-347.648 809.623,-349.891 819.116,-354.595 819.977,-347.648"/>
<text text-anchor="middle" x="925" y="-360" font-family="Helvetica,sans-Serif" font-size="10.00"> _attr</text>
</g>
<!-- Node20 -->
<g id="node20" class="node"><title>Node20</title>
<polygon fill="none" stroke="#bfbfbf" points="1002,-172.5 1002,-191.5 1152,-191.5 1152,-172.5 1002,-172.5"/>
<text text-anchor="middle" x="1077" y="-179.5" font-family="Helvetica,sans-Serif" font-size="10.00">map&lt; std::string, DataItem * &gt;</text>
</g>
<!-- Node4&#45;&gt;Node20 -->
<g id="edge33" class="edge"><title>Node4&#45;&gt;Node20</title>
<path fill="none" stroke="#9a32cd" stroke-dasharray="5,2" d="M811.276,-332.099C851.023,-312.962 923.989,-276.894 984,-242 1012.52,-225.418 1044.51,-203.846 1062.25,-191.602"/>
<polygon fill="#9a32cd" stroke="#9a32cd" points="809.65,-328.997 802.147,-336.477 812.677,-335.308 809.65,-328.997"/>
<text text-anchor="middle" x="925" y="-306" font-family="Helvetica,sans-Serif" font-size="10.00"> elements</text>
</g>
<!-- Node4&#45;&gt;Node4 -->
<g id="edge36" class="edge"><title>Node4&#45;&gt;Node4</title>
<path fill="none" stroke="#9a32cd" stroke-dasharray="5,2" d="M762.112,-365.4C763.373,-370.315 769.669,-374 781,-374 799.129,-374 804.369,-364.565 796.721,-355.757"/>
<polygon fill="#9a32cd" stroke="#9a32cd" points="765.484,-366.35 765.279,-355.757 758.833,-364.166 765.484,-366.35"/>
<text text-anchor="middle" x="781" y="-377" font-family="Helvetica,sans-Serif" font-size="10.00"> _parent</text>
</g>
<!-- Node5 -->
<g id="node5" class="node"><title>Node5</title>
<g id="a_node5"><a xlink:href="classPane.html" target="_top" xlink:title="A Pane object contains a mesh, pane dataitem, and field variables. ">
<polygon fill="none" stroke="black" points="589.5,-496.5 589.5,-515.5 628.5,-515.5 628.5,-496.5 589.5,-496.5"/>
<text text-anchor="middle" x="609" y="-503.5" font-family="Helvetica,sans-Serif" font-size="10.00">Pane</text>
</a>
</g>
</g>
<!-- Node5&#45;&gt;Node4 -->
<g id="edge4" class="edge"><title>Node5&#45;&gt;Node4</title>
<path fill="none" stroke="#9a32cd" stroke-dasharray="5,2" d="M620.877,-487.885C630.563,-472.576 645.693,-450.558 662,-434 694.636,-400.861 740.509,-370.363 764.302,-355.501"/>
<polygon fill="#9a32cd" stroke="#9a32cd" points="617.868,-486.096 615.587,-496.442 623.822,-489.776 617.868,-486.096"/>
<text text-anchor="middle" x="679" y="-437" font-family="Helvetica,sans-Serif" font-size="10.00"> _pane</text>
</g>
<!-- Node19 -->
<g id="node19" class="node"><title>Node19</title>
<polygon fill="none" stroke="#bfbfbf" points="1027.5,-297.5 1027.5,-316.5 1126.5,-316.5 1126.5,-297.5 1027.5,-297.5"/>
<text text-anchor="middle" x="1077" y="-304.5" font-family="Helvetica,sans-Serif" font-size="10.00">map&lt; int, Pane * &gt;</text>
</g>
<!-- Node5&#45;&gt;Node19 -->
<g id="edge27" class="edge"><title>Node5&#45;&gt;Node19</title>
<path fill="none" stroke="#9a32cd" stroke-dasharray="5,2" d="M638.297,-493.94C658.975,-485.485 687.853,-474.414 714,-467 831.652,-433.639 878.317,-475.529 984,-414 1026.34,-389.347 1058.68,-337.907 1070.8,-316.581"/>
<polygon fill="#9a32cd" stroke="#9a32cd" points="636.752,-490.791 628.853,-497.852 639.431,-497.258 636.752,-490.791"/>
<text text-anchor="middle" x="781" y="-470" font-family="Helvetica,sans-Serif" font-size="10.00"> elements</text>
</g>
<!-- Node10 -->
<g id="node10" class="node"><title>Node10</title>
<g id="a_node10"><a xlink:href="classComponentInterface.html" target="_top" xlink:title="A ComponentInterface object contains multiple panes and multiple data dataitems. ">
<polygon fill="none" stroke="black" points="1496.5,-217.5 1496.5,-236.5 1601.5,-236.5 1601.5,-217.5 1496.5,-217.5"/>
<text text-anchor="middle" x="1549" y="-224.5" font-family="Helvetica,sans-Serif" font-size="10.00">ComponentInterface</text>
</a>
</g>
</g>
<!-- Node5&#45;&gt;Node10 -->
<g id="edge29" class="edge"><title>Node5&#45;&gt;Node10</title>
<path fill="none" stroke="#9a32cd" stroke-dasharray="5,2" d="M618.356,-524.737C627.011,-542.228 642.068,-567.972 662,-584 705.866,-619.273 723.712,-630 780,-630 780,-630 780,-630 1339,-630 1522.24,-630 1545.03,-297.592 1547.67,-236.564"/>
<polygon fill="#9a32cd" stroke="#9a32cd" points="621.443,-523.078 614.011,-515.528 615.113,-526.065 621.443,-523.078"/>
<text text-anchor="middle" x="1077" y="-633" font-family="Helvetica,sans-Serif" font-size="10.00"> _dummy</text>
</g>
<!-- Node5&#45;&gt;Node2 -->
<g id="edge37" class="edge"><title>Node5&#45;&gt;Node2</title>
<path fill="none" stroke="#9a32cd" stroke-dasharray="5,2" d="M623.822,-523.411C633.413,-534.348 647.106,-547.875 662,-556 677.988,-564.722 696.644,-570.746 714.339,-574.901"/>
<polygon fill="#9a32cd" stroke="#9a32cd" points="626.445,-521.093 617.334,-515.685 621.084,-525.594 626.445,-521.093"/>
<text text-anchor="middle" x="679" y="-572" font-family="Helvetica,sans-Serif" font-size="10.00"> _pane</text>
</g>
<!-- Node6&#45;&gt;Node5 -->
<g id="edge5" class="edge"><title>Node6&#45;&gt;Node5</title>
<path fill="none" stroke="#9a32cd" stroke-dasharray="5,2" d="M435.694,-498.909C488.502,-501.082 556.928,-503.898 589.366,-505.233"/>
<polygon fill="#9a32cd" stroke="#9a32cd" points="435.828,-495.412 425.692,-498.498 435.54,-502.406 435.828,-495.412"/>
<text text-anchor="middle" x="500" y="-506" font-family="Helvetica,sans-Serif" font-size="10.00"> _cnct_set</text>
</g>
<!-- Node7 -->
<g id="node7" class="node"><title>Node7</title>
<g id="a_node7"><a xlink:title="STL class. ">
<polygon fill="none" stroke="#bfbfbf" points="112,-359.5 112,-378.5 180,-378.5 180,-359.5 112,-359.5"/>
<text text-anchor="middle" x="146" y="-366.5" font-family="Helvetica,sans-Serif" font-size="10.00">vector&lt; T &gt;</text>
</a>
</g>
</g>
<!-- Node7&#45;&gt;Node6 -->
<g id="edge7" class="edge"><title>Node7&#45;&gt;Node6</title>
<path fill="none" stroke="orange" stroke-dasharray="5,2" d="M170.317,-384.327C179.501,-390.267 190.181,-397.055 200,-403 252.117,-434.556 315.069,-469.634 345.217,-486.251"/>
<polygon fill="orange" stroke="orange" points="172.011,-381.254 161.72,-378.734 168.193,-387.121 172.011,-381.254"/>
<text text-anchor="middle" x="242" y="-455" font-family="Helvetica,sans-Serif" font-size="10.00"> &lt; Connectivity * &gt;</text>
</g>
<!-- Node7&#45;&gt;Node9 -->
<g id="edge11" class="edge"><title>Node7&#45;&gt;Node9</title>
<path fill="none" stroke="orange" stroke-dasharray="5,2" d="M190.089,-373.965C193.442,-374.325 196.775,-374.674 200,-375 511.227,-406.468 885.359,-437.525 1022.38,-448.675"/>
<polygon fill="orange" stroke="orange" points="190.387,-370.477 180.065,-372.867 189.625,-377.435 190.387,-370.477"/>
<text text-anchor="middle" x="609" y="-419" font-family="Helvetica,sans-Serif" font-size="10.00"> &lt; DataItem * &gt;</text>
</g>
<!-- Node13 -->
<g id="node13" class="node"><title>Node13</title>
<polygon fill="none" stroke="#bfbfbf" points="444,-321.5 444,-340.5 556,-340.5 556,-321.5 444,-321.5"/>
<text text-anchor="middle" x="500" y="-328.5" font-family="Helvetica,sans-Serif" font-size="10.00">vector&lt; COM_Type &gt;</text>
</g>
<!-- Node7&#45;&gt;Node13 -->
<g id="edge16" class="edge"><title>Node7&#45;&gt;Node13</title>
<path fill="none" stroke="orange" stroke-dasharray="5,2" d="M190.255,-364.33C254.178,-357.43 373.85,-344.51 443.949,-336.943"/>
<polygon fill="orange" stroke="orange" points="189.682,-360.872 180.115,-365.425 190.433,-367.831 189.682,-360.872"/>
<text text-anchor="middle" x="242" y="-365" font-family="Helvetica,sans-Serif" font-size="10.00"> &lt; COM_Type &gt;</text>
</g>
<!-- Node8 -->
<g id="node8" class="node"><title>Node8</title>
<polygon fill="none" stroke="#bfbfbf" points="0.5,-200.5 0.5,-219.5 29.5,-219.5 29.5,-200.5 0.5,-200.5"/>
<text text-anchor="middle" x="15" y="-207.5" font-family="Helvetica,sans-Serif" font-size="10.00">T</text>
</g>
<!-- Node8&#45;&gt;Node7 -->
<g id="edge8" class="edge"><title>Node8&#45;&gt;Node7</title>
<path fill="none" stroke="#9a32cd" stroke-dasharray="5,2" d="M30.6331,-228.036C58.0509,-261.83 116.28,-333.601 137.261,-359.462"/>
<polygon fill="#9a32cd" stroke="#9a32cd" points="33.0879,-225.507 24.0695,-219.946 27.652,-229.917 33.0879,-225.507"/>
<text text-anchor="middle" x="70" y="-302" font-family="Helvetica,sans-Serif" font-size="10.00"> elements</text>
</g>
<!-- Node16 -->
<g id="node16" class="node"><title>Node16</title>
<g id="a_node16"><a xlink:title="STL class. ">
<polygon fill="none" stroke="#bfbfbf" points="745,-106.5 745,-125.5 817,-125.5 817,-106.5 745,-106.5"/>
<text text-anchor="middle" x="781" y="-113.5" font-family="Helvetica,sans-Serif" font-size="10.00">map&lt; K, T &gt;</text>
</a>
</g>
</g>
<!-- Node8&#45;&gt;Node16 -->
<g id="edge23" class="edge"><title>Node8&#45;&gt;Node16</title>
<path fill="none" stroke="#9a32cd" stroke-dasharray="5,2" d="M33.8449,-193.669C57.4398,-173.836 101.171,-143 145,-143 145,-143 145,-143 610,-143 657.067,-143 710.567,-132.78 744.769,-124.916"/>
<polygon fill="#9a32cd" stroke="#9a32cd" points="31.3516,-191.199 26.1003,-200.401 35.9438,-196.482 31.3516,-191.199"/>
<text text-anchor="middle" x="364" y="-146" font-family="Helvetica,sans-Serif" font-size="10.00"> elements</text>
</g>
<!-- Node9&#45;&gt;Node5 -->
<g id="edge9" class="edge"><title>Node9&#45;&gt;Node5</title>
<path fill="none" stroke="#9a32cd" stroke-dasharray="5,2" d="M1011.99,-463.138C1002.61,-464.507 993.062,-465.839 984,-467 848.019,-484.427 683.462,-499.506 628.715,-504.363"/>
<polygon fill="#9a32cd" stroke="#9a32cd" points="1012.68,-466.573 1022.06,-461.643 1011.66,-459.648 1012.68,-466.573"/>
<text text-anchor="middle" x="781" y="-499" font-family="Helvetica,sans-Serif" font-size="10.00"> _attr_set</text>
</g>
<!-- Node10&#45;&gt;Node5 -->
<g id="edge12" class="edge"><title>Node10&#45;&gt;Node5</title>
<path fill="none" stroke="#9a32cd" stroke-dasharray="5,2" d="M1544.97,-246.511C1533.04,-315.673 1482.62,-545 1339,-545 780,-545 780,-545 780,-545 723.678,-545 659.457,-524.412 628.547,-513.153"/>
<polygon fill="#9a32cd" stroke="#9a32cd" points="1548.45,-246.953 1546.62,-236.517 1541.54,-245.816 1548.45,-246.953"/>
<text text-anchor="middle" x="1077" y="-548" font-family="Helvetica,sans-Serif" font-size="10.00"> _window</text>
</g>
<!-- Node11 -->
<g id="node11" class="node"><title>Node11</title>
<polygon fill="none" stroke="#bfbfbf" points="1268,-217.5 1268,-236.5 1408,-236.5 1408,-217.5 1268,-217.5"/>
<text text-anchor="middle" x="1338" y="-224.5" font-family="Helvetica,sans-Serif" font-size="10.00">map&lt; std::string, Function &gt;</text>
</g>
<!-- Node11&#45;&gt;Node10 -->
<g id="edge13" class="edge"><title>Node11&#45;&gt;Node10</title>
<path fill="none" stroke="#9a32cd" stroke-dasharray="5,2" d="M1418.28,-227C1444.4,-227 1472.76,-227 1496.28,-227"/>
<polygon fill="#9a32cd" stroke="#9a32cd" points="1418.01,-223.5 1408.01,-227 1418.01,-230.5 1418.01,-223.5"/>
<text text-anchor="middle" x="1452" y="-230" font-family="Helvetica,sans-Serif" font-size="10.00"> _func_map</text>
</g>
<!-- Node12&#45;&gt;Node11 -->
<g id="edge14" class="edge"><title>Node12&#45;&gt;Node11</title>
<path fill="none" stroke="#9a32cd" stroke-dasharray="5,2" d="M1114.17,-263.134C1156.72,-256.235 1227.94,-244.685 1278.4,-236.503"/>
<polygon fill="#9a32cd" stroke="#9a32cd" points="1113.57,-259.686 1104.26,-264.742 1114.69,-266.596 1113.57,-259.686"/>
<text text-anchor="middle" x="1210" y="-255" font-family="Helvetica,sans-Serif" font-size="10.00"> elements</text>
</g>
<!-- Node13&#45;&gt;Node12 -->
<g id="edge15" class="edge"><title>Node13&#45;&gt;Node12</title>
<path fill="none" stroke="#9a32cd" stroke-dasharray="5,2" d="M566.421,-323.946C692.584,-310.342 964.59,-281.013 1049.87,-271.817"/>
<polygon fill="#9a32cd" stroke="#9a32cd" points="565.701,-320.503 556.133,-325.055 566.451,-327.463 565.701,-320.503"/>
<text text-anchor="middle" x="679" y="-316" font-family="Helvetica,sans-Serif" font-size="10.00"> _types</text>
</g>
<!-- Node14 -->
<g id="node14" class="node"><title>Node14</title>
<g id="a_node14"><a xlink:title="STL class. ">
<polygon fill="none" stroke="#bfbfbf" points="588.5,-213.5 588.5,-232.5 629.5,-232.5 629.5,-213.5 588.5,-213.5"/>
<text text-anchor="middle" x="609" y="-220.5" font-family="Helvetica,sans-Serif" font-size="10.00">string</text>
</a>
</g>
</g>
<!-- Node14&#45;&gt;Node12 -->
<g id="edge17" class="edge"><title>Node14&#45;&gt;Node12</title>
<path fill="none" stroke="#9a32cd" stroke-dasharray="5,2" d="M639.499,-230.588C646.812,-232.253 654.658,-233.857 662,-235 807.369,-257.621 983.95,-265.78 1049.69,-268.161"/>
<polygon fill="#9a32cd" stroke="#9a32cd" points="640.162,-227.148 629.623,-228.236 638.54,-233.958 640.162,-227.148"/>
<text text-anchor="middle" x="781" y="-258" font-family="Helvetica,sans-Serif" font-size="10.00"> _intents</text>
</g>
<!-- Node14&#45;&gt;Node11 -->
<g id="edge20" class="edge"><title>Node14&#45;&gt;Node11</title>
<path fill="none" stroke="#9a32cd" stroke-dasharray="5,2" d="M639.931,-223.165C747.135,-223.755 1113.73,-225.772 1267.85,-226.62"/>
<polygon fill="#9a32cd" stroke="#9a32cd" points="639.842,-219.664 629.823,-223.109 639.803,-226.664 639.842,-219.664"/>
<text text-anchor="middle" x="925" y="-228" font-family="Helvetica,sans-Serif" font-size="10.00"> keys</text>
</g>
<!-- Node14&#45;&gt;Node10 -->
<g id="edge30" class="edge"><title>Node14&#45;&gt;Node10</title>
<path fill="none" stroke="#9a32cd" stroke-dasharray="5,2" d="M616.721,-204.013C634.903,-156.454 689.853,-36 780,-36 780,-36 780,-36 1339,-36 1404.5,-36 1429.01,-41.52 1478,-85 1520.35,-122.583 1539.87,-191.629 1545.88,-217.166"/>
<polygon fill="#9a32cd" stroke="#9a32cd" points="613.409,-202.876 613.227,-213.47 619.976,-205.302 613.409,-202.876"/>
<text text-anchor="middle" x="1077" y="-39" font-family="Helvetica,sans-Serif" font-size="10.00"> _name</text>
</g>
<!-- Node14&#45;&gt;Node20 -->
<g id="edge32" class="edge"><title>Node14&#45;&gt;Node20</title>
<path fill="none" stroke="#9a32cd" stroke-dasharray="5,2" d="M639.452,-214.093C660.103,-208.301 688.47,-201.242 714,-198 813.072,-185.419 928.477,-182.288 1001.86,-181.726"/>
<polygon fill="#9a32cd" stroke="#9a32cd" points="638.342,-210.771 629.697,-216.896 640.275,-217.498 638.342,-210.771"/>
<text text-anchor="middle" x="781" y="-201" font-family="Helvetica,sans-Serif" font-size="10.00"> keys</text>
</g>
<!-- Node14&#45;&gt;Node4 -->
<g id="edge35" class="edge"><title>Node14&#45;&gt;Node4</title>
<path fill="none" stroke="#9a32cd" stroke-dasharray="5,2" d="M631.515,-238.481C640.849,-245.153 651.928,-253.012 662,-260 676.989,-270.4 681.142,-272.413 696,-283 721.831,-301.407 751.354,-323.897 767.617,-336.415"/>
<polygon fill="#9a32cd" stroke="#9a32cd" points="633.357,-235.495 623.19,-232.515 629.28,-241.185 633.357,-235.495"/>
<text text-anchor="middle" x="679" y="-297" font-family="Helvetica,sans-Serif" font-size="10.00"> _name</text>
<text text-anchor="middle" x="679" y="-286" font-family="Helvetica,sans-Serif" font-size="10.00">_unit</text>
</g>
<!-- Node15 -->
<g id="node15" class="node"><title>Node15</title>
<g id="a_node15"><a xlink:title="STL class. ">
<polygon fill="none" stroke="#bfbfbf" points="311,-213.5 311,-232.5 417,-232.5 417,-213.5 311,-213.5"/>
<text text-anchor="middle" x="364" y="-220.5" font-family="Helvetica,sans-Serif" font-size="10.00">basic_string&lt; char &gt;</text>
</a>
</g>
</g>
<!-- Node15&#45;&gt;Node14 -->
<g id="edge18" class="edge"><title>Node15&#45;&gt;Node14</title>
<path fill="none" stroke="midnightblue" d="M427.138,-223C480.279,-223 553.507,-223 588.217,-223"/>
<polygon fill="midnightblue" stroke="midnightblue" points="427.13,-219.5 417.13,-223 427.13,-226.5 427.13,-219.5"/>
</g>
<!-- Node16&#45;&gt;Node11 -->
<g id="edge21" class="edge"><title>Node16&#45;&gt;Node11</title>
<path fill="none" stroke="orange" stroke-dasharray="5,2" d="M827.378,-112.852C868.417,-110.699 930.439,-109.172 984,-115 1060.01,-123.271 1080.1,-125.995 1152,-152 1206.58,-171.743 1213.39,-192.331 1268,-212 1273.65,-214.035 1279.67,-215.841 1285.7,-217.431"/>
<polygon fill="orange" stroke="orange" points="826.946,-109.371 817.157,-113.424 827.337,-116.36 826.946,-109.371"/>
<text text-anchor="middle" x="1077" y="-155" font-family="Helvetica,sans-Serif" font-size="10.00"> &lt; std::string, Function &gt;</text>
</g>
<!-- Node18 -->
<g id="node18" class="node"><title>Node18</title>
<polygon fill="none" stroke="#bfbfbf" points="1170,-68.5 1170,-87.5 1250,-87.5 1250,-68.5 1170,-68.5"/>
<text text-anchor="middle" x="1210" y="-75.5" font-family="Helvetica,sans-Serif" font-size="10.00">map&lt; int, int &gt;</text>
</g>
<!-- Node16&#45;&gt;Node18 -->
<g id="edge25" class="edge"><title>Node16&#45;&gt;Node18</title>
<path fill="none" stroke="orange" stroke-dasharray="5,2" d="M805.552,-101.286C821.845,-92.0048 844.401,-80.8802 866,-76 973.749,-51.6552 1105.44,-63.6415 1169.8,-72.0896"/>
<polygon fill="orange" stroke="orange" points="803.578,-98.3868 796.737,-106.477 807.13,-104.419 803.578,-98.3868"/>
<text text-anchor="middle" x="925" y="-79" font-family="Helvetica,sans-Serif" font-size="10.00"> &lt; int, int &gt;</text>
</g>
<!-- Node16&#45;&gt;Node19 -->
<g id="edge28" class="edge"><title>Node16&#45;&gt;Node19</title>
<path fill="none" stroke="orange" stroke-dasharray="5,2" d="M818.369,-129.009C875.006,-149.413 978.417,-187.314 984,-194 1011.26,-226.65 972.871,-257.002 1002,-288 1008.72,-295.153 1017.74,-299.758 1027.17,-302.691"/>
<polygon fill="orange" stroke="orange" points="819.299,-125.624 808.705,-125.533 816.93,-132.211 819.299,-125.624"/>
<text text-anchor="middle" x="925" y="-197" font-family="Helvetica,sans-Serif" font-size="10.00"> &lt; int, Pane * &gt;</text>
</g>
<!-- Node16&#45;&gt;Node20 -->
<g id="edge34" class="edge"><title>Node16&#45;&gt;Node20</title>
<path fill="none" stroke="orange" stroke-dasharray="5,2" d="M827.137,-115.42C868.683,-116.009 931.617,-119.764 984,-135 984.974,-135.283 1030.56,-158.661 1057.19,-172.335"/>
<polygon fill="orange" stroke="orange" points="827.084,-111.919 817.054,-115.333 827.024,-118.919 827.084,-111.919"/>
<text text-anchor="middle" x="925" y="-138" font-family="Helvetica,sans-Serif" font-size="10.00"> &lt; std::string, DataItem * &gt;</text>
</g>
<!-- Node17 -->
<g id="node17" class="node"><title>Node17</title>
<polygon fill="none" stroke="#bfbfbf" points="594.5,-0.5 594.5,-19.5 623.5,-19.5 623.5,-0.5 594.5,-0.5"/>
<text text-anchor="middle" x="609" y="-7.5" font-family="Helvetica,sans-Serif" font-size="10.00">K</text>
</g>
<!-- Node17&#45;&gt;Node16 -->
<g id="edge22" class="edge"><title>Node17&#45;&gt;Node16</title>
<path fill="none" stroke="#9a32cd" stroke-dasharray="5,2" d="M632.168,-23.8223C667.081,-45.5915 734.018,-87.3292 764.361,-106.249"/>
<polygon fill="#9a32cd" stroke="#9a32cd" points="633.962,-20.8163 623.624,-18.4952 630.258,-26.7563 633.962,-20.8163"/>
<text text-anchor="middle" x="679" y="-66" font-family="Helvetica,sans-Serif" font-size="10.00"> keys</text>
</g>
<!-- Node18&#45;&gt;Node10 -->
<g id="edge24" class="edge"><title>Node18&#45;&gt;Node10</title>
<path fill="none" stroke="#9a32cd" stroke-dasharray="5,2" d="M1260.21,-71.6093C1318.1,-66.8289 1414.37,-67.7642 1478,-115 1514.82,-142.336 1536.83,-195.319 1544.7,-217.191"/>
<polygon fill="#9a32cd" stroke="#9a32cd" points="1259.85,-68.1273 1250.21,-72.5234 1260.49,-75.0983 1259.85,-68.1273"/>
<text text-anchor="middle" x="1338" y="-84" font-family="Helvetica,sans-Serif" font-size="10.00"> _proc_map</text>
</g>
<!-- Node19&#45;&gt;Node10 -->
<g id="edge26" class="edge"><title>Node19&#45;&gt;Node10</title>
<path fill="none" stroke="#9a32cd" stroke-dasharray="5,2" d="M1136.91,-298.369C1215.07,-286.704 1357.24,-264.736 1478,-242 1486.79,-240.344 1496.18,-238.433 1505.13,-236.542"/>
<polygon fill="#9a32cd" stroke="#9a32cd" points="1136.16,-294.943 1126.78,-299.877 1137.19,-301.867 1136.16,-294.943"/>
<text text-anchor="middle" x="1338" y="-280" font-family="Helvetica,sans-Serif" font-size="10.00"> _pane_map</text>
</g>
<!-- Node20&#45;&gt;Node10 -->
<g id="edge31" class="edge"><title>Node20&#45;&gt;Node10</title>
<path fill="none" stroke="#9a32cd" stroke-dasharray="5,2" d="M1162.09,-181.992C1228.98,-182.906 1324.82,-186.272 1408,-197 1443.62,-201.594 1483.64,-210.56 1511.73,-217.499"/>
<polygon fill="#9a32cd" stroke="#9a32cd" points="1162.07,-178.491 1152.03,-181.87 1161.98,-185.491 1162.07,-178.491"/>
<text text-anchor="middle" x="1338" y="-200" font-family="Helvetica,sans-Serif" font-size="10.00"> _attr_map</text>
</g>
</g>
</svg>
        <g id="navigator" transform="translate(0 0)" fill="#404254">
                <rect fill="#f2f5e9" fill-opacity="0.5" stroke="#606060" stroke-width=".5" x="0" y="0" width="60" height="60"/>
                <use id="zoomplus" xlink:href="#zoomPlus" x="17" y="9" onmousedown="handleZoom(evt,'in')"/>
                <use id="zoomminus" xlink:href="#zoomMin" x="42" y="9" onmousedown="handleZoom(evt,'out')"/>
                <use id="reset" xlink:href="#resetDef" x="30" y="36" onmousedown="handleReset()"/>
                <g id="arrowUp" xlink:href="#dirArrow" transform="translate(30 24)" onmousedown="handlePan(0,-1)">
                  <use xlink:href="#rim" fill="#404040">
                        <set attributeName="fill" to="#808080" begin="arrowUp.mouseover" end="arrowUp.mouseout"/>
                  </use>
                  <path fill="none" stroke="white" stroke-width="1.5" d="M0,-3.0v7 M-2.5,-0.5L0,-3.0L2.5,-0.5"/>
                </g>
                <g id="arrowRight" xlink:href="#dirArrow" transform="rotate(90) translate(36 -43)" onmousedown="handlePan(1,0)">
                  <use xlink:href="#rim" fill="#404040">
                        <set attributeName="fill" to="#808080" begin="arrowRight.mouseover" end="arrowRight.mouseout"/>
                  </use>
                  <path fill="none" stroke="white" stroke-width="1.5" d="M0,-3.0v7 M-2.5,-0.5L0,-3.0L2.5,-0.5"/>
                </g>
                <g id="arrowDown" xlink:href="#dirArrow" transform="rotate(180) translate(-30 -48)" onmousedown="handlePan(0,1)">
                  <use xlink:href="#rim" fill="#404040">
                        <set attributeName="fill" to="#808080" begin="arrowDown.mouseover" end="arrowDown.mouseout"/>
                  </use>
                  <path fill="none" stroke="white" stroke-width="1.5" d="M0,-3.0v7 M-2.5,-0.5L0,-3.0L2.5,-0.5"/>
                </g>
                <g id="arrowLeft" xlink:href="#dirArrow" transform="rotate(270) translate(-36 17)" onmousedown="handlePan(-1,0)">
                  <use xlink:href="#rim" fill="#404040">
                        <set attributeName="fill" to="#808080" begin="arrowLeft.mouseover" end="arrowLeft.mouseout"/>
                  </use>
                  <path fill="none" stroke="white" stroke-width="1.5" d="M0,-3.0v7 M-2.5,-0.5L0,-3.0L2.5,-0.5"/>
                </g>
        </g>
        <svg viewBox="0 0 15 15" width="100%" height="30px" preserveAspectRatio="xMaxYMin meet">
         <g id="arrow_out" transform="scale(0.3 0.3)">
          <a xlink:href="classFacet__node__enumerator__coll__graph_org.svg" target="_base">
           <rect id="button" ry="5" rx="5" y="6" x="6" height="38" width="38"
                fill="#f2f5e9" fill-opacity="0.5" stroke="#606060" stroke-width="1.0"/>
           <path id="arrow"
             d="M 11.500037,31.436501 C 11.940474,20.09759 22.043105,11.32322 32.158766,21.979434 L 37.068811,17.246167 C 37.068811,17.246167 37.088388,32 37.088388,32 L 22.160133,31.978069 C 22.160133,31.978069 26.997745,27.140456 26.997745,27.140456 C 18.528582,18.264221 13.291696,25.230495 11.500037,31.436501 z"
             style="fill:#404040;"/>
          </a>
         </g>
        </svg>
</svg>
