<?xml version="1.0" encoding="UTF-8" standalone="no"?>
<!DOCTYPE svg PUBLIC "-//W3C//DTD SVG 1.1//EN"
 "http://www.w3.org/Graphics/SVG/1.1/DTD/svg11.dtd">
<!-- Generated by graphviz version 2.30.1 (20150305.2338)
 -->
<!-- Title: SerialProgram Pages: 1 -->
<svg width="186pt" height="234pt"
 viewBox="0.00 0.00 186.00 234.00" xmlns="http://www.w3.org/2000/svg" xmlns:xlink="http://www.w3.org/1999/xlink">
<g id="graph0" class="graph" transform="scale(1 1) rotate(0) translate(4 230)">
<title>SerialProgram</title>
<!-- Node1 -->
<g id="node1" class="node"><title>Node1</title>
<polygon fill="#bfbfbf" stroke="black" points="26,-0.5 26,-19.5 104,-19.5 104,-0.5 26,-0.5"/>
<text text-anchor="middle" x="65" y="-7.5" font-family="Helvetica,sans-Serif" font-size="10.00">SerialProgram</text>
</g>
<!-- Node2 -->
<g id="node2" class="node"><title>Node2</title>
<g id="a_node2"><a xlink:href="classIRAD_1_1Global_1_1Program.html" target="_top" xlink:title="SerialProgramType">
<polygon fill="none" stroke="black" points="15,-58.5 15,-77.5 115,-77.5 115,-58.5 15,-58.5"/>
<text text-anchor="middle" x="65" y="-65.5" font-family="Helvetica,sans-Serif" font-size="10.00">SerialProgramType</text>
</a>
</g>
</g>
<!-- Node2&#45;&gt;Node1 -->
<g id="edge1" class="edge"><title>Node2&#45;&gt;Node1</title>
<path fill="none" stroke="midnightblue" d="M65,-47.953C65,-38.2875 65,-27.0312 65,-19.5052"/>
<polygon fill="midnightblue" stroke="midnightblue" points="61.5001,-48.25 65,-58.25 68.5001,-48.25 61.5001,-48.25"/>
</g>
<!-- Node3 -->
<g id="node3" class="node"><title>Node3</title>
<g id="a_node3"><a xlink:href="classIRAD_1_1Global_1_1GlobalObj.html" target="_top" xlink:title="GlobalType">
<polygon fill="none" stroke="black" points="32,-116.5 32,-135.5 98,-135.5 98,-116.5 32,-116.5"/>
<text text-anchor="middle" x="65" y="-123.5" font-family="Helvetica,sans-Serif" font-size="10.00">GlobalType</text>
</a>
</g>
</g>
<!-- Node3&#45;&gt;Node2 -->
<g id="edge2" class="edge"><title>Node3&#45;&gt;Node2</title>
<path fill="none" stroke="midnightblue" d="M65,-105.953C65,-96.2875 65,-85.0312 65,-77.5052"/>
<polygon fill="midnightblue" stroke="midnightblue" points="61.5001,-106.25 65,-116.25 68.5001,-106.25 61.5001,-106.25"/>
</g>
<!-- Node4 -->
<g id="node4" class="node"><title>Node4</title>
<g id="a_node4"><a xlink:href="classIRAD_1_1Global_1_1GlobalObj.html" target="_top" xlink:title="Base global object. ">
<polygon fill="none" stroke="black" points="0,-195 0,-225 130,-225 130,-195 0,-195"/>
<text text-anchor="start" x="8" y="-213" font-family="Helvetica,sans-Serif" font-size="10.00">GlobalObj&lt; StackType,</text>
<text text-anchor="middle" x="65" y="-202" font-family="Helvetica,sans-Serif" font-size="10.00"> ErrorType, ProfilerType &gt;</text>
</a>
</g>
</g>
<!-- Node4&#45;&gt;Node3 -->
<g id="edge3" class="edge"><title>Node4&#45;&gt;Node3</title>
<path fill="none" stroke="orange" stroke-dasharray="5,2" d="M65,-184.6C65,-168.031 65,-147.111 65,-135.592"/>
<polygon fill="orange" stroke="orange" points="61.5001,-184.717 65,-194.717 68.5001,-184.717 61.5001,-184.717"/>
<text text-anchor="start" x="65" y="-168" font-family="Helvetica,sans-Serif" font-size="10.00"> &lt; StackType, int, Profiler</text>
<text text-anchor="middle" x="121.5" y="-157" font-family="Helvetica,sans-Serif" font-size="10.00">Type &gt;</text>
</g>
</g>
</svg>
