<?xml version="1.0" encoding="UTF-8" standalone="no"?>
<!DOCTYPE svg PUBLIC "-//W3C//DTD SVG 1.1//EN"
 "http://www.w3.org/Graphics/SVG/1.1/DTD/svg11.dtd">
<!-- Generated by graphviz version 2.30.1 (20150305.2338)
 -->
<!-- Title: is_border_node Pages: 1 -->
<svg width="212pt" height="66pt"
 viewBox="0.00 0.00 212.00 66.00" xmlns="http://www.w3.org/2000/svg" xmlns:xlink="http://www.w3.org/1999/xlink">
<g id="graph0" class="graph" transform="scale(1 1) rotate(0) translate(4 62)">
<title>is_border_node</title>
<!-- Node1 -->
<g id="node1" class="node"><title>Node1</title>
<polygon fill="#bfbfbf" stroke="black" points="0.5,-19.5 0.5,-38.5 83.5,-38.5 83.5,-19.5 0.5,-19.5"/>
<text text-anchor="middle" x="42" y="-26.5" font-family="Helvetica,sans-Serif" font-size="10.00">is_border_node</text>
</g>
<!-- Node2 -->
<g id="node2" class="node"><title>Node2</title>
<g id="a_node2"><a xlink:href="classSimple__manifold__2_ab0d9ef8fcaf5c4306b57958fadf8c8f1.html#ab0d9ef8fcaf5c4306b57958fadf8c8f1" target="_top" xlink:title="Is a given edge on the boundary of the whole pane? ">
<polygon fill="none" stroke="black" points="120.5,-38.5 120.5,-57.5 203.5,-57.5 203.5,-38.5 120.5,-38.5"/>
<text text-anchor="middle" x="162" y="-45.5" font-family="Helvetica,sans-Serif" font-size="10.00">is_border_edge</text>
</a>
</g>
</g>
<!-- Node1&#45;&gt;Node2 -->
<g id="edge1" class="edge"><title>Node1&#45;&gt;Node2</title>
<path fill="none" stroke="midnightblue" d="M83.6089,-35.5387C92.2307,-36.927 101.435,-38.409 110.377,-39.8488"/>
<polygon fill="midnightblue" stroke="midnightblue" points="109.887,-43.3149 120.316,-41.4492 111,-36.404 109.887,-43.3149"/>
</g>
<!-- Node3 -->
<g id="node3" class="node"><title>Node3</title>
<g id="a_node3"><a xlink:href="classSimple__manifold__2_ab10e70cbf6e6aeedb1e3dd1cab81ebf8.html#ab10e70cbf6e6aeedb1e3dd1cab81ebf8" target="_top" xlink:title="Is the given node a ghost node? ">
<polygon fill="none" stroke="black" points="122,-0.5 122,-19.5 202,-19.5 202,-0.5 122,-0.5"/>
<text text-anchor="middle" x="162" y="-7.5" font-family="Helvetica,sans-Serif" font-size="10.00">is_ghost_node</text>
</a>
</g>
</g>
<!-- Node1&#45;&gt;Node3 -->
<g id="edge2" class="edge"><title>Node1&#45;&gt;Node3</title>
<path fill="none" stroke="midnightblue" d="M83.6089,-22.4613C92.7151,-20.995 102.471,-19.4242 111.881,-17.909"/>
<polygon fill="midnightblue" stroke="midnightblue" points="112.594,-21.3394 121.91,-16.2942 111.481,-14.4284 112.594,-21.3394"/>
</g>
</g>
</svg>
