<?xml version="1.0" encoding="UTF-8" standalone="no"?>
<!DOCTYPE svg PUBLIC "-//W3C//DTD SVG 1.1//EN"
 "http://www.w3.org/Graphics/SVG/1.1/DTD/svg11.dtd">
<!-- Generated by graphviz version 2.30.1 (20150305.2338)
 -->
<!-- Title: get_next_real_edge_interior Pages: 1 -->
<svg width="272pt" height="104pt"
 viewBox="0.00 0.00 272.00 104.00" xmlns="http://www.w3.org/2000/svg" xmlns:xlink="http://www.w3.org/1999/xlink">
<g id="graph0" class="graph" transform="scale(1 1) rotate(0) translate(4 100)">
<title>get_next_real_edge_interior</title>
<!-- Node1 -->
<g id="node1" class="node"><title>Node1</title>
<polygon fill="#bfbfbf" stroke="black" points="0.5,-33 0.5,-63 101.5,-63 101.5,-33 0.5,-33"/>
<text text-anchor="start" x="8.5" y="-51" font-family="Helvetica,sans-Serif" font-size="10.00">get_next_real_edge</text>
<text text-anchor="middle" x="51" y="-40" font-family="Helvetica,sans-Serif" font-size="10.00">_interior</text>
</g>
<!-- Node2 -->
<g id="node2" class="node"><title>Node2</title>
<g id="a_node2"><a xlink:href="classSimple__manifold__2_a5526ffd6e536b2c699cd80d42c05d534.html#a5526ffd6e536b2c699cd80d42c05d534" target="_top" xlink:title="Get the ID of an incident real edge within the pane of a given node The incident edge may encode an i...">
<polygon fill="none" stroke="black" points="138.5,-76.5 138.5,-95.5 263.5,-95.5 263.5,-76.5 138.5,-76.5"/>
<text text-anchor="middle" x="201" y="-83.5" font-family="Helvetica,sans-Serif" font-size="10.00">get_incident_ghost_edge</text>
</a>
</g>
</g>
<!-- Node1&#45;&gt;Node2 -->
<g id="edge1" class="edge"><title>Node1&#45;&gt;Node2</title>
<path fill="none" stroke="midnightblue" d="M111.715,-63.3323C129,-67.7702 147.365,-72.4856 162.843,-76.4597"/>
<polygon fill="midnightblue" stroke="midnightblue" points="112.25,-59.8561 101.694,-60.7592 110.509,-66.6362 112.25,-59.8561"/>
</g>
<!-- Node3 -->
<g id="node3" class="node"><title>Node3</title>
<g id="a_node3"><a xlink:href="classSimple__manifold__2_a34afa4fb2467f7b53bfb153b728f08e0.html#a34afa4fb2467f7b53bfb153b728f08e0" target="_top" xlink:title="Get the ID of the next real edge of the element or along the boundary. ">
<polygon fill="none" stroke="black" points="150.5,-38.5 150.5,-57.5 251.5,-57.5 251.5,-38.5 150.5,-38.5"/>
<text text-anchor="middle" x="201" y="-45.5" font-family="Helvetica,sans-Serif" font-size="10.00">get_next_real_edge</text>
</a>
</g>
</g>
<!-- Node1&#45;&gt;Node3 -->
<g id="edge2" class="edge"><title>Node1&#45;&gt;Node3</title>
<path fill="none" stroke="midnightblue" d="M111.819,-48C124.641,-48 138.054,-48 150.438,-48"/>
<polygon fill="midnightblue" stroke="midnightblue" points="111.694,-44.5001 101.694,-48 111.694,-51.5001 111.694,-44.5001"/>
</g>
<!-- Node4 -->
<g id="node4" class="node"><title>Node4</title>
<g id="a_node4"><a xlink:href="classSimple__manifold__2_ab2686d48e0f5957e3414e5e474803831.html#ab2686d48e0f5957e3414e5e474803831" target="_top" xlink:title="Get the ID of the previous real edge of the element or along the boundary. ">
<polygon fill="none" stroke="black" points="150.5,-0.5 150.5,-19.5 251.5,-19.5 251.5,-0.5 150.5,-0.5"/>
<text text-anchor="middle" x="201" y="-7.5" font-family="Helvetica,sans-Serif" font-size="10.00">get_prev_real_edge</text>
</a>
</g>
</g>
<!-- Node1&#45;&gt;Node4 -->
<g id="edge3" class="edge"><title>Node1&#45;&gt;Node4</title>
<path fill="none" stroke="midnightblue" d="M111.715,-32.6677C129,-28.2298 147.365,-23.5144 162.843,-19.5403"/>
<polygon fill="midnightblue" stroke="midnightblue" points="110.509,-29.3638 101.694,-35.2408 112.25,-36.1439 110.509,-29.3638"/>
</g>
</g>
</svg>
