<?xml version="1.0" encoding="UTF-8" standalone="no"?>
<!DOCTYPE svg PUBLIC "-//W3C//DTD SVG 1.1//EN"
 "http://www.w3.org/Graphics/SVG/1.1/DTD/svg11.dtd">
<!-- Generated by graphviz version 2.30.1 (20150305.2338)
 -->
<!-- Title: fdostream Pages: 1 -->
<svg width="203pt" height="270pt"
 viewBox="0.00 0.00 203.00 270.00" xmlns="http://www.w3.org/2000/svg" xmlns:xlink="http://www.w3.org/1999/xlink">
<g id="graph0" class="graph" transform="scale(1 1) rotate(0) translate(4 266)">
<title>fdostream</title>
<!-- Node1 -->
<g id="node1" class="node"><title>Node1</title>
<polygon fill="#bfbfbf" stroke="black" points="92,-0.5 92,-19.5 152,-19.5 152,-0.5 92,-0.5"/>
<text text-anchor="middle" x="122" y="-7.5" font-family="Helvetica,sans-Serif" font-size="10.00">fdostream</text>
</g>
<!-- Node2 -->
<g id="node2" class="node"><title>Node2</title>
<g id="a_node2"><a xlink:title="STL class. ">
<polygon fill="none" stroke="#bfbfbf" points="46,-68.5 46,-87.5 98,-87.5 98,-68.5 46,-68.5"/>
<text text-anchor="middle" x="72" y="-75.5" font-family="Helvetica,sans-Serif" font-size="10.00">ostream</text>
</a>
</g>
</g>
<!-- Node2&#45;&gt;Node1 -->
<g id="edge1" class="edge"><title>Node2&#45;&gt;Node1</title>
<path fill="none" stroke="midnightblue" d="M84.6439,-60.3101C94.3911,-47.4437 107.486,-30.1583 115.302,-19.8411"/>
<polygon fill="midnightblue" stroke="midnightblue" points="81.7854,-58.2872 78.5366,-68.3717 87.3651,-62.5142 81.7854,-58.2872"/>
</g>
<!-- Node3 -->
<g id="node3" class="node"><title>Node3</title>
<g id="a_node3"><a xlink:title="STL class. ">
<polygon fill="none" stroke="#bfbfbf" points="-0.5,-126.5 -0.5,-145.5 116.5,-145.5 116.5,-126.5 -0.5,-126.5"/>
<text text-anchor="middle" x="58" y="-133.5" font-family="Helvetica,sans-Serif" font-size="10.00">basic_ostream&lt; char &gt;</text>
</a>
</g>
</g>
<!-- Node3&#45;&gt;Node2 -->
<g id="edge2" class="edge"><title>Node3&#45;&gt;Node2</title>
<path fill="none" stroke="midnightblue" d="M62.6831,-116.268C65.1168,-106.533 67.9718,-95.113 69.8737,-87.5052"/>
<polygon fill="midnightblue" stroke="midnightblue" points="59.2174,-115.7 60.1875,-126.25 66.0084,-117.397 59.2174,-115.7"/>
</g>
<!-- Node4 -->
<g id="node4" class="node"><title>Node4</title>
<g id="a_node4"><a xlink:title="STL class. ">
<polygon fill="none" stroke="#bfbfbf" points="9.5,-184.5 9.5,-203.5 106.5,-203.5 106.5,-184.5 9.5,-184.5"/>
<text text-anchor="middle" x="58" y="-191.5" font-family="Helvetica,sans-Serif" font-size="10.00">basic_ios&lt; Char &gt;</text>
</a>
</g>
</g>
<!-- Node4&#45;&gt;Node3 -->
<g id="edge3" class="edge"><title>Node4&#45;&gt;Node3</title>
<path fill="none" stroke="midnightblue" d="M58,-173.953C58,-164.287 58,-153.031 58,-145.505"/>
<polygon fill="midnightblue" stroke="midnightblue" points="54.5001,-174.25 58,-184.25 61.5001,-174.25 54.5001,-174.25"/>
</g>
<!-- Node5 -->
<g id="node5" class="node"><title>Node5</title>
<g id="a_node5"><a xlink:title="STL class. ">
<polygon fill="none" stroke="#bfbfbf" points="30,-242.5 30,-261.5 86,-261.5 86,-242.5 30,-242.5"/>
<text text-anchor="middle" x="58" y="-249.5" font-family="Helvetica,sans-Serif" font-size="10.00">ios_base</text>
</a>
</g>
</g>
<!-- Node5&#45;&gt;Node4 -->
<g id="edge4" class="edge"><title>Node5&#45;&gt;Node4</title>
<path fill="none" stroke="midnightblue" d="M58,-231.953C58,-222.287 58,-211.031 58,-203.505"/>
<polygon fill="midnightblue" stroke="midnightblue" points="54.5001,-232.25 58,-242.25 61.5001,-232.25 54.5001,-232.25"/>
</g>
<!-- Node6 -->
<g id="node6" class="node"><title>Node6</title>
<g id="a_node6"><a xlink:href="classIRAD_1_1Sys_1_1fdoutbuf.html" target="_top" xlink:title="fdoutbuf">
<polygon fill="none" stroke="black" points="134,-68.5 134,-87.5 186,-87.5 186,-68.5 134,-68.5"/>
<text text-anchor="middle" x="160" y="-75.5" font-family="Helvetica,sans-Serif" font-size="10.00">fdoutbuf</text>
</a>
</g>
</g>
<!-- Node6&#45;&gt;Node1 -->
<g id="edge5" class="edge"><title>Node6&#45;&gt;Node1</title>
<path fill="none" stroke="#9a32cd" stroke-dasharray="5,2" d="M149.961,-59.563C142.601,-46.7815 132.916,-29.9599 127.09,-19.8411"/>
<polygon fill="#9a32cd" stroke="#9a32cd" points="147.009,-61.4518 155.032,-68.3717 153.076,-57.959 147.009,-61.4518"/>
<text text-anchor="middle" x="153.5" y="-41.5" font-family="Helvetica,sans-Serif" font-size="10.00"> buf</text>
</g>
<!-- Node7 -->
<g id="node7" class="node"><title>Node7</title>
<polygon fill="none" stroke="#bfbfbf" points="135,-126.5 135,-145.5 195,-145.5 195,-126.5 135,-126.5"/>
<text text-anchor="middle" x="165" y="-133.5" font-family="Helvetica,sans-Serif" font-size="10.00">streambuf</text>
</g>
<!-- Node7&#45;&gt;Node6 -->
<g id="edge6" class="edge"><title>Node7&#45;&gt;Node6</title>
<path fill="none" stroke="midnightblue" d="M163.327,-116.268C162.458,-106.533 161.439,-95.113 160.759,-87.5052"/>
<polygon fill="midnightblue" stroke="midnightblue" points="159.843,-116.601 164.219,-126.25 166.815,-115.978 159.843,-116.601"/>
</g>
</g>
</svg>
