<?xml version="1.0" encoding="UTF-8" standalone="no"?>
<!DOCTYPE svg PUBLIC "-//W3C//DTD SVG 1.1//EN"
 "http://www.w3.org/Graphics/SVG/1.1/DTD/svg11.dtd">
<!-- Generated by graphviz version 2.30.1 (20150305.2338)
 -->
<!-- Title: id Pages: 1 -->
<svg width="436pt" height="202pt"
 viewBox="0.00 0.00 436.00 202.00" xmlns="http://www.w3.org/2000/svg" xmlns:xlink="http://www.w3.org/1999/xlink">
<g id="graph0" class="graph" transform="scale(1 1) rotate(0) translate(4 198)">
<title>id</title>
<!-- Node1 -->
<g id="node1" class="node"><title>Node1</title>
<polygon fill="#bfbfbf" stroke="black" points="0.5,-87.5 0.5,-106.5 29.5,-106.5 29.5,-87.5 0.5,-87.5"/>
<text text-anchor="middle" x="15" y="-94.5" font-family="Helvetica,sans-Serif" font-size="10.00">id</text>
</g>
<!-- Node2 -->
<g id="node2" class="node"><title>Node2</title>
<g id="a_node2"><a xlink:href="classConnectivity_a69bd059da8cf335fbee896488f5c1e97.html#a69bd059da8cf335fbee896488f5c1e97" target="_top" xlink:title="Get the index of the first element. ">
<polygon fill="none" stroke="black" points="69.5,-164 69.5,-194 170.5,-194 170.5,-164 69.5,-164"/>
<text text-anchor="start" x="77.5" y="-182" font-family="Helvetica,sans-Serif" font-size="10.00">Connectivity::index</text>
<text text-anchor="middle" x="120" y="-171" font-family="Helvetica,sans-Serif" font-size="10.00">_offset</text>
</a>
</g>
</g>
<!-- Node1&#45;&gt;Node2 -->
<g id="edge1" class="edge"><title>Node1&#45;&gt;Node2</title>
<path fill="none" stroke="midnightblue" d="M23.7706,-106.636C33.0396,-117.736 49.3787,-136.099 66,-149 70.3851,-152.404 75.2006,-155.673 80.0856,-158.72"/>
<polygon fill="midnightblue" stroke="midnightblue" points="78.4913,-161.844 88.8757,-163.945 82.0682,-155.827 78.4913,-161.844"/>
</g>
<!-- Node5 -->
<g id="node5" class="node"><title>Node5</title>
<g id="a_node5"><a xlink:href="classPane_afc3d6a08a6436efe1af8e83699d4ca53.html#afc3d6a08a6436efe1af8e83699d4ca53" target="_top" xlink:title="Is mesh of the pane structured? ">
<polygon fill="none" stroke="black" points="210.5,-87.5 210.5,-106.5 311.5,-106.5 311.5,-87.5 210.5,-87.5"/>
<text text-anchor="middle" x="261" y="-94.5" font-family="Helvetica,sans-Serif" font-size="10.00">Pane::is_structured</text>
</a>
</g>
</g>
<!-- Node1&#45;&gt;Node5 -->
<g id="edge4" class="edge"><title>Node1&#45;&gt;Node5</title>
<path fill="none" stroke="midnightblue" d="M29.6184,-103.722C39.4582,-108.19 53.2131,-113.652 66,-116 113.211,-124.668 126.283,-121.208 174,-116 187.566,-114.519 202.126,-111.762 215.338,-108.797"/>
<polygon fill="midnightblue" stroke="midnightblue" points="216.197,-112.191 225.139,-106.508 214.605,-105.374 216.197,-112.191"/>
</g>
<!-- Node6 -->
<g id="node6" class="node"><title>Node6</title>
<g id="a_node6"><a xlink:href="classConnectivity_a3ab0f5b4dbc683714ef15ccfb16225ac.html#a3ab0f5b4dbc683714ef15ccfb16225ac" target="_top" xlink:title="Get a constant pointer to the connectivity array. ">
<polygon fill="none" stroke="black" points="66.5,-87.5 66.5,-106.5 173.5,-106.5 173.5,-87.5 66.5,-87.5"/>
<text text-anchor="middle" x="120" y="-94.5" font-family="Helvetica,sans-Serif" font-size="10.00">Connectivity::pointer</text>
</a>
</g>
</g>
<!-- Node1&#45;&gt;Node6 -->
<g id="edge5" class="edge"><title>Node1&#45;&gt;Node6</title>
<path fill="none" stroke="midnightblue" d="M29.891,-97C37.057,-97 46.3589,-97 56.2425,-97"/>
<polygon fill="midnightblue" stroke="midnightblue" points="56.2625,-100.5 66.2624,-97 56.2624,-93.5001 56.2625,-100.5"/>
</g>
<!-- Node7 -->
<g id="node7" class="node"><title>Node7</title>
<g id="a_node7"><a xlink:href="classPane_a78f646f49fb83340032b735b056a19d3.html#a78f646f49fb83340032b735b056a19d3" target="_top" xlink:title="Get the number of nodes in i&#45;dimension if the mesh is structured. ">
<polygon fill="none" stroke="black" points="84.5,-49.5 84.5,-68.5 155.5,-68.5 155.5,-49.5 84.5,-49.5"/>
<text text-anchor="middle" x="120" y="-56.5" font-family="Helvetica,sans-Serif" font-size="10.00">Pane::size_i</text>
</a>
</g>
</g>
<!-- Node1&#45;&gt;Node7 -->
<g id="edge6" class="edge"><title>Node1&#45;&gt;Node7</title>
<path fill="none" stroke="midnightblue" d="M29.5557,-91.7694C39.5989,-87.9135 53.6298,-82.5672 66,-78 71.2726,-76.0533 76.8505,-74.0226 82.3305,-72.0438"/>
<polygon fill="midnightblue" stroke="midnightblue" points="83.7752,-75.2438 92.0017,-68.5673 81.4073,-68.6564 83.7752,-75.2438"/>
</g>
<!-- Node8 -->
<g id="node8" class="node"><title>Node8</title>
<g id="a_node8"><a xlink:href="classConnectivity_a6b814939135364a0cd18ee54799897ee.html#a6b814939135364a0cd18ee54799897ee" target="_top" xlink:title="Get the number of nodes per element of the current connectivity table. ">
<polygon fill="none" stroke="black" points="72.5,-0 72.5,-30 167.5,-30 167.5,-0 72.5,-0"/>
<text text-anchor="start" x="80.5" y="-18" font-family="Helvetica,sans-Serif" font-size="10.00">Connectivity::size</text>
<text text-anchor="middle" x="120" y="-7" font-family="Helvetica,sans-Serif" font-size="10.00">_of_nodes_pe</text>
</a>
</g>
</g>
<!-- Node1&#45;&gt;Node8 -->
<g id="edge8" class="edge"><title>Node1&#45;&gt;Node8</title>
<path fill="none" stroke="midnightblue" d="M22.473,-87.4445C31.1824,-75.1628 47.7071,-53.7837 66,-40 68.2852,-38.2781 70.708,-36.6328 73.2106,-35.068"/>
<polygon fill="midnightblue" stroke="midnightblue" points="75.0066,-38.0728 81.9426,-30.064 71.526,-31.9994 75.0066,-38.0728"/>
</g>
<!-- Node3 -->
<g id="node3" class="node"><title>Node3</title>
<g id="a_node3"><a xlink:href="classConnectivity_aafbe63b1107c964c3673375df9a7472a.html#aafbe63b1107c964c3673375df9a7472a" target="_top" xlink:title="Root of use&#45;inheritance. ">
<polygon fill="none" stroke="black" points="214,-169.5 214,-188.5 308,-188.5 308,-169.5 214,-169.5"/>
<text text-anchor="middle" x="261" y="-176.5" font-family="Helvetica,sans-Serif" font-size="10.00">Connectivity::root</text>
</a>
</g>
</g>
<!-- Node2&#45;&gt;Node3 -->
<g id="edge2" class="edge"><title>Node2&#45;&gt;Node3</title>
<path fill="none" stroke="midnightblue" d="M170.79,-179C181.416,-179 192.712,-179 203.567,-179"/>
<polygon fill="midnightblue" stroke="midnightblue" points="203.803,-182.5 213.803,-179 203.802,-175.5 203.803,-182.5"/>
</g>
<!-- Node4 -->
<g id="node4" class="node"><title>Node4</title>
<g id="a_node4"><a xlink:href="classDataItem_a8200761ace321d2760f1c601505ccc87.html#a8200761ace321d2760f1c601505ccc87" target="_top" xlink:title="Root of use&#45;inheritance. ">
<polygon fill="none" stroke="black" points="348,-169.5 348,-188.5 428,-188.5 428,-169.5 348,-169.5"/>
<text text-anchor="middle" x="388" y="-176.5" font-family="Helvetica,sans-Serif" font-size="10.00">DataItem::root</text>
</a>
</g>
</g>
<!-- Node3&#45;&gt;Node4 -->
<g id="edge3" class="edge"><title>Node3&#45;&gt;Node4</title>
<path fill="none" stroke="midnightblue" d="M308.19,-179C317.894,-179 328.162,-179 337.966,-179"/>
<polygon fill="midnightblue" stroke="midnightblue" points="337.971,-182.5 347.971,-179 337.971,-175.5 337.971,-182.5"/>
</g>
<!-- Node7&#45;&gt;Node5 -->
<g id="edge7" class="edge"><title>Node7&#45;&gt;Node5</title>
<path fill="none" stroke="midnightblue" d="M155.717,-68.491C173.795,-73.4331 196.102,-79.5316 215.44,-84.8182"/>
<polygon fill="midnightblue" stroke="midnightblue" points="214.675,-88.2373 225.244,-87.4983 216.521,-81.4851 214.675,-88.2373"/>
</g>
</g>
</svg>
