<?xml version="1.0" encoding="UTF-8" standalone="no"?>
<!DOCTYPE svg PUBLIC "-//W3C//DTD SVG 1.1//EN"
 "http://www.w3.org/Graphics/SVG/1.1/DTD/svg11.dtd">
<!-- Generated by graphviz version 2.30.1 (20150305.2338)
 -->
<!-- Title: Finalize Pages: 1 -->
<svg width="394pt" height="87pt"
 viewBox="0.00 0.00 394.00 87.00" xmlns="http://www.w3.org/2000/svg" xmlns:xlink="http://www.w3.org/1999/xlink">
<g id="graph0" class="graph" transform="scale(1 1) rotate(0) translate(4 83)">
<title>Finalize</title>
<!-- Node1 -->
<g id="node1" class="node"><title>Node1</title>
<polygon fill="#bfbfbf" stroke="black" points="0,-29.5 0,-48.5 50,-48.5 50,-29.5 0,-29.5"/>
<text text-anchor="middle" x="25" y="-36.5" font-family="Helvetica,sans-Serif" font-size="10.00">Finalize</text>
</g>
<!-- Node2 -->
<g id="node2" class="node"><title>Node2</title>
<g id="a_node2"><a xlink:href="classIRAD_1_1Global_1_1GlobalObj_a6068a393f390317c207fce14a60f9ef4.html#a6068a393f390317c207fce14a60f9ef4" target="_top" xlink:title="Finalizes the global object, and it&#39;s profiler object. ">
<polygon fill="none" stroke="black" points="86,-18.5 86,-59.5 234,-59.5 234,-18.5 86,-18.5"/>
<text text-anchor="start" x="94" y="-47.5" font-family="Helvetica,sans-Serif" font-size="10.00">IRAD::Global::GlobalObj</text>
<text text-anchor="start" x="94" y="-36.5" font-family="Helvetica,sans-Serif" font-size="10.00">&lt; StackType, int, ProfilerType</text>
<text text-anchor="middle" x="160" y="-25.5" font-family="Helvetica,sans-Serif" font-size="10.00"> &gt;::Finalize</text>
</a>
</g>
</g>
<!-- Node1&#45;&gt;Node2 -->
<g id="edge1" class="edge"><title>Node1&#45;&gt;Node2</title>
<path fill="none" stroke="midnightblue" d="M50.0853,-39C57.6166,-39 66.3937,-39 75.6361,-39"/>
<polygon fill="midnightblue" stroke="midnightblue" points="75.8107,-42.5001 85.8107,-39 75.8107,-35.5001 75.8107,-42.5001"/>
</g>
<!-- Node3 -->
<g id="node3" class="node"><title>Node3</title>
<g id="a_node3"><a xlink:href="classIRAD_1_1Profiler_1_1ProfilerObj_aaacf18af7288392a800c7c449830fd06.html#aaacf18af7288392a800c7c449830fd06" target="_top" xlink:title="Ready to finalize? ">
<polygon fill="none" stroke="black" points="270.5,-49 270.5,-79 385.5,-79 385.5,-49 270.5,-49"/>
<text text-anchor="start" x="278.5" y="-67" font-family="Helvetica,sans-Serif" font-size="10.00">IRAD::Profiler::Profiler</text>
<text text-anchor="middle" x="328" y="-56" font-family="Helvetica,sans-Serif" font-size="10.00">Obj::FinalizeReady</text>
</a>
</g>
</g>
<!-- Node2&#45;&gt;Node3 -->
<g id="edge2" class="edge"><title>Node2&#45;&gt;Node3</title>
<path fill="none" stroke="midnightblue" d="M234.293,-50.0381C242.97,-51.3449 251.791,-52.6734 260.369,-53.9652"/>
<polygon fill="midnightblue" stroke="midnightblue" points="259.894,-57.4331 270.304,-55.4614 260.937,-50.5111 259.894,-57.4331"/>
</g>
<!-- Node4 -->
<g id="node4" class="node"><title>Node4</title>
<g id="a_node4"><a xlink:href="classIRAD_1_1Profiler_1_1ProfilerObj_a47a17e5fa173afb5e3259c913ccee89c.html#a47a17e5fa173afb5e3259c913ccee89c" target="_top" xlink:title="Shut down profiler. ">
<polygon fill="none" stroke="black" points="270.5,-0 270.5,-30 385.5,-30 385.5,-0 270.5,-0"/>
<text text-anchor="start" x="278.5" y="-18" font-family="Helvetica,sans-Serif" font-size="10.00">IRAD::Profiler::Profiler</text>
<text text-anchor="middle" x="328" y="-7" font-family="Helvetica,sans-Serif" font-size="10.00">Obj::Finalize</text>
</a>
</g>
</g>
<!-- Node2&#45;&gt;Node4 -->
<g id="edge3" class="edge"><title>Node2&#45;&gt;Node4</title>
<path fill="none" stroke="midnightblue" d="M234.293,-28.4034C242.97,-27.1488 251.791,-25.8736 260.369,-24.6334"/>
<polygon fill="midnightblue" stroke="midnightblue" points="260.908,-28.092 270.304,-23.197 259.906,-21.164 260.908,-28.092"/>
</g>
</g>
</svg>
