<?xml version="1.0" encoding="UTF-8" standalone="no"?>
<!DOCTYPE svg PUBLIC "-//W3C//DTD SVG 1.1//EN"
 "http://www.w3.org/Graphics/SVG/1.1/DTD/svg11.dtd">
<!-- Generated by graphviz version 2.30.1 (20150305.2338)
 -->
<!-- Title: ConfigurationObject Pages: 1 -->
<svg width="818pt" height="155pt"
 viewBox="0.00 0.00 818.00 155.00" xmlns="http://www.w3.org/2000/svg" xmlns:xlink="http://www.w3.org/1999/xlink">
<g id="graph0" class="graph" transform="scale(1 1) rotate(0) translate(4 151)">
<title>ConfigurationObject</title>
<!-- Node1 -->
<g id="node1" class="node"><title>Node1</title>
<polygon fill="#bfbfbf" stroke="black" points="706.5,-49.5 706.5,-68.5 809.5,-68.5 809.5,-49.5 706.5,-49.5"/>
<text text-anchor="middle" x="758" y="-56.5" font-family="Helvetica,sans-Serif" font-size="10.00">ConfigurationObject</text>
</g>
<!-- Node2 -->
<g id="node2" class="node"><title>Node2</title>
<g id="a_node2"><a xlink:href="classIRAD_1_1Util_1_1ConfigParameters.html" target="_top" xlink:title="ConfigParameters">
<polygon fill="none" stroke="black" points="498.5,-102.5 498.5,-121.5 593.5,-121.5 593.5,-102.5 498.5,-102.5"/>
<text text-anchor="middle" x="546" y="-109.5" font-family="Helvetica,sans-Serif" font-size="10.00">ConfigParameters</text>
</a>
</g>
</g>
<!-- Node2&#45;&gt;Node1 -->
<g id="edge1" class="edge"><title>Node2&#45;&gt;Node1</title>
<path fill="none" stroke="midnightblue" d="M594.78,-99.9413C632.502,-90.421 684.408,-77.3207 719.254,-68.5265"/>
<polygon fill="midnightblue" stroke="midnightblue" points="593.869,-96.5614 585.029,-102.402 595.582,-103.349 593.869,-96.5614"/>
</g>
<!-- Node3 -->
<g id="node3" class="node"><title>Node3</title>
<g id="a_node3"><a xlink:href="classIRAD_1_1Util_1_1Parameters.html" target="_top" xlink:title="Parameters">
<polygon fill="none" stroke="black" points="282.5,-127.5 282.5,-146.5 349.5,-146.5 349.5,-127.5 282.5,-127.5"/>
<text text-anchor="middle" x="316" y="-134.5" font-family="Helvetica,sans-Serif" font-size="10.00">Parameters</text>
</a>
</g>
</g>
<!-- Node3&#45;&gt;Node2 -->
<g id="edge2" class="edge"><title>Node3&#45;&gt;Node2</title>
<path fill="none" stroke="midnightblue" d="M359.755,-133.779C388.665,-131.45 427.681,-128.016 462,-124 473.713,-122.629 486.324,-120.925 498.091,-119.234"/>
<polygon fill="midnightblue" stroke="midnightblue" points="359.281,-130.305 349.589,-134.586 359.835,-137.283 359.281,-130.305"/>
</g>
<!-- Node4 -->
<g id="node4" class="node"><title>Node4</title>
<g id="a_node4"><a xlink:title="STL class. ">
<polygon fill="none" stroke="#bfbfbf" points="110.5,-115.5 110.5,-134.5 243.5,-134.5 243.5,-115.5 110.5,-115.5"/>
<text text-anchor="middle" x="177" y="-122.5" font-family="Helvetica,sans-Serif" font-size="10.00">vector&lt; Util::ParamType &gt;</text>
</a>
</g>
</g>
<!-- Node4&#45;&gt;Node3 -->
<g id="edge3" class="edge"><title>Node4&#45;&gt;Node3</title>
<path fill="none" stroke="midnightblue" d="M253.781,-131.638C263.832,-132.518 273.672,-133.38 282.422,-134.146"/>
<polygon fill="midnightblue" stroke="midnightblue" points="253.958,-128.14 243.691,-130.754 253.348,-135.113 253.958,-128.14"/>
</g>
<!-- Node5 -->
<g id="node5" class="node"><title>Node5</title>
<polygon fill="none" stroke="#bfbfbf" points="0.5,-63.5 0.5,-82.5 29.5,-82.5 29.5,-63.5 0.5,-63.5"/>
<text text-anchor="middle" x="15" y="-70.5" font-family="Helvetica,sans-Serif" font-size="10.00">T</text>
</g>
<!-- Node5&#45;&gt;Node4 -->
<g id="edge4" class="edge"><title>Node5&#45;&gt;Node4</title>
<path fill="none" stroke="#9a32cd" stroke-dasharray="5,2" d="M39.2379,-81.1556C58.2173,-87.7574 85.7678,-97.2063 110,-105 120.942,-108.519 132.959,-112.212 143.705,-115.452"/>
<polygon fill="#9a32cd" stroke="#9a32cd" points="40.2459,-77.8004 29.6511,-77.8093 37.939,-84.4094 40.2459,-77.8004"/>
<text text-anchor="middle" x="70" y="-103" font-family="Helvetica,sans-Serif" font-size="10.00"> elements</text>
</g>
<!-- Node9 -->
<g id="node9" class="node"><title>Node9</title>
<g id="a_node9"><a xlink:title="STL class. ">
<polygon fill="none" stroke="#bfbfbf" points="282,-34.5 282,-53.5 350,-53.5 350,-34.5 282,-34.5"/>
<text text-anchor="middle" x="316" y="-41.5" font-family="Helvetica,sans-Serif" font-size="10.00">vector&lt; T &gt;</text>
</a>
</g>
</g>
<!-- Node5&#45;&gt;Node9 -->
<g id="edge9" class="edge"><title>Node5&#45;&gt;Node9</title>
<path fill="none" stroke="#9a32cd" stroke-dasharray="5,2" d="M39.457,-67.9466C58.4019,-64.0617 85.7973,-58.8863 110,-56 170.358,-48.8021 241.25,-45.8691 281.872,-44.7129"/>
<polygon fill="#9a32cd" stroke="#9a32cd" points="38.6933,-64.5305 29.6215,-70.0034 40.1262,-71.3823 38.6933,-64.5305"/>
<text text-anchor="middle" x="177" y="-59" font-family="Helvetica,sans-Serif" font-size="10.00"> elements</text>
</g>
<!-- Node6 -->
<g id="node6" class="node"><title>Node6</title>
<g id="a_node6"><a xlink:title="STL class. ">
<polygon fill="none" stroke="#bfbfbf" points="295.5,-76.5 295.5,-95.5 336.5,-95.5 336.5,-76.5 295.5,-76.5"/>
<text text-anchor="middle" x="316" y="-83.5" font-family="Helvetica,sans-Serif" font-size="10.00">string</text>
</a>
</g>
</g>
<!-- Node6&#45;&gt;Node2 -->
<g id="edge5" class="edge"><title>Node6&#45;&gt;Node2</title>
<path fill="none" stroke="#9a32cd" stroke-dasharray="5,2" d="M346.905,-89.4102C385.478,-93.8089 452.993,-101.508 498.343,-106.679"/>
<polygon fill="#9a32cd" stroke="#9a32cd" points="347.167,-85.9175 336.835,-88.2618 346.374,-92.8724 347.167,-85.9175"/>
<text text-anchor="middle" x="415" y="-106" font-family="Helvetica,sans-Serif" font-size="10.00"> _Name</text>
</g>
<!-- Node10 -->
<g id="node10" class="node"><title>Node10</title>
<polygon fill="none" stroke="#bfbfbf" points="493.5,-49.5 493.5,-68.5 598.5,-68.5 598.5,-49.5 493.5,-49.5"/>
<text text-anchor="middle" x="546" y="-56.5" font-family="Helvetica,sans-Serif" font-size="10.00">vector&lt; std::string &gt;</text>
</g>
<!-- Node6&#45;&gt;Node10 -->
<g id="edge11" class="edge"><title>Node6&#45;&gt;Node10</title>
<path fill="none" stroke="#9a32cd" stroke-dasharray="5,2" d="M347.135,-81.0241C353.985,-79.9623 361.236,-78.893 368,-78 410.13,-72.4379 458.065,-67.3694 493.416,-63.869"/>
<polygon fill="#9a32cd" stroke="#9a32cd" points="346.156,-77.6357 336.828,-82.6601 347.253,-84.5491 346.156,-77.6357"/>
<text text-anchor="middle" x="415" y="-81" font-family="Helvetica,sans-Serif" font-size="10.00"> elements</text>
</g>
<!-- Node7 -->
<g id="node7" class="node"><title>Node7</title>
<g id="a_node7"><a xlink:title="STL class. ">
<polygon fill="none" stroke="#bfbfbf" points="124,-76.5 124,-95.5 230,-95.5 230,-76.5 124,-76.5"/>
<text text-anchor="middle" x="177" y="-83.5" font-family="Helvetica,sans-Serif" font-size="10.00">basic_string&lt; char &gt;</text>
</a>
</g>
</g>
<!-- Node7&#45;&gt;Node6 -->
<g id="edge6" class="edge"><title>Node7&#45;&gt;Node6</title>
<path fill="none" stroke="midnightblue" d="M240.214,-86C260.189,-86 280.883,-86 295.425,-86"/>
<polygon fill="midnightblue" stroke="midnightblue" points="240.185,-82.5001 230.185,-86 240.185,-89.5001 240.185,-82.5001"/>
</g>
<!-- Node8 -->
<g id="node8" class="node"><title>Node8</title>
<polygon fill="none" stroke="#bfbfbf" points="480.5,-0 480.5,-30 611.5,-30 611.5,-0 480.5,-0"/>
<text text-anchor="start" x="488.5" y="-18" font-family="Helvetica,sans-Serif" font-size="10.00">vector&lt; Util::IRAD</text>
<text text-anchor="middle" x="546" y="-7" font-family="Helvetica,sans-Serif" font-size="10.00">::Util::ConfigParameters &gt;</text>
</g>
<!-- Node8&#45;&gt;Node1 -->
<g id="edge7" class="edge"><title>Node8&#45;&gt;Node1</title>
<path fill="none" stroke="#9a32cd" stroke-dasharray="5,2" d="M621.632,-30.1872C643.069,-34.5937 666.47,-39.4459 688,-44 696.276,-45.7505 705.103,-47.6471 713.583,-49.4838"/>
<polygon fill="#9a32cd" stroke="#9a32cd" points="622.109,-26.7123 611.61,-28.1301 620.702,-33.5693 622.109,-26.7123"/>
<text text-anchor="middle" x="659" y="-47" font-family="Helvetica,sans-Serif" font-size="10.00"> _parameters</text>
</g>
<!-- Node9&#45;&gt;Node8 -->
<g id="edge8" class="edge"><title>Node9&#45;&gt;Node8</title>
<path fill="none" stroke="orange" stroke-dasharray="5,2" d="M339.577,-29.0845C348.119,-24.2556 358.16,-19.503 368,-17 404.335,-7.75707 446.237,-6.86958 480.148,-8.47294"/>
<polygon fill="orange" stroke="orange" points="337.747,-26.1009 330.978,-34.2513 341.352,-32.1011 337.747,-26.1009"/>
<text text-anchor="start" x="368" y="-31" font-family="Helvetica,sans-Serif" font-size="10.00"> &lt; Util::IRAD::Util</text>
<text text-anchor="middle" x="415" y="-20" font-family="Helvetica,sans-Serif" font-size="10.00">::ConfigParameters &gt;</text>
</g>
<!-- Node9&#45;&gt;Node10 -->
<g id="edge12" class="edge"><title>Node9&#45;&gt;Node10</title>
<path fill="none" stroke="orange" stroke-dasharray="5,2" d="M360.344,-42.49C389.204,-41.9291 427.938,-42.0291 462,-45 473.21,-45.9777 485.185,-47.6338 496.451,-49.4718"/>
<polygon fill="orange" stroke="orange" points="360.102,-38.9945 350.184,-42.7225 360.262,-45.9927 360.102,-38.9945"/>
<text text-anchor="middle" x="415" y="-48" font-family="Helvetica,sans-Serif" font-size="10.00"> &lt; std::string &gt;</text>
</g>
<!-- Node10&#45;&gt;Node1 -->
<g id="edge10" class="edge"><title>Node10&#45;&gt;Node1</title>
<path fill="none" stroke="#9a32cd" stroke-dasharray="5,2" d="M608.904,-59C639.912,-59 676.988,-59 706.285,-59"/>
<polygon fill="#9a32cd" stroke="#9a32cd" points="608.641,-55.5001 598.641,-59 608.641,-62.5001 608.641,-55.5001"/>
<text text-anchor="middle" x="659" y="-62" font-family="Helvetica,sans-Serif" font-size="10.00"> _sections</text>
</g>
</g>
</svg>
