<?xml version="1.0" encoding="UTF-8" standalone="no"?>
<!DOCTYPE svg PUBLIC "-//W3C//DTD SVG 1.1//EN"
 "http://www.w3.org/Graphics/SVG/1.1/DTD/svg11.dtd">
<!-- Generated by graphviz version 2.30.1 (20150305.2338)
 -->
<!-- Title: get_prev_ghost_edge Pages: 1 -->
<svg width="680pt" height="389pt"
 viewBox="0.00 0.00 680.00 389.15" xmlns="http://www.w3.org/2000/svg" xmlns:xlink="http://www.w3.org/1999/xlink">
<g id="graph0" class="graph" transform="scale(1 1) rotate(0) translate(4 385.146)">
<title>get_prev_ghost_edge</title>
<!-- Node1 -->
<g id="node1" class="node"><title>Node1</title>
<polygon fill="#bfbfbf" stroke="black" points="0,-240.186 0,-259.186 110,-259.186 110,-240.186 0,-240.186"/>
<text text-anchor="middle" x="55" y="-247.186" font-family="Helvetica,sans-Serif" font-size="10.00">get_prev_ghost_edge</text>
</g>
<!-- Node2 -->
<g id="node2" class="node"><title>Node2</title>
<g id="a_node2"><a xlink:href="classSimple__manifold__2_a3fff497bdfcdda219b941fffcedf3d41.html#a3fff497bdfcdda219b941fffcedf3d41" target="_top" xlink:title="get_next_ghost_edge\l_interior">
<polygon fill="none" stroke="black" points="310,-327.686 310,-357.686 420,-357.686 420,-327.686 310,-327.686"/>
<text text-anchor="start" x="318" y="-345.686" font-family="Helvetica,sans-Serif" font-size="10.00">get_next_ghost_edge</text>
<text text-anchor="middle" x="365" y="-334.686" font-family="Helvetica,sans-Serif" font-size="10.00">_interior</text>
</a>
</g>
</g>
<!-- Node1&#45;&gt;Node2 -->
<g id="edge1" class="edge"><title>Node1&#45;&gt;Node2</title>
<path fill="none" stroke="midnightblue" d="M76.7838,-259.194C94.8288,-267.215 121.791,-278.643 146,-286.686 196.917,-303.601 255.927,-318.481 299.702,-328.643"/>
<polygon fill="midnightblue" stroke="midnightblue" points="299.113,-332.098 309.643,-330.93 300.683,-325.277 299.113,-332.098"/>
</g>
<!-- Node7 -->
<g id="node7" class="node"><title>Node7</title>
<g id="a_node7"><a xlink:href="classSimple__manifold__2_a6e15b6072d8d66a8a41c33b1a1999976.html#a6e15b6072d8d66a8a41c33b1a1999976" target="_top" xlink:title="Get the ID of the opposite ghost edge of a given real or border edge. ">
<polygon fill="none" stroke="black" points="146,-136.186 146,-155.186 274,-155.186 274,-136.186 146,-136.186"/>
<text text-anchor="middle" x="210" y="-143.186" font-family="Helvetica,sans-Serif" font-size="10.00">get_opposite_ghost_edge</text>
</a>
</g>
</g>
<!-- Node1&#45;&gt;Node7 -->
<g id="edge8" class="edge"><title>Node1&#45;&gt;Node7</title>
<path fill="none" stroke="midnightblue" d="M68.2686,-240.142C85.3613,-226.973 117.459,-202.702 146,-183.686 158.078,-175.638 171.845,-167.248 183.423,-160.405"/>
<polygon fill="midnightblue" stroke="midnightblue" points="185.305,-163.36 192.165,-155.285 181.767,-157.319 185.305,-163.36"/>
</g>
<!-- Node11 -->
<g id="node11" class="node"><title>Node11</title>
<g id="a_node11"><a xlink:href="classSimple__manifold__2_aa81d979ace76b3412a00645efe09cfff.html#aa81d979ace76b3412a00645efe09cfff" target="_top" xlink:title="Get the opposite edge of an interior edge of the ghost part. ">
<polygon fill="none" stroke="black" points="314.5,-152.686 314.5,-182.686 415.5,-182.686 415.5,-152.686 314.5,-152.686"/>
<text text-anchor="start" x="322.5" y="-170.686" font-family="Helvetica,sans-Serif" font-size="10.00">get_opposite_ghost</text>
<text text-anchor="middle" x="365" y="-159.686" font-family="Helvetica,sans-Serif" font-size="10.00">_edge_interior</text>
</a>
</g>
</g>
<!-- Node1&#45;&gt;Node11 -->
<g id="edge23" class="edge"><title>Node1&#45;&gt;Node11</title>
<path fill="none" stroke="midnightblue" d="M91.9343,-240.119C144.127,-226.223 241.536,-200.29 304.53,-183.519"/>
<polygon fill="midnightblue" stroke="midnightblue" points="305.569,-186.864 314.332,-180.909 303.768,-180.1 305.569,-186.864"/>
</g>
<!-- Node12 -->
<g id="node12" class="node"><title>Node12</title>
<g id="a_node12"><a xlink:href="classSimple__manifold__2_a790dfe722267d6ef009ac7668acb1c1c.html#a790dfe722267d6ef009ac7668acb1c1c" target="_top" xlink:title="get_prev_ghost_edge\l_interior">
<polygon fill="none" stroke="black" points="310,-278.686 310,-308.686 420,-308.686 420,-278.686 310,-278.686"/>
<text text-anchor="start" x="318" y="-296.686" font-family="Helvetica,sans-Serif" font-size="10.00">get_prev_ghost_edge</text>
<text text-anchor="middle" x="365" y="-285.686" font-family="Helvetica,sans-Serif" font-size="10.00">_interior</text>
</a>
</g>
</g>
<!-- Node1&#45;&gt;Node12 -->
<g id="edge24" class="edge"><title>Node1&#45;&gt;Node12</title>
<path fill="none" stroke="midnightblue" d="M110.232,-258.279C122.018,-260.103 134.422,-261.989 146,-263.686 197.617,-271.251 256.195,-279.282 299.621,-285.128"/>
<polygon fill="midnightblue" stroke="midnightblue" points="299.384,-288.628 309.761,-286.491 300.317,-281.69 299.384,-288.628"/>
</g>
<!-- Node9 -->
<g id="node9" class="node"><title>Node9</title>
<g id="a_node9"><a xlink:href="classFacet__ID_aa126fd94949c810d24869ad04cd97e15.html#aa126fd94949c810d24869ad04cd97e15" target="_top" xlink:title="Determines whether the facet is on border. ">
<polygon fill="none" stroke="black" points="456.5,-117.186 456.5,-136.186 559.5,-136.186 559.5,-117.186 456.5,-117.186"/>
<text text-anchor="middle" x="508" y="-124.186" font-family="Helvetica,sans-Serif" font-size="10.00">Facet_ID::is_border</text>
</a>
</g>
</g>
<!-- Node1&#45;&gt;Node9 -->
<g id="edge29" class="edge"><title>Node1&#45;&gt;Node9</title>
<path fill="none" stroke="midnightblue" d="M110.057,-249.859C183.458,-248.18 317.269,-238.235 420,-191.686 446.616,-179.626 472.892,-158.344 489.485,-143.427"/>
<polygon fill="midnightblue" stroke="midnightblue" points="492.248,-145.64 497.229,-136.289 487.504,-140.493 492.248,-145.64"/>
</g>
<!-- Node3 -->
<g id="node3" class="node"><title>Node3</title>
<g id="a_node3"><a xlink:href="classFacet__ID_a1dea367be190d5726e3aa6b8d0c47076.html#a1dea367be190d5726e3aa6b8d0c47076" target="_top" xlink:title="Element ID of the halfedge. ">
<polygon fill="none" stroke="black" points="596,-174.186 596,-193.186 672,-193.186 672,-174.186 596,-174.186"/>
<text text-anchor="middle" x="634" y="-181.186" font-family="Helvetica,sans-Serif" font-size="10.00">Facet_ID::eid</text>
</a>
</g>
</g>
<!-- Node2&#45;&gt;Node3 -->
<g id="edge2" class="edge"><title>Node2&#45;&gt;Node3</title>
<path fill="none" stroke="midnightblue" d="M420.048,-337.648C461.525,-331.551 518.522,-318.133 560,-288.686 591.224,-266.518 613.511,-226.559 624.73,-202.844"/>
<polygon fill="midnightblue" stroke="midnightblue" points="628.028,-204.046 628.976,-193.494 621.654,-201.152 628.028,-204.046"/>
</g>
<!-- Node4 -->
<g id="node4" class="node"><title>Node4</title>
<g id="a_node4"><a xlink:href="classSimple__manifold__2_a678219ca5d2b29febb0820f195f668ba.html#a678219ca5d2b29febb0820f195f668ba" target="_top" xlink:title="Get an index for internal edges. ">
<polygon fill="none" stroke="black" points="465.5,-193.186 465.5,-212.186 550.5,-212.186 550.5,-193.186 465.5,-193.186"/>
<text text-anchor="middle" x="508" y="-200.186" font-family="Helvetica,sans-Serif" font-size="10.00">get_edge_index</text>
</a>
</g>
</g>
<!-- Node2&#45;&gt;Node4 -->
<g id="edge3" class="edge"><title>Node2&#45;&gt;Node4</title>
<path fill="none" stroke="midnightblue" d="M407.8,-327.53C412.286,-324.733 416.487,-321.472 420,-317.686 450.994,-284.282 423.744,-253.872 456,-221.686 457.455,-220.234 459.03,-218.892 460.696,-217.651"/>
<polygon fill="midnightblue" stroke="midnightblue" points="462.879,-220.421 469.629,-212.255 459.26,-214.43 462.879,-220.421"/>
</g>
<!-- Node6 -->
<g id="node6" class="node"><title>Node6</title>
<g id="a_node6"><a xlink:href="classSimple__manifold__2_ab06c9b0093094a1e15b3c1d91b6d7012.html#ab06c9b0093094a1e15b3c1d91b6d7012" target="_top" xlink:title="Is the element incident on the give edge a ghost element? ">
<polygon fill="none" stroke="black" points="461.5,-231.186 461.5,-250.186 554.5,-250.186 554.5,-231.186 461.5,-231.186"/>
<text text-anchor="middle" x="508" y="-238.186" font-family="Helvetica,sans-Serif" font-size="10.00">is_ghost_element</text>
</a>
</g>
</g>
<!-- Node2&#45;&gt;Node6 -->
<g id="edge6" class="edge"><title>Node2&#45;&gt;Node6</title>
<path fill="none" stroke="midnightblue" d="M402.51,-327.556C408.516,-324.57 414.552,-321.247 420,-317.686 446.985,-300.043 474.19,-274.413 490.819,-257.648"/>
<polygon fill="midnightblue" stroke="midnightblue" points="493.605,-259.804 498.086,-250.204 488.596,-254.915 493.605,-259.804"/>
</g>
<!-- Node5 -->
<g id="node5" class="node"><title>Node5</title>
<g id="a_node5"><a xlink:href="classFacet__ID_ae7df635a2e18521c31e7da0b999b802b.html#ae7df635a2e18521c31e7da0b999b802b" target="_top" xlink:title="Local edge ID of the halfedge within its element. ">
<polygon fill="none" stroke="black" points="597.5,-269.186 597.5,-288.186 670.5,-288.186 670.5,-269.186 597.5,-269.186"/>
<text text-anchor="middle" x="634" y="-276.186" font-family="Helvetica,sans-Serif" font-size="10.00">Facet_ID::lid</text>
</a>
</g>
</g>
<!-- Node2&#45;&gt;Node5 -->
<g id="edge7" class="edge"><title>Node2&#45;&gt;Node5</title>
<path fill="none" stroke="midnightblue" d="M398.962,-357.789C439.008,-373.8 507.695,-393.608 560,-368.686 590.87,-353.977 612.928,-319.126 624.267,-297.363"/>
<polygon fill="midnightblue" stroke="midnightblue" points="627.403,-298.918 628.716,-288.405 621.134,-295.804 627.403,-298.918"/>
</g>
<!-- Node4&#45;&gt;Node3 -->
<g id="edge4" class="edge"><title>Node4&#45;&gt;Node3</title>
<path fill="none" stroke="midnightblue" d="M550.635,-196.306C561.954,-194.572 574.292,-192.681 585.89,-190.904"/>
<polygon fill="midnightblue" stroke="midnightblue" points="586.494,-194.353 595.848,-189.378 585.434,-187.433 586.494,-194.353"/>
</g>
<!-- Node4&#45;&gt;Node5 -->
<g id="edge5" class="edge"><title>Node4&#45;&gt;Node5</title>
<path fill="none" stroke="midnightblue" d="M539.351,-212.253C546.32,-214.921 553.567,-218.089 560,-221.686 580.414,-233.099 601.197,-249.943 615.339,-262.363"/>
<polygon fill="midnightblue" stroke="midnightblue" points="613.062,-265.023 622.845,-269.09 617.734,-259.81 613.062,-265.023"/>
</g>
<!-- Node7&#45;&gt;Node3 -->
<g id="edge9" class="edge"><title>Node7&#45;&gt;Node3</title>
<path fill="none" stroke="midnightblue" d="M218.201,-136.019C233.022,-116.918 269.004,-74.478 310,-54.6857 410.483,-6.1738 465.554,27.7289 560,-31.6857 606.751,-61.0961 624.242,-129.717 630.209,-163.778"/>
<polygon fill="midnightblue" stroke="midnightblue" points="626.791,-164.57 631.816,-173.897 633.704,-163.472 626.791,-164.57"/>
</g>
<!-- Node8 -->
<g id="node8" class="node"><title>Node8</title>
<g id="a_node8"><a xlink:href="classSimple__manifold__2_a5dfd55a426d43af633d6f1d8788cb322.html#a5dfd55a426d43af633d6f1d8788cb322" target="_top" xlink:title="Get the opposite edge of a border edge for the ghost pane. ">
<polygon fill="none" stroke="black" points="314.5,-64.6857 314.5,-94.6857 415.5,-94.6857 415.5,-64.6857 314.5,-64.6857"/>
<text text-anchor="start" x="322.5" y="-82.6857" font-family="Helvetica,sans-Serif" font-size="10.00">get_opposite_ghost</text>
<text text-anchor="middle" x="365" y="-71.6857" font-family="Helvetica,sans-Serif" font-size="10.00">_edge_border</text>
</a>
</g>
</g>
<!-- Node7&#45;&gt;Node8 -->
<g id="edge10" class="edge"><title>Node7&#45;&gt;Node8</title>
<path fill="none" stroke="midnightblue" d="M233.248,-136.089C255.809,-126.356 291.343,-111.028 319.676,-98.806"/>
<polygon fill="midnightblue" stroke="midnightblue" points="321.183,-101.968 328.979,-94.7928 318.41,-95.5401 321.183,-101.968"/>
</g>
<!-- Node7&#45;&gt;Node11 -->
<g id="edge16" class="edge"><title>Node7&#45;&gt;Node11</title>
<path fill="none" stroke="midnightblue" d="M274.114,-154.761C284.011,-156.184 294.217,-157.652 304.041,-159.064"/>
<polygon fill="midnightblue" stroke="midnightblue" points="303.714,-162.553 314.11,-160.512 304.71,-155.624 303.714,-162.553"/>
</g>
<!-- Node7&#45;&gt;Node9 -->
<g id="edge21" class="edge"><title>Node7&#45;&gt;Node9</title>
<path fill="none" stroke="midnightblue" d="M274.136,-141.633C324.967,-138.37 395.969,-133.813 446.175,-130.59"/>
<polygon fill="midnightblue" stroke="midnightblue" points="446.487,-134.077 456.242,-129.944 446.038,-127.092 446.487,-134.077"/>
</g>
<!-- Node7&#45;&gt;Node6 -->
<g id="edge22" class="edge"><title>Node7&#45;&gt;Node6</title>
<path fill="none" stroke="midnightblue" d="M228.812,-155.229C248.305,-165.37 280.691,-181.339 310,-191.686 356.721,-208.18 411.539,-221.336 451.47,-229.845"/>
<polygon fill="midnightblue" stroke="midnightblue" points="450.781,-233.277 461.287,-231.908 452.22,-226.426 450.781,-233.277"/>
</g>
<!-- Node8&#45;&gt;Node3 -->
<g id="edge11" class="edge"><title>Node8&#45;&gt;Node3</title>
<path fill="none" stroke="midnightblue" d="M415.704,-78.1315C456.577,-78.8372 514.896,-84.5223 560,-107.686 586.193,-121.137 608.305,-147.714 621.114,-165.596"/>
<polygon fill="midnightblue" stroke="midnightblue" points="618.378,-167.794 626.937,-174.039 624.141,-163.82 618.378,-167.794"/>
</g>
<!-- Node8&#45;&gt;Node4 -->
<g id="edge12" class="edge"><title>Node8&#45;&gt;Node4</title>
<path fill="none" stroke="midnightblue" d="M383.289,-94.7679C409.947,-118.022 460.87,-162.444 488.335,-186.404"/>
<polygon fill="midnightblue" stroke="midnightblue" points="486.217,-189.2 496.053,-193.136 490.818,-183.925 486.217,-189.2"/>
</g>
<!-- Node8&#45;&gt;Node9 -->
<g id="edge13" class="edge"><title>Node8&#45;&gt;Node9</title>
<path fill="none" stroke="midnightblue" d="M411.001,-94.686C429.634,-100.897 451.012,-108.023 468.858,-113.972"/>
<polygon fill="midnightblue" stroke="midnightblue" points="467.776,-117.3 478.37,-117.142 469.99,-110.66 467.776,-117.3"/>
</g>
<!-- Node10 -->
<g id="node10" class="node"><title>Node10</title>
<g id="a_node10"><a xlink:href="classSimple__manifold__2_ae1611b1b5b6feb95d11d299ef4150866.html#ae1611b1b5b6feb95d11d299ef4150866" target="_top" xlink:title="Is the element incident on the give edge a real element? ">
<polygon fill="none" stroke="black" points="465.5,-41.1857 465.5,-60.1857 550.5,-60.1857 550.5,-41.1857 465.5,-41.1857"/>
<text text-anchor="middle" x="508" y="-48.1857" font-family="Helvetica,sans-Serif" font-size="10.00">is_real_element</text>
</a>
</g>
</g>
<!-- Node8&#45;&gt;Node10 -->
<g id="edge15" class="edge"><title>Node8&#45;&gt;Node10</title>
<path fill="none" stroke="midnightblue" d="M415.711,-69.4614C428.474,-66.8364 442.235,-64.0062 455.105,-61.3592"/>
<polygon fill="midnightblue" stroke="midnightblue" points="456.109,-64.7259 465.199,-59.283 454.699,-57.8694 456.109,-64.7259"/>
</g>
<!-- Node9&#45;&gt;Node5 -->
<g id="edge14" class="edge"><title>Node9&#45;&gt;Node5</title>
<path fill="none" stroke="midnightblue" d="M518.26,-136.577C528.66,-147.791 545.926,-166.721 560,-183.686 581.784,-209.943 605.621,-241.552 619.937,-260.877"/>
<polygon fill="midnightblue" stroke="midnightblue" points="617.224,-263.094 625.977,-269.063 622.857,-258.938 617.224,-263.094"/>
</g>
<!-- Node11&#45;&gt;Node3 -->
<g id="edge17" class="edge"><title>Node11&#45;&gt;Node3</title>
<path fill="none" stroke="midnightblue" d="M415.595,-170.658C464.208,-173.571 537.783,-177.98 585.62,-180.846"/>
<polygon fill="midnightblue" stroke="midnightblue" points="585.523,-184.347 595.715,-181.451 585.942,-177.359 585.523,-184.347"/>
</g>
<!-- Node11&#45;&gt;Node4 -->
<g id="edge18" class="edge"><title>Node11&#45;&gt;Node4</title>
<path fill="none" stroke="midnightblue" d="M415.711,-180.025C429.62,-183.478 444.714,-187.225 458.549,-190.659"/>
<polygon fill="midnightblue" stroke="midnightblue" points="457.816,-194.083 468.365,-193.095 459.503,-187.289 457.816,-194.083"/>
</g>
<!-- Node11&#45;&gt;Node9 -->
<g id="edge19" class="edge"><title>Node11&#45;&gt;Node9</title>
<path fill="none" stroke="midnightblue" d="M415.711,-153.231C431.581,-148.616 448.994,-143.553 464.319,-139.097"/>
<polygon fill="midnightblue" stroke="midnightblue" points="465.425,-142.42 474.05,-136.267 463.471,-135.698 465.425,-142.42"/>
</g>
<!-- Node11&#45;&gt;Node6 -->
<g id="edge20" class="edge"><title>Node11&#45;&gt;Node6</title>
<path fill="none" stroke="midnightblue" d="M394.275,-182.831C402.638,-187.461 411.759,-192.661 420,-197.686 436.418,-207.697 438.876,-212.937 456,-221.686 459.989,-223.724 464.249,-225.658 468.544,-227.458"/>
<polygon fill="midnightblue" stroke="midnightblue" points="467.322,-230.738 477.908,-231.17 469.902,-224.231 467.322,-230.738"/>
</g>
<!-- Node12&#45;&gt;Node3 -->
<g id="edge25" class="edge"><title>Node12&#45;&gt;Node3</title>
<path fill="none" stroke="midnightblue" d="M420.377,-293.125C460.981,-290.647 516.694,-282.757 560,-259.686 585.987,-245.841 608.152,-219.365 621.029,-201.612"/>
<polygon fill="midnightblue" stroke="midnightblue" points="624.024,-203.438 626.888,-193.237 618.288,-199.425 624.024,-203.438"/>
</g>
<!-- Node12&#45;&gt;Node4 -->
<g id="edge26" class="edge"><title>Node12&#45;&gt;Node4</title>
<path fill="none" stroke="midnightblue" d="M397.487,-278.655C405.199,-274.324 413.188,-269.247 420,-263.686 439.045,-248.138 435.84,-235.758 456,-221.686 458.712,-219.793 461.635,-218.062 464.662,-216.485"/>
<polygon fill="midnightblue" stroke="midnightblue" points="466.328,-219.571 473.943,-212.205 463.397,-213.215 466.328,-219.571"/>
</g>
<!-- Node12&#45;&gt;Node6 -->
<g id="edge27" class="edge"><title>Node12&#45;&gt;Node6</title>
<path fill="none" stroke="midnightblue" d="M406.028,-278.64C426.878,-270.802 452.132,-261.31 472.168,-253.779"/>
<polygon fill="midnightblue" stroke="midnightblue" points="473.413,-257.05 481.543,-250.255 470.95,-250.497 473.413,-257.05"/>
</g>
<!-- Node12&#45;&gt;Node5 -->
<g id="edge28" class="edge"><title>Node12&#45;&gt;Node5</title>
<path fill="none" stroke="midnightblue" d="M420.075,-296.067C459.066,-297.136 512.902,-297.284 560,-292.686 568.865,-291.82 578.256,-290.404 587.246,-288.796"/>
<polygon fill="midnightblue" stroke="midnightblue" points="587.999,-292.216 597.175,-286.919 586.699,-285.338 587.999,-292.216"/>
</g>
</g>
</svg>
