<?xml version="1.0" encoding="UTF-8" standalone="no"?>
<!DOCTYPE svg PUBLIC "-//W3C//DTD SVG 1.1//EN"
 "http://www.w3.org/Graphics/SVG/1.1/DTD/svg11.dtd">
<!-- Generated by graphviz version 2.30.1 (20150305.2338)
 -->
<!-- Title: COM_map&lt; Object &gt; Pages: 1 -->
<svg width="393pt" height="232pt"
 viewBox="0.00 0.00 393.00 232.00" xmlns="http://www.w3.org/2000/svg" xmlns:xlink="http://www.w3.org/1999/xlink">
<g id="graph0" class="graph" transform="scale(1 1) rotate(0) translate(4 228)">
<title>COM_map&lt; Object &gt;</title>
<!-- Node1 -->
<g id="node1" class="node"><title>Node1</title>
<polygon fill="#bfbfbf" stroke="black" points="169,-0.5 169,-19.5 279,-19.5 279,-0.5 169,-0.5"/>
<text text-anchor="middle" x="224" y="-7.5" font-family="Helvetica,sans-Serif" font-size="10.00">COM_map&lt; Object &gt;</text>
</g>
<!-- Node2 -->
<g id="node2" class="node"><title>Node2</title>
<polygon fill="none" stroke="#bfbfbf" points="40.5,-68.5 40.5,-87.5 153.5,-87.5 153.5,-68.5 40.5,-68.5"/>
<text text-anchor="middle" x="97" y="-75.5" font-family="Helvetica,sans-Serif" font-size="10.00">map&lt; std::string, int &gt;</text>
</g>
<!-- Node2&#45;&gt;Node1 -->
<g id="edge1" class="edge"><title>Node2&#45;&gt;Node1</title>
<path fill="none" stroke="#9a32cd" stroke-dasharray="5,2" d="M122.614,-63.6889C147.896,-50.5502 185.809,-30.8475 207.393,-19.6305"/>
<polygon fill="#9a32cd" stroke="#9a32cd" points="120.862,-60.6546 113.603,-68.3717 124.09,-66.8659 120.862,-60.6546"/>
<text text-anchor="middle" x="180" y="-41.5" font-family="Helvetica,sans-Serif" font-size="10.00"> n2i</text>
</g>
<!-- Node3 -->
<g id="node3" class="node"><title>Node3</title>
<g id="a_node3"><a xlink:title="STL class. ">
<polygon fill="none" stroke="#bfbfbf" points="152.5,-136.5 152.5,-155.5 193.5,-155.5 193.5,-136.5 152.5,-136.5"/>
<text text-anchor="middle" x="173" y="-143.5" font-family="Helvetica,sans-Serif" font-size="10.00">string</text>
</a>
</g>
</g>
<!-- Node3&#45;&gt;Node2 -->
<g id="edge2" class="edge"><title>Node3&#45;&gt;Node2</title>
<path fill="none" stroke="#9a32cd" stroke-dasharray="5,2" d="M155.468,-129.774C140.508,-116.784 119.518,-98.5551 107.181,-87.8411"/>
<polygon fill="#9a32cd" stroke="#9a32cd" points="153.219,-132.457 163.064,-136.372 157.809,-127.172 153.219,-132.457"/>
<text text-anchor="middle" x="154.5" y="-109.5" font-family="Helvetica,sans-Serif" font-size="10.00"> keys</text>
</g>
<!-- Node10 -->
<g id="node10" class="node"><title>Node10</title>
<polygon fill="none" stroke="#bfbfbf" points="171.5,-68.5 171.5,-87.5 276.5,-87.5 276.5,-68.5 171.5,-68.5"/>
<text text-anchor="middle" x="224" y="-75.5" font-family="Helvetica,sans-Serif" font-size="10.00">vector&lt; std::string &gt;</text>
</g>
<!-- Node3&#45;&gt;Node10 -->
<g id="edge11" class="edge"><title>Node3&#45;&gt;Node10</title>
<path fill="none" stroke="#9a32cd" stroke-dasharray="5,2" d="M178.365,-126.419C180.9,-119.578 184.398,-112.034 189,-106 194.584,-98.6772 202.624,-92.2869 209.59,-87.5639"/>
<polygon fill="#9a32cd" stroke="#9a32cd" points="174.925,-125.68 175.156,-136.272 181.581,-127.848 174.925,-125.68"/>
<text text-anchor="middle" x="210.5" y="-109.5" font-family="Helvetica,sans-Serif" font-size="10.00"> elements</text>
</g>
<!-- Node4 -->
<g id="node4" class="node"><title>Node4</title>
<g id="a_node4"><a xlink:title="STL class. ">
<polygon fill="none" stroke="#bfbfbf" points="120,-204.5 120,-223.5 226,-223.5 226,-204.5 120,-204.5"/>
<text text-anchor="middle" x="173" y="-211.5" font-family="Helvetica,sans-Serif" font-size="10.00">basic_string&lt; char &gt;</text>
</a>
</g>
</g>
<!-- Node4&#45;&gt;Node3 -->
<g id="edge3" class="edge"><title>Node4&#45;&gt;Node3</title>
<path fill="none" stroke="midnightblue" d="M173,-194.041C173,-181.472 173,-165.563 173,-155.841"/>
<polygon fill="midnightblue" stroke="midnightblue" points="169.5,-194.372 173,-204.372 176.5,-194.372 169.5,-194.372"/>
</g>
<!-- Node5 -->
<g id="node5" class="node"><title>Node5</title>
<g id="a_node5"><a xlink:title="STL class. ">
<polygon fill="none" stroke="#bfbfbf" points="0,-136.5 0,-155.5 72,-155.5 72,-136.5 0,-136.5"/>
<text text-anchor="middle" x="36" y="-143.5" font-family="Helvetica,sans-Serif" font-size="10.00">map&lt; K, T &gt;</text>
</a>
</g>
</g>
<!-- Node5&#45;&gt;Node2 -->
<g id="edge4" class="edge"><title>Node5&#45;&gt;Node2</title>
<path fill="none" stroke="orange" stroke-dasharray="5,2" d="M30.6431,-126.504C29.7135,-119.572 30.0812,-111.943 34,-106 39.6336,-97.4565 48.5919,-91.6061 58.0053,-87.6035"/>
<polygon fill="orange" stroke="orange" points="27.2725,-127.472 32.848,-136.481 34.1076,-125.961 27.2725,-127.472"/>
<text text-anchor="middle" x="75" y="-109.5" font-family="Helvetica,sans-Serif" font-size="10.00"> &lt; std::string, int &gt;</text>
</g>
<!-- Node6 -->
<g id="node6" class="node"><title>Node6</title>
<polygon fill="none" stroke="#bfbfbf" points="21.5,-204.5 21.5,-223.5 50.5,-223.5 50.5,-204.5 21.5,-204.5"/>
<text text-anchor="middle" x="36" y="-211.5" font-family="Helvetica,sans-Serif" font-size="10.00">K</text>
</g>
<!-- Node6&#45;&gt;Node5 -->
<g id="edge5" class="edge"><title>Node6&#45;&gt;Node5</title>
<path fill="none" stroke="#9a32cd" stroke-dasharray="5,2" d="M36,-194.041C36,-181.472 36,-165.563 36,-155.841"/>
<polygon fill="#9a32cd" stroke="#9a32cd" points="32.5001,-194.372 36,-204.372 39.5001,-194.372 32.5001,-194.372"/>
<text text-anchor="middle" x="48.5" y="-177.5" font-family="Helvetica,sans-Serif" font-size="10.00"> keys</text>
</g>
<!-- Node7 -->
<g id="node7" class="node"><title>Node7</title>
<polygon fill="none" stroke="#bfbfbf" points="71.5,-204.5 71.5,-223.5 100.5,-223.5 100.5,-204.5 71.5,-204.5"/>
<text text-anchor="middle" x="86" y="-211.5" font-family="Helvetica,sans-Serif" font-size="10.00">T</text>
</g>
<!-- Node7&#45;&gt;Node5 -->
<g id="edge6" class="edge"><title>Node7&#45;&gt;Node5</title>
<path fill="none" stroke="#9a32cd" stroke-dasharray="5,2" d="M76.6888,-195.074C72.8151,-188.23 68.0457,-180.513 63,-174 57.8846,-167.397 51.264,-160.753 45.859,-155.708"/>
<polygon fill="#9a32cd" stroke="#9a32cd" points="73.8102,-197.108 81.651,-204.234 79.965,-193.774 73.8102,-197.108"/>
<text text-anchor="middle" x="92.5" y="-177.5" font-family="Helvetica,sans-Serif" font-size="10.00"> elements</text>
</g>
<!-- Node9 -->
<g id="node9" class="node"><title>Node9</title>
<g id="a_node9"><a xlink:title="STL class. ">
<polygon fill="none" stroke="#bfbfbf" points="218,-136.5 218,-155.5 286,-155.5 286,-136.5 218,-136.5"/>
<text text-anchor="middle" x="252" y="-143.5" font-family="Helvetica,sans-Serif" font-size="10.00">vector&lt; T &gt;</text>
</a>
</g>
</g>
<!-- Node7&#45;&gt;Node9 -->
<g id="edge9" class="edge"><title>Node7&#45;&gt;Node9</title>
<path fill="none" stroke="#9a32cd" stroke-dasharray="5,2" d="M110.344,-203.321C142.795,-190.419 199.713,-167.789 230.6,-155.508"/>
<polygon fill="#9a32cd" stroke="#9a32cd" points="108.731,-200.196 100.731,-207.143 111.317,-206.701 108.731,-200.196"/>
<text text-anchor="middle" x="205.5" y="-177.5" font-family="Helvetica,sans-Serif" font-size="10.00"> elements</text>
</g>
<!-- Node8 -->
<g id="node8" class="node"><title>Node8</title>
<polygon fill="none" stroke="#bfbfbf" points="295,-68.5 295,-87.5 385,-87.5 385,-68.5 295,-68.5"/>
<text text-anchor="middle" x="340" y="-75.5" font-family="Helvetica,sans-Serif" font-size="10.00">vector&lt; Object &gt;</text>
</g>
<!-- Node8&#45;&gt;Node1 -->
<g id="edge7" class="edge"><title>Node8&#45;&gt;Node1</title>
<path fill="none" stroke="#9a32cd" stroke-dasharray="5,2" d="M315.992,-63.3401C292.903,-50.2036 258.71,-30.7487 239.169,-19.6305"/>
<polygon fill="#9a32cd" stroke="#9a32cd" points="314.413,-66.4684 324.835,-68.3717 317.874,-60.3843 314.413,-66.4684"/>
<text text-anchor="middle" x="301" y="-41.5" font-family="Helvetica,sans-Serif" font-size="10.00"> i2o</text>
</g>
<!-- Node9&#45;&gt;Node8 -->
<g id="edge8" class="edge"><title>Node9&#45;&gt;Node8</title>
<path fill="none" stroke="orange" stroke-dasharray="5,2" d="M286.078,-132.442C294.365,-128.523 302.883,-123.701 310,-118 320.667,-109.455 329.719,-96.3568 335.008,-87.7349"/>
<polygon fill="orange" stroke="orange" points="284.645,-129.249 276.905,-136.483 287.467,-135.655 284.645,-129.249"/>
<text text-anchor="middle" x="346" y="-109.5" font-family="Helvetica,sans-Serif" font-size="10.00"> &lt; Object &gt;</text>
</g>
<!-- Node9&#45;&gt;Node10 -->
<g id="edge12" class="edge"><title>Node9&#45;&gt;Node10</title>
<path fill="none" stroke="orange" stroke-dasharray="5,2" d="M244.282,-126.807C238.901,-114.124 231.959,-97.7615 227.751,-87.8411"/>
<polygon fill="orange" stroke="orange" points="241.212,-128.533 248.339,-136.372 247.656,-125.799 241.212,-128.533"/>
<text text-anchor="middle" x="273.5" y="-109.5" font-family="Helvetica,sans-Serif" font-size="10.00"> &lt; std::string &gt;</text>
</g>
<!-- Node10&#45;&gt;Node1 -->
<g id="edge10" class="edge"><title>Node10&#45;&gt;Node1</title>
<path fill="none" stroke="#9a32cd" stroke-dasharray="5,2" d="M224,-58.0413C224,-45.4724 224,-29.5631 224,-19.8411"/>
<polygon fill="#9a32cd" stroke="#9a32cd" points="220.5,-58.3716 224,-68.3717 227.5,-58.3717 220.5,-58.3716"/>
<text text-anchor="middle" x="240.5" y="-41.5" font-family="Helvetica,sans-Serif" font-size="10.00"> names</text>
</g>
</g>
</svg>
