<?xml version="1.0" encoding="UTF-8" standalone="no"?>
<!DOCTYPE svg PUBLIC "-//W3C//DTD SVG 1.1//EN"
 "http://www.w3.org/Graphics/SVG/1.1/DTD/svg11.dtd">
<!-- Generated by graphviz version 2.30.1 (20150305.2338)
 -->
<!-- Title: contains_point Pages: 1 -->
<svg width="540pt" height="283pt"
 viewBox="0.00 0.00 540.00 283.00" xmlns="http://www.w3.org/2000/svg" xmlns:xlink="http://www.w3.org/1999/xlink">
<g id="graph0" class="graph" transform="scale(1 1) rotate(0) translate(4 279)">
<title>contains_point</title>
<!-- Node1 -->
<g id="node1" class="node"><title>Node1</title>
<polygon fill="#bfbfbf" stroke="black" points="0,-128.5 0,-147.5 80,-147.5 80,-128.5 0,-128.5"/>
<text text-anchor="middle" x="40" y="-135.5" font-family="Helvetica,sans-Serif" font-size="10.00">contains_point</text>
</g>
<!-- Node2 -->
<g id="node2" class="node"><title>Node2</title>
<g id="a_node2"><a xlink:href="classSolverUtils_1_1GeoPrim_1_1CPlane_a58da7c91a58650c7a4c013fba2c03917.html#a58da7c91a58650c7a4c013fba2c03917" target="_top" xlink:title="SolverUtils::GeoPrim\l::CPlane::contains_point">
<polygon fill="none" stroke="black" points="116,-123 116,-153 240,-153 240,-123 116,-123"/>
<text text-anchor="start" x="124" y="-141" font-family="Helvetica,sans-Serif" font-size="10.00">SolverUtils::GeoPrim</text>
<text text-anchor="middle" x="178" y="-130" font-family="Helvetica,sans-Serif" font-size="10.00">::CPlane::contains_point</text>
</a>
</g>
</g>
<!-- Node1&#45;&gt;Node2 -->
<g id="edge1" class="edge"><title>Node1&#45;&gt;Node2</title>
<path fill="none" stroke="midnightblue" d="M80.3368,-138C88.3436,-138 96.9992,-138 105.727,-138"/>
<polygon fill="midnightblue" stroke="midnightblue" points="105.971,-141.5 115.971,-138 105.971,-134.5 105.971,-141.5"/>
</g>
<!-- Node3 -->
<g id="node3" class="node"><title>Node3</title>
<g id="a_node3"><a xlink:href="classSolverUtils_1_1GeoPrim_1_1CPlane_a59d61124cf2c200bc9417c5e5f3ca029.html#a59d61124cf2c200bc9417c5e5f3ca029" target="_top" xlink:title="SolverUtils::GeoPrim\l::CPlane::D">
<polygon fill="none" stroke="black" points="276.5,-123 276.5,-153 385.5,-153 385.5,-123 276.5,-123"/>
<text text-anchor="start" x="284.5" y="-141" font-family="Helvetica,sans-Serif" font-size="10.00">SolverUtils::GeoPrim</text>
<text text-anchor="middle" x="331" y="-130" font-family="Helvetica,sans-Serif" font-size="10.00">::CPlane::D</text>
</a>
</g>
</g>
<!-- Node2&#45;&gt;Node3 -->
<g id="edge2" class="edge"><title>Node2&#45;&gt;Node3</title>
<path fill="none" stroke="midnightblue" d="M240.417,-138C248.893,-138 257.613,-138 266.131,-138"/>
<polygon fill="midnightblue" stroke="midnightblue" points="266.391,-141.5 276.391,-138 266.391,-134.5 266.391,-141.5"/>
</g>
<!-- Node4 -->
<g id="node4" class="node"><title>Node4</title>
<g id="a_node4"><a xlink:href="classSolverUtils_1_1GeoPrim_1_1CPoint_a3b195b867437acf8de45f48c83e81932.html#a3b195b867437acf8de45f48c83e81932" target="_top" xlink:title="SolverUtils::GeoPrim\l::CPoint::x">
<polygon fill="none" stroke="black" points="422.5,-245 422.5,-275 531.5,-275 531.5,-245 422.5,-245"/>
<text text-anchor="start" x="430.5" y="-263" font-family="Helvetica,sans-Serif" font-size="10.00">SolverUtils::GeoPrim</text>
<text text-anchor="middle" x="477" y="-252" font-family="Helvetica,sans-Serif" font-size="10.00">::CPoint::x</text>
</a>
</g>
</g>
<!-- Node2&#45;&gt;Node4 -->
<g id="edge9" class="edge"><title>Node2&#45;&gt;Node4</title>
<path fill="none" stroke="midnightblue" d="M197.224,-153.086C215.946,-167.913 246.448,-190.259 276,-204 319.555,-224.252 371.935,-238.59 412.164,-247.686"/>
<polygon fill="midnightblue" stroke="midnightblue" points="411.597,-251.145 422.117,-249.886 413.108,-244.31 411.597,-251.145"/>
</g>
<!-- Node5 -->
<g id="node5" class="node"><title>Node5</title>
<g id="a_node5"><a xlink:href="classSolverUtils_1_1GeoPrim_1_1CVector_a3b195b867437acf8de45f48c83e81932.html#a3b195b867437acf8de45f48c83e81932" target="_top" xlink:title="SolverUtils::GeoPrim\l::CVector::x">
<polygon fill="none" stroke="black" points="422.5,-196 422.5,-226 531.5,-226 531.5,-196 422.5,-196"/>
<text text-anchor="start" x="430.5" y="-214" font-family="Helvetica,sans-Serif" font-size="10.00">SolverUtils::GeoPrim</text>
<text text-anchor="middle" x="477" y="-203" font-family="Helvetica,sans-Serif" font-size="10.00">::CVector::x</text>
</a>
</g>
</g>
<!-- Node2&#45;&gt;Node5 -->
<g id="edge10" class="edge"><title>Node2&#45;&gt;Node5</title>
<path fill="none" stroke="midnightblue" d="M209.328,-153.057C228.117,-161.816 252.977,-172.398 276,-179 320.621,-191.796 372.404,-199.904 412.099,-204.757"/>
<polygon fill="midnightblue" stroke="midnightblue" points="411.835,-208.25 422.177,-205.951 412.658,-201.299 411.835,-208.25"/>
</g>
<!-- Node6 -->
<g id="node6" class="node"><title>Node6</title>
<g id="a_node6"><a xlink:href="classSolverUtils_1_1GeoPrim_1_1CPoint_ad927d9808ded1fc49c05ae9e1a3ed2a6.html#ad927d9808ded1fc49c05ae9e1a3ed2a6" target="_top" xlink:title="SolverUtils::GeoPrim\l::CPoint::y">
<polygon fill="none" stroke="black" points="422.5,-147 422.5,-177 531.5,-177 531.5,-147 422.5,-147"/>
<text text-anchor="start" x="430.5" y="-165" font-family="Helvetica,sans-Serif" font-size="10.00">SolverUtils::GeoPrim</text>
<text text-anchor="middle" x="477" y="-154" font-family="Helvetica,sans-Serif" font-size="10.00">::CPoint::y</text>
</a>
</g>
</g>
<!-- Node2&#45;&gt;Node6 -->
<g id="edge11" class="edge"><title>Node2&#45;&gt;Node6</title>
<path fill="none" stroke="midnightblue" d="M229.915,-153.056C244.648,-156.74 260.846,-160.153 276,-162 321.341,-167.526 372.895,-167.373 412.304,-165.918"/>
<polygon fill="midnightblue" stroke="midnightblue" points="412.458,-169.415 422.307,-165.511 412.174,-162.42 412.458,-169.415"/>
</g>
<!-- Node7 -->
<g id="node7" class="node"><title>Node7</title>
<g id="a_node7"><a xlink:href="classSolverUtils_1_1GeoPrim_1_1CVector_ad927d9808ded1fc49c05ae9e1a3ed2a6.html#ad927d9808ded1fc49c05ae9e1a3ed2a6" target="_top" xlink:title="SolverUtils::GeoPrim\l::CVector::y">
<polygon fill="none" stroke="black" points="422.5,-98 422.5,-128 531.5,-128 531.5,-98 422.5,-98"/>
<text text-anchor="start" x="430.5" y="-116" font-family="Helvetica,sans-Serif" font-size="10.00">SolverUtils::GeoPrim</text>
<text text-anchor="middle" x="477" y="-105" font-family="Helvetica,sans-Serif" font-size="10.00">::CVector::y</text>
</a>
</g>
</g>
<!-- Node2&#45;&gt;Node7 -->
<g id="edge12" class="edge"><title>Node2&#45;&gt;Node7</title>
<path fill="none" stroke="midnightblue" d="M227.383,-122.975C242.767,-118.89 259.955,-115.034 276,-113 321.314,-107.254 372.868,-107.414 412.285,-108.926"/>
<polygon fill="midnightblue" stroke="midnightblue" points="412.151,-112.424 422.29,-109.349 412.447,-105.43 412.151,-112.424"/>
</g>
<!-- Node8 -->
<g id="node8" class="node"><title>Node8</title>
<g id="a_node8"><a xlink:href="classSolverUtils_1_1GeoPrim_1_1CPoint_a2134ad02d68f29e9c7cd87e4cd4c75b8.html#a2134ad02d68f29e9c7cd87e4cd4c75b8" target="_top" xlink:title="SolverUtils::GeoPrim\l::CPoint::z">
<polygon fill="none" stroke="black" points="422.5,-49 422.5,-79 531.5,-79 531.5,-49 422.5,-49"/>
<text text-anchor="start" x="430.5" y="-67" font-family="Helvetica,sans-Serif" font-size="10.00">SolverUtils::GeoPrim</text>
<text text-anchor="middle" x="477" y="-56" font-family="Helvetica,sans-Serif" font-size="10.00">::CPoint::z</text>
</a>
</g>
</g>
<!-- Node2&#45;&gt;Node8 -->
<g id="edge13" class="edge"><title>Node2&#45;&gt;Node8</title>
<path fill="none" stroke="midnightblue" d="M219.71,-122.878C236.925,-116.816 257.288,-110.079 276,-105 320.998,-92.7853 372.562,-82.2977 412.061,-74.9876"/>
<polygon fill="midnightblue" stroke="midnightblue" points="412.883,-78.3953 422.09,-73.1518 411.623,-71.5097 412.883,-78.3953"/>
</g>
<!-- Node9 -->
<g id="node9" class="node"><title>Node9</title>
<g id="a_node9"><a xlink:href="classSolverUtils_1_1GeoPrim_1_1CVector_a2134ad02d68f29e9c7cd87e4cd4c75b8.html#a2134ad02d68f29e9c7cd87e4cd4c75b8" target="_top" xlink:title="SolverUtils::GeoPrim\l::CVector::z">
<polygon fill="none" stroke="black" points="422.5,-0 422.5,-30 531.5,-30 531.5,-0 422.5,-0"/>
<text text-anchor="start" x="430.5" y="-18" font-family="Helvetica,sans-Serif" font-size="10.00">SolverUtils::GeoPrim</text>
<text text-anchor="middle" x="477" y="-7" font-family="Helvetica,sans-Serif" font-size="10.00">::CVector::z</text>
</a>
</g>
</g>
<!-- Node2&#45;&gt;Node9 -->
<g id="edge14" class="edge"><title>Node2&#45;&gt;Node9</title>
<path fill="none" stroke="midnightblue" d="M199.67,-122.761C218.717,-109.274 248.166,-89.7988 276,-77 319.997,-56.7693 372.36,-40.8052 412.469,-30.1453"/>
<polygon fill="midnightblue" stroke="midnightblue" points="413.601,-33.467 422.39,-27.55 411.829,-26.6949 413.601,-33.467"/>
</g>
<!-- Node3&#45;&gt;Node4 -->
<g id="edge3" class="edge"><title>Node3&#45;&gt;Node4</title>
<path fill="none" stroke="midnightblue" d="M343.024,-153.184C358.672,-173.881 389.101,-211.104 422,-235 424.351,-236.708 426.837,-238.342 429.4,-239.898"/>
<polygon fill="midnightblue" stroke="midnightblue" points="427.89,-243.063 438.328,-244.882 431.303,-236.951 427.89,-243.063"/>
</g>
<!-- Node3&#45;&gt;Node5 -->
<g id="edge4" class="edge"><title>Node3&#45;&gt;Node5</title>
<path fill="none" stroke="midnightblue" d="M359.364,-153.111C377.093,-162.772 400.756,-175.428 422,-186 425.746,-187.864 429.658,-189.764 433.59,-191.642"/>
<polygon fill="midnightblue" stroke="midnightblue" points="432.195,-194.854 442.732,-195.956 435.182,-188.523 432.195,-194.854"/>
</g>
<!-- Node3&#45;&gt;Node6 -->
<g id="edge5" class="edge"><title>Node3&#45;&gt;Node6</title>
<path fill="none" stroke="midnightblue" d="M385.62,-146.937C394.335,-148.389 403.435,-149.906 412.361,-151.393"/>
<polygon fill="midnightblue" stroke="midnightblue" points="411.896,-154.864 422.335,-153.056 413.046,-147.959 411.896,-154.864"/>
</g>
<!-- Node3&#45;&gt;Node7 -->
<g id="edge6" class="edge"><title>Node3&#45;&gt;Node7</title>
<path fill="none" stroke="midnightblue" d="M385.62,-128.691C394.335,-127.178 403.435,-125.598 412.361,-124.048"/>
<polygon fill="midnightblue" stroke="midnightblue" points="413.081,-127.476 422.335,-122.317 411.884,-120.579 413.081,-127.476"/>
</g>
<!-- Node3&#45;&gt;Node8 -->
<g id="edge7" class="edge"><title>Node3&#45;&gt;Node8</title>
<path fill="none" stroke="midnightblue" d="M357.668,-122.941C375.498,-112.679 399.927,-99.0095 422,-88 425.124,-86.4417 428.372,-84.8736 431.656,-83.3258"/>
<polygon fill="midnightblue" stroke="midnightblue" points="433.319,-86.413 440.93,-79.0427 430.384,-80.0579 433.319,-86.413"/>
</g>
<!-- Node3&#45;&gt;Node9 -->
<g id="edge8" class="edge"><title>Node3&#45;&gt;Node9</title>
<path fill="none" stroke="midnightblue" d="M342.64,-122.772C358.065,-101.617 388.484,-63.2118 422,-39 423.858,-37.6577 425.803,-36.3668 427.806,-35.1287"/>
<polygon fill="midnightblue" stroke="midnightblue" points="429.86,-37.9896 436.866,-30.0418 426.433,-31.886 429.86,-37.9896"/>
</g>
</g>
</svg>
