<?xml version="1.0" encoding="UTF-8" standalone="no"?>
<!DOCTYPE svg PUBLIC "-//W3C//DTD SVG 1.1//EN"
 "http://www.w3.org/Graphics/SVG/1.1/DTD/svg11.dtd">
<!-- Generated by graphviz version 2.30.1 (20150305.2338)
 -->
<!-- Title: has_point Pages: 1 -->
<svg width="360pt" height="87pt"
 viewBox="0.00 0.00 360.00 87.00" xmlns="http://www.w3.org/2000/svg" xmlns:xlink="http://www.w3.org/1999/xlink">
<g id="graph0" class="graph" transform="scale(1 1) rotate(0) translate(4 83)">
<title>has_point</title>
<!-- Node1 -->
<g id="node1" class="node"><title>Node1</title>
<polygon fill="#bfbfbf" stroke="black" points="0.5,-29.5 0.5,-48.5 59.5,-48.5 59.5,-29.5 0.5,-29.5"/>
<text text-anchor="middle" x="30" y="-36.5" font-family="Helvetica,sans-Serif" font-size="10.00">has_point</text>
</g>
<!-- Node2 -->
<g id="node2" class="node"><title>Node2</title>
<g id="a_node2"><a xlink:href="classSolverUtils_1_1GeoPrim_1_1CVector_a0126d0fe9bd09bf10febcb659a2bf1a6.html#a0126d0fe9bd09bf10febcb659a2bf1a6" target="_top" xlink:title="SolverUtils::GeoPrim\l::CVector::normalize">
<polygon fill="none" stroke="black" points="96.5,-49 96.5,-79 205.5,-79 205.5,-49 96.5,-49"/>
<text text-anchor="start" x="104.5" y="-67" font-family="Helvetica,sans-Serif" font-size="10.00">SolverUtils::GeoPrim</text>
<text text-anchor="middle" x="151" y="-56" font-family="Helvetica,sans-Serif" font-size="10.00">::CVector::normalize</text>
</a>
</g>
</g>
<!-- Node1&#45;&gt;Node2 -->
<g id="edge1" class="edge"><title>Node1&#45;&gt;Node2</title>
<path fill="none" stroke="midnightblue" d="M59.5035,-44.9881C67.6687,-46.7035 76.9145,-48.6459 86.3003,-50.6177"/>
<polygon fill="midnightblue" stroke="midnightblue" points="85.5866,-54.0441 96.0926,-52.6749 87.0258,-47.1936 85.5866,-54.0441"/>
</g>
<!-- Node4 -->
<g id="node4" class="node"><title>Node4</title>
<g id="a_node4"><a xlink:href="classSolverUtils_1_1GeoPrim_1_1CVector_a2c751c0ebacf0090e671ebd938c879bf.html#a2c751c0ebacf0090e671ebd938c879bf" target="_top" xlink:title="SolverUtils::GeoPrim\l::CVector::unit">
<polygon fill="none" stroke="black" points="96.5,-0 96.5,-30 205.5,-30 205.5,-0 96.5,-0"/>
<text text-anchor="start" x="104.5" y="-18" font-family="Helvetica,sans-Serif" font-size="10.00">SolverUtils::GeoPrim</text>
<text text-anchor="middle" x="151" y="-7" font-family="Helvetica,sans-Serif" font-size="10.00">::CVector::unit</text>
</a>
</g>
</g>
<!-- Node1&#45;&gt;Node4 -->
<g id="edge3" class="edge"><title>Node1&#45;&gt;Node4</title>
<path fill="none" stroke="midnightblue" d="M59.5035,-33.2514C67.5828,-31.622 76.7199,-29.7792 86.0039,-27.9068"/>
<polygon fill="midnightblue" stroke="midnightblue" points="86.9819,-31.2801 96.0926,-25.8721 85.598,-24.4182 86.9819,-31.2801"/>
</g>
<!-- Node3 -->
<g id="node3" class="node"><title>Node3</title>
<g id="a_node3"><a xlink:href="classSolverUtils_1_1GeoPrim_1_1CVector_a0c08e460a130fd3b8eff7eb7484e878a.html#a0c08e460a130fd3b8eff7eb7484e878a" target="_top" xlink:title="SolverUtils::GeoPrim\l::CVector::norm">
<polygon fill="none" stroke="black" points="242.5,-24 242.5,-54 351.5,-54 351.5,-24 242.5,-24"/>
<text text-anchor="start" x="250.5" y="-42" font-family="Helvetica,sans-Serif" font-size="10.00">SolverUtils::GeoPrim</text>
<text text-anchor="middle" x="297" y="-31" font-family="Helvetica,sans-Serif" font-size="10.00">::CVector::norm</text>
</a>
</g>
</g>
<!-- Node2&#45;&gt;Node3 -->
<g id="edge2" class="edge"><title>Node2&#45;&gt;Node3</title>
<path fill="none" stroke="midnightblue" d="M205.62,-54.6909C214.335,-53.1779 223.435,-51.5981 232.361,-50.0485"/>
<polygon fill="midnightblue" stroke="midnightblue" points="233.081,-53.4759 242.335,-48.3169 231.884,-46.579 233.081,-53.4759"/>
</g>
<!-- Node4&#45;&gt;Node3 -->
<g id="edge4" class="edge"><title>Node4&#45;&gt;Node3</title>
<path fill="none" stroke="midnightblue" d="M205.62,-23.9367C214.335,-25.3892 223.435,-26.9058 232.361,-28.3935"/>
<polygon fill="midnightblue" stroke="midnightblue" points="231.896,-31.8641 242.335,-30.0558 233.046,-24.9594 231.896,-31.8641"/>
</g>
</g>
</svg>
