<?xml version="1.0" encoding="UTF-8" standalone="no"?>
<!DOCTYPE svg PUBLIC "-//W3C//DTD SVG 1.1//EN"
 "http://www.w3.org/Graphics/SVG/1.1/DTD/svg11.dtd">
<!-- Generated by graphviz version 2.30.1 (20150305.2338)
 -->
<!-- Title: GetInputData Pages: 1 -->
<!--zoomable 294 -->
<svg id="main" version="1.1" xmlns="http://www.w3.org/2000/svg" xmlns:xlink="http://www.w3.org/1999/xlink" xml:space="preserve" onload="init(evt)">
<style type="text/css"><![CDATA[
.edge:hover path { stroke: red; }
.edge:hover polygon { stroke: red; fill: red; }
]]></style>
<script type="text/javascript"><![CDATA[
var edges = document.getElementsByTagName('g');
if (edges && edges.length) {
  for (var i=0;i<edges.length;i++) {
    if (edges[i].id.substr(0,4)=='edge') {
      edges[i].setAttribute('class','edge');
    }
  }
}
]]></script>
        <defs>
                <circle id="rim" cx="0" cy="0" r="7"/>
                <circle id="rim2" cx="0" cy="0" r="3.5"/>
                <g id="zoomPlus">
                        <use xlink:href="#rim" fill="#404040">
                                <set attributeName="fill" to="#808080" begin="zoomplus.mouseover" end="zoomplus.mouseout"/>
                        </use>
                        <path d="M-4,0h8M0,-4v8" fill="none" stroke="white" stroke-width="1.5" pointer-events="none"/>
                </g>
                <g id="zoomMin">
                        <use xlink:href="#rim" fill="#404040">
                                <set attributeName="fill" to="#808080" begin="zoomminus.mouseover" end="zoomminus.mouseout"/>
                        </use>
                        <path d="M-4,0h8" fill="none" stroke="white" stroke-width="1.5" pointer-events="none"/>
                </g>
                <g id="dirArrow">
                        <path fill="none" stroke="white" stroke-width="1.5" d="M0,-3.0v7 M-2.5,-0.5L0,-3.0L2.5,-0.5"/>
                </g>
               <g id="resetDef">
                       <use xlink:href="#rim2" fill="#404040">
                               <set attributeName="fill" to="#808080" begin="reset.mouseover" end="reset.mouseout"/>
                       </use>
               </g>
        </defs>

<script type="text/javascript">
var viewWidth = 878;
var viewHeight = 294;
var sectionId = 'dynsection-0';
</script>
<script xlink:href="svgpan.js"/>
<svg id="graph" class="graph">
<g id="viewport">
<title>GetInputData</title>
<!-- Node1 -->
<g id="node1" class="node"><title>Node1</title>
<polygon fill="#bfbfbf" stroke="black" points="0.5,-95.5 0.5,-114.5 75.5,-114.5 75.5,-95.5 0.5,-95.5"/>
<text text-anchor="middle" x="38" y="-102.5" font-family="Helvetica,sans-Serif" font-size="10.00">GetInputData</text>
</g>
<!-- Node2 -->
<g id="node2" class="node"><title>Node2</title>
<g id="a_node2"><a xlink:href="classElmerFoamFSI_1_1TestingObject_a6ddf5281e8c291fe3b0db952bc4607e7.html#a6ddf5281e8c291fe3b0db952bc4607e7" target="_top" xlink:title="__helper">
<polygon fill="none" stroke="black" points="112.5,-95.5 112.5,-114.5 165.5,-114.5 165.5,-95.5 112.5,-95.5"/>
<text text-anchor="middle" x="139" y="-102.5" font-family="Helvetica,sans-Serif" font-size="10.00">__helper</text>
</a>
</g>
</g>
<!-- Node1&#45;&gt;Node2 -->
<g id="edge1" class="edge"><title>Node1&#45;&gt;Node2</title>
<path fill="none" stroke="midnightblue" d="M85.8,-105C94.9555,-105 104.235,-105 112.379,-105"/>
<polygon fill="midnightblue" stroke="midnightblue" points="85.5827,-101.5 75.5827,-105 85.5826,-108.5 85.5827,-101.5"/>
</g>
<!-- Node3 -->
<g id="node3" class="node"><title>Node3</title>
<g id="a_node3"><a xlink:href="classElmerFoamFSI_1_1TestingObject_aa7d577bcec96bb12da930ede076b6023.html#aa7d577bcec96bb12da930ede076b6023" target="_top" xlink:title="Test for fluidAgent&#45;&gt;Run() function. ">
<polygon fill="none" stroke="black" points="423.5,-266.5 423.5,-285.5 534.5,-285.5 534.5,-266.5 423.5,-266.5"/>
<text text-anchor="middle" x="479" y="-273.5" font-family="Helvetica,sans-Serif" font-size="10.00">Test__FluidAgentRun</text>
</a>
</g>
</g>
<!-- Node2&#45;&gt;Node3 -->
<g id="edge2" class="edge"><title>Node2&#45;&gt;Node3</title>
<path fill="none" stroke="midnightblue" d="M147.6,-124.125C157.134,-145.692 175.511,-180.312 202,-200 267.916,-248.993 363.737,-266.403 423.39,-272.59"/>
<polygon fill="midnightblue" stroke="midnightblue" points="150.741,-122.565 143.633,-114.709 144.29,-125.283 150.741,-122.565"/>
</g>
<!-- Node9 -->
<g id="node9" class="node"><title>Node9</title>
<g id="a_node9"><a xlink:href="classElmerFoamFSI_1_1TestingObject_a4447b305a9896c53dbfb1c57b3854e2b.html#a4447b305a9896c53dbfb1c57b3854e2b" target="_top" xlink:title="Initalize function for the fsiCoupler and agents. ">
<polygon fill="none" stroke="black" points="202,-171.5 202,-190.5 360,-190.5 360,-171.5 202,-171.5"/>
<text text-anchor="middle" x="281" y="-178.5" font-family="Helvetica,sans-Serif" font-size="10.00">Test__fsiCouplerAgentsInitialize</text>
</a>
</g>
</g>
<!-- Node2&#45;&gt;Node9 -->
<g id="edge9" class="edge"><title>Node2&#45;&gt;Node9</title>
<path fill="none" stroke="midnightblue" d="M166.628,-119.455C194.753,-134.723 238.295,-158.36 262.413,-171.453"/>
<polygon fill="midnightblue" stroke="midnightblue" points="168.189,-116.32 157.731,-114.625 164.85,-122.472 168.189,-116.32"/>
</g>
<!-- Node13 -->
<g id="node13" class="node"><title>Node13</title>
<g id="a_node13"><a xlink:href="classElmerFoamFSI_1_1TestingObject_a1d2b3819e3dd81414640d57922b78d4b.html#a1d2b3819e3dd81414640d57922b78d4b" target="_top" xlink:title="Test__GetInput">
<polygon fill="none" stroke="black" points="239,-0.5 239,-19.5 323,-19.5 323,-0.5 239,-0.5"/>
<text text-anchor="middle" x="281" y="-7.5" font-family="Helvetica,sans-Serif" font-size="10.00">Test__GetInput</text>
</a>
</g>
</g>
<!-- Node2&#45;&gt;Node13 -->
<g id="edge19" class="edge"><title>Node2&#45;&gt;Node13</title>
<path fill="none" stroke="midnightblue" d="M151.658,-86.6436C162.763,-70.5714 180.887,-47.7042 202,-34 213.052,-26.8261 226.368,-21.6971 238.845,-18.0741"/>
<polygon fill="midnightblue" stroke="midnightblue" points="148.589,-84.9372 145.961,-95.2008 154.416,-88.8164 148.589,-84.9372"/>
</g>
<!-- Node14 -->
<g id="node14" class="node"><title>Node14</title>
<g id="a_node14"><a xlink:href="classElmerFoamFSI_1_1TestingObject_a1fae1ccecf337df1572d5a43cdae1a08.html#a1fae1ccecf337df1572d5a43cdae1a08" target="_top" xlink:title="Test for solidAgent&#45;&gt;Run() function. ">
<polygon fill="none" stroke="black" points="423,-114.5 423,-133.5 535,-133.5 535,-114.5 423,-114.5"/>
<text text-anchor="middle" x="479" y="-121.5" font-family="Helvetica,sans-Serif" font-size="10.00">Test__SolidAgentRun</text>
</a>
</g>
</g>
<!-- Node2&#45;&gt;Node14 -->
<g id="edge20" class="edge"><title>Node2&#45;&gt;Node14</title>
<path fill="none" stroke="midnightblue" d="M176.004,-107.024C235.082,-110.345 352.983,-116.972 422.711,-120.892"/>
<polygon fill="midnightblue" stroke="midnightblue" points="175.863,-103.511 165.682,-106.444 175.47,-110.5 175.863,-103.511"/>
</g>
<!-- Node15 -->
<g id="node15" class="node"><title>Node15</title>
<g id="a_node15"><a xlink:href="classElmerFoamFSI_1_1TestingObject_abb3c0f68a2d2e212fa6e05e4628c78f0.html#abb3c0f68a2d2e212fa6e05e4628c78f0" target="_top" xlink:title="Test for fsiCoupling::TrasferDisplacementsToFluid function. ">
<polygon fill="none" stroke="black" points="405,-65 405,-95 553,-95 553,-65 405,-65"/>
<text text-anchor="start" x="413" y="-83" font-family="Helvetica,sans-Serif" font-size="10.00">Test__TransferDisplacements</text>
<text text-anchor="middle" x="479" y="-72" font-family="Helvetica,sans-Serif" font-size="10.00">ToFluid</text>
</a>
</g>
</g>
<!-- Node2&#45;&gt;Node15 -->
<g id="edge23" class="edge"><title>Node2&#45;&gt;Node15</title>
<path fill="none" stroke="midnightblue" d="M175.842,-102.349C230.088,-98.3367 334.194,-90.6365 404.871,-85.4089"/>
<polygon fill="midnightblue" stroke="midnightblue" points="175.397,-98.8722 165.682,-103.1 175.913,-105.853 175.397,-98.8722"/>
</g>
<!-- Node16 -->
<g id="node16" class="node"><title>Node16</title>
<g id="a_node16"><a xlink:href="classElmerFoamFSI_1_1TestingObject_a8c738943eca358248eb583bd29c5c332.html#a8c738943eca358248eb583bd29c5c332" target="_top" xlink:title="Test for TransferLoadsToStructures() function. ">
<polygon fill="none" stroke="black" points="396.5,-26.5 396.5,-45.5 561.5,-45.5 561.5,-26.5 396.5,-26.5"/>
<text text-anchor="middle" x="479" y="-33.5" font-family="Helvetica,sans-Serif" font-size="10.00">Test__TransferLoadsToStructures</text>
</a>
</g>
</g>
<!-- Node2&#45;&gt;Node16 -->
<g id="edge26" class="edge"><title>Node2&#45;&gt;Node16</title>
<path fill="none" stroke="midnightblue" d="M175.476,-92.6389C184.091,-89.8923 193.323,-87.1592 202,-85 271.894,-67.6084 353.22,-53.9487 409.4,-45.5186"/>
<polygon fill="midnightblue" stroke="midnightblue" points="174.129,-89.397 165.716,-95.8358 176.308,-96.0493 174.129,-89.397"/>
</g>
<!-- Node4 -->
<g id="node4" class="node"><title>Node4</title>
<g id="a_node4"><a xlink:href="classElmerFoamFSI_1_1TestingObject_a046f7ab06db0acf616b0d2bf3d3146aa.html#a046f7ab06db0acf616b0d2bf3d3146aa" target="_top" xlink:title="Runs all tests implemented by the ElmerFoamFSI::TestingObject. ">
<polygon fill="none" stroke="black" points="598.5,-171.5 598.5,-190.5 651.5,-190.5 651.5,-171.5 598.5,-171.5"/>
<text text-anchor="middle" x="625" y="-178.5" font-family="Helvetica,sans-Serif" font-size="10.00">Process</text>
</a>
</g>
</g>
<!-- Node3&#45;&gt;Node4 -->
<g id="edge3" class="edge"><title>Node3&#45;&gt;Node4</title>
<path fill="none" stroke="midnightblue" d="M544.35,-265.48C550.547,-263.188 556.546,-260.397 562,-257 589.172,-240.074 609.872,-207.021 618.952,-190.655"/>
<polygon fill="midnightblue" stroke="midnightblue" points="542.925,-262.263 534.501,-268.688 545.093,-268.919 542.925,-262.263"/>
</g>
<!-- Node7 -->
<g id="node7" class="node"><title>Node7</title>
<g id="a_node7"><a xlink:href="classElmerFoamFSI_1_1TestingObject_af1f07f14b9af7708e4264bb38937eed2.html#af1f07f14b9af7708e4264bb38937eed2" target="_top" xlink:title="Runs a test specified by name. ">
<polygon fill="none" stroke="black" points="598,-133.5 598,-152.5 652,-152.5 652,-133.5 598,-133.5"/>
<text text-anchor="middle" x="625" y="-140.5" font-family="Helvetica,sans-Serif" font-size="10.00">RunTest</text>
</a>
</g>
</g>
<!-- Node3&#45;&gt;Node7 -->
<g id="edge6" class="edge"><title>Node3&#45;&gt;Node7</title>
<path fill="none" stroke="midnightblue" d="M544.368,-267.728C550.783,-265.024 556.825,-261.522 562,-257 596.001,-227.291 570.64,-197.918 598,-162 600.71,-158.442 604.266,-155.252 607.873,-152.548"/>
<polygon fill="midnightblue" stroke="midnightblue" points="543.01,-264.496 534.761,-271.144 545.355,-271.091 543.01,-264.496"/>
</g>
<!-- Node5 -->
<g id="node5" class="node"><title>Node5</title>
<g id="a_node5"><a xlink:href="namespaceElmerFoamFSI_aeb590657609088b8ab12a5cbd164fcfa.html#aeb590657609088b8ab12a5cbd164fcfa" target="_top" xlink:title="Drives the ElmerFoamFSI::TestObject. ">
<polygon fill="none" stroke="black" points="688,-171.5 688,-190.5 796,-190.5 796,-171.5 688,-171.5"/>
<text text-anchor="middle" x="742" y="-178.5" font-family="Helvetica,sans-Serif" font-size="10.00">ElmerFoamFSI::Test</text>
</a>
</g>
</g>
<!-- Node4&#45;&gt;Node5 -->
<g id="edge4" class="edge"><title>Node4&#45;&gt;Node5</title>
<path fill="none" stroke="midnightblue" d="M661.58,-181C669.874,-181 678.882,-181 687.755,-181"/>
<polygon fill="midnightblue" stroke="midnightblue" points="661.522,-177.5 651.522,-181 661.522,-184.5 661.522,-177.5"/>
</g>
<!-- Node6 -->
<g id="node6" class="node"><title>Node6</title>
<g id="a_node6"><a xlink:href="TestElmerFoamFSI_8C_a0ddf1224851353fc92bfbff6f499fa97.html#a0ddf1224851353fc92bfbff6f499fa97" target="_top" xlink:title="main">
<polygon fill="none" stroke="black" points="832,-171.5 832,-190.5 870,-190.5 870,-171.5 832,-171.5"/>
<text text-anchor="middle" x="851" y="-178.5" font-family="Helvetica,sans-Serif" font-size="10.00">main</text>
</a>
</g>
</g>
<!-- Node5&#45;&gt;Node6 -->
<g id="edge5" class="edge"><title>Node5&#45;&gt;Node6</title>
<path fill="none" stroke="midnightblue" d="M806.335,-181C815.591,-181 824.44,-181 831.722,-181"/>
<polygon fill="midnightblue" stroke="midnightblue" points="806.187,-177.5 796.187,-181 806.186,-184.5 806.187,-177.5"/>
</g>
<!-- Node8 -->
<g id="node8" class="node"><title>Node8</title>
<g id="a_node8"><a xlink:href="classElmerFoamFSI_1_1TestingObject_a21159bd2efac623e5a5079f6a20f3444.html#a21159bd2efac623e5a5079f6a20f3444" target="_top" xlink:title="Runs a list of tests specified by name. ">
<polygon fill="none" stroke="black" points="703.5,-133.5 703.5,-152.5 780.5,-152.5 780.5,-133.5 703.5,-133.5"/>
<text text-anchor="middle" x="742" y="-140.5" font-family="Helvetica,sans-Serif" font-size="10.00">ProcessTests</text>
</a>
</g>
</g>
<!-- Node7&#45;&gt;Node8 -->
<g id="edge7" class="edge"><title>Node7&#45;&gt;Node8</title>
<path fill="none" stroke="midnightblue" d="M662.151,-143C675.227,-143 690.019,-143 703.23,-143"/>
<polygon fill="midnightblue" stroke="midnightblue" points="662.095,-139.5 652.095,-143 662.095,-146.5 662.095,-139.5"/>
</g>
<!-- Node7&#45;&gt;Node5 -->
<g id="edge8" class="edge"><title>Node7&#45;&gt;Node5</title>
<path fill="none" stroke="midnightblue" d="M661.783,-154.824C677.994,-160.181 696.904,-166.429 712.182,-171.478"/>
<polygon fill="midnightblue" stroke="midnightblue" points="662.688,-151.437 652.095,-151.623 660.492,-158.084 662.688,-151.437"/>
</g>
<!-- Node10 -->
<g id="node10" class="node"><title>Node10</title>
<g id="a_node10"><a xlink:href="classElmerFoamFSI_1_1TestingObject_af35b4f0c5c244be91e637c17b3ebabd9.html#af35b4f0c5c244be91e637c17b3ebabd9" target="_top" xlink:title="Run an initialization check to make sure that the ElmerStructures are running as they should...">
<polygon fill="none" stroke="black" points="420.5,-228.5 420.5,-247.5 537.5,-247.5 537.5,-228.5 420.5,-228.5"/>
<text text-anchor="middle" x="479" y="-235.5" font-family="Helvetica,sans-Serif" font-size="10.00">Test__ElmerStructures</text>
</a>
</g>
</g>
<!-- Node9&#45;&gt;Node10 -->
<g id="edge10" class="edge"><title>Node9&#45;&gt;Node10</title>
<path fill="none" stroke="midnightblue" d="M318.21,-194.039C340.485,-201.818 369.706,-211.589 396,-219 407.955,-222.37 421.012,-225.596 433.12,-228.403"/>
<polygon fill="midnightblue" stroke="midnightblue" points="319.094,-190.64 308.5,-190.621 316.77,-197.243 319.094,-190.64"/>
</g>
<!-- Node11 -->
<g id="node11" class="node"><title>Node11</title>
<g id="a_node11"><a xlink:href="classElmerFoamFSI_1_1TestingObject_a07ff57097065c5066a4421176b63242b.html#a07ff57097065c5066a4421176b63242b" target="_top" xlink:title="Test the functionality of the fsiCoupler. ">
<polygon fill="none" stroke="black" points="432,-190.5 432,-209.5 526,-209.5 526,-190.5 432,-190.5"/>
<text text-anchor="middle" x="479" y="-197.5" font-family="Helvetica,sans-Serif" font-size="10.00">Test__FsiCoupler</text>
</a>
</g>
</g>
<!-- Node9&#45;&gt;Node11 -->
<g id="edge13" class="edge"><title>Node9&#45;&gt;Node11</title>
<path fill="none" stroke="midnightblue" d="M370.091,-189.539C391.406,-191.606 413.352,-193.733 431.842,-195.525"/>
<polygon fill="midnightblue" stroke="midnightblue" points="370.319,-186.045 360.028,-188.564 369.643,-193.013 370.319,-186.045"/>
</g>
<!-- Node12 -->
<g id="node12" class="node"><title>Node12</title>
<g id="a_node12"><a xlink:href="classElmerFoamFSI_1_1TestingObject_a08d0370a943e7c47c0098eb76664a71b.html#a08d0370a943e7c47c0098eb76664a71b" target="_top" xlink:title="Run an initialization check to make sure the OpenFoamFluids are running as they should. ">
<polygon fill="none" stroke="black" points="418.5,-152.5 418.5,-171.5 539.5,-171.5 539.5,-152.5 418.5,-152.5"/>
<text text-anchor="middle" x="479" y="-159.5" font-family="Helvetica,sans-Serif" font-size="10.00">Test__OpenFoamFluids</text>
</a>
</g>
</g>
<!-- Node9&#45;&gt;Node12 -->
<g id="edge16" class="edge"><title>Node9&#45;&gt;Node12</title>
<path fill="none" stroke="midnightblue" d="M370.126,-172.457C386.448,-170.875 403.14,-169.257 418.364,-167.781"/>
<polygon fill="midnightblue" stroke="midnightblue" points="369.643,-168.987 360.028,-173.436 370.319,-175.955 369.643,-168.987"/>
</g>
<!-- Node10&#45;&gt;Node4 -->
<g id="edge11" class="edge"><title>Node10&#45;&gt;Node4</title>
<path fill="none" stroke="midnightblue" d="M542.588,-225.724C549.237,-223.763 555.822,-221.531 562,-219 579.991,-211.63 598.773,-199.376 610.884,-190.781"/>
<polygon fill="midnightblue" stroke="midnightblue" points="541.554,-222.378 532.839,-228.404 543.409,-229.127 541.554,-222.378"/>
</g>
<!-- Node10&#45;&gt;Node7 -->
<g id="edge12" class="edge"><title>Node10&#45;&gt;Node7</title>
<path fill="none" stroke="midnightblue" d="M547.216,-227.149C552.45,-224.913 557.458,-222.226 562,-219 586.428,-201.649 577.543,-183.893 598,-162 601.206,-158.569 605.108,-155.344 608.903,-152.559"/>
<polygon fill="midnightblue" stroke="midnightblue" points="545.765,-223.954 537.601,-230.707 548.194,-230.519 545.765,-223.954"/>
</g>
<!-- Node11&#45;&gt;Node4 -->
<g id="edge14" class="edge"><title>Node11&#45;&gt;Node4</title>
<path fill="none" stroke="midnightblue" d="M536.345,-192.566C557.745,-189.742 581.084,-186.663 598.295,-184.392"/>
<polygon fill="midnightblue" stroke="midnightblue" points="535.811,-189.106 526.355,-193.884 536.727,-196.045 535.811,-189.106"/>
</g>
<!-- Node11&#45;&gt;Node7 -->
<g id="edge15" class="edge"><title>Node11&#45;&gt;Node7</title>
<path fill="none" stroke="midnightblue" d="M536.197,-189.522C544.982,-187.161 553.845,-184.34 562,-181 579.991,-173.63 598.773,-161.376 610.884,-152.781"/>
<polygon fill="midnightblue" stroke="midnightblue" points="535.199,-186.164 526.353,-191.995 536.905,-192.953 535.199,-186.164"/>
</g>
<!-- Node12&#45;&gt;Node4 -->
<g id="edge17" class="edge"><title>Node12&#45;&gt;Node4</title>
<path fill="none" stroke="midnightblue" d="M549.937,-171.228C567.206,-173.506 584.633,-175.806 598.24,-177.601"/>
<polygon fill="midnightblue" stroke="midnightblue" points="550.19,-167.731 539.818,-169.893 549.274,-174.671 550.19,-167.731"/>
</g>
<!-- Node12&#45;&gt;Node7 -->
<g id="edge18" class="edge"><title>Node12&#45;&gt;Node7</title>
<path fill="none" stroke="midnightblue" d="M549.86,-152.782C566.997,-150.521 584.296,-148.239 597.869,-146.448"/>
<polygon fill="midnightblue" stroke="midnightblue" points="549.274,-149.329 539.818,-154.107 550.19,-156.269 549.274,-149.329"/>
</g>
<!-- Node14&#45;&gt;Node4 -->
<g id="edge21" class="edge"><title>Node14&#45;&gt;Node4</title>
<path fill="none" stroke="midnightblue" d="M542.588,-136.276C549.237,-138.237 555.822,-140.469 562,-143 579.991,-150.37 598.773,-162.624 610.884,-171.219"/>
<polygon fill="midnightblue" stroke="midnightblue" points="543.409,-132.873 532.839,-133.596 541.554,-139.622 543.409,-132.873"/>
</g>
<!-- Node14&#45;&gt;Node7 -->
<g id="edge22" class="edge"><title>Node14&#45;&gt;Node7</title>
<path fill="none" stroke="midnightblue" d="M545.423,-132.632C563.875,-135.067 582.908,-137.578 597.62,-139.519"/>
<polygon fill="midnightblue" stroke="midnightblue" points="545.634,-129.13 535.262,-131.292 544.719,-136.07 545.634,-129.13"/>
</g>
<!-- Node15&#45;&gt;Node4 -->
<g id="edge24" class="edge"><title>Node15&#45;&gt;Node4</title>
<path fill="none" stroke="midnightblue" d="M554.22,-99.7704C556.929,-101.38 559.535,-103.12 562,-105 585.822,-123.174 577.543,-140.107 598,-162 601.206,-165.431 605.108,-168.656 608.903,-171.441"/>
<polygon fill="midnightblue" stroke="midnightblue" points="555.749,-96.6197 545.27,-95.0593 552.489,-102.814 555.749,-96.6197"/>
</g>
<!-- Node15&#45;&gt;Node7 -->
<g id="edge25" class="edge"><title>Node15&#45;&gt;Node7</title>
<path fill="none" stroke="midnightblue" d="M546.114,-98.5421C551.553,-100.554 556.911,-102.71 562,-105 579.499,-112.875 598.075,-124.795 610.281,-133.18"/>
<polygon fill="midnightblue" stroke="midnightblue" points="546.873,-95.0987 536.278,-95.0792 544.548,-101.701 546.873,-95.0987"/>
</g>
<!-- Node16&#45;&gt;Node4 -->
<g id="edge27" class="edge"><title>Node16&#45;&gt;Node4</title>
<path fill="none" stroke="midnightblue" d="M556.57,-50.6827C558.469,-52.0079 560.286,-53.444 562,-55 599.155,-88.7199 568.353,-121.52 598,-162 600.577,-165.518 603.997,-168.656 607.507,-171.319"/>
<polygon fill="midnightblue" stroke="midnightblue" points="558.175,-47.5673 547.773,-45.5554 554.651,-53.615 558.175,-47.5673"/>
</g>
<!-- Node16&#45;&gt;Node7 -->
<g id="edge28" class="edge"><title>Node16&#45;&gt;Node7</title>
<path fill="none" stroke="midnightblue" d="M552.71,-49.6596C555.945,-51.2496 559.062,-53.0228 562,-55 591.924,-75.1382 611.968,-114.929 620.02,-133.294"/>
<polygon fill="midnightblue" stroke="midnightblue" points="553.9,-46.3618 543.329,-45.6462 551.147,-52.7976 553.9,-46.3618"/>
</g>
</g>
</svg>
        <g id="navigator" transform="translate(0 0)" fill="#404254">
                <rect fill="#f2f5e9" fill-opacity="0.5" stroke="#606060" stroke-width=".5" x="0" y="0" width="60" height="60"/>
                <use id="zoomplus" xlink:href="#zoomPlus" x="17" y="9" onmousedown="handleZoom(evt,'in')"/>
                <use id="zoomminus" xlink:href="#zoomMin" x="42" y="9" onmousedown="handleZoom(evt,'out')"/>
                <use id="reset" xlink:href="#resetDef" x="30" y="36" onmousedown="handleReset()"/>
                <g id="arrowUp" xlink:href="#dirArrow" transform="translate(30 24)" onmousedown="handlePan(0,-1)">
                  <use xlink:href="#rim" fill="#404040">
                        <set attributeName="fill" to="#808080" begin="arrowUp.mouseover" end="arrowUp.mouseout"/>
                  </use>
                  <path fill="none" stroke="white" stroke-width="1.5" d="M0,-3.0v7 M-2.5,-0.5L0,-3.0L2.5,-0.5"/>
                </g>
                <g id="arrowRight" xlink:href="#dirArrow" transform="rotate(90) translate(36 -43)" onmousedown="handlePan(1,0)">
                  <use xlink:href="#rim" fill="#404040">
                        <set attributeName="fill" to="#808080" begin="arrowRight.mouseover" end="arrowRight.mouseout"/>
                  </use>
                  <path fill="none" stroke="white" stroke-width="1.5" d="M0,-3.0v7 M-2.5,-0.5L0,-3.0L2.5,-0.5"/>
                </g>
                <g id="arrowDown" xlink:href="#dirArrow" transform="rotate(180) translate(-30 -48)" onmousedown="handlePan(0,1)">
                  <use xlink:href="#rim" fill="#404040">
                        <set attributeName="fill" to="#808080" begin="arrowDown.mouseover" end="arrowDown.mouseout"/>
                  </use>
                  <path fill="none" stroke="white" stroke-width="1.5" d="M0,-3.0v7 M-2.5,-0.5L0,-3.0L2.5,-0.5"/>
                </g>
                <g id="arrowLeft" xlink:href="#dirArrow" transform="rotate(270) translate(-36 17)" onmousedown="handlePan(-1,0)">
                  <use xlink:href="#rim" fill="#404040">
                        <set attributeName="fill" to="#808080" begin="arrowLeft.mouseover" end="arrowLeft.mouseout"/>
                  </use>
                  <path fill="none" stroke="white" stroke-width="1.5" d="M0,-3.0v7 M-2.5,-0.5L0,-3.0L2.5,-0.5"/>
                </g>
        </g>
        <svg viewBox="0 0 15 15" width="100%" height="30px" preserveAspectRatio="xMaxYMin meet">
         <g id="arrow_out" transform="scale(0.3 0.3)">
          <a xlink:href="classElmerFoamFSI_1_1TestingObject_a90864b099beaf9044bf8fff8a9857c0d_a90864b099beaf9044bf8fff8a9857c0d_icgraph_org.svg" target="_base">
           <rect id="button" ry="5" rx="5" y="6" x="6" height="38" width="38"
                fill="#f2f5e9" fill-opacity="0.5" stroke="#606060" stroke-width="1.0"/>
           <path id="arrow"
             d="M 11.500037,31.436501 C 11.940474,20.09759 22.043105,11.32322 32.158766,21.979434 L 37.068811,17.246167 C 37.068811,17.246167 37.088388,32 37.088388,32 L 22.160133,31.978069 C 22.160133,31.978069 26.997745,27.140456 26.997745,27.140456 C 18.528582,18.264221 13.291696,25.230495 11.500037,31.436501 z"
             style="fill:#404040;"/>
          </a>
         </g>
        </svg>
</svg>
