<?xml version="1.0" encoding="UTF-8" standalone="no"?>
<!DOCTYPE svg PUBLIC "-//W3C//DTD SVG 1.1//EN"
 "http://www.w3.org/Graphics/SVG/1.1/DTD/svg11.dtd">
<!-- Generated by graphviz version 2.30.1 (20150305.2338)
 -->
<!-- Title: TransferObjectPar Pages: 1 -->
<svg width="794pt" height="121pt"
 viewBox="0.00 0.00 794.00 121.00" xmlns="http://www.w3.org/2000/svg" xmlns:xlink="http://www.w3.org/1999/xlink">
<g id="graph0" class="graph" transform="scale(1 1) rotate(0) translate(4 117)">
<title>TransferObjectPar</title>
<!-- Node1 -->
<g id="node1" class="node"><title>Node1</title>
<polygon fill="#bfbfbf" stroke="black" points="0,-49.5 0,-68.5 96,-68.5 96,-49.5 0,-49.5"/>
<text text-anchor="middle" x="48" y="-56.5" font-family="Helvetica,sans-Serif" font-size="10.00">TransferObjectPar</text>
</g>
<!-- Node2 -->
<g id="node2" class="node"><title>Node2</title>
<g id="a_node2"><a xlink:href="com__c_09_09_8hpp_acbbf9749cce36d33b4c60c100bdfaea2.html#acbbf9749cce36d33b4c60c100bdfaea2" target="_top" xlink:title="COM_get_function_handle">
<polygon fill="none" stroke="black" points="326,-71.5 326,-90.5 458,-90.5 458,-71.5 326,-71.5"/>
<text text-anchor="middle" x="392" y="-78.5" font-family="Helvetica,sans-Serif" font-size="10.00">COM_get_function_handle</text>
</a>
</g>
</g>
<!-- Node1&#45;&gt;Node2 -->
<g id="edge1" class="edge"><title>Node1&#45;&gt;Node2</title>
<path fill="none" stroke="midnightblue" d="M75.1254,-68.6067C91.2662,-74.0236 112.544,-80.2436 132,-83 193.461,-91.7076 263.951,-90.4426 315.859,-87.4282"/>
<polygon fill="midnightblue" stroke="midnightblue" points="316.219,-90.9128 325.985,-86.8045 315.789,-83.926 316.219,-90.9128"/>
</g>
<!-- Node6 -->
<g id="node6" class="node"><title>Node6</title>
<g id="a_node6"><a xlink:href="namespaceSolverUtils_a861d12c375b5d430ea1dcaf25babcb62.html#a861d12c375b5d430ea1dcaf25babcb62" target="_top" xlink:title="SolverUtils::COM_LOAD\l_MODULE_STATIC_DYNAMIC">
<polygon fill="none" stroke="black" points="132,-44 132,-74 290,-74 290,-44 132,-44"/>
<text text-anchor="start" x="140" y="-62" font-family="Helvetica,sans-Serif" font-size="10.00">SolverUtils::COM_LOAD</text>
<text text-anchor="middle" x="211" y="-51" font-family="Helvetica,sans-Serif" font-size="10.00">_MODULE_STATIC_DYNAMIC</text>
</a>
</g>
</g>
<!-- Node1&#45;&gt;Node6 -->
<g id="edge5" class="edge"><title>Node1&#45;&gt;Node6</title>
<path fill="none" stroke="midnightblue" d="M96.0007,-59C104.16,-59 112.879,-59 121.724,-59"/>
<polygon fill="midnightblue" stroke="midnightblue" points="121.741,-62.5001 131.741,-59 121.741,-55.5001 121.741,-62.5001"/>
</g>
<!-- Node7 -->
<g id="node7" class="node"><title>Node7</title>
<g id="a_node7"><a xlink:href="classSolverUtils_1_1TransferObjectPar_afcf020c11994915b042e41f83bb53725.html#afcf020c11994915b042e41f83bb53725" target="_top" xlink:title="SetVerbosity">
<polygon fill="none" stroke="black" points="174.5,-5.5 174.5,-24.5 247.5,-24.5 247.5,-5.5 174.5,-5.5"/>
<text text-anchor="middle" x="211" y="-12.5" font-family="Helvetica,sans-Serif" font-size="10.00">SetVerbosity</text>
</a>
</g>
</g>
<!-- Node1&#45;&gt;Node7 -->
<g id="edge6" class="edge"><title>Node1&#45;&gt;Node7</title>
<path fill="none" stroke="midnightblue" d="M79.2425,-49.4655C94.9263,-44.629 114.43,-38.7824 132,-34 142.395,-31.1706 153.624,-28.3176 164.235,-25.7132"/>
<polygon fill="midnightblue" stroke="midnightblue" points="165.28,-29.0613 174.173,-23.3013 163.629,-22.2588 165.28,-29.0613"/>
</g>
<!-- Node3 -->
<g id="node3" class="node"><title>Node3</title>
<g id="a_node3"><a xlink:href="COM__base_8hpp_a49353596e53127db61529b5c9000549d.html#a49353596e53127db61529b5c9000549d" target="_top" xlink:title="COM_get_com">
<polygon fill="none" stroke="black" points="510.5,-93.5 510.5,-112.5 593.5,-112.5 593.5,-93.5 510.5,-93.5"/>
<text text-anchor="middle" x="552" y="-100.5" font-family="Helvetica,sans-Serif" font-size="10.00">COM_get_com</text>
</a>
</g>
</g>
<!-- Node2&#45;&gt;Node3 -->
<g id="edge2" class="edge"><title>Node2&#45;&gt;Node3</title>
<path fill="none" stroke="midnightblue" d="M458.177,-90.0753C472.267,-92.0371 486.962,-94.0833 500.394,-95.9536"/>
<polygon fill="midnightblue" stroke="midnightblue" points="500.001,-99.4325 510.388,-97.3452 500.966,-92.4994 500.001,-99.4325"/>
</g>
<!-- Node5 -->
<g id="node5" class="node"><title>Node5</title>
<g id="a_node5"><a xlink:href="classCOM_1_1COM__base_a640995dd65a1fb030650457b9cf10b26.html#a640995dd65a1fb030650457b9cf10b26" target="_top" xlink:title="COM::COM_base::get\l_function_handle">
<polygon fill="none" stroke="black" points="494.5,-44 494.5,-74 609.5,-74 609.5,-44 494.5,-44"/>
<text text-anchor="start" x="502.5" y="-62" font-family="Helvetica,sans-Serif" font-size="10.00">COM::COM_base::get</text>
<text text-anchor="middle" x="552" y="-51" font-family="Helvetica,sans-Serif" font-size="10.00">_function_handle</text>
</a>
</g>
</g>
<!-- Node2&#45;&gt;Node5 -->
<g id="edge4" class="edge"><title>Node2&#45;&gt;Node5</title>
<path fill="none" stroke="midnightblue" d="M458.177,-71.9247C466.731,-70.7337 475.507,-69.5116 484.089,-68.3167"/>
<polygon fill="midnightblue" stroke="midnightblue" points="484.627,-71.7756 494.049,-66.9299 483.662,-64.8425 484.627,-71.7756"/>
</g>
<!-- Node4 -->
<g id="node4" class="node"><title>Node4</title>
<g id="a_node4"><a xlink:href="classCOM_1_1COM__base_a77bb770b9ec1aac99361c45efbccabc1.html#a77bb770b9ec1aac99361c45efbccabc1" target="_top" xlink:title="Get a pointer to the COM object. ">
<polygon fill="none" stroke="black" points="646.5,-93.5 646.5,-112.5 785.5,-112.5 785.5,-93.5 646.5,-93.5"/>
<text text-anchor="middle" x="716" y="-100.5" font-family="Helvetica,sans-Serif" font-size="10.00">COM::COM_base::get_com</text>
</a>
</g>
</g>
<!-- Node3&#45;&gt;Node4 -->
<g id="edge3" class="edge"><title>Node3&#45;&gt;Node4</title>
<path fill="none" stroke="midnightblue" d="M593.879,-103C606.826,-103 621.603,-103 636.279,-103"/>
<polygon fill="midnightblue" stroke="midnightblue" points="636.4,-106.5 646.4,-103 636.4,-99.5001 636.4,-106.5"/>
</g>
<!-- Node8 -->
<g id="node8" class="node"><title>Node8</title>
<g id="a_node8"><a xlink:href="namespaceSolverUtils_ab602f331b052ecdbea6aa8caa0eeed75.html#ab602f331b052ecdbea6aa8caa0eeed75" target="_top" xlink:title="SolverUtils::COM_call\l_function">
<polygon fill="none" stroke="black" points="335,-0 335,-30 449,-30 449,-0 335,-0"/>
<text text-anchor="start" x="343" y="-18" font-family="Helvetica,sans-Serif" font-size="10.00">SolverUtils::COM_call</text>
<text text-anchor="middle" x="392" y="-7" font-family="Helvetica,sans-Serif" font-size="10.00">_function</text>
</a>
</g>
</g>
<!-- Node7&#45;&gt;Node8 -->
<g id="edge7" class="edge"><title>Node7&#45;&gt;Node8</title>
<path fill="none" stroke="midnightblue" d="M247.793,-15C269.77,-15 298.603,-15 324.632,-15"/>
<polygon fill="midnightblue" stroke="midnightblue" points="324.828,-18.5001 334.828,-15 324.828,-11.5001 324.828,-18.5001"/>
</g>
<!-- Node7&#45;&gt;Node2 -->
<g id="edge8" class="edge"><title>Node7&#45;&gt;Node2</title>
<path fill="none" stroke="midnightblue" d="M247.764,-22.1577C261.18,-25.2464 276.453,-29.2499 290,-34 315.879,-43.0741 344.076,-56.5156 364.084,-66.7024"/>
<polygon fill="midnightblue" stroke="midnightblue" points="362.711,-69.9321 373.202,-71.4083 365.921,-63.7117 362.711,-69.9321"/>
</g>
</g>
</svg>
