<?xml version="1.0" encoding="UTF-8" standalone="no"?>
<!DOCTYPE svg PUBLIC "-//W3C//DTD SVG 1.1//EN"
 "http://www.w3.org/Graphics/SVG/1.1/DTD/svg11.dtd">
<!-- Generated by graphviz version 2.30.1 (20150305.2338)
 -->
<!-- Title: TestObject Pages: 1 -->
<svg width="179pt" height="166pt"
 viewBox="0.00 0.00 179.00 166.00" xmlns="http://www.w3.org/2000/svg" xmlns:xlink="http://www.w3.org/1999/xlink">
<g id="graph0" class="graph" transform="scale(1 1) rotate(0) translate(4 162)">
<title>TestObject</title>
<!-- Node1 -->
<g id="node1" class="node"><title>Node1</title>
<polygon fill="#bfbfbf" stroke="black" points="42.5,-0.5 42.5,-19.5 107.5,-19.5 107.5,-0.5 42.5,-0.5"/>
<text text-anchor="middle" x="75" y="-7.5" font-family="Helvetica,sans-Serif" font-size="10.00">TestObject</text>
</g>
<!-- Node2 -->
<g id="node2" class="node"><title>Node2</title>
<g id="a_node2"><a xlink:href="classIRAD_1_1Util_1_1TestingObject.html" target="_top" xlink:title="TestingObject\&lt; Util\l::TestResults \&gt;">
<polygon fill="none" stroke="black" points="24.5,-59 24.5,-89 125.5,-89 125.5,-59 24.5,-59"/>
<text text-anchor="start" x="32.5" y="-77" font-family="Helvetica,sans-Serif" font-size="10.00">TestingObject&lt; Util</text>
<text text-anchor="middle" x="75" y="-66" font-family="Helvetica,sans-Serif" font-size="10.00">::TestResults &gt;</text>
</a>
</g>
</g>
<!-- Node2&#45;&gt;Node1 -->
<g id="edge1" class="edge"><title>Node2&#45;&gt;Node1</title>
<path fill="none" stroke="midnightblue" d="M75,-48.8706C75,-38.6625 75,-27.4077 75,-19.8419"/>
<polygon fill="midnightblue" stroke="midnightblue" points="71.5001,-48.9312 75,-58.9312 78.5001,-48.9313 71.5001,-48.9312"/>
</g>
<!-- Node3 -->
<g id="node3" class="node"><title>Node3</title>
<g id="a_node3"><a xlink:href="classIRAD_1_1Util_1_1TestingObject.html" target="_top" xlink:title="Interface for a general testing object. ">
<polygon fill="none" stroke="black" points="-0.5,-138.5 -0.5,-157.5 150.5,-157.5 150.5,-138.5 -0.5,-138.5"/>
<text text-anchor="middle" x="75" y="-145.5" font-family="Helvetica,sans-Serif" font-size="10.00">TestingObject&lt; ResultsType &gt;</text>
</a>
</g>
</g>
<!-- Node3&#45;&gt;Node2 -->
<g id="edge2" class="edge"><title>Node3&#45;&gt;Node2</title>
<path fill="none" stroke="orange" stroke-dasharray="5,2" d="M75,-128.085C75,-115.915 75,-100.354 75,-89.2316"/>
<polygon fill="orange" stroke="orange" points="71.5001,-128.458 75,-138.458 78.5001,-128.458 71.5001,-128.458"/>
<text text-anchor="middle" x="123" y="-111.5" font-family="Helvetica,sans-Serif" font-size="10.00"> &lt; Util::TestResults &gt;</text>
</g>
</g>
</svg>
