<?xml version="1.0" encoding="UTF-8" standalone="no"?>
<!DOCTYPE svg PUBLIC "-//W3C//DTD SVG 1.1//EN"
 "http://www.w3.org/Graphics/SVG/1.1/DTD/svg11.dtd">
<!-- Generated by graphviz version 2.30.1 (20150305.2338)
 -->
<!-- Title: __helper Pages: 1 -->
<svg width="350pt" height="180pt"
 viewBox="0.00 0.00 350.00 180.00" xmlns="http://www.w3.org/2000/svg" xmlns:xlink="http://www.w3.org/1999/xlink">
<g id="graph0" class="graph" transform="scale(1 1) rotate(0) translate(4 176)">
<title>__helper</title>
<!-- Node1 -->
<g id="node1" class="node"><title>Node1</title>
<polygon fill="#bfbfbf" stroke="black" points="0.5,-76.5 0.5,-95.5 53.5,-95.5 53.5,-76.5 0.5,-76.5"/>
<text text-anchor="middle" x="27" y="-83.5" font-family="Helvetica,sans-Serif" font-size="10.00">__helper</text>
</g>
<!-- Node2 -->
<g id="node2" class="node"><title>Node2</title>
<g id="a_node2"><a xlink:href="namespaceIRAD_1_1Sys_afae3306c1aef8273c2fd074f4f5c4fe6.html#afae3306c1aef8273c2fd074f4f5c4fe6" target="_top" xlink:title="IRAD::Sys::CWD">
<polygon fill="none" stroke="black" points="224.5,-152.5 224.5,-171.5 319.5,-171.5 319.5,-152.5 224.5,-152.5"/>
<text text-anchor="middle" x="272" y="-159.5" font-family="Helvetica,sans-Serif" font-size="10.00">IRAD::Sys::CWD</text>
</a>
</g>
</g>
<!-- Node1&#45;&gt;Node2 -->
<g id="edge1" class="edge"><title>Node1&#45;&gt;Node2</title>
<path fill="none" stroke="midnightblue" d="M53.5283,-94.7874C87.3365,-106.327 148.888,-126.998 202,-143 209.528,-145.268 217.551,-147.576 225.364,-149.765"/>
<polygon fill="midnightblue" stroke="midnightblue" points="224.523,-153.164 235.094,-152.463 226.393,-146.418 224.523,-153.164"/>
</g>
<!-- Node3 -->
<g id="node3" class="node"><title>Node3</title>
<g id="a_node3"><a xlink:href="namespaceIRAD_1_1Sys_a64439af6e8939be5517df918e2ecea36.html#a64439af6e8939be5517df918e2ecea36" target="_top" xlink:title="IRAD::Sys::FILEEXISTS">
<polygon fill="none" stroke="black" points="208,-0.5 208,-19.5 336,-19.5 336,-0.5 208,-0.5"/>
<text text-anchor="middle" x="272" y="-7.5" font-family="Helvetica,sans-Serif" font-size="10.00">IRAD::Sys::FILEEXISTS</text>
</a>
</g>
</g>
<!-- Node1&#45;&gt;Node3 -->
<g id="edge2" class="edge"><title>Node1&#45;&gt;Node3</title>
<path fill="none" stroke="midnightblue" d="M53.5283,-77.2126C87.3365,-65.6728 148.888,-45.0018 202,-29 209.528,-26.7318 217.551,-24.424 225.364,-22.2347"/>
<polygon fill="midnightblue" stroke="midnightblue" points="226.393,-25.5815 235.094,-19.537 224.523,-18.836 226.393,-25.5815"/>
</g>
<!-- Node4 -->
<g id="node4" class="node"><title>Node4</title>
<g id="a_node4"><a xlink:href="classElmerFoamFSI_1_1TestingObject_a90864b099beaf9044bf8fff8a9857c0d.html#a90864b099beaf9044bf8fff8a9857c0d" target="_top" xlink:title="GetInputData">
<polygon fill="none" stroke="black" points="90.5,-76.5 90.5,-95.5 165.5,-95.5 165.5,-76.5 90.5,-76.5"/>
<text text-anchor="middle" x="128" y="-83.5" font-family="Helvetica,sans-Serif" font-size="10.00">GetInputData</text>
</a>
</g>
</g>
<!-- Node1&#45;&gt;Node4 -->
<g id="edge3" class="edge"><title>Node1&#45;&gt;Node4</title>
<path fill="none" stroke="midnightblue" d="M53.7526,-86C61.8281,-86 71.0086,-86 80.0736,-86"/>
<polygon fill="midnightblue" stroke="midnightblue" points="80.1944,-89.5001 90.1943,-86 80.1943,-82.5001 80.1944,-89.5001"/>
</g>
<!-- Node5 -->
<g id="node5" class="node"><title>Node5</title>
<g id="a_node5"><a xlink:href="namespaceIRAD_1_1Sys_afe7cbdace3dec046da8a36d08578610d.html#afe7cbdace3dec046da8a36d08578610d" target="_top" xlink:title="IRAD::Sys::ChDir">
<polygon fill="none" stroke="black" points="224,-114.5 224,-133.5 320,-133.5 320,-114.5 224,-114.5"/>
<text text-anchor="middle" x="272" y="-121.5" font-family="Helvetica,sans-Serif" font-size="10.00">IRAD::Sys::ChDir</text>
</a>
</g>
</g>
<!-- Node4&#45;&gt;Node5 -->
<g id="edge4" class="edge"><title>Node4&#45;&gt;Node5</title>
<path fill="none" stroke="midnightblue" d="M164.833,-95.589C183.163,-100.494 205.678,-106.52 225.25,-111.757"/>
<polygon fill="midnightblue" stroke="midnightblue" points="224.614,-115.21 235.179,-114.414 226.424,-108.448 224.614,-115.21"/>
</g>
<!-- Node6 -->
<g id="node6" class="node"><title>Node6</title>
<g id="a_node6"><a xlink:href="namespaceIRAD_1_1Sys_a907ccb4be0eba55b76775c69712059ad.html#a907ccb4be0eba55b76775c69712059ad" target="_top" xlink:title="IRAD::Sys::CreateDirectory">
<polygon fill="none" stroke="black" points="202,-76.5 202,-95.5 342,-95.5 342,-76.5 202,-76.5"/>
<text text-anchor="middle" x="272" y="-83.5" font-family="Helvetica,sans-Serif" font-size="10.00">IRAD::Sys::CreateDirectory</text>
</a>
</g>
</g>
<!-- Node4&#45;&gt;Node6 -->
<g id="edge5" class="edge"><title>Node4&#45;&gt;Node6</title>
<path fill="none" stroke="midnightblue" d="M165.569,-86C173.629,-86 182.47,-86 191.497,-86"/>
<polygon fill="midnightblue" stroke="midnightblue" points="191.737,-89.5001 201.737,-86 191.737,-82.5001 191.737,-89.5001"/>
</g>
<!-- Node4&#45;&gt;Node2 -->
<g id="edge6" class="edge"><title>Node4&#45;&gt;Node2</title>
<path fill="none" stroke="midnightblue" d="M138.977,-95.9301C152.262,-108.617 177.003,-130.433 202,-143 206.6,-145.313 211.519,-147.374 216.532,-149.206"/>
<polygon fill="midnightblue" stroke="midnightblue" points="215.638,-152.597 226.232,-152.449 217.859,-145.959 215.638,-152.597"/>
</g>
<!-- Node4&#45;&gt;Node3 -->
<g id="edge7" class="edge"><title>Node4&#45;&gt;Node3</title>
<path fill="none" stroke="midnightblue" d="M138.977,-76.0699C152.262,-63.383 177.003,-41.5666 202,-29 206.6,-26.6875 211.519,-24.6258 216.532,-22.7943"/>
<polygon fill="midnightblue" stroke="midnightblue" points="217.859,-26.0414 226.232,-19.5506 215.638,-19.4028 217.859,-26.0414"/>
</g>
<!-- Node7 -->
<g id="node7" class="node"><title>Node7</title>
<g id="a_node7"><a xlink:href="namespaceIRAD_1_1Sys_a0bcb3bbe82c724ff589d3ec071e5a506.html#a0bcb3bbe82c724ff589d3ec071e5a506" target="_top" xlink:title="IRAD::Sys::ISDIR">
<polygon fill="none" stroke="black" points="223,-38.5 223,-57.5 321,-57.5 321,-38.5 223,-38.5"/>
<text text-anchor="middle" x="272" y="-45.5" font-family="Helvetica,sans-Serif" font-size="10.00">IRAD::Sys::ISDIR</text>
</a>
</g>
</g>
<!-- Node4&#45;&gt;Node7 -->
<g id="edge8" class="edge"><title>Node4&#45;&gt;Node7</title>
<path fill="none" stroke="midnightblue" d="M164.833,-76.411C183.163,-71.5056 205.678,-65.4804 225.25,-60.2429"/>
<polygon fill="midnightblue" stroke="midnightblue" points="226.424,-63.5521 235.179,-57.5859 224.614,-56.7901 226.424,-63.5521"/>
</g>
</g>
</svg>
