<?xml version="1.0" encoding="UTF-8" standalone="no"?>
<!DOCTYPE svg PUBLIC "-//W3C//DTD SVG 1.1//EN"
 "http://www.w3.org/Graphics/SVG/1.1/DTD/svg11.dtd">
<!-- Generated by graphviz version 2.30.1 (20150305.2338)
 -->
<!-- Title: get_incident_real_edge Pages: 1 -->
<!--zoomable 424 -->
<svg id="main" version="1.1" xmlns="http://www.w3.org/2000/svg" xmlns:xlink="http://www.w3.org/1999/xlink" xml:space="preserve" onload="init(evt)">
<style type="text/css"><![CDATA[
.edge:hover path { stroke: red; }
.edge:hover polygon { stroke: red; fill: red; }
]]></style>
<script type="text/javascript"><![CDATA[
var edges = document.getElementsByTagName('g');
if (edges && edges.length) {
  for (var i=0;i<edges.length;i++) {
    if (edges[i].id.substr(0,4)=='edge') {
      edges[i].setAttribute('class','edge');
    }
  }
}
]]></script>
        <defs>
                <circle id="rim" cx="0" cy="0" r="7"/>
                <circle id="rim2" cx="0" cy="0" r="3.5"/>
                <g id="zoomPlus">
                        <use xlink:href="#rim" fill="#404040">
                                <set attributeName="fill" to="#808080" begin="zoomplus.mouseover" end="zoomplus.mouseout"/>
                        </use>
                        <path d="M-4,0h8M0,-4v8" fill="none" stroke="white" stroke-width="1.5" pointer-events="none"/>
                </g>
                <g id="zoomMin">
                        <use xlink:href="#rim" fill="#404040">
                                <set attributeName="fill" to="#808080" begin="zoomminus.mouseover" end="zoomminus.mouseout"/>
                        </use>
                        <path d="M-4,0h8" fill="none" stroke="white" stroke-width="1.5" pointer-events="none"/>
                </g>
                <g id="dirArrow">
                        <path fill="none" stroke="white" stroke-width="1.5" d="M0,-3.0v7 M-2.5,-0.5L0,-3.0L2.5,-0.5"/>
                </g>
               <g id="resetDef">
                       <use xlink:href="#rim2" fill="#404040">
                               <set attributeName="fill" to="#808080" begin="reset.mouseover" end="reset.mouseout"/>
                       </use>
               </g>
        </defs>

<script type="text/javascript">
var viewWidth = 522;
var viewHeight = 424;
var sectionId = 'dynsection-0';
</script>
<script xlink:href="svgpan.js"/>
<svg id="graph" class="graph">
<g id="viewport">
<title>get_incident_real_edge</title>
<!-- Node1 -->
<g id="node1" class="node"><title>Node1</title>
<polygon fill="#bfbfbf" stroke="black" points="0,-168.5 0,-187.5 116,-187.5 116,-168.5 0,-168.5"/>
<text text-anchor="middle" x="58" y="-175.5" font-family="Helvetica,sans-Serif" font-size="10.00">get_incident_real_edge</text>
</g>
<!-- Node2 -->
<g id="node2" class="node"><title>Node2</title>
<g id="a_node2"><a xlink:href="classFacet__ID_a1dea367be190d5726e3aa6b8d0c47076.html#a1dea367be190d5726e3aa6b8d0c47076" target="_top" xlink:title="Element ID of the halfedge. ">
<polygon fill="none" stroke="black" points="438,-228.5 438,-247.5 514,-247.5 514,-228.5 438,-228.5"/>
<text text-anchor="middle" x="476" y="-235.5" font-family="Helvetica,sans-Serif" font-size="10.00">Facet_ID::eid</text>
</a>
</g>
</g>
<!-- Node1&#45;&gt;Node2 -->
<g id="edge1" class="edge"><title>Node1&#45;&gt;Node2</title>
<path fill="none" stroke="midnightblue" d="M73.0482,-168.472C90.6241,-157.143 122.062,-138.788 152,-131 259.563,-103.018 304.389,-71.8505 402,-125 438.597,-144.927 459.64,-191.966 469.034,-218.646"/>
<polygon fill="midnightblue" stroke="midnightblue" points="465.795,-219.999 472.263,-228.391 472.439,-217.797 465.795,-219.999"/>
</g>
<!-- Node3 -->
<g id="node3" class="node"><title>Node3</title>
<g id="a_node3"><a xlink:href="classSimple__manifold__2_a3fff497bdfcdda219b941fffcedf3d41.html#a3fff497bdfcdda219b941fffcedf3d41" target="_top" xlink:title="get_next_ghost_edge\l_interior">
<polygon fill="none" stroke="black" points="152,-337 152,-367 262,-367 262,-337 152,-337"/>
<text text-anchor="start" x="160" y="-355" font-family="Helvetica,sans-Serif" font-size="10.00">get_next_ghost_edge</text>
<text text-anchor="middle" x="207" y="-344" font-family="Helvetica,sans-Serif" font-size="10.00">_interior</text>
</a>
</g>
</g>
<!-- Node1&#45;&gt;Node3 -->
<g id="edge2" class="edge"><title>Node1&#45;&gt;Node3</title>
<path fill="none" stroke="midnightblue" d="M64.8402,-187.575C78.5532,-209.681 114.496,-265.481 152,-306 159.942,-314.58 169.42,-323.123 178.203,-330.476"/>
<polygon fill="midnightblue" stroke="midnightblue" points="176.052,-333.239 186.009,-336.861 180.484,-327.821 176.052,-333.239"/>
</g>
<!-- Node7 -->
<g id="node7" class="node"><title>Node7</title>
<g id="a_node7"><a xlink:href="classSimple__manifold__2_a5dfd55a426d43af633d6f1d8788cb322.html#a5dfd55a426d43af633d6f1d8788cb322" target="_top" xlink:title="Get the opposite edge of a border edge for the ghost pane. ">
<polygon fill="none" stroke="black" points="156.5,-141 156.5,-171 257.5,-171 257.5,-141 156.5,-141"/>
<text text-anchor="start" x="164.5" y="-159" font-family="Helvetica,sans-Serif" font-size="10.00">get_opposite_ghost</text>
<text text-anchor="middle" x="207" y="-148" font-family="Helvetica,sans-Serif" font-size="10.00">_edge_border</text>
</a>
</g>
</g>
<!-- Node1&#45;&gt;Node7 -->
<g id="edge9" class="edge"><title>Node1&#45;&gt;Node7</title>
<path fill="none" stroke="midnightblue" d="M116.255,-169.431C126.067,-167.963 136.286,-166.433 146.164,-164.955"/>
<polygon fill="midnightblue" stroke="midnightblue" points="146.931,-168.379 156.303,-163.438 145.895,-161.456 146.931,-168.379"/>
</g>
<!-- Node10 -->
<g id="node10" class="node"><title>Node10</title>
<g id="a_node10"><a xlink:href="classSimple__manifold__2_aa81d979ace76b3412a00645efe09cfff.html#aa81d979ace76b3412a00645efe09cfff" target="_top" xlink:title="Get the opposite edge of an interior edge of the ghost part. ">
<polygon fill="none" stroke="black" points="156.5,-267 156.5,-297 257.5,-297 257.5,-267 156.5,-267"/>
<text text-anchor="start" x="164.5" y="-285" font-family="Helvetica,sans-Serif" font-size="10.00">get_opposite_ghost</text>
<text text-anchor="middle" x="207" y="-274" font-family="Helvetica,sans-Serif" font-size="10.00">_edge_interior</text>
</a>
</g>
</g>
<!-- Node1&#45;&gt;Node10 -->
<g id="edge15" class="edge"><title>Node1&#45;&gt;Node10</title>
<path fill="none" stroke="midnightblue" d="M69.9959,-187.741C86.9501,-202.526 120.788,-231.119 152,-252 157.025,-255.362 162.456,-258.698 167.87,-261.856"/>
<polygon fill="midnightblue" stroke="midnightblue" points="166.466,-265.084 176.89,-266.978 169.922,-258.997 166.466,-265.084"/>
</g>
<!-- Node11 -->
<g id="node11" class="node"><title>Node11</title>
<g id="a_node11"><a xlink:href="classSimple__manifold__2_a96857d0e0525ef06c2590d22d2acf0c1.html#a96857d0e0525ef06c2590d22d2acf0c1" target="_top" xlink:title="Get the ID of the origin of a given edge. ">
<polygon fill="none" stroke="black" points="177.5,-38.5 177.5,-57.5 236.5,-57.5 236.5,-38.5 177.5,-38.5"/>
<text text-anchor="middle" x="207" y="-45.5" font-family="Helvetica,sans-Serif" font-size="10.00">get_origin</text>
</a>
</g>
</g>
<!-- Node1&#45;&gt;Node11 -->
<g id="edge20" class="edge"><title>Node1&#45;&gt;Node11</title>
<path fill="none" stroke="midnightblue" d="M65.3527,-168.259C79.0228,-147.947 113.156,-100.586 152,-72 157.206,-68.1691 163.119,-64.7702 169.078,-61.8227"/>
<polygon fill="midnightblue" stroke="midnightblue" points="170.745,-64.909 178.382,-57.5653 167.832,-58.5437 170.745,-64.909"/>
</g>
<!-- Node8 -->
<g id="node8" class="node"><title>Node8</title>
<g id="a_node8"><a xlink:href="classFacet__ID_aa126fd94949c810d24869ad04cd97e15.html#aa126fd94949c810d24869ad04cd97e15" target="_top" xlink:title="Determines whether the facet is on border. ">
<polygon fill="none" stroke="black" points="298.5,-228.5 298.5,-247.5 401.5,-247.5 401.5,-228.5 298.5,-228.5"/>
<text text-anchor="middle" x="350" y="-235.5" font-family="Helvetica,sans-Serif" font-size="10.00">Facet_ID::is_border</text>
</a>
</g>
</g>
<!-- Node1&#45;&gt;Node8 -->
<g id="edge21" class="edge"><title>Node1&#45;&gt;Node8</title>
<path fill="none" stroke="midnightblue" d="M76.2221,-187.6C94.4481,-197.272 124.344,-211.77 152,-219 196.706,-230.687 248.807,-235.338 288.196,-237.121"/>
<polygon fill="midnightblue" stroke="midnightblue" points="288.304,-240.628 298.436,-237.533 288.585,-233.633 288.304,-240.628"/>
</g>
<!-- Node12 -->
<g id="node12" class="node"><title>Node12</title>
<g id="a_node12"><a xlink:href="classSimple__manifold__2_ab6d308f97d5fe32df4e31327bdf5fc3e.html#ab6d308f97d5fe32df4e31327bdf5fc3e" target="_top" xlink:title="Determine whether a given edge is a border edge of real part of the pane (either on physical border o...">
<polygon fill="none" stroke="black" points="155,-190.5 155,-209.5 259,-209.5 259,-190.5 155,-190.5"/>
<text text-anchor="middle" x="207" y="-197.5" font-family="Helvetica,sans-Serif" font-size="10.00">is_real_border_edge</text>
</a>
</g>
</g>
<!-- Node1&#45;&gt;Node12 -->
<g id="edge22" class="edge"><title>Node1&#45;&gt;Node12</title>
<path fill="none" stroke="midnightblue" d="M116.255,-186.569C125.609,-187.969 135.332,-189.424 144.777,-190.837"/>
<polygon fill="midnightblue" stroke="midnightblue" points="144.478,-194.332 154.886,-192.35 145.515,-187.409 144.478,-194.332"/>
</g>
<!-- Node13 -->
<g id="node13" class="node"><title>Node13</title>
<g id="a_node13"><a xlink:href="classSimple__manifold__2_ada174cc24bb104689a8ded70a6674ebb.html#ada174cc24bb104689a8ded70a6674ebb" target="_top" xlink:title="Is the given node a real node? ">
<polygon fill="none" stroke="black" points="171.5,-0.5 171.5,-19.5 242.5,-19.5 242.5,-0.5 171.5,-0.5"/>
<text text-anchor="middle" x="207" y="-7.5" font-family="Helvetica,sans-Serif" font-size="10.00">is_real_node</text>
</a>
</g>
</g>
<!-- Node1&#45;&gt;Node13 -->
<g id="edge25" class="edge"><title>Node1&#45;&gt;Node13</title>
<path fill="none" stroke="midnightblue" d="M62.3623,-168.433C72.0449,-142.237 102.505,-68.6627 152,-29 155.096,-26.5189 158.54,-24.3496 162.147,-22.4552"/>
<polygon fill="midnightblue" stroke="midnightblue" points="163.681,-25.6031 171.348,-18.2912 160.794,-19.2259 163.681,-25.6031"/>
</g>
<!-- Node3&#45;&gt;Node2 -->
<g id="edge3" class="edge"><title>Node3&#45;&gt;Node2</title>
<path fill="none" stroke="midnightblue" d="M241.787,-367.128C282.968,-383.072 353.1,-401.946 402,-371 433.583,-351.013 419.785,-327.636 438,-295 445.457,-281.64 454.854,-267.188 462.312,-256.179"/>
<polygon fill="midnightblue" stroke="midnightblue" points="465.262,-258.066 468.035,-247.841 459.49,-254.104 465.262,-258.066"/>
</g>
<!-- Node4 -->
<g id="node4" class="node"><title>Node4</title>
<g id="a_node4"><a xlink:href="classSimple__manifold__2_a678219ca5d2b29febb0820f195f668ba.html#a678219ca5d2b29febb0820f195f668ba" target="_top" xlink:title="Get an index for internal edges. ">
<polygon fill="none" stroke="black" points="307.5,-304.5 307.5,-323.5 392.5,-323.5 392.5,-304.5 307.5,-304.5"/>
<text text-anchor="middle" x="350" y="-311.5" font-family="Helvetica,sans-Serif" font-size="10.00">get_edge_index</text>
</a>
</g>
</g>
<!-- Node3&#45;&gt;Node4 -->
<g id="edge4" class="edge"><title>Node3&#45;&gt;Node4</title>
<path fill="none" stroke="midnightblue" d="M262.111,-337.417C275.85,-333.714 290.468,-329.775 303.717,-326.204"/>
<polygon fill="midnightblue" stroke="midnightblue" points="304.8,-329.537 313.545,-323.555 302.979,-322.778 304.8,-329.537"/>
</g>
<!-- Node6 -->
<g id="node6" class="node"><title>Node6</title>
<g id="a_node6"><a xlink:href="classSimple__manifold__2_ab06c9b0093094a1e15b3c1d91b6d7012.html#ab06c9b0093094a1e15b3c1d91b6d7012" target="_top" xlink:title="Is the element incident on the give edge a ghost element? ">
<polygon fill="none" stroke="black" points="303.5,-342.5 303.5,-361.5 396.5,-361.5 396.5,-342.5 303.5,-342.5"/>
<text text-anchor="middle" x="350" y="-349.5" font-family="Helvetica,sans-Serif" font-size="10.00">is_ghost_element</text>
</a>
</g>
</g>
<!-- Node3&#45;&gt;Node6 -->
<g id="edge7" class="edge"><title>Node3&#45;&gt;Node6</title>
<path fill="none" stroke="midnightblue" d="M262.111,-352C272.246,-352 282.859,-352 293.048,-352"/>
<polygon fill="midnightblue" stroke="midnightblue" points="293.063,-355.5 303.063,-352 293.063,-348.5 293.063,-355.5"/>
</g>
<!-- Node5 -->
<g id="node5" class="node"><title>Node5</title>
<g id="a_node5"><a xlink:href="classFacet__ID_ae7df635a2e18521c31e7da0b999b802b.html#ae7df635a2e18521c31e7da0b999b802b" target="_top" xlink:title="Local edge ID of the halfedge within its element. ">
<polygon fill="none" stroke="black" points="439.5,-304.5 439.5,-323.5 512.5,-323.5 512.5,-304.5 439.5,-304.5"/>
<text text-anchor="middle" x="476" y="-311.5" font-family="Helvetica,sans-Serif" font-size="10.00">Facet_ID::lid</text>
</a>
</g>
</g>
<!-- Node3&#45;&gt;Node5 -->
<g id="edge8" class="edge"><title>Node3&#45;&gt;Node5</title>
<path fill="none" stroke="midnightblue" d="M227.033,-367.007C244.393,-379.672 271.332,-396.85 298,-404 342.645,-415.97 360.273,-423.882 402,-404 432.87,-389.291 454.928,-354.44 466.267,-332.678"/>
<polygon fill="midnightblue" stroke="midnightblue" points="469.403,-334.232 470.716,-323.719 463.134,-331.119 469.403,-334.232"/>
</g>
<!-- Node4&#45;&gt;Node2 -->
<g id="edge5" class="edge"><title>Node4&#45;&gt;Node2</title>
<path fill="none" stroke="midnightblue" d="M373.535,-304.447C382.57,-300.348 392.963,-295.288 402,-290 420.685,-279.067 440.621,-264.66 454.93,-253.783"/>
<polygon fill="midnightblue" stroke="midnightblue" points="457.263,-256.404 463.051,-247.529 452.992,-250.858 457.263,-256.404"/>
</g>
<!-- Node4&#45;&gt;Node5 -->
<g id="edge6" class="edge"><title>Node4&#45;&gt;Node5</title>
<path fill="none" stroke="midnightblue" d="M392.635,-314C404.389,-314 417.242,-314 429.225,-314"/>
<polygon fill="midnightblue" stroke="midnightblue" points="429.482,-317.5 439.482,-314 429.482,-310.5 429.482,-317.5"/>
</g>
<!-- Node7&#45;&gt;Node2 -->
<g id="edge10" class="edge"><title>Node7&#45;&gt;Node2</title>
<path fill="none" stroke="midnightblue" d="M252.056,-140.945C293.057,-129.644 354.763,-119.726 402,-143 434.037,-158.785 455.938,-196.132 466.888,-219.016"/>
<polygon fill="midnightblue" stroke="midnightblue" points="463.821,-220.728 471.145,-228.383 470.194,-217.831 463.821,-220.728"/>
</g>
<!-- Node7&#45;&gt;Node4 -->
<g id="edge11" class="edge"><title>Node7&#45;&gt;Node4</title>
<path fill="none" stroke="midnightblue" d="M248.953,-171.12C253.691,-173.941 258.185,-177.218 262,-181 288.545,-207.312 277.326,-225.863 298,-257 307.693,-271.599 320.946,-286.293 331.512,-297.106"/>
<polygon fill="midnightblue" stroke="midnightblue" points="329.095,-299.639 338.641,-304.236 334.045,-294.69 329.095,-299.639"/>
</g>
<!-- Node7&#45;&gt;Node8 -->
<g id="edge12" class="edge"><title>Node7&#45;&gt;Node8</title>
<path fill="none" stroke="midnightblue" d="M242.657,-171.129C249.169,-174.228 255.858,-177.59 262,-181 285.124,-193.837 310.267,-210.644 327.549,-222.675"/>
<polygon fill="midnightblue" stroke="midnightblue" points="325.623,-225.6 335.817,-228.486 329.647,-219.873 325.623,-225.6"/>
</g>
<!-- Node9 -->
<g id="node9" class="node"><title>Node9</title>
<g id="a_node9"><a xlink:href="classSimple__manifold__2_ae1611b1b5b6feb95d11d299ef4150866.html#ae1611b1b5b6feb95d11d299ef4150866" target="_top" xlink:title="Is the element incident on the give edge a real element? ">
<polygon fill="none" stroke="black" points="307.5,-152.5 307.5,-171.5 392.5,-171.5 392.5,-152.5 307.5,-152.5"/>
<text text-anchor="middle" x="350" y="-159.5" font-family="Helvetica,sans-Serif" font-size="10.00">is_real_element</text>
</a>
</g>
</g>
<!-- Node7&#45;&gt;Node9 -->
<g id="edge14" class="edge"><title>Node7&#45;&gt;Node9</title>
<path fill="none" stroke="midnightblue" d="M257.711,-158.115C270.474,-158.658 284.235,-159.244 297.105,-159.792"/>
<polygon fill="midnightblue" stroke="midnightblue" points="297.059,-163.293 307.199,-160.221 297.357,-156.299 297.059,-163.293"/>
</g>
<!-- Node8&#45;&gt;Node5 -->
<g id="edge13" class="edge"><title>Node8&#45;&gt;Node5</title>
<path fill="none" stroke="midnightblue" d="M366.705,-247.625C387.855,-260.588 425.704,-283.786 450.584,-299.035"/>
<polygon fill="midnightblue" stroke="midnightblue" points="449.068,-302.211 459.423,-304.453 452.726,-296.243 449.068,-302.211"/>
</g>
<!-- Node10&#45;&gt;Node2 -->
<g id="edge16" class="edge"><title>Node10&#45;&gt;Node2</title>
<path fill="none" stroke="midnightblue" d="M257.713,-277.343C297.07,-273.237 353.325,-266.431 402,-257 411.733,-255.114 422.093,-252.682 431.859,-250.192"/>
<polygon fill="midnightblue" stroke="midnightblue" points="432.982,-253.516 441.769,-247.596 431.208,-246.744 432.982,-253.516"/>
</g>
<!-- Node10&#45;&gt;Node4 -->
<g id="edge17" class="edge"><title>Node10&#45;&gt;Node4</title>
<path fill="none" stroke="midnightblue" d="M257.711,-293.282C270.474,-296.178 284.235,-299.302 297.105,-302.222"/>
<polygon fill="midnightblue" stroke="midnightblue" points="296.673,-305.713 307.199,-304.513 298.222,-298.887 296.673,-305.713"/>
</g>
<!-- Node10&#45;&gt;Node8 -->
<g id="edge18" class="edge"><title>Node10&#45;&gt;Node8</title>
<path fill="none" stroke="midnightblue" d="M256.13,-266.981C273.175,-261.662 292.167,-255.735 308.512,-250.635"/>
<polygon fill="midnightblue" stroke="midnightblue" points="309.803,-253.898 318.306,-247.578 307.717,-247.216 309.803,-253.898"/>
</g>
<!-- Node10&#45;&gt;Node6 -->
<g id="edge19" class="edge"><title>Node10&#45;&gt;Node6</title>
<path fill="none" stroke="midnightblue" d="M232.273,-297.153C250.076,-307.919 275.047,-322.304 298,-333 302.322,-335.014 306.923,-336.973 311.523,-338.819"/>
<polygon fill="midnightblue" stroke="midnightblue" points="310.289,-342.094 320.878,-342.434 312.812,-335.565 310.289,-342.094"/>
</g>
<!-- Node12&#45;&gt;Node2 -->
<g id="edge23" class="edge"><title>Node12&#45;&gt;Node2</title>
<path fill="none" stroke="midnightblue" d="M259.357,-202.825C298.636,-205.517 354.022,-210.461 402,-219 412.153,-220.807 422.968,-223.3 433.076,-225.886"/>
<polygon fill="midnightblue" stroke="midnightblue" points="432.336,-229.311 442.898,-228.482 434.124,-222.543 432.336,-229.311"/>
</g>
<!-- Node12&#45;&gt;Node8 -->
<g id="edge24" class="edge"><title>Node12&#45;&gt;Node8</title>
<path fill="none" stroke="midnightblue" d="M243.58,-209.589C261.782,-214.494 284.138,-220.52 303.572,-225.757"/>
<polygon fill="midnightblue" stroke="midnightblue" points="302.865,-229.191 313.431,-228.414 304.686,-222.432 302.865,-229.191"/>
</g>
</g>
</svg>
        <g id="navigator" transform="translate(0 0)" fill="#404254">
                <rect fill="#f2f5e9" fill-opacity="0.5" stroke="#606060" stroke-width=".5" x="0" y="0" width="60" height="60"/>
                <use id="zoomplus" xlink:href="#zoomPlus" x="17" y="9" onmousedown="handleZoom(evt,'in')"/>
                <use id="zoomminus" xlink:href="#zoomMin" x="42" y="9" onmousedown="handleZoom(evt,'out')"/>
                <use id="reset" xlink:href="#resetDef" x="30" y="36" onmousedown="handleReset()"/>
                <g id="arrowUp" xlink:href="#dirArrow" transform="translate(30 24)" onmousedown="handlePan(0,-1)">
                  <use xlink:href="#rim" fill="#404040">
                        <set attributeName="fill" to="#808080" begin="arrowUp.mouseover" end="arrowUp.mouseout"/>
                  </use>
                  <path fill="none" stroke="white" stroke-width="1.5" d="M0,-3.0v7 M-2.5,-0.5L0,-3.0L2.5,-0.5"/>
                </g>
                <g id="arrowRight" xlink:href="#dirArrow" transform="rotate(90) translate(36 -43)" onmousedown="handlePan(1,0)">
                  <use xlink:href="#rim" fill="#404040">
                        <set attributeName="fill" to="#808080" begin="arrowRight.mouseover" end="arrowRight.mouseout"/>
                  </use>
                  <path fill="none" stroke="white" stroke-width="1.5" d="M0,-3.0v7 M-2.5,-0.5L0,-3.0L2.5,-0.5"/>
                </g>
                <g id="arrowDown" xlink:href="#dirArrow" transform="rotate(180) translate(-30 -48)" onmousedown="handlePan(0,1)">
                  <use xlink:href="#rim" fill="#404040">
                        <set attributeName="fill" to="#808080" begin="arrowDown.mouseover" end="arrowDown.mouseout"/>
                  </use>
                  <path fill="none" stroke="white" stroke-width="1.5" d="M0,-3.0v7 M-2.5,-0.5L0,-3.0L2.5,-0.5"/>
                </g>
                <g id="arrowLeft" xlink:href="#dirArrow" transform="rotate(270) translate(-36 17)" onmousedown="handlePan(-1,0)">
                  <use xlink:href="#rim" fill="#404040">
                        <set attributeName="fill" to="#808080" begin="arrowLeft.mouseover" end="arrowLeft.mouseout"/>
                  </use>
                  <path fill="none" stroke="white" stroke-width="1.5" d="M0,-3.0v7 M-2.5,-0.5L0,-3.0L2.5,-0.5"/>
                </g>
        </g>
        <svg viewBox="0 0 15 15" width="100%" height="30px" preserveAspectRatio="xMaxYMin meet">
         <g id="arrow_out" transform="scale(0.3 0.3)">
          <a xlink:href="classSimple__manifold__2_afaabce069f16be292e5dd4d8064bcd99_afaabce069f16be292e5dd4d8064bcd99_cgraph_org.svg" target="_base">
           <rect id="button" ry="5" rx="5" y="6" x="6" height="38" width="38"
                fill="#f2f5e9" fill-opacity="0.5" stroke="#606060" stroke-width="1.0"/>
           <path id="arrow"
             d="M 11.500037,31.436501 C 11.940474,20.09759 22.043105,11.32322 32.158766,21.979434 L 37.068811,17.246167 C 37.068811,17.246167 37.088388,32 37.088388,32 L 22.160133,31.978069 C 22.160133,31.978069 26.997745,27.140456 26.997745,27.140456 C 18.528582,18.264221 13.291696,25.230495 11.500037,31.436501 z"
             style="fill:#404040;"/>
          </a>
         </g>
        </svg>
</svg>
