<?xml version="1.0" encoding="UTF-8" standalone="no"?>
<!DOCTYPE svg PUBLIC "-//W3C//DTD SVG 1.1//EN"
 "http://www.w3.org/Graphics/SVG/1.1/DTD/svg11.dtd">
<!-- Generated by graphviz version 2.30.1 (20150305.2338)
 -->
<!-- Title: AddOption Pages: 1 -->
<svg width="520pt" height="274pt"
 viewBox="0.00 0.00 520.00 274.00" xmlns="http://www.w3.org/2000/svg" xmlns:xlink="http://www.w3.org/1999/xlink">
<g id="graph0" class="graph" transform="scale(1 1) rotate(0) translate(4 270)">
<title>AddOption</title>
<!-- Node1 -->
<g id="node1" class="node"><title>Node1</title>
<polygon fill="#bfbfbf" stroke="black" points="0,-139.5 0,-158.5 62,-158.5 62,-139.5 0,-139.5"/>
<text text-anchor="middle" x="31" y="-146.5" font-family="Helvetica,sans-Serif" font-size="10.00">AddOption</text>
</g>
<!-- Node2 -->
<g id="node2" class="node"><title>Node2</title>
<g id="a_node2"><a xlink:href="classIRAD_1_1DDFComLine_a98b1050f09da390896f964fb7a892391.html#a98b1050f09da390896f964fb7a892391" target="_top" xlink:title="virtual function for program specific Initialization. ">
<polygon fill="none" stroke="black" points="105.5,-246.5 105.5,-265.5 254.5,-265.5 254.5,-246.5 105.5,-246.5"/>
<text text-anchor="middle" x="180" y="-253.5" font-family="Helvetica,sans-Serif" font-size="10.00">IRAD::DDFComLine::Initialize</text>
</a>
</g>
</g>
<!-- Node1&#45;&gt;Node2 -->
<g id="edge1" class="edge"><title>Node1&#45;&gt;Node2</title>
<path fill="none" stroke="midnightblue" d="M41.0705,-167.88C51.8044,-188.147 71.606,-219.751 98,-237 103.925,-240.872 110.549,-243.958 117.388,-246.416"/>
<polygon fill="midnightblue" stroke="midnightblue" points="44.0614,-166.039 36.4184,-158.702 37.8177,-169.204 44.0614,-166.039"/>
</g>
<!-- Node3 -->
<g id="node3" class="node"><title>Node3</title>
<g id="a_node3"><a xlink:href="classIRAD_1_1RTSComLine_a98b1050f09da390896f964fb7a892391.html#a98b1050f09da390896f964fb7a892391" target="_top" xlink:title="virtual function for program specific Initialization. ">
<polygon fill="none" stroke="black" points="105.5,-208.5 105.5,-227.5 254.5,-227.5 254.5,-208.5 105.5,-208.5"/>
<text text-anchor="middle" x="180" y="-215.5" font-family="Helvetica,sans-Serif" font-size="10.00">IRAD::RTSComLine::Initialize</text>
</a>
</g>
</g>
<!-- Node1&#45;&gt;Node3 -->
<g id="edge2" class="edge"><title>Node1&#45;&gt;Node3</title>
<path fill="none" stroke="midnightblue" d="M50.1985,-165.635C62.7845,-176.317 80.3784,-189.697 98,-198 107.041,-202.26 117.093,-205.677 126.954,-208.395"/>
<polygon fill="midnightblue" stroke="midnightblue" points="52.1777,-162.716 42.3465,-158.767 47.5689,-167.985 52.1777,-162.716"/>
</g>
<!-- Node4 -->
<g id="node4" class="node"><title>Node4</title>
<g id="a_node4"><a xlink:href="classElmerFoamFSI_1_1TestComLine_a98b1050f09da390896f964fb7a892391.html#a98b1050f09da390896f964fb7a892391" target="_top" xlink:title="virtual function for program specific Initialization. ">
<polygon fill="none" stroke="black" points="106.5,-159 106.5,-189 253.5,-189 253.5,-159 106.5,-159"/>
<text text-anchor="start" x="114.5" y="-177" font-family="Helvetica,sans-Serif" font-size="10.00">ElmerFoamFSI::TestComLine</text>
<text text-anchor="middle" x="180" y="-166" font-family="Helvetica,sans-Serif" font-size="10.00">::Initialize</text>
</a>
</g>
</g>
<!-- Node1&#45;&gt;Node4 -->
<g id="edge3" class="edge"><title>Node1&#45;&gt;Node4</title>
<path fill="none" stroke="midnightblue" d="M72.2834,-155.851C82.8993,-157.656 94.6859,-159.661 106.44,-161.66"/>
<polygon fill="midnightblue" stroke="midnightblue" points="72.5477,-152.346 62.1024,-154.119 71.374,-159.247 72.5477,-152.346"/>
</g>
<!-- Node9 -->
<g id="node9" class="node"><title>Node9</title>
<g id="a_node9"><a xlink:href="classIRAD_1_1CheckResultsComLine_a98b1050f09da390896f964fb7a892391.html#a98b1050f09da390896f964fb7a892391" target="_top" xlink:title="This is where the actual options and arguments are described. ">
<polygon fill="none" stroke="black" points="105.5,-110 105.5,-140 254.5,-140 254.5,-110 105.5,-110"/>
<text text-anchor="start" x="113.5" y="-128" font-family="Helvetica,sans-Serif" font-size="10.00">IRAD::CheckResultsComLine</text>
<text text-anchor="middle" x="180" y="-117" font-family="Helvetica,sans-Serif" font-size="10.00">::Initialize</text>
</a>
</g>
</g>
<!-- Node1&#45;&gt;Node9 -->
<g id="edge8" class="edge"><title>Node1&#45;&gt;Node9</title>
<path fill="none" stroke="midnightblue" d="M72.008,-142.468C82.3282,-140.783 93.7691,-138.915 105.219,-137.046"/>
<polygon fill="midnightblue" stroke="midnightblue" points="71.4077,-139.02 62.1024,-144.085 72.5357,-145.928 71.4077,-139.02"/>
</g>
<!-- Node10 -->
<g id="node10" class="node"><title>Node10</title>
<g id="a_node10"><a xlink:href="classElmerFoamFSI_1_1ExampleProgram_1_1ExampleProgramComLine_a98b1050f09da390896f964fb7a892391.html#a98b1050f09da390896f964fb7a892391" target="_top" xlink:title="This is where the actual options and arguments are described. ">
<polygon fill="none" stroke="black" points="98,-49.5 98,-90.5 262,-90.5 262,-49.5 98,-49.5"/>
<text text-anchor="start" x="106" y="-78.5" font-family="Helvetica,sans-Serif" font-size="10.00">ElmerFoamFSI::ExampleProgram</text>
<text text-anchor="start" x="106" y="-67.5" font-family="Helvetica,sans-Serif" font-size="10.00">::ExampleProgramComLine::</text>
<text text-anchor="middle" x="180" y="-56.5" font-family="Helvetica,sans-Serif" font-size="10.00">Initialize</text>
</a>
</g>
</g>
<!-- Node1&#45;&gt;Node10 -->
<g id="edge9" class="edge"><title>Node1&#45;&gt;Node10</title>
<path fill="none" stroke="midnightblue" d="M51.5256,-132.686C64.2057,-122.639 81.4063,-110.004 98,-101 104.882,-97.2658 112.31,-93.7695 119.779,-90.5686"/>
<polygon fill="midnightblue" stroke="midnightblue" points="49.1061,-130.142 43.5323,-139.152 53.5084,-135.584 49.1061,-130.142"/>
</g>
<!-- Node11 -->
<g id="node11" class="node"><title>Node11</title>
<g id="a_node11"><a xlink:href="classElmerFoamFSI_1_1DriverComLine_a98b1050f09da390896f964fb7a892391.html#a98b1050f09da390896f964fb7a892391" target="_top" xlink:title="This is where the actual options and arguments are described. ">
<polygon fill="none" stroke="black" points="103,-0 103,-30 257,-30 257,-0 103,-0"/>
<text text-anchor="start" x="111" y="-18" font-family="Helvetica,sans-Serif" font-size="10.00">ElmerFoamFSI::DriverComLine</text>
<text text-anchor="middle" x="180" y="-7" font-family="Helvetica,sans-Serif" font-size="10.00">::Initialize</text>
</a>
</g>
</g>
<!-- Node1&#45;&gt;Node11 -->
<g id="edge10" class="edge"><title>Node1&#45;&gt;Node11</title>
<path fill="none" stroke="midnightblue" d="M38.7442,-129.63C48.2191,-105.216 67.7722,-63.5984 98,-40 102.988,-36.1057 108.586,-32.8144 114.448,-30.0332"/>
<polygon fill="midnightblue" stroke="midnightblue" points="35.3821,-128.631 35.198,-139.224 41.9479,-131.058 35.3821,-128.631"/>
</g>
<!-- Node5 -->
<g id="node5" class="node"><title>Node5</title>
<g id="a_node5"><a xlink:href="namespaceElmerFoamFSI_ae544cb65d02e78238b4c6f1690b9ffda.html#ae544cb65d02e78238b4c6f1690b9ffda" target="_top" xlink:title="Drives the ElmerFoamFSI::TestObject. ">
<polygon fill="none" stroke="black" points="298,-183.5 298,-202.5 438,-202.5 438,-183.5 298,-183.5"/>
<text text-anchor="middle" x="368" y="-190.5" font-family="Helvetica,sans-Serif" font-size="10.00">ElmerFoamFSI::ParallelTest</text>
</a>
</g>
</g>
<!-- Node4&#45;&gt;Node5 -->
<g id="edge4" class="edge"><title>Node4&#45;&gt;Node5</title>
<path fill="none" stroke="midnightblue" d="M263.705,-182.448C275.158,-183.618 286.822,-184.81 297.991,-185.951"/>
<polygon fill="midnightblue" stroke="midnightblue" points="264.016,-178.962 253.712,-181.428 263.304,-185.926 264.016,-178.962"/>
</g>
<!-- Node7 -->
<g id="node7" class="node"><title>Node7</title>
<g id="a_node7"><a xlink:href="namespaceElmerFoamFSI_aeb590657609088b8ab12a5cbd164fcfa.html#aeb590657609088b8ab12a5cbd164fcfa" target="_top" xlink:title="Drives the ElmerFoamFSI::TestObject. ">
<polygon fill="none" stroke="black" points="314,-145.5 314,-164.5 422,-164.5 422,-145.5 314,-145.5"/>
<text text-anchor="middle" x="368" y="-152.5" font-family="Helvetica,sans-Serif" font-size="10.00">ElmerFoamFSI::Test</text>
</a>
</g>
</g>
<!-- Node4&#45;&gt;Node7 -->
<g id="edge6" class="edge"><title>Node4&#45;&gt;Node7</title>
<path fill="none" stroke="midnightblue" d="M263.68,-165.554C280.733,-163.812 298.255,-162.022 313.913,-160.423"/>
<polygon fill="midnightblue" stroke="midnightblue" points="263.304,-162.074 253.712,-166.572 264.016,-169.038 263.304,-162.074"/>
</g>
<!-- Node6 -->
<g id="node6" class="node"><title>Node6</title>
<g id="a_node6"><a xlink:href="ParallelTestElmerFoamFSI_8C_a0ddf1224851353fc92bfbff6f499fa97.html#a0ddf1224851353fc92bfbff6f499fa97" target="_top" xlink:title="main">
<polygon fill="none" stroke="black" points="474,-183.5 474,-202.5 512,-202.5 512,-183.5 474,-183.5"/>
<text text-anchor="middle" x="493" y="-190.5" font-family="Helvetica,sans-Serif" font-size="10.00">main</text>
</a>
</g>
</g>
<!-- Node5&#45;&gt;Node6 -->
<g id="edge5" class="edge"><title>Node5&#45;&gt;Node6</title>
<path fill="none" stroke="midnightblue" d="M448.08,-193C457.535,-193 466.384,-193 473.627,-193"/>
<polygon fill="midnightblue" stroke="midnightblue" points="448.05,-189.5 438.05,-193 448.05,-196.5 448.05,-189.5"/>
</g>
<!-- Node8 -->
<g id="node8" class="node"><title>Node8</title>
<g id="a_node8"><a xlink:href="TestElmerFoamFSI_8C_a0ddf1224851353fc92bfbff6f499fa97.html#a0ddf1224851353fc92bfbff6f499fa97" target="_top" xlink:title="main">
<polygon fill="none" stroke="black" points="474,-145.5 474,-164.5 512,-164.5 512,-145.5 474,-145.5"/>
<text text-anchor="middle" x="493" y="-152.5" font-family="Helvetica,sans-Serif" font-size="10.00">main</text>
</a>
</g>
</g>
<!-- Node7&#45;&gt;Node8 -->
<g id="edge7" class="edge"><title>Node7&#45;&gt;Node8</title>
<path fill="none" stroke="midnightblue" d="M432.668,-155C447.763,-155 462.684,-155 473.787,-155"/>
<polygon fill="midnightblue" stroke="midnightblue" points="432.234,-151.5 422.234,-155 432.234,-158.5 432.234,-151.5"/>
</g>
</g>
</svg>
