<?xml version="1.0" encoding="UTF-8" standalone="no"?>
<!DOCTYPE svg PUBLIC "-//W3C//DTD SVG 1.1//EN"
 "http://www.w3.org/Graphics/SVG/1.1/DTD/svg11.dtd">
<!-- Generated by graphviz version 2.26.0 (20091210.2329)
 -->
<!-- Title: SolverModuleDriver Pages: 1 -->
<svg width="170pt" height="88pt"
 viewBox="0.00 0.00 170.00 88.00" xmlns="http://www.w3.org/2000/svg" xmlns:xlink="http://www.w3.org/1999/xlink">
<g id="graph1" class="graph" transform="scale(1 1) rotate(0) translate(4 84)">
<title>SolverModuleDriver</title>
<!-- Node1 -->
<g id="node1" class="node"><title>Node1</title>
<polygon fill="#bfbfbf" stroke="black" points="29,-0.5 29,-21.5 131,-21.5 131,-0.5 29,-0.5"/>
<text text-anchor="middle" x="80" y="-8.5" font-family="Helvetica,sans-Serif" font-size="10.00">SolverModuleDriver</text>
</g>
<!-- Node2 -->
<g id="node2" class="node"><title>Node2</title>
<polygon fill="none" stroke="#bfbfbf" points="0,-58.5 0,-79.5 70,-79.5 70,-58.5 0,-58.5"/>
<text text-anchor="middle" x="35" y="-66.5" font-family="Helvetica,sans-Serif" font-size="10.00">SolverAgent</text>
</g>
<!-- Node2&#45;&gt;Node1 -->
<g id="edge2" class="edge"><title>Node2&#45;&gt;Node1</title>
<path fill="none" stroke="midnightblue" d="M49.5471,-50.2504C56.9181,-40.75 65.5961,-29.5651 71.7986,-21.5707"/>
<polygon fill="midnightblue" stroke="midnightblue" points="46.6184,-48.3155 43.2537,-58.3619 52.149,-52.6065 46.6184,-48.3155"/>
</g>
<!-- Node3 -->
<g id="node4" class="node"><title>Node3</title>
<polygon fill="none" stroke="#bfbfbf" points="88,-58.5 88,-79.5 162,-79.5 162,-58.5 88,-58.5"/>
<text text-anchor="middle" x="125" y="-66.5" font-family="Helvetica,sans-Serif" font-size="10.00">COM_Object</text>
</g>
<!-- Node3&#45;&gt;Node1 -->
<g id="edge4" class="edge"><title>Node3&#45;&gt;Node1</title>
<path fill="none" stroke="midnightblue" d="M110.453,-50.2504C103.082,-40.75 94.4039,-29.5651 88.2014,-21.5707"/>
<polygon fill="midnightblue" stroke="midnightblue" points="107.851,-52.6065 116.746,-58.3619 113.382,-48.3155 107.851,-52.6065"/>
</g>
</g>
</svg>
