<?xml version="1.0" encoding="UTF-8" standalone="no"?>
<!DOCTYPE svg PUBLIC "-//W3C//DTD SVG 1.1//EN"
 "http://www.w3.org/Graphics/SVG/1.1/DTD/svg11.dtd">
<!-- Generated by graphviz version 2.30.1 (20150305.2338)
 -->
<!-- Title: is_ghost_border_edge Pages: 1 -->
<svg width="370pt" height="66pt"
 viewBox="0.00 0.00 370.00 66.00" xmlns="http://www.w3.org/2000/svg" xmlns:xlink="http://www.w3.org/1999/xlink">
<g id="graph0" class="graph" transform="scale(1 1) rotate(0) translate(4 62)">
<title>is_ghost_border_edge</title>
<!-- Node1 -->
<g id="node1" class="node"><title>Node1</title>
<polygon fill="#bfbfbf" stroke="black" points="0,-19.5 0,-38.5 112,-38.5 112,-19.5 0,-19.5"/>
<text text-anchor="middle" x="56" y="-26.5" font-family="Helvetica,sans-Serif" font-size="10.00">is_ghost_border_edge</text>
</g>
<!-- Node2 -->
<g id="node2" class="node"><title>Node2</title>
<g id="a_node2"><a xlink:href="classFacet__ID_a1dea367be190d5726e3aa6b8d0c47076.html#a1dea367be190d5726e3aa6b8d0c47076" target="_top" xlink:title="Element ID of the halfedge. ">
<polygon fill="none" stroke="black" points="162,-38.5 162,-57.5 238,-57.5 238,-38.5 162,-38.5"/>
<text text-anchor="middle" x="200" y="-45.5" font-family="Helvetica,sans-Serif" font-size="10.00">Facet_ID::eid</text>
</a>
</g>
</g>
<!-- Node1&#45;&gt;Node2 -->
<g id="edge1" class="edge"><title>Node1&#45;&gt;Node2</title>
<path fill="none" stroke="midnightblue" d="M112.308,-36.4003C125.205,-38.1261 138.83,-39.9491 151.363,-41.626"/>
<polygon fill="midnightblue" stroke="midnightblue" points="151.217,-45.1376 161.593,-42.9948 152.145,-38.1994 151.217,-45.1376"/>
</g>
<!-- Node3 -->
<g id="node3" class="node"><title>Node3</title>
<g id="a_node3"><a xlink:href="classFacet__ID_aa126fd94949c810d24869ad04cd97e15.html#aa126fd94949c810d24869ad04cd97e15" target="_top" xlink:title="Determines whether the facet is on border. ">
<polygon fill="none" stroke="black" points="148.5,-0.5 148.5,-19.5 251.5,-19.5 251.5,-0.5 148.5,-0.5"/>
<text text-anchor="middle" x="200" y="-7.5" font-family="Helvetica,sans-Serif" font-size="10.00">Facet_ID::is_border</text>
</a>
</g>
</g>
<!-- Node1&#45;&gt;Node3 -->
<g id="edge2" class="edge"><title>Node1&#45;&gt;Node3</title>
<path fill="none" stroke="midnightblue" d="M112.308,-21.5997C120.815,-20.4613 129.639,-19.2807 138.257,-18.1275"/>
<polygon fill="midnightblue" stroke="midnightblue" points="138.801,-21.5861 148.249,-16.7907 137.873,-14.6479 138.801,-21.5861"/>
</g>
<!-- Node4 -->
<g id="node4" class="node"><title>Node4</title>
<g id="a_node4"><a xlink:href="classFacet__ID_ae7df635a2e18521c31e7da0b999b802b.html#ae7df635a2e18521c31e7da0b999b802b" target="_top" xlink:title="Local edge ID of the halfedge within its element. ">
<polygon fill="none" stroke="black" points="288.5,-0.5 288.5,-19.5 361.5,-19.5 361.5,-0.5 288.5,-0.5"/>
<text text-anchor="middle" x="325" y="-7.5" font-family="Helvetica,sans-Serif" font-size="10.00">Facet_ID::lid</text>
</a>
</g>
</g>
<!-- Node3&#45;&gt;Node4 -->
<g id="edge3" class="edge"><title>Node3&#45;&gt;Node4</title>
<path fill="none" stroke="midnightblue" d="M251.739,-10C260.49,-10 269.54,-10 278.152,-10"/>
<polygon fill="midnightblue" stroke="midnightblue" points="278.39,-13.5001 288.39,-10 278.39,-6.5001 278.39,-13.5001"/>
</g>
</g>
</svg>
