<?xml version="1.0" encoding="UTF-8" standalone="no"?>
<!DOCTYPE svg PUBLIC "-//W3C//DTD SVG 1.1//EN"
 "http://www.w3.org/Graphics/SVG/1.1/DTD/svg11.dtd">
<!-- Generated by graphviz version 2.30.1 (20150305.2338)
 -->
<!-- Title: Reduce Pages: 1 -->
<svg width="190pt" height="66pt"
 viewBox="0.00 0.00 190.00 66.00" xmlns="http://www.w3.org/2000/svg" xmlns:xlink="http://www.w3.org/1999/xlink">
<g id="graph0" class="graph" transform="scale(1 1) rotate(0) translate(4 62)">
<title>Reduce</title>
<!-- Node1 -->
<g id="node1" class="node"><title>Node1</title>
<polygon fill="#bfbfbf" stroke="black" points="0,-19.5 0,-38.5 50,-38.5 50,-19.5 0,-19.5"/>
<text text-anchor="middle" x="25" y="-26.5" font-family="Helvetica,sans-Serif" font-size="10.00">Reduce</text>
</g>
<!-- Node2 -->
<g id="node2" class="node"><title>Node2</title>
<g id="a_node2"><a xlink:href="classIRAD_1_1Comm_1_1CommunicatorObject_ad993b33a029d4c8868f37b08710af360.html#ad993b33a029d4c8868f37b08710af360" target="_top" xlink:title="ResolveDataType">
<polygon fill="none" stroke="black" points="86.5,-38.5 86.5,-57.5 181.5,-57.5 181.5,-38.5 86.5,-38.5"/>
<text text-anchor="middle" x="134" y="-45.5" font-family="Helvetica,sans-Serif" font-size="10.00">ResolveDataType</text>
</a>
</g>
</g>
<!-- Node1&#45;&gt;Node2 -->
<g id="edge1" class="edge"><title>Node1&#45;&gt;Node2</title>
<path fill="none" stroke="midnightblue" d="M50.0129,-33.264C57.8862,-34.662 66.9986,-36.2801 76.2411,-37.9213"/>
<polygon fill="midnightblue" stroke="midnightblue" points="75.811,-41.3996 86.2689,-39.702 77.0349,-34.5074 75.811,-41.3996"/>
</g>
<!-- Node3 -->
<g id="node3" class="node"><title>Node3</title>
<g id="a_node3"><a xlink:href="classIRAD_1_1Comm_1_1CommunicatorObject_adbbceea19eefc9cafdf65bb4572a0233.html#adbbceea19eefc9cafdf65bb4572a0233" target="_top" xlink:title="ResolveOp">
<polygon fill="none" stroke="black" points="101.5,-0.5 101.5,-19.5 166.5,-19.5 166.5,-0.5 101.5,-0.5"/>
<text text-anchor="middle" x="134" y="-7.5" font-family="Helvetica,sans-Serif" font-size="10.00">ResolveOp</text>
</a>
</g>
</g>
<!-- Node1&#45;&gt;Node3 -->
<g id="edge2" class="edge"><title>Node1&#45;&gt;Node3</title>
<path fill="none" stroke="midnightblue" d="M50.0129,-24.736C62.2099,-22.5702 77.3805,-19.8764 91.4021,-17.3865"/>
<polygon fill="midnightblue" stroke="midnightblue" points="92.1159,-20.8146 101.35,-15.6201 90.892,-13.9224 92.1159,-20.8146"/>
</g>
</g>
</svg>
