<?xml version="1.0" encoding="UTF-8" standalone="no"?>
<!DOCTYPE svg PUBLIC "-//W3C//DTD SVG 1.1//EN"
 "http://www.w3.org/Graphics/SVG/1.1/DTD/svg11.dtd">
<!-- Generated by graphviz version 2.26.0 (20091210.2329)
 -->
<!-- Title: execsimulation Pages: 1 -->
<svg width="296pt" height="50pt"
 viewBox="0.00 0.00 296.00 50.00" xmlns="http://www.w3.org/2000/svg" xmlns:xlink="http://www.w3.org/1999/xlink">
<g id="graph1" class="graph" transform="scale(1 1) rotate(0) translate(4 46)">
<title>execsimulation</title>
<!-- Node1 -->
<g id="node1" class="node"><title>Node1</title>
<polygon fill="#bfbfbf" stroke="black" points="0,-0.5 0,-21.5 82,-21.5 82,-0.5 0,-0.5"/>
<text text-anchor="middle" x="41" y="-8.5" font-family="Helvetica,sans-Serif" font-size="10.00">execsimulation</text>
</g>
<!-- Node2 -->
<g id="node3" class="node"><title>Node2</title>
<a xlink:href="classmymodule_a22c594fc74d4a28dc4fd20412caed9c5.html#a22c594fc74d4a28dc4fd20412caed9c5" target="_top" xlink:title="Saves current timestep to external files. ">
<polygon fill="none" stroke="black" points="118,-20.5 118,-41.5 186,-41.5 186,-20.5 118,-20.5"/>
<text text-anchor="middle" x="152" y="-28.5" font-family="Helvetica,sans-Serif" font-size="10.00">savecurrent</text>
</a>
</g>
<!-- Node1&#45;&gt;Node2 -->
<g id="edge2" class="edge"><title>Node1&#45;&gt;Node2</title>
<path fill="none" stroke="midnightblue" d="M82.0169,-18.3904C90.359,-19.8935 99.1704,-21.4812 107.623,-23.0041"/>
<polygon fill="midnightblue" stroke="midnightblue" points="107.237,-26.4909 117.699,-24.8197 108.479,-19.6019 107.237,-26.4909"/>
</g>
<!-- Node3 -->
<g id="node5" class="node"><title>Node3</title>
<a xlink:href="classmymodule_aa4606faf69704584d197ae7ccfbf8068.html#aa4606faf69704584d197ae7ccfbf8068" target="_top" xlink:title="Saves results file to post processing file of ElmerPost format, if requested. ">
<polygon fill="none" stroke="black" points="222.5,-0.5 222.5,-21.5 287.5,-21.5 287.5,-0.5 222.5,-0.5"/>
<text text-anchor="middle" x="255" y="-8.5" font-family="Helvetica,sans-Serif" font-size="10.00">savetopost</text>
</a>
</g>
<!-- Node1&#45;&gt;Node3 -->
<g id="edge6" class="edge"><title>Node1&#45;&gt;Node3</title>
<path fill="none" stroke="midnightblue" d="M82.0081,-11C119.282,-11 174.085,-11 211.975,-11"/>
<polygon fill="midnightblue" stroke="midnightblue" points="212.185,-14.5001 222.185,-11 212.185,-7.5001 212.185,-14.5001"/>
</g>
<!-- Node2&#45;&gt;Node3 -->
<g id="edge4" class="edge"><title>Node2&#45;&gt;Node3</title>
<path fill="none" stroke="midnightblue" d="M186.012,-24.3958C194.435,-22.7602 203.566,-20.9871 212.345,-19.2826"/>
<polygon fill="midnightblue" stroke="midnightblue" points="213.274,-22.6676 222.423,-17.3256 211.94,-15.7959 213.274,-22.6676"/>
</g>
</g>
</svg>
