<?xml version="1.0" encoding="UTF-8" standalone="no"?>
<!DOCTYPE svg PUBLIC "-//W3C//DTD SVG 1.1//EN"
 "http://www.w3.org/Graphics/SVG/1.1/DTD/svg11.dtd">
<!-- Generated by graphviz version 2.30.1 (20150305.2338)
 -->
<!-- Title: Process Pages: 1 -->
<!--zoomable 650 -->
<svg id="main" version="1.1" xmlns="http://www.w3.org/2000/svg" xmlns:xlink="http://www.w3.org/1999/xlink" xml:space="preserve" onload="init(evt)">
<style type="text/css"><![CDATA[
.edge:hover path { stroke: red; }
.edge:hover polygon { stroke: red; fill: red; }
]]></style>
<script type="text/javascript"><![CDATA[
var edges = document.getElementsByTagName('g');
if (edges && edges.length) {
  for (var i=0;i<edges.length;i++) {
    if (edges[i].id.substr(0,4)=='edge') {
      edges[i].setAttribute('class','edge');
    }
  }
}
]]></script>
        <defs>
                <circle id="rim" cx="0" cy="0" r="7"/>
                <circle id="rim2" cx="0" cy="0" r="3.5"/>
                <g id="zoomPlus">
                        <use xlink:href="#rim" fill="#404040">
                                <set attributeName="fill" to="#808080" begin="zoomplus.mouseover" end="zoomplus.mouseout"/>
                        </use>
                        <path d="M-4,0h8M0,-4v8" fill="none" stroke="white" stroke-width="1.5" pointer-events="none"/>
                </g>
                <g id="zoomMin">
                        <use xlink:href="#rim" fill="#404040">
                                <set attributeName="fill" to="#808080" begin="zoomminus.mouseover" end="zoomminus.mouseout"/>
                        </use>
                        <path d="M-4,0h8" fill="none" stroke="white" stroke-width="1.5" pointer-events="none"/>
                </g>
                <g id="dirArrow">
                        <path fill="none" stroke="white" stroke-width="1.5" d="M0,-3.0v7 M-2.5,-0.5L0,-3.0L2.5,-0.5"/>
                </g>
               <g id="resetDef">
                       <use xlink:href="#rim2" fill="#404040">
                               <set attributeName="fill" to="#808080" begin="reset.mouseover" end="reset.mouseout"/>
                       </use>
               </g>
        </defs>

<script type="text/javascript">
var viewWidth = 760;
var viewHeight = 650;
var sectionId = 'dynsection-0';
</script>
<script xlink:href="svgpan.js"/>
<svg id="graph" class="graph">
<g id="viewport">
<title>Process</title>
<!-- Node1 -->
<g id="node1" class="node"><title>Node1</title>
<polygon fill="#bfbfbf" stroke="black" points="0.5,-310.5 0.5,-329.5 53.5,-329.5 53.5,-310.5 0.5,-310.5"/>
<text text-anchor="middle" x="27" y="-317.5" font-family="Helvetica,sans-Serif" font-size="10.00">Process</text>
</g>
<!-- Node2 -->
<g id="node2" class="node"><title>Node2</title>
<g id="a_node2"><a xlink:href="classElmerModuleDriver_1_1TestingObject_aa25f45634aafbb580d94840ad8452745.html#aa25f45634aafbb580d94840ad8452745" target="_top" xlink:title="Tears down the testing fixtures if needed. ">
<polygon fill="none" stroke="black" points="132,-435.5 132,-454.5 186,-454.5 186,-435.5 132,-435.5"/>
<text text-anchor="middle" x="159" y="-442.5" font-family="Helvetica,sans-Serif" font-size="10.00">Epilogue</text>
</a>
</g>
</g>
<!-- Node1&#45;&gt;Node2 -->
<g id="edge1" class="edge"><title>Node1&#45;&gt;Node2</title>
<path fill="none" stroke="midnightblue" d="M30.856,-329.571C37.5759,-350.409 56.4061,-400.088 90,-426 99.1403,-433.05 110.758,-437.484 121.793,-440.273"/>
<polygon fill="midnightblue" stroke="midnightblue" points="121.163,-443.718 131.676,-442.4 122.636,-436.875 121.163,-443.718"/>
</g>
<!-- Node3 -->
<g id="node3" class="node"><title>Node3</title>
<g id="a_node3"><a xlink:href="classElmerModuleDriver_1_1TestingObject_aa3cdb6d60e9d9834c19efaab0b044421.html#aa3cdb6d60e9d9834c19efaab0b044421" target="_top" xlink:title="Sets up the data fixtures for the tests. ">
<polygon fill="none" stroke="black" points="131.5,-397.5 131.5,-416.5 186.5,-416.5 186.5,-397.5 131.5,-397.5"/>
<text text-anchor="middle" x="159" y="-404.5" font-family="Helvetica,sans-Serif" font-size="10.00">Prologue</text>
</a>
</g>
</g>
<!-- Node1&#45;&gt;Node3 -->
<g id="edge2" class="edge"><title>Node1&#45;&gt;Node3</title>
<path fill="none" stroke="midnightblue" d="M34.3405,-329.939C44.35,-344.816 65.242,-372.753 90,-388 99.4914,-393.845 110.82,-397.935 121.483,-400.779"/>
<polygon fill="midnightblue" stroke="midnightblue" points="120.883,-404.234 131.421,-403.141 122.501,-397.424 120.883,-404.234"/>
</g>
<!-- Node4 -->
<g id="node4" class="node"><title>Node4</title>
<g id="a_node4"><a xlink:href="classElmerModuleDriver_1_1TestingObject_ada2078f55b55b73d4aacf78d061a57de.html#ada2078f55b55b73d4aacf78d061a57de" target="_top" xlink:title="Test__ElmerUnitTests">
<polygon fill="none" stroke="black" points="101.5,-359.5 101.5,-378.5 216.5,-378.5 216.5,-359.5 101.5,-359.5"/>
<text text-anchor="middle" x="159" y="-366.5" font-family="Helvetica,sans-Serif" font-size="10.00">Test__ElmerUnitTests</text>
</a>
</g>
</g>
<!-- Node1&#45;&gt;Node4 -->
<g id="edge3" class="edge"><title>Node1&#45;&gt;Node4</title>
<path fill="none" stroke="midnightblue" d="M53.3739,-329.564C73.238,-337.051 101.086,-347.548 123.058,-355.83"/>
<polygon fill="midnightblue" stroke="midnightblue" points="122.098,-359.208 132.69,-359.46 124.567,-352.658 122.098,-359.208"/>
</g>
<!-- Node25 -->
<g id="node25" class="node"><title>Node25</title>
<g id="a_node25"><a xlink:href="classElmerModuleDriver_1_1TestingObject_a14258b94075936cb7bfadbcfc9a37b87.html#a14258b94075936cb7bfadbcfc9a37b87" target="_top" xlink:title="Test for ElmerModuleDriver::ExampleFunction. ">
<polygon fill="none" stroke="black" points="98,-261.5 98,-280.5 220,-280.5 220,-261.5 98,-261.5"/>
<text text-anchor="middle" x="159" y="-268.5" font-family="Helvetica,sans-Serif" font-size="10.00">Test__ExampleFunction</text>
</a>
</g>
</g>
<!-- Node1&#45;&gt;Node25 -->
<g id="edge30" class="edge"><title>Node1&#45;&gt;Node25</title>
<path fill="none" stroke="midnightblue" d="M53.3739,-310.436C73.238,-302.949 101.086,-292.452 123.058,-284.17"/>
<polygon fill="midnightblue" stroke="midnightblue" points="124.567,-287.342 132.69,-280.54 122.098,-280.792 124.567,-287.342"/>
</g>
<!-- Node27 -->
<g id="node27" class="node"><title>Node27</title>
<g id="a_node27"><a xlink:href="classElmerModuleDriver_1_1TestingObject_a7de28a366b07117111ce7c1e9515a434.html#a7de28a366b07117111ce7c1e9515a434" target="_top" xlink:title="Test for ElmerModuleDriver::MidPointQuadrature. ">
<polygon fill="none" stroke="black" points="92.5,-79.5 92.5,-98.5 225.5,-98.5 225.5,-79.5 92.5,-79.5"/>
<text text-anchor="middle" x="159" y="-86.5" font-family="Helvetica,sans-Serif" font-size="10.00">Test__MidPointQuadrature</text>
</a>
</g>
</g>
<!-- Node1&#45;&gt;Node27 -->
<g id="edge32" class="edge"><title>Node1&#45;&gt;Node27</title>
<path fill="none" stroke="midnightblue" d="M29.1885,-310.353C33.1463,-281.539 48.0875,-194.605 90,-138 100.513,-123.802 116.348,-112.05 130.093,-103.618"/>
<polygon fill="midnightblue" stroke="midnightblue" points="131.877,-106.629 138.747,-98.5633 128.346,-100.585 131.877,-106.629"/>
</g>
<!-- Node31 -->
<g id="node31" class="node"><title>Node31</title>
<g id="a_node31"><a xlink:href="classElmerModuleDriver_1_1TestingObject_a7928083cb5586c2b361e1d29a8dc2b54.html#a7928083cb5586c2b361e1d29a8dc2b54" target="_top" xlink:title="Test for ElmerModuleDriver::TrapezoidQuadrature. ">
<polygon fill="none" stroke="black" points="90.5,-147.5 90.5,-166.5 227.5,-166.5 227.5,-147.5 90.5,-147.5"/>
<text text-anchor="middle" x="159" y="-154.5" font-family="Helvetica,sans-Serif" font-size="10.00">Test__TrapezoidQuadrature</text>
</a>
</g>
</g>
<!-- Node1&#45;&gt;Node31 -->
<g id="edge36" class="edge"><title>Node1&#45;&gt;Node31</title>
<path fill="none" stroke="midnightblue" d="M35.7428,-310.292C56.9176,-283.742 116.037,-209.615 143.561,-175.104"/>
<polygon fill="midnightblue" stroke="midnightblue" points="146.634,-176.864 150.133,-166.863 141.162,-172.499 146.634,-176.864"/>
</g>
<!-- Node5 -->
<g id="node5" class="node"><title>Node5</title>
<g id="a_node5"><a xlink:href="namespaceIRAD_1_1Sys_afe7cbdace3dec046da8a36d08578610d.html#afe7cbdace3dec046da8a36d08578610d" target="_top" xlink:title="IRAD::Sys::ChDir">
<polygon fill="none" stroke="black" points="458,-397.5 458,-416.5 554,-416.5 554,-397.5 458,-397.5"/>
<text text-anchor="middle" x="506" y="-404.5" font-family="Helvetica,sans-Serif" font-size="10.00">IRAD::Sys::ChDir</text>
</a>
</g>
</g>
<!-- Node4&#45;&gt;Node5 -->
<g id="edge4" class="edge"><title>Node4&#45;&gt;Node5</title>
<path fill="none" stroke="midnightblue" d="M216.63,-376.985C231.987,-379.051 248.619,-381.199 264,-383 326.772,-390.348 398.913,-397.341 447.782,-401.863"/>
<polygon fill="midnightblue" stroke="midnightblue" points="447.566,-405.358 457.845,-402.79 448.208,-398.387 447.566,-405.358"/>
</g>
<!-- Node6 -->
<g id="node6" class="node"><title>Node6</title>
<g id="a_node6"><a xlink:href="com__c_09_09_8hpp_a6f9e4ea8f2cb977968964f4cb5a4b4f6.html#a6f9e4ea8f2cb977968964f4cb5a4b4f6" target="_top" xlink:title="COM_call_function">
<polygon fill="none" stroke="black" points="282,-245.5 282,-264.5 382,-264.5 382,-245.5 282,-245.5"/>
<text text-anchor="middle" x="332" y="-252.5" font-family="Helvetica,sans-Serif" font-size="10.00">COM_call_function</text>
</a>
</g>
</g>
<!-- Node4&#45;&gt;Node6 -->
<g id="edge5" class="edge"><title>Node4&#45;&gt;Node6</title>
<path fill="none" stroke="midnightblue" d="M168.828,-359.273C185.707,-341.187 224.414,-302.123 264,-279 271.206,-274.791 279.273,-271.132 287.245,-268.027"/>
<polygon fill="midnightblue" stroke="midnightblue" points="288.668,-271.233 296.858,-264.513 286.265,-264.659 288.668,-271.233"/>
</g>
<!-- Node7 -->
<g id="node7" class="node"><title>Node7</title>
<g id="a_node7"><a xlink:href="com__c_8h_a6dd240c15a2b3e85d2d91cbe9eec6611.html#a6dd240c15a2b3e85d2d91cbe9eec6611" target="_top" xlink:title="Get the address for an dataitem on a specific pane. ">
<polygon fill="none" stroke="black" points="289,-596.5 289,-615.5 375,-615.5 375,-596.5 289,-596.5"/>
<text text-anchor="middle" x="332" y="-603.5" font-family="Helvetica,sans-Serif" font-size="10.00">COM_get_array</text>
</a>
</g>
</g>
<!-- Node4&#45;&gt;Node7 -->
<g id="edge6" class="edge"><title>Node4&#45;&gt;Node7</title>
<path fill="none" stroke="midnightblue" d="M215.843,-378.654C220.375,-381.125 224.534,-384.194 228,-388 288.515,-454.455 203.613,-520.428 264,-587 268.265,-591.702 273.598,-595.274 279.382,-597.982"/>
<polygon fill="midnightblue" stroke="midnightblue" points="278.164,-601.263 288.754,-601.565 280.664,-594.725 278.164,-601.263"/>
</g>
<!-- Node8 -->
<g id="node8" class="node"><title>Node8</title>
<g id="a_node8"><a xlink:href="com__c_09_09_8hpp_a86224e33f2e17b4cee6c3256bfdff75d.html#a86224e33f2e17b4cee6c3256bfdff75d" target="_top" xlink:title="COM_get_dataitem_handle">
<polygon fill="none" stroke="black" points="264.5,-520.5 264.5,-539.5 399.5,-539.5 399.5,-520.5 264.5,-520.5"/>
<text text-anchor="middle" x="332" y="-527.5" font-family="Helvetica,sans-Serif" font-size="10.00">COM_get_dataitem_handle</text>
</a>
</g>
</g>
<!-- Node4&#45;&gt;Node8 -->
<g id="edge7" class="edge"><title>Node4&#45;&gt;Node8</title>
<path fill="none" stroke="midnightblue" d="M214.438,-378.545C219.43,-381.023 224.076,-384.124 228,-388 268.523,-428.029 223.554,-470.893 264,-511 265.449,-512.437 266.998,-513.766 268.627,-514.997"/>
<polygon fill="midnightblue" stroke="midnightblue" points="267.004,-518.108 277.356,-520.362 270.67,-512.144 267.004,-518.108"/>
</g>
<!-- Node12 -->
<g id="node12" class="node"><title>Node12</title>
<g id="a_node12"><a xlink:href="com__c_09_09_8hpp_acbbf9749cce36d33b4c60c100bdfaea2.html#acbbf9749cce36d33b4c60c100bdfaea2" target="_top" xlink:title="COM_get_function_handle">
<polygon fill="none" stroke="black" points="266,-558.5 266,-577.5 398,-577.5 398,-558.5 266,-558.5"/>
<text text-anchor="middle" x="332" y="-565.5" font-family="Helvetica,sans-Serif" font-size="10.00">COM_get_function_handle</text>
</a>
</g>
</g>
<!-- Node4&#45;&gt;Node12 -->
<g id="edge11" class="edge"><title>Node4&#45;&gt;Node12</title>
<path fill="none" stroke="midnightblue" d="M215.354,-378.631C220.044,-381.101 224.372,-384.176 228,-388 278.469,-441.189 213.634,-495.713 264,-549 265.256,-550.329 266.598,-551.567 268.01,-552.721"/>
<polygon fill="midnightblue" stroke="midnightblue" points="266.489,-555.908 276.776,-558.445 270.317,-550.047 266.489,-555.908"/>
</g>
<!-- Node14 -->
<g id="node14" class="node"><title>Node14</title>
<g id="a_node14"><a xlink:href="com__c_09_09_8hpp_a74e2d52abbc3b6532fc19b38deabba26.html#a74e2d52abbc3b6532fc19b38deabba26" target="_top" xlink:title="Get the sizes of an dataitem. ">
<polygon fill="none" stroke="black" points="291,-482.5 291,-501.5 373,-501.5 373,-482.5 291,-482.5"/>
<text text-anchor="middle" x="332" y="-489.5" font-family="Helvetica,sans-Serif" font-size="10.00">COM_get_size</text>
</a>
</g>
</g>
<!-- Node4&#45;&gt;Node14 -->
<g id="edge14" class="edge"><title>Node4&#45;&gt;Node14</title>
<path fill="none" stroke="midnightblue" d="M212.924,-378.609C218.389,-381.065 223.556,-384.143 228,-388 258.06,-414.088 234.532,-443.245 264,-470 269.055,-474.589 275.087,-478.223 281.43,-481.1"/>
<polygon fill="midnightblue" stroke="midnightblue" points="280.281,-484.409 290.869,-484.797 282.834,-477.891 280.281,-484.409"/>
</g>
<!-- Node16 -->
<g id="node16" class="node"><title>Node16</title>
<g id="a_node16"><a xlink:href="com__c_09_09_8hpp_a18a6824608686682b76b860744a104d6.html#a18a6824608686682b76b860744a104d6" target="_top" xlink:title="COM_get_window_handle">
<polygon fill="none" stroke="black" points="266.5,-441.5 266.5,-460.5 397.5,-460.5 397.5,-441.5 266.5,-441.5"/>
<text text-anchor="middle" x="332" y="-448.5" font-family="Helvetica,sans-Serif" font-size="10.00">COM_get_window_handle</text>
</a>
</g>
</g>
<!-- Node4&#45;&gt;Node16 -->
<g id="edge17" class="edge"><title>Node4&#45;&gt;Node16</title>
<path fill="none" stroke="midnightblue" d="M205.803,-378.601C213.464,-381.097 221.143,-384.189 228,-388 246.973,-398.543 245.862,-409.078 264,-421 273.622,-427.324 284.797,-432.921 295.23,-437.516"/>
<polygon fill="midnightblue" stroke="midnightblue" points="293.964,-440.781 304.538,-441.447 296.687,-434.332 293.964,-440.781"/>
</g>
<!-- Node18 -->
<g id="node18" class="node"><title>Node18</title>
<g id="a_node18"><a xlink:href="namespaceIRAD_1_1Sys_afae3306c1aef8273c2fd074f4f5c4fe6.html#afae3306c1aef8273c2fd074f4f5c4fe6" target="_top" xlink:title="IRAD::Sys::CWD">
<polygon fill="none" stroke="black" points="458.5,-359.5 458.5,-378.5 553.5,-378.5 553.5,-359.5 458.5,-359.5"/>
<text text-anchor="middle" x="506" y="-366.5" font-family="Helvetica,sans-Serif" font-size="10.00">IRAD::Sys::CWD</text>
</a>
</g>
</g>
<!-- Node4&#45;&gt;Node18 -->
<g id="edge20" class="edge"><title>Node4&#45;&gt;Node18</title>
<path fill="none" stroke="midnightblue" d="M216.583,-369C280.505,-369 383.952,-369 448.032,-369"/>
<polygon fill="midnightblue" stroke="midnightblue" points="448.355,-372.5 458.355,-369 448.355,-365.5 448.355,-372.5"/>
</g>
<!-- Node19 -->
<g id="node19" class="node"><title>Node19</title>
<g id="a_node19"><a xlink:href="namespaceIRAD_1_1Sys_a64439af6e8939be5517df918e2ecea36.html#a64439af6e8939be5517df918e2ecea36" target="_top" xlink:title="IRAD::Sys::FILEEXISTS">
<polygon fill="none" stroke="black" points="442,-169.5 442,-188.5 570,-188.5 570,-169.5 442,-169.5"/>
<text text-anchor="middle" x="506" y="-176.5" font-family="Helvetica,sans-Serif" font-size="10.00">IRAD::Sys::FILEEXISTS</text>
</a>
</g>
</g>
<!-- Node4&#45;&gt;Node19 -->
<g id="edge21" class="edge"><title>Node4&#45;&gt;Node19</title>
<path fill="none" stroke="midnightblue" d="M174.963,-359.363C194.7,-346.993 230.822,-325.518 264,-312 322.12,-288.319 352.017,-314.452 400,-274 428.576,-249.909 407.379,-222.037 436,-198 437.998,-196.322 440.133,-194.791 442.368,-193.395"/>
<polygon fill="midnightblue" stroke="midnightblue" points="444.183,-196.395 451.413,-188.65 440.931,-190.197 444.183,-196.395"/>
</g>
<!-- Node20 -->
<g id="node20" class="node"><title>Node20</title>
<g id="a_node20"><a xlink:href="classElmerModuleDriver_1_1TestingObject_a90864b099beaf9044bf8fff8a9857c0d.html#a90864b099beaf9044bf8fff8a9857c0d" target="_top" xlink:title="Function to copy input data from source testing directory for use in unit tests. ">
<polygon fill="none" stroke="black" points="294.5,-321.5 294.5,-340.5 369.5,-340.5 369.5,-321.5 294.5,-321.5"/>
<text text-anchor="middle" x="332" y="-328.5" font-family="Helvetica,sans-Serif" font-size="10.00">GetInputData</text>
</a>
</g>
</g>
<!-- Node4&#45;&gt;Node20 -->
<g id="edge22" class="edge"><title>Node4&#45;&gt;Node20</title>
<path fill="none" stroke="midnightblue" d="M203.151,-359.411C227.847,-353.923 258.85,-347.033 284.141,-341.413"/>
<polygon fill="midnightblue" stroke="midnightblue" points="285.235,-344.755 294.237,-339.169 283.716,-337.922 285.235,-344.755"/>
</g>
<!-- Node9 -->
<g id="node9" class="node"><title>Node9</title>
<g id="a_node9"><a xlink:href="COM__base_8hpp_a49353596e53127db61529b5c9000549d.html#a49353596e53127db61529b5c9000549d" target="_top" xlink:title="COM_get_com">
<polygon fill="none" stroke="black" points="464.5,-523.5 464.5,-542.5 547.5,-542.5 547.5,-523.5 464.5,-523.5"/>
<text text-anchor="middle" x="506" y="-530.5" font-family="Helvetica,sans-Serif" font-size="10.00">COM_get_com</text>
</a>
</g>
</g>
<!-- Node8&#45;&gt;Node9 -->
<g id="edge8" class="edge"><title>Node8&#45;&gt;Node9</title>
<path fill="none" stroke="midnightblue" d="M399.992,-531.168C417.958,-531.482 437.089,-531.816 454.032,-532.111"/>
<polygon fill="midnightblue" stroke="midnightblue" points="454.21,-535.615 464.269,-532.29 454.332,-528.616 454.21,-535.615"/>
</g>
<!-- Node11 -->
<g id="node11" class="node"><title>Node11</title>
<g id="a_node11"><a xlink:href="classCOM_1_1COM__base_a9fd7945150b9f390f5560bce2b7ea375.html#a9fd7945150b9f390f5560bce2b7ea375" target="_top" xlink:title="COM::COM_base::get\l_dataitem_handle">
<polygon fill="none" stroke="black" points="448.5,-562 448.5,-592 563.5,-592 563.5,-562 448.5,-562"/>
<text text-anchor="start" x="456.5" y="-580" font-family="Helvetica,sans-Serif" font-size="10.00">COM::COM_base::get</text>
<text text-anchor="middle" x="506" y="-569" font-family="Helvetica,sans-Serif" font-size="10.00">_dataitem_handle</text>
</a>
</g>
</g>
<!-- Node8&#45;&gt;Node11 -->
<g id="edge10" class="edge"><title>Node8&#45;&gt;Node11</title>
<path fill="none" stroke="midnightblue" d="M367.807,-539.511C388.513,-545.169 415.444,-552.528 439.956,-559.226"/>
<polygon fill="midnightblue" stroke="midnightblue" points="439.359,-562.691 449.928,-561.951 441.204,-555.939 439.359,-562.691"/>
</g>
<!-- Node10 -->
<g id="node10" class="node"><title>Node10</title>
<g id="a_node10"><a xlink:href="classCOM_1_1COM__base_a77bb770b9ec1aac99361c45efbccabc1.html#a77bb770b9ec1aac99361c45efbccabc1" target="_top" xlink:title="Get a pointer to the COM object. ">
<polygon fill="none" stroke="black" points="612.5,-523.5 612.5,-542.5 751.5,-542.5 751.5,-523.5 612.5,-523.5"/>
<text text-anchor="middle" x="682" y="-530.5" font-family="Helvetica,sans-Serif" font-size="10.00">COM::COM_base::get_com</text>
</a>
</g>
</g>
<!-- Node9&#45;&gt;Node10 -->
<g id="edge9" class="edge"><title>Node9&#45;&gt;Node10</title>
<path fill="none" stroke="midnightblue" d="M547.795,-533C564.058,-533 583.355,-533 602.141,-533"/>
<polygon fill="midnightblue" stroke="midnightblue" points="602.2,-536.5 612.2,-533 602.2,-529.5 602.2,-536.5"/>
</g>
<!-- Node12&#45;&gt;Node9 -->
<g id="edge12" class="edge"><title>Node12&#45;&gt;Node9</title>
<path fill="none" stroke="midnightblue" d="M380,-558.436C403.15,-553.725 431.084,-548.041 454.669,-543.242"/>
<polygon fill="midnightblue" stroke="midnightblue" points="455.382,-546.668 464.483,-541.245 453.986,-539.809 455.382,-546.668"/>
</g>
<!-- Node13 -->
<g id="node13" class="node"><title>Node13</title>
<g id="a_node13"><a xlink:href="classCOM_1_1COM__base_a640995dd65a1fb030650457b9cf10b26.html#a640995dd65a1fb030650457b9cf10b26" target="_top" xlink:title="COM::COM_base::get\l_function_handle">
<polygon fill="none" stroke="black" points="448.5,-611 448.5,-641 563.5,-641 563.5,-611 448.5,-611"/>
<text text-anchor="start" x="456.5" y="-629" font-family="Helvetica,sans-Serif" font-size="10.00">COM::COM_base::get</text>
<text text-anchor="middle" x="506" y="-618" font-family="Helvetica,sans-Serif" font-size="10.00">_function_handle</text>
</a>
</g>
</g>
<!-- Node12&#45;&gt;Node13 -->
<g id="edge13" class="edge"><title>Node12&#45;&gt;Node13</title>
<path fill="none" stroke="midnightblue" d="M369.007,-577.535C379.095,-580.389 390.027,-583.655 400,-587 416.276,-592.459 419.929,-594.964 436,-601 441.578,-603.095 447.421,-605.259 453.245,-607.396"/>
<polygon fill="midnightblue" stroke="midnightblue" points="452.387,-610.809 462.981,-610.952 454.788,-604.234 452.387,-610.809"/>
</g>
<!-- Node14&#45;&gt;Node9 -->
<g id="edge15" class="edge"><title>Node14&#45;&gt;Node9</title>
<path fill="none" stroke="midnightblue" d="M372.893,-501.509C397.444,-507.362 429.113,-514.911 455.289,-521.15"/>
<polygon fill="midnightblue" stroke="midnightblue" points="454.487,-524.557 465.026,-523.471 456.11,-517.748 454.487,-524.557"/>
</g>
<!-- Node15 -->
<g id="node15" class="node"><title>Node15</title>
<g id="a_node15"><a xlink:href="classCOM_1_1COM__base_a0059534958a2bbdd57080473206cd1d0.html#a0059534958a2bbdd57080473206cd1d0" target="_top" xlink:title="Get the sizes of an dataitem. The opposite of set_size. ">
<polygon fill="none" stroke="black" points="437,-485.5 437,-504.5 575,-504.5 575,-485.5 437,-485.5"/>
<text text-anchor="middle" x="506" y="-492.5" font-family="Helvetica,sans-Serif" font-size="10.00">COM::COM_base::get_size</text>
</a>
</g>
</g>
<!-- Node14&#45;&gt;Node15 -->
<g id="edge16" class="edge"><title>Node14&#45;&gt;Node15</title>
<path fill="none" stroke="midnightblue" d="M373.326,-492.703C389.328,-492.982 408.302,-493.313 426.791,-493.636"/>
<polygon fill="midnightblue" stroke="midnightblue" points="426.932,-497.139 436.991,-493.814 427.054,-490.14 426.932,-497.139"/>
</g>
<!-- Node16&#45;&gt;Node9 -->
<g id="edge18" class="edge"><title>Node16&#45;&gt;Node9</title>
<path fill="none" stroke="midnightblue" d="M373.925,-460.605C382.939,-463.744 392.134,-467.804 400,-473 420.234,-486.365 415.448,-501.13 436,-514 441.731,-517.589 448.144,-520.51 454.689,-522.886"/>
<polygon fill="midnightblue" stroke="midnightblue" points="453.718,-526.251 464.31,-525.991 455.868,-519.589 453.718,-526.251"/>
</g>
<!-- Node17 -->
<g id="node17" class="node"><title>Node17</title>
<g id="a_node17"><a xlink:href="classCOM_1_1COM__base_a75bf2e262b938dbff2d0ea8a60a8d218.html#a75bf2e262b938dbff2d0ea8a60a8d218" target="_top" xlink:title="COM::COM_base::get\l_window_handle">
<polygon fill="none" stroke="black" points="448.5,-436 448.5,-466 563.5,-466 563.5,-436 448.5,-436"/>
<text text-anchor="start" x="456.5" y="-454" font-family="Helvetica,sans-Serif" font-size="10.00">COM::COM_base::get</text>
<text text-anchor="middle" x="506" y="-443" font-family="Helvetica,sans-Serif" font-size="10.00">_window_handle</text>
</a>
</g>
</g>
<!-- Node16&#45;&gt;Node17 -->
<g id="edge19" class="edge"><title>Node16&#45;&gt;Node17</title>
<path fill="none" stroke="midnightblue" d="M397.536,-451C410.829,-451 424.853,-451 438.224,-451"/>
<polygon fill="midnightblue" stroke="midnightblue" points="438.298,-454.5 448.298,-451 438.298,-447.5 438.298,-454.5"/>
</g>
<!-- Node20&#45;&gt;Node5 -->
<g id="edge23" class="edge"><title>Node20&#45;&gt;Node5</title>
<path fill="none" stroke="midnightblue" d="M347.797,-340.666C367.321,-353.068 403.07,-374.576 436,-388 441.814,-390.37 448.021,-392.545 454.24,-394.509"/>
<polygon fill="midnightblue" stroke="midnightblue" points="453.383,-397.906 463.966,-397.42 455.39,-391.199 453.383,-397.906"/>
</g>
<!-- Node21 -->
<g id="node21" class="node"><title>Node21</title>
<g id="a_node21"><a xlink:href="namespaceIRAD_1_1Sys_a907ccb4be0eba55b76775c69712059ad.html#a907ccb4be0eba55b76775c69712059ad" target="_top" xlink:title="IRAD::Sys::CreateDirectory">
<polygon fill="none" stroke="black" points="436,-245.5 436,-264.5 576,-264.5 576,-245.5 436,-245.5"/>
<text text-anchor="middle" x="506" y="-252.5" font-family="Helvetica,sans-Serif" font-size="10.00">IRAD::Sys::CreateDirectory</text>
</a>
</g>
</g>
<!-- Node20&#45;&gt;Node21 -->
<g id="edge24" class="edge"><title>Node20&#45;&gt;Node21</title>
<path fill="none" stroke="midnightblue" d="M367.932,-321.422C378.629,-317.728 390.162,-312.937 400,-307 418.584,-295.786 417.008,-284.507 436,-274 440.131,-271.714 444.557,-269.689 449.097,-267.896"/>
<polygon fill="midnightblue" stroke="midnightblue" points="450.279,-271.19 458.523,-264.535 447.928,-264.597 450.279,-271.19"/>
</g>
<!-- Node20&#45;&gt;Node18 -->
<g id="edge25" class="edge"><title>Node20&#45;&gt;Node18</title>
<path fill="none" stroke="midnightblue" d="M369.898,-339.152C393.793,-344.431 425.294,-351.391 451.867,-357.261"/>
<polygon fill="midnightblue" stroke="midnightblue" points="451.264,-360.712 461.784,-359.452 452.774,-353.877 451.264,-360.712"/>
</g>
<!-- Node20&#45;&gt;Node19 -->
<g id="edge26" class="edge"><title>Node20&#45;&gt;Node19</title>
<path fill="none" stroke="midnightblue" d="M369.791,-324.32C380.703,-320.759 391.891,-315.314 400,-307 435.622,-270.477 399.029,-233.157 436,-198 437.646,-196.435 439.409,-194.996 441.263,-193.674"/>
<polygon fill="midnightblue" stroke="midnightblue" points="443.058,-196.679 449.904,-188.593 439.51,-190.645 443.058,-196.679"/>
</g>
<!-- Node22 -->
<g id="node22" class="node"><title>Node22</title>
<g id="a_node22"><a xlink:href="namespaceIRAD_1_1Sys_a0bcb3bbe82c724ff589d3ec071e5a506.html#a0bcb3bbe82c724ff589d3ec071e5a506" target="_top" xlink:title="IRAD::Sys::ISDIR">
<polygon fill="none" stroke="black" points="457,-207.5 457,-226.5 555,-226.5 555,-207.5 457,-207.5"/>
<text text-anchor="middle" x="506" y="-214.5" font-family="Helvetica,sans-Serif" font-size="10.00">IRAD::Sys::ISDIR</text>
</a>
</g>
</g>
<!-- Node20&#45;&gt;Node22 -->
<g id="edge27" class="edge"><title>Node20&#45;&gt;Node22</title>
<path fill="none" stroke="midnightblue" d="M369.764,-323.328C380.424,-319.733 391.475,-314.519 400,-307 426.535,-283.598 408.604,-258.387 436,-236 439.504,-233.136 443.408,-230.703 447.527,-228.636"/>
<polygon fill="midnightblue" stroke="midnightblue" points="448.993,-231.815 456.815,-224.669 446.244,-225.378 448.993,-231.815"/>
</g>
<!-- Node23 -->
<g id="node23" class="node"><title>Node23</title>
<g id="a_node23"><a xlink:href="namespaceIRAD_1_1Sys_a2d575706e1c0f851a9f9350d15ba4313.html#a2d575706e1c0f851a9f9350d15ba4313" target="_top" xlink:title="IRAD::Sys::ISLINK">
<polygon fill="none" stroke="black" points="454.5,-321.5 454.5,-340.5 557.5,-340.5 557.5,-321.5 454.5,-321.5"/>
<text text-anchor="middle" x="506" y="-328.5" font-family="Helvetica,sans-Serif" font-size="10.00">IRAD::Sys::ISLINK</text>
</a>
</g>
</g>
<!-- Node20&#45;&gt;Node23 -->
<g id="edge28" class="edge"><title>Node20&#45;&gt;Node23</title>
<path fill="none" stroke="midnightblue" d="M369.898,-331C391.587,-331 419.543,-331 444.391,-331"/>
<polygon fill="midnightblue" stroke="midnightblue" points="444.461,-334.5 454.461,-331 444.46,-327.5 444.461,-334.5"/>
</g>
<!-- Node24 -->
<g id="node24" class="node"><title>Node24</title>
<g id="a_node24"><a xlink:href="namespaceIRAD_1_1Sys_a05dbd3303c15001bdaeb27da8f5b7125.html#a05dbd3303c15001bdaeb27da8f5b7125" target="_top" xlink:title="IRAD::Sys::SymLink">
<polygon fill="none" stroke="black" points="451.5,-283.5 451.5,-302.5 560.5,-302.5 560.5,-283.5 451.5,-283.5"/>
<text text-anchor="middle" x="506" y="-290.5" font-family="Helvetica,sans-Serif" font-size="10.00">IRAD::Sys::SymLink</text>
</a>
</g>
</g>
<!-- Node20&#45;&gt;Node24 -->
<g id="edge29" class="edge"><title>Node20&#45;&gt;Node24</title>
<path fill="none" stroke="midnightblue" d="M369.898,-322.848C393.793,-317.569 425.294,-310.609 451.867,-304.739"/>
<polygon fill="midnightblue" stroke="midnightblue" points="452.774,-308.123 461.784,-302.548 451.264,-301.288 452.774,-308.123"/>
</g>
<!-- Node26 -->
<g id="node26" class="node"><title>Node26</title>
<g id="a_node26"><a xlink:href="namespaceElmerModuleDriver_a4cc78661909b0a33b6b886a4d4290997.html#a4cc78661909b0a33b6b886a4d4290997" target="_top" xlink:title="Example function for ElmerModuleDriver (this is a brief description). ">
<polygon fill="none" stroke="black" points="279,-196 279,-226 385,-226 385,-196 279,-196"/>
<text text-anchor="start" x="287" y="-214" font-family="Helvetica,sans-Serif" font-size="10.00">ElmerModuleDriver::</text>
<text text-anchor="middle" x="332" y="-203" font-family="Helvetica,sans-Serif" font-size="10.00">ExampleFunction</text>
</a>
</g>
</g>
<!-- Node25&#45;&gt;Node26 -->
<g id="edge31" class="edge"><title>Node25&#45;&gt;Node26</title>
<path fill="none" stroke="midnightblue" d="M187.095,-261.493C211.569,-252.906 248.272,-240.027 278.485,-229.426"/>
<polygon fill="midnightblue" stroke="midnightblue" points="279.765,-232.686 288.043,-226.073 277.448,-226.081 279.765,-232.686"/>
</g>
<!-- Node28 -->
<g id="node28" class="node"><title>Node28</title>
<g id="a_node28"><a xlink:href="namespaceElmerModuleDriver_1_1TestFixture_a2b09de3be217e128933f09f43f9d7160.html#a2b09de3be217e128933f09f43f9d7160" target="_top" xlink:title="Simple test function fixture returns . ">
<polygon fill="none" stroke="black" points="279,-49 279,-79 385,-79 385,-49 279,-49"/>
<text text-anchor="start" x="287" y="-67" font-family="Helvetica,sans-Serif" font-size="10.00">ElmerModuleDriver::</text>
<text text-anchor="middle" x="332" y="-56" font-family="Helvetica,sans-Serif" font-size="10.00">TestFixture::F1</text>
</a>
</g>
</g>
<!-- Node27&#45;&gt;Node28 -->
<g id="edge33" class="edge"><title>Node27&#45;&gt;Node28</title>
<path fill="none" stroke="midnightblue" d="M225.136,-79.4773C239.414,-77.3898 254.497,-75.1846 268.663,-73.1136"/>
<polygon fill="midnightblue" stroke="midnightblue" points="269.402,-76.5428 278.791,-71.6329 268.39,-69.6165 269.402,-76.5428"/>
</g>
<!-- Node29 -->
<g id="node29" class="node"><title>Node29</title>
<g id="a_node29"><a xlink:href="namespaceElmerModuleDriver_1_1TestFixture_a79ce78283ad52a81c4107d6cdeb9337c.html#a79ce78283ad52a81c4107d6cdeb9337c" target="_top" xlink:title="Simple test function fixture returns . ">
<polygon fill="none" stroke="black" points="279,-98 279,-128 385,-128 385,-98 279,-98"/>
<text text-anchor="start" x="287" y="-116" font-family="Helvetica,sans-Serif" font-size="10.00">ElmerModuleDriver::</text>
<text text-anchor="middle" x="332" y="-105" font-family="Helvetica,sans-Serif" font-size="10.00">TestFixture::F2</text>
</a>
</g>
</g>
<!-- Node27&#45;&gt;Node29 -->
<g id="edge34" class="edge"><title>Node27&#45;&gt;Node29</title>
<path fill="none" stroke="midnightblue" d="M225.624,-98.2104C239.797,-100.2 254.741,-102.297 268.779,-104.267"/>
<polygon fill="midnightblue" stroke="midnightblue" points="268.427,-107.752 278.816,-105.676 269.4,-100.82 268.427,-107.752"/>
</g>
<!-- Node30 -->
<g id="node30" class="node"><title>Node30</title>
<g id="a_node30"><a xlink:href="namespaceElmerModuleDriver_a94390a668cbb6637ea246c660d00d430.html#a94390a668cbb6637ea246c660d00d430" target="_top" xlink:title="Integrates f with composite midpoint rule. ">
<polygon fill="none" stroke="black" points="279,-0 279,-30 385,-30 385,-0 279,-0"/>
<text text-anchor="start" x="287" y="-18" font-family="Helvetica,sans-Serif" font-size="10.00">ElmerModuleDriver::</text>
<text text-anchor="middle" x="332" y="-7" font-family="Helvetica,sans-Serif" font-size="10.00">MidPointQuadrature</text>
</a>
</g>
</g>
<!-- Node27&#45;&gt;Node30 -->
<g id="edge35" class="edge"><title>Node27&#45;&gt;Node30</title>
<path fill="none" stroke="midnightblue" d="M178.52,-79.372C199.115,-68.8372 233.503,-51.7524 264,-39 268.332,-37.1887 272.854,-35.3863 277.414,-33.6301"/>
<polygon fill="midnightblue" stroke="midnightblue" points="278.656,-36.9025 286.78,-30.102 276.188,-30.3519 278.656,-36.9025"/>
</g>
<!-- Node31&#45;&gt;Node28 -->
<g id="edge37" class="edge"><title>Node31&#45;&gt;Node28</title>
<path fill="none" stroke="midnightblue" d="M172.21,-147.469C191.056,-133.096 228.749,-105.68 264,-88 267.503,-86.243 271.167,-84.553 274.897,-82.9403"/>
<polygon fill="midnightblue" stroke="midnightblue" points="276.335,-86.1338 284.255,-79.0968 273.675,-79.6587 276.335,-86.1338"/>
</g>
<!-- Node31&#45;&gt;Node29 -->
<g id="edge38" class="edge"><title>Node31&#45;&gt;Node29</title>
<path fill="none" stroke="midnightblue" d="M197.104,-147.453C218.083,-142.055 244.858,-135.165 268.944,-128.968"/>
<polygon fill="midnightblue" stroke="midnightblue" points="269.911,-132.333 278.723,-126.451 268.167,-125.554 269.911,-132.333"/>
</g>
<!-- Node32 -->
<g id="node32" class="node"><title>Node32</title>
<g id="a_node32"><a xlink:href="namespaceElmerModuleDriver_a7ea1066c129172a0edf5647d8254e957.html#a7ea1066c129172a0edf5647d8254e957" target="_top" xlink:title="Integrates f with composite trapezoid rule. ">
<polygon fill="none" stroke="black" points="278.5,-147 278.5,-177 385.5,-177 385.5,-147 278.5,-147"/>
<text text-anchor="start" x="286.5" y="-165" font-family="Helvetica,sans-Serif" font-size="10.00">ElmerModuleDriver::</text>
<text text-anchor="middle" x="332" y="-154" font-family="Helvetica,sans-Serif" font-size="10.00">TrapezoidQuadrature</text>
</a>
</g>
</g>
<!-- Node31&#45;&gt;Node32 -->
<g id="edge39" class="edge"><title>Node31&#45;&gt;Node32</title>
<path fill="none" stroke="midnightblue" d="M227.584,-158.976C240.917,-159.366 254.858,-159.774 268.031,-160.159"/>
<polygon fill="midnightblue" stroke="midnightblue" points="268.307,-163.668 278.405,-160.462 268.511,-156.671 268.307,-163.668"/>
</g>
</g>
</svg>
        <g id="navigator" transform="translate(0 0)" fill="#404254">
                <rect fill="#f2f5e9" fill-opacity="0.5" stroke="#606060" stroke-width=".5" x="0" y="0" width="60" height="60"/>
                <use id="zoomplus" xlink:href="#zoomPlus" x="17" y="9" onmousedown="handleZoom(evt,'in')"/>
                <use id="zoomminus" xlink:href="#zoomMin" x="42" y="9" onmousedown="handleZoom(evt,'out')"/>
                <use id="reset" xlink:href="#resetDef" x="30" y="36" onmousedown="handleReset()"/>
                <g id="arrowUp" xlink:href="#dirArrow" transform="translate(30 24)" onmousedown="handlePan(0,-1)">
                  <use xlink:href="#rim" fill="#404040">
                        <set attributeName="fill" to="#808080" begin="arrowUp.mouseover" end="arrowUp.mouseout"/>
                  </use>
                  <path fill="none" stroke="white" stroke-width="1.5" d="M0,-3.0v7 M-2.5,-0.5L0,-3.0L2.5,-0.5"/>
                </g>
                <g id="arrowRight" xlink:href="#dirArrow" transform="rotate(90) translate(36 -43)" onmousedown="handlePan(1,0)">
                  <use xlink:href="#rim" fill="#404040">
                        <set attributeName="fill" to="#808080" begin="arrowRight.mouseover" end="arrowRight.mouseout"/>
                  </use>
                  <path fill="none" stroke="white" stroke-width="1.5" d="M0,-3.0v7 M-2.5,-0.5L0,-3.0L2.5,-0.5"/>
                </g>
                <g id="arrowDown" xlink:href="#dirArrow" transform="rotate(180) translate(-30 -48)" onmousedown="handlePan(0,1)">
                  <use xlink:href="#rim" fill="#404040">
                        <set attributeName="fill" to="#808080" begin="arrowDown.mouseover" end="arrowDown.mouseout"/>
                  </use>
                  <path fill="none" stroke="white" stroke-width="1.5" d="M0,-3.0v7 M-2.5,-0.5L0,-3.0L2.5,-0.5"/>
                </g>
                <g id="arrowLeft" xlink:href="#dirArrow" transform="rotate(270) translate(-36 17)" onmousedown="handlePan(-1,0)">
                  <use xlink:href="#rim" fill="#404040">
                        <set attributeName="fill" to="#808080" begin="arrowLeft.mouseover" end="arrowLeft.mouseout"/>
                  </use>
                  <path fill="none" stroke="white" stroke-width="1.5" d="M0,-3.0v7 M-2.5,-0.5L0,-3.0L2.5,-0.5"/>
                </g>
        </g>
        <svg viewBox="0 0 15 15" width="100%" height="30px" preserveAspectRatio="xMaxYMin meet">
         <g id="arrow_out" transform="scale(0.3 0.3)">
          <a xlink:href="classElmerModuleDriver_1_1TestingObject_a046f7ab06db0acf616b0d2bf3d3146aa_a046f7ab06db0acf616b0d2bf3d3146aa_cgraph_org.svg" target="_base">
           <rect id="button" ry="5" rx="5" y="6" x="6" height="38" width="38"
                fill="#f2f5e9" fill-opacity="0.5" stroke="#606060" stroke-width="1.0"/>
           <path id="arrow"
             d="M 11.500037,31.436501 C 11.940474,20.09759 22.043105,11.32322 32.158766,21.979434 L 37.068811,17.246167 C 37.068811,17.246167 37.088388,32 37.088388,32 L 22.160133,31.978069 C 22.160133,31.978069 26.997745,27.140456 26.997745,27.140456 C 18.528582,18.264221 13.291696,25.230495 11.500037,31.436501 z"
             style="fill:#404040;"/>
          </a>
         </g>
        </svg>
</svg>
