<?xml version="1.0" encoding="UTF-8" standalone="no"?>
<!DOCTYPE svg PUBLIC "-//W3C//DTD SVG 1.1//EN"
 "http://www.w3.org/Graphics/SVG/1.1/DTD/svg11.dtd">
<!-- Generated by graphviz version 2.30.1 (20150305.2338)
 -->
<!-- Title: initialized Pages: 1 -->
<svg width="452pt" height="263pt"
 viewBox="0.00 0.00 452.00 263.00" xmlns="http://www.w3.org/2000/svg" xmlns:xlink="http://www.w3.org/1999/xlink">
<g id="graph0" class="graph" transform="scale(1 1) rotate(0) translate(4 259)">
<title>initialized</title>
<!-- Node1 -->
<g id="node1" class="node"><title>Node1</title>
<polygon fill="#bfbfbf" stroke="black" points="0.5,-117.5 0.5,-136.5 57.5,-136.5 57.5,-117.5 0.5,-117.5"/>
<text text-anchor="middle" x="29" y="-124.5" font-family="Helvetica,sans-Serif" font-size="10.00">initialized</text>
</g>
<!-- Node2 -->
<g id="node2" class="node"><title>Node2</title>
<g id="a_node2"><a xlink:href="com__c_8h_ab1d1395d3d329bd968a9e806ea1605f1.html#ab1d1395d3d329bd968a9e806ea1605f1" target="_top" xlink:title="COM_initialized">
<polygon fill="none" stroke="black" points="94,-117.5 94,-136.5 180,-136.5 180,-117.5 94,-117.5"/>
<text text-anchor="middle" x="137" y="-124.5" font-family="Helvetica,sans-Serif" font-size="10.00">COM_initialized</text>
</a>
</g>
</g>
<!-- Node1&#45;&gt;Node2 -->
<g id="edge1" class="edge"><title>Node1&#45;&gt;Node2</title>
<path fill="none" stroke="midnightblue" d="M67.8465,-127C76.247,-127 85.2021,-127 93.7657,-127"/>
<polygon fill="midnightblue" stroke="midnightblue" points="67.5736,-123.5 57.5735,-127 67.5735,-130.5 67.5736,-123.5"/>
</g>
<!-- Node3 -->
<g id="node3" class="node"><title>Node3</title>
<g id="a_node3"><a xlink:href="namespaceElmerFoamFSI_ae544cb65d02e78238b4c6f1690b9ffda.html#ae544cb65d02e78238b4c6f1690b9ffda" target="_top" xlink:title="Drives the ElmerFoamFSI::TestObject. ">
<polygon fill="none" stroke="black" points="223,-235.5 223,-254.5 363,-254.5 363,-235.5 223,-235.5"/>
<text text-anchor="middle" x="293" y="-242.5" font-family="Helvetica,sans-Serif" font-size="10.00">ElmerFoamFSI::ParallelTest</text>
</a>
</g>
</g>
<!-- Node2&#45;&gt;Node3 -->
<g id="edge2" class="edge"><title>Node2&#45;&gt;Node3</title>
<path fill="none" stroke="midnightblue" d="M147.846,-145.623C160.591,-167.899 184.903,-204.718 216,-225 222.628,-229.323 230.154,-232.714 237.831,-235.373"/>
<polygon fill="midnightblue" stroke="midnightblue" points="150.864,-143.848 142.963,-136.789 144.737,-147.235 150.864,-143.848"/>
</g>
<!-- Node5 -->
<g id="node5" class="node"><title>Node5</title>
<g id="a_node5"><a xlink:href="namespaceOpenFoamModuleDriver_a2dc08fd0ec5c64aa9b09d8bb8b65f88e.html#a2dc08fd0ec5c64aa9b09d8bb8b65f88e" target="_top" xlink:title="Drives the OpenFoamModuleDriver::TestObject. ">
<polygon fill="none" stroke="black" points="232,-186 232,-216 354,-216 354,-186 232,-186"/>
<text text-anchor="start" x="240" y="-204" font-family="Helvetica,sans-Serif" font-size="10.00">OpenFoamModuleDriver</text>
<text text-anchor="middle" x="293" y="-193" font-family="Helvetica,sans-Serif" font-size="10.00">::ParallelTest</text>
</a>
</g>
</g>
<!-- Node2&#45;&gt;Node5 -->
<g id="edge4" class="edge"><title>Node2&#45;&gt;Node5</title>
<path fill="none" stroke="midnightblue" d="M159.181,-142.289C174.431,-152.793 195.795,-166.504 216,-176 223.794,-179.663 232.27,-183.018 240.642,-186"/>
<polygon fill="midnightblue" stroke="midnightblue" points="161.161,-139.403 150.963,-136.53 157.144,-145.135 161.161,-139.403"/>
</g>
<!-- Node7 -->
<g id="node7" class="node"><title>Node7</title>
<g id="a_node7"><a xlink:href="namespaceElmerModuleDriver_a81f0cdc909567e8d6ef1546887dfa3e2.html#a81f0cdc909567e8d6ef1546887dfa3e2" target="_top" xlink:title="Drives the ElmerModuleDriver::TestObject. ">
<polygon fill="none" stroke="black" points="240,-137 240,-167 346,-167 346,-137 240,-137"/>
<text text-anchor="start" x="248" y="-155" font-family="Helvetica,sans-Serif" font-size="10.00">ElmerModuleDriver::</text>
<text text-anchor="middle" x="293" y="-144" font-family="Helvetica,sans-Serif" font-size="10.00">ParallelTest</text>
</a>
</g>
</g>
<!-- Node2&#45;&gt;Node7 -->
<g id="edge6" class="edge"><title>Node2&#45;&gt;Node7</title>
<path fill="none" stroke="midnightblue" d="M190.313,-135.492C206.282,-138.085 223.834,-140.934 239.795,-143.525"/>
<polygon fill="midnightblue" stroke="midnightblue" points="190.513,-131.979 180.081,-133.831 189.391,-138.889 190.513,-131.979"/>
</g>
<!-- Node9 -->
<g id="node9" class="node"><title>Node9</title>
<g id="a_node9"><a xlink:href="namespaceOpenFoamModuleDriver_a98bd69551725493def1a31bfe72b0781.html#a98bd69551725493def1a31bfe72b0781" target="_top" xlink:title="Drives the OpenFoamModuleDriver::TestObject. ">
<polygon fill="none" stroke="black" points="232,-88 232,-118 354,-118 354,-88 232,-88"/>
<text text-anchor="start" x="240" y="-106" font-family="Helvetica,sans-Serif" font-size="10.00">OpenFoamModuleDriver</text>
<text text-anchor="middle" x="293" y="-95" font-family="Helvetica,sans-Serif" font-size="10.00">::Test</text>
</a>
</g>
</g>
<!-- Node2&#45;&gt;Node9 -->
<g id="edge8" class="edge"><title>Node2&#45;&gt;Node9</title>
<path fill="none" stroke="midnightblue" d="M190.078,-118.884C203.478,-116.796 218.008,-114.531 231.784,-112.384"/>
<polygon fill="midnightblue" stroke="midnightblue" points="189.423,-115.444 180.081,-120.442 190.501,-122.36 189.423,-115.444"/>
</g>
<!-- Node11 -->
<g id="node11" class="node"><title>Node11</title>
<g id="a_node11"><a xlink:href="namespaceElmerModuleDriver_a657930328d3dc159ded2e9fd6473b2b6.html#a657930328d3dc159ded2e9fd6473b2b6" target="_top" xlink:title="Drives the ElmerModuleDriver::TestObject. ">
<polygon fill="none" stroke="black" points="230.5,-49.5 230.5,-68.5 355.5,-68.5 355.5,-49.5 230.5,-49.5"/>
<text text-anchor="middle" x="293" y="-56.5" font-family="Helvetica,sans-Serif" font-size="10.00">ElmerModuleDriver::Test</text>
</a>
</g>
</g>
<!-- Node2&#45;&gt;Node11 -->
<g id="edge10" class="edge"><title>Node2&#45;&gt;Node11</title>
<path fill="none" stroke="midnightblue" d="M159.484,-111.378C174.647,-100.966 195.785,-87.654 216,-79 225.658,-74.8655 236.382,-71.4088 246.656,-68.5962"/>
<polygon fill="midnightblue" stroke="midnightblue" points="157.051,-108.809 150.876,-117.418 161.072,-114.539 157.051,-108.809"/>
</g>
<!-- Node13 -->
<g id="node13" class="node"><title>Node13</title>
<g id="a_node13"><a xlink:href="classElmerFoamFSI_1_1SerialDriverProgram_af773e679e752224a4c774f6beef9030c.html#af773e679e752224a4c774f6beef9030c" target="_top" xlink:title="Destructor. ">
<polygon fill="none" stroke="black" points="216.5,-0 216.5,-30 369.5,-30 369.5,-0 216.5,-0"/>
<text text-anchor="start" x="224.5" y="-18" font-family="Helvetica,sans-Serif" font-size="10.00">ElmerFoamFSI::SerialDriver</text>
<text text-anchor="middle" x="293" y="-7" font-family="Helvetica,sans-Serif" font-size="10.00">Program::~SerialDriverProgram</text>
</a>
</g>
</g>
<!-- Node2&#45;&gt;Node13 -->
<g id="edge12" class="edge"><title>Node2&#45;&gt;Node13</title>
<path fill="none" stroke="midnightblue" d="M149.753,-109.044C163.457,-89.4401 187.854,-58.394 216,-40 221.814,-36.2007 228.255,-32.9318 234.858,-30.1311"/>
<polygon fill="midnightblue" stroke="midnightblue" points="146.8,-107.163 144.074,-117.401 152.589,-111.097 146.8,-107.163"/>
</g>
<!-- Node4 -->
<g id="node4" class="node"><title>Node4</title>
<g id="a_node4"><a xlink:href="ParallelTestElmerFoamFSI_8C_a0ddf1224851353fc92bfbff6f499fa97.html#a0ddf1224851353fc92bfbff6f499fa97" target="_top" xlink:title="main">
<polygon fill="none" stroke="black" points="406,-235.5 406,-254.5 444,-254.5 444,-235.5 406,-235.5"/>
<text text-anchor="middle" x="425" y="-242.5" font-family="Helvetica,sans-Serif" font-size="10.00">main</text>
</a>
</g>
</g>
<!-- Node3&#45;&gt;Node4 -->
<g id="edge3" class="edge"><title>Node3&#45;&gt;Node4</title>
<path fill="none" stroke="midnightblue" d="M373.447,-245C385.511,-245 396.877,-245 405.764,-245"/>
<polygon fill="midnightblue" stroke="midnightblue" points="373.187,-241.5 363.187,-245 373.187,-248.5 373.187,-241.5"/>
</g>
<!-- Node6 -->
<g id="node6" class="node"><title>Node6</title>
<g id="a_node6"><a xlink:href="ParallelTestOpenFoamModuleDriver_8C_a0ddf1224851353fc92bfbff6f499fa97.html#a0ddf1224851353fc92bfbff6f499fa97" target="_top" xlink:title="main">
<polygon fill="none" stroke="black" points="406,-191.5 406,-210.5 444,-210.5 444,-191.5 406,-191.5"/>
<text text-anchor="middle" x="425" y="-198.5" font-family="Helvetica,sans-Serif" font-size="10.00">main</text>
</a>
</g>
</g>
<!-- Node5&#45;&gt;Node6 -->
<g id="edge5" class="edge"><title>Node5&#45;&gt;Node6</title>
<path fill="none" stroke="midnightblue" d="M364.255,-201C379.749,-201 394.842,-201 405.982,-201"/>
<polygon fill="midnightblue" stroke="midnightblue" points="364.053,-197.5 354.053,-201 364.053,-204.5 364.053,-197.5"/>
</g>
<!-- Node8 -->
<g id="node8" class="node"><title>Node8</title>
<g id="a_node8"><a xlink:href="ParallelTestElmerModuleDriver_8C_a0ddf1224851353fc92bfbff6f499fa97.html#a0ddf1224851353fc92bfbff6f499fa97" target="_top" xlink:title="main">
<polygon fill="none" stroke="black" points="406,-142.5 406,-161.5 444,-161.5 444,-142.5 406,-142.5"/>
<text text-anchor="middle" x="425" y="-149.5" font-family="Helvetica,sans-Serif" font-size="10.00">main</text>
</a>
</g>
</g>
<!-- Node7&#45;&gt;Node8 -->
<g id="edge7" class="edge"><title>Node7&#45;&gt;Node8</title>
<path fill="none" stroke="midnightblue" d="M356.164,-152C374.35,-152 392.832,-152 405.903,-152"/>
<polygon fill="midnightblue" stroke="midnightblue" points="356.127,-148.5 346.127,-152 356.127,-155.5 356.127,-148.5"/>
</g>
<!-- Node10 -->
<g id="node10" class="node"><title>Node10</title>
<g id="a_node10"><a xlink:href="TestOpenFoamModuleDriver_8C_a0ddf1224851353fc92bfbff6f499fa97.html#a0ddf1224851353fc92bfbff6f499fa97" target="_top" xlink:title="main">
<polygon fill="none" stroke="black" points="406,-93.5 406,-112.5 444,-112.5 444,-93.5 406,-93.5"/>
<text text-anchor="middle" x="425" y="-100.5" font-family="Helvetica,sans-Serif" font-size="10.00">main</text>
</a>
</g>
</g>
<!-- Node9&#45;&gt;Node10 -->
<g id="edge9" class="edge"><title>Node9&#45;&gt;Node10</title>
<path fill="none" stroke="midnightblue" d="M364.255,-103C379.749,-103 394.842,-103 405.982,-103"/>
<polygon fill="midnightblue" stroke="midnightblue" points="364.053,-99.5001 354.053,-103 364.053,-106.5 364.053,-99.5001"/>
</g>
<!-- Node12 -->
<g id="node12" class="node"><title>Node12</title>
<g id="a_node12"><a xlink:href="TestElmerModuleDriver_8C_a0ddf1224851353fc92bfbff6f499fa97.html#a0ddf1224851353fc92bfbff6f499fa97" target="_top" xlink:title="main">
<polygon fill="none" stroke="black" points="406,-49.5 406,-68.5 444,-68.5 444,-49.5 406,-49.5"/>
<text text-anchor="middle" x="425" y="-56.5" font-family="Helvetica,sans-Serif" font-size="10.00">main</text>
</a>
</g>
</g>
<!-- Node11&#45;&gt;Node12 -->
<g id="edge11" class="edge"><title>Node11&#45;&gt;Node12</title>
<path fill="none" stroke="midnightblue" d="M365.91,-59C380.783,-59 395.168,-59 405.903,-59"/>
<polygon fill="midnightblue" stroke="midnightblue" points="365.574,-55.5001 355.574,-59 365.574,-62.5001 365.574,-55.5001"/>
</g>
</g>
</svg>
