<?xml version="1.0" encoding="UTF-8" standalone="no"?>
<!DOCTYPE svg PUBLIC "-//W3C//DTD SVG 1.1//EN"
 "http://www.w3.org/Graphics/SVG/1.1/DTD/svg11.dtd">
<!-- Generated by graphviz version 2.30.1 (20150305.2338)
 -->
<!-- Title: Connectivity Pages: 1 -->
<!--zoomable 559 -->
<svg id="main" version="1.1" xmlns="http://www.w3.org/2000/svg" xmlns:xlink="http://www.w3.org/1999/xlink" xml:space="preserve" onload="init(evt)">
<style type="text/css"><![CDATA[
.edge:hover path { stroke: red; }
.edge:hover polygon { stroke: red; fill: red; }
]]></style>
<script type="text/javascript"><![CDATA[
var edges = document.getElementsByTagName('g');
if (edges && edges.length) {
  for (var i=0;i<edges.length;i++) {
    if (edges[i].id.substr(0,4)=='edge') {
      edges[i].setAttribute('class','edge');
    }
  }
}
]]></script>
        <defs>
                <circle id="rim" cx="0" cy="0" r="7"/>
                <circle id="rim2" cx="0" cy="0" r="3.5"/>
                <g id="zoomPlus">
                        <use xlink:href="#rim" fill="#404040">
                                <set attributeName="fill" to="#808080" begin="zoomplus.mouseover" end="zoomplus.mouseout"/>
                        </use>
                        <path d="M-4,0h8M0,-4v8" fill="none" stroke="white" stroke-width="1.5" pointer-events="none"/>
                </g>
                <g id="zoomMin">
                        <use xlink:href="#rim" fill="#404040">
                                <set attributeName="fill" to="#808080" begin="zoomminus.mouseover" end="zoomminus.mouseout"/>
                        </use>
                        <path d="M-4,0h8" fill="none" stroke="white" stroke-width="1.5" pointer-events="none"/>
                </g>
                <g id="dirArrow">
                        <path fill="none" stroke="white" stroke-width="1.5" d="M0,-3.0v7 M-2.5,-0.5L0,-3.0L2.5,-0.5"/>
                </g>
               <g id="resetDef">
                       <use xlink:href="#rim2" fill="#404040">
                               <set attributeName="fill" to="#808080" begin="reset.mouseover" end="reset.mouseout"/>
                       </use>
               </g>
        </defs>

<script type="text/javascript">
var viewWidth = 1548;
var viewHeight = 559;
var sectionId = 'dynsection-1';
</script>
<script xlink:href="svgpan.js"/>
<svg id="graph" class="graph">
<g id="viewport">
<title>Connectivity</title>
<!-- Node1 -->
<g id="node1" class="node"><title>Node1</title>
<polygon fill="#bfbfbf" stroke="black" points="110.5,-317.5 110.5,-336.5 181.5,-336.5 181.5,-317.5 110.5,-317.5"/>
<text text-anchor="middle" x="146" y="-324.5" font-family="Helvetica,sans-Serif" font-size="10.00">Connectivity</text>
</g>
<!-- Node4 -->
<g id="node4" class="node"><title>Node4</title>
<polygon fill="none" stroke="#bfbfbf" points="302.5,-406.5 302.5,-425.5 425.5,-425.5 425.5,-406.5 302.5,-406.5"/>
<text text-anchor="middle" x="364" y="-413.5" font-family="Helvetica,sans-Serif" font-size="10.00">vector&lt; Connectivity * &gt;</text>
</g>
<!-- Node1&#45;&gt;Node4 -->
<g id="edge4" class="edge"><title>Node1&#45;&gt;Node4</title>
<path fill="none" stroke="#9a32cd" stroke-dasharray="5,2" d="M168.178,-342.309C177.561,-348.521 188.958,-355.319 200,-360 235.43,-375.019 247.607,-368.493 284,-381 304.996,-388.216 328.12,-398.786 343.893,-406.421"/>
<polygon fill="#9a32cd" stroke="#9a32cd" points="170.104,-339.386 159.877,-336.621 166.148,-345.161 170.104,-339.386"/>
<text text-anchor="middle" x="242" y="-384" font-family="Helvetica,sans-Serif" font-size="10.00"> elements</text>
</g>
<!-- Node2 -->
<g id="node2" class="node"><title>Node2</title>
<g id="a_node2"><a xlink:href="classDataItem.html" target="_top" xlink:title="A DataItem object is a data member of a window. ">
<polygon fill="none" stroke="black" points="721.5,-284.5 721.5,-303.5 778.5,-303.5 778.5,-284.5 721.5,-284.5"/>
<text text-anchor="middle" x="750" y="-291.5" font-family="Helvetica,sans-Serif" font-size="10.00">DataItem</text>
</a>
</g>
</g>
<!-- Node2&#45;&gt;Node1 -->
<g id="edge1" class="edge"><title>Node2&#45;&gt;Node1</title>
<path fill="none" stroke="darkgreen" d="M711.135,-296.044C622.026,-300.858 392.098,-313.315 200,-324 194.111,-324.328 187.854,-324.679 181.781,-325.022"/>
<polygon fill="darkgreen" stroke="darkgreen" points="711.495,-299.529 721.292,-295.495 711.118,-292.54 711.495,-299.529"/>
</g>
<!-- Node7 -->
<g id="node7" class="node"><title>Node7</title>
<polygon fill="none" stroke="#bfbfbf" points="960.5,-418.5 960.5,-437.5 1069.5,-437.5 1069.5,-418.5 960.5,-418.5"/>
<text text-anchor="middle" x="1015" y="-425.5" font-family="Helvetica,sans-Serif" font-size="10.00">vector&lt; DataItem * &gt;</text>
</g>
<!-- Node2&#45;&gt;Node7 -->
<g id="edge8" class="edge"><title>Node2&#45;&gt;Node7</title>
<path fill="none" stroke="#9a32cd" stroke-dasharray="5,2" d="M762,-312.22C771.491,-326.521 786.424,-345.964 804,-358 832.617,-377.597 925.278,-404.358 977.444,-418.439"/>
<polygon fill="#9a32cd" stroke="#9a32cd" points="764.896,-310.252 756.575,-303.693 758.99,-314.009 764.896,-310.252"/>
<text text-anchor="middle" x="863" y="-404" font-family="Helvetica,sans-Serif" font-size="10.00"> elements</text>
</g>
<!-- Node10 -->
<g id="node10" class="node"><title>Node10</title>
<g id="a_node10"><a xlink:href="classFunction.html" target="_top" xlink:title="A Function object corresponds to a function member of a window. ">
<polygon fill="none" stroke="black" points="988,-130.5 988,-149.5 1042,-149.5 1042,-130.5 988,-130.5"/>
<text text-anchor="middle" x="1015" y="-137.5" font-family="Helvetica,sans-Serif" font-size="10.00">Function</text>
</a>
</g>
</g>
<!-- Node2&#45;&gt;Node10 -->
<g id="edge17" class="edge"><title>Node2&#45;&gt;Node10</title>
<path fill="none" stroke="#9a32cd" stroke-dasharray="5,2" d="M770.476,-277.569C776.064,-272.107 781.779,-265.697 786,-259 798.816,-238.665 786.783,-224.773 804,-208 855.468,-157.86 944.196,-144.689 987.995,-141.231"/>
<polygon fill="#9a32cd" stroke="#9a32cd" points="768.076,-275.02 763.087,-284.367 772.816,-280.172 768.076,-275.02"/>
<text text-anchor="middle" x="863" y="-211" font-family="Helvetica,sans-Serif" font-size="10.00"> _attr</text>
</g>
<!-- Node18 -->
<g id="node18" class="node"><title>Node18</title>
<polygon fill="none" stroke="#bfbfbf" points="940,-274.5 940,-293.5 1090,-293.5 1090,-274.5 940,-274.5"/>
<text text-anchor="middle" x="1015" y="-281.5" font-family="Helvetica,sans-Serif" font-size="10.00">map&lt; std::string, DataItem * &gt;</text>
</g>
<!-- Node2&#45;&gt;Node18 -->
<g id="edge31" class="edge"><title>Node2&#45;&gt;Node18</title>
<path fill="none" stroke="#9a32cd" stroke-dasharray="5,2" d="M788.843,-292.561C828.134,-291.067 890.617,-288.691 939.804,-286.821"/>
<polygon fill="#9a32cd" stroke="#9a32cd" points="788.508,-289.071 778.649,-292.949 788.774,-296.066 788.508,-289.071"/>
<text text-anchor="middle" x="863" y="-294" font-family="Helvetica,sans-Serif" font-size="10.00"> elements</text>
</g>
<!-- Node2&#45;&gt;Node2 -->
<g id="edge34" class="edge"><title>Node2&#45;&gt;Node2</title>
<path fill="none" stroke="#9a32cd" stroke-dasharray="5,2" d="M737.109,-313.766C738.122,-318.497 742.419,-322 750,-322 762.441,-322 766.038,-312.565 760.789,-303.757"/>
<polygon fill="#9a32cd" stroke="#9a32cd" points="740.581,-314.263 739.211,-303.757 733.73,-312.824 740.581,-314.263"/>
<text text-anchor="middle" x="750" y="-325" font-family="Helvetica,sans-Serif" font-size="10.00"> _parent</text>
</g>
<!-- Node3 -->
<g id="node3" class="node"><title>Node3</title>
<g id="a_node3"><a xlink:href="classPane.html" target="_top" xlink:title="A Pane object contains a mesh, pane dataitem, and field variables. ">
<polygon fill="none" stroke="black" points="589.5,-406.5 589.5,-425.5 628.5,-425.5 628.5,-406.5 589.5,-406.5"/>
<text text-anchor="middle" x="609" y="-413.5" font-family="Helvetica,sans-Serif" font-size="10.00">Pane</text>
</a>
</g>
</g>
<!-- Node3&#45;&gt;Node2 -->
<g id="edge2" class="edge"><title>Node3&#45;&gt;Node2</title>
<path fill="none" stroke="#9a32cd" stroke-dasharray="5,2" d="M620.391,-397.378C629.776,-381.753 644.736,-359.558 662,-344 673.065,-334.029 708.166,-315.069 730.255,-303.578"/>
<polygon fill="#9a32cd" stroke="#9a32cd" points="617.298,-395.735 615.297,-406.139 623.349,-399.253 617.298,-395.735"/>
<text text-anchor="middle" x="679" y="-347" font-family="Helvetica,sans-Serif" font-size="10.00"> _pane</text>
</g>
<!-- Node17 -->
<g id="node17" class="node"><title>Node17</title>
<polygon fill="none" stroke="#bfbfbf" points="965.5,-333.5 965.5,-352.5 1064.5,-352.5 1064.5,-333.5 965.5,-333.5"/>
<text text-anchor="middle" x="1015" y="-340.5" font-family="Helvetica,sans-Serif" font-size="10.00">map&lt; int, Pane * &gt;</text>
</g>
<!-- Node3&#45;&gt;Node17 -->
<g id="edge25" class="edge"><title>Node3&#45;&gt;Node17</title>
<path fill="none" stroke="#9a32cd" stroke-dasharray="5,2" d="M638.724,-410.81C707.121,-398.451 880.254,-367.167 965.316,-351.797"/>
<polygon fill="#9a32cd" stroke="#9a32cd" points="637.894,-407.403 628.676,-412.625 639.139,-414.291 637.894,-407.403"/>
<text text-anchor="middle" x="750" y="-400" font-family="Helvetica,sans-Serif" font-size="10.00"> elements</text>
</g>
<!-- Node8 -->
<g id="node8" class="node"><title>Node8</title>
<g id="a_node8"><a xlink:href="classComponentInterface.html" target="_top" xlink:title="A ComponentInterface object contains multiple panes and multiple data dataitems. ">
<polygon fill="none" stroke="black" points="1434.5,-278.5 1434.5,-297.5 1539.5,-297.5 1539.5,-278.5 1434.5,-278.5"/>
<text text-anchor="middle" x="1487" y="-285.5" font-family="Helvetica,sans-Serif" font-size="10.00">ComponentInterface</text>
</a>
</g>
</g>
<!-- Node3&#45;&gt;Node8 -->
<g id="edge27" class="edge"><title>Node3&#45;&gt;Node8</title>
<path fill="none" stroke="#9a32cd" stroke-dasharray="5,2" d="M637.635,-429.907C639.887,-431.492 642.045,-433.193 644,-435 654.59,-444.79 652.556,-451.1 662,-462 696.006,-501.249 697.068,-540 749,-540 749,-540 749,-540 1277,-540 1350.6,-540 1371.6,-508.694 1416,-450 1454.45,-399.176 1476.63,-323.996 1483.6,-297.59"/>
<polygon fill="#9a32cd" stroke="#9a32cd" points="639.058,-426.673 628.711,-424.395 635.379,-432.628 639.058,-426.673"/>
<text text-anchor="middle" x="1015" y="-543" font-family="Helvetica,sans-Serif" font-size="10.00"> _dummy</text>
</g>
<!-- Node4&#45;&gt;Node3 -->
<g id="edge3" class="edge"><title>Node4&#45;&gt;Node3</title>
<path fill="none" stroke="#9a32cd" stroke-dasharray="5,2" d="M435.694,-416C488.502,-416 556.928,-416 589.366,-416"/>
<polygon fill="#9a32cd" stroke="#9a32cd" points="435.692,-412.5 425.692,-416 435.692,-419.5 435.692,-412.5"/>
<text text-anchor="middle" x="500" y="-419" font-family="Helvetica,sans-Serif" font-size="10.00"> _cnct_set</text>
</g>
<!-- Node5 -->
<g id="node5" class="node"><title>Node5</title>
<g id="a_node5"><a xlink:title="STL class. ">
<polygon fill="none" stroke="#bfbfbf" points="112,-372.5 112,-391.5 180,-391.5 180,-372.5 112,-372.5"/>
<text text-anchor="middle" x="146" y="-379.5" font-family="Helvetica,sans-Serif" font-size="10.00">vector&lt; T &gt;</text>
</a>
</g>
</g>
<!-- Node5&#45;&gt;Node4 -->
<g id="edge5" class="edge"><title>Node5&#45;&gt;Node4</title>
<path fill="none" stroke="orange" stroke-dasharray="5,2" d="M190.178,-392.108C193.494,-392.783 196.797,-393.422 200,-394 233.722,-400.081 271.645,-405.295 302.421,-409.119"/>
<polygon fill="orange" stroke="orange" points="190.778,-388.657 180.27,-390.005 189.325,-395.505 190.778,-388.657"/>
<text text-anchor="middle" x="242" y="-409" font-family="Helvetica,sans-Serif" font-size="10.00"> &lt; Connectivity * &gt;</text>
</g>
<!-- Node5&#45;&gt;Node7 -->
<g id="edge9" class="edge"><title>Node5&#45;&gt;Node7</title>
<path fill="none" stroke="orange" stroke-dasharray="5,2" d="M164.698,-398.523C174.4,-406.627 187.063,-415.752 200,-421 242.402,-438.202 256.354,-431.791 302,-435 524.563,-450.648 580.888,-436.556 804,-437 856.444,-437.104 869.618,-439.556 922,-437 934.343,-436.398 947.584,-435.344 960.066,-434.164"/>
<polygon fill="orange" stroke="orange" points="166.831,-395.739 157.001,-391.787 162.221,-401.007 166.831,-395.739"/>
<text text-anchor="middle" x="609" y="-444" font-family="Helvetica,sans-Serif" font-size="10.00"> &lt; DataItem * &gt;</text>
</g>
<!-- Node11 -->
<g id="node11" class="node"><title>Node11</title>
<polygon fill="none" stroke="#bfbfbf" points="444,-158.5 444,-177.5 556,-177.5 556,-158.5 444,-158.5"/>
<text text-anchor="middle" x="500" y="-165.5" font-family="Helvetica,sans-Serif" font-size="10.00">vector&lt; COM_Type &gt;</text>
</g>
<!-- Node5&#45;&gt;Node11 -->
<g id="edge14" class="edge"><title>Node5&#45;&gt;Node11</title>
<path fill="none" stroke="orange" stroke-dasharray="5,2" d="M169.589,-366.617C178.916,-360.388 189.891,-353.214 200,-347 298.529,-286.435 327.986,-279.396 426,-218 447.35,-204.626 471.304,-187.868 485.764,-177.55"/>
<polygon fill="orange" stroke="orange" points="167.578,-363.752 161.234,-372.238 171.485,-369.56 167.578,-363.752"/>
<text text-anchor="middle" x="242" y="-350" font-family="Helvetica,sans-Serif" font-size="10.00"> &lt; COM_Type &gt;</text>
</g>
<!-- Node6 -->
<g id="node6" class="node"><title>Node6</title>
<polygon fill="none" stroke="#bfbfbf" points="0.5,-246.5 0.5,-265.5 29.5,-265.5 29.5,-246.5 0.5,-246.5"/>
<text text-anchor="middle" x="15" y="-253.5" font-family="Helvetica,sans-Serif" font-size="10.00">T</text>
</g>
<!-- Node6&#45;&gt;Node5 -->
<g id="edge6" class="edge"><title>Node6&#45;&gt;Node5</title>
<path fill="none" stroke="#9a32cd" stroke-dasharray="5,2" d="M33.4531,-273.047C60.8347,-299.792 113.02,-350.764 134.925,-372.159"/>
<polygon fill="#9a32cd" stroke="#9a32cd" points="35.7218,-270.371 26.1224,-265.887 30.8306,-275.378 35.7218,-270.371"/>
<text text-anchor="middle" x="70" y="-329" font-family="Helvetica,sans-Serif" font-size="10.00"> elements</text>
</g>
<!-- Node14 -->
<g id="node14" class="node"><title>Node14</title>
<g id="a_node14"><a xlink:title="STL class. ">
<polygon fill="none" stroke="#bfbfbf" points="714,-230.5 714,-249.5 786,-249.5 786,-230.5 714,-230.5"/>
<text text-anchor="middle" x="750" y="-237.5" font-family="Helvetica,sans-Serif" font-size="10.00">map&lt; K, T &gt;</text>
</a>
</g>
</g>
<!-- Node6&#45;&gt;Node14 -->
<g id="edge21" class="edge"><title>Node6&#45;&gt;Node14</title>
<path fill="none" stroke="#9a32cd" stroke-dasharray="5,2" d="M38.1997,-240.65C63.0443,-224.999 105.067,-203 145,-203 145,-203 145,-203 610,-203 652.703,-203 700.376,-219.509 727.327,-230.472"/>
<polygon fill="#9a32cd" stroke="#9a32cd" points="36.0276,-237.888 29.559,-246.279 39.8484,-243.753 36.0276,-237.888"/>
<text text-anchor="middle" x="364" y="-206" font-family="Helvetica,sans-Serif" font-size="10.00"> elements</text>
</g>
<!-- Node7&#45;&gt;Node3 -->
<g id="edge7" class="edge"><title>Node7&#45;&gt;Node3</title>
<path fill="none" stroke="#9a32cd" stroke-dasharray="5,2" d="M950.075,-426.101C855.956,-423.306 685.141,-418.232 628.676,-416.555"/>
<polygon fill="#9a32cd" stroke="#9a32cd" points="950.227,-429.607 960.326,-426.406 950.435,-422.61 950.227,-429.607"/>
<text text-anchor="middle" x="750" y="-424" font-family="Helvetica,sans-Serif" font-size="10.00"> _attr_set</text>
</g>
<!-- Node8&#45;&gt;Node3 -->
<g id="edge10" class="edge"><title>Node8&#45;&gt;Node3</title>
<path fill="none" stroke="#9a32cd" stroke-dasharray="5,2" d="M1477.92,-306.802C1454.73,-357.461 1382.8,-493 1277,-493 862,-493 862,-493 862,-493 770.735,-493 668.675,-446.238 628.07,-425.596"/>
<polygon fill="#9a32cd" stroke="#9a32cd" points="1481.14,-308.171 1482.01,-297.613 1474.74,-305.323 1481.14,-308.171"/>
<text text-anchor="middle" x="1015" y="-496" font-family="Helvetica,sans-Serif" font-size="10.00"> _window</text>
</g>
<!-- Node9 -->
<g id="node9" class="node"><title>Node9</title>
<polygon fill="none" stroke="#bfbfbf" points="1206,-167.5 1206,-186.5 1346,-186.5 1346,-167.5 1206,-167.5"/>
<text text-anchor="middle" x="1276" y="-174.5" font-family="Helvetica,sans-Serif" font-size="10.00">map&lt; std::string, Function &gt;</text>
</g>
<!-- Node9&#45;&gt;Node8 -->
<g id="edge11" class="edge"><title>Node9&#45;&gt;Node8</title>
<path fill="none" stroke="#9a32cd" stroke-dasharray="5,2" d="M1346.36,-188.883C1369.57,-194.787 1394.89,-203.445 1416,-216 1443.57,-232.397 1467.67,-262.418 1479.05,-278.009"/>
<polygon fill="#9a32cd" stroke="#9a32cd" points="1347.1,-185.461 1336.56,-186.517 1345.46,-192.266 1347.1,-185.461"/>
<text text-anchor="middle" x="1390" y="-219" font-family="Helvetica,sans-Serif" font-size="10.00"> _func_map</text>
</g>
<!-- Node10&#45;&gt;Node9 -->
<g id="edge12" class="edge"><title>Node10&#45;&gt;Node9</title>
<path fill="none" stroke="#9a32cd" stroke-dasharray="5,2" d="M1052.19,-145.169C1092.55,-150.935 1158.69,-160.384 1208.45,-167.493"/>
<polygon fill="#9a32cd" stroke="#9a32cd" points="1052.65,-141.701 1042.26,-143.751 1051.66,-148.63 1052.65,-141.701"/>
<text text-anchor="middle" x="1148" y="-167" font-family="Helvetica,sans-Serif" font-size="10.00"> elements</text>
</g>
<!-- Node11&#45;&gt;Node10 -->
<g id="edge13" class="edge"><title>Node11&#45;&gt;Node10</title>
<path fill="none" stroke="#9a32cd" stroke-dasharray="5,2" d="M563.618,-156.829C605.925,-149.862 663.13,-141.565 714,-138 815.057,-130.918 935.728,-135.752 987.874,-138.483"/>
<polygon fill="#9a32cd" stroke="#9a32cd" points="563.029,-153.379 553.74,-158.476 564.18,-160.284 563.029,-153.379"/>
<text text-anchor="middle" x="679" y="-146" font-family="Helvetica,sans-Serif" font-size="10.00"> _types</text>
</g>
<!-- Node12 -->
<g id="node12" class="node"><title>Node12</title>
<g id="a_node12"><a xlink:title="STL class. ">
<polygon fill="none" stroke="#bfbfbf" points="588.5,-75.5 588.5,-94.5 629.5,-94.5 629.5,-75.5 588.5,-75.5"/>
<text text-anchor="middle" x="609" y="-82.5" font-family="Helvetica,sans-Serif" font-size="10.00">string</text>
</a>
</g>
</g>
<!-- Node12&#45;&gt;Node10 -->
<g id="edge15" class="edge"><title>Node12&#45;&gt;Node10</title>
<path fill="none" stroke="#9a32cd" stroke-dasharray="5,2" d="M639.815,-85.0616C695.716,-85.689 819.854,-89.5108 922,-110 945.555,-114.725 971.501,-123.532 989.817,-130.386"/>
<polygon fill="#9a32cd" stroke="#9a32cd" points="639.601,-81.5598 629.571,-84.9747 639.541,-88.5595 639.601,-81.5598"/>
<text text-anchor="middle" x="750" y="-95" font-family="Helvetica,sans-Serif" font-size="10.00"> _intents</text>
</g>
<!-- Node12&#45;&gt;Node9 -->
<g id="edge18" class="edge"><title>Node12&#45;&gt;Node9</title>
<path fill="none" stroke="#9a32cd" stroke-dasharray="5,2" d="M639.886,-83.0884C647.122,-82.6774 654.836,-82.2822 662,-82 725.076,-79.515 740.878,-79.6667 804,-79 856.442,-78.4461 869.948,-72.5922 922,-79 998.388,-88.4038 1015.81,-100.511 1090,-121 1144.99,-136.186 1208.53,-155.898 1245.01,-167.428"/>
<polygon fill="#9a32cd" stroke="#9a32cd" points="639.521,-79.6039 629.746,-83.6908 639.936,-86.5916 639.521,-79.6039"/>
<text text-anchor="middle" x="863" y="-82" font-family="Helvetica,sans-Serif" font-size="10.00"> keys</text>
</g>
<!-- Node12&#45;&gt;Node8 -->
<g id="edge28" class="edge"><title>Node12&#45;&gt;Node8</title>
<path fill="none" stroke="#9a32cd" stroke-dasharray="5,2" d="M625.117,-67.9108C648.837,-43.0909 697.441,-0 749,-0 749,-0 749,-0 1277,-0 1417.85,-0 1473.59,-228.445 1484.1,-278.418"/>
<polygon fill="#9a32cd" stroke="#9a32cd" points="622.547,-65.5351 618.318,-75.2494 627.682,-70.2924 622.547,-65.5351"/>
<text text-anchor="middle" x="1015" y="-3" font-family="Helvetica,sans-Serif" font-size="10.00"> _name</text>
</g>
<!-- Node12&#45;&gt;Node18 -->
<g id="edge30" class="edge"><title>Node12&#45;&gt;Node18</title>
<path fill="none" stroke="#9a32cd" stroke-dasharray="5,2" d="M639.33,-93.6999C646.712,-95.8237 654.632,-98.0457 662,-100 719.463,-115.242 879.597,-121.331 922,-163 944.605,-185.214 921.929,-205.964 940,-232 953.34,-251.22 976.22,-265.682 993.015,-274.414"/>
<polygon fill="#9a32cd" stroke="#9a32cd" points="640.278,-90.3307 629.698,-90.899 638.323,-97.0523 640.278,-90.3307"/>
<text text-anchor="middle" x="750" y="-123" font-family="Helvetica,sans-Serif" font-size="10.00"> keys</text>
</g>
<!-- Node12&#45;&gt;Node2 -->
<g id="edge33" class="edge"><title>Node12&#45;&gt;Node2</title>
<path fill="none" stroke="#9a32cd" stroke-dasharray="5,2" d="M614.101,-104.564C622.565,-143.427 642.792,-228.547 662,-251 670.652,-261.114 701.765,-275.123 724.317,-284.367"/>
<polygon fill="#9a32cd" stroke="#9a32cd" points="617.465,-103.558 611.95,-94.5115 610.62,-105.022 617.465,-103.558"/>
<text text-anchor="middle" x="679" y="-284" font-family="Helvetica,sans-Serif" font-size="10.00"> _name</text>
<text text-anchor="middle" x="679" y="-273" font-family="Helvetica,sans-Serif" font-size="10.00">_unit</text>
</g>
<!-- Node13 -->
<g id="node13" class="node"><title>Node13</title>
<g id="a_node13"><a xlink:title="STL class. ">
<polygon fill="none" stroke="#bfbfbf" points="311,-75.5 311,-94.5 417,-94.5 417,-75.5 311,-75.5"/>
<text text-anchor="middle" x="364" y="-82.5" font-family="Helvetica,sans-Serif" font-size="10.00">basic_string&lt; char &gt;</text>
</a>
</g>
</g>
<!-- Node13&#45;&gt;Node12 -->
<g id="edge16" class="edge"><title>Node13&#45;&gt;Node12</title>
<path fill="none" stroke="midnightblue" d="M427.138,-85C480.279,-85 553.507,-85 588.217,-85"/>
<polygon fill="midnightblue" stroke="midnightblue" points="427.13,-81.5001 417.13,-85 427.13,-88.5001 427.13,-81.5001"/>
</g>
<!-- Node14&#45;&gt;Node9 -->
<g id="edge19" class="edge"><title>Node14&#45;&gt;Node9</title>
<path fill="none" stroke="orange" stroke-dasharray="5,2" d="M796.282,-234.556C888.139,-223.512 1096.89,-198.415 1205.86,-185.312"/>
<polygon fill="orange" stroke="orange" points="795.705,-231.1 786.195,-235.769 796.541,-238.05 795.705,-231.1"/>
<text text-anchor="middle" x="1015" y="-220" font-family="Helvetica,sans-Serif" font-size="10.00"> &lt; std::string, Function &gt;</text>
</g>
<!-- Node16 -->
<g id="node16" class="node"><title>Node16</title>
<polygon fill="none" stroke="#bfbfbf" points="1108,-231.5 1108,-250.5 1188,-250.5 1188,-231.5 1108,-231.5"/>
<text text-anchor="middle" x="1148" y="-238.5" font-family="Helvetica,sans-Serif" font-size="10.00">map&lt; int, int &gt;</text>
</g>
<!-- Node14&#45;&gt;Node16 -->
<g id="edge23" class="edge"><title>Node14&#45;&gt;Node16</title>
<path fill="none" stroke="orange" stroke-dasharray="5,2" d="M796.263,-239.945C830.732,-239.917 879.357,-239.905 922,-240 987.235,-240.145 1063.11,-240.526 1107.98,-240.774"/>
<polygon fill="orange" stroke="orange" points="796.039,-236.445 786.042,-239.954 796.046,-243.445 796.039,-236.445"/>
<text text-anchor="middle" x="863" y="-243" font-family="Helvetica,sans-Serif" font-size="10.00"> &lt; int, int &gt;</text>
</g>
<!-- Node14&#45;&gt;Node17 -->
<g id="edge26" class="edge"><title>Node14&#45;&gt;Node17</title>
<path fill="none" stroke="orange" stroke-dasharray="5,2" d="M769.482,-256.706C775.112,-262.246 781.101,-268.632 786,-275 795.714,-287.628 790.937,-296.879 804,-306 851.653,-339.275 919.841,-345.652 965.453,-345.609"/>
<polygon fill="orange" stroke="orange" points="771.825,-254.105 762.164,-249.755 767.005,-259.18 771.825,-254.105"/>
<text text-anchor="middle" x="863" y="-346" font-family="Helvetica,sans-Serif" font-size="10.00"> &lt; int, Pane * &gt;</text>
</g>
<!-- Node14&#45;&gt;Node18 -->
<g id="edge32" class="edge"><title>Node14&#45;&gt;Node18</title>
<path fill="none" stroke="orange" stroke-dasharray="5,2" d="M796.015,-251.347C798.711,-251.932 801.388,-252.488 804,-253 848.845,-261.79 899.516,-269.338 939.848,-274.784"/>
<polygon fill="orange" stroke="orange" points="796.775,-247.931 786.249,-249.135 795.228,-254.758 796.775,-247.931"/>
<text text-anchor="middle" x="863" y="-274" font-family="Helvetica,sans-Serif" font-size="10.00"> &lt; std::string, DataItem * &gt;</text>
</g>
<!-- Node15 -->
<g id="node15" class="node"><title>Node15</title>
<polygon fill="none" stroke="#bfbfbf" points="594.5,-231.5 594.5,-250.5 623.5,-250.5 623.5,-231.5 594.5,-231.5"/>
<text text-anchor="middle" x="609" y="-238.5" font-family="Helvetica,sans-Serif" font-size="10.00">K</text>
</g>
<!-- Node15&#45;&gt;Node14 -->
<g id="edge20" class="edge"><title>Node15&#45;&gt;Node14</title>
<path fill="none" stroke="#9a32cd" stroke-dasharray="5,2" d="M633.717,-240.448C642.59,-240.267 652.757,-240.089 662,-240 679.067,-239.836 698.018,-239.817 713.865,-239.846"/>
<polygon fill="#9a32cd" stroke="#9a32cd" points="633.606,-236.949 623.685,-240.665 633.758,-243.948 633.606,-236.949"/>
<text text-anchor="middle" x="679" y="-243" font-family="Helvetica,sans-Serif" font-size="10.00"> keys</text>
</g>
<!-- Node16&#45;&gt;Node8 -->
<g id="edge22" class="edge"><title>Node16&#45;&gt;Node8</title>
<path fill="none" stroke="#9a32cd" stroke-dasharray="5,2" d="M1198.1,-242.302C1238.11,-243.887 1295.95,-247.374 1346,-255 1382.78,-260.605 1424.17,-270.865 1452.35,-278.462"/>
<polygon fill="#9a32cd" stroke="#9a32cd" points="1198.2,-238.804 1188.08,-241.93 1197.94,-245.799 1198.2,-238.804"/>
<text text-anchor="middle" x="1276" y="-258" font-family="Helvetica,sans-Serif" font-size="10.00"> _proc_map</text>
</g>
<!-- Node17&#45;&gt;Node8 -->
<g id="edge24" class="edge"><title>Node17&#45;&gt;Node8</title>
<path fill="none" stroke="#9a32cd" stroke-dasharray="5,2" d="M1074.93,-338.279C1153.11,-331.681 1295.31,-318.516 1416,-301 1422.97,-299.988 1430.31,-298.782 1437.51,-297.519"/>
<polygon fill="#9a32cd" stroke="#9a32cd" points="1074.47,-334.805 1064.8,-339.128 1075.05,-341.781 1074.47,-334.805"/>
<text text-anchor="middle" x="1276" y="-328" font-family="Helvetica,sans-Serif" font-size="10.00"> _pane_map</text>
</g>
<!-- Node18&#45;&gt;Node8 -->
<g id="edge29" class="edge"><title>Node18&#45;&gt;Node8</title>
<path fill="none" stroke="#9a32cd" stroke-dasharray="5,2" d="M1100.29,-284.717C1197.35,-285.543 1353.73,-286.874 1434.32,-287.56"/>
<polygon fill="#9a32cd" stroke="#9a32cd" points="1100.24,-281.217 1090.21,-284.632 1100.18,-288.217 1100.24,-281.217"/>
<text text-anchor="middle" x="1276" y="-289" font-family="Helvetica,sans-Serif" font-size="10.00"> _attr_map</text>
</g>
</g>
</svg>
        <g id="navigator" transform="translate(0 0)" fill="#404254">
                <rect fill="#f2f5e9" fill-opacity="0.5" stroke="#606060" stroke-width=".5" x="0" y="0" width="60" height="60"/>
                <use id="zoomplus" xlink:href="#zoomPlus" x="17" y="9" onmousedown="handleZoom(evt,'in')"/>
                <use id="zoomminus" xlink:href="#zoomMin" x="42" y="9" onmousedown="handleZoom(evt,'out')"/>
                <use id="reset" xlink:href="#resetDef" x="30" y="36" onmousedown="handleReset()"/>
                <g id="arrowUp" xlink:href="#dirArrow" transform="translate(30 24)" onmousedown="handlePan(0,-1)">
                  <use xlink:href="#rim" fill="#404040">
                        <set attributeName="fill" to="#808080" begin="arrowUp.mouseover" end="arrowUp.mouseout"/>
                  </use>
                  <path fill="none" stroke="white" stroke-width="1.5" d="M0,-3.0v7 M-2.5,-0.5L0,-3.0L2.5,-0.5"/>
                </g>
                <g id="arrowRight" xlink:href="#dirArrow" transform="rotate(90) translate(36 -43)" onmousedown="handlePan(1,0)">
                  <use xlink:href="#rim" fill="#404040">
                        <set attributeName="fill" to="#808080" begin="arrowRight.mouseover" end="arrowRight.mouseout"/>
                  </use>
                  <path fill="none" stroke="white" stroke-width="1.5" d="M0,-3.0v7 M-2.5,-0.5L0,-3.0L2.5,-0.5"/>
                </g>
                <g id="arrowDown" xlink:href="#dirArrow" transform="rotate(180) translate(-30 -48)" onmousedown="handlePan(0,1)">
                  <use xlink:href="#rim" fill="#404040">
                        <set attributeName="fill" to="#808080" begin="arrowDown.mouseover" end="arrowDown.mouseout"/>
                  </use>
                  <path fill="none" stroke="white" stroke-width="1.5" d="M0,-3.0v7 M-2.5,-0.5L0,-3.0L2.5,-0.5"/>
                </g>
                <g id="arrowLeft" xlink:href="#dirArrow" transform="rotate(270) translate(-36 17)" onmousedown="handlePan(-1,0)">
                  <use xlink:href="#rim" fill="#404040">
                        <set attributeName="fill" to="#808080" begin="arrowLeft.mouseover" end="arrowLeft.mouseout"/>
                  </use>
                  <path fill="none" stroke="white" stroke-width="1.5" d="M0,-3.0v7 M-2.5,-0.5L0,-3.0L2.5,-0.5"/>
                </g>
        </g>
        <svg viewBox="0 0 15 15" width="100%" height="30px" preserveAspectRatio="xMaxYMin meet">
         <g id="arrow_out" transform="scale(0.3 0.3)">
          <a xlink:href="classConnectivity__coll__graph_org.svg" target="_base">
           <rect id="button" ry="5" rx="5" y="6" x="6" height="38" width="38"
                fill="#f2f5e9" fill-opacity="0.5" stroke="#606060" stroke-width="1.0"/>
           <path id="arrow"
             d="M 11.500037,31.436501 C 11.940474,20.09759 22.043105,11.32322 32.158766,21.979434 L 37.068811,17.246167 C 37.068811,17.246167 37.088388,32 37.088388,32 L 22.160133,31.978069 C 22.160133,31.978069 26.997745,27.140456 26.997745,27.140456 C 18.528582,18.264221 13.291696,25.230495 11.500037,31.436501 z"
             style="fill:#404040;"/>
          </a>
         </g>
        </svg>
</svg>
