<?xml version="1.0" encoding="UTF-8" standalone="no"?>
<!DOCTYPE svg PUBLIC "-//W3C//DTD SVG 1.1//EN"
 "http://www.w3.org/Graphics/SVG/1.1/DTD/svg11.dtd">
<!-- Generated by graphviz version 2.26.0 (20091210.2329)
 -->
<!-- Title: savecurrent Pages: 1 -->
<svg width="518pt" height="150pt"
 viewBox="0.00 0.00 518.00 150.00" xmlns="http://www.w3.org/2000/svg" xmlns:xlink="http://www.w3.org/1999/xlink">
<g id="graph1" class="graph" transform="scale(1 1) rotate(0) translate(4 146)">
<title>savecurrent</title>
<!-- Node1 -->
<g id="node1" class="node"><title>Node1</title>
<polygon fill="#bfbfbf" stroke="black" points="0,-60.5 0,-81.5 68,-81.5 68,-60.5 0,-60.5"/>
<text text-anchor="middle" x="34" y="-68.5" font-family="Helvetica,sans-Serif" font-size="10.00">savecurrent</text>
</g>
<!-- Node2 -->
<g id="node3" class="node"><title>Node2</title>
<a xlink:href="classmymodule_aa88ce66b9b7ef1a10643fdc4fe416855.html#aa88ce66b9b7ef1a10643fdc4fe416855" target="_top" xlink:title="Execute the individual solvers in defined sequence. ">
<polygon fill="none" stroke="black" points="139,-120.5 139,-141.5 221,-141.5 221,-120.5 139,-120.5"/>
<text text-anchor="middle" x="180" y="-128.5" font-family="Helvetica,sans-Serif" font-size="10.00">execsimulation</text>
</a>
</g>
<!-- Node1&#45;&gt;Node2 -->
<g id="edge2" class="edge"><title>Node1&#45;&gt;Node2</title>
<path fill="none" stroke="midnightblue" d="M58.6262,-87.1894C71.6901,-95.2239 88.2583,-104.562 104,-111 114.987,-115.493 127.283,-119.243 138.731,-122.234"/>
<polygon fill="midnightblue" stroke="midnightblue" points="60.1223,-83.9954 49.795,-81.6294 56.3928,-89.9192 60.1223,-83.9954"/>
</g>
<!-- Node3 -->
<g id="node5" class="node"><title>Node3</title>
<a xlink:href="MyTimeStepper_8F90_a237a61ca1fd44e17d8c988a27b400ef4.html#a237a61ca1fd44e17d8c988a27b400ef4" target="_top" xlink:title="mydeprecatedtimestepper">
<polygon fill="none" stroke="black" points="115.5,-80.5 115.5,-101.5 244.5,-101.5 244.5,-80.5 115.5,-80.5"/>
<text text-anchor="middle" x="180" y="-88.5" font-family="Helvetica,sans-Serif" font-size="10.00">mydeprecatedtimestepper</text>
</a>
</g>
<!-- Node1&#45;&gt;Node3 -->
<g id="edge4" class="edge"><title>Node1&#45;&gt;Node3</title>
<path fill="none" stroke="midnightblue" d="M78.1766,-77.0516C89.8828,-78.6552 102.767,-80.4201 115.319,-82.1396"/>
<polygon fill="midnightblue" stroke="midnightblue" points="78.613,-73.5788 68.2305,-75.6891 77.6629,-80.514 78.613,-73.5788"/>
</g>
<!-- Node4 -->
<g id="node7" class="node"><title>Node4</title>
<a xlink:href="MyFinalize_8F90_a8f0a6f152f814befec4a1a2e5752bd58.html#a8f0a6f152f814befec4a1a2e5752bd58" target="_top" xlink:title="ElmerLib Elmer library routines ">
<polygon fill="none" stroke="black" points="149.5,-40.5 149.5,-61.5 210.5,-61.5 210.5,-40.5 149.5,-40.5"/>
<text text-anchor="middle" x="180" y="-48.5" font-family="Helvetica,sans-Serif" font-size="10.00">myfinalize</text>
</a>
</g>
<!-- Node1&#45;&gt;Node4 -->
<g id="edge6" class="edge"><title>Node1&#45;&gt;Node4</title>
<path fill="none" stroke="midnightblue" d="M78.4338,-64.9132C101.417,-61.7648 128.885,-58.0021 149.458,-55.1839"/>
<polygon fill="midnightblue" stroke="midnightblue" points="77.6629,-61.486 68.2305,-66.3109 78.613,-68.4212 77.6629,-61.486"/>
</g>
<!-- Node7 -->
<g id="node13" class="node"><title>Node7</title>
<a xlink:href="classmytimemodule_a89480aff5c9d8dca59ec62b1ae353219.html#a89480aff5c9d8dca59ec62b1ae353219" target="_top" xlink:title="mytimemodule::mytimestepper">
<polygon fill="none" stroke="black" points="104.5,-0.5 104.5,-21.5 255.5,-21.5 255.5,-0.5 104.5,-0.5"/>
<text text-anchor="middle" x="180" y="-8.5" font-family="Helvetica,sans-Serif" font-size="10.00">mytimemodule::mytimestepper</text>
</a>
</g>
<!-- Node1&#45;&gt;Node7 -->
<g id="edge12" class="edge"><title>Node1&#45;&gt;Node7</title>
<path fill="none" stroke="midnightblue" d="M58.6262,-54.8106C71.6901,-46.7761 88.2583,-37.4382 104,-31 112.84,-27.3846 122.528,-24.251 131.939,-21.606"/>
<polygon fill="midnightblue" stroke="midnightblue" points="56.3928,-52.0808 49.795,-60.3706 60.1223,-58.0046 56.3928,-52.0808"/>
</g>
<!-- Node5 -->
<g id="node9" class="node"><title>Node5</title>
<a xlink:href="SolverModule_8F90_af3d36f75ef0281d05095a89df472fa2f.html#af3d36f75ef0281d05095a89df472fa2f" target="_top" xlink:title="finalize">
<polygon fill="none" stroke="black" points="292.5,-40.5 292.5,-61.5 339.5,-61.5 339.5,-40.5 292.5,-40.5"/>
<text text-anchor="middle" x="316" y="-48.5" font-family="Helvetica,sans-Serif" font-size="10.00">finalize</text>
</a>
</g>
<!-- Node4&#45;&gt;Node5 -->
<g id="edge8" class="edge"><title>Node4&#45;&gt;Node5</title>
<path fill="none" stroke="midnightblue" d="M220.526,-51C243.938,-51 272.573,-51 292.342,-51"/>
<polygon fill="midnightblue" stroke="midnightblue" points="220.521,-47.5001 210.521,-51 220.521,-54.5001 220.521,-47.5001"/>
</g>
<!-- Node6 -->
<g id="node11" class="node"><title>Node6</title>
<a xlink:href="SolverModule_8F90_a2363fcb6699317c59c1f2f041ee860d2.html#a2363fcb6699317c59c1f2f041ee860d2" target="_top" xlink:title="solvermodule_load_module">
<polygon fill="none" stroke="black" points="376,-20.5 376,-41.5 510,-41.5 510,-20.5 376,-20.5"/>
<text text-anchor="middle" x="443" y="-28.5" font-family="Helvetica,sans-Serif" font-size="10.00">solvermodule_load_module</text>
</a>
</g>
<!-- Node5&#45;&gt;Node6 -->
<g id="edge10" class="edge"><title>Node5&#45;&gt;Node6</title>
<path fill="none" stroke="midnightblue" d="M349.503,-45.7239C357.745,-44.426 366.862,-42.9902 376.076,-41.5392"/>
<polygon fill="midnightblue" stroke="midnightblue" points="348.924,-42.2719 339.59,-47.285 350.013,-49.1867 348.924,-42.2719"/>
</g>
<!-- Node8 -->
<g id="node15" class="node"><title>Node8</title>
<a xlink:href="SolverModule_8F90_a8b10c4eb645aab66861aa1220c4adae1.html#a8b10c4eb645aab66861aa1220c4adae1" target="_top" xlink:title="run">
<polygon fill="none" stroke="black" points="301,-0.5 301,-21.5 331,-21.5 331,-0.5 301,-0.5"/>
<text text-anchor="middle" x="316" y="-8.5" font-family="Helvetica,sans-Serif" font-size="10.00">run</text>
</a>
</g>
<!-- Node7&#45;&gt;Node8 -->
<g id="edge14" class="edge"><title>Node7&#45;&gt;Node8</title>
<path fill="none" stroke="midnightblue" d="M265.871,-11C279.158,-11 291.466,-11 300.56,-11"/>
<polygon fill="midnightblue" stroke="midnightblue" points="265.556,-7.5001 255.556,-11 265.556,-14.5001 265.556,-7.5001"/>
</g>
<!-- Node8&#45;&gt;Node6 -->
<g id="edge16" class="edge"><title>Node8&#45;&gt;Node6</title>
<path fill="none" stroke="midnightblue" d="M341.242,-14.9751C351.467,-16.5854 363.802,-18.5278 376.302,-20.4964"/>
<polygon fill="midnightblue" stroke="midnightblue" points="341.49,-11.4711 331.067,-13.3728 340.401,-18.3859 341.49,-11.4711"/>
</g>
</g>
</svg>
