<?xml version="1.0" encoding="UTF-8" standalone="no"?>
<!DOCTYPE svg PUBLIC "-//W3C//DTD SVG 1.1//EN"
 "http://www.w3.org/Graphics/SVG/1.1/DTD/svg11.dtd">
<!-- Generated by graphviz version 2.30.1 (20150305.2338)
 -->
<!-- Title: delete_window Pages: 1 -->
<!--zoomable 164 -->
<svg id="main" version="1.1" xmlns="http://www.w3.org/2000/svg" xmlns:xlink="http://www.w3.org/1999/xlink" xml:space="preserve" onload="init(evt)">
<style type="text/css"><![CDATA[
.edge:hover path { stroke: red; }
.edge:hover polygon { stroke: red; fill: red; }
]]></style>
<script type="text/javascript"><![CDATA[
var edges = document.getElementsByTagName('g');
if (edges && edges.length) {
  for (var i=0;i<edges.length;i++) {
    if (edges[i].id.substr(0,4)=='edge') {
      edges[i].setAttribute('class','edge');
    }
  }
}
]]></script>
        <defs>
                <circle id="rim" cx="0" cy="0" r="7"/>
                <circle id="rim2" cx="0" cy="0" r="3.5"/>
                <g id="zoomPlus">
                        <use xlink:href="#rim" fill="#404040">
                                <set attributeName="fill" to="#808080" begin="zoomplus.mouseover" end="zoomplus.mouseout"/>
                        </use>
                        <path d="M-4,0h8M0,-4v8" fill="none" stroke="white" stroke-width="1.5" pointer-events="none"/>
                </g>
                <g id="zoomMin">
                        <use xlink:href="#rim" fill="#404040">
                                <set attributeName="fill" to="#808080" begin="zoomminus.mouseover" end="zoomminus.mouseout"/>
                        </use>
                        <path d="M-4,0h8" fill="none" stroke="white" stroke-width="1.5" pointer-events="none"/>
                </g>
                <g id="dirArrow">
                        <path fill="none" stroke="white" stroke-width="1.5" d="M0,-3.0v7 M-2.5,-0.5L0,-3.0L2.5,-0.5"/>
                </g>
               <g id="resetDef">
                       <use xlink:href="#rim2" fill="#404040">
                               <set attributeName="fill" to="#808080" begin="reset.mouseover" end="reset.mouseout"/>
                       </use>
               </g>
        </defs>

<script type="text/javascript">
var viewWidth = 762;
var viewHeight = 164;
var sectionId = 'dynsection-0';
</script>
<script xlink:href="svgpan.js"/>
<svg id="graph" class="graph">
<g id="viewport">
<title>delete_window</title>
<!-- Node1 -->
<g id="node1" class="node"><title>Node1</title>
<polygon fill="#bfbfbf" stroke="black" points="0.5,-76.5 0.5,-95.5 81.5,-95.5 81.5,-76.5 0.5,-76.5"/>
<text text-anchor="middle" x="41" y="-83.5" font-family="Helvetica,sans-Serif" font-size="10.00">delete_window</text>
</g>
<!-- Node2 -->
<g id="node2" class="node"><title>Node2</title>
<g id="a_node2"><a xlink:href="com__c_8h_a1f72857628570f29f8a19c399f2d5b15.html#a1f72857628570f29f8a19c399f2d5b15" target="_top" xlink:title="COM_delete_window">
<polygon fill="none" stroke="black" points="118,-76.5 118,-95.5 228,-95.5 228,-76.5 118,-76.5"/>
<text text-anchor="middle" x="173" y="-83.5" font-family="Helvetica,sans-Serif" font-size="10.00">COM_delete_window</text>
</a>
</g>
</g>
<!-- Node1&#45;&gt;Node2 -->
<g id="edge1" class="edge"><title>Node1&#45;&gt;Node2</title>
<path fill="none" stroke="midnightblue" d="M91.8169,-86C100.284,-86 109.116,-86 117.692,-86"/>
<polygon fill="midnightblue" stroke="midnightblue" points="91.7107,-82.5001 81.7107,-86 91.7106,-89.5001 91.7107,-82.5001"/>
</g>
<!-- Node3 -->
<g id="node3" class="node"><title>Node3</title>
<g id="a_node3"><a xlink:href="namespaceSolverUtils_ada85c9258996a945bcfa817ffb6e6c51.html#ada85c9258996a945bcfa817ffb6e6c51" target="_top" xlink:title="SolverUtils::DestroySolver">
<polygon fill="none" stroke="black" points="272.5,-136.5 272.5,-155.5 405.5,-155.5 405.5,-136.5 272.5,-136.5"/>
<text text-anchor="middle" x="339" y="-143.5" font-family="Helvetica,sans-Serif" font-size="10.00">SolverUtils::DestroySolver</text>
</a>
</g>
</g>
<!-- Node2&#45;&gt;Node3 -->
<g id="edge2" class="edge"><title>Node2&#45;&gt;Node3</title>
<path fill="none" stroke="midnightblue" d="M206.273,-99.5166C223.332,-106.507 244.686,-115.014 264,-122 277.971,-127.053 293.598,-132.195 306.879,-136.416"/>
<polygon fill="midnightblue" stroke="midnightblue" points="207.352,-96.1758 196.773,-95.5992 204.683,-102.647 207.352,-96.1758"/>
</g>
<!-- Node5 -->
<g id="node5" class="node"><title>Node5</title>
<g id="a_node5"><a xlink:href="classSolverUtils_1_1TransferObjectPar_a735bf8439c33b9d8f45d213ff1a113d6.html#a735bf8439c33b9d8f45d213ff1a113d6" target="_top" xlink:title="SolverUtils::TransferObject\lPar::Overlay">
<polygon fill="none" stroke="black" points="456.5,-68 456.5,-98 591.5,-98 591.5,-68 456.5,-68"/>
<text text-anchor="start" x="464.5" y="-86" font-family="Helvetica,sans-Serif" font-size="10.00">SolverUtils::TransferObject</text>
<text text-anchor="middle" x="524" y="-75" font-family="Helvetica,sans-Serif" font-size="10.00">Par::Overlay</text>
</a>
</g>
</g>
<!-- Node2&#45;&gt;Node5 -->
<g id="edge4" class="edge"><title>Node2&#45;&gt;Node5</title>
<path fill="none" stroke="midnightblue" d="M238.309,-87.603C246.945,-87.7674 255.688,-87.9077 264,-88 330.663,-88.7406 347.351,-89.5278 414,-88 427.73,-87.6852 442.426,-87.1478 456.439,-86.5389"/>
<polygon fill="midnightblue" stroke="midnightblue" points="238.32,-84.1026 228.252,-87.4005 238.179,-91.1012 238.32,-84.1026"/>
</g>
<!-- Node7 -->
<g id="node7" class="node"><title>Node7</title>
<g id="a_node7"><a xlink:href="classSolverUtils_1_1TransferObjectPar_a3bf689e70e300071bc1b010c1fedaae9.html#a3bf689e70e300071bc1b010c1fedaae9" target="_top" xlink:title="SolverUtils::TransferObject\lPar::read_file_rocin">
<polygon fill="none" stroke="black" points="271.5,-49 271.5,-79 406.5,-79 406.5,-49 271.5,-49"/>
<text text-anchor="start" x="279.5" y="-67" font-family="Helvetica,sans-Serif" font-size="10.00">SolverUtils::TransferObject</text>
<text text-anchor="middle" x="339" y="-56" font-family="Helvetica,sans-Serif" font-size="10.00">Par::read_file_rocin</text>
</a>
</g>
</g>
<!-- Node2&#45;&gt;Node7 -->
<g id="edge6" class="edge"><title>Node2&#45;&gt;Node7</title>
<path fill="none" stroke="midnightblue" d="M238.371,-77.3649C249.192,-75.9133 260.443,-74.404 271.321,-72.9448"/>
<polygon fill="midnightblue" stroke="midnightblue" points="237.6,-73.9368 228.154,-78.7354 238.531,-80.8747 237.6,-73.9368"/>
</g>
<!-- Node8 -->
<g id="node8" class="node"><title>Node8</title>
<g id="a_node8"><a xlink:href="classIcoFoamMod_1_1IcoFoamModule_a1103cacab6c0af000e9c5aa579a3fc5f.html#a1103cacab6c0af000e9c5aa579a3fc5f" target="_top" xlink:title="Unloads the IcoFoamModule. ">
<polygon fill="none" stroke="black" points="264.5,-0 264.5,-30 413.5,-30 413.5,-0 264.5,-0"/>
<text text-anchor="start" x="272.5" y="-18" font-family="Helvetica,sans-Serif" font-size="10.00">IcoFoamMod::IcoFoamModule</text>
<text text-anchor="middle" x="339" y="-7" font-family="Helvetica,sans-Serif" font-size="10.00">::Unload</text>
</a>
</g>
</g>
<!-- Node2&#45;&gt;Node8 -->
<g id="edge8" class="edge"><title>Node2&#45;&gt;Node8</title>
<path fill="none" stroke="midnightblue" d="M199.297,-71.3304C217.037,-61.4079 241.509,-48.4411 264,-39 271.596,-35.8111 279.774,-32.7793 287.825,-30.0107"/>
<polygon fill="midnightblue" stroke="midnightblue" points="197.166,-68.5149 190.189,-76.488 200.615,-74.6061 197.166,-68.5149"/>
</g>
<!-- Node4 -->
<g id="node4" class="node"><title>Node4</title>
<g id="a_node4"><a xlink:href="namespaceSolverUtils_ab41d23a53d2a634a1c6f547b487252be.html#ab41d23a53d2a634a1c6f547b487252be" target="_top" xlink:title="SolverUtils::UnRegisterSolver">
<polygon fill="none" stroke="black" points="450,-136.5 450,-155.5 598,-155.5 598,-136.5 450,-136.5"/>
<text text-anchor="middle" x="524" y="-143.5" font-family="Helvetica,sans-Serif" font-size="10.00">SolverUtils::UnRegisterSolver</text>
</a>
</g>
</g>
<!-- Node3&#45;&gt;Node4 -->
<g id="edge3" class="edge"><title>Node3&#45;&gt;Node4</title>
<path fill="none" stroke="midnightblue" d="M415.779,-146C427.039,-146 438.626,-146 449.831,-146"/>
<polygon fill="midnightblue" stroke="midnightblue" points="415.55,-142.5 405.55,-146 415.55,-149.5 415.55,-142.5"/>
</g>
<!-- Node6 -->
<g id="node6" class="node"><title>Node6</title>
<g id="a_node6"><a xlink:href="classfsicouplingpar_ae855141f7b214925c25f7797b8b122a8.html#ae855141f7b214925c25f7797b8b122a8" target="_top" xlink:title="fsicouplingpar::Initialize">
<polygon fill="none" stroke="black" points="634.5,-73.5 634.5,-92.5 753.5,-92.5 753.5,-73.5 634.5,-73.5"/>
<text text-anchor="middle" x="694" y="-80.5" font-family="Helvetica,sans-Serif" font-size="10.00">fsicouplingpar::Initialize</text>
</a>
</g>
</g>
<!-- Node5&#45;&gt;Node6 -->
<g id="edge5" class="edge"><title>Node5&#45;&gt;Node6</title>
<path fill="none" stroke="midnightblue" d="M602.213,-83C613.064,-83 624.066,-83 634.49,-83"/>
<polygon fill="midnightblue" stroke="midnightblue" points="601.881,-79.5001 591.881,-83 601.881,-86.5001 601.881,-79.5001"/>
</g>
<!-- Node7&#45;&gt;Node5 -->
<g id="edge7" class="edge"><title>Node7&#45;&gt;Node5</title>
<path fill="none" stroke="midnightblue" d="M416.608,-71.9538C429.849,-73.3286 443.518,-74.7478 456.465,-76.092"/>
<polygon fill="midnightblue" stroke="midnightblue" points="416.893,-68.4647 406.585,-70.9132 416.17,-75.4273 416.893,-68.4647"/>
</g>
<!-- Node9 -->
<g id="node9" class="node"><title>Node9</title>
<g id="a_node9"><a xlink:href="icoFoamModule_8C_ad3161c274f0cecf37126d9a51b82f9df.html#ad3161c274f0cecf37126d9a51b82f9df" target="_top" xlink:title="C/C++ bindings to unload IcoFoamModule. ">
<polygon fill="none" stroke="black" points="464,-0 464,-30 584,-30 584,-0 464,-0"/>
<text text-anchor="start" x="472" y="-18" font-family="Helvetica,sans-Serif" font-size="10.00">IcoFoamModule_unload</text>
<text text-anchor="middle" x="524" y="-7" font-family="Helvetica,sans-Serif" font-size="10.00">_module</text>
</a>
</g>
</g>
<!-- Node8&#45;&gt;Node9 -->
<g id="edge9" class="edge"><title>Node8&#45;&gt;Node9</title>
<path fill="none" stroke="midnightblue" d="M423.892,-15C437.378,-15 451.087,-15 463.834,-15"/>
<polygon fill="midnightblue" stroke="midnightblue" points="423.642,-11.5001 413.642,-15 423.642,-18.5001 423.642,-11.5001"/>
</g>
</g>
</svg>
        <g id="navigator" transform="translate(0 0)" fill="#404254">
                <rect fill="#f2f5e9" fill-opacity="0.5" stroke="#606060" stroke-width=".5" x="0" y="0" width="60" height="60"/>
                <use id="zoomplus" xlink:href="#zoomPlus" x="17" y="9" onmousedown="handleZoom(evt,'in')"/>
                <use id="zoomminus" xlink:href="#zoomMin" x="42" y="9" onmousedown="handleZoom(evt,'out')"/>
                <use id="reset" xlink:href="#resetDef" x="30" y="36" onmousedown="handleReset()"/>
                <g id="arrowUp" xlink:href="#dirArrow" transform="translate(30 24)" onmousedown="handlePan(0,-1)">
                  <use xlink:href="#rim" fill="#404040">
                        <set attributeName="fill" to="#808080" begin="arrowUp.mouseover" end="arrowUp.mouseout"/>
                  </use>
                  <path fill="none" stroke="white" stroke-width="1.5" d="M0,-3.0v7 M-2.5,-0.5L0,-3.0L2.5,-0.5"/>
                </g>
                <g id="arrowRight" xlink:href="#dirArrow" transform="rotate(90) translate(36 -43)" onmousedown="handlePan(1,0)">
                  <use xlink:href="#rim" fill="#404040">
                        <set attributeName="fill" to="#808080" begin="arrowRight.mouseover" end="arrowRight.mouseout"/>
                  </use>
                  <path fill="none" stroke="white" stroke-width="1.5" d="M0,-3.0v7 M-2.5,-0.5L0,-3.0L2.5,-0.5"/>
                </g>
                <g id="arrowDown" xlink:href="#dirArrow" transform="rotate(180) translate(-30 -48)" onmousedown="handlePan(0,1)">
                  <use xlink:href="#rim" fill="#404040">
                        <set attributeName="fill" to="#808080" begin="arrowDown.mouseover" end="arrowDown.mouseout"/>
                  </use>
                  <path fill="none" stroke="white" stroke-width="1.5" d="M0,-3.0v7 M-2.5,-0.5L0,-3.0L2.5,-0.5"/>
                </g>
                <g id="arrowLeft" xlink:href="#dirArrow" transform="rotate(270) translate(-36 17)" onmousedown="handlePan(-1,0)">
                  <use xlink:href="#rim" fill="#404040">
                        <set attributeName="fill" to="#808080" begin="arrowLeft.mouseover" end="arrowLeft.mouseout"/>
                  </use>
                  <path fill="none" stroke="white" stroke-width="1.5" d="M0,-3.0v7 M-2.5,-0.5L0,-3.0L2.5,-0.5"/>
                </g>
        </g>
        <svg viewBox="0 0 15 15" width="100%" height="30px" preserveAspectRatio="xMaxYMin meet">
         <g id="arrow_out" transform="scale(0.3 0.3)">
          <a xlink:href="classCOM_1_1COM__base_ad19a2baf9f3506b153d077429ad0cf4c_ad19a2baf9f3506b153d077429ad0cf4c_icgraph_org.svg" target="_base">
           <rect id="button" ry="5" rx="5" y="6" x="6" height="38" width="38"
                fill="#f2f5e9" fill-opacity="0.5" stroke="#606060" stroke-width="1.0"/>
           <path id="arrow"
             d="M 11.500037,31.436501 C 11.940474,20.09759 22.043105,11.32322 32.158766,21.979434 L 37.068811,17.246167 C 37.068811,17.246167 37.088388,32 37.088388,32 L 22.160133,31.978069 C 22.160133,31.978069 26.997745,27.140456 26.997745,27.140456 C 18.528582,18.264221 13.291696,25.230495 11.500037,31.436501 z"
             style="fill:#404040;"/>
          </a>
         </g>
        </svg>
</svg>
