<?xml version="1.0" encoding="UTF-8" standalone="no"?>
<!DOCTYPE svg PUBLIC "-//W3C//DTD SVG 1.1//EN"
 "http://www.w3.org/Graphics/SVG/1.1/DTD/svg11.dtd">
<!-- Generated by graphviz version 2.30.1 (20150305.2338)
 -->
<!-- Title: Element_node_vectors_k&lt; Value &gt; Pages: 1 -->
<!--zoomable 546 -->
<svg id="main" version="1.1" xmlns="http://www.w3.org/2000/svg" xmlns:xlink="http://www.w3.org/1999/xlink" xml:space="preserve" onload="init(evt)">
<style type="text/css"><![CDATA[
.edge:hover path { stroke: red; }
.edge:hover polygon { stroke: red; fill: red; }
]]></style>
<script type="text/javascript"><![CDATA[
var edges = document.getElementsByTagName('g');
if (edges && edges.length) {
  for (var i=0;i<edges.length;i++) {
    if (edges[i].id.substr(0,4)=='edge') {
      edges[i].setAttribute('class','edge');
    }
  }
}
]]></script>
        <defs>
                <circle id="rim" cx="0" cy="0" r="7"/>
                <circle id="rim2" cx="0" cy="0" r="3.5"/>
                <g id="zoomPlus">
                        <use xlink:href="#rim" fill="#404040">
                                <set attributeName="fill" to="#808080" begin="zoomplus.mouseover" end="zoomplus.mouseout"/>
                        </use>
                        <path d="M-4,0h8M0,-4v8" fill="none" stroke="white" stroke-width="1.5" pointer-events="none"/>
                </g>
                <g id="zoomMin">
                        <use xlink:href="#rim" fill="#404040">
                                <set attributeName="fill" to="#808080" begin="zoomminus.mouseover" end="zoomminus.mouseout"/>
                        </use>
                        <path d="M-4,0h8" fill="none" stroke="white" stroke-width="1.5" pointer-events="none"/>
                </g>
                <g id="dirArrow">
                        <path fill="none" stroke="white" stroke-width="1.5" d="M0,-3.0v7 M-2.5,-0.5L0,-3.0L2.5,-0.5"/>
                </g>
               <g id="resetDef">
                       <use xlink:href="#rim2" fill="#404040">
                               <set attributeName="fill" to="#808080" begin="reset.mouseover" end="reset.mouseout"/>
                       </use>
               </g>
        </defs>

<script type="text/javascript">
var viewWidth = 1486;
var viewHeight = 546;
var sectionId = 'dynsection-1';
</script>
<script xlink:href="svgpan.js"/>
<svg id="graph" class="graph">
<g id="viewport">
<title>Element_node_vectors_k&lt; Value &gt;</title>
<!-- Node1 -->
<g id="node1" class="node"><title>Node1</title>
<polygon fill="#bfbfbf" stroke="black" points="642,-114.765 642,-144.765 758,-144.765 758,-114.765 642,-114.765"/>
<text text-anchor="start" x="650" y="-132.765" font-family="Helvetica,sans-Serif" font-size="10.00">Element_node_vectors</text>
<text text-anchor="middle" x="700" y="-121.765" font-family="Helvetica,sans-Serif" font-size="10.00">_k&lt; Value &gt;</text>
</g>
<!-- Node2 -->
<g id="node2" class="node"><title>Node2</title>
<g id="a_node2"><a xlink:href="classElement__node__vectors__k__const.html" target="_top" xlink:title="This is a helper class for accessing nodal data. ">
<polygon fill="none" stroke="black" points="442,-114.765 442,-144.765 558,-144.765 558,-114.765 442,-114.765"/>
<text text-anchor="start" x="450" y="-132.765" font-family="Helvetica,sans-Serif" font-size="10.00">Element_node_vectors</text>
<text text-anchor="middle" x="500" y="-121.765" font-family="Helvetica,sans-Serif" font-size="10.00">_k_const&lt; Value &gt;</text>
</a>
</g>
</g>
<!-- Node2&#45;&gt;Node1 -->
<g id="edge1" class="edge"><title>Node2&#45;&gt;Node1</title>
<path fill="none" stroke="midnightblue" d="M568.066,-129.765C591.986,-129.765 618.691,-129.765 641.713,-129.765"/>
<polygon fill="midnightblue" stroke="midnightblue" points="568.004,-126.265 558.004,-129.765 568.004,-133.265 568.004,-126.265"/>
</g>
<!-- Node3 -->
<g id="node3" class="node"><title>Node3</title>
<g id="a_node3"><a xlink:href="classDataItem.html" target="_top" xlink:title="A DataItem object is a data member of a window. ">
<polygon fill="none" stroke="black" points="271.5,-176.265 271.5,-195.265 328.5,-195.265 328.5,-176.265 271.5,-176.265"/>
<text text-anchor="middle" x="300" y="-183.265" font-family="Helvetica,sans-Serif" font-size="10.00">DataItem</text>
</a>
</g>
</g>
<!-- Node3&#45;&gt;Node2 -->
<g id="edge2" class="edge"><title>Node3&#45;&gt;Node2</title>
<path fill="none" stroke="#9a32cd" stroke-dasharray="5,2" d="M318.689,-169.529C327.944,-161.964 339.858,-153.588 352,-148.765 380.34,-137.508 413.941,-132.602 441.86,-130.579"/>
<polygon fill="#9a32cd" stroke="#9a32cd" points="316.316,-166.953 311.006,-176.122 320.874,-172.265 316.316,-166.953"/>
<text text-anchor="middle" x="388" y="-151.765" font-family="Helvetica,sans-Serif" font-size="10.00"> _attr</text>
</g>
<!-- Node6 -->
<g id="node6" class="node"><title>Node6</title>
<g id="a_node6"><a xlink:href="classConnectivity.html" target="_top" xlink:title="Encapsulates an element&#45;connectivity of a mesh. ">
<polygon fill="none" stroke="black" points="464.5,-202.265 464.5,-221.265 535.5,-221.265 535.5,-202.265 464.5,-202.265"/>
<text text-anchor="middle" x="500" y="-209.265" font-family="Helvetica,sans-Serif" font-size="10.00">Connectivity</text>
</a>
</g>
</g>
<!-- Node3&#45;&gt;Node6 -->
<g id="edge6" class="edge"><title>Node3&#45;&gt;Node6</title>
<path fill="none" stroke="darkgreen" d="M338.697,-190.715C374.927,-195.473 429.223,-202.602 464.384,-207.219"/>
<polygon fill="darkgreen" stroke="darkgreen" points="338.902,-187.212 328.531,-189.38 337.99,-194.152 338.902,-187.212"/>
</g>
<!-- Node9 -->
<g id="node9" class="node"><title>Node9</title>
<polygon fill="none" stroke="#bfbfbf" points="445.5,-287.265 445.5,-306.265 554.5,-306.265 554.5,-287.265 445.5,-287.265"/>
<text text-anchor="middle" x="500" y="-294.265" font-family="Helvetica,sans-Serif" font-size="10.00">vector&lt; DataItem * &gt;</text>
</g>
<!-- Node3&#45;&gt;Node9 -->
<g id="edge10" class="edge"><title>Node3&#45;&gt;Node9</title>
<path fill="none" stroke="#9a32cd" stroke-dasharray="5,2" d="M329.539,-199.997C336.785,-203.387 344.612,-206.861 352,-209.765 383.264,-222.054 398.935,-210.399 424,-232.765 438.546,-245.745 428.048,-259.149 442,-272.765 448.378,-278.989 456.612,-283.701 464.828,-287.225"/>
<polygon fill="#9a32cd" stroke="#9a32cd" points="330.645,-196.646 320.114,-195.486 327.623,-202.96 330.645,-196.646"/>
<text text-anchor="middle" x="388" y="-235.765" font-family="Helvetica,sans-Serif" font-size="10.00"> elements</text>
</g>
<!-- Node12 -->
<g id="node12" class="node"><title>Node12</title>
<g id="a_node12"><a xlink:href="classFunction.html" target="_top" xlink:title="A Function object corresponds to a function member of a window. ">
<polygon fill="none" stroke="black" points="673,-400.265 673,-419.265 727,-419.265 727,-400.265 673,-400.265"/>
<text text-anchor="middle" x="700" y="-407.265" font-family="Helvetica,sans-Serif" font-size="10.00">Function</text>
</a>
</g>
</g>
<!-- Node3&#45;&gt;Node12 -->
<g id="edge19" class="edge"><title>Node3&#45;&gt;Node12</title>
<path fill="none" stroke="#9a32cd" stroke-dasharray="5,2" d="M316.294,-203.258C348.19,-239.762 419.26,-321.225 424,-327.765 433.125,-340.355 429.3,-348.794 442,-357.765 479.181,-384.03 615.127,-400.994 672.824,-407.159"/>
<polygon fill="#9a32cd" stroke="#9a32cd" points="318.649,-200.633 309.432,-195.407 313.378,-205.24 318.649,-200.633"/>
<text text-anchor="middle" x="500" y="-394.765" font-family="Helvetica,sans-Serif" font-size="10.00"> _attr</text>
</g>
<!-- Node20 -->
<g id="node20" class="node"><title>Node20</title>
<polygon fill="none" stroke="#bfbfbf" points="916,-104.265 916,-123.265 1066,-123.265 1066,-104.265 916,-104.265"/>
<text text-anchor="middle" x="991" y="-111.265" font-family="Helvetica,sans-Serif" font-size="10.00">map&lt; std::string, DataItem * &gt;</text>
</g>
<!-- Node3&#45;&gt;Node20 -->
<g id="edge33" class="edge"><title>Node3&#45;&gt;Node20</title>
<path fill="none" stroke="#9a32cd" stroke-dasharray="5,2" d="M312.847,-167.692C322.072,-155.004 335.975,-138.607 352,-128.765 387.276,-107.1 400.953,-110.144 442,-104.765 610.17,-82.7273 809.831,-95.7421 915.597,-105.68"/>
<polygon fill="#9a32cd" stroke="#9a32cd" points="309.819,-165.917 306.994,-176.128 315.57,-169.907 309.819,-165.917"/>
<text text-anchor="middle" x="598" y="-97.7649" font-family="Helvetica,sans-Serif" font-size="10.00"> elements</text>
</g>
<!-- Node3&#45;&gt;Node3 -->
<g id="edge36" class="edge"><title>Node3&#45;&gt;Node3</title>
<path fill="none" stroke="#9a32cd" stroke-dasharray="5,2" d="M286.372,-205.531C287.443,-210.261 291.985,-213.765 300,-213.765 313.152,-213.765 316.954,-204.33 311.406,-195.522"/>
<polygon fill="#9a32cd" stroke="#9a32cd" points="289.844,-206.043 288.594,-195.522 283.01,-204.526 289.844,-206.043"/>
<text text-anchor="middle" x="300" y="-216.765" font-family="Helvetica,sans-Serif" font-size="10.00"> _parent</text>
</g>
<!-- Node4 -->
<g id="node4" class="node"><title>Node4</title>
<g id="a_node4"><a xlink:href="classPane.html" target="_top" xlink:title="A Pane object contains a mesh, pane dataitem, and field variables. ">
<polygon fill="none" stroke="black" points="971.5,-257.265 971.5,-276.265 1010.5,-276.265 1010.5,-257.265 971.5,-257.265"/>
<text text-anchor="middle" x="991" y="-264.265" font-family="Helvetica,sans-Serif" font-size="10.00">Pane</text>
</a>
</g>
</g>
<!-- Node4&#45;&gt;Node3 -->
<g id="edge3" class="edge"><title>Node4&#45;&gt;Node3</title>
<path fill="none" stroke="#9a32cd" stroke-dasharray="5,2" d="M962.634,-252.611C944.721,-243.994 920.54,-233.563 898,-227.765 693.285,-175.108 635.301,-194.495 424,-188.765 391.33,-187.879 353.776,-186.98 328.846,-186.401"/>
<polygon fill="#9a32cd" stroke="#9a32cd" points="961.373,-255.891 971.89,-257.17 964.466,-249.611 961.373,-255.891"/>
<text text-anchor="middle" x="598" y="-193.765" font-family="Helvetica,sans-Serif" font-size="10.00"> _pane</text>
</g>
<!-- Node19 -->
<g id="node19" class="node"><title>Node19</title>
<polygon fill="none" stroke="#bfbfbf" points="1182.5,-365.265 1182.5,-384.265 1281.5,-384.265 1281.5,-365.265 1182.5,-365.265"/>
<text text-anchor="middle" x="1232" y="-372.265" font-family="Helvetica,sans-Serif" font-size="10.00">map&lt; int, Pane * &gt;</text>
</g>
<!-- Node4&#45;&gt;Node19 -->
<g id="edge27" class="edge"><title>Node4&#45;&gt;Node19</title>
<path fill="none" stroke="#9a32cd" stroke-dasharray="5,2" d="M1020.02,-279.428C1068.48,-301.325 1166.86,-345.782 1209.97,-365.261"/>
<polygon fill="#9a32cd" stroke="#9a32cd" points="1021.31,-276.168 1010.75,-275.239 1018.43,-282.547 1021.31,-276.168"/>
<text text-anchor="middle" x="1124" y="-346.765" font-family="Helvetica,sans-Serif" font-size="10.00"> elements</text>
</g>
<!-- Node10 -->
<g id="node10" class="node"><title>Node10</title>
<g id="a_node10"><a xlink:href="classComponentInterface.html" target="_top" xlink:title="A ComponentInterface object contains multiple panes and multiple data dataitems. ">
<polygon fill="none" stroke="black" points="1372.5,-279.265 1372.5,-298.265 1477.5,-298.265 1477.5,-279.265 1372.5,-279.265"/>
<text text-anchor="middle" x="1425" y="-286.265" font-family="Helvetica,sans-Serif" font-size="10.00">ComponentInterface</text>
</a>
</g>
</g>
<!-- Node4&#45;&gt;Node10 -->
<g id="edge29" class="edge"><title>Node4&#45;&gt;Node10</title>
<path fill="none" stroke="#9a32cd" stroke-dasharray="5,2" d="M1020.91,-264.149C1073.16,-259.89 1186.75,-252.79 1282,-261.765 1317.1,-265.072 1356.45,-272.882 1384.8,-279.256"/>
<polygon fill="#9a32cd" stroke="#9a32cd" points="1020.39,-260.68 1010.72,-265.007 1020.97,-267.655 1020.39,-260.68"/>
<text text-anchor="middle" x="1232" y="-264.765" font-family="Helvetica,sans-Serif" font-size="10.00"> _dummy</text>
</g>
<!-- Node5 -->
<g id="node5" class="node"><title>Node5</title>
<polygon fill="none" stroke="#bfbfbf" points="638.5,-227.265 638.5,-246.265 761.5,-246.265 761.5,-227.265 638.5,-227.265"/>
<text text-anchor="middle" x="700" y="-234.265" font-family="Helvetica,sans-Serif" font-size="10.00">vector&lt; Connectivity * &gt;</text>
</g>
<!-- Node5&#45;&gt;Node4 -->
<g id="edge4" class="edge"><title>Node5&#45;&gt;Node4</title>
<path fill="none" stroke="#9a32cd" stroke-dasharray="5,2" d="M772.089,-232.012C809.731,-230.781 856.612,-231.289 898,-237.765 924.142,-241.856 953.06,-251.943 971.369,-259.068"/>
<polygon fill="#9a32cd" stroke="#9a32cd" points="771.59,-228.529 761.729,-232.402 771.853,-235.524 771.59,-228.529"/>
<text text-anchor="middle" x="839" y="-240.765" font-family="Helvetica,sans-Serif" font-size="10.00"> _cnct_set</text>
</g>
<!-- Node6&#45;&gt;Node5 -->
<g id="edge5" class="edge"><title>Node6&#45;&gt;Node5</title>
<path fill="none" stroke="#9a32cd" stroke-dasharray="5,2" d="M546.007,-217.448C573.352,-220.9 608.614,-225.353 638.392,-229.112"/>
<polygon fill="#9a32cd" stroke="#9a32cd" points="546.302,-213.957 535.943,-216.177 545.425,-220.902 546.302,-213.957"/>
<text text-anchor="middle" x="598" y="-229.765" font-family="Helvetica,sans-Serif" font-size="10.00"> elements</text>
</g>
<!-- Node7 -->
<g id="node7" class="node"><title>Node7</title>
<g id="a_node7"><a xlink:title="STL class. ">
<polygon fill="none" stroke="#bfbfbf" points="266,-395.265 266,-414.265 334,-414.265 334,-395.265 266,-395.265"/>
<text text-anchor="middle" x="300" y="-402.265" font-family="Helvetica,sans-Serif" font-size="10.00">vector&lt; T &gt;</text>
</a>
</g>
</g>
<!-- Node7&#45;&gt;Node5 -->
<g id="edge7" class="edge"><title>Node7&#45;&gt;Node5</title>
<path fill="none" stroke="orange" stroke-dasharray="5,2" d="M310.857,-385.667C320.02,-369.105 334.816,-345.133 352,-327.765 385.986,-293.415 396.707,-283.603 442,-266.765 476.842,-253.812 574.046,-245.068 638.417,-240.505"/>
<polygon fill="orange" stroke="orange" points="307.55,-384.428 305.909,-394.895 313.719,-387.736 307.55,-384.428"/>
<text text-anchor="middle" x="500" y="-269.765" font-family="Helvetica,sans-Serif" font-size="10.00"> &lt; Connectivity * &gt;</text>
</g>
<!-- Node7&#45;&gt;Node9 -->
<g id="edge11" class="edge"><title>Node7&#45;&gt;Node9</title>
<path fill="none" stroke="orange" stroke-dasharray="5,2" d="M323.94,-389.75C351.392,-372.102 399.045,-342.471 442,-320.765 452.35,-315.535 464.112,-310.446 474.252,-306.31"/>
<polygon fill="orange" stroke="orange" points="321.936,-386.878 315.44,-395.247 325.738,-392.755 321.936,-386.878"/>
<text text-anchor="middle" x="388" y="-374.765" font-family="Helvetica,sans-Serif" font-size="10.00"> &lt; DataItem * &gt;</text>
</g>
<!-- Node13 -->
<g id="node13" class="node"><title>Node13</title>
<polygon fill="none" stroke="#bfbfbf" points="444,-419.265 444,-438.265 556,-438.265 556,-419.265 444,-419.265"/>
<text text-anchor="middle" x="500" y="-426.265" font-family="Helvetica,sans-Serif" font-size="10.00">vector&lt; COM_Type &gt;</text>
</g>
<!-- Node7&#45;&gt;Node13 -->
<g id="edge16" class="edge"><title>Node7&#45;&gt;Node13</title>
<path fill="none" stroke="orange" stroke-dasharray="5,2" d="M344.423,-410.028C373.586,-413.563 412.266,-418.252 443.637,-422.054"/>
<polygon fill="orange" stroke="orange" points="344.489,-406.511 334.141,-408.782 343.647,-413.46 344.489,-406.511"/>
<text text-anchor="middle" x="388" y="-422.765" font-family="Helvetica,sans-Serif" font-size="10.00"> &lt; COM_Type &gt;</text>
</g>
<!-- Node8 -->
<g id="node8" class="node"><title>Node8</title>
<polygon fill="none" stroke="#bfbfbf" points="150.5,-473.265 150.5,-492.265 179.5,-492.265 179.5,-473.265 150.5,-473.265"/>
<text text-anchor="middle" x="165" y="-480.265" font-family="Helvetica,sans-Serif" font-size="10.00">T</text>
</g>
<!-- Node8&#45;&gt;Node7 -->
<g id="edge8" class="edge"><title>Node8&#45;&gt;Node7</title>
<path fill="none" stroke="#9a32cd" stroke-dasharray="5,2" d="M188.387,-469.636C215.061,-453.992 258.987,-428.231 282.662,-414.346"/>
<polygon fill="#9a32cd" stroke="#9a32cd" points="186.588,-466.633 179.732,-474.711 190.129,-472.672 186.588,-466.633"/>
<text text-anchor="middle" x="226" y="-461.765" font-family="Helvetica,sans-Serif" font-size="10.00"> elements</text>
</g>
<!-- Node16 -->
<g id="node16" class="node"><title>Node16</title>
<g id="a_node16"><a xlink:title="STL class. ">
<polygon fill="none" stroke="#bfbfbf" points="664,-442.265 664,-461.265 736,-461.265 736,-442.265 664,-442.265"/>
<text text-anchor="middle" x="700" y="-449.265" font-family="Helvetica,sans-Serif" font-size="10.00">map&lt; K, T &gt;</text>
</a>
</g>
</g>
<!-- Node8&#45;&gt;Node16 -->
<g id="edge23" class="edge"><title>Node8&#45;&gt;Node16</title>
<path fill="none" stroke="#9a32cd" stroke-dasharray="5,2" d="M189.357,-489.198C250.227,-505.1 418.681,-543.58 558,-523.765 586.407,-519.725 594.053,-518.014 620,-505.765 645.84,-493.566 672.619,-473.383 687.411,-461.451"/>
<polygon fill="#9a32cd" stroke="#9a32cd" points="190.149,-485.787 179.585,-486.595 188.348,-492.551 190.149,-485.787"/>
<text text-anchor="middle" x="388" y="-529.765" font-family="Helvetica,sans-Serif" font-size="10.00"> elements</text>
</g>
<!-- Node9&#45;&gt;Node4 -->
<g id="edge9" class="edge"><title>Node9&#45;&gt;Node4</title>
<path fill="none" stroke="#9a32cd" stroke-dasharray="5,2" d="M565.007,-297.197C643.631,-297.109 780.982,-294.946 898,-282.765 923.639,-280.096 952.919,-274.57 971.427,-270.766"/>
<polygon fill="#9a32cd" stroke="#9a32cd" points="564.78,-293.697 554.78,-297.197 564.78,-300.697 564.78,-293.697"/>
<text text-anchor="middle" x="700" y="-299.765" font-family="Helvetica,sans-Serif" font-size="10.00"> _attr_set</text>
</g>
<!-- Node10&#45;&gt;Node4 -->
<g id="edge12" class="edge"><title>Node10&#45;&gt;Node4</title>
<path fill="none" stroke="#9a32cd" stroke-dasharray="5,2" d="M1361.91,-285.603C1262,-280.515 1070.69,-270.772 1010.56,-267.71"/>
<polygon fill="#9a32cd" stroke="#9a32cd" points="1361.99,-289.112 1372.16,-286.125 1362.35,-282.121 1361.99,-289.112"/>
<text text-anchor="middle" x="1232" y="-284.765" font-family="Helvetica,sans-Serif" font-size="10.00"> _window</text>
</g>
<!-- Node11 -->
<g id="node11" class="node"><title>Node11</title>
<polygon fill="none" stroke="#bfbfbf" points="921,-349.265 921,-368.265 1061,-368.265 1061,-349.265 921,-349.265"/>
<text text-anchor="middle" x="991" y="-356.265" font-family="Helvetica,sans-Serif" font-size="10.00">map&lt; std::string, Function &gt;</text>
</g>
<!-- Node11&#45;&gt;Node10 -->
<g id="edge13" class="edge"><title>Node11&#45;&gt;Node10</title>
<path fill="none" stroke="#9a32cd" stroke-dasharray="5,2" d="M1060.71,-347.631C1147.36,-333.591 1294.39,-309.767 1372.17,-297.163"/>
<polygon fill="#9a32cd" stroke="#9a32cd" points="1060.02,-344.197 1050.71,-349.252 1061.14,-351.107 1060.02,-344.197"/>
<text text-anchor="middle" x="1232" y="-330.765" font-family="Helvetica,sans-Serif" font-size="10.00"> _func_map</text>
</g>
<!-- Node12&#45;&gt;Node11 -->
<g id="edge14" class="edge"><title>Node12&#45;&gt;Node11</title>
<path fill="none" stroke="#9a32cd" stroke-dasharray="5,2" d="M728.419,-395.834C743.299,-388.915 762.237,-381.123 780,-376.765 826.022,-365.473 879.22,-361 920.558,-359.335"/>
<polygon fill="#9a32cd" stroke="#9a32cd" points="726.788,-392.734 719.279,-400.209 729.81,-399.048 726.788,-392.734"/>
<text text-anchor="middle" x="839" y="-379.765" font-family="Helvetica,sans-Serif" font-size="10.00"> elements</text>
</g>
<!-- Node13&#45;&gt;Node12 -->
<g id="edge15" class="edge"><title>Node13&#45;&gt;Node12</title>
<path fill="none" stroke="#9a32cd" stroke-dasharray="5,2" d="M566.199,-422.508C602.531,-419.022 645.764,-414.873 672.801,-412.279"/>
<polygon fill="#9a32cd" stroke="#9a32cd" points="565.774,-419.033 556.154,-423.472 566.443,-426.001 565.774,-419.033"/>
<text text-anchor="middle" x="598" y="-424.765" font-family="Helvetica,sans-Serif" font-size="10.00"> _types</text>
</g>
<!-- Node14 -->
<g id="node14" class="node"><title>Node14</title>
<g id="a_node14"><a xlink:title="STL class. ">
<polygon fill="none" stroke="#bfbfbf" points="144.5,-176.265 144.5,-195.265 185.5,-195.265 185.5,-176.265 144.5,-176.265"/>
<text text-anchor="middle" x="165" y="-183.265" font-family="Helvetica,sans-Serif" font-size="10.00">string</text>
</a>
</g>
</g>
<!-- Node14&#45;&gt;Node12 -->
<g id="edge17" class="edge"><title>Node14&#45;&gt;Node12</title>
<path fill="none" stroke="#9a32cd" stroke-dasharray="5,2" d="M165.643,-205.384C165.085,-261.472 166.863,-420.539 204,-452.765 211.249,-459.055 133.348,-488.597 558,-447.765 585.857,-445.086 592.901,-443.755 620,-436.765 638.526,-431.986 658.951,-424.957 674.391,-419.269"/>
<polygon fill="#9a32cd" stroke="#9a32cd" points="169.144,-205.38 165.781,-195.333 162.144,-205.284 169.144,-205.38"/>
<text text-anchor="middle" x="388" y="-467.765" font-family="Helvetica,sans-Serif" font-size="10.00"> _intents</text>
</g>
<!-- Node14&#45;&gt;Node11 -->
<g id="edge20" class="edge"><title>Node14&#45;&gt;Node11</title>
<path fill="none" stroke="#9a32cd" stroke-dasharray="5,2" d="M172.134,-205.254C186.721,-247.301 227.69,-342.765 299,-342.765 299,-342.765 299,-342.765 701,-342.765 776.25,-342.765 862.353,-348.24 920.863,-352.784"/>
<polygon fill="#9a32cd" stroke="#9a32cd" points="175.397,-203.972 168.922,-195.586 168.754,-206.179 175.397,-203.972"/>
<text text-anchor="middle" x="500" y="-345.765" font-family="Helvetica,sans-Serif" font-size="10.00"> keys</text>
</g>
<!-- Node14&#45;&gt;Node10 -->
<g id="edge30" class="edge"><title>Node14&#45;&gt;Node10</title>
<path fill="none" stroke="#9a32cd" stroke-dasharray="5,2" d="M193.194,-171.472C228.785,-153.309 293.523,-122.119 352,-103.765 561.987,-37.856 617.912,-8.76492 838,-8.76492 838,-8.76492 838,-8.76492 1233,-8.76492 1366.87,-8.76492 1413.65,-229.891 1422.4,-279.127"/>
<polygon fill="#9a32cd" stroke="#9a32cd" points="191.246,-168.539 183.957,-176.228 194.45,-174.762 191.246,-168.539"/>
<text text-anchor="middle" x="700" y="-25.7649" font-family="Helvetica,sans-Serif" font-size="10.00"> _name</text>
</g>
<!-- Node14&#45;&gt;Node20 -->
<g id="edge32" class="edge"><title>Node14&#45;&gt;Node20</title>
<path fill="none" stroke="#9a32cd" stroke-dasharray="5,2" d="M168.01,-165.633C172.215,-128.134 183.307,-49.9215 204,-33.7649 323.194,59.2993 820.18,-67.305 955.724,-104.208"/>
<polygon fill="#9a32cd" stroke="#9a32cd" points="164.501,-165.535 166.924,-175.849 171.462,-166.276 164.501,-165.535"/>
<text text-anchor="middle" x="500" y="-20.7649" font-family="Helvetica,sans-Serif" font-size="10.00"> keys</text>
</g>
<!-- Node14&#45;&gt;Node3 -->
<g id="edge35" class="edge"><title>Node14&#45;&gt;Node3</title>
<path fill="none" stroke="#9a32cd" stroke-dasharray="5,2" d="M195.693,-185.765C218.346,-185.765 249.317,-185.765 271.427,-185.765"/>
<polygon fill="#9a32cd" stroke="#9a32cd" points="195.625,-182.265 185.625,-185.765 195.625,-189.265 195.625,-182.265"/>
<text text-anchor="middle" x="226" y="-199.765" font-family="Helvetica,sans-Serif" font-size="10.00"> _name</text>
<text text-anchor="middle" x="226" y="-188.765" font-family="Helvetica,sans-Serif" font-size="10.00">_unit</text>
</g>
<!-- Node15 -->
<g id="node15" class="node"><title>Node15</title>
<g id="a_node15"><a xlink:title="STL class. ">
<polygon fill="none" stroke="#bfbfbf" points="0,-176.265 0,-195.265 106,-195.265 106,-176.265 0,-176.265"/>
<text text-anchor="middle" x="53" y="-183.265" font-family="Helvetica,sans-Serif" font-size="10.00">basic_string&lt; char &gt;</text>
</a>
</g>
</g>
<!-- Node15&#45;&gt;Node14 -->
<g id="edge18" class="edge"><title>Node15&#45;&gt;Node14</title>
<path fill="none" stroke="midnightblue" d="M116.338,-185.765C126.515,-185.765 136.35,-185.765 144.416,-185.765"/>
<polygon fill="midnightblue" stroke="midnightblue" points="116.101,-182.265 106.101,-185.765 116.101,-189.265 116.101,-182.265"/>
</g>
<!-- Node16&#45;&gt;Node11 -->
<g id="edge21" class="edge"><title>Node16&#45;&gt;Node11</title>
<path fill="none" stroke="orange" stroke-dasharray="5,2" d="M743.333,-438.502C749.812,-435.716 756.249,-432.475 762,-428.765 771.507,-422.631 770.012,-416.079 780,-410.765 827.171,-385.668 846.216,-400.929 898,-387.765 919.912,-382.195 944.298,-374.435 962.455,-368.344"/>
<polygon fill="orange" stroke="orange" points="741.884,-435.312 733.886,-442.26 744.472,-441.816 741.884,-435.312"/>
<text text-anchor="middle" x="839" y="-413.765" font-family="Helvetica,sans-Serif" font-size="10.00"> &lt; std::string, Function &gt;</text>
</g>
<!-- Node18 -->
<g id="node18" class="node"><title>Node18</title>
<polygon fill="none" stroke="#bfbfbf" points="1084,-458.265 1084,-477.265 1164,-477.265 1164,-458.265 1084,-458.265"/>
<text text-anchor="middle" x="1124" y="-465.265" font-family="Helvetica,sans-Serif" font-size="10.00">map&lt; int, int &gt;</text>
</g>
<!-- Node16&#45;&gt;Node18 -->
<g id="edge25" class="edge"><title>Node16&#45;&gt;Node18</title>
<path fill="none" stroke="orange" stroke-dasharray="5,2" d="M746.419,-453.487C829.719,-456.645 1005.55,-463.312 1083.9,-466.282"/>
<polygon fill="orange" stroke="orange" points="746.379,-449.983 736.254,-453.102 746.114,-456.978 746.379,-449.983"/>
<text text-anchor="middle" x="839" y="-461.765" font-family="Helvetica,sans-Serif" font-size="10.00"> &lt; int, int &gt;</text>
</g>
<!-- Node16&#45;&gt;Node19 -->
<g id="edge28" class="edge"><title>Node16&#45;&gt;Node19</title>
<path fill="none" stroke="orange" stroke-dasharray="5,2" d="M746.168,-445.203C845.136,-430.824 1080.39,-396.645 1182.42,-381.823"/>
<polygon fill="orange" stroke="orange" points="745.578,-441.752 736.185,-446.653 746.585,-448.679 745.578,-441.752"/>
<text text-anchor="middle" x="991" y="-422.765" font-family="Helvetica,sans-Serif" font-size="10.00"> &lt; int, Pane * &gt;</text>
</g>
<!-- Node16&#45;&gt;Node20 -->
<g id="edge34" class="edge"><title>Node16&#45;&gt;Node20</title>
<path fill="none" stroke="orange" stroke-dasharray="5,2" d="M745.561,-441.067C751.757,-437.955 757.523,-433.941 762,-428.765 786.411,-400.546 760.596,-378.635 780,-346.765 815.453,-288.536 852.135,-299.202 898,-248.765 936.545,-206.378 971.542,-146.829 984.592,-123.593"/>
<polygon fill="orange" stroke="orange" points="744.112,-437.88 736.277,-445.012 746.849,-444.323 744.112,-437.88"/>
<text text-anchor="middle" x="839" y="-349.765" font-family="Helvetica,sans-Serif" font-size="10.00"> &lt; std::string, DataItem * &gt;</text>
</g>
<!-- Node17 -->
<g id="node17" class="node"><title>Node17</title>
<polygon fill="none" stroke="#bfbfbf" points="485.5,-495.265 485.5,-514.265 514.5,-514.265 514.5,-495.265 485.5,-495.265"/>
<text text-anchor="middle" x="500" y="-502.265" font-family="Helvetica,sans-Serif" font-size="10.00">K</text>
</g>
<!-- Node17&#45;&gt;Node16 -->
<g id="edge22" class="edge"><title>Node17&#45;&gt;Node16</title>
<path fill="none" stroke="#9a32cd" stroke-dasharray="5,2" d="M524.768,-501.072C548.972,-497.056 587.463,-489.96 620,-480.765 639.121,-475.361 660.222,-467.515 675.802,-461.345"/>
<polygon fill="#9a32cd" stroke="#9a32cd" points="524.037,-497.645 514.725,-502.697 525.156,-504.555 524.037,-497.645"/>
<text text-anchor="middle" x="598" y="-493.765" font-family="Helvetica,sans-Serif" font-size="10.00"> keys</text>
</g>
<!-- Node18&#45;&gt;Node10 -->
<g id="edge24" class="edge"><title>Node18&#45;&gt;Node10</title>
<path fill="none" stroke="#9a32cd" stroke-dasharray="5,2" d="M1174.09,-457.827C1223.32,-446.022 1299.44,-422.589 1354,-381.765 1385.39,-358.277 1409.4,-316.98 1419.19,-298.354"/>
<polygon fill="#9a32cd" stroke="#9a32cd" points="1173.26,-454.427 1164.32,-460.104 1174.85,-461.244 1173.26,-454.427"/>
<text text-anchor="middle" x="1232" y="-457.765" font-family="Helvetica,sans-Serif" font-size="10.00"> _proc_map</text>
</g>
<!-- Node19&#45;&gt;Node10 -->
<g id="edge26" class="edge"><title>Node19&#45;&gt;Node10</title>
<path fill="none" stroke="#9a32cd" stroke-dasharray="5,2" d="M1291.83,-368.806C1312.27,-365.152 1334.85,-359.261 1354,-349.765 1380,-336.876 1404.04,-311.955 1416.03,-298.294"/>
<polygon fill="#9a32cd" stroke="#9a32cd" points="1290.99,-365.398 1281.69,-370.473 1292.12,-372.306 1290.99,-365.398"/>
<text text-anchor="middle" x="1327" y="-369.765" font-family="Helvetica,sans-Serif" font-size="10.00"> _pane_map</text>
</g>
<!-- Node20&#45;&gt;Node10 -->
<g id="edge31" class="edge"><title>Node20&#45;&gt;Node10</title>
<path fill="none" stroke="#9a32cd" stroke-dasharray="5,2" d="M1024.81,-127.055C1108.42,-160.927 1328.01,-249.881 1400.45,-279.223"/>
<polygon fill="#9a32cd" stroke="#9a32cd" points="1026.12,-123.809 1015.53,-123.298 1023.49,-130.297 1026.12,-123.809"/>
<text text-anchor="middle" x="1232" y="-233.765" font-family="Helvetica,sans-Serif" font-size="10.00"> _attr_map</text>
</g>
</g>
</svg>
        <g id="navigator" transform="translate(0 0)" fill="#404254">
                <rect fill="#f2f5e9" fill-opacity="0.5" stroke="#606060" stroke-width=".5" x="0" y="0" width="60" height="60"/>
                <use id="zoomplus" xlink:href="#zoomPlus" x="17" y="9" onmousedown="handleZoom(evt,'in')"/>
                <use id="zoomminus" xlink:href="#zoomMin" x="42" y="9" onmousedown="handleZoom(evt,'out')"/>
                <use id="reset" xlink:href="#resetDef" x="30" y="36" onmousedown="handleReset()"/>
                <g id="arrowUp" xlink:href="#dirArrow" transform="translate(30 24)" onmousedown="handlePan(0,-1)">
                  <use xlink:href="#rim" fill="#404040">
                        <set attributeName="fill" to="#808080" begin="arrowUp.mouseover" end="arrowUp.mouseout"/>
                  </use>
                  <path fill="none" stroke="white" stroke-width="1.5" d="M0,-3.0v7 M-2.5,-0.5L0,-3.0L2.5,-0.5"/>
                </g>
                <g id="arrowRight" xlink:href="#dirArrow" transform="rotate(90) translate(36 -43)" onmousedown="handlePan(1,0)">
                  <use xlink:href="#rim" fill="#404040">
                        <set attributeName="fill" to="#808080" begin="arrowRight.mouseover" end="arrowRight.mouseout"/>
                  </use>
                  <path fill="none" stroke="white" stroke-width="1.5" d="M0,-3.0v7 M-2.5,-0.5L0,-3.0L2.5,-0.5"/>
                </g>
                <g id="arrowDown" xlink:href="#dirArrow" transform="rotate(180) translate(-30 -48)" onmousedown="handlePan(0,1)">
                  <use xlink:href="#rim" fill="#404040">
                        <set attributeName="fill" to="#808080" begin="arrowDown.mouseover" end="arrowDown.mouseout"/>
                  </use>
                  <path fill="none" stroke="white" stroke-width="1.5" d="M0,-3.0v7 M-2.5,-0.5L0,-3.0L2.5,-0.5"/>
                </g>
                <g id="arrowLeft" xlink:href="#dirArrow" transform="rotate(270) translate(-36 17)" onmousedown="handlePan(-1,0)">
                  <use xlink:href="#rim" fill="#404040">
                        <set attributeName="fill" to="#808080" begin="arrowLeft.mouseover" end="arrowLeft.mouseout"/>
                  </use>
                  <path fill="none" stroke="white" stroke-width="1.5" d="M0,-3.0v7 M-2.5,-0.5L0,-3.0L2.5,-0.5"/>
                </g>
        </g>
        <svg viewBox="0 0 15 15" width="100%" height="30px" preserveAspectRatio="xMaxYMin meet">
         <g id="arrow_out" transform="scale(0.3 0.3)">
          <a xlink:href="classElement__node__vectors__k__coll__graph_org.svg" target="_base">
           <rect id="button" ry="5" rx="5" y="6" x="6" height="38" width="38"
                fill="#f2f5e9" fill-opacity="0.5" stroke="#606060" stroke-width="1.0"/>
           <path id="arrow"
             d="M 11.500037,31.436501 C 11.940474,20.09759 22.043105,11.32322 32.158766,21.979434 L 37.068811,17.246167 C 37.068811,17.246167 37.088388,32 37.088388,32 L 22.160133,31.978069 C 22.160133,31.978069 26.997745,27.140456 26.997745,27.140456 C 18.528582,18.264221 13.291696,25.230495 11.500037,31.436501 z"
             style="fill:#404040;"/>
          </a>
         </g>
        </svg>
</svg>
