<?xml version="1.0" encoding="UTF-8" standalone="no"?>
<!DOCTYPE svg PUBLIC "-//W3C//DTD SVG 1.1//EN"
 "http://www.w3.org/Graphics/SVG/1.1/DTD/svg11.dtd">
<!-- Generated by graphviz version 2.30.1 (20150305.2338)
 -->
<!-- Title: Pane_communicator Pages: 1 -->
<svg width="666pt" height="294pt"
 viewBox="0.00 0.00 666.00 294.00" xmlns="http://www.w3.org/2000/svg" xmlns:xlink="http://www.w3.org/1999/xlink">
<g id="graph0" class="graph" transform="scale(1 1) rotate(0) translate(4 290)">
<title>Pane_communicator</title>
<!-- Node1 -->
<g id="node1" class="node"><title>Node1</title>
<polygon fill="#bfbfbf" stroke="black" points="552,-157.5 552,-176.5 658,-176.5 658,-157.5 552,-157.5"/>
<text text-anchor="middle" x="605" y="-164.5" font-family="Helvetica,sans-Serif" font-size="10.00">Pane_communicator</text>
</g>
<!-- Node2 -->
<g id="node2" class="node"><title>Node2</title>
<polygon fill="none" stroke="#bfbfbf" points="325,-263.5 325,-282.5 447,-282.5 447,-263.5 325,-263.5"/>
<text text-anchor="middle" x="386" y="-270.5" font-family="Helvetica,sans-Serif" font-size="10.00">vector&lt; MPI_Request &gt;</text>
</g>
<!-- Node2&#45;&gt;Node1 -->
<g id="edge1" class="edge"><title>Node2&#45;&gt;Node1</title>
<path fill="none" stroke="#9a32cd" stroke-dasharray="5,2" d="M457.166,-262.584C482.482,-256.873 510.568,-248.166 534,-235 560.883,-219.894 584.922,-191.898 596.573,-176.974"/>
<polygon fill="#9a32cd" stroke="#9a32cd" points="456.296,-259.19 447.248,-264.703 457.758,-266.036 456.296,-259.19"/>
<text text-anchor="middle" x="502" y="-273" font-family="Helvetica,sans-Serif" font-size="10.00"> _reqs_send</text>
<text text-anchor="middle" x="502" y="-262" font-family="Helvetica,sans-Serif" font-size="10.00">_reqs_recv</text>
</g>
<!-- Node3 -->
<g id="node3" class="node"><title>Node3</title>
<g id="a_node3"><a xlink:title="STL class. ">
<polygon fill="none" stroke="#bfbfbf" points="112,-143.5 112,-162.5 180,-162.5 180,-143.5 112,-143.5"/>
<text text-anchor="middle" x="146" y="-150.5" font-family="Helvetica,sans-Serif" font-size="10.00">vector&lt; T &gt;</text>
</a>
</g>
</g>
<!-- Node3&#45;&gt;Node2 -->
<g id="edge2" class="edge"><title>Node3&#45;&gt;Node2</title>
<path fill="none" stroke="orange" stroke-dasharray="5,2" d="M152.647,-172.172C159.95,-193.371 174.819,-226.793 200,-244 236.371,-268.853 286.069,-275.522 324.796,-276.293"/>
<polygon fill="orange" stroke="orange" points="155.967,-171.065 149.58,-162.612 149.302,-173.203 155.967,-171.065"/>
<text text-anchor="middle" x="251" y="-278" font-family="Helvetica,sans-Serif" font-size="10.00"> &lt; MPI_Request &gt;</text>
</g>
<!-- Node5 -->
<g id="node5" class="node"><title>Node5</title>
<polygon fill="none" stroke="#bfbfbf" points="343,-225.5 343,-244.5 429,-244.5 429,-225.5 343,-225.5"/>
<text text-anchor="middle" x="386" y="-232.5" font-family="Helvetica,sans-Serif" font-size="10.00">vector&lt; void * &gt;</text>
</g>
<!-- Node3&#45;&gt;Node5 -->
<g id="edge5" class="edge"><title>Node3&#45;&gt;Node5</title>
<path fill="none" stroke="orange" stroke-dasharray="5,2" d="M161.504,-170.323C171.289,-180.85 185.1,-193.639 200,-201 245.528,-223.491 304.004,-231.204 342.901,-233.793"/>
<polygon fill="orange" stroke="orange" points="164.113,-167.991 154.854,-162.842 158.881,-172.641 164.113,-167.991"/>
<text text-anchor="middle" x="251" y="-232" font-family="Helvetica,sans-Serif" font-size="10.00"> &lt; void * &gt;</text>
</g>
<!-- Node9 -->
<g id="node9" class="node"><title>Node9</title>
<polygon fill="none" stroke="#bfbfbf" points="326,-187.5 326,-206.5 446,-206.5 446,-187.5 326,-187.5"/>
<text text-anchor="middle" x="386" y="-194.5" font-family="Helvetica,sans-Serif" font-size="10.00">vector&lt; COM::Pane * &gt;</text>
</g>
<!-- Node3&#45;&gt;Node9 -->
<g id="edge11" class="edge"><title>Node3&#45;&gt;Node9</title>
<path fill="none" stroke="orange" stroke-dasharray="5,2" d="M188.09,-165.152C192.099,-166.18 196.118,-167.15 200,-168 241.761,-177.148 289.433,-184.55 325.924,-189.585"/>
<polygon fill="orange" stroke="orange" points="188.796,-161.718 178.231,-162.512 186.985,-168.48 188.796,-161.718"/>
<text text-anchor="middle" x="251" y="-189" font-family="Helvetica,sans-Serif" font-size="10.00"> &lt; COM::Pane * &gt;</text>
</g>
<!-- Node10 -->
<g id="node10" class="node"><title>Node10</title>
<polygon fill="none" stroke="#bfbfbf" points="339,-138 339,-168 433,-168 433,-138 339,-138"/>
<text text-anchor="start" x="347" y="-156" font-family="Helvetica,sans-Serif" font-size="10.00">vector&lt; std::pair&lt;</text>
<text text-anchor="middle" x="386" y="-145" font-family="Helvetica,sans-Serif" font-size="10.00"> int, int &gt; &gt;</text>
</g>
<!-- Node3&#45;&gt;Node10 -->
<g id="edge13" class="edge"><title>Node3&#45;&gt;Node10</title>
<path fill="none" stroke="orange" stroke-dasharray="5,2" d="M190.277,-153C232.256,-153 295.742,-153 338.714,-153"/>
<polygon fill="orange" stroke="orange" points="190.093,-149.5 180.093,-153 190.093,-156.5 190.093,-149.5"/>
<text text-anchor="middle" x="251" y="-156" font-family="Helvetica,sans-Serif" font-size="10.00"> &lt; std::pair&lt; int, int &gt; &gt;</text>
</g>
<!-- Node11 -->
<g id="node11" class="node"><title>Node11</title>
<polygon fill="none" stroke="#bfbfbf" points="350,-99.5 350,-118.5 422,-118.5 422,-99.5 350,-99.5"/>
<text text-anchor="middle" x="386" y="-106.5" font-family="Helvetica,sans-Serif" font-size="10.00">vector&lt; int &gt;</text>
</g>
<!-- Node3&#45;&gt;Node11 -->
<g id="edge15" class="edge"><title>Node3&#45;&gt;Node11</title>
<path fill="none" stroke="orange" stroke-dasharray="5,2" d="M188.09,-140.848C192.099,-139.82 196.118,-138.85 200,-138 251.764,-126.661 312.611,-118.004 349.988,-113.212"/>
<polygon fill="orange" stroke="orange" points="186.985,-137.52 178.231,-143.488 188.796,-144.282 186.985,-137.52"/>
<text text-anchor="middle" x="251" y="-141" font-family="Helvetica,sans-Serif" font-size="10.00"> &lt; int &gt;</text>
</g>
<!-- Node12 -->
<g id="node12" class="node"><title>Node12</title>
<polygon fill="none" stroke="#bfbfbf" points="320.5,-39.5 320.5,-80.5 451.5,-80.5 451.5,-39.5 320.5,-39.5"/>
<text text-anchor="start" x="328.5" y="-68.5" font-family="Helvetica,sans-Serif" font-size="10.00">vector&lt; std::vector</text>
<text text-anchor="start" x="328.5" y="-57.5" font-family="Helvetica,sans-Serif" font-size="10.00">&lt; Pane_communicator</text>
<text text-anchor="middle" x="386" y="-46.5" font-family="Helvetica,sans-Serif" font-size="10.00">::Pane_comm_buffers &gt; &gt;</text>
</g>
<!-- Node3&#45;&gt;Node12 -->
<g id="edge17" class="edge"><title>Node3&#45;&gt;Node12</title>
<path fill="none" stroke="orange" stroke-dasharray="5,2" d="M155.93,-134.405C164.75,-118.228 179.837,-95.6093 200,-84 236.207,-63.1535 282.9,-57.2222 320.317,-56.4678"/>
<polygon fill="orange" stroke="orange" points="152.72,-132.995 151.26,-143.489 158.945,-136.196 152.72,-132.995"/>
<text text-anchor="start" x="203" y="-109" font-family="Helvetica,sans-Serif" font-size="10.00"> &lt; std::vector&lt; Pane</text>
<text text-anchor="start" x="203" y="-98" font-family="Helvetica,sans-Serif" font-size="10.00">_communicator::Pane</text>
<text text-anchor="middle" x="251" y="-87" font-family="Helvetica,sans-Serif" font-size="10.00">_comm_buffers &gt; &gt;</text>
</g>
<!-- Node4 -->
<g id="node4" class="node"><title>Node4</title>
<polygon fill="none" stroke="#bfbfbf" points="0.5,-82.5 0.5,-101.5 29.5,-101.5 29.5,-82.5 0.5,-82.5"/>
<text text-anchor="middle" x="15" y="-89.5" font-family="Helvetica,sans-Serif" font-size="10.00">T</text>
</g>
<!-- Node4&#45;&gt;Node3 -->
<g id="edge3" class="edge"><title>Node4&#45;&gt;Node3</title>
<path fill="none" stroke="#9a32cd" stroke-dasharray="5,2" d="M38.9953,-102.874C63.29,-114.362 101.241,-132.308 124.533,-143.322"/>
<polygon fill="#9a32cd" stroke="#9a32cd" points="40.3417,-99.6389 29.8053,-98.5281 37.3493,-105.967 40.3417,-99.6389"/>
<text text-anchor="middle" x="70" y="-130" font-family="Helvetica,sans-Serif" font-size="10.00"> elements</text>
</g>
<!-- Node7 -->
<g id="node7" class="node"><title>Node7</title>
<g id="a_node7"><a xlink:title="STL class. ">
<polygon fill="none" stroke="#bfbfbf" points="110,-16.5 110,-35.5 182,-35.5 182,-16.5 110,-16.5"/>
<text text-anchor="middle" x="146" y="-23.5" font-family="Helvetica,sans-Serif" font-size="10.00">map&lt; K, T &gt;</text>
</a>
</g>
</g>
<!-- Node4&#45;&gt;Node7 -->
<g id="edge9" class="edge"><title>Node4&#45;&gt;Node7</title>
<path fill="none" stroke="#9a32cd" stroke-dasharray="5,2" d="M38.8936,-80.287C63.8148,-67.5366 103.192,-47.3899 126.32,-35.5573"/>
<polygon fill="#9a32cd" stroke="#9a32cd" points="37.1136,-77.2662 29.8053,-84.9368 40.3019,-83.4979 37.1136,-77.2662"/>
<text text-anchor="middle" x="70" y="-78" font-family="Helvetica,sans-Serif" font-size="10.00"> elements</text>
</g>
<!-- Node5&#45;&gt;Node1 -->
<g id="edge4" class="edge"><title>Node5&#45;&gt;Node1</title>
<path fill="none" stroke="#9a32cd" stroke-dasharray="5,2" d="M439.409,-226.44C467.865,-220.999 503.388,-212.906 534,-202 553.199,-195.16 573.932,-184.32 587.809,-176.515"/>
<polygon fill="#9a32cd" stroke="#9a32cd" points="438.459,-223.057 429.267,-228.325 439.738,-229.939 438.459,-223.057"/>
<text text-anchor="middle" x="502" y="-223" font-family="Helvetica,sans-Serif" font-size="10.00"> _ptrs</text>
</g>
<!-- Node6 -->
<g id="node6" class="node"><title>Node6</title>
<polygon fill="none" stroke="#bfbfbf" points="346,-0.5 346,-19.5 426,-19.5 426,-0.5 346,-0.5"/>
<text text-anchor="middle" x="386" y="-7.5" font-family="Helvetica,sans-Serif" font-size="10.00">map&lt; int, int &gt;</text>
</g>
<!-- Node6&#45;&gt;Node1 -->
<g id="edge6" class="edge"><title>Node6&#45;&gt;Node1</title>
<path fill="none" stroke="#9a32cd" stroke-dasharray="5,2" d="M436.259,-6.52934C466.987,-6.81926 505.895,-11.9144 534,-32 578.248,-63.6222 596.611,-131.768 602.096,-157.181"/>
<polygon fill="#9a32cd" stroke="#9a32cd" points="436.155,-3.02989 426.18,-6.60052 436.204,-10.0297 436.155,-3.02989"/>
<text text-anchor="middle" x="502" y="-35" font-family="Helvetica,sans-Serif" font-size="10.00"> _lpaneid_map</text>
</g>
<!-- Node7&#45;&gt;Node6 -->
<g id="edge7" class="edge"><title>Node7&#45;&gt;Node6</title>
<path fill="none" stroke="orange" stroke-dasharray="5,2" d="M192.332,-22.9525C236.71,-19.9691 303.62,-15.4709 345.774,-12.637"/>
<polygon fill="orange" stroke="orange" points="191.86,-19.4762 182.118,-23.6391 192.33,-26.4604 191.86,-19.4762"/>
<text text-anchor="middle" x="251" y="-26" font-family="Helvetica,sans-Serif" font-size="10.00"> &lt; int, int &gt;</text>
</g>
<!-- Node8 -->
<g id="node8" class="node"><title>Node8</title>
<polygon fill="none" stroke="#bfbfbf" points="0.5,-16.5 0.5,-35.5 29.5,-35.5 29.5,-16.5 0.5,-16.5"/>
<text text-anchor="middle" x="15" y="-23.5" font-family="Helvetica,sans-Serif" font-size="10.00">K</text>
</g>
<!-- Node8&#45;&gt;Node7 -->
<g id="edge8" class="edge"><title>Node8&#45;&gt;Node7</title>
<path fill="none" stroke="#9a32cd" stroke-dasharray="5,2" d="M40.042,-26C59.7155,-26 87.8116,-26 109.984,-26"/>
<polygon fill="#9a32cd" stroke="#9a32cd" points="39.8053,-22.5001 29.8053,-26 39.8052,-29.5001 39.8053,-22.5001"/>
<text text-anchor="middle" x="70" y="-29" font-family="Helvetica,sans-Serif" font-size="10.00"> keys</text>
</g>
<!-- Node9&#45;&gt;Node1 -->
<g id="edge10" class="edge"><title>Node9&#45;&gt;Node1</title>
<path fill="none" stroke="#9a32cd" stroke-dasharray="5,2" d="M456.036,-188.472C480.661,-185.326 508.589,-181.638 534,-178 539.724,-177.181 545.705,-176.291 551.657,-175.385"/>
<polygon fill="#9a32cd" stroke="#9a32cd" points="455.539,-185.007 446.061,-189.74 456.422,-191.951 455.539,-185.007"/>
<text text-anchor="middle" x="502" y="-190" font-family="Helvetica,sans-Serif" font-size="10.00"> _panes</text>
</g>
<!-- Node10&#45;&gt;Node1 -->
<g id="edge12" class="edge"><title>Node10&#45;&gt;Node1</title>
<path fill="none" stroke="#9a32cd" stroke-dasharray="5,2" d="M443.141,-156.622C476.728,-158.789 519.121,-161.524 551.954,-163.642"/>
<polygon fill="#9a32cd" stroke="#9a32cd" points="443.225,-153.12 433.02,-155.969 442.774,-160.106 443.225,-153.12"/>
<text text-anchor="middle" x="502" y="-166" font-family="Helvetica,sans-Serif" font-size="10.00"> _reqs_indices</text>
</g>
<!-- Node11&#45;&gt;Node1 -->
<g id="edge14" class="edge"><title>Node11&#45;&gt;Node1</title>
<path fill="none" stroke="#9a32cd" stroke-dasharray="5,2" d="M432.125,-112.941C461.62,-116.347 500.705,-122.445 534,-133 553.318,-139.124 574.03,-149.745 587.871,-157.49"/>
<polygon fill="#9a32cd" stroke="#9a32cd" points="432.439,-109.454 422.118,-111.845 431.678,-116.413 432.439,-109.454"/>
<text text-anchor="middle" x="502" y="-147" font-family="Helvetica,sans-Serif" font-size="10.00"> _sizes</text>
<text text-anchor="middle" x="502" y="-136" font-family="Helvetica,sans-Serif" font-size="10.00">_strds</text>
</g>
<!-- Node12&#45;&gt;Node1 -->
<g id="edge16" class="edge"><title>Node12&#45;&gt;Node1</title>
<path fill="none" stroke="#9a32cd" stroke-dasharray="5,2" d="M462.045,-46.35C486.254,-45.4172 512.393,-48.3155 534,-60 573.248,-81.2243 594.017,-135.082 601.13,-157.245"/>
<polygon fill="#9a32cd" stroke="#9a32cd" points="461.577,-42.8719 451.807,-46.9699 462,-49.8591 461.577,-42.8719"/>
<text text-anchor="middle" x="502" y="-107" font-family="Helvetica,sans-Serif" font-size="10.00"> _gcr_buffs</text>
<text text-anchor="middle" x="502" y="-96" font-family="Helvetica,sans-Serif" font-size="10.00">_gnr_buffs</text>
<text text-anchor="middle" x="502" y="-85" font-family="Helvetica,sans-Serif" font-size="10.00">_rcs_buffs</text>
<text text-anchor="middle" x="502" y="-74" font-family="Helvetica,sans-Serif" font-size="10.00">_rns_buffs</text>
<text text-anchor="middle" x="502" y="-63" font-family="Helvetica,sans-Serif" font-size="10.00">_shr_buffs</text>
</g>
</g>
</svg>
