<?xml version="1.0" encoding="UTF-8" standalone="no"?>
<!DOCTYPE svg PUBLIC "-//W3C//DTD SVG 1.1//EN"
 "http://www.w3.org/Graphics/SVG/1.1/DTD/svg11.dtd">
<!-- Generated by graphviz version 2.30.1 (20150305.2338)
 -->
<!-- Title: is_const Pages: 1 -->
<svg width="364pt" height="104pt"
 viewBox="0.00 0.00 364.00 104.00" xmlns="http://www.w3.org/2000/svg" xmlns:xlink="http://www.w3.org/1999/xlink">
<g id="graph0" class="graph" transform="scale(1 1) rotate(0) translate(4 100)">
<title>is_const</title>
<!-- Node1 -->
<g id="node1" class="node"><title>Node1</title>
<polygon fill="#bfbfbf" stroke="black" points="0.5,-38.5 0.5,-57.5 53.5,-57.5 53.5,-38.5 0.5,-38.5"/>
<text text-anchor="middle" x="27" y="-45.5" font-family="Helvetica,sans-Serif" font-size="10.00">is_const</text>
</g>
<!-- Node2 -->
<g id="node2" class="node"><title>Node2</title>
<g id="a_node2"><a xlink:href="classDataItem_a68673b8836e3cc1c92f7aeda375bfba6.html#a68673b8836e3cc1c92f7aeda375bfba6" target="_top" xlink:title="get_addr">
<polygon fill="none" stroke="black" points="120,-76.5 120,-95.5 174,-95.5 174,-76.5 120,-76.5"/>
<text text-anchor="middle" x="147" y="-83.5" font-family="Helvetica,sans-Serif" font-size="10.00">get_addr</text>
</a>
</g>
</g>
<!-- Node1&#45;&gt;Node2 -->
<g id="edge1" class="edge"><title>Node1&#45;&gt;Node2</title>
<path fill="none" stroke="midnightblue" d="M63.2328,-59.3462C81.3259,-65.1728 103,-72.1524 119.629,-77.5075"/>
<polygon fill="midnightblue" stroke="midnightblue" points="64.1957,-55.9793 53.6042,-56.2454 62.05,-62.6423 64.1957,-55.9793"/>
</g>
<!-- Node3 -->
<g id="node3" class="node"><title>Node3</title>
<g id="a_node3"><a xlink:href="classConnectivity_a7210396d362b0d7c5cbdc15bb18257d6.html#a7210396d362b0d7c5cbdc15bb18257d6" target="_top" xlink:title="Returns whether the array is set to be read&#45;only. ">
<polygon fill="none" stroke="black" points="90,-38.5 90,-57.5 204,-57.5 204,-38.5 90,-38.5"/>
<text text-anchor="middle" x="147" y="-45.5" font-family="Helvetica,sans-Serif" font-size="10.00">Connectivity::is_const</text>
</a>
</g>
</g>
<!-- Node1&#45;&gt;Node3 -->
<g id="edge2" class="edge"><title>Node1&#45;&gt;Node3</title>
<path fill="none" stroke="midnightblue" d="M63.6593,-48C71.9565,-48 80.9878,-48 89.9293,-48"/>
<polygon fill="midnightblue" stroke="midnightblue" points="63.6043,-44.5001 53.6042,-48 63.6042,-51.5001 63.6043,-44.5001"/>
</g>
<!-- Node5 -->
<g id="node5" class="node"><title>Node5</title>
<g id="a_node5"><a xlink:href="classDataItem_a502c0055eadcf46b017a54f54099c608.html#a502c0055eadcf46b017a54f54099c608" target="_top" xlink:title="Obtain a modifiable pointer to the physical address. ">
<polygon fill="none" stroke="black" points="124,-0.5 124,-19.5 170,-19.5 170,-0.5 124,-0.5"/>
<text text-anchor="middle" x="147" y="-7.5" font-family="Helvetica,sans-Serif" font-size="10.00">pointer</text>
</a>
</g>
</g>
<!-- Node1&#45;&gt;Node5 -->
<g id="edge4" class="edge"><title>Node1&#45;&gt;Node5</title>
<path fill="none" stroke="midnightblue" d="M63.1247,-36.6887C82.7275,-30.3759 106.56,-22.701 123.627,-17.2048"/>
<polygon fill="midnightblue" stroke="midnightblue" points="62.05,-33.3577 53.6042,-39.7546 64.1957,-40.0207 62.05,-33.3577"/>
</g>
<!-- Node4 -->
<g id="node4" class="node"><title>Node4</title>
<g id="a_node4"><a xlink:href="classConnectivity_a1fb42fb7af41084d48559f9982ff7127.html#a1fb42fb7af41084d48559f9982ff7127" target="_top" xlink:title="Connectivity::get_addr">
<polygon fill="none" stroke="black" points="240.5,-38.5 240.5,-57.5 355.5,-57.5 355.5,-38.5 240.5,-38.5"/>
<text text-anchor="middle" x="298" y="-45.5" font-family="Helvetica,sans-Serif" font-size="10.00">Connectivity::get_addr</text>
</a>
</g>
</g>
<!-- Node3&#45;&gt;Node4 -->
<g id="edge3" class="edge"><title>Node3&#45;&gt;Node4</title>
<path fill="none" stroke="midnightblue" d="M214.608,-48C223.115,-48 231.761,-48 240.095,-48"/>
<polygon fill="midnightblue" stroke="midnightblue" points="214.331,-44.5001 204.331,-48 214.33,-51.5001 214.331,-44.5001"/>
</g>
</g>
</svg>
