<?xml version="1.0" encoding="UTF-8" standalone="no"?>
<!DOCTYPE svg PUBLIC "-//W3C//DTD SVG 1.1//EN"
 "http://www.w3.org/Graphics/SVG/1.1/DTD/svg11.dtd">
<!-- Generated by graphviz version 2.26.0 (20091210.2329)
 -->
<!-- Title: VerbLevel Pages: 1 -->
<svg width="268pt" height="134pt"
 viewBox="0.00 0.00 268.00 134.00" xmlns="http://www.w3.org/2000/svg" xmlns:xlink="http://www.w3.org/1999/xlink">
<g id="graph1" class="graph" transform="scale(1 1) rotate(0) translate(4 130)">
<title>VerbLevel</title>
<!-- Node1 -->
<g id="node1" class="node"><title>Node1</title>
<polygon fill="#bfbfbf" stroke="black" points="0,-46.5 0,-67.5 60,-67.5 60,-46.5 0,-46.5"/>
<text text-anchor="middle" x="30" y="-54.5" font-family="Helvetica,sans-Serif" font-size="10.00">VerbLevel</text>
</g>
<!-- Node2 -->
<g id="node3" class="node"><title>Node2</title>
<a xlink:href="namespaceElmerFoamFSI_1_1ExampleProgram_a51e123c8b200fe0d466698ff7429bba6.html#a51e123c8b200fe0d466698ff7429bba6" target="_top" xlink:title="Unified driver for the example programs. ">
<polygon fill="none" stroke="black" points="96,-92 96,-126 260,-126 260,-92 96,-92"/>
<text text-anchor="start" x="104" y="-113" font-family="Helvetica,sans-Serif" font-size="10.00">ElmerFoamFSI::ExampleProgram</text>
<text text-anchor="middle" x="178" y="-100" font-family="Helvetica,sans-Serif" font-size="10.00">::Driver</text>
</a>
</g>
<!-- Node1&#45;&gt;Node2 -->
<g id="edge2" class="edge"><title>Node1&#45;&gt;Node2</title>
<path fill="none" stroke="midnightblue" d="M65.1124,-71.3456C75.0464,-75.2641 85.9031,-79.4152 96,-83 104.444,-85.9981 113.435,-89.019 122.251,-91.8874"/>
<polygon fill="midnightblue" stroke="midnightblue" points="66.1335,-67.9849 55.5482,-67.5343 63.5421,-74.4876 66.1335,-67.9849"/>
</g>
<!-- Node3 -->
<g id="node5" class="node"><title>Node3</title>
<a xlink:href="namespaceElmerModuleDriver_1_1ExampleProgram_a945c2d21d14578304f149399117a364c.html#a945c2d21d14578304f149399117a364c" target="_top" xlink:title="Unified driver for the example programs. ">
<polygon fill="none" stroke="black" points="116,-40 116,-74 240,-74 240,-40 116,-40"/>
<text text-anchor="start" x="124" y="-61" font-family="Helvetica,sans-Serif" font-size="10.00">ElmerModuleDriver::</text>
<text text-anchor="middle" x="178" y="-48" font-family="Helvetica,sans-Serif" font-size="10.00">ExampleProgram::Driver</text>
</a>
</g>
<!-- Node1&#45;&gt;Node3 -->
<g id="edge4" class="edge"><title>Node1&#45;&gt;Node3</title>
<path fill="none" stroke="midnightblue" d="M70.5835,-57C84.5967,-57 100.634,-57 115.967,-57"/>
<polygon fill="midnightblue" stroke="midnightblue" points="70.3072,-53.5001 60.3071,-57 70.3071,-60.5001 70.3072,-53.5001"/>
</g>
<!-- Node4 -->
<g id="node7" class="node"><title>Node4</title>
<a xlink:href="namespaceElmerFoamFSI_aff46f457934a8e2d3712bdbfb1688e99.html#aff46f457934a8e2d3712bdbfb1688e99" target="_top" xlink:title="Unified driver for the example programs. ">
<polygon fill="none" stroke="black" points="120.5,-0.5 120.5,-21.5 235.5,-21.5 235.5,-0.5 120.5,-0.5"/>
<text text-anchor="middle" x="178" y="-8.5" font-family="Helvetica,sans-Serif" font-size="10.00">ElmerFoamFSI::Driver</text>
</a>
</g>
<!-- Node1&#45;&gt;Node4 -->
<g id="edge6" class="edge"><title>Node1&#45;&gt;Node4</title>
<path fill="none" stroke="midnightblue" d="M63.8759,-42.6338C74.0964,-38.5777 85.4141,-34.3589 96,-31 106.894,-27.5432 118.762,-24.3362 129.999,-21.5477"/>
<polygon fill="midnightblue" stroke="midnightblue" points="62.4295,-39.4433 54.4729,-46.4393 65.0556,-45.9321 62.4295,-39.4433"/>
</g>
</g>
</svg>
