<?xml version="1.0" encoding="UTF-8" standalone="no"?>
<!DOCTYPE svg PUBLIC "-//W3C//DTD SVG 1.1//EN"
 "http://www.w3.org/Graphics/SVG/1.1/DTD/svg11.dtd">
<!-- Generated by graphviz version 2.26.0 (20091210.2329)
 -->
<!-- Title: couplingbase Pages: 1 -->
<svg width="902pt" height="175pt"
 viewBox="0.00 0.00 902.00 175.00" xmlns="http://www.w3.org/2000/svg" xmlns:xlink="http://www.w3.org/1999/xlink">
<g id="graph1" class="graph" transform="scale(1 1) rotate(0) translate(4 171)">
<title>couplingbase</title>
<!-- Node1 -->
<g id="node1" class="node"><title>Node1</title>
<polygon fill="#bfbfbf" stroke="black" points="820,-67.5 820,-88.5 894,-88.5 894,-67.5 820,-67.5"/>
<text text-anchor="middle" x="857" y="-75.5" font-family="Helvetica,sans-Serif" font-size="10.00">couplingbase</text>
</g>
<!-- Node2 -->
<g id="node2" class="node"><title>Node2</title>
<polygon fill="none" stroke="#bfbfbf" points="526,-125 526,-159 702,-159 702,-125 526,-125"/>
<text text-anchor="start" x="534" y="-146" font-family="Helvetica,sans-Serif" font-size="10.00">vector&lt; impact::orchestrator</text>
<text text-anchor="middle" x="614" y="-133" font-family="Helvetica,sans-Serif" font-size="10.00">::impact::orchestrator::agentbase * &gt;</text>
</g>
<!-- Node2&#45;&gt;Node1 -->
<g id="edge2" class="edge"><title>Node2&#45;&gt;Node1</title>
<path fill="none" stroke="#9a32cd" stroke-dasharray="5,2" d="M712.126,-127.712C741.452,-122.105 773.398,-114.648 802,-105 814.7,-100.716 828.222,-94.1084 838.68,-88.5023"/>
<polygon fill="#9a32cd" stroke="#9a32cd" points="711.48,-124.272 702.289,-129.544 712.761,-131.154 711.48,-124.272"/>
<text text-anchor="middle" x="761" y="-130" font-family="Helvetica,sans-Serif" font-size="10.00"> componentAgents</text>
</g>
<!-- Node3 -->
<g id="node4" class="node"><title>Node3</title>
<a xlink:title="STL class. ">
<polygon fill="none" stroke="#bfbfbf" points="297,-85.5 297,-106.5 365,-106.5 365,-85.5 297,-85.5"/>
<text text-anchor="middle" x="331" y="-93.5" font-family="Helvetica,sans-Serif" font-size="10.00">vector&lt; T &gt;</text>
</a>
</g>
<!-- Node3&#45;&gt;Node2 -->
<g id="edge4" class="edge"><title>Node3&#45;&gt;Node2</title>
<path fill="none" stroke="orange" stroke-dasharray="5,2" d="M375.033,-106.337C385.785,-108.691 397.28,-111.065 408,-113 446.474,-119.945 489.244,-126.201 525.798,-131.11"/>
<polygon fill="orange" stroke="orange" points="375.522,-102.86 365.001,-104.101 374,-109.693 375.522,-102.86"/>
<text text-anchor="start" x="408" y="-158" font-family="Helvetica,sans-Serif" font-size="10.00"> &lt; impact::orchestrator</text>
<text text-anchor="start" x="408" y="-145" font-family="Helvetica,sans-Serif" font-size="10.00">::impact::orchestrator</text>
<text text-anchor="middle" x="458" y="-132" font-family="Helvetica,sans-Serif" font-size="10.00">::agentbase * &gt;</text>
</g>
<!-- Node5 -->
<g id="node8" class="node"><title>Node5</title>
<polygon fill="none" stroke="#bfbfbf" points="578,-85.5 578,-106.5 650,-106.5 650,-85.5 578,-85.5"/>
<text text-anchor="middle" x="614" y="-93.5" font-family="Helvetica,sans-Serif" font-size="10.00">vector&lt; int &gt;</text>
</g>
<!-- Node3&#45;&gt;Node5 -->
<g id="edge10" class="edge"><title>Node3&#45;&gt;Node5</title>
<path fill="none" stroke="orange" stroke-dasharray="5,2" d="M375.44,-96C431.362,-96 526.32,-96 577.958,-96"/>
<polygon fill="orange" stroke="orange" points="375.136,-92.5001 365.136,-96 375.136,-99.5001 375.136,-92.5001"/>
<text text-anchor="middle" x="458" y="-100" font-family="Helvetica,sans-Serif" font-size="10.00"> &lt; int &gt;</text>
</g>
<!-- Node10 -->
<g id="node19" class="node"><title>Node10</title>
<polygon fill="none" stroke="#bfbfbf" points="569,-45.5 569,-66.5 659,-66.5 659,-45.5 569,-45.5"/>
<text text-anchor="middle" x="614" y="-53.5" font-family="Helvetica,sans-Serif" font-size="10.00">vector&lt; double &gt;</text>
</g>
<!-- Node3&#45;&gt;Node10 -->
<g id="edge22" class="edge"><title>Node3&#45;&gt;Node10</title>
<path fill="none" stroke="orange" stroke-dasharray="5,2" d="M375.302,-85.377C385.967,-83.0533 397.356,-80.7641 408,-79 463.028,-69.88 526.938,-63.3721 568.803,-59.6566"/>
<polygon fill="orange" stroke="orange" points="374.343,-82.0048 365.346,-87.5994 375.868,-88.8367 374.343,-82.0048"/>
<text text-anchor="middle" x="458" y="-83" font-family="Helvetica,sans-Serif" font-size="10.00"> &lt; double &gt;</text>
</g>
<!-- Node4 -->
<g id="node6" class="node"><title>Node4</title>
<polygon fill="none" stroke="#bfbfbf" points="128.5,-85.5 128.5,-106.5 157.5,-106.5 157.5,-85.5 128.5,-85.5"/>
<text text-anchor="middle" x="143" y="-93.5" font-family="Helvetica,sans-Serif" font-size="10.00">T</text>
</g>
<!-- Node4&#45;&gt;Node3 -->
<g id="edge6" class="edge"><title>Node4&#45;&gt;Node3</title>
<path fill="none" stroke="#9a32cd" stroke-dasharray="5,2" d="M167.939,-96C201.062,-96 259.705,-96 296.9,-96"/>
<polygon fill="#9a32cd" stroke="#9a32cd" points="167.752,-92.5001 157.752,-96 167.752,-99.5001 167.752,-92.5001"/>
<text text-anchor="middle" x="232" y="-100" font-family="Helvetica,sans-Serif" font-size="10.00"> elements</text>
</g>
<!-- Node5&#45;&gt;Node1 -->
<g id="edge8" class="edge"><title>Node5&#45;&gt;Node1</title>
<path fill="none" stroke="#9a32cd" stroke-dasharray="5,2" d="M660.198,-92.5779C706.551,-89.1443 777.046,-83.9225 819.886,-80.7492"/>
<polygon fill="#9a32cd" stroke="#9a32cd" points="659.831,-89.0954 650.117,-93.3247 660.348,-96.0763 659.831,-89.0954"/>
<text text-anchor="middle" x="761" y="-92" font-family="Helvetica,sans-Serif" font-size="10.00"> intNumbers</text>
</g>
<!-- Node6 -->
<g id="node11" class="node"><title>Node6</title>
<a xlink:title="STL class. ">
<polygon fill="none" stroke="#bfbfbf" points="588,-0.5 588,-21.5 640,-21.5 640,-0.5 588,-0.5"/>
<text text-anchor="middle" x="614" y="-8.5" font-family="Helvetica,sans-Serif" font-size="10.00">ostream</text>
</a>
</g>
<!-- Node6&#45;&gt;Node1 -->
<g id="edge12" class="edge"><title>Node6&#45;&gt;Node1</title>
<path fill="none" stroke="#9a32cd" stroke-dasharray="5,2" d="M650.376,-7.29576C689.556,-4.82014 752.877,-5.28107 802,-27 822.009,-35.8464 839.442,-55.0458 849.064,-67.2"/>
<polygon fill="#9a32cd" stroke="#9a32cd" points="649.957,-3.81701 640.238,-8.03662 650.467,-10.7984 649.957,-3.81701"/>
<text text-anchor="middle" x="761" y="-44" font-family="Helvetica,sans-Serif" font-size="10.00"> errStream</text>
<text text-anchor="middle" x="761" y="-31" font-family="Helvetica,sans-Serif" font-size="10.00">outStream</text>
</g>
<!-- Node7 -->
<g id="node13" class="node"><title>Node7</title>
<a xlink:title="STL class. ">
<polygon fill="none" stroke="#bfbfbf" points="272.5,-0.5 272.5,-21.5 389.5,-21.5 389.5,-0.5 272.5,-0.5"/>
<text text-anchor="middle" x="331" y="-8.5" font-family="Helvetica,sans-Serif" font-size="10.00">basic_ostream&lt; char &gt;</text>
</a>
</g>
<!-- Node7&#45;&gt;Node6 -->
<g id="edge14" class="edge"><title>Node7&#45;&gt;Node6</title>
<path fill="none" stroke="midnightblue" d="M399.895,-11C460.483,-11 545.429,-11 587.804,-11"/>
<polygon fill="midnightblue" stroke="midnightblue" points="399.638,-7.5001 389.638,-11 399.638,-14.5001 399.638,-7.5001"/>
</g>
<!-- Node8 -->
<g id="node15" class="node"><title>Node8</title>
<a xlink:title="STL class. ">
<polygon fill="none" stroke="#bfbfbf" points="94.5,-0.5 94.5,-21.5 191.5,-21.5 191.5,-0.5 94.5,-0.5"/>
<text text-anchor="middle" x="143" y="-8.5" font-family="Helvetica,sans-Serif" font-size="10.00">basic_ios&lt; Char &gt;</text>
</a>
</g>
<!-- Node8&#45;&gt;Node7 -->
<g id="edge16" class="edge"><title>Node8&#45;&gt;Node7</title>
<path fill="none" stroke="midnightblue" d="M201.964,-11C224.383,-11 249.904,-11 272.299,-11"/>
<polygon fill="midnightblue" stroke="midnightblue" points="201.904,-7.5001 191.904,-11 201.904,-14.5001 201.904,-7.5001"/>
</g>
<!-- Node9 -->
<g id="node17" class="node"><title>Node9</title>
<a xlink:title="STL class. ">
<polygon fill="none" stroke="#bfbfbf" points="0,-0.5 0,-21.5 56,-21.5 56,-0.5 0,-0.5"/>
<text text-anchor="middle" x="28" y="-8.5" font-family="Helvetica,sans-Serif" font-size="10.00">ios_base</text>
</a>
</g>
<!-- Node9&#45;&gt;Node8 -->
<g id="edge18" class="edge"><title>Node9&#45;&gt;Node8</title>
<path fill="none" stroke="midnightblue" d="M66.2248,-11C75.1476,-11 84.7708,-11 94.0863,-11"/>
<polygon fill="midnightblue" stroke="midnightblue" points="66.1322,-7.5001 56.1322,-11 66.1321,-14.5001 66.1322,-7.5001"/>
</g>
<!-- Node10&#45;&gt;Node1 -->
<g id="edge20" class="edge"><title>Node10&#45;&gt;Node1</title>
<path fill="none" stroke="#9a32cd" stroke-dasharray="5,2" d="M669.277,-55.9761C706.865,-56.6127 757.636,-58.7495 802,-65 807.829,-65.8213 813.948,-66.9718 819.899,-68.2519"/>
<polygon fill="#9a32cd" stroke="#9a32cd" points="669.088,-52.4732 659.041,-55.8341 668.991,-59.4725 669.088,-52.4732"/>
<text text-anchor="middle" x="761" y="-69" font-family="Helvetica,sans-Serif" font-size="10.00"> realNumbers</text>
</g>
</g>
</svg>
