<?xml version="1.0" encoding="UTF-8" standalone="no"?>
<!DOCTYPE svg PUBLIC "-//W3C//DTD SVG 1.1//EN"
 "http://www.w3.org/Graphics/SVG/1.1/DTD/svg11.dtd">
<!-- Generated by graphviz version 2.30.1 (20150305.2338)
 -->
<!-- Title: fsicoupling Pages: 1 -->
<svg width="166pt" height="84pt"
 viewBox="0.00 0.00 166.00 84.00" xmlns="http://www.w3.org/2000/svg" xmlns:xlink="http://www.w3.org/1999/xlink">
<g id="graph0" class="graph" transform="scale(1 1) rotate(0) translate(4 80)">
<title>fsicoupling</title>
<!-- Node1 -->
<g id="node1" class="node"><title>Node1</title>
<polygon fill="#bfbfbf" stroke="black" points="49.5,-0.5 49.5,-19.5 112.5,-19.5 112.5,-0.5 49.5,-0.5"/>
<text text-anchor="middle" x="81" y="-7.5" font-family="Helvetica,sans-Serif" font-size="10.00">fsicoupling</text>
</g>
<!-- Node2 -->
<g id="node2" class="node"><title>Node2</title>
<g id="a_node2"><a xlink:href="classimpact_1_1orchestrator_1_1couplingbase.html" target="_top" xlink:title="couplingbase">
<polygon fill="none" stroke="black" points="0,-56.5 0,-75.5 74,-75.5 74,-56.5 0,-56.5"/>
<text text-anchor="middle" x="37" y="-63.5" font-family="Helvetica,sans-Serif" font-size="10.00">couplingbase</text>
</a>
</g>
</g>
<!-- Node2&#45;&gt;Node1 -->
<g id="edge1" class="edge"><title>Node2&#45;&gt;Node1</title>
<path fill="none" stroke="midnightblue" d="M50.7345,-48.144C58.4005,-38.7357 67.6333,-27.4046 73.8695,-19.7511"/>
<polygon fill="midnightblue" stroke="midnightblue" points="47.8691,-46.1198 44.2657,-56.083 53.2958,-50.5415 47.8691,-46.1198"/>
</g>
<!-- Node3 -->
<g id="node3" class="node"><title>Node3</title>
<g id="a_node3"><a xlink:href="classIRAD_1_1Global_1_1GlobalObj.html" target="_top" xlink:title="Base global object. ">
<polygon fill="none" stroke="black" points="92,-56.5 92,-75.5 158,-75.5 158,-56.5 92,-56.5"/>
<text text-anchor="middle" x="125" y="-63.5" font-family="Helvetica,sans-Serif" font-size="10.00">GlobalType</text>
</a>
</g>
</g>
<!-- Node3&#45;&gt;Node1 -->
<g id="edge2" class="edge"><title>Node3&#45;&gt;Node1</title>
<path fill="none" stroke="midnightblue" d="M111.265,-48.144C103.599,-38.7357 94.3667,-27.4046 88.1305,-19.7511"/>
<polygon fill="midnightblue" stroke="midnightblue" points="108.704,-50.5415 117.734,-56.083 114.131,-46.1198 108.704,-50.5415"/>
</g>
</g>
</svg>
