<?xml version="1.0" encoding="UTF-8" standalone="no"?>
<!DOCTYPE svg PUBLIC "-//W3C//DTD SVG 1.1//EN"
 "http://www.w3.org/Graphics/SVG/1.1/DTD/svg11.dtd">
<!-- Generated by graphviz version 2.30.1 (20150305.2338)
 -->
<!-- Title: Set Pages: 1 -->
<svg width="268pt" height="123pt"
 viewBox="0.00 0.00 268.00 123.00" xmlns="http://www.w3.org/2000/svg" xmlns:xlink="http://www.w3.org/1999/xlink">
<g id="graph0" class="graph" transform="scale(1 1) rotate(0) translate(4 119)">
<title>Set</title>
<!-- Node1 -->
<g id="node1" class="node"><title>Node1</title>
<polygon fill="#bfbfbf" stroke="black" points="0,-57.5 0,-76.5 32,-76.5 32,-57.5 0,-57.5"/>
<text text-anchor="middle" x="16" y="-64.5" font-family="Helvetica,sans-Serif" font-size="10.00">Set</text>
</g>
<!-- Node2 -->
<g id="node2" class="node"><title>Node2</title>
<g id="a_node2"><a xlink:href="classIRAD_1_1Sys_1_1FDSetMan_acf1d003a601d4a82079adc38c1d7101a.html#acf1d003a601d4a82079adc38c1d7101a" target="_top" xlink:title="SetForIO">
<polygon fill="none" stroke="black" points="75,-95.5 75,-114.5 131,-114.5 131,-95.5 75,-95.5"/>
<text text-anchor="middle" x="103" y="-102.5" font-family="Helvetica,sans-Serif" font-size="10.00">SetForIO</text>
</a>
</g>
</g>
<!-- Node1&#45;&gt;Node2 -->
<g id="edge1" class="edge"><title>Node1&#45;&gt;Node2</title>
<path fill="none" stroke="midnightblue" d="M41.4604,-77.9352C53.8084,-83.4555 68.6511,-90.0911 80.5492,-95.4102"/>
<polygon fill="midnightblue" stroke="midnightblue" points="42.754,-74.6798 32.1963,-73.7936 39.8971,-81.0702 42.754,-74.6798"/>
</g>
<!-- Node3 -->
<g id="node3" class="node"><title>Node3</title>
<g id="a_node3"><a xlink:href="classIRAD_1_1Sys_1_1FDSetMan_a8ff1bc1d59900d8e9f50614cd586171d.html#a8ff1bc1d59900d8e9f50614cd586171d" target="_top" xlink:title="SetForRead">
<polygon fill="none" stroke="black" points="68.5,-57.5 68.5,-76.5 137.5,-76.5 137.5,-57.5 68.5,-57.5"/>
<text text-anchor="middle" x="103" y="-64.5" font-family="Helvetica,sans-Serif" font-size="10.00">SetForRead</text>
</a>
</g>
</g>
<!-- Node1&#45;&gt;Node3 -->
<g id="edge2" class="edge"><title>Node1&#45;&gt;Node3</title>
<path fill="none" stroke="midnightblue" d="M42.2126,-67C50.3802,-67 59.5745,-67 68.2589,-67"/>
<polygon fill="midnightblue" stroke="midnightblue" points="42.1963,-63.5001 32.1963,-67 42.1963,-70.5001 42.1963,-63.5001"/>
</g>
<!-- Node6 -->
<g id="node6" class="node"><title>Node6</title>
<g id="a_node6"><a xlink:href="classIRAD_1_1Sys_1_1FDSetMan_a6015264b4f6d57005a1a4b4fa917bac7.html#a6015264b4f6d57005a1a4b4fa917bac7" target="_top" xlink:title="SetForWrite">
<polygon fill="none" stroke="black" points="68.5,-19.5 68.5,-38.5 137.5,-38.5 137.5,-19.5 68.5,-19.5"/>
<text text-anchor="middle" x="103" y="-26.5" font-family="Helvetica,sans-Serif" font-size="10.00">SetForWrite</text>
</a>
</g>
</g>
<!-- Node1&#45;&gt;Node6 -->
<g id="edge5" class="edge"><title>Node1&#45;&gt;Node6</title>
<path fill="none" stroke="midnightblue" d="M41.4604,-56.0648C53.8084,-50.5445 68.6511,-43.9089 80.5492,-38.5898"/>
<polygon fill="midnightblue" stroke="midnightblue" points="39.8971,-52.9298 32.1963,-60.2064 42.754,-59.3202 39.8971,-52.9298"/>
</g>
<!-- Node4 -->
<g id="node4" class="node"><title>Node4</title>
<g id="a_node4"><a xlink:href="classIRAD_1_1Sys_1_1FDSetMan_ae8be13c2e52fd07dc30cb4434e9ad112.html#ae8be13c2e52fd07dc30cb4434e9ad112" target="_top" xlink:title="ListenForInput">
<polygon fill="none" stroke="black" points="177.5,-76.5 177.5,-95.5 256.5,-95.5 256.5,-76.5 177.5,-76.5"/>
<text text-anchor="middle" x="217" y="-83.5" font-family="Helvetica,sans-Serif" font-size="10.00">ListenForInput</text>
</a>
</g>
</g>
<!-- Node3&#45;&gt;Node4 -->
<g id="edge3" class="edge"><title>Node3&#45;&gt;Node4</title>
<path fill="none" stroke="midnightblue" d="M147.573,-74.3919C157.378,-76.0552 167.718,-77.8092 177.306,-79.4359"/>
<polygon fill="midnightblue" stroke="midnightblue" points="148.048,-70.9225 137.604,-72.7006 146.877,-77.8239 148.048,-70.9225"/>
</g>
<!-- Node5 -->
<g id="node5" class="node"><title>Node5</title>
<g id="a_node5"><a xlink:href="classIRAD_1_1Sys_1_1FDSetMan_a4a5f7af65acef0284da146c0fb0a5cc1.html#a4a5f7af65acef0284da146c0fb0a5cc1" target="_top" xlink:title="Select">
<polygon fill="none" stroke="black" points="195,-38.5 195,-57.5 239,-57.5 239,-38.5 195,-38.5"/>
<text text-anchor="middle" x="217" y="-45.5" font-family="Helvetica,sans-Serif" font-size="10.00">Select</text>
</a>
</g>
</g>
<!-- Node3&#45;&gt;Node5 -->
<g id="edge4" class="edge"><title>Node3&#45;&gt;Node5</title>
<path fill="none" stroke="midnightblue" d="M147.468,-59.626C163.702,-56.872 181.417,-53.8667 194.769,-51.6017"/>
<polygon fill="midnightblue" stroke="midnightblue" points="146.877,-56.1761 137.604,-61.2994 148.048,-63.0775 146.877,-56.1761"/>
</g>
<!-- Node7 -->
<g id="node7" class="node"><title>Node7</title>
<g id="a_node7"><a xlink:href="classIRAD_1_1Sys_1_1FDSetMan_a09e7b441bf87dcf52f15e99248682272.html#a09e7b441bf87dcf52f15e99248682272" target="_top" xlink:title="ListenForOutput">
<polygon fill="none" stroke="black" points="174,-0.5 174,-19.5 260,-19.5 260,-0.5 174,-0.5"/>
<text text-anchor="middle" x="217" y="-7.5" font-family="Helvetica,sans-Serif" font-size="10.00">ListenForOutput</text>
</a>
</g>
</g>
<!-- Node6&#45;&gt;Node7 -->
<g id="edge6" class="edge"><title>Node6&#45;&gt;Node7</title>
<path fill="none" stroke="midnightblue" d="M147.468,-21.626C156.079,-20.1652 165.106,-18.6338 173.678,-17.1797"/>
<polygon fill="midnightblue" stroke="midnightblue" points="146.877,-18.1761 137.604,-23.2994 148.048,-25.0775 146.877,-18.1761"/>
</g>
<!-- Node6&#45;&gt;Node5 -->
<g id="edge7" class="edge"><title>Node6&#45;&gt;Node5</title>
<path fill="none" stroke="midnightblue" d="M147.468,-36.374C163.702,-39.128 181.417,-42.1333 194.769,-44.3983"/>
<polygon fill="midnightblue" stroke="midnightblue" points="148.048,-32.9225 137.604,-34.7006 146.877,-39.8239 148.048,-32.9225"/>
</g>
</g>
</svg>
