<?xml version="1.0" encoding="UTF-8" standalone="no"?>
<!DOCTYPE svg PUBLIC "-//W3C//DTD SVG 1.1//EN"
 "http://www.w3.org/Graphics/SVG/1.1/DTD/svg11.dtd">
<!-- Generated by graphviz version 2.30.1 (20150305.2338)
 -->
<!-- Title: dataitem Pages: 1 -->
<svg width="204pt" height="77pt"
 viewBox="0.00 0.00 204.00 77.00" xmlns="http://www.w3.org/2000/svg" xmlns:xlink="http://www.w3.org/1999/xlink">
<g id="graph0" class="graph" transform="scale(1 1) rotate(0) translate(4 73)">
<title>dataitem</title>
<!-- Node1 -->
<g id="node1" class="node"><title>Node1</title>
<polygon fill="#bfbfbf" stroke="black" points="0,-27.5 0,-46.5 54,-46.5 54,-27.5 0,-27.5"/>
<text text-anchor="middle" x="27" y="-34.5" font-family="Helvetica,sans-Serif" font-size="10.00">dataitem</text>
</g>
<!-- Node2 -->
<g id="node2" class="node"><title>Node2</title>
<g id="a_node2"><a xlink:href="classPane_ad3039d3651529cfd236180d7cb13a035.html#ad3039d3651529cfd236180d7cb13a035" target="_top" xlink:title="Obtain the dataitem from given name. ">
<polygon fill="none" stroke="black" points="116,-49.5 116,-68.5 170,-68.5 170,-49.5 116,-49.5"/>
<text text-anchor="middle" x="143" y="-56.5" font-family="Helvetica,sans-Serif" font-size="10.00">dataitem</text>
</a>
</g>
</g>
<!-- Node1&#45;&gt;Node2 -->
<g id="edge1" class="edge"><title>Node1&#45;&gt;Node2</title>
<path fill="none" stroke="midnightblue" d="M64.2009,-43.9861C81.02,-47.2319 100.639,-51.0181 115.968,-53.9762"/>
<polygon fill="midnightblue" stroke="midnightblue" points="64.636,-40.5056 54.1539,-42.0472 63.3095,-47.3788 64.636,-40.5056"/>
</g>
<!-- Node3 -->
<g id="node3" class="node"><title>Node3</title>
<g id="a_node3"><a xlink:href="classComponentInterface_a96e2f47af46a78f4d424492e6e2b1507.html#a96e2f47af46a78f4d424492e6e2b1507" target="_top" xlink:title="Obtain a pointer to the dataitem metadata from its index. ">
<polygon fill="none" stroke="black" points="90.5,-0 90.5,-30 195.5,-30 195.5,-0 90.5,-0"/>
<text text-anchor="start" x="98.5" y="-18" font-family="Helvetica,sans-Serif" font-size="10.00">ComponentInterface</text>
<text text-anchor="middle" x="143" y="-7" font-family="Helvetica,sans-Serif" font-size="10.00">::dataitem</text>
</a>
</g>
</g>
<!-- Node1&#45;&gt;Node3 -->
<g id="edge2" class="edge"><title>Node1&#45;&gt;Node3</title>
<path fill="none" stroke="midnightblue" d="M64.2482,-30.0047C72.5556,-28.4015 81.5442,-26.6669 90.3602,-24.9656"/>
<polygon fill="midnightblue" stroke="midnightblue" points="63.3095,-26.6212 54.1539,-31.9528 64.636,-33.4944 63.3095,-26.6212"/>
</g>
</g>
</svg>
