<?xml version="1.0" encoding="UTF-8" standalone="no"?>
<!DOCTYPE svg PUBLIC "-//W3C//DTD SVG 1.1//EN"
 "http://www.w3.org/Graphics/SVG/1.1/DTD/svg11.dtd">
<!-- Generated by graphviz version 2.30.1 (20150305.2338)
 -->
<!-- Title: RunTest Pages: 1 -->
<svg width="380pt" height="391pt"
 viewBox="0.00 0.00 380.00 391.00" xmlns="http://www.w3.org/2000/svg" xmlns:xlink="http://www.w3.org/1999/xlink">
<g id="graph0" class="graph" transform="scale(1 1) rotate(0) translate(4 387)">
<title>RunTest</title>
<!-- Node1 -->
<g id="node1" class="node"><title>Node1</title>
<polygon fill="#bfbfbf" stroke="black" points="0,-243.5 0,-262.5 54,-262.5 54,-243.5 0,-243.5"/>
<text text-anchor="middle" x="27" y="-250.5" font-family="Helvetica,sans-Serif" font-size="10.00">RunTest</text>
</g>
<!-- Node2 -->
<g id="node2" class="node"><title>Node2</title>
<g id="a_node2"><a xlink:href="classElmerModuleDriver_1_1TestingObject_aa25f45634aafbb580d94840ad8452745.html#aa25f45634aafbb580d94840ad8452745" target="_top" xlink:title="Tears down the testing fixtures if needed. ">
<polygon fill="none" stroke="black" points="132,-363.5 132,-382.5 186,-382.5 186,-363.5 132,-363.5"/>
<text text-anchor="middle" x="159" y="-370.5" font-family="Helvetica,sans-Serif" font-size="10.00">Epilogue</text>
</a>
</g>
</g>
<!-- Node1&#45;&gt;Node2 -->
<g id="edge1" class="edge"><title>Node1&#45;&gt;Node2</title>
<path fill="none" stroke="midnightblue" d="M31.2057,-262.731C38.3706,-282.938 57.6434,-329.588 90,-354 99.2149,-360.952 110.852,-365.361 121.882,-368.156"/>
<polygon fill="midnightblue" stroke="midnightblue" points="121.24,-371.598 131.755,-370.297 122.723,-364.757 121.24,-371.598"/>
</g>
<!-- Node3 -->
<g id="node3" class="node"><title>Node3</title>
<g id="a_node3"><a xlink:href="classElmerModuleDriver_1_1TestingObject_aa3cdb6d60e9d9834c19efaab0b044421.html#aa3cdb6d60e9d9834c19efaab0b044421" target="_top" xlink:title="Sets up the data fixtures for the tests. ">
<polygon fill="none" stroke="black" points="131.5,-325.5 131.5,-344.5 186.5,-344.5 186.5,-325.5 131.5,-325.5"/>
<text text-anchor="middle" x="159" y="-332.5" font-family="Helvetica,sans-Serif" font-size="10.00">Prologue</text>
</a>
</g>
</g>
<!-- Node1&#45;&gt;Node3 -->
<g id="edge2" class="edge"><title>Node1&#45;&gt;Node3</title>
<path fill="none" stroke="midnightblue" d="M34.858,-262.65C45.2219,-276.521 66.2084,-301.966 90,-316 99.521,-321.616 110.772,-325.633 121.353,-328.481"/>
<polygon fill="midnightblue" stroke="midnightblue" points="120.672,-331.917 131.215,-330.867 122.318,-325.113 120.672,-331.917"/>
</g>
<!-- Node4 -->
<g id="node4" class="node"><title>Node4</title>
<g id="a_node4"><a xlink:href="classElmerModuleDriver_1_1TestingObject_ae4d44626a9c27ea8352a740ae562f97d.html#ae4d44626a9c27ea8352a740ae562f97d" target="_top" xlink:title="Test__ElasticBeam3D\l_LoadFunction">
<polygon fill="none" stroke="black" points="101.5,-238 101.5,-268 216.5,-268 216.5,-238 101.5,-238"/>
<text text-anchor="start" x="109.5" y="-256" font-family="Helvetica,sans-Serif" font-size="10.00">Test__ElasticBeam3D</text>
<text text-anchor="middle" x="159" y="-245" font-family="Helvetica,sans-Serif" font-size="10.00">_LoadFunction</text>
</a>
</g>
</g>
<!-- Node1&#45;&gt;Node4 -->
<g id="edge3" class="edge"><title>Node1&#45;&gt;Node4</title>
<path fill="none" stroke="midnightblue" d="M54.3074,-253C65.1267,-253 78.1948,-253 91.3528,-253"/>
<polygon fill="midnightblue" stroke="midnightblue" points="91.3967,-256.5 101.397,-253 91.3966,-249.5 91.3967,-256.5"/>
</g>
<!-- Node7 -->
<g id="node7" class="node"><title>Node7</title>
<g id="a_node7"><a xlink:href="classElmerModuleDriver_1_1TestingObject_ada2078f55b55b73d4aacf78d061a57de.html#ada2078f55b55b73d4aacf78d061a57de" target="_top" xlink:title="Test__ElmerUnitTests">
<polygon fill="none" stroke="black" points="101.5,-287.5 101.5,-306.5 216.5,-306.5 216.5,-287.5 101.5,-287.5"/>
<text text-anchor="middle" x="159" y="-294.5" font-family="Helvetica,sans-Serif" font-size="10.00">Test__ElmerUnitTests</text>
</a>
</g>
</g>
<!-- Node1&#45;&gt;Node7 -->
<g id="edge6" class="edge"><title>Node1&#45;&gt;Node7</title>
<path fill="none" stroke="midnightblue" d="M51.384,-262.582C62.9248,-267.175 77.1049,-272.616 90,-277 97.7032,-279.619 105.963,-282.219 113.979,-284.635"/>
<polygon fill="midnightblue" stroke="midnightblue" points="112.998,-287.995 123.58,-287.481 114.987,-281.284 112.998,-287.995"/>
</g>
<!-- Node8 -->
<g id="node8" class="node"><title>Node8</title>
<g id="a_node8"><a xlink:href="classElmerModuleDriver_1_1TestingObject_a14258b94075936cb7bfadbcfc9a37b87.html#a14258b94075936cb7bfadbcfc9a37b87" target="_top" xlink:title="Test for ElmerModuleDriver::ExampleFunction. ">
<polygon fill="none" stroke="black" points="98,-199.5 98,-218.5 220,-218.5 220,-199.5 98,-199.5"/>
<text text-anchor="middle" x="159" y="-206.5" font-family="Helvetica,sans-Serif" font-size="10.00">Test__ExampleFunction</text>
</a>
</g>
</g>
<!-- Node1&#45;&gt;Node8 -->
<g id="edge8" class="edge"><title>Node1&#45;&gt;Node8</title>
<path fill="none" stroke="midnightblue" d="M49.8719,-243.49C61.6444,-238.548 76.4851,-232.597 90,-228 96.8613,-225.666 104.18,-223.397 111.38,-221.287"/>
<polygon fill="midnightblue" stroke="midnightblue" points="112.416,-224.631 121.069,-218.517 110.492,-217.9 112.416,-224.631"/>
</g>
<!-- Node10 -->
<g id="node10" class="node"><title>Node10</title>
<g id="a_node10"><a xlink:href="classElmerModuleDriver_1_1TestingObject_a7de28a366b07117111ce7c1e9515a434.html#a7de28a366b07117111ce7c1e9515a434" target="_top" xlink:title="Test for ElmerModuleDriver::MidPointQuadrature. ">
<polygon fill="none" stroke="black" points="92.5,-59.5 92.5,-78.5 225.5,-78.5 225.5,-59.5 92.5,-59.5"/>
<text text-anchor="middle" x="159" y="-66.5" font-family="Helvetica,sans-Serif" font-size="10.00">Test__MidPointQuadrature</text>
</a>
</g>
</g>
<!-- Node1&#45;&gt;Node10 -->
<g id="edge10" class="edge"><title>Node1&#45;&gt;Node10</title>
<path fill="none" stroke="midnightblue" d="M30.5947,-243.236C37.241,-219.629 56.7359,-158.431 90,-118 101.376,-104.173 117.526,-92.318 131.232,-83.7333"/>
<polygon fill="midnightblue" stroke="midnightblue" points="133.044,-86.7279 139.812,-78.5764 129.438,-80.7283 133.044,-86.7279"/>
</g>
<!-- Node14 -->
<g id="node14" class="node"><title>Node14</title>
<g id="a_node14"><a xlink:href="classElmerModuleDriver_1_1TestingObject_a7928083cb5586c2b361e1d29a8dc2b54.html#a7928083cb5586c2b361e1d29a8dc2b54" target="_top" xlink:title="Test for ElmerModuleDriver::TrapezoidQuadrature. ">
<polygon fill="none" stroke="black" points="90.5,-127.5 90.5,-146.5 227.5,-146.5 227.5,-127.5 90.5,-127.5"/>
<text text-anchor="middle" x="159" y="-134.5" font-family="Helvetica,sans-Serif" font-size="10.00">Test__TrapezoidQuadrature</text>
</a>
</g>
</g>
<!-- Node1&#45;&gt;Node14 -->
<g id="edge14" class="edge"><title>Node1&#45;&gt;Node14</title>
<path fill="none" stroke="midnightblue" d="M36.8717,-243.216C48.585,-230.483 70.0623,-207.761 90,-190 104.852,-176.769 122.609,-162.993 136.252,-152.803"/>
<polygon fill="midnightblue" stroke="midnightblue" points="138.592,-155.425 144.552,-146.666 134.43,-149.797 138.592,-155.425"/>
</g>
<!-- Node5 -->
<g id="node5" class="node"><title>Node5</title>
<g id="a_node5"><a xlink:href="classElmerModuleDriver_1_1TestingObject_a90864b099beaf9044bf8fff8a9857c0d.html#a90864b099beaf9044bf8fff8a9857c0d" target="_top" xlink:title="Function to copy input data from source testing directory for use in unit tests. ">
<polygon fill="none" stroke="black" points="280.5,-284.5 280.5,-303.5 355.5,-303.5 355.5,-284.5 280.5,-284.5"/>
<text text-anchor="middle" x="318" y="-291.5" font-family="Helvetica,sans-Serif" font-size="10.00">GetInputData</text>
</a>
</g>
</g>
<!-- Node4&#45;&gt;Node5 -->
<g id="edge4" class="edge"><title>Node4&#45;&gt;Node5</title>
<path fill="none" stroke="midnightblue" d="M216.681,-267.802C234.283,-272.399 253.475,-277.411 270.316,-281.809"/>
<polygon fill="midnightblue" stroke="midnightblue" points="269.903,-285.318 280.463,-284.458 271.672,-278.545 269.903,-285.318"/>
</g>
<!-- Node6 -->
<g id="node6" class="node"><title>Node6</title>
<g id="a_node6"><a xlink:href="classElmerModuleDriver_1_1TestingObject_a49a87f521aad787421e458e8d303c612.html#a49a87f521aad787421e458e8d303c612" target="_top" xlink:title="Function to compare two files. ">
<polygon fill="none" stroke="black" points="288,-245.5 288,-264.5 348,-264.5 348,-245.5 288,-245.5"/>
<text text-anchor="middle" x="318" y="-252.5" font-family="Helvetica,sans-Serif" font-size="10.00">streamdiff</text>
</a>
</g>
</g>
<!-- Node4&#45;&gt;Node6 -->
<g id="edge5" class="edge"><title>Node4&#45;&gt;Node6</title>
<path fill="none" stroke="midnightblue" d="M216.681,-253.722C236.893,-253.98 259.201,-254.264 277.638,-254.499"/>
<polygon fill="midnightblue" stroke="midnightblue" points="277.679,-257.999 287.723,-254.627 277.768,-251 277.679,-257.999"/>
</g>
<!-- Node7&#45;&gt;Node5 -->
<g id="edge7" class="edge"><title>Node7&#45;&gt;Node5</title>
<path fill="none" stroke="midnightblue" d="M216.681,-295.917C234.283,-295.581 253.475,-295.214 270.316,-294.892"/>
<polygon fill="midnightblue" stroke="midnightblue" points="270.532,-298.389 280.463,-294.698 270.398,-291.39 270.532,-298.389"/>
</g>
<!-- Node9 -->
<g id="node9" class="node"><title>Node9</title>
<g id="a_node9"><a xlink:href="namespaceElmerModuleDriver_a4cc78661909b0a33b6b886a4d4290997.html#a4cc78661909b0a33b6b886a4d4290997" target="_top" xlink:title="Example function for ElmerModuleDriver (this is a brief description). ">
<polygon fill="none" stroke="black" points="265,-196 265,-226 371,-226 371,-196 265,-196"/>
<text text-anchor="start" x="273" y="-214" font-family="Helvetica,sans-Serif" font-size="10.00">ElmerModuleDriver::</text>
<text text-anchor="middle" x="318" y="-203" font-family="Helvetica,sans-Serif" font-size="10.00">ExampleFunction</text>
</a>
</g>
</g>
<!-- Node8&#45;&gt;Node9 -->
<g id="edge9" class="edge"><title>Node8&#45;&gt;Node9</title>
<path fill="none" stroke="midnightblue" d="M220.251,-209.768C231.506,-209.911 243.291,-210.061 254.61,-210.205"/>
<polygon fill="midnightblue" stroke="midnightblue" points="254.8,-213.708 264.844,-210.336 254.889,-206.708 254.8,-213.708"/>
</g>
<!-- Node11 -->
<g id="node11" class="node"><title>Node11</title>
<g id="a_node11"><a xlink:href="namespaceElmerModuleDriver_1_1TestFixture_a2b09de3be217e128933f09f43f9d7160.html#a2b09de3be217e128933f09f43f9d7160" target="_top" xlink:title="Simple test function fixture returns . ">
<polygon fill="none" stroke="black" points="265,-49 265,-79 371,-79 371,-49 265,-49"/>
<text text-anchor="start" x="273" y="-67" font-family="Helvetica,sans-Serif" font-size="10.00">ElmerModuleDriver::</text>
<text text-anchor="middle" x="318" y="-56" font-family="Helvetica,sans-Serif" font-size="10.00">TestFixture::F1</text>
</a>
</g>
</g>
<!-- Node10&#45;&gt;Node11 -->
<g id="edge11" class="edge"><title>Node10&#45;&gt;Node11</title>
<path fill="none" stroke="midnightblue" d="M225.672,-66.9085C235.299,-66.6019 245.19,-66.287 254.745,-65.9826"/>
<polygon fill="midnightblue" stroke="midnightblue" points="255.069,-69.4742 264.953,-65.6575 254.847,-62.4777 255.069,-69.4742"/>
</g>
<!-- Node12 -->
<g id="node12" class="node"><title>Node12</title>
<g id="a_node12"><a xlink:href="namespaceElmerModuleDriver_1_1TestFixture_a79ce78283ad52a81c4107d6cdeb9337c.html#a79ce78283ad52a81c4107d6cdeb9337c" target="_top" xlink:title="Simple test function fixture returns . ">
<polygon fill="none" stroke="black" points="265,-98 265,-128 371,-128 371,-98 265,-98"/>
<text text-anchor="start" x="273" y="-116" font-family="Helvetica,sans-Serif" font-size="10.00">ElmerModuleDriver::</text>
<text text-anchor="middle" x="318" y="-105" font-family="Helvetica,sans-Serif" font-size="10.00">TestFixture::F2</text>
</a>
</g>
</g>
<!-- Node10&#45;&gt;Node12 -->
<g id="edge12" class="edge"><title>Node10&#45;&gt;Node12</title>
<path fill="none" stroke="midnightblue" d="M194.067,-78.5473C211.896,-83.544 234.284,-89.8184 255.053,-95.639"/>
<polygon fill="midnightblue" stroke="midnightblue" points="254.201,-99.0349 264.774,-98.3634 256.09,-92.2946 254.201,-99.0349"/>
</g>
<!-- Node13 -->
<g id="node13" class="node"><title>Node13</title>
<g id="a_node13"><a xlink:href="namespaceElmerModuleDriver_a94390a668cbb6637ea246c660d00d430.html#a94390a668cbb6637ea246c660d00d430" target="_top" xlink:title="Integrates f with composite midpoint rule. ">
<polygon fill="none" stroke="black" points="265,-0 265,-30 371,-30 371,-0 265,-0"/>
<text text-anchor="start" x="273" y="-18" font-family="Helvetica,sans-Serif" font-size="10.00">ElmerModuleDriver::</text>
<text text-anchor="middle" x="318" y="-7" font-family="Helvetica,sans-Serif" font-size="10.00">MidPointQuadrature</text>
</a>
</g>
</g>
<!-- Node10&#45;&gt;Node13 -->
<g id="edge13" class="edge"><title>Node10&#45;&gt;Node13</title>
<path fill="none" stroke="midnightblue" d="M187.707,-59.4702C208.705,-52.2481 238.199,-42.1034 263.717,-33.3267"/>
<polygon fill="midnightblue" stroke="midnightblue" points="264.958,-36.6012 273.276,-30.0389 262.681,-29.9818 264.958,-36.6012"/>
</g>
<!-- Node14&#45;&gt;Node11 -->
<g id="edge15" class="edge"><title>Node14&#45;&gt;Node11</title>
<path fill="none" stroke="midnightblue" d="M180.284,-127.332C201.214,-117.383 234.828,-101.476 264,-88 267.361,-86.4472 270.847,-84.8471 274.352,-83.2449"/>
<polygon fill="midnightblue" stroke="midnightblue" points="275.954,-86.3611 283.603,-79.0305 273.052,-79.9908 275.954,-86.3611"/>
</g>
<!-- Node14&#45;&gt;Node12 -->
<g id="edge16" class="edge"><title>Node14&#45;&gt;Node12</title>
<path fill="none" stroke="midnightblue" d="M222.502,-127.446C233.129,-125.821 244.165,-124.134 254.785,-122.51"/>
<polygon fill="midnightblue" stroke="midnightblue" points="255.457,-125.949 264.813,-120.978 254.399,-119.029 255.457,-125.949"/>
</g>
<!-- Node15 -->
<g id="node15" class="node"><title>Node15</title>
<g id="a_node15"><a xlink:href="namespaceElmerModuleDriver_a7ea1066c129172a0edf5647d8254e957.html#a7ea1066c129172a0edf5647d8254e957" target="_top" xlink:title="Integrates f with composite trapezoid rule. ">
<polygon fill="none" stroke="black" points="264.5,-147 264.5,-177 371.5,-177 371.5,-147 264.5,-147"/>
<text text-anchor="start" x="272.5" y="-165" font-family="Helvetica,sans-Serif" font-size="10.00">ElmerModuleDriver::</text>
<text text-anchor="middle" x="318" y="-154" font-family="Helvetica,sans-Serif" font-size="10.00">TrapezoidQuadrature</text>
</a>
</g>
</g>
<!-- Node14&#45;&gt;Node15 -->
<g id="edge17" class="edge"><title>Node14&#45;&gt;Node15</title>
<path fill="none" stroke="midnightblue" d="M219.803,-146.523C231.13,-148.326 243.008,-150.218 254.418,-152.035"/>
<polygon fill="midnightblue" stroke="midnightblue" points="253.873,-155.492 264.299,-153.608 254.974,-148.579 253.873,-155.492"/>
</g>
</g>
</svg>
