<?xml version="1.0" encoding="UTF-8" standalone="no"?>
<!DOCTYPE svg PUBLIC "-//W3C//DTD SVG 1.1//EN"
 "http://www.w3.org/Graphics/SVG/1.1/DTD/svg11.dtd">
<!-- Generated by graphviz version 2.26.0 (20091210.2329)
 -->
<!-- Title: Load Pages: 1 -->
<svg width="206pt" height="70pt"
 viewBox="0.00 0.00 206.00 70.00" xmlns="http://www.w3.org/2000/svg" xmlns:xlink="http://www.w3.org/1999/xlink">
<g id="graph1" class="graph" transform="scale(1 1) rotate(0) translate(4 66)">
<title>Load</title>
<!-- Node1 -->
<g id="node1" class="node"><title>Node1</title>
<polygon fill="#bfbfbf" stroke="black" points="0,-20.5 0,-41.5 38,-41.5 38,-20.5 0,-20.5"/>
<text text-anchor="middle" x="19" y="-28.5" font-family="Helvetica,sans-Serif" font-size="10.00">Load</text>
</g>
<!-- Node2 -->
<g id="node3" class="node"><title>Node2</title>
<a xlink:href="classIcoFoamMod_1_1IcoFoamModule_a932e824cc1c84fbcdb35d915e23d7110.html#a932e824cc1c84fbcdb35d915e23d7110" target="_top" xlink:title="Default constructor. ">
<polygon fill="none" stroke="black" points="93,-40.5 93,-61.5 179,-61.5 179,-40.5 93,-40.5"/>
<text text-anchor="middle" x="136" y="-48.5" font-family="Helvetica,sans-Serif" font-size="10.00">IcoFoamModule</text>
</a>
</g>
<!-- Node1&#45;&gt;Node2 -->
<g id="edge2" class="edge"><title>Node1&#45;&gt;Node2</title>
<path fill="none" stroke="midnightblue" d="M38.0585,-34.2579C50.1692,-36.3281 66.5014,-39.1199 82.3547,-41.8299"/>
<polygon fill="midnightblue" stroke="midnightblue" points="82.2075,-45.3554 92.6543,-43.5905 83.3871,-38.4555 82.2075,-45.3554"/>
</g>
<!-- Node3 -->
<g id="node5" class="node"><title>Node3</title>
<a xlink:href="classIcoFoamMod_1_1IcoFoamModule_a4d6a2f70e3cec437bf120cf5ad46ab81.html#a4d6a2f70e3cec437bf120cf5ad46ab81" target="_top" xlink:title="IcoFoamModuleFunction">
<polygon fill="none" stroke="black" points="74,-0.5 74,-21.5 198,-21.5 198,-0.5 74,-0.5"/>
<text text-anchor="middle" x="136" y="-8.5" font-family="Helvetica,sans-Serif" font-size="10.00">IcoFoamModuleFunction</text>
</a>
</g>
<!-- Node1&#45;&gt;Node3 -->
<g id="edge4" class="edge"><title>Node1&#45;&gt;Node3</title>
<path fill="none" stroke="midnightblue" d="M38.0585,-27.7421C45.5556,-26.4606 54.6705,-24.9025 64.288,-23.2585"/>
<polygon fill="midnightblue" stroke="midnightblue" points="65.1785,-26.6571 74.4457,-21.5221 63.9989,-19.7572 65.1785,-26.6571"/>
</g>
</g>
</svg>
