<?xml version="1.0" encoding="UTF-8" standalone="no"?>
<!DOCTYPE svg PUBLIC "-//W3C//DTD SVG 1.1//EN"
 "http://www.w3.org/Graphics/SVG/1.1/DTD/svg11.dtd">
<!-- Generated by graphviz version 2.30.1 (20150305.2338)
 -->
<!-- Title: dir_loop Pages: 1 -->
<svg width="336pt" height="28pt"
 viewBox="0.00 0.00 336.00 28.00" xmlns="http://www.w3.org/2000/svg" xmlns:xlink="http://www.w3.org/1999/xlink">
<g id="graph0" class="graph" transform="scale(1 1) rotate(0) translate(4 24)">
<title>dir_loop</title>
<!-- Node1 -->
<g id="node1" class="node"><title>Node1</title>
<polygon fill="#bfbfbf" stroke="black" points="0,-0.5 0,-19.5 50,-19.5 50,-0.5 0,-0.5"/>
<text text-anchor="middle" x="25" y="-7.5" font-family="Helvetica,sans-Serif" font-size="10.00">dir_loop</text>
</g>
<!-- Node2 -->
<g id="node2" class="node"><title>Node2</title>
<g id="a_node2"><a xlink:href="classSolverUtils_1_1Mesh_1_1BSExtent_a77f23a4f2ffc868999f0484fa6a169b1.html#a77f23a4f2ffc868999f0484fa6a169b1" target="_top" xlink:title="GetFlatIndices">
<polygon fill="none" stroke="black" points="86,-0.5 86,-19.5 166,-19.5 166,-0.5 86,-0.5"/>
<text text-anchor="middle" x="126" y="-7.5" font-family="Helvetica,sans-Serif" font-size="10.00">GetFlatIndices</text>
</a>
</g>
</g>
<!-- Node1&#45;&gt;Node2 -->
<g id="edge1" class="edge"><title>Node1&#45;&gt;Node2</title>
<path fill="none" stroke="midnightblue" d="M60.2993,-10C68.5869,-10 77.5042,-10 85.9903,-10"/>
<polygon fill="midnightblue" stroke="midnightblue" points="60.2182,-6.5001 50.2181,-10 60.2181,-13.5001 60.2182,-6.5001"/>
</g>
<!-- Node3 -->
<g id="node3" class="node"><title>Node3</title>
<g id="a_node3"><a xlink:href="classSolverUtils_1_1Mesh_1_1BSExtent_ad3d3d5147d6ab85f799387d5fbe18697.html#ad3d3d5147d6ab85f799387d5fbe18697" target="_top" xlink:title="CreateUnstructuredMesh">
<polygon fill="none" stroke="black" points="202,-0.5 202,-19.5 328,-19.5 328,-0.5 202,-0.5"/>
<text text-anchor="middle" x="265" y="-7.5" font-family="Helvetica,sans-Serif" font-size="10.00">CreateUnstructuredMesh</text>
</a>
</g>
</g>
<!-- Node2&#45;&gt;Node3 -->
<g id="edge2" class="edge"><title>Node2&#45;&gt;Node3</title>
<path fill="none" stroke="midnightblue" d="M176.484,-10C184.758,-10 193.434,-10 201.975,-10"/>
<polygon fill="midnightblue" stroke="midnightblue" points="176.259,-6.5001 166.259,-10 176.259,-13.5001 176.259,-6.5001"/>
</g>
</g>
</svg>
