<?xml version="1.0" encoding="UTF-8" standalone="no"?>
<!DOCTYPE svg PUBLIC "-//W3C//DTD SVG 1.1//EN"
 "http://www.w3.org/Graphics/SVG/1.1/DTD/svg11.dtd">
<!-- Generated by graphviz version 2.30.1 (20150305.2338)
 -->
<!-- Title: Element_node_enumerator Pages: 1 -->
<svg width="313pt" height="96pt"
 viewBox="0.00 0.00 313.00 96.00" xmlns="http://www.w3.org/2000/svg" xmlns:xlink="http://www.w3.org/1999/xlink">
<g id="graph0" class="graph" transform="scale(1 1) rotate(0) translate(4 92)">
<title>Element_node_enumerator</title>
<!-- Node1 -->
<g id="node1" class="node"><title>Node1</title>
<polygon fill="#bfbfbf" stroke="black" points="80.5,-68.5 80.5,-87.5 213.5,-87.5 213.5,-68.5 80.5,-68.5"/>
<text text-anchor="middle" x="147" y="-75.5" font-family="Helvetica,sans-Serif" font-size="10.00">Element_node_enumerator</text>
</g>
<!-- Node2 -->
<g id="node2" class="node"><title>Node2</title>
<g id="a_node2"><a xlink:href="classElement__node__enumerator__str__2.html" target="_top" xlink:title="Optimized version for 2&#45;D structured meshes. ">
<polygon fill="none" stroke="black" points="-0.5,-1 -0.5,-31 132.5,-31 132.5,-1 -0.5,-1"/>
<text text-anchor="start" x="7.5" y="-19" font-family="Helvetica,sans-Serif" font-size="10.00">Element_node_enumerator</text>
<text text-anchor="middle" x="66" y="-8" font-family="Helvetica,sans-Serif" font-size="10.00">_str_2</text>
</a>
</g>
</g>
<!-- Node1&#45;&gt;Node2 -->
<g id="edge1" class="edge"><title>Node1&#45;&gt;Node2</title>
<path fill="none" stroke="midnightblue" d="M127.217,-62.3459C114.392,-52.8461 97.7749,-40.5369 85.0901,-31.1408"/>
<polygon fill="midnightblue" stroke="midnightblue" points="125.276,-65.2636 135.395,-68.4035 129.442,-59.6387 125.276,-65.2636"/>
</g>
<!-- Node3 -->
<g id="node3" class="node"><title>Node3</title>
<g id="a_node3"><a xlink:href="classElement__node__enumerator__uns.html" target="_top" xlink:title="Optimized version for unstructured meshes. ">
<polygon fill="none" stroke="black" points="151,-6.5 151,-25.5 305,-25.5 305,-6.5 151,-6.5"/>
<text text-anchor="middle" x="228" y="-13.5" font-family="Helvetica,sans-Serif" font-size="10.00">Element_node_enumerator_uns</text>
</a>
</g>
</g>
<!-- Node1&#45;&gt;Node3 -->
<g id="edge2" class="edge"><title>Node1&#45;&gt;Node3</title>
<path fill="none" stroke="midnightblue" d="M167.02,-62.1702C182.558,-50.6608 203.553,-35.1086 216.416,-25.5806"/>
<polygon fill="midnightblue" stroke="midnightblue" points="164.558,-59.6387 158.605,-68.4035 168.724,-65.2636 164.558,-59.6387"/>
</g>
</g>
</svg>
