<?xml version="1.0" encoding="UTF-8" standalone="no"?>
<!DOCTYPE svg PUBLIC "-//W3C//DTD SVG 1.1//EN"
 "http://www.w3.org/Graphics/SVG/1.1/DTD/svg11.dtd">
<!-- Generated by graphviz version 2.26.0 (20091210.2329)
 -->
<!-- Title: Process Pages: 1 -->
<svg width="380pt" height="348pt"
 viewBox="0.00 0.00 380.00 348.00" xmlns="http://www.w3.org/2000/svg" xmlns:xlink="http://www.w3.org/1999/xlink">
<g id="graph1" class="graph" transform="scale(1 1) rotate(0) translate(4 344)">
<title>Process</title>
<!-- Node1 -->
<g id="node1" class="node"><title>Node1</title>
<polygon fill="#bfbfbf" stroke="black" points="0.5,-218.5 0.5,-239.5 53.5,-239.5 53.5,-218.5 0.5,-218.5"/>
<text text-anchor="middle" x="27" y="-226.5" font-family="Helvetica,sans-Serif" font-size="10.00">Process</text>
</g>
<!-- Node2 -->
<g id="node3" class="node"><title>Node2</title>
<a xlink:href="classElmerModuleDriver_1_1TestingObject_aa25f45634aafbb580d94840ad8452745.html#aa25f45634aafbb580d94840ad8452745" target="_top" xlink:title="Tears down the testing fixtures if needed. ">
<polygon fill="none" stroke="black" points="132,-318.5 132,-339.5 186,-339.5 186,-318.5 132,-318.5"/>
<text text-anchor="middle" x="159" y="-326.5" font-family="Helvetica,sans-Serif" font-size="10.00">Epilogue</text>
</a>
</g>
<!-- Node1&#45;&gt;Node2 -->
<g id="edge2" class="edge"><title>Node1&#45;&gt;Node2</title>
<path fill="none" stroke="midnightblue" d="M32.4385,-239.552C41.8298,-256.72 62.7306,-290.626 90,-309 99.503,-315.403 111.072,-319.786 122,-322.775"/>
<polygon fill="midnightblue" stroke="midnightblue" points="121.236,-326.19 131.779,-325.145 122.885,-319.387 121.236,-326.19"/>
</g>
<!-- Node3 -->
<g id="node5" class="node"><title>Node3</title>
<a xlink:href="classElmerModuleDriver_1_1TestingObject_aa3cdb6d60e9d9834c19efaab0b044421.html#aa3cdb6d60e9d9834c19efaab0b044421" target="_top" xlink:title="Sets up the data fixtures for the tests. ">
<polygon fill="none" stroke="black" points="131.5,-278.5 131.5,-299.5 186.5,-299.5 186.5,-278.5 131.5,-278.5"/>
<text text-anchor="middle" x="159" y="-286.5" font-family="Helvetica,sans-Serif" font-size="10.00">Prologue</text>
</a>
</g>
<!-- Node1&#45;&gt;Node3 -->
<g id="edge4" class="edge"><title>Node1&#45;&gt;Node3</title>
<path fill="none" stroke="midnightblue" d="M41.348,-239.783C53.7016,-248.647 72.2864,-261.006 90,-269 99.9934,-273.51 111.26,-277.281 121.746,-280.288"/>
<polygon fill="midnightblue" stroke="midnightblue" points="120.927,-283.692 131.494,-282.937 122.762,-276.937 120.927,-283.692"/>
</g>
<!-- Node4 -->
<g id="node7" class="node"><title>Node4</title>
<a xlink:href="classElmerModuleDriver_1_1TestingObject_ada2078f55b55b73d4aacf78d061a57de.html#ada2078f55b55b73d4aacf78d061a57de" target="_top" xlink:title="Test__ElmerUnitTests">
<polygon fill="none" stroke="black" points="101.5,-238.5 101.5,-259.5 216.5,-259.5 216.5,-238.5 101.5,-238.5"/>
<text text-anchor="middle" x="159" y="-246.5" font-family="Helvetica,sans-Serif" font-size="10.00">Test__ElmerUnitTests</text>
</a>
</g>
<!-- Node1&#45;&gt;Node4 -->
<g id="edge6" class="edge"><title>Node1&#45;&gt;Node4</title>
<path fill="none" stroke="midnightblue" d="M53.7122,-233.047C64.6379,-234.703 77.822,-236.7 91.1085,-238.713"/>
<polygon fill="midnightblue" stroke="midnightblue" points="90.8414,-242.213 101.253,-240.25 91.8901,-235.292 90.8414,-242.213"/>
</g>
<!-- Node6 -->
<g id="node11" class="node"><title>Node6</title>
<a xlink:href="classElmerModuleDriver_1_1TestingObject_a14258b94075936cb7bfadbcfc9a37b87.html#a14258b94075936cb7bfadbcfc9a37b87" target="_top" xlink:title="Test for ElmerModuleDriver::ExampleFunction. ">
<polygon fill="none" stroke="black" points="98,-198.5 98,-219.5 220,-219.5 220,-198.5 98,-198.5"/>
<text text-anchor="middle" x="159" y="-206.5" font-family="Helvetica,sans-Serif" font-size="10.00">Test__ExampleFunction</text>
</a>
</g>
<!-- Node1&#45;&gt;Node6 -->
<g id="edge10" class="edge"><title>Node1&#45;&gt;Node6</title>
<path fill="none" stroke="midnightblue" d="M53.7122,-224.953C63.7174,-223.437 75.6166,-221.634 87.7538,-219.795"/>
<polygon fill="midnightblue" stroke="midnightblue" points="88.606,-223.206 97.9688,-218.247 87.5573,-216.285 88.606,-223.206"/>
</g>
<!-- Node8 -->
<g id="node15" class="node"><title>Node8</title>
<a xlink:href="classElmerModuleDriver_1_1TestingObject_a7de28a366b07117111ce7c1e9515a434.html#a7de28a366b07117111ce7c1e9515a434" target="_top" xlink:title="Test for ElmerModuleDriver::MidPointQuadrature. ">
<polygon fill="none" stroke="black" points="92.5,-64.5 92.5,-85.5 225.5,-85.5 225.5,-64.5 92.5,-64.5"/>
<text text-anchor="middle" x="159" y="-72.5" font-family="Helvetica,sans-Serif" font-size="10.00">Test__MidPointQuadrature</text>
</a>
</g>
<!-- Node1&#45;&gt;Node8 -->
<g id="edge14" class="edge"><title>Node1&#45;&gt;Node8</title>
<path fill="none" stroke="midnightblue" d="M30.8775,-218.282C39.0409,-196.894 59.7719,-148.286 90,-117 100.25,-106.391 113.726,-97.4098 126.046,-90.5093"/>
<polygon fill="midnightblue" stroke="midnightblue" points="127.992,-93.4384 135.17,-85.6456 124.699,-87.2613 127.992,-93.4384"/>
</g>
<!-- Node12 -->
<g id="node23" class="node"><title>Node12</title>
<a xlink:href="classElmerModuleDriver_1_1TestingObject_a7928083cb5586c2b361e1d29a8dc2b54.html#a7928083cb5586c2b361e1d29a8dc2b54" target="_top" xlink:title="Test for ElmerModuleDriver::TrapezoidQuadrature. ">
<polygon fill="none" stroke="black" points="90.5,-126.5 90.5,-147.5 227.5,-147.5 227.5,-126.5 90.5,-126.5"/>
<text text-anchor="middle" x="159" y="-134.5" font-family="Helvetica,sans-Serif" font-size="10.00">Test__TrapezoidQuadrature</text>
</a>
</g>
<!-- Node1&#45;&gt;Node12 -->
<g id="edge22" class="edge"><title>Node1&#45;&gt;Node12</title>
<path fill="none" stroke="midnightblue" d="M42.1421,-218.446C64.8967,-202.587 108.116,-172.465 135.138,-153.631"/>
<polygon fill="midnightblue" stroke="midnightblue" points="137.425,-156.303 143.628,-147.714 133.423,-150.56 137.425,-156.303"/>
</g>
<!-- Node5 -->
<g id="node9" class="node"><title>Node5</title>
<a xlink:href="classElmerModuleDriver_1_1TestingObject_a90864b099beaf9044bf8fff8a9857c0d.html#a90864b099beaf9044bf8fff8a9857c0d" target="_top" xlink:title="Function to copy input data from source testing directory for use in unit tests. ">
<polygon fill="none" stroke="black" points="280.5,-260.5 280.5,-281.5 355.5,-281.5 355.5,-260.5 280.5,-260.5"/>
<text text-anchor="middle" x="318" y="-268.5" font-family="Helvetica,sans-Serif" font-size="10.00">GetInputData</text>
</a>
</g>
<!-- Node4&#45;&gt;Node5 -->
<g id="edge8" class="edge"><title>Node4&#45;&gt;Node5</title>
<path fill="none" stroke="midnightblue" d="M216.852,-257.005C234.353,-259.426 253.369,-262.057 270.139,-264.378"/>
<polygon fill="midnightblue" stroke="midnightblue" points="269.872,-267.874 280.258,-265.778 270.832,-260.94 269.872,-267.874"/>
</g>
<!-- Node7 -->
<g id="node13" class="node"><title>Node7</title>
<a xlink:href="namespaceElmerModuleDriver_a4cc78661909b0a33b6b886a4d4290997.html#a4cc78661909b0a33b6b886a4d4290997" target="_top" xlink:title="Example function for ElmerModuleDriver (this is a brief description). ">
<polygon fill="none" stroke="black" points="265,-208 265,-242 371,-242 371,-208 265,-208"/>
<text text-anchor="start" x="273" y="-229" font-family="Helvetica,sans-Serif" font-size="10.00">ElmerModuleDriver::</text>
<text text-anchor="middle" x="318" y="-216" font-family="Helvetica,sans-Serif" font-size="10.00">ExampleFunction</text>
</a>
</g>
<!-- Node6&#45;&gt;Node7 -->
<g id="edge12" class="edge"><title>Node6&#45;&gt;Node7</title>
<path fill="none" stroke="midnightblue" d="M220.019,-215.14C231.466,-216.292 243.454,-217.499 254.961,-218.656"/>
<polygon fill="midnightblue" stroke="midnightblue" points="254.624,-222.14 264.924,-219.659 255.325,-215.175 254.624,-222.14"/>
</g>
<!-- Node9 -->
<g id="node17" class="node"><title>Node9</title>
<a xlink:href="namespaceElmerModuleDriver_1_1TestFixture_a2b09de3be217e128933f09f43f9d7160.html#a2b09de3be217e128933f09f43f9d7160" target="_top" xlink:title="Simple test function fixture returns . ">
<polygon fill="none" stroke="black" points="265,-104 265,-138 371,-138 371,-104 265,-104"/>
<text text-anchor="start" x="273" y="-125" font-family="Helvetica,sans-Serif" font-size="10.00">ElmerModuleDriver::</text>
<text text-anchor="middle" x="318" y="-112" font-family="Helvetica,sans-Serif" font-size="10.00">TestFixture::F1</text>
</a>
</g>
<!-- Node8&#45;&gt;Node9 -->
<g id="edge16" class="edge"><title>Node8&#45;&gt;Node9</title>
<path fill="none" stroke="midnightblue" d="M195.478,-85.5533C213.127,-90.6594 234.824,-96.9366 255.031,-102.783"/>
<polygon fill="midnightblue" stroke="midnightblue" points="254.228,-106.194 264.807,-105.611 256.173,-99.4694 254.228,-106.194"/>
</g>
<!-- Node10 -->
<g id="node19" class="node"><title>Node10</title>
<a xlink:href="namespaceElmerModuleDriver_1_1TestFixture_a79ce78283ad52a81c4107d6cdeb9337c.html#a79ce78283ad52a81c4107d6cdeb9337c" target="_top" xlink:title="Simple test function fixture returns . ">
<polygon fill="none" stroke="black" points="265,-52 265,-86 371,-86 371,-52 265,-52"/>
<text text-anchor="start" x="273" y="-73" font-family="Helvetica,sans-Serif" font-size="10.00">ElmerModuleDriver::</text>
<text text-anchor="middle" x="318" y="-60" font-family="Helvetica,sans-Serif" font-size="10.00">TestFixture::F2</text>
</a>
</g>
<!-- Node8&#45;&gt;Node10 -->
<g id="edge18" class="edge"><title>Node8&#45;&gt;Node10</title>
<path fill="none" stroke="midnightblue" d="M225.509,-72.4902C235.133,-72.1271 245.018,-71.754 254.579,-71.3932"/>
<polygon fill="midnightblue" stroke="midnightblue" points="254.939,-74.8823 264.8,-71.0076 254.675,-67.8872 254.939,-74.8823"/>
</g>
<!-- Node11 -->
<g id="node21" class="node"><title>Node11</title>
<a xlink:href="namespaceElmerModuleDriver_a94390a668cbb6637ea246c660d00d430.html#a94390a668cbb6637ea246c660d00d430" target="_top" xlink:title="Integrates f with composite midpoint rule. ">
<polygon fill="none" stroke="black" points="265,-0 265,-34 371,-34 371,-0 265,-0"/>
<text text-anchor="start" x="273" y="-21" font-family="Helvetica,sans-Serif" font-size="10.00">ElmerModuleDriver::</text>
<text text-anchor="middle" x="318" y="-8" font-family="Helvetica,sans-Serif" font-size="10.00">MidPointQuadrature</text>
</a>
</g>
<!-- Node8&#45;&gt;Node11 -->
<g id="edge20" class="edge"><title>Node8&#45;&gt;Node11</title>
<path fill="none" stroke="midnightblue" d="M187.794,-64.4966C208.426,-56.9705 236.877,-46.5919 261.923,-37.4556"/>
<polygon fill="midnightblue" stroke="midnightblue" points="263.137,-40.7385 271.332,-34.0235 260.738,-34.1624 263.137,-40.7385"/>
</g>
<!-- Node12&#45;&gt;Node9 -->
<g id="edge24" class="edge"><title>Node12&#45;&gt;Node9</title>
<path fill="none" stroke="midnightblue" d="M227.815,-130.075C236.743,-129.177 245.854,-128.26 254.687,-127.371"/>
<polygon fill="midnightblue" stroke="midnightblue" points="255.301,-130.827 264.9,-126.343 254.6,-123.862 255.301,-130.827"/>
</g>
<!-- Node12&#45;&gt;Node10 -->
<g id="edge26" class="edge"><title>Node12&#45;&gt;Node10</title>
<path fill="none" stroke="midnightblue" d="M183.844,-126.375C206.522,-116.676 240.7,-102.059 268.883,-90.006"/>
<polygon fill="midnightblue" stroke="midnightblue" points="270.367,-93.178 278.185,-86.0277 267.615,-86.7419 270.367,-93.178"/>
</g>
<!-- Node13 -->
<g id="node27" class="node"><title>Node13</title>
<a xlink:href="namespaceElmerModuleDriver_a7ea1066c129172a0edf5647d8254e957.html#a7ea1066c129172a0edf5647d8254e957" target="_top" xlink:title="Integrates f with composite trapezoid rule. ">
<polygon fill="none" stroke="black" points="264.5,-156 264.5,-190 371.5,-190 371.5,-156 264.5,-156"/>
<text text-anchor="start" x="272.5" y="-177" font-family="Helvetica,sans-Serif" font-size="10.00">ElmerModuleDriver::</text>
<text text-anchor="middle" x="318" y="-164" font-family="Helvetica,sans-Serif" font-size="10.00">TrapezoidQuadrature</text>
</a>
</g>
<!-- Node12&#45;&gt;Node13 -->
<g id="edge28" class="edge"><title>Node12&#45;&gt;Node13</title>
<path fill="none" stroke="midnightblue" d="M205.417,-147.509C220.674,-150.964 237.91,-154.867 254.226,-158.561"/>
<polygon fill="midnightblue" stroke="midnightblue" points="253.714,-162.033 264.24,-160.828 255.26,-155.206 253.714,-162.033"/>
</g>
</g>
</svg>
