<?xml version="1.0" encoding="UTF-8" standalone="no"?>
<!DOCTYPE svg PUBLIC "-//W3C//DTD SVG 1.1//EN"
 "http://www.w3.org/Graphics/SVG/1.1/DTD/svg11.dtd">
<!-- Generated by graphviz version 2.30.1 (20150305.2338)
 -->
<!-- Title: ProfilerObj Pages: 1 -->
<!--zoomable 256 -->
<svg id="main" version="1.1" xmlns="http://www.w3.org/2000/svg" xmlns:xlink="http://www.w3.org/1999/xlink" xml:space="preserve" onload="init(evt)">
<style type="text/css"><![CDATA[
.edge:hover path { stroke: red; }
.edge:hover polygon { stroke: red; fill: red; }
]]></style>
<script type="text/javascript"><![CDATA[
var edges = document.getElementsByTagName('g');
if (edges && edges.length) {
  for (var i=0;i<edges.length;i++) {
    if (edges[i].id.substr(0,4)=='edge') {
      edges[i].setAttribute('class','edge');
    }
  }
}
]]></script>
        <defs>
                <circle id="rim" cx="0" cy="0" r="7"/>
                <circle id="rim2" cx="0" cy="0" r="3.5"/>
                <g id="zoomPlus">
                        <use xlink:href="#rim" fill="#404040">
                                <set attributeName="fill" to="#808080" begin="zoomplus.mouseover" end="zoomplus.mouseout"/>
                        </use>
                        <path d="M-4,0h8M0,-4v8" fill="none" stroke="white" stroke-width="1.5" pointer-events="none"/>
                </g>
                <g id="zoomMin">
                        <use xlink:href="#rim" fill="#404040">
                                <set attributeName="fill" to="#808080" begin="zoomminus.mouseover" end="zoomminus.mouseout"/>
                        </use>
                        <path d="M-4,0h8" fill="none" stroke="white" stroke-width="1.5" pointer-events="none"/>
                </g>
                <g id="dirArrow">
                        <path fill="none" stroke="white" stroke-width="1.5" d="M0,-3.0v7 M-2.5,-0.5L0,-3.0L2.5,-0.5"/>
                </g>
               <g id="resetDef">
                       <use xlink:href="#rim2" fill="#404040">
                               <set attributeName="fill" to="#808080" begin="reset.mouseover" end="reset.mouseout"/>
                       </use>
               </g>
        </defs>

<script type="text/javascript">
var viewWidth = 860;
var viewHeight = 256;
var sectionId = 'dynsection-0';
</script>
<script xlink:href="svgpan.js"/>
<svg id="graph" class="graph">
<g id="viewport">
<title>ProfilerObj</title>
<!-- Node1 -->
<g id="node1" class="node"><title>Node1</title>
<polygon fill="#bfbfbf" stroke="black" points="790,-98.5 790,-117.5 852,-117.5 852,-98.5 790,-98.5"/>
<text text-anchor="middle" x="821" y="-105.5" font-family="Helvetica,sans-Serif" font-size="10.00">ProfilerObj</text>
</g>
<!-- Node2 -->
<g id="node2" class="node"><title>Node2</title>
<polygon fill="none" stroke="#bfbfbf" points="550.5,-64 550.5,-94 683.5,-94 683.5,-64 550.5,-64"/>
<text text-anchor="start" x="558.5" y="-82" font-family="Helvetica,sans-Serif" font-size="10.00">map&lt; std::string, unsigned</text>
<text text-anchor="middle" x="617" y="-71" font-family="Helvetica,sans-Serif" font-size="10.00"> int &gt;</text>
</g>
<!-- Node2&#45;&gt;Node1 -->
<g id="edge1" class="edge"><title>Node2&#45;&gt;Node1</title>
<path fill="none" stroke="#9a32cd" stroke-dasharray="5,2" d="M693.875,-87.0982C718.824,-90.0975 746.656,-93.8039 772,-98 777.795,-98.9594 783.953,-100.128 789.857,-101.324"/>
<polygon fill="#9a32cd" stroke="#9a32cd" points="694.083,-83.5985 683.741,-85.8993 693.261,-90.55 694.083,-83.5985"/>
<text text-anchor="middle" x="737" y="-101" font-family="Helvetica,sans-Serif" font-size="10.00"> function_map</text>
</g>
<!-- Node3 -->
<g id="node3" class="node"><title>Node3</title>
<g id="a_node3"><a xlink:title="STL class. ">
<polygon fill="none" stroke="#bfbfbf" points="318.5,-53.5 318.5,-72.5 359.5,-72.5 359.5,-53.5 318.5,-53.5"/>
<text text-anchor="middle" x="339" y="-60.5" font-family="Helvetica,sans-Serif" font-size="10.00">string</text>
</a>
</g>
</g>
<!-- Node3&#45;&gt;Node2 -->
<g id="edge2" class="edge"><title>Node3&#45;&gt;Node2</title>
<path fill="none" stroke="#9a32cd" stroke-dasharray="5,2" d="M369.629,-53.7584C407.774,-43.2856 475.835,-29.4461 532,-44 540.859,-46.2956 541.699,-50.1468 550,-54 557.446,-57.4565 565.516,-60.8161 573.372,-63.8929"/>
<polygon fill="#9a32cd" stroke="#9a32cd" points="368.351,-50.4834 359.698,-56.5966 370.275,-57.2139 368.351,-50.4834"/>
<text text-anchor="middle" x="474" y="-47" font-family="Helvetica,sans-Serif" font-size="10.00"> keys</text>
</g>
<!-- Node11 -->
<g id="node11" class="node"><title>Node11</title>
<polygon fill="none" stroke="#bfbfbf" points="567,-113 567,-143 667,-143 667,-113 567,-113"/>
<text text-anchor="start" x="575" y="-131" font-family="Helvetica,sans-Serif" font-size="10.00">map&lt; unsigned int,</text>
<text text-anchor="middle" x="617" y="-120" font-family="Helvetica,sans-Serif" font-size="10.00"> std::string &gt;</text>
</g>
<!-- Node3&#45;&gt;Node11 -->
<g id="edge12" class="edge"><title>Node3&#45;&gt;Node11</title>
<path fill="none" stroke="#9a32cd" stroke-dasharray="5,2" d="M369.83,-62.3234C416.7,-61.7554 505.032,-62.8313 532,-78 543.933,-84.7122 539.137,-94.6659 550,-103 555.055,-106.878 560.78,-110.213 566.693,-113.064"/>
<polygon fill="#9a32cd" stroke="#9a32cd" points="369.626,-58.826 359.681,-62.4802 369.734,-65.8252 369.626,-58.826"/>
<text text-anchor="middle" x="474" y="-81" font-family="Helvetica,sans-Serif" font-size="10.00"> elements</text>
</g>
<!-- Node4 -->
<g id="node4" class="node"><title>Node4</title>
<g id="a_node4"><a xlink:title="STL class. ">
<polygon fill="none" stroke="#bfbfbf" points="94,-53.5 94,-72.5 200,-72.5 200,-53.5 94,-53.5"/>
<text text-anchor="middle" x="147" y="-60.5" font-family="Helvetica,sans-Serif" font-size="10.00">basic_string&lt; char &gt;</text>
</a>
</g>
</g>
<!-- Node4&#45;&gt;Node3 -->
<g id="edge3" class="edge"><title>Node4&#45;&gt;Node3</title>
<path fill="none" stroke="midnightblue" d="M210.501,-63C247.931,-63 293.015,-63 318.303,-63"/>
<polygon fill="midnightblue" stroke="midnightblue" points="210.17,-59.5001 200.17,-63 210.17,-66.5001 210.17,-59.5001"/>
</g>
<!-- Node5 -->
<g id="node5" class="node"><title>Node5</title>
<g id="a_node5"><a xlink:title="STL class. ">
<polygon fill="none" stroke="#bfbfbf" points="303,-146.5 303,-165.5 375,-165.5 375,-146.5 303,-146.5"/>
<text text-anchor="middle" x="339" y="-153.5" font-family="Helvetica,sans-Serif" font-size="10.00">map&lt; K, T &gt;</text>
</a>
</g>
</g>
<!-- Node5&#45;&gt;Node2 -->
<g id="edge4" class="edge"><title>Node5&#45;&gt;Node2</title>
<path fill="none" stroke="orange" stroke-dasharray="5,2" d="M361.369,-140.808C376.061,-131.09 396.389,-119.029 416,-112 440.183,-103.332 501.834,-93.8175 550.35,-87.2413"/>
<polygon fill="orange" stroke="orange" points="359.31,-137.976 353.005,-146.491 363.244,-143.766 359.31,-137.976"/>
<text text-anchor="start" x="423.5" y="-126" font-family="Helvetica,sans-Serif" font-size="10.00"> &lt; std::string, unsigned</text>
<text text-anchor="middle" x="474" y="-115" font-family="Helvetica,sans-Serif" font-size="10.00"> int &gt;</text>
</g>
<!-- Node5&#45;&gt;Node11 -->
<g id="edge13" class="edge"><title>Node5&#45;&gt;Node11</title>
<path fill="none" stroke="orange" stroke-dasharray="5,2" d="M385.402,-151.394C435.274,-146.335 515.101,-138.236 566.534,-133.018"/>
<polygon fill="orange" stroke="orange" points="384.832,-147.934 375.236,-152.425 385.538,-154.898 384.832,-147.934"/>
<text text-anchor="start" x="431.5" y="-162" font-family="Helvetica,sans-Serif" font-size="10.00"> &lt; unsigned int, std</text>
<text text-anchor="middle" x="474" y="-151" font-family="Helvetica,sans-Serif" font-size="10.00">::string &gt;</text>
</g>
<!-- Node6 -->
<g id="node6" class="node"><title>Node6</title>
<polygon fill="none" stroke="#bfbfbf" points="132.5,-146.5 132.5,-165.5 161.5,-165.5 161.5,-146.5 132.5,-146.5"/>
<text text-anchor="middle" x="147" y="-153.5" font-family="Helvetica,sans-Serif" font-size="10.00">K</text>
</g>
<!-- Node6&#45;&gt;Node5 -->
<g id="edge5" class="edge"><title>Node6&#45;&gt;Node5</title>
<path fill="none" stroke="#9a32cd" stroke-dasharray="5,2" d="M171.758,-156C204.781,-156 264.789,-156 302.957,-156"/>
<polygon fill="#9a32cd" stroke="#9a32cd" points="171.664,-152.5 161.664,-156 171.664,-159.5 171.664,-152.5"/>
<text text-anchor="middle" x="240" y="-159" font-family="Helvetica,sans-Serif" font-size="10.00"> keys</text>
</g>
<!-- Node7 -->
<g id="node7" class="node"><title>Node7</title>
<polygon fill="none" stroke="#bfbfbf" points="132.5,-199.5 132.5,-218.5 161.5,-218.5 161.5,-199.5 132.5,-199.5"/>
<text text-anchor="middle" x="147" y="-206.5" font-family="Helvetica,sans-Serif" font-size="10.00">T</text>
</g>
<!-- Node7&#45;&gt;Node5 -->
<g id="edge6" class="edge"><title>Node7&#45;&gt;Node5</title>
<path fill="none" stroke="#9a32cd" stroke-dasharray="5,2" d="M171.391,-202.475C204.547,-193.226 265.426,-176.244 303.696,-165.569"/>
<polygon fill="#9a32cd" stroke="#9a32cd" points="170.356,-199.13 161.664,-205.188 172.237,-205.873 170.356,-199.13"/>
<text text-anchor="middle" x="240" y="-191" font-family="Helvetica,sans-Serif" font-size="10.00"> elements</text>
</g>
<!-- Node10 -->
<g id="node10" class="node"><title>Node10</title>
<g id="a_node10"><a xlink:title="STL class. ">
<polygon fill="none" stroke="#bfbfbf" points="312.5,-228.5 312.5,-247.5 365.5,-247.5 365.5,-228.5 312.5,-228.5"/>
<text text-anchor="middle" x="339" y="-235.5" font-family="Helvetica,sans-Serif" font-size="10.00">list&lt; T &gt;</text>
</a>
</g>
</g>
<!-- Node7&#45;&gt;Node10 -->
<g id="edge10" class="edge"><title>Node7&#45;&gt;Node10</title>
<path fill="none" stroke="#9a32cd" stroke-dasharray="5,2" d="M171.708,-212.619C207.603,-218.097 275.462,-228.455 312.428,-234.097"/>
<polygon fill="#9a32cd" stroke="#9a32cd" points="172.078,-209.135 161.664,-211.086 171.022,-216.054 172.078,-209.135"/>
<text text-anchor="middle" x="240" y="-229" font-family="Helvetica,sans-Serif" font-size="10.00"> elements</text>
</g>
<!-- Node8 -->
<g id="node8" class="node"><title>Node8</title>
<polygon fill="none" stroke="#bfbfbf" points="567,-186 567,-216 667,-216 667,-186 567,-186"/>
<text text-anchor="start" x="575" y="-204" font-family="Helvetica,sans-Serif" font-size="10.00">list&lt; IRAD::Profiler</text>
<text text-anchor="middle" x="617" y="-193" font-family="Helvetica,sans-Serif" font-size="10.00">::Event &gt;</text>
</g>
<!-- Node8&#45;&gt;Node1 -->
<g id="edge7" class="edge"><title>Node8&#45;&gt;Node1</title>
<path fill="none" stroke="#9a32cd" stroke-dasharray="5,2" d="M665.779,-182.076C696.496,-169.53 737.051,-152.256 772,-135 782.802,-129.666 794.599,-123.042 803.794,-117.69"/>
<polygon fill="#9a32cd" stroke="#9a32cd" points="664.12,-178.972 656.171,-185.977 666.753,-185.458 664.12,-178.972"/>
<text text-anchor="middle" x="737" y="-179" font-family="Helvetica,sans-Serif" font-size="10.00"> event_list</text>
<text text-anchor="middle" x="737" y="-168" font-family="Helvetica,sans-Serif" font-size="10.00">open_event_list</text>
</g>
<!-- Node9 -->
<g id="node9" class="node"><title>Node9</title>
<g id="a_node9"><a xlink:href="classIRAD_1_1Profiler_1_1Event.html" target="_top" xlink:title="Marks construct entry/exit. ">
<polygon fill="none" stroke="black" points="318,-190.5 318,-209.5 360,-209.5 360,-190.5 318,-190.5"/>
<text text-anchor="middle" x="339" y="-197.5" font-family="Helvetica,sans-Serif" font-size="10.00">Event</text>
</a>
</g>
</g>
<!-- Node9&#45;&gt;Node8 -->
<g id="edge8" class="edge"><title>Node9&#45;&gt;Node8</title>
<path fill="none" stroke="#9a32cd" stroke-dasharray="5,2" d="M370.545,-200.111C418.036,-200.283 510.02,-200.616 566.906,-200.822"/>
<polygon fill="#9a32cd" stroke="#9a32cd" points="370.308,-196.61 360.295,-200.074 370.282,-203.61 370.308,-196.61"/>
<text text-anchor="middle" x="474" y="-203" font-family="Helvetica,sans-Serif" font-size="10.00"> elements</text>
</g>
<!-- Node10&#45;&gt;Node8 -->
<g id="edge9" class="edge"><title>Node10&#45;&gt;Node8</title>
<path fill="none" stroke="orange" stroke-dasharray="5,2" d="M376.022,-233.815C414.637,-229.255 477.718,-221.591 532,-214 543.253,-212.426 555.337,-210.623 566.732,-208.871"/>
<polygon fill="orange" stroke="orange" points="375.33,-230.372 365.808,-235.017 376.148,-237.325 375.33,-230.372"/>
<text text-anchor="middle" x="474" y="-231" font-family="Helvetica,sans-Serif" font-size="10.00"> &lt; IRAD::Profiler::Event &gt;</text>
</g>
<!-- Node11&#45;&gt;Node1 -->
<g id="edge11" class="edge"><title>Node11&#45;&gt;Node1</title>
<path fill="none" stroke="#9a32cd" stroke-dasharray="5,2" d="M677.313,-122.127C714.246,-118.471 760.199,-113.921 789.81,-110.989"/>
<polygon fill="#9a32cd" stroke="#9a32cd" points="676.763,-118.665 667.156,-123.133 677.453,-125.631 676.763,-118.665"/>
<text text-anchor="middle" x="737" y="-123" font-family="Helvetica,sans-Serif" font-size="10.00"> configmap</text>
</g>
<!-- Node12 -->
<g id="node12" class="node"><title>Node12</title>
<g id="a_node12"><a xlink:title="STL class. ">
<polygon fill="none" stroke="#bfbfbf" points="591,-25.5 591,-44.5 643,-44.5 643,-25.5 591,-25.5"/>
<text text-anchor="middle" x="617" y="-32.5" font-family="Helvetica,sans-Serif" font-size="10.00">ostream</text>
</a>
</g>
</g>
<!-- Node12&#45;&gt;Node1 -->
<g id="edge14" class="edge"><title>Node12&#45;&gt;Node1</title>
<path fill="none" stroke="#9a32cd" stroke-dasharray="5,2" d="M653.443,-35.7905C685.873,-37.7888 734.385,-44.0581 772,-63 788.936,-71.5284 804.091,-87.9177 812.653,-98.3874"/>
<polygon fill="#9a32cd" stroke="#9a32cd" points="653.266,-32.277 643.101,-35.2644 652.91,-39.268 653.266,-32.277"/>
<text text-anchor="middle" x="737" y="-77" font-family="Helvetica,sans-Serif" font-size="10.00"> Err</text>
<text text-anchor="middle" x="737" y="-66" font-family="Helvetica,sans-Serif" font-size="10.00">Out</text>
</g>
<!-- Node13 -->
<g id="node13" class="node"><title>Node13</title>
<g id="a_node13"><a xlink:title="STL class. ">
<polygon fill="none" stroke="#bfbfbf" points="280.5,-0.5 280.5,-19.5 397.5,-19.5 397.5,-0.5 280.5,-0.5"/>
<text text-anchor="middle" x="339" y="-7.5" font-family="Helvetica,sans-Serif" font-size="10.00">basic_ostream&lt; char &gt;</text>
</a>
</g>
</g>
<!-- Node13&#45;&gt;Node12 -->
<g id="edge15" class="edge"><title>Node13&#45;&gt;Node12</title>
<path fill="none" stroke="midnightblue" d="M407.557,-16.1193C466.819,-21.4873 549.763,-29.0003 590.865,-32.7233"/>
<polygon fill="midnightblue" stroke="midnightblue" points="407.798,-12.6269 397.523,-15.2104 407.166,-19.5983 407.798,-12.6269"/>
</g>
<!-- Node14 -->
<g id="node14" class="node"><title>Node14</title>
<g id="a_node14"><a xlink:title="STL class. ">
<polygon fill="none" stroke="#bfbfbf" points="98.5,-0.5 98.5,-19.5 195.5,-19.5 195.5,-0.5 98.5,-0.5"/>
<text text-anchor="middle" x="147" y="-7.5" font-family="Helvetica,sans-Serif" font-size="10.00">basic_ios&lt; Char &gt;</text>
</a>
</g>
</g>
<!-- Node14&#45;&gt;Node13 -->
<g id="edge16" class="edge"><title>Node14&#45;&gt;Node13</title>
<path fill="none" stroke="midnightblue" d="M206.132,-10C229.658,-10 256.756,-10 280.244,-10"/>
<polygon fill="midnightblue" stroke="midnightblue" points="205.945,-6.5001 195.945,-10 205.945,-13.5001 205.945,-6.5001"/>
</g>
<!-- Node15 -->
<g id="node15" class="node"><title>Node15</title>
<g id="a_node15"><a xlink:title="STL class. ">
<polygon fill="none" stroke="#bfbfbf" points="0,-0.5 0,-19.5 56,-19.5 56,-0.5 0,-0.5"/>
<text text-anchor="middle" x="28" y="-7.5" font-family="Helvetica,sans-Serif" font-size="10.00">ios_base</text>
</a>
</g>
</g>
<!-- Node15&#45;&gt;Node14 -->
<g id="edge17" class="edge"><title>Node15&#45;&gt;Node14</title>
<path fill="none" stroke="midnightblue" d="M66.3308,-10C76.5173,-10 87.6937,-10 98.3694,-10"/>
<polygon fill="midnightblue" stroke="midnightblue" points="66.1363,-6.5001 56.1362,-10 66.1362,-13.5001 66.1363,-6.5001"/>
</g>
</g>
</svg>
        <g id="navigator" transform="translate(0 0)" fill="#404254">
                <rect fill="#f2f5e9" fill-opacity="0.5" stroke="#606060" stroke-width=".5" x="0" y="0" width="60" height="60"/>
                <use id="zoomplus" xlink:href="#zoomPlus" x="17" y="9" onmousedown="handleZoom(evt,'in')"/>
                <use id="zoomminus" xlink:href="#zoomMin" x="42" y="9" onmousedown="handleZoom(evt,'out')"/>
                <use id="reset" xlink:href="#resetDef" x="30" y="36" onmousedown="handleReset()"/>
                <g id="arrowUp" xlink:href="#dirArrow" transform="translate(30 24)" onmousedown="handlePan(0,-1)">
                  <use xlink:href="#rim" fill="#404040">
                        <set attributeName="fill" to="#808080" begin="arrowUp.mouseover" end="arrowUp.mouseout"/>
                  </use>
                  <path fill="none" stroke="white" stroke-width="1.5" d="M0,-3.0v7 M-2.5,-0.5L0,-3.0L2.5,-0.5"/>
                </g>
                <g id="arrowRight" xlink:href="#dirArrow" transform="rotate(90) translate(36 -43)" onmousedown="handlePan(1,0)">
                  <use xlink:href="#rim" fill="#404040">
                        <set attributeName="fill" to="#808080" begin="arrowRight.mouseover" end="arrowRight.mouseout"/>
                  </use>
                  <path fill="none" stroke="white" stroke-width="1.5" d="M0,-3.0v7 M-2.5,-0.5L0,-3.0L2.5,-0.5"/>
                </g>
                <g id="arrowDown" xlink:href="#dirArrow" transform="rotate(180) translate(-30 -48)" onmousedown="handlePan(0,1)">
                  <use xlink:href="#rim" fill="#404040">
                        <set attributeName="fill" to="#808080" begin="arrowDown.mouseover" end="arrowDown.mouseout"/>
                  </use>
                  <path fill="none" stroke="white" stroke-width="1.5" d="M0,-3.0v7 M-2.5,-0.5L0,-3.0L2.5,-0.5"/>
                </g>
                <g id="arrowLeft" xlink:href="#dirArrow" transform="rotate(270) translate(-36 17)" onmousedown="handlePan(-1,0)">
                  <use xlink:href="#rim" fill="#404040">
                        <set attributeName="fill" to="#808080" begin="arrowLeft.mouseover" end="arrowLeft.mouseout"/>
                  </use>
                  <path fill="none" stroke="white" stroke-width="1.5" d="M0,-3.0v7 M-2.5,-0.5L0,-3.0L2.5,-0.5"/>
                </g>
        </g>
        <svg viewBox="0 0 15 15" width="100%" height="30px" preserveAspectRatio="xMaxYMin meet">
         <g id="arrow_out" transform="scale(0.3 0.3)">
          <a xlink:href="classIRAD_1_1Profiler_1_1ProfilerObj__coll__graph_org.svg" target="_base">
           <rect id="button" ry="5" rx="5" y="6" x="6" height="38" width="38"
                fill="#f2f5e9" fill-opacity="0.5" stroke="#606060" stroke-width="1.0"/>
           <path id="arrow"
             d="M 11.500037,31.436501 C 11.940474,20.09759 22.043105,11.32322 32.158766,21.979434 L 37.068811,17.246167 C 37.068811,17.246167 37.088388,32 37.088388,32 L 22.160133,31.978069 C 22.160133,31.978069 26.997745,27.140456 26.997745,27.140456 C 18.528582,18.264221 13.291696,25.230495 11.500037,31.436501 z"
             style="fill:#404040;"/>
          </a>
         </g>
        </svg>
</svg>
