<?xml version="1.0" encoding="UTF-8" standalone="no"?>
<!DOCTYPE svg PUBLIC "-//W3C//DTD SVG 1.1//EN"
 "http://www.w3.org/Graphics/SVG/1.1/DTD/svg11.dtd">
<!-- Generated by graphviz version 2.30.1 (20150305.2338)
 -->
<!-- Title: size_of_corners Pages: 1 -->
<svg width="226pt" height="77pt"
 viewBox="0.00 0.00 226.00 77.00" xmlns="http://www.w3.org/2000/svg" xmlns:xlink="http://www.w3.org/1999/xlink">
<g id="graph0" class="graph" transform="scale(1 1) rotate(0) translate(4 73)">
<title>size_of_corners</title>
<!-- Node1 -->
<g id="node1" class="node"><title>Node1</title>
<polygon fill="#bfbfbf" stroke="black" points="0,-27.5 0,-46.5 86,-46.5 86,-27.5 0,-27.5"/>
<text text-anchor="middle" x="43" y="-34.5" font-family="Helvetica,sans-Serif" font-size="10.00">size_of_corners</text>
</g>
<!-- Node2 -->
<g id="node2" class="node"><title>Node2</title>
<g id="a_node2"><a xlink:href="classPane_ae5acbe47d704ceb866e3717e2ac9422f.html#ae5acbe47d704ceb866e3717e2ac9422f" target="_top" xlink:title="Dimension of the pane. ">
<polygon fill="none" stroke="black" points="125.5,-49.5 125.5,-68.5 214.5,-68.5 214.5,-49.5 125.5,-49.5"/>
<text text-anchor="middle" x="170" y="-56.5" font-family="Helvetica,sans-Serif" font-size="10.00">Pane::dimension</text>
</a>
</g>
</g>
<!-- Node1&#45;&gt;Node2 -->
<g id="edge1" class="edge"><title>Node1&#45;&gt;Node2</title>
<path fill="none" stroke="midnightblue" d="M86.3193,-44.4482C95.6762,-46.095 105.709,-47.8608 115.446,-49.5745"/>
<polygon fill="midnightblue" stroke="midnightblue" points="114.99,-53.048 125.446,-51.3344 116.204,-46.154 114.99,-53.048"/>
</g>
<!-- Node3 -->
<g id="node3" class="node"><title>Node3</title>
<g id="a_node3"><a xlink:href="classConnectivity_a1a75d88425dc06c3f9409dc87429b002.html#a1a75d88425dc06c3f9409dc87429b002" target="_top" xlink:title="Get the number of corners per element of the current connectivity table. ">
<polygon fill="none" stroke="black" points="122.5,-0 122.5,-30 217.5,-30 217.5,-0 122.5,-0"/>
<text text-anchor="start" x="130.5" y="-18" font-family="Helvetica,sans-Serif" font-size="10.00">Connectivity::size</text>
<text text-anchor="middle" x="170" y="-7" font-family="Helvetica,sans-Serif" font-size="10.00">_of_corners_pe</text>
</a>
</g>
</g>
<!-- Node1&#45;&gt;Node3 -->
<g id="edge2" class="edge"><title>Node1&#45;&gt;Node3</title>
<path fill="none" stroke="midnightblue" d="M86.3193,-29.5518C94.7588,-28.0665 103.748,-26.4843 112.575,-24.9309"/>
<polygon fill="midnightblue" stroke="midnightblue" points="113.19,-28.3764 122.432,-23.1959 111.977,-21.4823 113.19,-28.3764"/>
</g>
</g>
</svg>
