<?xml version="1.0" encoding="UTF-8" standalone="no"?>
<!DOCTYPE svg PUBLIC "-//W3C//DTD SVG 1.1//EN"
 "http://www.w3.org/Graphics/SVG/1.1/DTD/svg11.dtd">
<!-- Generated by graphviz version 2.26.0 (20091210.2329)
 -->
<!-- Title: TransferDisplacementsToFluid Pages: 1 -->
<svg width="606pt" height="134pt"
 viewBox="0.00 0.00 606.00 134.00" xmlns="http://www.w3.org/2000/svg" xmlns:xlink="http://www.w3.org/1999/xlink">
<g id="graph1" class="graph" transform="scale(1 1) rotate(0) translate(4 130)">
<title>TransferDisplacementsToFluid</title>
<!-- Node1 -->
<g id="node1" class="node"><title>Node1</title>
<polygon fill="#bfbfbf" stroke="black" points="0,-58.5 0,-79.5 150,-79.5 150,-58.5 0,-58.5"/>
<text text-anchor="middle" x="75" y="-66.5" font-family="Helvetica,sans-Serif" font-size="10.00">TransferDisplacementsToFluid</text>
</g>
<!-- Node2 -->
<g id="node3" class="node"><title>Node2</title>
<a xlink:href="classfsicoupling_afbfb74d751085fbf8cffe83b9716b2dd.html#afbfb74d751085fbf8cffe83b9716b2dd" target="_top" xlink:title="Run">
<polygon fill="none" stroke="black" points="186.5,-58.5 186.5,-79.5 221.5,-79.5 221.5,-58.5 186.5,-58.5"/>
<text text-anchor="middle" x="204" y="-66.5" font-family="Helvetica,sans-Serif" font-size="10.00">Run</text>
</a>
</g>
<!-- Node1&#45;&gt;Node2 -->
<g id="edge2" class="edge"><title>Node1&#45;&gt;Node2</title>
<path fill="none" stroke="midnightblue" d="M160.331,-69C170.004,-69 178.977,-69 186.241,-69"/>
<polygon fill="midnightblue" stroke="midnightblue" points="160.04,-65.5001 150.04,-69 160.04,-72.5001 160.04,-65.5001"/>
</g>
<!-- Node3 -->
<g id="node5" class="node"><title>Node3</title>
<a xlink:href="classElmerFoamFSI_1_1SerialDriverProgram_aac704aea738c1edc384a97e51d60662b.html#aac704aea738c1edc384a97e51d60662b" target="_top" xlink:title="This function implements the main function executed by the program. ">
<polygon fill="none" stroke="black" points="258,-52 258,-86 398,-86 398,-52 258,-52"/>
<text text-anchor="start" x="266" y="-73" font-family="Helvetica,sans-Serif" font-size="10.00">ElmerFoamFSI::SerialDriver</text>
<text text-anchor="middle" x="328" y="-60" font-family="Helvetica,sans-Serif" font-size="10.00">Program::Run</text>
</a>
</g>
<!-- Node2&#45;&gt;Node3 -->
<g id="edge4" class="edge"><title>Node2&#45;&gt;Node3</title>
<path fill="none" stroke="midnightblue" d="M231.545,-69C239.467,-69 248.489,-69 257.761,-69"/>
<polygon fill="midnightblue" stroke="midnightblue" points="231.503,-65.5001 221.503,-69 231.503,-72.5001 231.503,-65.5001"/>
</g>
<!-- Node4 -->
<g id="node7" class="node"><title>Node4</title>
<a xlink:href="namespaceElmerFoamFSI_aff46f457934a8e2d3712bdbfb1688e99.html#aff46f457934a8e2d3712bdbfb1688e99" target="_top" xlink:title="Unified driver for the example programs. ">
<polygon fill="none" stroke="black" points="458.5,-104.5 458.5,-125.5 573.5,-125.5 573.5,-104.5 458.5,-104.5"/>
<text text-anchor="middle" x="516" y="-112.5" font-family="Helvetica,sans-Serif" font-size="10.00">ElmerFoamFSI::Driver</text>
</a>
</g>
<!-- Node3&#45;&gt;Node4 -->
<g id="edge6" class="edge"><title>Node3&#45;&gt;Node4</title>
<path fill="none" stroke="midnightblue" d="M407.085,-88.4101C416.161,-90.6341 425.282,-92.8676 434,-95 446.526,-98.0637 460.13,-101.384 472.59,-104.423"/>
<polygon fill="midnightblue" stroke="midnightblue" points="407.82,-84.9869 397.275,-86.0057 406.154,-91.7857 407.82,-84.9869"/>
</g>
<!-- Node5 -->
<g id="node9" class="node"><title>Node5</title>
<a xlink:href="namespaceElmerFoamFSI_1_1ExampleProgram_a51e123c8b200fe0d466698ff7429bba6.html#a51e123c8b200fe0d466698ff7429bba6" target="_top" xlink:title="Unified driver for the example programs. ">
<polygon fill="none" stroke="black" points="434,-52 434,-86 598,-86 598,-52 434,-52"/>
<text text-anchor="start" x="442" y="-73" font-family="Helvetica,sans-Serif" font-size="10.00">ElmerFoamFSI::ExampleProgram</text>
<text text-anchor="middle" x="516" y="-60" font-family="Helvetica,sans-Serif" font-size="10.00">::Driver</text>
</a>
</g>
<!-- Node3&#45;&gt;Node5 -->
<g id="edge8" class="edge"><title>Node3&#45;&gt;Node5</title>
<path fill="none" stroke="midnightblue" d="M408.258,-69C416.741,-69 425.378,-69 433.882,-69"/>
<polygon fill="midnightblue" stroke="midnightblue" points="408.004,-65.5001 398.004,-69 408.004,-72.5001 408.004,-65.5001"/>
</g>
<!-- Node6 -->
<g id="node11" class="node"><title>Node6</title>
<a xlink:href="namespaceElmerModuleDriver_1_1ExampleProgram_a945c2d21d14578304f149399117a364c.html#a945c2d21d14578304f149399117a364c" target="_top" xlink:title="Unified driver for the example programs. ">
<polygon fill="none" stroke="black" points="454,-0 454,-34 578,-34 578,-0 454,-0"/>
<text text-anchor="start" x="462" y="-21" font-family="Helvetica,sans-Serif" font-size="10.00">ElmerModuleDriver::</text>
<text text-anchor="middle" x="516" y="-8" font-family="Helvetica,sans-Serif" font-size="10.00">ExampleProgram::Driver</text>
</a>
</g>
<!-- Node3&#45;&gt;Node6 -->
<g id="edge10" class="edge"><title>Node3&#45;&gt;Node6</title>
<path fill="none" stroke="midnightblue" d="M399.204,-49.3053C417.342,-44.2885 436.684,-38.9384 454.303,-34.065"/>
<polygon fill="midnightblue" stroke="midnightblue" points="398.263,-45.934 389.558,-51.9733 400.129,-52.6807 398.263,-45.934"/>
</g>
</g>
</svg>
