<?xml version="1.0" encoding="UTF-8" standalone="no"?>
<!DOCTYPE svg PUBLIC "-//W3C//DTD SVG 1.1//EN"
 "http://www.w3.org/Graphics/SVG/1.1/DTD/svg11.dtd">
<!-- Generated by graphviz version 2.30.1 (20150305.2338)
 -->
<!-- Title: Point_2 Pages: 1 -->
<svg width="152pt" height="66pt"
 viewBox="0.00 0.00 152.00 66.00" xmlns="http://www.w3.org/2000/svg" xmlns:xlink="http://www.w3.org/1999/xlink">
<g id="graph0" class="graph" transform="scale(1 1) rotate(0) translate(4 62)">
<title>Point_2</title>
<!-- Node1 -->
<g id="node1" class="node"><title>Node1</title>
<polygon fill="#bfbfbf" stroke="black" points="0,-19.5 0,-38.5 50,-38.5 50,-19.5 0,-19.5"/>
<text text-anchor="middle" x="25" y="-26.5" font-family="Helvetica,sans-Serif" font-size="10.00">Point_2</text>
</g>
<!-- Node2 -->
<g id="node2" class="node"><title>Node2</title>
<g id="a_node2"><a xlink:href="classPoint__2_a8a0f17da96d0517504477494021ef656.html#a8a0f17da96d0517504477494021ef656" target="_top" xlink:title="Arithmatic operators. ">
<polygon fill="none" stroke="black" points="86,-38.5 86,-57.5 144,-57.5 144,-38.5 86,-38.5"/>
<text text-anchor="middle" x="115" y="-45.5" font-family="Helvetica,sans-Serif" font-size="10.00">operator+</text>
</a>
</g>
</g>
<!-- Node1&#45;&gt;Node2 -->
<g id="edge1" class="edge"><title>Node1&#45;&gt;Node2</title>
<path fill="none" stroke="midnightblue" d="M59.8309,-36.3044C68.4543,-38.1663 77.629,-40.1472 85.9294,-41.9393"/>
<polygon fill="midnightblue" stroke="midnightblue" points="60.5598,-32.8812 50.0464,-34.1918 59.0825,-39.7235 60.5598,-32.8812"/>
</g>
<!-- Node3 -->
<g id="node3" class="node"><title>Node3</title>
<g id="a_node3"><a xlink:href="classPoint__2_a29f7b47c1f33de0248455776b2a54549.html#a29f7b47c1f33de0248455776b2a54549" target="_top" xlink:title="operator&#45;">
<polygon fill="none" stroke="black" points="87.5,-0.5 87.5,-19.5 142.5,-19.5 142.5,-0.5 87.5,-0.5"/>
<text text-anchor="middle" x="115" y="-7.5" font-family="Helvetica,sans-Serif" font-size="10.00">operator&#45;</text>
</a>
</g>
</g>
<!-- Node1&#45;&gt;Node3 -->
<g id="edge2" class="edge"><title>Node1&#45;&gt;Node3</title>
<path fill="none" stroke="midnightblue" d="M59.9109,-21.6783C68.9515,-19.7264 78.5927,-17.6448 87.1938,-15.7877"/>
<polygon fill="midnightblue" stroke="midnightblue" points="59.0825,-18.2765 50.0464,-23.8082 60.5598,-25.1188 59.0825,-18.2765"/>
</g>
</g>
</svg>
