<?xml version="1.0" encoding="UTF-8" standalone="no"?>
<!DOCTYPE svg PUBLIC "-//W3C//DTD SVG 1.1//EN"
 "http://www.w3.org/Graphics/SVG/1.1/DTD/svg11.dtd">
<!-- Generated by graphviz version 2.26.0 (20091210.2329)
 -->
<!-- Title: setinitialconditions Pages: 1 -->
<svg width="470pt" height="30pt"
 viewBox="0.00 0.00 470.00 30.00" xmlns="http://www.w3.org/2000/svg" xmlns:xlink="http://www.w3.org/1999/xlink">
<g id="graph1" class="graph" transform="scale(1 1) rotate(0) translate(4 26)">
<title>setinitialconditions</title>
<!-- Node1 -->
<g id="node1" class="node"><title>Node1</title>
<polygon fill="#bfbfbf" stroke="black" points="0.5,-0.5 0.5,-21.5 97.5,-21.5 97.5,-0.5 0.5,-0.5"/>
<text text-anchor="middle" x="49" y="-8.5" font-family="Helvetica,sans-Serif" font-size="10.00">setinitialconditions</text>
</g>
<!-- Node2 -->
<g id="node3" class="node"><title>Node2</title>
<a xlink:href="MyInitialize_8F90_a5efd0681c40e89427aed63760a3dd706.html#a5efd0681c40e89427aed63760a3dd706" target="_top" xlink:title="ElmerLib Elmer library routines ">
<polygon fill="none" stroke="black" points="134.5,-0.5 134.5,-21.5 199.5,-21.5 199.5,-0.5 134.5,-0.5"/>
<text text-anchor="middle" x="167" y="-8.5" font-family="Helvetica,sans-Serif" font-size="10.00">myinitialize</text>
</a>
</g>
<!-- Node1&#45;&gt;Node2 -->
<g id="edge2" class="edge"><title>Node1&#45;&gt;Node2</title>
<path fill="none" stroke="midnightblue" d="M107.873,-11C116.946,-11 126.023,-11 134.246,-11"/>
<polygon fill="midnightblue" stroke="midnightblue" points="107.676,-7.5001 97.6764,-11 107.676,-14.5001 107.676,-7.5001"/>
</g>
<!-- Node3 -->
<g id="node5" class="node"><title>Node3</title>
<a xlink:href="SolverModule_8F90_a4de4792abefc1f58f85b334aa265a623.html#a4de4792abefc1f58f85b334aa265a623" target="_top" xlink:title="A caller for the Elmer main program. ">
<polygon fill="none" stroke="black" points="236.5,-0.5 236.5,-21.5 291.5,-21.5 291.5,-0.5 236.5,-0.5"/>
<text text-anchor="middle" x="264" y="-8.5" font-family="Helvetica,sans-Serif" font-size="10.00">initializer</text>
</a>
</g>
<!-- Node2&#45;&gt;Node3 -->
<g id="edge4" class="edge"><title>Node2&#45;&gt;Node3</title>
<path fill="none" stroke="midnightblue" d="M209.576,-11C218.603,-11 227.909,-11 236.216,-11"/>
<polygon fill="midnightblue" stroke="midnightblue" points="209.569,-7.5001 199.569,-11 209.569,-14.5001 209.569,-7.5001"/>
</g>
<!-- Node4 -->
<g id="node7" class="node"><title>Node4</title>
<a xlink:href="SolverModule_8F90_a2363fcb6699317c59c1f2f041ee860d2.html#a2363fcb6699317c59c1f2f041ee860d2" target="_top" xlink:title="solvermodule_load_module">
<polygon fill="none" stroke="black" points="328,-0.5 328,-21.5 462,-21.5 462,-0.5 328,-0.5"/>
<text text-anchor="middle" x="395" y="-8.5" font-family="Helvetica,sans-Serif" font-size="10.00">solvermodule_load_module</text>
</a>
</g>
<!-- Node3&#45;&gt;Node4 -->
<g id="edge6" class="edge"><title>Node3&#45;&gt;Node4</title>
<path fill="none" stroke="midnightblue" d="M302.039,-11C310.186,-11 319.026,-11 327.905,-11"/>
<polygon fill="midnightblue" stroke="midnightblue" points="301.782,-7.5001 291.782,-11 301.782,-14.5001 301.782,-7.5001"/>
</g>
</g>
</svg>
