<?xml version="1.0" encoding="UTF-8" standalone="no"?>
<!DOCTYPE svg PUBLIC "-//W3C//DTD SVG 1.1//EN"
 "http://www.w3.org/Graphics/SVG/1.1/DTD/svg11.dtd">
<!-- Generated by graphviz version 2.30.1 (20150305.2338)
 -->
<!-- Title: SetInDescriptor Pages: 1 -->
<svg width="220pt" height="66pt"
 viewBox="0.00 0.00 220.00 66.00" xmlns="http://www.w3.org/2000/svg" xmlns:xlink="http://www.w3.org/1999/xlink">
<g id="graph0" class="graph" transform="scale(1 1) rotate(0) translate(4 62)">
<title>SetInDescriptor</title>
<!-- Node1 -->
<g id="node1" class="node"><title>Node1</title>
<polygon fill="#bfbfbf" stroke="black" points="0.5,-19.5 0.5,-38.5 85.5,-38.5 85.5,-19.5 0.5,-19.5"/>
<text text-anchor="middle" x="43" y="-26.5" font-family="Helvetica,sans-Serif" font-size="10.00">SetInDescriptor</text>
</g>
<!-- Node2 -->
<g id="node2" class="node"><title>Node2</title>
<g id="a_node2"><a xlink:href="classIRAD_1_1Sys_1_1FDSetMan_ad0b3c83ce09c56bd95becfe51bdae86c.html#ad0b3c83ce09c56bd95becfe51bdae86c" target="_top" xlink:title="AddInDescriptor">
<polygon fill="none" stroke="black" points="123.5,-38.5 123.5,-57.5 210.5,-57.5 210.5,-38.5 123.5,-38.5"/>
<text text-anchor="middle" x="167" y="-45.5" font-family="Helvetica,sans-Serif" font-size="10.00">AddInDescriptor</text>
</a>
</g>
</g>
<!-- Node1&#45;&gt;Node2 -->
<g id="edge1" class="edge"><title>Node1&#45;&gt;Node2</title>
<path fill="none" stroke="midnightblue" d="M95.5257,-37.0245C104.778,-38.4655 114.329,-39.9529 123.298,-41.3497"/>
<polygon fill="midnightblue" stroke="midnightblue" points="96.0638,-33.5662 85.6443,-35.4856 94.9865,-40.4828 96.0638,-33.5662"/>
</g>
<!-- Node3 -->
<g id="node3" class="node"><title>Node3</title>
<g id="a_node3"><a xlink:href="classIRAD_1_1Sys_1_1FDSetMan_a3f4e456645b1123f45715ccbd1daabaa.html#a3f4e456645b1123f45715ccbd1daabaa" target="_top" xlink:title="AddIODescriptor">
<polygon fill="none" stroke="black" points="122.5,-0.5 122.5,-19.5 211.5,-19.5 211.5,-0.5 122.5,-0.5"/>
<text text-anchor="middle" x="167" y="-7.5" font-family="Helvetica,sans-Serif" font-size="10.00">AddIODescriptor</text>
</a>
</g>
</g>
<!-- Node1&#45;&gt;Node3 -->
<g id="edge2" class="edge"><title>Node1&#45;&gt;Node3</title>
<path fill="none" stroke="midnightblue" d="M95.5861,-20.9661C104.534,-19.5726 113.758,-18.1361 122.464,-16.7802"/>
<polygon fill="midnightblue" stroke="midnightblue" points="94.9865,-17.5172 85.6443,-22.5144 96.0638,-24.4338 94.9865,-17.5172"/>
</g>
</g>
</svg>
