<?xml version="1.0" encoding="UTF-8" standalone="no"?>
<!DOCTYPE svg PUBLIC "-//W3C//DTD SVG 1.1//EN"
 "http://www.w3.org/Graphics/SVG/1.1/DTD/svg11.dtd">
<!-- Generated by graphviz version 2.30.1 (20150305.2338)
 -->
<!-- Title: operator+= Pages: 1 -->
<svg width="176pt" height="66pt"
 viewBox="0.00 0.00 176.00 66.00" xmlns="http://www.w3.org/2000/svg" xmlns:xlink="http://www.w3.org/1999/xlink">
<g id="graph0" class="graph" transform="scale(1 1) rotate(0) translate(4 62)">
<title>operator+=</title>
<!-- Node1 -->
<g id="node1" class="node"><title>Node1</title>
<polygon fill="#bfbfbf" stroke="black" points="0,-19.5 0,-38.5 64,-38.5 64,-19.5 0,-19.5"/>
<text text-anchor="middle" x="32" y="-26.5" font-family="Helvetica,sans-Serif" font-size="10.00">operator+=</text>
</g>
<!-- Node2 -->
<g id="node2" class="node"><title>Node2</title>
<g id="a_node2"><a xlink:href="classVector__2_a042a7f83fef9d5d115d1f53beecacd2c.html#a042a7f83fef9d5d115d1f53beecacd2c" target="_top" xlink:title="Vector_2::x">
<polygon fill="none" stroke="black" points="100.5,-38.5 100.5,-57.5 167.5,-57.5 167.5,-38.5 100.5,-38.5"/>
<text text-anchor="middle" x="134" y="-45.5" font-family="Helvetica,sans-Serif" font-size="10.00">Vector_2::x</text>
</a>
</g>
</g>
<!-- Node1&#45;&gt;Node2 -->
<g id="edge1" class="edge"><title>Node1&#45;&gt;Node2</title>
<path fill="none" stroke="midnightblue" d="M64.0925,-34.9076C72.3343,-36.4735 81.3799,-38.1922 90.1283,-39.8544"/>
<polygon fill="midnightblue" stroke="midnightblue" points="89.7181,-43.339 100.196,-41.7672 91.0248,-36.462 89.7181,-43.339"/>
</g>
<!-- Node3 -->
<g id="node3" class="node"><title>Node3</title>
<g id="a_node3"><a xlink:href="classVector__2_a0b50bd5bcd25dd6ac4139c7abf656e85.html#a0b50bd5bcd25dd6ac4139c7abf656e85" target="_top" xlink:title="Vector_2::y">
<polygon fill="none" stroke="black" points="100.5,-0.5 100.5,-19.5 167.5,-19.5 167.5,-0.5 100.5,-0.5"/>
<text text-anchor="middle" x="134" y="-7.5" font-family="Helvetica,sans-Serif" font-size="10.00">Vector_2::y</text>
</a>
</g>
</g>
<!-- Node1&#45;&gt;Node3 -->
<g id="edge2" class="edge"><title>Node1&#45;&gt;Node3</title>
<path fill="none" stroke="midnightblue" d="M64.0925,-23.0924C72.3343,-21.5265 81.3799,-19.8078 90.1283,-18.1456"/>
<polygon fill="midnightblue" stroke="midnightblue" points="91.0248,-21.538 100.196,-16.2328 89.7181,-14.661 91.0248,-21.538"/>
</g>
</g>
</svg>
