<?xml version="1.0" encoding="UTF-8" standalone="no"?>
<!DOCTYPE svg PUBLIC "-//W3C//DTD SVG 1.1//EN"
 "http://www.w3.org/Graphics/SVG/1.1/DTD/svg11.dtd">
<!-- Generated by graphviz version 2.30.1 (20150305.2338)
 -->
<!-- Title: set Pages: 1 -->
<svg width="804pt" height="202pt"
 viewBox="0.00 0.00 804.00 202.00" xmlns="http://www.w3.org/2000/svg" xmlns:xlink="http://www.w3.org/1999/xlink">
<g id="graph0" class="graph" transform="scale(1 1) rotate(0) translate(4 198)">
<title>set</title>
<!-- Node1 -->
<g id="node1" class="node"><title>Node1</title>
<polygon fill="#bfbfbf" stroke="black" points="0,-87.5 0,-106.5 30,-106.5 30,-87.5 0,-87.5"/>
<text text-anchor="middle" x="15" y="-94.5" font-family="Helvetica,sans-Serif" font-size="10.00">set</text>
</g>
<!-- Node2 -->
<g id="node2" class="node"><title>Node2</title>
<g id="a_node2"><a xlink:href="classElement__vectors__k__const_a012daf687ea85e9da2bc2d064de92aa6.html#a012daf687ea85e9da2bc2d064de92aa6" target="_top" xlink:title="initialize the accessor with a pointer and a specific stride. ">
<polygon fill="none" stroke="black" points="66.5,-87.5 66.5,-106.5 215.5,-106.5 215.5,-87.5 66.5,-87.5"/>
<text text-anchor="middle" x="141" y="-94.5" font-family="Helvetica,sans-Serif" font-size="10.00">Element_vectors_k_const::set</text>
</a>
</g>
</g>
<!-- Node1&#45;&gt;Node2 -->
<g id="edge1" class="edge"><title>Node1&#45;&gt;Node2</title>
<path fill="none" stroke="midnightblue" d="M30.2244,-97C37.2379,-97 46.321,-97 56.2572,-97"/>
<polygon fill="midnightblue" stroke="midnightblue" points="56.4328,-100.5 66.4328,-97 56.4327,-93.5001 56.4328,-100.5"/>
</g>
<!-- Node3 -->
<g id="node3" class="node"><title>Node3</title>
<g id="a_node3"><a xlink:href="classElement__node__enumerator_ae0c063cfb2479f614be43b9d2f92ba63.html#ae0c063cfb2479f614be43b9d2f92ba63" target="_top" xlink:title="Get the local id of the element within the pane. ">
<polygon fill="none" stroke="black" points="252,-87.5 252,-106.5 398,-106.5 398,-87.5 252,-87.5"/>
<text text-anchor="middle" x="325" y="-94.5" font-family="Helvetica,sans-Serif" font-size="10.00">Element_node_enumerator::id</text>
</a>
</g>
</g>
<!-- Node2&#45;&gt;Node3 -->
<g id="edge2" class="edge"><title>Node2&#45;&gt;Node3</title>
<path fill="none" stroke="midnightblue" d="M215.502,-97C224.153,-97 233.023,-97 241.783,-97"/>
<polygon fill="midnightblue" stroke="midnightblue" points="241.997,-100.5 251.997,-97 241.997,-93.5001 241.997,-100.5"/>
</g>
<!-- Node4 -->
<g id="node4" class="node"><title>Node4</title>
<g id="a_node4"><a xlink:href="classConnectivity_a69bd059da8cf335fbee896488f5c1e97.html#a69bd059da8cf335fbee896488f5c1e97" target="_top" xlink:title="Get the index of the first element. ">
<polygon fill="none" stroke="black" points="437.5,-164 437.5,-194 538.5,-194 538.5,-164 437.5,-164"/>
<text text-anchor="start" x="445.5" y="-182" font-family="Helvetica,sans-Serif" font-size="10.00">Connectivity::index</text>
<text text-anchor="middle" x="488" y="-171" font-family="Helvetica,sans-Serif" font-size="10.00">_offset</text>
</a>
</g>
</g>
<!-- Node3&#45;&gt;Node4 -->
<g id="edge3" class="edge"><title>Node3&#45;&gt;Node4</title>
<path fill="none" stroke="midnightblue" d="M344.784,-106.567C370,-119.41 415.407,-142.536 448.139,-159.208"/>
<polygon fill="midnightblue" stroke="midnightblue" points="446.931,-162.52 457.431,-163.94 450.108,-156.283 446.931,-162.52"/>
</g>
<!-- Node7 -->
<g id="node7" class="node"><title>Node7</title>
<g id="a_node7"><a xlink:href="classPane_afc3d6a08a6436efe1af8e83699d4ca53.html#afc3d6a08a6436efe1af8e83699d4ca53" target="_top" xlink:title="Is mesh of the pane structured? ">
<polygon fill="none" stroke="black" points="578.5,-87.5 578.5,-106.5 679.5,-106.5 679.5,-87.5 578.5,-87.5"/>
<text text-anchor="middle" x="629" y="-94.5" font-family="Helvetica,sans-Serif" font-size="10.00">Pane::is_structured</text>
</a>
</g>
</g>
<!-- Node3&#45;&gt;Node7 -->
<g id="edge6" class="edge"><title>Node3&#45;&gt;Node7</title>
<path fill="none" stroke="midnightblue" d="M369.909,-106.512C389.431,-110.277 412.758,-114.146 434,-116 481.818,-120.174 494.283,-121.208 542,-116 555.566,-114.519 570.126,-111.762 583.338,-108.797"/>
<polygon fill="midnightblue" stroke="midnightblue" points="584.197,-112.191 593.139,-106.508 582.605,-105.374 584.197,-112.191"/>
</g>
<!-- Node8 -->
<g id="node8" class="node"><title>Node8</title>
<g id="a_node8"><a xlink:href="classConnectivity_a3ab0f5b4dbc683714ef15ccfb16225ac.html#a3ab0f5b4dbc683714ef15ccfb16225ac" target="_top" xlink:title="Get a constant pointer to the connectivity array. ">
<polygon fill="none" stroke="black" points="434.5,-87.5 434.5,-106.5 541.5,-106.5 541.5,-87.5 434.5,-87.5"/>
<text text-anchor="middle" x="488" y="-94.5" font-family="Helvetica,sans-Serif" font-size="10.00">Connectivity::pointer</text>
</a>
</g>
</g>
<!-- Node3&#45;&gt;Node8 -->
<g id="edge7" class="edge"><title>Node3&#45;&gt;Node8</title>
<path fill="none" stroke="midnightblue" d="M398.024,-97C406.714,-97 415.538,-97 424.083,-97"/>
<polygon fill="midnightblue" stroke="midnightblue" points="424.342,-100.5 434.342,-97 424.342,-93.5001 424.342,-100.5"/>
</g>
<!-- Node9 -->
<g id="node9" class="node"><title>Node9</title>
<g id="a_node9"><a xlink:href="classPane_a78f646f49fb83340032b735b056a19d3.html#a78f646f49fb83340032b735b056a19d3" target="_top" xlink:title="Get the number of nodes in i&#45;dimension if the mesh is structured. ">
<polygon fill="none" stroke="black" points="452.5,-49.5 452.5,-68.5 523.5,-68.5 523.5,-49.5 452.5,-49.5"/>
<text text-anchor="middle" x="488" y="-56.5" font-family="Helvetica,sans-Serif" font-size="10.00">Pane::size_i</text>
</a>
</g>
</g>
<!-- Node3&#45;&gt;Node9 -->
<g id="edge8" class="edge"><title>Node3&#45;&gt;Node9</title>
<path fill="none" stroke="midnightblue" d="M366.627,-87.411C389.776,-81.9473 418.81,-75.0946 442.563,-69.4882"/>
<polygon fill="midnightblue" stroke="midnightblue" points="443.459,-72.8731 452.387,-67.1695 441.851,-66.0603 443.459,-72.8731"/>
</g>
<!-- Node10 -->
<g id="node10" class="node"><title>Node10</title>
<g id="a_node10"><a xlink:href="classConnectivity_a6b814939135364a0cd18ee54799897ee.html#a6b814939135364a0cd18ee54799897ee" target="_top" xlink:title="Get the number of nodes per element of the current connectivity table. ">
<polygon fill="none" stroke="black" points="440.5,-0 440.5,-30 535.5,-30 535.5,-0 440.5,-0"/>
<text text-anchor="start" x="448.5" y="-18" font-family="Helvetica,sans-Serif" font-size="10.00">Connectivity::size</text>
<text text-anchor="middle" x="488" y="-7" font-family="Helvetica,sans-Serif" font-size="10.00">_of_nodes_pe</text>
</a>
</g>
</g>
<!-- Node3&#45;&gt;Node10 -->
<g id="edge10" class="edge"><title>Node3&#45;&gt;Node10</title>
<path fill="none" stroke="midnightblue" d="M343.459,-87.476C364.71,-75.9554 401.756,-56.1036 434,-40 437.584,-38.2102 441.319,-36.3795 445.074,-34.5629"/>
<polygon fill="midnightblue" stroke="midnightblue" points="446.869,-37.5842 454.375,-30.1075 443.844,-31.2712 446.869,-37.5842"/>
</g>
<!-- Node5 -->
<g id="node5" class="node"><title>Node5</title>
<g id="a_node5"><a xlink:href="classConnectivity_aafbe63b1107c964c3673375df9a7472a.html#aafbe63b1107c964c3673375df9a7472a" target="_top" xlink:title="Root of use&#45;inheritance. ">
<polygon fill="none" stroke="black" points="582,-169.5 582,-188.5 676,-188.5 676,-169.5 582,-169.5"/>
<text text-anchor="middle" x="629" y="-176.5" font-family="Helvetica,sans-Serif" font-size="10.00">Connectivity::root</text>
</a>
</g>
</g>
<!-- Node4&#45;&gt;Node5 -->
<g id="edge4" class="edge"><title>Node4&#45;&gt;Node5</title>
<path fill="none" stroke="midnightblue" d="M538.79,-179C549.416,-179 560.712,-179 571.567,-179"/>
<polygon fill="midnightblue" stroke="midnightblue" points="571.803,-182.5 581.803,-179 571.802,-175.5 571.803,-182.5"/>
</g>
<!-- Node6 -->
<g id="node6" class="node"><title>Node6</title>
<g id="a_node6"><a xlink:href="classDataItem_a8200761ace321d2760f1c601505ccc87.html#a8200761ace321d2760f1c601505ccc87" target="_top" xlink:title="Root of use&#45;inheritance. ">
<polygon fill="none" stroke="black" points="716,-169.5 716,-188.5 796,-188.5 796,-169.5 716,-169.5"/>
<text text-anchor="middle" x="756" y="-176.5" font-family="Helvetica,sans-Serif" font-size="10.00">DataItem::root</text>
</a>
</g>
</g>
<!-- Node5&#45;&gt;Node6 -->
<g id="edge5" class="edge"><title>Node5&#45;&gt;Node6</title>
<path fill="none" stroke="midnightblue" d="M676.19,-179C685.894,-179 696.162,-179 705.966,-179"/>
<polygon fill="midnightblue" stroke="midnightblue" points="705.971,-182.5 715.971,-179 705.971,-175.5 705.971,-182.5"/>
</g>
<!-- Node9&#45;&gt;Node7 -->
<g id="edge9" class="edge"><title>Node9&#45;&gt;Node7</title>
<path fill="none" stroke="midnightblue" d="M523.717,-68.491C541.795,-73.4331 564.102,-79.5316 583.44,-84.8182"/>
<polygon fill="midnightblue" stroke="midnightblue" points="582.675,-88.2373 593.244,-87.4983 584.521,-81.4851 582.675,-88.2373"/>
</g>
</g>
</svg>
