<?xml version="1.0" encoding="UTF-8" standalone="no"?>
<!DOCTYPE svg PUBLIC "-//W3C//DTD SVG 1.1//EN"
 "http://www.w3.org/Graphics/SVG/1.1/DTD/svg11.dtd">
<!-- Generated by graphviz version 2.30.1 (20150305.2338)
 -->
<!-- Title: finalize Pages: 1 -->
<!--zoomable 510 -->
<svg id="main" version="1.1" xmlns="http://www.w3.org/2000/svg" xmlns:xlink="http://www.w3.org/1999/xlink" xml:space="preserve" onload="init(evt)">
<style type="text/css"><![CDATA[
.edge:hover path { stroke: red; }
.edge:hover polygon { stroke: red; fill: red; }
]]></style>
<script type="text/javascript"><![CDATA[
var edges = document.getElementsByTagName('g');
if (edges && edges.length) {
  for (var i=0;i<edges.length;i++) {
    if (edges[i].id.substr(0,4)=='edge') {
      edges[i].setAttribute('class','edge');
    }
  }
}
]]></script>
        <defs>
                <circle id="rim" cx="0" cy="0" r="7"/>
                <circle id="rim2" cx="0" cy="0" r="3.5"/>
                <g id="zoomPlus">
                        <use xlink:href="#rim" fill="#404040">
                                <set attributeName="fill" to="#808080" begin="zoomplus.mouseover" end="zoomplus.mouseout"/>
                        </use>
                        <path d="M-4,0h8M0,-4v8" fill="none" stroke="white" stroke-width="1.5" pointer-events="none"/>
                </g>
                <g id="zoomMin">
                        <use xlink:href="#rim" fill="#404040">
                                <set attributeName="fill" to="#808080" begin="zoomminus.mouseover" end="zoomminus.mouseout"/>
                        </use>
                        <path d="M-4,0h8" fill="none" stroke="white" stroke-width="1.5" pointer-events="none"/>
                </g>
                <g id="dirArrow">
                        <path fill="none" stroke="white" stroke-width="1.5" d="M0,-3.0v7 M-2.5,-0.5L0,-3.0L2.5,-0.5"/>
                </g>
               <g id="resetDef">
                       <use xlink:href="#rim2" fill="#404040">
                               <set attributeName="fill" to="#808080" begin="reset.mouseover" end="reset.mouseout"/>
                       </use>
               </g>
        </defs>

<script type="text/javascript">
var viewWidth = 804;
var viewHeight = 510;
var sectionId = 'dynsection-0';
</script>
<script xlink:href="svgpan.js"/>
<svg id="graph" class="graph">
<g id="viewport">
<title>finalize</title>
<!-- Node1 -->
<g id="node1" class="node"><title>Node1</title>
<polygon fill="#bfbfbf" stroke="black" points="0.5,-213.5 0.5,-232.5 47.5,-232.5 47.5,-213.5 0.5,-213.5"/>
<text text-anchor="middle" x="24" y="-220.5" font-family="Helvetica,sans-Serif" font-size="10.00">finalize</text>
</g>
<!-- Node2 -->
<g id="node2" class="node"><title>Node2</title>
<g id="a_node2"><a xlink:href="com__c_8h_a47ed797bddcdd0aabcd9f8e47f326744.html#a47ed797bddcdd0aabcd9f8e47f326744" target="_top" xlink:title="COM_finalize">
<polygon fill="none" stroke="black" points="84,-213.5 84,-232.5 160,-232.5 160,-213.5 84,-213.5"/>
<text text-anchor="middle" x="122" y="-220.5" font-family="Helvetica,sans-Serif" font-size="10.00">COM_finalize</text>
</a>
</g>
</g>
<!-- Node1&#45;&gt;Node2 -->
<g id="edge1" class="edge"><title>Node1&#45;&gt;Node2</title>
<path fill="none" stroke="midnightblue" d="M57.8687,-223C66.2125,-223 75.2358,-223 83.7787,-223"/>
<polygon fill="midnightblue" stroke="midnightblue" points="57.7507,-219.5 47.7507,-223 57.7506,-226.5 57.7507,-219.5"/>
</g>
<!-- Node3 -->
<g id="node3" class="node"><title>Node3</title>
<g id="a_node3"><a xlink:href="classElmerFoamFSI_1_1TestingObject_aa25f45634aafbb580d94840ad8452745.html#aa25f45634aafbb580d94840ad8452745" target="_top" xlink:title="Tears down the testing fixtures if needed. ">
<polygon fill="none" stroke="black" points="198.5,-415 198.5,-445 347.5,-445 347.5,-415 198.5,-415"/>
<text text-anchor="start" x="206.5" y="-433" font-family="Helvetica,sans-Serif" font-size="10.00">ElmerFoamFSI::TestingObject</text>
<text text-anchor="middle" x="273" y="-422" font-family="Helvetica,sans-Serif" font-size="10.00">::Epilogue</text>
</a>
</g>
</g>
<!-- Node2&#45;&gt;Node3 -->
<g id="edge2" class="edge"><title>Node2&#45;&gt;Node3</title>
<path fill="none" stroke="midnightblue" d="M127.249,-242.829C135.358,-276.532 155.912,-345.552 196,-389 206.065,-399.908 219.711,-408.511 232.663,-414.961"/>
<polygon fill="midnightblue" stroke="midnightblue" points="130.607,-241.81 124.966,-232.841 123.783,-243.37 130.607,-241.81"/>
</g>
<!-- Node9 -->
<g id="node9" class="node"><title>Node9</title>
<g id="a_node9"><a xlink:href="classSolverModuleDriver_a8a5d9e45fe83de57fd9597193f3b4533.html#a8a5d9e45fe83de57fd9597193f3b4533" target="_top" xlink:title="SolverModuleDriver\l::finalize">
<polygon fill="none" stroke="black" points="222,-350 222,-380 324,-380 324,-350 222,-350"/>
<text text-anchor="start" x="230" y="-368" font-family="Helvetica,sans-Serif" font-size="10.00">SolverModuleDriver</text>
<text text-anchor="middle" x="273" y="-357" font-family="Helvetica,sans-Serif" font-size="10.00">::finalize</text>
</a>
</g>
</g>
<!-- Node2&#45;&gt;Node9 -->
<g id="edge10" class="edge"><title>Node2&#45;&gt;Node9</title>
<path fill="none" stroke="midnightblue" d="M130.101,-242.224C140.612,-268.098 162.727,-313.888 196,-340 203.54,-345.917 212.536,-350.46 221.656,-353.941"/>
<polygon fill="midnightblue" stroke="midnightblue" points="133.309,-240.815 126.418,-232.767 126.786,-243.355 133.309,-240.815"/>
</g>
<!-- Node11 -->
<g id="node11" class="node"><title>Node11</title>
<g id="a_node11"><a xlink:href="namespaceSolverUtils_afac2f8d5e809b8fe85526f3e8ef1c100.html#afac2f8d5e809b8fe85526f3e8ef1c100" target="_top" xlink:title="SolverUtils::FinalizeInterface">
<polygon fill="none" stroke="black" points="201.5,-311.5 201.5,-330.5 344.5,-330.5 344.5,-311.5 201.5,-311.5"/>
<text text-anchor="middle" x="273" y="-318.5" font-family="Helvetica,sans-Serif" font-size="10.00">SolverUtils::FinalizeInterface</text>
</a>
</g>
</g>
<!-- Node2&#45;&gt;Node11 -->
<g id="edge12" class="edge"><title>Node2&#45;&gt;Node11</title>
<path fill="none" stroke="midnightblue" d="M135.025,-241.25C147.945,-259.397 170.143,-286.679 196,-302 202.552,-305.883 209.875,-308.976 217.317,-311.439"/>
<polygon fill="midnightblue" stroke="midnightblue" points="137.696,-238.958 129.144,-232.704 131.93,-242.926 137.696,-238.958"/>
</g>
<!-- Node12 -->
<g id="node12" class="node"><title>Node12</title>
<g id="a_node12"><a xlink:href="IcoFoamModuleDriver_8C_a0ddf1224851353fc92bfbff6f499fa97.html#a0ddf1224851353fc92bfbff6f499fa97" target="_top" xlink:title="main">
<polygon fill="none" stroke="black" points="254,-273.5 254,-292.5 292,-292.5 292,-273.5 254,-273.5"/>
<text text-anchor="middle" x="273" y="-280.5" font-family="Helvetica,sans-Serif" font-size="10.00">main</text>
</a>
</g>
</g>
<!-- Node2&#45;&gt;Node12 -->
<g id="edge13" class="edge"><title>Node2&#45;&gt;Node12</title>
<path fill="none" stroke="midnightblue" d="M145.744,-237.861C159.767,-246.487 178.382,-256.997 196,-264 215.084,-271.586 238.097,-276.833 253.763,-279.862"/>
<polygon fill="midnightblue" stroke="midnightblue" points="147.578,-234.88 137.249,-232.521 143.853,-240.806 147.578,-234.88"/>
</g>
<!-- Node13 -->
<g id="node13" class="node"><title>Node13</title>
<g id="a_node13"><a xlink:href="namespaceCOM_ac3c87a84f9357bebe23933f58fa16aef.html#ac3c87a84f9357bebe23933f58fa16aef" target="_top" xlink:title="COM::parallelProgram">
<polygon fill="none" stroke="black" points="216.5,-235.5 216.5,-254.5 329.5,-254.5 329.5,-235.5 216.5,-235.5"/>
<text text-anchor="middle" x="273" y="-242.5" font-family="Helvetica,sans-Serif" font-size="10.00">COM::parallelProgram</text>
</a>
</g>
</g>
<!-- Node2&#45;&gt;Node13 -->
<g id="edge14" class="edge"><title>Node2&#45;&gt;Node13</title>
<path fill="none" stroke="midnightblue" d="M170.524,-230.017C185.123,-232.173 201.321,-234.564 216.409,-236.792"/>
<polygon fill="midnightblue" stroke="midnightblue" points="170.619,-226.493 160.215,-228.495 169.596,-233.418 170.619,-226.493"/>
</g>
<!-- Node14 -->
<g id="node14" class="node"><title>Node14</title>
<g id="a_node14"><a xlink:href="namespaceElmerModuleDriver_a81f0cdc909567e8d6ef1546887dfa3e2.html#a81f0cdc909567e8d6ef1546887dfa3e2" target="_top" xlink:title="Drives the ElmerModuleDriver::TestObject. ">
<polygon fill="none" stroke="black" points="220,-186 220,-216 326,-216 326,-186 220,-186"/>
<text text-anchor="start" x="228" y="-204" font-family="Helvetica,sans-Serif" font-size="10.00">ElmerModuleDriver::</text>
<text text-anchor="middle" x="273" y="-193" font-family="Helvetica,sans-Serif" font-size="10.00">ParallelTest</text>
</a>
</g>
</g>
<!-- Node2&#45;&gt;Node14 -->
<g id="edge15" class="edge"><title>Node2&#45;&gt;Node14</title>
<path fill="none" stroke="midnightblue" d="M170.27,-216.021C186.039,-213.692 203.695,-211.085 219.816,-208.705"/>
<polygon fill="midnightblue" stroke="midnightblue" points="169.596,-212.582 160.215,-217.505 170.619,-219.507 169.596,-212.582"/>
</g>
<!-- Node16 -->
<g id="node16" class="node"><title>Node16</title>
<g id="a_node16"><a xlink:href="namespaceOpenFoamModuleDriver_a2dc08fd0ec5c64aa9b09d8bb8b65f88e.html#a2dc08fd0ec5c64aa9b09d8bb8b65f88e" target="_top" xlink:title="Drives the OpenFoamModuleDriver::TestObject. ">
<polygon fill="none" stroke="black" points="212,-137 212,-167 334,-167 334,-137 212,-137"/>
<text text-anchor="start" x="220" y="-155" font-family="Helvetica,sans-Serif" font-size="10.00">OpenFoamModuleDriver</text>
<text text-anchor="middle" x="273" y="-144" font-family="Helvetica,sans-Serif" font-size="10.00">::ParallelTest</text>
</a>
</g>
</g>
<!-- Node2&#45;&gt;Node16 -->
<g id="edge17" class="edge"><title>Node2&#45;&gt;Node16</title>
<path fill="none" stroke="midnightblue" d="M144.653,-207.379C158.772,-197.701 177.878,-185.532 196,-177 203.666,-173.391 211.993,-170.082 220.232,-167.136"/>
<polygon fill="midnightblue" stroke="midnightblue" points="142.349,-204.72 136.156,-213.317 146.358,-210.458 142.349,-204.72"/>
</g>
<!-- Node18 -->
<g id="node18" class="node"><title>Node18</title>
<g id="a_node18"><a xlink:href="namespaceOpenFoamModuleDriver_a98bd69551725493def1a31bfe72b0781.html#a98bd69551725493def1a31bfe72b0781" target="_top" xlink:title="Drives the OpenFoamModuleDriver::TestObject. ">
<polygon fill="none" stroke="black" points="212,-88 212,-118 334,-118 334,-88 212,-88"/>
<text text-anchor="start" x="220" y="-106" font-family="Helvetica,sans-Serif" font-size="10.00">OpenFoamModuleDriver</text>
<text text-anchor="middle" x="273" y="-95" font-family="Helvetica,sans-Serif" font-size="10.00">::Test</text>
</a>
</g>
</g>
<!-- Node2&#45;&gt;Node18 -->
<g id="edge19" class="edge"><title>Node2&#45;&gt;Node18</title>
<path fill="none" stroke="midnightblue" d="M132.769,-204.335C144.872,-182.947 167.435,-148.251 196,-128 201.439,-124.144 207.51,-120.855 213.785,-118.056"/>
<polygon fill="midnightblue" stroke="midnightblue" points="129.547,-202.931 127.823,-213.384 135.69,-206.288 129.547,-202.931"/>
</g>
<!-- Node20 -->
<g id="node20" class="node"><title>Node20</title>
<g id="a_node20"><a xlink:href="namespaceElmerModuleDriver_a657930328d3dc159ded2e9fd6473b2b6.html#a657930328d3dc159ded2e9fd6473b2b6" target="_top" xlink:title="Drives the ElmerModuleDriver::TestObject. ">
<polygon fill="none" stroke="black" points="210.5,-49.5 210.5,-68.5 335.5,-68.5 335.5,-49.5 210.5,-49.5"/>
<text text-anchor="middle" x="273" y="-56.5" font-family="Helvetica,sans-Serif" font-size="10.00">ElmerModuleDriver::Test</text>
</a>
</g>
</g>
<!-- Node2&#45;&gt;Node20 -->
<g id="edge21" class="edge"><title>Node2&#45;&gt;Node20</title>
<path fill="none" stroke="midnightblue" d="M127.507,-203.109C135.642,-171.855 155.802,-111.471 196,-79 201.413,-74.6276 207.685,-71.2035 214.26,-68.5235"/>
<polygon fill="midnightblue" stroke="midnightblue" points="124.015,-202.655 125.039,-213.2 130.815,-204.318 124.015,-202.655"/>
</g>
<!-- Node22 -->
<g id="node22" class="node"><title>Node22</title>
<g id="a_node22"><a xlink:href="classElmerFoamFSI_1_1SerialDriverProgram_af773e679e752224a4c774f6beef9030c.html#af773e679e752224a4c774f6beef9030c" target="_top" xlink:title="Destructor. ">
<polygon fill="none" stroke="black" points="196.5,-0 196.5,-30 349.5,-30 349.5,-0 196.5,-0"/>
<text text-anchor="start" x="204.5" y="-18" font-family="Helvetica,sans-Serif" font-size="10.00">ElmerFoamFSI::SerialDriver</text>
<text text-anchor="middle" x="273" y="-7" font-family="Helvetica,sans-Serif" font-size="10.00">Program::~SerialDriverProgram</text>
</a>
</g>
</g>
<!-- Node2&#45;&gt;Node22 -->
<g id="edge23" class="edge"><title>Node2&#45;&gt;Node22</title>
<path fill="none" stroke="midnightblue" d="M125.345,-203.44C130.829,-166.294 147.892,-85.2243 196,-40 200.149,-36.0994 204.919,-32.8069 210.004,-30.0279"/>
<polygon fill="midnightblue" stroke="midnightblue" points="121.861,-203.091 123.994,-213.469 128.798,-204.026 121.861,-203.091"/>
</g>
<!-- Node4 -->
<g id="node4" class="node"><title>Node4</title>
<g id="a_node4"><a xlink:href="classElmerFoamFSI_1_1TestingObject_a046f7ab06db0acf616b0d2bf3d3146aa.html#a046f7ab06db0acf616b0d2bf3d3146aa" target="_top" xlink:title="Runs all tests implemented by the ElmerFoamFSI::TestingObject. ">
<polygon fill="none" stroke="black" points="386.5,-472 386.5,-502 535.5,-502 535.5,-472 386.5,-472"/>
<text text-anchor="start" x="394.5" y="-490" font-family="Helvetica,sans-Serif" font-size="10.00">ElmerFoamFSI::TestingObject</text>
<text text-anchor="middle" x="461" y="-479" font-family="Helvetica,sans-Serif" font-size="10.00">::Process</text>
</a>
</g>
</g>
<!-- Node3&#45;&gt;Node4 -->
<g id="edge3" class="edge"><title>Node3&#45;&gt;Node4</title>
<path fill="none" stroke="midnightblue" d="M333.095,-448.11C358.103,-455.773 386.901,-464.599 410.736,-471.903"/>
<polygon fill="midnightblue" stroke="midnightblue" points="333.943,-444.709 323.356,-445.125 331.892,-451.402 333.943,-444.709"/>
</g>
<!-- Node7 -->
<g id="node7" class="node"><title>Node7</title>
<g id="a_node7"><a xlink:href="classElmerFoamFSI_1_1TestingObject_af1f07f14b9af7708e4264bb38937eed2.html#af1f07f14b9af7708e4264bb38937eed2" target="_top" xlink:title="Runs a test specified by name. ">
<polygon fill="none" stroke="black" points="386.5,-423 386.5,-453 535.5,-453 535.5,-423 386.5,-423"/>
<text text-anchor="start" x="394.5" y="-441" font-family="Helvetica,sans-Serif" font-size="10.00">ElmerFoamFSI::TestingObject</text>
<text text-anchor="middle" x="461" y="-430" font-family="Helvetica,sans-Serif" font-size="10.00">::RunTest</text>
</a>
</g>
</g>
<!-- Node3&#45;&gt;Node7 -->
<g id="edge6" class="edge"><title>Node3&#45;&gt;Node7</title>
<path fill="none" stroke="midnightblue" d="M357.797,-433.604C367.341,-434.015 377.015,-434.431 386.413,-434.835"/>
<polygon fill="midnightblue" stroke="midnightblue" points="357.653,-430.095 347.512,-433.162 357.352,-437.088 357.653,-430.095"/>
</g>
<!-- Node8 -->
<g id="node8" class="node"><title>Node8</title>
<g id="a_node8"><a xlink:href="classElmerFoamFSI_1_1TestingObject_a21159bd2efac623e5a5079f6a20f3444.html#a21159bd2efac623e5a5079f6a20f3444" target="_top" xlink:title="Runs a list of tests specified by name. ">
<polygon fill="none" stroke="black" points="572.5,-391 572.5,-421 721.5,-421 721.5,-391 572.5,-391"/>
<text text-anchor="start" x="580.5" y="-409" font-family="Helvetica,sans-Serif" font-size="10.00">ElmerFoamFSI::TestingObject</text>
<text text-anchor="middle" x="647" y="-398" font-family="Helvetica,sans-Serif" font-size="10.00">::ProcessTests</text>
</a>
</g>
</g>
<!-- Node3&#45;&gt;Node8 -->
<g id="edge9" class="edge"><title>Node3&#45;&gt;Node8</title>
<path fill="none" stroke="midnightblue" d="M357.592,-417.021C367.155,-415.845 376.777,-414.798 386,-414 448.764,-408.568 520.329,-406.681 572.467,-406.088"/>
<polygon fill="midnightblue" stroke="midnightblue" points="357.143,-413.55 347.667,-418.289 358.03,-420.494 357.143,-413.55"/>
</g>
<!-- Node5 -->
<g id="node5" class="node"><title>Node5</title>
<g id="a_node5"><a xlink:href="namespaceElmerFoamFSI_aeb590657609088b8ab12a5cbd164fcfa.html#aeb590657609088b8ab12a5cbd164fcfa" target="_top" xlink:title="Drives the ElmerFoamFSI::TestObject. ">
<polygon fill="none" stroke="black" points="593,-464.5 593,-483.5 701,-483.5 701,-464.5 593,-464.5"/>
<text text-anchor="middle" x="647" y="-471.5" font-family="Helvetica,sans-Serif" font-size="10.00">ElmerFoamFSI::Test</text>
</a>
</g>
</g>
<!-- Node4&#45;&gt;Node5 -->
<g id="edge4" class="edge"><title>Node4&#45;&gt;Node5</title>
<path fill="none" stroke="midnightblue" d="M545.506,-481.1C561.655,-479.959 578.156,-478.793 592.996,-477.745"/>
<polygon fill="midnightblue" stroke="midnightblue" points="545.243,-477.61 535.515,-481.806 545.737,-484.592 545.243,-477.61"/>
</g>
<!-- Node6 -->
<g id="node6" class="node"><title>Node6</title>
<g id="a_node6"><a xlink:href="TestElmerFoamFSI_8C_a0ddf1224851353fc92bfbff6f499fa97.html#a0ddf1224851353fc92bfbff6f499fa97" target="_top" xlink:title="main">
<polygon fill="none" stroke="black" points="758,-464.5 758,-483.5 796,-483.5 796,-464.5 758,-464.5"/>
<text text-anchor="middle" x="777" y="-471.5" font-family="Helvetica,sans-Serif" font-size="10.00">main</text>
</a>
</g>
</g>
<!-- Node5&#45;&gt;Node6 -->
<g id="edge5" class="edge"><title>Node5&#45;&gt;Node6</title>
<path fill="none" stroke="midnightblue" d="M711.193,-474C728.293,-474 745.469,-474 757.838,-474"/>
<polygon fill="midnightblue" stroke="midnightblue" points="711.172,-470.5 701.172,-474 711.171,-477.5 711.172,-470.5"/>
</g>
<!-- Node7&#45;&gt;Node8 -->
<g id="edge7" class="edge"><title>Node7&#45;&gt;Node8</title>
<path fill="none" stroke="midnightblue" d="M545.533,-423.473C554.462,-421.92 563.498,-420.348 572.302,-418.817"/>
<polygon fill="midnightblue" stroke="midnightblue" points="544.767,-420.053 535.515,-425.215 545.967,-426.95 544.767,-420.053"/>
</g>
<!-- Node7&#45;&gt;Node5 -->
<g id="edge8" class="edge"><title>Node7&#45;&gt;Node5</title>
<path fill="none" stroke="midnightblue" d="M545.354,-454.308C563.176,-457.795 581.435,-461.368 597.423,-464.496"/>
<polygon fill="midnightblue" stroke="midnightblue" points="546.001,-450.869 535.515,-452.383 544.657,-457.738 546.001,-450.869"/>
</g>
<!-- Node10 -->
<g id="node10" class="node"><title>Node10</title>
<g id="a_node10"><a xlink:href="ElmerFSI_2trunk_2src_2SolverModuleDriver_8C_a0ddf1224851353fc92bfbff6f499fa97.html#a0ddf1224851353fc92bfbff6f499fa97" target="_top" xlink:title="main">
<polygon fill="none" stroke="black" points="442,-346.5 442,-365.5 480,-365.5 480,-346.5 442,-346.5"/>
<text text-anchor="middle" x="461" y="-353.5" font-family="Helvetica,sans-Serif" font-size="10.00">main</text>
</a>
</g>
</g>
<!-- Node9&#45;&gt;Node10 -->
<g id="edge11" class="edge"><title>Node9&#45;&gt;Node10</title>
<path fill="none" stroke="midnightblue" d="M334.634,-362.066C371.983,-360.259 417.289,-358.067 441.918,-356.875"/>
<polygon fill="midnightblue" stroke="midnightblue" points="334.153,-358.585 324.334,-362.564 334.492,-365.577 334.153,-358.585"/>
</g>
<!-- Node15 -->
<g id="node15" class="node"><title>Node15</title>
<g id="a_node15"><a xlink:href="ParallelTestElmerModuleDriver_8C_a0ddf1224851353fc92bfbff6f499fa97.html#a0ddf1224851353fc92bfbff6f499fa97" target="_top" xlink:title="main">
<polygon fill="none" stroke="black" points="442,-191.5 442,-210.5 480,-210.5 480,-191.5 442,-191.5"/>
<text text-anchor="middle" x="461" y="-198.5" font-family="Helvetica,sans-Serif" font-size="10.00">main</text>
</a>
</g>
</g>
<!-- Node14&#45;&gt;Node15 -->
<g id="edge16" class="edge"><title>Node14&#45;&gt;Node15</title>
<path fill="none" stroke="midnightblue" d="M336.516,-201C373.471,-201 417.648,-201 441.875,-201"/>
<polygon fill="midnightblue" stroke="midnightblue" points="336.306,-197.5 326.306,-201 336.306,-204.5 336.306,-197.5"/>
</g>
<!-- Node17 -->
<g id="node17" class="node"><title>Node17</title>
<g id="a_node17"><a xlink:href="ParallelTestOpenFoamModuleDriver_8C_a0ddf1224851353fc92bfbff6f499fa97.html#a0ddf1224851353fc92bfbff6f499fa97" target="_top" xlink:title="main">
<polygon fill="none" stroke="black" points="442,-142.5 442,-161.5 480,-161.5 480,-142.5 442,-142.5"/>
<text text-anchor="middle" x="461" y="-149.5" font-family="Helvetica,sans-Serif" font-size="10.00">main</text>
</a>
</g>
</g>
<!-- Node16&#45;&gt;Node17 -->
<g id="edge18" class="edge"><title>Node16&#45;&gt;Node17</title>
<path fill="none" stroke="midnightblue" d="M344.378,-152C379.498,-152 419.201,-152 441.752,-152"/>
<polygon fill="midnightblue" stroke="midnightblue" points="344.132,-148.5 334.132,-152 344.132,-155.5 344.132,-148.5"/>
</g>
<!-- Node19 -->
<g id="node19" class="node"><title>Node19</title>
<g id="a_node19"><a xlink:href="TestOpenFoamModuleDriver_8C_a0ddf1224851353fc92bfbff6f499fa97.html#a0ddf1224851353fc92bfbff6f499fa97" target="_top" xlink:title="main">
<polygon fill="none" stroke="black" points="442,-93.5 442,-112.5 480,-112.5 480,-93.5 442,-93.5"/>
<text text-anchor="middle" x="461" y="-100.5" font-family="Helvetica,sans-Serif" font-size="10.00">main</text>
</a>
</g>
</g>
<!-- Node18&#45;&gt;Node19 -->
<g id="edge20" class="edge"><title>Node18&#45;&gt;Node19</title>
<path fill="none" stroke="midnightblue" d="M344.378,-103C379.498,-103 419.201,-103 441.752,-103"/>
<polygon fill="midnightblue" stroke="midnightblue" points="344.132,-99.5001 334.132,-103 344.132,-106.5 344.132,-99.5001"/>
</g>
<!-- Node21 -->
<g id="node21" class="node"><title>Node21</title>
<g id="a_node21"><a xlink:href="TestElmerModuleDriver_8C_a0ddf1224851353fc92bfbff6f499fa97.html#a0ddf1224851353fc92bfbff6f499fa97" target="_top" xlink:title="main">
<polygon fill="none" stroke="black" points="442,-49.5 442,-68.5 480,-68.5 480,-49.5 442,-49.5"/>
<text text-anchor="middle" x="461" y="-56.5" font-family="Helvetica,sans-Serif" font-size="10.00">main</text>
</a>
</g>
</g>
<!-- Node20&#45;&gt;Node21 -->
<g id="edge22" class="edge"><title>Node20&#45;&gt;Node21</title>
<path fill="none" stroke="midnightblue" d="M345.814,-59C380.524,-59 419.392,-59 441.653,-59"/>
<polygon fill="midnightblue" stroke="midnightblue" points="345.677,-55.5001 335.677,-59 345.677,-62.5001 345.677,-55.5001"/>
</g>
</g>
</svg>
        <g id="navigator" transform="translate(0 0)" fill="#404254">
                <rect fill="#f2f5e9" fill-opacity="0.5" stroke="#606060" stroke-width=".5" x="0" y="0" width="60" height="60"/>
                <use id="zoomplus" xlink:href="#zoomPlus" x="17" y="9" onmousedown="handleZoom(evt,'in')"/>
                <use id="zoomminus" xlink:href="#zoomMin" x="42" y="9" onmousedown="handleZoom(evt,'out')"/>
                <use id="reset" xlink:href="#resetDef" x="30" y="36" onmousedown="handleReset()"/>
                <g id="arrowUp" xlink:href="#dirArrow" transform="translate(30 24)" onmousedown="handlePan(0,-1)">
                  <use xlink:href="#rim" fill="#404040">
                        <set attributeName="fill" to="#808080" begin="arrowUp.mouseover" end="arrowUp.mouseout"/>
                  </use>
                  <path fill="none" stroke="white" stroke-width="1.5" d="M0,-3.0v7 M-2.5,-0.5L0,-3.0L2.5,-0.5"/>
                </g>
                <g id="arrowRight" xlink:href="#dirArrow" transform="rotate(90) translate(36 -43)" onmousedown="handlePan(1,0)">
                  <use xlink:href="#rim" fill="#404040">
                        <set attributeName="fill" to="#808080" begin="arrowRight.mouseover" end="arrowRight.mouseout"/>
                  </use>
                  <path fill="none" stroke="white" stroke-width="1.5" d="M0,-3.0v7 M-2.5,-0.5L0,-3.0L2.5,-0.5"/>
                </g>
                <g id="arrowDown" xlink:href="#dirArrow" transform="rotate(180) translate(-30 -48)" onmousedown="handlePan(0,1)">
                  <use xlink:href="#rim" fill="#404040">
                        <set attributeName="fill" to="#808080" begin="arrowDown.mouseover" end="arrowDown.mouseout"/>
                  </use>
                  <path fill="none" stroke="white" stroke-width="1.5" d="M0,-3.0v7 M-2.5,-0.5L0,-3.0L2.5,-0.5"/>
                </g>
                <g id="arrowLeft" xlink:href="#dirArrow" transform="rotate(270) translate(-36 17)" onmousedown="handlePan(-1,0)">
                  <use xlink:href="#rim" fill="#404040">
                        <set attributeName="fill" to="#808080" begin="arrowLeft.mouseover" end="arrowLeft.mouseout"/>
                  </use>
                  <path fill="none" stroke="white" stroke-width="1.5" d="M0,-3.0v7 M-2.5,-0.5L0,-3.0L2.5,-0.5"/>
                </g>
        </g>
        <svg viewBox="0 0 15 15" width="100%" height="30px" preserveAspectRatio="xMaxYMin meet">
         <g id="arrow_out" transform="scale(0.3 0.3)">
          <a xlink:href="classCOM_1_1COM__base_aa77ce2c05f3e9d82815db88996cfc1ed_aa77ce2c05f3e9d82815db88996cfc1ed_icgraph_org.svg" target="_base">
           <rect id="button" ry="5" rx="5" y="6" x="6" height="38" width="38"
                fill="#f2f5e9" fill-opacity="0.5" stroke="#606060" stroke-width="1.0"/>
           <path id="arrow"
             d="M 11.500037,31.436501 C 11.940474,20.09759 22.043105,11.32322 32.158766,21.979434 L 37.068811,17.246167 C 37.068811,17.246167 37.088388,32 37.088388,32 L 22.160133,31.978069 C 22.160133,31.978069 26.997745,27.140456 26.997745,27.140456 C 18.528582,18.264221 13.291696,25.230495 11.500037,31.436501 z"
             style="fill:#404040;"/>
          </a>
         </g>
        </svg>
</svg>
