<?xml version="1.0" encoding="UTF-8" standalone="no"?>
<!DOCTYPE svg PUBLIC "-//W3C//DTD SVG 1.1//EN"
 "http://www.w3.org/Graphics/SVG/1.1/DTD/svg11.dtd">
<!-- Generated by graphviz version 2.30.1 (20150305.2338)
 -->
<!-- Title: AddArgument Pages: 1 -->
<svg width="284pt" height="137pt"
 viewBox="0.00 0.00 284.00 137.00" xmlns="http://www.w3.org/2000/svg" xmlns:xlink="http://www.w3.org/1999/xlink">
<g id="graph0" class="graph" transform="scale(1 1) rotate(0) translate(4 133)">
<title>AddArgument</title>
<!-- Node1 -->
<g id="node1" class="node"><title>Node1</title>
<polygon fill="#bfbfbf" stroke="black" points="0,-60.5 0,-79.5 76,-79.5 76,-60.5 0,-60.5"/>
<text text-anchor="middle" x="38" y="-67.5" font-family="Helvetica,sans-Serif" font-size="10.00">AddArgument</text>
</g>
<!-- Node2 -->
<g id="node2" class="node"><title>Node2</title>
<g id="a_node2"><a xlink:href="classIRAD_1_1DDFComLine_a98b1050f09da390896f964fb7a892391.html#a98b1050f09da390896f964fb7a892391" target="_top" xlink:title="virtual function for program specific Initialization. ">
<polygon fill="none" stroke="black" points="119.5,-109.5 119.5,-128.5 268.5,-128.5 268.5,-109.5 119.5,-109.5"/>
<text text-anchor="middle" x="194" y="-116.5" font-family="Helvetica,sans-Serif" font-size="10.00">IRAD::DDFComLine::Initialize</text>
</a>
</g>
</g>
<!-- Node1&#45;&gt;Node2 -->
<g id="edge1" class="edge"><title>Node1&#45;&gt;Node2</title>
<path fill="none" stroke="midnightblue" d="M69.1542,-83.6592C82.1592,-89.2174 97.651,-95.4011 112,-100 123.004,-103.527 135.041,-106.705 146.39,-109.408"/>
<polygon fill="midnightblue" stroke="midnightblue" points="70.32,-80.3495 59.7541,-79.5673 67.5261,-86.7677 70.32,-80.3495"/>
</g>
<!-- Node3 -->
<g id="node3" class="node"><title>Node3</title>
<g id="a_node3"><a xlink:href="classElmerFoamFSI_1_1ExampleProgram_1_1ExampleProgramComLine_a98b1050f09da390896f964fb7a892391.html#a98b1050f09da390896f964fb7a892391" target="_top" xlink:title="This is where the actual options and arguments are described. ">
<polygon fill="none" stroke="black" points="112,-49.5 112,-90.5 276,-90.5 276,-49.5 112,-49.5"/>
<text text-anchor="start" x="120" y="-78.5" font-family="Helvetica,sans-Serif" font-size="10.00">ElmerFoamFSI::ExampleProgram</text>
<text text-anchor="start" x="120" y="-67.5" font-family="Helvetica,sans-Serif" font-size="10.00">::ExampleProgramComLine::</text>
<text text-anchor="middle" x="194" y="-56.5" font-family="Helvetica,sans-Serif" font-size="10.00">Initialize</text>
</a>
</g>
</g>
<!-- Node1&#45;&gt;Node3 -->
<g id="edge2" class="edge"><title>Node1&#45;&gt;Node3</title>
<path fill="none" stroke="midnightblue" d="M86.301,-70C94.4619,-70 103.149,-70 111.906,-70"/>
<polygon fill="midnightblue" stroke="midnightblue" points="86.2791,-66.5001 76.2791,-70 86.2791,-73.5001 86.2791,-66.5001"/>
</g>
<!-- Node4 -->
<g id="node4" class="node"><title>Node4</title>
<g id="a_node4"><a xlink:href="classElmerFoamFSI_1_1DriverComLine_a98b1050f09da390896f964fb7a892391.html#a98b1050f09da390896f964fb7a892391" target="_top" xlink:title="This is where the actual options and arguments are described. ">
<polygon fill="none" stroke="black" points="117,-0 117,-30 271,-30 271,-0 117,-0"/>
<text text-anchor="start" x="125" y="-18" font-family="Helvetica,sans-Serif" font-size="10.00">ElmerFoamFSI::DriverComLine</text>
<text text-anchor="middle" x="194" y="-7" font-family="Helvetica,sans-Serif" font-size="10.00">::Initialize</text>
</a>
</g>
</g>
<!-- Node1&#45;&gt;Node4 -->
<g id="edge3" class="edge"><title>Node1&#45;&gt;Node4</title>
<path fill="none" stroke="midnightblue" d="M70.1707,-56.4628C83.0217,-51.0725 98.1263,-44.9802 112,-40 121.558,-36.5691 131.848,-33.1715 141.781,-30.0385"/>
<polygon fill="midnightblue" stroke="midnightblue" points="68.6814,-53.2925 60.8404,-60.4178 71.4134,-59.7374 68.6814,-53.2925"/>
</g>
</g>
</svg>
