<?xml version="1.0" encoding="UTF-8" standalone="no"?>
<!DOCTYPE svg PUBLIC "-//W3C//DTD SVG 1.1//EN"
 "http://www.w3.org/Graphics/SVG/1.1/DTD/svg11.dtd">
<!-- Generated by graphviz version 2.30.1 (20150305.2338)
 -->
<!-- Title: fsifoam_module Pages: 1 -->
<svg width="700pt" height="371pt"
 viewBox="0.00 0.00 700.00 370.81" xmlns="http://www.w3.org/2000/svg" xmlns:xlink="http://www.w3.org/1999/xlink">
<g id="graph0" class="graph" transform="scale(1 1) rotate(0) translate(4 366.805)">
<title>fsifoam_module</title>
<!-- Node1 -->
<g id="node1" class="node"><title>Node1</title>
<polygon fill="#bfbfbf" stroke="black" points="606,-232.305 606,-251.305 692,-251.305 692,-232.305 606,-232.305"/>
<text text-anchor="middle" x="649" y="-239.305" font-family="Helvetica,sans-Serif" font-size="10.00">fsifoam_module</text>
</g>
<!-- Node2 -->
<g id="node2" class="node"><title>Node2</title>
<polygon fill="none" stroke="#bfbfbf" points="346,-343.305 346,-362.305 420,-362.305 420,-343.305 346,-343.305"/>
<text text-anchor="middle" x="383" y="-350.305" font-family="Helvetica,sans-Serif" font-size="10.00">COM_Object</text>
</g>
<!-- Node2&#45;&gt;Node1 -->
<g id="edge1" class="edge"><title>Node2&#45;&gt;Node1</title>
<path fill="none" stroke="midnightblue" d="M430.291,-347.833C473.923,-345.525 539.647,-339.641 588,-310.805 612.651,-296.104 630.788,-267.107 640.343,-251.451"/>
<polygon fill="midnightblue" stroke="midnightblue" points="430.059,-344.34 420.244,-348.329 430.404,-351.332 430.059,-344.34"/>
</g>
<!-- Node2&#45;&gt;Node1 -->
<g id="edge3" class="edge"><title>Node2&#45;&gt;Node1</title>
<path fill="none" stroke="midnightblue" d="M430.291,-361.688C473.923,-363.525 539.647,-357.641 588,-328.805 618.374,-310.692 638.857,-270.873 645.585,-251.535"/>
<polygon fill="midnightblue" stroke="midnightblue" points="430.43,-358.19 420.244,-361.105 430.024,-365.178 430.43,-358.19"/>
</g>
<!-- Node3 -->
<g id="node3" class="node"><title>Node3</title>
<polygon fill="none" stroke="#bfbfbf" points="348,-305.305 348,-324.305 418,-324.305 418,-305.305 348,-305.305"/>
<text text-anchor="middle" x="383" y="-312.305" font-family="Helvetica,sans-Serif" font-size="10.00">SolverAgent</text>
</g>
<!-- Node3&#45;&gt;Node1 -->
<g id="edge2" class="edge"><title>Node3&#45;&gt;Node1</title>
<path fill="none" stroke="midnightblue" d="M428.153,-318.125C470.843,-319.607 536.456,-317.247 588,-294.805 610.173,-285.152 629.923,-264.136 640.301,-251.664"/>
<polygon fill="midnightblue" stroke="midnightblue" points="428.224,-314.625 418.082,-317.689 427.921,-321.618 428.224,-314.625"/>
</g>
<!-- Node4 -->
<g id="node4" class="node"><title>Node4</title>
<polygon fill="none" stroke="#bfbfbf" points="348,-267.305 348,-286.305 418,-286.305 418,-267.305 348,-267.305"/>
<text text-anchor="middle" x="383" y="-274.305" font-family="Helvetica,sans-Serif" font-size="10.00">SolverAgent</text>
</g>
<!-- Node4&#45;&gt;Node1 -->
<g id="edge4" class="edge"><title>Node4&#45;&gt;Node1</title>
<path fill="none" stroke="midnightblue" d="M428.417,-282.953C470.324,-287.274 534.521,-290.045 588,-275.805 605.817,-271.061 623.911,-259.721 635.501,-251.437"/>
<polygon fill="midnightblue" stroke="midnightblue" points="428.587,-279.451 418.263,-281.83 427.818,-286.408 428.587,-279.451"/>
</g>
<!-- Node5 -->
<g id="node5" class="node"><title>Node5</title>
<polygon fill="none" stroke="#bfbfbf" points="343,-227.305 343,-246.305 423,-246.305 423,-227.305 343,-227.305"/>
<text text-anchor="middle" x="383" y="-234.305" font-family="Helvetica,sans-Serif" font-size="10.00">map&lt; int, int &gt;</text>
</g>
<!-- Node5&#45;&gt;Node1 -->
<g id="edge5" class="edge"><title>Node5&#45;&gt;Node1</title>
<path fill="none" stroke="#9a32cd" stroke-dasharray="5,2" d="M433.432,-237.742C483.154,-238.683 558.993,-240.12 605.924,-241.008"/>
<polygon fill="#9a32cd" stroke="#9a32cd" points="433.303,-234.239 423.238,-237.548 433.17,-241.237 433.303,-234.239"/>
<text text-anchor="middle" x="523" y="-264.805" font-family="Helvetica,sans-Serif" font-size="10.00"> interfaceToFoamNodeMap</text>
<text text-anchor="middle" x="523" y="-253.805" font-family="Helvetica,sans-Serif" font-size="10.00">surfaceNodeMap</text>
<text text-anchor="middle" x="523" y="-242.805" font-family="Helvetica,sans-Serif" font-size="10.00">foamGlobalToPatchNodeMap</text>
</g>
<!-- Node6 -->
<g id="node6" class="node"><title>Node6</title>
<g id="a_node6"><a xlink:title="STL class. ">
<polygon fill="none" stroke="#bfbfbf" points="127,-220.305 127,-239.305 199,-239.305 199,-220.305 127,-220.305"/>
<text text-anchor="middle" x="163" y="-227.305" font-family="Helvetica,sans-Serif" font-size="10.00">map&lt; K, T &gt;</text>
</a>
</g>
</g>
<!-- Node6&#45;&gt;Node5 -->
<g id="edge6" class="edge"><title>Node6&#45;&gt;Node5</title>
<path fill="none" stroke="orange" stroke-dasharray="5,2" d="M209.144,-231.255C248.521,-232.519 305.07,-234.335 342.636,-235.541"/>
<polygon fill="orange" stroke="orange" points="209.133,-227.753 199.025,-230.93 208.908,-234.749 209.133,-227.753"/>
<text text-anchor="middle" x="271" y="-236.805" font-family="Helvetica,sans-Serif" font-size="10.00"> &lt; int, int &gt;</text>
</g>
<!-- Node7 -->
<g id="node7" class="node"><title>Node7</title>
<polygon fill="none" stroke="#bfbfbf" points="0.5,-220.305 0.5,-239.305 29.5,-239.305 29.5,-220.305 0.5,-220.305"/>
<text text-anchor="middle" x="15" y="-227.305" font-family="Helvetica,sans-Serif" font-size="10.00">K</text>
</g>
<!-- Node7&#45;&gt;Node6 -->
<g id="edge7" class="edge"><title>Node7&#45;&gt;Node6</title>
<path fill="none" stroke="#9a32cd" stroke-dasharray="5,2" d="M39.8975,-229.805C63.493,-229.805 99.8481,-229.805 126.758,-229.805"/>
<polygon fill="#9a32cd" stroke="#9a32cd" points="39.7354,-226.305 29.7353,-229.805 39.7353,-233.305 39.7354,-226.305"/>
<text text-anchor="middle" x="70" y="-232.805" font-family="Helvetica,sans-Serif" font-size="10.00"> keys</text>
</g>
<!-- Node8 -->
<g id="node8" class="node"><title>Node8</title>
<polygon fill="none" stroke="#bfbfbf" points="0.5,-167.305 0.5,-186.305 29.5,-186.305 29.5,-167.305 0.5,-167.305"/>
<text text-anchor="middle" x="15" y="-174.305" font-family="Helvetica,sans-Serif" font-size="10.00">T</text>
</g>
<!-- Node8&#45;&gt;Node6 -->
<g id="edge8" class="edge"><title>Node8&#45;&gt;Node6</title>
<path fill="none" stroke="#9a32cd" stroke-dasharray="5,2" d="M39.2601,-185.249C65.5405,-194.789 108.221,-210.283 135.695,-220.256"/>
<polygon fill="#9a32cd" stroke="#9a32cd" points="40.3295,-181.914 29.7353,-181.791 37.9408,-188.494 40.3295,-181.914"/>
<text text-anchor="middle" x="70" y="-205.805" font-family="Helvetica,sans-Serif" font-size="10.00"> elements</text>
</g>
<!-- Node12 -->
<g id="node12" class="node"><title>Node12</title>
<g id="a_node12"><a xlink:title="STL class. ">
<polygon fill="none" stroke="#bfbfbf" points="129,-151.305 129,-170.305 197,-170.305 197,-151.305 129,-151.305"/>
<text text-anchor="middle" x="163" y="-158.305" font-family="Helvetica,sans-Serif" font-size="10.00">vector&lt; T &gt;</text>
</a>
</g>
</g>
<!-- Node8&#45;&gt;Node12 -->
<g id="edge13" class="edge"><title>Node8&#45;&gt;Node12</title>
<path fill="none" stroke="#9a32cd" stroke-dasharray="5,2" d="M38.765,-164.712C41.8013,-163.525 44.9281,-162.504 48,-161.805 74.6339,-155.75 105.68,-155.932 128.642,-157.387"/>
<polygon fill="#9a32cd" stroke="#9a32cd" points="37.2237,-161.568 29.5524,-168.876 40.1065,-167.947 37.2237,-161.568"/>
<text text-anchor="middle" x="70" y="-164.805" font-family="Helvetica,sans-Serif" font-size="10.00"> elements</text>
</g>
<!-- Node9 -->
<g id="node9" class="node"><title>Node9</title>
<g id="a_node9"><a xlink:title="STL class. ">
<polygon fill="none" stroke="#bfbfbf" points="362.5,-8.30533 362.5,-27.3053 403.5,-27.3053 403.5,-8.30533 362.5,-8.30533"/>
<text text-anchor="middle" x="383" y="-15.3053" font-family="Helvetica,sans-Serif" font-size="10.00">string</text>
</a>
</g>
</g>
<!-- Node9&#45;&gt;Node1 -->
<g id="edge9" class="edge"><title>Node9&#45;&gt;Node1</title>
<path fill="none" stroke="#9a32cd" stroke-dasharray="5,2" d="M413.646,-9.68959C457.007,0.248553 537.991,11.2268 588,-28.8053 621.067,-55.2751 641.684,-194.168 646.766,-232.18"/>
<polygon fill="#9a32cd" stroke="#9a32cd" points="412.618,-6.33738 403.726,-12.0975 414.269,-13.1399 412.618,-6.33738"/>
<text text-anchor="middle" x="523" y="-31.8053" font-family="Helvetica,sans-Serif" font-size="10.00"> my_window_name</text>
</g>
<!-- Node10 -->
<g id="node10" class="node"><title>Node10</title>
<g id="a_node10"><a xlink:title="STL class. ">
<polygon fill="none" stroke="#bfbfbf" points="110,-8.30533 110,-27.3053 216,-27.3053 216,-8.30533 110,-8.30533"/>
<text text-anchor="middle" x="163" y="-15.3053" font-family="Helvetica,sans-Serif" font-size="10.00">basic_string&lt; char &gt;</text>
</a>
</g>
</g>
<!-- Node10&#45;&gt;Node9 -->
<g id="edge10" class="edge"><title>Node10&#45;&gt;Node9</title>
<path fill="none" stroke="midnightblue" d="M226.398,-17.8053C272.387,-17.8053 332.01,-17.8053 362.367,-17.8053"/>
<polygon fill="midnightblue" stroke="midnightblue" points="226.216,-14.3054 216.216,-17.8053 226.216,-21.3054 226.216,-14.3054"/>
</g>
<!-- Node11 -->
<g id="node11" class="node"><title>Node11</title>
<polygon fill="none" stroke="#bfbfbf" points="347,-188.305 347,-207.305 419,-207.305 419,-188.305 347,-188.305"/>
<text text-anchor="middle" x="383" y="-195.305" font-family="Helvetica,sans-Serif" font-size="10.00">vector&lt; int &gt;</text>
</g>
<!-- Node11&#45;&gt;Node1 -->
<g id="edge11" class="edge"><title>Node11&#45;&gt;Node1</title>
<path fill="none" stroke="#9a32cd" stroke-dasharray="5,2" d="M429.516,-195.865C471.428,-195.259 534.954,-197.348 588,-211.805 604.18,-216.215 621.142,-225.156 632.887,-232.135"/>
<polygon fill="#9a32cd" stroke="#9a32cd" points="429.273,-192.369 419.346,-196.072 429.415,-199.368 429.273,-192.369"/>
<text text-anchor="middle" x="523" y="-225.805" font-family="Helvetica,sans-Serif" font-size="10.00"> initStatus</text>
<text text-anchor="middle" x="523" y="-214.805" font-family="Helvetica,sans-Serif" font-size="10.00">runStatus</text>
</g>
<!-- Node12&#45;&gt;Node11 -->
<g id="edge12" class="edge"><title>Node12&#45;&gt;Node11</title>
<path fill="none" stroke="orange" stroke-dasharray="5,2" d="M206.913,-169.693C215.852,-171.458 225.223,-173.246 234,-174.805 272.531,-181.649 316.909,-188.395 346.943,-192.793"/>
<polygon fill="orange" stroke="orange" points="207.552,-166.251 197.06,-167.722 206.18,-173.115 207.552,-166.251"/>
<text text-anchor="middle" x="271" y="-188.805" font-family="Helvetica,sans-Serif" font-size="10.00"> &lt; int &gt;</text>
</g>
<!-- Node13 -->
<g id="node13" class="node"><title>Node13</title>
<polygon fill="none" stroke="#bfbfbf" points="326,-150.305 326,-169.305 440,-169.305 440,-150.305 326,-150.305"/>
<text text-anchor="middle" x="383" y="-157.305" font-family="Helvetica,sans-Serif" font-size="10.00">vector&lt; unsigned int &gt;</text>
</g>
<!-- Node12&#45;&gt;Node13 -->
<g id="edge15" class="edge"><title>Node12&#45;&gt;Node13</title>
<path fill="none" stroke="orange" stroke-dasharray="5,2" d="M207.181,-160.607C241.13,-160.452 288.696,-160.233 325.643,-160.064"/>
<polygon fill="orange" stroke="orange" points="207.093,-157.108 197.11,-160.653 207.125,-164.107 207.093,-157.108"/>
<text text-anchor="middle" x="271" y="-162.805" font-family="Helvetica,sans-Serif" font-size="10.00"> &lt; unsigned int &gt;</text>
</g>
<!-- Node14 -->
<g id="node14" class="node"><title>Node14</title>
<polygon fill="none" stroke="#bfbfbf" points="338,-80.3053 338,-99.3053 428,-99.3053 428,-80.3053 338,-80.3053"/>
<text text-anchor="middle" x="383" y="-87.3053" font-family="Helvetica,sans-Serif" font-size="10.00">vector&lt; double &gt;</text>
</g>
<!-- Node12&#45;&gt;Node14 -->
<g id="edge17" class="edge"><title>Node12&#45;&gt;Node14</title>
<path fill="none" stroke="orange" stroke-dasharray="5,2" d="M202.956,-148.118C245.92,-134.125 314.07,-111.929 352.718,-99.3421"/>
<polygon fill="orange" stroke="orange" points="201.825,-144.805 193.4,-151.23 203.993,-151.461 201.825,-144.805"/>
<text text-anchor="middle" x="271" y="-140.805" font-family="Helvetica,sans-Serif" font-size="10.00"> &lt; double &gt;</text>
</g>
<!-- Node13&#45;&gt;Node1 -->
<g id="edge14" class="edge"><title>Node13&#45;&gt;Node1</title>
<path fill="none" stroke="#9a32cd" stroke-dasharray="5,2" d="M450.704,-155.481C492.128,-155.44 545.403,-160.327 588,-180.805 612.098,-192.39 631.971,-217.841 641.647,-231.932"/>
<polygon fill="#9a32cd" stroke="#9a32cd" points="450.403,-151.984 440.442,-155.591 450.479,-158.984 450.403,-151.984"/>
<text text-anchor="middle" x="523" y="-183.805" font-family="Helvetica,sans-Serif" font-size="10.00"> surfaceConnectivity</text>
</g>
<!-- Node14&#45;&gt;Node1 -->
<g id="edge16" class="edge"><title>Node14&#45;&gt;Node1</title>
<path fill="none" stroke="#9a32cd" stroke-dasharray="5,2" d="M410.249,-75.6939C452.046,-55.3662 534.461,-24.2849 588,-62.8053 644.935,-103.769 648.609,-201.33 648.282,-232.24"/>
<polygon fill="#9a32cd" stroke="#9a32cd" points="408.62,-72.5954 401.254,-80.2105 411.761,-78.8511 408.62,-72.5954"/>
<text text-anchor="middle" x="523" y="-142.805" font-family="Helvetica,sans-Serif" font-size="10.00"> deltaTime</text>
<text text-anchor="middle" x="523" y="-131.805" font-family="Helvetica,sans-Serif" font-size="10.00">surfaceCoordinates</text>
<text text-anchor="middle" x="523" y="-120.805" font-family="Helvetica,sans-Serif" font-size="10.00">endTime</text>
<text text-anchor="middle" x="523" y="-109.805" font-family="Helvetica,sans-Serif" font-size="10.00">solidDisplacement</text>
<text text-anchor="middle" x="523" y="-98.8053" font-family="Helvetica,sans-Serif" font-size="10.00">surfacePressure</text>
<text text-anchor="middle" x="523" y="-87.8053" font-family="Helvetica,sans-Serif" font-size="10.00">surfaceTraction</text>
<text text-anchor="middle" x="523" y="-76.8053" font-family="Helvetica,sans-Serif" font-size="10.00">surfaceDisplacement</text>
<text text-anchor="middle" x="523" y="-65.8053" font-family="Helvetica,sans-Serif" font-size="10.00">time</text>
</g>
</g>
</svg>
