<?xml version="1.0" encoding="UTF-8" standalone="no"?>
<!DOCTYPE svg PUBLIC "-//W3C//DTD SVG 1.1//EN"
 "http://www.w3.org/Graphics/SVG/1.1/DTD/svg11.dtd">
<!-- Generated by graphviz version 2.30.1 (20150305.2338)
 -->
<!-- Title: Transfer Pages: 1 -->
<svg width="902pt" height="136pt"
 viewBox="0.00 0.00 902.00 136.00" xmlns="http://www.w3.org/2000/svg" xmlns:xlink="http://www.w3.org/1999/xlink">
<g id="graph0" class="graph" transform="scale(1 1) rotate(0) translate(4 132)">
<title>Transfer</title>
<!-- Node1 -->
<g id="node1" class="node"><title>Node1</title>
<polygon fill="#bfbfbf" stroke="black" points="0.5,-29.5 0.5,-48.5 53.5,-48.5 53.5,-29.5 0.5,-29.5"/>
<text text-anchor="middle" x="27" y="-36.5" font-family="Helvetica,sans-Serif" font-size="10.00">Transfer</text>
</g>
<!-- Node2 -->
<g id="node2" class="node"><title>Node2</title>
<g id="a_node2"><a xlink:href="classfsicoupling_a052028ae6a11a37f3c3be19a78709d97.html#a052028ae6a11a37f3c3be19a78709d97" target="_top" xlink:title="fsicoupling::TransferLoads\lToStructures">
<polygon fill="none" stroke="black" points="99.5,-49 99.5,-79 230.5,-79 230.5,-49 99.5,-49"/>
<text text-anchor="start" x="107.5" y="-67" font-family="Helvetica,sans-Serif" font-size="10.00">fsicoupling::TransferLoads</text>
<text text-anchor="middle" x="165" y="-56" font-family="Helvetica,sans-Serif" font-size="10.00">ToStructures</text>
</a>
</g>
</g>
<!-- Node1&#45;&gt;Node2 -->
<g id="edge1" class="edge"><title>Node1&#45;&gt;Node2</title>
<path fill="none" stroke="midnightblue" d="M63.5825,-45.5409C74.5376,-47.5547 86.9583,-49.8379 99.2378,-52.0952"/>
<polygon fill="midnightblue" stroke="midnightblue" points="64.0486,-42.068 53.5806,-43.7023 62.783,-48.9527 64.0486,-42.068"/>
</g>
<!-- Node13 -->
<g id="node13" class="node"><title>Node13</title>
<g id="a_node13"><a xlink:href="classfsicoupling_a64adb98e1ef0b8dad61d38cc244e2364.html#a64adb98e1ef0b8dad61d38cc244e2364" target="_top" xlink:title="fsicoupling::TransferPressures\lToStructures">
<polygon fill="none" stroke="black" points="90.5,-0 90.5,-30 239.5,-30 239.5,-0 90.5,-0"/>
<text text-anchor="start" x="98.5" y="-18" font-family="Helvetica,sans-Serif" font-size="10.00">fsicoupling::TransferPressures</text>
<text text-anchor="middle" x="165" y="-7" font-family="Helvetica,sans-Serif" font-size="10.00">ToStructures</text>
</a>
</g>
</g>
<!-- Node1&#45;&gt;Node13 -->
<g id="edge15" class="edge"><title>Node1&#45;&gt;Node13</title>
<path fill="none" stroke="midnightblue" d="M63.5925,-32.719C71.8933,-31.2541 81.0349,-29.6409 90.3188,-28.0026"/>
<polygon fill="midnightblue" stroke="midnightblue" points="62.8201,-29.3011 53.5806,-34.4858 64.0367,-36.1946 62.8201,-29.3011"/>
</g>
<!-- Node3 -->
<g id="node3" class="node"><title>Node3</title>
<g id="a_node3"><a xlink:href="classfsicoupling_afbfb74d751085fbf8cffe83b9716b2dd.html#afbfb74d751085fbf8cffe83b9716b2dd" target="_top" xlink:title="fsicoupling::Run">
<polygon fill="none" stroke="black" points="318.5,-100.5 318.5,-119.5 405.5,-119.5 405.5,-100.5 318.5,-100.5"/>
<text text-anchor="middle" x="362" y="-107.5" font-family="Helvetica,sans-Serif" font-size="10.00">fsicoupling::Run</text>
</a>
</g>
</g>
<!-- Node2&#45;&gt;Node3 -->
<g id="edge2" class="edge"><title>Node2&#45;&gt;Node3</title>
<path fill="none" stroke="midnightblue" d="M239.809,-81.4115C267.215,-87.8764 297.279,-94.9684 320.607,-100.471"/>
<polygon fill="midnightblue" stroke="midnightblue" points="240.387,-77.9517 229.85,-79.0621 238.78,-84.7647 240.387,-77.9517"/>
</g>
<!-- Node6 -->
<g id="node6" class="node"><title>Node6</title>
<g id="a_node6"><a xlink:href="classElmerFoamFSI_1_1TestingObject_a1fae1ccecf337df1572d5a43cdae1a08.html#a1fae1ccecf337df1572d5a43cdae1a08" target="_top" xlink:title="Test for solidAgent&#45;&gt;Run() function. ">
<polygon fill="none" stroke="black" points="287.5,-0 287.5,-30 436.5,-30 436.5,-0 287.5,-0"/>
<text text-anchor="start" x="295.5" y="-18" font-family="Helvetica,sans-Serif" font-size="10.00">ElmerFoamFSI::TestingObject</text>
<text text-anchor="middle" x="362" y="-7" font-family="Helvetica,sans-Serif" font-size="10.00">::Test__SolidAgentRun</text>
</a>
</g>
</g>
<!-- Node2&#45;&gt;Node6 -->
<g id="edge5" class="edge"><title>Node2&#45;&gt;Node6</title>
<path fill="none" stroke="midnightblue" d="M235.551,-46.5232C257.043,-41.1225 280.515,-35.2245 301.282,-30.0062"/>
<polygon fill="midnightblue" stroke="midnightblue" points="234.677,-43.1338 225.832,-48.9654 236.383,-49.9227 234.677,-43.1338"/>
</g>
<!-- Node12 -->
<g id="node12" class="node"><title>Node12</title>
<g id="a_node12"><a xlink:href="classElmerFoamFSI_1_1TestingObject_a8c738943eca358248eb583bd29c5c332.html#a8c738943eca358248eb583bd29c5c332" target="_top" xlink:title="Test for TransferLoadsToStructures() function. ">
<polygon fill="none" stroke="black" points="276.5,-49 276.5,-79 447.5,-79 447.5,-49 276.5,-49"/>
<text text-anchor="start" x="284.5" y="-67" font-family="Helvetica,sans-Serif" font-size="10.00">ElmerFoamFSI::TestingObject</text>
<text text-anchor="middle" x="362" y="-56" font-family="Helvetica,sans-Serif" font-size="10.00">::Test__TransferLoadsToStructures</text>
</a>
</g>
</g>
<!-- Node2&#45;&gt;Node12 -->
<g id="edge12" class="edge"><title>Node2&#45;&gt;Node12</title>
<path fill="none" stroke="midnightblue" d="M240.762,-64C252.411,-64 264.518,-64 276.367,-64"/>
<polygon fill="midnightblue" stroke="midnightblue" points="240.661,-60.5001 230.661,-64 240.661,-67.5001 240.661,-60.5001"/>
</g>
<!-- Node4 -->
<g id="node4" class="node"><title>Node4</title>
<g id="a_node4"><a xlink:href="classElmerFoamFSI_1_1SerialDriverProgram_a5803949d99491a7186bf1ee9cee81a3b.html#a5803949d99491a7186bf1ee9cee81a3b" target="_top" xlink:title="This function implements the main function executed by the program. ">
<polygon fill="none" stroke="black" points="489,-98 489,-128 629,-128 629,-98 489,-98"/>
<text text-anchor="start" x="497" y="-116" font-family="Helvetica,sans-Serif" font-size="10.00">ElmerFoamFSI::SerialDriver</text>
<text text-anchor="middle" x="559" y="-105" font-family="Helvetica,sans-Serif" font-size="10.00">Program::DriverRun</text>
</a>
</g>
</g>
<!-- Node3&#45;&gt;Node4 -->
<g id="edge3" class="edge"><title>Node3&#45;&gt;Node4</title>
<path fill="none" stroke="midnightblue" d="M415.819,-110.813C438.31,-111.159 464.848,-111.567 488.87,-111.936"/>
<polygon fill="midnightblue" stroke="midnightblue" points="415.846,-107.313 405.794,-110.658 415.739,-114.312 415.846,-107.313"/>
</g>
<!-- Node5 -->
<g id="node5" class="node"><title>Node5</title>
<g id="a_node5"><a xlink:href="namespaceElmerFoamFSI_aff46f457934a8e2d3712bdbfb1688e99.html#aff46f457934a8e2d3712bdbfb1688e99" target="_top" xlink:title="Unified driver for the example programs. ">
<polygon fill="none" stroke="black" points="687.5,-103.5 687.5,-122.5 802.5,-122.5 802.5,-103.5 687.5,-103.5"/>
<text text-anchor="middle" x="745" y="-110.5" font-family="Helvetica,sans-Serif" font-size="10.00">ElmerFoamFSI::Driver</text>
</a>
</g>
</g>
<!-- Node4&#45;&gt;Node5 -->
<g id="edge4" class="edge"><title>Node4&#45;&gt;Node5</title>
<path fill="none" stroke="midnightblue" d="M639.085,-113C655.364,-113 672.193,-113 687.48,-113"/>
<polygon fill="midnightblue" stroke="midnightblue" points="639.038,-109.5 629.038,-113 639.038,-116.5 639.038,-109.5"/>
</g>
<!-- Node7 -->
<g id="node7" class="node"><title>Node7</title>
<g id="a_node7"><a xlink:href="classElmerFoamFSI_1_1TestingObject_a046f7ab06db0acf616b0d2bf3d3146aa.html#a046f7ab06db0acf616b0d2bf3d3146aa" target="_top" xlink:title="Runs all tests implemented by the ElmerFoamFSI::TestingObject. ">
<polygon fill="none" stroke="black" points="484.5,-0 484.5,-30 633.5,-30 633.5,-0 484.5,-0"/>
<text text-anchor="start" x="492.5" y="-18" font-family="Helvetica,sans-Serif" font-size="10.00">ElmerFoamFSI::TestingObject</text>
<text text-anchor="middle" x="559" y="-7" font-family="Helvetica,sans-Serif" font-size="10.00">::Process</text>
</a>
</g>
</g>
<!-- Node6&#45;&gt;Node7 -->
<g id="edge6" class="edge"><title>Node6&#45;&gt;Node7</title>
<path fill="none" stroke="midnightblue" d="M447.09,-15C459.54,-15 472.287,-15 484.498,-15"/>
<polygon fill="midnightblue" stroke="midnightblue" points="446.721,-11.5001 436.721,-15 446.721,-18.5001 446.721,-11.5001"/>
</g>
<!-- Node10 -->
<g id="node10" class="node"><title>Node10</title>
<g id="a_node10"><a xlink:href="classElmerFoamFSI_1_1TestingObject_af1f07f14b9af7708e4264bb38937eed2.html#af1f07f14b9af7708e4264bb38937eed2" target="_top" xlink:title="Runs a test specified by name. ">
<polygon fill="none" stroke="black" points="484.5,-49 484.5,-79 633.5,-79 633.5,-49 484.5,-49"/>
<text text-anchor="start" x="492.5" y="-67" font-family="Helvetica,sans-Serif" font-size="10.00">ElmerFoamFSI::TestingObject</text>
<text text-anchor="middle" x="559" y="-56" font-family="Helvetica,sans-Serif" font-size="10.00">::RunTest</text>
</a>
</g>
</g>
<!-- Node6&#45;&gt;Node10 -->
<g id="edge9" class="edge"><title>Node6&#45;&gt;Node10</title>
<path fill="none" stroke="midnightblue" d="M432.551,-32.4768C454.043,-37.8775 477.515,-43.7755 498.282,-48.9938"/>
<polygon fill="midnightblue" stroke="midnightblue" points="433.383,-29.0773 422.832,-30.0346 431.677,-35.8662 433.383,-29.0773"/>
</g>
<!-- Node8 -->
<g id="node8" class="node"><title>Node8</title>
<g id="a_node8"><a xlink:href="namespaceElmerFoamFSI_aeb590657609088b8ab12a5cbd164fcfa.html#aeb590657609088b8ab12a5cbd164fcfa" target="_top" xlink:title="Drives the ElmerFoamFSI::TestObject. ">
<polygon fill="none" stroke="black" points="691,-8.5 691,-27.5 799,-27.5 799,-8.5 691,-8.5"/>
<text text-anchor="middle" x="745" y="-15.5" font-family="Helvetica,sans-Serif" font-size="10.00">ElmerFoamFSI::Test</text>
</a>
</g>
</g>
<!-- Node7&#45;&gt;Node8 -->
<g id="edge7" class="edge"><title>Node7&#45;&gt;Node8</title>
<path fill="none" stroke="midnightblue" d="M643.963,-16.369C659.966,-16.6299 676.296,-16.8961 690.996,-17.1358"/>
<polygon fill="midnightblue" stroke="midnightblue" points="643.571,-12.8622 633.515,-16.1986 643.457,-19.8613 643.571,-12.8622"/>
</g>
<!-- Node9 -->
<g id="node9" class="node"><title>Node9</title>
<g id="a_node9"><a xlink:href="TestElmerFoamFSI_8C_a0ddf1224851353fc92bfbff6f499fa97.html#a0ddf1224851353fc92bfbff6f499fa97" target="_top" xlink:title="main">
<polygon fill="none" stroke="black" points="856,-8.5 856,-27.5 894,-27.5 894,-8.5 856,-8.5"/>
<text text-anchor="middle" x="875" y="-15.5" font-family="Helvetica,sans-Serif" font-size="10.00">main</text>
</a>
</g>
</g>
<!-- Node8&#45;&gt;Node9 -->
<g id="edge8" class="edge"><title>Node8&#45;&gt;Node9</title>
<path fill="none" stroke="midnightblue" d="M809.193,-18C826.293,-18 843.469,-18 855.838,-18"/>
<polygon fill="midnightblue" stroke="midnightblue" points="809.172,-14.5001 799.172,-18 809.171,-21.5001 809.172,-14.5001"/>
</g>
<!-- Node11 -->
<g id="node11" class="node"><title>Node11</title>
<g id="a_node11"><a xlink:href="classElmerFoamFSI_1_1TestingObject_a21159bd2efac623e5a5079f6a20f3444.html#a21159bd2efac623e5a5079f6a20f3444" target="_top" xlink:title="Runs a list of tests specified by name. ">
<polygon fill="none" stroke="black" points="670.5,-49 670.5,-79 819.5,-79 819.5,-49 670.5,-49"/>
<text text-anchor="start" x="678.5" y="-67" font-family="Helvetica,sans-Serif" font-size="10.00">ElmerFoamFSI::TestingObject</text>
<text text-anchor="middle" x="745" y="-56" font-family="Helvetica,sans-Serif" font-size="10.00">::ProcessTests</text>
</a>
</g>
</g>
<!-- Node10&#45;&gt;Node11 -->
<g id="edge10" class="edge"><title>Node10&#45;&gt;Node11</title>
<path fill="none" stroke="midnightblue" d="M643.533,-64C652.462,-64 661.498,-64 670.302,-64"/>
<polygon fill="midnightblue" stroke="midnightblue" points="643.515,-60.5001 633.515,-64 643.515,-67.5001 643.515,-60.5001"/>
</g>
<!-- Node10&#45;&gt;Node8 -->
<g id="edge11" class="edge"><title>Node10&#45;&gt;Node8</title>
<path fill="none" stroke="midnightblue" d="M629.986,-46.5034C655.754,-40.0614 683.97,-33.0075 705.886,-27.5286"/>
<polygon fill="midnightblue" stroke="midnightblue" points="629.101,-43.1169 620.248,-48.9379 630.799,-49.9079 629.101,-43.1169"/>
</g>
<!-- Node12&#45;&gt;Node7 -->
<g id="edge13" class="edge"><title>Node12&#45;&gt;Node7</title>
<path fill="none" stroke="midnightblue" d="M432.551,-46.5232C454.043,-41.1225 477.515,-35.2245 498.282,-30.0062"/>
<polygon fill="midnightblue" stroke="midnightblue" points="431.677,-43.1338 422.832,-48.9654 433.383,-49.9227 431.677,-43.1338"/>
</g>
<!-- Node12&#45;&gt;Node10 -->
<g id="edge14" class="edge"><title>Node12&#45;&gt;Node10</title>
<path fill="none" stroke="midnightblue" d="M457.758,-64C466.711,-64 475.694,-64 484.406,-64"/>
<polygon fill="midnightblue" stroke="midnightblue" points="457.679,-60.5001 447.679,-64 457.679,-67.5001 457.679,-60.5001"/>
</g>
</g>
</svg>
