<?xml version="1.0" encoding="UTF-8" standalone="no"?>
<!DOCTYPE svg PUBLIC "-//W3C//DTD SVG 1.1//EN"
 "http://www.w3.org/Graphics/SVG/1.1/DTD/svg11.dtd">
<!-- Generated by graphviz version 2.26.0 (20091210.2329)
 -->
<!-- Title: TestingObject&lt; ResultsType &gt; Pages: 1 -->
<svg width="348pt" height="258pt"
 viewBox="0.00 0.00 348.00 258.00" xmlns="http://www.w3.org/2000/svg" xmlns:xlink="http://www.w3.org/1999/xlink">
<g id="graph1" class="graph" transform="scale(1 1) rotate(0) translate(4 254)">
<title>TestingObject&lt; ResultsType &gt;</title>
<!-- Node1 -->
<g id="node1" class="node"><title>Node1</title>
<polygon fill="#bfbfbf" stroke="black" points="107.5,-0.5 107.5,-21.5 258.5,-21.5 258.5,-0.5 107.5,-0.5"/>
<text text-anchor="middle" x="183" y="-8.5" font-family="Helvetica,sans-Serif" font-size="10.00">TestingObject&lt; ResultsType &gt;</text>
</g>
<!-- Node2 -->
<g id="node2" class="node"><title>Node2</title>
<polygon fill="none" stroke="#bfbfbf" points="-0.5,-84.5 -0.5,-105.5 150.5,-105.5 150.5,-84.5 -0.5,-84.5"/>
<text text-anchor="middle" x="75" y="-92.5" font-family="Helvetica,sans-Serif" font-size="10.00">TestingObject&lt; ResultsType &gt;</text>
</g>
<!-- Node2&#45;&gt;Node1 -->
<g id="edge2" class="edge"><title>Node2&#45;&gt;Node1</title>
<path fill="none" stroke="midnightblue" d="M96.6842,-78.1345C118.402,-61.2429 151.151,-35.7711 169.433,-21.5523"/>
<polygon fill="midnightblue" stroke="midnightblue" points="94.423,-75.4592 88.6783,-84.3613 98.7206,-80.9846 94.423,-75.4592"/>
</g>
<!-- Node3 -->
<g id="node4" class="node"><title>Node3</title>
<a xlink:title="STL class. ">
<polygon fill="none" stroke="#bfbfbf" points="167.5,-84.5 167.5,-105.5 208.5,-105.5 208.5,-84.5 167.5,-84.5"/>
<text text-anchor="middle" x="188" y="-92.5" font-family="Helvetica,sans-Serif" font-size="10.00">string</text>
</a>
</g>
<!-- Node3&#45;&gt;Node1 -->
<g id="edge4" class="edge"><title>Node3&#45;&gt;Node1</title>
<path fill="none" stroke="#9a32cd" stroke-dasharray="5,2" d="M184.828,-74.2017C184.497,-71.449 184.207,-68.6602 184,-66 182.8,-50.5753 182.719,-32.6476 182.82,-21.5617"/>
<polygon fill="#9a32cd" stroke="#9a32cd" points="181.385,-74.8597 186.213,-84.2906 188.32,-73.9075 181.385,-74.8597"/>
<text text-anchor="middle" x="229.5" y="-57" font-family="Helvetica,sans-Serif" font-size="10.00"> ExampleTestFixture</text>
<text text-anchor="middle" x="229.5" y="-44" font-family="Helvetica,sans-Serif" font-size="10.00">SourceDirPath</text>
</g>
<!-- Node4 -->
<g id="node6" class="node"><title>Node4</title>
<a xlink:title="STL class. ">
<polygon fill="none" stroke="#bfbfbf" points="135,-156.5 135,-177.5 241,-177.5 241,-156.5 135,-156.5"/>
<text text-anchor="middle" x="188" y="-164.5" font-family="Helvetica,sans-Serif" font-size="10.00">basic_string&lt; char &gt;</text>
</a>
</g>
<!-- Node4&#45;&gt;Node3 -->
<g id="edge6" class="edge"><title>Node4&#45;&gt;Node3</title>
<path fill="none" stroke="midnightblue" d="M188,-146.235C188,-132.969 188,-116.319 188,-105.667"/>
<polygon fill="midnightblue" stroke="midnightblue" points="184.5,-146.376 188,-156.376 191.5,-146.376 184.5,-146.376"/>
</g>
<!-- Node5 -->
<g id="node8" class="node"><title>Node5</title>
<polygon fill="none" stroke="#bfbfbf" points="261,-84.5 261,-105.5 333,-105.5 333,-84.5 261,-84.5"/>
<text text-anchor="middle" x="297" y="-92.5" font-family="Helvetica,sans-Serif" font-size="10.00">vector&lt; int &gt;</text>
</g>
<!-- Node5&#45;&gt;Node1 -->
<g id="edge8" class="edge"><title>Node5&#45;&gt;Node1</title>
<path fill="none" stroke="#9a32cd" stroke-dasharray="5,2" d="M293.188,-74.0283C290.092,-62.5544 284.599,-48.9039 275,-40 267.879,-33.3946 248.321,-26.821 229.06,-21.6066"/>
<polygon fill="#9a32cd" stroke="#9a32cd" points="289.855,-75.1568 295.479,-84.1361 296.682,-73.6098 289.855,-75.1568"/>
<text text-anchor="middle" x="295.5" y="-50.5" font-family="Helvetica,sans-Serif" font-size="10.00"> N</text>
</g>
<!-- Node6 -->
<g id="node10" class="node"><title>Node6</title>
<a xlink:title="STL class. ">
<polygon fill="none" stroke="#bfbfbf" points="263,-156.5 263,-177.5 331,-177.5 331,-156.5 263,-156.5"/>
<text text-anchor="middle" x="297" y="-164.5" font-family="Helvetica,sans-Serif" font-size="10.00">vector&lt; T &gt;</text>
</a>
</g>
<!-- Node6&#45;&gt;Node5 -->
<g id="edge10" class="edge"><title>Node6&#45;&gt;Node5</title>
<path fill="none" stroke="orange" stroke-dasharray="5,2" d="M297,-146.235C297,-132.969 297,-116.319 297,-105.667"/>
<polygon fill="orange" stroke="orange" points="293.5,-146.376 297,-156.376 300.5,-146.376 293.5,-146.376"/>
<text text-anchor="middle" x="313" y="-128.5" font-family="Helvetica,sans-Serif" font-size="10.00"> &lt; int &gt;</text>
</g>
<!-- Node7 -->
<g id="node12" class="node"><title>Node7</title>
<polygon fill="none" stroke="#bfbfbf" points="282.5,-228.5 282.5,-249.5 311.5,-249.5 311.5,-228.5 282.5,-228.5"/>
<text text-anchor="middle" x="297" y="-236.5" font-family="Helvetica,sans-Serif" font-size="10.00">T</text>
</g>
<!-- Node7&#45;&gt;Node6 -->
<g id="edge12" class="edge"><title>Node7&#45;&gt;Node6</title>
<path fill="none" stroke="#9a32cd" stroke-dasharray="5,2" d="M297,-218.235C297,-204.969 297,-188.319 297,-177.667"/>
<polygon fill="#9a32cd" stroke="#9a32cd" points="293.5,-218.376 297,-228.376 300.5,-218.376 293.5,-218.376"/>
<text text-anchor="middle" x="318.5" y="-200.5" font-family="Helvetica,sans-Serif" font-size="10.00"> elements</text>
</g>
</g>
</svg>
