<?xml version="1.0" encoding="UTF-8" standalone="no"?>
<!DOCTYPE svg PUBLIC "-//W3C//DTD SVG 1.1//EN"
 "http://www.w3.org/Graphics/SVG/1.1/DTD/svg11.dtd">
<!-- Generated by graphviz version 2.26.0 (20091210.2329)
 -->
<!-- Title: Run Pages: 1 -->
<svg width="410pt" height="294pt"
 viewBox="0.00 0.00 410.00 294.00" xmlns="http://www.w3.org/2000/svg" xmlns:xlink="http://www.w3.org/1999/xlink">
<g id="graph1" class="graph" transform="scale(1 1) rotate(0) translate(4 290)">
<title>Run</title>
<!-- Node1 -->
<g id="node1" class="node"><title>Node1</title>
<polygon fill="#bfbfbf" stroke="black" points="0.5,-140.5 0.5,-161.5 35.5,-161.5 35.5,-140.5 0.5,-140.5"/>
<text text-anchor="middle" x="18" y="-148.5" font-family="Helvetica,sans-Serif" font-size="10.00">Run</text>
</g>
<!-- Node2 -->
<g id="node3" class="node"><title>Node2</title>
<a xlink:href="classimpact_1_1orchestrator_1_1agentbase_a50a1b38c2dca7d97a57941b99cfdf099.html#a50a1b38c2dca7d97a57941b99cfdf099" target="_top" xlink:title="impact::orchestrator\l::agentbase::FinalizeTimeStep">
<polygon fill="none" stroke="black" points="73.5,-252 73.5,-286 222.5,-286 222.5,-252 73.5,-252"/>
<text text-anchor="start" x="81.5" y="-273" font-family="Helvetica,sans-Serif" font-size="10.00">impact::orchestrator</text>
<text text-anchor="middle" x="148" y="-260" font-family="Helvetica,sans-Serif" font-size="10.00">::agentbase::FinalizeTimeStep</text>
</a>
</g>
<!-- Node1&#45;&gt;Node2 -->
<g id="edge2" class="edge"><title>Node1&#45;&gt;Node2</title>
<path fill="none" stroke="midnightblue" d="M21.4824,-161.754C28.2013,-180.846 44.7453,-220.742 72,-243 73.5391,-244.257 75.1424,-245.455 76.7979,-246.596"/>
<polygon fill="midnightblue" stroke="midnightblue" points="75.0891,-249.652 85.4555,-251.841 78.7162,-243.665 75.0891,-249.652"/>
</g>
<!-- Node3 -->
<g id="node5" class="node"><title>Node3</title>
<a xlink:href="classimpact_1_1orchestrator_1_1agentbase_abae70c8ddc0a4976bf42b69f1eae8b52.html#abae70c8ddc0a4976bf42b69f1eae8b52" target="_top" xlink:title="impact::orchestrator\l::agentbase::InitializeTimeStep">
<polygon fill="none" stroke="black" points="72,-200 72,-234 224,-234 224,-200 72,-200"/>
<text text-anchor="start" x="80" y="-221" font-family="Helvetica,sans-Serif" font-size="10.00">impact::orchestrator</text>
<text text-anchor="middle" x="148" y="-208" font-family="Helvetica,sans-Serif" font-size="10.00">::agentbase::InitializeTimeStep</text>
</a>
</g>
<!-- Node1&#45;&gt;Node3 -->
<g id="edge4" class="edge"><title>Node1&#45;&gt;Node3</title>
<path fill="none" stroke="midnightblue" d="M30.1386,-161.709C40.6299,-170.529 56.5064,-182.863 72,-191 75.2794,-192.722 78.6966,-194.367 82.1875,-195.932"/>
<polygon fill="midnightblue" stroke="midnightblue" points="80.9826,-199.222 91.5566,-199.886 83.7042,-192.773 80.9826,-199.222"/>
</g>
<!-- Node4 -->
<g id="node7" class="node"><title>Node4</title>
<a xlink:href="classopenfoamagent_a1e1196103d62248de06882a2f5f1adf4.html#a1e1196103d62248de06882a2f5f1adf4" target="_top" xlink:title="openfoamagent::Run">
<polygon fill="none" stroke="black" points="94.5,-160.5 94.5,-181.5 201.5,-181.5 201.5,-160.5 94.5,-160.5"/>
<text text-anchor="middle" x="148" y="-168.5" font-family="Helvetica,sans-Serif" font-size="10.00">openfoamagent::Run</text>
</a>
</g>
<!-- Node1&#45;&gt;Node4 -->
<g id="edge6" class="edge"><title>Node1&#45;&gt;Node4</title>
<path fill="none" stroke="midnightblue" d="M35.5324,-153.697C48.2803,-155.659 66.3841,-158.444 84.3503,-161.208"/>
<polygon fill="midnightblue" stroke="midnightblue" points="83.8665,-164.674 94.2825,-162.736 84.931,-157.756 83.8665,-164.674"/>
</g>
<!-- Node5 -->
<g id="node9" class="node"><title>Node5</title>
<a xlink:href="classelmeragent_addc5d2e1dc0916e5c3d2e52d53261b4b.html#addc5d2e1dc0916e5c3d2e52d53261b4b" target="_top" xlink:title="elmeragent::Run">
<polygon fill="none" stroke="black" points="103.5,-120.5 103.5,-141.5 192.5,-141.5 192.5,-120.5 103.5,-120.5"/>
<text text-anchor="middle" x="148" y="-128.5" font-family="Helvetica,sans-Serif" font-size="10.00">elmeragent::Run</text>
</a>
</g>
<!-- Node1&#45;&gt;Node5 -->
<g id="edge8" class="edge"><title>Node1&#45;&gt;Node5</title>
<path fill="none" stroke="midnightblue" d="M35.5324,-148.303C50.4222,-146.012 72.6191,-142.597 93.369,-139.405"/>
<polygon fill="midnightblue" stroke="midnightblue" points="94.0492,-142.841 103.401,-137.861 92.9847,-135.923 94.0492,-142.841"/>
</g>
<!-- Node7 -->
<g id="node13" class="node"><title>Node7</title>
<a xlink:href="classfsicoupling_afb2eaee475b0c32cd5bf6d6fcc1eff05.html#afb2eaee475b0c32cd5bf6d6fcc1eff05" target="_top" xlink:title="TransferDisplacementsToFluid">
<polygon fill="none" stroke="black" points="73,-80.5 73,-101.5 223,-101.5 223,-80.5 73,-80.5"/>
<text text-anchor="middle" x="148" y="-88.5" font-family="Helvetica,sans-Serif" font-size="10.00">TransferDisplacementsToFluid</text>
</a>
</g>
<!-- Node1&#45;&gt;Node7 -->
<g id="edge12" class="edge"><title>Node1&#45;&gt;Node7</title>
<path fill="none" stroke="midnightblue" d="M29.5793,-140.358C39.9727,-131.336 56.0121,-118.673 72,-111 76.8434,-108.676 81.9947,-106.593 87.2448,-104.733"/>
<polygon fill="midnightblue" stroke="midnightblue" points="88.3405,-108.057 96.7564,-101.621 86.1638,-101.404 88.3405,-108.057"/>
</g>
<!-- Node12 -->
<g id="node23" class="node"><title>Node12</title>
<a xlink:href="classfsicoupling_a052028ae6a11a37f3c3be19a78709d97.html#a052028ae6a11a37f3c3be19a78709d97" target="_top" xlink:title="TransferLoadsToStructures">
<polygon fill="none" stroke="black" points="80.5,-40.5 80.5,-61.5 215.5,-61.5 215.5,-40.5 80.5,-40.5"/>
<text text-anchor="middle" x="148" y="-48.5" font-family="Helvetica,sans-Serif" font-size="10.00">TransferLoadsToStructures</text>
</a>
</g>
<!-- Node1&#45;&gt;Node12 -->
<g id="edge22" class="edge"><title>Node1&#45;&gt;Node12</title>
<path fill="none" stroke="midnightblue" d="M22.2032,-140.373C29.5935,-123.096 46.5824,-89.0381 72,-71 74.6704,-69.1049 77.508,-67.3894 80.4581,-65.8364"/>
<polygon fill="midnightblue" stroke="midnightblue" points="81.9602,-68.9981 89.5909,-61.648 79.0421,-62.6353 81.9602,-68.9981"/>
</g>
<!-- Node6 -->
<g id="node11" class="node"><title>Node6</title>
<a xlink:href="classimpact_1_1orchestrator_1_1agentbase_a0c67610e579dce80081e10bbbf57eae1.html#a0c67610e579dce80081e10bbbf57eae1" target="_top" xlink:title="impact::orchestrator\l::agentbase::WriteErr">
<polygon fill="none" stroke="black" points="276,-160 276,-194 386,-194 386,-160 276,-160"/>
<text text-anchor="start" x="284" y="-181" font-family="Helvetica,sans-Serif" font-size="10.00">impact::orchestrator</text>
<text text-anchor="middle" x="331" y="-168" font-family="Helvetica,sans-Serif" font-size="10.00">::agentbase::WriteErr</text>
</a>
</g>
<!-- Node5&#45;&gt;Node6 -->
<g id="edge10" class="edge"><title>Node5&#45;&gt;Node6</title>
<path fill="none" stroke="midnightblue" d="M189.984,-141.553C212.435,-147.197 240.577,-154.271 265.804,-160.612"/>
<polygon fill="midnightblue" stroke="midnightblue" points="265.124,-164.05 275.676,-163.093 266.831,-157.261 265.124,-164.05"/>
</g>
<!-- Node8 -->
<g id="node15" class="node"><title>Node8</title>
<a xlink:href="classopenfoamagent_a11af20e113d9cb3bad41a7504f10da2c.html#a11af20e113d9cb3bad41a7504f10da2c" target="_top" xlink:title="openfoamagent::Coordinates">
<polygon fill="none" stroke="black" points="260,-120.5 260,-141.5 402,-141.5 402,-120.5 260,-120.5"/>
<text text-anchor="middle" x="331" y="-128.5" font-family="Helvetica,sans-Serif" font-size="10.00">openfoamagent::Coordinates</text>
</a>
</g>
<!-- Node7&#45;&gt;Node8 -->
<g id="edge14" class="edge"><title>Node7&#45;&gt;Node8</title>
<path fill="none" stroke="midnightblue" d="M196.081,-101.51C219.629,-106.657 248.171,-112.895 272.928,-118.307"/>
<polygon fill="midnightblue" stroke="midnightblue" points="272.406,-121.775 282.923,-120.491 273.901,-114.937 272.406,-121.775"/>
</g>
<!-- Node9 -->
<g id="node17" class="node"><title>Node9</title>
<a xlink:href="classelmeragent_a11af20e113d9cb3bad41a7504f10da2c.html#a11af20e113d9cb3bad41a7504f10da2c" target="_top" xlink:title="elmeragent::Coordinates">
<polygon fill="none" stroke="black" points="269.5,-80.5 269.5,-101.5 392.5,-101.5 392.5,-80.5 269.5,-80.5"/>
<text text-anchor="middle" x="331" y="-88.5" font-family="Helvetica,sans-Serif" font-size="10.00">elmeragent::Coordinates</text>
</a>
</g>
<!-- Node7&#45;&gt;Node9 -->
<g id="edge16" class="edge"><title>Node7&#45;&gt;Node9</title>
<path fill="none" stroke="midnightblue" d="M223.225,-91C235.12,-91 247.393,-91 259.207,-91"/>
<polygon fill="midnightblue" stroke="midnightblue" points="259.449,-94.5001 269.449,-91 259.449,-87.5001 259.449,-94.5001"/>
</g>
<!-- Node10 -->
<g id="node19" class="node"><title>Node10</title>
<a xlink:href="classopenfoamagent_a84634b1a9101359943436cfa37a4b88e.html#a84634b1a9101359943436cfa37a4b88e" target="_top" xlink:title="openfoamagent::PaneID">
<polygon fill="none" stroke="black" points="270,-40.5 270,-61.5 392,-61.5 392,-40.5 270,-40.5"/>
<text text-anchor="middle" x="331" y="-48.5" font-family="Helvetica,sans-Serif" font-size="10.00">openfoamagent::PaneID</text>
</a>
</g>
<!-- Node7&#45;&gt;Node10 -->
<g id="edge18" class="edge"><title>Node7&#45;&gt;Node10</title>
<path fill="none" stroke="midnightblue" d="M196.081,-80.4905C219.629,-75.3434 248.171,-69.1046 272.928,-63.6933"/>
<polygon fill="midnightblue" stroke="midnightblue" points="273.901,-67.0634 282.923,-61.5087 272.406,-60.2249 273.901,-67.0634"/>
</g>
<!-- Node11 -->
<g id="node21" class="node"><title>Node11</title>
<a xlink:href="classelmeragent_a84634b1a9101359943436cfa37a4b88e.html#a84634b1a9101359943436cfa37a4b88e" target="_top" xlink:title="elmeragent::PaneID">
<polygon fill="none" stroke="black" points="279,-0.5 279,-21.5 383,-21.5 383,-0.5 279,-0.5"/>
<text text-anchor="middle" x="331" y="-8.5" font-family="Helvetica,sans-Serif" font-size="10.00">elmeragent::PaneID</text>
</a>
</g>
<!-- Node7&#45;&gt;Node11 -->
<g id="edge20" class="edge"><title>Node7&#45;&gt;Node11</title>
<path fill="none" stroke="midnightblue" d="M203.533,-80.4597C210.692,-77.9439 217.71,-74.8362 224,-71 244.42,-58.5465 239.689,-43.6292 260,-31 263.331,-28.9291 266.88,-27.0675 270.549,-25.3947"/>
<polygon fill="midnightblue" stroke="midnightblue" points="271.91,-28.6199 279.857,-21.6139 269.275,-22.1345 271.91,-28.6199"/>
</g>
</g>
</svg>
