<?xml version="1.0" encoding="UTF-8" standalone="no"?>
<!DOCTYPE svg PUBLIC "-//W3C//DTD SVG 1.1//EN"
 "http://www.w3.org/Graphics/SVG/1.1/DTD/svg11.dtd">
<!-- Generated by graphviz version 2.30.1 (20150305.2338)
 -->
<!-- Title: finalize Pages: 1 -->
<svg width="568pt" height="153pt"
 viewBox="0.00 0.00 568.00 153.00" xmlns="http://www.w3.org/2000/svg" xmlns:xlink="http://www.w3.org/1999/xlink">
<g id="graph0" class="graph" transform="scale(1 1) rotate(0) translate(4 149)">
<title>finalize</title>
<!-- Node1 -->
<g id="node1" class="node"><title>Node1</title>
<polygon fill="#bfbfbf" stroke="black" points="0.5,-87.5 0.5,-106.5 47.5,-106.5 47.5,-87.5 0.5,-87.5"/>
<text text-anchor="middle" x="24" y="-94.5" font-family="Helvetica,sans-Serif" font-size="10.00">finalize</text>
</g>
<!-- Node2 -->
<g id="node2" class="node"><title>Node2</title>
<g id="a_node2"><a xlink:href="com__c_09_09_8hpp_a6f9e4ea8f2cb977968964f4cb5a4b4f6.html#a6f9e4ea8f2cb977968964f4cb5a4b4f6" target="_top" xlink:title="COM_call_function">
<polygon fill="none" stroke="black" points="100,-125.5 100,-144.5 200,-144.5 200,-125.5 100,-125.5"/>
<text text-anchor="middle" x="150" y="-132.5" font-family="Helvetica,sans-Serif" font-size="10.00">COM_call_function</text>
</a>
</g>
</g>
<!-- Node1&#45;&gt;Node2 -->
<g id="edge1" class="edge"><title>Node1&#45;&gt;Node2</title>
<path fill="none" stroke="midnightblue" d="M47.6485,-104.452C58.6062,-108.017 71.9643,-112.304 84,-116 91.0313,-118.159 98.508,-120.398 105.792,-122.548"/>
<polygon fill="midnightblue" stroke="midnightblue" points="104.966,-125.953 115.547,-125.41 106.936,-119.236 104.966,-125.953"/>
</g>
<!-- Node3 -->
<g id="node3" class="node"><title>Node3</title>
<g id="a_node3"><a xlink:href="com__c_09_09_8hpp_a47ed797bddcdd0aabcd9f8e47f326744.html#a47ed797bddcdd0aabcd9f8e47f326744" target="_top" xlink:title="COM_finalize">
<polygon fill="none" stroke="black" points="112,-87.5 112,-106.5 188,-106.5 188,-87.5 112,-87.5"/>
<text text-anchor="middle" x="150" y="-94.5" font-family="Helvetica,sans-Serif" font-size="10.00">COM_finalize</text>
</a>
</g>
</g>
<!-- Node1&#45;&gt;Node3 -->
<g id="edge2" class="edge"><title>Node1&#45;&gt;Node3</title>
<path fill="none" stroke="midnightblue" d="M47.7435,-97C62.8457,-97 83.2269,-97 101.745,-97"/>
<polygon fill="midnightblue" stroke="midnightblue" points="101.796,-100.5 111.796,-97 101.796,-93.5001 101.796,-100.5"/>
</g>
<!-- Node5 -->
<g id="node5" class="node"><title>Node5</title>
<g id="a_node5"><a xlink:href="com__c_09_09_8hpp_acbbf9749cce36d33b4c60c100bdfaea2.html#acbbf9749cce36d33b4c60c100bdfaea2" target="_top" xlink:title="COM_get_function_handle">
<polygon fill="none" stroke="black" points="84,-49.5 84,-68.5 216,-68.5 216,-49.5 84,-49.5"/>
<text text-anchor="middle" x="150" y="-56.5" font-family="Helvetica,sans-Serif" font-size="10.00">COM_get_function_handle</text>
</a>
</g>
</g>
<!-- Node1&#45;&gt;Node5 -->
<g id="edge4" class="edge"><title>Node1&#45;&gt;Node5</title>
<path fill="none" stroke="midnightblue" d="M47.6485,-89.5475C58.6062,-85.9826 71.9643,-81.6963 84,-78 91.0313,-75.8406 98.508,-73.6019 105.792,-71.4516"/>
<polygon fill="midnightblue" stroke="midnightblue" points="106.936,-74.7636 115.547,-68.59 104.966,-68.0467 106.936,-74.7636"/>
</g>
<!-- Node4 -->
<g id="node4" class="node"><title>Node4</title>
<g id="a_node4"><a xlink:href="classCOM_1_1COM__base_aa77ce2c05f3e9d82815db88996cfc1ed.html#aa77ce2c05f3e9d82815db88996cfc1ed" target="_top" xlink:title="COM::COM_base::finalize">
<polygon fill="none" stroke="black" points="252,-87.5 252,-106.5 384,-106.5 384,-87.5 252,-87.5"/>
<text text-anchor="middle" x="318" y="-94.5" font-family="Helvetica,sans-Serif" font-size="10.00">COM::COM_base::finalize</text>
</a>
</g>
</g>
<!-- Node3&#45;&gt;Node4 -->
<g id="edge3" class="edge"><title>Node3&#45;&gt;Node4</title>
<path fill="none" stroke="midnightblue" d="M188.254,-97C204.062,-97 223.09,-97 241.608,-97"/>
<polygon fill="midnightblue" stroke="midnightblue" points="241.821,-100.5 251.82,-97 241.82,-93.5001 241.821,-100.5"/>
</g>
<!-- Node6 -->
<g id="node6" class="node"><title>Node6</title>
<g id="a_node6"><a xlink:href="COM__base_8hpp_a49353596e53127db61529b5c9000549d.html#a49353596e53127db61529b5c9000549d" target="_top" xlink:title="COM_get_com">
<polygon fill="none" stroke="black" points="276.5,-49.5 276.5,-68.5 359.5,-68.5 359.5,-49.5 276.5,-49.5"/>
<text text-anchor="middle" x="318" y="-56.5" font-family="Helvetica,sans-Serif" font-size="10.00">COM_get_com</text>
</a>
</g>
</g>
<!-- Node5&#45;&gt;Node6 -->
<g id="edge5" class="edge"><title>Node5&#45;&gt;Node6</title>
<path fill="none" stroke="midnightblue" d="M216.131,-59C232.821,-59 250.524,-59 266.362,-59"/>
<polygon fill="midnightblue" stroke="midnightblue" points="266.472,-62.5001 276.471,-59 266.471,-55.5001 266.472,-62.5001"/>
</g>
<!-- Node8 -->
<g id="node8" class="node"><title>Node8</title>
<g id="a_node8"><a xlink:href="classCOM_1_1COM__base_a640995dd65a1fb030650457b9cf10b26.html#a640995dd65a1fb030650457b9cf10b26" target="_top" xlink:title="COM::COM_base::get\l_function_handle">
<polygon fill="none" stroke="black" points="260.5,-0 260.5,-30 375.5,-30 375.5,-0 260.5,-0"/>
<text text-anchor="start" x="268.5" y="-18" font-family="Helvetica,sans-Serif" font-size="10.00">COM::COM_base::get</text>
<text text-anchor="middle" x="318" y="-7" font-family="Helvetica,sans-Serif" font-size="10.00">_function_handle</text>
</a>
</g>
</g>
<!-- Node5&#45;&gt;Node8 -->
<g id="edge7" class="edge"><title>Node5&#45;&gt;Node8</title>
<path fill="none" stroke="midnightblue" d="M187.02,-49.4527C205.625,-44.5211 228.927,-38.3447 250.643,-32.5886"/>
<polygon fill="midnightblue" stroke="midnightblue" points="251.717,-35.9248 260.487,-29.9794 249.924,-29.1584 251.717,-35.9248"/>
</g>
<!-- Node7 -->
<g id="node7" class="node"><title>Node7</title>
<g id="a_node7"><a xlink:href="classCOM_1_1COM__base_a77bb770b9ec1aac99361c45efbccabc1.html#a77bb770b9ec1aac99361c45efbccabc1" target="_top" xlink:title="Get a pointer to the COM object. ">
<polygon fill="none" stroke="black" points="420.5,-49.5 420.5,-68.5 559.5,-68.5 559.5,-49.5 420.5,-49.5"/>
<text text-anchor="middle" x="490" y="-56.5" font-family="Helvetica,sans-Serif" font-size="10.00">COM::COM_base::get_com</text>
</a>
</g>
</g>
<!-- Node6&#45;&gt;Node7 -->
<g id="edge6" class="edge"><title>Node6&#45;&gt;Node7</title>
<path fill="none" stroke="midnightblue" d="M359.719,-59C374.91,-59 392.719,-59 410.178,-59"/>
<polygon fill="midnightblue" stroke="midnightblue" points="410.395,-62.5001 420.395,-59 410.395,-55.5001 410.395,-62.5001"/>
</g>
</g>
</svg>
