<?xml version="1.0" encoding="UTF-8" standalone="no"?>
<!DOCTYPE svg PUBLIC "-//W3C//DTD SVG 1.1//EN"
 "http://www.w3.org/Graphics/SVG/1.1/DTD/svg11.dtd">
<!-- Generated by graphviz version 2.30.1 (20150305.2338)
 -->
<!-- Title: Init Pages: 1 -->
<svg width="546pt" height="87pt"
 viewBox="0.00 0.00 546.00 87.00" xmlns="http://www.w3.org/2000/svg" xmlns:xlink="http://www.w3.org/1999/xlink">
<g id="graph0" class="graph" transform="scale(1 1) rotate(0) translate(4 83)">
<title>Init</title>
<!-- Node1 -->
<g id="node1" class="node"><title>Node1</title>
<polygon fill="#bfbfbf" stroke="black" points="0,-29.5 0,-48.5 30,-48.5 30,-29.5 0,-29.5"/>
<text text-anchor="middle" x="15" y="-36.5" font-family="Helvetica,sans-Serif" font-size="10.00">Init</text>
</g>
<!-- Node2 -->
<g id="node2" class="node"><title>Node2</title>
<g id="a_node2"><a xlink:href="classIRAD_1_1Sys_1_1fdostream_a9c75c18093415e5ee6ed0db880234d50.html#a9c75c18093415e5ee6ed0db880234d50" target="_top" xlink:title="IRAD::Sys::fdostream\l::Init">
<polygon fill="none" stroke="black" points="66,-24 66,-54 180,-54 180,-24 66,-24"/>
<text text-anchor="start" x="74" y="-42" font-family="Helvetica,sans-Serif" font-size="10.00">IRAD::Sys::fdostream</text>
<text text-anchor="middle" x="123" y="-31" font-family="Helvetica,sans-Serif" font-size="10.00">::Init</text>
</a>
</g>
</g>
<!-- Node1&#45;&gt;Node2 -->
<g id="edge1" class="edge"><title>Node1&#45;&gt;Node2</title>
<path fill="none" stroke="midnightblue" d="M40.2966,-39C47.9917,-39 56.8429,-39 65.8162,-39"/>
<polygon fill="midnightblue" stroke="midnightblue" points="40.2957,-35.5001 30.2956,-39 40.2956,-42.5001 40.2957,-35.5001"/>
</g>
<!-- Node3 -->
<g id="node3" class="node"><title>Node3</title>
<g id="a_node3"><a xlink:href="classSolverUtils_1_1FEM_1_1FDSolverAgent_a4e41c412c645542865875d0387fdcac9.html#a4e41c412c645542865875d0387fdcac9" target="_top" xlink:title="SolverUtils::FEM::FDSolver\lAgent::FDSolverAgent">
<polygon fill="none" stroke="black" points="216.5,-49 216.5,-79 355.5,-79 355.5,-49 216.5,-49"/>
<text text-anchor="start" x="224.5" y="-67" font-family="Helvetica,sans-Serif" font-size="10.00">SolverUtils::FEM::FDSolver</text>
<text text-anchor="middle" x="286" y="-56" font-family="Helvetica,sans-Serif" font-size="10.00">Agent::FDSolverAgent</text>
</a>
</g>
</g>
<!-- Node2&#45;&gt;Node3 -->
<g id="edge2" class="edge"><title>Node2&#45;&gt;Node3</title>
<path fill="none" stroke="midnightblue" d="M190.254,-49.288C198.834,-50.6201 207.636,-51.987 216.255,-53.3252"/>
<polygon fill="midnightblue" stroke="midnightblue" points="190.729,-45.8197 180.31,-47.7438 189.654,-52.7368 190.729,-45.8197"/>
</g>
<!-- Node4 -->
<g id="node4" class="node"><title>Node4</title>
<g id="a_node4"><a xlink:href="classSolverUtils_1_1FEM_1_1FDSolverAgent_a253b0c0f42efced4266cb8d1666c5558.html#a253b0c0f42efced4266cb8d1666c5558" target="_top" xlink:title="SolverUtils::FEM::FDSolver\lAgent::Init">
<polygon fill="none" stroke="black" points="216.5,-0 216.5,-30 355.5,-30 355.5,-0 216.5,-0"/>
<text text-anchor="start" x="224.5" y="-18" font-family="Helvetica,sans-Serif" font-size="10.00">SolverUtils::FEM::FDSolver</text>
<text text-anchor="middle" x="286" y="-7" font-family="Helvetica,sans-Serif" font-size="10.00">Agent::Init</text>
</a>
</g>
</g>
<!-- Node2&#45;&gt;Node4 -->
<g id="edge3" class="edge"><title>Node2&#45;&gt;Node4</title>
<path fill="none" stroke="midnightblue" d="M190.254,-29.1236C198.834,-27.8447 207.636,-26.5325 216.255,-25.2478"/>
<polygon fill="midnightblue" stroke="midnightblue" points="189.685,-25.6697 180.31,-30.606 190.717,-32.5932 189.685,-25.6697"/>
</g>
<!-- Node5 -->
<g id="node5" class="node"><title>Node5</title>
<g id="a_node5"><a xlink:href="classSolverUtils_1_1FEM_1_1TCPSolverClient_ab7349f2259903dd7619d26035c061186.html#ab7349f2259903dd7619d26035c061186" target="_top" xlink:title="SolverUtils::FEM::TCPSolver\lClient::Connect">
<polygon fill="none" stroke="black" points="392,-0 392,-30 538,-30 538,-0 392,-0"/>
<text text-anchor="start" x="400" y="-18" font-family="Helvetica,sans-Serif" font-size="10.00">SolverUtils::FEM::TCPSolver</text>
<text text-anchor="middle" x="465" y="-7" font-family="Helvetica,sans-Serif" font-size="10.00">Client::Connect</text>
</a>
</g>
</g>
<!-- Node4&#45;&gt;Node5 -->
<g id="edge4" class="edge"><title>Node4&#45;&gt;Node5</title>
<path fill="none" stroke="midnightblue" d="M365.787,-15C374.459,-15 383.256,-15 391.841,-15"/>
<polygon fill="midnightblue" stroke="midnightblue" points="365.686,-11.5001 355.686,-15 365.686,-18.5001 365.686,-11.5001"/>
</g>
</g>
</svg>
