<?xml version="1.0" encoding="UTF-8" standalone="no"?>
<!DOCTYPE svg PUBLIC "-//W3C//DTD SVG 1.1//EN"
 "http://www.w3.org/Graphics/SVG/1.1/DTD/svg11.dtd">
<!-- Generated by graphviz version 2.30.1 (20150305.2338)
 -->
<!-- Title: FinalizeReady Pages: 1 -->
<svg width="626pt" height="153pt"
 viewBox="0.00 0.00 626.00 153.00" xmlns="http://www.w3.org/2000/svg" xmlns:xlink="http://www.w3.org/1999/xlink">
<g id="graph0" class="graph" transform="scale(1 1) rotate(0) translate(4 149)">
<title>FinalizeReady</title>
<!-- Node1 -->
<g id="node1" class="node"><title>Node1</title>
<polygon fill="#bfbfbf" stroke="black" points="0.5,-41.5 0.5,-60.5 79.5,-60.5 79.5,-41.5 0.5,-41.5"/>
<text text-anchor="middle" x="40" y="-48.5" font-family="Helvetica,sans-Serif" font-size="10.00">FinalizeReady</text>
</g>
<!-- Node2 -->
<g id="node2" class="node"><title>Node2</title>
<g id="a_node2"><a xlink:href="classIRAD_1_1Global_1_1GlobalObj_a6068a393f390317c207fce14a60f9ef4.html#a6068a393f390317c207fce14a60f9ef4" target="_top" xlink:title="Finalizes the global object, and it&#39;s profiler object. ">
<polygon fill="none" stroke="black" points="116,-60.5 116,-101.5 264,-101.5 264,-60.5 116,-60.5"/>
<text text-anchor="start" x="124" y="-89.5" font-family="Helvetica,sans-Serif" font-size="10.00">IRAD::Global::GlobalObj</text>
<text text-anchor="start" x="124" y="-78.5" font-family="Helvetica,sans-Serif" font-size="10.00">&lt; StackType, int, ProfilerType</text>
<text text-anchor="middle" x="190" y="-67.5" font-family="Helvetica,sans-Serif" font-size="10.00"> &gt;::Finalize</text>
</a>
</g>
</g>
<!-- Node1&#45;&gt;Node2 -->
<g id="edge1" class="edge"><title>Node1&#45;&gt;Node2</title>
<path fill="none" stroke="midnightblue" d="M89.7733,-60.8865C98.1042,-62.5752 106.92,-64.3621 115.722,-66.1463"/>
<polygon fill="midnightblue" stroke="midnightblue" points="90.3813,-57.4386 79.8853,-58.8821 88.9906,-64.2991 90.3813,-57.4386"/>
</g>
<!-- Node7 -->
<g id="node7" class="node"><title>Node7</title>
<g id="a_node7"><a xlink:href="classIRAD_1_1Global_1_1GlobalObj_a30b2be2228e2d7ff57c3f7ea89742398.html#a30b2be2228e2d7ff57c3f7ea89742398" target="_top" xlink:title="Sets the Profiler object. ">
<polygon fill="none" stroke="black" points="116,-0.5 116,-41.5 264,-41.5 264,-0.5 116,-0.5"/>
<text text-anchor="start" x="124" y="-29.5" font-family="Helvetica,sans-Serif" font-size="10.00">IRAD::Global::GlobalObj</text>
<text text-anchor="start" x="124" y="-18.5" font-family="Helvetica,sans-Serif" font-size="10.00">&lt; StackType, int, ProfilerType</text>
<text text-anchor="middle" x="190" y="-7.5" font-family="Helvetica,sans-Serif" font-size="10.00"> &gt;::SetProfiler</text>
</a>
</g>
</g>
<!-- Node1&#45;&gt;Node7 -->
<g id="edge6" class="edge"><title>Node1&#45;&gt;Node7</title>
<path fill="none" stroke="midnightblue" d="M89.7733,-41.1135C98.1042,-39.4248 106.92,-37.6379 115.722,-35.8537"/>
<polygon fill="midnightblue" stroke="midnightblue" points="88.9906,-37.7009 79.8853,-43.1179 90.3813,-44.5614 88.9906,-37.7009"/>
</g>
<!-- Node3 -->
<g id="node3" class="node"><title>Node3</title>
<g id="a_node3"><a xlink:href="classIRAD_1_1Global_1_1Program_a6068a393f390317c207fce14a60f9ef4.html#a6068a393f390317c207fce14a60f9ef4" target="_top" xlink:title="Finalizes the global object, and it&#39;s profiler object. ">
<polygon fill="none" stroke="black" points="300,-66 300,-96 418,-96 418,-66 300,-66"/>
<text text-anchor="start" x="308" y="-84" font-family="Helvetica,sans-Serif" font-size="10.00">IRAD::Global::Program</text>
<text text-anchor="middle" x="359" y="-73" font-family="Helvetica,sans-Serif" font-size="10.00">::Finalize</text>
</a>
</g>
</g>
<!-- Node2&#45;&gt;Node3 -->
<g id="edge2" class="edge"><title>Node2&#45;&gt;Node3</title>
<path fill="none" stroke="midnightblue" d="M274.35,-81C282.975,-81 291.602,-81 299.863,-81"/>
<polygon fill="midnightblue" stroke="midnightblue" points="274.249,-77.5001 264.249,-81 274.249,-84.5001 274.249,-77.5001"/>
</g>
<!-- Node4 -->
<g id="node4" class="node"><title>Node4</title>
<g id="a_node4"><a xlink:href="namespaceElmerFoamFSI_1_1ExampleProgram_a51e123c8b200fe0d466698ff7429bba6.html#a51e123c8b200fe0d466698ff7429bba6" target="_top" xlink:title="Unified driver for the example programs. ">
<polygon fill="none" stroke="black" points="454,-115 454,-145 618,-145 618,-115 454,-115"/>
<text text-anchor="start" x="462" y="-133" font-family="Helvetica,sans-Serif" font-size="10.00">ElmerFoamFSI::ExampleProgram</text>
<text text-anchor="middle" x="536" y="-122" font-family="Helvetica,sans-Serif" font-size="10.00">::Driver</text>
</a>
</g>
</g>
<!-- Node3&#45;&gt;Node4 -->
<g id="edge3" class="edge"><title>Node3&#45;&gt;Node4</title>
<path fill="none" stroke="midnightblue" d="M423.647,-98.8212C442.542,-104.112 463.043,-109.852 481.244,-114.948"/>
<polygon fill="midnightblue" stroke="midnightblue" points="424.507,-95.4274 413.934,-96.1014 422.62,-102.168 424.507,-95.4274"/>
</g>
<!-- Node5 -->
<g id="node5" class="node"><title>Node5</title>
<g id="a_node5"><a xlink:href="namespaceElmerModuleDriver_1_1ExampleProgram_a945c2d21d14578304f149399117a364c.html#a945c2d21d14578304f149399117a364c" target="_top" xlink:title="Unified driver for the example programs. ">
<polygon fill="none" stroke="black" points="474,-66 474,-96 598,-96 598,-66 474,-66"/>
<text text-anchor="start" x="482" y="-84" font-family="Helvetica,sans-Serif" font-size="10.00">ElmerModuleDriver::</text>
<text text-anchor="middle" x="536" y="-73" font-family="Helvetica,sans-Serif" font-size="10.00">ExampleProgram::Driver</text>
</a>
</g>
</g>
<!-- Node3&#45;&gt;Node5 -->
<g id="edge4" class="edge"><title>Node3&#45;&gt;Node5</title>
<path fill="none" stroke="midnightblue" d="M428.511,-81C443.514,-81 459.299,-81 473.985,-81"/>
<polygon fill="midnightblue" stroke="midnightblue" points="428.273,-77.5001 418.272,-81 428.272,-84.5001 428.273,-77.5001"/>
</g>
<!-- Node6 -->
<g id="node6" class="node"><title>Node6</title>
<g id="a_node6"><a xlink:href="namespaceElmerFoamFSI_aff46f457934a8e2d3712bdbfb1688e99.html#aff46f457934a8e2d3712bdbfb1688e99" target="_top" xlink:title="Unified driver for the example programs. ">
<polygon fill="none" stroke="black" points="478.5,-27.5 478.5,-46.5 593.5,-46.5 593.5,-27.5 478.5,-27.5"/>
<text text-anchor="middle" x="536" y="-34.5" font-family="Helvetica,sans-Serif" font-size="10.00">ElmerFoamFSI::Driver</text>
</a>
</g>
</g>
<!-- Node3&#45;&gt;Node6 -->
<g id="edge5" class="edge"><title>Node3&#45;&gt;Node6</title>
<path fill="none" stroke="midnightblue" d="M427.969,-63.5785C436.725,-61.3539 445.573,-59.1161 454,-57 467.768,-53.5428 482.865,-49.8016 496.256,-46.5005"/>
<polygon fill="midnightblue" stroke="midnightblue" points="426.976,-60.2194 418.148,-66.0772 428.702,-67.0032 426.976,-60.2194"/>
</g>
</g>
</svg>
