<?xml version="1.0" encoding="UTF-8" standalone="no"?>
<!DOCTYPE svg PUBLIC "-//W3C//DTD SVG 1.1//EN"
 "http://www.w3.org/Graphics/SVG/1.1/DTD/svg11.dtd">
<!-- Generated by graphviz version 2.26.0 (20091210.2329)
 -->
<!-- Title: Epilogue Pages: 1 -->
<svg width="388pt" height="90pt"
 viewBox="0.00 0.00 388.00 90.00" xmlns="http://www.w3.org/2000/svg" xmlns:xlink="http://www.w3.org/1999/xlink">
<g id="graph1" class="graph" transform="scale(1 1) rotate(0) translate(4 86)">
<title>Epilogue</title>
<!-- Node1 -->
<g id="node1" class="node"><title>Node1</title>
<polygon fill="#bfbfbf" stroke="black" points="0,-20.5 0,-41.5 54,-41.5 54,-20.5 0,-20.5"/>
<text text-anchor="middle" x="27" y="-28.5" font-family="Helvetica,sans-Serif" font-size="10.00">Epilogue</text>
</g>
<!-- Node2 -->
<g id="node3" class="node"><title>Node2</title>
<a xlink:href="classElmerModuleDriver_1_1TestingObject_a046f7ab06db0acf616b0d2bf3d3146aa.html#a046f7ab06db0acf616b0d2bf3d3146aa" target="_top" xlink:title="Process">
<polygon fill="none" stroke="black" points="90.5,-60.5 90.5,-81.5 143.5,-81.5 143.5,-60.5 90.5,-60.5"/>
<text text-anchor="middle" x="117" y="-68.5" font-family="Helvetica,sans-Serif" font-size="10.00">Process</text>
</a>
</g>
<!-- Node1&#45;&gt;Node2 -->
<g id="edge2" class="edge"><title>Node1&#45;&gt;Node2</title>
<path fill="none" stroke="midnightblue" d="M59.9796,-45.6576C70.9866,-50.5496 83.029,-55.9018 93.199,-60.4218"/>
<polygon fill="midnightblue" stroke="midnightblue" points="61.2061,-42.3726 50.6464,-41.5095 58.3631,-48.7693 61.2061,-42.3726"/>
</g>
<!-- Node5 -->
<g id="node9" class="node"><title>Node5</title>
<a xlink:href="classElmerModuleDriver_1_1TestingObject_a21159bd2efac623e5a5079f6a20f3444.html#a21159bd2efac623e5a5079f6a20f3444" target="_top" xlink:title="Runs a list of tests specified by name. ">
<polygon fill="none" stroke="black" points="204.5,-0.5 204.5,-21.5 281.5,-21.5 281.5,-0.5 204.5,-0.5"/>
<text text-anchor="middle" x="243" y="-8.5" font-family="Helvetica,sans-Serif" font-size="10.00">ProcessTests</text>
</a>
</g>
<!-- Node1&#45;&gt;Node5 -->
<g id="edge8" class="edge"><title>Node1&#45;&gt;Node5</title>
<path fill="none" stroke="midnightblue" d="M63.554,-17.3142C72.1118,-14.6954 81.2787,-12.3511 90,-11 128.587,-5.02215 173.307,-5.90948 204.394,-7.74883"/>
<polygon fill="midnightblue" stroke="midnightblue" points="62.2771,-14.049 53.8509,-20.4715 64.4431,-20.7055 62.2771,-14.049"/>
</g>
<!-- Node6 -->
<g id="node11" class="node"><title>Node6</title>
<a xlink:href="classElmerModuleDriver_1_1TestingObject_af1f07f14b9af7708e4264bb38937eed2.html#af1f07f14b9af7708e4264bb38937eed2" target="_top" xlink:title="Runs a test specified by name. ">
<polygon fill="none" stroke="black" points="90,-20.5 90,-41.5 144,-41.5 144,-20.5 90,-20.5"/>
<text text-anchor="middle" x="117" y="-28.5" font-family="Helvetica,sans-Serif" font-size="10.00">RunTest</text>
</a>
</g>
<!-- Node1&#45;&gt;Node6 -->
<g id="edge10" class="edge"><title>Node1&#45;&gt;Node6</title>
<path fill="none" stroke="midnightblue" d="M64.1581,-31C72.7131,-31 81.6584,-31 89.705,-31"/>
<polygon fill="midnightblue" stroke="midnightblue" points="64.003,-27.5001 54.003,-31 64.0029,-34.5001 64.003,-27.5001"/>
</g>
<!-- Node3 -->
<g id="node5" class="node"><title>Node3</title>
<a xlink:href="namespaceElmerModuleDriver_a657930328d3dc159ded2e9fd6473b2b6.html#a657930328d3dc159ded2e9fd6473b2b6" target="_top" xlink:title="Drives the ElmerModuleDriver::TestObject. ">
<polygon fill="none" stroke="black" points="180.5,-50.5 180.5,-71.5 305.5,-71.5 305.5,-50.5 180.5,-50.5"/>
<text text-anchor="middle" x="243" y="-58.5" font-family="Helvetica,sans-Serif" font-size="10.00">ElmerModuleDriver::Test</text>
</a>
</g>
<!-- Node2&#45;&gt;Node3 -->
<g id="edge4" class="edge"><title>Node2&#45;&gt;Node3</title>
<path fill="none" stroke="midnightblue" d="M153.818,-68.078C162.147,-67.4169 171.219,-66.6969 180.283,-65.9776"/>
<polygon fill="midnightblue" stroke="midnightblue" points="153.413,-64.599 143.721,-68.8793 153.967,-71.577 153.413,-64.599"/>
</g>
<!-- Node4 -->
<g id="node7" class="node"><title>Node4</title>
<a xlink:href="TestElmerModuleDriver_8C_a0ddf1224851353fc92bfbff6f499fa97.html#a0ddf1224851353fc92bfbff6f499fa97" target="_top" xlink:title="main">
<polygon fill="none" stroke="black" points="342,-50.5 342,-71.5 380,-71.5 380,-50.5 342,-50.5"/>
<text text-anchor="middle" x="361" y="-58.5" font-family="Helvetica,sans-Serif" font-size="10.00">main</text>
</a>
</g>
<!-- Node3&#45;&gt;Node4 -->
<g id="edge6" class="edge"><title>Node3&#45;&gt;Node4</title>
<path fill="none" stroke="midnightblue" d="M315.837,-61C325.336,-61 334.327,-61 341.749,-61"/>
<polygon fill="midnightblue" stroke="midnightblue" points="315.8,-57.5001 305.8,-61 315.8,-64.5001 315.8,-57.5001"/>
</g>
<!-- Node6&#45;&gt;Node3 -->
<g id="edge14" class="edge"><title>Node6&#45;&gt;Node3</title>
<path fill="none" stroke="midnightblue" d="M153.827,-39.7683C167.863,-43.1102 184.007,-46.9541 198.668,-50.4449"/>
<polygon fill="midnightblue" stroke="midnightblue" points="154.569,-36.3472 144.03,-37.4358 152.948,-43.1569 154.569,-36.3472"/>
</g>
<!-- Node6&#45;&gt;Node5 -->
<g id="edge12" class="edge"><title>Node6&#45;&gt;Node5</title>
<path fill="none" stroke="midnightblue" d="M153.949,-25.135C169.703,-22.6345 188.094,-19.7153 204.059,-17.1811"/>
<polygon fill="midnightblue" stroke="midnightblue" points="153.358,-21.685 144.03,-26.7095 154.455,-28.5985 153.358,-21.685"/>
</g>
</g>
</svg>
