<?xml version="1.0" encoding="UTF-8" standalone="no"?>
<!DOCTYPE svg PUBLIC "-//W3C//DTD SVG 1.1//EN"
 "http://www.w3.org/Graphics/SVG/1.1/DTD/svg11.dtd">
<!-- Generated by graphviz version 2.26.0 (20091210.2329)
 -->
<!-- Title: fsifoam_module Pages: 1 -->
<svg width="170pt" height="88pt"
 viewBox="0.00 0.00 170.00 88.00" xmlns="http://www.w3.org/2000/svg" xmlns:xlink="http://www.w3.org/1999/xlink">
<g id="graph1" class="graph" transform="scale(1 1) rotate(0) translate(4 84)">
<title>fsifoam_module</title>
<!-- Node1 -->
<g id="node1" class="node"><title>Node1</title>
<polygon fill="#bfbfbf" stroke="black" points="39,-0.5 39,-21.5 125,-21.5 125,-0.5 39,-0.5"/>
<text text-anchor="middle" x="82" y="-8.5" font-family="Helvetica,sans-Serif" font-size="10.00">fsifoam_module</text>
</g>
<!-- Node2 -->
<g id="node2" class="node"><title>Node2</title>
<polygon fill="none" stroke="#bfbfbf" points="0,-58.5 0,-79.5 74,-79.5 74,-58.5 0,-58.5"/>
<text text-anchor="middle" x="37" y="-66.5" font-family="Helvetica,sans-Serif" font-size="10.00">COM_Object</text>
</g>
<!-- Node2&#45;&gt;Node1 -->
<g id="edge2" class="edge"><title>Node2&#45;&gt;Node1</title>
<path fill="none" stroke="midnightblue" d="M51.5471,-50.2504C58.9181,-40.75 67.5961,-29.5651 73.7986,-21.5707"/>
<polygon fill="midnightblue" stroke="midnightblue" points="48.6184,-48.3155 45.2537,-58.3619 54.149,-52.6065 48.6184,-48.3155"/>
</g>
<!-- Node3 -->
<g id="node4" class="node"><title>Node3</title>
<polygon fill="none" stroke="#bfbfbf" points="92,-58.5 92,-79.5 162,-79.5 162,-58.5 92,-58.5"/>
<text text-anchor="middle" x="127" y="-66.5" font-family="Helvetica,sans-Serif" font-size="10.00">SolverAgent</text>
</g>
<!-- Node3&#45;&gt;Node1 -->
<g id="edge4" class="edge"><title>Node3&#45;&gt;Node1</title>
<path fill="none" stroke="midnightblue" d="M112.453,-50.2504C105.082,-40.75 96.4039,-29.5651 90.2014,-21.5707"/>
<polygon fill="midnightblue" stroke="midnightblue" points="109.851,-52.6065 118.746,-58.3619 115.382,-48.3155 109.851,-52.6065"/>
</g>
</g>
</svg>
