<?xml version="1.0" encoding="UTF-8" standalone="no"?>
<!DOCTYPE svg PUBLIC "-//W3C//DTD SVG 1.1//EN"
 "http://www.w3.org/Graphics/SVG/1.1/DTD/svg11.dtd">
<!-- Generated by graphviz version 2.30.1 (20150305.2338)
 -->
<!-- Title: pointer Pages: 1 -->
<svg width="240pt" height="116pt"
 viewBox="0.00 0.00 240.00 116.00" xmlns="http://www.w3.org/2000/svg" xmlns:xlink="http://www.w3.org/1999/xlink">
<g id="graph0" class="graph" transform="scale(1 1) rotate(0) translate(4 112)">
<title>pointer</title>
<!-- Node1 -->
<g id="node1" class="node"><title>Node1</title>
<polygon fill="#bfbfbf" stroke="black" points="0,-44.5 0,-63.5 46,-63.5 46,-44.5 0,-44.5"/>
<text text-anchor="middle" x="23" y="-51.5" font-family="Helvetica,sans-Serif" font-size="10.00">pointer</text>
</g>
<!-- Node2 -->
<g id="node2" class="node"><title>Node2</title>
<g id="a_node2"><a xlink:href="classConnectivity_aefcffcff5a9d274e902717ebfdbeaf1f.html#aefcffcff5a9d274e902717ebfdbeaf1f" target="_top" xlink:title="Get a pointer to the connectivity array. ">
<polygon fill="none" stroke="black" points="103.5,-88.5 103.5,-107.5 210.5,-107.5 210.5,-88.5 103.5,-88.5"/>
<text text-anchor="middle" x="157" y="-95.5" font-family="Helvetica,sans-Serif" font-size="10.00">Connectivity::pointer</text>
</a>
</g>
</g>
<!-- Node1&#45;&gt;Node2 -->
<g id="edge1" class="edge"><title>Node1&#45;&gt;Node2</title>
<path fill="none" stroke="midnightblue" d="M54.6667,-67.5501C63.4104,-71.1776 73.0058,-74.9378 82,-78 93.2123,-81.8173 105.572,-85.3977 116.927,-88.4445"/>
<polygon fill="midnightblue" stroke="midnightblue" points="55.8072,-64.2322 45.234,-63.5551 53.0772,-70.6779 55.8072,-64.2322"/>
</g>
<!-- Node3 -->
<g id="node3" class="node"><title>Node3</title>
<g id="a_node3"><a xlink:href="classElement__node__vectors__k__const_a02114ee9def538668bfc98d2d00c4409.html#a02114ee9def538668bfc98d2d00c4409" target="_top" xlink:title="initialize the accessor from an attribute assiciated with a pane. ">
<polygon fill="none" stroke="black" points="99,-39 99,-69 215,-69 215,-39 99,-39"/>
<text text-anchor="start" x="107" y="-57" font-family="Helvetica,sans-Serif" font-size="10.00">Element_node_vectors</text>
<text text-anchor="middle" x="157" y="-46" font-family="Helvetica,sans-Serif" font-size="10.00">_k_const::set</text>
</a>
</g>
</g>
<!-- Node1&#45;&gt;Node3 -->
<g id="edge2" class="edge"><title>Node1&#45;&gt;Node3</title>
<path fill="none" stroke="midnightblue" d="M56.2569,-54C69.083,-54 84.2348,-54 98.8039,-54"/>
<polygon fill="midnightblue" stroke="midnightblue" points="56.0939,-50.5001 46.0938,-54 56.0938,-57.5001 56.0939,-50.5001"/>
</g>
<!-- Node4 -->
<g id="node4" class="node"><title>Node4</title>
<g id="a_node4"><a xlink:href="classElement__vectors__k__const_a02114ee9def538668bfc98d2d00c4409.html#a02114ee9def538668bfc98d2d00c4409" target="_top" xlink:title="initialize the accessor from an attribute assiciated with a pane. ">
<polygon fill="none" stroke="black" points="82.5,-0.5 82.5,-19.5 231.5,-19.5 231.5,-0.5 82.5,-0.5"/>
<text text-anchor="middle" x="157" y="-7.5" font-family="Helvetica,sans-Serif" font-size="10.00">Element_vectors_k_const::set</text>
</a>
</g>
</g>
<!-- Node1&#45;&gt;Node4 -->
<g id="edge3" class="edge"><title>Node1&#45;&gt;Node4</title>
<path fill="none" stroke="midnightblue" d="M54.6667,-40.4499C63.4104,-36.8224 73.0058,-33.0622 82,-30 93.2123,-26.1827 105.572,-22.6023 116.927,-19.5555"/>
<polygon fill="midnightblue" stroke="midnightblue" points="53.0772,-37.3221 45.234,-44.4449 55.8072,-43.7678 53.0772,-37.3221"/>
</g>
</g>
</svg>
