<?xml version="1.0" encoding="UTF-8" standalone="no"?>
<!DOCTYPE svg PUBLIC "-//W3C//DTD SVG 1.1//EN"
 "http://www.w3.org/Graphics/SVG/1.1/DTD/svg11.dtd">
<!-- Generated by graphviz version 2.30.1 (20150305.2338)
 -->
<!-- Title: pointer Pages: 1 -->
<svg width="578pt" height="192pt"
 viewBox="0.00 0.00 578.00 192.00" xmlns="http://www.w3.org/2000/svg" xmlns:xlink="http://www.w3.org/1999/xlink">
<g id="graph0" class="graph" transform="scale(1 1) rotate(0) translate(4 188)">
<title>pointer</title>
<!-- Node1 -->
<g id="node1" class="node"><title>Node1</title>
<polygon fill="#bfbfbf" stroke="black" points="0,-76.5 0,-95.5 46,-95.5 46,-76.5 0,-76.5"/>
<text text-anchor="middle" x="23" y="-83.5" font-family="Helvetica,sans-Serif" font-size="10.00">pointer</text>
</g>
<!-- Node2 -->
<g id="node2" class="node"><title>Node2</title>
<g id="a_node2"><a xlink:href="classElement__node__enumerator_ae0c063cfb2479f614be43b9d2f92ba63.html#ae0c063cfb2479f614be43b9d2f92ba63" target="_top" xlink:title="Get the local id of the element within the pane. ">
<polygon fill="none" stroke="black" points="82,-164.5 82,-183.5 228,-183.5 228,-164.5 82,-164.5"/>
<text text-anchor="middle" x="155" y="-171.5" font-family="Helvetica,sans-Serif" font-size="10.00">Element_node_enumerator::id</text>
</a>
</g>
</g>
<!-- Node1&#45;&gt;Node2 -->
<g id="edge1" class="edge"><title>Node1&#45;&gt;Node2</title>
<path fill="none" stroke="midnightblue" d="M35.3559,-104.662C45.6785,-120.086 62.2829,-141.424 82,-154 88.7814,-158.325 96.5013,-161.729 104.307,-164.403"/>
<polygon fill="midnightblue" stroke="midnightblue" points="38.1148,-102.481 29.7688,-95.954 32.2232,-106.261 38.1148,-102.481"/>
</g>
<!-- Node5 -->
<g id="node5" class="node"><title>Node5</title>
<g id="a_node5"><a xlink:href="classElement__node__enumerator__uns_a041249f802c5bf4c2deae666610e03c4.html#a041249f802c5bf4c2deae666610e03c4" target="_top" xlink:title="Element_node_enumerator\l_uns::next">
<polygon fill="none" stroke="black" points="88.5,-115 88.5,-145 221.5,-145 221.5,-115 88.5,-115"/>
<text text-anchor="start" x="96.5" y="-133" font-family="Helvetica,sans-Serif" font-size="10.00">Element_node_enumerator</text>
<text text-anchor="middle" x="155" y="-122" font-family="Helvetica,sans-Serif" font-size="10.00">_uns::next</text>
</a>
</g>
</g>
<!-- Node1&#45;&gt;Node5 -->
<g id="edge4" class="edge"><title>Node1&#45;&gt;Node5</title>
<path fill="none" stroke="midnightblue" d="M55.578,-96.6879C71.7498,-102.161 91.7133,-108.918 109.425,-114.913"/>
<polygon fill="midnightblue" stroke="midnightblue" points="56.647,-93.3548 46.0527,-93.464 54.4028,-99.9853 56.647,-93.3548"/>
</g>
<!-- Node6 -->
<g id="node6" class="node"><title>Node6</title>
<g id="a_node6"><a xlink:href="classConnectivity_a78f646f49fb83340032b735b056a19d3.html#a78f646f49fb83340032b735b056a19d3" target="_top" xlink:title="Get the number of nodes in i&#45;dimension if the mesh is structured. ">
<polygon fill="none" stroke="black" points="134,-76.5 134,-95.5 176,-95.5 176,-76.5 134,-76.5"/>
<text text-anchor="middle" x="155" y="-83.5" font-family="Helvetica,sans-Serif" font-size="10.00">size_i</text>
</a>
</g>
</g>
<!-- Node1&#45;&gt;Node6 -->
<g id="edge5" class="edge"><title>Node1&#45;&gt;Node6</title>
<path fill="none" stroke="midnightblue" d="M56.2542,-86C80.6098,-86 113.268,-86 133.977,-86"/>
<polygon fill="midnightblue" stroke="midnightblue" points="56.0528,-82.5001 46.0527,-86 56.0527,-89.5001 56.0528,-82.5001"/>
</g>
<!-- Node7 -->
<g id="node7" class="node"><title>Node7</title>
<g id="a_node7"><a xlink:href="classConnectivity_aceba035151479eca5c69f9c88563e153.html#aceba035151479eca5c69f9c88563e153" target="_top" xlink:title="Get the number of nodes in j&#45;dimension if the mesh is structured. ">
<polygon fill="none" stroke="black" points="134,-38.5 134,-57.5 176,-57.5 176,-38.5 134,-38.5"/>
<text text-anchor="middle" x="155" y="-45.5" font-family="Helvetica,sans-Serif" font-size="10.00">size_j</text>
</a>
</g>
</g>
<!-- Node1&#45;&gt;Node7 -->
<g id="edge6" class="edge"><title>Node1&#45;&gt;Node7</title>
<path fill="none" stroke="midnightblue" d="M55.7761,-75.2192C64.2649,-72.4411 73.4546,-69.5248 82,-67 99.3573,-61.8716 119.263,-56.67 133.739,-53.009"/>
<polygon fill="midnightblue" stroke="midnightblue" points="54.6068,-71.9195 46.2137,-78.3853 56.8071,-78.5647 54.6068,-71.9195"/>
</g>
<!-- Node8 -->
<g id="node8" class="node"><title>Node8</title>
<g id="a_node8"><a xlink:href="classConnectivity_a66444a3572b3c45f5c5d6eb260238fc3.html#a66444a3572b3c45f5c5d6eb260238fc3" target="_top" xlink:title="Get the number of nodes in k&#45;dimension if the mesh is structured. ">
<polygon fill="none" stroke="black" points="132.5,-0.5 132.5,-19.5 177.5,-19.5 177.5,-0.5 132.5,-0.5"/>
<text text-anchor="middle" x="155" y="-7.5" font-family="Helvetica,sans-Serif" font-size="10.00">size_k</text>
</a>
</g>
</g>
<!-- Node1&#45;&gt;Node8 -->
<g id="edge7" class="edge"><title>Node1&#45;&gt;Node8</title>
<path fill="none" stroke="midnightblue" d="M37.6693,-68.3233C48.4119,-55.6005 64.4532,-38.9851 82,-29 97.6181,-20.1124 117.503,-15.2747 132.416,-12.7092"/>
<polygon fill="midnightblue" stroke="midnightblue" points="34.7131,-66.4114 31.1252,-76.3802 40.1467,-70.8247 34.7131,-66.4114"/>
</g>
<!-- Node3 -->
<g id="node3" class="node"><title>Node3</title>
<g id="a_node3"><a xlink:href="classElement__vectors__k__const_a012daf687ea85e9da2bc2d064de92aa6.html#a012daf687ea85e9da2bc2d064de92aa6" target="_top" xlink:title="initialize the accessor with a pointer and a specific stride. ">
<polygon fill="none" stroke="black" points="264.5,-164.5 264.5,-183.5 413.5,-183.5 413.5,-164.5 264.5,-164.5"/>
<text text-anchor="middle" x="339" y="-171.5" font-family="Helvetica,sans-Serif" font-size="10.00">Element_vectors_k_const::set</text>
</a>
</g>
</g>
<!-- Node2&#45;&gt;Node3 -->
<g id="edge2" class="edge"><title>Node2&#45;&gt;Node3</title>
<path fill="none" stroke="midnightblue" d="M238.329,-174C247.021,-174 255.82,-174 264.404,-174"/>
<polygon fill="midnightblue" stroke="midnightblue" points="238.193,-170.5 228.193,-174 238.193,-177.5 238.193,-170.5"/>
</g>
<!-- Node4 -->
<g id="node4" class="node"><title>Node4</title>
<g id="a_node4"><a xlink:href="classElement__vectors__k_abff5b8faeb81685278bb62a627e784b0.html#abff5b8faeb81685278bb62a627e784b0" target="_top" xlink:title="Element_vectors_k::set">
<polygon fill="none" stroke="black" points="450,-164.5 450,-183.5 570,-183.5 570,-164.5 450,-164.5"/>
<text text-anchor="middle" x="510" y="-171.5" font-family="Helvetica,sans-Serif" font-size="10.00">Element_vectors_k::set</text>
</a>
</g>
</g>
<!-- Node3&#45;&gt;Node4 -->
<g id="edge3" class="edge"><title>Node3&#45;&gt;Node4</title>
<path fill="none" stroke="midnightblue" d="M423.89,-174C432.65,-174 441.418,-174 449.818,-174"/>
<polygon fill="midnightblue" stroke="midnightblue" points="423.634,-170.5 413.634,-174 423.634,-177.5 423.634,-170.5"/>
</g>
</g>
</svg>
