<?xml version="1.0" encoding="UTF-8" standalone="no"?>
<!DOCTYPE svg PUBLIC "-//W3C//DTD SVG 1.1//EN"
 "http://www.w3.org/Graphics/SVG/1.1/DTD/svg11.dtd">
<!-- Generated by graphviz version 2.30.1 (20150305.2338)
 -->
<!-- Title: init_copy Pages: 1 -->
<svg width="1626pt" height="381pt"
 viewBox="0.00 0.00 1626.00 381.00" xmlns="http://www.w3.org/2000/svg" xmlns:xlink="http://www.w3.org/1999/xlink">
<g id="graph0" class="graph" transform="scale(1 1) rotate(0) translate(4 377)">
<title>init_copy</title>
<!-- Node1 -->
<g id="node1" class="node"><title>Node1</title>
<polygon fill="#bfbfbf" stroke="black" points="0,-138.5 0,-157.5 56,-157.5 56,-138.5 0,-138.5"/>
<text text-anchor="middle" x="28" y="-145.5" font-family="Helvetica,sans-Serif" font-size="10.00">init_copy</text>
</g>
<!-- Node2 -->
<g id="node2" class="node"><title>Node2</title>
<g id="a_node2"><a xlink:href="namespaceSolverUtils_afc852871326d1c395adc4d153e45a075.html#afc852871326d1c395adc4d153e45a075" target="_top" xlink:title="SolverUtils::PaneToUnstructuredMesh">
<polygon fill="none" stroke="black" points="92.5,-138.5 92.5,-157.5 277.5,-157.5 277.5,-138.5 92.5,-138.5"/>
<text text-anchor="middle" x="185" y="-145.5" font-family="Helvetica,sans-Serif" font-size="10.00">SolverUtils::PaneToUnstructuredMesh</text>
</a>
</g>
</g>
<!-- Node1&#45;&gt;Node2 -->
<g id="edge1" class="edge"><title>Node1&#45;&gt;Node2</title>
<path fill="none" stroke="midnightblue" d="M66.4339,-148C74.4837,-148 83.3291,-148 92.4427,-148"/>
<polygon fill="midnightblue" stroke="midnightblue" points="66.3541,-144.5 56.3541,-148 66.3541,-151.5 66.3541,-144.5"/>
</g>
<!-- Node3 -->
<g id="node3" class="node"><title>Node3</title>
<g id="a_node3"><a xlink:href="namespaceSolverUtils_aba6560399de412c7861129dc7c4a260e.html#aba6560399de412c7861129dc7c4a260e" target="_top" xlink:title="SolverUtils::PaneToAgent">
<polygon fill="none" stroke="black" points="314,-138.5 314,-157.5 444,-157.5 444,-138.5 314,-138.5"/>
<text text-anchor="middle" x="379" y="-145.5" font-family="Helvetica,sans-Serif" font-size="10.00">SolverUtils::PaneToAgent</text>
</a>
</g>
</g>
<!-- Node2&#45;&gt;Node3 -->
<g id="edge2" class="edge"><title>Node2&#45;&gt;Node3</title>
<path fill="none" stroke="midnightblue" d="M287.569,-148C296.477,-148 305.32,-148 313.791,-148"/>
<polygon fill="midnightblue" stroke="midnightblue" points="287.501,-144.5 277.501,-148 287.501,-151.5 287.501,-144.5"/>
</g>
<!-- Node4 -->
<g id="node4" class="node"><title>Node4</title>
<g id="a_node4"><a xlink:href="namespaceSolverUtils_a9da67f474f0ef835bb9707e6598de2bd.html#a9da67f474f0ef835bb9707e6598de2bd" target="_top" xlink:title="SolverUtils::PopulateSolver\lAgentFromWindow">
<polygon fill="none" stroke="black" points="480.5,-133 480.5,-163 617.5,-163 617.5,-133 480.5,-133"/>
<text text-anchor="start" x="488.5" y="-151" font-family="Helvetica,sans-Serif" font-size="10.00">SolverUtils::PopulateSolver</text>
<text text-anchor="middle" x="549" y="-140" font-family="Helvetica,sans-Serif" font-size="10.00">AgentFromWindow</text>
</a>
</g>
</g>
<!-- Node3&#45;&gt;Node4 -->
<g id="edge3" class="edge"><title>Node3&#45;&gt;Node4</title>
<path fill="none" stroke="midnightblue" d="M454.494,-148C463.103,-148 471.846,-148 480.356,-148"/>
<polygon fill="midnightblue" stroke="midnightblue" points="454.473,-144.5 444.473,-148 454.473,-151.5 454.473,-144.5"/>
</g>
<!-- Node5 -->
<g id="node5" class="node"><title>Node5</title>
<g id="a_node5"><a xlink:href="classopenfoamagent_a9a8261713154978fa009d8cb2c533055.html#a9a8261713154978fa009d8cb2c533055" target="_top" xlink:title="openfoamagent::Initialize">
<polygon fill="none" stroke="black" points="661.5,-157.5 661.5,-176.5 786.5,-176.5 786.5,-157.5 661.5,-157.5"/>
<text text-anchor="middle" x="724" y="-164.5" font-family="Helvetica,sans-Serif" font-size="10.00">openfoamagent::Initialize</text>
</a>
</g>
</g>
<!-- Node4&#45;&gt;Node5 -->
<g id="edge4" class="edge"><title>Node4&#45;&gt;Node5</title>
<path fill="none" stroke="midnightblue" d="M628.024,-156.569C639.154,-157.791 650.472,-159.034 661.233,-160.216"/>
<polygon fill="midnightblue" stroke="midnightblue" points="628.2,-153.067 617.878,-155.455 627.436,-160.026 628.2,-153.067"/>
</g>
<!-- Node20 -->
<g id="node20" class="node"><title>Node20</title>
<g id="a_node20"><a xlink:href="classopenfoamagentpar_a9a8261713154978fa009d8cb2c533055.html#a9a8261713154978fa009d8cb2c533055" target="_top" xlink:title="openfoamagentpar::Initialize">
<polygon fill="none" stroke="black" points="654.5,-119.5 654.5,-138.5 793.5,-138.5 793.5,-119.5 654.5,-119.5"/>
<text text-anchor="middle" x="724" y="-126.5" font-family="Helvetica,sans-Serif" font-size="10.00">openfoamagentpar::Initialize</text>
</a>
</g>
</g>
<!-- Node4&#45;&gt;Node20 -->
<g id="edge30" class="edge"><title>Node4&#45;&gt;Node20</title>
<path fill="none" stroke="midnightblue" d="M627.832,-139.452C636.713,-138.477 645.718,-137.488 654.466,-136.527"/>
<polygon fill="midnightblue" stroke="midnightblue" points="627.436,-135.974 617.878,-140.545 628.2,-142.933 627.436,-135.974"/>
</g>
<!-- Node22 -->
<g id="node22" class="node"><title>Node22</title>
<g id="a_node22"><a xlink:href="classelmeragent_a66d8ac5294227a11adf08cdfa91f59b5.html#a66d8ac5294227a11adf08cdfa91f59b5" target="_top" xlink:title="elmeragent::Initialize">
<polygon fill="none" stroke="black" points="670.5,-195.5 670.5,-214.5 777.5,-214.5 777.5,-195.5 670.5,-195.5"/>
<text text-anchor="middle" x="724" y="-202.5" font-family="Helvetica,sans-Serif" font-size="10.00">elmeragent::Initialize</text>
</a>
</g>
</g>
<!-- Node4&#45;&gt;Node22 -->
<g id="edge32" class="edge"><title>Node4&#45;&gt;Node22</title>
<path fill="none" stroke="midnightblue" d="M598.181,-166.534C615.654,-173.008 635.616,-180.121 654,-186 664.414,-189.33 675.822,-192.616 686.31,-195.495"/>
<polygon fill="midnightblue" stroke="midnightblue" points="599.348,-163.233 588.755,-163.014 596.899,-169.791 599.348,-163.233"/>
</g>
<!-- Node24 -->
<g id="node24" class="node"><title>Node24</title>
<g id="a_node24"><a xlink:href="classelmeragentpar_a66d8ac5294227a11adf08cdfa91f59b5.html#a66d8ac5294227a11adf08cdfa91f59b5" target="_top" xlink:title="elmeragentpar::Initialize">
<polygon fill="none" stroke="black" points="664,-81.5 664,-100.5 784,-100.5 784,-81.5 664,-81.5"/>
<text text-anchor="middle" x="724" y="-88.5" font-family="Helvetica,sans-Serif" font-size="10.00">elmeragentpar::Initialize</text>
</a>
</g>
</g>
<!-- Node4&#45;&gt;Node24 -->
<g id="edge37" class="edge"><title>Node4&#45;&gt;Node24</title>
<path fill="none" stroke="midnightblue" d="M598.181,-129.466C615.654,-122.992 635.616,-115.879 654,-110 664.414,-106.67 675.822,-103.384 686.31,-100.505"/>
<polygon fill="midnightblue" stroke="midnightblue" points="596.899,-126.209 588.755,-132.986 599.348,-132.767 596.899,-126.209"/>
</g>
<!-- Node6 -->
<g id="node6" class="node"><title>Node6</title>
<g id="a_node6"><a xlink:href="classfsicoupling_ae855141f7b214925c25f7797b8b122a8.html#ae855141f7b214925c25f7797b8b122a8" target="_top" xlink:title="fsicoupling::Initialize">
<polygon fill="none" stroke="black" points="837.5,-176.5 837.5,-195.5 942.5,-195.5 942.5,-176.5 837.5,-176.5"/>
<text text-anchor="middle" x="890" y="-183.5" font-family="Helvetica,sans-Serif" font-size="10.00">fsicoupling::Initialize</text>
</a>
</g>
</g>
<!-- Node5&#45;&gt;Node6 -->
<g id="edge5" class="edge"><title>Node5&#45;&gt;Node6</title>
<path fill="none" stroke="midnightblue" d="M796.85,-175.324C810.47,-176.902 824.469,-178.524 837.313,-180.012"/>
<polygon fill="midnightblue" stroke="midnightblue" points="796.871,-171.803 786.534,-174.129 796.065,-178.757 796.871,-171.803"/>
</g>
<!-- Node19 -->
<g id="node19" class="node"><title>Node19</title>
<g id="a_node19"><a xlink:href="classElmerFoamFSI_1_1TestingObject_a08d0370a943e7c47c0098eb76664a71b.html#a08d0370a943e7c47c0098eb76664a71b" target="_top" xlink:title="Run an initialization check to make sure the OpenFoamFluids are running as they should. ">
<polygon fill="none" stroke="black" points="1004.5,-0 1004.5,-30 1153.5,-30 1153.5,-0 1004.5,-0"/>
<text text-anchor="start" x="1012.5" y="-18" font-family="Helvetica,sans-Serif" font-size="10.00">ElmerFoamFSI::TestingObject</text>
<text text-anchor="middle" x="1079" y="-7" font-family="Helvetica,sans-Serif" font-size="10.00">::Test__OpenFoamFluids</text>
</a>
</g>
</g>
<!-- Node5&#45;&gt;Node19 -->
<g id="edge27" class="edge"><title>Node5&#45;&gt;Node19</title>
<path fill="none" stroke="midnightblue" d="M796.975,-163.943C844.854,-158.532 906.672,-144.668 950,-110 977.625,-87.896 958.453,-61.2015 986,-39 991.526,-34.546 997.792,-30.9111 1004.39,-27.9458"/>
<polygon fill="midnightblue" stroke="midnightblue" points="796.569,-160.466 786.981,-164.973 797.287,-167.429 796.569,-160.466"/>
</g>
<!-- Node7 -->
<g id="node7" class="node"><title>Node7</title>
<g id="a_node7"><a xlink:href="classElmerFoamFSI_1_1SerialDriverProgram_a5803949d99491a7186bf1ee9cee81a3b.html#a5803949d99491a7186bf1ee9cee81a3b" target="_top" xlink:title="This function implements the main function executed by the program. ">
<polygon fill="none" stroke="black" points="1009,-343 1009,-373 1149,-373 1149,-343 1009,-343"/>
<text text-anchor="start" x="1017" y="-361" font-family="Helvetica,sans-Serif" font-size="10.00">ElmerFoamFSI::SerialDriver</text>
<text text-anchor="middle" x="1079" y="-350" font-family="Helvetica,sans-Serif" font-size="10.00">Program::DriverRun</text>
</a>
</g>
</g>
<!-- Node6&#45;&gt;Node7 -->
<g id="edge6" class="edge"><title>Node6&#45;&gt;Node7</title>
<path fill="none" stroke="midnightblue" d="M898.011,-205.036C910.62,-236.572 940.156,-299.491 986,-333 992.815,-337.981 1000.57,-341.97 1008.61,-345.164"/>
<polygon fill="midnightblue" stroke="midnightblue" points="901.249,-203.703 894.385,-195.632 894.718,-206.222 901.249,-203.703"/>
</g>
<!-- Node9 -->
<g id="node9" class="node"><title>Node9</title>
<g id="a_node9"><a xlink:href="classElmerFoamFSI_1_1TestingObject_aa7d577bcec96bb12da930ede076b6023.html#aa7d577bcec96bb12da930ede076b6023" target="_top" xlink:title="Test for fluidAgent&#45;&gt;Run() function. ">
<polygon fill="none" stroke="black" points="1004.5,-49 1004.5,-79 1153.5,-79 1153.5,-49 1004.5,-49"/>
<text text-anchor="start" x="1012.5" y="-67" font-family="Helvetica,sans-Serif" font-size="10.00">ElmerFoamFSI::TestingObject</text>
<text text-anchor="middle" x="1079" y="-56" font-family="Helvetica,sans-Serif" font-size="10.00">::Test__FluidAgentRun</text>
</a>
</g>
</g>
<!-- Node6&#45;&gt;Node9 -->
<g id="edge8" class="edge"><title>Node6&#45;&gt;Node9</title>
<path fill="none" stroke="midnightblue" d="M915.778,-170.888C926.983,-163.347 939.938,-153.581 950,-143 970.133,-121.829 962.277,-105.051 986,-88 991.63,-83.9537 997.888,-80.5891 1004.42,-77.7914"/>
<polygon fill="midnightblue" stroke="midnightblue" points="913.729,-168.046 907.255,-176.433 917.546,-173.914 913.729,-168.046"/>
</g>
<!-- Node15 -->
<g id="node15" class="node"><title>Node15</title>
<g id="a_node15"><a xlink:href="classElmerFoamFSI_1_1TestingObject_a07ff57097065c5066a4421176b63242b.html#a07ff57097065c5066a4421176b63242b" target="_top" xlink:title="Test the functionality of the fsiCoupler. ">
<polygon fill="none" stroke="black" points="1004.5,-245 1004.5,-275 1153.5,-275 1153.5,-245 1004.5,-245"/>
<text text-anchor="start" x="1012.5" y="-263" font-family="Helvetica,sans-Serif" font-size="10.00">ElmerFoamFSI::TestingObject</text>
<text text-anchor="middle" x="1079" y="-252" font-family="Helvetica,sans-Serif" font-size="10.00">::Test__FsiCoupler</text>
</a>
</g>
</g>
<!-- Node6&#45;&gt;Node15 -->
<g id="edge15" class="edge"><title>Node6&#45;&gt;Node15</title>
<path fill="none" stroke="midnightblue" d="M915.785,-200.623C934.573,-211.249 961.289,-225.394 986,-235 995.41,-238.658 1005.56,-241.993 1015.56,-244.95"/>
<polygon fill="midnightblue" stroke="midnightblue" points="917.405,-197.518 906.989,-195.578 913.922,-203.589 917.405,-197.518"/>
</g>
<!-- Node16 -->
<g id="node16" class="node"><title>Node16</title>
<g id="a_node16"><a xlink:href="classElmerFoamFSI_1_1TestingObject_a1fae1ccecf337df1572d5a43cdae1a08.html#a1fae1ccecf337df1572d5a43cdae1a08" target="_top" xlink:title="Test for solidAgent&#45;&gt;Run() function. ">
<polygon fill="none" stroke="black" points="1004.5,-196 1004.5,-226 1153.5,-226 1153.5,-196 1004.5,-196"/>
<text text-anchor="start" x="1012.5" y="-214" font-family="Helvetica,sans-Serif" font-size="10.00">ElmerFoamFSI::TestingObject</text>
<text text-anchor="middle" x="1079" y="-203" font-family="Helvetica,sans-Serif" font-size="10.00">::Test__SolidAgentRun</text>
</a>
</g>
</g>
<!-- Node6&#45;&gt;Node16 -->
<g id="edge18" class="edge"><title>Node6&#45;&gt;Node16</title>
<path fill="none" stroke="midnightblue" d="M952.641,-194.241C969.125,-196.445 987.109,-198.849 1004.18,-201.131"/>
<polygon fill="midnightblue" stroke="midnightblue" points="952.969,-190.754 942.594,-192.898 952.042,-197.692 952.969,-190.754"/>
</g>
<!-- Node17 -->
<g id="node17" class="node"><title>Node17</title>
<g id="a_node17"><a xlink:href="classElmerFoamFSI_1_1TestingObject_abb3c0f68a2d2e212fa6e05e4628c78f0.html#abb3c0f68a2d2e212fa6e05e4628c78f0" target="_top" xlink:title="Test for fsiCoupling::TrasferDisplacementsToFluid function. ">
<polygon fill="none" stroke="black" points="986,-147 986,-177 1172,-177 1172,-147 986,-147"/>
<text text-anchor="start" x="994" y="-165" font-family="Helvetica,sans-Serif" font-size="10.00">ElmerFoamFSI::TestingObject</text>
<text text-anchor="middle" x="1079" y="-154" font-family="Helvetica,sans-Serif" font-size="10.00">::Test__TransferDisplacementsToFluid</text>
</a>
</g>
</g>
<!-- Node6&#45;&gt;Node17 -->
<g id="edge21" class="edge"><title>Node6&#45;&gt;Node17</title>
<path fill="none" stroke="midnightblue" d="M952.567,-178.098C963.192,-176.735 974.441,-175.291 985.668,-173.85"/>
<polygon fill="midnightblue" stroke="midnightblue" points="952.067,-174.634 942.594,-179.378 952.958,-181.577 952.067,-174.634"/>
</g>
<!-- Node18 -->
<g id="node18" class="node"><title>Node18</title>
<g id="a_node18"><a xlink:href="classElmerFoamFSI_1_1TestingObject_a8c738943eca358248eb583bd29c5c332.html#a8c738943eca358248eb583bd29c5c332" target="_top" xlink:title="Test for TransferLoadsToStructures() function. ">
<polygon fill="none" stroke="black" points="993.5,-98 993.5,-128 1164.5,-128 1164.5,-98 993.5,-98"/>
<text text-anchor="start" x="1001.5" y="-116" font-family="Helvetica,sans-Serif" font-size="10.00">ElmerFoamFSI::TestingObject</text>
<text text-anchor="middle" x="1079" y="-105" font-family="Helvetica,sans-Serif" font-size="10.00">::Test__TransferLoadsToStructures</text>
</a>
</g>
</g>
<!-- Node6&#45;&gt;Node18 -->
<g id="edge24" class="edge"><title>Node6&#45;&gt;Node18</title>
<path fill="none" stroke="midnightblue" d="M915.756,-171.303C934.53,-160.64 961.241,-146.481 986,-137 994.633,-133.694 1003.89,-130.687 1013.09,-128.005"/>
<polygon fill="midnightblue" stroke="midnightblue" points="913.884,-168.343 906.969,-176.369 917.38,-174.407 913.884,-168.343"/>
</g>
<!-- Node8 -->
<g id="node8" class="node"><title>Node8</title>
<g id="a_node8"><a xlink:href="namespaceElmerFoamFSI_aff46f457934a8e2d3712bdbfb1688e99.html#aff46f457934a8e2d3712bdbfb1688e99" target="_top" xlink:title="Unified driver for the example programs. ">
<polygon fill="none" stroke="black" points="1225.5,-348.5 1225.5,-367.5 1340.5,-367.5 1340.5,-348.5 1225.5,-348.5"/>
<text text-anchor="middle" x="1283" y="-355.5" font-family="Helvetica,sans-Serif" font-size="10.00">ElmerFoamFSI::Driver</text>
</a>
</g>
</g>
<!-- Node7&#45;&gt;Node8 -->
<g id="edge7" class="edge"><title>Node7&#45;&gt;Node8</title>
<path fill="none" stroke="midnightblue" d="M1159.24,-358C1181.28,-358 1204.78,-358 1225.25,-358"/>
<polygon fill="midnightblue" stroke="midnightblue" points="1159.23,-354.5 1149.23,-358 1159.23,-361.5 1159.23,-354.5"/>
</g>
<!-- Node10 -->
<g id="node10" class="node"><title>Node10</title>
<g id="a_node10"><a xlink:href="classElmerFoamFSI_1_1TestingObject_a046f7ab06db0acf616b0d2bf3d3146aa.html#a046f7ab06db0acf616b0d2bf3d3146aa" target="_top" xlink:title="Runs all tests implemented by the ElmerFoamFSI::TestingObject. ">
<polygon fill="none" stroke="black" points="1208.5,-122 1208.5,-152 1357.5,-152 1357.5,-122 1208.5,-122"/>
<text text-anchor="start" x="1216.5" y="-140" font-family="Helvetica,sans-Serif" font-size="10.00">ElmerFoamFSI::TestingObject</text>
<text text-anchor="middle" x="1283" y="-129" font-family="Helvetica,sans-Serif" font-size="10.00">::Process</text>
</a>
</g>
</g>
<!-- Node9&#45;&gt;Node10 -->
<g id="edge9" class="edge"><title>Node9&#45;&gt;Node10</title>
<path fill="none" stroke="midnightblue" d="M1153.29,-81.9503C1159.66,-83.8624 1165.97,-85.8859 1172,-88 1199.62,-97.6814 1229.93,-111.428 1251.73,-121.899"/>
<polygon fill="midnightblue" stroke="midnightblue" points="1153.84,-78.4672 1143.26,-79.0403 1151.89,-85.1896 1153.84,-78.4672"/>
</g>
<!-- Node13 -->
<g id="node13" class="node"><title>Node13</title>
<g id="a_node13"><a xlink:href="classElmerFoamFSI_1_1TestingObject_af1f07f14b9af7708e4264bb38937eed2.html#af1f07f14b9af7708e4264bb38937eed2" target="_top" xlink:title="Runs a test specified by name. ">
<polygon fill="none" stroke="black" points="1208.5,-171 1208.5,-201 1357.5,-201 1357.5,-171 1208.5,-171"/>
<text text-anchor="start" x="1216.5" y="-189" font-family="Helvetica,sans-Serif" font-size="10.00">ElmerFoamFSI::TestingObject</text>
<text text-anchor="middle" x="1283" y="-178" font-family="Helvetica,sans-Serif" font-size="10.00">::RunTest</text>
</a>
</g>
</g>
<!-- Node9&#45;&gt;Node13 -->
<g id="edge12" class="edge"><title>Node9&#45;&gt;Node13</title>
<path fill="none" stroke="midnightblue" d="M1162.66,-81.532C1165.94,-83.4691 1169.08,-85.6175 1172,-88 1200.04,-110.857 1180.78,-137.168 1208,-161 1212.39,-164.841 1217.39,-168.098 1222.67,-170.857"/>
<polygon fill="midnightblue" stroke="midnightblue" points="1164.15,-78.3624 1153.66,-76.8822 1160.94,-84.5816 1164.15,-78.3624"/>
</g>
<!-- Node11 -->
<g id="node11" class="node"><title>Node11</title>
<g id="a_node11"><a xlink:href="namespaceElmerFoamFSI_aeb590657609088b8ab12a5cbd164fcfa.html#aeb590657609088b8ab12a5cbd164fcfa" target="_top" xlink:title="Drives the ElmerFoamFSI::TestObject. ">
<polygon fill="none" stroke="black" points="1415,-130.5 1415,-149.5 1523,-149.5 1523,-130.5 1415,-130.5"/>
<text text-anchor="middle" x="1469" y="-137.5" font-family="Helvetica,sans-Serif" font-size="10.00">ElmerFoamFSI::Test</text>
</a>
</g>
</g>
<!-- Node10&#45;&gt;Node11 -->
<g id="edge10" class="edge"><title>Node10&#45;&gt;Node11</title>
<path fill="none" stroke="midnightblue" d="M1367.96,-138.369C1383.97,-138.63 1400.3,-138.896 1415,-139.136"/>
<polygon fill="midnightblue" stroke="midnightblue" points="1367.57,-134.862 1357.51,-138.199 1367.46,-141.861 1367.57,-134.862"/>
</g>
<!-- Node12 -->
<g id="node12" class="node"><title>Node12</title>
<g id="a_node12"><a xlink:href="TestElmerFoamFSI_8C_a0ddf1224851353fc92bfbff6f499fa97.html#a0ddf1224851353fc92bfbff6f499fa97" target="_top" xlink:title="main">
<polygon fill="none" stroke="black" points="1580,-130.5 1580,-149.5 1618,-149.5 1618,-130.5 1580,-130.5"/>
<text text-anchor="middle" x="1599" y="-137.5" font-family="Helvetica,sans-Serif" font-size="10.00">main</text>
</a>
</g>
</g>
<!-- Node11&#45;&gt;Node12 -->
<g id="edge11" class="edge"><title>Node11&#45;&gt;Node12</title>
<path fill="none" stroke="midnightblue" d="M1533.19,-140C1550.29,-140 1567.47,-140 1579.84,-140"/>
<polygon fill="midnightblue" stroke="midnightblue" points="1533.17,-136.5 1523.17,-140 1533.17,-143.5 1533.17,-136.5"/>
</g>
<!-- Node14 -->
<g id="node14" class="node"><title>Node14</title>
<g id="a_node14"><a xlink:href="classElmerFoamFSI_1_1TestingObject_a21159bd2efac623e5a5079f6a20f3444.html#a21159bd2efac623e5a5079f6a20f3444" target="_top" xlink:title="Runs a list of tests specified by name. ">
<polygon fill="none" stroke="black" points="1394.5,-171 1394.5,-201 1543.5,-201 1543.5,-171 1394.5,-171"/>
<text text-anchor="start" x="1402.5" y="-189" font-family="Helvetica,sans-Serif" font-size="10.00">ElmerFoamFSI::TestingObject</text>
<text text-anchor="middle" x="1469" y="-178" font-family="Helvetica,sans-Serif" font-size="10.00">::ProcessTests</text>
</a>
</g>
</g>
<!-- Node13&#45;&gt;Node14 -->
<g id="edge13" class="edge"><title>Node13&#45;&gt;Node14</title>
<path fill="none" stroke="midnightblue" d="M1367.53,-186C1376.46,-186 1385.5,-186 1394.3,-186"/>
<polygon fill="midnightblue" stroke="midnightblue" points="1367.51,-182.5 1357.51,-186 1367.51,-189.5 1367.51,-182.5"/>
</g>
<!-- Node13&#45;&gt;Node11 -->
<g id="edge14" class="edge"><title>Node13&#45;&gt;Node11</title>
<path fill="none" stroke="midnightblue" d="M1353.99,-168.503C1379.75,-162.061 1407.97,-155.008 1429.89,-149.529"/>
<polygon fill="midnightblue" stroke="midnightblue" points="1353.1,-165.117 1344.25,-170.938 1354.8,-171.908 1353.1,-165.117"/>
</g>
<!-- Node15&#45;&gt;Node10 -->
<g id="edge16" class="edge"><title>Node15&#45;&gt;Node10</title>
<path fill="none" stroke="midnightblue" d="M1162.69,-241.563C1165.96,-239.592 1169.09,-237.412 1172,-235 1200.17,-211.672 1180.4,-185.001 1208,-161 1211.97,-157.543 1216.46,-154.583 1221.2,-152.048"/>
<polygon fill="midnightblue" stroke="midnightblue" points="1160.91,-238.543 1153.7,-246.307 1164.18,-244.733 1160.91,-238.543"/>
</g>
<!-- Node15&#45;&gt;Node13 -->
<g id="edge17" class="edge"><title>Node15&#45;&gt;Node13</title>
<path fill="none" stroke="midnightblue" d="M1150.67,-241.989C1157.92,-239.786 1165.14,-237.444 1172,-235 1199.57,-225.179 1229.88,-211.445 1251.69,-201.015"/>
<polygon fill="midnightblue" stroke="midnightblue" points="1149.39,-238.718 1140.79,-244.905 1151.37,-245.432 1149.39,-238.718"/>
</g>
<!-- Node16&#45;&gt;Node10 -->
<g id="edge19" class="edge"><title>Node16&#45;&gt;Node10</title>
<path fill="none" stroke="midnightblue" d="M1156.18,-192.525C1161.61,-190.532 1166.94,-188.36 1172,-186 1189.66,-177.771 1190.55,-169.653 1208,-161 1214.66,-157.7 1221.87,-154.71 1229.09,-152.05"/>
<polygon fill="midnightblue" stroke="midnightblue" points="1154.63,-189.356 1146.31,-195.921 1156.91,-195.974 1154.63,-189.356"/>
</g>
<!-- Node16&#45;&gt;Node13 -->
<g id="edge20" class="edge"><title>Node16&#45;&gt;Node13</title>
<path fill="none" stroke="midnightblue" d="M1163.91,-200.615C1178.68,-198.787 1193.96,-196.897 1208.42,-195.107"/>
<polygon fill="midnightblue" stroke="midnightblue" points="1163.28,-197.166 1153.78,-201.868 1164.14,-204.113 1163.28,-197.166"/>
</g>
<!-- Node17&#45;&gt;Node10 -->
<g id="edge22" class="edge"><title>Node17&#45;&gt;Node10</title>
<path fill="none" stroke="midnightblue" d="M1182.14,-149.358C1191.02,-148.26 1199.88,-147.163 1208.46,-146.101"/>
<polygon fill="midnightblue" stroke="midnightblue" points="1181.63,-145.896 1172.13,-150.597 1182.49,-152.843 1181.63,-145.896"/>
</g>
<!-- Node17&#45;&gt;Node13 -->
<g id="edge23" class="edge"><title>Node17&#45;&gt;Node13</title>
<path fill="none" stroke="midnightblue" d="M1182.14,-174.136C1191.02,-175.19 1199.88,-176.244 1208.46,-177.263"/>
<polygon fill="midnightblue" stroke="midnightblue" points="1182.48,-170.651 1172.13,-172.947 1181.65,-177.602 1182.48,-170.651"/>
</g>
<!-- Node18&#45;&gt;Node10 -->
<g id="edge25" class="edge"><title>Node18&#45;&gt;Node10</title>
<path fill="none" stroke="midnightblue" d="M1175.02,-124.29C1186.21,-125.619 1197.5,-126.96 1208.33,-128.247"/>
<polygon fill="midnightblue" stroke="midnightblue" points="1175.13,-120.778 1164.79,-123.074 1174.31,-127.729 1175.13,-120.778"/>
</g>
<!-- Node18&#45;&gt;Node13 -->
<g id="edge26" class="edge"><title>Node18&#45;&gt;Node13</title>
<path fill="none" stroke="midnightblue" d="M1157.72,-131.269C1162.61,-133.034 1167.41,-134.942 1172,-137 1189.55,-144.869 1190.74,-152.516 1208,-161 1215.42,-164.649 1223.51,-167.979 1231.52,-170.934"/>
<polygon fill="midnightblue" stroke="midnightblue" points="1158.81,-127.944 1148.21,-128.05 1156.56,-134.574 1158.81,-127.944"/>
</g>
<!-- Node19&#45;&gt;Node10 -->
<g id="edge28" class="edge"><title>Node19&#45;&gt;Node10</title>
<path fill="none" stroke="midnightblue" d="M1161.09,-33.7878C1164.84,-35.3914 1168.5,-37.1255 1172,-39 1212.59,-60.7268 1250.48,-100.35 1269.4,-121.961"/>
<polygon fill="midnightblue" stroke="midnightblue" points="1162.19,-30.461 1151.61,-30.0649 1159.64,-36.9769 1162.19,-30.461"/>
</g>
<!-- Node19&#45;&gt;Node13 -->
<g id="edge29" class="edge"><title>Node19&#45;&gt;Node13</title>
<path fill="none" stroke="midnightblue" d="M1162.46,-31.4498C1165.88,-33.6687 1169.08,-36.1736 1172,-39 1212.6,-78.3356 1168.81,-120.256 1208,-161 1211.76,-164.909 1216.15,-168.207 1220.89,-170.99"/>
<polygon fill="midnightblue" stroke="midnightblue" points="1164.04,-28.3202 1153.6,-26.5028 1160.62,-34.4326 1164.04,-28.3202"/>
</g>
<!-- Node21 -->
<g id="node21" class="node"><title>Node21</title>
<g id="a_node21"><a xlink:href="classfsicouplingpar_ae855141f7b214925c25f7797b8b122a8.html#ae855141f7b214925c25f7797b8b122a8" target="_top" xlink:title="fsicouplingpar::Initialize">
<polygon fill="none" stroke="black" points="830.5,-81.5 830.5,-100.5 949.5,-100.5 949.5,-81.5 830.5,-81.5"/>
<text text-anchor="middle" x="890" y="-88.5" font-family="Helvetica,sans-Serif" font-size="10.00">fsicouplingpar::Initialize</text>
</a>
</g>
</g>
<!-- Node20&#45;&gt;Node21 -->
<g id="edge31" class="edge"><title>Node20&#45;&gt;Node21</title>
<path fill="none" stroke="midnightblue" d="M776.341,-117.104C799.393,-111.763 826.221,-105.546 847.913,-100.52"/>
<polygon fill="midnightblue" stroke="midnightblue" points="775.336,-113.744 766.384,-119.411 776.916,-120.563 775.336,-113.744"/>
</g>
<!-- Node22&#45;&gt;Node6 -->
<g id="edge33" class="edge"><title>Node22&#45;&gt;Node6</title>
<path fill="none" stroke="midnightblue" d="M787.833,-197.721C804.223,-195.822 821.695,-193.798 837.426,-191.975"/>
<polygon fill="midnightblue" stroke="midnightblue" points="787.324,-194.256 777.793,-198.884 788.13,-201.21 787.324,-194.256"/>
</g>
<!-- Node23 -->
<g id="node23" class="node"><title>Node23</title>
<g id="a_node23"><a xlink:href="classElmerFoamFSI_1_1TestingObject_af35b4f0c5c244be91e637c17b3ebabd9.html#af35b4f0c5c244be91e637c17b3ebabd9" target="_top" xlink:title="Run an initialization check to make sure that the ElmerStructures are running as they should...">
<polygon fill="none" stroke="black" points="1004.5,-294 1004.5,-324 1153.5,-324 1153.5,-294 1004.5,-294"/>
<text text-anchor="start" x="1012.5" y="-312" font-family="Helvetica,sans-Serif" font-size="10.00">ElmerFoamFSI::TestingObject</text>
<text text-anchor="middle" x="1079" y="-301" font-family="Helvetica,sans-Serif" font-size="10.00">::Test__ElmerStructures</text>
</a>
</g>
</g>
<!-- Node22&#45;&gt;Node23 -->
<g id="edge34" class="edge"><title>Node22&#45;&gt;Node23</title>
<path fill="none" stroke="midnightblue" d="M765.136,-217.537C816.289,-233.427 907.506,-261.461 986,-284 997.454,-287.289 1009.74,-290.706 1021.49,-293.918"/>
<polygon fill="midnightblue" stroke="midnightblue" points="766.043,-214.154 755.455,-214.527 763.964,-220.839 766.043,-214.154"/>
</g>
<!-- Node23&#45;&gt;Node10 -->
<g id="edge35" class="edge"><title>Node23&#45;&gt;Node10</title>
<path fill="none" stroke="midnightblue" d="M1162.49,-291.639C1165.89,-289.387 1169.09,-286.852 1172,-284 1212.67,-244.116 1168.31,-201.854 1208,-161 1211.29,-157.61 1215.07,-154.697 1219.14,-152.196"/>
<polygon fill="midnightblue" stroke="midnightblue" points="1160.6,-288.688 1153.63,-296.675 1164.06,-294.772 1160.6,-288.688"/>
</g>
<!-- Node23&#45;&gt;Node13 -->
<g id="edge36" class="edge"><title>Node23&#45;&gt;Node13</title>
<path fill="none" stroke="midnightblue" d="M1158.73,-290.302C1163.31,-288.39 1167.77,-286.294 1172,-284 1212.25,-262.189 1249.99,-222.967 1269.06,-201.345"/>
<polygon fill="midnightblue" stroke="midnightblue" points="1157.26,-287.114 1149.19,-293.976 1159.78,-293.646 1157.26,-287.114"/>
</g>
<!-- Node24&#45;&gt;Node21 -->
<g id="edge38" class="edge"><title>Node24&#45;&gt;Node21</title>
<path fill="none" stroke="midnightblue" d="M794.218,-91C806.27,-91 818.698,-91 830.429,-91"/>
<polygon fill="midnightblue" stroke="midnightblue" points="794.208,-87.5001 784.208,-91 794.208,-94.5001 794.208,-87.5001"/>
</g>
</g>
</svg>
