<?xml version="1.0" encoding="UTF-8" standalone="no"?>
<!DOCTYPE svg PUBLIC "-//W3C//DTD SVG 1.1//EN"
 "http://www.w3.org/Graphics/SVG/1.1/DTD/svg11.dtd">
<!-- Generated by graphviz version 2.30.1 (20150305.2338)
 -->
<!-- Title: SummarizeSerialExecution Pages: 1 -->
<svg width="516pt" height="50pt"
 viewBox="0.00 0.00 516.00 50.00" xmlns="http://www.w3.org/2000/svg" xmlns:xlink="http://www.w3.org/1999/xlink">
<g id="graph0" class="graph" transform="scale(1 1) rotate(0) translate(4 46)">
<title>SummarizeSerialExecution</title>
<!-- Node1 -->
<g id="node1" class="node"><title>Node1</title>
<polygon fill="#bfbfbf" stroke="black" points="0,-11.5 0,-30.5 134,-30.5 134,-11.5 0,-11.5"/>
<text text-anchor="middle" x="67" y="-18.5" font-family="Helvetica,sans-Serif" font-size="10.00">SummarizeSerialExecution</text>
</g>
<!-- Node2 -->
<g id="node2" class="node"><title>Node2</title>
<g id="a_node2"><a xlink:href="classIRAD_1_1Global_1_1GlobalObj_ab41e240910a841a66ce9fba79e07148b.html#ab41e240910a841a66ce9fba79e07148b" target="_top" xlink:title="Creates the final profiling report on the specified stream. ">
<polygon fill="none" stroke="black" points="170,-0.5 170,-41.5 318,-41.5 318,-0.5 170,-0.5"/>
<text text-anchor="start" x="178" y="-29.5" font-family="Helvetica,sans-Serif" font-size="10.00">IRAD::Global::GlobalObj</text>
<text text-anchor="start" x="178" y="-18.5" font-family="Helvetica,sans-Serif" font-size="10.00">&lt; StackType, int, ProfilerType</text>
<text text-anchor="middle" x="244" y="-7.5" font-family="Helvetica,sans-Serif" font-size="10.00"> &gt;::Report</text>
</a>
</g>
</g>
<!-- Node1&#45;&gt;Node2 -->
<g id="edge1" class="edge"><title>Node1&#45;&gt;Node2</title>
<path fill="none" stroke="midnightblue" d="M144.345,-21C152.769,-21 161.334,-21 169.719,-21"/>
<polygon fill="midnightblue" stroke="midnightblue" points="144.16,-17.5001 134.16,-21 144.16,-24.5001 144.16,-17.5001"/>
</g>
<!-- Node3 -->
<g id="node3" class="node"><title>Node3</title>
<g id="a_node3"><a xlink:href="classElmerFoamFSI_1_1SerialDriverProgram_af773e679e752224a4c774f6beef9030c.html#af773e679e752224a4c774f6beef9030c" target="_top" xlink:title="Destructor. ">
<polygon fill="none" stroke="black" points="354.5,-6 354.5,-36 507.5,-36 507.5,-6 354.5,-6"/>
<text text-anchor="start" x="362.5" y="-24" font-family="Helvetica,sans-Serif" font-size="10.00">ElmerFoamFSI::SerialDriver</text>
<text text-anchor="middle" x="431" y="-13" font-family="Helvetica,sans-Serif" font-size="10.00">Program::~SerialDriverProgram</text>
</a>
</g>
</g>
<!-- Node2&#45;&gt;Node3 -->
<g id="edge2" class="edge"><title>Node2&#45;&gt;Node3</title>
<path fill="none" stroke="midnightblue" d="M328.26,-21C336.96,-21 345.77,-21 354.378,-21"/>
<polygon fill="midnightblue" stroke="midnightblue" points="328.117,-17.5001 318.117,-21 328.117,-24.5001 328.117,-17.5001"/>
</g>
</g>
</svg>
