<?xml version="1.0" encoding="UTF-8" standalone="no"?>
<!DOCTYPE svg PUBLIC "-//W3C//DTD SVG 1.1//EN"
 "http://www.w3.org/Graphics/SVG/1.1/DTD/svg11.dtd">
<!-- Generated by graphviz version 2.30.1 (20150305.2338)
 -->
<!-- Title: TestingObject&lt; ResultsType &gt; Pages: 1 -->
<svg width="548pt" height="153pt"
 viewBox="0.00 0.00 548.00 153.00" xmlns="http://www.w3.org/2000/svg" xmlns:xlink="http://www.w3.org/1999/xlink">
<g id="graph0" class="graph" transform="scale(1 1) rotate(0) translate(4 149)">
<title>TestingObject&lt; ResultsType &gt;</title>
<!-- Node1 -->
<g id="node1" class="node"><title>Node1</title>
<polygon fill="#bfbfbf" stroke="black" points="0.5,-68.5 0.5,-87.5 151.5,-87.5 151.5,-68.5 0.5,-68.5"/>
<text text-anchor="middle" x="76" y="-75.5" font-family="Helvetica,sans-Serif" font-size="10.00">TestingObject&lt; ResultsType &gt;</text>
</g>
<!-- Node2 -->
<g id="node2" class="node"><title>Node2</title>
<g id="a_node2"><a xlink:href="classElmerFoamFSI_1_1TestingObject.html" target="_top" xlink:title="Project&#45;specific testing object. ">
<polygon fill="none" stroke="black" points="284.5,-125.5 284.5,-144.5 435.5,-144.5 435.5,-125.5 284.5,-125.5"/>
<text text-anchor="middle" x="360" y="-132.5" font-family="Helvetica,sans-Serif" font-size="10.00">TestingObject&lt; ResultsType &gt;</text>
</a>
</g>
</g>
<!-- Node1&#45;&gt;Node2 -->
<g id="edge1" class="edge"><title>Node1&#45;&gt;Node2</title>
<path fill="none" stroke="midnightblue" d="M121.089,-90.1454C136.499,-94.186 153.956,-98.5348 170,-102 212.163,-111.106 260.033,-119.444 297.046,-125.46"/>
<polygon fill="midnightblue" stroke="midnightblue" points="121.857,-86.7279 111.294,-87.547 120.062,-93.494 121.857,-86.7279"/>
</g>
<!-- Node3 -->
<g id="node3" class="node"><title>Node3</title>
<g id="a_node3"><a xlink:href="classElmerModuleDriver_1_1TestingObject.html" target="_top" xlink:title="Project&#45;specific testing object. ">
<polygon fill="none" stroke="black" points="284.5,-87.5 284.5,-106.5 435.5,-106.5 435.5,-87.5 284.5,-87.5"/>
<text text-anchor="middle" x="360" y="-94.5" font-family="Helvetica,sans-Serif" font-size="10.00">TestingObject&lt; ResultsType &gt;</text>
</a>
</g>
</g>
<!-- Node1&#45;&gt;Node3 -->
<g id="edge2" class="edge"><title>Node1&#45;&gt;Node3</title>
<path fill="none" stroke="midnightblue" d="M162.093,-83.7332C201.021,-86.356 246.733,-89.4359 284.31,-91.9677"/>
<polygon fill="midnightblue" stroke="midnightblue" points="162.043,-80.222 151.83,-83.0418 161.573,-87.2062 162.043,-80.222"/>
</g>
<!-- Node4 -->
<g id="node4" class="node"><title>Node4</title>
<g id="a_node4"><a xlink:href="classOpenFoamModuleDriver_1_1TestingObject.html" target="_top" xlink:title="Project&#45;specific testing object. ">
<polygon fill="none" stroke="black" points="284.5,-49.5 284.5,-68.5 435.5,-68.5 435.5,-49.5 284.5,-49.5"/>
<text text-anchor="middle" x="360" y="-56.5" font-family="Helvetica,sans-Serif" font-size="10.00">TestingObject&lt; ResultsType &gt;</text>
</a>
</g>
</g>
<!-- Node1&#45;&gt;Node4 -->
<g id="edge3" class="edge"><title>Node1&#45;&gt;Node4</title>
<path fill="none" stroke="midnightblue" d="M162.093,-72.2668C201.021,-69.644 246.733,-66.5641 284.31,-64.0323"/>
<polygon fill="midnightblue" stroke="midnightblue" points="161.573,-68.7938 151.83,-72.9582 162.043,-75.778 161.573,-68.7938"/>
</g>
<!-- Node5 -->
<g id="node5" class="node"><title>Node5</title>
<g id="a_node5"><a xlink:href="classIRAD_1_1Util_1_1TestingObject.html" target="_top" xlink:title="TestingObject\&lt; Util\l::TestResults \&gt;">
<polygon fill="none" stroke="black" points="309.5,-0 309.5,-30 410.5,-30 410.5,-0 309.5,-0"/>
<text text-anchor="start" x="317.5" y="-18" font-family="Helvetica,sans-Serif" font-size="10.00">TestingObject&lt; Util</text>
<text text-anchor="middle" x="360" y="-7" font-family="Helvetica,sans-Serif" font-size="10.00">::TestResults &gt;</text>
</a>
</g>
</g>
<!-- Node1&#45;&gt;Node5 -->
<g id="edge4" class="edge"><title>Node1&#45;&gt;Node5</title>
<path fill="none" stroke="orange" stroke-dasharray="5,2" d="M117.141,-65.4479C133.451,-60.5833 152.535,-55.1888 170,-51 216.936,-39.7433 271.102,-29.7245 309.382,-23.1326"/>
<polygon fill="orange" stroke="orange" points="115.946,-62.1526 107.384,-68.3927 117.969,-68.8541 115.946,-62.1526"/>
<text text-anchor="middle" x="218" y="-54" font-family="Helvetica,sans-Serif" font-size="10.00"> &lt; Util::TestResults &gt;</text>
</g>
<!-- Node6 -->
<g id="node6" class="node"><title>Node6</title>
<g id="a_node6"><a xlink:href="classIRAD_1_1Util_1_1TestObject.html" target="_top" xlink:title="TestObject">
<polygon fill="none" stroke="black" points="474.5,-5.5 474.5,-24.5 539.5,-24.5 539.5,-5.5 474.5,-5.5"/>
<text text-anchor="middle" x="507" y="-12.5" font-family="Helvetica,sans-Serif" font-size="10.00">TestObject</text>
</a>
</g>
</g>
<!-- Node5&#45;&gt;Node6 -->
<g id="edge5" class="edge"><title>Node5&#45;&gt;Node6</title>
<path fill="none" stroke="midnightblue" d="M420.906,-15C439.174,-15 458.543,-15 474.179,-15"/>
<polygon fill="midnightblue" stroke="midnightblue" points="420.901,-11.5001 410.901,-15 420.901,-18.5001 420.901,-11.5001"/>
</g>
</g>
</svg>
