<?xml version="1.0" encoding="UTF-8" standalone="no"?>
<!DOCTYPE svg PUBLIC "-//W3C//DTD SVG 1.1//EN"
 "http://www.w3.org/Graphics/SVG/1.1/DTD/svg11.dtd">
<!-- Generated by graphviz version 2.30.1 (20150305.2338)
 -->
<!-- Title: Parameters Pages: 1 -->
<svg width="140pt" height="154pt"
 viewBox="0.00 0.00 140.00 154.00" xmlns="http://www.w3.org/2000/svg" xmlns:xlink="http://www.w3.org/1999/xlink">
<g id="graph0" class="graph" transform="scale(1 1) rotate(0) translate(4 150)">
<title>Parameters</title>
<!-- Node1 -->
<g id="node1" class="node"><title>Node1</title>
<polygon fill="#bfbfbf" stroke="black" points="32.5,-0.5 32.5,-19.5 99.5,-19.5 99.5,-0.5 32.5,-0.5"/>
<text text-anchor="middle" x="66" y="-7.5" font-family="Helvetica,sans-Serif" font-size="10.00">Parameters</text>
</g>
<!-- Node2 -->
<g id="node2" class="node"><title>Node2</title>
<g id="a_node2"><a xlink:title="STL class. ">
<polygon fill="none" stroke="#bfbfbf" points="-0.5,-58.5 -0.5,-77.5 132.5,-77.5 132.5,-58.5 -0.5,-58.5"/>
<text text-anchor="middle" x="66" y="-65.5" font-family="Helvetica,sans-Serif" font-size="10.00">vector&lt; Util::ParamType &gt;</text>
</a>
</g>
</g>
<!-- Node2&#45;&gt;Node1 -->
<g id="edge1" class="edge"><title>Node2&#45;&gt;Node1</title>
<path fill="none" stroke="midnightblue" d="M66,-47.953C66,-38.2875 66,-27.0312 66,-19.5052"/>
<polygon fill="midnightblue" stroke="midnightblue" points="62.5001,-48.25 66,-58.25 69.5001,-48.25 62.5001,-48.25"/>
</g>
<!-- Node3 -->
<g id="node3" class="node"><title>Node3</title>
<polygon fill="none" stroke="#bfbfbf" points="51.5,-126.5 51.5,-145.5 80.5,-145.5 80.5,-126.5 51.5,-126.5"/>
<text text-anchor="middle" x="66" y="-133.5" font-family="Helvetica,sans-Serif" font-size="10.00">T</text>
</g>
<!-- Node3&#45;&gt;Node2 -->
<g id="edge2" class="edge"><title>Node3&#45;&gt;Node2</title>
<path fill="none" stroke="#9a32cd" stroke-dasharray="5,2" d="M66,-116.041C66,-103.472 66,-87.5631 66,-77.8411"/>
<polygon fill="#9a32cd" stroke="#9a32cd" points="62.5001,-116.372 66,-126.372 69.5001,-116.372 62.5001,-116.372"/>
<text text-anchor="middle" x="87.5" y="-99.5" font-family="Helvetica,sans-Serif" font-size="10.00"> elements</text>
</g>
</g>
</svg>
