<?xml version="1.0" encoding="UTF-8" standalone="no"?>
<!DOCTYPE svg PUBLIC "-//W3C//DTD SVG 1.1//EN"
 "http://www.w3.org/Graphics/SVG/1.1/DTD/svg11.dtd">
<!-- Generated by graphviz version 2.26.0 (20091210.2329)
 -->
<!-- Title: addmeshcoordinatesandtime Pages: 1 -->
<svg width="514pt" height="30pt"
 viewBox="0.00 0.00 514.00 30.00" xmlns="http://www.w3.org/2000/svg" xmlns:xlink="http://www.w3.org/1999/xlink">
<g id="graph1" class="graph" transform="scale(1 1) rotate(0) translate(4 26)">
<title>addmeshcoordinatesandtime</title>
<!-- Node1 -->
<g id="node1" class="node"><title>Node1</title>
<polygon fill="#bfbfbf" stroke="black" points="0.5,-0.5 0.5,-21.5 141.5,-21.5 141.5,-0.5 0.5,-0.5"/>
<text text-anchor="middle" x="71" y="-8.5" font-family="Helvetica,sans-Serif" font-size="10.00">addmeshcoordinatesandtime</text>
</g>
<!-- Node2 -->
<g id="node3" class="node"><title>Node2</title>
<a xlink:href="MyInitialize_8F90_a5efd0681c40e89427aed63760a3dd706.html#a5efd0681c40e89427aed63760a3dd706" target="_top" xlink:title="ElmerLib Elmer library routines ">
<polygon fill="none" stroke="black" points="178.5,-0.5 178.5,-21.5 243.5,-21.5 243.5,-0.5 178.5,-0.5"/>
<text text-anchor="middle" x="211" y="-8.5" font-family="Helvetica,sans-Serif" font-size="10.00">myinitialize</text>
</a>
</g>
<!-- Node1&#45;&gt;Node2 -->
<g id="edge2" class="edge"><title>Node1&#45;&gt;Node2</title>
<path fill="none" stroke="midnightblue" d="M151.941,-11C161.203,-11 170.203,-11 178.27,-11"/>
<polygon fill="midnightblue" stroke="midnightblue" points="151.82,-7.5001 141.82,-11 151.82,-14.5001 151.82,-7.5001"/>
</g>
<!-- Node3 -->
<g id="node5" class="node"><title>Node3</title>
<a xlink:href="SolverModule_8F90_a4de4792abefc1f58f85b334aa265a623.html#a4de4792abefc1f58f85b334aa265a623" target="_top" xlink:title="A caller for the Elmer main program. ">
<polygon fill="none" stroke="black" points="280.5,-0.5 280.5,-21.5 335.5,-21.5 335.5,-0.5 280.5,-0.5"/>
<text text-anchor="middle" x="308" y="-8.5" font-family="Helvetica,sans-Serif" font-size="10.00">initializer</text>
</a>
</g>
<!-- Node2&#45;&gt;Node3 -->
<g id="edge4" class="edge"><title>Node2&#45;&gt;Node3</title>
<path fill="none" stroke="midnightblue" d="M253.576,-11C262.603,-11 271.909,-11 280.216,-11"/>
<polygon fill="midnightblue" stroke="midnightblue" points="253.569,-7.5001 243.569,-11 253.569,-14.5001 253.569,-7.5001"/>
</g>
<!-- Node4 -->
<g id="node7" class="node"><title>Node4</title>
<a xlink:href="SolverModule_8F90_a2363fcb6699317c59c1f2f041ee860d2.html#a2363fcb6699317c59c1f2f041ee860d2" target="_top" xlink:title="solvermodule_load_module">
<polygon fill="none" stroke="black" points="372,-0.5 372,-21.5 506,-21.5 506,-0.5 372,-0.5"/>
<text text-anchor="middle" x="439" y="-8.5" font-family="Helvetica,sans-Serif" font-size="10.00">solvermodule_load_module</text>
</a>
</g>
<!-- Node3&#45;&gt;Node4 -->
<g id="edge6" class="edge"><title>Node3&#45;&gt;Node4</title>
<path fill="none" stroke="midnightblue" d="M346.039,-11C354.186,-11 363.026,-11 371.905,-11"/>
<polygon fill="midnightblue" stroke="midnightblue" points="345.782,-7.5001 335.782,-11 345.782,-14.5001 345.782,-7.5001"/>
</g>
</g>
</svg>
