<?xml version="1.0" encoding="UTF-8" standalone="no"?>
<!DOCTYPE svg PUBLIC "-//W3C//DTD SVG 1.1//EN"
 "http://www.w3.org/Graphics/SVG/1.1/DTD/svg11.dtd">
<!-- Generated by graphviz version 2.30.1 (20150305.2338)
 -->
<!-- Title: FormConnectivity Pages: 1 -->
<svg width="248pt" height="116pt"
 viewBox="0.00 0.00 248.00 116.00" xmlns="http://www.w3.org/2000/svg" xmlns:xlink="http://www.w3.org/1999/xlink">
<g id="graph0" class="graph" transform="scale(1 1) rotate(0) translate(4 112)">
<title>FormConnectivity</title>
<!-- Node1 -->
<g id="node1" class="node"><title>Node1</title>
<polygon fill="#bfbfbf" stroke="black" points="0,-44.5 0,-63.5 94,-63.5 94,-44.5 0,-44.5"/>
<text text-anchor="middle" x="47" y="-51.5" font-family="Helvetica,sans-Serif" font-size="10.00">FormConnectivity</text>
</g>
<!-- Node2 -->
<g id="node2" class="node"><title>Node2</title>
<g id="a_node2"><a xlink:href="classSolverUtils_1_1Mesh_1_1MeshUtilityObject_aaaa6c4a41ae628a7697343a69b2229a0.html#aaaa6c4a41ae628a7697343a69b2229a0" target="_top" xlink:title="ECon">
<polygon fill="none" stroke="black" points="164.5,-88.5 164.5,-107.5 205.5,-107.5 205.5,-88.5 164.5,-88.5"/>
<text text-anchor="middle" x="185" y="-95.5" font-family="Helvetica,sans-Serif" font-size="10.00">ECon</text>
</a>
</g>
</g>
<!-- Node1&#45;&gt;Node2 -->
<g id="edge1" class="edge"><title>Node1&#45;&gt;Node2</title>
<path fill="none" stroke="midnightblue" d="M77.51,-63.5473C100.273,-70.9118 131.616,-81.0522 154.401,-88.4239"/>
<polygon fill="midnightblue" stroke="midnightblue" points="153.614,-91.8479 164.206,-91.5961 155.769,-85.1878 153.614,-91.8479"/>
</g>
<!-- Node3 -->
<g id="node3" class="node"><title>Node3</title>
<g id="a_node3"><a xlink:href="classSolverUtils_1_1Mesh_1_1Connectivity_a2105ca18804fbadec8e2d4d1376f2270.html#a2105ca18804fbadec8e2d4d1376f2270" target="_top" xlink:title="SolverUtils::Mesh::\lConnectivity::Inverse">
<polygon fill="none" stroke="black" points="130,-39 130,-69 240,-69 240,-39 130,-39"/>
<text text-anchor="start" x="138" y="-57" font-family="Helvetica,sans-Serif" font-size="10.00">SolverUtils::Mesh::</text>
<text text-anchor="middle" x="185" y="-46" font-family="Helvetica,sans-Serif" font-size="10.00">Connectivity::Inverse</text>
</a>
</g>
</g>
<!-- Node1&#45;&gt;Node3 -->
<g id="edge2" class="edge"><title>Node1&#45;&gt;Node3</title>
<path fill="none" stroke="midnightblue" d="M94.0434,-54C102.241,-54 110.915,-54 119.514,-54"/>
<polygon fill="midnightblue" stroke="midnightblue" points="119.541,-57.5001 129.541,-54 119.541,-50.5001 119.541,-57.5001"/>
</g>
<!-- Node4 -->
<g id="node4" class="node"><title>Node4</title>
<g id="a_node4"><a xlink:href="classSolverUtils_1_1Mesh_1_1MeshUtilityObject_a4ee6fd10b4878cb005f9eb3e11508cdc.html#a4ee6fd10b4878cb005f9eb3e11508cdc" target="_top" xlink:title="NC">
<polygon fill="none" stroke="black" points="169,-0.5 169,-19.5 201,-19.5 201,-0.5 169,-0.5"/>
<text text-anchor="middle" x="185" y="-7.5" font-family="Helvetica,sans-Serif" font-size="10.00">NC</text>
</a>
</g>
</g>
<!-- Node1&#45;&gt;Node4 -->
<g id="edge3" class="edge"><title>Node1&#45;&gt;Node4</title>
<path fill="none" stroke="midnightblue" d="M77.51,-44.4527C101.899,-36.5621 136.137,-25.485 159.146,-18.0409"/>
<polygon fill="midnightblue" stroke="midnightblue" points="160.415,-21.309 168.852,-14.9007 158.26,-14.6489 160.415,-21.309"/>
</g>
</g>
</svg>
