<?xml version="1.0" encoding="UTF-8" standalone="no"?>
<!DOCTYPE svg PUBLIC "-//W3C//DTD SVG 1.1//EN"
 "http://www.w3.org/Graphics/SVG/1.1/DTD/svg11.dtd">
<!-- Generated by graphviz version 2.30.1 (20150305.2338)
 -->
<!-- Title: get_communicator Pages: 1 -->
<svg width="660pt" height="38pt"
 viewBox="0.00 0.00 660.00 38.00" xmlns="http://www.w3.org/2000/svg" xmlns:xlink="http://www.w3.org/1999/xlink">
<g id="graph0" class="graph" transform="scale(1 1) rotate(0) translate(4 34)">
<title>get_communicator</title>
<!-- Node1 -->
<g id="node1" class="node"><title>Node1</title>
<polygon fill="#bfbfbf" stroke="black" points="0.5,-5.5 0.5,-24.5 97.5,-24.5 97.5,-5.5 0.5,-5.5"/>
<text text-anchor="middle" x="49" y="-12.5" font-family="Helvetica,sans-Serif" font-size="10.00">get_communicator</text>
</g>
<!-- Node2 -->
<g id="node2" class="node"><title>Node2</title>
<g id="a_node2"><a xlink:href="com__c_8h_a7480cb279da4775836e08986b3c1ccad.html#a7480cb279da4775836e08986b3c1ccad" target="_top" xlink:title="COM_get_communicator">
<polygon fill="none" stroke="black" points="134.5,-5.5 134.5,-24.5 259.5,-24.5 259.5,-5.5 134.5,-5.5"/>
<text text-anchor="middle" x="197" y="-12.5" font-family="Helvetica,sans-Serif" font-size="10.00">COM_get_communicator</text>
</a>
</g>
</g>
<!-- Node1&#45;&gt;Node2 -->
<g id="edge1" class="edge"><title>Node1&#45;&gt;Node2</title>
<path fill="none" stroke="midnightblue" d="M107.83,-15C116.512,-15 125.494,-15 134.255,-15"/>
<polygon fill="midnightblue" stroke="midnightblue" points="107.806,-11.5001 97.8059,-15 107.806,-18.5001 107.806,-11.5001"/>
</g>
<!-- Node3 -->
<g id="node3" class="node"><title>Node3</title>
<g id="a_node3"><a xlink:href="classCOM_1_1SolverModuleDriver_a36fd5ba3a13672607f2159d56a9f9bf2.html#a36fd5ba3a13672607f2159d56a9f9bf2" target="_top" xlink:title="COM::SolverModuleDriver\l::init">
<polygon fill="none" stroke="black" points="296.5,-0 296.5,-30 427.5,-30 427.5,-0 296.5,-0"/>
<text text-anchor="start" x="304.5" y="-18" font-family="Helvetica,sans-Serif" font-size="10.00">COM::SolverModuleDriver</text>
<text text-anchor="middle" x="362" y="-7" font-family="Helvetica,sans-Serif" font-size="10.00">::init</text>
</a>
</g>
</g>
<!-- Node2&#45;&gt;Node3 -->
<g id="edge2" class="edge"><title>Node2&#45;&gt;Node3</title>
<path fill="none" stroke="midnightblue" d="M269.86,-15C278.661,-15 287.615,-15 296.302,-15"/>
<polygon fill="midnightblue" stroke="midnightblue" points="269.623,-11.5001 259.623,-15 269.623,-18.5001 269.623,-11.5001"/>
</g>
<!-- Node4 -->
<g id="node4" class="node"><title>Node4</title>
<g id="a_node4"><a xlink:href="namespaceCOM_ad2c6e118fa61fc0ead53e102bd072dfd.html#ad2c6e118fa61fc0ead53e102bd072dfd" target="_top" xlink:title="COM::parallelProgram">
<polygon fill="none" stroke="black" points="464.5,-5.5 464.5,-24.5 577.5,-24.5 577.5,-5.5 464.5,-5.5"/>
<text text-anchor="middle" x="521" y="-12.5" font-family="Helvetica,sans-Serif" font-size="10.00">COM::parallelProgram</text>
</a>
</g>
</g>
<!-- Node3&#45;&gt;Node4 -->
<g id="edge3" class="edge"><title>Node3&#45;&gt;Node4</title>
<path fill="none" stroke="midnightblue" d="M437.819,-15C446.771,-15 455.786,-15 464.399,-15"/>
<polygon fill="midnightblue" stroke="midnightblue" points="437.764,-11.5001 427.764,-15 437.764,-18.5001 437.764,-11.5001"/>
</g>
<!-- Node5 -->
<g id="node5" class="node"><title>Node5</title>
<g id="a_node5"><a xlink:href="OFModuleDriverPar_8C_a3c04138a5bfe5d72780bb7e82a18e627.html#a3c04138a5bfe5d72780bb7e82a18e627" target="_top" xlink:title="main">
<polygon fill="none" stroke="black" points="614,-5.5 614,-24.5 652,-24.5 652,-5.5 614,-5.5"/>
<text text-anchor="middle" x="633" y="-12.5" font-family="Helvetica,sans-Serif" font-size="10.00">main</text>
</a>
</g>
</g>
<!-- Node4&#45;&gt;Node5 -->
<g id="edge4" class="edge"><title>Node4&#45;&gt;Node5</title>
<path fill="none" stroke="midnightblue" d="M587.941,-15C597.32,-15 606.257,-15 613.6,-15"/>
<polygon fill="midnightblue" stroke="midnightblue" points="587.645,-11.5001 577.645,-15 587.644,-18.5001 587.645,-11.5001"/>
</g>
</g>
</svg>
