<?xml version="1.0" encoding="UTF-8" standalone="no"?>
<!DOCTYPE svg PUBLIC "-//W3C//DTD SVG 1.1//EN"
 "http://www.w3.org/Graphics/SVG/1.1/DTD/svg11.dtd">
<!-- Generated by graphviz version 2.26.0 (20091210.2329)
 -->
<!-- Title: Epilogue Pages: 1 -->
<svg width="384pt" height="93pt"
 viewBox="0.00 0.00 384.00 93.00" xmlns="http://www.w3.org/2000/svg" xmlns:xlink="http://www.w3.org/1999/xlink">
<g id="graph1" class="graph" transform="scale(1 1) rotate(0) translate(4 89)">
<title>Epilogue</title>
<!-- Node1 -->
<g id="node1" class="node"><title>Node1</title>
<polygon fill="#bfbfbf" stroke="black" points="0,-23.5 0,-44.5 54,-44.5 54,-23.5 0,-23.5"/>
<text text-anchor="middle" x="27" y="-31.5" font-family="Helvetica,sans-Serif" font-size="10.00">Epilogue</text>
</g>
<!-- Node2 -->
<g id="node3" class="node"><title>Node2</title>
<a xlink:href="classOpenFoamModuleDriver_1_1TestingObject_a046f7ab06db0acf616b0d2bf3d3146aa.html#a046f7ab06db0acf616b0d2bf3d3146aa" target="_top" xlink:title="Process">
<polygon fill="none" stroke="black" points="90.5,-63.5 90.5,-84.5 143.5,-84.5 143.5,-63.5 90.5,-63.5"/>
<text text-anchor="middle" x="117" y="-71.5" font-family="Helvetica,sans-Serif" font-size="10.00">Process</text>
</a>
</g>
<!-- Node1&#45;&gt;Node2 -->
<g id="edge2" class="edge"><title>Node1&#45;&gt;Node2</title>
<path fill="none" stroke="midnightblue" d="M59.9796,-48.6576C70.9866,-53.5496 83.029,-58.9018 93.199,-63.4218"/>
<polygon fill="midnightblue" stroke="midnightblue" points="61.2061,-45.3726 50.6464,-44.5095 58.3631,-51.7693 61.2061,-45.3726"/>
</g>
<!-- Node5 -->
<g id="node9" class="node"><title>Node5</title>
<a xlink:href="classOpenFoamModuleDriver_1_1TestingObject_a21159bd2efac623e5a5079f6a20f3444.html#a21159bd2efac623e5a5079f6a20f3444" target="_top" xlink:title="Runs a list of tests specified by name. ">
<polygon fill="none" stroke="black" points="202.5,-0.5 202.5,-21.5 279.5,-21.5 279.5,-0.5 202.5,-0.5"/>
<text text-anchor="middle" x="241" y="-8.5" font-family="Helvetica,sans-Serif" font-size="10.00">ProcessTests</text>
</a>
</g>
<!-- Node1&#45;&gt;Node5 -->
<g id="edge8" class="edge"><title>Node1&#45;&gt;Node5</title>
<path fill="none" stroke="midnightblue" d="M63.8144,-20.3678C72.3023,-17.7721 81.3739,-15.4242 90,-14 127.77,-7.76381 171.573,-7.665 202.242,-8.73149"/>
<polygon fill="midnightblue" stroke="midnightblue" points="62.615,-17.0772 54.18,-23.4882 64.7719,-23.7366 62.615,-17.0772"/>
</g>
<!-- Node6 -->
<g id="node11" class="node"><title>Node6</title>
<a xlink:href="classOpenFoamModuleDriver_1_1TestingObject_af1f07f14b9af7708e4264bb38937eed2.html#af1f07f14b9af7708e4264bb38937eed2" target="_top" xlink:title="Runs a test specified by name. ">
<polygon fill="none" stroke="black" points="90,-23.5 90,-44.5 144,-44.5 144,-23.5 90,-23.5"/>
<text text-anchor="middle" x="117" y="-31.5" font-family="Helvetica,sans-Serif" font-size="10.00">RunTest</text>
</a>
</g>
<!-- Node1&#45;&gt;Node6 -->
<g id="edge10" class="edge"><title>Node1&#45;&gt;Node6</title>
<path fill="none" stroke="midnightblue" d="M64.1581,-34C72.7131,-34 81.6584,-34 89.705,-34"/>
<polygon fill="midnightblue" stroke="midnightblue" points="64.003,-30.5001 54.003,-34 64.0029,-37.5001 64.003,-30.5001"/>
</g>
<!-- Node3 -->
<g id="node5" class="node"><title>Node3</title>
<a xlink:href="namespaceOpenFoamModuleDriver_a98bd69551725493def1a31bfe72b0781.html#a98bd69551725493def1a31bfe72b0781" target="_top" xlink:title="Drives the OpenFoamModuleDriver::TestObject. ">
<polygon fill="none" stroke="black" points="180,-48 180,-82 302,-82 302,-48 180,-48"/>
<text text-anchor="start" x="188" y="-69" font-family="Helvetica,sans-Serif" font-size="10.00">OpenFoamModuleDriver</text>
<text text-anchor="middle" x="241" y="-56" font-family="Helvetica,sans-Serif" font-size="10.00">::Test</text>
</a>
</g>
<!-- Node2&#45;&gt;Node3 -->
<g id="edge4" class="edge"><title>Node2&#45;&gt;Node3</title>
<path fill="none" stroke="midnightblue" d="M153.608,-71.3429C161.86,-70.7441 170.836,-70.0926 179.79,-69.4426"/>
<polygon fill="midnightblue" stroke="midnightblue" points="153.321,-67.8545 143.601,-72.0693 153.828,-74.8361 153.321,-67.8545"/>
</g>
<!-- Node4 -->
<g id="node7" class="node"><title>Node4</title>
<a xlink:href="TestOpenFoamModuleDriver_8C_a0ddf1224851353fc92bfbff6f499fa97.html#a0ddf1224851353fc92bfbff6f499fa97" target="_top" xlink:title="main">
<polygon fill="none" stroke="black" points="338,-54.5 338,-75.5 376,-75.5 376,-54.5 338,-54.5"/>
<text text-anchor="middle" x="357" y="-62.5" font-family="Helvetica,sans-Serif" font-size="10.00">main</text>
</a>
</g>
<!-- Node3&#45;&gt;Node4 -->
<g id="edge6" class="edge"><title>Node3&#45;&gt;Node4</title>
<path fill="none" stroke="midnightblue" d="M312.317,-65C321.641,-65 330.48,-65 337.797,-65"/>
<polygon fill="midnightblue" stroke="midnightblue" points="312.057,-61.5001 302.057,-65 312.057,-68.5001 312.057,-61.5001"/>
</g>
<!-- Node6&#45;&gt;Node3 -->
<g id="edge14" class="edge"><title>Node6&#45;&gt;Node3</title>
<path fill="none" stroke="midnightblue" d="M154.082,-43.2705C162.205,-45.3011 171.012,-47.5029 179.797,-49.6994"/>
<polygon fill="midnightblue" stroke="midnightblue" points="154.763,-39.833 144.212,-40.8031 153.065,-46.624 154.763,-39.833"/>
</g>
<!-- Node6&#45;&gt;Node5 -->
<g id="edge12" class="edge"><title>Node6&#45;&gt;Node5</title>
<path fill="none" stroke="midnightblue" d="M154.243,-27.092C169.354,-24.2892 186.812,-21.051 202.089,-18.2174"/>
<polygon fill="midnightblue" stroke="midnightblue" points="153.406,-23.6874 144.212,-28.9526 154.683,-30.57 153.406,-23.6874"/>
</g>
</g>
</svg>
