<?xml version="1.0" encoding="UTF-8" standalone="no"?>
<!DOCTYPE svg PUBLIC "-//W3C//DTD SVG 1.1//EN"
 "http://www.w3.org/Graphics/SVG/1.1/DTD/svg11.dtd">
<!-- Generated by graphviz version 2.26.0 (20091210.2329)
 -->
<!-- Title: Run Pages: 1 -->
<svg width="244pt" height="134pt"
 viewBox="0.00 0.00 244.00 134.00" xmlns="http://www.w3.org/2000/svg" xmlns:xlink="http://www.w3.org/1999/xlink">
<g id="graph1" class="graph" transform="scale(1 1) rotate(0) translate(4 130)">
<title>Run</title>
<!-- Node1 -->
<g id="node1" class="node"><title>Node1</title>
<polygon fill="#bfbfbf" stroke="black" points="0.5,-46.5 0.5,-67.5 35.5,-67.5 35.5,-46.5 0.5,-46.5"/>
<text text-anchor="middle" x="18" y="-54.5" font-family="Helvetica,sans-Serif" font-size="10.00">Run</text>
</g>
<!-- Node2 -->
<g id="node3" class="node"><title>Node2</title>
<a xlink:href="namespaceElmerFoamFSI_1_1ExampleProgram_a51e123c8b200fe0d466698ff7429bba6.html#a51e123c8b200fe0d466698ff7429bba6" target="_top" xlink:title="Unified driver for the example programs. ">
<polygon fill="none" stroke="black" points="72,-92 72,-126 236,-126 236,-92 72,-92"/>
<text text-anchor="start" x="80" y="-113" font-family="Helvetica,sans-Serif" font-size="10.00">ElmerFoamFSI::ExampleProgram</text>
<text text-anchor="middle" x="154" y="-100" font-family="Helvetica,sans-Serif" font-size="10.00">::Driver</text>
</a>
</g>
<!-- Node1&#45;&gt;Node2 -->
<g id="edge2" class="edge"><title>Node1&#45;&gt;Node2</title>
<path fill="none" stroke="midnightblue" d="M44.8594,-70.8569C53.4201,-75.0222 63.006,-79.4297 72,-83 79.9121,-86.1408 88.3661,-89.1719 96.7284,-91.9865"/>
<polygon fill="midnightblue" stroke="midnightblue" points="46.2288,-67.6291 35.7159,-66.3146 43.1145,-73.8982 46.2288,-67.6291"/>
</g>
<!-- Node3 -->
<g id="node5" class="node"><title>Node3</title>
<a xlink:href="namespaceElmerModuleDriver_1_1ExampleProgram_a945c2d21d14578304f149399117a364c.html#a945c2d21d14578304f149399117a364c" target="_top" xlink:title="Unified driver for the example programs. ">
<polygon fill="none" stroke="black" points="92,-40 92,-74 216,-74 216,-40 92,-40"/>
<text text-anchor="start" x="100" y="-61" font-family="Helvetica,sans-Serif" font-size="10.00">ElmerModuleDriver::</text>
<text text-anchor="middle" x="154" y="-48" font-family="Helvetica,sans-Serif" font-size="10.00">ExampleProgram::Driver</text>
</a>
</g>
<!-- Node1&#45;&gt;Node3 -->
<g id="edge4" class="edge"><title>Node1&#45;&gt;Node3</title>
<path fill="none" stroke="midnightblue" d="M45.8804,-57C59.2315,-57 75.7947,-57 91.9116,-57"/>
<polygon fill="midnightblue" stroke="midnightblue" points="45.5012,-53.5001 35.5012,-57 45.5012,-60.5001 45.5012,-53.5001"/>
</g>
<!-- Node4 -->
<g id="node7" class="node"><title>Node4</title>
<a xlink:href="namespaceElmerFoamFSI_aff46f457934a8e2d3712bdbfb1688e99.html#aff46f457934a8e2d3712bdbfb1688e99" target="_top" xlink:title="Unified driver for the example programs. ">
<polygon fill="none" stroke="black" points="96.5,-0.5 96.5,-21.5 211.5,-21.5 211.5,-0.5 96.5,-0.5"/>
<text text-anchor="middle" x="154" y="-8.5" font-family="Helvetica,sans-Serif" font-size="10.00">ElmerFoamFSI::Driver</text>
</a>
</g>
<!-- Node1&#45;&gt;Node4 -->
<g id="edge6" class="edge"><title>Node1&#45;&gt;Node4</title>
<path fill="none" stroke="midnightblue" d="M44.7185,-42.7698C53.2726,-38.5869 62.8901,-34.2633 72,-31 82.0704,-27.3926 93.0653,-24.2163 103.639,-21.5185"/>
<polygon fill="midnightblue" stroke="midnightblue" points="42.9502,-39.7416 35.5963,-47.3686 46.1013,-45.9923 42.9502,-39.7416"/>
</g>
</g>
</svg>
