<?xml version="1.0" encoding="UTF-8" standalone="no"?>
<!DOCTYPE svg PUBLIC "-//W3C//DTD SVG 1.1//EN"
 "http://www.w3.org/Graphics/SVG/1.1/DTD/svg11.dtd">
<!-- Generated by graphviz version 2.30.1 (20150305.2338)
 -->
<!-- Title: COM_map&lt; Object &gt; Pages: 1 -->
<svg width="516pt" height="164pt"
 viewBox="0.00 0.00 516.00 164.00" xmlns="http://www.w3.org/2000/svg" xmlns:xlink="http://www.w3.org/1999/xlink">
<g id="graph0" class="graph" transform="scale(1 1) rotate(0) translate(4 160)">
<title>COM_map&lt; Object &gt;</title>
<!-- Node1 -->
<g id="node1" class="node"><title>Node1</title>
<polygon fill="#bfbfbf" stroke="black" points="0,-78.5 0,-97.5 110,-97.5 110,-78.5 0,-78.5"/>
<text text-anchor="middle" x="55" y="-85.5" font-family="Helvetica,sans-Serif" font-size="10.00">COM_map&lt; Object &gt;</text>
</g>
<!-- Node2 -->
<g id="node2" class="node"><title>Node2</title>
<g id="a_node2"><a xlink:href="classCOM__map.html" target="_top" xlink:title="COM_map\&lt; Window * \&gt;">
<polygon fill="none" stroke="black" points="265,-136.5 265,-155.5 389,-155.5 389,-136.5 265,-136.5"/>
<text text-anchor="middle" x="327" y="-143.5" font-family="Helvetica,sans-Serif" font-size="10.00">COM_map&lt; Window * &gt;</text>
</a>
</g>
</g>
<!-- Node1&#45;&gt;Node2 -->
<g id="edge1" class="edge"><title>Node1&#45;&gt;Node2</title>
<path fill="none" stroke="orange" stroke-dasharray="5,2" d="M85.3142,-101.648C98.172,-107.149 113.591,-113.103 128,-117 172.939,-129.155 225.082,-136.531 264.574,-140.801"/>
<polygon fill="orange" stroke="orange" points="86.6033,-98.3911 76.0402,-97.5707 83.7862,-104.799 86.6033,-98.3911"/>
<text text-anchor="middle" x="186" y="-140" font-family="Helvetica,sans-Serif" font-size="10.00"> &lt; Window * &gt;</text>
</g>
<!-- Node3 -->
<g id="node3" class="node"><title>Node3</title>
<g id="a_node3"><a xlink:href="classCOM__map.html" target="_top" xlink:title="COM_map\&lt; Function * \&gt;">
<polygon fill="none" stroke="black" points="264,-98.5 264,-117.5 390,-117.5 390,-98.5 264,-98.5"/>
<text text-anchor="middle" x="327" y="-105.5" font-family="Helvetica,sans-Serif" font-size="10.00">COM_map&lt; Function * &gt;</text>
</a>
</g>
</g>
<!-- Node1&#45;&gt;Node3 -->
<g id="edge2" class="edge"><title>Node1&#45;&gt;Node3</title>
<path fill="none" stroke="orange" stroke-dasharray="5,2" d="M120.478,-92.7761C163.881,-95.9912 220.806,-100.208 263.739,-103.388"/>
<polygon fill="orange" stroke="orange" points="120.545,-89.2716 110.314,-92.0232 120.028,-96.2525 120.545,-89.2716"/>
<text text-anchor="middle" x="186" y="-105" font-family="Helvetica,sans-Serif" font-size="10.00"> &lt; Function * &gt;</text>
</g>
<!-- Node5 -->
<g id="node5" class="node"><title>Node5</title>
<g id="a_node5"><a xlink:href="classCOM__map.html" target="_top" xlink:title="COM_map\&lt; DataItem * \&gt;">
<polygon fill="none" stroke="black" points="262.5,-60.5 262.5,-79.5 391.5,-79.5 391.5,-60.5 262.5,-60.5"/>
<text text-anchor="middle" x="327" y="-67.5" font-family="Helvetica,sans-Serif" font-size="10.00">COM_map&lt; DataItem * &gt;</text>
</a>
</g>
</g>
<!-- Node1&#45;&gt;Node5 -->
<g id="edge4" class="edge"><title>Node1&#45;&gt;Node5</title>
<path fill="none" stroke="orange" stroke-dasharray="5,2" d="M104.948,-76.5031C112.625,-75.077 120.5,-73.8305 128,-73 172.763,-68.0438 223.561,-67.3744 262.497,-67.9023"/>
<polygon fill="orange" stroke="orange" points="104.153,-73.0925 95.019,-78.4616 105.507,-79.9602 104.153,-73.0925"/>
<text text-anchor="middle" x="186" y="-76" font-family="Helvetica,sans-Serif" font-size="10.00"> &lt; DataItem * &gt;</text>
</g>
<!-- Node6 -->
<g id="node6" class="node"><title>Node6</title>
<g id="a_node6"><a xlink:href="classCOM__map.html" target="_top" xlink:title="COM_map\&lt; std::pair\l\&lt; void *, std::set\&lt;\l std::string \&gt; \&gt; \&gt;">
<polygon fill="none" stroke="black" points="273,-0.5 273,-41.5 381,-41.5 381,-0.5 273,-0.5"/>
<text text-anchor="start" x="281" y="-29.5" font-family="Helvetica,sans-Serif" font-size="10.00">COM_map&lt; std::pair</text>
<text text-anchor="start" x="281" y="-18.5" font-family="Helvetica,sans-Serif" font-size="10.00">&lt; void *, std::set&lt;</text>
<text text-anchor="middle" x="327" y="-7.5" font-family="Helvetica,sans-Serif" font-size="10.00"> std::string &gt; &gt; &gt;</text>
</a>
</g>
</g>
<!-- Node1&#45;&gt;Node6 -->
<g id="edge5" class="edge"><title>Node1&#45;&gt;Node6</title>
<path fill="none" stroke="orange" stroke-dasharray="5,2" d="M75.533,-71.9628C89.3217,-61.5736 108.708,-48.7612 128,-42 175.139,-25.479 232.147,-20.9179 272.864,-20.0788"/>
<polygon fill="orange" stroke="orange" points="73.0721,-69.4434 67.3375,-78.3521 77.376,-74.9639 73.0721,-69.4434"/>
<text text-anchor="start" x="128" y="-56" font-family="Helvetica,sans-Serif" font-size="10.00"> &lt; std::pair&lt; void *,</text>
<text text-anchor="middle" x="186" y="-45" font-family="Helvetica,sans-Serif" font-size="10.00"> std::set&lt; std::string &gt; &gt; &gt;</text>
</g>
<!-- Node4 -->
<g id="node4" class="node"><title>Node4</title>
<g id="a_node4"><a xlink:href="classFunction__map.html" target="_top" xlink:title="A map functions. ">
<polygon fill="none" stroke="black" points="430,-98.5 430,-117.5 508,-117.5 508,-98.5 430,-98.5"/>
<text text-anchor="middle" x="469" y="-105.5" font-family="Helvetica,sans-Serif" font-size="10.00">Function_map</text>
</a>
</g>
</g>
<!-- Node3&#45;&gt;Node4 -->
<g id="edge3" class="edge"><title>Node3&#45;&gt;Node4</title>
<path fill="none" stroke="darkgreen" d="M400.34,-108C410.469,-108 420.532,-108 429.681,-108"/>
<polygon fill="darkgreen" stroke="darkgreen" points="400.221,-104.5 390.221,-108 400.221,-111.5 400.221,-104.5"/>
</g>
</g>
</svg>
