<?xml version="1.0" encoding="UTF-8" standalone="no"?>
<!DOCTYPE svg PUBLIC "-//W3C//DTD SVG 1.1//EN"
 "http://www.w3.org/Graphics/SVG/1.1/DTD/svg11.dtd">
<!-- Generated by graphviz version 2.26.0 (20091210.2329)
 -->
<!-- Title: IcoFoamModule Pages: 1 -->
<svg width="276pt" height="272pt"
 viewBox="0.00 0.00 276.00 272.00" xmlns="http://www.w3.org/2000/svg" xmlns:xlink="http://www.w3.org/1999/xlink">
<g id="graph1" class="graph" transform="scale(1 1) rotate(0) translate(4 268)">
<title>IcoFoamModule</title>
<!-- Node1 -->
<g id="node1" class="node"><title>Node1</title>
<polygon fill="#bfbfbf" stroke="black" points="60,-0.5 60,-21.5 146,-21.5 146,-0.5 60,-0.5"/>
<text text-anchor="middle" x="103" y="-8.5" font-family="Helvetica,sans-Serif" font-size="10.00">IcoFoamModule</text>
</g>
<!-- Node2 -->
<g id="node2" class="node"><title>Node2</title>
<polygon fill="none" stroke="#bfbfbf" points="0,-98.5 0,-119.5 74,-119.5 74,-98.5 0,-98.5"/>
<text text-anchor="middle" x="37" y="-106.5" font-family="Helvetica,sans-Serif" font-size="10.00">COM_Object</text>
</g>
<!-- Node2&#45;&gt;Node1 -->
<g id="edge2" class="edge"><title>Node2&#45;&gt;Node1</title>
<path fill="none" stroke="midnightblue" d="M50.0427,-89.6336C63.7763,-69.2412 84.8955,-37.8824 95.8525,-21.6129"/>
<polygon fill="midnightblue" stroke="midnightblue" points="46.9983,-87.8883 44.3153,-98.1378 52.8044,-91.7986 46.9983,-87.8883"/>
</g>
<!-- Node3 -->
<g id="node4" class="node"><title>Node3</title>
<a xlink:title="STL class. ">
<polygon fill="none" stroke="#bfbfbf" points="91.5,-98.5 91.5,-119.5 132.5,-119.5 132.5,-98.5 91.5,-98.5"/>
<text text-anchor="middle" x="112" y="-106.5" font-family="Helvetica,sans-Serif" font-size="10.00">string</text>
</a>
</g>
<!-- Node3&#45;&gt;Node1 -->
<g id="edge4" class="edge"><title>Node3&#45;&gt;Node1</title>
<path fill="none" stroke="#9a32cd" stroke-dasharray="5,2" d="M105.676,-88.601C104.993,-85.7368 104.401,-82.8114 104,-80 101.087,-59.6006 101.637,-35.4652 102.312,-21.8226"/>
<polygon fill="#9a32cd" stroke="#9a32cd" points="102.345,-89.6848 108.376,-98.3955 109.093,-87.825 102.345,-89.6848"/>
<text text-anchor="middle" x="153.5" y="-70.5" font-family="Helvetica,sans-Serif" font-size="10.00"> fortran_window_name</text>
<text text-anchor="middle" x="153.5" y="-57.5" font-family="Helvetica,sans-Serif" font-size="10.00">my_window_name</text>
<text text-anchor="middle" x="153.5" y="-44.5" font-family="Helvetica,sans-Serif" font-size="10.00">other_window_name</text>
</g>
<!-- Node4 -->
<g id="node6" class="node"><title>Node4</title>
<a xlink:title="STL class. ">
<polygon fill="none" stroke="#bfbfbf" points="59,-170.5 59,-191.5 165,-191.5 165,-170.5 59,-170.5"/>
<text text-anchor="middle" x="112" y="-178.5" font-family="Helvetica,sans-Serif" font-size="10.00">basic_string&lt; char &gt;</text>
</a>
</g>
<!-- Node4&#45;&gt;Node3 -->
<g id="edge6" class="edge"><title>Node4&#45;&gt;Node3</title>
<path fill="none" stroke="midnightblue" d="M112,-160.235C112,-146.969 112,-130.319 112,-119.667"/>
<polygon fill="midnightblue" stroke="midnightblue" points="108.5,-160.376 112,-170.376 115.5,-160.376 108.5,-160.376"/>
</g>
<!-- Node5 -->
<g id="node8" class="node"><title>Node5</title>
<polygon fill="none" stroke="#bfbfbf" points="189,-98.5 189,-119.5 261,-119.5 261,-98.5 189,-98.5"/>
<text text-anchor="middle" x="225" y="-106.5" font-family="Helvetica,sans-Serif" font-size="10.00">vector&lt; int &gt;</text>
</g>
<!-- Node5&#45;&gt;Node1 -->
<g id="edge8" class="edge"><title>Node5&#45;&gt;Node1</title>
<path fill="none" stroke="#9a32cd" stroke-dasharray="5,2" d="M223.501,-88.2013C221.313,-72.8965 215.974,-52.636 203,-40 194.648,-31.8652 169.321,-24.565 146.247,-19.3239"/>
<polygon fill="#9a32cd" stroke="#9a32cd" points="220.038,-88.7286 224.602,-98.2899 226.997,-87.9693 220.038,-88.7286"/>
<text text-anchor="middle" x="244" y="-57.5" font-family="Helvetica,sans-Serif" font-size="10.00"> dataArray</text>
</g>
<!-- Node6 -->
<g id="node10" class="node"><title>Node6</title>
<a xlink:title="STL class. ">
<polygon fill="none" stroke="#bfbfbf" points="191,-170.5 191,-191.5 259,-191.5 259,-170.5 191,-170.5"/>
<text text-anchor="middle" x="225" y="-178.5" font-family="Helvetica,sans-Serif" font-size="10.00">vector&lt; T &gt;</text>
</a>
</g>
<!-- Node6&#45;&gt;Node5 -->
<g id="edge10" class="edge"><title>Node6&#45;&gt;Node5</title>
<path fill="none" stroke="orange" stroke-dasharray="5,2" d="M225,-160.235C225,-146.969 225,-130.319 225,-119.667"/>
<polygon fill="orange" stroke="orange" points="221.5,-160.376 225,-170.376 228.5,-160.376 221.5,-160.376"/>
<text text-anchor="middle" x="241" y="-142.5" font-family="Helvetica,sans-Serif" font-size="10.00"> &lt; int &gt;</text>
</g>
<!-- Node7 -->
<g id="node12" class="node"><title>Node7</title>
<polygon fill="none" stroke="#bfbfbf" points="210.5,-242.5 210.5,-263.5 239.5,-263.5 239.5,-242.5 210.5,-242.5"/>
<text text-anchor="middle" x="225" y="-250.5" font-family="Helvetica,sans-Serif" font-size="10.00">T</text>
</g>
<!-- Node7&#45;&gt;Node6 -->
<g id="edge12" class="edge"><title>Node7&#45;&gt;Node6</title>
<path fill="none" stroke="#9a32cd" stroke-dasharray="5,2" d="M225,-232.235C225,-218.969 225,-202.319 225,-191.667"/>
<polygon fill="#9a32cd" stroke="#9a32cd" points="221.5,-232.376 225,-242.376 228.5,-232.376 221.5,-232.376"/>
<text text-anchor="middle" x="246.5" y="-214.5" font-family="Helvetica,sans-Serif" font-size="10.00"> elements</text>
</g>
</g>
</svg>
