<?xml version="1.0" encoding="UTF-8" standalone="no"?>
<!DOCTYPE svg PUBLIC "-//W3C//DTD SVG 1.1//EN"
 "http://www.w3.org/Graphics/SVG/1.1/DTD/svg11.dtd">
<!-- Generated by graphviz version 2.30.1 (20150305.2338)
 -->
<!-- Title: is_real_border_edge Pages: 1 -->
<svg width="264pt" height="66pt"
 viewBox="0.00 0.00 264.00 66.00" xmlns="http://www.w3.org/2000/svg" xmlns:xlink="http://www.w3.org/1999/xlink">
<g id="graph0" class="graph" transform="scale(1 1) rotate(0) translate(4 62)">
<title>is_real_border_edge</title>
<!-- Node1 -->
<g id="node1" class="node"><title>Node1</title>
<polygon fill="#bfbfbf" stroke="black" points="0,-19.5 0,-38.5 104,-38.5 104,-19.5 0,-19.5"/>
<text text-anchor="middle" x="52" y="-26.5" font-family="Helvetica,sans-Serif" font-size="10.00">is_real_border_edge</text>
</g>
<!-- Node2 -->
<g id="node2" class="node"><title>Node2</title>
<g id="a_node2"><a xlink:href="classSimple__manifold__2_af44ed2c338be4e7d6ba15c813ac6ac42.html#af44ed2c338be4e7d6ba15c813ac6ac42" target="_top" xlink:title="Get the ID of the destination of a given edge. ">
<polygon fill="none" stroke="black" points="156.5,-38.5 156.5,-57.5 239.5,-57.5 239.5,-38.5 156.5,-38.5"/>
<text text-anchor="middle" x="198" y="-45.5" font-family="Helvetica,sans-Serif" font-size="10.00">get_destination</text>
</a>
</g>
</g>
<!-- Node1&#45;&gt;Node2 -->
<g id="edge1" class="edge"><title>Node1&#45;&gt;Node2</title>
<path fill="none" stroke="midnightblue" d="M114.381,-37.0989C128.579,-38.9722 143.34,-40.9199 156.391,-42.6418"/>
<polygon fill="midnightblue" stroke="midnightblue" points="114.546,-33.5905 104.174,-35.7522 113.631,-40.5303 114.546,-33.5905"/>
</g>
<!-- Node3 -->
<g id="node3" class="node"><title>Node3</title>
<g id="a_node3"><a xlink:href="classSimple__manifold__2_afaabce069f16be292e5dd4d8064bcd99.html#afaabce069f16be292e5dd4d8064bcd99" target="_top" xlink:title="Get the ID of an incident real edge within the pane of a given node. ">
<polygon fill="none" stroke="black" points="140,-0.5 140,-19.5 256,-19.5 256,-0.5 140,-0.5"/>
<text text-anchor="middle" x="198" y="-7.5" font-family="Helvetica,sans-Serif" font-size="10.00">get_incident_real_edge</text>
</a>
</g>
</g>
<!-- Node1&#45;&gt;Node3 -->
<g id="edge2" class="edge"><title>Node1&#45;&gt;Node3</title>
<path fill="none" stroke="midnightblue" d="M114.291,-20.913C122.692,-19.8046 131.291,-18.6699 139.619,-17.5712"/>
<polygon fill="midnightblue" stroke="midnightblue" points="113.631,-17.4697 104.174,-22.2478 114.546,-24.4095 113.631,-17.4697"/>
</g>
</g>
</svg>
