<?xml version="1.0" encoding="UTF-8" standalone="no"?>
<!DOCTYPE svg PUBLIC "-//W3C//DTD SVG 1.1//EN"
 "http://www.w3.org/Graphics/SVG/1.1/DTD/svg11.dtd">
<!-- Generated by graphviz version 2.26.0 (20091210.2329)
 -->
<!-- Title: GetInputData Pages: 1 -->
<svg width="562pt" height="82pt"
 viewBox="0.00 0.00 562.00 82.00" xmlns="http://www.w3.org/2000/svg" xmlns:xlink="http://www.w3.org/1999/xlink">
<g id="graph1" class="graph" transform="scale(1 1) rotate(0) translate(4 78)">
<title>GetInputData</title>
<!-- Node1 -->
<g id="node1" class="node"><title>Node1</title>
<polygon fill="#bfbfbf" stroke="black" points="0.5,-23.5 0.5,-44.5 75.5,-44.5 75.5,-23.5 0.5,-23.5"/>
<text text-anchor="middle" x="38" y="-31.5" font-family="Helvetica,sans-Serif" font-size="10.00">GetInputData</text>
</g>
<!-- Node2 -->
<g id="node3" class="node"><title>Node2</title>
<a xlink:href="classElmerModuleDriver_1_1TestingObject_ae4d44626a9c27ea8352a740ae562f97d.html#ae4d44626a9c27ea8352a740ae562f97d" target="_top" xlink:title="Test__ElasticBeam3D\l_LoadFunction">
<polygon fill="none" stroke="black" points="112.5,-40 112.5,-74 227.5,-74 227.5,-40 112.5,-40"/>
<text text-anchor="start" x="120.5" y="-61" font-family="Helvetica,sans-Serif" font-size="10.00">Test__ElasticBeam3D</text>
<text text-anchor="middle" x="170" y="-48" font-family="Helvetica,sans-Serif" font-size="10.00">_LoadFunction</text>
</a>
</g>
<!-- Node1&#45;&gt;Node2 -->
<g id="edge2" class="edge"><title>Node1&#45;&gt;Node2</title>
<path fill="none" stroke="midnightblue" d="M85.7571,-42.3213C94.4295,-43.8324 103.558,-45.423 112.476,-46.9769"/>
<polygon fill="midnightblue" stroke="midnightblue" points="86.2783,-38.8595 75.8259,-40.5909 85.0766,-45.7556 86.2783,-38.8595"/>
</g>
<!-- Node7 -->
<g id="node13" class="node"><title>Node7</title>
<a xlink:href="classElmerModuleDriver_1_1TestingObject_ada2078f55b55b73d4aacf78d061a57de.html#ada2078f55b55b73d4aacf78d061a57de" target="_top" xlink:title="Test__ElmerUnitTests">
<polygon fill="none" stroke="black" points="112.5,-0.5 112.5,-21.5 227.5,-21.5 227.5,-0.5 112.5,-0.5"/>
<text text-anchor="middle" x="170" y="-8.5" font-family="Helvetica,sans-Serif" font-size="10.00">Test__ElmerUnitTests</text>
</a>
</g>
<!-- Node1&#45;&gt;Node7 -->
<g id="edge12" class="edge"><title>Node1&#45;&gt;Node7</title>
<path fill="none" stroke="midnightblue" d="M85.7571,-25.6787C94.4295,-24.1676 103.558,-22.577 112.476,-21.0231"/>
<polygon fill="midnightblue" stroke="midnightblue" points="85.0766,-22.2444 75.8259,-27.4091 86.2783,-29.1405 85.0766,-22.2444"/>
</g>
<!-- Node3 -->
<g id="node5" class="node"><title>Node3</title>
<a xlink:href="classElmerModuleDriver_1_1TestingObject_af1f07f14b9af7708e4264bb38937eed2.html#af1f07f14b9af7708e4264bb38937eed2" target="_top" xlink:title="Runs a test specified by name. ">
<polygon fill="none" stroke="black" points="264,-40.5 264,-61.5 318,-61.5 318,-40.5 264,-40.5"/>
<text text-anchor="middle" x="291" y="-48.5" font-family="Helvetica,sans-Serif" font-size="10.00">RunTest</text>
</a>
</g>
<!-- Node2&#45;&gt;Node3 -->
<g id="edge4" class="edge"><title>Node2&#45;&gt;Node3</title>
<path fill="none" stroke="midnightblue" d="M237.747,-53.6406C246.995,-53.1821 256.013,-52.7349 263.921,-52.3428"/>
<polygon fill="midnightblue" stroke="midnightblue" points="237.479,-50.1495 227.665,-54.1406 237.826,-57.1409 237.479,-50.1495"/>
</g>
<!-- Node4 -->
<g id="node7" class="node"><title>Node4</title>
<a xlink:href="classElmerModuleDriver_1_1TestingObject_a21159bd2efac623e5a5079f6a20f3444.html#a21159bd2efac623e5a5079f6a20f3444" target="_top" xlink:title="Runs a list of tests specified by name. ">
<polygon fill="none" stroke="black" points="378.5,-40.5 378.5,-61.5 455.5,-61.5 455.5,-40.5 378.5,-40.5"/>
<text text-anchor="middle" x="417" y="-48.5" font-family="Helvetica,sans-Serif" font-size="10.00">ProcessTests</text>
</a>
</g>
<!-- Node3&#45;&gt;Node4 -->
<g id="edge6" class="edge"><title>Node3&#45;&gt;Node4</title>
<path fill="none" stroke="midnightblue" d="M328.4,-51C344.053,-51 362.246,-51 378.059,-51"/>
<polygon fill="midnightblue" stroke="midnightblue" points="328.03,-47.5001 318.03,-51 328.03,-54.5001 328.03,-47.5001"/>
</g>
<!-- Node5 -->
<g id="node9" class="node"><title>Node5</title>
<a xlink:href="namespaceElmerModuleDriver_a657930328d3dc159ded2e9fd6473b2b6.html#a657930328d3dc159ded2e9fd6473b2b6" target="_top" xlink:title="Drives the ElmerModuleDriver::TestObject. ">
<polygon fill="none" stroke="black" points="354.5,-0.5 354.5,-21.5 479.5,-21.5 479.5,-0.5 354.5,-0.5"/>
<text text-anchor="middle" x="417" y="-8.5" font-family="Helvetica,sans-Serif" font-size="10.00">ElmerModuleDriver::Test</text>
</a>
</g>
<!-- Node3&#45;&gt;Node5 -->
<g id="edge8" class="edge"><title>Node3&#45;&gt;Node5</title>
<path fill="none" stroke="midnightblue" d="M327.987,-39.2582C345.637,-33.655 366.591,-27.0028 383.734,-21.5606"/>
<polygon fill="midnightblue" stroke="midnightblue" points="326.502,-36.0572 318.03,-42.419 328.62,-42.7291 326.502,-36.0572"/>
</g>
<!-- Node6 -->
<g id="node11" class="node"><title>Node6</title>
<a xlink:href="TestElmerModuleDriver_8C_a0ddf1224851353fc92bfbff6f499fa97.html#a0ddf1224851353fc92bfbff6f499fa97" target="_top" xlink:title="main">
<polygon fill="none" stroke="black" points="516,-0.5 516,-21.5 554,-21.5 554,-0.5 516,-0.5"/>
<text text-anchor="middle" x="535" y="-8.5" font-family="Helvetica,sans-Serif" font-size="10.00">main</text>
</a>
</g>
<!-- Node5&#45;&gt;Node6 -->
<g id="edge10" class="edge"><title>Node5&#45;&gt;Node6</title>
<path fill="none" stroke="midnightblue" d="M489.837,-11C499.336,-11 508.327,-11 515.749,-11"/>
<polygon fill="midnightblue" stroke="midnightblue" points="489.8,-7.5001 479.8,-11 489.8,-14.5001 489.8,-7.5001"/>
</g>
<!-- Node7&#45;&gt;Node3 -->
<g id="edge18" class="edge"><title>Node7&#45;&gt;Node3</title>
<path fill="none" stroke="midnightblue" d="M211.665,-24.7735C228.966,-30.4927 248.549,-36.9665 263.93,-42.0512"/>
<polygon fill="midnightblue" stroke="midnightblue" points="212.385,-21.3252 201.791,-21.5095 210.187,-27.9715 212.385,-21.3252"/>
</g>
<!-- Node8 -->
<g id="node15" class="node"><title>Node8</title>
<a xlink:href="classElmerModuleDriver_1_1TestingObject_a046f7ab06db0acf616b0d2bf3d3146aa.html#a046f7ab06db0acf616b0d2bf3d3146aa" target="_top" xlink:title="Process">
<polygon fill="none" stroke="black" points="264.5,-0.5 264.5,-21.5 317.5,-21.5 317.5,-0.5 264.5,-0.5"/>
<text text-anchor="middle" x="291" y="-8.5" font-family="Helvetica,sans-Serif" font-size="10.00">Process</text>
</a>
</g>
<!-- Node7&#45;&gt;Node8 -->
<g id="edge14" class="edge"><title>Node7&#45;&gt;Node8</title>
<path fill="none" stroke="midnightblue" d="M237.844,-11C247.178,-11 256.276,-11 264.231,-11"/>
<polygon fill="midnightblue" stroke="midnightblue" points="237.665,-7.5001 227.665,-11 237.665,-14.5001 237.665,-7.5001"/>
</g>
<!-- Node8&#45;&gt;Node5 -->
<g id="edge16" class="edge"><title>Node8&#45;&gt;Node5</title>
<path fill="none" stroke="midnightblue" d="M327.818,-11C336.147,-11 345.219,-11 354.283,-11"/>
<polygon fill="midnightblue" stroke="midnightblue" points="327.721,-7.5001 317.721,-11 327.721,-14.5001 327.721,-7.5001"/>
</g>
</g>
</svg>
