<?xml version="1.0" encoding="UTF-8" standalone="no"?>
<!DOCTYPE svg PUBLIC "-//W3C//DTD SVG 1.1//EN"
 "http://www.w3.org/Graphics/SVG/1.1/DTD/svg11.dtd">
<!-- Generated by graphviz version 2.30.1 (20150305.2338)
 -->
<!-- Title: contains_point Pages: 1 -->
<svg width="248pt" height="77pt"
 viewBox="0.00 0.00 248.00 77.00" xmlns="http://www.w3.org/2000/svg" xmlns:xlink="http://www.w3.org/1999/xlink">
<g id="graph0" class="graph" transform="scale(1 1) rotate(0) translate(4 73)">
<title>contains_point</title>
<!-- Node1 -->
<g id="node1" class="node"><title>Node1</title>
<polygon fill="#bfbfbf" stroke="black" points="0,-22.5 0,-41.5 80,-41.5 80,-22.5 0,-22.5"/>
<text text-anchor="middle" x="40" y="-29.5" font-family="Helvetica,sans-Serif" font-size="10.00">contains_point</text>
</g>
<!-- Node2 -->
<g id="node2" class="node"><title>Node2</title>
<g id="a_node2"><a xlink:href="classSolverUtils_1_1GeoPrim_1_1CFacet_a005d826749c8ee06238e1f29b295d690.html#a005d826749c8ee06238e1f29b295d690" target="_top" xlink:title="SolverUtils::GeoPrim\l::CFacet::contains_point">
<polygon fill="none" stroke="black" points="116,-39 116,-69 240,-69 240,-39 116,-39"/>
<text text-anchor="start" x="124" y="-57" font-family="Helvetica,sans-Serif" font-size="10.00">SolverUtils::GeoPrim</text>
<text text-anchor="middle" x="178" y="-46" font-family="Helvetica,sans-Serif" font-size="10.00">::CFacet::contains_point</text>
</a>
</g>
</g>
<!-- Node1&#45;&gt;Node2 -->
<g id="edge1" class="edge"><title>Node1&#45;&gt;Node2</title>
<path fill="none" stroke="midnightblue" d="M90.2745,-39.9709C98.6182,-41.3206 107.37,-42.7363 115.971,-44.1277"/>
<polygon fill="midnightblue" stroke="midnightblue" points="90.7675,-36.5052 80.3368,-38.3633 89.6496,-43.4154 90.7675,-36.5052"/>
</g>
<!-- Node3 -->
<g id="node3" class="node"><title>Node3</title>
<g id="a_node3"><a xlink:href="classSolverUtils_1_1GeoPrim_1_1CPlane_ad5886d99eaa33c5ef208c15d47ec3456.html#ad5886d99eaa33c5ef208c15d47ec3456" target="_top" xlink:title="operator==">
<polygon fill="none" stroke="black" points="146,-0.5 146,-19.5 210,-19.5 210,-0.5 146,-0.5"/>
<text text-anchor="middle" x="178" y="-7.5" font-family="Helvetica,sans-Serif" font-size="10.00">operator==</text>
</a>
</g>
</g>
<!-- Node1&#45;&gt;Node3 -->
<g id="edge2" class="edge"><title>Node1&#45;&gt;Node3</title>
<path fill="none" stroke="midnightblue" d="M90.4024,-24.0084C108.961,-21.0063 129.522,-17.6802 145.951,-15.0227"/>
<polygon fill="midnightblue" stroke="midnightblue" points="89.6496,-20.5846 80.3368,-25.6367 90.7674,-27.4948 89.6496,-20.5846"/>
</g>
</g>
</svg>
