<?xml version="1.0" encoding="UTF-8" standalone="no"?>
<!DOCTYPE svg PUBLIC "-//W3C//DTD SVG 1.1//EN"
 "http://www.w3.org/Graphics/SVG/1.1/DTD/svg11.dtd">
<!-- Generated by graphviz version 2.30.1 (20150305.2338)
 -->
<!-- Title: navigationString Pages: 1 -->
<svg width="200pt" height="66pt"
 viewBox="0.00 0.00 200.00 66.00" xmlns="http://www.w3.org/2000/svg" xmlns:xlink="http://www.w3.org/1999/xlink">
<g id="graph0" class="graph" transform="scale(1 1) rotate(0) translate(4 62)">
<title>navigationString</title>
<!-- Node1 -->
<g id="node1" class="node"><title>Node1</title>
<polygon fill="#bfbfbf" stroke="black" points="0,-19.5 0,-38.5 86,-38.5 86,-19.5 0,-19.5"/>
<text text-anchor="middle" x="43" y="-26.5" font-family="Helvetica,sans-Serif" font-size="10.00">navigationString</text>
</g>
<!-- Node2 -->
<g id="node2" class="node"><title>Node2</title>
<g id="a_node2"><a xlink:href="classIRAD_1_1Util_1_1MenuObject_aedde665e5d67dc31537c30867c6c9b3a.html#aedde665e5d67dc31537c30867c6c9b3a" target="_top" xlink:title="centerString">
<polygon fill="none" stroke="black" points="122.5,-38.5 122.5,-57.5 191.5,-57.5 191.5,-38.5 122.5,-38.5"/>
<text text-anchor="middle" x="157" y="-45.5" font-family="Helvetica,sans-Serif" font-size="10.00">centerString</text>
</a>
</g>
</g>
<!-- Node1&#45;&gt;Node2 -->
<g id="edge1" class="edge"><title>Node1&#45;&gt;Node2</title>
<path fill="none" stroke="midnightblue" d="M86.0233,-36.129C94.6784,-37.5972 103.809,-39.1462 112.515,-40.6231"/>
<polygon fill="midnightblue" stroke="midnightblue" points="112.041,-44.0925 122.485,-42.3145 113.211,-37.1911 112.041,-44.0925"/>
</g>
<!-- Node3 -->
<g id="node3" class="node"><title>Node3</title>
<g id="a_node3"><a xlink:href="classIRAD_1_1Util_1_1MenuObject_aa239c84490481f8c54a9c6f7961acc6c.html#aa239c84490481f8c54a9c6f7961acc6c" target="_top" xlink:title="hRule">
<polygon fill="none" stroke="black" points="136,-0.5 136,-19.5 178,-19.5 178,-0.5 136,-0.5"/>
<text text-anchor="middle" x="157" y="-7.5" font-family="Helvetica,sans-Serif" font-size="10.00">hRule</text>
</a>
</g>
</g>
<!-- Node1&#45;&gt;Node3 -->
<g id="edge2" class="edge"><title>Node1&#45;&gt;Node3</title>
<path fill="none" stroke="midnightblue" d="M86.0233,-21.871C99.1776,-19.6395 113.431,-17.2215 125.62,-15.1537"/>
<polygon fill="midnightblue" stroke="midnightblue" points="126.447,-18.5636 135.721,-13.4402 125.276,-11.6622 126.447,-18.5636"/>
</g>
</g>
</svg>
