<?xml version="1.0" encoding="UTF-8" standalone="no"?>
<!DOCTYPE svg PUBLIC "-//W3C//DTD SVG 1.1//EN"
 "http://www.w3.org/Graphics/SVG/1.1/DTD/svg11.dtd">
<!-- Generated by graphviz version 2.30.1 (20150305.2338)
 -->
<!-- Title: couplingbase Pages: 1 -->
<svg width="902pt" height="160pt"
 viewBox="0.00 0.00 902.00 160.00" xmlns="http://www.w3.org/2000/svg" xmlns:xlink="http://www.w3.org/1999/xlink">
<g id="graph0" class="graph" transform="scale(1 1) rotate(0) translate(4 156)">
<title>couplingbase</title>
<!-- Node1 -->
<g id="node1" class="node"><title>Node1</title>
<polygon fill="#bfbfbf" stroke="black" points="820,-62.5 820,-81.5 894,-81.5 894,-62.5 820,-62.5"/>
<text text-anchor="middle" x="857" y="-69.5" font-family="Helvetica,sans-Serif" font-size="10.00">couplingbase</text>
</g>
<!-- Node2 -->
<g id="node2" class="node"><title>Node2</title>
<polygon fill="none" stroke="#bfbfbf" points="526,-118 526,-148 702,-148 702,-118 526,-118"/>
<text text-anchor="start" x="534" y="-136" font-family="Helvetica,sans-Serif" font-size="10.00">vector&lt; impact::orchestrator</text>
<text text-anchor="middle" x="614" y="-125" font-family="Helvetica,sans-Serif" font-size="10.00">::impact::orchestrator::agentbase * &gt;</text>
</g>
<!-- Node2&#45;&gt;Node1 -->
<g id="edge1" class="edge"><title>Node2&#45;&gt;Node1</title>
<path fill="none" stroke="#9a32cd" stroke-dasharray="5,2" d="M712.424,-118.881C741.603,-113.417 773.43,-106.211 802,-97 814.389,-93.0057 827.664,-86.8871 837.952,-81.7029"/>
<polygon fill="#9a32cd" stroke="#9a32cd" points="711.432,-115.504 702.222,-120.742 712.688,-122.39 711.432,-115.504"/>
<text text-anchor="middle" x="761" y="-121" font-family="Helvetica,sans-Serif" font-size="10.00"> componentAgents</text>
</g>
<!-- Node3 -->
<g id="node3" class="node"><title>Node3</title>
<g id="a_node3"><a xlink:title="STL class. ">
<polygon fill="none" stroke="#bfbfbf" points="297,-79.5 297,-98.5 365,-98.5 365,-79.5 297,-79.5"/>
<text text-anchor="middle" x="331" y="-86.5" font-family="Helvetica,sans-Serif" font-size="10.00">vector&lt; T &gt;</text>
</a>
</g>
</g>
<!-- Node3&#45;&gt;Node2 -->
<g id="edge2" class="edge"><title>Node3&#45;&gt;Node2</title>
<path fill="none" stroke="orange" stroke-dasharray="5,2" d="M375.2,-97.9488C385.898,-100.048 397.348,-102.197 408,-104 446.541,-110.525 489.332,-116.739 525.806,-121.73"/>
<polygon fill="orange" stroke="orange" points="375.714,-94.4826 365.223,-95.9638 374.348,-101.348 375.714,-94.4826"/>
<text text-anchor="start" x="408" y="-144" font-family="Helvetica,sans-Serif" font-size="10.00"> &lt; impact::orchestrator</text>
<text text-anchor="start" x="408" y="-133" font-family="Helvetica,sans-Serif" font-size="10.00">::impact::orchestrator</text>
<text text-anchor="middle" x="458" y="-122" font-family="Helvetica,sans-Serif" font-size="10.00">::agentbase * &gt;</text>
</g>
<!-- Node5 -->
<g id="node5" class="node"><title>Node5</title>
<polygon fill="none" stroke="#bfbfbf" points="578,-79.5 578,-98.5 650,-98.5 650,-79.5 578,-79.5"/>
<text text-anchor="middle" x="614" y="-86.5" font-family="Helvetica,sans-Serif" font-size="10.00">vector&lt; int &gt;</text>
</g>
<!-- Node3&#45;&gt;Node5 -->
<g id="edge5" class="edge"><title>Node3&#45;&gt;Node5</title>
<path fill="none" stroke="orange" stroke-dasharray="5,2" d="M375.3,-89C430.948,-89 526.489,-89 577.864,-89"/>
<polygon fill="orange" stroke="orange" points="375.061,-85.5001 365.061,-89 375.061,-92.5001 375.061,-85.5001"/>
<text text-anchor="middle" x="458" y="-92" font-family="Helvetica,sans-Serif" font-size="10.00"> &lt; int &gt;</text>
</g>
<!-- Node10 -->
<g id="node10" class="node"><title>Node10</title>
<polygon fill="none" stroke="#bfbfbf" points="569,-41.5 569,-60.5 659,-60.5 659,-41.5 569,-41.5"/>
<text text-anchor="middle" x="614" y="-48.5" font-family="Helvetica,sans-Serif" font-size="10.00">vector&lt; double &gt;</text>
</g>
<!-- Node3&#45;&gt;Node10 -->
<g id="edge11" class="edge"><title>Node3&#45;&gt;Node10</title>
<path fill="none" stroke="orange" stroke-dasharray="5,2" d="M375.165,-79.8342C385.864,-77.7409 397.323,-75.6496 408,-74 463.214,-65.469 527.26,-58.7944 568.871,-54.8816"/>
<polygon fill="orange" stroke="orange" points="374.31,-76.4358 365.189,-81.8275 375.681,-83.3001 374.31,-76.4358"/>
<text text-anchor="middle" x="458" y="-77" font-family="Helvetica,sans-Serif" font-size="10.00"> &lt; double &gt;</text>
</g>
<!-- Node4 -->
<g id="node4" class="node"><title>Node4</title>
<polygon fill="none" stroke="#bfbfbf" points="128.5,-79.5 128.5,-98.5 157.5,-98.5 157.5,-79.5 128.5,-79.5"/>
<text text-anchor="middle" x="143" y="-86.5" font-family="Helvetica,sans-Serif" font-size="10.00">T</text>
</g>
<!-- Node4&#45;&gt;Node3 -->
<g id="edge3" class="edge"><title>Node4&#45;&gt;Node3</title>
<path fill="none" stroke="#9a32cd" stroke-dasharray="5,2" d="M167.705,-89C200.481,-89 259.789,-89 296.915,-89"/>
<polygon fill="#9a32cd" stroke="#9a32cd" points="167.677,-85.5001 157.677,-89 167.677,-92.5001 167.677,-85.5001"/>
<text text-anchor="middle" x="232" y="-92" font-family="Helvetica,sans-Serif" font-size="10.00"> elements</text>
</g>
<!-- Node5&#45;&gt;Node1 -->
<g id="edge4" class="edge"><title>Node5&#45;&gt;Node1</title>
<path fill="none" stroke="#9a32cd" stroke-dasharray="5,2" d="M660.068,-85.8209C706.221,-82.5653 777.068,-77.5678 819.731,-74.5584"/>
<polygon fill="#9a32cd" stroke="#9a32cd" points="659.772,-82.333 650.043,-86.5281 660.265,-89.3156 659.772,-82.333"/>
<text text-anchor="middle" x="761" y="-85" font-family="Helvetica,sans-Serif" font-size="10.00"> intNumbers</text>
</g>
<!-- Node6 -->
<g id="node6" class="node"><title>Node6</title>
<g id="a_node6"><a xlink:title="STL class. ">
<polygon fill="none" stroke="#bfbfbf" points="588,-0.5 588,-19.5 640,-19.5 640,-0.5 588,-0.5"/>
<text text-anchor="middle" x="614" y="-7.5" font-family="Helvetica,sans-Serif" font-size="10.00">ostream</text>
</a>
</g>
</g>
<!-- Node6&#45;&gt;Node1 -->
<g id="edge6" class="edge"><title>Node6&#45;&gt;Node1</title>
<path fill="none" stroke="#9a32cd" stroke-dasharray="5,2" d="M650.516,-7.7853C689.225,-6.67624 752.277,-8.74313 802,-29 820.202,-36.4153 837.244,-51.9769 847.143,-62.2042"/>
<polygon fill="#9a32cd" stroke="#9a32cd" points="650.137,-4.29699 640.275,-8.16985 650.399,-11.2921 650.137,-4.29699"/>
<text text-anchor="middle" x="761" y="-43" font-family="Helvetica,sans-Serif" font-size="10.00"> errStream</text>
<text text-anchor="middle" x="761" y="-32" font-family="Helvetica,sans-Serif" font-size="10.00">outStream</text>
</g>
<!-- Node7 -->
<g id="node7" class="node"><title>Node7</title>
<g id="a_node7"><a xlink:title="STL class. ">
<polygon fill="none" stroke="#bfbfbf" points="272.5,-0.5 272.5,-19.5 389.5,-19.5 389.5,-0.5 272.5,-0.5"/>
<text text-anchor="middle" x="331" y="-7.5" font-family="Helvetica,sans-Serif" font-size="10.00">basic_ostream&lt; char &gt;</text>
</a>
</g>
</g>
<!-- Node7&#45;&gt;Node6 -->
<g id="edge7" class="edge"><title>Node7&#45;&gt;Node6</title>
<path fill="none" stroke="midnightblue" d="M399.804,-10C460.445,-10 546.025,-10 587.917,-10"/>
<polygon fill="midnightblue" stroke="midnightblue" points="399.543,-6.5001 389.543,-10 399.543,-13.5001 399.543,-6.5001"/>
</g>
<!-- Node8 -->
<g id="node8" class="node"><title>Node8</title>
<g id="a_node8"><a xlink:title="STL class. ">
<polygon fill="none" stroke="#bfbfbf" points="94.5,-0.5 94.5,-19.5 191.5,-19.5 191.5,-0.5 94.5,-0.5"/>
<text text-anchor="middle" x="143" y="-7.5" font-family="Helvetica,sans-Serif" font-size="10.00">basic_ios&lt; Char &gt;</text>
</a>
</g>
</g>
<!-- Node8&#45;&gt;Node7 -->
<g id="edge8" class="edge"><title>Node8&#45;&gt;Node7</title>
<path fill="none" stroke="midnightblue" d="M201.947,-10C224.353,-10 249.939,-10 272.319,-10"/>
<polygon fill="midnightblue" stroke="midnightblue" points="201.9,-6.5001 191.9,-10 201.9,-13.5001 201.9,-6.5001"/>
</g>
<!-- Node9 -->
<g id="node9" class="node"><title>Node9</title>
<g id="a_node9"><a xlink:title="STL class. ">
<polygon fill="none" stroke="#bfbfbf" points="0,-0.5 0,-19.5 56,-19.5 56,-0.5 0,-0.5"/>
<text text-anchor="middle" x="28" y="-7.5" font-family="Helvetica,sans-Serif" font-size="10.00">ios_base</text>
</a>
</g>
</g>
<!-- Node9&#45;&gt;Node8 -->
<g id="edge9" class="edge"><title>Node9&#45;&gt;Node8</title>
<path fill="none" stroke="midnightblue" d="M66.2325,-10C75.238,-10 84.9854,-10 94.3951,-10"/>
<polygon fill="midnightblue" stroke="midnightblue" points="66.0663,-6.5001 56.0663,-10 66.0663,-13.5001 66.0663,-6.5001"/>
</g>
<!-- Node10&#45;&gt;Node1 -->
<g id="edge10" class="edge"><title>Node10&#45;&gt;Node1</title>
<path fill="none" stroke="#9a32cd" stroke-dasharray="5,2" d="M669.522,-52.4191C706.908,-53.8298 757.588,-56.6028 802,-62 807.774,-62.7016 813.862,-63.6367 819.787,-64.6541"/>
<polygon fill="#9a32cd" stroke="#9a32cd" points="669.464,-48.9149 659.345,-52.0563 669.214,-55.9105 669.464,-48.9149"/>
<text text-anchor="middle" x="761" y="-65" font-family="Helvetica,sans-Serif" font-size="10.00"> realNumbers</text>
</g>
</g>
</svg>
