<?xml version="1.0" encoding="UTF-8" standalone="no"?>
<!DOCTYPE svg PUBLIC "-//W3C//DTD SVG 1.1//EN"
 "http://www.w3.org/Graphics/SVG/1.1/DTD/svg11.dtd">
<!-- Generated by graphviz version 2.26.0 (20091210.2329)
 -->
<!-- Title: RunTest Pages: 1 -->
<svg width="294pt" height="82pt"
 viewBox="0.00 0.00 294.00 82.00" xmlns="http://www.w3.org/2000/svg" xmlns:xlink="http://www.w3.org/1999/xlink">
<g id="graph1" class="graph" transform="scale(1 1) rotate(0) translate(4 78)">
<title>RunTest</title>
<!-- Node1 -->
<g id="node1" class="node"><title>Node1</title>
<polygon fill="#bfbfbf" stroke="black" points="0,-29.5 0,-50.5 54,-50.5 54,-29.5 0,-29.5"/>
<text text-anchor="middle" x="27" y="-37.5" font-family="Helvetica,sans-Serif" font-size="10.00">RunTest</text>
</g>
<!-- Node2 -->
<g id="node3" class="node"><title>Node2</title>
<a xlink:href="classOpenFoamModuleDriver_1_1TestingObject_a21159bd2efac623e5a5079f6a20f3444.html#a21159bd2efac623e5a5079f6a20f3444" target="_top" xlink:title="Runs a list of tests specified by name. ">
<polygon fill="none" stroke="black" points="112.5,-52.5 112.5,-73.5 189.5,-73.5 189.5,-52.5 112.5,-52.5"/>
<text text-anchor="middle" x="151" y="-60.5" font-family="Helvetica,sans-Serif" font-size="10.00">ProcessTests</text>
</a>
</g>
<!-- Node1&#45;&gt;Node2 -->
<g id="edge2" class="edge"><title>Node1&#45;&gt;Node2</title>
<path fill="none" stroke="midnightblue" d="M64.2429,-46.908C79.3537,-49.7108 96.812,-52.949 112.089,-55.7826"/>
<polygon fill="midnightblue" stroke="midnightblue" points="64.683,-43.43 54.2123,-45.0474 63.4063,-50.3126 64.683,-43.43"/>
</g>
<!-- Node3 -->
<g id="node5" class="node"><title>Node3</title>
<a xlink:href="namespaceOpenFoamModuleDriver_a98bd69551725493def1a31bfe72b0781.html#a98bd69551725493def1a31bfe72b0781" target="_top" xlink:title="Drives the OpenFoamModuleDriver::TestObject. ">
<polygon fill="none" stroke="black" points="90,-0 90,-34 212,-34 212,-0 90,-0"/>
<text text-anchor="start" x="98" y="-21" font-family="Helvetica,sans-Serif" font-size="10.00">OpenFoamModuleDriver</text>
<text text-anchor="middle" x="151" y="-8" font-family="Helvetica,sans-Serif" font-size="10.00">::Test</text>
</a>
</g>
<!-- Node1&#45;&gt;Node3 -->
<g id="edge4" class="edge"><title>Node1&#45;&gt;Node3</title>
<path fill="none" stroke="midnightblue" d="M64.0818,-33.1219C72.2045,-31.6153 81.0117,-29.9817 89.7975,-28.3521"/>
<polygon fill="midnightblue" stroke="midnightblue" points="63.4063,-29.6874 54.2123,-34.9526 64.683,-36.57 63.4063,-29.6874"/>
</g>
<!-- Node4 -->
<g id="node7" class="node"><title>Node4</title>
<a xlink:href="TestOpenFoamModuleDriver_8C_a0ddf1224851353fc92bfbff6f499fa97.html#a0ddf1224851353fc92bfbff6f499fa97" target="_top" xlink:title="main">
<polygon fill="none" stroke="black" points="248,-6.5 248,-27.5 286,-27.5 286,-6.5 248,-6.5"/>
<text text-anchor="middle" x="267" y="-14.5" font-family="Helvetica,sans-Serif" font-size="10.00">main</text>
</a>
</g>
<!-- Node3&#45;&gt;Node4 -->
<g id="edge6" class="edge"><title>Node3&#45;&gt;Node4</title>
<path fill="none" stroke="midnightblue" d="M222.317,-17C231.641,-17 240.48,-17 247.797,-17"/>
<polygon fill="midnightblue" stroke="midnightblue" points="222.057,-13.5001 212.057,-17 222.057,-20.5001 222.057,-13.5001"/>
</g>
</g>
</svg>
