<?xml version="1.0" encoding="UTF-8" standalone="no"?>
<!DOCTYPE svg PUBLIC "-//W3C//DTD SVG 1.1//EN"
 "http://www.w3.org/Graphics/SVG/1.1/DTD/svg11.dtd">
<!-- Generated by graphviz version 2.30.1 (20150305.2338)
 -->
<!-- Title: ProcessTests Pages: 1 -->
<svg width="480pt" height="306pt"
 viewBox="0.00 0.00 480.00 306.00" xmlns="http://www.w3.org/2000/svg" xmlns:xlink="http://www.w3.org/1999/xlink">
<g id="graph0" class="graph" transform="scale(1 1) rotate(0) translate(4 302)">
<title>ProcessTests</title>
<!-- Node1 -->
<g id="node1" class="node"><title>Node1</title>
<polygon fill="#bfbfbf" stroke="black" points="0.5,-240.5 0.5,-259.5 77.5,-259.5 77.5,-240.5 0.5,-240.5"/>
<text text-anchor="middle" x="39" y="-247.5" font-family="Helvetica,sans-Serif" font-size="10.00">ProcessTests</text>
</g>
<!-- Node2 -->
<g id="node2" class="node"><title>Node2</title>
<g id="a_node2"><a xlink:href="classOpenFoamModuleDriver_1_1TestingObject_aa25f45634aafbb580d94840ad8452745.html#aa25f45634aafbb580d94840ad8452745" target="_top" xlink:title="Tears down the testing fixtures if needed. ">
<polygon fill="none" stroke="black" points="255,-278.5 255,-297.5 309,-297.5 309,-278.5 255,-278.5"/>
<text text-anchor="middle" x="282" y="-285.5" font-family="Helvetica,sans-Serif" font-size="10.00">Epilogue</text>
</a>
</g>
</g>
<!-- Node1&#45;&gt;Node2 -->
<g id="edge1" class="edge"><title>Node1&#45;&gt;Node2</title>
<path fill="none" stroke="midnightblue" d="M77.5883,-257.445C89.2395,-259.663 102.134,-262.026 114,-264 158.844,-271.461 210.695,-278.696 244.574,-283.238"/>
<polygon fill="midnightblue" stroke="midnightblue" points="244.536,-286.763 254.911,-284.614 245.461,-279.825 244.536,-286.763"/>
</g>
<!-- Node3 -->
<g id="node3" class="node"><title>Node3</title>
<g id="a_node3"><a xlink:href="classOpenFoamModuleDriver_1_1TestingObject_aa3cdb6d60e9d9834c19efaab0b044421.html#aa3cdb6d60e9d9834c19efaab0b044421" target="_top" xlink:title="Sets up the data fixtures for the tests. ">
<polygon fill="none" stroke="black" points="254.5,-240.5 254.5,-259.5 309.5,-259.5 309.5,-240.5 254.5,-240.5"/>
<text text-anchor="middle" x="282" y="-247.5" font-family="Helvetica,sans-Serif" font-size="10.00">Prologue</text>
</a>
</g>
</g>
<!-- Node1&#45;&gt;Node3 -->
<g id="edge2" class="edge"><title>Node1&#45;&gt;Node3</title>
<path fill="none" stroke="midnightblue" d="M77.6562,-250C123.126,-250 199.098,-250 244.187,-250"/>
<polygon fill="midnightblue" stroke="midnightblue" points="244.404,-253.5 254.404,-250 244.404,-246.5 244.404,-253.5"/>
</g>
<!-- Node4 -->
<g id="node4" class="node"><title>Node4</title>
<g id="a_node4"><a xlink:href="classOpenFoamModuleDriver_1_1TestingObject_af1f07f14b9af7708e4264bb38937eed2.html#af1f07f14b9af7708e4264bb38937eed2" target="_top" xlink:title="Runs a test specified by name. ">
<polygon fill="none" stroke="black" points="114,-158.5 114,-177.5 168,-177.5 168,-158.5 114,-158.5"/>
<text text-anchor="middle" x="141" y="-165.5" font-family="Helvetica,sans-Serif" font-size="10.00">RunTest</text>
</a>
</g>
</g>
<!-- Node1&#45;&gt;Node4 -->
<g id="edge3" class="edge"><title>Node1&#45;&gt;Node4</title>
<path fill="none" stroke="midnightblue" d="M51.864,-240.272C68.7793,-226.401 100.032,-200.774 120.412,-184.062"/>
<polygon fill="midnightblue" stroke="midnightblue" points="122.638,-186.763 128.151,-177.716 118.199,-181.35 122.638,-186.763"/>
</g>
<!-- Node4&#45;&gt;Node2 -->
<g id="edge4" class="edge"><title>Node4&#45;&gt;Node2</title>
<path fill="none" stroke="midnightblue" d="M145.04,-177.503C152.007,-197.69 171.108,-244.964 204,-269 215.782,-277.61 231.006,-282.348 244.803,-284.943"/>
<polygon fill="midnightblue" stroke="midnightblue" points="244.573,-288.45 254.994,-286.539 245.656,-281.534 244.573,-288.45"/>
</g>
<!-- Node4&#45;&gt;Node3 -->
<g id="edge5" class="edge"><title>Node4&#45;&gt;Node3</title>
<path fill="none" stroke="midnightblue" d="M148.802,-177.747C159.096,-191.738 179.997,-217.331 204,-231 216.3,-238.004 231.137,-242.447 244.491,-245.256"/>
<polygon fill="midnightblue" stroke="midnightblue" points="243.874,-248.701 254.347,-247.101 245.162,-241.821 243.874,-248.701"/>
</g>
<!-- Node5 -->
<g id="node5" class="node"><title>Node5</title>
<g id="a_node5"><a xlink:href="classOpenFoamModuleDriver_1_1TestingObject_a8e78f570bb5d2e3da7b24e8e106584df.html#a8e78f570bb5d2e3da7b24e8e106584df" target="_top" xlink:title="Test__LoadUnitTestData">
<polygon fill="none" stroke="black" points="219,-38.5 219,-57.5 345,-57.5 345,-38.5 219,-38.5"/>
<text text-anchor="middle" x="282" y="-45.5" font-family="Helvetica,sans-Serif" font-size="10.00">Test__LoadUnitTestData</text>
</a>
</g>
</g>
<!-- Node4&#45;&gt;Node5 -->
<g id="edge6" class="edge"><title>Node4&#45;&gt;Node5</title>
<path fill="none" stroke="midnightblue" d="M145.04,-158.497C152.007,-138.31 171.108,-91.0365 204,-67 206.668,-65.0502 209.513,-63.2991 212.477,-61.7264"/>
<polygon fill="midnightblue" stroke="midnightblue" points="214.033,-64.8634 221.674,-57.5237 211.124,-58.4967 214.033,-64.8634"/>
</g>
<!-- Node7 -->
<g id="node7" class="node"><title>Node7</title>
<g id="a_node7"><a xlink:href="classOpenFoamModuleDriver_1_1TestingObject_acd776bc91073ed46c42a02152ffd3a6d.html#acd776bc91073ed46c42a02152ffd3a6d" target="_top" xlink:title="Test__ModuleFunctionInitialize">
<polygon fill="none" stroke="black" points="206,-202.5 206,-221.5 358,-221.5 358,-202.5 206,-202.5"/>
<text text-anchor="middle" x="282" y="-209.5" font-family="Helvetica,sans-Serif" font-size="10.00">Test__ModuleFunctionInitialize</text>
</a>
</g>
</g>
<!-- Node4&#45;&gt;Node7 -->
<g id="edge8" class="edge"><title>Node4&#45;&gt;Node7</title>
<path fill="none" stroke="midnightblue" d="M164.741,-177.527C176.37,-182.213 190.817,-187.752 204,-192 212.689,-194.8 222.023,-197.487 231.091,-199.933"/>
<polygon fill="midnightblue" stroke="midnightblue" points="230.222,-203.323 240.783,-202.487 232.005,-196.554 230.222,-203.323"/>
</g>
<!-- Node8 -->
<g id="node8" class="node"><title>Node8</title>
<g id="a_node8"><a xlink:href="classOpenFoamModuleDriver_1_1TestingObject_a06be0e9e75586dee0ba11c110a2b5863.html#a06be0e9e75586dee0ba11c110a2b5863" target="_top" xlink:title="Test__ModuleFunctionStep\lFluid">
<polygon fill="none" stroke="black" points="214,-153 214,-183 350,-183 350,-153 214,-153"/>
<text text-anchor="start" x="222" y="-171" font-family="Helvetica,sans-Serif" font-size="10.00">Test__ModuleFunctionStep</text>
<text text-anchor="middle" x="282" y="-160" font-family="Helvetica,sans-Serif" font-size="10.00">Fluid</text>
</a>
</g>
</g>
<!-- Node4&#45;&gt;Node8 -->
<g id="edge10" class="edge"><title>Node4&#45;&gt;Node8</title>
<path fill="none" stroke="midnightblue" d="M168.145,-168C178.446,-168 190.862,-168 203.638,-168"/>
<polygon fill="midnightblue" stroke="midnightblue" points="203.927,-171.5 213.927,-168 203.927,-164.5 203.927,-171.5"/>
</g>
<!-- Node9 -->
<g id="node9" class="node"><title>Node9</title>
<g id="a_node9"><a xlink:href="classOpenFoamModuleDriver_1_1TestingObject_a77a1d9a76340e835e6a4f6c9428f8796.html#a77a1d9a76340e835e6a4f6c9428f8796" target="_top" xlink:title="Test__ModuleLoadUnload">
<polygon fill="none" stroke="black" points="217,-0.5 217,-19.5 347,-19.5 347,-0.5 217,-0.5"/>
<text text-anchor="middle" x="282" y="-7.5" font-family="Helvetica,sans-Serif" font-size="10.00">Test__ModuleLoadUnload</text>
</a>
</g>
</g>
<!-- Node4&#45;&gt;Node9 -->
<g id="edge12" class="edge"><title>Node4&#45;&gt;Node9</title>
<path fill="none" stroke="midnightblue" d="M143.393,-158.161C147.544,-132.648 162.248,-63.924 204,-29 206.033,-27.2994 208.196,-25.7472 210.457,-24.3305"/>
<polygon fill="midnightblue" stroke="midnightblue" points="212.387,-27.2699 219.603,-19.512 209.124,-21.0768 212.387,-27.2699"/>
</g>
<!-- Node10 -->
<g id="node10" class="node"><title>Node10</title>
<g id="a_node10"><a xlink:href="classOpenFoamModuleDriver_1_1TestingObject_a8e6b96ff06b7c7dce865d4f5518b535e.html#a8e6b96ff06b7c7dce865d4f5518b535e" target="_top" xlink:title="Test__ModuleMeshRegistration">
<polygon fill="none" stroke="black" points="204.5,-114.5 204.5,-133.5 359.5,-133.5 359.5,-114.5 204.5,-114.5"/>
<text text-anchor="middle" x="282" y="-121.5" font-family="Helvetica,sans-Serif" font-size="10.00">Test__ModuleMeshRegistration</text>
</a>
</g>
</g>
<!-- Node4&#45;&gt;Node10 -->
<g id="edge13" class="edge"><title>Node4&#45;&gt;Node10</title>
<path fill="none" stroke="midnightblue" d="M164.741,-158.473C176.37,-153.787 190.817,-148.248 204,-144 212.689,-141.2 222.023,-138.513 231.091,-136.067"/>
<polygon fill="midnightblue" stroke="midnightblue" points="232.005,-139.446 240.783,-133.513 230.222,-132.677 232.005,-139.446"/>
</g>
<!-- Node11 -->
<g id="node11" class="node"><title>Node11</title>
<g id="a_node11"><a xlink:href="classOpenFoamModuleDriver_1_1TestingObject_ad1aa2004b83b4520a22c3f62e7c219c5.html#ad1aa2004b83b4520a22c3f62e7c219c5" target="_top" xlink:title="Test__ModuleSurfaceData">
<polygon fill="none" stroke="black" points="215.5,-76.5 215.5,-95.5 348.5,-95.5 348.5,-76.5 215.5,-76.5"/>
<text text-anchor="middle" x="282" y="-83.5" font-family="Helvetica,sans-Serif" font-size="10.00">Test__ModuleSurfaceData</text>
</a>
</g>
</g>
<!-- Node4&#45;&gt;Node11 -->
<g id="edge15" class="edge"><title>Node4&#45;&gt;Node11</title>
<path fill="none" stroke="midnightblue" d="M148.802,-158.253C159.096,-144.262 179.997,-118.669 204,-105 207.943,-102.755 212.146,-100.773 216.478,-99.0232"/>
<polygon fill="midnightblue" stroke="midnightblue" points="217.892,-102.234 226.115,-95.5533 215.521,-95.6481 217.892,-102.234"/>
</g>
<!-- Node6 -->
<g id="node6" class="node"><title>Node6</title>
<g id="a_node6"><a xlink:href="classOpenFoamModuleDriver_1_1TestingObject_a90d21e92a2797915cd73e0cf48731a5c.html#a90d21e92a2797915cd73e0cf48731a5c" target="_top" xlink:title="Function to copy input data from source testing directory for use in unit tests. ">
<polygon fill="none" stroke="black" points="396.5,-114.5 396.5,-133.5 471.5,-133.5 471.5,-114.5 396.5,-114.5"/>
<text text-anchor="middle" x="434" y="-121.5" font-family="Helvetica,sans-Serif" font-size="10.00">GetInputData</text>
</a>
</g>
</g>
<!-- Node5&#45;&gt;Node6 -->
<g id="edge7" class="edge"><title>Node5&#45;&gt;Node6</title>
<path fill="none" stroke="midnightblue" d="M334.594,-57.5306C343.299,-60.0341 352.074,-63.1477 360,-67 381.277,-77.3416 402.209,-94.6229 416.165,-107.452"/>
<polygon fill="midnightblue" stroke="midnightblue" points="413.853,-110.082 423.526,-114.404 418.659,-104.993 413.853,-110.082"/>
</g>
<!-- Node7&#45;&gt;Node6 -->
<g id="edge9" class="edge"><title>Node7&#45;&gt;Node6</title>
<path fill="none" stroke="midnightblue" d="M334.486,-202.428C343.293,-199.736 352.13,-196.32 360,-192 383.315,-179.201 404.926,-157.289 418.488,-141.802"/>
<polygon fill="midnightblue" stroke="midnightblue" points="421.345,-143.845 425.154,-133.958 416.011,-139.312 421.345,-143.845"/>
</g>
<!-- Node8&#45;&gt;Node6 -->
<g id="edge11" class="edge"><title>Node8&#45;&gt;Node6</title>
<path fill="none" stroke="midnightblue" d="M334.202,-152.981C352.506,-147.612 372.92,-141.623 390.419,-136.49"/>
<polygon fill="midnightblue" stroke="midnightblue" points="391.736,-139.752 400.347,-133.578 389.766,-133.035 391.736,-139.752"/>
</g>
<!-- Node10&#45;&gt;Node6 -->
<g id="edge14" class="edge"><title>Node10&#45;&gt;Node6</title>
<path fill="none" stroke="midnightblue" d="M359.758,-124C368.678,-124 377.564,-124 385.913,-124"/>
<polygon fill="midnightblue" stroke="midnightblue" points="386.162,-127.5 396.162,-124 386.162,-120.5 386.162,-127.5"/>
</g>
<!-- Node11&#45;&gt;Node6 -->
<g id="edge16" class="edge"><title>Node11&#45;&gt;Node6</title>
<path fill="none" stroke="midnightblue" d="M322.196,-95.5697C334.323,-98.5579 347.721,-101.887 360,-105 368.67,-107.198 377.909,-109.575 386.798,-111.88"/>
<polygon fill="midnightblue" stroke="midnightblue" points="386.075,-115.309 396.634,-114.438 387.837,-108.534 386.075,-115.309"/>
</g>
</g>
</svg>
