<?xml version="1.0" encoding="UTF-8" standalone="no"?>
<!DOCTYPE svg PUBLIC "-//W3C//DTD SVG 1.1//EN"
 "http://www.w3.org/Graphics/SVG/1.1/DTD/svg11.dtd">
<!-- Generated by graphviz version 2.30.1 (20150305.2338)
 -->
<!-- Title: MenuObject&lt; ConfigType, ParamType &gt; Pages: 1 -->
<svg width="146pt" height="242pt"
 viewBox="0.00 0.00 146.00 242.00" xmlns="http://www.w3.org/2000/svg" xmlns:xlink="http://www.w3.org/1999/xlink">
<g id="graph0" class="graph" transform="scale(1 1) rotate(0) translate(4 238)">
<title>MenuObject&lt; ConfigType, ParamType &gt;</title>
<!-- Node1 -->
<g id="node1" class="node"><title>Node1</title>
<polygon fill="#bfbfbf" stroke="black" points="-0.5,-1 -0.5,-31 130.5,-31 130.5,-1 -0.5,-1"/>
<text text-anchor="start" x="7.5" y="-19" font-family="Helvetica,sans-Serif" font-size="10.00">MenuObject&lt; ConfigType,</text>
<text text-anchor="middle" x="65" y="-8" font-family="Helvetica,sans-Serif" font-size="10.00"> ParamType &gt;</text>
</g>
<!-- Node2 -->
<g id="node2" class="node"><title>Node2</title>
<g id="a_node2"><a xlink:title="STL class. ">
<polygon fill="none" stroke="#bfbfbf" points="44.5,-156.5 44.5,-175.5 85.5,-175.5 85.5,-156.5 44.5,-156.5"/>
<text text-anchor="middle" x="65" y="-163.5" font-family="Helvetica,sans-Serif" font-size="10.00">string</text>
</a>
</g>
</g>
<!-- Node2&#45;&gt;Node1 -->
<g id="edge1" class="edge"><title>Node2&#45;&gt;Node1</title>
<path fill="none" stroke="#9a32cd" stroke-dasharray="5,2" d="M65,-145.798C65,-115.728 65,-58.2001 65,-31.4012"/>
<polygon fill="#9a32cd" stroke="#9a32cd" points="61.5001,-146.185 65,-156.185 68.5001,-146.185 61.5001,-146.185"/>
<text text-anchor="middle" x="101.5" y="-130" font-family="Helvetica,sans-Serif" font-size="10.00"> _horizontal_rule</text>
<text text-anchor="middle" x="101.5" y="-119" font-family="Helvetica,sans-Serif" font-size="10.00">_vertical_rule</text>
<text text-anchor="middle" x="101.5" y="-108" font-family="Helvetica,sans-Serif" font-size="10.00">_up_section</text>
<text text-anchor="middle" x="101.5" y="-97" font-family="Helvetica,sans-Serif" font-size="10.00">_last_section</text>
<text text-anchor="middle" x="101.5" y="-86" font-family="Helvetica,sans-Serif" font-size="10.00">_field_separator</text>
<text text-anchor="middle" x="101.5" y="-75" font-family="Helvetica,sans-Serif" font-size="10.00">_header</text>
<text text-anchor="middle" x="101.5" y="-64" font-family="Helvetica,sans-Serif" font-size="10.00">_external_border</text>
<text text-anchor="middle" x="101.5" y="-53" font-family="Helvetica,sans-Serif" font-size="10.00">_next_section</text>
</g>
<!-- Node3 -->
<g id="node3" class="node"><title>Node3</title>
<g id="a_node3"><a xlink:title="STL class. ">
<polygon fill="none" stroke="#bfbfbf" points="12,-214.5 12,-233.5 118,-233.5 118,-214.5 12,-214.5"/>
<text text-anchor="middle" x="65" y="-221.5" font-family="Helvetica,sans-Serif" font-size="10.00">basic_string&lt; char &gt;</text>
</a>
</g>
</g>
<!-- Node3&#45;&gt;Node2 -->
<g id="edge2" class="edge"><title>Node3&#45;&gt;Node2</title>
<path fill="none" stroke="midnightblue" d="M65,-203.953C65,-194.287 65,-183.031 65,-175.505"/>
<polygon fill="midnightblue" stroke="midnightblue" points="61.5001,-204.25 65,-214.25 68.5001,-204.25 61.5001,-204.25"/>
</g>
</g>
</svg>
