<?xml version="1.0" encoding="UTF-8" standalone="no"?>
<!DOCTYPE svg PUBLIC "-//W3C//DTD SVG 1.1//EN"
 "http://www.w3.org/Graphics/SVG/1.1/DTD/svg11.dtd">
<!-- Generated by graphviz version 2.26.0 (20091210.2329)
 -->
<!-- Title: SetSourceDirPath Pages: 1 -->
<svg width="336pt" height="42pt"
 viewBox="0.00 0.00 336.00 42.00" xmlns="http://www.w3.org/2000/svg" xmlns:xlink="http://www.w3.org/1999/xlink">
<g id="graph1" class="graph" transform="scale(1 1) rotate(0) translate(4 38)">
<title>SetSourceDirPath</title>
<!-- Node1 -->
<g id="node1" class="node"><title>Node1</title>
<polygon fill="#bfbfbf" stroke="black" points="0.5,-6.5 0.5,-27.5 95.5,-27.5 95.5,-6.5 0.5,-6.5"/>
<text text-anchor="middle" x="48" y="-14.5" font-family="Helvetica,sans-Serif" font-size="10.00">SetSourceDirPath</text>
</g>
<!-- Node2 -->
<g id="node3" class="node"><title>Node2</title>
<a xlink:href="namespaceOpenFoamModuleDriver_a98bd69551725493def1a31bfe72b0781.html#a98bd69551725493def1a31bfe72b0781" target="_top" xlink:title="Drives the OpenFoamModuleDriver::TestObject. ">
<polygon fill="none" stroke="black" points="132,-0 132,-34 254,-34 254,-0 132,-0"/>
<text text-anchor="start" x="140" y="-21" font-family="Helvetica,sans-Serif" font-size="10.00">OpenFoamModuleDriver</text>
<text text-anchor="middle" x="193" y="-8" font-family="Helvetica,sans-Serif" font-size="10.00">::Test</text>
</a>
</g>
<!-- Node1&#45;&gt;Node2 -->
<g id="edge2" class="edge"><title>Node1&#45;&gt;Node2</title>
<path fill="none" stroke="midnightblue" d="M106.099,-17C114.616,-17 123.409,-17 131.983,-17"/>
<polygon fill="midnightblue" stroke="midnightblue" points="105.88,-13.5001 95.8803,-17 105.88,-20.5001 105.88,-13.5001"/>
</g>
<!-- Node3 -->
<g id="node5" class="node"><title>Node3</title>
<a xlink:href="TestOpenFoamModuleDriver_8C_a0ddf1224851353fc92bfbff6f499fa97.html#a0ddf1224851353fc92bfbff6f499fa97" target="_top" xlink:title="main">
<polygon fill="none" stroke="black" points="290,-6.5 290,-27.5 328,-27.5 328,-6.5 290,-6.5"/>
<text text-anchor="middle" x="309" y="-14.5" font-family="Helvetica,sans-Serif" font-size="10.00">main</text>
</a>
</g>
<!-- Node2&#45;&gt;Node3 -->
<g id="edge4" class="edge"><title>Node2&#45;&gt;Node3</title>
<path fill="none" stroke="midnightblue" d="M264.317,-17C273.641,-17 282.48,-17 289.797,-17"/>
<polygon fill="midnightblue" stroke="midnightblue" points="264.057,-13.5001 254.057,-17 264.057,-20.5001 264.057,-13.5001"/>
</g>
</g>
</svg>
