<?xml version="1.0" encoding="UTF-8" standalone="no"?>
<!DOCTYPE svg PUBLIC "-//W3C//DTD SVG 1.1//EN"
 "http://www.w3.org/Graphics/SVG/1.1/DTD/svg11.dtd">
<!-- Generated by graphviz version 2.30.1 (20150305.2338)
 -->
<!-- Title: getSimulationFinalTime Pages: 1 -->
<svg width="782pt" height="136pt"
 viewBox="0.00 0.00 782.00 136.00" xmlns="http://www.w3.org/2000/svg" xmlns:xlink="http://www.w3.org/1999/xlink">
<g id="graph0" class="graph" transform="scale(1 1) rotate(0) translate(4 132)">
<title>getSimulationFinalTime</title>
<!-- Node1 -->
<g id="node1" class="node"><title>Node1</title>
<polygon fill="#bfbfbf" stroke="black" points="0.5,-54.5 0.5,-73.5 119.5,-73.5 119.5,-54.5 0.5,-54.5"/>
<text text-anchor="middle" x="60" y="-61.5" font-family="Helvetica,sans-Serif" font-size="10.00">getSimulationFinalTime</text>
</g>
<!-- Node2 -->
<g id="node2" class="node"><title>Node2</title>
<g id="a_node2"><a xlink:href="classElmerFoamFSI_1_1TestingObject_aa7d577bcec96bb12da930ede076b6023.html#aa7d577bcec96bb12da930ede076b6023" target="_top" xlink:title="Test for fluidAgent&#45;&gt;Run() function. ">
<polygon fill="none" stroke="black" points="167.5,-98 167.5,-128 316.5,-128 316.5,-98 167.5,-98"/>
<text text-anchor="start" x="175.5" y="-116" font-family="Helvetica,sans-Serif" font-size="10.00">ElmerFoamFSI::TestingObject</text>
<text text-anchor="middle" x="242" y="-105" font-family="Helvetica,sans-Serif" font-size="10.00">::Test__FluidAgentRun</text>
</a>
</g>
</g>
<!-- Node1&#45;&gt;Node2 -->
<g id="edge1" class="edge"><title>Node1&#45;&gt;Node2</title>
<path fill="none" stroke="midnightblue" d="M106.101,-76.2776C130.258,-82.8537 160.218,-91.0092 185.762,-97.963"/>
<polygon fill="midnightblue" stroke="midnightblue" points="106.701,-72.8136 96.1331,-73.564 104.863,-79.5678 106.701,-72.8136"/>
</g>
<!-- Node8 -->
<g id="node8" class="node"><title>Node8</title>
<g id="a_node8"><a xlink:href="classElmerFoamFSI_1_1TestingObject_a1fae1ccecf337df1572d5a43cdae1a08.html#a1fae1ccecf337df1572d5a43cdae1a08" target="_top" xlink:title="Test for solidAgent&#45;&gt;Run() function. ">
<polygon fill="none" stroke="black" points="167.5,-49 167.5,-79 316.5,-79 316.5,-49 167.5,-49"/>
<text text-anchor="start" x="175.5" y="-67" font-family="Helvetica,sans-Serif" font-size="10.00">ElmerFoamFSI::TestingObject</text>
<text text-anchor="middle" x="242" y="-56" font-family="Helvetica,sans-Serif" font-size="10.00">::Test__SolidAgentRun</text>
</a>
</g>
</g>
<!-- Node1&#45;&gt;Node8 -->
<g id="edge8" class="edge"><title>Node1&#45;&gt;Node8</title>
<path fill="none" stroke="midnightblue" d="M130.068,-64C142.306,-64 155.09,-64 167.446,-64"/>
<polygon fill="midnightblue" stroke="midnightblue" points="129.939,-60.5001 119.939,-64 129.939,-67.5001 129.939,-60.5001"/>
</g>
<!-- Node9 -->
<g id="node9" class="node"><title>Node9</title>
<g id="a_node9"><a xlink:href="classElmerFoamFSI_1_1TestingObject_a8c738943eca358248eb583bd29c5c332.html#a8c738943eca358248eb583bd29c5c332" target="_top" xlink:title="Test for TransferLoadsToStructures() function. ">
<polygon fill="none" stroke="black" points="156.5,-0 156.5,-30 327.5,-30 327.5,-0 156.5,-0"/>
<text text-anchor="start" x="164.5" y="-18" font-family="Helvetica,sans-Serif" font-size="10.00">ElmerFoamFSI::TestingObject</text>
<text text-anchor="middle" x="242" y="-7" font-family="Helvetica,sans-Serif" font-size="10.00">::Test__TransferLoadsToStructures</text>
</a>
</g>
</g>
<!-- Node1&#45;&gt;Node9 -->
<g id="edge11" class="edge"><title>Node1&#45;&gt;Node9</title>
<path fill="none" stroke="midnightblue" d="M106.101,-51.7224C130.258,-45.1463 160.218,-36.9908 185.762,-30.037"/>
<polygon fill="midnightblue" stroke="midnightblue" points="104.863,-48.4322 96.1331,-54.436 106.701,-55.1864 104.863,-48.4322"/>
</g>
<!-- Node3 -->
<g id="node3" class="node"><title>Node3</title>
<g id="a_node3"><a xlink:href="classElmerFoamFSI_1_1TestingObject_a046f7ab06db0acf616b0d2bf3d3146aa.html#a046f7ab06db0acf616b0d2bf3d3146aa" target="_top" xlink:title="Runs all tests implemented by the ElmerFoamFSI::TestingObject. ">
<polygon fill="none" stroke="black" points="364.5,-73 364.5,-103 513.5,-103 513.5,-73 364.5,-73"/>
<text text-anchor="start" x="372.5" y="-91" font-family="Helvetica,sans-Serif" font-size="10.00">ElmerFoamFSI::TestingObject</text>
<text text-anchor="middle" x="439" y="-80" font-family="Helvetica,sans-Serif" font-size="10.00">::Process</text>
</a>
</g>
</g>
<!-- Node2&#45;&gt;Node3 -->
<g id="edge2" class="edge"><title>Node2&#45;&gt;Node3</title>
<path fill="none" stroke="midnightblue" d="M326.717,-102.267C339.285,-100.656 352.165,-99.0045 364.498,-97.4233"/>
<polygon fill="midnightblue" stroke="midnightblue" points="326.195,-98.8053 316.721,-103.549 327.085,-105.748 326.195,-98.8053"/>
</g>
<!-- Node6 -->
<g id="node6" class="node"><title>Node6</title>
<g id="a_node6"><a xlink:href="classElmerFoamFSI_1_1TestingObject_af1f07f14b9af7708e4264bb38937eed2.html#af1f07f14b9af7708e4264bb38937eed2" target="_top" xlink:title="Runs a test specified by name. ">
<polygon fill="none" stroke="black" points="364.5,-24 364.5,-54 513.5,-54 513.5,-24 364.5,-24"/>
<text text-anchor="start" x="372.5" y="-42" font-family="Helvetica,sans-Serif" font-size="10.00">ElmerFoamFSI::TestingObject</text>
<text text-anchor="middle" x="439" y="-31" font-family="Helvetica,sans-Serif" font-size="10.00">::RunTest</text>
</a>
</g>
</g>
<!-- Node2&#45;&gt;Node6 -->
<g id="edge5" class="edge"><title>Node2&#45;&gt;Node6</title>
<path fill="none" stroke="midnightblue" d="M312.482,-94.4738C317.806,-92.4773 323.035,-90.3193 328,-88 345.422,-79.8611 346.743,-72.4835 364,-64 371.423,-60.3507 379.511,-57.021 387.524,-54.0659"/>
<polygon fill="midnightblue" stroke="midnightblue" points="311.091,-91.2537 302.834,-97.8934 313.429,-97.8516 311.091,-91.2537"/>
</g>
<!-- Node4 -->
<g id="node4" class="node"><title>Node4</title>
<g id="a_node4"><a xlink:href="namespaceElmerFoamFSI_aeb590657609088b8ab12a5cbd164fcfa.html#aeb590657609088b8ab12a5cbd164fcfa" target="_top" xlink:title="Drives the ElmerFoamFSI::TestObject. ">
<polygon fill="none" stroke="black" points="571,-75.5 571,-94.5 679,-94.5 679,-75.5 571,-75.5"/>
<text text-anchor="middle" x="625" y="-82.5" font-family="Helvetica,sans-Serif" font-size="10.00">ElmerFoamFSI::Test</text>
</a>
</g>
</g>
<!-- Node3&#45;&gt;Node4 -->
<g id="edge3" class="edge"><title>Node3&#45;&gt;Node4</title>
<path fill="none" stroke="midnightblue" d="M523.963,-86.631C539.966,-86.3701 556.296,-86.1039 570.996,-85.8642"/>
<polygon fill="midnightblue" stroke="midnightblue" points="523.457,-83.1387 513.515,-86.8014 523.571,-90.1378 523.457,-83.1387"/>
</g>
<!-- Node5 -->
<g id="node5" class="node"><title>Node5</title>
<g id="a_node5"><a xlink:href="TestElmerFoamFSI_8C_a0ddf1224851353fc92bfbff6f499fa97.html#a0ddf1224851353fc92bfbff6f499fa97" target="_top" xlink:title="main">
<polygon fill="none" stroke="black" points="736,-75.5 736,-94.5 774,-94.5 774,-75.5 736,-75.5"/>
<text text-anchor="middle" x="755" y="-82.5" font-family="Helvetica,sans-Serif" font-size="10.00">main</text>
</a>
</g>
</g>
<!-- Node4&#45;&gt;Node5 -->
<g id="edge4" class="edge"><title>Node4&#45;&gt;Node5</title>
<path fill="none" stroke="midnightblue" d="M689.193,-85C706.293,-85 723.469,-85 735.838,-85"/>
<polygon fill="midnightblue" stroke="midnightblue" points="689.172,-81.5001 679.172,-85 689.171,-88.5001 689.172,-81.5001"/>
</g>
<!-- Node7 -->
<g id="node7" class="node"><title>Node7</title>
<g id="a_node7"><a xlink:href="classElmerFoamFSI_1_1TestingObject_a21159bd2efac623e5a5079f6a20f3444.html#a21159bd2efac623e5a5079f6a20f3444" target="_top" xlink:title="Runs a list of tests specified by name. ">
<polygon fill="none" stroke="black" points="550.5,-24 550.5,-54 699.5,-54 699.5,-24 550.5,-24"/>
<text text-anchor="start" x="558.5" y="-42" font-family="Helvetica,sans-Serif" font-size="10.00">ElmerFoamFSI::TestingObject</text>
<text text-anchor="middle" x="625" y="-31" font-family="Helvetica,sans-Serif" font-size="10.00">::ProcessTests</text>
</a>
</g>
</g>
<!-- Node6&#45;&gt;Node7 -->
<g id="edge6" class="edge"><title>Node6&#45;&gt;Node7</title>
<path fill="none" stroke="midnightblue" d="M523.533,-39C532.462,-39 541.498,-39 550.302,-39"/>
<polygon fill="midnightblue" stroke="midnightblue" points="523.515,-35.5001 513.515,-39 523.515,-42.5001 523.515,-35.5001"/>
</g>
<!-- Node6&#45;&gt;Node4 -->
<g id="edge7" class="edge"><title>Node6&#45;&gt;Node4</title>
<path fill="none" stroke="midnightblue" d="M509.986,-56.4966C535.754,-62.9386 563.97,-69.9925 585.886,-75.4714"/>
<polygon fill="midnightblue" stroke="midnightblue" points="510.799,-53.0921 500.248,-54.0621 509.101,-59.8831 510.799,-53.0921"/>
</g>
<!-- Node8&#45;&gt;Node3 -->
<g id="edge9" class="edge"><title>Node8&#45;&gt;Node3</title>
<path fill="none" stroke="midnightblue" d="M326.717,-74.3036C339.285,-75.8505 352.165,-77.4357 364.498,-78.9536"/>
<polygon fill="midnightblue" stroke="midnightblue" points="327.074,-70.8212 316.721,-73.0734 326.219,-77.7688 327.074,-70.8212"/>
</g>
<!-- Node8&#45;&gt;Node6 -->
<g id="edge10" class="edge"><title>Node8&#45;&gt;Node6</title>
<path fill="none" stroke="midnightblue" d="M326.717,-53.267C339.285,-51.6558 352.165,-50.0045 364.498,-48.4233"/>
<polygon fill="midnightblue" stroke="midnightblue" points="326.195,-49.8053 316.721,-54.5486 327.085,-56.7484 326.195,-49.8053"/>
</g>
<!-- Node9&#45;&gt;Node3 -->
<g id="edge12" class="edge"><title>Node9&#45;&gt;Node3</title>
<path fill="none" stroke="midnightblue" d="M314.613,-33.4422C319.2,-35.1677 323.7,-37.0195 328,-39 345.466,-47.0441 346.743,-54.5165 364,-63 371.423,-66.6493 379.511,-69.979 387.524,-72.9341"/>
<polygon fill="midnightblue" stroke="midnightblue" points="315.701,-30.1148 305.106,-30.0773 313.365,-36.7136 315.701,-30.1148"/>
</g>
<!-- Node9&#45;&gt;Node6 -->
<g id="edge13" class="edge"><title>Node9&#45;&gt;Node6</title>
<path fill="none" stroke="midnightblue" d="M337.758,-26.6625C346.711,-27.7644 355.694,-28.8701 364.406,-29.9423"/>
<polygon fill="midnightblue" stroke="midnightblue" points="338.032,-23.1699 327.679,-25.422 337.177,-30.1175 338.032,-23.1699"/>
</g>
</g>
</svg>
