<?xml version="1.0" encoding="UTF-8" standalone="no"?>
<!DOCTYPE svg PUBLIC "-//W3C//DTD SVG 1.1//EN"
 "http://www.w3.org/Graphics/SVG/1.1/DTD/svg11.dtd">
<!-- Generated by graphviz version 2.26.0 (20091210.2329)
 -->
<!-- Title: Process Pages: 1 -->
<svg width="366pt" height="322pt"
 viewBox="0.00 0.00 366.00 322.00" xmlns="http://www.w3.org/2000/svg" xmlns:xlink="http://www.w3.org/1999/xlink">
<g id="graph1" class="graph" transform="scale(1 1) rotate(0) translate(4 318)">
<title>Process</title>
<!-- Node1 -->
<g id="node1" class="node"><title>Node1</title>
<polygon fill="#bfbfbf" stroke="black" points="0.5,-149.5 0.5,-170.5 53.5,-170.5 53.5,-149.5 0.5,-149.5"/>
<text text-anchor="middle" x="27" y="-157.5" font-family="Helvetica,sans-Serif" font-size="10.00">Process</text>
</g>
<!-- Node2 -->
<g id="node3" class="node"><title>Node2</title>
<a xlink:href="classOpenFoamModuleDriver_1_1TestingObject_aa25f45634aafbb580d94840ad8452745.html#aa25f45634aafbb580d94840ad8452745" target="_top" xlink:title="Tears down the testing fixtures if needed. ">
<polygon fill="none" stroke="black" points="141,-292.5 141,-313.5 195,-313.5 195,-292.5 141,-292.5"/>
<text text-anchor="middle" x="168" y="-300.5" font-family="Helvetica,sans-Serif" font-size="10.00">Epilogue</text>
</a>
</g>
<!-- Node1&#45;&gt;Node2 -->
<g id="edge2" class="edge"><title>Node1&#45;&gt;Node2</title>
<path fill="none" stroke="midnightblue" d="M29.3439,-170.782C35.1481,-194.821 52.5148,-253.044 90,-283 101.6,-292.27 117.002,-297.291 131.054,-299.992"/>
<polygon fill="midnightblue" stroke="midnightblue" points="130.547,-303.456 140.974,-301.577 131.651,-296.543 130.547,-303.456"/>
</g>
<!-- Node3 -->
<g id="node5" class="node"><title>Node3</title>
<a xlink:href="classOpenFoamModuleDriver_1_1TestingObject_aa3cdb6d60e9d9834c19efaab0b044421.html#aa3cdb6d60e9d9834c19efaab0b044421" target="_top" xlink:title="Sets up the data fixtures for the tests. ">
<polygon fill="none" stroke="black" points="140.5,-252.5 140.5,-273.5 195.5,-273.5 195.5,-252.5 140.5,-252.5"/>
<text text-anchor="middle" x="168" y="-260.5" font-family="Helvetica,sans-Serif" font-size="10.00">Prologue</text>
</a>
</g>
<!-- Node1&#45;&gt;Node3 -->
<g id="edge4" class="edge"><title>Node1&#45;&gt;Node3</title>
<path fill="none" stroke="midnightblue" d="M32.1215,-170.76C41.1933,-188.623 61.8198,-224.284 90,-243 101.878,-250.889 116.674,-255.667 130.176,-258.56"/>
<polygon fill="midnightblue" stroke="midnightblue" points="129.707,-262.033 140.179,-260.425 130.991,-255.151 129.707,-262.033"/>
</g>
<!-- Node4 -->
<g id="node7" class="node"><title>Node4</title>
<a xlink:href="classOpenFoamModuleDriver_1_1TestingObject_a8e78f570bb5d2e3da7b24e8e106584df.html#a8e78f570bb5d2e3da7b24e8e106584df" target="_top" xlink:title="Test__LoadUnitTestData">
<polygon fill="none" stroke="black" points="105,-212.5 105,-233.5 231,-233.5 231,-212.5 105,-212.5"/>
<text text-anchor="middle" x="168" y="-220.5" font-family="Helvetica,sans-Serif" font-size="10.00">Test__LoadUnitTestData</text>
</a>
</g>
<!-- Node1&#45;&gt;Node4 -->
<g id="edge6" class="edge"><title>Node1&#45;&gt;Node4</title>
<path fill="none" stroke="midnightblue" d="M39.7135,-170.659C51.9021,-180.379 71.1794,-194.483 90,-203 95.3035,-205.4 100.945,-207.548 106.675,-209.464"/>
<polygon fill="midnightblue" stroke="midnightblue" points="105.769,-212.847 116.357,-212.47 107.845,-206.162 105.769,-212.847"/>
</g>
<!-- Node6 -->
<g id="node11" class="node"><title>Node6</title>
<a xlink:href="classOpenFoamModuleDriver_1_1TestingObject_acd776bc91073ed46c42a02152ffd3a6d.html#acd776bc91073ed46c42a02152ffd3a6d" target="_top" xlink:title="Test__ModuleFunctionInitialize">
<polygon fill="none" stroke="black" points="92,-172.5 92,-193.5 244,-193.5 244,-172.5 92,-172.5"/>
<text text-anchor="middle" x="168" y="-180.5" font-family="Helvetica,sans-Serif" font-size="10.00">Test__ModuleFunctionInitialize</text>
</a>
</g>
<!-- Node1&#45;&gt;Node6 -->
<g id="edge10" class="edge"><title>Node1&#45;&gt;Node6</title>
<path fill="none" stroke="midnightblue" d="M53.521,-164.326C65.0583,-166.208 79.212,-168.517 93.5833,-170.861"/>
<polygon fill="midnightblue" stroke="midnightblue" points="93.105,-174.329 103.538,-172.485 94.232,-167.421 93.105,-174.329"/>
</g>
<!-- Node7 -->
<g id="node14" class="node"><title>Node7</title>
<a xlink:href="classOpenFoamModuleDriver_1_1TestingObject_a06be0e9e75586dee0ba11c110a2b5863.html#a06be0e9e75586dee0ba11c110a2b5863" target="_top" xlink:title="Test__ModuleFunctionStep\lFluid">
<polygon fill="none" stroke="black" points="100,-120 100,-154 236,-154 236,-120 100,-120"/>
<text text-anchor="start" x="108" y="-141" font-family="Helvetica,sans-Serif" font-size="10.00">Test__ModuleFunctionStep</text>
<text text-anchor="middle" x="168" y="-128" font-family="Helvetica,sans-Serif" font-size="10.00">Fluid</text>
</a>
</g>
<!-- Node1&#45;&gt;Node7 -->
<g id="edge14" class="edge"><title>Node1&#45;&gt;Node7</title>
<path fill="none" stroke="midnightblue" d="M53.521,-155.674C64.0736,-153.953 76.815,-151.874 89.9098,-149.738"/>
<polygon fill="midnightblue" stroke="midnightblue" points="90.6559,-153.163 99.9619,-148.098 89.5289,-146.254 90.6559,-153.163"/>
</g>
<!-- Node8 -->
<g id="node17" class="node"><title>Node8</title>
<a xlink:href="classOpenFoamModuleDriver_1_1TestingObject_a77a1d9a76340e835e6a4f6c9428f8796.html#a77a1d9a76340e835e6a4f6c9428f8796" target="_top" xlink:title="Test__ModuleLoadUnload">
<polygon fill="none" stroke="black" points="103,-80.5 103,-101.5 233,-101.5 233,-80.5 103,-80.5"/>
<text text-anchor="middle" x="168" y="-88.5" font-family="Helvetica,sans-Serif" font-size="10.00">Test__ModuleLoadUnload</text>
</a>
</g>
<!-- Node1&#45;&gt;Node8 -->
<g id="edge18" class="edge"><title>Node1&#45;&gt;Node8</title>
<path fill="none" stroke="midnightblue" d="M37.6565,-149.441C49.4807,-138.302 69.5978,-121.007 90,-111 94.6655,-108.712 99.6207,-106.666 104.683,-104.841"/>
<polygon fill="midnightblue" stroke="midnightblue" points="106.105,-108.058 114.502,-101.598 103.909,-101.411 106.105,-108.058"/>
</g>
<!-- Node9 -->
<g id="node19" class="node"><title>Node9</title>
<a xlink:href="classOpenFoamModuleDriver_1_1TestingObject_a8e6b96ff06b7c7dce865d4f5518b535e.html#a8e6b96ff06b7c7dce865d4f5518b535e" target="_top" xlink:title="Test__ModuleMeshRegistration">
<polygon fill="none" stroke="black" points="90.5,-40.5 90.5,-61.5 245.5,-61.5 245.5,-40.5 90.5,-40.5"/>
<text text-anchor="middle" x="168" y="-48.5" font-family="Helvetica,sans-Serif" font-size="10.00">Test__ModuleMeshRegistration</text>
</a>
</g>
<!-- Node1&#45;&gt;Node9 -->
<g id="edge20" class="edge"><title>Node1&#45;&gt;Node9</title>
<path fill="none" stroke="midnightblue" d="M31.4955,-149.37C40.0206,-130.541 60.3731,-91.3955 90,-71 92.7636,-69.0975 95.6946,-67.3759 98.7372,-65.8181"/>
<polygon fill="midnightblue" stroke="midnightblue" points="100.44,-68.891 108.145,-61.6186 97.5865,-62.499 100.44,-68.891"/>
</g>
<!-- Node10 -->
<g id="node22" class="node"><title>Node10</title>
<a xlink:href="classOpenFoamModuleDriver_1_1TestingObject_ad1aa2004b83b4520a22c3f62e7c219c5.html#ad1aa2004b83b4520a22c3f62e7c219c5" target="_top" xlink:title="Test__ModuleSurfaceData">
<polygon fill="none" stroke="black" points="101.5,-0.5 101.5,-21.5 234.5,-21.5 234.5,-0.5 101.5,-0.5"/>
<text text-anchor="middle" x="168" y="-8.5" font-family="Helvetica,sans-Serif" font-size="10.00">Test__ModuleSurfaceData</text>
</a>
</g>
<!-- Node1&#45;&gt;Node10 -->
<g id="edge24" class="edge"><title>Node1&#45;&gt;Node10</title>
<path fill="none" stroke="midnightblue" d="M29.0172,-149.447C34.3096,-124.735 50.971,-62.8039 90,-31 92.0388,-29.3387 94.1991,-27.8135 96.4521,-26.4134"/>
<polygon fill="midnightblue" stroke="midnightblue" points="98.3348,-29.3772 105.541,-21.6103 95.0641,-23.1883 98.3348,-29.3772"/>
</g>
<!-- Node5 -->
<g id="node9" class="node"><title>Node5</title>
<a xlink:href="classOpenFoamModuleDriver_1_1TestingObject_a90d21e92a2797915cd73e0cf48731a5c.html#a90d21e92a2797915cd73e0cf48731a5c" target="_top" xlink:title="Function to copy input data from source testing directory for use in unit tests. ">
<polygon fill="none" stroke="black" points="282.5,-126.5 282.5,-147.5 357.5,-147.5 357.5,-126.5 282.5,-126.5"/>
<text text-anchor="middle" x="320" y="-134.5" font-family="Helvetica,sans-Serif" font-size="10.00">GetInputData</text>
</a>
</g>
<!-- Node4&#45;&gt;Node5 -->
<g id="edge8" class="edge"><title>Node4&#45;&gt;Node5</title>
<path fill="none" stroke="midnightblue" d="M222.962,-212.458C230.928,-209.926 238.845,-206.814 246,-203 268.816,-190.84 290.331,-170.232 304.218,-155.273"/>
<polygon fill="midnightblue" stroke="midnightblue" points="307.01,-157.404 311.108,-147.634 301.812,-152.716 307.01,-157.404"/>
</g>
<!-- Node6&#45;&gt;Node5 -->
<g id="edge12" class="edge"><title>Node6&#45;&gt;Node5</title>
<path fill="none" stroke="midnightblue" d="M211.915,-172.452C223.085,-169.574 235.03,-166.327 246,-163 257.792,-159.424 270.494,-155.127 281.989,-151.066"/>
<polygon fill="midnightblue" stroke="midnightblue" points="283.49,-154.247 291.727,-147.582 281.132,-147.656 283.49,-154.247"/>
</g>
<!-- Node7&#45;&gt;Node5 -->
<g id="edge16" class="edge"><title>Node7&#45;&gt;Node5</title>
<path fill="none" stroke="midnightblue" d="M236.441,-137C248.507,-137 260.829,-137 272.176,-137"/>
<polygon fill="midnightblue" stroke="midnightblue" points="272.287,-140.5 282.287,-137 272.287,-133.5 272.287,-140.5"/>
</g>
<!-- Node9&#45;&gt;Node5 -->
<g id="edge22" class="edge"><title>Node9&#45;&gt;Node5</title>
<path fill="none" stroke="midnightblue" d="M222.962,-61.5415C230.928,-64.0744 238.845,-67.1865 246,-71 268.816,-83.1599 290.331,-103.768 304.218,-118.727"/>
<polygon fill="midnightblue" stroke="midnightblue" points="301.812,-121.284 311.108,-126.366 307.01,-116.596 301.812,-121.284"/>
</g>
<!-- Node10&#45;&gt;Node5 -->
<g id="edge26" class="edge"><title>Node10&#45;&gt;Node5</title>
<path fill="none" stroke="midnightblue" d="M227.88,-21.583C234.296,-24.0845 240.485,-27.177 246,-31 277.633,-52.9291 300.094,-93.0489 311.475,-117.145"/>
<polygon fill="midnightblue" stroke="midnightblue" points="308.35,-118.73 315.668,-126.391 314.725,-115.838 308.35,-118.73"/>
</g>
</g>
</svg>
