<?xml version="1.0" encoding="UTF-8" standalone="no"?>
<!DOCTYPE svg PUBLIC "-//W3C//DTD SVG 1.1//EN"
 "http://www.w3.org/Graphics/SVG/1.1/DTD/svg11.dtd">
<!-- Generated by graphviz version 2.30.1 (20150305.2338)
 -->
<!-- Title: TransferDisplacementsToFluid Pages: 1 -->
<svg width="826pt" height="229pt"
 viewBox="0.00 0.00 826.00 229.00" xmlns="http://www.w3.org/2000/svg" xmlns:xlink="http://www.w3.org/1999/xlink">
<g id="graph0" class="graph" transform="scale(1 1) rotate(0) translate(4 225)">
<title>TransferDisplacementsToFluid</title>
<!-- Node1 -->
<g id="node1" class="node"><title>Node1</title>
<polygon fill="#bfbfbf" stroke="black" points="0,-103.5 0,-122.5 150,-122.5 150,-103.5 0,-103.5"/>
<text text-anchor="middle" x="75" y="-110.5" font-family="Helvetica,sans-Serif" font-size="10.00">TransferDisplacementsToFluid</text>
</g>
<!-- Node2 -->
<g id="node2" class="node"><title>Node2</title>
<g id="a_node2"><a xlink:href="classfsicoupling_afbfb74d751085fbf8cffe83b9716b2dd.html#afbfb74d751085fbf8cffe83b9716b2dd" target="_top" xlink:title="Run">
<polygon fill="none" stroke="black" points="261.5,-196.5 261.5,-215.5 296.5,-215.5 296.5,-196.5 261.5,-196.5"/>
<text text-anchor="middle" x="279" y="-203.5" font-family="Helvetica,sans-Serif" font-size="10.00">Run</text>
</a>
</g>
</g>
<!-- Node1&#45;&gt;Node2 -->
<g id="edge1" class="edge"><title>Node1&#45;&gt;Node2</title>
<path fill="none" stroke="midnightblue" d="M95.1957,-128.996C116.198,-145.685 151.489,-171.41 186,-186 211.142,-196.629 242.632,-201.902 261.489,-204.283"/>
<polygon fill="midnightblue" stroke="midnightblue" points="97.3444,-126.233 87.3681,-122.666 92.9425,-131.676 97.3444,-126.233"/>
</g>
<!-- Node5 -->
<g id="node5" class="node"><title>Node5</title>
<g id="a_node5"><a xlink:href="classElmerFoamFSI_1_1TestingObject_aa7d577bcec96bb12da930ede076b6023.html#aa7d577bcec96bb12da930ede076b6023" target="_top" xlink:title="Test for fluidAgent&#45;&gt;Run() function. ">
<polygon fill="none" stroke="black" points="204.5,-98 204.5,-128 353.5,-128 353.5,-98 204.5,-98"/>
<text text-anchor="start" x="212.5" y="-116" font-family="Helvetica,sans-Serif" font-size="10.00">ElmerFoamFSI::TestingObject</text>
<text text-anchor="middle" x="279" y="-105" font-family="Helvetica,sans-Serif" font-size="10.00">::Test__FluidAgentRun</text>
</a>
</g>
</g>
<!-- Node1&#45;&gt;Node5 -->
<g id="edge4" class="edge"><title>Node1&#45;&gt;Node5</title>
<path fill="none" stroke="midnightblue" d="M160.124,-113C174.781,-113 189.926,-113 204.276,-113"/>
<polygon fill="midnightblue" stroke="midnightblue" points="160.07,-109.5 150.07,-113 160.07,-116.5 160.07,-109.5"/>
</g>
<!-- Node11 -->
<g id="node11" class="node"><title>Node11</title>
<g id="a_node11"><a xlink:href="classElmerFoamFSI_1_1TestingObject_a1fae1ccecf337df1572d5a43cdae1a08.html#a1fae1ccecf337df1572d5a43cdae1a08" target="_top" xlink:title="Test for solidAgent&#45;&gt;Run() function. ">
<polygon fill="none" stroke="black" points="204.5,-49 204.5,-79 353.5,-79 353.5,-49 204.5,-49"/>
<text text-anchor="start" x="212.5" y="-67" font-family="Helvetica,sans-Serif" font-size="10.00">ElmerFoamFSI::TestingObject</text>
<text text-anchor="middle" x="279" y="-56" font-family="Helvetica,sans-Serif" font-size="10.00">::Test__SolidAgentRun</text>
</a>
</g>
</g>
<!-- Node1&#45;&gt;Node11 -->
<g id="edge11" class="edge"><title>Node1&#45;&gt;Node11</title>
<path fill="none" stroke="midnightblue" d="M125.168,-101.073C152.521,-94.438 186.832,-86.1149 216.011,-79.037"/>
<polygon fill="midnightblue" stroke="midnightblue" points="124.32,-97.6772 115.427,-103.436 125.97,-104.48 124.32,-97.6772"/>
</g>
<!-- Node12 -->
<g id="node12" class="node"><title>Node12</title>
<g id="a_node12"><a xlink:href="classElmerFoamFSI_1_1TestingObject_abb3c0f68a2d2e212fa6e05e4628c78f0.html#abb3c0f68a2d2e212fa6e05e4628c78f0" target="_top" xlink:title="Test for fsiCoupling::TrasferDisplacementsToFluid function. ">
<polygon fill="none" stroke="black" points="186,-0 186,-30 372,-30 372,-0 186,-0"/>
<text text-anchor="start" x="194" y="-18" font-family="Helvetica,sans-Serif" font-size="10.00">ElmerFoamFSI::TestingObject</text>
<text text-anchor="middle" x="279" y="-7" font-family="Helvetica,sans-Serif" font-size="10.00">::Test__TransferDisplacementsToFluid</text>
</a>
</g>
</g>
<!-- Node1&#45;&gt;Node12 -->
<g id="edge14" class="edge"><title>Node1&#45;&gt;Node12</title>
<path fill="none" stroke="midnightblue" d="M95.2787,-97.0504C116.351,-80.3577 151.7,-54.4691 186,-39 193.524,-35.6069 201.618,-32.6236 209.773,-30.0196"/>
<polygon fill="midnightblue" stroke="midnightblue" points="93.017,-94.3779 87.4222,-103.375 97.4066,-99.8307 93.017,-94.3779"/>
</g>
<!-- Node13 -->
<g id="node13" class="node"><title>Node13</title>
<g id="a_node13"><a xlink:href="classElmerFoamFSI_1_1TestingObject_a8c738943eca358248eb583bd29c5c332.html#a8c738943eca358248eb583bd29c5c332" target="_top" xlink:title="Test for TransferLoadsToStructures() function. ">
<polygon fill="none" stroke="black" points="193.5,-147 193.5,-177 364.5,-177 364.5,-147 193.5,-147"/>
<text text-anchor="start" x="201.5" y="-165" font-family="Helvetica,sans-Serif" font-size="10.00">ElmerFoamFSI::TestingObject</text>
<text text-anchor="middle" x="279" y="-154" font-family="Helvetica,sans-Serif" font-size="10.00">::Test__TransferLoadsToStructures</text>
</a>
</g>
</g>
<!-- Node1&#45;&gt;Node13 -->
<g id="edge17" class="edge"><title>Node1&#45;&gt;Node13</title>
<path fill="none" stroke="midnightblue" d="M125.168,-124.927C152.521,-131.562 186.832,-139.885 216.011,-146.963"/>
<polygon fill="midnightblue" stroke="midnightblue" points="125.97,-121.52 115.427,-122.564 124.32,-128.323 125.97,-121.52"/>
</g>
<!-- Node3 -->
<g id="node3" class="node"><title>Node3</title>
<g id="a_node3"><a xlink:href="classElmerFoamFSI_1_1SerialDriverProgram_a5803949d99491a7186bf1ee9cee81a3b.html#a5803949d99491a7186bf1ee9cee81a3b" target="_top" xlink:title="This function implements the main function executed by the program. ">
<polygon fill="none" stroke="black" points="413,-191 413,-221 553,-221 553,-191 413,-191"/>
<text text-anchor="start" x="421" y="-209" font-family="Helvetica,sans-Serif" font-size="10.00">ElmerFoamFSI::SerialDriver</text>
<text text-anchor="middle" x="483" y="-198" font-family="Helvetica,sans-Serif" font-size="10.00">Program::DriverRun</text>
</a>
</g>
</g>
<!-- Node2&#45;&gt;Node3 -->
<g id="edge2" class="edge"><title>Node2&#45;&gt;Node3</title>
<path fill="none" stroke="midnightblue" d="M306.719,-206C333.685,-206 376.449,-206 412.986,-206"/>
<polygon fill="midnightblue" stroke="midnightblue" points="306.531,-202.5 296.531,-206 306.53,-209.5 306.531,-202.5"/>
</g>
<!-- Node4 -->
<g id="node4" class="node"><title>Node4</title>
<g id="a_node4"><a xlink:href="namespaceElmerFoamFSI_aff46f457934a8e2d3712bdbfb1688e99.html#aff46f457934a8e2d3712bdbfb1688e99" target="_top" xlink:title="Unified driver for the example programs. ">
<polygon fill="none" stroke="black" points="611.5,-196.5 611.5,-215.5 726.5,-215.5 726.5,-196.5 611.5,-196.5"/>
<text text-anchor="middle" x="669" y="-203.5" font-family="Helvetica,sans-Serif" font-size="10.00">ElmerFoamFSI::Driver</text>
</a>
</g>
</g>
<!-- Node3&#45;&gt;Node4 -->
<g id="edge3" class="edge"><title>Node3&#45;&gt;Node4</title>
<path fill="none" stroke="midnightblue" d="M563.085,-206C579.364,-206 596.193,-206 611.48,-206"/>
<polygon fill="midnightblue" stroke="midnightblue" points="563.038,-202.5 553.038,-206 563.038,-209.5 563.038,-202.5"/>
</g>
<!-- Node6 -->
<g id="node6" class="node"><title>Node6</title>
<g id="a_node6"><a xlink:href="classElmerFoamFSI_1_1TestingObject_a046f7ab06db0acf616b0d2bf3d3146aa.html#a046f7ab06db0acf616b0d2bf3d3146aa" target="_top" xlink:title="Runs all tests implemented by the ElmerFoamFSI::TestingObject. ">
<polygon fill="none" stroke="black" points="408.5,-49 408.5,-79 557.5,-79 557.5,-49 408.5,-49"/>
<text text-anchor="start" x="416.5" y="-67" font-family="Helvetica,sans-Serif" font-size="10.00">ElmerFoamFSI::TestingObject</text>
<text text-anchor="middle" x="483" y="-56" font-family="Helvetica,sans-Serif" font-size="10.00">::Process</text>
</a>
</g>
</g>
<!-- Node5&#45;&gt;Node6 -->
<g id="edge5" class="edge"><title>Node5&#45;&gt;Node6</title>
<path fill="none" stroke="midnightblue" d="M351.746,-95.5962C374.092,-90.1757 398.529,-84.248 420.138,-79.0062"/>
<polygon fill="midnightblue" stroke="midnightblue" points="350.872,-92.2066 341.979,-97.9654 352.523,-99.0093 350.872,-92.2066"/>
</g>
<!-- Node9 -->
<g id="node9" class="node"><title>Node9</title>
<g id="a_node9"><a xlink:href="classElmerFoamFSI_1_1TestingObject_af1f07f14b9af7708e4264bb38937eed2.html#af1f07f14b9af7708e4264bb38937eed2" target="_top" xlink:title="Runs a test specified by name. ">
<polygon fill="none" stroke="black" points="408.5,-98 408.5,-128 557.5,-128 557.5,-98 408.5,-98"/>
<text text-anchor="start" x="416.5" y="-116" font-family="Helvetica,sans-Serif" font-size="10.00">ElmerFoamFSI::TestingObject</text>
<text text-anchor="middle" x="483" y="-105" font-family="Helvetica,sans-Serif" font-size="10.00">::RunTest</text>
</a>
</g>
</g>
<!-- Node5&#45;&gt;Node9 -->
<g id="edge8" class="edge"><title>Node5&#45;&gt;Node9</title>
<path fill="none" stroke="midnightblue" d="M363.913,-113C378.683,-113 393.955,-113 408.416,-113"/>
<polygon fill="midnightblue" stroke="midnightblue" points="363.784,-109.5 353.784,-113 363.784,-116.5 363.784,-109.5"/>
</g>
<!-- Node7 -->
<g id="node7" class="node"><title>Node7</title>
<g id="a_node7"><a xlink:href="namespaceElmerFoamFSI_aeb590657609088b8ab12a5cbd164fcfa.html#aeb590657609088b8ab12a5cbd164fcfa" target="_top" xlink:title="Drives the ElmerFoamFSI::TestObject. ">
<polygon fill="none" stroke="black" points="615,-57.5 615,-76.5 723,-76.5 723,-57.5 615,-57.5"/>
<text text-anchor="middle" x="669" y="-64.5" font-family="Helvetica,sans-Serif" font-size="10.00">ElmerFoamFSI::Test</text>
</a>
</g>
</g>
<!-- Node6&#45;&gt;Node7 -->
<g id="edge6" class="edge"><title>Node6&#45;&gt;Node7</title>
<path fill="none" stroke="midnightblue" d="M567.963,-65.369C583.966,-65.6299 600.296,-65.8961 614.996,-66.1358"/>
<polygon fill="midnightblue" stroke="midnightblue" points="567.571,-61.8622 557.515,-65.1986 567.457,-68.8613 567.571,-61.8622"/>
</g>
<!-- Node8 -->
<g id="node8" class="node"><title>Node8</title>
<g id="a_node8"><a xlink:href="TestElmerFoamFSI_8C_a0ddf1224851353fc92bfbff6f499fa97.html#a0ddf1224851353fc92bfbff6f499fa97" target="_top" xlink:title="main">
<polygon fill="none" stroke="black" points="780,-57.5 780,-76.5 818,-76.5 818,-57.5 780,-57.5"/>
<text text-anchor="middle" x="799" y="-64.5" font-family="Helvetica,sans-Serif" font-size="10.00">main</text>
</a>
</g>
</g>
<!-- Node7&#45;&gt;Node8 -->
<g id="edge7" class="edge"><title>Node7&#45;&gt;Node8</title>
<path fill="none" stroke="midnightblue" d="M733.193,-67C750.293,-67 767.469,-67 779.838,-67"/>
<polygon fill="midnightblue" stroke="midnightblue" points="733.172,-63.5001 723.172,-67 733.171,-70.5001 733.172,-63.5001"/>
</g>
<!-- Node10 -->
<g id="node10" class="node"><title>Node10</title>
<g id="a_node10"><a xlink:href="classElmerFoamFSI_1_1TestingObject_a21159bd2efac623e5a5079f6a20f3444.html#a21159bd2efac623e5a5079f6a20f3444" target="_top" xlink:title="Runs a list of tests specified by name. ">
<polygon fill="none" stroke="black" points="594.5,-98 594.5,-128 743.5,-128 743.5,-98 594.5,-98"/>
<text text-anchor="start" x="602.5" y="-116" font-family="Helvetica,sans-Serif" font-size="10.00">ElmerFoamFSI::TestingObject</text>
<text text-anchor="middle" x="669" y="-105" font-family="Helvetica,sans-Serif" font-size="10.00">::ProcessTests</text>
</a>
</g>
</g>
<!-- Node9&#45;&gt;Node10 -->
<g id="edge9" class="edge"><title>Node9&#45;&gt;Node10</title>
<path fill="none" stroke="midnightblue" d="M567.533,-113C576.462,-113 585.498,-113 594.302,-113"/>
<polygon fill="midnightblue" stroke="midnightblue" points="567.515,-109.5 557.515,-113 567.515,-116.5 567.515,-109.5"/>
</g>
<!-- Node9&#45;&gt;Node7 -->
<g id="edge10" class="edge"><title>Node9&#45;&gt;Node7</title>
<path fill="none" stroke="midnightblue" d="M553.986,-95.5034C579.754,-89.0614 607.97,-82.0075 629.886,-76.5286"/>
<polygon fill="midnightblue" stroke="midnightblue" points="553.101,-92.1169 544.248,-97.9379 554.799,-98.9079 553.101,-92.1169"/>
</g>
<!-- Node11&#45;&gt;Node6 -->
<g id="edge12" class="edge"><title>Node11&#45;&gt;Node6</title>
<path fill="none" stroke="midnightblue" d="M363.913,-64C378.683,-64 393.955,-64 408.416,-64"/>
<polygon fill="midnightblue" stroke="midnightblue" points="363.784,-60.5001 353.784,-64 363.784,-67.5001 363.784,-60.5001"/>
</g>
<!-- Node11&#45;&gt;Node9 -->
<g id="edge13" class="edge"><title>Node11&#45;&gt;Node9</title>
<path fill="none" stroke="midnightblue" d="M351.746,-81.4038C374.092,-86.8243 398.529,-92.752 420.138,-97.9938"/>
<polygon fill="midnightblue" stroke="midnightblue" points="352.523,-77.9907 341.979,-79.0346 350.872,-84.7934 352.523,-77.9907"/>
</g>
<!-- Node12&#45;&gt;Node6 -->
<g id="edge15" class="edge"><title>Node12&#45;&gt;Node6</title>
<path fill="none" stroke="midnightblue" d="M351.746,-32.4038C374.092,-37.8243 398.529,-43.752 420.138,-48.9938"/>
<polygon fill="midnightblue" stroke="midnightblue" points="352.523,-28.9907 341.979,-30.0346 350.872,-35.7934 352.523,-28.9907"/>
</g>
<!-- Node12&#45;&gt;Node9 -->
<g id="edge16" class="edge"><title>Node12&#45;&gt;Node9</title>
<path fill="none" stroke="midnightblue" d="M364.868,-34.6336C367.325,-35.9928 369.71,-37.4461 372,-39 394.362,-54.1732 386.188,-72.0469 408,-88 413.254,-91.8426 419.139,-95.1231 425.234,-97.9172"/>
<polygon fill="midnightblue" stroke="midnightblue" points="366.211,-31.3937 355.694,-30.1121 363.117,-37.6725 366.211,-31.3937"/>
</g>
<!-- Node13&#45;&gt;Node6 -->
<g id="edge18" class="edge"><title>Node13&#45;&gt;Node6</title>
<path fill="none" stroke="midnightblue" d="M362.936,-142.481C366.078,-140.802 369.115,-138.979 372,-137 394.284,-121.714 386.091,-103.82 408,-88 412.708,-84.6002 417.923,-81.6653 423.341,-79.1352"/>
<polygon fill="midnightblue" stroke="midnightblue" points="361.341,-139.364 353.835,-146.841 364.366,-145.677 361.341,-139.364"/>
</g>
<!-- Node13&#45;&gt;Node9 -->
<g id="edge19" class="edge"><title>Node13&#45;&gt;Node9</title>
<path fill="none" stroke="midnightblue" d="M351.746,-144.596C374.092,-139.176 398.529,-133.248 420.138,-128.006"/>
<polygon fill="midnightblue" stroke="midnightblue" points="350.872,-141.207 341.979,-146.965 352.523,-148.009 350.872,-141.207"/>
</g>
</g>
</svg>
