<?xml version="1.0" encoding="UTF-8" standalone="no"?>
<!DOCTYPE svg PUBLIC "-//W3C//DTD SVG 1.1//EN"
 "http://www.w3.org/Graphics/SVG/1.1/DTD/svg11.dtd">
<!-- Generated by graphviz version 2.30.1 (20150305.2338)
 -->
<!-- Title: C3Facet Pages: 1 -->
<svg width="138pt" height="154pt"
 viewBox="0.00 0.00 138.00 154.00" xmlns="http://www.w3.org/2000/svg" xmlns:xlink="http://www.w3.org/1999/xlink">
<g id="graph0" class="graph" transform="scale(1 1) rotate(0) translate(4 150)">
<title>C3Facet</title>
<!-- Node1 -->
<g id="node1" class="node"><title>Node1</title>
<polygon fill="#bfbfbf" stroke="black" points="38,-0.5 38,-19.5 92,-19.5 92,-0.5 38,-0.5"/>
<text text-anchor="middle" x="65" y="-7.5" font-family="Helvetica,sans-Serif" font-size="10.00">C3Facet</text>
</g>
<!-- Node2 -->
<g id="node2" class="node"><title>Node2</title>
<g id="a_node2"><a xlink:title="STL class. ">
<polygon fill="none" stroke="#bfbfbf" points="-0.5,-58.5 -0.5,-77.5 130.5,-77.5 130.5,-58.5 -0.5,-58.5"/>
<text text-anchor="middle" x="65" y="-65.5" font-family="Helvetica,sans-Serif" font-size="10.00">vector&lt; const C3Point * &gt;</text>
</a>
</g>
</g>
<!-- Node2&#45;&gt;Node1 -->
<g id="edge1" class="edge"><title>Node2&#45;&gt;Node1</title>
<path fill="none" stroke="midnightblue" d="M65,-47.953C65,-38.2875 65,-27.0312 65,-19.5052"/>
<polygon fill="midnightblue" stroke="midnightblue" points="61.5001,-48.25 65,-58.25 68.5001,-48.25 61.5001,-48.25"/>
</g>
<!-- Node3 -->
<g id="node3" class="node"><title>Node3</title>
<polygon fill="none" stroke="#bfbfbf" points="50.5,-126.5 50.5,-145.5 79.5,-145.5 79.5,-126.5 50.5,-126.5"/>
<text text-anchor="middle" x="65" y="-133.5" font-family="Helvetica,sans-Serif" font-size="10.00">T</text>
</g>
<!-- Node3&#45;&gt;Node2 -->
<g id="edge2" class="edge"><title>Node3&#45;&gt;Node2</title>
<path fill="none" stroke="#9a32cd" stroke-dasharray="5,2" d="M65,-116.041C65,-103.472 65,-87.5631 65,-77.8411"/>
<polygon fill="#9a32cd" stroke="#9a32cd" points="61.5001,-116.372 65,-126.372 68.5001,-116.372 61.5001,-116.372"/>
<text text-anchor="middle" x="86.5" y="-99.5" font-family="Helvetica,sans-Serif" font-size="10.00"> elements</text>
</g>
</g>
</svg>
