<?xml version="1.0" encoding="UTF-8" standalone="no"?>
<!DOCTYPE svg PUBLIC "-//W3C//DTD SVG 1.1//EN"
 "http://www.w3.org/Graphics/SVG/1.1/DTD/svg11.dtd">
<!-- Generated by graphviz version 2.30.1 (20150305.2338)
 -->
<!-- Title: NC Pages: 1 -->
<svg width="256pt" height="28pt"
 viewBox="0.00 0.00 256.00 28.00" xmlns="http://www.w3.org/2000/svg" xmlns:xlink="http://www.w3.org/1999/xlink">
<g id="graph0" class="graph" transform="scale(1 1) rotate(0) translate(4 24)">
<title>NC</title>
<!-- Node1 -->
<g id="node1" class="node"><title>Node1</title>
<polygon fill="#bfbfbf" stroke="black" points="0,-0.5 0,-19.5 32,-19.5 32,-0.5 0,-0.5"/>
<text text-anchor="middle" x="16" y="-7.5" font-family="Helvetica,sans-Serif" font-size="10.00">NC</text>
</g>
<!-- Node2 -->
<g id="node2" class="node"><title>Node2</title>
<g id="a_node2"><a xlink:href="classSolverUtils_1_1Mesh_1_1MeshUtilityObject_a690d9694fadce78f040760ee34d5a0fa.html#a690d9694fadce78f040760ee34d5a0fa" target="_top" xlink:title="FormConnectivity">
<polygon fill="none" stroke="black" points="68,-0.5 68,-19.5 162,-19.5 162,-0.5 68,-0.5"/>
<text text-anchor="middle" x="115" y="-7.5" font-family="Helvetica,sans-Serif" font-size="10.00">FormConnectivity</text>
</a>
</g>
</g>
<!-- Node1&#45;&gt;Node2 -->
<g id="edge1" class="edge"><title>Node1&#45;&gt;Node2</title>
<path fill="none" stroke="midnightblue" d="M42.4153,-10C50.2513,-10 59.1358,-10 67.9146,-10"/>
<polygon fill="midnightblue" stroke="midnightblue" points="42.1563,-6.5001 32.1562,-10 42.1562,-13.5001 42.1563,-6.5001"/>
</g>
<!-- Node3 -->
<g id="node3" class="node"><title>Node3</title>
<g id="a_node3"><a xlink:href="classSolverUtils_1_1Mesh_1_1MeshUtilityObject_a7da73d5c19d1f188ce5f3badea22175d.html#a7da73d5c19d1f188ce5f3badea22175d" target="_top" xlink:title="GetCon">
<polygon fill="none" stroke="black" points="198,-0.5 198,-19.5 248,-19.5 248,-0.5 198,-0.5"/>
<text text-anchor="middle" x="223" y="-7.5" font-family="Helvetica,sans-Serif" font-size="10.00">GetCon</text>
</a>
</g>
</g>
<!-- Node2&#45;&gt;Node3 -->
<g id="edge2" class="edge"><title>Node2&#45;&gt;Node3</title>
<path fill="none" stroke="midnightblue" d="M172.309,-10C181.278,-10 190.12,-10 197.802,-10"/>
<polygon fill="midnightblue" stroke="midnightblue" points="172.185,-6.5001 162.185,-10 172.185,-13.5001 172.185,-6.5001"/>
</g>
</g>
</svg>
