<?xml version="1.0" encoding="UTF-8" standalone="no"?>
<!DOCTYPE svg PUBLIC "-//W3C//DTD SVG 1.1//EN"
 "http://www.w3.org/Graphics/SVG/1.1/DTD/svg11.dtd">
<!-- Generated by graphviz version 2.30.1 (20150305.2338)
 -->
<!-- Title: Process Pages: 1 -->
<svg width="774pt" height="930pt"
 viewBox="0.00 0.00 774.00 930.00" xmlns="http://www.w3.org/2000/svg" xmlns:xlink="http://www.w3.org/1999/xlink">
<g id="graph0" class="graph" transform="scale(1 1) rotate(0) translate(4 926)">
<title>Process</title>
<!-- Node1 -->
<g id="node1" class="node"><title>Node1</title>
<polygon fill="#bfbfbf" stroke="black" points="0.5,-554.5 0.5,-573.5 53.5,-573.5 53.5,-554.5 0.5,-554.5"/>
<text text-anchor="middle" x="27" y="-561.5" font-family="Helvetica,sans-Serif" font-size="10.00">Process</text>
</g>
<!-- Node2 -->
<g id="node2" class="node"><title>Node2</title>
<g id="a_node2"><a xlink:href="classOpenFoamModuleDriver_1_1TestingObject_aa25f45634aafbb580d94840ad8452745.html#aa25f45634aafbb580d94840ad8452745" target="_top" xlink:title="Tears down the testing fixtures if needed. ">
<polygon fill="none" stroke="black" points="141,-836.5 141,-855.5 195,-855.5 195,-836.5 141,-836.5"/>
<text text-anchor="middle" x="168" y="-843.5" font-family="Helvetica,sans-Serif" font-size="10.00">Epilogue</text>
</a>
</g>
</g>
<!-- Node1&#45;&gt;Node2 -->
<g id="edge1" class="edge"><title>Node1&#45;&gt;Node2</title>
<path fill="none" stroke="midnightblue" d="M28.9317,-573.55C33.2917,-616.304 53.0419,-789.655 90,-827 100.599,-837.71 116.208,-842.736 130.606,-844.979"/>
<polygon fill="midnightblue" stroke="midnightblue" points="130.45,-848.485 140.787,-846.163 131.259,-841.532 130.45,-848.485"/>
</g>
<!-- Node3 -->
<g id="node3" class="node"><title>Node3</title>
<g id="a_node3"><a xlink:href="classOpenFoamModuleDriver_1_1TestingObject_aa3cdb6d60e9d9834c19efaab0b044421.html#aa3cdb6d60e9d9834c19efaab0b044421" target="_top" xlink:title="Sets up the data fixtures for the tests. ">
<polygon fill="none" stroke="black" points="140.5,-798.5 140.5,-817.5 195.5,-817.5 195.5,-798.5 140.5,-798.5"/>
<text text-anchor="middle" x="168" y="-805.5" font-family="Helvetica,sans-Serif" font-size="10.00">Prologue</text>
</a>
</g>
</g>
<!-- Node1&#45;&gt;Node3 -->
<g id="edge2" class="edge"><title>Node1&#45;&gt;Node3</title>
<path fill="none" stroke="midnightblue" d="M27.4916,-573.805C26.2549,-608.647 26.9952,-727.671 90,-789 100.639,-799.356 115.976,-804.359 130.167,-806.681"/>
<polygon fill="midnightblue" stroke="midnightblue" points="129.856,-810.169 140.213,-807.936 130.724,-803.223 129.856,-810.169"/>
</g>
<!-- Node4 -->
<g id="node4" class="node"><title>Node4</title>
<g id="a_node4"><a xlink:href="classOpenFoamModuleDriver_1_1TestingObject_a8e78f570bb5d2e3da7b24e8e106584df.html#a8e78f570bb5d2e3da7b24e8e106584df" target="_top" xlink:title="Test__LoadUnitTestData">
<polygon fill="none" stroke="black" points="105,-760.5 105,-779.5 231,-779.5 231,-760.5 105,-760.5"/>
<text text-anchor="middle" x="168" y="-767.5" font-family="Helvetica,sans-Serif" font-size="10.00">Test__LoadUnitTestData</text>
</a>
</g>
</g>
<!-- Node1&#45;&gt;Node4 -->
<g id="edge3" class="edge"><title>Node1&#45;&gt;Node4</title>
<path fill="none" stroke="midnightblue" d="M34.5178,-573.66C56.1742,-605.755 125.973,-709.198 154.588,-751.605"/>
<polygon fill="midnightblue" stroke="midnightblue" points="151.84,-753.79 160.335,-760.122 157.642,-749.875 151.84,-753.79"/>
</g>
<!-- Node13 -->
<g id="node13" class="node"><title>Node13</title>
<g id="a_node13"><a xlink:href="classOpenFoamModuleDriver_1_1TestingObject_acd776bc91073ed46c42a02152ffd3a6d.html#acd776bc91073ed46c42a02152ffd3a6d" target="_top" xlink:title="Test__ModuleFunctionInitialize">
<polygon fill="none" stroke="black" points="92,-576.5 92,-595.5 244,-595.5 244,-576.5 92,-576.5"/>
<text text-anchor="middle" x="168" y="-583.5" font-family="Helvetica,sans-Serif" font-size="10.00">Test__ModuleFunctionInitialize</text>
</a>
</g>
</g>
<!-- Node1&#45;&gt;Node13 -->
<g id="edge15" class="edge"><title>Node1&#45;&gt;Node13</title>
<path fill="none" stroke="midnightblue" d="M53.8191,-568.086C66.0558,-570.023 81.3306,-572.441 96.66,-574.867"/>
<polygon fill="midnightblue" stroke="midnightblue" points="96.2858,-578.351 106.71,-576.458 97.3802,-571.437 96.2858,-578.351"/>
</g>
<!-- Node22 -->
<g id="node22" class="node"><title>Node22</title>
<g id="a_node22"><a xlink:href="classOpenFoamModuleDriver_1_1TestingObject_a06be0e9e75586dee0ba11c110a2b5863.html#a06be0e9e75586dee0ba11c110a2b5863" target="_top" xlink:title="Test__ModuleFunctionStep\lFluid">
<polygon fill="none" stroke="black" points="100,-527 100,-557 236,-557 236,-527 100,-527"/>
<text text-anchor="start" x="108" y="-545" font-family="Helvetica,sans-Serif" font-size="10.00">Test__ModuleFunctionStep</text>
<text text-anchor="middle" x="168" y="-534" font-family="Helvetica,sans-Serif" font-size="10.00">Fluid</text>
</a>
</g>
</g>
<!-- Node1&#45;&gt;Node22 -->
<g id="edge28" class="edge"><title>Node1&#45;&gt;Node22</title>
<path fill="none" stroke="midnightblue" d="M53.8191,-559.914C64.2672,-558.26 76.9302,-556.256 89.9509,-554.195"/>
<polygon fill="midnightblue" stroke="midnightblue" points="90.617,-557.633 99.9469,-552.613 89.5227,-550.719 90.617,-557.633"/>
</g>
<!-- Node25 -->
<g id="node25" class="node"><title>Node25</title>
<g id="a_node25"><a xlink:href="classOpenFoamModuleDriver_1_1TestingObject_a77a1d9a76340e835e6a4f6c9428f8796.html#a77a1d9a76340e835e6a4f6c9428f8796" target="_top" xlink:title="Test__ModuleLoadUnload">
<polygon fill="none" stroke="black" points="103,-152.5 103,-171.5 233,-171.5 233,-152.5 103,-152.5"/>
<text text-anchor="middle" x="168" y="-159.5" font-family="Helvetica,sans-Serif" font-size="10.00">Test__ModuleLoadUnload</text>
</a>
</g>
</g>
<!-- Node1&#45;&gt;Node25 -->
<g id="edge39" class="edge"><title>Node1&#45;&gt;Node25</title>
<path fill="none" stroke="midnightblue" d="M29.1589,-554.403C33.6604,-518.922 51.6682,-392.192 90,-295 107.186,-251.423 137.016,-205.061 154.064,-180.231"/>
<polygon fill="midnightblue" stroke="midnightblue" points="157.078,-182.027 159.918,-171.82 151.333,-178.028 157.078,-182.027"/>
</g>
<!-- Node28 -->
<g id="node28" class="node"><title>Node28</title>
<g id="a_node28"><a xlink:href="classOpenFoamModuleDriver_1_1TestingObject_a8e6b96ff06b7c7dce865d4f5518b535e.html#a8e6b96ff06b7c7dce865d4f5518b535e" target="_top" xlink:title="Test__ModuleMeshRegistration">
<polygon fill="none" stroke="black" points="90.5,-304.5 90.5,-323.5 245.5,-323.5 245.5,-304.5 90.5,-304.5"/>
<text text-anchor="middle" x="168" y="-311.5" font-family="Helvetica,sans-Serif" font-size="10.00">Test__ModuleMeshRegistration</text>
</a>
</g>
</g>
<!-- Node1&#45;&gt;Node28 -->
<g id="edge43" class="edge"><title>Node1&#45;&gt;Node28</title>
<path fill="none" stroke="midnightblue" d="M33.0217,-554.226C43.4192,-534.057 68.16,-486.41 90,-447 112.935,-405.614 141.046,-357.741 156.155,-332.23"/>
<polygon fill="midnightblue" stroke="midnightblue" points="159.178,-333.994 161.271,-323.608 153.158,-330.422 159.178,-333.994"/>
</g>
<!-- Node39 -->
<g id="node39" class="node"><title>Node39</title>
<g id="a_node39"><a xlink:href="classOpenFoamModuleDriver_1_1TestingObject_ad1aa2004b83b4520a22c3f62e7c219c5.html#ad1aa2004b83b4520a22c3f62e7c219c5" target="_top" xlink:title="Test__ModuleSurfaceData">
<polygon fill="none" stroke="black" points="101.5,-456.5 101.5,-475.5 234.5,-475.5 234.5,-456.5 101.5,-456.5"/>
<text text-anchor="middle" x="168" y="-463.5" font-family="Helvetica,sans-Serif" font-size="10.00">Test__ModuleSurfaceData</text>
</a>
</g>
</g>
<!-- Node1&#45;&gt;Node39 -->
<g id="edge66" class="edge"><title>Node1&#45;&gt;Node39</title>
<path fill="none" stroke="midnightblue" d="M40.18,-554.403C52.5596,-544.735 72.3711,-529.501 90,-517 107.713,-504.44 128.233,-490.896 143.633,-480.925"/>
<polygon fill="midnightblue" stroke="midnightblue" points="145.54,-483.86 152.05,-475.501 141.748,-477.976 145.54,-483.86"/>
</g>
<!-- Node5 -->
<g id="node5" class="node"><title>Node5</title>
<g id="a_node5"><a xlink:href="namespaceIRAD_1_1Sys_afe7cbdace3dec046da8a36d08578610d.html#afe7cbdace3dec046da8a36d08578610d" target="_top" xlink:title="IRAD::Sys::ChDir">
<polygon fill="none" stroke="black" points="472,-627.5 472,-646.5 568,-646.5 568,-627.5 472,-627.5"/>
<text text-anchor="middle" x="520" y="-634.5" font-family="Helvetica,sans-Serif" font-size="10.00">IRAD::Sys::ChDir</text>
</a>
</g>
</g>
<!-- Node4&#45;&gt;Node5 -->
<g id="edge4" class="edge"><title>Node4&#45;&gt;Node5</title>
<path fill="none" stroke="midnightblue" d="M194.171,-760.435C255.572,-737.103 413.167,-677.216 483.816,-650.37"/>
<polygon fill="midnightblue" stroke="midnightblue" points="485.482,-653.481 493.587,-646.657 482.996,-646.938 485.482,-653.481"/>
</g>
<!-- Node6 -->
<g id="node6" class="node"><title>Node6</title>
<g id="a_node6"><a xlink:href="namespaceIRAD_1_1Sys_afae3306c1aef8273c2fd074f4f5c4fe6.html#afae3306c1aef8273c2fd074f4f5c4fe6" target="_top" xlink:title="IRAD::Sys::CWD">
<polygon fill="none" stroke="black" points="472.5,-690.5 472.5,-709.5 567.5,-709.5 567.5,-690.5 472.5,-690.5"/>
<text text-anchor="middle" x="520" y="-697.5" font-family="Helvetica,sans-Serif" font-size="10.00">IRAD::Sys::CWD</text>
</a>
</g>
</g>
<!-- Node4&#45;&gt;Node6 -->
<g id="edge5" class="edge"><title>Node4&#45;&gt;Node6</title>
<path fill="none" stroke="midnightblue" d="M226.672,-779.522C288.456,-788.634 381.96,-798.962 414,-784 436.583,-773.454 431.017,-757.151 450,-741 462.127,-730.682 477.175,-721.407 490.12,-714.299"/>
<polygon fill="midnightblue" stroke="midnightblue" points="491.917,-717.308 499.103,-709.522 488.63,-711.127 491.917,-717.308"/>
</g>
<!-- Node7 -->
<g id="node7" class="node"><title>Node7</title>
<g id="a_node7"><a xlink:href="namespaceIRAD_1_1Sys_a64439af6e8939be5517df918e2ecea36.html#a64439af6e8939be5517df918e2ecea36" target="_top" xlink:title="IRAD::Sys::FILEEXISTS">
<polygon fill="none" stroke="black" points="456,-902.5 456,-921.5 584,-921.5 584,-902.5 456,-902.5"/>
<text text-anchor="middle" x="520" y="-909.5" font-family="Helvetica,sans-Serif" font-size="10.00">IRAD::Sys::FILEEXISTS</text>
</a>
</g>
</g>
<!-- Node4&#45;&gt;Node7 -->
<g id="edge6" class="edge"><title>Node4&#45;&gt;Node7</title>
<path fill="none" stroke="midnightblue" d="M230.307,-779.622C235.956,-782.089 241.309,-785.166 246,-789 274.94,-812.652 252.522,-842.022 282,-865 328.273,-901.068 394.726,-911.754 445.497,-914.027"/>
<polygon fill="midnightblue" stroke="midnightblue" points="445.641,-917.534 455.756,-914.382 445.883,-910.538 445.641,-917.534"/>
</g>
<!-- Node8 -->
<g id="node8" class="node"><title>Node8</title>
<g id="a_node8"><a xlink:href="classOpenFoamModuleDriver_1_1TestingObject_a90d21e92a2797915cd73e0cf48731a5c.html#a90d21e92a2797915cd73e0cf48731a5c" target="_top" xlink:title="Function to copy input data from source testing directory for use in unit tests. ">
<polygon fill="none" stroke="black" points="310.5,-836.5 310.5,-855.5 385.5,-855.5 385.5,-836.5 310.5,-836.5"/>
<text text-anchor="middle" x="348" y="-843.5" font-family="Helvetica,sans-Serif" font-size="10.00">GetInputData</text>
</a>
</g>
</g>
<!-- Node4&#45;&gt;Node8 -->
<g id="edge7" class="edge"><title>Node4&#45;&gt;Node8</title>
<path fill="none" stroke="midnightblue" d="M222.895,-779.621C230.89,-782.085 238.84,-785.163 246,-789 265.131,-799.252 263.471,-810.695 282,-822 288.787,-826.141 296.402,-829.743 303.966,-832.81"/>
<polygon fill="midnightblue" stroke="midnightblue" points="302.861,-836.134 313.452,-836.406 305.342,-829.588 302.861,-836.134"/>
</g>
<!-- Node8&#45;&gt;Node5 -->
<g id="edge8" class="edge"><title>Node8&#45;&gt;Node5</title>
<path fill="none" stroke="midnightblue" d="M362.251,-836.467C376.807,-825.368 399.973,-805.758 414,-784 440.276,-743.242 419.898,-719.02 450,-681 459.793,-668.631 474.074,-658.713 487.106,-651.448"/>
<polygon fill="midnightblue" stroke="midnightblue" points="489.062,-654.374 496.292,-646.629 485.811,-648.175 489.062,-654.374"/>
</g>
<!-- Node9 -->
<g id="node9" class="node"><title>Node9</title>
<g id="a_node9"><a xlink:href="namespaceIRAD_1_1Sys_a907ccb4be0eba55b76775c69712059ad.html#a907ccb4be0eba55b76775c69712059ad" target="_top" xlink:title="IRAD::Sys::CreateDirectory">
<polygon fill="none" stroke="black" points="450,-826.5 450,-845.5 590,-845.5 590,-826.5 450,-826.5"/>
<text text-anchor="middle" x="520" y="-833.5" font-family="Helvetica,sans-Serif" font-size="10.00">IRAD::Sys::CreateDirectory</text>
</a>
</g>
</g>
<!-- Node8&#45;&gt;Node9 -->
<g id="edge9" class="edge"><title>Node8&#45;&gt;Node9</title>
<path fill="none" stroke="midnightblue" d="M385.887,-843.83C401.781,-842.895 421.02,-841.764 439.872,-840.655"/>
<polygon fill="midnightblue" stroke="midnightblue" points="440.2,-844.141 449.977,-840.06 439.789,-837.154 440.2,-844.141"/>
</g>
<!-- Node8&#45;&gt;Node6 -->
<g id="edge10" class="edge"><title>Node8&#45;&gt;Node6</title>
<path fill="none" stroke="midnightblue" d="M385.584,-838.153C395.723,-834.569 406.102,-829.405 414,-822 442.741,-795.056 423.833,-770.45 450,-741 459.883,-729.877 473.526,-720.9 486.073,-714.214"/>
<polygon fill="midnightblue" stroke="midnightblue" points="488.004,-717.161 495.374,-709.549 484.866,-710.904 488.004,-717.161"/>
</g>
<!-- Node8&#45;&gt;Node7 -->
<g id="edge11" class="edge"><title>Node8&#45;&gt;Node7</title>
<path fill="none" stroke="midnightblue" d="M367.222,-855.609C387.151,-865.849 420.228,-882.061 450,-893 456.425,-895.361 463.281,-897.586 470.084,-899.623"/>
<polygon fill="midnightblue" stroke="midnightblue" points="469.379,-903.063 479.957,-902.469 471.318,-896.337 469.379,-903.063"/>
</g>
<!-- Node10 -->
<g id="node10" class="node"><title>Node10</title>
<g id="a_node10"><a xlink:href="namespaceIRAD_1_1Sys_a0bcb3bbe82c724ff589d3ec071e5a506.html#a0bcb3bbe82c724ff589d3ec071e5a506" target="_top" xlink:title="IRAD::Sys::ISDIR">
<polygon fill="none" stroke="black" points="471,-788.5 471,-807.5 569,-807.5 569,-788.5 471,-788.5"/>
<text text-anchor="middle" x="520" y="-795.5" font-family="Helvetica,sans-Serif" font-size="10.00">IRAD::Sys::ISDIR</text>
</a>
</g>
</g>
<!-- Node8&#45;&gt;Node10 -->
<g id="edge12" class="edge"><title>Node8&#45;&gt;Node10</title>
<path fill="none" stroke="midnightblue" d="M382.182,-836.374C401.876,-830.685 427.345,-823.371 450,-817 457.823,-814.8 466.153,-812.484 474.22,-810.254"/>
<polygon fill="midnightblue" stroke="midnightblue" points="475.167,-813.624 483.877,-807.592 473.307,-806.876 475.167,-813.624"/>
</g>
<!-- Node11 -->
<g id="node11" class="node"><title>Node11</title>
<g id="a_node11"><a xlink:href="namespaceIRAD_1_1Sys_a2d575706e1c0f851a9f9350d15ba4313.html#a2d575706e1c0f851a9f9350d15ba4313" target="_top" xlink:title="IRAD::Sys::ISLINK">
<polygon fill="none" stroke="black" points="468.5,-750.5 468.5,-769.5 571.5,-769.5 571.5,-750.5 468.5,-750.5"/>
<text text-anchor="middle" x="520" y="-757.5" font-family="Helvetica,sans-Serif" font-size="10.00">IRAD::Sys::ISLINK</text>
</a>
</g>
</g>
<!-- Node8&#45;&gt;Node11 -->
<g id="edge13" class="edge"><title>Node8&#45;&gt;Node11</title>
<path fill="none" stroke="midnightblue" d="M385.058,-836.435C394.961,-832.838 405.346,-828.097 414,-822 434.376,-807.645 429.033,-792.476 450,-779 453.315,-776.869 456.868,-774.975 460.549,-773.291"/>
<polygon fill="midnightblue" stroke="midnightblue" points="461.932,-776.507 469.9,-769.524 459.317,-770.014 461.932,-776.507"/>
</g>
<!-- Node12 -->
<g id="node12" class="node"><title>Node12</title>
<g id="a_node12"><a xlink:href="namespaceIRAD_1_1Sys_a05dbd3303c15001bdaeb27da8f5b7125.html#a05dbd3303c15001bdaeb27da8f5b7125" target="_top" xlink:title="IRAD::Sys::SymLink">
<polygon fill="none" stroke="black" points="465.5,-864.5 465.5,-883.5 574.5,-883.5 574.5,-864.5 465.5,-864.5"/>
<text text-anchor="middle" x="520" y="-871.5" font-family="Helvetica,sans-Serif" font-size="10.00">IRAD::Sys::SymLink</text>
</a>
</g>
</g>
<!-- Node8&#45;&gt;Node12 -->
<g id="edge14" class="edge"><title>Node8&#45;&gt;Node12</title>
<path fill="none" stroke="midnightblue" d="M385.887,-852.076C406.224,-855.425 432.039,-859.677 455.511,-863.543"/>
<polygon fill="midnightblue" stroke="midnightblue" points="454.968,-867.001 465.404,-865.172 456.106,-860.094 454.968,-867.001"/>
</g>
<!-- Node13&#45;&gt;Node5 -->
<g id="edge16" class="edge"><title>Node13&#45;&gt;Node5</title>
<path fill="none" stroke="midnightblue" d="M186.751,-595.618C208.477,-606.817 246.737,-624.711 282,-632 342.264,-644.458 412.985,-644.068 461.387,-641.589"/>
<polygon fill="midnightblue" stroke="midnightblue" points="461.879,-645.067 471.668,-641.014 461.488,-638.078 461.879,-645.067"/>
</g>
<!-- Node14 -->
<g id="node14" class="node"><title>Node14</title>
<g id="a_node14"><a xlink:href="com__c_09_09_8hpp_a6f9e4ea8f2cb977968964f4cb5a4b4f6.html#a6f9e4ea8f2cb977968964f4cb5a4b4f6" target="_top" xlink:title="COM_call_function">
<polygon fill="none" stroke="black" points="298,-532.5 298,-551.5 398,-551.5 398,-532.5 298,-532.5"/>
<text text-anchor="middle" x="348" y="-539.5" font-family="Helvetica,sans-Serif" font-size="10.00">COM_call_function</text>
</a>
</g>
</g>
<!-- Node13&#45;&gt;Node14 -->
<g id="edge17" class="edge"><title>Node13&#45;&gt;Node14</title>
<path fill="none" stroke="midnightblue" d="M207.623,-576.453C234.331,-569.851 270.063,-561.018 298.661,-553.949"/>
<polygon fill="midnightblue" stroke="midnightblue" points="299.584,-557.326 308.452,-551.529 297.904,-550.531 299.584,-557.326"/>
</g>
<!-- Node15 -->
<g id="node15" class="node"><title>Node15</title>
<g id="a_node15"><a xlink:href="com__c_8h_a6dd240c15a2b3e85d2d91cbe9eec6611.html#a6dd240c15a2b3e85d2d91cbe9eec6611" target="_top" xlink:title="Get the address for an dataitem on a specific pane. ">
<polygon fill="none" stroke="black" points="305,-494.5 305,-513.5 391,-513.5 391,-494.5 305,-494.5"/>
<text text-anchor="middle" x="348" y="-501.5" font-family="Helvetica,sans-Serif" font-size="10.00">COM_get_array</text>
</a>
</g>
</g>
<!-- Node13&#45;&gt;Node15 -->
<g id="edge18" class="edge"><title>Node13&#45;&gt;Node15</title>
<path fill="none" stroke="midnightblue" d="M223.38,-576.436C231.311,-573.766 239.113,-570.356 246,-566 267.065,-552.677 261.139,-536.64 282,-523 286.09,-520.326 290.565,-518.019 295.193,-516.031"/>
<polygon fill="midnightblue" stroke="midnightblue" points="296.718,-519.196 304.831,-512.382 294.239,-512.65 296.718,-519.196"/>
</g>
<!-- Node16 -->
<g id="node16" class="node"><title>Node16</title>
<g id="a_node16"><a xlink:href="com__c_09_09_8hpp_acbbf9749cce36d33b4c60c100bdfaea2.html#acbbf9749cce36d33b4c60c100bdfaea2" target="_top" xlink:title="COM_get_function_handle">
<polygon fill="none" stroke="black" points="282,-380.5 282,-399.5 414,-399.5 414,-380.5 282,-380.5"/>
<text text-anchor="middle" x="348" y="-387.5" font-family="Helvetica,sans-Serif" font-size="10.00">COM_get_function_handle</text>
</a>
</g>
</g>
<!-- Node13&#45;&gt;Node16 -->
<g id="edge19" class="edge"><title>Node13&#45;&gt;Node16</title>
<path fill="none" stroke="midnightblue" d="M228.88,-576.338C235.077,-573.671 240.944,-570.288 246,-566 276.046,-540.52 262.798,-519.399 282,-485 297.737,-456.808 319.5,-426.363 333.415,-407.736"/>
<polygon fill="midnightblue" stroke="midnightblue" points="336.322,-409.694 339.554,-399.604 330.735,-405.476 336.322,-409.694"/>
</g>
<!-- Node20 -->
<g id="node20" class="node"><title>Node20</title>
<g id="a_node20"><a xlink:href="com__c_09_09_8hpp_a1da9106f23205e969ae8407deebbfdfe.html#a1da9106f23205e969ae8407deebbfdfe" target="_top" xlink:title="COM_get_status">
<polygon fill="none" stroke="black" points="302.5,-570.5 302.5,-589.5 393.5,-589.5 393.5,-570.5 302.5,-570.5"/>
<text text-anchor="middle" x="348" y="-577.5" font-family="Helvetica,sans-Serif" font-size="10.00">COM_get_status</text>
</a>
</g>
</g>
<!-- Node13&#45;&gt;Node20 -->
<g id="edge23" class="edge"><title>Node13&#45;&gt;Node20</title>
<path fill="none" stroke="midnightblue" d="M244.23,-583.464C260.342,-582.921 277.072,-582.357 292.237,-581.846"/>
<polygon fill="midnightblue" stroke="midnightblue" points="292.582,-585.336 302.458,-581.501 292.346,-578.34 292.582,-585.336"/>
</g>
<!-- Node13&#45;&gt;Node6 -->
<g id="edge26" class="edge"><title>Node13&#45;&gt;Node6</title>
<path fill="none" stroke="midnightblue" d="M182.182,-595.664C202.549,-610.126 243.364,-637.27 282,-652 341.328,-674.618 413.276,-687.265 462.225,-693.827"/>
<polygon fill="midnightblue" stroke="midnightblue" points="461.941,-697.32 472.308,-695.137 462.842,-690.378 461.941,-697.32"/>
</g>
<!-- Node13&#45;&gt;Node8 -->
<g id="edge27" class="edge"><title>Node13&#45;&gt;Node8</title>
<path fill="none" stroke="midnightblue" d="M175.546,-595.562C201.822,-633.942 299.883,-777.178 334.667,-827.986"/>
<polygon fill="midnightblue" stroke="midnightblue" points="331.857,-830.077 340.394,-836.351 337.633,-826.122 331.857,-830.077"/>
</g>
<!-- Node17 -->
<g id="node17" class="node"><title>Node17</title>
<g id="a_node17"><a xlink:href="COM__base_8hpp_a49353596e53127db61529b5c9000549d.html#a49353596e53127db61529b5c9000549d" target="_top" xlink:title="COM_get_com">
<polygon fill="none" stroke="black" points="478.5,-196.5 478.5,-215.5 561.5,-215.5 561.5,-196.5 478.5,-196.5"/>
<text text-anchor="middle" x="520" y="-203.5" font-family="Helvetica,sans-Serif" font-size="10.00">COM_get_com</text>
</a>
</g>
</g>
<!-- Node16&#45;&gt;Node17 -->
<g id="edge20" class="edge"><title>Node16&#45;&gt;Node17</title>
<path fill="none" stroke="midnightblue" d="M401.221,-380.34C405.958,-377.884 410.34,-374.82 414,-371 460.24,-322.746 403.383,-272.89 450,-225 455.184,-219.675 461.712,-215.801 468.673,-212.99"/>
<polygon fill="midnightblue" stroke="midnightblue" points="469.959,-216.251 478.349,-209.781 467.755,-209.607 469.959,-216.251"/>
</g>
<!-- Node19 -->
<g id="node19" class="node"><title>Node19</title>
<g id="a_node19"><a xlink:href="classCOM_1_1COM__base_a640995dd65a1fb030650457b9cf10b26.html#a640995dd65a1fb030650457b9cf10b26" target="_top" xlink:title="COM::COM_base::get\l_function_handle">
<polygon fill="none" stroke="black" points="462.5,-381 462.5,-411 577.5,-411 577.5,-381 462.5,-381"/>
<text text-anchor="start" x="470.5" y="-399" font-family="Helvetica,sans-Serif" font-size="10.00">COM::COM_base::get</text>
<text text-anchor="middle" x="520" y="-388" font-family="Helvetica,sans-Serif" font-size="10.00">_function_handle</text>
</a>
</g>
</g>
<!-- Node16&#45;&gt;Node19 -->
<g id="edge22" class="edge"><title>Node16&#45;&gt;Node19</title>
<path fill="none" stroke="midnightblue" d="M414.24,-392.303C426.603,-392.739 439.556,-393.196 451.973,-393.634"/>
<polygon fill="midnightblue" stroke="midnightblue" points="452.135,-397.142 462.252,-393.997 452.382,-390.146 452.135,-397.142"/>
</g>
<!-- Node18 -->
<g id="node18" class="node"><title>Node18</title>
<g id="a_node18"><a xlink:href="classCOM_1_1COM__base_a77bb770b9ec1aac99361c45efbccabc1.html#a77bb770b9ec1aac99361c45efbccabc1" target="_top" xlink:title="Get a pointer to the COM object. ">
<polygon fill="none" stroke="black" points="626.5,-196.5 626.5,-215.5 765.5,-215.5 765.5,-196.5 626.5,-196.5"/>
<text text-anchor="middle" x="696" y="-203.5" font-family="Helvetica,sans-Serif" font-size="10.00">COM::COM_base::get_com</text>
</a>
</g>
</g>
<!-- Node17&#45;&gt;Node18 -->
<g id="edge21" class="edge"><title>Node17&#45;&gt;Node18</title>
<path fill="none" stroke="midnightblue" d="M561.795,-206C578.058,-206 597.355,-206 616.141,-206"/>
<polygon fill="midnightblue" stroke="midnightblue" points="616.2,-209.5 626.2,-206 616.2,-202.5 616.2,-209.5"/>
</g>
<!-- Node20&#45;&gt;Node17 -->
<g id="edge24" class="edge"><title>Node20&#45;&gt;Node17</title>
<path fill="none" stroke="midnightblue" d="M393.716,-574.482C401.467,-571.594 408.72,-567.313 414,-561 510.36,-445.799 352.74,-339.442 450,-225 454.923,-219.207 461.435,-215.098 468.494,-212.198"/>
<polygon fill="midnightblue" stroke="midnightblue" points="469.958,-215.401 478.363,-208.95 467.77,-208.752 469.958,-215.401"/>
</g>
<!-- Node21 -->
<g id="node21" class="node"><title>Node21</title>
<g id="a_node21"><a xlink:href="classCOM_1_1COM__base_aac063ad261e1a52d2b23bbddf791ae9c.html#aac063ad261e1a52d2b23bbddf791ae9c" target="_top" xlink:title="Get the status of an dataitem. ">
<polygon fill="none" stroke="black" points="462.5,-565 462.5,-595 577.5,-595 577.5,-565 462.5,-565"/>
<text text-anchor="start" x="470.5" y="-583" font-family="Helvetica,sans-Serif" font-size="10.00">COM::COM_base::get</text>
<text text-anchor="middle" x="520" y="-572" font-family="Helvetica,sans-Serif" font-size="10.00">_status</text>
</a>
</g>
</g>
<!-- Node20&#45;&gt;Node21 -->
<g id="edge25" class="edge"><title>Node20&#45;&gt;Node21</title>
<path fill="none" stroke="midnightblue" d="M393.665,-580C411.593,-580 432.636,-580 452.307,-580"/>
<polygon fill="midnightblue" stroke="midnightblue" points="452.444,-583.5 462.444,-580 452.444,-576.5 452.444,-583.5"/>
</g>
<!-- Node22&#45;&gt;Node5 -->
<g id="edge29" class="edge"><title>Node22&#45;&gt;Node5</title>
<path fill="none" stroke="midnightblue" d="M224.867,-557.085C232.181,-559.933 239.415,-563.227 246,-567 264.575,-577.642 262.657,-589.827 282,-599 339.122,-626.088 411.773,-634.416 461.488,-636.706"/>
<polygon fill="midnightblue" stroke="midnightblue" points="461.605,-640.213 471.734,-637.107 461.879,-633.218 461.605,-640.213"/>
</g>
<!-- Node22&#45;&gt;Node14 -->
<g id="edge30" class="edge"><title>Node22&#45;&gt;Node14</title>
<path fill="none" stroke="midnightblue" d="M236.041,-542C253.016,-542 271.128,-542 287.691,-542"/>
<polygon fill="midnightblue" stroke="midnightblue" points="287.779,-545.5 297.779,-542 287.779,-538.5 287.779,-545.5"/>
</g>
<!-- Node22&#45;&gt;Node15 -->
<g id="edge31" class="edge"><title>Node22&#45;&gt;Node15</title>
<path fill="none" stroke="midnightblue" d="M236.041,-527.688C255.498,-523.534 276.449,-519.061 294.848,-515.133"/>
<polygon fill="midnightblue" stroke="midnightblue" points="295.733,-518.524 304.782,-513.013 294.272,-511.678 295.733,-518.524"/>
</g>
<!-- Node22&#45;&gt;Node16 -->
<g id="edge32" class="edge"><title>Node22&#45;&gt;Node16</title>
<path fill="none" stroke="midnightblue" d="M190.76,-526.93C206.472,-515.801 228.003,-500.036 246,-485 277.011,-459.09 310.782,-426.31 330.358,-406.812"/>
<polygon fill="midnightblue" stroke="midnightblue" points="333.008,-409.111 337.597,-399.562 328.054,-404.166 333.008,-409.111"/>
</g>
<!-- Node23 -->
<g id="node23" class="node"><title>Node23</title>
<g id="a_node23"><a xlink:href="com__c_09_09_8hpp_a6e38c0b1f83c30b166b7500902e13be1.html#a6e38c0b1f83c30b166b7500902e13be1" target="_top" xlink:title="COM_get_panes">
<polygon fill="none" stroke="black" points="303,-342.5 303,-361.5 393,-361.5 393,-342.5 303,-342.5"/>
<text text-anchor="middle" x="348" y="-349.5" font-family="Helvetica,sans-Serif" font-size="10.00">COM_get_panes</text>
</a>
</g>
</g>
<!-- Node22&#45;&gt;Node23 -->
<g id="edge33" class="edge"><title>Node22&#45;&gt;Node23</title>
<path fill="none" stroke="midnightblue" d="M197.471,-526.959C213.782,-517.025 233.442,-502.601 246,-485 276.86,-441.748 244.028,-408.165 282,-371 285.442,-367.631 289.448,-364.854 293.747,-362.565"/>
<polygon fill="midnightblue" stroke="midnightblue" points="295.169,-365.763 302.901,-358.52 292.34,-359.36 295.169,-365.763"/>
</g>
<!-- Node22&#45;&gt;Node20 -->
<g id="edge36" class="edge"><title>Node22&#45;&gt;Node20</title>
<path fill="none" stroke="midnightblue" d="M236.041,-556.312C254.576,-560.269 274.468,-564.516 292.217,-568.305"/>
<polygon fill="midnightblue" stroke="midnightblue" points="291.884,-571.812 302.394,-570.477 293.345,-564.967 291.884,-571.812"/>
</g>
<!-- Node22&#45;&gt;Node6 -->
<g id="edge37" class="edge"><title>Node22&#45;&gt;Node6</title>
<path fill="none" stroke="midnightblue" d="M230.087,-557.01C235.779,-559.799 241.202,-563.098 246,-567 271.019,-587.348 256.711,-609.988 282,-630 285.89,-633.078 407.931,-668.265 475.323,-687.545"/>
<polygon fill="midnightblue" stroke="midnightblue" points="474.669,-690.998 485.246,-690.382 476.594,-684.268 474.669,-690.998"/>
</g>
<!-- Node22&#45;&gt;Node8 -->
<g id="edge38" class="edge"><title>Node22&#45;&gt;Node8</title>
<path fill="none" stroke="midnightblue" d="M232.736,-557.175C237.569,-559.922 242.081,-563.167 246,-567 280.67,-600.905 265.599,-624.364 282,-670 302.587,-727.283 327.754,-794.721 339.845,-826.963"/>
<polygon fill="midnightblue" stroke="midnightblue" points="336.627,-828.35 343.418,-836.482 343.181,-825.89 336.627,-828.35"/>
</g>
<!-- Node23&#45;&gt;Node17 -->
<g id="edge34" class="edge"><title>Node23&#45;&gt;Node17</title>
<path fill="none" stroke="midnightblue" d="M355.479,-342.37C373.663,-315.606 425.437,-241.227 450,-225 455.712,-221.227 462.16,-218.197 468.765,-215.767"/>
<polygon fill="midnightblue" stroke="midnightblue" points="470.051,-219.03 478.485,-212.617 467.893,-212.37 470.051,-219.03"/>
</g>
<!-- Node24 -->
<g id="node24" class="node"><title>Node24</title>
<g id="a_node24"><a xlink:href="classCOM_1_1COM__base_abac5455b6ae9ddffe748955994558b95.html#abac5455b6ae9ddffe748955994558b95" target="_top" xlink:title="Obtain the panes of a given window on a specific process. ">
<polygon fill="none" stroke="black" points="462.5,-332 462.5,-362 577.5,-362 577.5,-332 462.5,-332"/>
<text text-anchor="start" x="470.5" y="-350" font-family="Helvetica,sans-Serif" font-size="10.00">COM::COM_base::get</text>
<text text-anchor="middle" x="520" y="-339" font-family="Helvetica,sans-Serif" font-size="10.00">_panes</text>
</a>
</g>
</g>
<!-- Node23&#45;&gt;Node24 -->
<g id="edge35" class="edge"><title>Node23&#45;&gt;Node24</title>
<path fill="none" stroke="midnightblue" d="M393.222,-350.699C411.234,-350.17 432.447,-349.546 452.269,-348.963"/>
<polygon fill="midnightblue" stroke="midnightblue" points="452.591,-352.455 462.484,-348.662 452.385,-345.458 452.591,-352.455"/>
</g>
<!-- Node26 -->
<g id="node26" class="node"><title>Node26</title>
<g id="a_node26"><a xlink:href="com__c_09_09_8hpp_a18a6824608686682b76b860744a104d6.html#a18a6824608686682b76b860744a104d6" target="_top" xlink:title="COM_get_window_handle">
<polygon fill="none" stroke="black" points="282.5,-38.5 282.5,-57.5 413.5,-57.5 413.5,-38.5 282.5,-38.5"/>
<text text-anchor="middle" x="348" y="-45.5" font-family="Helvetica,sans-Serif" font-size="10.00">COM_get_window_handle</text>
</a>
</g>
</g>
<!-- Node25&#45;&gt;Node26 -->
<g id="edge40" class="edge"><title>Node25&#45;&gt;Node26</title>
<path fill="none" stroke="midnightblue" d="M177.686,-152.408C195.44,-133.366 237.943,-90.5973 282,-67 286.184,-64.7588 290.666,-62.7519 295.246,-60.9612"/>
<polygon fill="midnightblue" stroke="midnightblue" points="296.48,-64.2373 304.724,-57.5833 294.13,-57.6435 296.48,-64.2373"/>
</g>
<!-- Node26&#45;&gt;Node17 -->
<g id="edge41" class="edge"><title>Node26&#45;&gt;Node17</title>
<path fill="none" stroke="midnightblue" d="M400.382,-57.5377C405.399,-60.0097 410.074,-63.1111 414,-67 453.255,-105.888 410.701,-147.156 450,-186 455.245,-191.184 461.747,-195.04 468.647,-197.905"/>
<polygon fill="midnightblue" stroke="midnightblue" points="467.626,-201.256 478.221,-201.23 469.923,-194.643 467.626,-201.256"/>
</g>
<!-- Node27 -->
<g id="node27" class="node"><title>Node27</title>
<g id="a_node27"><a xlink:href="classCOM_1_1COM__base_a75bf2e262b938dbff2d0ea8a60a8d218.html#a75bf2e262b938dbff2d0ea8a60a8d218" target="_top" xlink:title="COM::COM_base::get\l_window_handle">
<polygon fill="none" stroke="black" points="462.5,-0 462.5,-30 577.5,-30 577.5,-0 462.5,-0"/>
<text text-anchor="start" x="470.5" y="-18" font-family="Helvetica,sans-Serif" font-size="10.00">COM::COM_base::get</text>
<text text-anchor="middle" x="520" y="-7" font-family="Helvetica,sans-Serif" font-size="10.00">_window_handle</text>
</a>
</g>
</g>
<!-- Node26&#45;&gt;Node27 -->
<g id="edge42" class="edge"><title>Node26&#45;&gt;Node27</title>
<path fill="none" stroke="midnightblue" d="M398.171,-38.455C415.133,-35.1625 434.424,-31.4177 452.535,-27.902"/>
<polygon fill="midnightblue" stroke="midnightblue" points="453.304,-31.3183 462.453,-25.9767 451.97,-24.4465 453.304,-31.3183"/>
</g>
<!-- Node28&#45;&gt;Node5 -->
<g id="edge44" class="edge"><title>Node28&#45;&gt;Node5</title>
<path fill="none" stroke="midnightblue" d="M189.203,-304.463C235.459,-284.19 349.986,-243.119 414,-300 464.853,-345.186 410.403,-548.685 450,-604 455.913,-612.26 464.453,-618.53 473.523,-623.262"/>
<polygon fill="midnightblue" stroke="midnightblue" points="472.146,-626.481 482.692,-627.498 475.082,-620.127 472.146,-626.481"/>
</g>
<!-- Node28&#45;&gt;Node14 -->
<g id="edge45" class="edge"><title>Node28&#45;&gt;Node14</title>
<path fill="none" stroke="midnightblue" d="M174.88,-323.526C188.148,-345.154 221.189,-399.757 246,-447 263.378,-480.09 253.568,-498.739 282,-523 284.035,-524.736 286.221,-526.314 288.516,-527.747"/>
<polygon fill="midnightblue" stroke="midnightblue" points="287.33,-531.076 297.816,-532.593 290.565,-524.868 287.33,-531.076"/>
</g>
<!-- Node29 -->
<g id="node29" class="node"><title>Node29</title>
<g id="a_node29"><a xlink:href="com__c_09_09_8hpp_ab5a8ac8121d23b45ad8c8354970a2130.html#ab5a8ac8121d23b45ad8c8354970a2130" target="_top" xlink:title="COM_free_buffer">
<polygon fill="none" stroke="black" points="302,-114.5 302,-133.5 394,-133.5 394,-114.5 302,-114.5"/>
<text text-anchor="middle" x="348" y="-121.5" font-family="Helvetica,sans-Serif" font-size="10.00">COM_free_buffer</text>
</a>
</g>
</g>
<!-- Node28&#45;&gt;Node29 -->
<g id="edge46" class="edge"><title>Node28&#45;&gt;Node29</title>
<path fill="none" stroke="midnightblue" d="M174.149,-304.451C191.89,-271.867 251.075,-165.815 282,-143 285.208,-140.633 288.706,-138.56 292.362,-136.745"/>
<polygon fill="midnightblue" stroke="midnightblue" points="293.886,-139.899 301.697,-132.741 291.127,-133.466 293.886,-139.899"/>
</g>
<!-- Node28&#45;&gt;Node15 -->
<g id="edge49" class="edge"><title>Node28&#45;&gt;Node15</title>
<path fill="none" stroke="midnightblue" d="M178.072,-323.683C206.512,-354.041 294.206,-447.647 330.751,-486.655"/>
<polygon fill="midnightblue" stroke="midnightblue" points="328.342,-489.203 337.733,-494.108 333.45,-484.418 328.342,-489.203"/>
</g>
<!-- Node31 -->
<g id="node31" class="node"><title>Node31</title>
<g id="a_node31"><a xlink:href="com__c_09_09_8hpp_a390dfbadbcb267ac867fabbcd586683b.html#a390dfbadbcb267ac867fabbcd586683b" target="_top" xlink:title="COM_get_connectivities">
<polygon fill="none" stroke="black" points="286,-76.5 286,-95.5 410,-95.5 410,-76.5 286,-76.5"/>
<text text-anchor="middle" x="348" y="-83.5" font-family="Helvetica,sans-Serif" font-size="10.00">COM_get_connectivities</text>
</a>
</g>
</g>
<!-- Node28&#45;&gt;Node31 -->
<g id="edge50" class="edge"><title>Node28&#45;&gt;Node31</title>
<path fill="none" stroke="midnightblue" d="M174.88,-304.474C188.148,-282.846 221.189,-228.243 246,-181 263.378,-147.91 253.568,-129.261 282,-105 283.996,-103.297 286.137,-101.747 288.384,-100.336"/>
<polygon fill="midnightblue" stroke="midnightblue" points="290.263,-103.302 297.486,-95.5509 287.006,-97.1058 290.263,-103.302"/>
</g>
<!-- Node33 -->
<g id="node33" class="node"><title>Node33</title>
<g id="a_node33"><a xlink:href="com__c_09_09_8hpp_a16b2a9aeed9d53bd2d11d4221ef2c148.html#a16b2a9aeed9d53bd2d11d4221ef2c148" target="_top" xlink:title="COM_get_dataitem">
<polygon fill="none" stroke="black" points="297.5,-190.5 297.5,-209.5 398.5,-209.5 398.5,-190.5 297.5,-190.5"/>
<text text-anchor="middle" x="348" y="-197.5" font-family="Helvetica,sans-Serif" font-size="10.00">COM_get_dataitem</text>
</a>
</g>
</g>
<!-- Node28&#45;&gt;Node33 -->
<g id="edge53" class="edge"><title>Node28&#45;&gt;Node33</title>
<path fill="none" stroke="midnightblue" d="M177.686,-304.408C195.44,-285.366 237.943,-242.597 282,-219 286.184,-216.759 290.666,-214.752 295.246,-212.961"/>
<polygon fill="midnightblue" stroke="midnightblue" points="296.48,-216.237 304.724,-209.583 294.13,-209.644 296.48,-216.237"/>
</g>
<!-- Node35 -->
<g id="node35" class="node"><title>Node35</title>
<g id="a_node35"><a xlink:href="com__c_09_09_8hpp_a48824b0cc48b3d1310e84d87c7af9c80.html#a48824b0cc48b3d1310e84d87c7af9c80" target="_top" xlink:title="COM_get_dataitems">
<polygon fill="none" stroke="black" points="294.5,-152.5 294.5,-171.5 401.5,-171.5 401.5,-152.5 294.5,-152.5"/>
<text text-anchor="middle" x="348" y="-159.5" font-family="Helvetica,sans-Serif" font-size="10.00">COM_get_dataitems</text>
</a>
</g>
</g>
<!-- Node28&#45;&gt;Node35 -->
<g id="edge56" class="edge"><title>Node28&#45;&gt;Node35</title>
<path fill="none" stroke="midnightblue" d="M174.463,-304.292C188.776,-279.755 229.891,-214.803 282,-181 285.144,-178.961 288.513,-177.134 292.002,-175.5"/>
<polygon fill="midnightblue" stroke="midnightblue" points="293.534,-178.654 301.445,-171.607 290.866,-172.183 293.534,-178.654"/>
</g>
<!-- Node28&#45;&gt;Node16 -->
<g id="edge59" class="edge"><title>Node28&#45;&gt;Node16</title>
<path fill="none" stroke="midnightblue" d="M185.782,-323.691C207.466,-335.923 246.64,-357.049 282,-371 287.813,-373.294 294.015,-375.454 300.193,-377.437"/>
<polygon fill="midnightblue" stroke="midnightblue" points="299.236,-380.805 309.823,-380.402 301.296,-374.115 299.236,-380.805"/>
</g>
<!-- Node28&#45;&gt;Node23 -->
<g id="edge60" class="edge"><title>Node28&#45;&gt;Node23</title>
<path fill="none" stroke="midnightblue" d="M213.917,-323.589C237.92,-328.713 267.647,-335.059 292.912,-340.453"/>
<polygon fill="midnightblue" stroke="midnightblue" points="292.204,-343.881 302.714,-342.546 293.665,-337.035 292.204,-343.881"/>
</g>
<!-- Node37 -->
<g id="node37" class="node"><title>Node37</title>
<g id="a_node37"><a xlink:href="com__c_09_09_8hpp_a74e2d52abbc3b6532fc19b38deabba26.html#a74e2d52abbc3b6532fc19b38deabba26" target="_top" xlink:title="Get the sizes of an dataitem. ">
<polygon fill="none" stroke="black" points="307,-228.5 307,-247.5 389,-247.5 389,-228.5 307,-228.5"/>
<text text-anchor="middle" x="348" y="-235.5" font-family="Helvetica,sans-Serif" font-size="10.00">COM_get_size</text>
</a>
</g>
</g>
<!-- Node28&#45;&gt;Node37 -->
<g id="edge61" class="edge"><title>Node28&#45;&gt;Node37</title>
<path fill="none" stroke="midnightblue" d="M188.798,-304.322C211.197,-293.506 248.877,-275.712 282,-262 290.979,-258.283 300.763,-254.522 309.951,-251.115"/>
<polygon fill="midnightblue" stroke="midnightblue" points="311.432,-254.3 319.62,-247.576 309.026,-247.727 311.432,-254.3"/>
</g>
<!-- Node28&#45;&gt;Node6 -->
<g id="edge64" class="edge"><title>Node28&#45;&gt;Node6</title>
<path fill="none" stroke="midnightblue" d="M245.6,-309.709C308.42,-307.981 390.653,-310.424 414,-333 465.92,-383.204 411.816,-594.697 450,-656 458.039,-668.906 471.416,-678.712 484.262,-685.753"/>
<polygon fill="midnightblue" stroke="midnightblue" points="482.936,-689.004 493.439,-690.396 486.097,-682.758 482.936,-689.004"/>
</g>
<!-- Node28&#45;&gt;Node8 -->
<g id="edge65" class="edge"><title>Node28&#45;&gt;Node8</title>
<path fill="none" stroke="midnightblue" d="M175.833,-323.507C190.731,-344.664 226.371,-397.667 246,-447 271.666,-511.506 265.165,-531.648 282,-599 303.222,-683.903 330.356,-784.702 341.672,-826.424"/>
<polygon fill="midnightblue" stroke="midnightblue" points="338.312,-827.407 344.311,-836.14 345.067,-825.572 338.312,-827.407"/>
</g>
<!-- Node29&#45;&gt;Node17 -->
<g id="edge47" class="edge"><title>Node29&#45;&gt;Node17</title>
<path fill="none" stroke="midnightblue" d="M394.239,-133.446C401.165,-135.942 407.997,-139.075 414,-143 434.861,-156.64 429.124,-172.384 450,-186 455.685,-189.708 462.072,-192.744 468.604,-195.225"/>
<polygon fill="midnightblue" stroke="midnightblue" points="467.62,-198.587 478.215,-198.477 469.864,-191.956 467.62,-198.587"/>
</g>
<!-- Node30 -->
<g id="node30" class="node"><title>Node30</title>
<g id="a_node30"><a xlink:href="classCOM_1_1COM__base_a28b02917e8bbf63e7b740345918f4071.html#a28b02917e8bbf63e7b740345918f4071" target="_top" xlink:title="COM::COM_base::free\l_buffer">
<polygon fill="none" stroke="black" points="461,-98 461,-128 579,-128 579,-98 461,-98"/>
<text text-anchor="start" x="469" y="-116" font-family="Helvetica,sans-Serif" font-size="10.00">COM::COM_base::free</text>
<text text-anchor="middle" x="520" y="-105" font-family="Helvetica,sans-Serif" font-size="10.00">_buffer</text>
</a>
</g>
</g>
<!-- Node29&#45;&gt;Node30 -->
<g id="edge48" class="edge"><title>Node29&#45;&gt;Node30</title>
<path fill="none" stroke="midnightblue" d="M394.111,-121.081C411.454,-119.959 431.662,-118.651 450.706,-117.419"/>
<polygon fill="midnightblue" stroke="midnightblue" points="451.084,-120.902 460.837,-116.763 450.632,-113.917 451.084,-120.902"/>
</g>
<!-- Node31&#45;&gt;Node17 -->
<g id="edge51" class="edge"><title>Node31&#45;&gt;Node17</title>
<path fill="none" stroke="midnightblue" d="M398.933,-95.5921C404.398,-98.0478 409.575,-101.131 414,-105 443.657,-130.932 420.313,-160.102 450,-186 455.492,-190.791 462.072,-194.437 468.958,-197.211"/>
<polygon fill="midnightblue" stroke="midnightblue" points="467.868,-200.538 478.462,-200.479 470.144,-193.918 467.868,-200.538"/>
</g>
<!-- Node32 -->
<g id="node32" class="node"><title>Node32</title>
<g id="a_node32"><a xlink:href="classCOM_1_1COM__base_a21440170f046287a32a2ca776c9fd16c.html#a21440170f046287a32a2ca776c9fd16c" target="_top" xlink:title="Obtain the connectivity tables of a pane of the given window. ">
<polygon fill="none" stroke="black" points="462.5,-49 462.5,-79 577.5,-79 577.5,-49 462.5,-49"/>
<text text-anchor="start" x="470.5" y="-67" font-family="Helvetica,sans-Serif" font-size="10.00">COM::COM_base::get</text>
<text text-anchor="middle" x="520" y="-56" font-family="Helvetica,sans-Serif" font-size="10.00">_connectivities</text>
</a>
</g>
</g>
<!-- Node31&#45;&gt;Node32 -->
<g id="edge52" class="edge"><title>Node31&#45;&gt;Node32</title>
<path fill="none" stroke="midnightblue" d="M410.374,-78.0575C423.996,-76.2946 438.498,-74.4179 452.322,-72.629"/>
<polygon fill="midnightblue" stroke="midnightblue" points="452.777,-76.0994 462.245,-71.3448 451.878,-69.1572 452.777,-76.0994"/>
</g>
<!-- Node33&#45;&gt;Node17 -->
<g id="edge54" class="edge"><title>Node33&#45;&gt;Node17</title>
<path fill="none" stroke="midnightblue" d="M398.628,-201.752C420.541,-202.525 446.27,-203.433 468.305,-204.211"/>
<polygon fill="midnightblue" stroke="midnightblue" points="468.348,-207.714 478.466,-204.569 468.595,-200.719 468.348,-207.714"/>
</g>
<!-- Node34 -->
<g id="node34" class="node"><title>Node34</title>
<g id="a_node34"><a xlink:href="classCOM_1_1COM__base_a74a5100529115d055808ef9aa5c369ba.html#a74a5100529115d055808ef9aa5c369ba" target="_top" xlink:title="Information retrieval Get the information about an dataitem. ">
<polygon fill="none" stroke="black" points="462.5,-235 462.5,-265 577.5,-265 577.5,-235 462.5,-235"/>
<text text-anchor="start" x="470.5" y="-253" font-family="Helvetica,sans-Serif" font-size="10.00">COM::COM_base::get</text>
<text text-anchor="middle" x="520" y="-242" font-family="Helvetica,sans-Serif" font-size="10.00">_dataitem</text>
</a>
</g>
</g>
<!-- Node33&#45;&gt;Node34 -->
<g id="edge55" class="edge"><title>Node33&#45;&gt;Node34</title>
<path fill="none" stroke="midnightblue" d="M381.739,-209.551C392.063,-212.568 403.509,-215.918 414,-219 428.373,-223.222 443.847,-227.783 458.384,-232.073"/>
<polygon fill="midnightblue" stroke="midnightblue" points="457.69,-235.518 468.272,-234.993 459.672,-228.805 457.69,-235.518"/>
</g>
<!-- Node35&#45;&gt;Node17 -->
<g id="edge57" class="edge"><title>Node35&#45;&gt;Node17</title>
<path fill="none" stroke="midnightblue" d="M385.887,-171.547C411.283,-178.12 445.223,-186.905 472.475,-193.958"/>
<polygon fill="midnightblue" stroke="midnightblue" points="471.627,-197.354 482.185,-196.471 473.381,-190.577 471.627,-197.354"/>
</g>
<!-- Node36 -->
<g id="node36" class="node"><title>Node36</title>
<g id="a_node36"><a xlink:href="classCOM_1_1COM__base_ac64b4d78268b8bf76bde91677b51a819.html#ac64b4d78268b8bf76bde91677b51a819" target="_top" xlink:title="Obtain the user&#45;defined dataitems of the given window. ">
<polygon fill="none" stroke="black" points="462.5,-147 462.5,-177 577.5,-177 577.5,-147 462.5,-147"/>
<text text-anchor="start" x="470.5" y="-165" font-family="Helvetica,sans-Serif" font-size="10.00">COM::COM_base::get</text>
<text text-anchor="middle" x="520" y="-154" font-family="Helvetica,sans-Serif" font-size="10.00">_dataitems</text>
</a>
</g>
</g>
<!-- Node35&#45;&gt;Node36 -->
<g id="edge58" class="edge"><title>Node35&#45;&gt;Node36</title>
<path fill="none" stroke="midnightblue" d="M401.857,-162C417.758,-162 435.419,-162 452.104,-162"/>
<polygon fill="midnightblue" stroke="midnightblue" points="452.343,-165.5 462.343,-162 452.343,-158.5 452.343,-165.5"/>
</g>
<!-- Node37&#45;&gt;Node17 -->
<g id="edge62" class="edge"><title>Node37&#45;&gt;Node17</title>
<path fill="none" stroke="midnightblue" d="M389.288,-230.416C412.933,-225.966 443.031,-220.3 468.281,-215.547"/>
<polygon fill="midnightblue" stroke="midnightblue" points="469.232,-218.93 478.412,-213.64 467.938,-212.05 469.232,-218.93"/>
</g>
<!-- Node38 -->
<g id="node38" class="node"><title>Node38</title>
<g id="a_node38"><a xlink:href="classCOM_1_1COM__base_a0059534958a2bbdd57080473206cd1d0.html#a0059534958a2bbdd57080473206cd1d0" target="_top" xlink:title="Get the sizes of an dataitem. The opposite of set_size. ">
<polygon fill="none" stroke="black" points="451,-284.5 451,-303.5 589,-303.5 589,-284.5 451,-284.5"/>
<text text-anchor="middle" x="520" y="-291.5" font-family="Helvetica,sans-Serif" font-size="10.00">COM::COM_base::get_size</text>
</a>
</g>
</g>
<!-- Node37&#45;&gt;Node38 -->
<g id="edge63" class="edge"><title>Node37&#45;&gt;Node38</title>
<path fill="none" stroke="midnightblue" d="M374.592,-247.603C394.922,-255.115 424.136,-265.651 450,-274 457.932,-276.561 466.425,-279.147 474.645,-281.572"/>
<polygon fill="midnightblue" stroke="midnightblue" points="473.901,-285 484.481,-284.436 475.858,-278.28 473.901,-285"/>
</g>
<!-- Node39&#45;&gt;Node5 -->
<g id="edge67" class="edge"><title>Node39&#45;&gt;Node5</title>
<path fill="none" stroke="midnightblue" d="M190.139,-456.405C236.342,-437.041 347.5,-399.41 414,-452 468.454,-495.064 406.421,-549.957 450,-604 456.632,-612.225 465.808,-618.525 475.305,-623.302"/>
<polygon fill="midnightblue" stroke="midnightblue" points="473.882,-626.5 484.436,-627.429 476.765,-620.121 473.882,-626.5"/>
</g>
<!-- Node39&#45;&gt;Node14 -->
<g id="edge68" class="edge"><title>Node39&#45;&gt;Node14</title>
<path fill="none" stroke="midnightblue" d="M185.782,-475.691C207.466,-487.923 246.64,-509.049 282,-523 287.813,-525.294 294.015,-527.454 300.193,-529.437"/>
<polygon fill="midnightblue" stroke="midnightblue" points="299.236,-532.805 309.823,-532.402 301.296,-526.115 299.236,-532.805"/>
</g>
<!-- Node39&#45;&gt;Node15 -->
<g id="edge69" class="edge"><title>Node39&#45;&gt;Node15</title>
<path fill="none" stroke="midnightblue" d="M213.917,-475.589C238.557,-480.849 269.227,-487.397 294.912,-492.88"/>
<polygon fill="midnightblue" stroke="midnightblue" points="294.341,-496.337 304.852,-495.002 295.803,-489.491 294.341,-496.337"/>
</g>
<!-- Node39&#45;&gt;Node33 -->
<g id="edge70" class="edge"><title>Node39&#45;&gt;Node33</title>
<path fill="none" stroke="midnightblue" d="M175.566,-456.381C189.931,-435.001 224.576,-381.581 246,-333 267.439,-284.384 244.028,-256.165 282,-219 283.912,-217.129 285.997,-215.441 288.209,-213.917"/>
<polygon fill="midnightblue" stroke="midnightblue" points="290.276,-216.77 297.28,-208.82 286.847,-210.668 290.276,-216.77"/>
</g>
<!-- Node39&#45;&gt;Node16 -->
<g id="edge71" class="edge"><title>Node39&#45;&gt;Node16</title>
<path fill="none" stroke="midnightblue" d="M188.798,-456.322C211.197,-445.506 248.877,-427.712 282,-414 290.979,-410.283 300.763,-406.522 309.951,-403.115"/>
<polygon fill="midnightblue" stroke="midnightblue" points="311.432,-406.3 319.62,-399.576 309.026,-399.727 311.432,-406.3"/>
</g>
<!-- Node39&#45;&gt;Node23 -->
<g id="edge72" class="edge"><title>Node39&#45;&gt;Node23</title>
<path fill="none" stroke="midnightblue" d="M177.686,-456.408C195.44,-437.366 237.943,-394.597 282,-371 286.184,-368.759 290.666,-366.752 295.246,-364.961"/>
<polygon fill="midnightblue" stroke="midnightblue" points="296.48,-368.237 304.724,-361.583 294.13,-361.644 296.48,-368.237"/>
</g>
<!-- Node39&#45;&gt;Node37 -->
<g id="edge73" class="edge"><title>Node39&#45;&gt;Node37</title>
<path fill="none" stroke="midnightblue" d="M176.422,-456.493C203.563,-421.728 297.692,-301.158 333.253,-255.609"/>
<polygon fill="midnightblue" stroke="midnightblue" points="336.152,-257.583 339.546,-247.547 330.634,-253.276 336.152,-257.583"/>
</g>
<!-- Node39&#45;&gt;Node20 -->
<g id="edge74" class="edge"><title>Node39&#45;&gt;Node20</title>
<path fill="none" stroke="midnightblue" d="M186.575,-475.588C202.911,-484.957 227.445,-500.226 246,-517 264.743,-533.944 260.931,-547.053 282,-561 285.474,-563.3 289.232,-565.327 293.129,-567.113"/>
<polygon fill="midnightblue" stroke="midnightblue" points="291.82,-570.359 302.403,-570.857 294.441,-563.868 291.82,-570.359"/>
</g>
<!-- Node39&#45;&gt;Node6 -->
<g id="edge75" class="edge"><title>Node39&#45;&gt;Node6</title>
<path fill="none" stroke="midnightblue" d="M234.513,-462.548C297.94,-460.671 388.188,-462.346 414,-485 472.372,-536.232 405.807,-592.133 450,-656 458.782,-668.692 472.536,-678.535 485.46,-685.662"/>
<polygon fill="midnightblue" stroke="midnightblue" points="484.147,-688.922 494.642,-690.374 487.343,-682.694 484.147,-688.922"/>
</g>
<!-- Node39&#45;&gt;Node8 -->
<g id="edge76" class="edge"><title>Node39&#45;&gt;Node8</title>
<path fill="none" stroke="midnightblue" d="M191.316,-475.596C208.595,-484.106 231.889,-498.12 246,-517 265.316,-542.844 323.942,-759.304 341.789,-826.31"/>
<polygon fill="midnightblue" stroke="midnightblue" points="338.512,-827.606 344.461,-836.373 345.277,-825.809 338.512,-827.606"/>
</g>
</g>
</svg>
