<?xml version="1.0" encoding="UTF-8" standalone="no"?>
<!DOCTYPE svg PUBLIC "-//W3C//DTD SVG 1.1//EN"
 "http://www.w3.org/Graphics/SVG/1.1/DTD/svg11.dtd">
<!-- Generated by graphviz version 2.30.1 (20150305.2338)
 -->
<!-- Title: savecurrent Pages: 1 -->
<svg width="472pt" height="142pt"
 viewBox="0.00 0.00 472.00 142.00" xmlns="http://www.w3.org/2000/svg" xmlns:xlink="http://www.w3.org/1999/xlink">
<g id="graph0" class="graph" transform="scale(1 1) rotate(0) translate(4 138)">
<title>savecurrent</title>
<!-- Node1 -->
<g id="node1" class="node"><title>Node1</title>
<polygon fill="#bfbfbf" stroke="black" points="0,-57.5 0,-76.5 68,-76.5 68,-57.5 0,-57.5"/>
<text text-anchor="middle" x="34" y="-64.5" font-family="Helvetica,sans-Serif" font-size="10.00">savecurrent</text>
</g>
<!-- Node2 -->
<g id="node2" class="node"><title>Node2</title>
<g id="a_node2"><a xlink:href="TimeStepper_8F90_a0e4465b3c92a9d6c31733a950db1ffeb.html#a0e4465b3c92a9d6c31733a950db1ffeb" target="_top" xlink:title="deprecatedtimestepper">
<polygon fill="none" stroke="black" points="108,-114.5 108,-133.5 224,-133.5 224,-114.5 108,-114.5"/>
<text text-anchor="middle" x="166" y="-121.5" font-family="Helvetica,sans-Serif" font-size="10.00">deprecatedtimestepper</text>
</a>
</g>
</g>
<!-- Node1&#45;&gt;Node2 -->
<g id="edge1" class="edge"><title>Node1&#45;&gt;Node2</title>
<path fill="none" stroke="midnightblue" d="M58.9521,-81.7533C71.9597,-89.3611 88.5096,-98.4019 104,-105 112.266,-108.521 121.408,-111.716 130.044,-114.439"/>
<polygon fill="midnightblue" stroke="midnightblue" points="60.5547,-78.634 50.1724,-76.5223 56.9717,-84.6476 60.5547,-78.634"/>
</g>
<!-- Node3 -->
<g id="node3" class="node"><title>Node3</title>
<g id="a_node3"><a xlink:href="Finalize_8F90_a8569340644464d5504163ec6dd668d27.html#a8569340644464d5504163ec6dd668d27" target="_top" xlink:title="ElmerLib Elmer library routines ">
<polygon fill="none" stroke="black" points="130.5,-76.5 130.5,-95.5 201.5,-95.5 201.5,-76.5 130.5,-76.5"/>
<text text-anchor="middle" x="166" y="-83.5" font-family="Helvetica,sans-Serif" font-size="10.00">elmerfinalize</text>
</a>
</g>
</g>
<!-- Node1&#45;&gt;Node3 -->
<g id="edge2" class="edge"><title>Node1&#45;&gt;Node3</title>
<path fill="none" stroke="midnightblue" d="M78.2939,-73.3276C95.1319,-75.7885 114.165,-78.5703 130.101,-80.8994"/>
<polygon fill="midnightblue" stroke="midnightblue" points="78.5419,-69.8267 68.1409,-71.8437 77.5295,-76.7531 78.5419,-69.8267"/>
</g>
<!-- Node7 -->
<g id="node7" class="node"><title>Node7</title>
<g id="a_node7"><a xlink:href="classgeneralmodule_aa88ce66b9b7ef1a10643fdc4fe416855.html#aa88ce66b9b7ef1a10643fdc4fe416855" target="_top" xlink:title="Execute the individual solvers in defined sequence. ">
<polygon fill="none" stroke="black" points="125,-0.5 125,-19.5 207,-19.5 207,-0.5 125,-0.5"/>
<text text-anchor="middle" x="166" y="-7.5" font-family="Helvetica,sans-Serif" font-size="10.00">execsimulation</text>
</a>
</g>
</g>
<!-- Node1&#45;&gt;Node7 -->
<g id="edge6" class="edge"><title>Node1&#45;&gt;Node7</title>
<path fill="none" stroke="midnightblue" d="M58.9521,-52.2467C71.9597,-44.6389 88.5096,-35.5981 104,-29 112.266,-25.4791 121.408,-22.2841 130.044,-19.5613"/>
<polygon fill="midnightblue" stroke="midnightblue" points="56.9717,-49.3524 50.1724,-57.4777 60.5547,-55.366 56.9717,-49.3524"/>
</g>
<!-- Node8 -->
<g id="node8" class="node"><title>Node8</title>
<g id="a_node8"><a xlink:href="classtimemodule_a1cf4a14a9976bb954bb16f95d5e2dab0.html#a1cf4a14a9976bb954bb16f95d5e2dab0" target="_top" xlink:title="timemodule::timestepper">
<polygon fill="none" stroke="black" points="104,-38.5 104,-57.5 228,-57.5 228,-38.5 104,-38.5"/>
<text text-anchor="middle" x="166" y="-45.5" font-family="Helvetica,sans-Serif" font-size="10.00">timemodule::timestepper</text>
</a>
</g>
</g>
<!-- Node1&#45;&gt;Node8 -->
<g id="edge7" class="edge"><title>Node1&#45;&gt;Node8</title>
<path fill="none" stroke="midnightblue" d="M78.2296,-60.6818C86.453,-59.4799 95.202,-58.2012 103.859,-56.9359"/>
<polygon fill="midnightblue" stroke="midnightblue" points="77.5295,-57.2469 68.1409,-62.1563 78.5419,-64.1733 77.5295,-57.2469"/>
</g>
<!-- Node4 -->
<g id="node4" class="node"><title>Node4</title>
<g id="a_node4"><a xlink:href="ElmerCSC_8F90_af3d36f75ef0281d05095a89df472fa2f.html#af3d36f75ef0281d05095a89df472fa2f" target="_top" xlink:title="finalize">
<polygon fill="none" stroke="black" points="264.5,-76.5 264.5,-95.5 311.5,-95.5 311.5,-76.5 264.5,-76.5"/>
<text text-anchor="middle" x="288" y="-83.5" font-family="Helvetica,sans-Serif" font-size="10.00">finalize</text>
</a>
</g>
</g>
<!-- Node3&#45;&gt;Node4 -->
<g id="edge3" class="edge"><title>Node3&#45;&gt;Node4</title>
<path fill="none" stroke="midnightblue" d="M211.732,-86C229.711,-86 249.65,-86 264.486,-86"/>
<polygon fill="midnightblue" stroke="midnightblue" points="211.709,-82.5001 201.709,-86 211.709,-89.5001 211.709,-82.5001"/>
</g>
<!-- Node5 -->
<g id="node5" class="node"><title>Node5</title>
<g id="a_node5"><a xlink:href="ElmerCSC_8F90_a08424dc689065df44a24c900bc17412b.html#a08424dc689065df44a24c900bc17412b" target="_top" xlink:title="elmercsc_load_module">
<polygon fill="none" stroke="black" points="348,-79.5 348,-98.5 464,-98.5 464,-79.5 348,-79.5"/>
<text text-anchor="middle" x="406" y="-86.5" font-family="Helvetica,sans-Serif" font-size="10.00">elmercsc_load_module</text>
</a>
</g>
</g>
<!-- Node4&#45;&gt;Node5 -->
<g id="edge4" class="edge"><title>Node4&#45;&gt;Node5</title>
<path fill="none" stroke="midnightblue" d="M321.778,-86.8477C329.902,-87.0578 338.846,-87.2891 347.766,-87.5198"/>
<polygon fill="midnightblue" stroke="midnightblue" points="321.729,-83.3454 311.641,-86.5856 321.547,-90.343 321.729,-83.3454"/>
</g>
<!-- Node6 -->
<g id="node6" class="node"><title>Node6</title>
<g id="a_node6"><a xlink:href="ElmerCSCParallel_8F90_a0068c0eef7a91d38fe8b10ac78b73971.html#a0068c0eef7a91d38fe8b10ac78b73971" target="_top" xlink:title="elmercscparallel_load\l_module">
<polygon fill="none" stroke="black" points="351,-30 351,-60 461,-60 461,-30 351,-30"/>
<text text-anchor="start" x="359" y="-48" font-family="Helvetica,sans-Serif" font-size="10.00">elmercscparallel_load</text>
<text text-anchor="middle" x="406" y="-37" font-family="Helvetica,sans-Serif" font-size="10.00">_module</text>
</a>
</g>
</g>
<!-- Node4&#45;&gt;Node6 -->
<g id="edge5" class="edge"><title>Node4&#45;&gt;Node6</title>
<path fill="none" stroke="midnightblue" d="M321.301,-74.5834C333.97,-70.1053 348.691,-64.9024 362.222,-60.1199"/>
<polygon fill="midnightblue" stroke="midnightblue" points="319.903,-71.365 311.641,-77.9975 322.236,-77.9649 319.903,-71.365"/>
</g>
<!-- Node9 -->
<g id="node9" class="node"><title>Node9</title>
<g id="a_node9"><a xlink:href="ElmerCSC_8F90_a8b10c4eb645aab66861aa1220c4adae1.html#a8b10c4eb645aab66861aa1220c4adae1" target="_top" xlink:title="run">
<polygon fill="none" stroke="black" points="273,-38.5 273,-57.5 303,-57.5 303,-38.5 273,-38.5"/>
<text text-anchor="middle" x="288" y="-45.5" font-family="Helvetica,sans-Serif" font-size="10.00">run</text>
</a>
</g>
</g>
<!-- Node8&#45;&gt;Node9 -->
<g id="edge8" class="edge"><title>Node8&#45;&gt;Node9</title>
<path fill="none" stroke="midnightblue" d="M238.159,-48C251.243,-48 263.592,-48 272.6,-48"/>
<polygon fill="midnightblue" stroke="midnightblue" points="238.055,-44.5001 228.055,-48 238.055,-51.5001 238.055,-44.5001"/>
</g>
<!-- Node9&#45;&gt;Node5 -->
<g id="edge9" class="edge"><title>Node9&#45;&gt;Node5</title>
<path fill="none" stroke="midnightblue" d="M312.627,-56.4369C323.41,-60.2805 336.347,-64.8819 348,-69 357.69,-72.4246 368.314,-76.1581 377.738,-79.4622"/>
<polygon fill="midnightblue" stroke="midnightblue" points="313.655,-53.0877 303.06,-53.0246 311.303,-59.6809 313.655,-53.0877"/>
</g>
<!-- Node9&#45;&gt;Node6 -->
<g id="edge10" class="edge"><title>Node9&#45;&gt;Node6</title>
<path fill="none" stroke="midnightblue" d="M313.28,-47.3721C324.261,-47.0881 337.713,-46.7402 350.895,-46.3993"/>
<polygon fill="midnightblue" stroke="midnightblue" points="313.13,-43.8747 303.224,-47.6321 313.311,-50.8723 313.13,-43.8747"/>
</g>
</g>
</svg>
