<?xml version="1.0" encoding="UTF-8" standalone="no"?>
<!DOCTYPE svg PUBLIC "-//W3C//DTD SVG 1.1//EN"
 "http://www.w3.org/Graphics/SVG/1.1/DTD/svg11.dtd">
<!-- Generated by graphviz version 2.30.1 (20150305.2338)
 -->
<!-- Title: FunctionEntry Pages: 1 -->
<svg width="910pt" height="283pt"
 viewBox="0.00 0.00 910.00 283.00" xmlns="http://www.w3.org/2000/svg" xmlns:xlink="http://www.w3.org/1999/xlink">
<g id="graph0" class="graph" transform="scale(1 1) rotate(0) translate(4 279)">
<title>FunctionEntry</title>
<!-- Node1 -->
<g id="node1" class="node"><title>Node1</title>
<polygon fill="#bfbfbf" stroke="black" points="0.5,-171.5 0.5,-190.5 77.5,-190.5 77.5,-171.5 0.5,-171.5"/>
<text text-anchor="middle" x="39" y="-178.5" font-family="Helvetica,sans-Serif" font-size="10.00">FunctionEntry</text>
</g>
<!-- Node2 -->
<g id="node2" class="node"><title>Node2</title>
<g id="a_node2"><a xlink:href="classfsicouplingpar_ae855141f7b214925c25f7797b8b122a8.html#ae855141f7b214925c25f7797b8b122a8" target="_top" xlink:title="fsicouplingpar::Initialize">
<polygon fill="none" stroke="black" points="114.5,-228.5 114.5,-247.5 233.5,-247.5 233.5,-228.5 114.5,-228.5"/>
<text text-anchor="middle" x="174" y="-235.5" font-family="Helvetica,sans-Serif" font-size="10.00">fsicouplingpar::Initialize</text>
</a>
</g>
</g>
<!-- Node1&#45;&gt;Node2 -->
<g id="edge1" class="edge"><title>Node1&#45;&gt;Node2</title>
<path fill="none" stroke="midnightblue" d="M65.7089,-195.512C79.7222,-203.086 97.5236,-212.17 114,-219 122.35,-222.461 131.573,-225.697 140.197,-228.482"/>
<polygon fill="midnightblue" stroke="midnightblue" points="67.1262,-192.298 56.6754,-190.557 63.7594,-198.435 67.1262,-192.298"/>
</g>
<!-- Node3 -->
<g id="node3" class="node"><title>Node3</title>
<g id="a_node3"><a xlink:href="classfsicoupling_ae855141f7b214925c25f7797b8b122a8.html#ae855141f7b214925c25f7797b8b122a8" target="_top" xlink:title="fsicoupling::Initialize">
<polygon fill="none" stroke="black" points="121.5,-152.5 121.5,-171.5 226.5,-171.5 226.5,-152.5 121.5,-152.5"/>
<text text-anchor="middle" x="174" y="-159.5" font-family="Helvetica,sans-Serif" font-size="10.00">fsicoupling::Initialize</text>
</a>
</g>
</g>
<!-- Node1&#45;&gt;Node3 -->
<g id="edge2" class="edge"><title>Node1&#45;&gt;Node3</title>
<path fill="none" stroke="midnightblue" d="M87.8806,-174.16C98.7127,-172.612 110.262,-170.963 121.246,-169.393"/>
<polygon fill="midnightblue" stroke="midnightblue" points="87.1612,-170.727 77.7567,-175.606 88.1512,-177.657 87.1612,-170.727"/>
</g>
<!-- Node16 -->
<g id="node16" class="node"><title>Node16</title>
<g id="a_node16"><a xlink:href="classfsicouplingpar_afbfb74d751085fbf8cffe83b9716b2dd.html#afbfb74d751085fbf8cffe83b9716b2dd" target="_top" xlink:title="fsicouplingpar::Run">
<polygon fill="none" stroke="black" points="123.5,-114.5 123.5,-133.5 224.5,-133.5 224.5,-114.5 123.5,-114.5"/>
<text text-anchor="middle" x="174" y="-121.5" font-family="Helvetica,sans-Serif" font-size="10.00">fsicouplingpar::Run</text>
</a>
</g>
</g>
<!-- Node1&#45;&gt;Node16 -->
<g id="edge24" class="edge"><title>Node1&#45;&gt;Node16</title>
<path fill="none" stroke="midnightblue" d="M65.7089,-166.488C79.7222,-158.914 97.5236,-149.83 114,-143 122.35,-139.539 131.573,-136.303 140.197,-133.518"/>
<polygon fill="midnightblue" stroke="midnightblue" points="63.7594,-163.565 56.6754,-171.443 67.1262,-169.702 63.7594,-163.565"/>
</g>
<!-- Node17 -->
<g id="node17" class="node"><title>Node17</title>
<g id="a_node17"><a xlink:href="classfsicoupling_afbfb74d751085fbf8cffe83b9716b2dd.html#afbfb74d751085fbf8cffe83b9716b2dd" target="_top" xlink:title="fsicoupling::Run">
<polygon fill="none" stroke="black" points="130.5,-190.5 130.5,-209.5 217.5,-209.5 217.5,-190.5 130.5,-190.5"/>
<text text-anchor="middle" x="174" y="-197.5" font-family="Helvetica,sans-Serif" font-size="10.00">fsicoupling::Run</text>
</a>
</g>
</g>
<!-- Node1&#45;&gt;Node17 -->
<g id="edge25" class="edge"><title>Node1&#45;&gt;Node17</title>
<path fill="none" stroke="midnightblue" d="M87.6789,-187.811C101.653,-189.808 116.835,-191.976 130.466,-193.924"/>
<polygon fill="midnightblue" stroke="midnightblue" points="88.1512,-184.343 77.7567,-186.394 87.1612,-191.273 88.1512,-184.343"/>
</g>
<!-- Node4 -->
<g id="node4" class="node"><title>Node4</title>
<g id="a_node4"><a xlink:href="classElmerFoamFSI_1_1SerialDriverProgram_a5803949d99491a7186bf1ee9cee81a3b.html#a5803949d99491a7186bf1ee9cee81a3b" target="_top" xlink:title="This function implements the main function executed by the program. ">
<polygon fill="none" stroke="black" points="293,-245 293,-275 433,-275 433,-245 293,-245"/>
<text text-anchor="start" x="301" y="-263" font-family="Helvetica,sans-Serif" font-size="10.00">ElmerFoamFSI::SerialDriver</text>
<text text-anchor="middle" x="363" y="-252" font-family="Helvetica,sans-Serif" font-size="10.00">Program::DriverRun</text>
</a>
</g>
</g>
<!-- Node3&#45;&gt;Node4 -->
<g id="edge3" class="edge"><title>Node3&#45;&gt;Node4</title>
<path fill="none" stroke="midnightblue" d="M226.009,-175.876C228.816,-177.412 231.505,-179.114 234,-181 257.012,-198.391 246.592,-218.145 270,-235 276.85,-239.933 284.622,-243.892 292.677,-247.07"/>
<polygon fill="midnightblue" stroke="midnightblue" points="227.276,-172.604 216.738,-171.512 224.296,-178.937 227.276,-172.604"/>
</g>
<!-- Node6 -->
<g id="node6" class="node"><title>Node6</title>
<g id="a_node6"><a xlink:href="classElmerFoamFSI_1_1TestingObject_aa7d577bcec96bb12da930ede076b6023.html#aa7d577bcec96bb12da930ede076b6023" target="_top" xlink:title="Test for fluidAgent&#45;&gt;Run() function. ">
<polygon fill="none" stroke="black" points="288.5,-98 288.5,-128 437.5,-128 437.5,-98 288.5,-98"/>
<text text-anchor="start" x="296.5" y="-116" font-family="Helvetica,sans-Serif" font-size="10.00">ElmerFoamFSI::TestingObject</text>
<text text-anchor="middle" x="363" y="-105" font-family="Helvetica,sans-Serif" font-size="10.00">::Test__FluidAgentRun</text>
</a>
</g>
</g>
<!-- Node3&#45;&gt;Node6 -->
<g id="edge5" class="edge"><title>Node3&#45;&gt;Node6</title>
<path fill="none" stroke="midnightblue" d="M220.997,-149.874C236.556,-145.778 254.031,-141.184 270,-137 281.018,-134.113 292.78,-131.039 304.084,-128.088"/>
<polygon fill="midnightblue" stroke="midnightblue" points="219.863,-146.553 211.084,-152.485 221.646,-153.323 219.863,-146.553"/>
</g>
<!-- Node12 -->
<g id="node12" class="node"><title>Node12</title>
<g id="a_node12"><a xlink:href="classElmerFoamFSI_1_1TestingObject_a07ff57097065c5066a4421176b63242b.html#a07ff57097065c5066a4421176b63242b" target="_top" xlink:title="Test the functionality of the fsiCoupler. ">
<polygon fill="none" stroke="black" points="288.5,-49 288.5,-79 437.5,-79 437.5,-49 288.5,-49"/>
<text text-anchor="start" x="296.5" y="-67" font-family="Helvetica,sans-Serif" font-size="10.00">ElmerFoamFSI::TestingObject</text>
<text text-anchor="middle" x="363" y="-56" font-family="Helvetica,sans-Serif" font-size="10.00">::Test__FsiCoupler</text>
</a>
</g>
</g>
<!-- Node3&#45;&gt;Node12 -->
<g id="edge12" class="edge"><title>Node3&#45;&gt;Node12</title>
<path fill="none" stroke="midnightblue" d="M226.168,-148.072C228.92,-146.55 231.554,-144.865 234,-143 257.233,-125.287 246.277,-105.051 270,-88 275.63,-83.9537 281.888,-80.5891 288.418,-77.7914"/>
<polygon fill="midnightblue" stroke="midnightblue" points="224.598,-144.943 217.073,-152.401 227.607,-151.263 224.598,-144.943"/>
</g>
<!-- Node13 -->
<g id="node13" class="node"><title>Node13</title>
<g id="a_node13"><a xlink:href="classElmerFoamFSI_1_1TestingObject_a1fae1ccecf337df1572d5a43cdae1a08.html#a1fae1ccecf337df1572d5a43cdae1a08" target="_top" xlink:title="Test for solidAgent&#45;&gt;Run() function. ">
<polygon fill="none" stroke="black" points="288.5,-0 288.5,-30 437.5,-30 437.5,-0 288.5,-0"/>
<text text-anchor="start" x="296.5" y="-18" font-family="Helvetica,sans-Serif" font-size="10.00">ElmerFoamFSI::TestingObject</text>
<text text-anchor="middle" x="363" y="-7" font-family="Helvetica,sans-Serif" font-size="10.00">::Test__SolidAgentRun</text>
</a>
</g>
</g>
<!-- Node3&#45;&gt;Node13 -->
<g id="edge15" class="edge"><title>Node3&#45;&gt;Node13</title>
<path fill="none" stroke="midnightblue" d="M228.758,-147.382C230.617,-146.047 232.375,-144.59 234,-143 268.96,-108.79 234.09,-72.2108 270,-39 275.332,-34.0686 281.549,-30.1234 288.189,-26.9711"/>
<polygon fill="midnightblue" stroke="midnightblue" points="226.915,-144.405 220.067,-152.489 230.462,-150.44 226.915,-144.405"/>
</g>
<!-- Node14 -->
<g id="node14" class="node"><title>Node14</title>
<g id="a_node14"><a xlink:href="classElmerFoamFSI_1_1TestingObject_abb3c0f68a2d2e212fa6e05e4628c78f0.html#abb3c0f68a2d2e212fa6e05e4628c78f0" target="_top" xlink:title="Test for fsiCoupling::TrasferDisplacementsToFluid function. ">
<polygon fill="none" stroke="black" points="270,-196 270,-226 456,-226 456,-196 270,-196"/>
<text text-anchor="start" x="278" y="-214" font-family="Helvetica,sans-Serif" font-size="10.00">ElmerFoamFSI::TestingObject</text>
<text text-anchor="middle" x="363" y="-203" font-family="Helvetica,sans-Serif" font-size="10.00">::Test__TransferDisplacementsToFluid</text>
</a>
</g>
</g>
<!-- Node3&#45;&gt;Node14 -->
<g id="edge18" class="edge"><title>Node3&#45;&gt;Node14</title>
<path fill="none" stroke="midnightblue" d="M221.184,-174.102C246.396,-180.708 277.839,-188.947 304.614,-195.963"/>
<polygon fill="midnightblue" stroke="midnightblue" points="222.06,-170.713 211.499,-171.564 220.286,-177.485 222.06,-170.713"/>
</g>
<!-- Node15 -->
<g id="node15" class="node"><title>Node15</title>
<g id="a_node15"><a xlink:href="classElmerFoamFSI_1_1TestingObject_a8c738943eca358248eb583bd29c5c332.html#a8c738943eca358248eb583bd29c5c332" target="_top" xlink:title="Test for TransferLoadsToStructures() function. ">
<polygon fill="none" stroke="black" points="277.5,-147 277.5,-177 448.5,-177 448.5,-147 277.5,-147"/>
<text text-anchor="start" x="285.5" y="-165" font-family="Helvetica,sans-Serif" font-size="10.00">ElmerFoamFSI::TestingObject</text>
<text text-anchor="middle" x="363" y="-154" font-family="Helvetica,sans-Serif" font-size="10.00">::Test__TransferLoadsToStructures</text>
</a>
</g>
</g>
<!-- Node3&#45;&gt;Node15 -->
<g id="edge21" class="edge"><title>Node3&#45;&gt;Node15</title>
<path fill="none" stroke="midnightblue" d="M236.755,-162C249.7,-162 263.567,-162 277.185,-162"/>
<polygon fill="midnightblue" stroke="midnightblue" points="236.594,-158.5 226.594,-162 236.594,-165.5 236.594,-158.5"/>
</g>
<!-- Node5 -->
<g id="node5" class="node"><title>Node5</title>
<g id="a_node5"><a xlink:href="namespaceElmerFoamFSI_aff46f457934a8e2d3712bdbfb1688e99.html#aff46f457934a8e2d3712bdbfb1688e99" target="_top" xlink:title="Unified driver for the example programs. ">
<polygon fill="none" stroke="black" points="509.5,-250.5 509.5,-269.5 624.5,-269.5 624.5,-250.5 509.5,-250.5"/>
<text text-anchor="middle" x="567" y="-257.5" font-family="Helvetica,sans-Serif" font-size="10.00">ElmerFoamFSI::Driver</text>
</a>
</g>
</g>
<!-- Node4&#45;&gt;Node5 -->
<g id="edge4" class="edge"><title>Node4&#45;&gt;Node5</title>
<path fill="none" stroke="midnightblue" d="M443.243,-260C465.284,-260 488.777,-260 509.247,-260"/>
<polygon fill="midnightblue" stroke="midnightblue" points="443.234,-256.5 433.234,-260 443.234,-263.5 443.234,-256.5"/>
</g>
<!-- Node7 -->
<g id="node7" class="node"><title>Node7</title>
<g id="a_node7"><a xlink:href="classElmerFoamFSI_1_1TestingObject_a046f7ab06db0acf616b0d2bf3d3146aa.html#a046f7ab06db0acf616b0d2bf3d3146aa" target="_top" xlink:title="Runs all tests implemented by the ElmerFoamFSI::TestingObject. ">
<polygon fill="none" stroke="black" points="492.5,-73 492.5,-103 641.5,-103 641.5,-73 492.5,-73"/>
<text text-anchor="start" x="500.5" y="-91" font-family="Helvetica,sans-Serif" font-size="10.00">ElmerFoamFSI::TestingObject</text>
<text text-anchor="middle" x="567" y="-80" font-family="Helvetica,sans-Serif" font-size="10.00">::Process</text>
</a>
</g>
</g>
<!-- Node6&#45;&gt;Node7 -->
<g id="edge6" class="edge"><title>Node6&#45;&gt;Node7</title>
<path fill="none" stroke="midnightblue" d="M447.913,-102.615C462.683,-100.787 477.955,-98.8966 492.416,-97.1069"/>
<polygon fill="midnightblue" stroke="midnightblue" points="447.278,-99.1665 437.784,-103.868 448.138,-106.113 447.278,-99.1665"/>
</g>
<!-- Node10 -->
<g id="node10" class="node"><title>Node10</title>
<g id="a_node10"><a xlink:href="classElmerFoamFSI_1_1TestingObject_af1f07f14b9af7708e4264bb38937eed2.html#af1f07f14b9af7708e4264bb38937eed2" target="_top" xlink:title="Runs a test specified by name. ">
<polygon fill="none" stroke="black" points="492.5,-122 492.5,-152 641.5,-152 641.5,-122 492.5,-122"/>
<text text-anchor="start" x="500.5" y="-140" font-family="Helvetica,sans-Serif" font-size="10.00">ElmerFoamFSI::TestingObject</text>
<text text-anchor="middle" x="567" y="-129" font-family="Helvetica,sans-Serif" font-size="10.00">::RunTest</text>
</a>
</g>
</g>
<!-- Node6&#45;&gt;Node10 -->
<g id="edge9" class="edge"><title>Node6&#45;&gt;Node10</title>
<path fill="none" stroke="midnightblue" d="M447.913,-122.97C462.683,-124.725 477.955,-126.539 492.416,-128.257"/>
<polygon fill="midnightblue" stroke="midnightblue" points="448.127,-119.471 437.784,-121.766 447.301,-126.422 448.127,-119.471"/>
</g>
<!-- Node8 -->
<g id="node8" class="node"><title>Node8</title>
<g id="a_node8"><a xlink:href="namespaceElmerFoamFSI_aeb590657609088b8ab12a5cbd164fcfa.html#aeb590657609088b8ab12a5cbd164fcfa" target="_top" xlink:title="Drives the ElmerFoamFSI::TestObject. ">
<polygon fill="none" stroke="black" points="699,-81.5 699,-100.5 807,-100.5 807,-81.5 699,-81.5"/>
<text text-anchor="middle" x="753" y="-88.5" font-family="Helvetica,sans-Serif" font-size="10.00">ElmerFoamFSI::Test</text>
</a>
</g>
</g>
<!-- Node7&#45;&gt;Node8 -->
<g id="edge7" class="edge"><title>Node7&#45;&gt;Node8</title>
<path fill="none" stroke="midnightblue" d="M651.963,-89.369C667.966,-89.6299 684.296,-89.8961 698.996,-90.1358"/>
<polygon fill="midnightblue" stroke="midnightblue" points="651.571,-85.8622 641.515,-89.1986 651.457,-92.8613 651.571,-85.8622"/>
</g>
<!-- Node9 -->
<g id="node9" class="node"><title>Node9</title>
<g id="a_node9"><a xlink:href="TestElmerFoamFSI_8C_a0ddf1224851353fc92bfbff6f499fa97.html#a0ddf1224851353fc92bfbff6f499fa97" target="_top" xlink:title="main">
<polygon fill="none" stroke="black" points="864,-81.5 864,-100.5 902,-100.5 902,-81.5 864,-81.5"/>
<text text-anchor="middle" x="883" y="-88.5" font-family="Helvetica,sans-Serif" font-size="10.00">main</text>
</a>
</g>
</g>
<!-- Node8&#45;&gt;Node9 -->
<g id="edge8" class="edge"><title>Node8&#45;&gt;Node9</title>
<path fill="none" stroke="midnightblue" d="M817.193,-91C834.293,-91 851.469,-91 863.838,-91"/>
<polygon fill="midnightblue" stroke="midnightblue" points="817.172,-87.5001 807.172,-91 817.171,-94.5001 817.172,-87.5001"/>
</g>
<!-- Node11 -->
<g id="node11" class="node"><title>Node11</title>
<g id="a_node11"><a xlink:href="classElmerFoamFSI_1_1TestingObject_a21159bd2efac623e5a5079f6a20f3444.html#a21159bd2efac623e5a5079f6a20f3444" target="_top" xlink:title="Runs a list of tests specified by name. ">
<polygon fill="none" stroke="black" points="678.5,-122 678.5,-152 827.5,-152 827.5,-122 678.5,-122"/>
<text text-anchor="start" x="686.5" y="-140" font-family="Helvetica,sans-Serif" font-size="10.00">ElmerFoamFSI::TestingObject</text>
<text text-anchor="middle" x="753" y="-129" font-family="Helvetica,sans-Serif" font-size="10.00">::ProcessTests</text>
</a>
</g>
</g>
<!-- Node10&#45;&gt;Node11 -->
<g id="edge10" class="edge"><title>Node10&#45;&gt;Node11</title>
<path fill="none" stroke="midnightblue" d="M651.533,-137C660.462,-137 669.498,-137 678.302,-137"/>
<polygon fill="midnightblue" stroke="midnightblue" points="651.515,-133.5 641.515,-137 651.515,-140.5 651.515,-133.5"/>
</g>
<!-- Node10&#45;&gt;Node8 -->
<g id="edge11" class="edge"><title>Node10&#45;&gt;Node8</title>
<path fill="none" stroke="midnightblue" d="M637.986,-119.503C663.754,-113.061 691.97,-106.008 713.886,-100.529"/>
<polygon fill="midnightblue" stroke="midnightblue" points="637.101,-116.117 628.248,-121.938 638.799,-122.908 637.101,-116.117"/>
</g>
<!-- Node12&#45;&gt;Node7 -->
<g id="edge13" class="edge"><title>Node12&#45;&gt;Node7</title>
<path fill="none" stroke="midnightblue" d="M447.913,-73.9699C462.683,-75.7247 477.955,-77.5392 492.416,-79.2573"/>
<polygon fill="midnightblue" stroke="midnightblue" points="448.127,-70.4708 437.784,-72.7664 447.301,-77.4219 448.127,-70.4708"/>
</g>
<!-- Node12&#45;&gt;Node10 -->
<g id="edge14" class="edge"><title>Node12&#45;&gt;Node10</title>
<path fill="none" stroke="midnightblue" d="M441.716,-82.269C446.611,-84.0337 451.411,-85.9419 456,-88 473.546,-95.869 474.743,-103.516 492,-112 499.423,-115.649 507.511,-118.979 515.524,-121.934"/>
<polygon fill="midnightblue" stroke="midnightblue" points="442.808,-78.9436 432.213,-79.0502 440.562,-85.5736 442.808,-78.9436"/>
</g>
<!-- Node13&#45;&gt;Node7 -->
<g id="edge16" class="edge"><title>Node13&#45;&gt;Node7</title>
<path fill="none" stroke="midnightblue" d="M437.288,-32.9503C443.657,-34.8624 449.969,-36.8859 456,-39 483.621,-48.6814 513.93,-62.4283 535.725,-72.8986"/>
<polygon fill="midnightblue" stroke="midnightblue" points="437.844,-29.4672 427.265,-30.0403 435.892,-36.1896 437.844,-29.4672"/>
</g>
<!-- Node13&#45;&gt;Node10 -->
<g id="edge17" class="edge"><title>Node13&#45;&gt;Node10</title>
<path fill="none" stroke="midnightblue" d="M446.66,-32.532C449.944,-34.4691 453.077,-36.6175 456,-39 484.04,-61.8566 464.785,-88.1678 492,-112 496.387,-115.841 501.388,-119.098 506.673,-121.857"/>
<polygon fill="midnightblue" stroke="midnightblue" points="448.15,-29.3624 437.659,-27.8822 444.937,-35.5816 448.15,-29.3624"/>
</g>
<!-- Node14&#45;&gt;Node7 -->
<g id="edge19" class="edge"><title>Node14&#45;&gt;Node7</title>
<path fill="none" stroke="midnightblue" d="M449.511,-190.786C451.766,-189.302 453.936,-187.709 456,-186 484.169,-162.672 464.403,-136.001 492,-112 495.975,-108.543 500.455,-105.583 505.196,-103.048"/>
<polygon fill="midnightblue" stroke="midnightblue" points="447.368,-187.98 440.435,-195.991 450.851,-194.052 447.368,-187.98"/>
</g>
<!-- Node14&#45;&gt;Node10 -->
<g id="edge20" class="edge"><title>Node14&#45;&gt;Node10</title>
<path fill="none" stroke="midnightblue" d="M434.667,-192.989C441.92,-190.786 449.14,-188.444 456,-186 483.572,-176.179 513.885,-162.445 535.695,-152.015"/>
<polygon fill="midnightblue" stroke="midnightblue" points="433.387,-189.718 424.786,-195.905 435.368,-196.432 433.387,-189.718"/>
</g>
<!-- Node15&#45;&gt;Node7 -->
<g id="edge22" class="edge"><title>Node15&#45;&gt;Node7</title>
<path fill="none" stroke="midnightblue" d="M440.176,-143.525C445.61,-141.532 450.937,-139.36 456,-137 473.656,-128.771 474.548,-120.653 492,-112 498.655,-108.7 505.866,-105.71 513.087,-103.05"/>
<polygon fill="midnightblue" stroke="midnightblue" points="438.631,-140.356 430.315,-146.921 440.91,-146.974 438.631,-140.356"/>
</g>
<!-- Node15&#45;&gt;Node10 -->
<g id="edge23" class="edge"><title>Node15&#45;&gt;Node10</title>
<path fill="none" stroke="midnightblue" d="M459.02,-150.24C470.209,-148.855 481.496,-147.458 492.329,-146.118"/>
<polygon fill="midnightblue" stroke="midnightblue" points="458.283,-146.805 448.788,-151.506 459.142,-153.752 458.283,-146.805"/>
</g>
<!-- Node17&#45;&gt;Node4 -->
<g id="edge26" class="edge"><title>Node17&#45;&gt;Node4</title>
<path fill="none" stroke="midnightblue" d="M216.542,-212.761C222.438,-214.751 228.397,-216.86 234,-219 250.356,-225.248 253.504,-229.132 270,-235 279.98,-238.55 290.72,-241.888 301.217,-244.897"/>
<polygon fill="midnightblue" stroke="midnightblue" points="217.348,-209.342 206.755,-209.541 215.16,-215.991 217.348,-209.342"/>
</g>
</g>
</svg>
