<?xml version="1.0" encoding="UTF-8" standalone="no"?>
<!DOCTYPE svg PUBLIC "-//W3C//DTD SVG 1.1//EN"
 "http://www.w3.org/Graphics/SVG/1.1/DTD/svg11.dtd">
<!-- Generated by graphviz version 2.30.1 (20150305.2338)
 -->
<!-- Title: get_opposite_real_edge Pages: 1 -->
<svg width="266pt" height="66pt"
 viewBox="0.00 0.00 266.00 66.00" xmlns="http://www.w3.org/2000/svg" xmlns:xlink="http://www.w3.org/1999/xlink">
<g id="graph0" class="graph" transform="scale(1 1) rotate(0) translate(4 62)">
<title>get_opposite_real_edge</title>
<!-- Node1 -->
<g id="node1" class="node"><title>Node1</title>
<polygon fill="#bfbfbf" stroke="black" points="0.5,-19.5 0.5,-38.5 119.5,-38.5 119.5,-19.5 0.5,-19.5"/>
<text text-anchor="middle" x="60" y="-26.5" font-family="Helvetica,sans-Serif" font-size="10.00">get_opposite_real_edge</text>
</g>
<!-- Node2 -->
<g id="node2" class="node"><title>Node2</title>
<g id="a_node2"><a xlink:href="classSimple__manifold__2_a34afa4fb2467f7b53bfb153b728f08e0.html#a34afa4fb2467f7b53bfb153b728f08e0" target="_top" xlink:title="Get the ID of the next real edge of the element or along the boundary. ">
<polygon fill="none" stroke="black" points="156.5,-38.5 156.5,-57.5 257.5,-57.5 257.5,-38.5 156.5,-38.5"/>
<text text-anchor="middle" x="207" y="-45.5" font-family="Helvetica,sans-Serif" font-size="10.00">get_next_real_edge</text>
</a>
</g>
</g>
<!-- Node1&#45;&gt;Node2 -->
<g id="edge1" class="edge"><title>Node1&#45;&gt;Node2</title>
<path fill="none" stroke="midnightblue" d="M129.58,-37.9864C138.512,-39.1567 147.523,-40.3375 156.069,-41.4573"/>
<polygon fill="midnightblue" stroke="midnightblue" points="129.929,-34.5023 119.559,-36.6733 129.02,-41.4429 129.929,-34.5023"/>
</g>
<!-- Node3 -->
<g id="node3" class="node"><title>Node3</title>
<g id="a_node3"><a xlink:href="classSimple__manifold__2_ab2686d48e0f5957e3414e5e474803831.html#ab2686d48e0f5957e3414e5e474803831" target="_top" xlink:title="Get the ID of the previous real edge of the element or along the boundary. ">
<polygon fill="none" stroke="black" points="156.5,-0.5 156.5,-19.5 257.5,-19.5 257.5,-0.5 156.5,-0.5"/>
<text text-anchor="middle" x="207" y="-7.5" font-family="Helvetica,sans-Serif" font-size="10.00">get_prev_real_edge</text>
</a>
</g>
</g>
<!-- Node1&#45;&gt;Node3 -->
<g id="edge2" class="edge"><title>Node1&#45;&gt;Node3</title>
<path fill="none" stroke="midnightblue" d="M129.58,-20.0136C138.512,-18.8433 147.523,-17.6625 156.069,-16.5427"/>
<polygon fill="midnightblue" stroke="midnightblue" points="129.02,-16.5571 119.559,-21.3267 129.929,-23.4977 129.02,-16.5571"/>
</g>
</g>
</svg>
