<?xml version="1.0" encoding="UTF-8" standalone="no"?>
<!DOCTYPE svg PUBLIC "-//W3C//DTD SVG 1.1//EN"
 "http://www.w3.org/Graphics/SVG/1.1/DTD/svg11.dtd">
<!-- Generated by graphviz version 2.30.1 (20150305.2338)
 -->
<!-- Title: menuString Pages: 1 -->
<svg width="180pt" height="66pt"
 viewBox="0.00 0.00 180.00 66.00" xmlns="http://www.w3.org/2000/svg" xmlns:xlink="http://www.w3.org/1999/xlink">
<g id="graph0" class="graph" transform="scale(1 1) rotate(0) translate(4 62)">
<title>menuString</title>
<!-- Node1 -->
<g id="node1" class="node"><title>Node1</title>
<polygon fill="#bfbfbf" stroke="black" points="0,-19.5 0,-38.5 66,-38.5 66,-19.5 0,-19.5"/>
<text text-anchor="middle" x="33" y="-26.5" font-family="Helvetica,sans-Serif" font-size="10.00">menuString</text>
</g>
<!-- Node2 -->
<g id="node2" class="node"><title>Node2</title>
<g id="a_node2"><a xlink:href="classIRAD_1_1Util_1_1MenuObject_aedde665e5d67dc31537c30867c6c9b3a.html#aedde665e5d67dc31537c30867c6c9b3a" target="_top" xlink:title="centerString">
<polygon fill="none" stroke="black" points="102.5,-38.5 102.5,-57.5 171.5,-57.5 171.5,-38.5 102.5,-38.5"/>
<text text-anchor="middle" x="137" y="-45.5" font-family="Helvetica,sans-Serif" font-size="10.00">centerString</text>
</a>
</g>
</g>
<!-- Node1&#45;&gt;Node2 -->
<g id="edge1" class="edge"><title>Node1&#45;&gt;Node2</title>
<path fill="none" stroke="midnightblue" d="M66.2734,-35.0117C74.4956,-36.5433 83.4718,-38.2153 92.1647,-39.8346"/>
<polygon fill="midnightblue" stroke="midnightblue" points="91.7053,-43.3092 102.177,-41.6997 92.9872,-36.4275 91.7053,-43.3092"/>
</g>
<!-- Node3 -->
<g id="node3" class="node"><title>Node3</title>
<g id="a_node3"><a xlink:href="classIRAD_1_1Util_1_1MenuObject_aa239c84490481f8c54a9c6f7961acc6c.html#aa239c84490481f8c54a9c6f7961acc6c" target="_top" xlink:title="hRule">
<polygon fill="none" stroke="black" points="116,-0.5 116,-19.5 158,-19.5 158,-0.5 116,-0.5"/>
<text text-anchor="middle" x="137" y="-7.5" font-family="Helvetica,sans-Serif" font-size="10.00">hRule</text>
</a>
</g>
</g>
<!-- Node1&#45;&gt;Node3 -->
<g id="edge2" class="edge"><title>Node1&#45;&gt;Node3</title>
<path fill="none" stroke="midnightblue" d="M66.2734,-22.9883C78.9496,-20.627 93.4181,-17.9319 105.877,-15.6111"/>
<polygon fill="midnightblue" stroke="midnightblue" points="106.597,-19.0373 115.787,-13.7651 105.315,-12.1557 106.597,-19.0373"/>
</g>
</g>
</svg>
