<?xml version="1.0" encoding="UTF-8" standalone="no"?>
<!DOCTYPE svg PUBLIC "-//W3C//DTD SVG 1.1//EN"
 "http://www.w3.org/Graphics/SVG/1.1/DTD/svg11.dtd">
<!-- Generated by graphviz version 2.30.1 (20150305.2338)
 -->
<!-- Title: Vector_3 Pages: 1 -->
<svg width="228pt" height="191pt"
 viewBox="0.00 0.00 228.00 191.00" xmlns="http://www.w3.org/2000/svg" xmlns:xlink="http://www.w3.org/1999/xlink">
<g id="graph0" class="graph" transform="scale(1 1) rotate(0) translate(4 187)">
<title>Vector_3</title>
<!-- Node1 -->
<g id="node1" class="node"><title>Node1</title>
<polygon fill="#bfbfbf" stroke="black" points="0,-76.5 0,-95.5 56,-95.5 56,-76.5 0,-76.5"/>
<text text-anchor="middle" x="28" y="-83.5" font-family="Helvetica,sans-Serif" font-size="10.00">Vector_3</text>
</g>
<!-- Node2 -->
<g id="node2" class="node"><title>Node2</title>
<g id="a_node2"><a xlink:href="classVector__3_aa8b58e0e93d63afb1387a36b49d7d16f.html#aa8b58e0e93d63afb1387a36b49d7d16f" target="_top" xlink:title="Vector_3\&lt; T \&gt;::cross\l_product">
<polygon fill="none" stroke="black" points="101,-153 101,-183 211,-183 211,-153 101,-153"/>
<text text-anchor="start" x="109" y="-171" font-family="Helvetica,sans-Serif" font-size="10.00">Vector_3&lt; T &gt;::cross</text>
<text text-anchor="middle" x="156" y="-160" font-family="Helvetica,sans-Serif" font-size="10.00">_product</text>
</a>
</g>
</g>
<!-- Node1&#45;&gt;Node2 -->
<g id="edge1" class="edge"><title>Node1&#45;&gt;Node2</title>
<path fill="none" stroke="midnightblue" d="M44.5874,-103.069C56.5977,-115.438 74.1248,-131.878 92,-143 97.8947,-146.668 104.419,-149.973 110.969,-152.888"/>
<polygon fill="midnightblue" stroke="midnightblue" points="46.9588,-100.483 37.5434,-95.6247 41.8743,-105.294 46.9588,-100.483"/>
</g>
<!-- Node3 -->
<g id="node3" class="node"><title>Node3</title>
<g id="a_node3"><a xlink:href="classVector__3_aac59e0c8408b069dc0220bec9e1e4876.html#aac59e0c8408b069dc0220bec9e1e4876" target="_top" xlink:title="Vector_3\&lt; T \&gt;::operator*">
<polygon fill="none" stroke="black" points="93.5,-114.5 93.5,-133.5 218.5,-133.5 218.5,-114.5 93.5,-114.5"/>
<text text-anchor="middle" x="156" y="-121.5" font-family="Helvetica,sans-Serif" font-size="10.00">Vector_3&lt; T &gt;::operator*</text>
</a>
</g>
</g>
<!-- Node1&#45;&gt;Node3 -->
<g id="edge2" class="edge"><title>Node1&#45;&gt;Node3</title>
<path fill="none" stroke="midnightblue" d="M65.7153,-97.0729C83.8969,-102.556 105.637,-109.113 123.113,-114.383"/>
<polygon fill="midnightblue" stroke="midnightblue" points="66.6149,-93.6885 56.0302,-94.152 64.5936,-100.39 66.6149,-93.6885"/>
</g>
<!-- Node4 -->
<g id="node4" class="node"><title>Node4</title>
<g id="a_node4"><a xlink:href="classVector__3_a213f07e696878494958befb896a3955f.html#a213f07e696878494958befb896a3955f" target="_top" xlink:title="Arithmatic operators. ">
<polygon fill="none" stroke="black" points="92.5,-76.5 92.5,-95.5 219.5,-95.5 219.5,-76.5 92.5,-76.5"/>
<text text-anchor="middle" x="156" y="-83.5" font-family="Helvetica,sans-Serif" font-size="10.00">Vector_3&lt; T &gt;::operator+</text>
</a>
</g>
</g>
<!-- Node1&#45;&gt;Node4 -->
<g id="edge3" class="edge"><title>Node1&#45;&gt;Node4</title>
<path fill="none" stroke="midnightblue" d="M66.0573,-86C74.3215,-86 83.3074,-86 92.2855,-86"/>
<polygon fill="midnightblue" stroke="midnightblue" points="66.0302,-82.5001 56.0302,-86 66.0301,-89.5001 66.0302,-82.5001"/>
</g>
<!-- Node5 -->
<g id="node5" class="node"><title>Node5</title>
<g id="a_node5"><a xlink:href="classVector__3_ada63cae77092de14ca4b320fcb19b1a2.html#ada63cae77092de14ca4b320fcb19b1a2" target="_top" xlink:title="Vector_3\&lt; T \&gt;::operator&#45;">
<polygon fill="none" stroke="black" points="94,-38.5 94,-57.5 218,-57.5 218,-38.5 94,-38.5"/>
<text text-anchor="middle" x="156" y="-45.5" font-family="Helvetica,sans-Serif" font-size="10.00">Vector_3&lt; T &gt;::operator&#45;</text>
</a>
</g>
</g>
<!-- Node1&#45;&gt;Node5 -->
<g id="edge4" class="edge"><title>Node1&#45;&gt;Node5</title>
<path fill="none" stroke="midnightblue" d="M65.7153,-74.9271C83.8969,-69.4438 105.637,-62.8871 123.113,-57.6166"/>
<polygon fill="midnightblue" stroke="midnightblue" points="64.5936,-71.6096 56.0302,-77.848 66.6149,-78.3115 64.5936,-71.6096"/>
</g>
<!-- Node6 -->
<g id="node6" class="node"><title>Node6</title>
<g id="a_node6"><a xlink:href="classVector__3_a4d6a49cbf57ed578adce4fb2f634b354.html#a4d6a49cbf57ed578adce4fb2f634b354" target="_top" xlink:title="Vector_3\&lt; T \&gt;::operator/">
<polygon fill="none" stroke="black" points="94,-0.5 94,-19.5 218,-19.5 218,-0.5 94,-0.5"/>
<text text-anchor="middle" x="156" y="-7.5" font-family="Helvetica,sans-Serif" font-size="10.00">Vector_3&lt; T &gt;::operator/</text>
</a>
</g>
</g>
<!-- Node1&#45;&gt;Node6 -->
<g id="edge5" class="edge"><title>Node1&#45;&gt;Node6</title>
<path fill="none" stroke="midnightblue" d="M44.3198,-68.4801C56.1945,-55.8819 73.6692,-39.3542 92,-29 98.7639,-25.1794 106.38,-22.0479 113.917,-19.509"/>
<polygon fill="midnightblue" stroke="midnightblue" points="41.5317,-66.3428 37.3724,-76.087 46.7005,-71.0634 41.5317,-66.3428"/>
</g>
</g>
</svg>
