<?xml version="1.0" encoding="UTF-8" standalone="no"?>
<!DOCTYPE svg PUBLIC "-//W3C//DTD SVG 1.1//EN"
 "http://www.w3.org/Graphics/SVG/1.1/DTD/svg11.dtd">
<!-- Generated by graphviz version 2.30.1 (20150305.2338)
 -->
<!-- Title: size_of_edges Pages: 1 -->
<svg width="220pt" height="77pt"
 viewBox="0.00 0.00 220.00 77.00" xmlns="http://www.w3.org/2000/svg" xmlns:xlink="http://www.w3.org/1999/xlink">
<g id="graph0" class="graph" transform="scale(1 1) rotate(0) translate(4 73)">
<title>size_of_edges</title>
<!-- Node1 -->
<g id="node1" class="node"><title>Node1</title>
<polygon fill="#bfbfbf" stroke="black" points="0,-27.5 0,-46.5 80,-46.5 80,-27.5 0,-27.5"/>
<text text-anchor="middle" x="40" y="-34.5" font-family="Helvetica,sans-Serif" font-size="10.00">size_of_edges</text>
</g>
<!-- Node2 -->
<g id="node2" class="node"><title>Node2</title>
<g id="a_node2"><a xlink:href="classPane_ae5acbe47d704ceb866e3717e2ac9422f.html#ae5acbe47d704ceb866e3717e2ac9422f" target="_top" xlink:title="Dimension of the pane. ">
<polygon fill="none" stroke="black" points="119.5,-49.5 119.5,-68.5 208.5,-68.5 208.5,-49.5 119.5,-49.5"/>
<text text-anchor="middle" x="164" y="-56.5" font-family="Helvetica,sans-Serif" font-size="10.00">Pane::dimension</text>
</a>
</g>
</g>
<!-- Node1&#45;&gt;Node2 -->
<g id="edge1" class="edge"><title>Node1&#45;&gt;Node2</title>
<path fill="none" stroke="midnightblue" d="M80.2731,-44.082C89.4755,-45.7415 99.4367,-47.5378 109.152,-49.2898"/>
<polygon fill="midnightblue" stroke="midnightblue" points="108.684,-52.7617 119.146,-51.092 109.926,-45.8728 108.684,-52.7617"/>
</g>
<!-- Node3 -->
<g id="node3" class="node"><title>Node3</title>
<g id="a_node3"><a xlink:href="classConnectivity_a85e2c3a17c45bc48b5613929dedb216a.html#a85e2c3a17c45bc48b5613929dedb216a" target="_top" xlink:title="Get the number of edges per element of the current connectivity table. ">
<polygon fill="none" stroke="black" points="116.5,-0 116.5,-30 211.5,-30 211.5,-0 116.5,-0"/>
<text text-anchor="start" x="124.5" y="-18" font-family="Helvetica,sans-Serif" font-size="10.00">Connectivity::size</text>
<text text-anchor="middle" x="164" y="-7" font-family="Helvetica,sans-Serif" font-size="10.00">_of_edges_pe</text>
</a>
</g>
</g>
<!-- Node1&#45;&gt;Node3 -->
<g id="edge2" class="edge"><title>Node1&#45;&gt;Node3</title>
<path fill="none" stroke="midnightblue" d="M80.2731,-29.918C88.5732,-28.4212 97.4906,-26.8132 106.288,-25.2267"/>
<polygon fill="midnightblue" stroke="midnightblue" points="106.911,-28.6709 116.131,-23.4517 105.669,-21.782 106.911,-28.6709"/>
</g>
</g>
</svg>
