<?xml version="1.0" encoding="UTF-8" standalone="no"?>
<!DOCTYPE svg PUBLIC "-//W3C//DTD SVG 1.1//EN"
 "http://www.w3.org/Graphics/SVG/1.1/DTD/svg11.dtd">
<!-- Generated by graphviz version 2.30.1 (20150305.2338)
 -->
<!-- Title: get_object Pages: 1 -->
<svg width="538pt" height="38pt"
 viewBox="0.00 0.00 538.00 38.00" xmlns="http://www.w3.org/2000/svg" xmlns:xlink="http://www.w3.org/1999/xlink">
<g id="graph0" class="graph" transform="scale(1 1) rotate(0) translate(4 34)">
<title>get_object</title>
<!-- Node1 -->
<g id="node1" class="node"><title>Node1</title>
<polygon fill="#bfbfbf" stroke="black" points="0,-5.5 0,-24.5 62,-24.5 62,-5.5 0,-5.5"/>
<text text-anchor="middle" x="31" y="-12.5" font-family="Helvetica,sans-Serif" font-size="10.00">get_object</text>
</g>
<!-- Node2 -->
<g id="node2" class="node"><title>Node2</title>
<g id="a_node2"><a xlink:href="com__c_09_09_8hpp_a51cd80e32371211a6a01185579eff4ee.html#a51cd80e32371211a6a01185579eff4ee" target="_top" xlink:title="COM_get_object">
<polygon fill="none" stroke="black" points="98,-5.5 98,-24.5 188,-24.5 188,-5.5 98,-5.5"/>
<text text-anchor="middle" x="143" y="-12.5" font-family="Helvetica,sans-Serif" font-size="10.00">COM_get_object</text>
</a>
</g>
</g>
<!-- Node1&#45;&gt;Node2 -->
<g id="edge1" class="edge"><title>Node1&#45;&gt;Node2</title>
<path fill="none" stroke="midnightblue" d="M72.304,-15C80.649,-15 89.4811,-15 97.952,-15"/>
<polygon fill="midnightblue" stroke="midnightblue" points="72.058,-11.5001 62.058,-15 72.0579,-18.5001 72.058,-11.5001"/>
</g>
<!-- Node3 -->
<g id="node3" class="node"><title>Node3</title>
<g id="a_node3"><a xlink:href="classIcoFoamMod_1_1IcoFoamModule_a1103cacab6c0af000e9c5aa579a3fc5f.html#a1103cacab6c0af000e9c5aa579a3fc5f" target="_top" xlink:title="Unloads the IcoFoamModule. ">
<polygon fill="none" stroke="black" points="224.5,-0 224.5,-30 373.5,-30 373.5,-0 224.5,-0"/>
<text text-anchor="start" x="232.5" y="-18" font-family="Helvetica,sans-Serif" font-size="10.00">IcoFoamMod::IcoFoamModule</text>
<text text-anchor="middle" x="299" y="-7" font-family="Helvetica,sans-Serif" font-size="10.00">::Unload</text>
</a>
</g>
</g>
<!-- Node2&#45;&gt;Node3 -->
<g id="edge2" class="edge"><title>Node2&#45;&gt;Node3</title>
<path fill="none" stroke="midnightblue" d="M198.26,-15C206.755,-15 215.656,-15 224.496,-15"/>
<polygon fill="midnightblue" stroke="midnightblue" points="198.13,-11.5001 188.13,-15 198.13,-18.5001 198.13,-11.5001"/>
</g>
<!-- Node4 -->
<g id="node4" class="node"><title>Node4</title>
<g id="a_node4"><a xlink:href="icoFoamModule_8C_ad3161c274f0cecf37126d9a51b82f9df.html#ad3161c274f0cecf37126d9a51b82f9df" target="_top" xlink:title="C/C++ bindings to unload IcoFoamModule. ">
<polygon fill="none" stroke="black" points="410,-0 410,-30 530,-30 530,-0 410,-0"/>
<text text-anchor="start" x="418" y="-18" font-family="Helvetica,sans-Serif" font-size="10.00">IcoFoamModule_unload</text>
<text text-anchor="middle" x="470" y="-7" font-family="Helvetica,sans-Serif" font-size="10.00">_module</text>
</a>
</g>
</g>
<!-- Node3&#45;&gt;Node4 -->
<g id="edge3" class="edge"><title>Node3&#45;&gt;Node4</title>
<path fill="none" stroke="midnightblue" d="M383.89,-15C392.65,-15 401.418,-15 409.818,-15"/>
<polygon fill="midnightblue" stroke="midnightblue" points="383.634,-11.5001 373.634,-15 383.634,-18.5001 383.634,-11.5001"/>
</g>
</g>
</svg>
