<?xml version="1.0" encoding="UTF-8" standalone="no"?>
<!DOCTYPE svg PUBLIC "-//W3C//DTD SVG 1.1//EN"
 "http://www.w3.org/Graphics/SVG/1.1/DTD/svg11.dtd">
<!-- Generated by graphviz version 2.30.1 (20150305.2338)
 -->
<!-- Title: CPlane Pages: 1 -->
<svg width="350pt" height="196pt"
 viewBox="0.00 0.00 350.00 196.00" xmlns="http://www.w3.org/2000/svg" xmlns:xlink="http://www.w3.org/1999/xlink">
<g id="graph0" class="graph" transform="scale(1 1) rotate(0) translate(4 192)">
<title>CPlane</title>
<!-- Node1 -->
<g id="node1" class="node"><title>Node1</title>
<polygon fill="#bfbfbf" stroke="black" points="0.5,-92.5 0.5,-111.5 49.5,-111.5 49.5,-92.5 0.5,-92.5"/>
<text text-anchor="middle" x="25" y="-99.5" font-family="Helvetica,sans-Serif" font-size="10.00">CPlane</text>
</g>
<!-- Node2 -->
<g id="node2" class="node"><title>Node2</title>
<g id="a_node2"><a xlink:href="classSolverUtils_1_1GeoPrim_1_1CPlane_ac4f18a9c2e73cc8e9511e43d3b22ce80.html#ac4f18a9c2e73cc8e9511e43d3b22ce80" target="_top" xlink:title="A">
<polygon fill="none" stroke="black" points="126.5,-168.5 126.5,-187.5 155.5,-187.5 155.5,-168.5 126.5,-168.5"/>
<text text-anchor="middle" x="141" y="-175.5" font-family="Helvetica,sans-Serif" font-size="10.00">A</text>
</a>
</g>
</g>
<!-- Node1&#45;&gt;Node2 -->
<g id="edge1" class="edge"><title>Node1&#45;&gt;Node2</title>
<path fill="none" stroke="midnightblue" d="M35.4669,-111.806C46.7234,-123.066 66.4557,-141.578 86,-154 95.5108,-160.045 106.802,-165.321 116.594,-169.375"/>
<polygon fill="midnightblue" stroke="midnightblue" points="115.532,-172.718 126.119,-173.138 118.105,-166.208 115.532,-172.718"/>
</g>
<!-- Node4 -->
<g id="node4" class="node"><title>Node4</title>
<g id="a_node4"><a xlink:href="classSolverUtils_1_1GeoPrim_1_1CPlane_a6aaa91e00285e78459a764d961d00bed.html#a6aaa91e00285e78459a764d961d00bed" target="_top" xlink:title="B">
<polygon fill="none" stroke="black" points="126.5,-92.5 126.5,-111.5 155.5,-111.5 155.5,-92.5 126.5,-92.5"/>
<text text-anchor="middle" x="141" y="-99.5" font-family="Helvetica,sans-Serif" font-size="10.00">B</text>
</a>
</g>
</g>
<!-- Node1&#45;&gt;Node4 -->
<g id="edge3" class="edge"><title>Node1&#45;&gt;Node4</title>
<path fill="none" stroke="midnightblue" d="M49.6209,-102C69.1199,-102 96.6653,-102 116.21,-102"/>
<polygon fill="midnightblue" stroke="midnightblue" points="116.408,-105.5 126.408,-102 116.408,-98.5001 116.408,-105.5"/>
</g>
<!-- Node6 -->
<g id="node6" class="node"><title>Node6</title>
<g id="a_node6"><a xlink:href="classSolverUtils_1_1GeoPrim_1_1CPlane_ac2b85d173d93d73bad18231955331468.html#ac2b85d173d93d73bad18231955331468" target="_top" xlink:title="C">
<polygon fill="none" stroke="black" points="126.5,-54.5 126.5,-73.5 155.5,-73.5 155.5,-54.5 126.5,-54.5"/>
<text text-anchor="middle" x="141" y="-61.5" font-family="Helvetica,sans-Serif" font-size="10.00">C</text>
</a>
</g>
</g>
<!-- Node1&#45;&gt;Node6 -->
<g id="edge5" class="edge"><title>Node1&#45;&gt;Node6</title>
<path fill="none" stroke="midnightblue" d="M49.6209,-94.1264C69.3012,-87.5663 97.1785,-78.2738 116.754,-71.7487"/>
<polygon fill="midnightblue" stroke="midnightblue" points="118.028,-75.0134 126.408,-68.5306 115.814,-68.3726 118.028,-75.0134"/>
</g>
<!-- Node8 -->
<g id="node8" class="node"><title>Node8</title>
<g id="a_node8"><a xlink:href="classSolverUtils_1_1GeoPrim_1_1CVector_a0126d0fe9bd09bf10febcb659a2bf1a6.html#a0126d0fe9bd09bf10febcb659a2bf1a6" target="_top" xlink:title="SolverUtils::GeoPrim\l::CVector::normalize">
<polygon fill="none" stroke="black" points="86.5,-3 86.5,-33 195.5,-33 195.5,-3 86.5,-3"/>
<text text-anchor="start" x="94.5" y="-21" font-family="Helvetica,sans-Serif" font-size="10.00">SolverUtils::GeoPrim</text>
<text text-anchor="middle" x="141" y="-10" font-family="Helvetica,sans-Serif" font-size="10.00">::CVector::normalize</text>
</a>
</g>
</g>
<!-- Node1&#45;&gt;Node8 -->
<g id="edge7" class="edge"><title>Node1&#45;&gt;Node8</title>
<path fill="none" stroke="midnightblue" d="M34.6058,-92.2004C45.6381,-80.044 65.7685,-59.1916 86,-45 89.4753,-42.5622 93.2025,-40.22 97.0149,-38.0042"/>
<polygon fill="midnightblue" stroke="midnightblue" points="98.9061,-40.9587 105.987,-33.0776 95.5368,-34.8229 98.9061,-40.9587"/>
</g>
<!-- Node3 -->
<g id="node3" class="node"><title>Node3</title>
<g id="a_node3"><a xlink:href="classSolverUtils_1_1GeoPrim_1_1CVector_a3b195b867437acf8de45f48c83e81932.html#a3b195b867437acf8de45f48c83e81932" target="_top" xlink:title="SolverUtils::GeoPrim\l::CVector::x">
<polygon fill="none" stroke="black" points="232.5,-155 232.5,-185 341.5,-185 341.5,-155 232.5,-155"/>
<text text-anchor="start" x="240.5" y="-173" font-family="Helvetica,sans-Serif" font-size="10.00">SolverUtils::GeoPrim</text>
<text text-anchor="middle" x="287" y="-162" font-family="Helvetica,sans-Serif" font-size="10.00">::CVector::x</text>
</a>
</g>
</g>
<!-- Node1&#45;&gt;Node3 -->
<g id="edge9" class="edge"><title>Node1&#45;&gt;Node3</title>
<path fill="none" stroke="midnightblue" d="M49.544,-109.854C60.5649,-113.428 73.9015,-117.606 86,-121 131.376,-133.728 183.054,-146.341 222.512,-155.582"/>
<polygon fill="midnightblue" stroke="midnightblue" points="221.735,-158.995 232.269,-157.857 223.325,-152.178 221.735,-158.995"/>
</g>
<!-- Node2&#45;&gt;Node3 -->
<g id="edge2" class="edge"><title>Node2&#45;&gt;Node3</title>
<path fill="none" stroke="midnightblue" d="M155.547,-177.247C170.931,-176.393 197.137,-174.937 222.042,-173.553"/>
<polygon fill="midnightblue" stroke="midnightblue" points="222.441,-177.037 232.231,-172.987 222.052,-170.047 222.441,-177.037"/>
</g>
<!-- Node5 -->
<g id="node5" class="node"><title>Node5</title>
<g id="a_node5"><a xlink:href="classSolverUtils_1_1GeoPrim_1_1CVector_ad927d9808ded1fc49c05ae9e1a3ed2a6.html#ad927d9808ded1fc49c05ae9e1a3ed2a6" target="_top" xlink:title="SolverUtils::GeoPrim\l::CVector::y">
<polygon fill="none" stroke="black" points="232.5,-98 232.5,-128 341.5,-128 341.5,-98 232.5,-98"/>
<text text-anchor="start" x="240.5" y="-116" font-family="Helvetica,sans-Serif" font-size="10.00">SolverUtils::GeoPrim</text>
<text text-anchor="middle" x="287" y="-105" font-family="Helvetica,sans-Serif" font-size="10.00">::CVector::y</text>
</a>
</g>
</g>
<!-- Node4&#45;&gt;Node5 -->
<g id="edge4" class="edge"><title>Node4&#45;&gt;Node5</title>
<path fill="none" stroke="midnightblue" d="M155.547,-103.035C170.931,-104.21 197.137,-106.212 222.042,-108.114"/>
<polygon fill="midnightblue" stroke="midnightblue" points="221.993,-111.621 232.231,-108.893 222.527,-104.641 221.993,-111.621"/>
</g>
<!-- Node7 -->
<g id="node7" class="node"><title>Node7</title>
<g id="a_node7"><a xlink:href="classSolverUtils_1_1GeoPrim_1_1CVector_a2134ad02d68f29e9c7cd87e4cd4c75b8.html#a2134ad02d68f29e9c7cd87e4cd4c75b8" target="_top" xlink:title="SolverUtils::GeoPrim\l::CVector::z">
<polygon fill="none" stroke="black" points="232.5,-49 232.5,-79 341.5,-79 341.5,-49 232.5,-49"/>
<text text-anchor="start" x="240.5" y="-67" font-family="Helvetica,sans-Serif" font-size="10.00">SolverUtils::GeoPrim</text>
<text text-anchor="middle" x="287" y="-56" font-family="Helvetica,sans-Serif" font-size="10.00">::CVector::z</text>
</a>
</g>
</g>
<!-- Node6&#45;&gt;Node7 -->
<g id="edge6" class="edge"><title>Node6&#45;&gt;Node7</title>
<path fill="none" stroke="midnightblue" d="M155.547,-64C170.931,-64 197.137,-64 222.042,-64"/>
<polygon fill="midnightblue" stroke="midnightblue" points="222.231,-67.5001 232.231,-64 222.231,-60.5001 222.231,-67.5001"/>
</g>
<!-- Node9 -->
<g id="node9" class="node"><title>Node9</title>
<g id="a_node9"><a xlink:href="classSolverUtils_1_1GeoPrim_1_1CVector_a0c08e460a130fd3b8eff7eb7484e878a.html#a0c08e460a130fd3b8eff7eb7484e878a" target="_top" xlink:title="SolverUtils::GeoPrim\l::CVector::norm">
<polygon fill="none" stroke="black" points="232.5,-0 232.5,-30 341.5,-30 341.5,-0 232.5,-0"/>
<text text-anchor="start" x="240.5" y="-18" font-family="Helvetica,sans-Serif" font-size="10.00">SolverUtils::GeoPrim</text>
<text text-anchor="middle" x="287" y="-7" font-family="Helvetica,sans-Serif" font-size="10.00">::CVector::norm</text>
</a>
</g>
</g>
<!-- Node8&#45;&gt;Node9 -->
<g id="edge8" class="edge"><title>Node8&#45;&gt;Node9</title>
<path fill="none" stroke="midnightblue" d="M195.62,-16.8829C204.241,-16.7033 213.239,-16.5159 222.073,-16.3318"/>
<polygon fill="midnightblue" stroke="midnightblue" points="222.41,-19.8256 232.335,-16.118 222.264,-12.8272 222.41,-19.8256"/>
</g>
</g>
</svg>
