<?xml version="1.0" encoding="UTF-8" standalone="no"?>
<!DOCTYPE svg PUBLIC "-//W3C//DTD SVG 1.1//EN"
 "http://www.w3.org/Graphics/SVG/1.1/DTD/svg11.dtd">
<!-- Generated by graphviz version 2.30.1 (20150305.2338)
 -->
<!-- Title: init Pages: 1 -->
<svg width="534pt" height="148pt"
 viewBox="0.00 0.00 534.00 148.00" xmlns="http://www.w3.org/2000/svg" xmlns:xlink="http://www.w3.org/1999/xlink">
<g id="graph0" class="graph" transform="scale(1 1) rotate(0) translate(4 144)">
<title>init</title>
<!-- Node1 -->
<g id="node1" class="node"><title>Node1</title>
<polygon fill="#bfbfbf" stroke="black" points="0.5,-57.5 0.5,-76.5 29.5,-76.5 29.5,-57.5 0.5,-57.5"/>
<text text-anchor="middle" x="15" y="-64.5" font-family="Helvetica,sans-Serif" font-size="10.00">init</text>
</g>
<!-- Node2 -->
<g id="node2" class="node"><title>Node2</title>
<g id="a_node2"><a xlink:href="com__c_09_09_8hpp_a6f9e4ea8f2cb977968964f4cb5a4b4f6.html#a6f9e4ea8f2cb977968964f4cb5a4b4f6" target="_top" xlink:title="COM_call_function">
<polygon fill="none" stroke="black" points="82,-114.5 82,-133.5 182,-133.5 182,-114.5 82,-114.5"/>
<text text-anchor="middle" x="132" y="-121.5" font-family="Helvetica,sans-Serif" font-size="10.00">COM_call_function</text>
</a>
</g>
</g>
<!-- Node1&#45;&gt;Node2 -->
<g id="edge1" class="edge"><title>Node1&#45;&gt;Node2</title>
<path fill="none" stroke="midnightblue" d="M26.3476,-76.6895C35.9596,-85.2233 51.0082,-97.4388 66,-105 70.5418,-107.291 75.4049,-109.35 80.3512,-111.19"/>
<polygon fill="midnightblue" stroke="midnightblue" points="79.3082,-114.532 89.9028,-114.463 81.5773,-107.91 79.3082,-114.532"/>
</g>
<!-- Node3 -->
<g id="node3" class="node"><title>Node3</title>
<g id="a_node3"><a xlink:href="com__c_09_09_8hpp_acbbf9749cce36d33b4c60c100bdfaea2.html#acbbf9749cce36d33b4c60c100bdfaea2" target="_top" xlink:title="COM_get_function_handle">
<polygon fill="none" stroke="black" points="66,-76.5 66,-95.5 198,-95.5 198,-76.5 66,-76.5"/>
<text text-anchor="middle" x="132" y="-83.5" font-family="Helvetica,sans-Serif" font-size="10.00">COM_get_function_handle</text>
</a>
</g>
</g>
<!-- Node1&#45;&gt;Node3 -->
<g id="edge2" class="edge"><title>Node1&#45;&gt;Node3</title>
<path fill="none" stroke="midnightblue" d="M29.6436,-69.2542C38.4147,-70.7033 50.5379,-72.7063 63.3555,-74.824"/>
<polygon fill="midnightblue" stroke="midnightblue" points="62.8118,-78.2815 73.2486,-76.4585 63.9529,-71.3751 62.8118,-78.2815"/>
</g>
<!-- Node7 -->
<g id="node7" class="node"><title>Node7</title>
<g id="a_node7"><a xlink:href="com__c_09_09_8hpp_ac0f80d6e63759a2afe40ed883cea3d5e.html#ac0f80d6e63759a2afe40ed883cea3d5e" target="_top" xlink:title="COM_init">
<polygon fill="none" stroke="black" points="103,-38.5 103,-57.5 161,-57.5 161,-38.5 103,-38.5"/>
<text text-anchor="middle" x="132" y="-45.5" font-family="Helvetica,sans-Serif" font-size="10.00">COM_init</text>
</a>
</g>
</g>
<!-- Node1&#45;&gt;Node7 -->
<g id="edge6" class="edge"><title>Node1&#45;&gt;Node7</title>
<path fill="none" stroke="midnightblue" d="M29.6436,-64.7458C45.155,-62.1831 71.1499,-57.8883 92.9299,-54.2898"/>
<polygon fill="midnightblue" stroke="midnightblue" points="93.6066,-57.7256 102.902,-52.6422 92.4655,-50.8192 93.6066,-57.7256"/>
</g>
<!-- Node9 -->
<g id="node9" class="node"><title>Node9</title>
<g id="a_node9"><a xlink:href="classSolverModuleDriver_a20c52ceae4a26c2a523366ace5cab784.html#a20c52ceae4a26c2a523366ace5cab784" target="_top" xlink:title="usage">
<polygon fill="none" stroke="black" points="110.5,-0.5 110.5,-19.5 153.5,-19.5 153.5,-0.5 110.5,-0.5"/>
<text text-anchor="middle" x="132" y="-7.5" font-family="Helvetica,sans-Serif" font-size="10.00">usage</text>
</a>
</g>
</g>
<!-- Node1&#45;&gt;Node9 -->
<g id="edge8" class="edge"><title>Node1&#45;&gt;Node9</title>
<path fill="none" stroke="midnightblue" d="M26.3476,-57.3105C35.9596,-48.7767 51.0082,-36.5612 66,-29 76.7696,-23.5682 89.3467,-19.4386 100.553,-16.4398"/>
<polygon fill="midnightblue" stroke="midnightblue" points="101.508,-19.8089 110.367,-13.9988 99.8183,-13.0159 101.508,-19.8089"/>
</g>
<!-- Node4 -->
<g id="node4" class="node"><title>Node4</title>
<g id="a_node4"><a xlink:href="COM__base_8hpp_a49353596e53127db61529b5c9000549d.html#a49353596e53127db61529b5c9000549d" target="_top" xlink:title="COM_get_com">
<polygon fill="none" stroke="black" points="250.5,-120.5 250.5,-139.5 333.5,-139.5 333.5,-120.5 250.5,-120.5"/>
<text text-anchor="middle" x="292" y="-127.5" font-family="Helvetica,sans-Serif" font-size="10.00">COM_get_com</text>
</a>
</g>
</g>
<!-- Node3&#45;&gt;Node4 -->
<g id="edge3" class="edge"><title>Node3&#45;&gt;Node4</title>
<path fill="none" stroke="midnightblue" d="M167.284,-95.5473C190.68,-102.063 221.878,-110.751 247.091,-117.772"/>
<polygon fill="midnightblue" stroke="midnightblue" points="246.211,-121.16 256.783,-120.471 248.089,-114.417 246.211,-121.16"/>
</g>
<!-- Node6 -->
<g id="node6" class="node"><title>Node6</title>
<g id="a_node6"><a xlink:href="classCOM_1_1COM__base_a640995dd65a1fb030650457b9cf10b26.html#a640995dd65a1fb030650457b9cf10b26" target="_top" xlink:title="COM::COM_base::get\l_function_handle">
<polygon fill="none" stroke="black" points="234.5,-71 234.5,-101 349.5,-101 349.5,-71 234.5,-71"/>
<text text-anchor="start" x="242.5" y="-89" font-family="Helvetica,sans-Serif" font-size="10.00">COM::COM_base::get</text>
<text text-anchor="middle" x="292" y="-78" font-family="Helvetica,sans-Serif" font-size="10.00">_function_handle</text>
</a>
</g>
</g>
<!-- Node3&#45;&gt;Node6 -->
<g id="edge5" class="edge"><title>Node3&#45;&gt;Node6</title>
<path fill="none" stroke="midnightblue" d="M198.177,-86C206.638,-86 215.317,-86 223.809,-86"/>
<polygon fill="midnightblue" stroke="midnightblue" points="224.049,-89.5001 234.049,-86 224.049,-82.5001 224.049,-89.5001"/>
</g>
<!-- Node5 -->
<g id="node5" class="node"><title>Node5</title>
<g id="a_node5"><a xlink:href="classCOM_1_1COM__base_a77bb770b9ec1aac99361c45efbccabc1.html#a77bb770b9ec1aac99361c45efbccabc1" target="_top" xlink:title="Get a pointer to the COM object. ">
<polygon fill="none" stroke="black" points="386.5,-120.5 386.5,-139.5 525.5,-139.5 525.5,-120.5 386.5,-120.5"/>
<text text-anchor="middle" x="456" y="-127.5" font-family="Helvetica,sans-Serif" font-size="10.00">COM::COM_base::get_com</text>
</a>
</g>
</g>
<!-- Node4&#45;&gt;Node5 -->
<g id="edge4" class="edge"><title>Node4&#45;&gt;Node5</title>
<path fill="none" stroke="midnightblue" d="M333.879,-130C346.826,-130 361.603,-130 376.279,-130"/>
<polygon fill="midnightblue" stroke="midnightblue" points="376.4,-133.5 386.4,-130 376.4,-126.5 376.4,-133.5"/>
</g>
<!-- Node8 -->
<g id="node8" class="node"><title>Node8</title>
<g id="a_node8"><a xlink:href="classCOM_1_1COM__base_a38b2bac03bb06f2d0ea5c99760da5f1c.html#a38b2bac03bb06f2d0ea5c99760da5f1c" target="_top" xlink:title="COM::COM_base::init">
<polygon fill="none" stroke="black" points="235,-32.5 235,-51.5 349,-51.5 349,-32.5 235,-32.5"/>
<text text-anchor="middle" x="292" y="-39.5" font-family="Helvetica,sans-Serif" font-size="10.00">COM::COM_base::init</text>
</a>
</g>
</g>
<!-- Node7&#45;&gt;Node8 -->
<g id="edge7" class="edge"><title>Node7&#45;&gt;Node8</title>
<path fill="none" stroke="midnightblue" d="M161.247,-46.9273C178.951,-46.255 202.552,-45.3588 224.769,-44.5151"/>
<polygon fill="midnightblue" stroke="midnightblue" points="224.994,-48.0092 234.854,-44.1321 224.728,-41.0142 224.994,-48.0092"/>
</g>
</g>
</svg>
