<?xml version="1.0" encoding="UTF-8" standalone="no"?>
<!DOCTYPE svg PUBLIC "-//W3C//DTD SVG 1.1//EN"
 "http://www.w3.org/Graphics/SVG/1.1/DTD/svg11.dtd">
<!-- Generated by graphviz version 2.30.1 (20150305.2338)
 -->
<!-- Title: Run Pages: 1 -->
<svg width="904pt" height="499pt"
 viewBox="0.00 0.00 904.00 499.00" xmlns="http://www.w3.org/2000/svg" xmlns:xlink="http://www.w3.org/1999/xlink">
<g id="graph0" class="graph" transform="scale(1 1) rotate(0) translate(4 495)">
<title>Run</title>
<!-- Node1 -->
<g id="node1" class="node"><title>Node1</title>
<polygon fill="#bfbfbf" stroke="black" points="0.5,-221.5 0.5,-240.5 35.5,-240.5 35.5,-221.5 0.5,-221.5"/>
<text text-anchor="middle" x="18" y="-228.5" font-family="Helvetica,sans-Serif" font-size="10.00">Run</text>
</g>
<!-- Node2 -->
<g id="node2" class="node"><title>Node2</title>
<g id="a_node2"><a xlink:href="classIRAD_1_1Global_1_1ParallelGlobalObj_ad95335788fef08c6af958f82662c6c95.html#ad95335788fef08c6af958f82662c6c95" target="_top" xlink:title="IRAD::Global::ParallelGlobal\lObj::Communicator">
<polygon fill="none" stroke="black" points="77.5,-461 77.5,-491 218.5,-491 218.5,-461 77.5,-461"/>
<text text-anchor="start" x="85.5" y="-479" font-family="Helvetica,sans-Serif" font-size="10.00">IRAD::Global::ParallelGlobal</text>
<text text-anchor="middle" x="148" y="-468" font-family="Helvetica,sans-Serif" font-size="10.00">Obj::Communicator</text>
</a>
</g>
</g>
<!-- Node1&#45;&gt;Node2 -->
<g id="edge1" class="edge"><title>Node1&#45;&gt;Node2</title>
<path fill="none" stroke="midnightblue" d="M20.085,-240.678C24.5557,-278.936 42.7068,-419.094 72,-451 73.2125,-452.321 74.4965,-453.572 75.8416,-454.757"/>
<polygon fill="midnightblue" stroke="midnightblue" points="74.0077,-457.752 84.1405,-460.847 78.1493,-452.109 74.0077,-457.752"/>
</g>
<!-- Node3 -->
<g id="node3" class="node"><title>Node3</title>
<g id="a_node3"><a xlink:href="classimpact_1_1orchestrator_1_1agentbase_a50a1b38c2dca7d97a57941b99cfdf099.html#a50a1b38c2dca7d97a57941b99cfdf099" target="_top" xlink:title="impact::orchestrator\l::agentbase::FinalizeTimeStep">
<polygon fill="none" stroke="black" points="73.5,-412 73.5,-442 222.5,-442 222.5,-412 73.5,-412"/>
<text text-anchor="start" x="81.5" y="-430" font-family="Helvetica,sans-Serif" font-size="10.00">impact::orchestrator</text>
<text text-anchor="middle" x="148" y="-419" font-family="Helvetica,sans-Serif" font-size="10.00">::agentbase::FinalizeTimeStep</text>
</a>
</g>
</g>
<!-- Node1&#45;&gt;Node3 -->
<g id="edge2" class="edge"><title>Node1&#45;&gt;Node3</title>
<path fill="none" stroke="midnightblue" d="M19.0844,-240.65C19.8661,-269.359 26.1218,-355.139 72,-402 73.4043,-403.434 74.8928,-404.786 76.4515,-406.061"/>
<polygon fill="midnightblue" stroke="midnightblue" points="74.5478,-409 84.7635,-411.809 78.5292,-403.242 74.5478,-409"/>
</g>
<!-- Node4 -->
<g id="node4" class="node"><title>Node4</title>
<g id="a_node4"><a xlink:href="classIRAD_1_1Global_1_1GlobalObj_a6abe3763e61b3cb7c5bf1fc5f7f5a747.html#a6abe3763e61b3cb7c5bf1fc5f7f5a747" target="_top" xlink:title="FunctionEntry updates the Stack as well as the Profiler. ">
<polygon fill="none" stroke="black" points="86,-363 86,-393 210,-393 210,-363 86,-363"/>
<text text-anchor="start" x="94" y="-381" font-family="Helvetica,sans-Serif" font-size="10.00">IRAD::Global::GlobalObj</text>
<text text-anchor="middle" x="148" y="-370" font-family="Helvetica,sans-Serif" font-size="10.00">::FunctionEntry</text>
</a>
</g>
</g>
<!-- Node1&#45;&gt;Node4 -->
<g id="edge3" class="edge"><title>Node1&#45;&gt;Node4</title>
<path fill="none" stroke="midnightblue" d="M20.4873,-240.79C24.4865,-263.751 37.595,-321.499 72,-353 73.7272,-354.581 75.5574,-356.063 77.4691,-357.451"/>
<polygon fill="midnightblue" stroke="midnightblue" points="75.9688,-360.64 86.3069,-362.959 79.6709,-354.699 75.9688,-360.64"/>
</g>
<!-- Node5 -->
<g id="node5" class="node"><title>Node5</title>
<g id="a_node5"><a xlink:href="classIRAD_1_1Global_1_1GlobalObj_a5c05946a616967b3ee6fdc755c31e33c.html#a5c05946a616967b3ee6fdc755c31e33c" target="_top" xlink:title="FunctionExit updates the Stack as well as the Profiler. ">
<polygon fill="none" stroke="black" points="86,-314 86,-344 210,-344 210,-314 86,-314"/>
<text text-anchor="start" x="94" y="-332" font-family="Helvetica,sans-Serif" font-size="10.00">IRAD::Global::GlobalObj</text>
<text text-anchor="middle" x="148" y="-321" font-family="Helvetica,sans-Serif" font-size="10.00">::FunctionExit</text>
</a>
</g>
</g>
<!-- Node1&#45;&gt;Node5 -->
<g id="edge4" class="edge"><title>Node1&#45;&gt;Node5</title>
<path fill="none" stroke="midnightblue" d="M23.4501,-240.528C31.1706,-256.049 48.5009,-286.784 72,-304 74.5206,-305.847 77.186,-307.562 79.9505,-309.156"/>
<polygon fill="midnightblue" stroke="midnightblue" points="78.5673,-312.381 89.061,-313.842 81.7688,-306.156 78.5673,-312.381"/>
</g>
<!-- Node6 -->
<g id="node6" class="node"><title>Node6</title>
<g id="a_node6"><a xlink:href="classimpact_1_1orchestrator_1_1agentbase_abae70c8ddc0a4976bf42b69f1eae8b52.html#abae70c8ddc0a4976bf42b69f1eae8b52" target="_top" xlink:title="impact::orchestrator\l::agentbase::InitializeTimeStep">
<polygon fill="none" stroke="black" points="72,-265 72,-295 224,-295 224,-265 72,-265"/>
<text text-anchor="start" x="80" y="-283" font-family="Helvetica,sans-Serif" font-size="10.00">impact::orchestrator</text>
<text text-anchor="middle" x="148" y="-272" font-family="Helvetica,sans-Serif" font-size="10.00">::agentbase::InitializeTimeStep</text>
</a>
</g>
</g>
<!-- Node1&#45;&gt;Node6 -->
<g id="edge5" class="edge"><title>Node1&#45;&gt;Node6</title>
<path fill="none" stroke="midnightblue" d="M35.5206,-239.014C45.8829,-243.907 59.586,-250.135 72,-255 77.5669,-257.181 83.4109,-259.344 89.2765,-261.432"/>
<polygon fill="midnightblue" stroke="midnightblue" points="88.5285,-264.878 99.1233,-264.864 90.8324,-258.268 88.5285,-264.878"/>
</g>
<!-- Node7 -->
<g id="node7" class="node"><title>Node7</title>
<g id="a_node7"><a xlink:href="classIRAD_1_1Global_1_1ParallelGlobalObj_a5eaae85c9d37fb4263b78869bf5172ea.html#a5eaae85c9d37fb4263b78869bf5172ea" target="_top" xlink:title="IRAD::Global::ParallelGlobal\lObj::NProc">
<polygon fill="none" stroke="black" points="77.5,-216 77.5,-246 218.5,-246 218.5,-216 77.5,-216"/>
<text text-anchor="start" x="85.5" y="-234" font-family="Helvetica,sans-Serif" font-size="10.00">IRAD::Global::ParallelGlobal</text>
<text text-anchor="middle" x="148" y="-223" font-family="Helvetica,sans-Serif" font-size="10.00">Obj::NProc</text>
</a>
</g>
</g>
<!-- Node1&#45;&gt;Node7 -->
<g id="edge6" class="edge"><title>Node1&#45;&gt;Node7</title>
<path fill="none" stroke="midnightblue" d="M35.7338,-231C44.3103,-231 55.4456,-231 67.3505,-231"/>
<polygon fill="midnightblue" stroke="midnightblue" points="67.4924,-234.5 77.4924,-231 67.4924,-227.5 67.4924,-234.5"/>
</g>
<!-- Node8 -->
<g id="node8" class="node"><title>Node8</title>
<g id="a_node8"><a xlink:href="classopenfoamagentpar_a1e1196103d62248de06882a2f5f1adf4.html#a1e1196103d62248de06882a2f5f1adf4" target="_top" xlink:title="openfoamagentpar::Run">
<polygon fill="none" stroke="black" points="87.5,-177.5 87.5,-196.5 208.5,-196.5 208.5,-177.5 87.5,-177.5"/>
<text text-anchor="middle" x="148" y="-184.5" font-family="Helvetica,sans-Serif" font-size="10.00">openfoamagentpar::Run</text>
</a>
</g>
</g>
<!-- Node1&#45;&gt;Node8 -->
<g id="edge7" class="edge"><title>Node1&#45;&gt;Node8</title>
<path fill="none" stroke="midnightblue" d="M35.8916,-222.49C46.1593,-217.535 59.6334,-211.415 72,-207 79.7595,-204.23 88.0907,-201.642 96.2777,-199.308"/>
<polygon fill="midnightblue" stroke="midnightblue" points="97.4328,-202.62 106.145,-196.59 95.5742,-195.871 97.4328,-202.62"/>
</g>
<!-- Node10 -->
<g id="node10" class="node"><title>Node10</title>
<g id="a_node10"><a xlink:href="classelmeragentpar_addc5d2e1dc0916e5c3d2e52d53261b4b.html#addc5d2e1dc0916e5c3d2e52d53261b4b" target="_top" xlink:title="elmeragentpar::Run">
<polygon fill="none" stroke="black" points="97,-139.5 97,-158.5 199,-158.5 199,-139.5 97,-139.5"/>
<text text-anchor="middle" x="148" y="-146.5" font-family="Helvetica,sans-Serif" font-size="10.00">elmeragentpar::Run</text>
</a>
</g>
</g>
<!-- Node1&#45;&gt;Node10 -->
<g id="edge9" class="edge"><title>Node1&#45;&gt;Node10</title>
<path fill="none" stroke="midnightblue" d="M24.4756,-221.251C32.8531,-207.257 50.1987,-181.661 72,-168 76.6952,-165.058 81.8245,-162.571 87.1263,-160.468"/>
<polygon fill="midnightblue" stroke="midnightblue" points="88.516,-163.69 96.799,-157.084 86.2041,-157.083 88.516,-163.69"/>
</g>
<!-- Node12 -->
<g id="node12" class="node"><title>Node12</title>
<g id="a_node12"><a xlink:href="classIRAD_1_1Global_1_1GlobalObj_a4604cffc6d9588606aa2a5866b026226.html#a4604cffc6d9588606aa2a5866b026226" target="_top" xlink:title="IRAD::Global::GlobalObj\l::StdOut">
<polygon fill="none" stroke="black" points="86,-90 86,-120 210,-120 210,-90 86,-90"/>
<text text-anchor="start" x="94" y="-108" font-family="Helvetica,sans-Serif" font-size="10.00">IRAD::Global::GlobalObj</text>
<text text-anchor="middle" x="148" y="-97" font-family="Helvetica,sans-Serif" font-size="10.00">::StdOut</text>
</a>
</g>
</g>
<!-- Node1&#45;&gt;Node12 -->
<g id="edge12" class="edge"><title>Node1&#45;&gt;Node12</title>
<path fill="none" stroke="midnightblue" d="M21.412,-221.405C26.9156,-201.458 42.2802,-155.27 72,-130 73.9671,-128.327 76.0501,-126.766 78.2214,-125.308"/>
<polygon fill="midnightblue" stroke="midnightblue" points="80.1146,-128.255 86.9751,-120.181 76.5772,-122.214 80.1146,-128.255"/>
</g>
<!-- Node13 -->
<g id="node13" class="node"><title>Node13</title>
<g id="a_node13"><a xlink:href="classfsicouplingpar_af78c1d25d3177ac2db934cf256fad8ef.html#af78c1d25d3177ac2db934cf256fad8ef" target="_top" xlink:title="TransferDisplacementsToFluid">
<polygon fill="none" stroke="black" points="73,-51.5 73,-70.5 223,-70.5 223,-51.5 73,-51.5"/>
<text text-anchor="middle" x="148" y="-58.5" font-family="Helvetica,sans-Serif" font-size="10.00">TransferDisplacementsToFluid</text>
</a>
</g>
</g>
<!-- Node1&#45;&gt;Node13 -->
<g id="edge13" class="edge"><title>Node1&#45;&gt;Node13</title>
<path fill="none" stroke="midnightblue" d="M19.393,-221.178C21.0183,-194.307 29.3509,-118.995 72,-80 73.6914,-78.4535 75.4906,-77.0287 77.3755,-75.7163"/>
<polygon fill="midnightblue" stroke="midnightblue" points="79.2211,-78.6922 86.1221,-70.6531 75.7141,-72.634 79.2211,-78.6922"/>
</g>
<!-- Node20 -->
<g id="node20" class="node"><title>Node20</title>
<g id="a_node20"><a xlink:href="classfsicouplingpar_ac4f5096317c9b9f063b9f76f22de8dd4.html#ac4f5096317c9b9f063b9f76f22de8dd4" target="_top" xlink:title="TransferLoadsToStructures">
<polygon fill="none" stroke="black" points="80.5,-10.5 80.5,-29.5 215.5,-29.5 215.5,-10.5 80.5,-10.5"/>
<text text-anchor="middle" x="148" y="-17.5" font-family="Helvetica,sans-Serif" font-size="10.00">TransferLoadsToStructures</text>
</a>
</g>
</g>
<!-- Node1&#45;&gt;Node20 -->
<g id="edge20" class="edge"><title>Node1&#45;&gt;Node20</title>
<path fill="none" stroke="midnightblue" d="M18.6653,-221.164C18.17,-190.185 20.9805,-93.6317 72,-42 74.8687,-39.0968 78.0987,-36.5722 81.5654,-34.3771"/>
<polygon fill="midnightblue" stroke="midnightblue" points="83.4143,-37.3581 90.5995,-29.572 80.1271,-31.1779 83.4143,-37.3581"/>
</g>
<!-- Node9 -->
<g id="node9" class="node"><title>Node9</title>
<g id="a_node9"><a xlink:href="com__c_09_09_8hpp_a6f9e4ea8f2cb977968964f4cb5a4b4f6.html#a6f9e4ea8f2cb977968964f4cb5a4b4f6" target="_top" xlink:title="COM_call_function">
<polygon fill="none" stroke="black" points="278,-177.5 278,-196.5 378,-196.5 378,-177.5 278,-177.5"/>
<text text-anchor="middle" x="328" y="-184.5" font-family="Helvetica,sans-Serif" font-size="10.00">COM_call_function</text>
</a>
</g>
</g>
<!-- Node8&#45;&gt;Node9 -->
<g id="edge8" class="edge"><title>Node8&#45;&gt;Node9</title>
<path fill="none" stroke="midnightblue" d="M208.767,-187C227.772,-187 248.779,-187 267.748,-187"/>
<polygon fill="midnightblue" stroke="midnightblue" points="267.755,-190.5 277.755,-187 267.755,-183.5 267.755,-190.5"/>
</g>
<!-- Node10&#45;&gt;Node9 -->
<g id="edge10" class="edge"><title>Node10&#45;&gt;Node9</title>
<path fill="none" stroke="midnightblue" d="M193.917,-158.589C217.829,-163.694 247.421,-170.011 272.625,-175.392"/>
<polygon fill="midnightblue" stroke="midnightblue" points="271.896,-178.815 282.406,-177.48 273.357,-171.969 271.896,-178.815"/>
</g>
<!-- Node11 -->
<g id="node11" class="node"><title>Node11</title>
<g id="a_node11"><a xlink:href="classimpact_1_1orchestrator_1_1agentbase_a0c67610e579dce80081e10bbbf57eae1.html#a0c67610e579dce80081e10bbbf57eae1" target="_top" xlink:title="impact::orchestrator\l::agentbase::WriteErr">
<polygon fill="none" stroke="black" points="273,-128 273,-158 383,-158 383,-128 273,-128"/>
<text text-anchor="start" x="281" y="-146" font-family="Helvetica,sans-Serif" font-size="10.00">impact::orchestrator</text>
<text text-anchor="middle" x="328" y="-135" font-family="Helvetica,sans-Serif" font-size="10.00">::agentbase::WriteErr</text>
</a>
</g>
</g>
<!-- Node10&#45;&gt;Node11 -->
<g id="edge11" class="edge"><title>Node10&#45;&gt;Node11</title>
<path fill="none" stroke="midnightblue" d="M199.057,-147.313C218.851,-146.645 241.847,-145.87 262.839,-145.163"/>
<polygon fill="midnightblue" stroke="midnightblue" points="263.084,-148.657 272.96,-144.822 262.848,-141.661 263.084,-148.657"/>
</g>
<!-- Node14 -->
<g id="node14" class="node"><title>Node14</title>
<g id="a_node14"><a xlink:href="classSolverUtils_1_1TransferObjectPar_aa6208b5bc1a6a9e86d72320e39a84a25.html#aa6208b5bc1a6a9e86d72320e39a84a25" target="_top" xlink:title="SolverUtils::TransferObject\lPar::Interpolate">
<polygon fill="none" stroke="black" points="260.5,-49 260.5,-79 395.5,-79 395.5,-49 260.5,-49"/>
<text text-anchor="start" x="268.5" y="-67" font-family="Helvetica,sans-Serif" font-size="10.00">SolverUtils::TransferObject</text>
<text text-anchor="middle" x="328" y="-56" font-family="Helvetica,sans-Serif" font-size="10.00">Par::Interpolate</text>
</a>
</g>
</g>
<!-- Node13&#45;&gt;Node14 -->
<g id="edge14" class="edge"><title>Node13&#45;&gt;Node14</title>
<path fill="none" stroke="midnightblue" d="M223.199,-62.2505C232.14,-62.4012 241.286,-62.5554 250.262,-62.7067"/>
<polygon fill="midnightblue" stroke="midnightblue" points="250.247,-66.2068 260.304,-62.8759 250.365,-59.2078 250.247,-66.2068"/>
</g>
<!-- Node15 -->
<g id="node15" class="node"><title>Node15</title>
<g id="a_node15"><a xlink:href="com__c_09_09_8hpp_a86224e33f2e17b4cee6c3256bfdff75d.html#a86224e33f2e17b4cee6c3256bfdff75d" target="_top" xlink:title="COM_get_dataitem_handle">
<polygon fill="none" stroke="black" points="432.5,-52.5 432.5,-71.5 567.5,-71.5 567.5,-52.5 432.5,-52.5"/>
<text text-anchor="middle" x="500" y="-59.5" font-family="Helvetica,sans-Serif" font-size="10.00">COM_get_dataitem_handle</text>
</a>
</g>
</g>
<!-- Node14&#45;&gt;Node15 -->
<g id="edge15" class="edge"><title>Node14&#45;&gt;Node15</title>
<path fill="none" stroke="midnightblue" d="M395.701,-63.2153C404.487,-63.1119 413.547,-63.0053 422.48,-62.9002"/>
<polygon fill="midnightblue" stroke="midnightblue" points="422.534,-66.3999 432.492,-62.7824 422.451,-59.4004 422.534,-66.3999"/>
</g>
<!-- Node19 -->
<g id="node19" class="node"><title>Node19</title>
<g id="a_node19"><a xlink:href="namespaceSolverUtils_ab602f331b052ecdbea6aa8caa0eeed75.html#ab602f331b052ecdbea6aa8caa0eeed75" target="_top" xlink:title="SolverUtils::COM_call\l_function">
<polygon fill="none" stroke="black" points="443,-2 443,-32 557,-32 557,-2 443,-2"/>
<text text-anchor="start" x="451" y="-20" font-family="Helvetica,sans-Serif" font-size="10.00">SolverUtils::COM_call</text>
<text text-anchor="middle" x="500" y="-9" font-family="Helvetica,sans-Serif" font-size="10.00">_function</text>
</a>
</g>
</g>
<!-- Node14&#45;&gt;Node19 -->
<g id="edge19" class="edge"><title>Node14&#45;&gt;Node19</title>
<path fill="none" stroke="midnightblue" d="M383.256,-48.9997C399.665,-44.4633 417.839,-39.4385 434.831,-34.7409"/>
<polygon fill="midnightblue" stroke="midnightblue" points="435.97,-38.0573 444.676,-32.019 434.105,-31.3104 435.97,-38.0573"/>
</g>
<!-- Node16 -->
<g id="node16" class="node"><title>Node16</title>
<g id="a_node16"><a xlink:href="COM__base_8hpp_a49353596e53127db61529b5c9000549d.html#a49353596e53127db61529b5c9000549d" target="_top" xlink:title="COM_get_com">
<polygon fill="none" stroke="black" points="620.5,-74.5 620.5,-93.5 703.5,-93.5 703.5,-74.5 620.5,-74.5"/>
<text text-anchor="middle" x="662" y="-81.5" font-family="Helvetica,sans-Serif" font-size="10.00">COM_get_com</text>
</a>
</g>
</g>
<!-- Node15&#45;&gt;Node16 -->
<g id="edge16" class="edge"><title>Node15&#45;&gt;Node16</title>
<path fill="none" stroke="midnightblue" d="M567.927,-71.2025C582.121,-73.1541 596.879,-75.1834 610.348,-77.0354"/>
<polygon fill="midnightblue" stroke="midnightblue" points="609.983,-80.518 620.367,-78.4129 610.937,-73.5833 609.983,-80.518"/>
</g>
<!-- Node18 -->
<g id="node18" class="node"><title>Node18</title>
<g id="a_node18"><a xlink:href="classCOM_1_1COM__base_a9fd7945150b9f390f5560bce2b7ea375.html#a9fd7945150b9f390f5560bce2b7ea375" target="_top" xlink:title="COM::COM_base::get\l_dataitem_handle">
<polygon fill="none" stroke="black" points="604.5,-25 604.5,-55 719.5,-55 719.5,-25 604.5,-25"/>
<text text-anchor="start" x="612.5" y="-43" font-family="Helvetica,sans-Serif" font-size="10.00">COM::COM_base::get</text>
<text text-anchor="middle" x="662" y="-32" font-family="Helvetica,sans-Serif" font-size="10.00">_dataitem_handle</text>
</a>
</g>
</g>
<!-- Node15&#45;&gt;Node18 -->
<g id="edge18" class="edge"><title>Node15&#45;&gt;Node18</title>
<path fill="none" stroke="midnightblue" d="M567.927,-52.7975C576.667,-51.5958 585.621,-50.3646 594.356,-49.1635"/>
<polygon fill="midnightblue" stroke="midnightblue" points="595.054,-52.6005 604.484,-47.7709 594.101,-45.6658 595.054,-52.6005"/>
</g>
<!-- Node17 -->
<g id="node17" class="node"><title>Node17</title>
<g id="a_node17"><a xlink:href="classCOM_1_1COM__base_a77bb770b9ec1aac99361c45efbccabc1.html#a77bb770b9ec1aac99361c45efbccabc1" target="_top" xlink:title="Get a pointer to the COM object. ">
<polygon fill="none" stroke="black" points="756.5,-74.5 756.5,-93.5 895.5,-93.5 895.5,-74.5 756.5,-74.5"/>
<text text-anchor="middle" x="826" y="-81.5" font-family="Helvetica,sans-Serif" font-size="10.00">COM::COM_base::get_com</text>
</a>
</g>
</g>
<!-- Node16&#45;&gt;Node17 -->
<g id="edge17" class="edge"><title>Node16&#45;&gt;Node17</title>
<path fill="none" stroke="midnightblue" d="M703.879,-84C716.826,-84 731.603,-84 746.279,-84"/>
<polygon fill="midnightblue" stroke="midnightblue" points="746.4,-87.5001 756.4,-84 746.4,-80.5001 746.4,-87.5001"/>
</g>
<!-- Node21 -->
<g id="node21" class="node"><title>Node21</title>
<g id="a_node21"><a xlink:href="classSolverUtils_1_1TransferObjectPar_ac956acb3aa9c094efbebec0883d08ba1.html#ac956acb3aa9c094efbebec0883d08ba1" target="_top" xlink:title="SolverUtils::TransferObject\lPar::Transfer">
<polygon fill="none" stroke="black" points="260.5,-0 260.5,-30 395.5,-30 395.5,-0 260.5,-0"/>
<text text-anchor="start" x="268.5" y="-18" font-family="Helvetica,sans-Serif" font-size="10.00">SolverUtils::TransferObject</text>
<text text-anchor="middle" x="328" y="-7" font-family="Helvetica,sans-Serif" font-size="10.00">Par::Transfer</text>
</a>
</g>
</g>
<!-- Node20&#45;&gt;Node21 -->
<g id="edge21" class="edge"><title>Node20&#45;&gt;Node21</title>
<path fill="none" stroke="midnightblue" d="M215.534,-18.1311C226.837,-17.8136 238.658,-17.4815 250.2,-17.1573"/>
<polygon fill="midnightblue" stroke="midnightblue" points="250.353,-20.6545 260.251,-16.875 250.156,-13.6572 250.353,-20.6545"/>
</g>
<!-- Node21&#45;&gt;Node15 -->
<g id="edge22" class="edge"><title>Node21&#45;&gt;Node15</title>
<path fill="none" stroke="midnightblue" d="M383.256,-30.0003C406.345,-36.3837 432.932,-43.7341 454.797,-49.7791"/>
<polygon fill="midnightblue" stroke="midnightblue" points="453.91,-53.1652 464.481,-52.4566 455.775,-46.4183 453.91,-53.1652"/>
</g>
<!-- Node21&#45;&gt;Node19 -->
<g id="edge23" class="edge"><title>Node21&#45;&gt;Node19</title>
<path fill="none" stroke="midnightblue" d="M395.701,-15.7847C407.91,-15.9283 420.647,-16.0782 432.84,-16.2217"/>
<polygon fill="midnightblue" stroke="midnightblue" points="432.89,-19.7224 442.931,-16.3404 432.973,-12.7229 432.89,-19.7224"/>
</g>
</g>
</svg>
