<?xml version="1.0" encoding="UTF-8" standalone="no"?>
<!DOCTYPE svg PUBLIC "-//W3C//DTD SVG 1.1//EN"
 "http://www.w3.org/Graphics/SVG/1.1/DTD/svg11.dtd">
<!-- Generated by graphviz version 2.30.1 (20150305.2338)
 -->
<!-- Title: Create Pages: 1 -->
<svg width="1566pt" height="381pt"
 viewBox="0.00 0.00 1566.00 381.00" xmlns="http://www.w3.org/2000/svg" xmlns:xlink="http://www.w3.org/1999/xlink">
<g id="graph0" class="graph" transform="scale(1 1) rotate(0) translate(4 377)">
<title>Create</title>
<!-- Node1 -->
<g id="node1" class="node"><title>Node1</title>
<polygon fill="#bfbfbf" stroke="black" points="0,-162.5 0,-181.5 46,-181.5 46,-162.5 0,-162.5"/>
<text text-anchor="middle" x="23" y="-169.5" font-family="Helvetica,sans-Serif" font-size="10.00">Create</text>
</g>
<!-- Node2 -->
<g id="node2" class="node"><title>Node2</title>
<g id="a_node2"><a xlink:href="classSolverUtils_1_1FEM_1_1SolverAgent_a079caee74f744553dcbb96c16431b02f.html#a079caee74f744553dcbb96c16431b02f" target="_top" xlink:title="SolverUtils::FEM::Solver\lAgent::CreateSoln">
<polygon fill="none" stroke="black" points="87.5,-182 87.5,-212 212.5,-212 212.5,-182 87.5,-182"/>
<text text-anchor="start" x="95.5" y="-200" font-family="Helvetica,sans-Serif" font-size="10.00">SolverUtils::FEM::Solver</text>
<text text-anchor="middle" x="150" y="-189" font-family="Helvetica,sans-Serif" font-size="10.00">Agent::CreateSoln</text>
</a>
</g>
</g>
<!-- Node1&#45;&gt;Node2 -->
<g id="edge1" class="edge"><title>Node1&#45;&gt;Node2</title>
<path fill="none" stroke="midnightblue" d="M55.9619,-178.392C65.6109,-180.322 76.5474,-182.509 87.4455,-184.689"/>
<polygon fill="midnightblue" stroke="midnightblue" points="56.552,-174.941 46.0598,-176.412 55.1791,-181.805 56.552,-174.941"/>
</g>
<!-- Node5 -->
<g id="node5" class="node"><title>Node5</title>
<g id="a_node5"><a xlink:href="namespaceSolverUtils_a29210d58c0891b69a17bc8281ecc92cc.html#a29210d58c0891b69a17bc8281ecc92cc" target="_top" xlink:title="SolverUtils::CreateSolution\lFromPane">
<polygon fill="none" stroke="black" points="82.5,-133 82.5,-163 217.5,-163 217.5,-133 82.5,-133"/>
<text text-anchor="start" x="90.5" y="-151" font-family="Helvetica,sans-Serif" font-size="10.00">SolverUtils::CreateSolution</text>
<text text-anchor="middle" x="150" y="-140" font-family="Helvetica,sans-Serif" font-size="10.00">FromPane</text>
</a>
</g>
</g>
<!-- Node1&#45;&gt;Node5 -->
<g id="edge4" class="edge"><title>Node1&#45;&gt;Node5</title>
<path fill="none" stroke="midnightblue" d="M56.1271,-165.832C64.2295,-164.276 73.2316,-162.548 82.3521,-160.796"/>
<polygon fill="midnightblue" stroke="midnightblue" points="55.2204,-162.442 46.0598,-167.765 56.5404,-169.316 55.2204,-162.442"/>
</g>
<!-- Node3 -->
<g id="node3" class="node"><title>Node3</title>
<g id="a_node3"><a xlink:href="classSolverModuleDriver_a58e8be2db2660128e4e6456a9c981fb5.html#a58e8be2db2660128e4e6456a9c981fb5" target="_top" xlink:title="SolverModuleDriver::run">
<polygon fill="none" stroke="black" points="258,-187.5 258,-206.5 380,-206.5 380,-187.5 258,-187.5"/>
<text text-anchor="middle" x="319" y="-194.5" font-family="Helvetica,sans-Serif" font-size="10.00">SolverModuleDriver::run</text>
</a>
</g>
</g>
<!-- Node2&#45;&gt;Node3 -->
<g id="edge2" class="edge"><title>Node2&#45;&gt;Node3</title>
<path fill="none" stroke="midnightblue" d="M222.878,-197C234.567,-197 246.565,-197 257.933,-197"/>
<polygon fill="midnightblue" stroke="midnightblue" points="222.71,-193.5 212.71,-197 222.71,-200.5 222.71,-193.5"/>
</g>
<!-- Node4 -->
<g id="node4" class="node"><title>Node4</title>
<g id="a_node4"><a xlink:href="ElmerFSI_2trunk_2src_2SolverModuleDriver_8C_a0ddf1224851353fc92bfbff6f499fa97.html#a0ddf1224851353fc92bfbff6f499fa97" target="_top" xlink:title="main">
<polygon fill="none" stroke="black" points="470,-187.5 470,-206.5 508,-206.5 508,-187.5 470,-187.5"/>
<text text-anchor="middle" x="489" y="-194.5" font-family="Helvetica,sans-Serif" font-size="10.00">main</text>
</a>
</g>
</g>
<!-- Node3&#45;&gt;Node4 -->
<g id="edge3" class="edge"><title>Node3&#45;&gt;Node4</title>
<path fill="none" stroke="midnightblue" d="M390.327,-197C419.353,-197 450.618,-197 469.751,-197"/>
<polygon fill="midnightblue" stroke="midnightblue" points="390.177,-193.5 380.177,-197 390.177,-200.5 390.177,-193.5"/>
</g>
<!-- Node6 -->
<g id="node6" class="node"><title>Node6</title>
<g id="a_node6"><a xlink:href="namespaceSolverUtils_aba6560399de412c7861129dc7c4a260e.html#aba6560399de412c7861129dc7c4a260e" target="_top" xlink:title="SolverUtils::PaneToAgent">
<polygon fill="none" stroke="black" points="254,-138.5 254,-157.5 384,-157.5 384,-138.5 254,-138.5"/>
<text text-anchor="middle" x="319" y="-145.5" font-family="Helvetica,sans-Serif" font-size="10.00">SolverUtils::PaneToAgent</text>
</a>
</g>
</g>
<!-- Node5&#45;&gt;Node6 -->
<g id="edge5" class="edge"><title>Node5&#45;&gt;Node6</title>
<path fill="none" stroke="midnightblue" d="M228.003,-148C236.611,-148 245.312,-148 253.736,-148"/>
<polygon fill="midnightblue" stroke="midnightblue" points="227.963,-144.5 217.963,-148 227.963,-151.5 227.963,-144.5"/>
</g>
<!-- Node7 -->
<g id="node7" class="node"><title>Node7</title>
<g id="a_node7"><a xlink:href="namespaceSolverUtils_a9da67f474f0ef835bb9707e6598de2bd.html#a9da67f474f0ef835bb9707e6598de2bd" target="_top" xlink:title="SolverUtils::PopulateSolver\lAgentFromWindow">
<polygon fill="none" stroke="black" points="420.5,-133 420.5,-163 557.5,-163 557.5,-133 420.5,-133"/>
<text text-anchor="start" x="428.5" y="-151" font-family="Helvetica,sans-Serif" font-size="10.00">SolverUtils::PopulateSolver</text>
<text text-anchor="middle" x="489" y="-140" font-family="Helvetica,sans-Serif" font-size="10.00">AgentFromWindow</text>
</a>
</g>
</g>
<!-- Node6&#45;&gt;Node7 -->
<g id="edge6" class="edge"><title>Node6&#45;&gt;Node7</title>
<path fill="none" stroke="midnightblue" d="M394.494,-148C403.103,-148 411.846,-148 420.356,-148"/>
<polygon fill="midnightblue" stroke="midnightblue" points="394.473,-144.5 384.473,-148 394.473,-151.5 394.473,-144.5"/>
</g>
<!-- Node8 -->
<g id="node8" class="node"><title>Node8</title>
<g id="a_node8"><a xlink:href="classopenfoamagent_a9a8261713154978fa009d8cb2c533055.html#a9a8261713154978fa009d8cb2c533055" target="_top" xlink:title="openfoamagent::Initialize">
<polygon fill="none" stroke="black" points="601.5,-157.5 601.5,-176.5 726.5,-176.5 726.5,-157.5 601.5,-157.5"/>
<text text-anchor="middle" x="664" y="-164.5" font-family="Helvetica,sans-Serif" font-size="10.00">openfoamagent::Initialize</text>
</a>
</g>
</g>
<!-- Node7&#45;&gt;Node8 -->
<g id="edge7" class="edge"><title>Node7&#45;&gt;Node8</title>
<path fill="none" stroke="midnightblue" d="M568.024,-156.569C579.154,-157.791 590.472,-159.034 601.233,-160.216"/>
<polygon fill="midnightblue" stroke="midnightblue" points="568.2,-153.067 557.878,-155.455 567.436,-160.026 568.2,-153.067"/>
</g>
<!-- Node23 -->
<g id="node23" class="node"><title>Node23</title>
<g id="a_node23"><a xlink:href="classopenfoamagentpar_a9a8261713154978fa009d8cb2c533055.html#a9a8261713154978fa009d8cb2c533055" target="_top" xlink:title="openfoamagentpar::Initialize">
<polygon fill="none" stroke="black" points="594.5,-119.5 594.5,-138.5 733.5,-138.5 733.5,-119.5 594.5,-119.5"/>
<text text-anchor="middle" x="664" y="-126.5" font-family="Helvetica,sans-Serif" font-size="10.00">openfoamagentpar::Initialize</text>
</a>
</g>
</g>
<!-- Node7&#45;&gt;Node23 -->
<g id="edge33" class="edge"><title>Node7&#45;&gt;Node23</title>
<path fill="none" stroke="midnightblue" d="M567.832,-139.452C576.713,-138.477 585.718,-137.488 594.466,-136.527"/>
<polygon fill="midnightblue" stroke="midnightblue" points="567.436,-135.974 557.878,-140.545 568.2,-142.933 567.436,-135.974"/>
</g>
<!-- Node25 -->
<g id="node25" class="node"><title>Node25</title>
<g id="a_node25"><a xlink:href="classelmeragent_a66d8ac5294227a11adf08cdfa91f59b5.html#a66d8ac5294227a11adf08cdfa91f59b5" target="_top" xlink:title="elmeragent::Initialize">
<polygon fill="none" stroke="black" points="610.5,-195.5 610.5,-214.5 717.5,-214.5 717.5,-195.5 610.5,-195.5"/>
<text text-anchor="middle" x="664" y="-202.5" font-family="Helvetica,sans-Serif" font-size="10.00">elmeragent::Initialize</text>
</a>
</g>
</g>
<!-- Node7&#45;&gt;Node25 -->
<g id="edge35" class="edge"><title>Node7&#45;&gt;Node25</title>
<path fill="none" stroke="midnightblue" d="M538.181,-166.534C555.654,-173.008 575.616,-180.121 594,-186 604.414,-189.33 615.822,-192.616 626.31,-195.495"/>
<polygon fill="midnightblue" stroke="midnightblue" points="539.348,-163.233 528.755,-163.014 536.899,-169.791 539.348,-163.233"/>
</g>
<!-- Node27 -->
<g id="node27" class="node"><title>Node27</title>
<g id="a_node27"><a xlink:href="classelmeragentpar_a66d8ac5294227a11adf08cdfa91f59b5.html#a66d8ac5294227a11adf08cdfa91f59b5" target="_top" xlink:title="elmeragentpar::Initialize">
<polygon fill="none" stroke="black" points="604,-81.5 604,-100.5 724,-100.5 724,-81.5 604,-81.5"/>
<text text-anchor="middle" x="664" y="-88.5" font-family="Helvetica,sans-Serif" font-size="10.00">elmeragentpar::Initialize</text>
</a>
</g>
</g>
<!-- Node7&#45;&gt;Node27 -->
<g id="edge40" class="edge"><title>Node7&#45;&gt;Node27</title>
<path fill="none" stroke="midnightblue" d="M538.181,-129.466C555.654,-122.992 575.616,-115.879 594,-110 604.414,-106.67 615.822,-103.384 626.31,-100.505"/>
<polygon fill="midnightblue" stroke="midnightblue" points="536.899,-126.209 528.755,-132.986 539.348,-132.767 536.899,-126.209"/>
</g>
<!-- Node9 -->
<g id="node9" class="node"><title>Node9</title>
<g id="a_node9"><a xlink:href="classfsicoupling_ae855141f7b214925c25f7797b8b122a8.html#ae855141f7b214925c25f7797b8b122a8" target="_top" xlink:title="fsicoupling::Initialize">
<polygon fill="none" stroke="black" points="777.5,-176.5 777.5,-195.5 882.5,-195.5 882.5,-176.5 777.5,-176.5"/>
<text text-anchor="middle" x="830" y="-183.5" font-family="Helvetica,sans-Serif" font-size="10.00">fsicoupling::Initialize</text>
</a>
</g>
</g>
<!-- Node8&#45;&gt;Node9 -->
<g id="edge8" class="edge"><title>Node8&#45;&gt;Node9</title>
<path fill="none" stroke="midnightblue" d="M736.85,-175.324C750.47,-176.902 764.469,-178.524 777.313,-180.012"/>
<polygon fill="midnightblue" stroke="midnightblue" points="736.871,-171.803 726.534,-174.129 736.065,-178.757 736.871,-171.803"/>
</g>
<!-- Node22 -->
<g id="node22" class="node"><title>Node22</title>
<g id="a_node22"><a xlink:href="classElmerFoamFSI_1_1TestingObject_a08d0370a943e7c47c0098eb76664a71b.html#a08d0370a943e7c47c0098eb76664a71b" target="_top" xlink:title="Run an initialization check to make sure the OpenFoamFluids are running as they should. ">
<polygon fill="none" stroke="black" points="944.5,-0 944.5,-30 1093.5,-30 1093.5,-0 944.5,-0"/>
<text text-anchor="start" x="952.5" y="-18" font-family="Helvetica,sans-Serif" font-size="10.00">ElmerFoamFSI::TestingObject</text>
<text text-anchor="middle" x="1019" y="-7" font-family="Helvetica,sans-Serif" font-size="10.00">::Test__OpenFoamFluids</text>
</a>
</g>
</g>
<!-- Node8&#45;&gt;Node22 -->
<g id="edge30" class="edge"><title>Node8&#45;&gt;Node22</title>
<path fill="none" stroke="midnightblue" d="M736.975,-163.943C784.854,-158.532 846.672,-144.668 890,-110 917.625,-87.896 898.453,-61.2015 926,-39 931.526,-34.546 937.792,-30.9111 944.392,-27.9458"/>
<polygon fill="midnightblue" stroke="midnightblue" points="736.569,-160.466 726.981,-164.973 737.287,-167.429 736.569,-160.466"/>
</g>
<!-- Node10 -->
<g id="node10" class="node"><title>Node10</title>
<g id="a_node10"><a xlink:href="classElmerFoamFSI_1_1SerialDriverProgram_a5803949d99491a7186bf1ee9cee81a3b.html#a5803949d99491a7186bf1ee9cee81a3b" target="_top" xlink:title="This function implements the main function executed by the program. ">
<polygon fill="none" stroke="black" points="949,-343 949,-373 1089,-373 1089,-343 949,-343"/>
<text text-anchor="start" x="957" y="-361" font-family="Helvetica,sans-Serif" font-size="10.00">ElmerFoamFSI::SerialDriver</text>
<text text-anchor="middle" x="1019" y="-350" font-family="Helvetica,sans-Serif" font-size="10.00">Program::DriverRun</text>
</a>
</g>
</g>
<!-- Node9&#45;&gt;Node10 -->
<g id="edge9" class="edge"><title>Node9&#45;&gt;Node10</title>
<path fill="none" stroke="midnightblue" d="M838.011,-205.036C850.62,-236.572 880.156,-299.491 926,-333 932.815,-337.981 940.566,-341.97 948.609,-345.164"/>
<polygon fill="midnightblue" stroke="midnightblue" points="841.249,-203.703 834.385,-195.632 834.718,-206.222 841.249,-203.703"/>
</g>
<!-- Node12 -->
<g id="node12" class="node"><title>Node12</title>
<g id="a_node12"><a xlink:href="classElmerFoamFSI_1_1TestingObject_aa7d577bcec96bb12da930ede076b6023.html#aa7d577bcec96bb12da930ede076b6023" target="_top" xlink:title="Test for fluidAgent&#45;&gt;Run() function. ">
<polygon fill="none" stroke="black" points="944.5,-49 944.5,-79 1093.5,-79 1093.5,-49 944.5,-49"/>
<text text-anchor="start" x="952.5" y="-67" font-family="Helvetica,sans-Serif" font-size="10.00">ElmerFoamFSI::TestingObject</text>
<text text-anchor="middle" x="1019" y="-56" font-family="Helvetica,sans-Serif" font-size="10.00">::Test__FluidAgentRun</text>
</a>
</g>
</g>
<!-- Node9&#45;&gt;Node12 -->
<g id="edge11" class="edge"><title>Node9&#45;&gt;Node12</title>
<path fill="none" stroke="midnightblue" d="M855.778,-170.888C866.983,-163.347 879.938,-153.581 890,-143 910.133,-121.829 902.277,-105.051 926,-88 931.63,-83.9537 937.888,-80.5891 944.418,-77.7914"/>
<polygon fill="midnightblue" stroke="midnightblue" points="853.729,-168.046 847.255,-176.433 857.546,-173.914 853.729,-168.046"/>
</g>
<!-- Node18 -->
<g id="node18" class="node"><title>Node18</title>
<g id="a_node18"><a xlink:href="classElmerFoamFSI_1_1TestingObject_a07ff57097065c5066a4421176b63242b.html#a07ff57097065c5066a4421176b63242b" target="_top" xlink:title="Test the functionality of the fsiCoupler. ">
<polygon fill="none" stroke="black" points="944.5,-245 944.5,-275 1093.5,-275 1093.5,-245 944.5,-245"/>
<text text-anchor="start" x="952.5" y="-263" font-family="Helvetica,sans-Serif" font-size="10.00">ElmerFoamFSI::TestingObject</text>
<text text-anchor="middle" x="1019" y="-252" font-family="Helvetica,sans-Serif" font-size="10.00">::Test__FsiCoupler</text>
</a>
</g>
</g>
<!-- Node9&#45;&gt;Node18 -->
<g id="edge18" class="edge"><title>Node9&#45;&gt;Node18</title>
<path fill="none" stroke="midnightblue" d="M855.785,-200.623C874.573,-211.249 901.289,-225.394 926,-235 935.41,-238.658 945.56,-241.993 955.561,-244.95"/>
<polygon fill="midnightblue" stroke="midnightblue" points="857.405,-197.518 846.989,-195.578 853.922,-203.589 857.405,-197.518"/>
</g>
<!-- Node19 -->
<g id="node19" class="node"><title>Node19</title>
<g id="a_node19"><a xlink:href="classElmerFoamFSI_1_1TestingObject_a1fae1ccecf337df1572d5a43cdae1a08.html#a1fae1ccecf337df1572d5a43cdae1a08" target="_top" xlink:title="Test for solidAgent&#45;&gt;Run() function. ">
<polygon fill="none" stroke="black" points="944.5,-196 944.5,-226 1093.5,-226 1093.5,-196 944.5,-196"/>
<text text-anchor="start" x="952.5" y="-214" font-family="Helvetica,sans-Serif" font-size="10.00">ElmerFoamFSI::TestingObject</text>
<text text-anchor="middle" x="1019" y="-203" font-family="Helvetica,sans-Serif" font-size="10.00">::Test__SolidAgentRun</text>
</a>
</g>
</g>
<!-- Node9&#45;&gt;Node19 -->
<g id="edge21" class="edge"><title>Node9&#45;&gt;Node19</title>
<path fill="none" stroke="midnightblue" d="M892.641,-194.241C909.125,-196.445 927.109,-198.849 944.177,-201.131"/>
<polygon fill="midnightblue" stroke="midnightblue" points="892.969,-190.754 882.594,-192.898 892.042,-197.692 892.969,-190.754"/>
</g>
<!-- Node20 -->
<g id="node20" class="node"><title>Node20</title>
<g id="a_node20"><a xlink:href="classElmerFoamFSI_1_1TestingObject_abb3c0f68a2d2e212fa6e05e4628c78f0.html#abb3c0f68a2d2e212fa6e05e4628c78f0" target="_top" xlink:title="Test for fsiCoupling::TrasferDisplacementsToFluid function. ">
<polygon fill="none" stroke="black" points="926,-147 926,-177 1112,-177 1112,-147 926,-147"/>
<text text-anchor="start" x="934" y="-165" font-family="Helvetica,sans-Serif" font-size="10.00">ElmerFoamFSI::TestingObject</text>
<text text-anchor="middle" x="1019" y="-154" font-family="Helvetica,sans-Serif" font-size="10.00">::Test__TransferDisplacementsToFluid</text>
</a>
</g>
</g>
<!-- Node9&#45;&gt;Node20 -->
<g id="edge24" class="edge"><title>Node9&#45;&gt;Node20</title>
<path fill="none" stroke="midnightblue" d="M892.567,-178.098C903.192,-176.735 914.441,-175.291 925.668,-173.85"/>
<polygon fill="midnightblue" stroke="midnightblue" points="892.067,-174.634 882.594,-179.378 892.958,-181.577 892.067,-174.634"/>
</g>
<!-- Node21 -->
<g id="node21" class="node"><title>Node21</title>
<g id="a_node21"><a xlink:href="classElmerFoamFSI_1_1TestingObject_a8c738943eca358248eb583bd29c5c332.html#a8c738943eca358248eb583bd29c5c332" target="_top" xlink:title="Test for TransferLoadsToStructures() function. ">
<polygon fill="none" stroke="black" points="933.5,-98 933.5,-128 1104.5,-128 1104.5,-98 933.5,-98"/>
<text text-anchor="start" x="941.5" y="-116" font-family="Helvetica,sans-Serif" font-size="10.00">ElmerFoamFSI::TestingObject</text>
<text text-anchor="middle" x="1019" y="-105" font-family="Helvetica,sans-Serif" font-size="10.00">::Test__TransferLoadsToStructures</text>
</a>
</g>
</g>
<!-- Node9&#45;&gt;Node21 -->
<g id="edge27" class="edge"><title>Node9&#45;&gt;Node21</title>
<path fill="none" stroke="midnightblue" d="M855.756,-171.303C874.53,-160.64 901.241,-146.481 926,-137 934.633,-133.694 943.891,-130.687 953.088,-128.005"/>
<polygon fill="midnightblue" stroke="midnightblue" points="853.884,-168.343 846.969,-176.369 857.38,-174.407 853.884,-168.343"/>
</g>
<!-- Node11 -->
<g id="node11" class="node"><title>Node11</title>
<g id="a_node11"><a xlink:href="namespaceElmerFoamFSI_aff46f457934a8e2d3712bdbfb1688e99.html#aff46f457934a8e2d3712bdbfb1688e99" target="_top" xlink:title="Unified driver for the example programs. ">
<polygon fill="none" stroke="black" points="1165.5,-348.5 1165.5,-367.5 1280.5,-367.5 1280.5,-348.5 1165.5,-348.5"/>
<text text-anchor="middle" x="1223" y="-355.5" font-family="Helvetica,sans-Serif" font-size="10.00">ElmerFoamFSI::Driver</text>
</a>
</g>
</g>
<!-- Node10&#45;&gt;Node11 -->
<g id="edge10" class="edge"><title>Node10&#45;&gt;Node11</title>
<path fill="none" stroke="midnightblue" d="M1099.24,-358C1121.28,-358 1144.78,-358 1165.25,-358"/>
<polygon fill="midnightblue" stroke="midnightblue" points="1099.23,-354.5 1089.23,-358 1099.23,-361.5 1099.23,-354.5"/>
</g>
<!-- Node13 -->
<g id="node13" class="node"><title>Node13</title>
<g id="a_node13"><a xlink:href="classElmerFoamFSI_1_1TestingObject_a046f7ab06db0acf616b0d2bf3d3146aa.html#a046f7ab06db0acf616b0d2bf3d3146aa" target="_top" xlink:title="Runs all tests implemented by the ElmerFoamFSI::TestingObject. ">
<polygon fill="none" stroke="black" points="1148.5,-122 1148.5,-152 1297.5,-152 1297.5,-122 1148.5,-122"/>
<text text-anchor="start" x="1156.5" y="-140" font-family="Helvetica,sans-Serif" font-size="10.00">ElmerFoamFSI::TestingObject</text>
<text text-anchor="middle" x="1223" y="-129" font-family="Helvetica,sans-Serif" font-size="10.00">::Process</text>
</a>
</g>
</g>
<!-- Node12&#45;&gt;Node13 -->
<g id="edge12" class="edge"><title>Node12&#45;&gt;Node13</title>
<path fill="none" stroke="midnightblue" d="M1093.29,-81.9503C1099.66,-83.8624 1105.97,-85.8859 1112,-88 1139.62,-97.6814 1169.93,-111.428 1191.73,-121.899"/>
<polygon fill="midnightblue" stroke="midnightblue" points="1093.84,-78.4672 1083.26,-79.0403 1091.89,-85.1896 1093.84,-78.4672"/>
</g>
<!-- Node16 -->
<g id="node16" class="node"><title>Node16</title>
<g id="a_node16"><a xlink:href="classElmerFoamFSI_1_1TestingObject_af1f07f14b9af7708e4264bb38937eed2.html#af1f07f14b9af7708e4264bb38937eed2" target="_top" xlink:title="Runs a test specified by name. ">
<polygon fill="none" stroke="black" points="1148.5,-171 1148.5,-201 1297.5,-201 1297.5,-171 1148.5,-171"/>
<text text-anchor="start" x="1156.5" y="-189" font-family="Helvetica,sans-Serif" font-size="10.00">ElmerFoamFSI::TestingObject</text>
<text text-anchor="middle" x="1223" y="-178" font-family="Helvetica,sans-Serif" font-size="10.00">::RunTest</text>
</a>
</g>
</g>
<!-- Node12&#45;&gt;Node16 -->
<g id="edge15" class="edge"><title>Node12&#45;&gt;Node16</title>
<path fill="none" stroke="midnightblue" d="M1102.66,-81.532C1105.94,-83.4691 1109.08,-85.6175 1112,-88 1140.04,-110.857 1120.78,-137.168 1148,-161 1152.39,-164.841 1157.39,-168.098 1162.67,-170.857"/>
<polygon fill="midnightblue" stroke="midnightblue" points="1104.15,-78.3624 1093.66,-76.8822 1100.94,-84.5816 1104.15,-78.3624"/>
</g>
<!-- Node14 -->
<g id="node14" class="node"><title>Node14</title>
<g id="a_node14"><a xlink:href="namespaceElmerFoamFSI_aeb590657609088b8ab12a5cbd164fcfa.html#aeb590657609088b8ab12a5cbd164fcfa" target="_top" xlink:title="Drives the ElmerFoamFSI::TestObject. ">
<polygon fill="none" stroke="black" points="1355,-130.5 1355,-149.5 1463,-149.5 1463,-130.5 1355,-130.5"/>
<text text-anchor="middle" x="1409" y="-137.5" font-family="Helvetica,sans-Serif" font-size="10.00">ElmerFoamFSI::Test</text>
</a>
</g>
</g>
<!-- Node13&#45;&gt;Node14 -->
<g id="edge13" class="edge"><title>Node13&#45;&gt;Node14</title>
<path fill="none" stroke="midnightblue" d="M1307.96,-138.369C1323.97,-138.63 1340.3,-138.896 1355,-139.136"/>
<polygon fill="midnightblue" stroke="midnightblue" points="1307.57,-134.862 1297.51,-138.199 1307.46,-141.861 1307.57,-134.862"/>
</g>
<!-- Node15 -->
<g id="node15" class="node"><title>Node15</title>
<g id="a_node15"><a xlink:href="TestElmerFoamFSI_8C_a0ddf1224851353fc92bfbff6f499fa97.html#a0ddf1224851353fc92bfbff6f499fa97" target="_top" xlink:title="main">
<polygon fill="none" stroke="black" points="1520,-130.5 1520,-149.5 1558,-149.5 1558,-130.5 1520,-130.5"/>
<text text-anchor="middle" x="1539" y="-137.5" font-family="Helvetica,sans-Serif" font-size="10.00">main</text>
</a>
</g>
</g>
<!-- Node14&#45;&gt;Node15 -->
<g id="edge14" class="edge"><title>Node14&#45;&gt;Node15</title>
<path fill="none" stroke="midnightblue" d="M1473.19,-140C1490.29,-140 1507.47,-140 1519.84,-140"/>
<polygon fill="midnightblue" stroke="midnightblue" points="1473.17,-136.5 1463.17,-140 1473.17,-143.5 1473.17,-136.5"/>
</g>
<!-- Node17 -->
<g id="node17" class="node"><title>Node17</title>
<g id="a_node17"><a xlink:href="classElmerFoamFSI_1_1TestingObject_a21159bd2efac623e5a5079f6a20f3444.html#a21159bd2efac623e5a5079f6a20f3444" target="_top" xlink:title="Runs a list of tests specified by name. ">
<polygon fill="none" stroke="black" points="1334.5,-171 1334.5,-201 1483.5,-201 1483.5,-171 1334.5,-171"/>
<text text-anchor="start" x="1342.5" y="-189" font-family="Helvetica,sans-Serif" font-size="10.00">ElmerFoamFSI::TestingObject</text>
<text text-anchor="middle" x="1409" y="-178" font-family="Helvetica,sans-Serif" font-size="10.00">::ProcessTests</text>
</a>
</g>
</g>
<!-- Node16&#45;&gt;Node17 -->
<g id="edge16" class="edge"><title>Node16&#45;&gt;Node17</title>
<path fill="none" stroke="midnightblue" d="M1307.53,-186C1316.46,-186 1325.5,-186 1334.3,-186"/>
<polygon fill="midnightblue" stroke="midnightblue" points="1307.51,-182.5 1297.51,-186 1307.51,-189.5 1307.51,-182.5"/>
</g>
<!-- Node16&#45;&gt;Node14 -->
<g id="edge17" class="edge"><title>Node16&#45;&gt;Node14</title>
<path fill="none" stroke="midnightblue" d="M1293.99,-168.503C1319.75,-162.061 1347.97,-155.008 1369.89,-149.529"/>
<polygon fill="midnightblue" stroke="midnightblue" points="1293.1,-165.117 1284.25,-170.938 1294.8,-171.908 1293.1,-165.117"/>
</g>
<!-- Node18&#45;&gt;Node13 -->
<g id="edge19" class="edge"><title>Node18&#45;&gt;Node13</title>
<path fill="none" stroke="midnightblue" d="M1102.69,-241.563C1105.96,-239.592 1109.09,-237.412 1112,-235 1140.17,-211.672 1120.4,-185.001 1148,-161 1151.97,-157.543 1156.46,-154.583 1161.2,-152.048"/>
<polygon fill="midnightblue" stroke="midnightblue" points="1100.91,-238.543 1093.7,-246.307 1104.18,-244.733 1100.91,-238.543"/>
</g>
<!-- Node18&#45;&gt;Node16 -->
<g id="edge20" class="edge"><title>Node18&#45;&gt;Node16</title>
<path fill="none" stroke="midnightblue" d="M1090.67,-241.989C1097.92,-239.786 1105.14,-237.444 1112,-235 1139.57,-225.179 1169.88,-211.445 1191.69,-201.015"/>
<polygon fill="midnightblue" stroke="midnightblue" points="1089.39,-238.718 1080.79,-244.905 1091.37,-245.432 1089.39,-238.718"/>
</g>
<!-- Node19&#45;&gt;Node13 -->
<g id="edge22" class="edge"><title>Node19&#45;&gt;Node13</title>
<path fill="none" stroke="midnightblue" d="M1096.18,-192.525C1101.61,-190.532 1106.94,-188.36 1112,-186 1129.66,-177.771 1130.55,-169.653 1148,-161 1154.66,-157.7 1161.87,-154.71 1169.09,-152.05"/>
<polygon fill="midnightblue" stroke="midnightblue" points="1094.63,-189.356 1086.31,-195.921 1096.91,-195.974 1094.63,-189.356"/>
</g>
<!-- Node19&#45;&gt;Node16 -->
<g id="edge23" class="edge"><title>Node19&#45;&gt;Node16</title>
<path fill="none" stroke="midnightblue" d="M1103.91,-200.615C1118.68,-198.787 1133.96,-196.897 1148.42,-195.107"/>
<polygon fill="midnightblue" stroke="midnightblue" points="1103.28,-197.166 1093.78,-201.868 1104.14,-204.113 1103.28,-197.166"/>
</g>
<!-- Node20&#45;&gt;Node13 -->
<g id="edge25" class="edge"><title>Node20&#45;&gt;Node13</title>
<path fill="none" stroke="midnightblue" d="M1122.14,-149.358C1131.02,-148.26 1139.88,-147.163 1148.46,-146.101"/>
<polygon fill="midnightblue" stroke="midnightblue" points="1121.63,-145.896 1112.13,-150.597 1122.49,-152.843 1121.63,-145.896"/>
</g>
<!-- Node20&#45;&gt;Node16 -->
<g id="edge26" class="edge"><title>Node20&#45;&gt;Node16</title>
<path fill="none" stroke="midnightblue" d="M1122.14,-174.136C1131.02,-175.19 1139.88,-176.244 1148.46,-177.263"/>
<polygon fill="midnightblue" stroke="midnightblue" points="1122.48,-170.651 1112.13,-172.947 1121.65,-177.602 1122.48,-170.651"/>
</g>
<!-- Node21&#45;&gt;Node13 -->
<g id="edge28" class="edge"><title>Node21&#45;&gt;Node13</title>
<path fill="none" stroke="midnightblue" d="M1115.02,-124.29C1126.21,-125.619 1137.5,-126.96 1148.33,-128.247"/>
<polygon fill="midnightblue" stroke="midnightblue" points="1115.13,-120.778 1104.79,-123.074 1114.31,-127.729 1115.13,-120.778"/>
</g>
<!-- Node21&#45;&gt;Node16 -->
<g id="edge29" class="edge"><title>Node21&#45;&gt;Node16</title>
<path fill="none" stroke="midnightblue" d="M1097.72,-131.269C1102.61,-133.034 1107.41,-134.942 1112,-137 1129.55,-144.869 1130.74,-152.516 1148,-161 1155.42,-164.649 1163.51,-167.979 1171.52,-170.934"/>
<polygon fill="midnightblue" stroke="midnightblue" points="1098.81,-127.944 1088.21,-128.05 1096.56,-134.574 1098.81,-127.944"/>
</g>
<!-- Node22&#45;&gt;Node13 -->
<g id="edge31" class="edge"><title>Node22&#45;&gt;Node13</title>
<path fill="none" stroke="midnightblue" d="M1101.09,-33.7878C1104.84,-35.3914 1108.5,-37.1255 1112,-39 1152.59,-60.7268 1190.48,-100.35 1209.4,-121.961"/>
<polygon fill="midnightblue" stroke="midnightblue" points="1102.19,-30.461 1091.61,-30.0649 1099.64,-36.9769 1102.19,-30.461"/>
</g>
<!-- Node22&#45;&gt;Node16 -->
<g id="edge32" class="edge"><title>Node22&#45;&gt;Node16</title>
<path fill="none" stroke="midnightblue" d="M1102.46,-31.4498C1105.88,-33.6687 1109.08,-36.1736 1112,-39 1152.6,-78.3356 1108.81,-120.256 1148,-161 1151.76,-164.909 1156.15,-168.207 1160.89,-170.99"/>
<polygon fill="midnightblue" stroke="midnightblue" points="1104.04,-28.3202 1093.6,-26.5028 1100.62,-34.4326 1104.04,-28.3202"/>
</g>
<!-- Node24 -->
<g id="node24" class="node"><title>Node24</title>
<g id="a_node24"><a xlink:href="classfsicouplingpar_ae855141f7b214925c25f7797b8b122a8.html#ae855141f7b214925c25f7797b8b122a8" target="_top" xlink:title="fsicouplingpar::Initialize">
<polygon fill="none" stroke="black" points="770.5,-81.5 770.5,-100.5 889.5,-100.5 889.5,-81.5 770.5,-81.5"/>
<text text-anchor="middle" x="830" y="-88.5" font-family="Helvetica,sans-Serif" font-size="10.00">fsicouplingpar::Initialize</text>
</a>
</g>
</g>
<!-- Node23&#45;&gt;Node24 -->
<g id="edge34" class="edge"><title>Node23&#45;&gt;Node24</title>
<path fill="none" stroke="midnightblue" d="M716.341,-117.104C739.393,-111.763 766.221,-105.546 787.913,-100.52"/>
<polygon fill="midnightblue" stroke="midnightblue" points="715.336,-113.744 706.384,-119.411 716.916,-120.563 715.336,-113.744"/>
</g>
<!-- Node25&#45;&gt;Node9 -->
<g id="edge36" class="edge"><title>Node25&#45;&gt;Node9</title>
<path fill="none" stroke="midnightblue" d="M727.833,-197.721C744.223,-195.822 761.695,-193.798 777.426,-191.975"/>
<polygon fill="midnightblue" stroke="midnightblue" points="727.324,-194.256 717.793,-198.884 728.13,-201.21 727.324,-194.256"/>
</g>
<!-- Node26 -->
<g id="node26" class="node"><title>Node26</title>
<g id="a_node26"><a xlink:href="classElmerFoamFSI_1_1TestingObject_af35b4f0c5c244be91e637c17b3ebabd9.html#af35b4f0c5c244be91e637c17b3ebabd9" target="_top" xlink:title="Run an initialization check to make sure that the ElmerStructures are running as they should...">
<polygon fill="none" stroke="black" points="944.5,-294 944.5,-324 1093.5,-324 1093.5,-294 944.5,-294"/>
<text text-anchor="start" x="952.5" y="-312" font-family="Helvetica,sans-Serif" font-size="10.00">ElmerFoamFSI::TestingObject</text>
<text text-anchor="middle" x="1019" y="-301" font-family="Helvetica,sans-Serif" font-size="10.00">::Test__ElmerStructures</text>
</a>
</g>
</g>
<!-- Node25&#45;&gt;Node26 -->
<g id="edge37" class="edge"><title>Node25&#45;&gt;Node26</title>
<path fill="none" stroke="midnightblue" d="M705.136,-217.537C756.289,-233.427 847.506,-261.461 926,-284 937.454,-287.289 949.743,-290.706 961.49,-293.918"/>
<polygon fill="midnightblue" stroke="midnightblue" points="706.043,-214.154 695.455,-214.527 703.964,-220.839 706.043,-214.154"/>
</g>
<!-- Node26&#45;&gt;Node13 -->
<g id="edge38" class="edge"><title>Node26&#45;&gt;Node13</title>
<path fill="none" stroke="midnightblue" d="M1102.49,-291.639C1105.89,-289.387 1109.09,-286.852 1112,-284 1152.67,-244.116 1108.31,-201.854 1148,-161 1151.29,-157.61 1155.07,-154.697 1159.14,-152.196"/>
<polygon fill="midnightblue" stroke="midnightblue" points="1100.6,-288.688 1093.63,-296.675 1104.06,-294.772 1100.6,-288.688"/>
</g>
<!-- Node26&#45;&gt;Node16 -->
<g id="edge39" class="edge"><title>Node26&#45;&gt;Node16</title>
<path fill="none" stroke="midnightblue" d="M1098.73,-290.302C1103.31,-288.39 1107.77,-286.294 1112,-284 1152.25,-262.189 1189.99,-222.967 1209.06,-201.345"/>
<polygon fill="midnightblue" stroke="midnightblue" points="1097.26,-287.114 1089.19,-293.976 1099.78,-293.646 1097.26,-287.114"/>
</g>
<!-- Node27&#45;&gt;Node24 -->
<g id="edge41" class="edge"><title>Node27&#45;&gt;Node24</title>
<path fill="none" stroke="midnightblue" d="M734.218,-91C746.27,-91 758.698,-91 770.429,-91"/>
<polygon fill="midnightblue" stroke="midnightblue" points="734.208,-87.5001 724.208,-91 734.208,-94.5001 734.208,-87.5001"/>
</g>
</g>
</svg>
