<?xml version="1.0" encoding="UTF-8" standalone="no"?>
<!DOCTYPE svg PUBLIC "-//W3C//DTD SVG 1.1//EN"
 "http://www.w3.org/Graphics/SVG/1.1/DTD/svg11.dtd">
<!-- Generated by graphviz version 2.30.1 (20150305.2338)
 -->
<!-- Title: reinit_conn Pages: 1 -->
<svg width="182pt" height="66pt"
 viewBox="0.00 0.00 182.00 66.00" xmlns="http://www.w3.org/2000/svg" xmlns:xlink="http://www.w3.org/1999/xlink">
<g id="graph0" class="graph" transform="scale(1 1) rotate(0) translate(4 62)">
<title>reinit_conn</title>
<!-- Node1 -->
<g id="node1" class="node"><title>Node1</title>
<polygon fill="#bfbfbf" stroke="black" points="0,-19.5 0,-38.5 64,-38.5 64,-19.5 0,-19.5"/>
<text text-anchor="middle" x="32" y="-26.5" font-family="Helvetica,sans-Serif" font-size="10.00">reinit_conn</text>
</g>
<!-- Node2 -->
<g id="node2" class="node"><title>Node2</title>
<g id="a_node2"><a xlink:href="classComponentInterface_af423d54e3578b11ac134aea7e148d551.html#af423d54e3578b11ac134aea7e148d551" target="_top" xlink:title="dealloc_array">
<polygon fill="none" stroke="black" points="100,-38.5 100,-57.5 174,-57.5 174,-38.5 100,-38.5"/>
<text text-anchor="middle" x="137" y="-45.5" font-family="Helvetica,sans-Serif" font-size="10.00">dealloc_array</text>
</a>
</g>
</g>
<!-- Node1&#45;&gt;Node2 -->
<g id="edge1" class="edge"><title>Node1&#45;&gt;Node2</title>
<path fill="none" stroke="midnightblue" d="M74.2598,-36.611C82.731,-38.1737 91.5874,-39.8074 99.8614,-41.3337"/>
<polygon fill="midnightblue" stroke="midnightblue" points="74.6519,-33.1244 64.1829,-34.7522 73.3821,-40.0083 74.6519,-33.1244"/>
</g>
<!-- Node3 -->
<g id="node3" class="node"><title>Node3</title>
<g id="a_node3"><a xlink:href="classComponentInterface_a452af820da4e5427a7dec303f746aec0.html#a452af820da4e5427a7dec303f746aec0" target="_top" xlink:title="resize_array">
<polygon fill="none" stroke="black" points="102,-0.5 102,-19.5 172,-19.5 172,-0.5 102,-0.5"/>
<text text-anchor="middle" x="137" y="-7.5" font-family="Helvetica,sans-Serif" font-size="10.00">resize_array</text>
</a>
</g>
</g>
<!-- Node1&#45;&gt;Node3 -->
<g id="edge2" class="edge"><title>Node1&#45;&gt;Node3</title>
<path fill="none" stroke="midnightblue" d="M74.2157,-21.3971C83.3273,-19.7163 92.8866,-17.953 101.689,-16.3292"/>
<polygon fill="midnightblue" stroke="midnightblue" points="73.3821,-17.9917 64.1829,-23.2478 74.6519,-24.8756 73.3821,-17.9917"/>
</g>
</g>
</svg>
