<?xml version="1.0" encoding="UTF-8" standalone="no"?>
<!DOCTYPE svg PUBLIC "-//W3C//DTD SVG 1.1//EN"
 "http://www.w3.org/Graphics/SVG/1.1/DTD/svg11.dtd">
<!-- Generated by graphviz version 2.30.1 (20150305.2338)
 -->
<!-- Title: InProcess Pages: 1 -->
<svg width="308pt" height="338pt"
 viewBox="0.00 0.00 308.00 338.00" xmlns="http://www.w3.org/2000/svg" xmlns:xlink="http://www.w3.org/1999/xlink">
<g id="graph0" class="graph" transform="scale(1 1) rotate(0) translate(4 334)">
<title>InProcess</title>
<!-- Node1 -->
<g id="node1" class="node"><title>Node1</title>
<polygon fill="#bfbfbf" stroke="black" points="176.5,-0.5 176.5,-19.5 237.5,-19.5 237.5,-0.5 176.5,-0.5"/>
<text text-anchor="middle" x="207" y="-7.5" font-family="Helvetica,sans-Serif" font-size="10.00">InProcess</text>
</g>
<!-- Node2 -->
<g id="node2" class="node"><title>Node2</title>
<g id="a_node2"><a xlink:href="classIRAD_1_1Sys_1_1fdistream.html" target="_top" xlink:title="fdistream">
<polygon fill="none" stroke="black" points="124.5,-68.5 124.5,-87.5 181.5,-87.5 181.5,-68.5 124.5,-68.5"/>
<text text-anchor="middle" x="153" y="-75.5" font-family="Helvetica,sans-Serif" font-size="10.00">fdistream</text>
</a>
</g>
</g>
<!-- Node2&#45;&gt;Node1 -->
<g id="edge1" class="edge"><title>Node2&#45;&gt;Node1</title>
<path fill="none" stroke="midnightblue" d="M166.655,-60.3101C177.182,-47.4437 191.325,-30.1583 199.766,-19.8411"/>
<polygon fill="midnightblue" stroke="midnightblue" points="163.683,-58.4157 160.06,-68.3717 169.101,-62.8484 163.683,-58.4157"/>
</g>
<!-- Node3 -->
<g id="node3" class="node"><title>Node3</title>
<g id="a_node3"><a xlink:title="STL class. ">
<polygon fill="none" stroke="#bfbfbf" points="54.5,-136.5 54.5,-155.5 103.5,-155.5 103.5,-136.5 54.5,-136.5"/>
<text text-anchor="middle" x="79" y="-143.5" font-family="Helvetica,sans-Serif" font-size="10.00">istream</text>
</a>
</g>
</g>
<!-- Node3&#45;&gt;Node2 -->
<g id="edge2" class="edge"><title>Node3&#45;&gt;Node2</title>
<path fill="none" stroke="midnightblue" d="M96.4772,-129.412C111.014,-116.447 131.186,-98.4559 143.087,-87.8411"/>
<polygon fill="midnightblue" stroke="midnightblue" points="93.8075,-127.103 88.6742,-136.372 98.4668,-132.328 93.8075,-127.103"/>
</g>
<!-- Node4 -->
<g id="node4" class="node"><title>Node4</title>
<g id="a_node4"><a xlink:title="STL class. ">
<polygon fill="none" stroke="#bfbfbf" points="0,-194.5 0,-213.5 114,-213.5 114,-194.5 0,-194.5"/>
<text text-anchor="middle" x="57" y="-201.5" font-family="Helvetica,sans-Serif" font-size="10.00">basic_istream&lt; char &gt;</text>
</a>
</g>
</g>
<!-- Node4&#45;&gt;Node3 -->
<g id="edge3" class="edge"><title>Node4&#45;&gt;Node3</title>
<path fill="none" stroke="midnightblue" d="M64.1133,-184.893C67.99,-175.026 72.6056,-163.277 75.6587,-155.505"/>
<polygon fill="midnightblue" stroke="midnightblue" points="60.8365,-183.663 60.4375,-194.25 67.3517,-186.222 60.8365,-183.663"/>
</g>
<!-- Node5 -->
<g id="node5" class="node"><title>Node5</title>
<g id="a_node5"><a xlink:title="STL class. ">
<polygon fill="none" stroke="#bfbfbf" points="8.5,-252.5 8.5,-271.5 105.5,-271.5 105.5,-252.5 8.5,-252.5"/>
<text text-anchor="middle" x="57" y="-259.5" font-family="Helvetica,sans-Serif" font-size="10.00">basic_ios&lt; Char &gt;</text>
</a>
</g>
</g>
<!-- Node5&#45;&gt;Node4 -->
<g id="edge4" class="edge"><title>Node5&#45;&gt;Node4</title>
<path fill="none" stroke="midnightblue" d="M57,-241.953C57,-232.287 57,-221.031 57,-213.505"/>
<polygon fill="midnightblue" stroke="midnightblue" points="53.5001,-242.25 57,-252.25 60.5001,-242.25 53.5001,-242.25"/>
</g>
<!-- Node6 -->
<g id="node6" class="node"><title>Node6</title>
<g id="a_node6"><a xlink:title="STL class. ">
<polygon fill="none" stroke="#bfbfbf" points="29,-310.5 29,-329.5 85,-329.5 85,-310.5 29,-310.5"/>
<text text-anchor="middle" x="57" y="-317.5" font-family="Helvetica,sans-Serif" font-size="10.00">ios_base</text>
</a>
</g>
</g>
<!-- Node6&#45;&gt;Node5 -->
<g id="edge5" class="edge"><title>Node6&#45;&gt;Node5</title>
<path fill="none" stroke="midnightblue" d="M57,-299.953C57,-290.287 57,-279.031 57,-271.505"/>
<polygon fill="midnightblue" stroke="midnightblue" points="53.5001,-300.25 57,-310.25 60.5001,-300.25 53.5001,-300.25"/>
</g>
<!-- Node7 -->
<g id="node7" class="node"><title>Node7</title>
<g id="a_node7"><a xlink:href="classIRAD_1_1Sys_1_1fdinbuf.html" target="_top" xlink:title="fdinbuf">
<polygon fill="none" stroke="black" points="130,-136.5 130,-155.5 176,-155.5 176,-136.5 130,-136.5"/>
<text text-anchor="middle" x="153" y="-143.5" font-family="Helvetica,sans-Serif" font-size="10.00">fdinbuf</text>
</a>
</g>
</g>
<!-- Node7&#45;&gt;Node2 -->
<g id="edge6" class="edge"><title>Node7&#45;&gt;Node2</title>
<path fill="none" stroke="#9a32cd" stroke-dasharray="5,2" d="M153,-126.041C153,-113.472 153,-97.5631 153,-87.8411"/>
<polygon fill="#9a32cd" stroke="#9a32cd" points="149.5,-126.372 153,-136.372 156.5,-126.372 149.5,-126.372"/>
<text text-anchor="middle" x="161.5" y="-109.5" font-family="Helvetica,sans-Serif" font-size="10.00"> buf</text>
</g>
<!-- Node8 -->
<g id="node8" class="node"><title>Node8</title>
<polygon fill="none" stroke="#bfbfbf" points="132,-194.5 132,-213.5 192,-213.5 192,-194.5 132,-194.5"/>
<text text-anchor="middle" x="162" y="-201.5" font-family="Helvetica,sans-Serif" font-size="10.00">streambuf</text>
</g>
<!-- Node8&#45;&gt;Node7 -->
<g id="edge7" class="edge"><title>Node8&#45;&gt;Node7</title>
<path fill="none" stroke="midnightblue" d="M158.989,-184.268C157.425,-174.533 155.59,-163.113 154.367,-155.505"/>
<polygon fill="midnightblue" stroke="midnightblue" points="155.551,-184.932 160.594,-194.25 162.463,-183.821 155.551,-184.932"/>
</g>
<!-- Node9 -->
<g id="node9" class="node"><title>Node9</title>
<g id="a_node9"><a xlink:title="STL class. ">
<polygon fill="none" stroke="#bfbfbf" points="218.5,-68.5 218.5,-87.5 259.5,-87.5 259.5,-68.5 218.5,-68.5"/>
<text text-anchor="middle" x="239" y="-75.5" font-family="Helvetica,sans-Serif" font-size="10.00">string</text>
</a>
</g>
</g>
<!-- Node9&#45;&gt;Node1 -->
<g id="edge8" class="edge"><title>Node9&#45;&gt;Node1</title>
<path fill="none" stroke="#9a32cd" stroke-dasharray="5,2" d="M230.363,-59.1859C224.189,-46.4523 216.145,-29.8607 211.287,-19.8411"/>
<polygon fill="#9a32cd" stroke="#9a32cd" points="227.304,-60.9005 234.817,-68.3717 233.603,-57.8465 227.304,-60.9005"/>
<text text-anchor="middle" x="247.5" y="-41.5" font-family="Helvetica,sans-Serif" font-size="10.00"> _comline</text>
</g>
<!-- Node10 -->
<g id="node10" class="node"><title>Node10</title>
<g id="a_node10"><a xlink:title="STL class. ">
<polygon fill="none" stroke="#bfbfbf" points="194,-136.5 194,-155.5 300,-155.5 300,-136.5 194,-136.5"/>
<text text-anchor="middle" x="247" y="-143.5" font-family="Helvetica,sans-Serif" font-size="10.00">basic_string&lt; char &gt;</text>
</a>
</g>
</g>
<!-- Node10&#45;&gt;Node9 -->
<g id="edge9" class="edge"><title>Node10&#45;&gt;Node9</title>
<path fill="none" stroke="midnightblue" d="M244.748,-126.425C243.218,-113.798 241.262,-97.6623 240.072,-87.8411"/>
<polygon fill="midnightblue" stroke="midnightblue" points="241.276,-126.866 245.954,-136.372 248.225,-126.023 241.276,-126.866"/>
</g>
</g>
</svg>
