<?xml version="1.0" encoding="UTF-8" standalone="no"?>
<!DOCTYPE svg PUBLIC "-//W3C//DTD SVG 1.1//EN"
 "http://www.w3.org/Graphics/SVG/1.1/DTD/svg11.dtd">
<!-- Generated by graphviz version 2.30.1 (20150305.2338)
 -->
<!-- Title: CPlane Pages: 1 -->
<svg width="125pt" height="96pt"
 viewBox="0.00 0.00 125.00 96.00" xmlns="http://www.w3.org/2000/svg" xmlns:xlink="http://www.w3.org/1999/xlink">
<g id="graph0" class="graph" transform="scale(1 1) rotate(0) translate(4 92)">
<title>CPlane</title>
<!-- Node1 -->
<g id="node1" class="node"><title>Node1</title>
<polygon fill="#bfbfbf" stroke="black" points="35.5,-0.5 35.5,-19.5 84.5,-19.5 84.5,-0.5 35.5,-0.5"/>
<text text-anchor="middle" x="60" y="-7.5" font-family="Helvetica,sans-Serif" font-size="10.00">CPlane</text>
</g>
<!-- Node2 -->
<g id="node2" class="node"><title>Node2</title>
<g id="a_node2"><a xlink:href="classSolverUtils_1_1GeoPrim_1_1CVector.html" target="_top" xlink:title="CVector">
<polygon fill="none" stroke="black" points="-0.5,-68.5 -0.5,-87.5 52.5,-87.5 52.5,-68.5 -0.5,-68.5"/>
<text text-anchor="middle" x="26" y="-75.5" font-family="Helvetica,sans-Serif" font-size="10.00">CVector</text>
</a>
</g>
</g>
<!-- Node2&#45;&gt;Node1 -->
<g id="edge1" class="edge"><title>Node2&#45;&gt;Node1</title>
<path fill="none" stroke="#9a32cd" stroke-dasharray="5,2" d="M35.177,-59.1859C41.7367,-46.4523 50.2839,-29.8607 55.4455,-19.8411"/>
<polygon fill="#9a32cd" stroke="#9a32cd" points="31.9131,-57.879 30.4449,-68.3717 38.1359,-61.0848 31.9131,-57.879"/>
<text text-anchor="middle" x="51.5" y="-41.5" font-family="Helvetica,sans-Serif" font-size="10.00"> n</text>
</g>
<!-- Node3 -->
<g id="node3" class="node"><title>Node3</title>
<g id="a_node3"><a xlink:href="classSolverUtils_1_1GeoPrim_1_1CPoint.html" target="_top" xlink:title="CPoint">
<polygon fill="none" stroke="black" points="70.5,-68.5 70.5,-87.5 117.5,-87.5 117.5,-68.5 70.5,-68.5"/>
<text text-anchor="middle" x="94" y="-75.5" font-family="Helvetica,sans-Serif" font-size="10.00">CPoint</text>
</a>
</g>
</g>
<!-- Node3&#45;&gt;Node1 -->
<g id="edge2" class="edge"><title>Node3&#45;&gt;Node1</title>
<path fill="none" stroke="#9a32cd" stroke-dasharray="5,2" d="M84.823,-59.1859C78.2633,-46.4523 69.7161,-29.8607 64.5545,-19.8411"/>
<polygon fill="#9a32cd" stroke="#9a32cd" points="81.8641,-61.0848 89.5551,-68.3717 88.0869,-57.879 81.8641,-61.0848"/>
<text text-anchor="middle" x="84.5" y="-41.5" font-family="Helvetica,sans-Serif" font-size="10.00"> p</text>
</g>
</g>
</svg>
