<?xml version="1.0" encoding="UTF-8" standalone="no"?>
<!DOCTYPE svg PUBLIC "-//W3C//DTD SVG 1.1//EN"
 "http://www.w3.org/Graphics/SVG/1.1/DTD/svg11.dtd">
<!-- Generated by graphviz version 2.30.1 (20150305.2338)
 -->
<!-- Title: initcond Pages: 1 -->
<!--zoomable 77 -->
<svg id="main" version="1.1" xmlns="http://www.w3.org/2000/svg" xmlns:xlink="http://www.w3.org/1999/xlink" xml:space="preserve" onload="init(evt)">
<style type="text/css"><![CDATA[
.edge:hover path { stroke: red; }
.edge:hover polygon { stroke: red; fill: red; }
]]></style>
<script type="text/javascript"><![CDATA[
var edges = document.getElementsByTagName('g');
if (edges && edges.length) {
  for (var i=0;i<edges.length;i++) {
    if (edges[i].id.substr(0,4)=='edge') {
      edges[i].setAttribute('class','edge');
    }
  }
}
]]></script>
        <defs>
                <circle id="rim" cx="0" cy="0" r="7"/>
                <circle id="rim2" cx="0" cy="0" r="3.5"/>
                <g id="zoomPlus">
                        <use xlink:href="#rim" fill="#404040">
                                <set attributeName="fill" to="#808080" begin="zoomplus.mouseover" end="zoomplus.mouseout"/>
                        </use>
                        <path d="M-4,0h8M0,-4v8" fill="none" stroke="white" stroke-width="1.5" pointer-events="none"/>
                </g>
                <g id="zoomMin">
                        <use xlink:href="#rim" fill="#404040">
                                <set attributeName="fill" to="#808080" begin="zoomminus.mouseover" end="zoomminus.mouseout"/>
                        </use>
                        <path d="M-4,0h8" fill="none" stroke="white" stroke-width="1.5" pointer-events="none"/>
                </g>
                <g id="dirArrow">
                        <path fill="none" stroke="white" stroke-width="1.5" d="M0,-3.0v7 M-2.5,-0.5L0,-3.0L2.5,-0.5"/>
                </g>
               <g id="resetDef">
                       <use xlink:href="#rim2" fill="#404040">
                               <set attributeName="fill" to="#808080" begin="reset.mouseover" end="reset.mouseout"/>
                       </use>
               </g>
        </defs>

<script type="text/javascript">
var viewWidth = 548;
var viewHeight = 77;
var sectionId = 'dynsection-0';
</script>
<script xlink:href="svgpan.js"/>
<svg id="graph" class="graph">
<g id="viewport">
<title>initcond</title>
<!-- Node1 -->
<g id="node1" class="node"><title>Node1</title>
<polygon fill="#bfbfbf" stroke="black" points="0,-27.5 0,-46.5 50,-46.5 50,-27.5 0,-27.5"/>
<text text-anchor="middle" x="25" y="-34.5" font-family="Helvetica,sans-Serif" font-size="10.00">initcond</text>
</g>
<!-- Node2 -->
<g id="node2" class="node"><title>Node2</title>
<g id="a_node2"><a xlink:href="classgeneralmodule_aab23af2755a40587c4f194ab80091318.html#aab23af2755a40587c4f194ab80091318" target="_top" xlink:title="Sets initial conditions for the fields. ">
<polygon fill="none" stroke="black" points="86.5,-27.5 86.5,-46.5 183.5,-46.5 183.5,-27.5 86.5,-27.5"/>
<text text-anchor="middle" x="135" y="-34.5" font-family="Helvetica,sans-Serif" font-size="10.00">setinitialconditions</text>
</a>
</g>
</g>
<!-- Node1&#45;&gt;Node2 -->
<g id="edge1" class="edge"><title>Node1&#45;&gt;Node2</title>
<path fill="none" stroke="midnightblue" d="M60.292,-37C68.5901,-37 77.6078,-37 86.3963,-37"/>
<polygon fill="midnightblue" stroke="midnightblue" points="60.2373,-33.5001 50.2373,-37 60.2373,-40.5001 60.2373,-33.5001"/>
</g>
<!-- Node3 -->
<g id="node3" class="node"><title>Node3</title>
<g id="a_node3"><a xlink:href="Initialize_8F90_afecd6445ab6f4860c0f00f62648f7332.html#afecd6445ab6f4860c0f00f62648f7332" target="_top" xlink:title="ElmerLib Elmer library routines ">
<polygon fill="none" stroke="black" points="220,-27.5 220,-46.5 296,-46.5 296,-27.5 220,-27.5"/>
<text text-anchor="middle" x="258" y="-34.5" font-family="Helvetica,sans-Serif" font-size="10.00">elmerinitialize</text>
</a>
</g>
</g>
<!-- Node2&#45;&gt;Node3 -->
<g id="edge2" class="edge"><title>Node2&#45;&gt;Node3</title>
<path fill="none" stroke="midnightblue" d="M194.087,-37C202.897,-37 211.774,-37 219.972,-37"/>
<polygon fill="midnightblue" stroke="midnightblue" points="193.822,-33.5001 183.822,-37 193.822,-40.5001 193.822,-33.5001"/>
</g>
<!-- Node4 -->
<g id="node4" class="node"><title>Node4</title>
<g id="a_node4"><a xlink:href="ElmerCSC_8F90_a7fd2a399b044e015aab8122e737dbf84.html#a7fd2a399b044e015aab8122e737dbf84" target="_top" xlink:title="A caller for the Elmer main program. ">
<polygon fill="none" stroke="black" points="332.5,-27.5 332.5,-46.5 387.5,-46.5 387.5,-27.5 332.5,-27.5"/>
<text text-anchor="middle" x="360" y="-34.5" font-family="Helvetica,sans-Serif" font-size="10.00">initializer</text>
</a>
</g>
</g>
<!-- Node3&#45;&gt;Node4 -->
<g id="edge3" class="edge"><title>Node3&#45;&gt;Node4</title>
<path fill="none" stroke="midnightblue" d="M306.249,-37C315.217,-37 324.304,-37 332.35,-37"/>
<polygon fill="midnightblue" stroke="midnightblue" points="306.236,-33.5001 296.236,-37 306.236,-40.5001 306.236,-33.5001"/>
</g>
<!-- Node5 -->
<g id="node5" class="node"><title>Node5</title>
<g id="a_node5"><a xlink:href="ElmerCSC_8F90_a08424dc689065df44a24c900bc17412b.html#a08424dc689065df44a24c900bc17412b" target="_top" xlink:title="elmercsc_load_module">
<polygon fill="none" stroke="black" points="424,-49.5 424,-68.5 540,-68.5 540,-49.5 424,-49.5"/>
<text text-anchor="middle" x="482" y="-56.5" font-family="Helvetica,sans-Serif" font-size="10.00">elmercsc_load_module</text>
</a>
</g>
</g>
<!-- Node4&#45;&gt;Node5 -->
<g id="edge4" class="edge"><title>Node4&#45;&gt;Node5</title>
<path fill="none" stroke="midnightblue" d="M397.509,-43.6933C407.392,-45.5051 418.284,-47.5021 428.846,-49.4385"/>
<polygon fill="midnightblue" stroke="midnightblue" points="398.099,-40.2432 387.632,-41.8825 396.837,-47.1285 398.099,-40.2432"/>
</g>
<!-- Node6 -->
<g id="node6" class="node"><title>Node6</title>
<g id="a_node6"><a xlink:href="ElmerCSCParallel_8F90_a0068c0eef7a91d38fe8b10ac78b73971.html#a0068c0eef7a91d38fe8b10ac78b73971" target="_top" xlink:title="elmercscparallel_load\l_module">
<polygon fill="none" stroke="black" points="427,-0 427,-30 537,-30 537,-0 427,-0"/>
<text text-anchor="start" x="435" y="-18" font-family="Helvetica,sans-Serif" font-size="10.00">elmercscparallel_load</text>
<text text-anchor="middle" x="482" y="-7" font-family="Helvetica,sans-Serif" font-size="10.00">_module</text>
</a>
</g>
</g>
<!-- Node4&#45;&gt;Node6 -->
<g id="edge5" class="edge"><title>Node4&#45;&gt;Node6</title>
<path fill="none" stroke="midnightblue" d="M397.637,-30.2833C406.88,-28.5887 416.999,-26.7335 426.902,-24.9179"/>
<polygon fill="midnightblue" stroke="midnightblue" points="396.837,-26.8715 387.632,-32.1175 398.099,-33.7568 396.837,-26.8715"/>
</g>
</g>
</svg>
        <g id="navigator" transform="translate(0 0)" fill="#404254">
                <rect fill="#f2f5e9" fill-opacity="0.5" stroke="#606060" stroke-width=".5" x="0" y="0" width="60" height="60"/>
                <use id="zoomplus" xlink:href="#zoomPlus" x="17" y="9" onmousedown="handleZoom(evt,'in')"/>
                <use id="zoomminus" xlink:href="#zoomMin" x="42" y="9" onmousedown="handleZoom(evt,'out')"/>
                <use id="reset" xlink:href="#resetDef" x="30" y="36" onmousedown="handleReset()"/>
                <g id="arrowUp" xlink:href="#dirArrow" transform="translate(30 24)" onmousedown="handlePan(0,-1)">
                  <use xlink:href="#rim" fill="#404040">
                        <set attributeName="fill" to="#808080" begin="arrowUp.mouseover" end="arrowUp.mouseout"/>
                  </use>
                  <path fill="none" stroke="white" stroke-width="1.5" d="M0,-3.0v7 M-2.5,-0.5L0,-3.0L2.5,-0.5"/>
                </g>
                <g id="arrowRight" xlink:href="#dirArrow" transform="rotate(90) translate(36 -43)" onmousedown="handlePan(1,0)">
                  <use xlink:href="#rim" fill="#404040">
                        <set attributeName="fill" to="#808080" begin="arrowRight.mouseover" end="arrowRight.mouseout"/>
                  </use>
                  <path fill="none" stroke="white" stroke-width="1.5" d="M0,-3.0v7 M-2.5,-0.5L0,-3.0L2.5,-0.5"/>
                </g>
                <g id="arrowDown" xlink:href="#dirArrow" transform="rotate(180) translate(-30 -48)" onmousedown="handlePan(0,1)">
                  <use xlink:href="#rim" fill="#404040">
                        <set attributeName="fill" to="#808080" begin="arrowDown.mouseover" end="arrowDown.mouseout"/>
                  </use>
                  <path fill="none" stroke="white" stroke-width="1.5" d="M0,-3.0v7 M-2.5,-0.5L0,-3.0L2.5,-0.5"/>
                </g>
                <g id="arrowLeft" xlink:href="#dirArrow" transform="rotate(270) translate(-36 17)" onmousedown="handlePan(-1,0)">
                  <use xlink:href="#rim" fill="#404040">
                        <set attributeName="fill" to="#808080" begin="arrowLeft.mouseover" end="arrowLeft.mouseout"/>
                  </use>
                  <path fill="none" stroke="white" stroke-width="1.5" d="M0,-3.0v7 M-2.5,-0.5L0,-3.0L2.5,-0.5"/>
                </g>
        </g>
        <svg viewBox="0 0 15 15" width="100%" height="30px" preserveAspectRatio="xMaxYMin meet">
         <g id="arrow_out" transform="scale(0.3 0.3)">
          <a xlink:href="classgeneralmodule_af55e87fced73725324f9022ee5612521_af55e87fced73725324f9022ee5612521_icgraph_org.svg" target="_base">
           <rect id="button" ry="5" rx="5" y="6" x="6" height="38" width="38"
                fill="#f2f5e9" fill-opacity="0.5" stroke="#606060" stroke-width="1.0"/>
           <path id="arrow"
             d="M 11.500037,31.436501 C 11.940474,20.09759 22.043105,11.32322 32.158766,21.979434 L 37.068811,17.246167 C 37.068811,17.246167 37.088388,32 37.088388,32 L 22.160133,31.978069 C 22.160133,31.978069 26.997745,27.140456 26.997745,27.140456 C 18.528582,18.264221 13.291696,25.230495 11.500037,31.436501 z"
             style="fill:#404040;"/>
          </a>
         </g>
        </svg>
</svg>
