<?xml version="1.0" encoding="UTF-8" standalone="no"?>
<!DOCTYPE svg PUBLIC "-//W3C//DTD SVG 1.1//EN"
 "http://www.w3.org/Graphics/SVG/1.1/DTD/svg11.dtd">
<!-- Generated by graphviz version 2.30.1 (20150305.2338)
 -->
<!-- Title: Finalize Pages: 1 -->
<svg width="362pt" height="131pt"
 viewBox="0.00 0.00 362.00 131.00" xmlns="http://www.w3.org/2000/svg" xmlns:xlink="http://www.w3.org/1999/xlink">
<g id="graph0" class="graph" transform="scale(1 1) rotate(0) translate(4 127)">
<title>Finalize</title>
<!-- Node1 -->
<g id="node1" class="node"><title>Node1</title>
<polygon fill="#bfbfbf" stroke="black" points="0,-76.5 0,-95.5 50,-95.5 50,-76.5 0,-76.5"/>
<text text-anchor="middle" x="25" y="-83.5" font-family="Helvetica,sans-Serif" font-size="10.00">Finalize</text>
</g>
<!-- Node2 -->
<g id="node2" class="node"><title>Node2</title>
<g id="a_node2"><a xlink:href="classimpact_1_1orchestrator_1_1agentbase_a6068a393f390317c207fce14a60f9ef4.html#a6068a393f390317c207fce14a60f9ef4" target="_top" xlink:title="impact::orchestrator\l::agentbase::Finalize">
<polygon fill="none" stroke="black" points="91.5,-93 91.5,-123 198.5,-123 198.5,-93 91.5,-93"/>
<text text-anchor="start" x="99.5" y="-111" font-family="Helvetica,sans-Serif" font-size="10.00">impact::orchestrator</text>
<text text-anchor="middle" x="145" y="-100" font-family="Helvetica,sans-Serif" font-size="10.00">::agentbase::Finalize</text>
</a>
</g>
</g>
<!-- Node1&#45;&gt;Node2 -->
<g id="edge1" class="edge"><title>Node1&#45;&gt;Node2</title>
<path fill="none" stroke="midnightblue" d="M50.1638,-90.5051C59.2495,-92.1991 70.0525,-94.2132 81.0394,-96.2616"/>
<polygon fill="midnightblue" stroke="midnightblue" points="80.665,-99.752 91.1371,-98.1442 81.9481,-92.8706 80.665,-99.752"/>
</g>
<!-- Node3 -->
<g id="node3" class="node"><title>Node3</title>
<g id="a_node3"><a xlink:href="classelmeragentpar_a6068a393f390317c207fce14a60f9ef4.html#a6068a393f390317c207fce14a60f9ef4" target="_top" xlink:title="elmeragentpar::Finalize">
<polygon fill="none" stroke="black" points="86,-54.5 86,-73.5 204,-73.5 204,-54.5 86,-54.5"/>
<text text-anchor="middle" x="145" y="-61.5" font-family="Helvetica,sans-Serif" font-size="10.00">elmeragentpar::Finalize</text>
</a>
</g>
</g>
<!-- Node1&#45;&gt;Node3 -->
<g id="edge2" class="edge"><title>Node1&#45;&gt;Node3</title>
<path fill="none" stroke="midnightblue" d="M50.1638,-81.4949C59.6552,-79.7253 71.0204,-77.6064 82.5118,-75.4639"/>
<polygon fill="midnightblue" stroke="midnightblue" points="83.4097,-78.8569 92.5988,-73.5833 82.1267,-71.9755 83.4097,-78.8569"/>
</g>
<!-- Node4 -->
<g id="node4" class="node"><title>Node4</title>
<g id="a_node4"><a xlink:href="com__c_09_09_8hpp_a6f9e4ea8f2cb977968964f4cb5a4b4f6.html#a6f9e4ea8f2cb977968964f4cb5a4b4f6" target="_top" xlink:title="COM_call_function">
<polygon fill="none" stroke="black" points="247,-98.5 247,-117.5 347,-117.5 347,-98.5 247,-98.5"/>
<text text-anchor="middle" x="297" y="-105.5" font-family="Helvetica,sans-Serif" font-size="10.00">COM_call_function</text>
</a>
</g>
</g>
<!-- Node3&#45;&gt;Node4 -->
<g id="edge3" class="edge"><title>Node3&#45;&gt;Node4</title>
<path fill="none" stroke="midnightblue" d="M178.548,-73.5473C200.563,-80.0051 229.854,-88.5972 253.678,-95.5854"/>
<polygon fill="midnightblue" stroke="midnightblue" points="252.935,-99.015 263.516,-98.4713 254.905,-92.298 252.935,-99.015"/>
</g>
<!-- Node5 -->
<g id="node5" class="node"><title>Node5</title>
<g id="a_node5"><a xlink:href="classimpact_1_1orchestrator_1_1agentbase_a0c67610e579dce80081e10bbbf57eae1.html#a0c67610e579dce80081e10bbbf57eae1" target="_top" xlink:title="impact::orchestrator\l::agentbase::WriteErr">
<polygon fill="none" stroke="black" points="242,-49 242,-79 352,-79 352,-49 242,-49"/>
<text text-anchor="start" x="250" y="-67" font-family="Helvetica,sans-Serif" font-size="10.00">impact::orchestrator</text>
<text text-anchor="middle" x="297" y="-56" font-family="Helvetica,sans-Serif" font-size="10.00">::agentbase::WriteErr</text>
</a>
</g>
</g>
<!-- Node3&#45;&gt;Node5 -->
<g id="edge4" class="edge"><title>Node3&#45;&gt;Node5</title>
<path fill="none" stroke="midnightblue" d="M204.423,-64C213.389,-64 222.686,-64 231.769,-64"/>
<polygon fill="midnightblue" stroke="midnightblue" points="231.903,-67.5001 241.903,-64 231.903,-60.5001 231.903,-67.5001"/>
</g>
<!-- Node6 -->
<g id="node6" class="node"><title>Node6</title>
<g id="a_node6"><a xlink:href="classimpact_1_1orchestrator_1_1agentbase_acd3473c5912447035e34274950a1c8c6.html#acd3473c5912447035e34274950a1c8c6" target="_top" xlink:title="impact::orchestrator\l::agentbase::WriteOut">
<polygon fill="none" stroke="black" points="240.5,-0 240.5,-30 353.5,-30 353.5,-0 240.5,-0"/>
<text text-anchor="start" x="248.5" y="-18" font-family="Helvetica,sans-Serif" font-size="10.00">impact::orchestrator</text>
<text text-anchor="middle" x="297" y="-7" font-family="Helvetica,sans-Serif" font-size="10.00">::agentbase::WriteOut</text>
</a>
</g>
</g>
<!-- Node3&#45;&gt;Node6 -->
<g id="edge5" class="edge"><title>Node3&#45;&gt;Node6</title>
<path fill="none" stroke="midnightblue" d="M175.278,-54.436C193.771,-48.395 218.261,-40.3948 240.348,-33.1796"/>
<polygon fill="midnightblue" stroke="midnightblue" points="241.55,-36.4692 249.968,-30.037 239.376,-29.8152 241.55,-36.4692"/>
</g>
</g>
</svg>
