<?xml version="1.0" encoding="UTF-8" standalone="no"?>
<!DOCTYPE svg PUBLIC "-//W3C//DTD SVG 1.1//EN"
 "http://www.w3.org/Graphics/SVG/1.1/DTD/svg11.dtd">
<!-- Generated by graphviz version 2.30.1 (20150305.2338)
 -->
<!-- Title: contains_point Pages: 1 -->
<svg width="300pt" height="283pt"
 viewBox="0.00 0.00 300.00 283.00" xmlns="http://www.w3.org/2000/svg" xmlns:xlink="http://www.w3.org/1999/xlink">
<g id="graph0" class="graph" transform="scale(1 1) rotate(0) translate(4 279)">
<title>contains_point</title>
<!-- Node1 -->
<g id="node1" class="node"><title>Node1</title>
<polygon fill="#bfbfbf" stroke="black" points="0,-127.5 0,-146.5 80,-146.5 80,-127.5 0,-127.5"/>
<text text-anchor="middle" x="40" y="-134.5" font-family="Helvetica,sans-Serif" font-size="10.00">contains_point</text>
</g>
<!-- Node2 -->
<g id="node2" class="node"><title>Node2</title>
<g id="a_node2"><a xlink:href="classSolverUtils_1_1GeoPrim_1_1CPlane_a59d61124cf2c200bc9417c5e5f3ca029.html#a59d61124cf2c200bc9417c5e5f3ca029" target="_top" xlink:title="D">
<polygon fill="none" stroke="black" points="116.5,-127.5 116.5,-146.5 145.5,-146.5 145.5,-127.5 116.5,-127.5"/>
<text text-anchor="middle" x="131" y="-134.5" font-family="Helvetica,sans-Serif" font-size="10.00">D</text>
</a>
</g>
</g>
<!-- Node1&#45;&gt;Node2 -->
<g id="edge1" class="edge"><title>Node1&#45;&gt;Node2</title>
<path fill="none" stroke="midnightblue" d="M80.0367,-137C88.8991,-137 98.0549,-137 106.07,-137"/>
<polygon fill="midnightblue" stroke="midnightblue" points="106.156,-140.5 116.156,-137 106.156,-133.5 106.156,-140.5"/>
</g>
<!-- Node3 -->
<g id="node3" class="node"><title>Node3</title>
<g id="a_node3"><a xlink:href="classSolverUtils_1_1GeoPrim_1_1CPoint_a3b195b867437acf8de45f48c83e81932.html#a3b195b867437acf8de45f48c83e81932" target="_top" xlink:title="SolverUtils::GeoPrim\l::CPoint::x">
<polygon fill="none" stroke="black" points="182.5,-245 182.5,-275 291.5,-275 291.5,-245 182.5,-245"/>
<text text-anchor="start" x="190.5" y="-263" font-family="Helvetica,sans-Serif" font-size="10.00">SolverUtils::GeoPrim</text>
<text text-anchor="middle" x="237" y="-252" font-family="Helvetica,sans-Serif" font-size="10.00">::CPoint::x</text>
</a>
</g>
</g>
<!-- Node1&#45;&gt;Node3 -->
<g id="edge8" class="edge"><title>Node1&#45;&gt;Node3</title>
<path fill="none" stroke="midnightblue" d="M53.3225,-146.726C77.228,-165.327 131.956,-206.612 182,-235 185.246,-236.841 188.651,-238.661 192.106,-240.428"/>
<polygon fill="midnightblue" stroke="midnightblue" points="190.776,-243.675 201.292,-244.963 193.875,-237.398 190.776,-243.675"/>
</g>
<!-- Node4 -->
<g id="node4" class="node"><title>Node4</title>
<g id="a_node4"><a xlink:href="classSolverUtils_1_1GeoPrim_1_1CVector_a3b195b867437acf8de45f48c83e81932.html#a3b195b867437acf8de45f48c83e81932" target="_top" xlink:title="SolverUtils::GeoPrim\l::CVector::x">
<polygon fill="none" stroke="black" points="182.5,-196 182.5,-226 291.5,-226 291.5,-196 182.5,-196"/>
<text text-anchor="start" x="190.5" y="-214" font-family="Helvetica,sans-Serif" font-size="10.00">SolverUtils::GeoPrim</text>
<text text-anchor="middle" x="237" y="-203" font-family="Helvetica,sans-Serif" font-size="10.00">::CVector::x</text>
</a>
</g>
</g>
<!-- Node1&#45;&gt;Node4 -->
<g id="edge9" class="edge"><title>Node1&#45;&gt;Node4</title>
<path fill="none" stroke="midnightblue" d="M60.4999,-146.514C75.4993,-153.666 96.834,-163.485 116,-171 135.764,-178.749 157.712,-186.35 177.377,-192.809"/>
<polygon fill="midnightblue" stroke="midnightblue" points="176.535,-196.216 187.127,-195.98 178.7,-189.559 176.535,-196.216"/>
</g>
<!-- Node5 -->
<g id="node5" class="node"><title>Node5</title>
<g id="a_node5"><a xlink:href="classSolverUtils_1_1GeoPrim_1_1CPoint_ad927d9808ded1fc49c05ae9e1a3ed2a6.html#ad927d9808ded1fc49c05ae9e1a3ed2a6" target="_top" xlink:title="SolverUtils::GeoPrim\l::CPoint::y">
<polygon fill="none" stroke="black" points="182.5,-147 182.5,-177 291.5,-177 291.5,-147 182.5,-147"/>
<text text-anchor="start" x="190.5" y="-165" font-family="Helvetica,sans-Serif" font-size="10.00">SolverUtils::GeoPrim</text>
<text text-anchor="middle" x="237" y="-154" font-family="Helvetica,sans-Serif" font-size="10.00">::CPoint::y</text>
</a>
</g>
</g>
<!-- Node1&#45;&gt;Node5 -->
<g id="edge10" class="edge"><title>Node1&#45;&gt;Node5</title>
<path fill="none" stroke="midnightblue" d="M72.8331,-146.549C86.0641,-150.128 101.654,-153.846 116,-156 134.104,-158.718 153.899,-160.278 172.097,-161.154"/>
<polygon fill="midnightblue" stroke="midnightblue" points="172.173,-164.66 182.311,-161.584 172.467,-157.666 172.173,-164.66"/>
</g>
<!-- Node6 -->
<g id="node6" class="node"><title>Node6</title>
<g id="a_node6"><a xlink:href="classSolverUtils_1_1GeoPrim_1_1CVector_ad927d9808ded1fc49c05ae9e1a3ed2a6.html#ad927d9808ded1fc49c05ae9e1a3ed2a6" target="_top" xlink:title="SolverUtils::GeoPrim\l::CVector::y">
<polygon fill="none" stroke="black" points="182.5,-98 182.5,-128 291.5,-128 291.5,-98 182.5,-98"/>
<text text-anchor="start" x="190.5" y="-116" font-family="Helvetica,sans-Serif" font-size="10.00">SolverUtils::GeoPrim</text>
<text text-anchor="middle" x="237" y="-105" font-family="Helvetica,sans-Serif" font-size="10.00">::CVector::y</text>
</a>
</g>
</g>
<!-- Node1&#45;&gt;Node6 -->
<g id="edge11" class="edge"><title>Node1&#45;&gt;Node6</title>
<path fill="none" stroke="midnightblue" d="M72.4574,-127.491C85.7651,-123.872 101.512,-120.114 116,-118 134.108,-115.358 153.904,-113.94 172.102,-113.217"/>
<polygon fill="midnightblue" stroke="midnightblue" points="172.439,-116.708 182.316,-112.876 172.205,-109.712 172.439,-116.708"/>
</g>
<!-- Node7 -->
<g id="node7" class="node"><title>Node7</title>
<g id="a_node7"><a xlink:href="classSolverUtils_1_1GeoPrim_1_1CPoint_a2134ad02d68f29e9c7cd87e4cd4c75b8.html#a2134ad02d68f29e9c7cd87e4cd4c75b8" target="_top" xlink:title="SolverUtils::GeoPrim\l::CPoint::z">
<polygon fill="none" stroke="black" points="182.5,-49 182.5,-79 291.5,-79 291.5,-49 182.5,-49"/>
<text text-anchor="start" x="190.5" y="-67" font-family="Helvetica,sans-Serif" font-size="10.00">SolverUtils::GeoPrim</text>
<text text-anchor="middle" x="237" y="-56" font-family="Helvetica,sans-Serif" font-size="10.00">::CPoint::z</text>
</a>
</g>
</g>
<!-- Node1&#45;&gt;Node7 -->
<g id="edge12" class="edge"><title>Node1&#45;&gt;Node7</title>
<path fill="none" stroke="midnightblue" d="M66.4928,-127.457C96.7573,-116.127 147.935,-96.9678 186.156,-82.6594"/>
<polygon fill="midnightblue" stroke="midnightblue" points="187.436,-85.9178 195.574,-79.134 184.981,-79.3621 187.436,-85.9178"/>
</g>
<!-- Node8 -->
<g id="node8" class="node"><title>Node8</title>
<g id="a_node8"><a xlink:href="classSolverUtils_1_1GeoPrim_1_1CVector_a2134ad02d68f29e9c7cd87e4cd4c75b8.html#a2134ad02d68f29e9c7cd87e4cd4c75b8" target="_top" xlink:title="SolverUtils::GeoPrim\l::CVector::z">
<polygon fill="none" stroke="black" points="182.5,-0 182.5,-30 291.5,-30 291.5,-0 182.5,-0"/>
<text text-anchor="start" x="190.5" y="-18" font-family="Helvetica,sans-Serif" font-size="10.00">SolverUtils::GeoPrim</text>
<text text-anchor="middle" x="237" y="-7" font-family="Helvetica,sans-Serif" font-size="10.00">::CVector::z</text>
</a>
</g>
</g>
<!-- Node1&#45;&gt;Node8 -->
<g id="edge13" class="edge"><title>Node1&#45;&gt;Node8</title>
<path fill="none" stroke="midnightblue" d="M53.3633,-127.427C77.3387,-109.11 132.181,-68.3982 182,-40 185.242,-38.1518 188.645,-36.3274 192.098,-34.5569"/>
<polygon fill="midnightblue" stroke="midnightblue" points="193.868,-37.5864 201.28,-30.0167 190.765,-31.3115 193.868,-37.5864"/>
</g>
<!-- Node2&#45;&gt;Node3 -->
<g id="edge2" class="edge"><title>Node2&#45;&gt;Node3</title>
<path fill="none" stroke="midnightblue" d="M134.593,-146.641C140.201,-165.83 155.165,-209.171 182,-235 183.479,-236.424 185.054,-237.777 186.702,-239.063"/>
<polygon fill="midnightblue" stroke="midnightblue" points="185.176,-242.255 195.427,-244.934 189.084,-236.447 185.176,-242.255"/>
</g>
<!-- Node2&#45;&gt;Node4 -->
<g id="edge3" class="edge"><title>Node2&#45;&gt;Node4</title>
<path fill="none" stroke="midnightblue" d="M140.039,-146.659C149.304,-157.335 165.399,-174.534 182,-186 184.553,-187.763 187.25,-189.457 190.022,-191.073"/>
<polygon fill="midnightblue" stroke="midnightblue" points="188.588,-194.276 199.048,-195.96 191.921,-188.121 188.588,-194.276"/>
</g>
<!-- Node2&#45;&gt;Node5 -->
<g id="edge4" class="edge"><title>Node2&#45;&gt;Node5</title>
<path fill="none" stroke="midnightblue" d="M145.596,-140.268C152.856,-142.014 162.373,-144.301 172.502,-146.736"/>
<polygon fill="midnightblue" stroke="midnightblue" points="171.807,-150.169 182.348,-149.103 173.443,-143.363 171.807,-150.169"/>
</g>
<!-- Node2&#45;&gt;Node6 -->
<g id="edge5" class="edge"><title>Node2&#45;&gt;Node6</title>
<path fill="none" stroke="midnightblue" d="M145.596,-133.862C152.856,-132.187 162.373,-129.991 172.502,-127.653"/>
<polygon fill="midnightblue" stroke="midnightblue" points="173.391,-131.04 182.348,-125.381 171.817,-124.219 173.391,-131.04"/>
</g>
<!-- Node2&#45;&gt;Node7 -->
<g id="edge6" class="edge"><title>Node2&#45;&gt;Node7</title>
<path fill="none" stroke="midnightblue" d="M140.418,-127.171C149.768,-116.7 165.705,-100.131 182,-89 184.562,-87.25 187.266,-85.5666 190.043,-83.9581"/>
<polygon fill="midnightblue" stroke="midnightblue" points="191.938,-86.9128 199.08,-79.0868 188.617,-80.751 191.938,-86.9128"/>
</g>
<!-- Node2&#45;&gt;Node8 -->
<g id="edge7" class="edge"><title>Node2&#45;&gt;Node8</title>
<path fill="none" stroke="midnightblue" d="M134.621,-127.457C140.279,-108.464 155.329,-65.5646 182,-40 183.482,-38.5792 185.06,-37.2283 186.709,-35.9451"/>
<polygon fill="midnightblue" stroke="midnightblue" points="189.091,-38.5619 195.442,-30.0818 185.189,-32.7503 189.091,-38.5619"/>
</g>
</g>
</svg>
