<?xml version="1.0" encoding="UTF-8" standalone="no"?>
<!DOCTYPE svg PUBLIC "-//W3C//DTD SVG 1.1//EN"
 "http://www.w3.org/Graphics/SVG/1.1/DTD/svg11.dtd">
<!-- Generated by graphviz version 2.30.1 (20150305.2338)
 -->
<!-- Title: associate_pointer Pages: 1 -->
<svg width="266pt" height="164pt"
 viewBox="0.00 0.00 266.00 164.00" xmlns="http://www.w3.org/2000/svg" xmlns:xlink="http://www.w3.org/1999/xlink">
<g id="graph0" class="graph" transform="scale(1 1) rotate(0) translate(4 160)">
<title>associate_pointer</title>
<!-- Node1 -->
<g id="node1" class="node"><title>Node1</title>
<polygon fill="#bfbfbf" stroke="black" points="0.5,-76.5 0.5,-95.5 93.5,-95.5 93.5,-76.5 0.5,-76.5"/>
<text text-anchor="middle" x="47" y="-83.5" font-family="Helvetica,sans-Serif" font-size="10.00">associate_pointer</text>
</g>
<!-- Node2 -->
<g id="node2" class="node"><title>Node2</title>
<g id="a_node2"><a xlink:href="ElmerCSC_8F90_a08424dc689065df44a24c900bc17412b.html#a08424dc689065df44a24c900bc17412b" target="_top" xlink:title="elmercsc_load_module">
<polygon fill="none" stroke="black" points="136,-136.5 136,-155.5 252,-155.5 252,-136.5 136,-136.5"/>
<text text-anchor="middle" x="194" y="-143.5" font-family="Helvetica,sans-Serif" font-size="10.00">elmercsc_load_module</text>
</a>
</g>
</g>
<!-- Node1&#45;&gt;Node2 -->
<g id="edge1" class="edge"><title>Node1&#45;&gt;Node2</title>
<path fill="none" stroke="midnightblue" d="M74.0592,-100.463C89.9213,-108.902 110.769,-119.357 130,-127 138.812,-130.502 148.532,-133.73 157.645,-136.494"/>
<polygon fill="midnightblue" stroke="midnightblue" points="75.3485,-97.1816 64.8861,-95.5118 72.0237,-103.342 75.3485,-97.1816"/>
</g>
<!-- Node3 -->
<g id="node3" class="node"><title>Node3</title>
<g id="a_node3"><a xlink:href="ElmerCSC_8F90_ac6fd10696f1a9684ff198844434aed57.html#ac6fd10696f1a9684ff198844434aed57" target="_top" xlink:title="elmercsc_unload_module">
<polygon fill="none" stroke="black" points="130.5,-98.5 130.5,-117.5 257.5,-117.5 257.5,-98.5 130.5,-98.5"/>
<text text-anchor="middle" x="194" y="-105.5" font-family="Helvetica,sans-Serif" font-size="10.00">elmercsc_unload_module</text>
</a>
</g>
</g>
<!-- Node1&#45;&gt;Node3 -->
<g id="edge2" class="edge"><title>Node1&#45;&gt;Node3</title>
<path fill="none" stroke="midnightblue" d="M103.899,-94.4812C112.593,-95.8004 121.625,-97.1706 130.455,-98.5104"/>
<polygon fill="midnightblue" stroke="midnightblue" points="104.291,-91.0007 93.8789,-92.9609 103.241,-97.9215 104.291,-91.0007"/>
</g>
<!-- Node4 -->
<g id="node4" class="node"><title>Node4</title>
<g id="a_node4"><a xlink:href="ElmerCSCParallel_8F90_a0068c0eef7a91d38fe8b10ac78b73971.html#a0068c0eef7a91d38fe8b10ac78b73971" target="_top" xlink:title="elmercscparallel_load\l_module">
<polygon fill="none" stroke="black" points="139,-49 139,-79 249,-79 249,-49 139,-49"/>
<text text-anchor="start" x="147" y="-67" font-family="Helvetica,sans-Serif" font-size="10.00">elmercscparallel_load</text>
<text text-anchor="middle" x="194" y="-56" font-family="Helvetica,sans-Serif" font-size="10.00">_module</text>
</a>
</g>
</g>
<!-- Node1&#45;&gt;Node4 -->
<g id="edge3" class="edge"><title>Node1&#45;&gt;Node4</title>
<path fill="none" stroke="midnightblue" d="M103.793,-77.5348C115.284,-75.7913 127.368,-73.958 138.801,-72.2233"/>
<polygon fill="midnightblue" stroke="midnightblue" points="103.241,-74.0785 93.8789,-79.0391 104.291,-80.9993 103.241,-74.0785"/>
</g>
<!-- Node5 -->
<g id="node5" class="node"><title>Node5</title>
<g id="a_node5"><a xlink:href="ElmerCSCParallel_8F90_a885364c9ab6116af3d6c16d5f50cb903.html#a885364c9ab6116af3d6c16d5f50cb903" target="_top" xlink:title="elmercscparallel_unload\l_module">
<polygon fill="none" stroke="black" points="133.5,-0 133.5,-30 254.5,-30 254.5,-0 133.5,-0"/>
<text text-anchor="start" x="141.5" y="-18" font-family="Helvetica,sans-Serif" font-size="10.00">elmercscparallel_unload</text>
<text text-anchor="middle" x="194" y="-7" font-family="Helvetica,sans-Serif" font-size="10.00">_module</text>
</a>
</g>
</g>
<!-- Node1&#45;&gt;Node5 -->
<g id="edge4" class="edge"><title>Node1&#45;&gt;Node5</title>
<path fill="none" stroke="midnightblue" d="M72.4544,-71.1482C88.5228,-61.6744 110.166,-49.4466 130,-40 137.224,-36.5592 145.056,-33.1825 152.662,-30.0784"/>
<polygon fill="midnightblue" stroke="midnightblue" points="70.4942,-68.2419 63.6937,-76.3661 74.0762,-74.256 70.4942,-68.2419"/>
</g>
</g>
</svg>
