<?xml version="1.0" encoding="UTF-8" standalone="no"?>
<!DOCTYPE svg PUBLIC "-//W3C//DTD SVG 1.1//EN"
 "http://www.w3.org/Graphics/SVG/1.1/DTD/svg11.dtd">
<!-- Generated by graphviz version 2.30.1 (20150305.2338)
 -->
<!-- Title: pointer Pages: 1 -->
<svg width="214pt" height="47pt"
 viewBox="0.00 0.00 214.00 47.00" xmlns="http://www.w3.org/2000/svg" xmlns:xlink="http://www.w3.org/1999/xlink">
<g id="graph0" class="graph" transform="scale(1 1) rotate(0) translate(4 43)">
<title>pointer</title>
<!-- Node1 -->
<g id="node1" class="node"><title>Node1</title>
<polygon fill="#bfbfbf" stroke="black" points="0,-0.5 0,-19.5 46,-19.5 46,-0.5 0,-0.5"/>
<text text-anchor="middle" x="23" y="-7.5" font-family="Helvetica,sans-Serif" font-size="10.00">pointer</text>
</g>
<!-- Node2 -->
<g id="node2" class="node"><title>Node2</title>
<g id="a_node2"><a xlink:href="classDataItem_a7210396d362b0d7c5cbdc15bb18257d6.html#a7210396d362b0d7c5cbdc15bb18257d6" target="_top" xlink:title="Returns whether the array is set to be read&#45;only. ">
<polygon fill="none" stroke="black" points="82.5,-19.5 82.5,-38.5 135.5,-38.5 135.5,-19.5 82.5,-19.5"/>
<text text-anchor="middle" x="109" y="-26.5" font-family="Helvetica,sans-Serif" font-size="10.00">is_const</text>
</a>
</g>
</g>
<!-- Node1&#45;&gt;Node2 -->
<g id="edge1" class="edge"><title>Node1&#45;&gt;Node2</title>
<path fill="none" stroke="midnightblue" d="M46.07,-14.992C54.1224,-16.8134 63.4471,-18.9226 72.3779,-20.9426"/>
<polygon fill="midnightblue" stroke="midnightblue" points="71.6791,-24.3729 82.2049,-23.1654 73.2235,-17.5454 71.6791,-24.3729"/>
</g>
<!-- Node3 -->
<g id="node3" class="node"><title>Node3</title>
<g id="a_node3"><a xlink:href="classDataItem_a8200761ace321d2760f1c601505ccc87.html#a8200761ace321d2760f1c601505ccc87" target="_top" xlink:title="Root of use&#45;inheritance. ">
<polygon fill="none" stroke="black" points="172.5,-0.5 172.5,-19.5 205.5,-19.5 205.5,-0.5 172.5,-0.5"/>
<text text-anchor="middle" x="189" y="-7.5" font-family="Helvetica,sans-Serif" font-size="10.00">root</text>
</a>
</g>
</g>
<!-- Node1&#45;&gt;Node3 -->
<g id="edge3" class="edge"><title>Node1&#45;&gt;Node3</title>
<path fill="none" stroke="midnightblue" d="M46.1178,-10C76.1505,-10 129.747,-10 161.772,-10"/>
<polygon fill="midnightblue" stroke="midnightblue" points="162.126,-13.5001 172.126,-10 162.126,-6.5001 162.126,-13.5001"/>
</g>
<!-- Node2&#45;&gt;Node3 -->
<g id="edge2" class="edge"><title>Node2&#45;&gt;Node3</title>
<path fill="none" stroke="midnightblue" d="M135.54,-22.7787C144.132,-20.6859 153.717,-18.3511 162.319,-16.2556"/>
<polygon fill="midnightblue" stroke="midnightblue" points="163.305,-19.618 172.192,-13.8507 161.648,-12.8169 163.305,-19.618"/>
</g>
</g>
</svg>
