<?xml version="1.0" encoding="UTF-8" standalone="no"?>
<!DOCTYPE svg PUBLIC "-//W3C//DTD SVG 1.1//EN"
 "http://www.w3.org/Graphics/SVG/1.1/DTD/svg11.dtd">
<!-- Generated by graphviz version 2.30.1 (20150305.2338)
 -->
<!-- Title: Norm Pages: 1 -->
<svg width="220pt" height="66pt"
 viewBox="0.00 0.00 220.00 66.00" xmlns="http://www.w3.org/2000/svg" xmlns:xlink="http://www.w3.org/1999/xlink">
<g id="graph0" class="graph" transform="scale(1 1) rotate(0) translate(4 62)">
<title>Norm</title>
<!-- Node1 -->
<g id="node1" class="node"><title>Node1</title>
<polygon fill="#bfbfbf" stroke="black" points="0.5,-19.5 0.5,-38.5 41.5,-38.5 41.5,-19.5 0.5,-19.5"/>
<text text-anchor="middle" x="21" y="-26.5" font-family="Helvetica,sans-Serif" font-size="10.00">Norm</text>
</g>
<!-- Node2 -->
<g id="node2" class="node"><title>Node2</title>
<g id="a_node2"><a xlink:href="classSolverUtils_1_1GeoPrim_1_1C3Point_ab34babf13d8cbe9273af91a2b4d9ba52.html#ab34babf13d8cbe9273af91a2b4d9ba52" target="_top" xlink:title="Mag">
<polygon fill="none" stroke="black" points="91.5,-38.5 91.5,-57.5 126.5,-57.5 126.5,-38.5 91.5,-38.5"/>
<text text-anchor="middle" x="109" y="-45.5" font-family="Helvetica,sans-Serif" font-size="10.00">Mag</text>
</a>
</g>
</g>
<!-- Node1&#45;&gt;Node2 -->
<g id="edge1" class="edge"><title>Node1&#45;&gt;Node2</title>
<path fill="none" stroke="midnightblue" d="M51.2823,-35.4694C64.6926,-38.4321 80.0912,-41.8341 91.4565,-44.345"/>
<polygon fill="midnightblue" stroke="midnightblue" points="52.0343,-32.0512 41.5147,-33.3114 50.5242,-38.8863 52.0343,-32.0512"/>
</g>
<!-- Node3 -->
<g id="node3" class="node"><title>Node3</title>
<g id="a_node3"><a xlink:href="classSolverUtils_1_1GeoPrim_1_1C3Point_aa52cbfc5ef272a55047b4a5bf00cb6c8.html#aa52cbfc5ef272a55047b4a5bf00cb6c8" target="_top" xlink:title="Normalize">
<polygon fill="none" stroke="black" points="78.5,-0.5 78.5,-19.5 139.5,-19.5 139.5,-0.5 78.5,-0.5"/>
<text text-anchor="middle" x="109" y="-7.5" font-family="Helvetica,sans-Serif" font-size="10.00">Normalize</text>
</a>
</g>
</g>
<!-- Node1&#45;&gt;Node3 -->
<g id="edge2" class="edge"><title>Node1&#45;&gt;Node3</title>
<path fill="none" stroke="midnightblue" d="M51.3031,-22.5261C60.0578,-20.5919 69.6583,-18.4708 78.43,-16.5329"/>
<polygon fill="midnightblue" stroke="midnightblue" points="50.5242,-19.1137 41.5147,-24.6886 52.0343,-25.9488 50.5242,-19.1137"/>
</g>
<!-- Node4 -->
<g id="node4" class="node"><title>Node4</title>
<g id="a_node4"><a xlink:href="classSolverUtils_1_1GeoPrim_1_1C3Point_ac53228e8d509da346647246f117d28c0.html#ac53228e8d509da346647246f117d28c0" target="_top" xlink:title="Unit">
<polygon fill="none" stroke="black" points="176.5,-0.5 176.5,-19.5 211.5,-19.5 211.5,-0.5 176.5,-0.5"/>
<text text-anchor="middle" x="194" y="-7.5" font-family="Helvetica,sans-Serif" font-size="10.00">Unit</text>
</a>
</g>
</g>
<!-- Node3&#45;&gt;Node4 -->
<g id="edge3" class="edge"><title>Node3&#45;&gt;Node4</title>
<path fill="none" stroke="midnightblue" d="M150.251,-10C159.478,-10 168.788,-10 176.353,-10"/>
<polygon fill="midnightblue" stroke="midnightblue" points="149.965,-6.5001 139.965,-10 149.965,-13.5001 149.965,-6.5001"/>
</g>
</g>
</svg>
