<?xml version="1.0" encoding="UTF-8" standalone="no"?>
<!DOCTYPE svg PUBLIC "-//W3C//DTD SVG 1.1//EN"
 "http://www.w3.org/Graphics/SVG/1.1/DTD/svg11.dtd">
<!-- Generated by graphviz version 2.30.1 (20150305.2338)
 -->
<!-- Title: TransferLoadsToStructures Pages: 1 -->
<svg width="816pt" height="99pt"
 viewBox="0.00 0.00 816.00 99.00" xmlns="http://www.w3.org/2000/svg" xmlns:xlink="http://www.w3.org/1999/xlink">
<g id="graph0" class="graph" transform="scale(1 1) rotate(0) translate(4 95)">
<title>TransferLoadsToStructures</title>
<!-- Node1 -->
<g id="node1" class="node"><title>Node1</title>
<polygon fill="#bfbfbf" stroke="black" points="0.5,-27.5 0.5,-46.5 135.5,-46.5 135.5,-27.5 0.5,-27.5"/>
<text text-anchor="middle" x="68" y="-34.5" font-family="Helvetica,sans-Serif" font-size="10.00">TransferLoadsToStructures</text>
</g>
<!-- Node2 -->
<g id="node2" class="node"><title>Node2</title>
<g id="a_node2"><a xlink:href="classSolverUtils_1_1TransferObjectPar_ac956acb3aa9c094efbebec0883d08ba1.html#ac956acb3aa9c094efbebec0883d08ba1" target="_top" xlink:title="SolverUtils::TransferObject\lPar::Transfer">
<polygon fill="none" stroke="black" points="172.5,-22 172.5,-52 307.5,-52 307.5,-22 172.5,-22"/>
<text text-anchor="start" x="180.5" y="-40" font-family="Helvetica,sans-Serif" font-size="10.00">SolverUtils::TransferObject</text>
<text text-anchor="middle" x="240" y="-29" font-family="Helvetica,sans-Serif" font-size="10.00">Par::Transfer</text>
</a>
</g>
</g>
<!-- Node1&#45;&gt;Node2 -->
<g id="edge1" class="edge"><title>Node1&#45;&gt;Node2</title>
<path fill="none" stroke="midnightblue" d="M135.701,-37C144.487,-37 153.547,-37 162.48,-37"/>
<polygon fill="midnightblue" stroke="midnightblue" points="162.492,-40.5001 172.492,-37 162.492,-33.5001 162.492,-40.5001"/>
</g>
<!-- Node3 -->
<g id="node3" class="node"><title>Node3</title>
<g id="a_node3"><a xlink:href="com__c_09_09_8hpp_a86224e33f2e17b4cee6c3256bfdff75d.html#a86224e33f2e17b4cee6c3256bfdff75d" target="_top" xlink:title="COM_get_dataitem_handle">
<polygon fill="none" stroke="black" points="344.5,-49.5 344.5,-68.5 479.5,-68.5 479.5,-49.5 344.5,-49.5"/>
<text text-anchor="middle" x="412" y="-56.5" font-family="Helvetica,sans-Serif" font-size="10.00">COM_get_dataitem_handle</text>
</a>
</g>
</g>
<!-- Node2&#45;&gt;Node3 -->
<g id="edge2" class="edge"><title>Node2&#45;&gt;Node3</title>
<path fill="none" stroke="midnightblue" d="M307.701,-45.6318C316.487,-46.7689 325.547,-47.9413 334.48,-49.0974"/>
<polygon fill="midnightblue" stroke="midnightblue" points="334.125,-52.5806 344.492,-50.3931 335.024,-45.6385 334.125,-52.5806"/>
</g>
<!-- Node7 -->
<g id="node7" class="node"><title>Node7</title>
<g id="a_node7"><a xlink:href="namespaceSolverUtils_ab602f331b052ecdbea6aa8caa0eeed75.html#ab602f331b052ecdbea6aa8caa0eeed75" target="_top" xlink:title="SolverUtils::COM_call\l_function">
<polygon fill="none" stroke="black" points="355,-0 355,-30 469,-30 469,-0 355,-0"/>
<text text-anchor="start" x="363" y="-18" font-family="Helvetica,sans-Serif" font-size="10.00">SolverUtils::COM_call</text>
<text text-anchor="middle" x="412" y="-7" font-family="Helvetica,sans-Serif" font-size="10.00">_function</text>
</a>
</g>
</g>
<!-- Node2&#45;&gt;Node7 -->
<g id="edge6" class="edge"><title>Node2&#45;&gt;Node7</title>
<path fill="none" stroke="midnightblue" d="M307.701,-28.3682C319.91,-26.7882 332.647,-25.1398 344.84,-23.5618"/>
<polygon fill="midnightblue" stroke="midnightblue" points="345.463,-27.0106 354.931,-22.256 344.564,-20.0685 345.463,-27.0106"/>
</g>
<!-- Node4 -->
<g id="node4" class="node"><title>Node4</title>
<g id="a_node4"><a xlink:href="COM__base_8hpp_a49353596e53127db61529b5c9000549d.html#a49353596e53127db61529b5c9000549d" target="_top" xlink:title="COM_get_com">
<polygon fill="none" stroke="black" points="532.5,-71.5 532.5,-90.5 615.5,-90.5 615.5,-71.5 532.5,-71.5"/>
<text text-anchor="middle" x="574" y="-78.5" font-family="Helvetica,sans-Serif" font-size="10.00">COM_get_com</text>
</a>
</g>
</g>
<!-- Node3&#45;&gt;Node4 -->
<g id="edge3" class="edge"><title>Node3&#45;&gt;Node4</title>
<path fill="none" stroke="midnightblue" d="M479.927,-68.2025C494.121,-70.1541 508.879,-72.1834 522.348,-74.0354"/>
<polygon fill="midnightblue" stroke="midnightblue" points="521.983,-77.518 532.367,-75.4129 522.937,-70.5833 521.983,-77.518"/>
</g>
<!-- Node6 -->
<g id="node6" class="node"><title>Node6</title>
<g id="a_node6"><a xlink:href="classCOM_1_1COM__base_a9fd7945150b9f390f5560bce2b7ea375.html#a9fd7945150b9f390f5560bce2b7ea375" target="_top" xlink:title="COM::COM_base::get\l_dataitem_handle">
<polygon fill="none" stroke="black" points="516.5,-22 516.5,-52 631.5,-52 631.5,-22 516.5,-22"/>
<text text-anchor="start" x="524.5" y="-40" font-family="Helvetica,sans-Serif" font-size="10.00">COM::COM_base::get</text>
<text text-anchor="middle" x="574" y="-29" font-family="Helvetica,sans-Serif" font-size="10.00">_dataitem_handle</text>
</a>
</g>
</g>
<!-- Node3&#45;&gt;Node6 -->
<g id="edge5" class="edge"><title>Node3&#45;&gt;Node6</title>
<path fill="none" stroke="midnightblue" d="M479.927,-49.7975C488.667,-48.5958 497.621,-47.3646 506.356,-46.1635"/>
<polygon fill="midnightblue" stroke="midnightblue" points="507.054,-49.6005 516.484,-44.7709 506.101,-42.6658 507.054,-49.6005"/>
</g>
<!-- Node5 -->
<g id="node5" class="node"><title>Node5</title>
<g id="a_node5"><a xlink:href="classCOM_1_1COM__base_a77bb770b9ec1aac99361c45efbccabc1.html#a77bb770b9ec1aac99361c45efbccabc1" target="_top" xlink:title="Get a pointer to the COM object. ">
<polygon fill="none" stroke="black" points="668.5,-71.5 668.5,-90.5 807.5,-90.5 807.5,-71.5 668.5,-71.5"/>
<text text-anchor="middle" x="738" y="-78.5" font-family="Helvetica,sans-Serif" font-size="10.00">COM::COM_base::get_com</text>
</a>
</g>
</g>
<!-- Node4&#45;&gt;Node5 -->
<g id="edge4" class="edge"><title>Node4&#45;&gt;Node5</title>
<path fill="none" stroke="midnightblue" d="M615.879,-81C628.826,-81 643.603,-81 658.279,-81"/>
<polygon fill="midnightblue" stroke="midnightblue" points="658.4,-84.5001 668.4,-81 658.4,-77.5001 658.4,-84.5001"/>
</g>
</g>
</svg>
