<?xml version="1.0" encoding="UTF-8" standalone="no"?>
<!DOCTYPE svg PUBLIC "-//W3C//DTD SVG 1.1//EN"
 "http://www.w3.org/Graphics/SVG/1.1/DTD/svg11.dtd">
<!-- Generated by graphviz version 2.30.1 (20150305.2338)
 -->
<!-- Title: writeWin Pages: 1 -->
<!--zoomable 153 -->
<svg id="main" version="1.1" xmlns="http://www.w3.org/2000/svg" xmlns:xlink="http://www.w3.org/1999/xlink" xml:space="preserve" onload="init(evt)">
<style type="text/css"><![CDATA[
.edge:hover path { stroke: red; }
.edge:hover polygon { stroke: red; fill: red; }
]]></style>
<script type="text/javascript"><![CDATA[
var edges = document.getElementsByTagName('g');
if (edges && edges.length) {
  for (var i=0;i<edges.length;i++) {
    if (edges[i].id.substr(0,4)=='edge') {
      edges[i].setAttribute('class','edge');
    }
  }
}
]]></script>
        <defs>
                <circle id="rim" cx="0" cy="0" r="7"/>
                <circle id="rim2" cx="0" cy="0" r="3.5"/>
                <g id="zoomPlus">
                        <use xlink:href="#rim" fill="#404040">
                                <set attributeName="fill" to="#808080" begin="zoomplus.mouseover" end="zoomplus.mouseout"/>
                        </use>
                        <path d="M-4,0h8M0,-4v8" fill="none" stroke="white" stroke-width="1.5" pointer-events="none"/>
                </g>
                <g id="zoomMin">
                        <use xlink:href="#rim" fill="#404040">
                                <set attributeName="fill" to="#808080" begin="zoomminus.mouseover" end="zoomminus.mouseout"/>
                        </use>
                        <path d="M-4,0h8" fill="none" stroke="white" stroke-width="1.5" pointer-events="none"/>
                </g>
                <g id="dirArrow">
                        <path fill="none" stroke="white" stroke-width="1.5" d="M0,-3.0v7 M-2.5,-0.5L0,-3.0L2.5,-0.5"/>
                </g>
               <g id="resetDef">
                       <use xlink:href="#rim2" fill="#404040">
                               <set attributeName="fill" to="#808080" begin="reset.mouseover" end="reset.mouseout"/>
                       </use>
               </g>
        </defs>

<script type="text/javascript">
var viewWidth = 570;
var viewHeight = 153;
var sectionId = 'dynsection-0';
</script>
<script xlink:href="svgpan.js"/>
<svg id="graph" class="graph">
<g id="viewport">
<title>writeWin</title>
<!-- Node1 -->
<g id="node1" class="node"><title>Node1</title>
<polygon fill="#bfbfbf" stroke="black" points="0.5,-68.5 0.5,-87.5 55.5,-87.5 55.5,-68.5 0.5,-68.5"/>
<text text-anchor="middle" x="28" y="-75.5" font-family="Helvetica,sans-Serif" font-size="10.00">writeWin</text>
</g>
<!-- Node2 -->
<g id="node2" class="node"><title>Node2</title>
<g id="a_node2"><a xlink:href="com__c_09_09_8hpp_a6f9e4ea8f2cb977968964f4cb5a4b4f6.html#a6f9e4ea8f2cb977968964f4cb5a4b4f6" target="_top" xlink:title="COM_call_function">
<polygon fill="none" stroke="black" points="113,-125.5 113,-144.5 213,-144.5 213,-125.5 113,-125.5"/>
<text text-anchor="middle" x="163" y="-132.5" font-family="Helvetica,sans-Serif" font-size="10.00">COM_call_function</text>
</a>
</g>
</g>
<!-- Node1&#45;&gt;Node2 -->
<g id="edge1" class="edge"><title>Node1&#45;&gt;Node2</title>
<path fill="none" stroke="midnightblue" d="M42.4199,-87.6088C54.788,-96.0883 73.9122,-108.269 92,-116 97.4893,-118.346 103.346,-120.475 109.246,-122.386"/>
<polygon fill="midnightblue" stroke="midnightblue" points="108.573,-125.84 119.158,-125.398 110.608,-119.142 108.573,-125.84"/>
</g>
<!-- Node3 -->
<g id="node3" class="node"><title>Node3</title>
<g id="a_node3"><a xlink:href="com__c_09_09_8hpp_a86224e33f2e17b4cee6c3256bfdff75d.html#a86224e33f2e17b4cee6c3256bfdff75d" target="_top" xlink:title="COM_get_dataitem_handle">
<polygon fill="none" stroke="black" points="95.5,-87.5 95.5,-106.5 230.5,-106.5 230.5,-87.5 95.5,-87.5"/>
<text text-anchor="middle" x="163" y="-94.5" font-family="Helvetica,sans-Serif" font-size="10.00">COM_get_dataitem_handle</text>
</a>
</g>
</g>
<!-- Node1&#45;&gt;Node3 -->
<g id="edge2" class="edge"><title>Node1&#45;&gt;Node3</title>
<path fill="none" stroke="midnightblue" d="M55.5949,-81.7993C64.3268,-83.0467 74.5154,-84.5022 85.0632,-86.009"/>
<polygon fill="midnightblue" stroke="midnightblue" points="84.8559,-89.5149 95.2504,-87.4643 85.8459,-82.5852 84.8559,-89.5149"/>
</g>
<!-- Node7 -->
<g id="node7" class="node"><title>Node7</title>
<g id="a_node7"><a xlink:href="com__c_09_09_8hpp_acbbf9749cce36d33b4c60c100bdfaea2.html#acbbf9749cce36d33b4c60c100bdfaea2" target="_top" xlink:title="COM_get_function_handle">
<polygon fill="none" stroke="black" points="97,-49.5 97,-68.5 229,-68.5 229,-49.5 97,-49.5"/>
<text text-anchor="middle" x="163" y="-56.5" font-family="Helvetica,sans-Serif" font-size="10.00">COM_get_function_handle</text>
</a>
</g>
</g>
<!-- Node1&#45;&gt;Node7 -->
<g id="edge6" class="edge"><title>Node1&#45;&gt;Node7</title>
<path fill="none" stroke="midnightblue" d="M55.5949,-74.2007C64.8586,-72.8773 75.7619,-71.3197 86.9943,-69.7151"/>
<polygon fill="midnightblue" stroke="midnightblue" points="87.5125,-73.1767 96.9169,-68.2976 86.5224,-66.2471 87.5125,-73.1767"/>
</g>
<!-- Node9 -->
<g id="node9" class="node"><title>Node9</title>
<g id="a_node9"><a xlink:href="classIRAD_1_1Global_1_1ParallelGlobalObj_a4dd674ae0f9681623f01b889752c92ff.html#a4dd674ae0f9681623f01b889752c92ff" target="_top" xlink:title="IRAD::Global::ParallelGlobal\lObj::Rank">
<polygon fill="none" stroke="black" points="92.5,-0 92.5,-30 233.5,-30 233.5,-0 92.5,-0"/>
<text text-anchor="start" x="100.5" y="-18" font-family="Helvetica,sans-Serif" font-size="10.00">IRAD::Global::ParallelGlobal</text>
<text text-anchor="middle" x="163" y="-7" font-family="Helvetica,sans-Serif" font-size="10.00">Obj::Rank</text>
</a>
</g>
</g>
<!-- Node1&#45;&gt;Node9 -->
<g id="edge9" class="edge"><title>Node1&#45;&gt;Node9</title>
<path fill="none" stroke="midnightblue" d="M43.0591,-68.4007C55.5372,-60.1568 74.4581,-48.3203 92,-40 96.5472,-37.8432 101.334,-35.7633 106.181,-33.787"/>
<polygon fill="midnightblue" stroke="midnightblue" points="107.498,-37.0301 115.53,-30.1211 104.942,-30.5132 107.498,-37.0301"/>
</g>
<!-- Node4 -->
<g id="node4" class="node"><title>Node4</title>
<g id="a_node4"><a xlink:href="COM__base_8hpp_a49353596e53127db61529b5c9000549d.html#a49353596e53127db61529b5c9000549d" target="_top" xlink:title="COM_get_com">
<polygon fill="none" stroke="black" points="286.5,-68.5 286.5,-87.5 369.5,-87.5 369.5,-68.5 286.5,-68.5"/>
<text text-anchor="middle" x="328" y="-75.5" font-family="Helvetica,sans-Serif" font-size="10.00">COM_get_com</text>
</a>
</g>
</g>
<!-- Node3&#45;&gt;Node4 -->
<g id="edge3" class="edge"><title>Node3&#45;&gt;Node4</title>
<path fill="none" stroke="midnightblue" d="M230.769,-89.2172C245.909,-87.4524 261.75,-85.6058 276.109,-83.9321"/>
<polygon fill="midnightblue" stroke="midnightblue" points="276.743,-87.3819 286.271,-82.7476 275.933,-80.429 276.743,-87.3819"/>
</g>
<!-- Node6 -->
<g id="node6" class="node"><title>Node6</title>
<g id="a_node6"><a xlink:href="classCOM_1_1COM__base_a9fd7945150b9f390f5560bce2b7ea375.html#a9fd7945150b9f390f5560bce2b7ea375" target="_top" xlink:title="COM::COM_base::get\l_dataitem_handle">
<polygon fill="none" stroke="black" points="270.5,-107 270.5,-137 385.5,-137 385.5,-107 270.5,-107"/>
<text text-anchor="start" x="278.5" y="-125" font-family="Helvetica,sans-Serif" font-size="10.00">COM::COM_base::get</text>
<text text-anchor="middle" x="328" y="-114" font-family="Helvetica,sans-Serif" font-size="10.00">_dataitem_handle</text>
</a>
</g>
</g>
<!-- Node3&#45;&gt;Node6 -->
<g id="edge5" class="edge"><title>Node3&#45;&gt;Node6</title>
<path fill="none" stroke="midnightblue" d="M226.088,-106.523C237.247,-108.234 248.922,-110.025 260.207,-111.756"/>
<polygon fill="midnightblue" stroke="midnightblue" points="260.02,-115.268 270.435,-113.324 261.082,-108.349 260.02,-115.268"/>
</g>
<!-- Node5 -->
<g id="node5" class="node"><title>Node5</title>
<g id="a_node5"><a xlink:href="classCOM_1_1COM__base_a77bb770b9ec1aac99361c45efbccabc1.html#a77bb770b9ec1aac99361c45efbccabc1" target="_top" xlink:title="Get a pointer to the COM object. ">
<polygon fill="none" stroke="black" points="422.5,-68.5 422.5,-87.5 561.5,-87.5 561.5,-68.5 422.5,-68.5"/>
<text text-anchor="middle" x="492" y="-75.5" font-family="Helvetica,sans-Serif" font-size="10.00">COM::COM_base::get_com</text>
</a>
</g>
</g>
<!-- Node4&#45;&gt;Node5 -->
<g id="edge4" class="edge"><title>Node4&#45;&gt;Node5</title>
<path fill="none" stroke="midnightblue" d="M369.879,-78C382.826,-78 397.603,-78 412.279,-78"/>
<polygon fill="midnightblue" stroke="midnightblue" points="412.4,-81.5001 422.4,-78 412.4,-74.5001 412.4,-81.5001"/>
</g>
<!-- Node7&#45;&gt;Node4 -->
<g id="edge7" class="edge"><title>Node7&#45;&gt;Node4</title>
<path fill="none" stroke="midnightblue" d="M229.359,-66.6185C245.047,-68.4472 261.566,-70.3728 276.464,-72.1093"/>
<polygon fill="midnightblue" stroke="midnightblue" points="276.151,-75.5964 286.489,-73.2778 276.961,-68.6435 276.151,-75.5964"/>
</g>
<!-- Node8 -->
<g id="node8" class="node"><title>Node8</title>
<g id="a_node8"><a xlink:href="classCOM_1_1COM__base_a640995dd65a1fb030650457b9cf10b26.html#a640995dd65a1fb030650457b9cf10b26" target="_top" xlink:title="COM::COM_base::get\l_function_handle">
<polygon fill="none" stroke="black" points="270.5,-19 270.5,-49 385.5,-49 385.5,-19 270.5,-19"/>
<text text-anchor="start" x="278.5" y="-37" font-family="Helvetica,sans-Serif" font-size="10.00">COM::COM_base::get</text>
<text text-anchor="middle" x="328" y="-26" font-family="Helvetica,sans-Serif" font-size="10.00">_function_handle</text>
</a>
</g>
</g>
<!-- Node7&#45;&gt;Node8 -->
<g id="edge8" class="edge"><title>Node7&#45;&gt;Node8</title>
<path fill="none" stroke="midnightblue" d="M226.088,-49.4773C237.247,-47.7658 248.922,-45.9752 260.207,-44.2444"/>
<polygon fill="midnightblue" stroke="midnightblue" points="261.082,-47.6512 270.435,-42.6755 260.02,-40.7321 261.082,-47.6512"/>
</g>
</g>
</svg>
        <g id="navigator" transform="translate(0 0)" fill="#404254">
                <rect fill="#f2f5e9" fill-opacity="0.5" stroke="#606060" stroke-width=".5" x="0" y="0" width="60" height="60"/>
                <use id="zoomplus" xlink:href="#zoomPlus" x="17" y="9" onmousedown="handleZoom(evt,'in')"/>
                <use id="zoomminus" xlink:href="#zoomMin" x="42" y="9" onmousedown="handleZoom(evt,'out')"/>
                <use id="reset" xlink:href="#resetDef" x="30" y="36" onmousedown="handleReset()"/>
                <g id="arrowUp" xlink:href="#dirArrow" transform="translate(30 24)" onmousedown="handlePan(0,-1)">
                  <use xlink:href="#rim" fill="#404040">
                        <set attributeName="fill" to="#808080" begin="arrowUp.mouseover" end="arrowUp.mouseout"/>
                  </use>
                  <path fill="none" stroke="white" stroke-width="1.5" d="M0,-3.0v7 M-2.5,-0.5L0,-3.0L2.5,-0.5"/>
                </g>
                <g id="arrowRight" xlink:href="#dirArrow" transform="rotate(90) translate(36 -43)" onmousedown="handlePan(1,0)">
                  <use xlink:href="#rim" fill="#404040">
                        <set attributeName="fill" to="#808080" begin="arrowRight.mouseover" end="arrowRight.mouseout"/>
                  </use>
                  <path fill="none" stroke="white" stroke-width="1.5" d="M0,-3.0v7 M-2.5,-0.5L0,-3.0L2.5,-0.5"/>
                </g>
                <g id="arrowDown" xlink:href="#dirArrow" transform="rotate(180) translate(-30 -48)" onmousedown="handlePan(0,1)">
                  <use xlink:href="#rim" fill="#404040">
                        <set attributeName="fill" to="#808080" begin="arrowDown.mouseover" end="arrowDown.mouseout"/>
                  </use>
                  <path fill="none" stroke="white" stroke-width="1.5" d="M0,-3.0v7 M-2.5,-0.5L0,-3.0L2.5,-0.5"/>
                </g>
                <g id="arrowLeft" xlink:href="#dirArrow" transform="rotate(270) translate(-36 17)" onmousedown="handlePan(-1,0)">
                  <use xlink:href="#rim" fill="#404040">
                        <set attributeName="fill" to="#808080" begin="arrowLeft.mouseover" end="arrowLeft.mouseout"/>
                  </use>
                  <path fill="none" stroke="white" stroke-width="1.5" d="M0,-3.0v7 M-2.5,-0.5L0,-3.0L2.5,-0.5"/>
                </g>
        </g>
        <svg viewBox="0 0 15 15" width="100%" height="30px" preserveAspectRatio="xMaxYMin meet">
         <g id="arrow_out" transform="scale(0.3 0.3)">
          <a xlink:href="classfsicouplingpar_a4bc5742de7e34b941018d50bb61b935f_a4bc5742de7e34b941018d50bb61b935f_cgraph_org.svg" target="_base">
           <rect id="button" ry="5" rx="5" y="6" x="6" height="38" width="38"
                fill="#f2f5e9" fill-opacity="0.5" stroke="#606060" stroke-width="1.0"/>
           <path id="arrow"
             d="M 11.500037,31.436501 C 11.940474,20.09759 22.043105,11.32322 32.158766,21.979434 L 37.068811,17.246167 C 37.068811,17.246167 37.088388,32 37.088388,32 L 22.160133,31.978069 C 22.160133,31.978069 26.997745,27.140456 26.997745,27.140456 C 18.528582,18.264221 13.291696,25.230495 11.500037,31.436501 z"
             style="fill:#404040;"/>
          </a>
         </g>
        </svg>
</svg>
