<?xml version="1.0" encoding="UTF-8" standalone="no"?>
<!DOCTYPE svg PUBLIC "-//W3C//DTD SVG 1.1//EN"
 "http://www.w3.org/Graphics/SVG/1.1/DTD/svg11.dtd">
<!-- Generated by graphviz version 2.30.1 (20150305.2338)
 -->
<!-- Title: Test__TransferLoadsToStructures Pages: 1 -->
<!--zoomable 695 -->
<svg id="main" version="1.1" xmlns="http://www.w3.org/2000/svg" xmlns:xlink="http://www.w3.org/1999/xlink" xml:space="preserve" onload="init(evt)">
<style type="text/css"><![CDATA[
.edge:hover path { stroke: red; }
.edge:hover polygon { stroke: red; fill: red; }
]]></style>
<script type="text/javascript"><![CDATA[
var edges = document.getElementsByTagName('g');
if (edges && edges.length) {
  for (var i=0;i<edges.length;i++) {
    if (edges[i].id.substr(0,4)=='edge') {
      edges[i].setAttribute('class','edge');
    }
  }
}
]]></script>
        <defs>
                <circle id="rim" cx="0" cy="0" r="7"/>
                <circle id="rim2" cx="0" cy="0" r="3.5"/>
                <g id="zoomPlus">
                        <use xlink:href="#rim" fill="#404040">
                                <set attributeName="fill" to="#808080" begin="zoomplus.mouseover" end="zoomplus.mouseout"/>
                        </use>
                        <path d="M-4,0h8M0,-4v8" fill="none" stroke="white" stroke-width="1.5" pointer-events="none"/>
                </g>
                <g id="zoomMin">
                        <use xlink:href="#rim" fill="#404040">
                                <set attributeName="fill" to="#808080" begin="zoomminus.mouseover" end="zoomminus.mouseout"/>
                        </use>
                        <path d="M-4,0h8" fill="none" stroke="white" stroke-width="1.5" pointer-events="none"/>
                </g>
                <g id="dirArrow">
                        <path fill="none" stroke="white" stroke-width="1.5" d="M0,-3.0v7 M-2.5,-0.5L0,-3.0L2.5,-0.5"/>
                </g>
               <g id="resetDef">
                       <use xlink:href="#rim2" fill="#404040">
                               <set attributeName="fill" to="#808080" begin="reset.mouseover" end="reset.mouseout"/>
                       </use>
               </g>
        </defs>

<script type="text/javascript">
var viewWidth = 708;
var viewHeight = 695;
var sectionId = 'dynsection-0';
</script>
<script xlink:href="svgpan.js"/>
<svg id="graph" class="graph">
<g id="viewport">
<title>Test__TransferLoadsToStructures</title>
<!-- Node1 -->
<g id="node1" class="node"><title>Node1</title>
<polygon fill="#bfbfbf" stroke="black" points="0.5,-339.5 0.5,-358.5 165.5,-358.5 165.5,-339.5 0.5,-339.5"/>
<text text-anchor="middle" x="83" y="-346.5" font-family="Helvetica,sans-Serif" font-size="10.00">Test__TransferLoadsToStructures</text>
</g>
<!-- Node2 -->
<g id="node2" class="node"><title>Node2</title>
<g id="a_node2"><a xlink:href="classElmerFoamFSI_1_1TestingObject_a6ddf5281e8c291fe3b0db952bc4607e7.html#a6ddf5281e8c291fe3b0db952bc4607e7" target="_top" xlink:title="__helper">
<polygon fill="none" stroke="black" points="260.5,-667.5 260.5,-686.5 313.5,-686.5 313.5,-667.5 260.5,-667.5"/>
<text text-anchor="middle" x="287" y="-674.5" font-family="Helvetica,sans-Serif" font-size="10.00">__helper</text>
</a>
</g>
</g>
<!-- Node1&#45;&gt;Node2 -->
<g id="edge1" class="edge"><title>Node1&#45;&gt;Node2</title>
<path fill="none" stroke="midnightblue" d="M84.5336,-358.611C87.4363,-401.131 105.024,-573.931 202,-658 215.16,-669.408 233.735,-674.369 250.073,-676.387"/>
<polygon fill="midnightblue" stroke="midnightblue" points="250.131,-679.906 260.407,-677.326 250.765,-672.935 250.131,-679.906"/>
</g>
<!-- Node4 -->
<g id="node4" class="node"><title>Node4</title>
<g id="a_node4"><a xlink:href="classElmerFoamFSI_1_1TestingObject_afc04d61aeb5533b7be7d28b6d8d9d398.html#afc04d61aeb5533b7be7d28b6d8d9d398" target="_top" xlink:title="avgCoord">
<polygon fill="none" stroke="black" points="257.5,-629.5 257.5,-648.5 316.5,-648.5 316.5,-629.5 257.5,-629.5"/>
<text text-anchor="middle" x="287" y="-636.5" font-family="Helvetica,sans-Serif" font-size="10.00">avgCoord</text>
</a>
</g>
</g>
<!-- Node1&#45;&gt;Node4 -->
<g id="edge3" class="edge"><title>Node1&#45;&gt;Node4</title>
<path fill="none" stroke="midnightblue" d="M85.3288,-358.71C91.1444,-397.384 117.942,-541.9 202,-615 214.58,-625.94 231.844,-631.91 247.45,-635.161"/>
<polygon fill="midnightblue" stroke="midnightblue" points="246.942,-638.626 257.4,-636.93 248.167,-631.734 246.942,-638.626"/>
</g>
<!-- Node6 -->
<g id="node6" class="node"><title>Node6</title>
<g id="a_node6"><a xlink:href="classelmeragent_a11af20e113d9cb3bad41a7504f10da2c.html#a11af20e113d9cb3bad41a7504f10da2c" target="_top" xlink:title="elmeragent::Coordinates">
<polygon fill="none" stroke="black" points="417.5,-587.5 417.5,-606.5 540.5,-606.5 540.5,-587.5 417.5,-587.5"/>
<text text-anchor="middle" x="479" y="-594.5" font-family="Helvetica,sans-Serif" font-size="10.00">elmeragent::Coordinates</text>
</a>
</g>
</g>
<!-- Node1&#45;&gt;Node6 -->
<g id="edge5" class="edge"><title>Node1&#45;&gt;Node6</title>
<path fill="none" stroke="midnightblue" d="M85.4917,-358.744C91.7021,-395.561 119.172,-526.842 202,-581 269.405,-625.074 367.021,-618.246 426.287,-608.308"/>
<polygon fill="midnightblue" stroke="midnightblue" points="426.936,-611.748 436.174,-606.561 425.718,-604.854 426.936,-611.748"/>
</g>
<!-- Node7 -->
<g id="node7" class="node"><title>Node7</title>
<g id="a_node7"><a xlink:href="classfsicoupling_aeaba4b85bd4063253b80e9c484976af9.html#aeaba4b85bd4063253b80e9c484976af9" target="_top" xlink:title="fsicoupling::getFluidAgent">
<polygon fill="none" stroke="black" points="222.5,-503.5 222.5,-522.5 351.5,-522.5 351.5,-503.5 222.5,-503.5"/>
<text text-anchor="middle" x="287" y="-510.5" font-family="Helvetica,sans-Serif" font-size="10.00">fsicoupling::getFluidAgent</text>
</a>
</g>
</g>
<!-- Node1&#45;&gt;Node7 -->
<g id="edge6" class="edge"><title>Node1&#45;&gt;Node7</title>
<path fill="none" stroke="midnightblue" d="M88.8386,-358.629C102.587,-384.936 144.627,-458.423 202,-494 205.405,-496.112 209.018,-497.989 212.757,-499.659"/>
<polygon fill="midnightblue" stroke="midnightblue" points="211.68,-502.996 222.267,-503.395 214.24,-496.481 211.68,-502.996"/>
</g>
<!-- Node8 -->
<g id="node8" class="node"><title>Node8</title>
<g id="a_node8"><a xlink:href="classfsicoupling_a2fae8dc8fa6ec4e77af8acdfee339803.html#a2fae8dc8fa6ec4e77af8acdfee339803" target="_top" xlink:title="fsicoupling::getFluidIntName">
<polygon fill="none" stroke="black" points="216.5,-465.5 216.5,-484.5 357.5,-484.5 357.5,-465.5 216.5,-465.5"/>
<text text-anchor="middle" x="287" y="-472.5" font-family="Helvetica,sans-Serif" font-size="10.00">fsicoupling::getFluidIntName</text>
</a>
</g>
</g>
<!-- Node1&#45;&gt;Node8 -->
<g id="edge7" class="edge"><title>Node1&#45;&gt;Node8</title>
<path fill="none" stroke="midnightblue" d="M91.683,-358.776C108.954,-380.038 153.174,-430.612 202,-456 206.527,-458.354 211.339,-460.418 216.281,-462.227"/>
<polygon fill="midnightblue" stroke="midnightblue" points="215.309,-465.592 225.902,-465.403 217.503,-458.945 215.309,-465.592"/>
</g>
<!-- Node9 -->
<g id="node9" class="node"><title>Node9</title>
<g id="a_node9"><a xlink:href="classfsicoupling_ae80b34139948f3eec47982f2e003c79b.html#ae80b34139948f3eec47982f2e003c79b" target="_top" xlink:title="fsicoupling::getRunMode">
<polygon fill="none" stroke="black" points="224.5,-427.5 224.5,-446.5 349.5,-446.5 349.5,-427.5 224.5,-427.5"/>
<text text-anchor="middle" x="287" y="-434.5" font-family="Helvetica,sans-Serif" font-size="10.00">fsicoupling::getRunMode</text>
</a>
</g>
</g>
<!-- Node1&#45;&gt;Node9 -->
<g id="edge8" class="edge"><title>Node1&#45;&gt;Node9</title>
<path fill="none" stroke="midnightblue" d="M97.504,-358.536C118.769,-373.138 161.79,-401.02 202,-417 209.527,-419.991 217.619,-422.611 225.702,-424.882"/>
<polygon fill="midnightblue" stroke="midnightblue" points="224.955,-428.305 235.517,-427.482 226.747,-421.538 224.955,-428.305"/>
</g>
<!-- Node10 -->
<g id="node10" class="node"><title>Node10</title>
<g id="a_node10"><a xlink:href="classfsicoupling_a060909652d4179bacbbcffe8cb0d6209.html#a060909652d4179bacbbcffe8cb0d6209" target="_top" xlink:title="fsicoupling::getSimulation\lFinalTime">
<polygon fill="none" stroke="black" points="223,-378 223,-408 351,-408 351,-378 223,-378"/>
<text text-anchor="start" x="231" y="-396" font-family="Helvetica,sans-Serif" font-size="10.00">fsicoupling::getSimulation</text>
<text text-anchor="middle" x="287" y="-385" font-family="Helvetica,sans-Serif" font-size="10.00">FinalTime</text>
</a>
</g>
</g>
<!-- Node1&#45;&gt;Node10 -->
<g id="edge9" class="edge"><title>Node1&#45;&gt;Node10</title>
<path fill="none" stroke="midnightblue" d="M127.831,-358.547C152.638,-363.951 184.307,-370.849 212.781,-377.051"/>
<polygon fill="midnightblue" stroke="midnightblue" points="212.187,-380.504 222.703,-379.213 213.677,-373.664 212.187,-380.504"/>
</g>
<!-- Node11 -->
<g id="node11" class="node"><title>Node11</title>
<g id="a_node11"><a xlink:href="classfsicoupling_a0e992a49c3a0cf70da95f29ecb1dd24f.html#a0e992a49c3a0cf70da95f29ecb1dd24f" target="_top" xlink:title="fsicoupling::getSimulationTime">
<polygon fill="none" stroke="black" points="212,-339.5 212,-358.5 362,-358.5 362,-339.5 212,-339.5"/>
<text text-anchor="middle" x="287" y="-346.5" font-family="Helvetica,sans-Serif" font-size="10.00">fsicoupling::getSimulationTime</text>
</a>
</g>
</g>
<!-- Node1&#45;&gt;Node11 -->
<g id="edge10" class="edge"><title>Node1&#45;&gt;Node11</title>
<path fill="none" stroke="midnightblue" d="M165.579,-349C177.555,-349 189.91,-349 201.935,-349"/>
<polygon fill="midnightblue" stroke="midnightblue" points="201.943,-352.5 211.943,-349 201.943,-345.5 201.943,-352.5"/>
</g>
<!-- Node12 -->
<g id="node12" class="node"><title>Node12</title>
<g id="a_node12"><a xlink:href="classfsicoupling_ab998e228edc63ce530ff6cf179b6ccc5.html#ab998e228edc63ce530ff6cf179b6ccc5" target="_top" xlink:title="fsicoupling::getSolidIntName">
<polygon fill="none" stroke="black" points="216,-301.5 216,-320.5 358,-320.5 358,-301.5 216,-301.5"/>
<text text-anchor="middle" x="287" y="-308.5" font-family="Helvetica,sans-Serif" font-size="10.00">fsicoupling::getSolidIntName</text>
</a>
</g>
</g>
<!-- Node1&#45;&gt;Node12 -->
<g id="edge11" class="edge"><title>Node1&#45;&gt;Node12</title>
<path fill="none" stroke="midnightblue" d="M134.712,-339.46C162.207,-334.288 196.376,-327.86 225.282,-322.422"/>
<polygon fill="midnightblue" stroke="midnightblue" points="226.086,-325.832 235.267,-320.544 224.792,-318.953 226.086,-325.832"/>
</g>
<!-- Node13 -->
<g id="node13" class="node"><title>Node13</title>
<g id="a_node13"><a xlink:href="classfsicoupling_a99c099d82afe54ca3fbad7bf51c2f562.html#a99c099d82afe54ca3fbad7bf51c2f562" target="_top" xlink:title="fsicoupling::getStructure\lAgent">
<polygon fill="none" stroke="black" points="226,-252 226,-282 348,-282 348,-252 226,-252"/>
<text text-anchor="start" x="234" y="-270" font-family="Helvetica,sans-Serif" font-size="10.00">fsicoupling::getStructure</text>
<text text-anchor="middle" x="287" y="-259" font-family="Helvetica,sans-Serif" font-size="10.00">Agent</text>
</a>
</g>
</g>
<!-- Node1&#45;&gt;Node13 -->
<g id="edge12" class="edge"><title>Node1&#45;&gt;Node13</title>
<path fill="none" stroke="midnightblue" d="M101.595,-339.394C124.313,-327.251 165.299,-306.219 202,-292 208.196,-289.599 214.723,-287.29 221.287,-285.111"/>
<polygon fill="midnightblue" stroke="midnightblue" points="222.451,-288.413 230.897,-282.016 220.305,-281.75 222.451,-288.413"/>
</g>
<!-- Node14 -->
<g id="node14" class="node"><title>Node14</title>
<g id="a_node14"><a xlink:href="classfsicoupling_ae855141f7b214925c25f7797b8b122a8.html#ae855141f7b214925c25f7797b8b122a8" target="_top" xlink:title="fsicoupling::Initialize">
<polygon fill="none" stroke="black" points="234.5,-213.5 234.5,-232.5 339.5,-232.5 339.5,-213.5 234.5,-213.5"/>
<text text-anchor="middle" x="287" y="-220.5" font-family="Helvetica,sans-Serif" font-size="10.00">fsicoupling::Initialize</text>
</a>
</g>
</g>
<!-- Node1&#45;&gt;Node14 -->
<g id="edge13" class="edge"><title>Node1&#45;&gt;Node14</title>
<path fill="none" stroke="midnightblue" d="M91.7261,-339.359C109.083,-318.382 153.463,-268.442 202,-243 209.002,-239.33 216.683,-236.323 224.467,-233.862"/>
<polygon fill="midnightblue" stroke="midnightblue" points="225.693,-237.152 234.339,-231.028 223.761,-230.423 225.693,-237.152"/>
</g>
<!-- Node19 -->
<g id="node19" class="node"><title>Node19</title>
<g id="a_node19"><a xlink:href="classimpact_1_1orchestrator_1_1agentbase_abae70c8ddc0a4976bf42b69f1eae8b52.html#abae70c8ddc0a4976bf42b69f1eae8b52" target="_top" xlink:title="impact::orchestrator\l::agentbase::InitializeTimeStep">
<polygon fill="none" stroke="black" points="211,-164 211,-194 363,-194 363,-164 211,-164"/>
<text text-anchor="start" x="219" y="-182" font-family="Helvetica,sans-Serif" font-size="10.00">impact::orchestrator</text>
<text text-anchor="middle" x="287" y="-171" font-family="Helvetica,sans-Serif" font-size="10.00">::agentbase::InitializeTimeStep</text>
</a>
</g>
</g>
<!-- Node1&#45;&gt;Node19 -->
<g id="edge20" class="edge"><title>Node1&#45;&gt;Node19</title>
<path fill="none" stroke="midnightblue" d="M89.1724,-339.196C103.456,-313.081 146.118,-241.294 202,-204 205.093,-201.936 208.361,-200.038 211.742,-198.294"/>
<polygon fill="midnightblue" stroke="midnightblue" points="213.325,-201.418 220.914,-194.025 210.371,-195.071 213.325,-201.418"/>
</g>
<!-- Node20 -->
<g id="node20" class="node"><title>Node20</title>
<g id="a_node20"><a xlink:href="classopenfoamagent_a1e1196103d62248de06882a2f5f1adf4.html#a1e1196103d62248de06882a2f5f1adf4" target="_top" xlink:title="openfoamagent::Run">
<polygon fill="none" stroke="black" points="233.5,-125.5 233.5,-144.5 340.5,-144.5 340.5,-125.5 233.5,-125.5"/>
<text text-anchor="middle" x="287" y="-132.5" font-family="Helvetica,sans-Serif" font-size="10.00">openfoamagent::Run</text>
</a>
</g>
</g>
<!-- Node1&#45;&gt;Node20 -->
<g id="edge21" class="edge"><title>Node1&#45;&gt;Node20</title>
<path fill="none" stroke="midnightblue" d="M86.978,-339.056C97.1597,-306.852 133.785,-204.636 202,-155 208.549,-150.234 216.076,-146.589 223.876,-143.804"/>
<polygon fill="midnightblue" stroke="midnightblue" points="224.969,-147.13 233.478,-140.816 222.889,-140.446 224.969,-147.13"/>
</g>
<!-- Node21 -->
<g id="node21" class="node"><title>Node21</title>
<g id="a_node21"><a xlink:href="classfsicoupling_a9339a46a8a7f217e05784068f5ac0b9d.html#a9339a46a8a7f217e05784068f5ac0b9d" target="_top" xlink:title="fsicoupling::SetRunMode">
<polygon fill="none" stroke="black" points="224,-87.5 224,-106.5 350,-106.5 350,-87.5 224,-87.5"/>
<text text-anchor="middle" x="287" y="-94.5" font-family="Helvetica,sans-Serif" font-size="10.00">fsicoupling::SetRunMode</text>
</a>
</g>
</g>
<!-- Node1&#45;&gt;Node21 -->
<g id="edge22" class="edge"><title>Node1&#45;&gt;Node21</title>
<path fill="none" stroke="midnightblue" d="M85.8752,-339.14C93.2887,-303.006 124.046,-176.779 202,-116 205.851,-112.998 210.086,-110.452 214.545,-108.296"/>
<polygon fill="midnightblue" stroke="midnightblue" points="216.061,-111.456 223.96,-104.394 213.381,-104.989 216.061,-111.456"/>
</g>
<!-- Node22 -->
<g id="node22" class="node"><title>Node22</title>
<g id="a_node22"><a xlink:href="classfsicoupling_a9912245de96c85424cb074624b144762.html#a9912245de96c85424cb074624b144762" target="_top" xlink:title="fsicoupling::SetVerbLevel">
<polygon fill="none" stroke="black" points="223,-49.5 223,-68.5 351,-68.5 351,-49.5 223,-49.5"/>
<text text-anchor="middle" x="287" y="-56.5" font-family="Helvetica,sans-Serif" font-size="10.00">fsicoupling::SetVerbLevel</text>
</a>
</g>
</g>
<!-- Node1&#45;&gt;Node22 -->
<g id="edge23" class="edge"><title>Node1&#45;&gt;Node22</title>
<path fill="none" stroke="midnightblue" d="M85.1144,-339.243C90.1694,-299.734 114.629,-150.3 202,-78 205.53,-75.0793 209.418,-72.5855 213.528,-70.4584"/>
<polygon fill="midnightblue" stroke="midnightblue" points="215.085,-73.5968 222.827,-66.3639 212.265,-67.1903 215.085,-73.5968"/>
</g>
<!-- Node23 -->
<g id="node23" class="node"><title>Node23</title>
<g id="a_node23"><a xlink:href="classfsicoupling_afb2eaee475b0c32cd5bf6d6fcc1eff05.html#afb2eaee475b0c32cd5bf6d6fcc1eff05" target="_top" xlink:title="fsicoupling::TransferDisplacements\lToFluid">
<polygon fill="none" stroke="black" points="202,-542 202,-572 372,-572 372,-542 202,-542"/>
<text text-anchor="start" x="210" y="-560" font-family="Helvetica,sans-Serif" font-size="10.00">fsicoupling::TransferDisplacements</text>
<text text-anchor="middle" x="287" y="-549" font-family="Helvetica,sans-Serif" font-size="10.00">ToFluid</text>
</a>
</g>
</g>
<!-- Node1&#45;&gt;Node23 -->
<g id="edge24" class="edge"><title>Node1&#45;&gt;Node23</title>
<path fill="none" stroke="midnightblue" d="M87.4177,-358.665C98.6744,-389.08 137.592,-483.677 202,-532 204.476,-533.858 207.089,-535.578 209.801,-537.171"/>
<polygon fill="midnightblue" stroke="midnightblue" points="208.272,-540.32 218.757,-541.838 211.507,-534.113 208.272,-540.32"/>
</g>
<!-- Node26 -->
<g id="node26" class="node"><title>Node26</title>
<g id="a_node26"><a xlink:href="classfsicoupling_a052028ae6a11a37f3c3be19a78709d97.html#a052028ae6a11a37f3c3be19a78709d97" target="_top" xlink:title="fsicoupling::TransferLoads\lToStructures">
<polygon fill="none" stroke="black" points="221.5,-0 221.5,-30 352.5,-30 352.5,-0 221.5,-0"/>
<text text-anchor="start" x="229.5" y="-18" font-family="Helvetica,sans-Serif" font-size="10.00">fsicoupling::TransferLoads</text>
<text text-anchor="middle" x="287" y="-7" font-family="Helvetica,sans-Serif" font-size="10.00">ToStructures</text>
</a>
</g>
</g>
<!-- Node1&#45;&gt;Node26 -->
<g id="edge29" class="edge"><title>Node1&#45;&gt;Node26</title>
<path fill="none" stroke="midnightblue" d="M84.6957,-339.26C88.2517,-296.917 108.097,-127.067 202,-40 205.138,-37.0904 208.6,-34.5184 212.278,-32.2449"/>
<polygon fill="midnightblue" stroke="midnightblue" points="214.038,-35.2726 221.198,-27.4634 210.731,-29.103 214.038,-35.2726"/>
</g>
<!-- Node3 -->
<g id="node3" class="node"><title>Node3</title>
<g id="a_node3"><a xlink:href="classElmerFoamFSI_1_1TestingObject_a90864b099beaf9044bf8fff8a9857c0d.html#a90864b099beaf9044bf8fff8a9857c0d" target="_top" xlink:title="GetInputData">
<polygon fill="none" stroke="black" points="441.5,-667.5 441.5,-686.5 516.5,-686.5 516.5,-667.5 441.5,-667.5"/>
<text text-anchor="middle" x="479" y="-674.5" font-family="Helvetica,sans-Serif" font-size="10.00">GetInputData</text>
</a>
</g>
</g>
<!-- Node2&#45;&gt;Node3 -->
<g id="edge2" class="edge"><title>Node2&#45;&gt;Node3</title>
<path fill="none" stroke="midnightblue" d="M313.624,-677C343.715,-677 394.225,-677 431.329,-677"/>
<polygon fill="midnightblue" stroke="midnightblue" points="431.41,-680.5 441.41,-677 431.41,-673.5 431.41,-680.5"/>
</g>
<!-- Node5 -->
<g id="node5" class="node"><title>Node5</title>
<g id="a_node5"><a xlink:href="classopenfoamagent_a11af20e113d9cb3bad41a7504f10da2c.html#a11af20e113d9cb3bad41a7504f10da2c" target="_top" xlink:title="openfoamagent::Coordinates">
<polygon fill="none" stroke="black" points="408,-628.5 408,-647.5 550,-647.5 550,-628.5 408,-628.5"/>
<text text-anchor="middle" x="479" y="-635.5" font-family="Helvetica,sans-Serif" font-size="10.00">openfoamagent::Coordinates</text>
</a>
</g>
</g>
<!-- Node4&#45;&gt;Node5 -->
<g id="edge4" class="edge"><title>Node4&#45;&gt;Node5</title>
<path fill="none" stroke="midnightblue" d="M316.857,-638.848C338.401,-638.735 368.955,-638.574 397.676,-638.423"/>
<polygon fill="midnightblue" stroke="midnightblue" points="397.759,-641.922 407.74,-638.37 397.722,-634.923 397.759,-641.922"/>
</g>
<!-- Node15 -->
<g id="node15" class="node"><title>Node15</title>
<g id="a_node15"><a xlink:href="classopenfoamagent_a9a8261713154978fa009d8cb2c533055.html#a9a8261713154978fa009d8cb2c533055" target="_top" xlink:title="openfoamagent::Initialize">
<polygon fill="none" stroke="black" points="416.5,-232.5 416.5,-251.5 541.5,-251.5 541.5,-232.5 416.5,-232.5"/>
<text text-anchor="middle" x="479" y="-239.5" font-family="Helvetica,sans-Serif" font-size="10.00">openfoamagent::Initialize</text>
</a>
</g>
</g>
<!-- Node14&#45;&gt;Node15 -->
<g id="edge14" class="edge"><title>Node14&#45;&gt;Node15</title>
<path fill="none" stroke="midnightblue" d="M339.667,-228.167C360.156,-230.216 384.066,-232.607 406.189,-234.819"/>
<polygon fill="midnightblue" stroke="midnightblue" points="405.911,-238.308 416.209,-235.821 406.607,-231.343 405.911,-238.308"/>
</g>
<!-- Node18 -->
<g id="node18" class="node"><title>Node18</title>
<g id="a_node18"><a xlink:href="classelmeragent_a66d8ac5294227a11adf08cdfa91f59b5.html#a66d8ac5294227a11adf08cdfa91f59b5" target="_top" xlink:title="elmeragent::Initialize">
<polygon fill="none" stroke="black" points="425.5,-194.5 425.5,-213.5 532.5,-213.5 532.5,-194.5 425.5,-194.5"/>
<text text-anchor="middle" x="479" y="-201.5" font-family="Helvetica,sans-Serif" font-size="10.00">elmeragent::Initialize</text>
</a>
</g>
</g>
<!-- Node14&#45;&gt;Node18 -->
<g id="edge17" class="edge"><title>Node14&#45;&gt;Node18</title>
<path fill="none" stroke="midnightblue" d="M339.667,-217.833C362.936,-215.506 390.619,-212.738 415.085,-210.291"/>
<polygon fill="midnightblue" stroke="midnightblue" points="415.749,-213.743 425.351,-209.265 415.053,-206.777 415.749,-213.743"/>
</g>
<!-- Node16 -->
<g id="node16" class="node"><title>Node16</title>
<g id="a_node16"><a xlink:href="classimpact_1_1orchestrator_1_1agentbase_a0c67610e579dce80081e10bbbf57eae1.html#a0c67610e579dce80081e10bbbf57eae1" target="_top" xlink:title="impact::orchestrator\l::agentbase::WriteErr">
<polygon fill="none" stroke="black" points="588,-233 588,-263 698,-263 698,-233 588,-233"/>
<text text-anchor="start" x="596" y="-251" font-family="Helvetica,sans-Serif" font-size="10.00">impact::orchestrator</text>
<text text-anchor="middle" x="643" y="-240" font-family="Helvetica,sans-Serif" font-size="10.00">::agentbase::WriteErr</text>
</a>
</g>
</g>
<!-- Node15&#45;&gt;Node16 -->
<g id="edge15" class="edge"><title>Node15&#45;&gt;Node16</title>
<path fill="none" stroke="midnightblue" d="M541.707,-244.285C553.464,-244.721 565.797,-245.178 577.634,-245.616"/>
<polygon fill="midnightblue" stroke="midnightblue" points="577.759,-249.123 587.882,-245.996 578.019,-242.128 577.759,-249.123"/>
</g>
<!-- Node17 -->
<g id="node17" class="node"><title>Node17</title>
<g id="a_node17"><a xlink:href="classimpact_1_1orchestrator_1_1agentbase_acd3473c5912447035e34274950a1c8c6.html#acd3473c5912447035e34274950a1c8c6" target="_top" xlink:title="impact::orchestrator\l::agentbase::WriteOut">
<polygon fill="none" stroke="black" points="586.5,-184 586.5,-214 699.5,-214 699.5,-184 586.5,-184"/>
<text text-anchor="start" x="594.5" y="-202" font-family="Helvetica,sans-Serif" font-size="10.00">impact::orchestrator</text>
<text text-anchor="middle" x="643" y="-191" font-family="Helvetica,sans-Serif" font-size="10.00">::agentbase::WriteOut</text>
</a>
</g>
</g>
<!-- Node15&#45;&gt;Node17 -->
<g id="edge16" class="edge"><title>Node15&#45;&gt;Node17</title>
<path fill="none" stroke="midnightblue" d="M515.953,-232.457C533.818,-227.715 555.969,-221.835 576.695,-216.334"/>
<polygon fill="midnightblue" stroke="midnightblue" points="577.644,-219.703 586.412,-213.755 575.848,-212.938 577.644,-219.703"/>
</g>
<!-- Node18&#45;&gt;Node16 -->
<g id="edge18" class="edge"><title>Node18&#45;&gt;Node16</title>
<path fill="none" stroke="midnightblue" d="M515.252,-213.566C526.37,-216.584 538.698,-219.931 550,-223 559.01,-225.447 568.515,-228.029 577.861,-230.568"/>
<polygon fill="midnightblue" stroke="midnightblue" points="576.948,-233.947 587.515,-233.192 578.783,-227.192 576.948,-233.947"/>
</g>
<!-- Node18&#45;&gt;Node17 -->
<g id="edge19" class="edge"><title>Node18&#45;&gt;Node17</title>
<path fill="none" stroke="midnightblue" d="M532.597,-202.377C546.425,-201.95 561.517,-201.484 575.953,-201.038"/>
<polygon fill="midnightblue" stroke="midnightblue" points="576.434,-204.525 586.321,-200.718 576.218,-197.529 576.434,-204.525"/>
</g>
<!-- Node23&#45;&gt;Node5 -->
<g id="edge25" class="edge"><title>Node23&#45;&gt;Node5</title>
<path fill="none" stroke="midnightblue" d="M315.577,-572.06C339.553,-584.787 375.455,-602.973 408,-616 416.335,-619.336 425.386,-622.503 434.127,-625.341"/>
<polygon fill="midnightblue" stroke="midnightblue" points="433.22,-628.724 443.81,-628.396 435.327,-622.049 433.22,-628.724"/>
</g>
<!-- Node23&#45;&gt;Node6 -->
<g id="edge26" class="edge"><title>Node23&#45;&gt;Node6</title>
<path fill="none" stroke="midnightblue" d="M359.29,-572.008C380.368,-576.446 403.111,-581.234 422.994,-585.42"/>
<polygon fill="midnightblue" stroke="midnightblue" points="422.299,-588.85 432.805,-587.485 423.741,-582 422.299,-588.85"/>
</g>
<!-- Node24 -->
<g id="node24" class="node"><title>Node24</title>
<g id="a_node24"><a xlink:href="classopenfoamagent_a84634b1a9101359943436cfa37a4b88e.html#a84634b1a9101359943436cfa37a4b88e" target="_top" xlink:title="openfoamagent::PaneID">
<polygon fill="none" stroke="black" points="418,-510.5 418,-529.5 540,-529.5 540,-510.5 418,-510.5"/>
<text text-anchor="middle" x="479" y="-517.5" font-family="Helvetica,sans-Serif" font-size="10.00">openfoamagent::PaneID</text>
</a>
</g>
</g>
<!-- Node23&#45;&gt;Node24 -->
<g id="edge27" class="edge"><title>Node23&#45;&gt;Node24</title>
<path fill="none" stroke="midnightblue" d="M365.28,-541.951C383.316,-538.438 402.235,-534.754 419.311,-531.429"/>
<polygon fill="midnightblue" stroke="midnightblue" points="419.985,-534.863 429.132,-529.516 418.647,-527.992 419.985,-534.863"/>
</g>
<!-- Node25 -->
<g id="node25" class="node"><title>Node25</title>
<g id="a_node25"><a xlink:href="classelmeragent_a84634b1a9101359943436cfa37a4b88e.html#a84634b1a9101359943436cfa37a4b88e" target="_top" xlink:title="elmeragent::PaneID">
<polygon fill="none" stroke="black" points="427,-548.5 427,-567.5 531,-567.5 531,-548.5 427,-548.5"/>
<text text-anchor="middle" x="479" y="-555.5" font-family="Helvetica,sans-Serif" font-size="10.00">elmeragent::PaneID</text>
</a>
</g>
</g>
<!-- Node23&#45;&gt;Node25 -->
<g id="edge28" class="edge"><title>Node23&#45;&gt;Node25</title>
<path fill="none" stroke="midnightblue" d="M372.167,-557.443C387.183,-557.522 402.565,-557.603 416.786,-557.678"/>
<polygon fill="midnightblue" stroke="midnightblue" points="416.895,-561.178 426.914,-557.731 416.932,-554.178 416.895,-561.178"/>
</g>
</g>
</svg>
        <g id="navigator" transform="translate(0 0)" fill="#404254">
                <rect fill="#f2f5e9" fill-opacity="0.5" stroke="#606060" stroke-width=".5" x="0" y="0" width="60" height="60"/>
                <use id="zoomplus" xlink:href="#zoomPlus" x="17" y="9" onmousedown="handleZoom(evt,'in')"/>
                <use id="zoomminus" xlink:href="#zoomMin" x="42" y="9" onmousedown="handleZoom(evt,'out')"/>
                <use id="reset" xlink:href="#resetDef" x="30" y="36" onmousedown="handleReset()"/>
                <g id="arrowUp" xlink:href="#dirArrow" transform="translate(30 24)" onmousedown="handlePan(0,-1)">
                  <use xlink:href="#rim" fill="#404040">
                        <set attributeName="fill" to="#808080" begin="arrowUp.mouseover" end="arrowUp.mouseout"/>
                  </use>
                  <path fill="none" stroke="white" stroke-width="1.5" d="M0,-3.0v7 M-2.5,-0.5L0,-3.0L2.5,-0.5"/>
                </g>
                <g id="arrowRight" xlink:href="#dirArrow" transform="rotate(90) translate(36 -43)" onmousedown="handlePan(1,0)">
                  <use xlink:href="#rim" fill="#404040">
                        <set attributeName="fill" to="#808080" begin="arrowRight.mouseover" end="arrowRight.mouseout"/>
                  </use>
                  <path fill="none" stroke="white" stroke-width="1.5" d="M0,-3.0v7 M-2.5,-0.5L0,-3.0L2.5,-0.5"/>
                </g>
                <g id="arrowDown" xlink:href="#dirArrow" transform="rotate(180) translate(-30 -48)" onmousedown="handlePan(0,1)">
                  <use xlink:href="#rim" fill="#404040">
                        <set attributeName="fill" to="#808080" begin="arrowDown.mouseover" end="arrowDown.mouseout"/>
                  </use>
                  <path fill="none" stroke="white" stroke-width="1.5" d="M0,-3.0v7 M-2.5,-0.5L0,-3.0L2.5,-0.5"/>
                </g>
                <g id="arrowLeft" xlink:href="#dirArrow" transform="rotate(270) translate(-36 17)" onmousedown="handlePan(-1,0)">
                  <use xlink:href="#rim" fill="#404040">
                        <set attributeName="fill" to="#808080" begin="arrowLeft.mouseover" end="arrowLeft.mouseout"/>
                  </use>
                  <path fill="none" stroke="white" stroke-width="1.5" d="M0,-3.0v7 M-2.5,-0.5L0,-3.0L2.5,-0.5"/>
                </g>
        </g>
        <svg viewBox="0 0 15 15" width="100%" height="30px" preserveAspectRatio="xMaxYMin meet">
         <g id="arrow_out" transform="scale(0.3 0.3)">
          <a xlink:href="classElmerFoamFSI_1_1TestingObject_a8c738943eca358248eb583bd29c5c332_a8c738943eca358248eb583bd29c5c332_cgraph_org.svg" target="_base">
           <rect id="button" ry="5" rx="5" y="6" x="6" height="38" width="38"
                fill="#f2f5e9" fill-opacity="0.5" stroke="#606060" stroke-width="1.0"/>
           <path id="arrow"
             d="M 11.500037,31.436501 C 11.940474,20.09759 22.043105,11.32322 32.158766,21.979434 L 37.068811,17.246167 C 37.068811,17.246167 37.088388,32 37.088388,32 L 22.160133,31.978069 C 22.160133,31.978069 26.997745,27.140456 26.997745,27.140456 C 18.528582,18.264221 13.291696,25.230495 11.500037,31.436501 z"
             style="fill:#404040;"/>
          </a>
         </g>
        </svg>
</svg>
