<?xml version="1.0" encoding="UTF-8" standalone="no"?>
<!DOCTYPE svg PUBLIC "-//W3C//DTD SVG 1.1//EN"
 "http://www.w3.org/Graphics/SVG/1.1/DTD/svg11.dtd">
<!-- Generated by graphviz version 2.26.0 (20091210.2329)
 -->
<!-- Title: Test__TrapezoidQuadrature Pages: 1 -->
<svg width="472pt" height="70pt"
 viewBox="0.00 0.00 472.00 70.00" xmlns="http://www.w3.org/2000/svg" xmlns:xlink="http://www.w3.org/1999/xlink">
<g id="graph1" class="graph" transform="scale(1 1) rotate(0) translate(4 66)">
<title>Test__TrapezoidQuadrature</title>
<!-- Node1 -->
<g id="node1" class="node"><title>Node1</title>
<polygon fill="#bfbfbf" stroke="black" points="0.5,-20.5 0.5,-41.5 137.5,-41.5 137.5,-20.5 0.5,-20.5"/>
<text text-anchor="middle" x="69" y="-28.5" font-family="Helvetica,sans-Serif" font-size="10.00">Test__TrapezoidQuadrature</text>
</g>
<!-- Node2 -->
<g id="node3" class="node"><title>Node2</title>
<a xlink:href="classElmerModuleDriver_1_1TestingObject_a046f7ab06db0acf616b0d2bf3d3146aa.html#a046f7ab06db0acf616b0d2bf3d3146aa" target="_top" xlink:title="Process">
<polygon fill="none" stroke="black" points="174.5,-40.5 174.5,-61.5 227.5,-61.5 227.5,-40.5 174.5,-40.5"/>
<text text-anchor="middle" x="201" y="-48.5" font-family="Helvetica,sans-Serif" font-size="10.00">Process</text>
</a>
</g>
<!-- Node1&#45;&gt;Node2 -->
<g id="edge2" class="edge"><title>Node1&#45;&gt;Node2</title>
<path fill="none" stroke="midnightblue" d="M147.721,-42.9275C157.237,-44.3693 166.387,-45.7556 174.337,-46.9602"/>
<polygon fill="midnightblue" stroke="midnightblue" points="148.118,-39.4477 137.706,-41.4101 147.069,-46.3687 148.118,-39.4477"/>
</g>
<!-- Node5 -->
<g id="node9" class="node"><title>Node5</title>
<a xlink:href="classElmerModuleDriver_1_1TestingObject_af1f07f14b9af7708e4264bb38937eed2.html#af1f07f14b9af7708e4264bb38937eed2" target="_top" xlink:title="Runs a test specified by name. ">
<polygon fill="none" stroke="black" points="174,-0.5 174,-21.5 228,-21.5 228,-0.5 174,-0.5"/>
<text text-anchor="middle" x="201" y="-8.5" font-family="Helvetica,sans-Serif" font-size="10.00">RunTest</text>
</a>
</g>
<!-- Node1&#45;&gt;Node5 -->
<g id="edge8" class="edge"><title>Node1&#45;&gt;Node5</title>
<path fill="none" stroke="midnightblue" d="M147.825,-19.0568C157.058,-17.6579 165.942,-16.3118 173.717,-15.1338"/>
<polygon fill="midnightblue" stroke="midnightblue" points="147.069,-15.6313 137.706,-20.5899 148.118,-22.5523 147.069,-15.6313"/>
</g>
<!-- Node3 -->
<g id="node5" class="node"><title>Node3</title>
<a xlink:href="namespaceElmerModuleDriver_a657930328d3dc159ded2e9fd6473b2b6.html#a657930328d3dc159ded2e9fd6473b2b6" target="_top" xlink:title="Drives the ElmerModuleDriver::TestObject. ">
<polygon fill="none" stroke="black" points="264.5,-40.5 264.5,-61.5 389.5,-61.5 389.5,-40.5 264.5,-40.5"/>
<text text-anchor="middle" x="327" y="-48.5" font-family="Helvetica,sans-Serif" font-size="10.00">ElmerModuleDriver::Test</text>
</a>
</g>
<!-- Node2&#45;&gt;Node3 -->
<g id="edge4" class="edge"><title>Node2&#45;&gt;Node3</title>
<path fill="none" stroke="midnightblue" d="M237.818,-51C246.147,-51 255.219,-51 264.283,-51"/>
<polygon fill="midnightblue" stroke="midnightblue" points="237.721,-47.5001 227.721,-51 237.721,-54.5001 237.721,-47.5001"/>
</g>
<!-- Node4 -->
<g id="node7" class="node"><title>Node4</title>
<a xlink:href="TestElmerModuleDriver_8C_a0ddf1224851353fc92bfbff6f499fa97.html#a0ddf1224851353fc92bfbff6f499fa97" target="_top" xlink:title="main">
<polygon fill="none" stroke="black" points="426,-40.5 426,-61.5 464,-61.5 464,-40.5 426,-40.5"/>
<text text-anchor="middle" x="445" y="-48.5" font-family="Helvetica,sans-Serif" font-size="10.00">main</text>
</a>
</g>
<!-- Node3&#45;&gt;Node4 -->
<g id="edge6" class="edge"><title>Node3&#45;&gt;Node4</title>
<path fill="none" stroke="midnightblue" d="M399.837,-51C409.336,-51 418.327,-51 425.749,-51"/>
<polygon fill="midnightblue" stroke="midnightblue" points="399.8,-47.5001 389.8,-51 399.8,-54.5001 399.8,-47.5001"/>
</g>
<!-- Node5&#45;&gt;Node3 -->
<g id="edge12" class="edge"><title>Node5&#45;&gt;Node3</title>
<path fill="none" stroke="midnightblue" d="M237.987,-22.7418C255.637,-28.345 276.591,-34.9972 293.734,-40.4394"/>
<polygon fill="midnightblue" stroke="midnightblue" points="238.62,-19.2709 228.03,-19.581 236.502,-25.9428 238.62,-19.2709"/>
</g>
<!-- Node6 -->
<g id="node11" class="node"><title>Node6</title>
<a xlink:href="classElmerModuleDriver_1_1TestingObject_a21159bd2efac623e5a5079f6a20f3444.html#a21159bd2efac623e5a5079f6a20f3444" target="_top" xlink:title="Runs a list of tests specified by name. ">
<polygon fill="none" stroke="black" points="288.5,-0.5 288.5,-21.5 365.5,-21.5 365.5,-0.5 288.5,-0.5"/>
<text text-anchor="middle" x="327" y="-8.5" font-family="Helvetica,sans-Serif" font-size="10.00">ProcessTests</text>
</a>
</g>
<!-- Node5&#45;&gt;Node6 -->
<g id="edge10" class="edge"><title>Node5&#45;&gt;Node6</title>
<path fill="none" stroke="midnightblue" d="M238.4,-11C254.053,-11 272.246,-11 288.059,-11"/>
<polygon fill="midnightblue" stroke="midnightblue" points="238.03,-7.5001 228.03,-11 238.03,-14.5001 238.03,-7.5001"/>
</g>
</g>
</svg>
