<?xml version="1.0" encoding="UTF-8" standalone="no"?>
<!DOCTYPE svg PUBLIC "-//W3C//DTD SVG 1.1//EN"
 "http://www.w3.org/Graphics/SVG/1.1/DTD/svg11.dtd">
<!-- Generated by graphviz version 2.30.1 (20150305.2338)
 -->
<!-- Title: end_update_ghost_cells Pages: 1 -->
<svg width="276pt" height="66pt"
 viewBox="0.00 0.00 276.00 66.00" xmlns="http://www.w3.org/2000/svg" xmlns:xlink="http://www.w3.org/1999/xlink">
<g id="graph0" class="graph" transform="scale(1 1) rotate(0) translate(4 62)">
<title>end_update_ghost_cells</title>
<!-- Node1 -->
<g id="node1" class="node"><title>Node1</title>
<polygon fill="#bfbfbf" stroke="black" points="0,-19.5 0,-38.5 122,-38.5 122,-19.5 0,-19.5"/>
<text text-anchor="middle" x="61" y="-26.5" font-family="Helvetica,sans-Serif" font-size="10.00">end_update_ghost_cells</text>
</g>
<!-- Node2 -->
<g id="node2" class="node"><title>Node2</title>
<g id="a_node2"><a xlink:href="classPane__communicator_a8ad87eb9e243bcf6314e08ef17c598ff.html#a8ad87eb9e243bcf6314e08ef17c598ff" target="_top" xlink:title="Finalizes updating by calling MPI_Waitall on all send requests. ">
<polygon fill="none" stroke="black" points="179.5,-38.5 179.5,-57.5 246.5,-57.5 246.5,-38.5 179.5,-38.5"/>
<text text-anchor="middle" x="213" y="-45.5" font-family="Helvetica,sans-Serif" font-size="10.00">end_update</text>
</a>
</g>
</g>
<!-- Node1&#45;&gt;Node2 -->
<g id="edge1" class="edge"><title>Node1&#45;&gt;Node2</title>
<path fill="none" stroke="midnightblue" d="M122.146,-36.6185C137.887,-38.6124 154.538,-40.7214 169.171,-42.5751"/>
<polygon fill="midnightblue" stroke="midnightblue" points="169.069,-46.0899 179.429,-43.8744 169.948,-39.1454 169.069,-46.0899"/>
</g>
<!-- Node3 -->
<g id="node3" class="node"><title>Node3</title>
<g id="a_node3"><a xlink:href="classPane__communicator_a1e09f6d46fc443880b1c406e9df6f762.html#a1e09f6d46fc443880b1c406e9df6f762" target="_top" xlink:title="update_ghost_values">
<polygon fill="none" stroke="black" points="158.5,-0.5 158.5,-19.5 267.5,-19.5 267.5,-0.5 158.5,-0.5"/>
<text text-anchor="middle" x="213" y="-7.5" font-family="Helvetica,sans-Serif" font-size="10.00">update_ghost_values</text>
</a>
</g>
</g>
<!-- Node1&#45;&gt;Node3 -->
<g id="edge2" class="edge"><title>Node1&#45;&gt;Node3</title>
<path fill="none" stroke="midnightblue" d="M122.146,-21.3815C130.699,-20.2981 139.521,-19.1807 148.142,-18.0887"/>
<polygon fill="midnightblue" stroke="midnightblue" points="148.66,-21.5511 158.141,-16.8221 147.781,-14.6066 148.66,-21.5511"/>
</g>
</g>
</svg>
