<?xml version="1.0" encoding="UTF-8" standalone="no"?>
<!DOCTYPE svg PUBLIC "-//W3C//DTD SVG 1.1//EN"
 "http://www.w3.org/Graphics/SVG/1.1/DTD/svg11.dtd">
<!-- Generated by graphviz version 2.30.1 (20150305.2338)
 -->
<!-- Title: TestObject Pages: 1 -->
<svg width="283pt" height="176pt"
 viewBox="0.00 0.00 283.00 176.00" xmlns="http://www.w3.org/2000/svg" xmlns:xlink="http://www.w3.org/1999/xlink">
<g id="graph0" class="graph" transform="scale(1 1) rotate(0) translate(4 172)">
<title>TestObject</title>
<!-- Node1 -->
<g id="node1" class="node"><title>Node1</title>
<polygon fill="#bfbfbf" stroke="black" points="131.5,-0.5 131.5,-19.5 196.5,-19.5 196.5,-0.5 131.5,-0.5"/>
<text text-anchor="middle" x="164" y="-7.5" font-family="Helvetica,sans-Serif" font-size="10.00">TestObject</text>
</g>
<!-- Node2 -->
<g id="node2" class="node"><title>Node2</title>
<g id="a_node2"><a xlink:href="classIRAD_1_1Util_1_1TestingObject.html" target="_top" xlink:title="TestingObject\&lt; Util\l::TestResults \&gt;">
<polygon fill="none" stroke="black" points="53.5,-69 53.5,-99 154.5,-99 154.5,-69 53.5,-69"/>
<text text-anchor="start" x="61.5" y="-87" font-family="Helvetica,sans-Serif" font-size="10.00">TestingObject&lt; Util</text>
<text text-anchor="middle" x="104" y="-76" font-family="Helvetica,sans-Serif" font-size="10.00">::TestResults &gt;</text>
</a>
</g>
</g>
<!-- Node2&#45;&gt;Node1 -->
<g id="edge1" class="edge"><title>Node2&#45;&gt;Node1</title>
<path fill="none" stroke="midnightblue" d="M122.287,-61.0551C133.866,-47.1605 148.207,-29.952 156.701,-19.7589"/>
<polygon fill="midnightblue" stroke="midnightblue" points="119.567,-58.8522 115.854,-68.7751 124.945,-63.3335 119.567,-58.8522"/>
</g>
<!-- Node3 -->
<g id="node3" class="node"><title>Node3</title>
<g id="a_node3"><a xlink:href="classIRAD_1_1Util_1_1TestingObject.html" target="_top" xlink:title="Interface for a general testing object. ">
<polygon fill="none" stroke="black" points="-0.5,-148.5 -0.5,-167.5 150.5,-167.5 150.5,-148.5 -0.5,-148.5"/>
<text text-anchor="middle" x="75" y="-155.5" font-family="Helvetica,sans-Serif" font-size="10.00">TestingObject&lt; ResultsType &gt;</text>
</a>
</g>
</g>
<!-- Node3&#45;&gt;Node2 -->
<g id="edge2" class="edge"><title>Node3&#45;&gt;Node2</title>
<path fill="none" stroke="orange" stroke-dasharray="5,2" d="M82.3173,-138.833C87.2612,-126.558 93.6957,-110.583 98.2678,-99.2316"/>
<polygon fill="orange" stroke="orange" points="78.9302,-137.874 78.4406,-148.458 85.4233,-140.49 78.9302,-137.874"/>
<text text-anchor="middle" x="139" y="-121.5" font-family="Helvetica,sans-Serif" font-size="10.00"> &lt; Util::TestResults &gt;</text>
</g>
<!-- Node4 -->
<g id="node4" class="node"><title>Node4</title>
<g id="a_node4"><a xlink:title="STL class. ">
<polygon fill="none" stroke="#bfbfbf" points="186.5,-74.5 186.5,-93.5 227.5,-93.5 227.5,-74.5 186.5,-74.5"/>
<text text-anchor="middle" x="207" y="-81.5" font-family="Helvetica,sans-Serif" font-size="10.00">string</text>
</a>
</g>
</g>
<!-- Node4&#45;&gt;Node1 -->
<g id="edge3" class="edge"><title>Node4&#45;&gt;Node1</title>
<path fill="none" stroke="#9a32cd" stroke-dasharray="5,2" d="M196.757,-65.8488C188.038,-51.2504 175.88,-30.8922 169.095,-19.531"/>
<polygon fill="#9a32cd" stroke="#9a32cd" points="193.766,-67.6671 201.898,-74.4579 199.776,-64.0779 193.766,-67.6671"/>
<text text-anchor="middle" x="214" y="-41.5" font-family="Helvetica,sans-Serif" font-size="10.00"> TestString1</text>
</g>
<!-- Node5 -->
<g id="node5" class="node"><title>Node5</title>
<g id="a_node5"><a xlink:title="STL class. ">
<polygon fill="none" stroke="#bfbfbf" points="169,-148.5 169,-167.5 275,-167.5 275,-148.5 169,-148.5"/>
<text text-anchor="middle" x="222" y="-155.5" font-family="Helvetica,sans-Serif" font-size="10.00">basic_string&lt; char &gt;</text>
</a>
</g>
</g>
<!-- Node5&#45;&gt;Node4 -->
<g id="edge4" class="edge"><title>Node5&#45;&gt;Node4</title>
<path fill="none" stroke="midnightblue" d="M218.163,-138.584C215.145,-124.094 211.077,-104.568 208.777,-93.531"/>
<polygon fill="midnightblue" stroke="midnightblue" points="214.754,-139.382 220.22,-148.458 221.607,-137.954 214.754,-139.382"/>
</g>
</g>
</svg>
