<?xml version="1.0" encoding="UTF-8" standalone="no"?>
<!DOCTYPE svg PUBLIC "-//W3C//DTD SVG 1.1//EN"
 "http://www.w3.org/Graphics/SVG/1.1/DTD/svg11.dtd">
<!-- Generated by graphviz version 2.30.1 (20150305.2338)
 -->
<!-- Title: read_file_rocin Pages: 1 -->
<svg width="622pt" height="281pt"
 viewBox="0.00 0.00 622.00 281.00" xmlns="http://www.w3.org/2000/svg" xmlns:xlink="http://www.w3.org/1999/xlink">
<g id="graph0" class="graph" transform="scale(1 1) rotate(0) translate(4 277)">
<title>read_file_rocin</title>
<!-- Node1 -->
<g id="node1" class="node"><title>Node1</title>
<polygon fill="#bfbfbf" stroke="black" points="0,-128.5 0,-147.5 80,-147.5 80,-128.5 0,-128.5"/>
<text text-anchor="middle" x="40" y="-135.5" font-family="Helvetica,sans-Serif" font-size="10.00">read_file_rocin</text>
</g>
<!-- Node2 -->
<g id="node2" class="node"><title>Node2</title>
<g id="a_node2"><a xlink:href="namespaceSolverUtils_ab602f331b052ecdbea6aa8caa0eeed75.html#ab602f331b052ecdbea6aa8caa0eeed75" target="_top" xlink:title="SolverUtils::COM_call\l_function">
<polygon fill="none" stroke="black" points="138,-243 138,-273 252,-273 252,-243 138,-243"/>
<text text-anchor="start" x="146" y="-261" font-family="Helvetica,sans-Serif" font-size="10.00">SolverUtils::COM_call</text>
<text text-anchor="middle" x="195" y="-250" font-family="Helvetica,sans-Serif" font-size="10.00">_function</text>
</a>
</g>
</g>
<!-- Node1&#45;&gt;Node2 -->
<g id="edge1" class="edge"><title>Node1&#45;&gt;Node2</title>
<path fill="none" stroke="midnightblue" d="M46.0102,-147.634C56.4371,-166.751 82.3282,-209.649 116,-233 119.955,-235.743 124.227,-238.197 128.664,-240.391"/>
<polygon fill="midnightblue" stroke="midnightblue" points="127.395,-243.658 137.953,-244.54 130.249,-237.266 127.395,-243.658"/>
</g>
<!-- Node3 -->
<g id="node3" class="node"><title>Node3</title>
<g id="a_node3"><a xlink:href="com__c_09_09_8hpp_a7ba04c696e63cdfeb6d9b0f4b70a30ec.html#a7ba04c696e63cdfeb6d9b0f4b70a30ec" target="_top" xlink:title="Clone the subset of panes of another window of which the given pane dataitem has value val...">
<polygon fill="none" stroke="black" points="139.5,-204.5 139.5,-223.5 250.5,-223.5 250.5,-204.5 139.5,-204.5"/>
<text text-anchor="middle" x="195" y="-211.5" font-family="Helvetica,sans-Serif" font-size="10.00">COM_clone_dataitem</text>
</a>
</g>
</g>
<!-- Node1&#45;&gt;Node3 -->
<g id="edge2" class="edge"><title>Node1&#45;&gt;Node3</title>
<path fill="none" stroke="midnightblue" d="M50.7813,-147.595C64.3082,-160.324 90.0119,-182.625 116,-195 121.034,-197.397 126.398,-199.509 131.868,-201.366"/>
<polygon fill="midnightblue" stroke="midnightblue" points="131.19,-204.82 141.778,-204.44 133.264,-198.134 131.19,-204.82"/>
</g>
<!-- Node7 -->
<g id="node7" class="node"><title>Node7</title>
<g id="a_node7"><a xlink:href="com__c_09_09_8hpp_aee2bdea02bb47943444e452f62372e33.html#aee2bdea02bb47943444e452f62372e33" target="_top" xlink:title="COM_delete_window">
<polygon fill="none" stroke="black" points="140,-166.5 140,-185.5 250,-185.5 250,-166.5 140,-166.5"/>
<text text-anchor="middle" x="195" y="-173.5" font-family="Helvetica,sans-Serif" font-size="10.00">COM_delete_window</text>
</a>
</g>
</g>
<!-- Node1&#45;&gt;Node7 -->
<g id="edge6" class="edge"><title>Node1&#45;&gt;Node7</title>
<path fill="none" stroke="midnightblue" d="M78.369,-147.539C90.3794,-150.585 103.746,-153.955 116,-157 125.236,-159.295 135.094,-161.717 144.585,-164.036"/>
<polygon fill="midnightblue" stroke="midnightblue" points="143.758,-167.436 154.302,-166.405 145.416,-160.635 143.758,-167.436"/>
</g>
<!-- Node9 -->
<g id="node9" class="node"><title>Node9</title>
<g id="a_node9"><a xlink:href="com__c_09_09_8hpp_a86224e33f2e17b4cee6c3256bfdff75d.html#a86224e33f2e17b4cee6c3256bfdff75d" target="_top" xlink:title="COM_get_dataitem_handle">
<polygon fill="none" stroke="black" points="127.5,-128.5 127.5,-147.5 262.5,-147.5 262.5,-128.5 127.5,-128.5"/>
<text text-anchor="middle" x="195" y="-135.5" font-family="Helvetica,sans-Serif" font-size="10.00">COM_get_dataitem_handle</text>
</a>
</g>
</g>
<!-- Node1&#45;&gt;Node9 -->
<g id="edge9" class="edge"><title>Node1&#45;&gt;Node9</title>
<path fill="none" stroke="midnightblue" d="M80.0042,-138C91.3914,-138 104.251,-138 117.125,-138"/>
<polygon fill="midnightblue" stroke="midnightblue" points="117.425,-141.5 127.425,-138 117.425,-134.5 117.425,-141.5"/>
</g>
<!-- Node11 -->
<g id="node11" class="node"><title>Node11</title>
<g id="a_node11"><a xlink:href="com__c_09_09_8hpp_acbbf9749cce36d33b4c60c100bdfaea2.html#acbbf9749cce36d33b4c60c100bdfaea2" target="_top" xlink:title="COM_get_function_handle">
<polygon fill="none" stroke="black" points="129,-90.5 129,-109.5 261,-109.5 261,-90.5 129,-90.5"/>
<text text-anchor="middle" x="195" y="-97.5" font-family="Helvetica,sans-Serif" font-size="10.00">COM_get_function_handle</text>
</a>
</g>
</g>
<!-- Node1&#45;&gt;Node11 -->
<g id="edge12" class="edge"><title>Node1&#45;&gt;Node11</title>
<path fill="none" stroke="midnightblue" d="M78.369,-128.461C90.3794,-125.415 103.746,-122.045 116,-119 125.236,-116.705 135.094,-114.283 144.585,-111.964"/>
<polygon fill="midnightblue" stroke="midnightblue" points="145.416,-115.365 154.302,-109.595 143.758,-108.564 145.416,-115.365"/>
</g>
<!-- Node13 -->
<g id="node13" class="node"><title>Node13</title>
<g id="a_node13"><a xlink:href="namespaceSolverUtils_a861d12c375b5d430ea1dcaf25babcb62.html#a861d12c375b5d430ea1dcaf25babcb62" target="_top" xlink:title="SolverUtils::COM_LOAD\l_MODULE_STATIC_DYNAMIC">
<polygon fill="none" stroke="black" points="116,-3 116,-33 274,-33 274,-3 116,-3"/>
<text text-anchor="start" x="124" y="-21" font-family="Helvetica,sans-Serif" font-size="10.00">SolverUtils::COM_LOAD</text>
<text text-anchor="middle" x="195" y="-10" font-family="Helvetica,sans-Serif" font-size="10.00">_MODULE_STATIC_DYNAMIC</text>
</a>
</g>
</g>
<!-- Node1&#45;&gt;Node13 -->
<g id="edge15" class="edge"><title>Node1&#45;&gt;Node13</title>
<path fill="none" stroke="midnightblue" d="M46.0102,-128.366C56.4371,-109.249 82.3282,-66.3507 116,-43 118.746,-41.0957 121.645,-39.3303 124.646,-37.6944"/>
<polygon fill="midnightblue" stroke="midnightblue" points="126.459,-40.7041 133.904,-33.1658 123.383,-34.4161 126.459,-40.7041"/>
</g>
<!-- Node14 -->
<g id="node14" class="node"><title>Node14</title>
<g id="a_node14"><a xlink:href="com__c_09_09_8hpp_a4859cec968839295988dd58b44f5237e.html#a4859cec968839295988dd58b44f5237e" target="_top" xlink:title="COM_new_window">
<polygon fill="none" stroke="black" points="144.5,-52.5 144.5,-71.5 245.5,-71.5 245.5,-52.5 144.5,-52.5"/>
<text text-anchor="middle" x="195" y="-59.5" font-family="Helvetica,sans-Serif" font-size="10.00">COM_new_window</text>
</a>
</g>
</g>
<!-- Node1&#45;&gt;Node14 -->
<g id="edge16" class="edge"><title>Node1&#45;&gt;Node14</title>
<path fill="none" stroke="midnightblue" d="M50.7813,-128.405C64.3082,-115.676 90.0119,-93.3748 116,-81 121.781,-78.2474 127.998,-75.8709 134.31,-73.8241"/>
<polygon fill="midnightblue" stroke="midnightblue" points="135.665,-77.0728 144.257,-70.8725 133.674,-70.362 135.665,-77.0728"/>
</g>
<!-- Node4 -->
<g id="node4" class="node"><title>Node4</title>
<g id="a_node4"><a xlink:href="classCOM_1_1COM__base_a4c05d883838b1ac95a1f46ee17d61fef.html#a4c05d883838b1ac95a1f46ee17d61fef" target="_top" xlink:title="Clone the subset of panes of another window of which the given pane dataitem has value val...">
<polygon fill="none" stroke="black" points="311.5,-235 311.5,-265 436.5,-265 436.5,-235 311.5,-235"/>
<text text-anchor="start" x="319.5" y="-253" font-family="Helvetica,sans-Serif" font-size="10.00">COM::COM_base::clone</text>
<text text-anchor="middle" x="374" y="-242" font-family="Helvetica,sans-Serif" font-size="10.00">_dataitem</text>
</a>
</g>
</g>
<!-- Node3&#45;&gt;Node4 -->
<g id="edge3" class="edge"><title>Node3&#45;&gt;Node4</title>
<path fill="none" stroke="midnightblue" d="M242.968,-223.553C260.929,-227.206 281.841,-231.459 301.576,-235.473"/>
<polygon fill="midnightblue" stroke="midnightblue" points="300.961,-238.92 311.458,-237.483 302.356,-232.06 300.961,-238.92"/>
</g>
<!-- Node5 -->
<g id="node5" class="node"><title>Node5</title>
<g id="a_node5"><a xlink:href="COM__base_8hpp_a49353596e53127db61529b5c9000549d.html#a49353596e53127db61529b5c9000549d" target="_top" xlink:title="COM_get_com">
<polygon fill="none" stroke="black" points="332.5,-147.5 332.5,-166.5 415.5,-166.5 415.5,-147.5 332.5,-147.5"/>
<text text-anchor="middle" x="374" y="-154.5" font-family="Helvetica,sans-Serif" font-size="10.00">COM_get_com</text>
</a>
</g>
</g>
<!-- Node3&#45;&gt;Node5 -->
<g id="edge4" class="edge"><title>Node3&#45;&gt;Node5</title>
<path fill="none" stroke="midnightblue" d="M242.707,-204.436C253.139,-201.8 264.054,-198.645 274,-195 290.796,-188.844 293.424,-183.727 310,-177 316.358,-174.42 323.184,-171.953 329.911,-169.689"/>
<polygon fill="midnightblue" stroke="midnightblue" points="331.205,-172.949 339.631,-166.526 329.038,-166.292 331.205,-172.949"/>
</g>
<!-- Node6 -->
<g id="node6" class="node"><title>Node6</title>
<g id="a_node6"><a xlink:href="classCOM_1_1COM__base_a77bb770b9ec1aac99361c45efbccabc1.html#a77bb770b9ec1aac99361c45efbccabc1" target="_top" xlink:title="Get a pointer to the COM object. ">
<polygon fill="none" stroke="black" points="474.5,-147.5 474.5,-166.5 613.5,-166.5 613.5,-147.5 474.5,-147.5"/>
<text text-anchor="middle" x="544" y="-154.5" font-family="Helvetica,sans-Serif" font-size="10.00">COM::COM_base::get_com</text>
</a>
</g>
</g>
<!-- Node5&#45;&gt;Node6 -->
<g id="edge5" class="edge"><title>Node5&#45;&gt;Node6</title>
<path fill="none" stroke="midnightblue" d="M415.668,-157C430.224,-157 447.17,-157 463.86,-157"/>
<polygon fill="midnightblue" stroke="midnightblue" points="464.195,-160.5 474.195,-157 464.195,-153.5 464.195,-160.5"/>
</g>
<!-- Node7&#45;&gt;Node5 -->
<g id="edge7" class="edge"><title>Node7&#45;&gt;Node5</title>
<path fill="none" stroke="midnightblue" d="M250.068,-170.196C273.078,-167.726 299.768,-164.861 322.387,-162.433"/>
<polygon fill="midnightblue" stroke="midnightblue" points="322.896,-165.899 332.465,-161.351 322.149,-158.939 322.896,-165.899"/>
</g>
<!-- Node8 -->
<g id="node8" class="node"><title>Node8</title>
<g id="a_node8"><a xlink:href="classCOM_1_1COM__base_ad19a2baf9f3506b153d077429ad0cf4c.html#ad19a2baf9f3506b153d077429ad0cf4c" target="_top" xlink:title="Deletes a window with given name. ">
<polygon fill="none" stroke="black" points="310,-186 310,-216 438,-216 438,-186 310,-186"/>
<text text-anchor="start" x="318" y="-204" font-family="Helvetica,sans-Serif" font-size="10.00">COM::COM_base::delete</text>
<text text-anchor="middle" x="374" y="-193" font-family="Helvetica,sans-Serif" font-size="10.00">_window</text>
</a>
</g>
</g>
<!-- Node7&#45;&gt;Node8 -->
<g id="edge8" class="edge"><title>Node7&#45;&gt;Node8</title>
<path fill="none" stroke="midnightblue" d="M250.068,-183.637C265.727,-185.848 283.091,-188.301 299.716,-190.649"/>
<polygon fill="midnightblue" stroke="midnightblue" points="299.559,-194.162 309.95,-192.095 300.538,-187.23 299.559,-194.162"/>
</g>
<!-- Node9&#45;&gt;Node5 -->
<g id="edge10" class="edge"><title>Node9&#45;&gt;Node5</title>
<path fill="none" stroke="midnightblue" d="M262.664,-145.156C282.425,-147.277 303.736,-149.565 322.311,-151.559"/>
<polygon fill="midnightblue" stroke="midnightblue" points="322.005,-155.046 332.321,-152.633 322.752,-148.086 322.005,-155.046"/>
</g>
<!-- Node10 -->
<g id="node10" class="node"><title>Node10</title>
<g id="a_node10"><a xlink:href="classCOM_1_1COM__base_a9fd7945150b9f390f5560bce2b7ea375.html#a9fd7945150b9f390f5560bce2b7ea375" target="_top" xlink:title="COM::COM_base::get\l_dataitem_handle">
<polygon fill="none" stroke="black" points="316.5,-98 316.5,-128 431.5,-128 431.5,-98 316.5,-98"/>
<text text-anchor="start" x="324.5" y="-116" font-family="Helvetica,sans-Serif" font-size="10.00">COM::COM_base::get</text>
<text text-anchor="middle" x="374" y="-105" font-family="Helvetica,sans-Serif" font-size="10.00">_dataitem_handle</text>
</a>
</g>
</g>
<!-- Node9&#45;&gt;Node10 -->
<g id="edge11" class="edge"><title>Node9&#45;&gt;Node10</title>
<path fill="none" stroke="midnightblue" d="M262.664,-128.584C276.858,-126.579 291.852,-124.462 306.056,-122.455"/>
<polygon fill="midnightblue" stroke="midnightblue" points="306.825,-125.882 316.237,-121.017 305.846,-118.95 306.825,-125.882"/>
</g>
<!-- Node11&#45;&gt;Node5 -->
<g id="edge13" class="edge"><title>Node11&#45;&gt;Node5</title>
<path fill="none" stroke="midnightblue" d="M242.707,-109.564C253.139,-112.2 264.054,-115.355 274,-119 290.796,-125.156 293.424,-130.273 310,-137 316.358,-139.58 323.184,-142.047 329.911,-144.311"/>
<polygon fill="midnightblue" stroke="midnightblue" points="329.038,-147.708 339.631,-147.474 331.205,-141.051 329.038,-147.708"/>
</g>
<!-- Node12 -->
<g id="node12" class="node"><title>Node12</title>
<g id="a_node12"><a xlink:href="classCOM_1_1COM__base_a640995dd65a1fb030650457b9cf10b26.html#a640995dd65a1fb030650457b9cf10b26" target="_top" xlink:title="COM::COM_base::get\l_function_handle">
<polygon fill="none" stroke="black" points="316.5,-49 316.5,-79 431.5,-79 431.5,-49 316.5,-49"/>
<text text-anchor="start" x="324.5" y="-67" font-family="Helvetica,sans-Serif" font-size="10.00">COM::COM_base::get</text>
<text text-anchor="middle" x="374" y="-56" font-family="Helvetica,sans-Serif" font-size="10.00">_function_handle</text>
</a>
</g>
</g>
<!-- Node11&#45;&gt;Node12 -->
<g id="edge14" class="edge"><title>Node11&#45;&gt;Node12</title>
<path fill="none" stroke="midnightblue" d="M242.968,-90.4472C262.419,-86.491 285.332,-81.8308 306.462,-77.5332"/>
<polygon fill="midnightblue" stroke="midnightblue" points="307.244,-80.9459 316.346,-75.5229 305.849,-74.0863 307.244,-80.9459"/>
</g>
<!-- Node14&#45;&gt;Node5 -->
<g id="edge17" class="edge"><title>Node14&#45;&gt;Node5</title>
<path fill="none" stroke="midnightblue" d="M245.888,-68.1937C255.812,-71.0126 265.714,-75.0949 274,-81 298.095,-98.1724 286.507,-119.013 310,-137 313.895,-139.982 318.246,-142.526 322.792,-144.695"/>
<polygon fill="midnightblue" stroke="midnightblue" points="321.736,-148.046 332.314,-148.64 324.416,-141.579 321.736,-148.046"/>
</g>
<!-- Node15 -->
<g id="node15" class="node"><title>Node15</title>
<g id="a_node15"><a xlink:href="classCOM_1_1COM__base_aaf1eebdcea183110f6db536e0855b0cc.html#aaf1eebdcea183110f6db536e0855b0cc" target="_top" xlink:title="Creates a window with given name. ">
<polygon fill="none" stroke="black" points="314.5,-0 314.5,-30 433.5,-30 433.5,-0 314.5,-0"/>
<text text-anchor="start" x="322.5" y="-18" font-family="Helvetica,sans-Serif" font-size="10.00">COM::COM_base::new</text>
<text text-anchor="middle" x="374" y="-7" font-family="Helvetica,sans-Serif" font-size="10.00">_window</text>
</a>
</g>
</g>
<!-- Node14&#45;&gt;Node15 -->
<g id="edge18" class="edge"><title>Node14&#45;&gt;Node15</title>
<path fill="none" stroke="midnightblue" d="M233.72,-52.4518C246.517,-49.1794 260.891,-45.4681 274,-42 285.189,-39.0398 297.076,-35.8432 308.584,-32.7207"/>
<polygon fill="midnightblue" stroke="midnightblue" points="309.843,-36.0056 318.574,-30.0036 308.006,-29.251 309.843,-36.0056"/>
</g>
</g>
</svg>
