<?xml version="1.0" encoding="UTF-8" standalone="no"?>
<!DOCTYPE svg PUBLIC "-//W3C//DTD SVG 1.1//EN"
 "http://www.w3.org/Graphics/SVG/1.1/DTD/svg11.dtd">
<!-- Generated by graphviz version 2.30.1 (20150305.2338)
 -->
<!-- Title: index_offset Pages: 1 -->
<svg width="602pt" height="77pt"
 viewBox="0.00 0.00 602.00 77.00" xmlns="http://www.w3.org/2000/svg" xmlns:xlink="http://www.w3.org/1999/xlink">
<g id="graph0" class="graph" transform="scale(1 1) rotate(0) translate(4 73)">
<title>index_offset</title>
<!-- Node1 -->
<g id="node1" class="node"><title>Node1</title>
<polygon fill="#bfbfbf" stroke="black" points="0,-27.5 0,-46.5 70,-46.5 70,-27.5 0,-27.5"/>
<text text-anchor="middle" x="35" y="-34.5" font-family="Helvetica,sans-Serif" font-size="10.00">index_offset</text>
</g>
<!-- Node2 -->
<g id="node2" class="node"><title>Node2</title>
<g id="a_node2"><a xlink:href="classElement__node__enumerator_ae0c063cfb2479f614be43b9d2f92ba63.html#ae0c063cfb2479f614be43b9d2f92ba63" target="_top" xlink:title="Get the local id of the element within the pane. ">
<polygon fill="none" stroke="black" points="106,-49.5 106,-68.5 252,-68.5 252,-49.5 106,-49.5"/>
<text text-anchor="middle" x="179" y="-56.5" font-family="Helvetica,sans-Serif" font-size="10.00">Element_node_enumerator::id</text>
</a>
</g>
</g>
<!-- Node1&#45;&gt;Node2 -->
<g id="edge1" class="edge"><title>Node1&#45;&gt;Node2</title>
<path fill="none" stroke="midnightblue" d="M80.2131,-43.8499C91.7022,-45.6299 104.288,-47.5798 116.493,-49.4707"/>
<polygon fill="midnightblue" stroke="midnightblue" points="80.4305,-40.3419 70.0125,-42.2695 79.3588,-47.2594 80.4305,-40.3419"/>
</g>
<!-- Node5 -->
<g id="node5" class="node"><title>Node5</title>
<g id="a_node5"><a xlink:href="classElement__node__enumerator__uns_a041249f802c5bf4c2deae666610e03c4.html#a041249f802c5bf4c2deae666610e03c4" target="_top" xlink:title="Element_node_enumerator\l_uns::next">
<polygon fill="none" stroke="black" points="112.5,-0 112.5,-30 245.5,-30 245.5,-0 112.5,-0"/>
<text text-anchor="start" x="120.5" y="-18" font-family="Helvetica,sans-Serif" font-size="10.00">Element_node_enumerator</text>
<text text-anchor="middle" x="179" y="-7" font-family="Helvetica,sans-Serif" font-size="10.00">_uns::next</text>
</a>
</g>
</g>
<!-- Node1&#45;&gt;Node5 -->
<g id="edge4" class="edge"><title>Node1&#45;&gt;Node5</title>
<path fill="none" stroke="midnightblue" d="M79.9237,-30.1949C90.1687,-28.6077 101.298,-26.8833 112.26,-25.1851"/>
<polygon fill="midnightblue" stroke="midnightblue" points="79.3588,-26.7406 70.0125,-31.7305 80.4305,-33.6581 79.3588,-26.7406"/>
</g>
<!-- Node3 -->
<g id="node3" class="node"><title>Node3</title>
<g id="a_node3"><a xlink:href="classElement__vectors__k__const_a012daf687ea85e9da2bc2d064de92aa6.html#a012daf687ea85e9da2bc2d064de92aa6" target="_top" xlink:title="initialize the accessor with a pointer and a specific stride. ">
<polygon fill="none" stroke="black" points="288.5,-49.5 288.5,-68.5 437.5,-68.5 437.5,-49.5 288.5,-49.5"/>
<text text-anchor="middle" x="363" y="-56.5" font-family="Helvetica,sans-Serif" font-size="10.00">Element_vectors_k_const::set</text>
</a>
</g>
</g>
<!-- Node2&#45;&gt;Node3 -->
<g id="edge2" class="edge"><title>Node2&#45;&gt;Node3</title>
<path fill="none" stroke="midnightblue" d="M262.329,-59C271.021,-59 279.82,-59 288.404,-59"/>
<polygon fill="midnightblue" stroke="midnightblue" points="262.193,-55.5001 252.193,-59 262.193,-62.5001 262.193,-55.5001"/>
</g>
<!-- Node4 -->
<g id="node4" class="node"><title>Node4</title>
<g id="a_node4"><a xlink:href="classElement__vectors__k_abff5b8faeb81685278bb62a627e784b0.html#abff5b8faeb81685278bb62a627e784b0" target="_top" xlink:title="Element_vectors_k::set">
<polygon fill="none" stroke="black" points="474,-49.5 474,-68.5 594,-68.5 594,-49.5 474,-49.5"/>
<text text-anchor="middle" x="534" y="-56.5" font-family="Helvetica,sans-Serif" font-size="10.00">Element_vectors_k::set</text>
</a>
</g>
</g>
<!-- Node3&#45;&gt;Node4 -->
<g id="edge3" class="edge"><title>Node3&#45;&gt;Node4</title>
<path fill="none" stroke="midnightblue" d="M447.89,-59C456.65,-59 465.418,-59 473.818,-59"/>
<polygon fill="midnightblue" stroke="midnightblue" points="447.634,-55.5001 437.634,-59 447.634,-62.5001 447.634,-55.5001"/>
</g>
</g>
</svg>
