<?xml version="1.0" encoding="UTF-8" standalone="no"?>
<!DOCTYPE svg PUBLIC "-//W3C//DTD SVG 1.1//EN"
 "http://www.w3.org/Graphics/SVG/1.1/DTD/svg11.dtd">
<!-- Generated by graphviz version 2.30.1 (20150305.2338)
 -->
<!-- Title: SetVerbLevel Pages: 1 -->
<svg width="952pt" height="372pt"
 viewBox="0.00 0.00 952.00 372.00" xmlns="http://www.w3.org/2000/svg" xmlns:xlink="http://www.w3.org/1999/xlink">
<g id="graph0" class="graph" transform="scale(1 1) rotate(0) translate(4 368)">
<title>SetVerbLevel</title>
<!-- Node1 -->
<g id="node1" class="node"><title>Node1</title>
<polygon fill="#bfbfbf" stroke="black" points="0.5,-226.5 0.5,-245.5 75.5,-245.5 75.5,-226.5 0.5,-226.5"/>
<text text-anchor="middle" x="38" y="-233.5" font-family="Helvetica,sans-Serif" font-size="10.00">SetVerbLevel</text>
</g>
<!-- Node2 -->
<g id="node2" class="node"><title>Node2</title>
<g id="a_node2"><a xlink:href="classElmerFoamFSI_1_1SerialDriverProgram_a5803949d99491a7186bf1ee9cee81a3b.html#a5803949d99491a7186bf1ee9cee81a3b" target="_top" xlink:title="This function implements the main function executed by the program. ">
<polygon fill="none" stroke="black" points="124,-334 124,-364 264,-364 264,-334 124,-334"/>
<text text-anchor="start" x="132" y="-352" font-family="Helvetica,sans-Serif" font-size="10.00">ElmerFoamFSI::SerialDriver</text>
<text text-anchor="middle" x="194" y="-341" font-family="Helvetica,sans-Serif" font-size="10.00">Program::DriverRun</text>
</a>
</g>
</g>
<!-- Node1&#45;&gt;Node2 -->
<g id="edge1" class="edge"><title>Node1&#45;&gt;Node2</title>
<path fill="none" stroke="midnightblue" d="M51.6645,-254.021C64.9518,-271.812 87.3104,-298.781 112,-316 122.213,-323.123 134.194,-329.068 145.762,-333.86"/>
<polygon fill="midnightblue" stroke="midnightblue" points="54.2916,-251.683 45.5786,-245.655 48.6308,-255.801 54.2916,-251.683"/>
</g>
<!-- Node4 -->
<g id="node4" class="node"><title>Node4</title>
<g id="a_node4"><a xlink:href="classElmerFoamFSI_1_1TestingObject_aa7d577bcec96bb12da930ede076b6023.html#aa7d577bcec96bb12da930ede076b6023" target="_top" xlink:title="Test for fluidAgent&#45;&gt;Run() function. ">
<polygon fill="none" stroke="black" points="330.5,-147 330.5,-177 479.5,-177 479.5,-147 330.5,-147"/>
<text text-anchor="start" x="338.5" y="-165" font-family="Helvetica,sans-Serif" font-size="10.00">ElmerFoamFSI::TestingObject</text>
<text text-anchor="middle" x="405" y="-154" font-family="Helvetica,sans-Serif" font-size="10.00">::Test__FluidAgentRun</text>
</a>
</g>
</g>
<!-- Node1&#45;&gt;Node4 -->
<g id="edge3" class="edge"><title>Node1&#45;&gt;Node4</title>
<path fill="none" stroke="midnightblue" d="M81.3081,-223.757C91.3293,-221.039 102.009,-218.288 112,-216 185.872,-199.082 271.187,-183.788 330.446,-173.831"/>
<polygon fill="midnightblue" stroke="midnightblue" points="80.2658,-220.414 71.5564,-226.447 82.1271,-227.162 80.2658,-220.414"/>
</g>
<!-- Node10 -->
<g id="node10" class="node"><title>Node10</title>
<g id="a_node10"><a xlink:href="classElmerFoamFSI_1_1TestingObject_a4447b305a9896c53dbfb1c57b3854e2b.html#a4447b305a9896c53dbfb1c57b3854e2b" target="_top" xlink:title="Initalize function for the fsiCoupler and agents. ">
<polygon fill="none" stroke="black" points="112,-73 112,-103 276,-103 276,-73 112,-73"/>
<text text-anchor="start" x="120" y="-91" font-family="Helvetica,sans-Serif" font-size="10.00">ElmerFoamFSI::TestingObject</text>
<text text-anchor="middle" x="194" y="-80" font-family="Helvetica,sans-Serif" font-size="10.00">::Test__fsiCouplerAgentsInitialize</text>
</a>
</g>
</g>
<!-- Node1&#45;&gt;Node10 -->
<g id="edge10" class="edge"><title>Node1&#45;&gt;Node10</title>
<path fill="none" stroke="midnightblue" d="M53.8372,-218.431C68.1595,-201.795 90.7424,-176.397 112,-156 132.005,-136.804 156.592,-116.595 173.395,-103.247"/>
<polygon fill="midnightblue" stroke="midnightblue" points="50.9845,-216.382 47.1513,-226.259 56.3073,-220.928 50.9845,-216.382"/>
</g>
<!-- Node14 -->
<g id="node14" class="node"><title>Node14</title>
<g id="a_node14"><a xlink:href="classElmerFoamFSI_1_1TestingObject_a1fae1ccecf337df1572d5a43cdae1a08.html#a1fae1ccecf337df1572d5a43cdae1a08" target="_top" xlink:title="Test for solidAgent&#45;&gt;Run() function. ">
<polygon fill="none" stroke="black" points="330.5,-294 330.5,-324 479.5,-324 479.5,-294 330.5,-294"/>
<text text-anchor="start" x="338.5" y="-312" font-family="Helvetica,sans-Serif" font-size="10.00">ElmerFoamFSI::TestingObject</text>
<text text-anchor="middle" x="405" y="-301" font-family="Helvetica,sans-Serif" font-size="10.00">::Test__SolidAgentRun</text>
</a>
</g>
</g>
<!-- Node1&#45;&gt;Node14 -->
<g id="edge20" class="edge"><title>Node1&#45;&gt;Node14</title>
<path fill="none" stroke="midnightblue" d="M73.3867,-249.098C85.4644,-253.344 99.2115,-257.783 112,-261 185.364,-279.455 270.939,-292.56 330.405,-300.364"/>
<polygon fill="midnightblue" stroke="midnightblue" points="74.2862,-245.702 63.6918,-245.607 71.9151,-252.288 74.2862,-245.702"/>
</g>
<!-- Node15 -->
<g id="node15" class="node"><title>Node15</title>
<g id="a_node15"><a xlink:href="classElmerFoamFSI_1_1TestingObject_abb3c0f68a2d2e212fa6e05e4628c78f0.html#abb3c0f68a2d2e212fa6e05e4628c78f0" target="_top" xlink:title="Test for fsiCoupling::TrasferDisplacementsToFluid function. ">
<polygon fill="none" stroke="black" points="312,-245 312,-275 498,-275 498,-245 312,-245"/>
<text text-anchor="start" x="320" y="-263" font-family="Helvetica,sans-Serif" font-size="10.00">ElmerFoamFSI::TestingObject</text>
<text text-anchor="middle" x="405" y="-252" font-family="Helvetica,sans-Serif" font-size="10.00">::Test__TransferDisplacementsToFluid</text>
</a>
</g>
</g>
<!-- Node1&#45;&gt;Node15 -->
<g id="edge23" class="edge"><title>Node1&#45;&gt;Node15</title>
<path fill="none" stroke="midnightblue" d="M85.7982,-239.077C142.644,-242.815 239.862,-249.207 311.918,-253.945"/>
<polygon fill="midnightblue" stroke="midnightblue" points="85.8769,-235.575 75.6688,-238.411 85.4176,-242.56 85.8769,-235.575"/>
</g>
<!-- Node16 -->
<g id="node16" class="node"><title>Node16</title>
<g id="a_node16"><a xlink:href="classElmerFoamFSI_1_1TestingObject_a8c738943eca358248eb583bd29c5c332.html#a8c738943eca358248eb583bd29c5c332" target="_top" xlink:title="Test for TransferLoadsToStructures() function. ">
<polygon fill="none" stroke="black" points="319.5,-196 319.5,-226 490.5,-226 490.5,-196 319.5,-196"/>
<text text-anchor="start" x="327.5" y="-214" font-family="Helvetica,sans-Serif" font-size="10.00">ElmerFoamFSI::TestingObject</text>
<text text-anchor="middle" x="405" y="-203" font-family="Helvetica,sans-Serif" font-size="10.00">::Test__TransferLoadsToStructures</text>
</a>
</g>
</g>
<!-- Node1&#45;&gt;Node16 -->
<g id="edge26" class="edge"><title>Node1&#45;&gt;Node16</title>
<path fill="none" stroke="midnightblue" d="M85.783,-232.796C144.62,-228.766 246.722,-221.772 319.401,-216.794"/>
<polygon fill="midnightblue" stroke="midnightblue" points="85.4062,-229.313 75.6688,-233.488 85.8846,-236.297 85.4062,-229.313"/>
</g>
<!-- Node3 -->
<g id="node3" class="node"><title>Node3</title>
<g id="a_node3"><a xlink:href="namespaceElmerFoamFSI_aff46f457934a8e2d3712bdbfb1688e99.html#aff46f457934a8e2d3712bdbfb1688e99" target="_top" xlink:title="Unified driver for the example programs. ">
<polygon fill="none" stroke="black" points="347.5,-343.5 347.5,-362.5 462.5,-362.5 462.5,-343.5 347.5,-343.5"/>
<text text-anchor="middle" x="405" y="-350.5" font-family="Helvetica,sans-Serif" font-size="10.00">ElmerFoamFSI::Driver</text>
</a>
</g>
</g>
<!-- Node2&#45;&gt;Node3 -->
<g id="edge2" class="edge"><title>Node2&#45;&gt;Node3</title>
<path fill="none" stroke="midnightblue" d="M274.286,-350.517C298.571,-350.982 324.788,-351.484 347.253,-351.914"/>
<polygon fill="midnightblue" stroke="midnightblue" points="274.079,-347.013 264.014,-350.321 273.945,-354.012 274.079,-347.013"/>
</g>
<!-- Node5 -->
<g id="node5" class="node"><title>Node5</title>
<g id="a_node5"><a xlink:href="classElmerFoamFSI_1_1TestingObject_a046f7ab06db0acf616b0d2bf3d3146aa.html#a046f7ab06db0acf616b0d2bf3d3146aa" target="_top" xlink:title="Runs all tests implemented by the ElmerFoamFSI::TestingObject. ">
<polygon fill="none" stroke="black" points="534.5,-171 534.5,-201 683.5,-201 683.5,-171 534.5,-171"/>
<text text-anchor="start" x="542.5" y="-189" font-family="Helvetica,sans-Serif" font-size="10.00">ElmerFoamFSI::TestingObject</text>
<text text-anchor="middle" x="609" y="-178" font-family="Helvetica,sans-Serif" font-size="10.00">::Process</text>
</a>
</g>
</g>
<!-- Node4&#45;&gt;Node5 -->
<g id="edge4" class="edge"><title>Node4&#45;&gt;Node5</title>
<path fill="none" stroke="midnightblue" d="M489.913,-171.97C504.683,-173.725 519.955,-175.539 534.416,-177.257"/>
<polygon fill="midnightblue" stroke="midnightblue" points="490.127,-168.471 479.784,-170.766 489.301,-175.422 490.127,-168.471"/>
</g>
<!-- Node8 -->
<g id="node8" class="node"><title>Node8</title>
<g id="a_node8"><a xlink:href="classElmerFoamFSI_1_1TestingObject_af1f07f14b9af7708e4264bb38937eed2.html#af1f07f14b9af7708e4264bb38937eed2" target="_top" xlink:title="Runs a test specified by name. ">
<polygon fill="none" stroke="black" points="534.5,-122 534.5,-152 683.5,-152 683.5,-122 534.5,-122"/>
<text text-anchor="start" x="542.5" y="-140" font-family="Helvetica,sans-Serif" font-size="10.00">ElmerFoamFSI::TestingObject</text>
<text text-anchor="middle" x="609" y="-129" font-family="Helvetica,sans-Serif" font-size="10.00">::RunTest</text>
</a>
</g>
</g>
<!-- Node4&#45;&gt;Node8 -->
<g id="edge7" class="edge"><title>Node4&#45;&gt;Node8</title>
<path fill="none" stroke="midnightblue" d="M489.913,-151.615C504.683,-149.787 519.955,-147.897 534.416,-146.107"/>
<polygon fill="midnightblue" stroke="midnightblue" points="489.278,-148.166 479.784,-152.868 490.138,-155.113 489.278,-148.166"/>
</g>
<!-- Node6 -->
<g id="node6" class="node"><title>Node6</title>
<g id="a_node6"><a xlink:href="namespaceElmerFoamFSI_aeb590657609088b8ab12a5cbd164fcfa.html#aeb590657609088b8ab12a5cbd164fcfa" target="_top" xlink:title="Drives the ElmerFoamFSI::TestObject. ">
<polygon fill="none" stroke="black" points="741,-173.5 741,-192.5 849,-192.5 849,-173.5 741,-173.5"/>
<text text-anchor="middle" x="795" y="-180.5" font-family="Helvetica,sans-Serif" font-size="10.00">ElmerFoamFSI::Test</text>
</a>
</g>
</g>
<!-- Node5&#45;&gt;Node6 -->
<g id="edge5" class="edge"><title>Node5&#45;&gt;Node6</title>
<path fill="none" stroke="midnightblue" d="M693.963,-184.631C709.966,-184.37 726.296,-184.104 740.996,-183.864"/>
<polygon fill="midnightblue" stroke="midnightblue" points="693.457,-181.139 683.515,-184.801 693.571,-188.138 693.457,-181.139"/>
</g>
<!-- Node7 -->
<g id="node7" class="node"><title>Node7</title>
<g id="a_node7"><a xlink:href="TestElmerFoamFSI_8C_a0ddf1224851353fc92bfbff6f499fa97.html#a0ddf1224851353fc92bfbff6f499fa97" target="_top" xlink:title="main">
<polygon fill="none" stroke="black" points="906,-173.5 906,-192.5 944,-192.5 944,-173.5 906,-173.5"/>
<text text-anchor="middle" x="925" y="-180.5" font-family="Helvetica,sans-Serif" font-size="10.00">main</text>
</a>
</g>
</g>
<!-- Node6&#45;&gt;Node7 -->
<g id="edge6" class="edge"><title>Node6&#45;&gt;Node7</title>
<path fill="none" stroke="midnightblue" d="M859.193,-183C876.293,-183 893.469,-183 905.838,-183"/>
<polygon fill="midnightblue" stroke="midnightblue" points="859.172,-179.5 849.172,-183 859.171,-186.5 859.172,-179.5"/>
</g>
<!-- Node9 -->
<g id="node9" class="node"><title>Node9</title>
<g id="a_node9"><a xlink:href="classElmerFoamFSI_1_1TestingObject_a21159bd2efac623e5a5079f6a20f3444.html#a21159bd2efac623e5a5079f6a20f3444" target="_top" xlink:title="Runs a list of tests specified by name. ">
<polygon fill="none" stroke="black" points="720.5,-122 720.5,-152 869.5,-152 869.5,-122 720.5,-122"/>
<text text-anchor="start" x="728.5" y="-140" font-family="Helvetica,sans-Serif" font-size="10.00">ElmerFoamFSI::TestingObject</text>
<text text-anchor="middle" x="795" y="-129" font-family="Helvetica,sans-Serif" font-size="10.00">::ProcessTests</text>
</a>
</g>
</g>
<!-- Node8&#45;&gt;Node9 -->
<g id="edge8" class="edge"><title>Node8&#45;&gt;Node9</title>
<path fill="none" stroke="midnightblue" d="M693.533,-137C702.462,-137 711.498,-137 720.302,-137"/>
<polygon fill="midnightblue" stroke="midnightblue" points="693.515,-133.5 683.515,-137 693.515,-140.5 693.515,-133.5"/>
</g>
<!-- Node8&#45;&gt;Node6 -->
<g id="edge9" class="edge"><title>Node8&#45;&gt;Node6</title>
<path fill="none" stroke="midnightblue" d="M679.986,-154.497C705.754,-160.939 733.97,-167.992 755.886,-173.471"/>
<polygon fill="midnightblue" stroke="midnightblue" points="680.799,-151.092 670.248,-152.062 679.101,-157.883 680.799,-151.092"/>
</g>
<!-- Node11 -->
<g id="node11" class="node"><title>Node11</title>
<g id="a_node11"><a xlink:href="classElmerFoamFSI_1_1TestingObject_a07ff57097065c5066a4421176b63242b.html#a07ff57097065c5066a4421176b63242b" target="_top" xlink:title="Test the functionality of the fsiCoupler. ">
<polygon fill="none" stroke="black" points="330.5,-98 330.5,-128 479.5,-128 479.5,-98 330.5,-98"/>
<text text-anchor="start" x="338.5" y="-116" font-family="Helvetica,sans-Serif" font-size="10.00">ElmerFoamFSI::TestingObject</text>
<text text-anchor="middle" x="405" y="-105" font-family="Helvetica,sans-Serif" font-size="10.00">::Test__FsiCoupler</text>
</a>
</g>
</g>
<!-- Node10&#45;&gt;Node11 -->
<g id="edge11" class="edge"><title>Node10&#45;&gt;Node11</title>
<path fill="none" stroke="midnightblue" d="M286.26,-98.9162C301.033,-100.683 316.166,-102.493 330.45,-104.202"/>
<polygon fill="midnightblue" stroke="midnightblue" points="286.449,-95.414 276.104,-97.7014 285.617,-102.364 286.449,-95.414"/>
</g>
<!-- Node12 -->
<g id="node12" class="node"><title>Node12</title>
<g id="a_node12"><a xlink:href="classElmerFoamFSI_1_1TestingObject_af35b4f0c5c244be91e637c17b3ebabd9.html#af35b4f0c5c244be91e637c17b3ebabd9" target="_top" xlink:title="Run an initialization check to make sure that the ElmerStructures are running as they should...">
<polygon fill="none" stroke="black" points="330.5,-49 330.5,-79 479.5,-79 479.5,-49 330.5,-49"/>
<text text-anchor="start" x="338.5" y="-67" font-family="Helvetica,sans-Serif" font-size="10.00">ElmerFoamFSI::TestingObject</text>
<text text-anchor="middle" x="405" y="-56" font-family="Helvetica,sans-Serif" font-size="10.00">::Test__ElmerStructures</text>
</a>
</g>
</g>
<!-- Node10&#45;&gt;Node12 -->
<g id="edge14" class="edge"><title>Node10&#45;&gt;Node12</title>
<path fill="none" stroke="midnightblue" d="M286.26,-77.5204C301.033,-75.8239 316.166,-74.0862 330.45,-72.4459"/>
<polygon fill="midnightblue" stroke="midnightblue" points="285.639,-74.0686 276.104,-78.6866 286.438,-81.0229 285.639,-74.0686"/>
</g>
<!-- Node13 -->
<g id="node13" class="node"><title>Node13</title>
<g id="a_node13"><a xlink:href="classElmerFoamFSI_1_1TestingObject_a08d0370a943e7c47c0098eb76664a71b.html#a08d0370a943e7c47c0098eb76664a71b" target="_top" xlink:title="Run an initialization check to make sure the OpenFoamFluids are running as they should. ">
<polygon fill="none" stroke="black" points="330.5,-0 330.5,-30 479.5,-30 479.5,-0 330.5,-0"/>
<text text-anchor="start" x="338.5" y="-18" font-family="Helvetica,sans-Serif" font-size="10.00">ElmerFoamFSI::TestingObject</text>
<text text-anchor="middle" x="405" y="-7" font-family="Helvetica,sans-Serif" font-size="10.00">::Test__OpenFoamFluids</text>
</a>
</g>
</g>
<!-- Node10&#45;&gt;Node13 -->
<g id="edge17" class="edge"><title>Node10&#45;&gt;Node13</title>
<path fill="none" stroke="midnightblue" d="M236.952,-68.7335C259.002,-59.0421 286.648,-47.5676 312,-39 321.383,-35.8291 331.421,-32.8263 341.292,-30.0868"/>
<polygon fill="midnightblue" stroke="midnightblue" points="235.276,-65.6478 227.556,-72.9035 238.116,-72.0459 235.276,-65.6478"/>
</g>
<!-- Node11&#45;&gt;Node5 -->
<g id="edge12" class="edge"><title>Node11&#45;&gt;Node5</title>
<path fill="none" stroke="midnightblue" d="M483.716,-131.269C488.611,-133.034 493.411,-134.942 498,-137 515.546,-144.869 516.743,-152.516 534,-161 541.423,-164.649 549.511,-167.979 557.524,-170.934"/>
<polygon fill="midnightblue" stroke="midnightblue" points="484.808,-127.944 474.213,-128.05 482.562,-134.574 484.808,-127.944"/>
</g>
<!-- Node11&#45;&gt;Node8 -->
<g id="edge13" class="edge"><title>Node11&#45;&gt;Node8</title>
<path fill="none" stroke="midnightblue" d="M489.913,-122.97C504.683,-124.725 519.955,-126.539 534.416,-128.257"/>
<polygon fill="midnightblue" stroke="midnightblue" points="490.127,-119.471 479.784,-121.766 489.301,-126.422 490.127,-119.471"/>
</g>
<!-- Node12&#45;&gt;Node5 -->
<g id="edge15" class="edge"><title>Node12&#45;&gt;Node5</title>
<path fill="none" stroke="midnightblue" d="M488.66,-81.532C491.944,-83.4691 495.077,-85.6175 498,-88 526.04,-110.857 506.785,-137.168 534,-161 538.387,-164.841 543.388,-168.098 548.673,-170.857"/>
<polygon fill="midnightblue" stroke="midnightblue" points="490.15,-78.3624 479.659,-76.8822 486.937,-84.5816 490.15,-78.3624"/>
</g>
<!-- Node12&#45;&gt;Node8 -->
<g id="edge16" class="edge"><title>Node12&#45;&gt;Node8</title>
<path fill="none" stroke="midnightblue" d="M479.288,-81.9503C485.657,-83.8624 491.969,-85.8859 498,-88 525.621,-97.6814 555.93,-111.428 577.725,-121.899"/>
<polygon fill="midnightblue" stroke="midnightblue" points="479.844,-78.4672 469.265,-79.0403 477.892,-85.1896 479.844,-78.4672"/>
</g>
<!-- Node13&#45;&gt;Node5 -->
<g id="edge18" class="edge"><title>Node13&#45;&gt;Node5</title>
<path fill="none" stroke="midnightblue" d="M488.462,-31.4498C491.875,-33.6687 495.082,-36.1736 498,-39 538.605,-78.3356 494.809,-120.256 534,-161 537.76,-164.909 542.152,-168.207 546.886,-170.99"/>
<polygon fill="midnightblue" stroke="midnightblue" points="490.036,-28.3202 479.598,-26.5028 486.624,-34.4326 490.036,-28.3202"/>
</g>
<!-- Node13&#45;&gt;Node8 -->
<g id="edge19" class="edge"><title>Node13&#45;&gt;Node8</title>
<path fill="none" stroke="midnightblue" d="M487.091,-33.7878C490.842,-35.3914 494.498,-37.1255 498,-39 538.589,-60.7268 576.482,-100.35 595.404,-121.961"/>
<polygon fill="midnightblue" stroke="midnightblue" points="488.194,-30.461 477.607,-30.0649 485.637,-36.9769 488.194,-30.461"/>
</g>
<!-- Node14&#45;&gt;Node5 -->
<g id="edge21" class="edge"><title>Node14&#45;&gt;Node5</title>
<path fill="none" stroke="midnightblue" d="M484.727,-290.302C489.306,-288.39 493.766,-286.294 498,-284 538.253,-262.189 575.995,-222.967 595.057,-201.345"/>
<polygon fill="midnightblue" stroke="midnightblue" points="483.265,-287.114 475.192,-293.976 485.782,-293.646 483.265,-287.114"/>
</g>
<!-- Node14&#45;&gt;Node8 -->
<g id="edge22" class="edge"><title>Node14&#45;&gt;Node8</title>
<path fill="none" stroke="midnightblue" d="M488.486,-291.639C491.893,-289.387 495.092,-286.852 498,-284 538.666,-244.116 494.309,-201.854 534,-161 537.294,-157.61 541.07,-154.697 545.136,-152.196"/>
<polygon fill="midnightblue" stroke="midnightblue" points="486.595,-288.688 479.634,-296.675 490.057,-294.772 486.595,-288.688"/>
</g>
<!-- Node15&#45;&gt;Node5 -->
<g id="edge24" class="edge"><title>Node15&#45;&gt;Node5</title>
<path fill="none" stroke="midnightblue" d="M476.667,-241.989C483.92,-239.786 491.14,-237.444 498,-235 525.572,-225.179 555.885,-211.445 577.695,-201.015"/>
<polygon fill="midnightblue" stroke="midnightblue" points="475.387,-238.718 466.786,-244.905 477.368,-245.432 475.387,-238.718"/>
</g>
<!-- Node15&#45;&gt;Node8 -->
<g id="edge25" class="edge"><title>Node15&#45;&gt;Node8</title>
<path fill="none" stroke="midnightblue" d="M491.511,-239.786C493.766,-238.302 495.936,-236.709 498,-235 526.169,-211.672 506.403,-185.001 534,-161 537.975,-157.543 542.455,-154.583 547.196,-152.048"/>
<polygon fill="midnightblue" stroke="midnightblue" points="489.368,-236.98 482.435,-244.991 492.851,-243.052 489.368,-236.98"/>
</g>
<!-- Node16&#45;&gt;Node5 -->
<g id="edge27" class="edge"><title>Node16&#45;&gt;Node5</title>
<path fill="none" stroke="midnightblue" d="M501.02,-199.24C512.209,-197.855 523.496,-196.458 534.329,-195.118"/>
<polygon fill="midnightblue" stroke="midnightblue" points="500.283,-195.805 490.788,-200.506 501.142,-202.752 500.283,-195.805"/>
</g>
<!-- Node16&#45;&gt;Node8 -->
<g id="edge28" class="edge"><title>Node16&#45;&gt;Node8</title>
<path fill="none" stroke="midnightblue" d="M482.176,-192.525C487.61,-190.532 492.937,-188.36 498,-186 515.656,-177.771 516.548,-169.653 534,-161 540.655,-157.7 547.866,-154.71 555.087,-152.05"/>
<polygon fill="midnightblue" stroke="midnightblue" points="480.631,-189.356 472.315,-195.921 482.91,-195.974 480.631,-189.356"/>
</g>
</g>
</svg>
