<?xml version="1.0" encoding="UTF-8" standalone="no"?>
<!DOCTYPE svg PUBLIC "-//W3C//DTD SVG 1.1//EN"
 "http://www.w3.org/Graphics/SVG/1.1/DTD/svg11.dtd">
<!-- Generated by graphviz version 2.30.1 (20150305.2338)
 -->
<!-- Title: Prologue Pages: 1 -->
<svg width="372pt" height="94pt"
 viewBox="0.00 0.00 372.00 94.00" xmlns="http://www.w3.org/2000/svg" xmlns:xlink="http://www.w3.org/1999/xlink">
<g id="graph0" class="graph" transform="scale(1 1) rotate(0) translate(4 90)">
<title>Prologue</title>
<!-- Node1 -->
<g id="node1" class="node"><title>Node1</title>
<polygon fill="#bfbfbf" stroke="black" points="0.5,-28.5 0.5,-47.5 55.5,-47.5 55.5,-28.5 0.5,-28.5"/>
<text text-anchor="middle" x="28" y="-35.5" font-family="Helvetica,sans-Serif" font-size="10.00">Prologue</text>
</g>
<!-- Node2 -->
<g id="node2" class="node"><title>Node2</title>
<g id="a_node2"><a xlink:href="classElmerFoamFSI_1_1TestingObject_a046f7ab06db0acf616b0d2bf3d3146aa.html#a046f7ab06db0acf616b0d2bf3d3146aa" target="_top" xlink:title="Runs all tests implemented by the ElmerFoamFSI::TestingObject. ">
<polygon fill="none" stroke="black" points="92.5,-66.5 92.5,-85.5 145.5,-85.5 145.5,-66.5 92.5,-66.5"/>
<text text-anchor="middle" x="119" y="-73.5" font-family="Helvetica,sans-Serif" font-size="10.00">Process</text>
</a>
</g>
</g>
<!-- Node1&#45;&gt;Node2 -->
<g id="edge1" class="edge"><title>Node1&#45;&gt;Node2</title>
<path fill="none" stroke="midnightblue" d="M60.7558,-51.5587C72.2619,-56.4714 85.0093,-61.9141 95.5487,-66.4141"/>
<polygon fill="midnightblue" stroke="midnightblue" points="62.0296,-48.2969 51.4585,-47.589 59.2809,-54.7347 62.0296,-48.2969"/>
</g>
<!-- Node5 -->
<g id="node5" class="node"><title>Node5</title>
<g id="a_node5"><a xlink:href="classElmerFoamFSI_1_1TestingObject_a21159bd2efac623e5a5079f6a20f3444.html#a21159bd2efac623e5a5079f6a20f3444" target="_top" xlink:title="Runs a list of tests specified by name. ">
<polygon fill="none" stroke="black" points="197.5,-0.5 197.5,-19.5 274.5,-19.5 274.5,-0.5 197.5,-0.5"/>
<text text-anchor="middle" x="236" y="-7.5" font-family="Helvetica,sans-Serif" font-size="10.00">ProcessTests</text>
</a>
</g>
</g>
<!-- Node1&#45;&gt;Node5 -->
<g id="edge4" class="edge"><title>Node1&#45;&gt;Node5</title>
<path fill="none" stroke="midnightblue" d="M65.4231,-25.4669C74.0446,-22.9336 83.272,-20.5692 92,-19 127.378,-12.6396 168.378,-10.5921 197.382,-10.015"/>
<polygon fill="midnightblue" stroke="midnightblue" points="64.1719,-22.1899 55.6468,-28.4806 66.2341,-28.8793 64.1719,-22.1899"/>
</g>
<!-- Node6 -->
<g id="node6" class="node"><title>Node6</title>
<g id="a_node6"><a xlink:href="classElmerFoamFSI_1_1TestingObject_af1f07f14b9af7708e4264bb38937eed2.html#af1f07f14b9af7708e4264bb38937eed2" target="_top" xlink:title="Runs a test specified by name. ">
<polygon fill="none" stroke="black" points="92,-28.5 92,-47.5 146,-47.5 146,-28.5 92,-28.5"/>
<text text-anchor="middle" x="119" y="-35.5" font-family="Helvetica,sans-Serif" font-size="10.00">RunTest</text>
</a>
</g>
</g>
<!-- Node1&#45;&gt;Node6 -->
<g id="edge5" class="edge"><title>Node1&#45;&gt;Node6</title>
<path fill="none" stroke="midnightblue" d="M65.7427,-38C74.531,-38 83.7357,-38 91.9284,-38"/>
<polygon fill="midnightblue" stroke="midnightblue" points="65.703,-34.5001 55.7029,-38 65.7029,-41.5001 65.703,-34.5001"/>
</g>
<!-- Node3 -->
<g id="node3" class="node"><title>Node3</title>
<g id="a_node3"><a xlink:href="namespaceElmerFoamFSI_aeb590657609088b8ab12a5cbd164fcfa.html#aeb590657609088b8ab12a5cbd164fcfa" target="_top" xlink:title="Drives the ElmerFoamFSI::TestObject. ">
<polygon fill="none" stroke="black" points="182,-47.5 182,-66.5 290,-66.5 290,-47.5 182,-47.5"/>
<text text-anchor="middle" x="236" y="-54.5" font-family="Helvetica,sans-Serif" font-size="10.00">ElmerFoamFSI::Test</text>
</a>
</g>
</g>
<!-- Node2&#45;&gt;Node3 -->
<g id="edge2" class="edge"><title>Node2&#45;&gt;Node3</title>
<path fill="none" stroke="midnightblue" d="M155.58,-70.1215C163.874,-68.7513 172.882,-67.2629 181.755,-65.7969"/>
<polygon fill="midnightblue" stroke="midnightblue" points="154.818,-66.6999 145.522,-71.7833 155.959,-73.6063 154.818,-66.6999"/>
</g>
<!-- Node4 -->
<g id="node4" class="node"><title>Node4</title>
<g id="a_node4"><a xlink:href="TestElmerFoamFSI_8C_a0ddf1224851353fc92bfbff6f499fa97.html#a0ddf1224851353fc92bfbff6f499fa97" target="_top" xlink:title="main">
<polygon fill="none" stroke="black" points="326,-47.5 326,-66.5 364,-66.5 364,-47.5 326,-47.5"/>
<text text-anchor="middle" x="345" y="-54.5" font-family="Helvetica,sans-Serif" font-size="10.00">main</text>
</a>
</g>
</g>
<!-- Node3&#45;&gt;Node4 -->
<g id="edge3" class="edge"><title>Node3&#45;&gt;Node4</title>
<path fill="none" stroke="midnightblue" d="M300.335,-57C309.591,-57 318.44,-57 325.722,-57"/>
<polygon fill="midnightblue" stroke="midnightblue" points="300.187,-53.5001 290.187,-57 300.186,-60.5001 300.187,-53.5001"/>
</g>
<!-- Node6&#45;&gt;Node5 -->
<g id="edge6" class="edge"><title>Node6&#45;&gt;Node5</title>
<path fill="none" stroke="midnightblue" d="M156.151,-29.1981C169.227,-26.0144 184.019,-22.4128 197.23,-19.1961"/>
<polygon fill="midnightblue" stroke="midnightblue" points="154.983,-25.88 146.095,-31.6464 156.639,-32.6813 154.983,-25.88"/>
</g>
<!-- Node6&#45;&gt;Node3 -->
<g id="edge7" class="edge"><title>Node6&#45;&gt;Node3</title>
<path fill="none" stroke="midnightblue" d="M156.021,-43.9514C164.191,-45.3011 173.036,-46.7625 181.75,-48.2022"/>
<polygon fill="midnightblue" stroke="midnightblue" points="156.532,-40.4884 146.095,-42.3114 155.391,-47.3947 156.532,-40.4884"/>
</g>
</g>
</svg>
