<?xml version="1.0" encoding="UTF-8" standalone="no"?>
<!DOCTYPE svg PUBLIC "-//W3C//DTD SVG 1.1//EN"
 "http://www.w3.org/Graphics/SVG/1.1/DTD/svg11.dtd">
<!-- Generated by graphviz version 2.30.1 (20150305.2338)
 -->
<!-- Title: operator&#45; Pages: 1 -->
<svg width="168pt" height="104pt"
 viewBox="0.00 0.00 168.00 104.00" xmlns="http://www.w3.org/2000/svg" xmlns:xlink="http://www.w3.org/1999/xlink">
<g id="graph0" class="graph" transform="scale(1 1) rotate(0) translate(4 100)">
<title>operator&#45;</title>
<!-- Node1 -->
<g id="node1" class="node"><title>Node1</title>
<polygon fill="#bfbfbf" stroke="black" points="0.5,-38.5 0.5,-57.5 55.5,-57.5 55.5,-38.5 0.5,-38.5"/>
<text text-anchor="middle" x="28" y="-45.5" font-family="Helvetica,sans-Serif" font-size="10.00">operator&#45;</text>
</g>
<!-- Node2 -->
<g id="node2" class="node"><title>Node2</title>
<g id="a_node2"><a xlink:href="classVector__3_a042a7f83fef9d5d115d1f53beecacd2c.html#a042a7f83fef9d5d115d1f53beecacd2c" target="_top" xlink:title="Vector_3::x">
<polygon fill="none" stroke="black" points="92.5,-76.5 92.5,-95.5 159.5,-95.5 159.5,-76.5 92.5,-76.5"/>
<text text-anchor="middle" x="126" y="-83.5" font-family="Helvetica,sans-Serif" font-size="10.00">Vector_3::x</text>
</a>
</g>
</g>
<!-- Node1&#45;&gt;Node2 -->
<g id="edge1" class="edge"><title>Node1&#45;&gt;Node2</title>
<path fill="none" stroke="midnightblue" d="M53.2249,-57.589C64.708,-62.1344 78.6198,-67.6412 91.1269,-72.5919"/>
<polygon fill="midnightblue" stroke="midnightblue" points="90.1966,-75.9878 100.783,-76.4141 92.773,-69.4792 90.1966,-75.9878"/>
</g>
<!-- Node3 -->
<g id="node3" class="node"><title>Node3</title>
<g id="a_node3"><a xlink:href="classVector__3_a0b50bd5bcd25dd6ac4139c7abf656e85.html#a0b50bd5bcd25dd6ac4139c7abf656e85" target="_top" xlink:title="Vector_3::y">
<polygon fill="none" stroke="black" points="92.5,-38.5 92.5,-57.5 159.5,-57.5 159.5,-38.5 92.5,-38.5"/>
<text text-anchor="middle" x="126" y="-45.5" font-family="Helvetica,sans-Serif" font-size="10.00">Vector_3::y</text>
</a>
</g>
</g>
<!-- Node1&#45;&gt;Node3 -->
<g id="edge2" class="edge"><title>Node1&#45;&gt;Node3</title>
<path fill="none" stroke="midnightblue" d="M55.7414,-48C63.9645,-48 73.2308,-48 82.2471,-48"/>
<polygon fill="midnightblue" stroke="midnightblue" points="82.2517,-51.5001 92.2517,-48 82.2517,-44.5001 82.2517,-51.5001"/>
</g>
<!-- Node4 -->
<g id="node4" class="node"><title>Node4</title>
<g id="a_node4"><a xlink:href="classVector__3_ae098ae990ee5ff007f41f62d8ff13764.html#ae098ae990ee5ff007f41f62d8ff13764" target="_top" xlink:title="Vector_3::z">
<polygon fill="none" stroke="black" points="92.5,-0.5 92.5,-19.5 159.5,-19.5 159.5,-0.5 92.5,-0.5"/>
<text text-anchor="middle" x="126" y="-7.5" font-family="Helvetica,sans-Serif" font-size="10.00">Vector_3::z</text>
</a>
</g>
</g>
<!-- Node1&#45;&gt;Node4 -->
<g id="edge3" class="edge"><title>Node1&#45;&gt;Node4</title>
<path fill="none" stroke="midnightblue" d="M53.2249,-38.411C64.708,-33.8656 78.6198,-28.3588 91.1269,-23.4081"/>
<polygon fill="midnightblue" stroke="midnightblue" points="92.773,-26.5208 100.783,-19.5859 90.1966,-20.0122 92.773,-26.5208"/>
</g>
</g>
</svg>
