<?xml version="1.0" encoding="UTF-8" standalone="no"?>
<!DOCTYPE svg PUBLIC "-//W3C//DTD SVG 1.1//EN"
 "http://www.w3.org/Graphics/SVG/1.1/DTD/svg11.dtd">
<!-- Generated by graphviz version 2.30.1 (20150305.2338)
 -->
<!-- Title: ShrinkWrap Pages: 1 -->
<svg width="1638pt" height="381pt"
 viewBox="0.00 0.00 1638.00 381.00" xmlns="http://www.w3.org/2000/svg" xmlns:xlink="http://www.w3.org/1999/xlink">
<g id="graph0" class="graph" transform="scale(1 1) rotate(0) translate(4 377)">
<title>ShrinkWrap</title>
<!-- Node1 -->
<g id="node1" class="node"><title>Node1</title>
<polygon fill="#bfbfbf" stroke="black" points="0,-138.5 0,-157.5 68,-157.5 68,-138.5 0,-138.5"/>
<text text-anchor="middle" x="34" y="-145.5" font-family="Helvetica,sans-Serif" font-size="10.00">ShrinkWrap</text>
</g>
<!-- Node2 -->
<g id="node2" class="node"><title>Node2</title>
<g id="a_node2"><a xlink:href="namespaceSolverUtils_afc852871326d1c395adc4d153e45a075.html#afc852871326d1c395adc4d153e45a075" target="_top" xlink:title="SolverUtils::PaneToUnstructuredMesh">
<polygon fill="none" stroke="black" points="104.5,-138.5 104.5,-157.5 289.5,-157.5 289.5,-138.5 104.5,-138.5"/>
<text text-anchor="middle" x="197" y="-145.5" font-family="Helvetica,sans-Serif" font-size="10.00">SolverUtils::PaneToUnstructuredMesh</text>
</a>
</g>
</g>
<!-- Node1&#45;&gt;Node2 -->
<g id="edge1" class="edge"><title>Node1&#45;&gt;Node2</title>
<path fill="none" stroke="midnightblue" d="M78.5643,-148C86.6325,-148 95.3328,-148 104.22,-148"/>
<polygon fill="midnightblue" stroke="midnightblue" points="78.3593,-144.5 68.3593,-148 78.3593,-151.5 78.3593,-144.5"/>
</g>
<!-- Node3 -->
<g id="node3" class="node"><title>Node3</title>
<g id="a_node3"><a xlink:href="namespaceSolverUtils_aba6560399de412c7861129dc7c4a260e.html#aba6560399de412c7861129dc7c4a260e" target="_top" xlink:title="SolverUtils::PaneToAgent">
<polygon fill="none" stroke="black" points="326,-138.5 326,-157.5 456,-157.5 456,-138.5 326,-138.5"/>
<text text-anchor="middle" x="391" y="-145.5" font-family="Helvetica,sans-Serif" font-size="10.00">SolverUtils::PaneToAgent</text>
</a>
</g>
</g>
<!-- Node2&#45;&gt;Node3 -->
<g id="edge2" class="edge"><title>Node2&#45;&gt;Node3</title>
<path fill="none" stroke="midnightblue" d="M299.569,-148C308.477,-148 317.32,-148 325.791,-148"/>
<polygon fill="midnightblue" stroke="midnightblue" points="299.501,-144.5 289.501,-148 299.501,-151.5 299.501,-144.5"/>
</g>
<!-- Node4 -->
<g id="node4" class="node"><title>Node4</title>
<g id="a_node4"><a xlink:href="namespaceSolverUtils_a9da67f474f0ef835bb9707e6598de2bd.html#a9da67f474f0ef835bb9707e6598de2bd" target="_top" xlink:title="SolverUtils::PopulateSolver\lAgentFromWindow">
<polygon fill="none" stroke="black" points="492.5,-133 492.5,-163 629.5,-163 629.5,-133 492.5,-133"/>
<text text-anchor="start" x="500.5" y="-151" font-family="Helvetica,sans-Serif" font-size="10.00">SolverUtils::PopulateSolver</text>
<text text-anchor="middle" x="561" y="-140" font-family="Helvetica,sans-Serif" font-size="10.00">AgentFromWindow</text>
</a>
</g>
</g>
<!-- Node3&#45;&gt;Node4 -->
<g id="edge3" class="edge"><title>Node3&#45;&gt;Node4</title>
<path fill="none" stroke="midnightblue" d="M466.494,-148C475.103,-148 483.846,-148 492.356,-148"/>
<polygon fill="midnightblue" stroke="midnightblue" points="466.473,-144.5 456.473,-148 466.473,-151.5 466.473,-144.5"/>
</g>
<!-- Node5 -->
<g id="node5" class="node"><title>Node5</title>
<g id="a_node5"><a xlink:href="classopenfoamagent_a9a8261713154978fa009d8cb2c533055.html#a9a8261713154978fa009d8cb2c533055" target="_top" xlink:title="openfoamagent::Initialize">
<polygon fill="none" stroke="black" points="673.5,-157.5 673.5,-176.5 798.5,-176.5 798.5,-157.5 673.5,-157.5"/>
<text text-anchor="middle" x="736" y="-164.5" font-family="Helvetica,sans-Serif" font-size="10.00">openfoamagent::Initialize</text>
</a>
</g>
</g>
<!-- Node4&#45;&gt;Node5 -->
<g id="edge4" class="edge"><title>Node4&#45;&gt;Node5</title>
<path fill="none" stroke="midnightblue" d="M640.024,-156.569C651.154,-157.791 662.472,-159.034 673.233,-160.216"/>
<polygon fill="midnightblue" stroke="midnightblue" points="640.2,-153.067 629.878,-155.455 639.436,-160.026 640.2,-153.067"/>
</g>
<!-- Node20 -->
<g id="node20" class="node"><title>Node20</title>
<g id="a_node20"><a xlink:href="classopenfoamagentpar_a9a8261713154978fa009d8cb2c533055.html#a9a8261713154978fa009d8cb2c533055" target="_top" xlink:title="openfoamagentpar::Initialize">
<polygon fill="none" stroke="black" points="666.5,-119.5 666.5,-138.5 805.5,-138.5 805.5,-119.5 666.5,-119.5"/>
<text text-anchor="middle" x="736" y="-126.5" font-family="Helvetica,sans-Serif" font-size="10.00">openfoamagentpar::Initialize</text>
</a>
</g>
</g>
<!-- Node4&#45;&gt;Node20 -->
<g id="edge30" class="edge"><title>Node4&#45;&gt;Node20</title>
<path fill="none" stroke="midnightblue" d="M639.832,-139.452C648.713,-138.477 657.718,-137.488 666.466,-136.527"/>
<polygon fill="midnightblue" stroke="midnightblue" points="639.436,-135.974 629.878,-140.545 640.2,-142.933 639.436,-135.974"/>
</g>
<!-- Node22 -->
<g id="node22" class="node"><title>Node22</title>
<g id="a_node22"><a xlink:href="classelmeragent_a66d8ac5294227a11adf08cdfa91f59b5.html#a66d8ac5294227a11adf08cdfa91f59b5" target="_top" xlink:title="elmeragent::Initialize">
<polygon fill="none" stroke="black" points="682.5,-195.5 682.5,-214.5 789.5,-214.5 789.5,-195.5 682.5,-195.5"/>
<text text-anchor="middle" x="736" y="-202.5" font-family="Helvetica,sans-Serif" font-size="10.00">elmeragent::Initialize</text>
</a>
</g>
</g>
<!-- Node4&#45;&gt;Node22 -->
<g id="edge32" class="edge"><title>Node4&#45;&gt;Node22</title>
<path fill="none" stroke="midnightblue" d="M610.181,-166.534C627.654,-173.008 647.616,-180.121 666,-186 676.414,-189.33 687.822,-192.616 698.31,-195.495"/>
<polygon fill="midnightblue" stroke="midnightblue" points="611.348,-163.233 600.755,-163.014 608.899,-169.791 611.348,-163.233"/>
</g>
<!-- Node24 -->
<g id="node24" class="node"><title>Node24</title>
<g id="a_node24"><a xlink:href="classelmeragentpar_a66d8ac5294227a11adf08cdfa91f59b5.html#a66d8ac5294227a11adf08cdfa91f59b5" target="_top" xlink:title="elmeragentpar::Initialize">
<polygon fill="none" stroke="black" points="676,-81.5 676,-100.5 796,-100.5 796,-81.5 676,-81.5"/>
<text text-anchor="middle" x="736" y="-88.5" font-family="Helvetica,sans-Serif" font-size="10.00">elmeragentpar::Initialize</text>
</a>
</g>
</g>
<!-- Node4&#45;&gt;Node24 -->
<g id="edge37" class="edge"><title>Node4&#45;&gt;Node24</title>
<path fill="none" stroke="midnightblue" d="M610.181,-129.466C627.654,-122.992 647.616,-115.879 666,-110 676.414,-106.67 687.822,-103.384 698.31,-100.505"/>
<polygon fill="midnightblue" stroke="midnightblue" points="608.899,-126.209 600.755,-132.986 611.348,-132.767 608.899,-126.209"/>
</g>
<!-- Node6 -->
<g id="node6" class="node"><title>Node6</title>
<g id="a_node6"><a xlink:href="classfsicoupling_ae855141f7b214925c25f7797b8b122a8.html#ae855141f7b214925c25f7797b8b122a8" target="_top" xlink:title="fsicoupling::Initialize">
<polygon fill="none" stroke="black" points="849.5,-176.5 849.5,-195.5 954.5,-195.5 954.5,-176.5 849.5,-176.5"/>
<text text-anchor="middle" x="902" y="-183.5" font-family="Helvetica,sans-Serif" font-size="10.00">fsicoupling::Initialize</text>
</a>
</g>
</g>
<!-- Node5&#45;&gt;Node6 -->
<g id="edge5" class="edge"><title>Node5&#45;&gt;Node6</title>
<path fill="none" stroke="midnightblue" d="M808.85,-175.324C822.47,-176.902 836.469,-178.524 849.313,-180.012"/>
<polygon fill="midnightblue" stroke="midnightblue" points="808.871,-171.803 798.534,-174.129 808.065,-178.757 808.871,-171.803"/>
</g>
<!-- Node19 -->
<g id="node19" class="node"><title>Node19</title>
<g id="a_node19"><a xlink:href="classElmerFoamFSI_1_1TestingObject_a08d0370a943e7c47c0098eb76664a71b.html#a08d0370a943e7c47c0098eb76664a71b" target="_top" xlink:title="Run an initialization check to make sure the OpenFoamFluids are running as they should. ">
<polygon fill="none" stroke="black" points="1016.5,-0 1016.5,-30 1165.5,-30 1165.5,-0 1016.5,-0"/>
<text text-anchor="start" x="1024.5" y="-18" font-family="Helvetica,sans-Serif" font-size="10.00">ElmerFoamFSI::TestingObject</text>
<text text-anchor="middle" x="1091" y="-7" font-family="Helvetica,sans-Serif" font-size="10.00">::Test__OpenFoamFluids</text>
</a>
</g>
</g>
<!-- Node5&#45;&gt;Node19 -->
<g id="edge27" class="edge"><title>Node5&#45;&gt;Node19</title>
<path fill="none" stroke="midnightblue" d="M808.975,-163.943C856.854,-158.532 918.672,-144.668 962,-110 989.625,-87.896 970.453,-61.2015 998,-39 1003.53,-34.546 1009.79,-30.9111 1016.39,-27.9458"/>
<polygon fill="midnightblue" stroke="midnightblue" points="808.569,-160.466 798.981,-164.973 809.287,-167.429 808.569,-160.466"/>
</g>
<!-- Node7 -->
<g id="node7" class="node"><title>Node7</title>
<g id="a_node7"><a xlink:href="classElmerFoamFSI_1_1SerialDriverProgram_a5803949d99491a7186bf1ee9cee81a3b.html#a5803949d99491a7186bf1ee9cee81a3b" target="_top" xlink:title="This function implements the main function executed by the program. ">
<polygon fill="none" stroke="black" points="1021,-343 1021,-373 1161,-373 1161,-343 1021,-343"/>
<text text-anchor="start" x="1029" y="-361" font-family="Helvetica,sans-Serif" font-size="10.00">ElmerFoamFSI::SerialDriver</text>
<text text-anchor="middle" x="1091" y="-350" font-family="Helvetica,sans-Serif" font-size="10.00">Program::DriverRun</text>
</a>
</g>
</g>
<!-- Node6&#45;&gt;Node7 -->
<g id="edge6" class="edge"><title>Node6&#45;&gt;Node7</title>
<path fill="none" stroke="midnightblue" d="M910.011,-205.036C922.62,-236.572 952.156,-299.491 998,-333 1004.81,-337.981 1012.57,-341.97 1020.61,-345.164"/>
<polygon fill="midnightblue" stroke="midnightblue" points="913.249,-203.703 906.385,-195.632 906.718,-206.222 913.249,-203.703"/>
</g>
<!-- Node9 -->
<g id="node9" class="node"><title>Node9</title>
<g id="a_node9"><a xlink:href="classElmerFoamFSI_1_1TestingObject_aa7d577bcec96bb12da930ede076b6023.html#aa7d577bcec96bb12da930ede076b6023" target="_top" xlink:title="Test for fluidAgent&#45;&gt;Run() function. ">
<polygon fill="none" stroke="black" points="1016.5,-49 1016.5,-79 1165.5,-79 1165.5,-49 1016.5,-49"/>
<text text-anchor="start" x="1024.5" y="-67" font-family="Helvetica,sans-Serif" font-size="10.00">ElmerFoamFSI::TestingObject</text>
<text text-anchor="middle" x="1091" y="-56" font-family="Helvetica,sans-Serif" font-size="10.00">::Test__FluidAgentRun</text>
</a>
</g>
</g>
<!-- Node6&#45;&gt;Node9 -->
<g id="edge8" class="edge"><title>Node6&#45;&gt;Node9</title>
<path fill="none" stroke="midnightblue" d="M927.778,-170.888C938.983,-163.347 951.938,-153.581 962,-143 982.133,-121.829 974.277,-105.051 998,-88 1003.63,-83.9537 1009.89,-80.5891 1016.42,-77.7914"/>
<polygon fill="midnightblue" stroke="midnightblue" points="925.729,-168.046 919.255,-176.433 929.546,-173.914 925.729,-168.046"/>
</g>
<!-- Node15 -->
<g id="node15" class="node"><title>Node15</title>
<g id="a_node15"><a xlink:href="classElmerFoamFSI_1_1TestingObject_a07ff57097065c5066a4421176b63242b.html#a07ff57097065c5066a4421176b63242b" target="_top" xlink:title="Test the functionality of the fsiCoupler. ">
<polygon fill="none" stroke="black" points="1016.5,-245 1016.5,-275 1165.5,-275 1165.5,-245 1016.5,-245"/>
<text text-anchor="start" x="1024.5" y="-263" font-family="Helvetica,sans-Serif" font-size="10.00">ElmerFoamFSI::TestingObject</text>
<text text-anchor="middle" x="1091" y="-252" font-family="Helvetica,sans-Serif" font-size="10.00">::Test__FsiCoupler</text>
</a>
</g>
</g>
<!-- Node6&#45;&gt;Node15 -->
<g id="edge15" class="edge"><title>Node6&#45;&gt;Node15</title>
<path fill="none" stroke="midnightblue" d="M927.785,-200.623C946.573,-211.249 973.289,-225.394 998,-235 1007.41,-238.658 1017.56,-241.993 1027.56,-244.95"/>
<polygon fill="midnightblue" stroke="midnightblue" points="929.405,-197.518 918.989,-195.578 925.922,-203.589 929.405,-197.518"/>
</g>
<!-- Node16 -->
<g id="node16" class="node"><title>Node16</title>
<g id="a_node16"><a xlink:href="classElmerFoamFSI_1_1TestingObject_a1fae1ccecf337df1572d5a43cdae1a08.html#a1fae1ccecf337df1572d5a43cdae1a08" target="_top" xlink:title="Test for solidAgent&#45;&gt;Run() function. ">
<polygon fill="none" stroke="black" points="1016.5,-196 1016.5,-226 1165.5,-226 1165.5,-196 1016.5,-196"/>
<text text-anchor="start" x="1024.5" y="-214" font-family="Helvetica,sans-Serif" font-size="10.00">ElmerFoamFSI::TestingObject</text>
<text text-anchor="middle" x="1091" y="-203" font-family="Helvetica,sans-Serif" font-size="10.00">::Test__SolidAgentRun</text>
</a>
</g>
</g>
<!-- Node6&#45;&gt;Node16 -->
<g id="edge18" class="edge"><title>Node6&#45;&gt;Node16</title>
<path fill="none" stroke="midnightblue" d="M964.641,-194.241C981.125,-196.445 999.109,-198.849 1016.18,-201.131"/>
<polygon fill="midnightblue" stroke="midnightblue" points="964.969,-190.754 954.594,-192.898 964.042,-197.692 964.969,-190.754"/>
</g>
<!-- Node17 -->
<g id="node17" class="node"><title>Node17</title>
<g id="a_node17"><a xlink:href="classElmerFoamFSI_1_1TestingObject_abb3c0f68a2d2e212fa6e05e4628c78f0.html#abb3c0f68a2d2e212fa6e05e4628c78f0" target="_top" xlink:title="Test for fsiCoupling::TrasferDisplacementsToFluid function. ">
<polygon fill="none" stroke="black" points="998,-147 998,-177 1184,-177 1184,-147 998,-147"/>
<text text-anchor="start" x="1006" y="-165" font-family="Helvetica,sans-Serif" font-size="10.00">ElmerFoamFSI::TestingObject</text>
<text text-anchor="middle" x="1091" y="-154" font-family="Helvetica,sans-Serif" font-size="10.00">::Test__TransferDisplacementsToFluid</text>
</a>
</g>
</g>
<!-- Node6&#45;&gt;Node17 -->
<g id="edge21" class="edge"><title>Node6&#45;&gt;Node17</title>
<path fill="none" stroke="midnightblue" d="M964.567,-178.098C975.192,-176.735 986.441,-175.291 997.668,-173.85"/>
<polygon fill="midnightblue" stroke="midnightblue" points="964.067,-174.634 954.594,-179.378 964.958,-181.577 964.067,-174.634"/>
</g>
<!-- Node18 -->
<g id="node18" class="node"><title>Node18</title>
<g id="a_node18"><a xlink:href="classElmerFoamFSI_1_1TestingObject_a8c738943eca358248eb583bd29c5c332.html#a8c738943eca358248eb583bd29c5c332" target="_top" xlink:title="Test for TransferLoadsToStructures() function. ">
<polygon fill="none" stroke="black" points="1005.5,-98 1005.5,-128 1176.5,-128 1176.5,-98 1005.5,-98"/>
<text text-anchor="start" x="1013.5" y="-116" font-family="Helvetica,sans-Serif" font-size="10.00">ElmerFoamFSI::TestingObject</text>
<text text-anchor="middle" x="1091" y="-105" font-family="Helvetica,sans-Serif" font-size="10.00">::Test__TransferLoadsToStructures</text>
</a>
</g>
</g>
<!-- Node6&#45;&gt;Node18 -->
<g id="edge24" class="edge"><title>Node6&#45;&gt;Node18</title>
<path fill="none" stroke="midnightblue" d="M927.756,-171.303C946.53,-160.64 973.241,-146.481 998,-137 1006.63,-133.694 1015.89,-130.687 1025.09,-128.005"/>
<polygon fill="midnightblue" stroke="midnightblue" points="925.884,-168.343 918.969,-176.369 929.38,-174.407 925.884,-168.343"/>
</g>
<!-- Node8 -->
<g id="node8" class="node"><title>Node8</title>
<g id="a_node8"><a xlink:href="namespaceElmerFoamFSI_aff46f457934a8e2d3712bdbfb1688e99.html#aff46f457934a8e2d3712bdbfb1688e99" target="_top" xlink:title="Unified driver for the example programs. ">
<polygon fill="none" stroke="black" points="1237.5,-348.5 1237.5,-367.5 1352.5,-367.5 1352.5,-348.5 1237.5,-348.5"/>
<text text-anchor="middle" x="1295" y="-355.5" font-family="Helvetica,sans-Serif" font-size="10.00">ElmerFoamFSI::Driver</text>
</a>
</g>
</g>
<!-- Node7&#45;&gt;Node8 -->
<g id="edge7" class="edge"><title>Node7&#45;&gt;Node8</title>
<path fill="none" stroke="midnightblue" d="M1171.24,-358C1193.28,-358 1216.78,-358 1237.25,-358"/>
<polygon fill="midnightblue" stroke="midnightblue" points="1171.23,-354.5 1161.23,-358 1171.23,-361.5 1171.23,-354.5"/>
</g>
<!-- Node10 -->
<g id="node10" class="node"><title>Node10</title>
<g id="a_node10"><a xlink:href="classElmerFoamFSI_1_1TestingObject_a046f7ab06db0acf616b0d2bf3d3146aa.html#a046f7ab06db0acf616b0d2bf3d3146aa" target="_top" xlink:title="Runs all tests implemented by the ElmerFoamFSI::TestingObject. ">
<polygon fill="none" stroke="black" points="1220.5,-122 1220.5,-152 1369.5,-152 1369.5,-122 1220.5,-122"/>
<text text-anchor="start" x="1228.5" y="-140" font-family="Helvetica,sans-Serif" font-size="10.00">ElmerFoamFSI::TestingObject</text>
<text text-anchor="middle" x="1295" y="-129" font-family="Helvetica,sans-Serif" font-size="10.00">::Process</text>
</a>
</g>
</g>
<!-- Node9&#45;&gt;Node10 -->
<g id="edge9" class="edge"><title>Node9&#45;&gt;Node10</title>
<path fill="none" stroke="midnightblue" d="M1165.29,-81.9503C1171.66,-83.8624 1177.97,-85.8859 1184,-88 1211.62,-97.6814 1241.93,-111.428 1263.73,-121.899"/>
<polygon fill="midnightblue" stroke="midnightblue" points="1165.84,-78.4672 1155.26,-79.0403 1163.89,-85.1896 1165.84,-78.4672"/>
</g>
<!-- Node13 -->
<g id="node13" class="node"><title>Node13</title>
<g id="a_node13"><a xlink:href="classElmerFoamFSI_1_1TestingObject_af1f07f14b9af7708e4264bb38937eed2.html#af1f07f14b9af7708e4264bb38937eed2" target="_top" xlink:title="Runs a test specified by name. ">
<polygon fill="none" stroke="black" points="1220.5,-171 1220.5,-201 1369.5,-201 1369.5,-171 1220.5,-171"/>
<text text-anchor="start" x="1228.5" y="-189" font-family="Helvetica,sans-Serif" font-size="10.00">ElmerFoamFSI::TestingObject</text>
<text text-anchor="middle" x="1295" y="-178" font-family="Helvetica,sans-Serif" font-size="10.00">::RunTest</text>
</a>
</g>
</g>
<!-- Node9&#45;&gt;Node13 -->
<g id="edge12" class="edge"><title>Node9&#45;&gt;Node13</title>
<path fill="none" stroke="midnightblue" d="M1174.66,-81.532C1177.94,-83.4691 1181.08,-85.6175 1184,-88 1212.04,-110.857 1192.78,-137.168 1220,-161 1224.39,-164.841 1229.39,-168.098 1234.67,-170.857"/>
<polygon fill="midnightblue" stroke="midnightblue" points="1176.15,-78.3624 1165.66,-76.8822 1172.94,-84.5816 1176.15,-78.3624"/>
</g>
<!-- Node11 -->
<g id="node11" class="node"><title>Node11</title>
<g id="a_node11"><a xlink:href="namespaceElmerFoamFSI_aeb590657609088b8ab12a5cbd164fcfa.html#aeb590657609088b8ab12a5cbd164fcfa" target="_top" xlink:title="Drives the ElmerFoamFSI::TestObject. ">
<polygon fill="none" stroke="black" points="1427,-130.5 1427,-149.5 1535,-149.5 1535,-130.5 1427,-130.5"/>
<text text-anchor="middle" x="1481" y="-137.5" font-family="Helvetica,sans-Serif" font-size="10.00">ElmerFoamFSI::Test</text>
</a>
</g>
</g>
<!-- Node10&#45;&gt;Node11 -->
<g id="edge10" class="edge"><title>Node10&#45;&gt;Node11</title>
<path fill="none" stroke="midnightblue" d="M1379.96,-138.369C1395.97,-138.63 1412.3,-138.896 1427,-139.136"/>
<polygon fill="midnightblue" stroke="midnightblue" points="1379.57,-134.862 1369.51,-138.199 1379.46,-141.861 1379.57,-134.862"/>
</g>
<!-- Node12 -->
<g id="node12" class="node"><title>Node12</title>
<g id="a_node12"><a xlink:href="TestElmerFoamFSI_8C_a0ddf1224851353fc92bfbff6f499fa97.html#a0ddf1224851353fc92bfbff6f499fa97" target="_top" xlink:title="main">
<polygon fill="none" stroke="black" points="1592,-130.5 1592,-149.5 1630,-149.5 1630,-130.5 1592,-130.5"/>
<text text-anchor="middle" x="1611" y="-137.5" font-family="Helvetica,sans-Serif" font-size="10.00">main</text>
</a>
</g>
</g>
<!-- Node11&#45;&gt;Node12 -->
<g id="edge11" class="edge"><title>Node11&#45;&gt;Node12</title>
<path fill="none" stroke="midnightblue" d="M1545.19,-140C1562.29,-140 1579.47,-140 1591.84,-140"/>
<polygon fill="midnightblue" stroke="midnightblue" points="1545.17,-136.5 1535.17,-140 1545.17,-143.5 1545.17,-136.5"/>
</g>
<!-- Node14 -->
<g id="node14" class="node"><title>Node14</title>
<g id="a_node14"><a xlink:href="classElmerFoamFSI_1_1TestingObject_a21159bd2efac623e5a5079f6a20f3444.html#a21159bd2efac623e5a5079f6a20f3444" target="_top" xlink:title="Runs a list of tests specified by name. ">
<polygon fill="none" stroke="black" points="1406.5,-171 1406.5,-201 1555.5,-201 1555.5,-171 1406.5,-171"/>
<text text-anchor="start" x="1414.5" y="-189" font-family="Helvetica,sans-Serif" font-size="10.00">ElmerFoamFSI::TestingObject</text>
<text text-anchor="middle" x="1481" y="-178" font-family="Helvetica,sans-Serif" font-size="10.00">::ProcessTests</text>
</a>
</g>
</g>
<!-- Node13&#45;&gt;Node14 -->
<g id="edge13" class="edge"><title>Node13&#45;&gt;Node14</title>
<path fill="none" stroke="midnightblue" d="M1379.53,-186C1388.46,-186 1397.5,-186 1406.3,-186"/>
<polygon fill="midnightblue" stroke="midnightblue" points="1379.51,-182.5 1369.51,-186 1379.51,-189.5 1379.51,-182.5"/>
</g>
<!-- Node13&#45;&gt;Node11 -->
<g id="edge14" class="edge"><title>Node13&#45;&gt;Node11</title>
<path fill="none" stroke="midnightblue" d="M1365.99,-168.503C1391.75,-162.061 1419.97,-155.008 1441.89,-149.529"/>
<polygon fill="midnightblue" stroke="midnightblue" points="1365.1,-165.117 1356.25,-170.938 1366.8,-171.908 1365.1,-165.117"/>
</g>
<!-- Node15&#45;&gt;Node10 -->
<g id="edge16" class="edge"><title>Node15&#45;&gt;Node10</title>
<path fill="none" stroke="midnightblue" d="M1174.69,-241.563C1177.96,-239.592 1181.09,-237.412 1184,-235 1212.17,-211.672 1192.4,-185.001 1220,-161 1223.97,-157.543 1228.46,-154.583 1233.2,-152.048"/>
<polygon fill="midnightblue" stroke="midnightblue" points="1172.91,-238.543 1165.7,-246.307 1176.18,-244.733 1172.91,-238.543"/>
</g>
<!-- Node15&#45;&gt;Node13 -->
<g id="edge17" class="edge"><title>Node15&#45;&gt;Node13</title>
<path fill="none" stroke="midnightblue" d="M1162.67,-241.989C1169.92,-239.786 1177.14,-237.444 1184,-235 1211.57,-225.179 1241.88,-211.445 1263.69,-201.015"/>
<polygon fill="midnightblue" stroke="midnightblue" points="1161.39,-238.718 1152.79,-244.905 1163.37,-245.432 1161.39,-238.718"/>
</g>
<!-- Node16&#45;&gt;Node10 -->
<g id="edge19" class="edge"><title>Node16&#45;&gt;Node10</title>
<path fill="none" stroke="midnightblue" d="M1168.18,-192.525C1173.61,-190.532 1178.94,-188.36 1184,-186 1201.66,-177.771 1202.55,-169.653 1220,-161 1226.66,-157.7 1233.87,-154.71 1241.09,-152.05"/>
<polygon fill="midnightblue" stroke="midnightblue" points="1166.63,-189.356 1158.31,-195.921 1168.91,-195.974 1166.63,-189.356"/>
</g>
<!-- Node16&#45;&gt;Node13 -->
<g id="edge20" class="edge"><title>Node16&#45;&gt;Node13</title>
<path fill="none" stroke="midnightblue" d="M1175.91,-200.615C1190.68,-198.787 1205.96,-196.897 1220.42,-195.107"/>
<polygon fill="midnightblue" stroke="midnightblue" points="1175.28,-197.166 1165.78,-201.868 1176.14,-204.113 1175.28,-197.166"/>
</g>
<!-- Node17&#45;&gt;Node10 -->
<g id="edge22" class="edge"><title>Node17&#45;&gt;Node10</title>
<path fill="none" stroke="midnightblue" d="M1194.14,-149.358C1203.02,-148.26 1211.88,-147.163 1220.46,-146.101"/>
<polygon fill="midnightblue" stroke="midnightblue" points="1193.63,-145.896 1184.13,-150.597 1194.49,-152.843 1193.63,-145.896"/>
</g>
<!-- Node17&#45;&gt;Node13 -->
<g id="edge23" class="edge"><title>Node17&#45;&gt;Node13</title>
<path fill="none" stroke="midnightblue" d="M1194.14,-174.136C1203.02,-175.19 1211.88,-176.244 1220.46,-177.263"/>
<polygon fill="midnightblue" stroke="midnightblue" points="1194.48,-170.651 1184.13,-172.947 1193.65,-177.602 1194.48,-170.651"/>
</g>
<!-- Node18&#45;&gt;Node10 -->
<g id="edge25" class="edge"><title>Node18&#45;&gt;Node10</title>
<path fill="none" stroke="midnightblue" d="M1187.02,-124.29C1198.21,-125.619 1209.5,-126.96 1220.33,-128.247"/>
<polygon fill="midnightblue" stroke="midnightblue" points="1187.13,-120.778 1176.79,-123.074 1186.31,-127.729 1187.13,-120.778"/>
</g>
<!-- Node18&#45;&gt;Node13 -->
<g id="edge26" class="edge"><title>Node18&#45;&gt;Node13</title>
<path fill="none" stroke="midnightblue" d="M1169.72,-131.269C1174.61,-133.034 1179.41,-134.942 1184,-137 1201.55,-144.869 1202.74,-152.516 1220,-161 1227.42,-164.649 1235.51,-167.979 1243.52,-170.934"/>
<polygon fill="midnightblue" stroke="midnightblue" points="1170.81,-127.944 1160.21,-128.05 1168.56,-134.574 1170.81,-127.944"/>
</g>
<!-- Node19&#45;&gt;Node10 -->
<g id="edge28" class="edge"><title>Node19&#45;&gt;Node10</title>
<path fill="none" stroke="midnightblue" d="M1173.09,-33.7878C1176.84,-35.3914 1180.5,-37.1255 1184,-39 1224.59,-60.7268 1262.48,-100.35 1281.4,-121.961"/>
<polygon fill="midnightblue" stroke="midnightblue" points="1174.19,-30.461 1163.61,-30.0649 1171.64,-36.9769 1174.19,-30.461"/>
</g>
<!-- Node19&#45;&gt;Node13 -->
<g id="edge29" class="edge"><title>Node19&#45;&gt;Node13</title>
<path fill="none" stroke="midnightblue" d="M1174.46,-31.4498C1177.88,-33.6687 1181.08,-36.1736 1184,-39 1224.6,-78.3356 1180.81,-120.256 1220,-161 1223.76,-164.909 1228.15,-168.207 1232.89,-170.99"/>
<polygon fill="midnightblue" stroke="midnightblue" points="1176.04,-28.3202 1165.6,-26.5028 1172.62,-34.4326 1176.04,-28.3202"/>
</g>
<!-- Node21 -->
<g id="node21" class="node"><title>Node21</title>
<g id="a_node21"><a xlink:href="classfsicouplingpar_ae855141f7b214925c25f7797b8b122a8.html#ae855141f7b214925c25f7797b8b122a8" target="_top" xlink:title="fsicouplingpar::Initialize">
<polygon fill="none" stroke="black" points="842.5,-81.5 842.5,-100.5 961.5,-100.5 961.5,-81.5 842.5,-81.5"/>
<text text-anchor="middle" x="902" y="-88.5" font-family="Helvetica,sans-Serif" font-size="10.00">fsicouplingpar::Initialize</text>
</a>
</g>
</g>
<!-- Node20&#45;&gt;Node21 -->
<g id="edge31" class="edge"><title>Node20&#45;&gt;Node21</title>
<path fill="none" stroke="midnightblue" d="M788.341,-117.104C811.393,-111.763 838.221,-105.546 859.913,-100.52"/>
<polygon fill="midnightblue" stroke="midnightblue" points="787.336,-113.744 778.384,-119.411 788.916,-120.563 787.336,-113.744"/>
</g>
<!-- Node22&#45;&gt;Node6 -->
<g id="edge33" class="edge"><title>Node22&#45;&gt;Node6</title>
<path fill="none" stroke="midnightblue" d="M799.833,-197.721C816.223,-195.822 833.695,-193.798 849.426,-191.975"/>
<polygon fill="midnightblue" stroke="midnightblue" points="799.324,-194.256 789.793,-198.884 800.13,-201.21 799.324,-194.256"/>
</g>
<!-- Node23 -->
<g id="node23" class="node"><title>Node23</title>
<g id="a_node23"><a xlink:href="classElmerFoamFSI_1_1TestingObject_af35b4f0c5c244be91e637c17b3ebabd9.html#af35b4f0c5c244be91e637c17b3ebabd9" target="_top" xlink:title="Run an initialization check to make sure that the ElmerStructures are running as they should...">
<polygon fill="none" stroke="black" points="1016.5,-294 1016.5,-324 1165.5,-324 1165.5,-294 1016.5,-294"/>
<text text-anchor="start" x="1024.5" y="-312" font-family="Helvetica,sans-Serif" font-size="10.00">ElmerFoamFSI::TestingObject</text>
<text text-anchor="middle" x="1091" y="-301" font-family="Helvetica,sans-Serif" font-size="10.00">::Test__ElmerStructures</text>
</a>
</g>
</g>
<!-- Node22&#45;&gt;Node23 -->
<g id="edge34" class="edge"><title>Node22&#45;&gt;Node23</title>
<path fill="none" stroke="midnightblue" d="M777.136,-217.537C828.289,-233.427 919.506,-261.461 998,-284 1009.45,-287.289 1021.74,-290.706 1033.49,-293.918"/>
<polygon fill="midnightblue" stroke="midnightblue" points="778.043,-214.154 767.455,-214.527 775.964,-220.839 778.043,-214.154"/>
</g>
<!-- Node23&#45;&gt;Node10 -->
<g id="edge35" class="edge"><title>Node23&#45;&gt;Node10</title>
<path fill="none" stroke="midnightblue" d="M1174.49,-291.639C1177.89,-289.387 1181.09,-286.852 1184,-284 1224.67,-244.116 1180.31,-201.854 1220,-161 1223.29,-157.61 1227.07,-154.697 1231.14,-152.196"/>
<polygon fill="midnightblue" stroke="midnightblue" points="1172.6,-288.688 1165.63,-296.675 1176.06,-294.772 1172.6,-288.688"/>
</g>
<!-- Node23&#45;&gt;Node13 -->
<g id="edge36" class="edge"><title>Node23&#45;&gt;Node13</title>
<path fill="none" stroke="midnightblue" d="M1170.73,-290.302C1175.31,-288.39 1179.77,-286.294 1184,-284 1224.25,-262.189 1261.99,-222.967 1281.06,-201.345"/>
<polygon fill="midnightblue" stroke="midnightblue" points="1169.26,-287.114 1161.19,-293.976 1171.78,-293.646 1169.26,-287.114"/>
</g>
<!-- Node24&#45;&gt;Node21 -->
<g id="edge38" class="edge"><title>Node24&#45;&gt;Node21</title>
<path fill="none" stroke="midnightblue" d="M806.218,-91C818.27,-91 830.698,-91 842.429,-91"/>
<polygon fill="midnightblue" stroke="midnightblue" points="806.208,-87.5001 796.208,-91 806.208,-94.5001 806.208,-87.5001"/>
</g>
</g>
</svg>
