<?xml version="1.0" encoding="UTF-8" standalone="no"?>
<!DOCTYPE svg PUBLIC "-//W3C//DTD SVG 1.1//EN"
 "http://www.w3.org/Graphics/SVG/1.1/DTD/svg11.dtd">
<!-- Generated by graphviz version 2.30.1 (20150305.2338)
 -->
<!-- Title: TCPSolverClient Pages: 1 -->
<svg width="1486pt" height="326pt"
 viewBox="0.00 0.00 1486.00 326.00" xmlns="http://www.w3.org/2000/svg" xmlns:xlink="http://www.w3.org/1999/xlink">
<g id="graph0" class="graph" transform="scale(1 1) rotate(0) translate(4 322)">
<title>TCPSolverClient</title>
<!-- Node1 -->
<g id="node1" class="node"><title>Node1</title>
<polygon fill="#bfbfbf" stroke="black" points="1388,-172.5 1388,-191.5 1478,-191.5 1478,-172.5 1388,-172.5"/>
<text text-anchor="middle" x="1433" y="-179.5" font-family="Helvetica,sans-Serif" font-size="10.00">TCPSolverClient</text>
</g>
<!-- Node2 -->
<g id="node2" class="node"><title>Node2</title>
<g id="a_node2"><a xlink:href="classSolverUtils_1_1FEM_1_1FDSolverAgent.html" target="_top" xlink:title="FDSolverAgent">
<polygon fill="none" stroke="black" points="1266.5,-195.5 1266.5,-214.5 1349.5,-214.5 1349.5,-195.5 1266.5,-195.5"/>
<text text-anchor="middle" x="1308" y="-202.5" font-family="Helvetica,sans-Serif" font-size="10.00">FDSolverAgent</text>
</a>
</g>
</g>
<!-- Node2&#45;&gt;Node1 -->
<g id="edge1" class="edge"><title>Node2&#45;&gt;Node1</title>
<path fill="none" stroke="midnightblue" d="M1359.54,-195.55C1368.85,-193.809 1378.5,-192.004 1387.61,-190.3"/>
<polygon fill="midnightblue" stroke="midnightblue" points="1358.8,-192.127 1349.62,-197.405 1360.09,-199.007 1358.8,-192.127"/>
</g>
<!-- Node3 -->
<g id="node3" class="node"><title>Node3</title>
<g id="a_node3"><a xlink:href="classSolverUtils_1_1FEM_1_1SolverAgent.html" target="_top" xlink:title="SolverAgent">
<polygon fill="none" stroke="black" points="1114,-169.5 1114,-188.5 1184,-188.5 1184,-169.5 1114,-169.5"/>
<text text-anchor="middle" x="1149" y="-176.5" font-family="Helvetica,sans-Serif" font-size="10.00">SolverAgent</text>
</a>
</g>
</g>
<!-- Node3&#45;&gt;Node2 -->
<g id="edge2" class="edge"><title>Node3&#45;&gt;Node2</title>
<path fill="none" stroke="midnightblue" d="M1194.1,-186.304C1216.76,-190.056 1244.18,-194.596 1266.32,-198.263"/>
<polygon fill="midnightblue" stroke="midnightblue" points="1194.5,-182.823 1184.07,-184.642 1193.36,-189.728 1194.5,-182.823"/>
</g>
<!-- Node4 -->
<g id="node4" class="node"><title>Node4</title>
<g id="a_node4"><a xlink:href="classSolverUtils_1_1FEM_1_1SolutionData.html" target="_top" xlink:title="SolutionData">
<polygon fill="none" stroke="black" points="797.5,-116.5 797.5,-135.5 870.5,-135.5 870.5,-116.5 797.5,-116.5"/>
<text text-anchor="middle" x="834" y="-123.5" font-family="Helvetica,sans-Serif" font-size="10.00">SolutionData</text>
</a>
</g>
</g>
<!-- Node4&#45;&gt;Node3 -->
<g id="edge3" class="edge"><title>Node4&#45;&gt;Node3</title>
<path fill="none" stroke="#9a32cd" stroke-dasharray="5,2" d="M873.994,-140.096C876.785,-141.605 879.486,-143.239 882,-145 891.795,-151.861 889.217,-159.829 900,-165 969.99,-198.567 1064.16,-191.852 1113.91,-184.906"/>
<polygon fill="#9a32cd" stroke="#9a32cd" points="875.421,-136.899 864.894,-135.702 872.377,-143.202 875.421,-136.899"/>
<text text-anchor="middle" x="991" y="-194" font-family="Helvetica,sans-Serif" font-size="10.00"> soln</text>
</g>
<!-- Node5 -->
<g id="node5" class="node"><title>Node5</title>
<polygon fill="none" stroke="#bfbfbf" points="583.5,-86.5 583.5,-105.5 714.5,-105.5 714.5,-86.5 583.5,-86.5"/>
<text text-anchor="middle" x="649" y="-93.5" font-family="Helvetica,sans-Serif" font-size="10.00">vector&lt; DataBufferType &gt;</text>
</g>
<!-- Node5&#45;&gt;Node4 -->
<g id="edge4" class="edge"><title>Node5&#45;&gt;Node4</title>
<path fill="none" stroke="#9a32cd" stroke-dasharray="5,2" d="M724.966,-107.076C739.267,-109.291 754.105,-111.658 768,-114 777.505,-115.602 787.771,-117.445 797.275,-119.198"/>
<polygon fill="#9a32cd" stroke="#9a32cd" points="725.085,-103.553 714.67,-105.493 724.022,-110.472 725.085,-103.553"/>
<text text-anchor="middle" x="752" y="-117" font-family="Helvetica,sans-Serif" font-size="10.00"> data</text>
</g>
<!-- Node6 -->
<g id="node6" class="node"><title>Node6</title>
<g id="a_node6"><a xlink:href="classSolverUtils_1_1FEM_1_1DataBuffer.html" target="_top" xlink:title="DataBuffer">
<polygon fill="none" stroke="black" points="316,-106.5 316,-125.5 380,-125.5 380,-106.5 316,-106.5"/>
<text text-anchor="middle" x="348" y="-113.5" font-family="Helvetica,sans-Serif" font-size="10.00">DataBuffer</text>
</a>
</g>
</g>
<!-- Node6&#45;&gt;Node5 -->
<g id="edge5" class="edge"><title>Node6&#45;&gt;Node5</title>
<path fill="none" stroke="#9a32cd" stroke-dasharray="5,2" d="M390.258,-113.24C440.19,-109.9 524.846,-104.238 583.444,-100.318"/>
<polygon fill="#9a32cd" stroke="#9a32cd" points="389.896,-109.757 380.152,-113.916 390.363,-116.741 389.896,-109.757"/>
<text text-anchor="middle" x="502" y="-113" font-family="Helvetica,sans-Serif" font-size="10.00"> elements</text>
</g>
<!-- Node7 -->
<g id="node7" class="node"><title>Node7</title>
<g id="a_node7"><a xlink:title="STL class. ">
<polygon fill="none" stroke="#bfbfbf" points="314,-61.5 314,-80.5 382,-80.5 382,-61.5 314,-61.5"/>
<text text-anchor="middle" x="348" y="-68.5" font-family="Helvetica,sans-Serif" font-size="10.00">vector&lt; T &gt;</text>
</a>
</g>
</g>
<!-- Node7&#45;&gt;Node5 -->
<g id="edge6" class="edge"><title>Node7&#45;&gt;Node5</title>
<path fill="none" stroke="orange" stroke-dasharray="5,2" d="M392.356,-73.8832C435.417,-76.8349 503.312,-81.726 562,-87 568.878,-87.6181 576.061,-88.3046 583.217,-89.0151"/>
<polygon fill="orange" stroke="orange" points="392.444,-70.3812 382.23,-73.1935 391.969,-77.365 392.444,-70.3812"/>
<text text-anchor="middle" x="502" y="-90" font-family="Helvetica,sans-Serif" font-size="10.00"> &lt; DataBufferType &gt;</text>
</g>
<!-- Node14 -->
<g id="node14" class="node"><title>Node14</title>
<polygon fill="none" stroke="#bfbfbf" points="580.5,-44.5 580.5,-63.5 717.5,-63.5 717.5,-44.5 580.5,-44.5"/>
<text text-anchor="middle" x="649" y="-51.5" font-family="Helvetica,sans-Serif" font-size="10.00">vector&lt; Mesh::IndexType &gt;</text>
</g>
<!-- Node7&#45;&gt;Node14 -->
<g id="edge16" class="edge"><title>Node7&#45;&gt;Node14</title>
<path fill="none" stroke="orange" stroke-dasharray="5,2" d="M392.297,-62.0205C407.891,-59.1929 425.667,-56.4347 442,-55 487.959,-50.963 539.908,-50.7406 580.14,-51.5135"/>
<polygon fill="orange" stroke="orange" points="391.585,-58.5929 382.401,-63.8755 392.875,-65.473 391.585,-58.5929"/>
<text text-anchor="middle" x="502" y="-58" font-family="Helvetica,sans-Serif" font-size="10.00"> &lt; Mesh::IndexType &gt;</text>
</g>
<!-- Node8 -->
<g id="node8" class="node"><title>Node8</title>
<polygon fill="none" stroke="#bfbfbf" points="128.5,-61.5 128.5,-80.5 157.5,-80.5 157.5,-61.5 128.5,-61.5"/>
<text text-anchor="middle" x="143" y="-68.5" font-family="Helvetica,sans-Serif" font-size="10.00">T</text>
</g>
<!-- Node8&#45;&gt;Node7 -->
<g id="edge7" class="edge"><title>Node8&#45;&gt;Node7</title>
<path fill="none" stroke="#9a32cd" stroke-dasharray="5,2" d="M167.722,-71C203.832,-71 272.719,-71 313.788,-71"/>
<polygon fill="#9a32cd" stroke="#9a32cd" points="167.635,-67.5001 157.635,-71 167.635,-74.5001 167.635,-67.5001"/>
<text text-anchor="middle" x="232" y="-74" font-family="Helvetica,sans-Serif" font-size="10.00"> elements</text>
</g>
<!-- Node10 -->
<g id="node10" class="node"><title>Node10</title>
<g id="a_node10"><a xlink:title="STL class. ">
<polygon fill="none" stroke="#bfbfbf" points="272,-144.5 272,-163.5 424,-163.5 424,-144.5 272,-144.5"/>
<text text-anchor="middle" x="348" y="-151.5" font-family="Helvetica,sans-Serif" font-size="10.00">vector&lt; FEM::FieldMetaData &gt;</text>
</a>
</g>
</g>
<!-- Node8&#45;&gt;Node10 -->
<g id="edge10" class="edge"><title>Node8&#45;&gt;Node10</title>
<path fill="none" stroke="#9a32cd" stroke-dasharray="5,2" d="M166.489,-84.1152C191.544,-98.2778 233.591,-120.723 272,-135 281.695,-138.604 292.343,-141.758 302.493,-144.408"/>
<polygon fill="#9a32cd" stroke="#9a32cd" points="168.18,-81.0505 157.761,-79.1271 164.706,-87.1279 168.18,-81.0505"/>
<text text-anchor="middle" x="232" y="-131" font-family="Helvetica,sans-Serif" font-size="10.00"> elements</text>
</g>
<!-- Node13 -->
<g id="node13" class="node"><title>Node13</title>
<g id="a_node13"><a xlink:title="STL class. ">
<polygon fill="none" stroke="#bfbfbf" points="442.5,-0 442.5,-30 561.5,-30 561.5,-0 442.5,-0"/>
<text text-anchor="start" x="450.5" y="-18" font-family="Helvetica,sans-Serif" font-size="10.00">vector&lt; std::vector</text>
<text text-anchor="middle" x="502" y="-7" font-family="Helvetica,sans-Serif" font-size="10.00">&lt; Mesh::IndexType &gt; &gt;</text>
</a>
</g>
</g>
<!-- Node8&#45;&gt;Node13 -->
<g id="edge14" class="edge"><title>Node8&#45;&gt;Node13</title>
<path fill="none" stroke="#9a32cd" stroke-dasharray="5,2" d="M167.667,-65.1175C180.198,-62.1307 195.877,-58.5951 210,-56 290.037,-41.2931 383.303,-28.9967 442.244,-21.8161"/>
<polygon fill="#9a32cd" stroke="#9a32cd" points="166.476,-61.8047 157.583,-67.5636 168.126,-68.6075 166.476,-61.8047"/>
<text text-anchor="middle" x="232" y="-59" font-family="Helvetica,sans-Serif" font-size="10.00"> elements</text>
</g>
<!-- Node9 -->
<g id="node9" class="node"><title>Node9</title>
<g id="a_node9"><a xlink:href="classSolverUtils_1_1FEM_1_1SolutionMetaData.html" target="_top" xlink:title="SolutionMetaData">
<polygon fill="none" stroke="black" points="601.5,-133.5 601.5,-152.5 696.5,-152.5 696.5,-133.5 601.5,-133.5"/>
<text text-anchor="middle" x="649" y="-140.5" font-family="Helvetica,sans-Serif" font-size="10.00">SolutionMetaData</text>
</a>
</g>
</g>
<!-- Node9&#45;&gt;Node4 -->
<g id="edge8" class="edge"><title>Node9&#45;&gt;Node4</title>
<path fill="none" stroke="#9a32cd" stroke-dasharray="5,2" d="M706.778,-134.365C716.509,-133.089 726.533,-131.903 736,-131 756.312,-129.063 779.093,-127.84 797.471,-127.089"/>
<polygon fill="#9a32cd" stroke="#9a32cd" points="706.218,-130.909 696.778,-135.718 707.157,-137.845 706.218,-130.909"/>
<text text-anchor="middle" x="752" y="-134" font-family="Helvetica,sans-Serif" font-size="10.00"> meta</text>
</g>
<!-- Node10&#45;&gt;Node9 -->
<g id="edge9" class="edge"><title>Node10&#45;&gt;Node9</title>
<path fill="none" stroke="midnightblue" d="M434.376,-150.859C488.655,-148.862 556.848,-146.353 601.385,-144.715"/>
<polygon fill="midnightblue" stroke="midnightblue" points="433.929,-147.373 424.064,-151.238 434.186,-154.368 433.929,-147.373"/>
</g>
<!-- Node11 -->
<g id="node11" class="node"><title>Node11</title>
<g id="a_node11"><a xlink:href="structSolverUtils_1_1Mesh_1_1UnstructuredMesh.html" target="_top" xlink:title="UnstructuredMesh">
<polygon fill="none" stroke="black" points="942.5,-123.5 942.5,-142.5 1039.5,-142.5 1039.5,-123.5 942.5,-123.5"/>
<text text-anchor="middle" x="991" y="-130.5" font-family="Helvetica,sans-Serif" font-size="10.00">UnstructuredMesh</text>
</a>
</g>
</g>
<!-- Node11&#45;&gt;Node3 -->
<g id="edge11" class="edge"><title>Node11&#45;&gt;Node3</title>
<path fill="none" stroke="#9a32cd" stroke-dasharray="5,2" d="M1049.4,-141.937C1064.74,-145.041 1081.17,-149.026 1096,-154 1107.97,-158.014 1120.75,-164.133 1130.65,-169.313"/>
<polygon fill="#9a32cd" stroke="#9a32cd" points="1049.99,-138.485 1039.51,-140.022 1048.66,-145.358 1049.99,-138.485"/>
<text text-anchor="middle" x="1079" y="-157" font-family="Helvetica,sans-Serif" font-size="10.00"> mesh</text>
</g>
<!-- Node12 -->
<g id="node12" class="node"><title>Node12</title>
<g id="a_node12"><a xlink:href="classSolverUtils_1_1Mesh_1_1Connectivity.html" target="_top" xlink:title="General connectivity object. ">
<polygon fill="none" stroke="black" points="798.5,-44.5 798.5,-63.5 869.5,-63.5 869.5,-44.5 798.5,-44.5"/>
<text text-anchor="middle" x="834" y="-51.5" font-family="Helvetica,sans-Serif" font-size="10.00">Connectivity</text>
</a>
</g>
</g>
<!-- Node12&#45;&gt;Node11 -->
<g id="edge12" class="edge"><title>Node12&#45;&gt;Node11</title>
<path fill="none" stroke="#9a32cd" stroke-dasharray="5,2" d="M858.185,-69.1052C878.652,-82.0465 909.571,-100.654 938,-114 945.308,-117.431 953.419,-120.656 961.019,-123.441"/>
<polygon fill="#9a32cd" stroke="#9a32cd" points="859.875,-66.0315 849.563,-63.5971 856.106,-71.9304 859.875,-66.0315"/>
<text text-anchor="middle" x="910" y="-107" font-family="Helvetica,sans-Serif" font-size="10.00"> con</text>
</g>
<!-- Node13&#45;&gt;Node12 -->
<g id="edge13" class="edge"><title>Node13&#45;&gt;Node12</title>
<path fill="none" stroke="midnightblue" d="M571.707,-20.1415C613.982,-23.615 669.226,-28.7104 718,-35 745.094,-38.4939 775.593,-43.5866 798.371,-47.6202"/>
<polygon fill="midnightblue" stroke="midnightblue" points="571.776,-16.6357 561.525,-19.3157 571.21,-23.6128 571.776,-16.6357"/>
</g>
<!-- Node14&#45;&gt;Node12 -->
<g id="edge15" class="edge"><title>Node14&#45;&gt;Node12</title>
<path fill="none" stroke="#9a32cd" stroke-dasharray="5,2" d="M727.726,-54C752.405,-54 778.452,-54 798.463,-54"/>
<polygon fill="#9a32cd" stroke="#9a32cd" points="727.623,-50.5001 717.623,-54 727.622,-57.5001 727.623,-50.5001"/>
<text text-anchor="middle" x="752" y="-57" font-family="Helvetica,sans-Serif" font-size="10.00"> _sizes</text>
</g>
<!-- Node15 -->
<g id="node15" class="node"><title>Node15</title>
<g id="a_node15"><a xlink:href="classSolverUtils_1_1Mesh_1_1NodalCoordinates.html" target="_top" xlink:title="NodalCoordinates">
<polygon fill="none" stroke="black" points="786.5,-154.5 786.5,-173.5 881.5,-173.5 881.5,-154.5 786.5,-154.5"/>
<text text-anchor="middle" x="834" y="-161.5" font-family="Helvetica,sans-Serif" font-size="10.00">NodalCoordinates</text>
</a>
</g>
</g>
<!-- Node15&#45;&gt;Node11 -->
<g id="edge17" class="edge"><title>Node15&#45;&gt;Node11</title>
<path fill="none" stroke="#9a32cd" stroke-dasharray="5,2" d="M891.677,-152.665C908.351,-149.33 926.415,-145.717 942.455,-142.509"/>
<polygon fill="#9a32cd" stroke="#9a32cd" points="890.624,-149.306 881.505,-154.699 891.997,-156.17 890.624,-149.306"/>
<text text-anchor="middle" x="910" y="-154" font-family="Helvetica,sans-Serif" font-size="10.00"> nc</text>
</g>
<!-- Node16 -->
<g id="node16" class="node"><title>Node16</title>
<g id="a_node16"><a xlink:title="STL class. ">
<polygon fill="none" stroke="#bfbfbf" points="623,-184.5 623,-203.5 675,-203.5 675,-184.5 623,-184.5"/>
<text text-anchor="middle" x="649" y="-191.5" font-family="Helvetica,sans-Serif" font-size="10.00">ostream</text>
</a>
</g>
</g>
<!-- Node16&#45;&gt;Node15 -->
<g id="edge18" class="edge"><title>Node16&#45;&gt;Node15</title>
<path fill="none" stroke="#9a32cd" stroke-dasharray="5,2" d="M685.074,-188.25C713.86,-183.531 754.87,-176.808 786.411,-171.638"/>
<polygon fill="#9a32cd" stroke="#9a32cd" points="684.364,-184.82 675.062,-189.892 685.496,-191.728 684.364,-184.82"/>
<text text-anchor="middle" x="752" y="-194" font-family="Helvetica,sans-Serif" font-size="10.00"> Err</text>
<text text-anchor="middle" x="752" y="-183" font-family="Helvetica,sans-Serif" font-size="10.00">Out</text>
</g>
<!-- Node27 -->
<g id="node27" class="node"><title>Node27</title>
<g id="a_node27"><a xlink:href="classIRAD_1_1Sys_1_1fdostream.html" target="_top" xlink:title="fdostream">
<polygon fill="none" stroke="black" points="804,-208.5 804,-227.5 864,-227.5 864,-208.5 804,-208.5"/>
<text text-anchor="middle" x="834" y="-215.5" font-family="Helvetica,sans-Serif" font-size="10.00">fdostream</text>
</a>
</g>
</g>
<!-- Node16&#45;&gt;Node27 -->
<g id="edge31" class="edge"><title>Node16&#45;&gt;Node27</title>
<path fill="none" stroke="midnightblue" d="M685.147,-198.609C719.579,-203.125 771.447,-209.927 803.711,-214.159"/>
<polygon fill="midnightblue" stroke="midnightblue" points="685.432,-195.117 675.062,-197.287 684.522,-202.057 685.432,-195.117"/>
</g>
<!-- Node17 -->
<g id="node17" class="node"><title>Node17</title>
<g id="a_node17"><a xlink:title="STL class. ">
<polygon fill="none" stroke="#bfbfbf" points="289.5,-184.5 289.5,-203.5 406.5,-203.5 406.5,-184.5 289.5,-184.5"/>
<text text-anchor="middle" x="348" y="-191.5" font-family="Helvetica,sans-Serif" font-size="10.00">basic_ostream&lt; char &gt;</text>
</a>
</g>
</g>
<!-- Node17&#45;&gt;Node16 -->
<g id="edge19" class="edge"><title>Node17&#45;&gt;Node16</title>
<path fill="none" stroke="midnightblue" d="M416.887,-194C482.356,-194 577.934,-194 622.878,-194"/>
<polygon fill="midnightblue" stroke="midnightblue" points="416.65,-190.5 406.65,-194 416.65,-197.5 416.65,-190.5"/>
</g>
<!-- Node18 -->
<g id="node18" class="node"><title>Node18</title>
<g id="a_node18"><a xlink:title="STL class. ">
<polygon fill="none" stroke="#bfbfbf" points="94.5,-240.5 94.5,-259.5 191.5,-259.5 191.5,-240.5 94.5,-240.5"/>
<text text-anchor="middle" x="143" y="-247.5" font-family="Helvetica,sans-Serif" font-size="10.00">basic_ios&lt; Char &gt;</text>
</a>
</g>
</g>
<!-- Node18&#45;&gt;Node17 -->
<g id="edge20" class="edge"><title>Node18&#45;&gt;Node17</title>
<path fill="none" stroke="midnightblue" d="M185.87,-237.516C210.823,-230.171 243.155,-220.82 272,-213 283.797,-209.802 296.684,-206.476 308.396,-203.518"/>
<polygon fill="midnightblue" stroke="midnightblue" points="184.605,-234.24 176.005,-240.428 186.587,-240.954 184.605,-234.24"/>
</g>
<!-- Node22 -->
<g id="node22" class="node"><title>Node22</title>
<g id="a_node22"><a xlink:title="STL class. ">
<polygon fill="none" stroke="#bfbfbf" points="291,-298.5 291,-317.5 405,-317.5 405,-298.5 291,-298.5"/>
<text text-anchor="middle" x="348" y="-305.5" font-family="Helvetica,sans-Serif" font-size="10.00">basic_istream&lt; char &gt;</text>
</a>
</g>
</g>
<!-- Node18&#45;&gt;Node22 -->
<g id="edge25" class="edge"><title>Node18&#45;&gt;Node22</title>
<path fill="none" stroke="midnightblue" d="M183.467,-262.557C208.699,-270.452 242.17,-280.682 272,-289 283.645,-292.247 296.371,-295.559 307.98,-298.49"/>
<polygon fill="midnightblue" stroke="midnightblue" points="184.472,-259.204 173.883,-259.546 182.374,-265.882 184.472,-259.204"/>
</g>
<!-- Node19 -->
<g id="node19" class="node"><title>Node19</title>
<g id="a_node19"><a xlink:title="STL class. ">
<polygon fill="none" stroke="#bfbfbf" points="0,-240.5 0,-259.5 56,-259.5 56,-240.5 0,-240.5"/>
<text text-anchor="middle" x="28" y="-247.5" font-family="Helvetica,sans-Serif" font-size="10.00">ios_base</text>
</a>
</g>
</g>
<!-- Node19&#45;&gt;Node18 -->
<g id="edge21" class="edge"><title>Node19&#45;&gt;Node18</title>
<path fill="none" stroke="midnightblue" d="M66.2325,-250C75.238,-250 84.9854,-250 94.3951,-250"/>
<polygon fill="midnightblue" stroke="midnightblue" points="66.0663,-246.5 56.0663,-250 66.0663,-253.5 66.0663,-246.5"/>
</g>
<!-- Node20 -->
<g id="node20" class="node"><title>Node20</title>
<g id="a_node20"><a xlink:href="classIRAD_1_1Sys_1_1fdistream.html" target="_top" xlink:title="fdistream">
<polygon fill="none" stroke="black" points="805.5,-260.5 805.5,-279.5 862.5,-279.5 862.5,-260.5 805.5,-260.5"/>
<text text-anchor="middle" x="834" y="-267.5" font-family="Helvetica,sans-Serif" font-size="10.00">fdistream</text>
</a>
</g>
</g>
<!-- Node20&#45;&gt;Node2 -->
<g id="edge22" class="edge"><title>Node20&#45;&gt;Node2</title>
<path fill="none" stroke="#9a32cd" stroke-dasharray="5,2" d="M872.9,-267.692C946.02,-262.779 1111.4,-249.422 1248,-222 1257.72,-220.049 1268.16,-217.272 1277.52,-214.526"/>
<polygon fill="#9a32cd" stroke="#9a32cd" points="872.545,-264.208 862.796,-268.357 873.004,-271.193 872.545,-264.208"/>
<text text-anchor="middle" x="1079" y="-253" font-family="Helvetica,sans-Serif" font-size="10.00"> FDIn</text>
</g>
<!-- Node21 -->
<g id="node21" class="node"><title>Node21</title>
<g id="a_node21"><a xlink:title="STL class. ">
<polygon fill="none" stroke="#bfbfbf" points="624.5,-298.5 624.5,-317.5 673.5,-317.5 673.5,-298.5 624.5,-298.5"/>
<text text-anchor="middle" x="649" y="-305.5" font-family="Helvetica,sans-Serif" font-size="10.00">istream</text>
</a>
</g>
</g>
<!-- Node21&#45;&gt;Node20 -->
<g id="edge23" class="edge"><title>Node21&#45;&gt;Node20</title>
<path fill="none" stroke="midnightblue" d="M683.441,-301.798C707.1,-297.333 739.547,-291.054 768,-285 780.234,-282.397 793.714,-279.32 805.212,-276.633"/>
<polygon fill="midnightblue" stroke="midnightblue" points="682.738,-298.369 673.556,-303.655 684.03,-305.249 682.738,-298.369"/>
</g>
<!-- Node22&#45;&gt;Node21 -->
<g id="edge24" class="edge"><title>Node22&#45;&gt;Node21</title>
<path fill="none" stroke="midnightblue" d="M415.59,-308C481.859,-308 579.917,-308 624.456,-308"/>
<polygon fill="midnightblue" stroke="midnightblue" points="415.24,-304.5 405.24,-308 415.24,-311.5 415.24,-304.5"/>
</g>
<!-- Node23 -->
<g id="node23" class="node"><title>Node23</title>
<g id="a_node23"><a xlink:href="classIRAD_1_1Sys_1_1fdinbuf.html" target="_top" xlink:title="fdinbuf">
<polygon fill="none" stroke="black" points="626,-260.5 626,-279.5 672,-279.5 672,-260.5 626,-260.5"/>
<text text-anchor="middle" x="649" y="-267.5" font-family="Helvetica,sans-Serif" font-size="10.00">fdinbuf</text>
</a>
</g>
</g>
<!-- Node23&#45;&gt;Node20 -->
<g id="edge26" class="edge"><title>Node23&#45;&gt;Node20</title>
<path fill="none" stroke="#9a32cd" stroke-dasharray="5,2" d="M682.231,-270C717.207,-270 772.466,-270 805.479,-270"/>
<polygon fill="#9a32cd" stroke="#9a32cd" points="682.074,-266.5 672.074,-270 682.074,-273.5 682.074,-266.5"/>
<text text-anchor="middle" x="752" y="-273" font-family="Helvetica,sans-Serif" font-size="10.00"> buf</text>
</g>
<!-- Node24 -->
<g id="node24" class="node"><title>Node24</title>
<polygon fill="none" stroke="#bfbfbf" points="318,-260.5 318,-279.5 378,-279.5 378,-260.5 318,-260.5"/>
<text text-anchor="middle" x="348" y="-267.5" font-family="Helvetica,sans-Serif" font-size="10.00">streambuf</text>
</g>
<!-- Node24&#45;&gt;Node23 -->
<g id="edge27" class="edge"><title>Node24&#45;&gt;Node23</title>
<path fill="none" stroke="midnightblue" d="M388.255,-270C451.852,-270 575.364,-270 625.769,-270"/>
<polygon fill="midnightblue" stroke="midnightblue" points="388.214,-266.5 378.214,-270 388.214,-273.5 388.214,-266.5"/>
</g>
<!-- Node25 -->
<g id="node25" class="node"><title>Node25</title>
<g id="a_node25"><a xlink:title="STL class. ">
<polygon fill="none" stroke="#bfbfbf" points="1128.5,-103.5 1128.5,-122.5 1169.5,-122.5 1169.5,-103.5 1128.5,-103.5"/>
<text text-anchor="middle" x="1149" y="-110.5" font-family="Helvetica,sans-Serif" font-size="10.00">string</text>
</a>
</g>
</g>
<!-- Node25&#45;&gt;Node2 -->
<g id="edge28" class="edge"><title>Node25&#45;&gt;Node2</title>
<path fill="none" stroke="#9a32cd" stroke-dasharray="5,2" d="M1174.45,-127.926C1194.36,-140.149 1223.13,-157.976 1248,-174 1256.08,-179.208 1257.61,-181.298 1266,-186 1271.89,-189.299 1278.44,-192.526 1284.56,-195.357"/>
<polygon fill="#9a32cd" stroke="#9a32cd" points="1176.07,-124.811 1165.71,-122.57 1172.41,-130.779 1176.07,-124.811"/>
<text text-anchor="middle" x="1225" y="-177" font-family="Helvetica,sans-Serif" font-size="10.00"> _ackword</text>
</g>
<!-- Node26 -->
<g id="node26" class="node"><title>Node26</title>
<g id="a_node26"><a xlink:title="STL class. ">
<polygon fill="none" stroke="#bfbfbf" points="938,-85.5 938,-104.5 1044,-104.5 1044,-85.5 938,-85.5"/>
<text text-anchor="middle" x="991" y="-92.5" font-family="Helvetica,sans-Serif" font-size="10.00">basic_string&lt; char &gt;</text>
</a>
</g>
</g>
<!-- Node26&#45;&gt;Node25 -->
<g id="edge29" class="edge"><title>Node26&#45;&gt;Node25</title>
<path fill="none" stroke="midnightblue" d="M1054.36,-102.196C1080.8,-105.246 1109.73,-108.584 1128.34,-110.731"/>
<polygon fill="midnightblue" stroke="midnightblue" points="1054.72,-98.7132 1044.38,-101.044 1053.91,-105.667 1054.72,-98.7132"/>
</g>
<!-- Node27&#45;&gt;Node2 -->
<g id="edge30" class="edge"><title>Node27&#45;&gt;Node2</title>
<path fill="none" stroke="#9a32cd" stroke-dasharray="5,2" d="M874.317,-216.917C962.763,-214.481 1176.66,-208.59 1266.35,-206.12"/>
<polygon fill="#9a32cd" stroke="#9a32cd" points="874.069,-213.423 864.17,-217.197 874.262,-220.42 874.069,-213.423"/>
<text text-anchor="middle" x="1079" y="-215" font-family="Helvetica,sans-Serif" font-size="10.00"> FDOut</text>
</g>
<!-- Node28 -->
<g id="node28" class="node"><title>Node28</title>
<g id="a_node28"><a xlink:href="classIRAD_1_1Sys_1_1fdoutbuf.html" target="_top" xlink:title="fdoutbuf">
<polygon fill="none" stroke="black" points="623,-222.5 623,-241.5 675,-241.5 675,-222.5 623,-222.5"/>
<text text-anchor="middle" x="649" y="-229.5" font-family="Helvetica,sans-Serif" font-size="10.00">fdoutbuf</text>
</a>
</g>
</g>
<!-- Node28&#45;&gt;Node27 -->
<g id="edge32" class="edge"><title>Node28&#45;&gt;Node27</title>
<path fill="none" stroke="#9a32cd" stroke-dasharray="5,2" d="M685.147,-229.311C719.579,-226.677 771.447,-222.709 803.711,-220.241"/>
<polygon fill="#9a32cd" stroke="#9a32cd" points="684.766,-225.83 675.062,-230.083 685.3,-232.81 684.766,-225.83"/>
<text text-anchor="middle" x="752" y="-229" font-family="Helvetica,sans-Serif" font-size="10.00"> buf</text>
</g>
<!-- Node29 -->
<g id="node29" class="node"><title>Node29</title>
<polygon fill="none" stroke="#bfbfbf" points="318,-222.5 318,-241.5 378,-241.5 378,-222.5 318,-222.5"/>
<text text-anchor="middle" x="348" y="-229.5" font-family="Helvetica,sans-Serif" font-size="10.00">streambuf</text>
</g>
<!-- Node29&#45;&gt;Node28 -->
<g id="edge33" class="edge"><title>Node29&#45;&gt;Node28</title>
<path fill="none" stroke="midnightblue" d="M388.459,-232C450.956,-232 570.944,-232 622.945,-232"/>
<polygon fill="midnightblue" stroke="midnightblue" points="388.214,-228.5 378.214,-232 388.214,-235.5 388.214,-228.5"/>
</g>
<!-- Node30 -->
<g id="node30" class="node"><title>Node30</title>
<g id="a_node30"><a xlink:href="classIRAD_1_1Sys_1_1Net_1_1Client.html" target="_top" xlink:title="Client">
<polygon fill="none" stroke="black" points="1287,-157.5 1287,-176.5 1329,-176.5 1329,-157.5 1287,-157.5"/>
<text text-anchor="middle" x="1308" y="-164.5" font-family="Helvetica,sans-Serif" font-size="10.00">Client</text>
</a>
</g>
</g>
<!-- Node30&#45;&gt;Node1 -->
<g id="edge34" class="edge"><title>Node30&#45;&gt;Node1</title>
<path fill="none" stroke="midnightblue" d="M1339.09,-170.67C1353.8,-172.463 1371.78,-174.656 1387.99,-176.632"/>
<polygon fill="midnightblue" stroke="midnightblue" points="1339.39,-167.18 1329.04,-169.443 1338.54,-174.128 1339.39,-167.18"/>
</g>
</g>
</svg>
