<?xml version="1.0" encoding="UTF-8" standalone="no"?>
<!DOCTYPE svg PUBLIC "-//W3C//DTD SVG 1.1//EN"
 "http://www.w3.org/Graphics/SVG/1.1/DTD/svg11.dtd">
<!-- Generated by graphviz version 2.30.1 (20150305.2338)
 -->
<!-- Title: new_window Pages: 1 -->
<!--zoomable 126 -->
<svg id="main" version="1.1" xmlns="http://www.w3.org/2000/svg" xmlns:xlink="http://www.w3.org/1999/xlink" xml:space="preserve" onload="init(evt)">
<style type="text/css"><![CDATA[
.edge:hover path { stroke: red; }
.edge:hover polygon { stroke: red; fill: red; }
]]></style>
<script type="text/javascript"><![CDATA[
var edges = document.getElementsByTagName('g');
if (edges && edges.length) {
  for (var i=0;i<edges.length;i++) {
    if (edges[i].id.substr(0,4)=='edge') {
      edges[i].setAttribute('class','edge');
    }
  }
}
]]></script>
        <defs>
                <circle id="rim" cx="0" cy="0" r="7"/>
                <circle id="rim2" cx="0" cy="0" r="3.5"/>
                <g id="zoomPlus">
                        <use xlink:href="#rim" fill="#404040">
                                <set attributeName="fill" to="#808080" begin="zoomplus.mouseover" end="zoomplus.mouseout"/>
                        </use>
                        <path d="M-4,0h8M0,-4v8" fill="none" stroke="white" stroke-width="1.5" pointer-events="none"/>
                </g>
                <g id="zoomMin">
                        <use xlink:href="#rim" fill="#404040">
                                <set attributeName="fill" to="#808080" begin="zoomminus.mouseover" end="zoomminus.mouseout"/>
                        </use>
                        <path d="M-4,0h8" fill="none" stroke="white" stroke-width="1.5" pointer-events="none"/>
                </g>
                <g id="dirArrow">
                        <path fill="none" stroke="white" stroke-width="1.5" d="M0,-3.0v7 M-2.5,-0.5L0,-3.0L2.5,-0.5"/>
                </g>
               <g id="resetDef">
                       <use xlink:href="#rim2" fill="#404040">
                               <set attributeName="fill" to="#808080" begin="reset.mouseover" end="reset.mouseout"/>
                       </use>
               </g>
        </defs>

<script type="text/javascript">
var viewWidth = 734;
var viewHeight = 126;
var sectionId = 'dynsection-0';
</script>
<script xlink:href="svgpan.js"/>
<svg id="graph" class="graph">
<g id="viewport">
<title>new_window</title>
<!-- Node1 -->
<g id="node1" class="node"><title>Node1</title>
<polygon fill="#bfbfbf" stroke="black" points="0.5,-44.5 0.5,-63.5 73.5,-63.5 73.5,-44.5 0.5,-44.5"/>
<text text-anchor="middle" x="37" y="-51.5" font-family="Helvetica,sans-Serif" font-size="10.00">new_window</text>
</g>
<!-- Node2 -->
<g id="node2" class="node"><title>Node2</title>
<g id="a_node2"><a xlink:href="com__c_8h_a62df4dfb277169ba8930ca9cd223a66c.html#a62df4dfb277169ba8930ca9cd223a66c" target="_top" xlink:title="COM_new_window">
<polygon fill="none" stroke="black" points="110.5,-44.5 110.5,-63.5 211.5,-63.5 211.5,-44.5 110.5,-44.5"/>
<text text-anchor="middle" x="161" y="-51.5" font-family="Helvetica,sans-Serif" font-size="10.00">COM_new_window</text>
</a>
</g>
</g>
<!-- Node1&#45;&gt;Node2 -->
<g id="edge1" class="edge"><title>Node1&#45;&gt;Node2</title>
<path fill="none" stroke="midnightblue" d="M83.8069,-54C92.3764,-54 101.373,-54 110.06,-54"/>
<polygon fill="midnightblue" stroke="midnightblue" points="83.6154,-50.5001 73.6154,-54 83.6154,-57.5001 83.6154,-50.5001"/>
</g>
<!-- Node3 -->
<g id="node3" class="node"><title>Node3</title>
<g id="a_node3"><a xlink:href="classIcoFoamMod_1_1IcoFoamModule_a0163351bbf2a7fe37cedf5d673bd3ded.html#a0163351bbf2a7fe37cedf5d673bd3ded" target="_top" xlink:title="&quot;Loads&quot; IcoFoamModule ">
<polygon fill="none" stroke="black" points="248.5,-88 248.5,-118 397.5,-118 397.5,-88 248.5,-88"/>
<text text-anchor="start" x="256.5" y="-106" font-family="Helvetica,sans-Serif" font-size="10.00">IcoFoamMod::IcoFoamModule</text>
<text text-anchor="middle" x="323" y="-95" font-family="Helvetica,sans-Serif" font-size="10.00">::Load</text>
</a>
</g>
</g>
<!-- Node2&#45;&gt;Node3 -->
<g id="edge2" class="edge"><title>Node2&#45;&gt;Node3</title>
<path fill="none" stroke="midnightblue" d="M202.955,-66.5426C224.276,-73.0719 250.498,-81.1024 272.9,-87.963"/>
<polygon fill="midnightblue" stroke="midnightblue" points="203.816,-63.1458 193.229,-63.564 201.766,-69.8389 203.816,-63.1458"/>
</g>
<!-- Node5 -->
<g id="node5" class="node"><title>Node5</title>
<g id="a_node5"><a xlink:href="classSolverUtils_1_1TransferObjectPar_a3bf689e70e300071bc1b010c1fedaae9.html#a3bf689e70e300071bc1b010c1fedaae9" target="_top" xlink:title="SolverUtils::TransferObject\lPar::read_file_rocin">
<polygon fill="none" stroke="black" points="255.5,-39 255.5,-69 390.5,-69 390.5,-39 255.5,-39"/>
<text text-anchor="start" x="263.5" y="-57" font-family="Helvetica,sans-Serif" font-size="10.00">SolverUtils::TransferObject</text>
<text text-anchor="middle" x="323" y="-46" font-family="Helvetica,sans-Serif" font-size="10.00">Par::read_file_rocin</text>
</a>
</g>
</g>
<!-- Node2&#45;&gt;Node5 -->
<g id="edge4" class="edge"><title>Node2&#45;&gt;Node5</title>
<path fill="none" stroke="midnightblue" d="M221.964,-54C232.816,-54 244.195,-54 255.228,-54"/>
<polygon fill="midnightblue" stroke="midnightblue" points="221.748,-50.5001 211.748,-54 221.748,-57.5001 221.748,-50.5001"/>
</g>
<!-- Node8 -->
<g id="node8" class="node"><title>Node8</title>
<g id="a_node8"><a xlink:href="namespaceSolverUtils_abd82bb11c3dd2f2f88ff31ca33755f5b.html#abd82bb11c3dd2f2f88ff31ca33755f5b" target="_top" xlink:title="SolverUtils::RegisterSolver">
<polygon fill="none" stroke="black" points="255.5,-0.5 255.5,-19.5 390.5,-19.5 390.5,-0.5 255.5,-0.5"/>
<text text-anchor="middle" x="323" y="-7.5" font-family="Helvetica,sans-Serif" font-size="10.00">SolverUtils::RegisterSolver</text>
</a>
</g>
</g>
<!-- Node2&#45;&gt;Node8 -->
<g id="edge7" class="edge"><title>Node2&#45;&gt;Node8</title>
<path fill="none" stroke="midnightblue" d="M203.671,-41.599C217.726,-37.4932 233.518,-32.963 248,-29 259.642,-25.8141 272.358,-22.4924 283.913,-19.5339"/>
<polygon fill="midnightblue" stroke="midnightblue" points="202.398,-38.325 193.789,-44.4994 204.37,-45.0417 202.398,-38.325"/>
</g>
<!-- Node4 -->
<g id="node4" class="node"><title>Node4</title>
<g id="a_node4"><a xlink:href="icoFoamModule_8C_a6a4b606029cee6c85493fbaee4201ec5.html#a6a4b606029cee6c85493fbaee4201ec5" target="_top" xlink:title="C/C++ bindings to load IcoFoamModule. ">
<polygon fill="none" stroke="black" points="447,-88 447,-118 557,-118 557,-88 447,-88"/>
<text text-anchor="start" x="455" y="-106" font-family="Helvetica,sans-Serif" font-size="10.00">IcoFoamModule_load</text>
<text text-anchor="middle" x="502" y="-95" font-family="Helvetica,sans-Serif" font-size="10.00">_module</text>
</a>
</g>
</g>
<!-- Node3&#45;&gt;Node4 -->
<g id="edge3" class="edge"><title>Node3&#45;&gt;Node4</title>
<path fill="none" stroke="midnightblue" d="M407.666,-103C420.989,-103 434.459,-103 446.863,-103"/>
<polygon fill="midnightblue" stroke="midnightblue" points="407.526,-99.5001 397.526,-103 407.526,-106.5 407.526,-99.5001"/>
</g>
<!-- Node6 -->
<g id="node6" class="node"><title>Node6</title>
<g id="a_node6"><a xlink:href="classSolverUtils_1_1TransferObjectPar_a735bf8439c33b9d8f45d213ff1a113d6.html#a735bf8439c33b9d8f45d213ff1a113d6" target="_top" xlink:title="SolverUtils::TransferObject\lPar::Overlay">
<polygon fill="none" stroke="black" points="434.5,-39 434.5,-69 569.5,-69 569.5,-39 434.5,-39"/>
<text text-anchor="start" x="442.5" y="-57" font-family="Helvetica,sans-Serif" font-size="10.00">SolverUtils::TransferObject</text>
<text text-anchor="middle" x="502" y="-46" font-family="Helvetica,sans-Serif" font-size="10.00">Par::Overlay</text>
</a>
</g>
</g>
<!-- Node5&#45;&gt;Node6 -->
<g id="edge5" class="edge"><title>Node5&#45;&gt;Node6</title>
<path fill="none" stroke="midnightblue" d="M400.837,-54C412.014,-54 423.444,-54 434.396,-54"/>
<polygon fill="midnightblue" stroke="midnightblue" points="400.664,-50.5001 390.664,-54 400.664,-57.5001 400.664,-50.5001"/>
</g>
<!-- Node7 -->
<g id="node7" class="node"><title>Node7</title>
<g id="a_node7"><a xlink:href="classfsicouplingpar_ae855141f7b214925c25f7797b8b122a8.html#ae855141f7b214925c25f7797b8b122a8" target="_top" xlink:title="fsicouplingpar::Initialize">
<polygon fill="none" stroke="black" points="606.5,-44.5 606.5,-63.5 725.5,-63.5 725.5,-44.5 606.5,-44.5"/>
<text text-anchor="middle" x="666" y="-51.5" font-family="Helvetica,sans-Serif" font-size="10.00">fsicouplingpar::Initialize</text>
</a>
</g>
</g>
<!-- Node6&#45;&gt;Node7 -->
<g id="edge6" class="edge"><title>Node6&#45;&gt;Node7</title>
<path fill="none" stroke="midnightblue" d="M579.84,-54C588.754,-54 597.736,-54 606.351,-54"/>
<polygon fill="midnightblue" stroke="midnightblue" points="579.827,-50.5001 569.827,-54 579.827,-57.5001 579.827,-50.5001"/>
</g>
</g>
</svg>
        <g id="navigator" transform="translate(0 0)" fill="#404254">
                <rect fill="#f2f5e9" fill-opacity="0.5" stroke="#606060" stroke-width=".5" x="0" y="0" width="60" height="60"/>
                <use id="zoomplus" xlink:href="#zoomPlus" x="17" y="9" onmousedown="handleZoom(evt,'in')"/>
                <use id="zoomminus" xlink:href="#zoomMin" x="42" y="9" onmousedown="handleZoom(evt,'out')"/>
                <use id="reset" xlink:href="#resetDef" x="30" y="36" onmousedown="handleReset()"/>
                <g id="arrowUp" xlink:href="#dirArrow" transform="translate(30 24)" onmousedown="handlePan(0,-1)">
                  <use xlink:href="#rim" fill="#404040">
                        <set attributeName="fill" to="#808080" begin="arrowUp.mouseover" end="arrowUp.mouseout"/>
                  </use>
                  <path fill="none" stroke="white" stroke-width="1.5" d="M0,-3.0v7 M-2.5,-0.5L0,-3.0L2.5,-0.5"/>
                </g>
                <g id="arrowRight" xlink:href="#dirArrow" transform="rotate(90) translate(36 -43)" onmousedown="handlePan(1,0)">
                  <use xlink:href="#rim" fill="#404040">
                        <set attributeName="fill" to="#808080" begin="arrowRight.mouseover" end="arrowRight.mouseout"/>
                  </use>
                  <path fill="none" stroke="white" stroke-width="1.5" d="M0,-3.0v7 M-2.5,-0.5L0,-3.0L2.5,-0.5"/>
                </g>
                <g id="arrowDown" xlink:href="#dirArrow" transform="rotate(180) translate(-30 -48)" onmousedown="handlePan(0,1)">
                  <use xlink:href="#rim" fill="#404040">
                        <set attributeName="fill" to="#808080" begin="arrowDown.mouseover" end="arrowDown.mouseout"/>
                  </use>
                  <path fill="none" stroke="white" stroke-width="1.5" d="M0,-3.0v7 M-2.5,-0.5L0,-3.0L2.5,-0.5"/>
                </g>
                <g id="arrowLeft" xlink:href="#dirArrow" transform="rotate(270) translate(-36 17)" onmousedown="handlePan(-1,0)">
                  <use xlink:href="#rim" fill="#404040">
                        <set attributeName="fill" to="#808080" begin="arrowLeft.mouseover" end="arrowLeft.mouseout"/>
                  </use>
                  <path fill="none" stroke="white" stroke-width="1.5" d="M0,-3.0v7 M-2.5,-0.5L0,-3.0L2.5,-0.5"/>
                </g>
        </g>
        <svg viewBox="0 0 15 15" width="100%" height="30px" preserveAspectRatio="xMaxYMin meet">
         <g id="arrow_out" transform="scale(0.3 0.3)">
          <a xlink:href="classCOM_1_1COM__base_aaf1eebdcea183110f6db536e0855b0cc_aaf1eebdcea183110f6db536e0855b0cc_icgraph_org.svg" target="_base">
           <rect id="button" ry="5" rx="5" y="6" x="6" height="38" width="38"
                fill="#f2f5e9" fill-opacity="0.5" stroke="#606060" stroke-width="1.0"/>
           <path id="arrow"
             d="M 11.500037,31.436501 C 11.940474,20.09759 22.043105,11.32322 32.158766,21.979434 L 37.068811,17.246167 C 37.068811,17.246167 37.088388,32 37.088388,32 L 22.160133,31.978069 C 22.160133,31.978069 26.997745,27.140456 26.997745,27.140456 C 18.528582,18.264221 13.291696,25.230495 11.500037,31.436501 z"
             style="fill:#404040;"/>
          </a>
         </g>
        </svg>
</svg>
