<?xml version="1.0" encoding="UTF-8" standalone="no"?>
<!DOCTYPE svg PUBLIC "-//W3C//DTD SVG 1.1//EN"
 "http://www.w3.org/Graphics/SVG/1.1/DTD/svg11.dtd">
<!-- Generated by graphviz version 2.30.1 (20150305.2338)
 -->
<!-- Title: InProcess Pages: 1 -->
<svg width="374pt" height="77pt"
 viewBox="0.00 0.00 374.00 77.00" xmlns="http://www.w3.org/2000/svg" xmlns:xlink="http://www.w3.org/1999/xlink">
<g id="graph0" class="graph" transform="scale(1 1) rotate(0) translate(4 73)">
<title>InProcess</title>
<!-- Node1 -->
<g id="node1" class="node"><title>Node1</title>
<polygon fill="#bfbfbf" stroke="black" points="0.5,-27.5 0.5,-46.5 61.5,-46.5 61.5,-27.5 0.5,-27.5"/>
<text text-anchor="middle" x="31" y="-34.5" font-family="Helvetica,sans-Serif" font-size="10.00">InProcess</text>
</g>
<!-- Node2 -->
<g id="node2" class="node"><title>Node2</title>
<g id="a_node2"><a xlink:href="classIRAD_1_1Sys_1_1fdistream_a9c75c18093415e5ee6ed0db880234d50.html#a9c75c18093415e5ee6ed0db880234d50" target="_top" xlink:title="IRAD::Sys::fdistream\l::Init">
<polygon fill="none" stroke="black" points="98.5,-22 98.5,-52 209.5,-52 209.5,-22 98.5,-22"/>
<text text-anchor="start" x="106.5" y="-40" font-family="Helvetica,sans-Serif" font-size="10.00">IRAD::Sys::fdistream</text>
<text text-anchor="middle" x="154" y="-29" font-family="Helvetica,sans-Serif" font-size="10.00">::Init</text>
</a>
</g>
</g>
<!-- Node1&#45;&gt;Node2 -->
<g id="edge1" class="edge"><title>Node1&#45;&gt;Node2</title>
<path fill="none" stroke="midnightblue" d="M61.5999,-37C69.718,-37 78.8507,-37 88.1213,-37"/>
<polygon fill="midnightblue" stroke="midnightblue" points="88.1935,-40.5001 98.1935,-37 88.1934,-33.5001 88.1935,-40.5001"/>
</g>
<!-- Node3 -->
<g id="node3" class="node"><title>Node3</title>
<g id="a_node3"><a xlink:href="classIRAD_1_1Sys_1_1fdinbuf_ae35946314ac7f20fe7fcb3dc4c4185fc.html#ae35946314ac7f20fe7fcb3dc4c4185fc" target="_top" xlink:title="IRAD::Sys::fdinbuf::FD">
<polygon fill="none" stroke="black" points="246.5,-49.5 246.5,-68.5 365.5,-68.5 365.5,-49.5 246.5,-49.5"/>
<text text-anchor="middle" x="306" y="-56.5" font-family="Helvetica,sans-Serif" font-size="10.00">IRAD::Sys::fdinbuf::FD</text>
</a>
</g>
</g>
<!-- Node2&#45;&gt;Node3 -->
<g id="edge2" class="edge"><title>Node2&#45;&gt;Node3</title>
<path fill="none" stroke="midnightblue" d="M209.578,-45.0047C218.281,-46.2812 227.381,-47.6159 236.359,-48.9327"/>
<polygon fill="midnightblue" stroke="midnightblue" points="236.014,-52.4194 246.416,-50.4077 237.03,-45.4935 236.014,-52.4194"/>
</g>
<!-- Node4 -->
<g id="node4" class="node"><title>Node4</title>
<g id="a_node4"><a xlink:href="classIRAD_1_1Sys_1_1fdinbuf_ae47b2b2bde19d7cc697daca696c971fa.html#ae47b2b2bde19d7cc697daca696c971fa" target="_top" xlink:title="IRAD::Sys::fdinbuf\l::Init">
<polygon fill="none" stroke="black" points="256,-0 256,-30 356,-30 356,-0 256,-0"/>
<text text-anchor="start" x="264" y="-18" font-family="Helvetica,sans-Serif" font-size="10.00">IRAD::Sys::fdinbuf</text>
<text text-anchor="middle" x="306" y="-7" font-family="Helvetica,sans-Serif" font-size="10.00">::Init</text>
</a>
</g>
</g>
<!-- Node2&#45;&gt;Node4 -->
<g id="edge3" class="edge"><title>Node2&#45;&gt;Node4</title>
<path fill="none" stroke="midnightblue" d="M209.578,-28.9953C221.24,-27.2848 233.615,-25.4698 245.453,-23.7336"/>
<polygon fill="midnightblue" stroke="midnightblue" points="246.3,-27.1468 255.686,-22.2327 245.284,-20.2209 246.3,-27.1468"/>
</g>
</g>
</svg>
