<?xml version="1.0" encoding="UTF-8" standalone="no"?>
<!DOCTYPE svg PUBLIC "-//W3C//DTD SVG 1.1//EN"
 "http://www.w3.org/Graphics/SVG/1.1/DTD/svg11.dtd">
<!-- Generated by graphviz version 2.30.1 (20150305.2338)
 -->
<!-- Title: CVector Pages: 1 -->
<svg width="128pt" height="104pt"
 viewBox="0.00 0.00 128.00 104.00" xmlns="http://www.w3.org/2000/svg" xmlns:xlink="http://www.w3.org/1999/xlink">
<g id="graph0" class="graph" transform="scale(1 1) rotate(0) translate(4 100)">
<title>CVector</title>
<!-- Node1 -->
<g id="node1" class="node"><title>Node1</title>
<polygon fill="#bfbfbf" stroke="black" points="0.5,-38.5 0.5,-57.5 53.5,-57.5 53.5,-38.5 0.5,-38.5"/>
<text text-anchor="middle" x="27" y="-45.5" font-family="Helvetica,sans-Serif" font-size="10.00">CVector</text>
</g>
<!-- Node2 -->
<g id="node2" class="node"><title>Node2</title>
<g id="a_node2"><a xlink:href="classSolverUtils_1_1GeoPrim_1_1CVector_a3b195b867437acf8de45f48c83e81932.html#a3b195b867437acf8de45f48c83e81932" target="_top" xlink:title="x">
<polygon fill="none" stroke="black" points="90.5,-76.5 90.5,-95.5 119.5,-95.5 119.5,-76.5 90.5,-76.5"/>
<text text-anchor="middle" x="105" y="-83.5" font-family="Helvetica,sans-Serif" font-size="10.00">x</text>
</a>
</g>
</g>
<!-- Node1&#45;&gt;Node2 -->
<g id="edge1" class="edge"><title>Node1&#45;&gt;Node2</title>
<path fill="none" stroke="midnightblue" d="M47.178,-57.589C57.4128,-62.7064 70.0847,-69.0424 80.8629,-74.4315"/>
<polygon fill="midnightblue" stroke="midnightblue" points="79.5951,-77.7106 90.1046,-79.0523 82.7256,-71.4496 79.5951,-77.7106"/>
</g>
<!-- Node3 -->
<g id="node3" class="node"><title>Node3</title>
<g id="a_node3"><a xlink:href="classSolverUtils_1_1GeoPrim_1_1CVector_ad927d9808ded1fc49c05ae9e1a3ed2a6.html#ad927d9808ded1fc49c05ae9e1a3ed2a6" target="_top" xlink:title="y">
<polygon fill="none" stroke="black" points="90.5,-38.5 90.5,-57.5 119.5,-57.5 119.5,-38.5 90.5,-38.5"/>
<text text-anchor="middle" x="105" y="-45.5" font-family="Helvetica,sans-Serif" font-size="10.00">y</text>
</a>
</g>
</g>
<!-- Node1&#45;&gt;Node3 -->
<g id="edge2" class="edge"><title>Node1&#45;&gt;Node3</title>
<path fill="none" stroke="midnightblue" d="M53.7301,-48C62.2337,-48 71.6556,-48 80.0225,-48"/>
<polygon fill="midnightblue" stroke="midnightblue" points="80.248,-51.5001 90.248,-48 80.2479,-44.5001 80.248,-51.5001"/>
</g>
<!-- Node4 -->
<g id="node4" class="node"><title>Node4</title>
<g id="a_node4"><a xlink:href="classSolverUtils_1_1GeoPrim_1_1CVector_a2134ad02d68f29e9c7cd87e4cd4c75b8.html#a2134ad02d68f29e9c7cd87e4cd4c75b8" target="_top" xlink:title="z">
<polygon fill="none" stroke="black" points="90.5,-0.5 90.5,-19.5 119.5,-19.5 119.5,-0.5 90.5,-0.5"/>
<text text-anchor="middle" x="105" y="-7.5" font-family="Helvetica,sans-Serif" font-size="10.00">z</text>
</a>
</g>
</g>
<!-- Node1&#45;&gt;Node4 -->
<g id="edge3" class="edge"><title>Node1&#45;&gt;Node4</title>
<path fill="none" stroke="midnightblue" d="M47.178,-38.411C57.4128,-33.2936 70.0847,-26.9576 80.8629,-21.5685"/>
<polygon fill="midnightblue" stroke="midnightblue" points="82.7256,-24.5504 90.1046,-16.9477 79.5951,-18.2894 82.7256,-24.5504"/>
</g>
</g>
</svg>
