<?xml version="1.0" encoding="UTF-8" standalone="no"?>
<!DOCTYPE svg PUBLIC "-//W3C//DTD SVG 1.1//EN"
 "http://www.w3.org/Graphics/SVG/1.1/DTD/svg11.dtd">
<!-- Generated by graphviz version 2.30.1 (20150305.2338)
 -->
<!-- Title: operator!= Pages: 1 -->
<svg width="198pt" height="104pt"
 viewBox="0.00 0.00 198.00 104.00" xmlns="http://www.w3.org/2000/svg" xmlns:xlink="http://www.w3.org/1999/xlink">
<g id="graph0" class="graph" transform="scale(1 1) rotate(0) translate(4 100)">
<title>operator!=</title>
<!-- Node1 -->
<g id="node1" class="node"><title>Node1</title>
<polygon fill="#bfbfbf" stroke="black" points="0.5,-38.5 0.5,-57.5 61.5,-57.5 61.5,-38.5 0.5,-38.5"/>
<text text-anchor="middle" x="31" y="-45.5" font-family="Helvetica,sans-Serif" font-size="10.00">operator!=</text>
</g>
<!-- Node2 -->
<g id="node2" class="node"><title>Node2</title>
<g id="a_node2"><a xlink:href="classVector__3_a042a7f83fef9d5d115d1f53beecacd2c.html#a042a7f83fef9d5d115d1f53beecacd2c" target="_top" xlink:title="Vector_3\&lt; T \&gt;::x">
<polygon fill="none" stroke="black" points="98.5,-76.5 98.5,-95.5 189.5,-95.5 189.5,-76.5 98.5,-76.5"/>
<text text-anchor="middle" x="144" y="-83.5" font-family="Helvetica,sans-Serif" font-size="10.00">Vector_3&lt; T &gt;::x</text>
</a>
</g>
</g>
<!-- Node1&#45;&gt;Node2 -->
<g id="edge1" class="edge"><title>Node1&#45;&gt;Node2</title>
<path fill="none" stroke="midnightblue" d="M61.746,-52.1259C79.8905,-57.2873 102.754,-65.2586 119.602,-72.3652"/>
<polygon fill="midnightblue" stroke="midnightblue" points="118.186,-75.5658 128.746,-76.4218 121.025,-69.1672 118.186,-75.5658"/>
</g>
<!-- Node1&#45;&gt;Node2 -->
<g id="edge2" class="edge"><title>Node1&#45;&gt;Node2</title>
<path fill="none" stroke="midnightblue" d="M46.5113,-57.6991C57.4123,-62.8102 73.0799,-68.8463 88.6292,-74.1353"/>
<polygon fill="midnightblue" stroke="midnightblue" points="87.6587,-77.5007 98.2519,-77.317 89.8562,-70.8546 87.6587,-77.5007"/>
</g>
<!-- Node3 -->
<g id="node3" class="node"><title>Node3</title>
<g id="a_node3"><a xlink:href="classVector__3_a0b50bd5bcd25dd6ac4139c7abf656e85.html#a0b50bd5bcd25dd6ac4139c7abf656e85" target="_top" xlink:title="Vector_3\&lt; T \&gt;::y">
<polygon fill="none" stroke="black" points="98.5,-38.5 98.5,-57.5 189.5,-57.5 189.5,-38.5 98.5,-38.5"/>
<text text-anchor="middle" x="144" y="-45.5" font-family="Helvetica,sans-Serif" font-size="10.00">Vector_3&lt; T &gt;::y</text>
</a>
</g>
</g>
<!-- Node1&#45;&gt;Node3 -->
<g id="edge3" class="edge"><title>Node1&#45;&gt;Node3</title>
<path fill="none" stroke="midnightblue" d="M61.746,-41.9426C69.8645,-41.4726 78.9277,-41.2419 87.9742,-41.2502"/>
<polygon fill="midnightblue" stroke="midnightblue" points="88.0918,-44.7516 98.1295,-41.3613 88.1684,-37.752 88.0918,-44.7516"/>
</g>
<!-- Node1&#45;&gt;Node3 -->
<g id="edge4" class="edge"><title>Node1&#45;&gt;Node3</title>
<path fill="none" stroke="midnightblue" d="M61.746,-54.0574C69.8645,-54.5274 78.9277,-54.7581 87.9742,-54.7498"/>
<polygon fill="midnightblue" stroke="midnightblue" points="88.1684,-58.248 98.1295,-54.6387 88.0918,-51.2484 88.1684,-58.248"/>
</g>
<!-- Node4 -->
<g id="node4" class="node"><title>Node4</title>
<g id="a_node4"><a xlink:href="classVector__3_ae098ae990ee5ff007f41f62d8ff13764.html#ae098ae990ee5ff007f41f62d8ff13764" target="_top" xlink:title="Vector_3\&lt; T \&gt;::z">
<polygon fill="none" stroke="black" points="98.5,-0.5 98.5,-19.5 189.5,-19.5 189.5,-0.5 98.5,-0.5"/>
<text text-anchor="middle" x="144" y="-7.5" font-family="Helvetica,sans-Serif" font-size="10.00">Vector_3&lt; T &gt;::z</text>
</a>
</g>
</g>
<!-- Node1&#45;&gt;Node4 -->
<g id="edge5" class="edge"><title>Node1&#45;&gt;Node4</title>
<path fill="none" stroke="midnightblue" d="M46.5113,-38.3009C57.4123,-33.1898 73.0799,-27.1537 88.6292,-21.8647"/>
<polygon fill="midnightblue" stroke="midnightblue" points="89.8562,-25.1454 98.2519,-18.683 87.6587,-18.4993 89.8562,-25.1454"/>
</g>
<!-- Node1&#45;&gt;Node4 -->
<g id="edge6" class="edge"><title>Node1&#45;&gt;Node4</title>
<path fill="none" stroke="midnightblue" d="M61.746,-43.8741C79.8905,-38.7127 102.754,-30.7414 119.602,-23.6348"/>
<polygon fill="midnightblue" stroke="midnightblue" points="121.025,-26.8328 128.746,-19.5782 118.186,-20.4342 121.025,-26.8328"/>
</g>
</g>
</svg>
