<?xml version="1.0" encoding="UTF-8" standalone="no"?>
<!DOCTYPE svg PUBLIC "-//W3C//DTD SVG 1.1//EN"
 "http://www.w3.org/Graphics/SVG/1.1/DTD/svg11.dtd">
<!-- Generated by graphviz version 2.30.1 (20150305.2338)
 -->
<!-- Title: get_origin Pages: 1 -->
<svg width="232pt" height="180pt"
 viewBox="0.00 0.00 232.00 180.00" xmlns="http://www.w3.org/2000/svg" xmlns:xlink="http://www.w3.org/1999/xlink">
<g id="graph0" class="graph" transform="scale(1 1) rotate(0) translate(4 176)">
<title>get_origin</title>
<!-- Node1 -->
<g id="node1" class="node"><title>Node1</title>
<polygon fill="#bfbfbf" stroke="black" points="0.5,-76.5 0.5,-95.5 59.5,-95.5 59.5,-76.5 0.5,-76.5"/>
<text text-anchor="middle" x="30" y="-83.5" font-family="Helvetica,sans-Serif" font-size="10.00">get_origin</text>
</g>
<!-- Node2 -->
<g id="node2" class="node"><title>Node2</title>
<g id="a_node2"><a xlink:href="classSimple__manifold__2_a05075db38eafb64582a849f6d66a5e6d.html#a05075db38eafb64582a849f6d66a5e6d" target="_top" xlink:title="Obtain the ID of a border node. ">
<polygon fill="none" stroke="black" points="110.5,-152.5 110.5,-171.5 209.5,-171.5 209.5,-152.5 110.5,-152.5"/>
<text text-anchor="middle" x="160" y="-159.5" font-family="Helvetica,sans-Serif" font-size="10.00">get_a_border_node</text>
</a>
</g>
</g>
<!-- Node1&#45;&gt;Node2 -->
<g id="edge1" class="edge"><title>Node1&#45;&gt;Node2</title>
<path fill="none" stroke="midnightblue" d="M46.911,-103.498C59.2158,-116.085 77.2657,-132.609 96,-143 102.793,-146.768 110.423,-149.875 117.965,-152.406"/>
<polygon fill="midnightblue" stroke="midnightblue" points="49.1257,-100.747 39.7052,-95.8991 44.0462,-105.564 49.1257,-100.747"/>
</g>
<!-- Node3 -->
<g id="node3" class="node"><title>Node3</title>
<g id="a_node3"><a xlink:href="classSimple__manifold__2_ae52132cad7d53fd486d7d4c110068004.html#ae52132cad7d53fd486d7d4c110068004" target="_top" xlink:title="Obtain the ID of a border node of the ghost part of the pane. ">
<polygon fill="none" stroke="black" points="96,-114.5 96,-133.5 224,-133.5 224,-114.5 96,-114.5"/>
<text text-anchor="middle" x="160" y="-121.5" font-family="Helvetica,sans-Serif" font-size="10.00">get_a_ghost_border_node</text>
</a>
</g>
</g>
<!-- Node1&#45;&gt;Node3 -->
<g id="edge2" class="edge"><title>Node1&#45;&gt;Node3</title>
<path fill="none" stroke="midnightblue" d="M69.4914,-97.4271C87.7702,-102.854 109.368,-109.266 126.769,-114.431"/>
<polygon fill="midnightblue" stroke="midnightblue" points="70.3083,-94.0187 59.7257,-94.5279 68.3161,-100.729 70.3083,-94.0187"/>
</g>
<!-- Node4 -->
<g id="node4" class="node"><title>Node4</title>
<g id="a_node4"><a xlink:href="classSimple__manifold__2_a6a6cc68c2360dc9c8aef70bc9d9547ec.html#a6a6cc68c2360dc9c8aef70bc9d9547ec" target="_top" xlink:title="Obtain the ID of a border node of the real part of the pane. ">
<polygon fill="none" stroke="black" points="100,-76.5 100,-95.5 220,-95.5 220,-76.5 100,-76.5"/>
<text text-anchor="middle" x="160" y="-83.5" font-family="Helvetica,sans-Serif" font-size="10.00">get_a_real_border_node</text>
</a>
</g>
</g>
<!-- Node1&#45;&gt;Node4 -->
<g id="edge3" class="edge"><title>Node1&#45;&gt;Node4</title>
<path fill="none" stroke="midnightblue" d="M70,-86C79.4754,-86 89.8184,-86 99.9921,-86"/>
<polygon fill="midnightblue" stroke="midnightblue" points="69.7257,-82.5001 59.7257,-86 69.7257,-89.5001 69.7257,-82.5001"/>
</g>
<!-- Node5 -->
<g id="node5" class="node"><title>Node5</title>
<g id="a_node5"><a xlink:href="classSimple__manifold__2_a306844d8bb7a3ba531f04bc8481b582b.html#a306844d8bb7a3ba531f04bc8481b582b" target="_top" xlink:title="Get the ID of an incident edge within the pane of a given node that originated from the node...">
<polygon fill="none" stroke="black" points="112.5,-38.5 112.5,-57.5 207.5,-57.5 207.5,-38.5 112.5,-38.5"/>
<text text-anchor="middle" x="160" y="-45.5" font-family="Helvetica,sans-Serif" font-size="10.00">get_incident_edge</text>
</a>
</g>
</g>
<!-- Node1&#45;&gt;Node5 -->
<g id="edge4" class="edge"><title>Node1&#45;&gt;Node5</title>
<path fill="none" stroke="midnightblue" d="M69.4914,-74.5729C87.7702,-69.1464 109.368,-62.7344 126.769,-57.5687"/>
<polygon fill="midnightblue" stroke="midnightblue" points="68.3161,-71.2707 59.7257,-77.4721 70.3083,-77.9813 68.3161,-71.2707"/>
</g>
<!-- Node6 -->
<g id="node6" class="node"><title>Node6</title>
<g id="a_node6"><a xlink:href="classSimple__manifold__2_afaabce069f16be292e5dd4d8064bcd99.html#afaabce069f16be292e5dd4d8064bcd99" target="_top" xlink:title="Get the ID of an incident real edge within the pane of a given node. ">
<polygon fill="none" stroke="black" points="102,-0.5 102,-19.5 218,-19.5 218,-0.5 102,-0.5"/>
<text text-anchor="middle" x="160" y="-7.5" font-family="Helvetica,sans-Serif" font-size="10.00">get_incident_real_edge</text>
</a>
</g>
</g>
<!-- Node1&#45;&gt;Node6 -->
<g id="edge5" class="edge"><title>Node1&#45;&gt;Node6</title>
<path fill="none" stroke="midnightblue" d="M46.911,-68.5017C59.2158,-55.9146 77.2657,-39.3912 96,-29 102.793,-25.232 110.423,-22.1251 117.965,-19.5941"/>
<polygon fill="midnightblue" stroke="midnightblue" points="44.0462,-66.4362 39.7052,-76.1009 49.1257,-71.2528 44.0462,-66.4362"/>
</g>
</g>
</svg>
