<?xml version="1.0" encoding="UTF-8" standalone="no"?>
<!DOCTYPE svg PUBLIC "-//W3C//DTD SVG 1.1//EN"
 "http://www.w3.org/Graphics/SVG/1.1/DTD/svg11.dtd">
<!-- Generated by graphviz version 2.30.1 (20150305.2338)
 -->
<!-- Title: SetRunMode Pages: 1 -->
<!--zoomable 372 -->
<svg id="main" version="1.1" xmlns="http://www.w3.org/2000/svg" xmlns:xlink="http://www.w3.org/1999/xlink" xml:space="preserve" onload="init(evt)">
<style type="text/css"><![CDATA[
.edge:hover path { stroke: red; }
.edge:hover polygon { stroke: red; fill: red; }
]]></style>
<script type="text/javascript"><![CDATA[
var edges = document.getElementsByTagName('g');
if (edges && edges.length) {
  for (var i=0;i<edges.length;i++) {
    if (edges[i].id.substr(0,4)=='edge') {
      edges[i].setAttribute('class','edge');
    }
  }
}
]]></script>
        <defs>
                <circle id="rim" cx="0" cy="0" r="7"/>
                <circle id="rim2" cx="0" cy="0" r="3.5"/>
                <g id="zoomPlus">
                        <use xlink:href="#rim" fill="#404040">
                                <set attributeName="fill" to="#808080" begin="zoomplus.mouseover" end="zoomplus.mouseout"/>
                        </use>
                        <path d="M-4,0h8M0,-4v8" fill="none" stroke="white" stroke-width="1.5" pointer-events="none"/>
                </g>
                <g id="zoomMin">
                        <use xlink:href="#rim" fill="#404040">
                                <set attributeName="fill" to="#808080" begin="zoomminus.mouseover" end="zoomminus.mouseout"/>
                        </use>
                        <path d="M-4,0h8" fill="none" stroke="white" stroke-width="1.5" pointer-events="none"/>
                </g>
                <g id="dirArrow">
                        <path fill="none" stroke="white" stroke-width="1.5" d="M0,-3.0v7 M-2.5,-0.5L0,-3.0L2.5,-0.5"/>
                </g>
               <g id="resetDef">
                       <use xlink:href="#rim2" fill="#404040">
                               <set attributeName="fill" to="#808080" begin="reset.mouseover" end="reset.mouseout"/>
                       </use>
               </g>
        </defs>

<script type="text/javascript">
var viewWidth = 950;
var viewHeight = 372;
var sectionId = 'dynsection-0';
</script>
<script xlink:href="svgpan.js"/>
<svg id="graph" class="graph">
<g id="viewport">
<title>SetRunMode</title>
<!-- Node1 -->
<g id="node1" class="node"><title>Node1</title>
<polygon fill="#bfbfbf" stroke="black" points="0,-226.5 0,-245.5 74,-245.5 74,-226.5 0,-226.5"/>
<text text-anchor="middle" x="37" y="-233.5" font-family="Helvetica,sans-Serif" font-size="10.00">SetRunMode</text>
</g>
<!-- Node2 -->
<g id="node2" class="node"><title>Node2</title>
<g id="a_node2"><a xlink:href="classElmerFoamFSI_1_1SerialDriverProgram_a5803949d99491a7186bf1ee9cee81a3b.html#a5803949d99491a7186bf1ee9cee81a3b" target="_top" xlink:title="This function implements the main function executed by the program. ">
<polygon fill="none" stroke="black" points="122,-334 122,-364 262,-364 262,-334 122,-334"/>
<text text-anchor="start" x="130" y="-352" font-family="Helvetica,sans-Serif" font-size="10.00">ElmerFoamFSI::SerialDriver</text>
<text text-anchor="middle" x="192" y="-341" font-family="Helvetica,sans-Serif" font-size="10.00">Program::DriverRun</text>
</a>
</g>
</g>
<!-- Node1&#45;&gt;Node2 -->
<g id="edge1" class="edge"><title>Node1&#45;&gt;Node2</title>
<path fill="none" stroke="midnightblue" d="M50.4378,-254.031C63.5017,-271.829 85.5224,-298.803 110,-316 120.189,-323.158 132.161,-329.116 143.728,-333.909"/>
<polygon fill="midnightblue" stroke="midnightblue" points="53.1186,-251.762 44.4571,-245.66 47.4231,-255.832 53.1186,-251.762"/>
</g>
<!-- Node4 -->
<g id="node4" class="node"><title>Node4</title>
<g id="a_node4"><a xlink:href="classElmerFoamFSI_1_1TestingObject_aa7d577bcec96bb12da930ede076b6023.html#aa7d577bcec96bb12da930ede076b6023" target="_top" xlink:title="Test for fluidAgent&#45;&gt;Run() function. ">
<polygon fill="none" stroke="black" points="328.5,-147 328.5,-177 477.5,-177 477.5,-147 328.5,-147"/>
<text text-anchor="start" x="336.5" y="-165" font-family="Helvetica,sans-Serif" font-size="10.00">ElmerFoamFSI::TestingObject</text>
<text text-anchor="middle" x="403" y="-154" font-family="Helvetica,sans-Serif" font-size="10.00">::Test__FluidAgentRun</text>
</a>
</g>
</g>
<!-- Node1&#45;&gt;Node4 -->
<g id="edge3" class="edge"><title>Node1&#45;&gt;Node4</title>
<path fill="none" stroke="midnightblue" d="M80.0295,-223.655C89.8241,-220.965 100.243,-218.253 110,-216 183.842,-198.951 269.161,-183.677 328.429,-173.76"/>
<polygon fill="midnightblue" stroke="midnightblue" points="78.7909,-220.367 70.1025,-226.431 80.6756,-227.109 78.7909,-220.367"/>
</g>
<!-- Node10 -->
<g id="node10" class="node"><title>Node10</title>
<g id="a_node10"><a xlink:href="classElmerFoamFSI_1_1TestingObject_a4447b305a9896c53dbfb1c57b3854e2b.html#a4447b305a9896c53dbfb1c57b3854e2b" target="_top" xlink:title="Initalize function for the fsiCoupler and agents. ">
<polygon fill="none" stroke="black" points="110,-73 110,-103 274,-103 274,-73 110,-73"/>
<text text-anchor="start" x="118" y="-91" font-family="Helvetica,sans-Serif" font-size="10.00">ElmerFoamFSI::TestingObject</text>
<text text-anchor="middle" x="192" y="-80" font-family="Helvetica,sans-Serif" font-size="10.00">::Test__fsiCouplerAgentsInitialize</text>
</a>
</g>
</g>
<!-- Node1&#45;&gt;Node10 -->
<g id="edge10" class="edge"><title>Node1&#45;&gt;Node10</title>
<path fill="none" stroke="midnightblue" d="M52.5934,-218.407C66.6905,-201.753 88.9439,-176.343 110,-156 129.939,-136.736 154.538,-116.539 171.362,-103.212"/>
<polygon fill="midnightblue" stroke="midnightblue" points="49.7632,-216.335 46.0146,-226.244 55.1247,-220.835 49.7632,-216.335"/>
</g>
<!-- Node14 -->
<g id="node14" class="node"><title>Node14</title>
<g id="a_node14"><a xlink:href="classElmerFoamFSI_1_1TestingObject_a1fae1ccecf337df1572d5a43cdae1a08.html#a1fae1ccecf337df1572d5a43cdae1a08" target="_top" xlink:title="Test for solidAgent&#45;&gt;Run() function. ">
<polygon fill="none" stroke="black" points="328.5,-294 328.5,-324 477.5,-324 477.5,-294 328.5,-294"/>
<text text-anchor="start" x="336.5" y="-312" font-family="Helvetica,sans-Serif" font-size="10.00">ElmerFoamFSI::TestingObject</text>
<text text-anchor="middle" x="403" y="-301" font-family="Helvetica,sans-Serif" font-size="10.00">::Test__SolidAgentRun</text>
</a>
</g>
</g>
<!-- Node1&#45;&gt;Node14 -->
<g id="edge20" class="edge"><title>Node1&#45;&gt;Node14</title>
<path fill="none" stroke="midnightblue" d="M71.9023,-249.112C83.8134,-253.359 97.375,-257.796 110,-261 183.324,-279.611 268.905,-292.692 328.383,-300.449"/>
<polygon fill="midnightblue" stroke="midnightblue" points="72.9358,-245.763 62.3419,-245.62 70.5342,-252.338 72.9358,-245.763"/>
</g>
<!-- Node15 -->
<g id="node15" class="node"><title>Node15</title>
<g id="a_node15"><a xlink:href="classElmerFoamFSI_1_1TestingObject_abb3c0f68a2d2e212fa6e05e4628c78f0.html#abb3c0f68a2d2e212fa6e05e4628c78f0" target="_top" xlink:title="Test for fsiCoupling::TrasferDisplacementsToFluid function. ">
<polygon fill="none" stroke="black" points="310,-245 310,-275 496,-275 496,-245 310,-245"/>
<text text-anchor="start" x="318" y="-263" font-family="Helvetica,sans-Serif" font-size="10.00">ElmerFoamFSI::TestingObject</text>
<text text-anchor="middle" x="403" y="-252" font-family="Helvetica,sans-Serif" font-size="10.00">::Test__TransferDisplacementsToFluid</text>
</a>
</g>
</g>
<!-- Node1&#45;&gt;Node15 -->
<g id="edge23" class="edge"><title>Node1&#45;&gt;Node15</title>
<path fill="none" stroke="midnightblue" d="M84.3124,-239.054C140.902,-242.785 237.988,-249.186 309.978,-253.933"/>
<polygon fill="midnightblue" stroke="midnightblue" points="84.4411,-235.555 74.2325,-238.389 83.9805,-242.539 84.4411,-235.555"/>
</g>
<!-- Node16 -->
<g id="node16" class="node"><title>Node16</title>
<g id="a_node16"><a xlink:href="classElmerFoamFSI_1_1TestingObject_a8c738943eca358248eb583bd29c5c332.html#a8c738943eca358248eb583bd29c5c332" target="_top" xlink:title="Test for TransferLoadsToStructures() function. ">
<polygon fill="none" stroke="black" points="317.5,-196 317.5,-226 488.5,-226 488.5,-196 317.5,-196"/>
<text text-anchor="start" x="325.5" y="-214" font-family="Helvetica,sans-Serif" font-size="10.00">ElmerFoamFSI::TestingObject</text>
<text text-anchor="middle" x="403" y="-203" font-family="Helvetica,sans-Serif" font-size="10.00">::Test__TransferLoadsToStructures</text>
</a>
</g>
</g>
<!-- Node1&#45;&gt;Node16 -->
<g id="edge26" class="edge"><title>Node1&#45;&gt;Node16</title>
<path fill="none" stroke="midnightblue" d="M84.2973,-232.82C142.868,-228.798 244.839,-221.794 317.454,-216.807"/>
<polygon fill="midnightblue" stroke="midnightblue" points="83.9691,-229.334 74.2325,-233.512 84.4488,-236.318 83.9691,-229.334"/>
</g>
<!-- Node3 -->
<g id="node3" class="node"><title>Node3</title>
<g id="a_node3"><a xlink:href="namespaceElmerFoamFSI_aff46f457934a8e2d3712bdbfb1688e99.html#aff46f457934a8e2d3712bdbfb1688e99" target="_top" xlink:title="Unified driver for the example programs. ">
<polygon fill="none" stroke="black" points="345.5,-343.5 345.5,-362.5 460.5,-362.5 460.5,-343.5 345.5,-343.5"/>
<text text-anchor="middle" x="403" y="-350.5" font-family="Helvetica,sans-Serif" font-size="10.00">ElmerFoamFSI::Driver</text>
</a>
</g>
</g>
<!-- Node2&#45;&gt;Node3 -->
<g id="edge2" class="edge"><title>Node2&#45;&gt;Node3</title>
<path fill="none" stroke="midnightblue" d="M272.286,-350.517C296.571,-350.982 322.788,-351.484 345.253,-351.914"/>
<polygon fill="midnightblue" stroke="midnightblue" points="272.079,-347.013 262.014,-350.321 271.945,-354.012 272.079,-347.013"/>
</g>
<!-- Node5 -->
<g id="node5" class="node"><title>Node5</title>
<g id="a_node5"><a xlink:href="classElmerFoamFSI_1_1TestingObject_a046f7ab06db0acf616b0d2bf3d3146aa.html#a046f7ab06db0acf616b0d2bf3d3146aa" target="_top" xlink:title="Runs all tests implemented by the ElmerFoamFSI::TestingObject. ">
<polygon fill="none" stroke="black" points="532.5,-171 532.5,-201 681.5,-201 681.5,-171 532.5,-171"/>
<text text-anchor="start" x="540.5" y="-189" font-family="Helvetica,sans-Serif" font-size="10.00">ElmerFoamFSI::TestingObject</text>
<text text-anchor="middle" x="607" y="-178" font-family="Helvetica,sans-Serif" font-size="10.00">::Process</text>
</a>
</g>
</g>
<!-- Node4&#45;&gt;Node5 -->
<g id="edge4" class="edge"><title>Node4&#45;&gt;Node5</title>
<path fill="none" stroke="midnightblue" d="M487.913,-171.97C502.683,-173.725 517.955,-175.539 532.416,-177.257"/>
<polygon fill="midnightblue" stroke="midnightblue" points="488.127,-168.471 477.784,-170.766 487.301,-175.422 488.127,-168.471"/>
</g>
<!-- Node8 -->
<g id="node8" class="node"><title>Node8</title>
<g id="a_node8"><a xlink:href="classElmerFoamFSI_1_1TestingObject_af1f07f14b9af7708e4264bb38937eed2.html#af1f07f14b9af7708e4264bb38937eed2" target="_top" xlink:title="Runs a test specified by name. ">
<polygon fill="none" stroke="black" points="532.5,-122 532.5,-152 681.5,-152 681.5,-122 532.5,-122"/>
<text text-anchor="start" x="540.5" y="-140" font-family="Helvetica,sans-Serif" font-size="10.00">ElmerFoamFSI::TestingObject</text>
<text text-anchor="middle" x="607" y="-129" font-family="Helvetica,sans-Serif" font-size="10.00">::RunTest</text>
</a>
</g>
</g>
<!-- Node4&#45;&gt;Node8 -->
<g id="edge7" class="edge"><title>Node4&#45;&gt;Node8</title>
<path fill="none" stroke="midnightblue" d="M487.913,-151.615C502.683,-149.787 517.955,-147.897 532.416,-146.107"/>
<polygon fill="midnightblue" stroke="midnightblue" points="487.278,-148.166 477.784,-152.868 488.138,-155.113 487.278,-148.166"/>
</g>
<!-- Node6 -->
<g id="node6" class="node"><title>Node6</title>
<g id="a_node6"><a xlink:href="namespaceElmerFoamFSI_aeb590657609088b8ab12a5cbd164fcfa.html#aeb590657609088b8ab12a5cbd164fcfa" target="_top" xlink:title="Drives the ElmerFoamFSI::TestObject. ">
<polygon fill="none" stroke="black" points="739,-173.5 739,-192.5 847,-192.5 847,-173.5 739,-173.5"/>
<text text-anchor="middle" x="793" y="-180.5" font-family="Helvetica,sans-Serif" font-size="10.00">ElmerFoamFSI::Test</text>
</a>
</g>
</g>
<!-- Node5&#45;&gt;Node6 -->
<g id="edge5" class="edge"><title>Node5&#45;&gt;Node6</title>
<path fill="none" stroke="midnightblue" d="M691.963,-184.631C707.966,-184.37 724.296,-184.104 738.996,-183.864"/>
<polygon fill="midnightblue" stroke="midnightblue" points="691.457,-181.139 681.515,-184.801 691.571,-188.138 691.457,-181.139"/>
</g>
<!-- Node7 -->
<g id="node7" class="node"><title>Node7</title>
<g id="a_node7"><a xlink:href="TestElmerFoamFSI_8C_a0ddf1224851353fc92bfbff6f499fa97.html#a0ddf1224851353fc92bfbff6f499fa97" target="_top" xlink:title="main">
<polygon fill="none" stroke="black" points="904,-173.5 904,-192.5 942,-192.5 942,-173.5 904,-173.5"/>
<text text-anchor="middle" x="923" y="-180.5" font-family="Helvetica,sans-Serif" font-size="10.00">main</text>
</a>
</g>
</g>
<!-- Node6&#45;&gt;Node7 -->
<g id="edge6" class="edge"><title>Node6&#45;&gt;Node7</title>
<path fill="none" stroke="midnightblue" d="M857.193,-183C874.293,-183 891.469,-183 903.838,-183"/>
<polygon fill="midnightblue" stroke="midnightblue" points="857.172,-179.5 847.172,-183 857.171,-186.5 857.172,-179.5"/>
</g>
<!-- Node9 -->
<g id="node9" class="node"><title>Node9</title>
<g id="a_node9"><a xlink:href="classElmerFoamFSI_1_1TestingObject_a21159bd2efac623e5a5079f6a20f3444.html#a21159bd2efac623e5a5079f6a20f3444" target="_top" xlink:title="Runs a list of tests specified by name. ">
<polygon fill="none" stroke="black" points="718.5,-122 718.5,-152 867.5,-152 867.5,-122 718.5,-122"/>
<text text-anchor="start" x="726.5" y="-140" font-family="Helvetica,sans-Serif" font-size="10.00">ElmerFoamFSI::TestingObject</text>
<text text-anchor="middle" x="793" y="-129" font-family="Helvetica,sans-Serif" font-size="10.00">::ProcessTests</text>
</a>
</g>
</g>
<!-- Node8&#45;&gt;Node9 -->
<g id="edge8" class="edge"><title>Node8&#45;&gt;Node9</title>
<path fill="none" stroke="midnightblue" d="M691.533,-137C700.462,-137 709.498,-137 718.302,-137"/>
<polygon fill="midnightblue" stroke="midnightblue" points="691.515,-133.5 681.515,-137 691.515,-140.5 691.515,-133.5"/>
</g>
<!-- Node8&#45;&gt;Node6 -->
<g id="edge9" class="edge"><title>Node8&#45;&gt;Node6</title>
<path fill="none" stroke="midnightblue" d="M677.986,-154.497C703.754,-160.939 731.97,-167.992 753.886,-173.471"/>
<polygon fill="midnightblue" stroke="midnightblue" points="678.799,-151.092 668.248,-152.062 677.101,-157.883 678.799,-151.092"/>
</g>
<!-- Node11 -->
<g id="node11" class="node"><title>Node11</title>
<g id="a_node11"><a xlink:href="classElmerFoamFSI_1_1TestingObject_a07ff57097065c5066a4421176b63242b.html#a07ff57097065c5066a4421176b63242b" target="_top" xlink:title="Test the functionality of the fsiCoupler. ">
<polygon fill="none" stroke="black" points="328.5,-98 328.5,-128 477.5,-128 477.5,-98 328.5,-98"/>
<text text-anchor="start" x="336.5" y="-116" font-family="Helvetica,sans-Serif" font-size="10.00">ElmerFoamFSI::TestingObject</text>
<text text-anchor="middle" x="403" y="-105" font-family="Helvetica,sans-Serif" font-size="10.00">::Test__FsiCoupler</text>
</a>
</g>
</g>
<!-- Node10&#45;&gt;Node11 -->
<g id="edge11" class="edge"><title>Node10&#45;&gt;Node11</title>
<path fill="none" stroke="midnightblue" d="M284.26,-98.9162C299.033,-100.683 314.166,-102.493 328.45,-104.202"/>
<polygon fill="midnightblue" stroke="midnightblue" points="284.449,-95.414 274.104,-97.7014 283.617,-102.364 284.449,-95.414"/>
</g>
<!-- Node12 -->
<g id="node12" class="node"><title>Node12</title>
<g id="a_node12"><a xlink:href="classElmerFoamFSI_1_1TestingObject_af35b4f0c5c244be91e637c17b3ebabd9.html#af35b4f0c5c244be91e637c17b3ebabd9" target="_top" xlink:title="Run an initialization check to make sure that the ElmerStructures are running as they should...">
<polygon fill="none" stroke="black" points="328.5,-49 328.5,-79 477.5,-79 477.5,-49 328.5,-49"/>
<text text-anchor="start" x="336.5" y="-67" font-family="Helvetica,sans-Serif" font-size="10.00">ElmerFoamFSI::TestingObject</text>
<text text-anchor="middle" x="403" y="-56" font-family="Helvetica,sans-Serif" font-size="10.00">::Test__ElmerStructures</text>
</a>
</g>
</g>
<!-- Node10&#45;&gt;Node12 -->
<g id="edge14" class="edge"><title>Node10&#45;&gt;Node12</title>
<path fill="none" stroke="midnightblue" d="M284.26,-77.5204C299.033,-75.8239 314.166,-74.0862 328.45,-72.4459"/>
<polygon fill="midnightblue" stroke="midnightblue" points="283.639,-74.0686 274.104,-78.6866 284.438,-81.0229 283.639,-74.0686"/>
</g>
<!-- Node13 -->
<g id="node13" class="node"><title>Node13</title>
<g id="a_node13"><a xlink:href="classElmerFoamFSI_1_1TestingObject_a08d0370a943e7c47c0098eb76664a71b.html#a08d0370a943e7c47c0098eb76664a71b" target="_top" xlink:title="Run an initialization check to make sure the OpenFoamFluids are running as they should. ">
<polygon fill="none" stroke="black" points="328.5,-0 328.5,-30 477.5,-30 477.5,-0 328.5,-0"/>
<text text-anchor="start" x="336.5" y="-18" font-family="Helvetica,sans-Serif" font-size="10.00">ElmerFoamFSI::TestingObject</text>
<text text-anchor="middle" x="403" y="-7" font-family="Helvetica,sans-Serif" font-size="10.00">::Test__OpenFoamFluids</text>
</a>
</g>
</g>
<!-- Node10&#45;&gt;Node13 -->
<g id="edge17" class="edge"><title>Node10&#45;&gt;Node13</title>
<path fill="none" stroke="midnightblue" d="M234.952,-68.7335C257.002,-59.0421 284.648,-47.5676 310,-39 319.383,-35.8291 329.421,-32.8263 339.292,-30.0868"/>
<polygon fill="midnightblue" stroke="midnightblue" points="233.276,-65.6478 225.556,-72.9035 236.116,-72.0459 233.276,-65.6478"/>
</g>
<!-- Node11&#45;&gt;Node5 -->
<g id="edge12" class="edge"><title>Node11&#45;&gt;Node5</title>
<path fill="none" stroke="midnightblue" d="M481.716,-131.269C486.611,-133.034 491.411,-134.942 496,-137 513.546,-144.869 514.743,-152.516 532,-161 539.423,-164.649 547.511,-167.979 555.524,-170.934"/>
<polygon fill="midnightblue" stroke="midnightblue" points="482.808,-127.944 472.213,-128.05 480.562,-134.574 482.808,-127.944"/>
</g>
<!-- Node11&#45;&gt;Node8 -->
<g id="edge13" class="edge"><title>Node11&#45;&gt;Node8</title>
<path fill="none" stroke="midnightblue" d="M487.913,-122.97C502.683,-124.725 517.955,-126.539 532.416,-128.257"/>
<polygon fill="midnightblue" stroke="midnightblue" points="488.127,-119.471 477.784,-121.766 487.301,-126.422 488.127,-119.471"/>
</g>
<!-- Node12&#45;&gt;Node5 -->
<g id="edge15" class="edge"><title>Node12&#45;&gt;Node5</title>
<path fill="none" stroke="midnightblue" d="M486.66,-81.532C489.944,-83.4691 493.077,-85.6175 496,-88 524.04,-110.857 504.785,-137.168 532,-161 536.387,-164.841 541.388,-168.098 546.673,-170.857"/>
<polygon fill="midnightblue" stroke="midnightblue" points="488.15,-78.3624 477.659,-76.8822 484.937,-84.5816 488.15,-78.3624"/>
</g>
<!-- Node12&#45;&gt;Node8 -->
<g id="edge16" class="edge"><title>Node12&#45;&gt;Node8</title>
<path fill="none" stroke="midnightblue" d="M477.288,-81.9503C483.657,-83.8624 489.969,-85.8859 496,-88 523.621,-97.6814 553.93,-111.428 575.725,-121.899"/>
<polygon fill="midnightblue" stroke="midnightblue" points="477.844,-78.4672 467.265,-79.0403 475.892,-85.1896 477.844,-78.4672"/>
</g>
<!-- Node13&#45;&gt;Node5 -->
<g id="edge18" class="edge"><title>Node13&#45;&gt;Node5</title>
<path fill="none" stroke="midnightblue" d="M486.462,-31.4498C489.875,-33.6687 493.082,-36.1736 496,-39 536.605,-78.3356 492.809,-120.256 532,-161 535.76,-164.909 540.152,-168.207 544.886,-170.99"/>
<polygon fill="midnightblue" stroke="midnightblue" points="488.036,-28.3202 477.598,-26.5028 484.624,-34.4326 488.036,-28.3202"/>
</g>
<!-- Node13&#45;&gt;Node8 -->
<g id="edge19" class="edge"><title>Node13&#45;&gt;Node8</title>
<path fill="none" stroke="midnightblue" d="M485.091,-33.7878C488.842,-35.3914 492.498,-37.1255 496,-39 536.589,-60.7268 574.482,-100.35 593.404,-121.961"/>
<polygon fill="midnightblue" stroke="midnightblue" points="486.194,-30.461 475.607,-30.0649 483.637,-36.9769 486.194,-30.461"/>
</g>
<!-- Node14&#45;&gt;Node5 -->
<g id="edge21" class="edge"><title>Node14&#45;&gt;Node5</title>
<path fill="none" stroke="midnightblue" d="M482.727,-290.302C487.306,-288.39 491.766,-286.294 496,-284 536.253,-262.189 573.995,-222.967 593.057,-201.345"/>
<polygon fill="midnightblue" stroke="midnightblue" points="481.265,-287.114 473.192,-293.976 483.782,-293.646 481.265,-287.114"/>
</g>
<!-- Node14&#45;&gt;Node8 -->
<g id="edge22" class="edge"><title>Node14&#45;&gt;Node8</title>
<path fill="none" stroke="midnightblue" d="M486.486,-291.639C489.893,-289.387 493.092,-286.852 496,-284 536.666,-244.116 492.309,-201.854 532,-161 535.294,-157.61 539.07,-154.697 543.136,-152.196"/>
<polygon fill="midnightblue" stroke="midnightblue" points="484.595,-288.688 477.634,-296.675 488.057,-294.772 484.595,-288.688"/>
</g>
<!-- Node15&#45;&gt;Node5 -->
<g id="edge24" class="edge"><title>Node15&#45;&gt;Node5</title>
<path fill="none" stroke="midnightblue" d="M474.667,-241.989C481.92,-239.786 489.14,-237.444 496,-235 523.572,-225.179 553.885,-211.445 575.695,-201.015"/>
<polygon fill="midnightblue" stroke="midnightblue" points="473.387,-238.718 464.786,-244.905 475.368,-245.432 473.387,-238.718"/>
</g>
<!-- Node15&#45;&gt;Node8 -->
<g id="edge25" class="edge"><title>Node15&#45;&gt;Node8</title>
<path fill="none" stroke="midnightblue" d="M489.511,-239.786C491.766,-238.302 493.936,-236.709 496,-235 524.169,-211.672 504.403,-185.001 532,-161 535.975,-157.543 540.455,-154.583 545.196,-152.048"/>
<polygon fill="midnightblue" stroke="midnightblue" points="487.368,-236.98 480.435,-244.991 490.851,-243.052 487.368,-236.98"/>
</g>
<!-- Node16&#45;&gt;Node5 -->
<g id="edge27" class="edge"><title>Node16&#45;&gt;Node5</title>
<path fill="none" stroke="midnightblue" d="M499.02,-199.24C510.209,-197.855 521.496,-196.458 532.329,-195.118"/>
<polygon fill="midnightblue" stroke="midnightblue" points="498.283,-195.805 488.788,-200.506 499.142,-202.752 498.283,-195.805"/>
</g>
<!-- Node16&#45;&gt;Node8 -->
<g id="edge28" class="edge"><title>Node16&#45;&gt;Node8</title>
<path fill="none" stroke="midnightblue" d="M480.176,-192.525C485.61,-190.532 490.937,-188.36 496,-186 513.656,-177.771 514.548,-169.653 532,-161 538.655,-157.7 545.866,-154.71 553.087,-152.05"/>
<polygon fill="midnightblue" stroke="midnightblue" points="478.631,-189.356 470.315,-195.921 480.91,-195.974 478.631,-189.356"/>
</g>
</g>
</svg>
        <g id="navigator" transform="translate(0 0)" fill="#404254">
                <rect fill="#f2f5e9" fill-opacity="0.5" stroke="#606060" stroke-width=".5" x="0" y="0" width="60" height="60"/>
                <use id="zoomplus" xlink:href="#zoomPlus" x="17" y="9" onmousedown="handleZoom(evt,'in')"/>
                <use id="zoomminus" xlink:href="#zoomMin" x="42" y="9" onmousedown="handleZoom(evt,'out')"/>
                <use id="reset" xlink:href="#resetDef" x="30" y="36" onmousedown="handleReset()"/>
                <g id="arrowUp" xlink:href="#dirArrow" transform="translate(30 24)" onmousedown="handlePan(0,-1)">
                  <use xlink:href="#rim" fill="#404040">
                        <set attributeName="fill" to="#808080" begin="arrowUp.mouseover" end="arrowUp.mouseout"/>
                  </use>
                  <path fill="none" stroke="white" stroke-width="1.5" d="M0,-3.0v7 M-2.5,-0.5L0,-3.0L2.5,-0.5"/>
                </g>
                <g id="arrowRight" xlink:href="#dirArrow" transform="rotate(90) translate(36 -43)" onmousedown="handlePan(1,0)">
                  <use xlink:href="#rim" fill="#404040">
                        <set attributeName="fill" to="#808080" begin="arrowRight.mouseover" end="arrowRight.mouseout"/>
                  </use>
                  <path fill="none" stroke="white" stroke-width="1.5" d="M0,-3.0v7 M-2.5,-0.5L0,-3.0L2.5,-0.5"/>
                </g>
                <g id="arrowDown" xlink:href="#dirArrow" transform="rotate(180) translate(-30 -48)" onmousedown="handlePan(0,1)">
                  <use xlink:href="#rim" fill="#404040">
                        <set attributeName="fill" to="#808080" begin="arrowDown.mouseover" end="arrowDown.mouseout"/>
                  </use>
                  <path fill="none" stroke="white" stroke-width="1.5" d="M0,-3.0v7 M-2.5,-0.5L0,-3.0L2.5,-0.5"/>
                </g>
                <g id="arrowLeft" xlink:href="#dirArrow" transform="rotate(270) translate(-36 17)" onmousedown="handlePan(-1,0)">
                  <use xlink:href="#rim" fill="#404040">
                        <set attributeName="fill" to="#808080" begin="arrowLeft.mouseover" end="arrowLeft.mouseout"/>
                  </use>
                  <path fill="none" stroke="white" stroke-width="1.5" d="M0,-3.0v7 M-2.5,-0.5L0,-3.0L2.5,-0.5"/>
                </g>
        </g>
        <svg viewBox="0 0 15 15" width="100%" height="30px" preserveAspectRatio="xMaxYMin meet">
         <g id="arrow_out" transform="scale(0.3 0.3)">
          <a xlink:href="classfsicoupling_a9339a46a8a7f217e05784068f5ac0b9d_a9339a46a8a7f217e05784068f5ac0b9d_icgraph_org.svg" target="_base">
           <rect id="button" ry="5" rx="5" y="6" x="6" height="38" width="38"
                fill="#f2f5e9" fill-opacity="0.5" stroke="#606060" stroke-width="1.0"/>
           <path id="arrow"
             d="M 11.500037,31.436501 C 11.940474,20.09759 22.043105,11.32322 32.158766,21.979434 L 37.068811,17.246167 C 37.068811,17.246167 37.088388,32 37.088388,32 L 22.160133,31.978069 C 22.160133,31.978069 26.997745,27.140456 26.997745,27.140456 C 18.528582,18.264221 13.291696,25.230495 11.500037,31.436501 z"
             style="fill:#404040;"/>
          </a>
         </g>
        </svg>
</svg>
