<?xml version="1.0" encoding="UTF-8" standalone="no"?>
<!DOCTYPE svg PUBLIC "-//W3C//DTD SVG 1.1//EN"
 "http://www.w3.org/Graphics/SVG/1.1/DTD/svg11.dtd">
<!-- Generated by graphviz version 2.30.1 (20150305.2338)
 -->
<!-- Title: D Pages: 1 -->
<svg width="314pt" height="77pt"
 viewBox="0.00 0.00 314.00 77.00" xmlns="http://www.w3.org/2000/svg" xmlns:xlink="http://www.w3.org/1999/xlink">
<g id="graph0" class="graph" transform="scale(1 1) rotate(0) translate(4 73)">
<title>D</title>
<!-- Node1 -->
<g id="node1" class="node"><title>Node1</title>
<polygon fill="#bfbfbf" stroke="black" points="0.5,-22.5 0.5,-41.5 29.5,-41.5 29.5,-22.5 0.5,-22.5"/>
<text text-anchor="middle" x="15" y="-29.5" font-family="Helvetica,sans-Serif" font-size="10.00">D</text>
</g>
<!-- Node2 -->
<g id="node2" class="node"><title>Node2</title>
<g id="a_node2"><a xlink:href="classSolverUtils_1_1GeoPrim_1_1CPlane_a58da7c91a58650c7a4c013fba2c03917.html#a58da7c91a58650c7a4c013fba2c03917" target="_top" xlink:title="contains_point">
<polygon fill="none" stroke="black" points="66,-22.5 66,-41.5 146,-41.5 146,-22.5 66,-22.5"/>
<text text-anchor="middle" x="106" y="-29.5" font-family="Helvetica,sans-Serif" font-size="10.00">contains_point</text>
</a>
</g>
</g>
<!-- Node1&#45;&gt;Node2 -->
<g id="edge1" class="edge"><title>Node1&#45;&gt;Node2</title>
<path fill="none" stroke="midnightblue" d="M39.6445,-32C47.7098,-32 56.9563,-32 65.9066,-32"/>
<polygon fill="midnightblue" stroke="midnightblue" points="39.5172,-28.5001 29.5172,-32 39.5171,-35.5001 39.5172,-28.5001"/>
</g>
<!-- Node3 -->
<g id="node3" class="node"><title>Node3</title>
<g id="a_node3"><a xlink:href="classSolverUtils_1_1GeoPrim_1_1CFacet_a005d826749c8ee06238e1f29b295d690.html#a005d826749c8ee06238e1f29b295d690" target="_top" xlink:title="SolverUtils::GeoPrim\l::CFacet::contains_point">
<polygon fill="none" stroke="black" points="182,-39 182,-69 306,-69 306,-39 182,-39"/>
<text text-anchor="start" x="190" y="-57" font-family="Helvetica,sans-Serif" font-size="10.00">SolverUtils::GeoPrim</text>
<text text-anchor="middle" x="244" y="-46" font-family="Helvetica,sans-Serif" font-size="10.00">::CFacet::contains_point</text>
</a>
</g>
</g>
<!-- Node2&#45;&gt;Node3 -->
<g id="edge2" class="edge"><title>Node2&#45;&gt;Node3</title>
<path fill="none" stroke="midnightblue" d="M156.274,-39.9709C164.618,-41.3206 173.37,-42.7363 181.971,-44.1277"/>
<polygon fill="midnightblue" stroke="midnightblue" points="156.767,-36.5052 146.337,-38.3633 155.65,-43.4154 156.767,-36.5052"/>
</g>
<!-- Node4 -->
<g id="node4" class="node"><title>Node4</title>
<g id="a_node4"><a xlink:href="classSolverUtils_1_1GeoPrim_1_1CPlane_ad5886d99eaa33c5ef208c15d47ec3456.html#ad5886d99eaa33c5ef208c15d47ec3456" target="_top" xlink:title="operator==">
<polygon fill="none" stroke="black" points="212,-0.5 212,-19.5 276,-19.5 276,-0.5 212,-0.5"/>
<text text-anchor="middle" x="244" y="-7.5" font-family="Helvetica,sans-Serif" font-size="10.00">operator==</text>
</a>
</g>
</g>
<!-- Node2&#45;&gt;Node4 -->
<g id="edge3" class="edge"><title>Node2&#45;&gt;Node4</title>
<path fill="none" stroke="midnightblue" d="M156.402,-24.0084C174.961,-21.0063 195.522,-17.6802 211.951,-15.0227"/>
<polygon fill="midnightblue" stroke="midnightblue" points="155.65,-20.5846 146.337,-25.6367 156.767,-27.4948 155.65,-20.5846"/>
</g>
</g>
</svg>
