<?xml version="1.0" encoding="UTF-8" standalone="no"?>
<!DOCTYPE svg PUBLIC "-//W3C//DTD SVG 1.1//EN"
 "http://www.w3.org/Graphics/SVG/1.1/DTD/svg11.dtd">
<!-- Generated by graphviz version 2.30.1 (20150305.2338)
 -->
<!-- Title: WriteAgentToVTK Pages: 1 -->
<!--zoomable 430 -->
<svg id="main" version="1.1" xmlns="http://www.w3.org/2000/svg" xmlns:xlink="http://www.w3.org/1999/xlink" xml:space="preserve" onload="init(evt)">
<style type="text/css"><![CDATA[
.edge:hover path { stroke: red; }
.edge:hover polygon { stroke: red; fill: red; }
]]></style>
<script type="text/javascript"><![CDATA[
var edges = document.getElementsByTagName('g');
if (edges && edges.length) {
  for (var i=0;i<edges.length;i++) {
    if (edges[i].id.substr(0,4)=='edge') {
      edges[i].setAttribute('class','edge');
    }
  }
}
]]></script>
        <defs>
                <circle id="rim" cx="0" cy="0" r="7"/>
                <circle id="rim2" cx="0" cy="0" r="3.5"/>
                <g id="zoomPlus">
                        <use xlink:href="#rim" fill="#404040">
                                <set attributeName="fill" to="#808080" begin="zoomplus.mouseover" end="zoomplus.mouseout"/>
                        </use>
                        <path d="M-4,0h8M0,-4v8" fill="none" stroke="white" stroke-width="1.5" pointer-events="none"/>
                </g>
                <g id="zoomMin">
                        <use xlink:href="#rim" fill="#404040">
                                <set attributeName="fill" to="#808080" begin="zoomminus.mouseover" end="zoomminus.mouseout"/>
                        </use>
                        <path d="M-4,0h8" fill="none" stroke="white" stroke-width="1.5" pointer-events="none"/>
                </g>
                <g id="dirArrow">
                        <path fill="none" stroke="white" stroke-width="1.5" d="M0,-3.0v7 M-2.5,-0.5L0,-3.0L2.5,-0.5"/>
                </g>
               <g id="resetDef">
                       <use xlink:href="#rim2" fill="#404040">
                               <set attributeName="fill" to="#808080" begin="reset.mouseover" end="reset.mouseout"/>
                       </use>
               </g>
        </defs>

<script type="text/javascript">
var viewWidth = 648;
var viewHeight = 430;
var sectionId = 'dynsection-0';
</script>
<script xlink:href="svgpan.js"/>
<svg id="graph" class="graph">
<g id="viewport">
<title>WriteAgentToVTK</title>
<!-- Node1 -->
<g id="node1" class="node"><title>Node1</title>
<polygon fill="#bfbfbf" stroke="black" points="0,-223.5 0,-242.5 96,-242.5 96,-223.5 0,-223.5"/>
<text text-anchor="middle" x="48" y="-230.5" font-family="Helvetica,sans-Serif" font-size="10.00">WriteAgentToVTK</text>
</g>
<!-- Node2 -->
<g id="node2" class="node"><title>Node2</title>
<g id="a_node2"><a xlink:href="classIRAD_1_1Global_1_1GlobalObj_a4604cffc6d9588606aa2a5866b026226.html#a4604cffc6d9588606aa2a5866b026226" target="_top" xlink:title="IRAD::Global::GlobalObj\l::StdOut">
<polygon fill="none" stroke="black" points="148,-240 148,-270 272,-270 272,-240 148,-240"/>
<text text-anchor="start" x="156" y="-258" font-family="Helvetica,sans-Serif" font-size="10.00">IRAD::Global::GlobalObj</text>
<text text-anchor="middle" x="210" y="-247" font-family="Helvetica,sans-Serif" font-size="10.00">::StdOut</text>
</a>
</g>
</g>
<!-- Node1&#45;&gt;Node2 -->
<g id="edge1" class="edge"><title>Node1&#45;&gt;Node2</title>
<path fill="none" stroke="midnightblue" d="M96.1399,-239.482C109.195,-241.277 123.663,-243.266 137.763,-245.205"/>
<polygon fill="midnightblue" stroke="midnightblue" points="137.557,-248.709 147.94,-246.604 138.51,-241.775 137.557,-248.709"/>
</g>
<!-- Node3 -->
<g id="node3" class="node"><title>Node3</title>
<g id="a_node3"><a xlink:href="namespaceSolverUtils_a4b3e50cefefe85867c8de76b742654ff.html#a4b3e50cefefe85867c8de76b742654ff" target="_top" xlink:title="SolverUtils::WriteVTKToStream">
<polygon fill="none" stroke="black" points="132,-201.5 132,-220.5 288,-220.5 288,-201.5 132,-201.5"/>
<text text-anchor="middle" x="210" y="-208.5" font-family="Helvetica,sans-Serif" font-size="10.00">SolverUtils::WriteVTKToStream</text>
</a>
</g>
</g>
<!-- Node1&#45;&gt;Node3 -->
<g id="edge2" class="edge"><title>Node1&#45;&gt;Node3</title>
<path fill="none" stroke="midnightblue" d="M96.1399,-226.518C106.692,-225.067 118.166,-223.49 129.624,-221.914"/>
<polygon fill="midnightblue" stroke="midnightblue" points="130.235,-225.363 139.665,-220.534 129.281,-218.428 130.235,-225.363"/>
</g>
<!-- Node4 -->
<g id="node4" class="node"><title>Node4</title>
<g id="a_node4"><a xlink:href="classSolverUtils_1_1FEM_1_1SolverAgent_aca958a697df836ac67f3244d08d9ee6c.html#aca958a697df836ac67f3244d08d9ee6c" target="_top" xlink:title="SolverUtils::FEM::Solver\lAgent::Solution">
<polygon fill="none" stroke="black" points="334.5,-392 334.5,-422 459.5,-422 459.5,-392 334.5,-392"/>
<text text-anchor="start" x="342.5" y="-410" font-family="Helvetica,sans-Serif" font-size="10.00">SolverUtils::FEM::Solver</text>
<text text-anchor="middle" x="397" y="-399" font-family="Helvetica,sans-Serif" font-size="10.00">Agent::Solution</text>
</a>
</g>
</g>
<!-- Node3&#45;&gt;Node4 -->
<g id="edge3" class="edge"><title>Node3&#45;&gt;Node4</title>
<path fill="none" stroke="midnightblue" d="M273.206,-220.501C278.68,-223.221 283.746,-226.66 288,-231 336.292,-280.272 277.718,-330.834 324,-382 325.19,-383.316 326.453,-384.562 327.778,-385.743"/>
<polygon fill="midnightblue" stroke="midnightblue" points="325.848,-388.669 335.966,-391.813 330.017,-383.046 325.848,-388.669"/>
</g>
<!-- Node5 -->
<g id="node5" class="node"><title>Node5</title>
<g id="a_node5"><a xlink:href="classSolverUtils_1_1FEM_1_1SolverAgent_a79921d24f767ba9aeb14b5e32db13b4c.html#a79921d24f767ba9aeb14b5e32db13b4c" target="_top" xlink:title="SolverUtils::FEM::Solver\lAgent::Mesh">
<polygon fill="none" stroke="black" points="334.5,-343 334.5,-373 459.5,-373 459.5,-343 334.5,-343"/>
<text text-anchor="start" x="342.5" y="-361" font-family="Helvetica,sans-Serif" font-size="10.00">SolverUtils::FEM::Solver</text>
<text text-anchor="middle" x="397" y="-350" font-family="Helvetica,sans-Serif" font-size="10.00">Agent::Mesh</text>
</a>
</g>
</g>
<!-- Node3&#45;&gt;Node5 -->
<g id="edge4" class="edge"><title>Node3&#45;&gt;Node5</title>
<path fill="none" stroke="midnightblue" d="M271.988,-220.62C277.836,-223.304 283.32,-226.703 288,-231 323.41,-263.516 289.92,-299.093 324,-333 325.442,-334.435 326.971,-335.788 328.57,-337.063"/>
<polygon fill="midnightblue" stroke="midnightblue" points="326.841,-340.118 337.087,-342.815 330.759,-334.317 326.841,-340.118"/>
</g>
<!-- Node6 -->
<g id="node6" class="node"><title>Node6</title>
<g id="a_node6"><a xlink:href="namespaceSolverUtils_1_1Mesh_ad4367ce798da66717edb420d3b26323e.html#ad4367ce798da66717edb420d3b26323e" target="_top" xlink:title="SolverUtils::Mesh::\lWriteVTKToStream">
<polygon fill="none" stroke="black" points="346,-294 346,-324 448,-324 448,-294 346,-294"/>
<text text-anchor="start" x="354" y="-312" font-family="Helvetica,sans-Serif" font-size="10.00">SolverUtils::Mesh::</text>
<text text-anchor="middle" x="397" y="-301" font-family="Helvetica,sans-Serif" font-size="10.00">WriteVTKToStream</text>
</a>
</g>
</g>
<!-- Node3&#45;&gt;Node6 -->
<g id="edge5" class="edge"><title>Node3&#45;&gt;Node6</title>
<path fill="none" stroke="midnightblue" d="M267.383,-220.532C274.697,-223.203 281.792,-226.623 288,-231 311.272,-247.409 301.403,-266.673 324,-284 327.865,-286.964 332.108,-289.593 336.539,-291.921"/>
<polygon fill="midnightblue" stroke="midnightblue" points="335.301,-295.206 345.84,-296.289 338.277,-288.87 335.301,-295.206"/>
</g>
<!-- Node7 -->
<g id="node7" class="node"><title>Node7</title>
<g id="a_node7"><a xlink:href="classSolverUtils_1_1FEM_1_1SolutionData_addf180ac6b7ba13756908f2f6218230c.html#addf180ac6b7ba13756908f2f6218230c" target="_top" xlink:title="SolverUtils::FEM::Solution\lData::Data">
<polygon fill="none" stroke="black" points="330.5,-245 330.5,-275 463.5,-275 463.5,-245 330.5,-245"/>
<text text-anchor="start" x="338.5" y="-263" font-family="Helvetica,sans-Serif" font-size="10.00">SolverUtils::FEM::Solution</text>
<text text-anchor="middle" x="397" y="-252" font-family="Helvetica,sans-Serif" font-size="10.00">Data::Data</text>
</a>
</g>
</g>
<!-- Node3&#45;&gt;Node7 -->
<g id="edge6" class="edge"><title>Node3&#45;&gt;Node7</title>
<path fill="none" stroke="midnightblue" d="M247.832,-220.501C260.562,-223.802 274.913,-227.544 288,-231 301.669,-234.61 316.302,-238.514 330.242,-242.251"/>
<polygon fill="midnightblue" stroke="midnightblue" points="329.682,-245.724 340.248,-244.936 331.497,-238.963 329.682,-245.724"/>
</g>
<!-- Node8 -->
<g id="node8" class="node"><title>Node8</title>
<g id="a_node8"><a xlink:href="classSolverUtils_1_1FEM_1_1SolutionData_a62680bd659e55d37f379eb09498faf92.html#a62680bd659e55d37f379eb09498faf92" target="_top" xlink:title="SolverUtils::FEM::Solution\lData::Meta">
<polygon fill="none" stroke="black" points="330.5,-196 330.5,-226 463.5,-226 463.5,-196 330.5,-196"/>
<text text-anchor="start" x="338.5" y="-214" font-family="Helvetica,sans-Serif" font-size="10.00">SolverUtils::FEM::Solution</text>
<text text-anchor="middle" x="397" y="-203" font-family="Helvetica,sans-Serif" font-size="10.00">Data::Meta</text>
</a>
</g>
</g>
<!-- Node3&#45;&gt;Node8 -->
<g id="edge7" class="edge"><title>Node3&#45;&gt;Node8</title>
<path fill="none" stroke="midnightblue" d="M288.117,-211C298.786,-211 309.736,-211 320.377,-211"/>
<polygon fill="midnightblue" stroke="midnightblue" points="320.466,-214.5 330.466,-211 320.466,-207.5 320.466,-214.5"/>
</g>
<!-- Node9 -->
<g id="node9" class="node"><title>Node9</title>
<g id="a_node9"><a xlink:href="classSolverUtils_1_1Mesh_1_1NodalCoordinates_a6c40ee25a17756bd699b25f38bbf3001.html#a6c40ee25a17756bd699b25f38bbf3001" target="_top" xlink:title="SolverUtils::Mesh::\lNodalCoordinates::NNodes">
<polygon fill="none" stroke="black" points="328.5,-147 328.5,-177 465.5,-177 465.5,-147 328.5,-147"/>
<text text-anchor="start" x="336.5" y="-165" font-family="Helvetica,sans-Serif" font-size="10.00">SolverUtils::Mesh::</text>
<text text-anchor="middle" x="397" y="-154" font-family="Helvetica,sans-Serif" font-size="10.00">NodalCoordinates::NNodes</text>
</a>
</g>
</g>
<!-- Node3&#45;&gt;Node9 -->
<g id="edge8" class="edge"><title>Node3&#45;&gt;Node9</title>
<path fill="none" stroke="midnightblue" d="M247.109,-201.436C270.531,-195.232 301.752,-186.963 329.555,-179.599"/>
<polygon fill="midnightblue" stroke="midnightblue" points="330.457,-182.981 339.228,-177.037 328.665,-176.214 330.457,-182.981"/>
</g>
<!-- Node10 -->
<g id="node10" class="node"><title>Node10</title>
<g id="a_node10"><a xlink:href="classSolverUtils_1_1Mesh_1_1Connectivity_a3efad0e23e75de241cfe6c5193f1daa7.html#a3efad0e23e75de241cfe6c5193f1daa7" target="_top" xlink:title="SolverUtils::Mesh::\lConnectivity::Nelem">
<polygon fill="none" stroke="black" points="344,-98 344,-128 450,-128 450,-98 344,-98"/>
<text text-anchor="start" x="352" y="-116" font-family="Helvetica,sans-Serif" font-size="10.00">SolverUtils::Mesh::</text>
<text text-anchor="middle" x="397" y="-105" font-family="Helvetica,sans-Serif" font-size="10.00">Connectivity::Nelem</text>
</a>
</g>
</g>
<!-- Node3&#45;&gt;Node10 -->
<g id="edge9" class="edge"><title>Node3&#45;&gt;Node10</title>
<path fill="none" stroke="midnightblue" d="M223.622,-201.396C243.898,-186.311 285.377,-156.843 324,-138 328.378,-135.864 332.985,-133.826 337.666,-131.901"/>
<polygon fill="midnightblue" stroke="midnightblue" points="339.294,-135.022 347.327,-128.114 336.739,-128.505 339.294,-135.022"/>
</g>
<!-- Node11 -->
<g id="node11" class="node"><title>Node11</title>
<g id="a_node11"><a xlink:href="classSolverUtils_1_1FEM_1_1SolutionData_a967ed966dc1c49c1cea8eee1474604b1.html#a967ed966dc1c49c1cea8eee1474604b1" target="_top" xlink:title="SolverUtils::FEM::Solution\lData::GetFieldData">
<polygon fill="none" stroke="black" points="330.5,-49 330.5,-79 463.5,-79 463.5,-49 330.5,-49"/>
<text text-anchor="start" x="338.5" y="-67" font-family="Helvetica,sans-Serif" font-size="10.00">SolverUtils::FEM::Solution</text>
<text text-anchor="middle" x="397" y="-56" font-family="Helvetica,sans-Serif" font-size="10.00">Data::GetFieldData</text>
</a>
</g>
</g>
<!-- Node3&#45;&gt;Node11 -->
<g id="edge10" class="edge"><title>Node3&#45;&gt;Node11</title>
<path fill="none" stroke="midnightblue" d="M217.447,-201.264C233.05,-178.421 275.186,-120.908 324,-89 326.97,-87.0588 330.107,-85.2501 333.345,-83.5672"/>
<polygon fill="midnightblue" stroke="midnightblue" points="335.134,-86.5927 342.677,-79.1528 332.141,-80.2649 335.134,-86.5927"/>
</g>
<!-- Node13 -->
<g id="node13" class="node"><title>Node13</title>
<g id="a_node13"><a xlink:href="classSolverUtils_1_1FEM_1_1DataBuffer_a7c0db56cdbb7cc997b82b99ba2682ff6.html#a7c0db56cdbb7cc997b82b99ba2682ff6" target="_top" xlink:title="SolverUtils::FEM::DataBuffer\l::Data">
<polygon fill="none" stroke="black" points="324.5,-0 324.5,-30 469.5,-30 469.5,-0 324.5,-0"/>
<text text-anchor="start" x="332.5" y="-18" font-family="Helvetica,sans-Serif" font-size="10.00">SolverUtils::FEM::DataBuffer</text>
<text text-anchor="middle" x="397" y="-7" font-family="Helvetica,sans-Serif" font-size="10.00">::Data</text>
</a>
</g>
</g>
<!-- Node3&#45;&gt;Node13 -->
<g id="edge12" class="edge"><title>Node3&#45;&gt;Node13</title>
<path fill="none" stroke="midnightblue" d="M214.751,-201.276C226.391,-172.361 264.71,-86.0653 324,-40 326.302,-38.2114 328.741,-36.5456 331.277,-34.9945"/>
<polygon fill="midnightblue" stroke="midnightblue" points="333.086,-37.9948 340.209,-30.1519 329.75,-31.8409 333.086,-37.9948"/>
</g>
<!-- Node12 -->
<g id="node12" class="node"><title>Node12</title>
<g id="a_node12"><a xlink:href="classSolverUtils_1_1FEM_1_1SolutionData_a2b73f52413287c249bd669e3fb1bfc52.html#a2b73f52413287c249bd669e3fb1bfc52" target="_top" xlink:title="SolverUtils::FEM::Solution\lData::GetDataIndex">
<polygon fill="none" stroke="black" points="506.5,-49 506.5,-79 639.5,-79 639.5,-49 506.5,-49"/>
<text text-anchor="start" x="514.5" y="-67" font-family="Helvetica,sans-Serif" font-size="10.00">SolverUtils::FEM::Solution</text>
<text text-anchor="middle" x="573" y="-56" font-family="Helvetica,sans-Serif" font-size="10.00">Data::GetDataIndex</text>
</a>
</g>
</g>
<!-- Node11&#45;&gt;Node12 -->
<g id="edge11" class="edge"><title>Node11&#45;&gt;Node12</title>
<path fill="none" stroke="midnightblue" d="M463.782,-64C474.357,-64 485.377,-64 496.165,-64"/>
<polygon fill="midnightblue" stroke="midnightblue" points="496.414,-67.5001 506.414,-64 496.414,-60.5001 496.414,-67.5001"/>
</g>
</g>
</svg>
        <g id="navigator" transform="translate(0 0)" fill="#404254">
                <rect fill="#f2f5e9" fill-opacity="0.5" stroke="#606060" stroke-width=".5" x="0" y="0" width="60" height="60"/>
                <use id="zoomplus" xlink:href="#zoomPlus" x="17" y="9" onmousedown="handleZoom(evt,'in')"/>
                <use id="zoomminus" xlink:href="#zoomMin" x="42" y="9" onmousedown="handleZoom(evt,'out')"/>
                <use id="reset" xlink:href="#resetDef" x="30" y="36" onmousedown="handleReset()"/>
                <g id="arrowUp" xlink:href="#dirArrow" transform="translate(30 24)" onmousedown="handlePan(0,-1)">
                  <use xlink:href="#rim" fill="#404040">
                        <set attributeName="fill" to="#808080" begin="arrowUp.mouseover" end="arrowUp.mouseout"/>
                  </use>
                  <path fill="none" stroke="white" stroke-width="1.5" d="M0,-3.0v7 M-2.5,-0.5L0,-3.0L2.5,-0.5"/>
                </g>
                <g id="arrowRight" xlink:href="#dirArrow" transform="rotate(90) translate(36 -43)" onmousedown="handlePan(1,0)">
                  <use xlink:href="#rim" fill="#404040">
                        <set attributeName="fill" to="#808080" begin="arrowRight.mouseover" end="arrowRight.mouseout"/>
                  </use>
                  <path fill="none" stroke="white" stroke-width="1.5" d="M0,-3.0v7 M-2.5,-0.5L0,-3.0L2.5,-0.5"/>
                </g>
                <g id="arrowDown" xlink:href="#dirArrow" transform="rotate(180) translate(-30 -48)" onmousedown="handlePan(0,1)">
                  <use xlink:href="#rim" fill="#404040">
                        <set attributeName="fill" to="#808080" begin="arrowDown.mouseover" end="arrowDown.mouseout"/>
                  </use>
                  <path fill="none" stroke="white" stroke-width="1.5" d="M0,-3.0v7 M-2.5,-0.5L0,-3.0L2.5,-0.5"/>
                </g>
                <g id="arrowLeft" xlink:href="#dirArrow" transform="rotate(270) translate(-36 17)" onmousedown="handlePan(-1,0)">
                  <use xlink:href="#rim" fill="#404040">
                        <set attributeName="fill" to="#808080" begin="arrowLeft.mouseover" end="arrowLeft.mouseout"/>
                  </use>
                  <path fill="none" stroke="white" stroke-width="1.5" d="M0,-3.0v7 M-2.5,-0.5L0,-3.0L2.5,-0.5"/>
                </g>
        </g>
        <svg viewBox="0 0 15 15" width="100%" height="30px" preserveAspectRatio="xMaxYMin meet">
         <g id="arrow_out" transform="scale(0.3 0.3)">
          <a xlink:href="classfsicoupling_a66a7e856c6cd0d50b9e7984c98dc459a_a66a7e856c6cd0d50b9e7984c98dc459a_cgraph_org.svg" target="_base">
           <rect id="button" ry="5" rx="5" y="6" x="6" height="38" width="38"
                fill="#f2f5e9" fill-opacity="0.5" stroke="#606060" stroke-width="1.0"/>
           <path id="arrow"
             d="M 11.500037,31.436501 C 11.940474,20.09759 22.043105,11.32322 32.158766,21.979434 L 37.068811,17.246167 C 37.068811,17.246167 37.088388,32 37.088388,32 L 22.160133,31.978069 C 22.160133,31.978069 26.997745,27.140456 26.997745,27.140456 C 18.528582,18.264221 13.291696,25.230495 11.500037,31.436501 z"
             style="fill:#404040;"/>
          </a>
         </g>
        </svg>
</svg>
