<?xml version="1.0" encoding="UTF-8" standalone="no"?>
<!DOCTYPE svg PUBLIC "-//W3C//DTD SVG 1.1//EN"
 "http://www.w3.org/Graphics/SVG/1.1/DTD/svg11.dtd">
<!-- Generated by graphviz version 2.30.1 (20150305.2338)
 -->
<!-- Title: TestTransfer Pages: 1 -->
<svg width="258pt" height="142pt"
 viewBox="0.00 0.00 258.00 142.00" xmlns="http://www.w3.org/2000/svg" xmlns:xlink="http://www.w3.org/1999/xlink">
<g id="graph0" class="graph" transform="scale(1 1) rotate(0) translate(4 138)">
<title>TestTransfer</title>
<!-- Node1 -->
<g id="node1" class="node"><title>Node1</title>
<polygon fill="#bfbfbf" stroke="black" points="0,-57.5 0,-76.5 72,-76.5 72,-57.5 0,-57.5"/>
<text text-anchor="middle" x="36" y="-64.5" font-family="Helvetica,sans-Serif" font-size="10.00">TestTransfer</text>
</g>
<!-- Node2 -->
<g id="node2" class="node"><title>Node2</title>
<g id="a_node2"><a xlink:href="classopenfoamagent_a11af20e113d9cb3bad41a7504f10da2c.html#a11af20e113d9cb3bad41a7504f10da2c" target="_top" xlink:title="openfoamagent::Coordinates">
<polygon fill="none" stroke="black" points="108,-114.5 108,-133.5 250,-133.5 250,-114.5 108,-114.5"/>
<text text-anchor="middle" x="179" y="-121.5" font-family="Helvetica,sans-Serif" font-size="10.00">openfoamagent::Coordinates</text>
</a>
</g>
</g>
<!-- Node1&#45;&gt;Node2 -->
<g id="edge1" class="edge"><title>Node1&#45;&gt;Node2</title>
<path fill="none" stroke="midnightblue" d="M52.3031,-76.504C66.3623,-84.9129 87.9913,-97.0493 108,-105 113.99,-107.38 120.384,-109.568 126.779,-111.546"/>
<polygon fill="midnightblue" stroke="midnightblue" points="126.193,-115.021 136.774,-114.477 128.164,-108.304 126.193,-115.021"/>
</g>
<!-- Node3 -->
<g id="node3" class="node"><title>Node3</title>
<g id="a_node3"><a xlink:href="classelmeragent_a11af20e113d9cb3bad41a7504f10da2c.html#a11af20e113d9cb3bad41a7504f10da2c" target="_top" xlink:title="elmeragent::Coordinates">
<polygon fill="none" stroke="black" points="117.5,-76.5 117.5,-95.5 240.5,-95.5 240.5,-76.5 117.5,-76.5"/>
<text text-anchor="middle" x="179" y="-83.5" font-family="Helvetica,sans-Serif" font-size="10.00">elmeragent::Coordinates</text>
</a>
</g>
</g>
<!-- Node1&#45;&gt;Node3 -->
<g id="edge2" class="edge"><title>Node1&#45;&gt;Node3</title>
<path fill="none" stroke="midnightblue" d="M72.2165,-71.7455C82.9224,-73.1881 95.0909,-74.8279 107.269,-76.4688"/>
<polygon fill="midnightblue" stroke="midnightblue" points="107.09,-79.9763 117.468,-77.8432 108.025,-73.039 107.09,-79.9763"/>
</g>
<!-- Node4 -->
<g id="node4" class="node"><title>Node4</title>
<g id="a_node4"><a xlink:href="classopenfoamagent_a84634b1a9101359943436cfa37a4b88e.html#a84634b1a9101359943436cfa37a4b88e" target="_top" xlink:title="openfoamagent::PaneID">
<polygon fill="none" stroke="black" points="118,-38.5 118,-57.5 240,-57.5 240,-38.5 118,-38.5"/>
<text text-anchor="middle" x="179" y="-45.5" font-family="Helvetica,sans-Serif" font-size="10.00">openfoamagent::PaneID</text>
</a>
</g>
</g>
<!-- Node1&#45;&gt;Node4 -->
<g id="edge3" class="edge"><title>Node1&#45;&gt;Node4</title>
<path fill="none" stroke="midnightblue" d="M72.2165,-62.2545C82.9862,-60.8033 95.2359,-59.1526 107.486,-57.5019"/>
<polygon fill="midnightblue" stroke="midnightblue" points="108.301,-60.9238 117.744,-56.1196 107.366,-53.9865 108.301,-60.9238"/>
</g>
<!-- Node5 -->
<g id="node5" class="node"><title>Node5</title>
<g id="a_node5"><a xlink:href="classelmeragent_a84634b1a9101359943436cfa37a4b88e.html#a84634b1a9101359943436cfa37a4b88e" target="_top" xlink:title="elmeragent::PaneID">
<polygon fill="none" stroke="black" points="127,-0.5 127,-19.5 231,-19.5 231,-0.5 127,-0.5"/>
<text text-anchor="middle" x="179" y="-7.5" font-family="Helvetica,sans-Serif" font-size="10.00">elmeragent::PaneID</text>
</a>
</g>
</g>
<!-- Node1&#45;&gt;Node5 -->
<g id="edge4" class="edge"><title>Node1&#45;&gt;Node5</title>
<path fill="none" stroke="midnightblue" d="M52.3031,-57.496C66.3623,-49.0871 87.9913,-36.9507 108,-29 113.99,-26.6197 120.384,-24.4317 126.779,-22.4542"/>
<polygon fill="midnightblue" stroke="midnightblue" points="128.164,-25.6957 136.774,-19.5226 126.193,-18.9787 128.164,-25.6957"/>
</g>
</g>
</svg>
