<?xml version="1.0" encoding="UTF-8" standalone="no"?>
<!DOCTYPE svg PUBLIC "-//W3C//DTD SVG 1.1//EN"
 "http://www.w3.org/Graphics/SVG/1.1/DTD/svg11.dtd">
<!-- Generated by graphviz version 2.30.1 (20150305.2338)
 -->
<!-- Title: AddIODescriptor Pages: 1 -->
<svg width="226pt" height="66pt"
 viewBox="0.00 0.00 226.00 66.00" xmlns="http://www.w3.org/2000/svg" xmlns:xlink="http://www.w3.org/1999/xlink">
<g id="graph0" class="graph" transform="scale(1 1) rotate(0) translate(4 62)">
<title>AddIODescriptor</title>
<!-- Node1 -->
<g id="node1" class="node"><title>Node1</title>
<polygon fill="#bfbfbf" stroke="black" points="0.5,-19.5 0.5,-38.5 89.5,-38.5 89.5,-19.5 0.5,-19.5"/>
<text text-anchor="middle" x="45" y="-26.5" font-family="Helvetica,sans-Serif" font-size="10.00">AddIODescriptor</text>
</g>
<!-- Node2 -->
<g id="node2" class="node"><title>Node2</title>
<g id="a_node2"><a xlink:href="classIRAD_1_1Sys_1_1FDSetMan_a80878055a9e0d0c28c0136a194d0b078.html#a80878055a9e0d0c28c0136a194d0b078" target="_top" xlink:title="SetInDescriptor">
<polygon fill="none" stroke="black" points="129.5,-38.5 129.5,-57.5 214.5,-57.5 214.5,-38.5 129.5,-38.5"/>
<text text-anchor="middle" x="172" y="-45.5" font-family="Helvetica,sans-Serif" font-size="10.00">SetInDescriptor</text>
</a>
</g>
</g>
<!-- Node1&#45;&gt;Node2 -->
<g id="edge1" class="edge"><title>Node1&#45;&gt;Node2</title>
<path fill="none" stroke="midnightblue" d="M89.7189,-35.6453C99.2289,-37.0908 109.378,-38.6335 119.168,-40.1215"/>
<polygon fill="midnightblue" stroke="midnightblue" points="118.785,-43.6035 129.198,-41.646 119.837,-36.683 118.785,-43.6035"/>
</g>
<!-- Node3 -->
<g id="node3" class="node"><title>Node3</title>
<g id="a_node3"><a xlink:href="classIRAD_1_1Sys_1_1FDSetMan_a73a5b587bfa37f9216c15bc5a4a30ffb.html#a73a5b587bfa37f9216c15bc5a4a30ffb" target="_top" xlink:title="SetOutDescriptor">
<polygon fill="none" stroke="black" points="126,-0.5 126,-19.5 218,-19.5 218,-0.5 126,-0.5"/>
<text text-anchor="middle" x="172" y="-7.5" font-family="Helvetica,sans-Serif" font-size="10.00">SetOutDescriptor</text>
</a>
</g>
</g>
<!-- Node1&#45;&gt;Node3 -->
<g id="edge2" class="edge"><title>Node1&#45;&gt;Node3</title>
<path fill="none" stroke="midnightblue" d="M89.7189,-22.3547C98.1189,-21.0779 107.018,-19.7253 115.727,-18.4015"/>
<polygon fill="midnightblue" stroke="midnightblue" points="116.462,-21.8301 125.822,-16.867 115.41,-14.9096 116.462,-21.8301"/>
</g>
</g>
</svg>
