<?xml version="1.0" encoding="UTF-8" standalone="no"?>
<!DOCTYPE svg PUBLIC "-//W3C//DTD SVG 1.1//EN"
 "http://www.w3.org/Graphics/SVG/1.1/DTD/svg11.dtd">
<!-- Generated by graphviz version 2.26.0 (20091210.2329)
 -->
<!-- Title: Test__MidPointQuadrature Pages: 1 -->
<svg width="468pt" height="70pt"
 viewBox="0.00 0.00 468.00 70.00" xmlns="http://www.w3.org/2000/svg" xmlns:xlink="http://www.w3.org/1999/xlink">
<g id="graph1" class="graph" transform="scale(1 1) rotate(0) translate(4 66)">
<title>Test__MidPointQuadrature</title>
<!-- Node1 -->
<g id="node1" class="node"><title>Node1</title>
<polygon fill="#bfbfbf" stroke="black" points="0.5,-20.5 0.5,-41.5 133.5,-41.5 133.5,-20.5 0.5,-20.5"/>
<text text-anchor="middle" x="67" y="-28.5" font-family="Helvetica,sans-Serif" font-size="10.00">Test__MidPointQuadrature</text>
</g>
<!-- Node2 -->
<g id="node3" class="node"><title>Node2</title>
<a xlink:href="classElmerModuleDriver_1_1TestingObject_a046f7ab06db0acf616b0d2bf3d3146aa.html#a046f7ab06db0acf616b0d2bf3d3146aa" target="_top" xlink:title="Process">
<polygon fill="none" stroke="black" points="170.5,-40.5 170.5,-61.5 223.5,-61.5 223.5,-40.5 170.5,-40.5"/>
<text text-anchor="middle" x="197" y="-48.5" font-family="Helvetica,sans-Serif" font-size="10.00">Process</text>
</a>
</g>
<!-- Node1&#45;&gt;Node2 -->
<g id="edge2" class="edge"><title>Node1&#45;&gt;Node2</title>
<path fill="none" stroke="midnightblue" d="M143.617,-42.7872C153.216,-44.264 162.466,-45.687 170.492,-46.9218"/>
<polygon fill="midnightblue" stroke="midnightblue" points="143.939,-39.2957 133.523,-41.2344 142.875,-46.2143 143.939,-39.2957"/>
</g>
<!-- Node5 -->
<g id="node9" class="node"><title>Node5</title>
<a xlink:href="classElmerModuleDriver_1_1TestingObject_af1f07f14b9af7708e4264bb38937eed2.html#af1f07f14b9af7708e4264bb38937eed2" target="_top" xlink:title="Runs a test specified by name. ">
<polygon fill="none" stroke="black" points="170,-0.5 170,-21.5 224,-21.5 224,-0.5 170,-0.5"/>
<text text-anchor="middle" x="197" y="-8.5" font-family="Helvetica,sans-Serif" font-size="10.00">RunTest</text>
</a>
</g>
<!-- Node1&#45;&gt;Node5 -->
<g id="edge8" class="edge"><title>Node1&#45;&gt;Node5</title>
<path fill="none" stroke="midnightblue" d="M143.426,-19.2422C152.847,-17.7928 161.937,-16.3943 169.871,-15.1736"/>
<polygon fill="midnightblue" stroke="midnightblue" points="142.875,-15.7857 133.523,-20.7656 143.939,-22.7043 142.875,-15.7857"/>
</g>
<!-- Node3 -->
<g id="node5" class="node"><title>Node3</title>
<a xlink:href="namespaceElmerModuleDriver_a657930328d3dc159ded2e9fd6473b2b6.html#a657930328d3dc159ded2e9fd6473b2b6" target="_top" xlink:title="Drives the ElmerModuleDriver::TestObject. ">
<polygon fill="none" stroke="black" points="260.5,-40.5 260.5,-61.5 385.5,-61.5 385.5,-40.5 260.5,-40.5"/>
<text text-anchor="middle" x="323" y="-48.5" font-family="Helvetica,sans-Serif" font-size="10.00">ElmerModuleDriver::Test</text>
</a>
</g>
<!-- Node2&#45;&gt;Node3 -->
<g id="edge4" class="edge"><title>Node2&#45;&gt;Node3</title>
<path fill="none" stroke="midnightblue" d="M233.818,-51C242.147,-51 251.219,-51 260.283,-51"/>
<polygon fill="midnightblue" stroke="midnightblue" points="233.721,-47.5001 223.721,-51 233.721,-54.5001 233.721,-47.5001"/>
</g>
<!-- Node4 -->
<g id="node7" class="node"><title>Node4</title>
<a xlink:href="TestElmerModuleDriver_8C_a0ddf1224851353fc92bfbff6f499fa97.html#a0ddf1224851353fc92bfbff6f499fa97" target="_top" xlink:title="main">
<polygon fill="none" stroke="black" points="422,-40.5 422,-61.5 460,-61.5 460,-40.5 422,-40.5"/>
<text text-anchor="middle" x="441" y="-48.5" font-family="Helvetica,sans-Serif" font-size="10.00">main</text>
</a>
</g>
<!-- Node3&#45;&gt;Node4 -->
<g id="edge6" class="edge"><title>Node3&#45;&gt;Node4</title>
<path fill="none" stroke="midnightblue" d="M395.837,-51C405.336,-51 414.327,-51 421.749,-51"/>
<polygon fill="midnightblue" stroke="midnightblue" points="395.8,-47.5001 385.8,-51 395.8,-54.5001 395.8,-47.5001"/>
</g>
<!-- Node5&#45;&gt;Node3 -->
<g id="edge12" class="edge"><title>Node5&#45;&gt;Node3</title>
<path fill="none" stroke="midnightblue" d="M233.987,-22.7418C251.637,-28.345 272.591,-34.9972 289.734,-40.4394"/>
<polygon fill="midnightblue" stroke="midnightblue" points="234.62,-19.2709 224.03,-19.581 232.502,-25.9428 234.62,-19.2709"/>
</g>
<!-- Node6 -->
<g id="node11" class="node"><title>Node6</title>
<a xlink:href="classElmerModuleDriver_1_1TestingObject_a21159bd2efac623e5a5079f6a20f3444.html#a21159bd2efac623e5a5079f6a20f3444" target="_top" xlink:title="Runs a list of tests specified by name. ">
<polygon fill="none" stroke="black" points="284.5,-0.5 284.5,-21.5 361.5,-21.5 361.5,-0.5 284.5,-0.5"/>
<text text-anchor="middle" x="323" y="-8.5" font-family="Helvetica,sans-Serif" font-size="10.00">ProcessTests</text>
</a>
</g>
<!-- Node5&#45;&gt;Node6 -->
<g id="edge10" class="edge"><title>Node5&#45;&gt;Node6</title>
<path fill="none" stroke="midnightblue" d="M234.4,-11C250.053,-11 268.246,-11 284.059,-11"/>
<polygon fill="midnightblue" stroke="midnightblue" points="234.03,-7.5001 224.03,-11 234.03,-14.5001 234.03,-7.5001"/>
</g>
</g>
</svg>
