<?xml version="1.0" encoding="UTF-8" standalone="no"?>
<!DOCTYPE svg PUBLIC "-//W3C//DTD SVG 1.1//EN"
 "http://www.w3.org/Graphics/SVG/1.1/DTD/svg11.dtd">
<!-- Generated by graphviz version 2.30.1 (20150305.2338)
 -->
<!-- Title: operator&#45;= Pages: 1 -->
<svg width="174pt" height="104pt"
 viewBox="0.00 0.00 174.00 104.00" xmlns="http://www.w3.org/2000/svg" xmlns:xlink="http://www.w3.org/1999/xlink">
<g id="graph0" class="graph" transform="scale(1 1) rotate(0) translate(4 100)">
<title>operator&#45;=</title>
<!-- Node1 -->
<g id="node1" class="node"><title>Node1</title>
<polygon fill="#bfbfbf" stroke="black" points="0.5,-38.5 0.5,-57.5 61.5,-57.5 61.5,-38.5 0.5,-38.5"/>
<text text-anchor="middle" x="31" y="-45.5" font-family="Helvetica,sans-Serif" font-size="10.00">operator&#45;=</text>
</g>
<!-- Node2 -->
<g id="node2" class="node"><title>Node2</title>
<g id="a_node2"><a xlink:href="classVector__3_a042a7f83fef9d5d115d1f53beecacd2c.html#a042a7f83fef9d5d115d1f53beecacd2c" target="_top" xlink:title="Vector_3::x">
<polygon fill="none" stroke="black" points="98.5,-76.5 98.5,-95.5 165.5,-95.5 165.5,-76.5 98.5,-76.5"/>
<text text-anchor="middle" x="132" y="-83.5" font-family="Helvetica,sans-Serif" font-size="10.00">Vector_3::x</text>
</a>
</g>
</g>
<!-- Node1&#45;&gt;Node2 -->
<g id="edge1" class="edge"><title>Node1&#45;&gt;Node2</title>
<path fill="none" stroke="midnightblue" d="M56.9819,-57.589C68.9411,-62.1794 83.4548,-67.7503 96.451,-72.7388"/>
<polygon fill="midnightblue" stroke="midnightblue" points="95.436,-76.0981 106.026,-76.4141 97.9445,-69.563 95.436,-76.0981"/>
</g>
<!-- Node3 -->
<g id="node3" class="node"><title>Node3</title>
<g id="a_node3"><a xlink:href="classVector__3_a0b50bd5bcd25dd6ac4139c7abf656e85.html#a0b50bd5bcd25dd6ac4139c7abf656e85" target="_top" xlink:title="Vector_3::y">
<polygon fill="none" stroke="black" points="98.5,-38.5 98.5,-57.5 165.5,-57.5 165.5,-38.5 98.5,-38.5"/>
<text text-anchor="middle" x="132" y="-45.5" font-family="Helvetica,sans-Serif" font-size="10.00">Vector_3::y</text>
</a>
</g>
</g>
<!-- Node1&#45;&gt;Node3 -->
<g id="edge2" class="edge"><title>Node1&#45;&gt;Node3</title>
<path fill="none" stroke="midnightblue" d="M61.7033,-48C69.9724,-48 79.1241,-48 87.9928,-48"/>
<polygon fill="midnightblue" stroke="midnightblue" points="88.2042,-51.5001 98.2042,-48 88.2041,-44.5001 88.2042,-51.5001"/>
</g>
<!-- Node4 -->
<g id="node4" class="node"><title>Node4</title>
<g id="a_node4"><a xlink:href="classVector__3_ae098ae990ee5ff007f41f62d8ff13764.html#ae098ae990ee5ff007f41f62d8ff13764" target="_top" xlink:title="Vector_3::z">
<polygon fill="none" stroke="black" points="98.5,-0.5 98.5,-19.5 165.5,-19.5 165.5,-0.5 98.5,-0.5"/>
<text text-anchor="middle" x="132" y="-7.5" font-family="Helvetica,sans-Serif" font-size="10.00">Vector_3::z</text>
</a>
</g>
</g>
<!-- Node1&#45;&gt;Node4 -->
<g id="edge3" class="edge"><title>Node1&#45;&gt;Node4</title>
<path fill="none" stroke="midnightblue" d="M56.9819,-38.411C68.9411,-33.8206 83.4548,-28.2497 96.451,-23.2612"/>
<polygon fill="midnightblue" stroke="midnightblue" points="97.9445,-26.437 106.026,-19.5859 95.436,-19.9019 97.9445,-26.437"/>
</g>
</g>
</svg>
