<?xml version="1.0" encoding="UTF-8" standalone="no"?>
<!DOCTYPE svg PUBLIC "-//W3C//DTD SVG 1.1//EN"
 "http://www.w3.org/Graphics/SVG/1.1/DTD/svg11.dtd">
<!-- Generated by graphviz version 2.30.1 (20150305.2338)
 -->
<!-- Title: Test__ElmerUnitTests Pages: 1 -->
<!--zoomable 480 -->
<svg id="main" version="1.1" xmlns="http://www.w3.org/2000/svg" xmlns:xlink="http://www.w3.org/1999/xlink" xml:space="preserve" onload="init(evt)">
<style type="text/css"><![CDATA[
.edge:hover path { stroke: red; }
.edge:hover polygon { stroke: red; fill: red; }
]]></style>
<script type="text/javascript"><![CDATA[
var edges = document.getElementsByTagName('g');
if (edges && edges.length) {
  for (var i=0;i<edges.length;i++) {
    if (edges[i].id.substr(0,4)=='edge') {
      edges[i].setAttribute('class','edge');
    }
  }
}
]]></script>
        <defs>
                <circle id="rim" cx="0" cy="0" r="7"/>
                <circle id="rim2" cx="0" cy="0" r="3.5"/>
                <g id="zoomPlus">
                        <use xlink:href="#rim" fill="#404040">
                                <set attributeName="fill" to="#808080" begin="zoomplus.mouseover" end="zoomplus.mouseout"/>
                        </use>
                        <path d="M-4,0h8M0,-4v8" fill="none" stroke="white" stroke-width="1.5" pointer-events="none"/>
                </g>
                <g id="zoomMin">
                        <use xlink:href="#rim" fill="#404040">
                                <set attributeName="fill" to="#808080" begin="zoomminus.mouseover" end="zoomminus.mouseout"/>
                        </use>
                        <path d="M-4,0h8" fill="none" stroke="white" stroke-width="1.5" pointer-events="none"/>
                </g>
                <g id="dirArrow">
                        <path fill="none" stroke="white" stroke-width="1.5" d="M0,-3.0v7 M-2.5,-0.5L0,-3.0L2.5,-0.5"/>
                </g>
               <g id="resetDef">
                       <use xlink:href="#rim2" fill="#404040">
                               <set attributeName="fill" to="#808080" begin="reset.mouseover" end="reset.mouseout"/>
                       </use>
               </g>
        </defs>

<script type="text/javascript">
var viewWidth = 648;
var viewHeight = 480;
var sectionId = 'dynsection-0';
</script>
<script xlink:href="svgpan.js"/>
<svg id="graph" class="graph">
<g id="viewport">
<title>Test__ElmerUnitTests</title>
<!-- Node1 -->
<g id="node1" class="node"><title>Node1</title>
<polygon fill="#bfbfbf" stroke="black" points="0.5,-224.5 0.5,-243.5 115.5,-243.5 115.5,-224.5 0.5,-224.5"/>
<text text-anchor="middle" x="58" y="-231.5" font-family="Helvetica,sans-Serif" font-size="10.00">Test__ElmerUnitTests</text>
</g>
<!-- Node2 -->
<g id="node2" class="node"><title>Node2</title>
<g id="a_node2"><a xlink:href="namespaceIRAD_1_1Sys_afe7cbdace3dec046da8a36d08578610d.html#afe7cbdace3dec046da8a36d08578610d" target="_top" xlink:title="IRAD::Sys::ChDir">
<polygon fill="none" stroke="black" points="346,-452.5 346,-471.5 442,-471.5 442,-452.5 346,-452.5"/>
<text text-anchor="middle" x="394" y="-459.5" font-family="Helvetica,sans-Serif" font-size="10.00">IRAD::Sys::ChDir</text>
</a>
</g>
</g>
<!-- Node1&#45;&gt;Node2 -->
<g id="edge1" class="edge"><title>Node1&#45;&gt;Node2</title>
<path fill="none" stroke="midnightblue" d="M61.685,-243.845C69.9627,-272.281 97.8602,-355.166 152,-397 205.365,-438.236 282.911,-453.357 335.516,-458.876"/>
<polygon fill="midnightblue" stroke="midnightblue" points="335.4,-462.381 345.69,-459.857 336.072,-455.413 335.4,-462.381"/>
</g>
<!-- Node3 -->
<g id="node3" class="node"><title>Node3</title>
<g id="a_node3"><a xlink:href="com__c_09_09_8hpp_a6f9e4ea8f2cb977968964f4cb5a4b4f6.html#a6f9e4ea8f2cb977968964f4cb5a4b4f6" target="_top" xlink:title="COM_call_function">
<polygon fill="none" stroke="black" points="170,-243.5 170,-262.5 270,-262.5 270,-243.5 170,-243.5"/>
<text text-anchor="middle" x="220" y="-250.5" font-family="Helvetica,sans-Serif" font-size="10.00">COM_call_function</text>
</a>
</g>
</g>
<!-- Node1&#45;&gt;Node3 -->
<g id="edge2" class="edge"><title>Node1&#45;&gt;Node3</title>
<path fill="none" stroke="midnightblue" d="M115.861,-240.752C130.027,-242.434 145.253,-244.243 159.541,-245.939"/>
<polygon fill="midnightblue" stroke="midnightblue" points="159.408,-249.448 169.751,-247.152 160.233,-242.497 159.408,-249.448"/>
</g>
<!-- Node4 -->
<g id="node4" class="node"><title>Node4</title>
<g id="a_node4"><a xlink:href="com__c_8h_a6dd240c15a2b3e85d2d91cbe9eec6611.html#a6dd240c15a2b3e85d2d91cbe9eec6611" target="_top" xlink:title="Get the address for an dataitem on a specific pane. ">
<polygon fill="none" stroke="black" points="177,-205.5 177,-224.5 263,-224.5 263,-205.5 177,-205.5"/>
<text text-anchor="middle" x="220" y="-212.5" font-family="Helvetica,sans-Serif" font-size="10.00">COM_get_array</text>
</a>
</g>
</g>
<!-- Node1&#45;&gt;Node4 -->
<g id="edge3" class="edge"><title>Node1&#45;&gt;Node4</title>
<path fill="none" stroke="midnightblue" d="M115.861,-227.248C132.365,-225.288 150.308,-223.157 166.53,-221.231"/>
<polygon fill="midnightblue" stroke="midnightblue" points="167.392,-224.653 176.91,-219.998 166.567,-217.702 167.392,-224.653"/>
</g>
<!-- Node5 -->
<g id="node5" class="node"><title>Node5</title>
<g id="a_node5"><a xlink:href="com__c_09_09_8hpp_a86224e33f2e17b4cee6c3256bfdff75d.html#a86224e33f2e17b4cee6c3256bfdff75d" target="_top" xlink:title="COM_get_dataitem_handle">
<polygon fill="none" stroke="black" points="152.5,-129.5 152.5,-148.5 287.5,-148.5 287.5,-129.5 152.5,-129.5"/>
<text text-anchor="middle" x="220" y="-136.5" font-family="Helvetica,sans-Serif" font-size="10.00">COM_get_dataitem_handle</text>
</a>
</g>
</g>
<!-- Node1&#45;&gt;Node5 -->
<g id="edge4" class="edge"><title>Node1&#45;&gt;Node5</title>
<path fill="none" stroke="midnightblue" d="M68.0917,-224.342C83.7399,-208.272 117.427,-176.031 152,-158 156.328,-155.743 160.958,-153.725 165.686,-151.927"/>
<polygon fill="midnightblue" stroke="midnightblue" points="167.161,-155.12 175.465,-148.539 164.87,-148.505 167.161,-155.12"/>
</g>
<!-- Node9 -->
<g id="node9" class="node"><title>Node9</title>
<g id="a_node9"><a xlink:href="com__c_09_09_8hpp_acbbf9749cce36d33b4c60c100bdfaea2.html#acbbf9749cce36d33b4c60c100bdfaea2" target="_top" xlink:title="COM_get_function_handle">
<polygon fill="none" stroke="black" points="154,-167.5 154,-186.5 286,-186.5 286,-167.5 154,-167.5"/>
<text text-anchor="middle" x="220" y="-174.5" font-family="Helvetica,sans-Serif" font-size="10.00">COM_get_function_handle</text>
</a>
</g>
</g>
<!-- Node1&#45;&gt;Node9 -->
<g id="edge8" class="edge"><title>Node1&#45;&gt;Node9</title>
<path fill="none" stroke="midnightblue" d="M80.5362,-224.4C99.2199,-216.265 127.102,-204.587 152,-196 158.604,-193.722 165.641,-191.505 172.577,-189.436"/>
<polygon fill="midnightblue" stroke="midnightblue" points="173.981,-192.674 182.608,-186.523 172.028,-185.951 173.981,-192.674"/>
</g>
<!-- Node11 -->
<g id="node11" class="node"><title>Node11</title>
<g id="a_node11"><a xlink:href="com__c_09_09_8hpp_a74e2d52abbc3b6532fc19b38deabba26.html#a74e2d52abbc3b6532fc19b38deabba26" target="_top" xlink:title="Get the sizes of an dataitem. ">
<polygon fill="none" stroke="black" points="179,-88.5 179,-107.5 261,-107.5 261,-88.5 179,-88.5"/>
<text text-anchor="middle" x="220" y="-95.5" font-family="Helvetica,sans-Serif" font-size="10.00">COM_get_size</text>
</a>
</g>
</g>
<!-- Node1&#45;&gt;Node11 -->
<g id="edge11" class="edge"><title>Node1&#45;&gt;Node11</title>
<path fill="none" stroke="midnightblue" d="M64.3589,-224.173C76.8154,-202.234 109.893,-148.924 152,-120 157.298,-116.361 163.241,-113.289 169.341,-110.705"/>
<polygon fill="midnightblue" stroke="midnightblue" points="170.886,-113.862 178.987,-107.034 168.396,-107.32 170.886,-113.862"/>
</g>
<!-- Node13 -->
<g id="node13" class="node"><title>Node13</title>
<g id="a_node13"><a xlink:href="com__c_09_09_8hpp_a18a6824608686682b76b860744a104d6.html#a18a6824608686682b76b860744a104d6" target="_top" xlink:title="COM_get_window_handle">
<polygon fill="none" stroke="black" points="154.5,-50.5 154.5,-69.5 285.5,-69.5 285.5,-50.5 154.5,-50.5"/>
<text text-anchor="middle" x="220" y="-57.5" font-family="Helvetica,sans-Serif" font-size="10.00">COM_get_window_handle</text>
</a>
</g>
</g>
<!-- Node1&#45;&gt;Node13 -->
<g id="edge14" class="edge"><title>Node1&#45;&gt;Node13</title>
<path fill="none" stroke="midnightblue" d="M61.9868,-224.276C70.8905,-196.949 99.9197,-118.868 152,-79 154.465,-77.1133 157.109,-75.4139 159.872,-73.8833"/>
<polygon fill="midnightblue" stroke="midnightblue" points="161.486,-76.9912 169.025,-69.5463 158.489,-70.6653 161.486,-76.9912"/>
</g>
<!-- Node15 -->
<g id="node15" class="node"><title>Node15</title>
<g id="a_node15"><a xlink:href="namespaceIRAD_1_1Sys_afae3306c1aef8273c2fd074f4f5c4fe6.html#afae3306c1aef8273c2fd074f4f5c4fe6" target="_top" xlink:title="IRAD::Sys::CWD">
<polygon fill="none" stroke="black" points="346.5,-414.5 346.5,-433.5 441.5,-433.5 441.5,-414.5 346.5,-414.5"/>
<text text-anchor="middle" x="394" y="-421.5" font-family="Helvetica,sans-Serif" font-size="10.00">IRAD::Sys::CWD</text>
</a>
</g>
</g>
<!-- Node1&#45;&gt;Node15 -->
<g id="edge17" class="edge"><title>Node1&#45;&gt;Node15</title>
<path fill="none" stroke="midnightblue" d="M63.4999,-243.793C74.8191,-267.308 106.831,-327.277 152,-358 207.654,-395.855 284.374,-412.068 336.18,-418.967"/>
<polygon fill="midnightblue" stroke="midnightblue" points="335.837,-422.451 346.196,-420.226 336.711,-415.506 335.837,-422.451"/>
</g>
<!-- Node16 -->
<g id="node16" class="node"><title>Node16</title>
<g id="a_node16"><a xlink:href="namespaceIRAD_1_1Sys_a64439af6e8939be5517df918e2ecea36.html#a64439af6e8939be5517df918e2ecea36" target="_top" xlink:title="IRAD::Sys::FILEEXISTS">
<polygon fill="none" stroke="black" points="330,-224.5 330,-243.5 458,-243.5 458,-224.5 330,-224.5"/>
<text text-anchor="middle" x="394" y="-231.5" font-family="Helvetica,sans-Serif" font-size="10.00">IRAD::Sys::FILEEXISTS</text>
</a>
</g>
</g>
<!-- Node1&#45;&gt;Node16 -->
<g id="edge18" class="edge"><title>Node1&#45;&gt;Node16</title>
<path fill="none" stroke="midnightblue" d="M76.5323,-243.579C94.7657,-252.953 124.445,-266.588 152,-272 211.311,-283.65 229.329,-286.533 288,-272 305.561,-267.65 307.18,-259.663 324,-253 329.989,-250.628 336.382,-248.437 342.77,-246.452"/>
<polygon fill="midnightblue" stroke="midnightblue" points="344.146,-249.694 352.745,-243.504 342.163,-242.981 344.146,-249.694"/>
</g>
<!-- Node17 -->
<g id="node17" class="node"><title>Node17</title>
<g id="a_node17"><a xlink:href="classElmerModuleDriver_1_1TestingObject_a90864b099beaf9044bf8fff8a9857c0d.html#a90864b099beaf9044bf8fff8a9857c0d" target="_top" xlink:title="Function to copy input data from source testing directory for use in unit tests. ">
<polygon fill="none" stroke="black" points="182.5,-329.5 182.5,-348.5 257.5,-348.5 257.5,-329.5 182.5,-329.5"/>
<text text-anchor="middle" x="220" y="-336.5" font-family="Helvetica,sans-Serif" font-size="10.00">GetInputData</text>
</a>
</g>
</g>
<!-- Node1&#45;&gt;Node17 -->
<g id="edge19" class="edge"><title>Node1&#45;&gt;Node17</title>
<path fill="none" stroke="midnightblue" d="M70.2527,-243.676C87.2668,-258.049 120.865,-285.444 152,-305 163.477,-312.209 176.675,-319.167 188.307,-324.89"/>
<polygon fill="midnightblue" stroke="midnightblue" points="187.108,-328.198 197.636,-329.386 190.147,-321.892 187.108,-328.198"/>
</g>
<!-- Node6 -->
<g id="node6" class="node"><title>Node6</title>
<g id="a_node6"><a xlink:href="COM__base_8hpp_a49353596e53127db61529b5c9000549d.html#a49353596e53127db61529b5c9000549d" target="_top" xlink:title="COM_get_com">
<polygon fill="none" stroke="black" points="352.5,-87.5 352.5,-106.5 435.5,-106.5 435.5,-87.5 352.5,-87.5"/>
<text text-anchor="middle" x="394" y="-94.5" font-family="Helvetica,sans-Serif" font-size="10.00">COM_get_com</text>
</a>
</g>
</g>
<!-- Node5&#45;&gt;Node6 -->
<g id="edge5" class="edge"><title>Node5&#45;&gt;Node6</title>
<path fill="none" stroke="midnightblue" d="M260.029,-129.47C284.902,-123.396 317.335,-115.476 343.943,-108.979"/>
<polygon fill="midnightblue" stroke="midnightblue" points="344.943,-112.338 353.828,-106.565 343.283,-105.537 344.943,-112.338"/>
</g>
<!-- Node8 -->
<g id="node8" class="node"><title>Node8</title>
<g id="a_node8"><a xlink:href="classCOM_1_1COM__base_a9fd7945150b9f390f5560bce2b7ea375.html#a9fd7945150b9f390f5560bce2b7ea375" target="_top" xlink:title="COM::COM_base::get\l_dataitem_handle">
<polygon fill="none" stroke="black" points="336.5,-126 336.5,-156 451.5,-156 451.5,-126 336.5,-126"/>
<text text-anchor="start" x="344.5" y="-144" font-family="Helvetica,sans-Serif" font-size="10.00">COM::COM_base::get</text>
<text text-anchor="middle" x="394" y="-133" font-family="Helvetica,sans-Serif" font-size="10.00">_dataitem_handle</text>
</a>
</g>
</g>
<!-- Node5&#45;&gt;Node8 -->
<g id="edge7" class="edge"><title>Node5&#45;&gt;Node8</title>
<path fill="none" stroke="midnightblue" d="M287.992,-139.779C300.52,-139.925 313.614,-140.077 326.138,-140.223"/>
<polygon fill="midnightblue" stroke="midnightblue" points="326.458,-143.726 336.498,-140.343 326.54,-136.727 326.458,-143.726"/>
</g>
<!-- Node7 -->
<g id="node7" class="node"><title>Node7</title>
<g id="a_node7"><a xlink:href="classCOM_1_1COM__base_a77bb770b9ec1aac99361c45efbccabc1.html#a77bb770b9ec1aac99361c45efbccabc1" target="_top" xlink:title="Get a pointer to the COM object. ">
<polygon fill="none" stroke="black" points="500.5,-87.5 500.5,-106.5 639.5,-106.5 639.5,-87.5 500.5,-87.5"/>
<text text-anchor="middle" x="570" y="-94.5" font-family="Helvetica,sans-Serif" font-size="10.00">COM::COM_base::get_com</text>
</a>
</g>
</g>
<!-- Node6&#45;&gt;Node7 -->
<g id="edge6" class="edge"><title>Node6&#45;&gt;Node7</title>
<path fill="none" stroke="midnightblue" d="M435.795,-97C452.058,-97 471.355,-97 490.141,-97"/>
<polygon fill="midnightblue" stroke="midnightblue" points="490.2,-100.5 500.2,-97 490.2,-93.5001 490.2,-100.5"/>
</g>
<!-- Node9&#45;&gt;Node6 -->
<g id="edge9" class="edge"><title>Node9&#45;&gt;Node6</title>
<path fill="none" stroke="midnightblue" d="M268.29,-167.393C275.194,-164.927 281.991,-161.845 288,-158 308.708,-144.748 303.241,-129.173 324,-116 329.709,-112.377 336.11,-109.436 342.649,-107.05"/>
<polygon fill="midnightblue" stroke="midnightblue" points="343.829,-110.347 352.265,-103.938 341.673,-103.687 343.829,-110.347"/>
</g>
<!-- Node10 -->
<g id="node10" class="node"><title>Node10</title>
<g id="a_node10"><a xlink:href="classCOM_1_1COM__base_a640995dd65a1fb030650457b9cf10b26.html#a640995dd65a1fb030650457b9cf10b26" target="_top" xlink:title="COM::COM_base::get\l_function_handle">
<polygon fill="none" stroke="black" points="336.5,-175 336.5,-205 451.5,-205 451.5,-175 336.5,-175"/>
<text text-anchor="start" x="344.5" y="-193" font-family="Helvetica,sans-Serif" font-size="10.00">COM::COM_base::get</text>
<text text-anchor="middle" x="394" y="-182" font-family="Helvetica,sans-Serif" font-size="10.00">_function_handle</text>
</a>
</g>
</g>
<!-- Node9&#45;&gt;Node10 -->
<g id="edge10" class="edge"><title>Node9&#45;&gt;Node10</title>
<path fill="none" stroke="midnightblue" d="M286.026,-181.915C299.216,-182.912 313.108,-183.962 326.354,-184.963"/>
<polygon fill="midnightblue" stroke="midnightblue" points="326.099,-188.453 336.335,-185.717 326.627,-181.473 326.099,-188.453"/>
</g>
<!-- Node11&#45;&gt;Node6 -->
<g id="edge12" class="edge"><title>Node11&#45;&gt;Node6</title>
<path fill="none" stroke="midnightblue" d="M261.326,-97.7655C285.413,-97.6255 316.233,-97.4463 341.999,-97.2965"/>
<polygon fill="midnightblue" stroke="midnightblue" points="342.351,-100.795 352.33,-97.2365 342.31,-93.7947 342.351,-100.795"/>
</g>
<!-- Node12 -->
<g id="node12" class="node"><title>Node12</title>
<g id="a_node12"><a xlink:href="classCOM_1_1COM__base_a0059534958a2bbdd57080473206cd1d0.html#a0059534958a2bbdd57080473206cd1d0" target="_top" xlink:title="Get the sizes of an dataitem. The opposite of set_size. ">
<polygon fill="none" stroke="black" points="325,-49.5 325,-68.5 463,-68.5 463,-49.5 325,-49.5"/>
<text text-anchor="middle" x="394" y="-56.5" font-family="Helvetica,sans-Serif" font-size="10.00">COM::COM_base::get_size</text>
</a>
</g>
</g>
<!-- Node11&#45;&gt;Node12 -->
<g id="edge13" class="edge"><title>Node11&#45;&gt;Node12</title>
<path fill="none" stroke="midnightblue" d="M261.326,-88.8562C285.081,-83.4699 315.386,-76.5985 340.933,-70.8059"/>
<polygon fill="midnightblue" stroke="midnightblue" points="341.85,-74.1869 350.829,-68.5621 340.302,-67.3602 341.85,-74.1869"/>
</g>
<!-- Node13&#45;&gt;Node6 -->
<g id="edge15" class="edge"><title>Node13&#45;&gt;Node6</title>
<path fill="none" stroke="midnightblue" d="M265.294,-69.5284C288.915,-74.6095 318.073,-80.882 342.562,-86.15"/>
<polygon fill="midnightblue" stroke="midnightblue" points="341.879,-89.5831 352.392,-88.2645 343.351,-82.7396 341.879,-89.5831"/>
</g>
<!-- Node14 -->
<g id="node14" class="node"><title>Node14</title>
<g id="a_node14"><a xlink:href="classCOM_1_1COM__base_a75bf2e262b938dbff2d0ea8a60a8d218.html#a75bf2e262b938dbff2d0ea8a60a8d218" target="_top" xlink:title="COM::COM_base::get\l_window_handle">
<polygon fill="none" stroke="black" points="336.5,-0 336.5,-30 451.5,-30 451.5,-0 336.5,-0"/>
<text text-anchor="start" x="344.5" y="-18" font-family="Helvetica,sans-Serif" font-size="10.00">COM::COM_base::get</text>
<text text-anchor="middle" x="394" y="-7" font-family="Helvetica,sans-Serif" font-size="10.00">_window_handle</text>
</a>
</g>
</g>
<!-- Node13&#45;&gt;Node14 -->
<g id="edge16" class="edge"><title>Node13&#45;&gt;Node14</title>
<path fill="none" stroke="midnightblue" d="M257.477,-50.4567C277.495,-45.2194 302.944,-38.5613 326.37,-32.4324"/>
<polygon fill="midnightblue" stroke="midnightblue" points="327.475,-35.761 336.264,-29.8438 325.703,-28.9889 327.475,-35.761"/>
</g>
<!-- Node17&#45;&gt;Node2 -->
<g id="edge20" class="edge"><title>Node17&#45;&gt;Node2</title>
<path fill="none" stroke="midnightblue" d="M227.778,-348.683C242.707,-369.271 280.574,-417.587 324,-443 327.906,-445.286 332.097,-447.306 336.413,-449.089"/>
<polygon fill="midnightblue" stroke="midnightblue" points="335.406,-452.448 345.999,-452.627 337.83,-445.881 335.406,-452.448"/>
</g>
<!-- Node18 -->
<g id="node18" class="node"><title>Node18</title>
<g id="a_node18"><a xlink:href="namespaceIRAD_1_1Sys_a907ccb4be0eba55b76775c69712059ad.html#a907ccb4be0eba55b76775c69712059ad" target="_top" xlink:title="IRAD::Sys::CreateDirectory">
<polygon fill="none" stroke="black" points="324,-376.5 324,-395.5 464,-395.5 464,-376.5 324,-376.5"/>
<text text-anchor="middle" x="394" y="-383.5" font-family="Helvetica,sans-Serif" font-size="10.00">IRAD::Sys::CreateDirectory</text>
</a>
</g>
</g>
<!-- Node17&#45;&gt;Node18 -->
<g id="edge21" class="edge"><title>Node17&#45;&gt;Node18</title>
<path fill="none" stroke="midnightblue" d="M255.807,-348.511C282.413,-355.781 319.297,-365.86 348.121,-373.737"/>
<polygon fill="midnightblue" stroke="midnightblue" points="347.381,-377.163 357.95,-376.422 349.226,-370.41 347.381,-377.163"/>
</g>
<!-- Node17&#45;&gt;Node15 -->
<g id="edge22" class="edge"><title>Node17&#45;&gt;Node15</title>
<path fill="none" stroke="midnightblue" d="M233.301,-348.646C251.938,-362.837 288.889,-389.35 324,-405 329.307,-407.366 334.978,-409.501 340.703,-411.411"/>
<polygon fill="midnightblue" stroke="midnightblue" points="339.744,-414.778 350.333,-414.415 341.828,-408.096 339.744,-414.778"/>
</g>
<!-- Node17&#45;&gt;Node16 -->
<g id="edge23" class="edge"><title>Node17&#45;&gt;Node16</title>
<path fill="none" stroke="midnightblue" d="M246.998,-329.405C260.231,-323.675 276.009,-315.462 288,-305 309.18,-286.52 301.073,-269.263 324,-253 326.736,-251.059 329.663,-249.316 332.709,-247.751"/>
<polygon fill="midnightblue" stroke="midnightblue" points="334.415,-250.823 342.137,-243.57 331.577,-244.425 334.415,-250.823"/>
</g>
<!-- Node19 -->
<g id="node19" class="node"><title>Node19</title>
<g id="a_node19"><a xlink:href="namespaceIRAD_1_1Sys_a0bcb3bbe82c724ff589d3ec071e5a506.html#a0bcb3bbe82c724ff589d3ec071e5a506" target="_top" xlink:title="IRAD::Sys::ISDIR">
<polygon fill="none" stroke="black" points="345,-338.5 345,-357.5 443,-357.5 443,-338.5 345,-338.5"/>
<text text-anchor="middle" x="394" y="-345.5" font-family="Helvetica,sans-Serif" font-size="10.00">IRAD::Sys::ISDIR</text>
</a>
</g>
</g>
<!-- Node17&#45;&gt;Node19 -->
<g id="edge24" class="edge"><title>Node17&#45;&gt;Node19</title>
<path fill="none" stroke="midnightblue" d="M257.898,-340.931C280.195,-342.097 309.113,-343.611 334.471,-344.937"/>
<polygon fill="midnightblue" stroke="midnightblue" points="334.554,-348.446 344.723,-345.474 334.919,-341.456 334.554,-348.446"/>
</g>
<!-- Node20 -->
<g id="node20" class="node"><title>Node20</title>
<g id="a_node20"><a xlink:href="namespaceIRAD_1_1Sys_a2d575706e1c0f851a9f9350d15ba4313.html#a2d575706e1c0f851a9f9350d15ba4313" target="_top" xlink:title="IRAD::Sys::ISLINK">
<polygon fill="none" stroke="black" points="342.5,-300.5 342.5,-319.5 445.5,-319.5 445.5,-300.5 342.5,-300.5"/>
<text text-anchor="middle" x="394" y="-307.5" font-family="Helvetica,sans-Serif" font-size="10.00">IRAD::Sys::ISLINK</text>
</a>
</g>
</g>
<!-- Node17&#45;&gt;Node20 -->
<g id="edge25" class="edge"><title>Node17&#45;&gt;Node20</title>
<path fill="none" stroke="midnightblue" d="M257.898,-332.779C279.587,-329.122 307.543,-324.409 332.391,-320.219"/>
<polygon fill="midnightblue" stroke="midnightblue" points="333.182,-323.635 342.461,-318.521 332.018,-316.733 333.182,-323.635"/>
</g>
<!-- Node21 -->
<g id="node21" class="node"><title>Node21</title>
<g id="a_node21"><a xlink:href="namespaceIRAD_1_1Sys_a05dbd3303c15001bdaeb27da8f5b7125.html#a05dbd3303c15001bdaeb27da8f5b7125" target="_top" xlink:title="IRAD::Sys::SymLink">
<polygon fill="none" stroke="black" points="339.5,-262.5 339.5,-281.5 448.5,-281.5 448.5,-262.5 339.5,-262.5"/>
<text text-anchor="middle" x="394" y="-269.5" font-family="Helvetica,sans-Serif" font-size="10.00">IRAD::Sys::SymLink</text>
</a>
</g>
</g>
<!-- Node17&#45;&gt;Node21 -->
<g id="edge26" class="edge"><title>Node17&#45;&gt;Node21</title>
<path fill="none" stroke="midnightblue" d="M239.211,-329.375C259.492,-318.928 293.449,-302.235 324,-291 330.425,-288.637 337.28,-286.412 344.083,-284.373"/>
<polygon fill="midnightblue" stroke="midnightblue" points="345.317,-287.66 353.956,-281.527 343.378,-280.934 345.317,-287.66"/>
</g>
</g>
</svg>
        <g id="navigator" transform="translate(0 0)" fill="#404254">
                <rect fill="#f2f5e9" fill-opacity="0.5" stroke="#606060" stroke-width=".5" x="0" y="0" width="60" height="60"/>
                <use id="zoomplus" xlink:href="#zoomPlus" x="17" y="9" onmousedown="handleZoom(evt,'in')"/>
                <use id="zoomminus" xlink:href="#zoomMin" x="42" y="9" onmousedown="handleZoom(evt,'out')"/>
                <use id="reset" xlink:href="#resetDef" x="30" y="36" onmousedown="handleReset()"/>
                <g id="arrowUp" xlink:href="#dirArrow" transform="translate(30 24)" onmousedown="handlePan(0,-1)">
                  <use xlink:href="#rim" fill="#404040">
                        <set attributeName="fill" to="#808080" begin="arrowUp.mouseover" end="arrowUp.mouseout"/>
                  </use>
                  <path fill="none" stroke="white" stroke-width="1.5" d="M0,-3.0v7 M-2.5,-0.5L0,-3.0L2.5,-0.5"/>
                </g>
                <g id="arrowRight" xlink:href="#dirArrow" transform="rotate(90) translate(36 -43)" onmousedown="handlePan(1,0)">
                  <use xlink:href="#rim" fill="#404040">
                        <set attributeName="fill" to="#808080" begin="arrowRight.mouseover" end="arrowRight.mouseout"/>
                  </use>
                  <path fill="none" stroke="white" stroke-width="1.5" d="M0,-3.0v7 M-2.5,-0.5L0,-3.0L2.5,-0.5"/>
                </g>
                <g id="arrowDown" xlink:href="#dirArrow" transform="rotate(180) translate(-30 -48)" onmousedown="handlePan(0,1)">
                  <use xlink:href="#rim" fill="#404040">
                        <set attributeName="fill" to="#808080" begin="arrowDown.mouseover" end="arrowDown.mouseout"/>
                  </use>
                  <path fill="none" stroke="white" stroke-width="1.5" d="M0,-3.0v7 M-2.5,-0.5L0,-3.0L2.5,-0.5"/>
                </g>
                <g id="arrowLeft" xlink:href="#dirArrow" transform="rotate(270) translate(-36 17)" onmousedown="handlePan(-1,0)">
                  <use xlink:href="#rim" fill="#404040">
                        <set attributeName="fill" to="#808080" begin="arrowLeft.mouseover" end="arrowLeft.mouseout"/>
                  </use>
                  <path fill="none" stroke="white" stroke-width="1.5" d="M0,-3.0v7 M-2.5,-0.5L0,-3.0L2.5,-0.5"/>
                </g>
        </g>
        <svg viewBox="0 0 15 15" width="100%" height="30px" preserveAspectRatio="xMaxYMin meet">
         <g id="arrow_out" transform="scale(0.3 0.3)">
          <a xlink:href="classElmerModuleDriver_1_1TestingObject_ada2078f55b55b73d4aacf78d061a57de_ada2078f55b55b73d4aacf78d061a57de_cgraph_org.svg" target="_base">
           <rect id="button" ry="5" rx="5" y="6" x="6" height="38" width="38"
                fill="#f2f5e9" fill-opacity="0.5" stroke="#606060" stroke-width="1.0"/>
           <path id="arrow"
             d="M 11.500037,31.436501 C 11.940474,20.09759 22.043105,11.32322 32.158766,21.979434 L 37.068811,17.246167 C 37.068811,17.246167 37.088388,32 37.088388,32 L 22.160133,31.978069 C 22.160133,31.978069 26.997745,27.140456 26.997745,27.140456 C 18.528582,18.264221 13.291696,25.230495 11.500037,31.436501 z"
             style="fill:#404040;"/>
          </a>
         </g>
        </svg>
</svg>
