<?xml version="1.0" encoding="UTF-8" standalone="no"?>
<!DOCTYPE svg PUBLIC "-//W3C//DTD SVG 1.1//EN"
 "http://www.w3.org/Graphics/SVG/1.1/DTD/svg11.dtd">
<!-- Generated by graphviz version 2.30.1 (20150305.2338)
 -->
<!-- Title: Size Pages: 1 -->
<svg width="486pt" height="354pt"
 viewBox="0.00 0.00 486.00 354.00" xmlns="http://www.w3.org/2000/svg" xmlns:xlink="http://www.w3.org/1999/xlink">
<g id="graph0" class="graph" transform="scale(1 1) rotate(0) translate(4 350)">
<title>Size</title>
<!-- Node1 -->
<g id="node1" class="node"><title>Node1</title>
<polygon fill="#bfbfbf" stroke="black" points="0,-98.5 0,-117.5 36,-117.5 36,-98.5 0,-98.5"/>
<text text-anchor="middle" x="18" y="-105.5" font-family="Helvetica,sans-Serif" font-size="10.00">Size</text>
</g>
<!-- Node2 -->
<g id="node2" class="node"><title>Node2</title>
<g id="a_node2"><a xlink:href="classIRAD_1_1Comm_1_1CommunicatorObject_a613f9cb226d1718e0569eec5ea1212b5.html#a613f9cb226d1718e0569eec5ea1212b5" target="_top" xlink:title="Gather">
<polygon fill="none" stroke="black" points="119,-231.5 119,-250.5 165,-250.5 165,-231.5 119,-231.5"/>
<text text-anchor="middle" x="142" y="-238.5" font-family="Helvetica,sans-Serif" font-size="10.00">Gather</text>
</a>
</g>
</g>
<!-- Node1&#45;&gt;Node2 -->
<g id="edge1" class="edge"><title>Node1&#45;&gt;Node2</title>
<path fill="none" stroke="midnightblue" d="M34.648,-125.059C60.5054,-153.248 111.342,-208.668 131.976,-231.163"/>
<polygon fill="midnightblue" stroke="midnightblue" points="37.113,-122.568 27.7739,-117.565 31.9545,-127.3 37.113,-122.568"/>
</g>
<!-- Node8 -->
<g id="node8" class="node"><title>Node8</title>
<g id="a_node8"><a xlink:href="namespaceCOM_ac3c87a84f9357bebe23933f58fa16aef.html#ac3c87a84f9357bebe23933f58fa16aef" target="_top" xlink:title="COM::parallelProgram">
<polygon fill="none" stroke="black" points="364.5,-155.5 364.5,-174.5 477.5,-174.5 477.5,-155.5 364.5,-155.5"/>
<text text-anchor="middle" x="421" y="-162.5" font-family="Helvetica,sans-Serif" font-size="10.00">COM::parallelProgram</text>
</a>
</g>
</g>
<!-- Node1&#45;&gt;Node8 -->
<g id="edge8" class="edge"><title>Node1&#45;&gt;Node8</title>
<path fill="none" stroke="midnightblue" d="M45.8678,-119.015C54.1296,-122.024 63.3321,-125.003 72,-127 173.568,-150.406 295.232,-159.506 364.483,-162.963"/>
<polygon fill="midnightblue" stroke="midnightblue" points="46.9468,-115.681 36.3559,-115.393 44.4556,-122.223 46.9468,-115.681"/>
</g>
<!-- Node9 -->
<g id="node9" class="node"><title>Node9</title>
<g id="a_node9"><a xlink:href="namespaceElmerFoamFSI_ae544cb65d02e78238b4c6f1690b9ffda.html#ae544cb65d02e78238b4c6f1690b9ffda" target="_top" xlink:title="Drives the ElmerFoamFSI::TestObject. ">
<polygon fill="none" stroke="black" points="72,-98.5 72,-117.5 212,-117.5 212,-98.5 72,-98.5"/>
<text text-anchor="middle" x="142" y="-105.5" font-family="Helvetica,sans-Serif" font-size="10.00">ElmerFoamFSI::ParallelTest</text>
</a>
</g>
</g>
<!-- Node1&#45;&gt;Node9 -->
<g id="edge9" class="edge"><title>Node1&#45;&gt;Node9</title>
<path fill="none" stroke="midnightblue" d="M46.3665,-108C54.0964,-108 62.8746,-108 71.8935,-108"/>
<polygon fill="midnightblue" stroke="midnightblue" points="46.2209,-104.5 36.2209,-108 46.2208,-111.5 46.2209,-104.5"/>
</g>
<!-- Node11 -->
<g id="node11" class="node"><title>Node11</title>
<g id="a_node11"><a xlink:href="namespaceElmerModuleDriver_a81f0cdc909567e8d6ef1546887dfa3e2.html#a81f0cdc909567e8d6ef1546887dfa3e2" target="_top" xlink:title="Drives the ElmerModuleDriver::TestObject. ">
<polygon fill="none" stroke="black" points="89,-49 89,-79 195,-79 195,-49 89,-49"/>
<text text-anchor="start" x="97" y="-67" font-family="Helvetica,sans-Serif" font-size="10.00">ElmerModuleDriver::</text>
<text text-anchor="middle" x="142" y="-56" font-family="Helvetica,sans-Serif" font-size="10.00">ParallelTest</text>
</a>
</g>
</g>
<!-- Node1&#45;&gt;Node11 -->
<g id="edge11" class="edge"><title>Node1&#45;&gt;Node11</title>
<path fill="none" stroke="midnightblue" d="M45.8242,-98.3257C61.5254,-92.663 81.6867,-85.3917 99.4083,-79.0003"/>
<polygon fill="midnightblue" stroke="midnightblue" points="44.4403,-95.1041 36.2209,-101.789 46.8152,-101.689 44.4403,-95.1041"/>
</g>
<!-- Node13 -->
<g id="node13" class="node"><title>Node13</title>
<g id="a_node13"><a xlink:href="namespaceOpenFoamModuleDriver_a2dc08fd0ec5c64aa9b09d8bb8b65f88e.html#a2dc08fd0ec5c64aa9b09d8bb8b65f88e" target="_top" xlink:title="Drives the OpenFoamModuleDriver::TestObject. ">
<polygon fill="none" stroke="black" points="81,-0 81,-30 203,-30 203,-0 81,-0"/>
<text text-anchor="start" x="89" y="-18" font-family="Helvetica,sans-Serif" font-size="10.00">OpenFoamModuleDriver</text>
<text text-anchor="middle" x="142" y="-7" font-family="Helvetica,sans-Serif" font-size="10.00">::ParallelTest</text>
</a>
</g>
</g>
<!-- Node1&#45;&gt;Node13 -->
<g id="edge13" class="edge"><title>Node1&#45;&gt;Node13</title>
<path fill="none" stroke="midnightblue" d="M29.1529,-89.3499C38.4463,-73.8772 53.5409,-52.3255 72,-39 76.7304,-35.5851 81.9887,-32.6226 87.4324,-30.06"/>
<polygon fill="midnightblue" stroke="midnightblue" points="26.0891,-87.6568 24.1378,-98.0704 32.1572,-91.1465 26.0891,-87.6568"/>
</g>
<!-- Node3 -->
<g id="node3" class="node"><title>Node3</title>
<g id="a_node3"><a xlink:href="classIRAD_1_1Comm_1_1CommunicatorObject_a105abb0b07bba73ac96ea42d21b31bb1.html#a105abb0b07bba73ac96ea42d21b31bb1" target="_top" xlink:title="AllGatherMO">
<polygon fill="none" stroke="black" points="251.5,-326.5 251.5,-345.5 324.5,-345.5 324.5,-326.5 251.5,-326.5"/>
<text text-anchor="middle" x="288" y="-333.5" font-family="Helvetica,sans-Serif" font-size="10.00">AllGatherMO</text>
</a>
</g>
</g>
<!-- Node2&#45;&gt;Node3 -->
<g id="edge2" class="edge"><title>Node2&#45;&gt;Node3</title>
<path fill="none" stroke="midnightblue" d="M162.809,-256.936C183.406,-273.117 216.924,-298.375 248,-317 253.556,-320.33 259.78,-323.567 265.597,-326.397"/>
<polygon fill="midnightblue" stroke="midnightblue" points="164.828,-254.07 154.817,-250.602 160.48,-259.556 164.828,-254.07"/>
</g>
<!-- Node4 -->
<g id="node4" class="node"><title>Node4</title>
<g id="a_node4"><a xlink:href="classIRAD_1_1Comm_1_1CommunicatorObject_af8875a37d3350bba6bc6836d5e52557b.html#af8875a37d3350bba6bc6836d5e52557b" target="_top" xlink:title="AllGatherMOV">
<polygon fill="none" stroke="black" points="248,-288.5 248,-307.5 328,-307.5 328,-288.5 248,-288.5"/>
<text text-anchor="middle" x="288" y="-295.5" font-family="Helvetica,sans-Serif" font-size="10.00">AllGatherMOV</text>
</a>
</g>
</g>
<!-- Node2&#45;&gt;Node4 -->
<g id="edge3" class="edge"><title>Node2&#45;&gt;Node4</title>
<path fill="none" stroke="midnightblue" d="M174.762,-253.573C201.248,-264.057 238.435,-278.776 262.622,-288.35"/>
<polygon fill="midnightblue" stroke="midnightblue" points="175.771,-250.208 165.184,-249.781 173.194,-256.716 175.771,-250.208"/>
</g>
<!-- Node5 -->
<g id="node5" class="node"><title>Node5</title>
<g id="a_node5"><a xlink:href="classIRAD_1_1Comm_1_1CommunicatorObject_af30bbfabcc659ee2de92caa170cfa080.html#af30bbfabcc659ee2de92caa170cfa080" target="_top" xlink:title="GatherMO">
<polygon fill="none" stroke="black" points="257,-250.5 257,-269.5 319,-269.5 319,-250.5 257,-250.5"/>
<text text-anchor="middle" x="288" y="-257.5" font-family="Helvetica,sans-Serif" font-size="10.00">GatherMO</text>
</a>
</g>
</g>
<!-- Node2&#45;&gt;Node5 -->
<g id="edge4" class="edge"><title>Node2&#45;&gt;Node5</title>
<path fill="none" stroke="midnightblue" d="M175.369,-245.271C199.744,-248.487 232.922,-252.865 256.763,-256.01"/>
<polygon fill="midnightblue" stroke="midnightblue" points="175.556,-241.765 165.184,-243.927 174.641,-248.705 175.556,-241.765"/>
</g>
<!-- Node6 -->
<g id="node6" class="node"><title>Node6</title>
<g id="a_node6"><a xlink:href="classIRAD_1_1Comm_1_1CommunicatorObject_a2e690f599d0d101ad0fb1e127a65ca3b.html#a2e690f599d0d101ad0fb1e127a65ca3b" target="_top" xlink:title="GatherMOV">
<polygon fill="none" stroke="black" points="254,-212.5 254,-231.5 322,-231.5 322,-212.5 254,-212.5"/>
<text text-anchor="middle" x="288" y="-219.5" font-family="Helvetica,sans-Serif" font-size="10.00">GatherMOV</text>
</a>
</g>
</g>
<!-- Node2&#45;&gt;Node6 -->
<g id="edge5" class="edge"><title>Node2&#45;&gt;Node6</title>
<path fill="none" stroke="midnightblue" d="M175.302,-236.738C198.695,-233.651 230.22,-229.492 253.814,-226.379"/>
<polygon fill="midnightblue" stroke="midnightblue" points="174.641,-233.295 165.184,-238.073 175.556,-240.235 174.641,-233.295"/>
</g>
<!-- Node7 -->
<g id="node7" class="node"><title>Node7</title>
<g id="a_node7"><a xlink:href="classIRAD_1_1Comm_1_1CommunicatorObject_ac14d54654ce657276552aa315da5ab37.html#ac14d54654ce657276552aa315da5ab37" target="_top" xlink:title="Gatherv">
<polygon fill="none" stroke="black" points="262.5,-174.5 262.5,-193.5 313.5,-193.5 313.5,-174.5 262.5,-174.5"/>
<text text-anchor="middle" x="288" y="-181.5" font-family="Helvetica,sans-Serif" font-size="10.00">Gatherv</text>
</a>
</g>
</g>
<!-- Node2&#45;&gt;Node7 -->
<g id="edge6" class="edge"><title>Node2&#45;&gt;Node7</title>
<path fill="none" stroke="midnightblue" d="M174.762,-228.427C201.248,-217.943 238.435,-203.224 262.622,-193.65"/>
<polygon fill="midnightblue" stroke="midnightblue" points="173.194,-225.284 165.184,-232.219 175.771,-231.792 173.194,-225.284"/>
</g>
<!-- Node7&#45;&gt;Node8 -->
<g id="edge7" class="edge"><title>Node7&#45;&gt;Node8</title>
<path fill="none" stroke="midnightblue" d="M323.593,-178.983C336.05,-177.176 350.442,-175.089 364.244,-173.087"/>
<polygon fill="midnightblue" stroke="midnightblue" points="323.034,-175.527 313.64,-180.426 324.039,-182.455 323.034,-175.527"/>
</g>
<!-- Node10 -->
<g id="node10" class="node"><title>Node10</title>
<g id="a_node10"><a xlink:href="ParallelTestElmerFoamFSI_8C_a0ddf1224851353fc92bfbff6f499fa97.html#a0ddf1224851353fc92bfbff6f499fa97" target="_top" xlink:title="main">
<polygon fill="none" stroke="black" points="269,-98.5 269,-117.5 307,-117.5 307,-98.5 269,-98.5"/>
<text text-anchor="middle" x="288" y="-105.5" font-family="Helvetica,sans-Serif" font-size="10.00">main</text>
</a>
</g>
</g>
<!-- Node9&#45;&gt;Node10 -->
<g id="edge10" class="edge"><title>Node9&#45;&gt;Node10</title>
<path fill="none" stroke="midnightblue" d="M222.346,-108C239.776,-108 256.626,-108 268.752,-108"/>
<polygon fill="midnightblue" stroke="midnightblue" points="222.048,-104.5 212.048,-108 222.048,-111.5 222.048,-104.5"/>
</g>
<!-- Node12 -->
<g id="node12" class="node"><title>Node12</title>
<g id="a_node12"><a xlink:href="ParallelTestElmerModuleDriver_8C_a0ddf1224851353fc92bfbff6f499fa97.html#a0ddf1224851353fc92bfbff6f499fa97" target="_top" xlink:title="main">
<polygon fill="none" stroke="black" points="269,-54.5 269,-73.5 307,-73.5 307,-54.5 269,-54.5"/>
<text text-anchor="middle" x="288" y="-61.5" font-family="Helvetica,sans-Serif" font-size="10.00">main</text>
</a>
</g>
</g>
<!-- Node11&#45;&gt;Node12 -->
<g id="edge12" class="edge"><title>Node11&#45;&gt;Node12</title>
<path fill="none" stroke="midnightblue" d="M205.495,-64C228.513,-64 252.849,-64 268.872,-64"/>
<polygon fill="midnightblue" stroke="midnightblue" points="205.395,-60.5001 195.395,-64 205.395,-67.5001 205.395,-60.5001"/>
</g>
<!-- Node14 -->
<g id="node14" class="node"><title>Node14</title>
<g id="a_node14"><a xlink:href="ParallelTestOpenFoamModuleDriver_8C_a0ddf1224851353fc92bfbff6f499fa97.html#a0ddf1224851353fc92bfbff6f499fa97" target="_top" xlink:title="main">
<polygon fill="none" stroke="black" points="269,-5.5 269,-24.5 307,-24.5 307,-5.5 269,-5.5"/>
<text text-anchor="middle" x="288" y="-12.5" font-family="Helvetica,sans-Serif" font-size="10.00">main</text>
</a>
</g>
</g>
<!-- Node13&#45;&gt;Node14 -->
<g id="edge14" class="edge"><title>Node13&#45;&gt;Node14</title>
<path fill="none" stroke="midnightblue" d="M213.257,-15C233.764,-15 254.46,-15 268.685,-15"/>
<polygon fill="midnightblue" stroke="midnightblue" points="213.235,-11.5001 203.235,-15 213.235,-18.5001 213.235,-11.5001"/>
</g>
</g>
</svg>
