<?xml version="1.0" encoding="UTF-8" standalone="no"?>
<!DOCTYPE svg PUBLIC "-//W3C//DTD SVG 1.1//EN"
 "http://www.w3.org/Graphics/SVG/1.1/DTD/svg11.dtd">
<!-- Generated by graphviz version 2.30.1 (20150305.2338)
 -->
<!-- Title: get_opposite_edge Pages: 1 -->
<svg width="526pt" height="85pt"
 viewBox="0.00 0.00 526.00 85.00" xmlns="http://www.w3.org/2000/svg" xmlns:xlink="http://www.w3.org/1999/xlink">
<g id="graph0" class="graph" transform="scale(1 1) rotate(0) translate(4 81)">
<title>get_opposite_edge</title>
<!-- Node1 -->
<g id="node1" class="node"><title>Node1</title>
<polygon fill="#bfbfbf" stroke="black" points="0,-19.5 0,-38.5 98,-38.5 98,-19.5 0,-19.5"/>
<text text-anchor="middle" x="49" y="-26.5" font-family="Helvetica,sans-Serif" font-size="10.00">get_opposite_edge</text>
</g>
<!-- Node2 -->
<g id="node2" class="node"><title>Node2</title>
<g id="a_node2"><a xlink:href="classSimple__manifold__2_aef03f5e4c6a6a5d7c98c42ae04a241e2.html#aef03f5e4c6a6a5d7c98c42ae04a241e2" target="_top" xlink:title="Get the opposite edge of a border edge for the whole pane. ">
<polygon fill="none" stroke="black" points="135.5,-57.5 135.5,-76.5 266.5,-76.5 266.5,-57.5 135.5,-57.5"/>
<text text-anchor="middle" x="201" y="-64.5" font-family="Helvetica,sans-Serif" font-size="10.00">get_opposite_edge_border</text>
</a>
</g>
</g>
<!-- Node1&#45;&gt;Node2 -->
<g id="edge1" class="edge"><title>Node1&#45;&gt;Node2</title>
<path fill="none" stroke="midnightblue" d="M87.8513,-38.589C107.467,-43.5583 131.619,-49.6767 152.479,-54.9613"/>
<polygon fill="midnightblue" stroke="midnightblue" points="151.868,-58.4169 162.421,-57.4799 153.587,-51.6313 151.868,-58.4169"/>
</g>
<!-- Node6 -->
<g id="node6" class="node"><title>Node6</title>
<g id="a_node6"><a xlink:href="classSimple__manifold__2_a1250f39747158bc5a1ed2fa7a7013978.html#a1250f39747158bc5a1ed2fa7a7013978" target="_top" xlink:title="Get the opposite edge of an interior edge of the whole pane. ">
<polygon fill="none" stroke="black" points="134.5,-19.5 134.5,-38.5 267.5,-38.5 267.5,-19.5 134.5,-19.5"/>
<text text-anchor="middle" x="201" y="-26.5" font-family="Helvetica,sans-Serif" font-size="10.00">get_opposite_edge_interior</text>
</a>
</g>
</g>
<!-- Node1&#45;&gt;Node6 -->
<g id="edge5" class="edge"><title>Node1&#45;&gt;Node6</title>
<path fill="none" stroke="midnightblue" d="M98.2866,-29C106.535,-29 115.28,-29 124.042,-29"/>
<polygon fill="midnightblue" stroke="midnightblue" points="124.307,-32.5001 134.307,-29 124.307,-25.5001 124.307,-32.5001"/>
</g>
<!-- Node4 -->
<g id="node4" class="node"><title>Node4</title>
<g id="a_node4"><a xlink:href="classFacet__ID_aa126fd94949c810d24869ad04cd97e15.html#aa126fd94949c810d24869ad04cd97e15" target="_top" xlink:title="Determines whether the facet is on border. ">
<polygon fill="none" stroke="black" points="304.5,-0.5 304.5,-19.5 407.5,-19.5 407.5,-0.5 304.5,-0.5"/>
<text text-anchor="middle" x="356" y="-7.5" font-family="Helvetica,sans-Serif" font-size="10.00">Facet_ID::is_border</text>
</a>
</g>
</g>
<!-- Node1&#45;&gt;Node4 -->
<g id="edge6" class="edge"><title>Node1&#45;&gt;Node4</title>
<path fill="none" stroke="midnightblue" d="M84.0366,-19.4923C99.1991,-15.7278 117.358,-11.8587 134,-10 187.948,-3.9749 249.766,-4.60939 294.278,-6.3828"/>
<polygon fill="midnightblue" stroke="midnightblue" points="294.212,-9.8831 304.353,-6.81534 294.512,-2.88954 294.212,-9.8831"/>
</g>
<!-- Node3 -->
<g id="node3" class="node"><title>Node3</title>
<g id="a_node3"><a xlink:href="classFacet__ID_a1dea367be190d5726e3aa6b8d0c47076.html#a1dea367be190d5726e3aa6b8d0c47076" target="_top" xlink:title="Element ID of the halfedge. ">
<polygon fill="none" stroke="black" points="318,-57.5 318,-76.5 394,-76.5 394,-57.5 318,-57.5"/>
<text text-anchor="middle" x="356" y="-64.5" font-family="Helvetica,sans-Serif" font-size="10.00">Facet_ID::eid</text>
</a>
</g>
</g>
<!-- Node2&#45;&gt;Node3 -->
<g id="edge2" class="edge"><title>Node2&#45;&gt;Node3</title>
<path fill="none" stroke="midnightblue" d="M266.886,-67C280.639,-67 294.904,-67 307.848,-67"/>
<polygon fill="midnightblue" stroke="midnightblue" points="307.911,-70.5001 317.911,-67 307.911,-63.5001 307.911,-70.5001"/>
</g>
<!-- Node2&#45;&gt;Node4 -->
<g id="edge3" class="edge"><title>Node2&#45;&gt;Node4</title>
<path fill="none" stroke="midnightblue" d="M238.241,-57.4945C247.987,-54.6872 258.466,-51.4377 268,-48 287.701,-40.8965 309.278,-31.4832 326.015,-23.8028"/>
<polygon fill="midnightblue" stroke="midnightblue" points="327.663,-26.8967 335.26,-19.5116 324.716,-20.5474 327.663,-26.8967"/>
</g>
<!-- Node5 -->
<g id="node5" class="node"><title>Node5</title>
<g id="a_node5"><a xlink:href="classFacet__ID_ae7df635a2e18521c31e7da0b999b802b.html#ae7df635a2e18521c31e7da0b999b802b" target="_top" xlink:title="Local edge ID of the halfedge within its element. ">
<polygon fill="none" stroke="black" points="444.5,-0.5 444.5,-19.5 517.5,-19.5 517.5,-0.5 444.5,-0.5"/>
<text text-anchor="middle" x="481" y="-7.5" font-family="Helvetica,sans-Serif" font-size="10.00">Facet_ID::lid</text>
</a>
</g>
</g>
<!-- Node4&#45;&gt;Node5 -->
<g id="edge4" class="edge"><title>Node4&#45;&gt;Node5</title>
<path fill="none" stroke="midnightblue" d="M407.739,-10C416.49,-10 425.54,-10 434.152,-10"/>
<polygon fill="midnightblue" stroke="midnightblue" points="434.39,-13.5001 444.39,-10 434.39,-6.5001 434.39,-13.5001"/>
</g>
</g>
</svg>
