<?xml version="1.0" encoding="UTF-8" standalone="no"?>
<!DOCTYPE svg PUBLIC "-//W3C//DTD SVG 1.1//EN"
 "http://www.w3.org/Graphics/SVG/1.1/DTD/svg11.dtd">
<!-- Generated by graphviz version 2.30.1 (20150305.2338)
 -->
<!-- Title: Pane_node_enumerator Pages: 1 -->
<!--zoomable 572 -->
<svg id="main" version="1.1" xmlns="http://www.w3.org/2000/svg" xmlns:xlink="http://www.w3.org/1999/xlink" xml:space="preserve" onload="init(evt)">
<style type="text/css"><![CDATA[
.edge:hover path { stroke: red; }
.edge:hover polygon { stroke: red; fill: red; }
]]></style>
<script type="text/javascript"><![CDATA[
var edges = document.getElementsByTagName('g');
if (edges && edges.length) {
  for (var i=0;i<edges.length;i++) {
    if (edges[i].id.substr(0,4)=='edge') {
      edges[i].setAttribute('class','edge');
    }
  }
}
]]></script>
        <defs>
                <circle id="rim" cx="0" cy="0" r="7"/>
                <circle id="rim2" cx="0" cy="0" r="3.5"/>
                <g id="zoomPlus">
                        <use xlink:href="#rim" fill="#404040">
                                <set attributeName="fill" to="#808080" begin="zoomplus.mouseover" end="zoomplus.mouseout"/>
                        </use>
                        <path d="M-4,0h8M0,-4v8" fill="none" stroke="white" stroke-width="1.5" pointer-events="none"/>
                </g>
                <g id="zoomMin">
                        <use xlink:href="#rim" fill="#404040">
                                <set attributeName="fill" to="#808080" begin="zoomminus.mouseover" end="zoomminus.mouseout"/>
                        </use>
                        <path d="M-4,0h8" fill="none" stroke="white" stroke-width="1.5" pointer-events="none"/>
                </g>
                <g id="dirArrow">
                        <path fill="none" stroke="white" stroke-width="1.5" d="M0,-3.0v7 M-2.5,-0.5L0,-3.0L2.5,-0.5"/>
                </g>
               <g id="resetDef">
                       <use xlink:href="#rim2" fill="#404040">
                               <set attributeName="fill" to="#808080" begin="reset.mouseover" end="reset.mouseout"/>
                       </use>
               </g>
        </defs>

<script type="text/javascript">
var viewWidth = 1596;
var viewHeight = 572;
var sectionId = 'dynsection-0';
</script>
<script xlink:href="svgpan.js"/>
<svg id="graph" class="graph">
<g id="viewport">
<title>Pane_node_enumerator</title>
<!-- Node1 -->
<g id="node1" class="node"><title>Node1</title>
<polygon fill="#bfbfbf" stroke="black" points="714.5,-544.5 714.5,-563.5 833.5,-563.5 833.5,-544.5 714.5,-544.5"/>
<text text-anchor="middle" x="774" y="-551.5" font-family="Helvetica,sans-Serif" font-size="10.00">Pane_node_enumerator</text>
</g>
<!-- Node2 -->
<g id="node2" class="node"><title>Node2</title>
<g id="a_node2"><a xlink:href="classConnectivity.html" target="_top" xlink:title="Encapsulates an element&#45;connectivity of a mesh. ">
<polygon fill="none" stroke="black" points="110.5,-404.5 110.5,-423.5 181.5,-423.5 181.5,-404.5 110.5,-404.5"/>
<text text-anchor="middle" x="146" y="-411.5" font-family="Helvetica,sans-Serif" font-size="10.00">Connectivity</text>
</a>
</g>
</g>
<!-- Node2&#45;&gt;Node1 -->
<g id="edge1" class="edge"><title>Node2&#45;&gt;Node1</title>
<path fill="none" stroke="#9a32cd" stroke-dasharray="5,2" d="M183.737,-426.762C267.372,-455.135 478.915,-523.062 662,-550 678.884,-552.484 697.36,-553.729 714.309,-554.294"/>
<polygon fill="#9a32cd" stroke="#9a32cd" points="184.777,-423.419 174.182,-423.504 182.517,-430.044 184.777,-423.419"/>
<text text-anchor="middle" x="500" y="-532" font-family="Helvetica,sans-Serif" font-size="10.00"> _conn</text>
</g>
<!-- Node5 -->
<g id="node5" class="node"><title>Node5</title>
<polygon fill="none" stroke="#bfbfbf" points="302.5,-404.5 302.5,-423.5 425.5,-423.5 425.5,-404.5 302.5,-404.5"/>
<text text-anchor="middle" x="364" y="-411.5" font-family="Helvetica,sans-Serif" font-size="10.00">vector&lt; Connectivity * &gt;</text>
</g>
<!-- Node2&#45;&gt;Node5 -->
<g id="edge5" class="edge"><title>Node2&#45;&gt;Node5</title>
<path fill="none" stroke="#9a32cd" stroke-dasharray="5,2" d="M192.076,-414C224.018,-414 267.235,-414 302.221,-414"/>
<polygon fill="#9a32cd" stroke="#9a32cd" points="191.704,-410.5 181.704,-414 191.704,-417.5 191.704,-410.5"/>
<text text-anchor="middle" x="242" y="-417" font-family="Helvetica,sans-Serif" font-size="10.00"> elements</text>
</g>
<!-- Node3 -->
<g id="node3" class="node"><title>Node3</title>
<g id="a_node3"><a xlink:href="classDataItem.html" target="_top" xlink:title="A DataItem object is a data member of a window. ">
<polygon fill="none" stroke="black" points="745.5,-259.5 745.5,-278.5 802.5,-278.5 802.5,-259.5 745.5,-259.5"/>
<text text-anchor="middle" x="774" y="-266.5" font-family="Helvetica,sans-Serif" font-size="10.00">DataItem</text>
</a>
</g>
</g>
<!-- Node3&#45;&gt;Node2 -->
<g id="edge2" class="edge"><title>Node3&#45;&gt;Node2</title>
<path fill="none" stroke="darkgreen" d="M735.268,-277.74C622.629,-303.83 289.919,-380.896 181.548,-405.998"/>
<polygon fill="darkgreen" stroke="darkgreen" points="736.208,-281.115 745.16,-275.448 734.628,-274.295 736.208,-281.115"/>
</g>
<!-- Node8 -->
<g id="node8" class="node"><title>Node8</title>
<polygon fill="none" stroke="#bfbfbf" points="1008.5,-393.5 1008.5,-412.5 1117.5,-412.5 1117.5,-393.5 1008.5,-393.5"/>
<text text-anchor="middle" x="1063" y="-400.5" font-family="Helvetica,sans-Serif" font-size="10.00">vector&lt; DataItem * &gt;</text>
</g>
<!-- Node3&#45;&gt;Node8 -->
<g id="edge9" class="edge"><title>Node3&#45;&gt;Node8</title>
<path fill="none" stroke="#9a32cd" stroke-dasharray="5,2" d="M797.055,-284.557C812.115,-294.795 832.752,-308.085 852,-318 914.763,-350.33 992.755,-379.112 1033.76,-393.426"/>
<polygon fill="#9a32cd" stroke="#9a32cd" points="798.681,-281.427 788.461,-278.634 794.709,-287.191 798.681,-281.427"/>
<text text-anchor="middle" x="911" y="-372" font-family="Helvetica,sans-Serif" font-size="10.00"> elements</text>
</g>
<!-- Node11 -->
<g id="node11" class="node"><title>Node11</title>
<g id="a_node11"><a xlink:href="classFunction.html" target="_top" xlink:title="A Function object corresponds to a function member of a window. ">
<polygon fill="none" stroke="black" points="1036,-68.5 1036,-87.5 1090,-87.5 1090,-68.5 1036,-68.5"/>
<text text-anchor="middle" x="1063" y="-75.5" font-family="Helvetica,sans-Serif" font-size="10.00">Function</text>
</a>
</g>
</g>
<!-- Node3&#45;&gt;Node11 -->
<g id="edge18" class="edge"><title>Node3&#45;&gt;Node11</title>
<path fill="none" stroke="#9a32cd" stroke-dasharray="5,2" d="M812.449,-263.056C820.434,-260.239 828.197,-256.095 834,-250 855.261,-227.669 833.366,-207.566 852,-183 888.851,-134.416 917.761,-144.455 970,-113 978.032,-108.164 979.482,-105.918 988,-102 1003.34,-94.9455 1021.34,-89.0581 1035.75,-84.88"/>
<polygon fill="#9a32cd" stroke="#9a32cd" points="811.349,-259.731 802.717,-265.875 813.296,-266.454 811.349,-259.731"/>
<text text-anchor="middle" x="911" y="-186" font-family="Helvetica,sans-Serif" font-size="10.00"> _attr</text>
</g>
<!-- Node19 -->
<g id="node19" class="node"><title>Node19</title>
<polygon fill="none" stroke="#bfbfbf" points="988,-248.5 988,-267.5 1138,-267.5 1138,-248.5 988,-248.5"/>
<text text-anchor="middle" x="1063" y="-255.5" font-family="Helvetica,sans-Serif" font-size="10.00">map&lt; std::string, DataItem * &gt;</text>
</g>
<!-- Node3&#45;&gt;Node19 -->
<g id="edge32" class="edge"><title>Node3&#45;&gt;Node19</title>
<path fill="none" stroke="#9a32cd" stroke-dasharray="5,2" d="M805.592,-282.397C819.47,-287.772 836.267,-293.322 852,-296 903.701,-304.802 918.698,-306.887 970,-296 978.564,-294.183 979.942,-291.423 988,-288 1004.59,-280.954 1023.41,-273.328 1037.92,-267.528"/>
<polygon fill="#9a32cd" stroke="#9a32cd" points="806.642,-279.047 796.059,-278.557 804.027,-285.54 806.642,-279.047"/>
<text text-anchor="middle" x="911" y="-306" font-family="Helvetica,sans-Serif" font-size="10.00"> elements</text>
</g>
<!-- Node3&#45;&gt;Node3 -->
<g id="edge35" class="edge"><title>Node3&#45;&gt;Node3</title>
<path fill="none" stroke="#9a32cd" stroke-dasharray="5,2" d="M756.593,-288.4C757.756,-293.315 763.558,-297 774,-297 790.707,-297 795.536,-287.565 788.488,-278.757"/>
<polygon fill="#9a32cd" stroke="#9a32cd" points="759.965,-289.342 759.512,-278.757 753.265,-287.314 759.965,-289.342"/>
<text text-anchor="middle" x="774" y="-300" font-family="Helvetica,sans-Serif" font-size="10.00"> _parent</text>
</g>
<!-- Node4 -->
<g id="node4" class="node"><title>Node4</title>
<g id="a_node4"><a xlink:href="classPane.html" target="_top" xlink:title="A Pane object contains a mesh, pane dataitem, and field variables. ">
<polygon fill="none" stroke="black" points="589.5,-419.5 589.5,-438.5 628.5,-438.5 628.5,-419.5 589.5,-419.5"/>
<text text-anchor="middle" x="609" y="-426.5" font-family="Helvetica,sans-Serif" font-size="10.00">Pane</text>
</a>
</g>
</g>
<!-- Node4&#45;&gt;Node3 -->
<g id="edge3" class="edge"><title>Node4&#45;&gt;Node3</title>
<path fill="none" stroke="#9a32cd" stroke-dasharray="5,2" d="M623.601,-411.394C633.725,-398.644 648.135,-381.221 662,-367 695.737,-332.396 739.786,-295.764 760.806,-278.746"/>
<polygon fill="#9a32cd" stroke="#9a32cd" points="620.755,-409.351 617.335,-419.379 626.262,-413.672 620.755,-409.351"/>
<text text-anchor="middle" x="679" y="-370" font-family="Helvetica,sans-Serif" font-size="10.00"> _pane</text>
</g>
<!-- Node18 -->
<g id="node18" class="node"><title>Node18</title>
<polygon fill="none" stroke="#bfbfbf" points="1013.5,-297.5 1013.5,-316.5 1112.5,-316.5 1112.5,-297.5 1013.5,-297.5"/>
<text text-anchor="middle" x="1063" y="-304.5" font-family="Helvetica,sans-Serif" font-size="10.00">map&lt; int, Pane * &gt;</text>
</g>
<!-- Node4&#45;&gt;Node18 -->
<g id="edge26" class="edge"><title>Node4&#45;&gt;Node18</title>
<path fill="none" stroke="#9a32cd" stroke-dasharray="5,2" d="M638.42,-420.189C683.515,-406.316 774.312,-378.818 852,-358 909.983,-342.463 977.519,-326.425 1020.02,-316.582"/>
<polygon fill="#9a32cd" stroke="#9a32cd" points="637.267,-416.882 628.742,-423.173 639.329,-423.571 637.267,-416.882"/>
<text text-anchor="middle" x="774" y="-399" font-family="Helvetica,sans-Serif" font-size="10.00"> elements</text>
</g>
<!-- Node9 -->
<g id="node9" class="node"><title>Node9</title>
<g id="a_node9"><a xlink:href="classComponentInterface.html" target="_top" xlink:title="A ComponentInterface object contains multiple panes and multiple data dataitems. ">
<polygon fill="none" stroke="black" points="1482.5,-250.5 1482.5,-269.5 1587.5,-269.5 1587.5,-250.5 1482.5,-250.5"/>
<text text-anchor="middle" x="1535" y="-257.5" font-family="Helvetica,sans-Serif" font-size="10.00">ComponentInterface</text>
</a>
</g>
</g>
<!-- Node4&#45;&gt;Node9 -->
<g id="edge28" class="edge"><title>Node4&#45;&gt;Node9</title>
<path fill="none" stroke="#9a32cd" stroke-dasharray="5,2" d="M629.505,-445.2C658.746,-467.787 716.557,-506 773,-506 773,-506 773,-506 1325,-506 1451.37,-506 1517.28,-315.125 1531.19,-269.643"/>
<polygon fill="#9a32cd" stroke="#9a32cd" points="631.39,-442.228 621.381,-438.752 627.038,-447.71 631.39,-442.228"/>
<text text-anchor="middle" x="1063" y="-509" font-family="Helvetica,sans-Serif" font-size="10.00"> _dummy</text>
</g>
<!-- Node4&#45;&gt;Node1 -->
<g id="edge36" class="edge"><title>Node4&#45;&gt;Node1</title>
<path fill="none" stroke="#9a32cd" stroke-dasharray="5,2" d="M616.729,-448.299C624.615,-468.213 639.532,-498.853 662,-517 678.514,-530.338 700.041,-538.952 719.738,-544.476"/>
<polygon fill="#9a32cd" stroke="#9a32cd" points="619.934,-446.878 613.155,-438.736 613.377,-449.328 619.934,-446.878"/>
<text text-anchor="middle" x="679" y="-538" font-family="Helvetica,sans-Serif" font-size="10.00"> _pane</text>
</g>
<!-- Node5&#45;&gt;Node4 -->
<g id="edge4" class="edge"><title>Node5&#45;&gt;Node4</title>
<path fill="none" stroke="#9a32cd" stroke-dasharray="5,2" d="M435.694,-418.364C488.502,-421.624 556.928,-425.847 589.366,-427.85"/>
<polygon fill="#9a32cd" stroke="#9a32cd" points="435.889,-414.869 425.692,-417.746 435.458,-421.856 435.889,-414.869"/>
<text text-anchor="middle" x="500" y="-428" font-family="Helvetica,sans-Serif" font-size="10.00"> _cnct_set</text>
</g>
<!-- Node6 -->
<g id="node6" class="node"><title>Node6</title>
<g id="a_node6"><a xlink:title="STL class. ">
<polygon fill="none" stroke="#bfbfbf" points="112,-296.5 112,-315.5 180,-315.5 180,-296.5 112,-296.5"/>
<text text-anchor="middle" x="146" y="-303.5" font-family="Helvetica,sans-Serif" font-size="10.00">vector&lt; T &gt;</text>
</a>
</g>
</g>
<!-- Node6&#45;&gt;Node5 -->
<g id="edge6" class="edge"><title>Node6&#45;&gt;Node5</title>
<path fill="none" stroke="orange" stroke-dasharray="5,2" d="M175.308,-320.154C219.995,-342.497 305.722,-385.361 343.874,-404.437"/>
<polygon fill="orange" stroke="orange" points="176.678,-316.926 166.169,-315.584 173.548,-323.187 176.678,-316.926"/>
<text text-anchor="middle" x="242" y="-375" font-family="Helvetica,sans-Serif" font-size="10.00"> &lt; Connectivity * &gt;</text>
</g>
<!-- Node6&#45;&gt;Node8 -->
<g id="edge10" class="edge"><title>Node6&#45;&gt;Node8</title>
<path fill="none" stroke="orange" stroke-dasharray="5,2" d="M190.059,-311.096C300.152,-324.053 600.934,-358.999 852,-384 905.184,-389.296 966.008,-394.731 1008.46,-398.424"/>
<polygon fill="orange" stroke="orange" points="190.349,-307.606 180.008,-309.912 189.53,-314.558 190.349,-307.606"/>
<text text-anchor="middle" x="609" y="-365" font-family="Helvetica,sans-Serif" font-size="10.00"> &lt; DataItem * &gt;</text>
</g>
<!-- Node12 -->
<g id="node12" class="node"><title>Node12</title>
<polygon fill="none" stroke="#bfbfbf" points="444,-271.5 444,-290.5 556,-290.5 556,-271.5 444,-271.5"/>
<text text-anchor="middle" x="500" y="-278.5" font-family="Helvetica,sans-Serif" font-size="10.00">vector&lt; COM_Type &gt;</text>
</g>
<!-- Node6&#45;&gt;Node12 -->
<g id="edge15" class="edge"><title>Node6&#45;&gt;Node12</title>
<path fill="none" stroke="orange" stroke-dasharray="5,2" d="M190.126,-295.565C193.455,-294.965 196.774,-294.432 200,-294 284.588,-282.678 383.716,-280.533 443.906,-280.45"/>
<polygon fill="orange" stroke="orange" points="189.328,-292.155 180.196,-297.528 190.685,-299.022 189.328,-292.155"/>
<text text-anchor="middle" x="242" y="-297" font-family="Helvetica,sans-Serif" font-size="10.00"> &lt; COM_Type &gt;</text>
</g>
<!-- Node7 -->
<g id="node7" class="node"><title>Node7</title>
<polygon fill="none" stroke="#bfbfbf" points="0.5,-248.5 0.5,-267.5 29.5,-267.5 29.5,-248.5 0.5,-248.5"/>
<text text-anchor="middle" x="15" y="-255.5" font-family="Helvetica,sans-Serif" font-size="10.00">T</text>
</g>
<!-- Node7&#45;&gt;Node6 -->
<g id="edge7" class="edge"><title>Node7&#45;&gt;Node6</title>
<path fill="none" stroke="#9a32cd" stroke-dasharray="5,2" d="M39.2754,-266.661C61.8359,-275.055 95.9791,-287.76 119.321,-296.445"/>
<polygon fill="#9a32cd" stroke="#9a32cd" points="40.3981,-263.344 29.8053,-263.137 37.9569,-269.905 40.3981,-263.344"/>
<text text-anchor="middle" x="70" y="-287" font-family="Helvetica,sans-Serif" font-size="10.00"> elements</text>
</g>
<!-- Node15 -->
<g id="node15" class="node"><title>Node15</title>
<g id="a_node15"><a xlink:title="STL class. ">
<polygon fill="none" stroke="#bfbfbf" points="738,-221.5 738,-240.5 810,-240.5 810,-221.5 738,-221.5"/>
<text text-anchor="middle" x="774" y="-228.5" font-family="Helvetica,sans-Serif" font-size="10.00">map&lt; K, T &gt;</text>
</a>
</g>
</g>
<!-- Node7&#45;&gt;Node15 -->
<g id="edge22" class="edge"><title>Node7&#45;&gt;Node15</title>
<path fill="none" stroke="#9a32cd" stroke-dasharray="5,2" d="M39.3011,-250.097C64.9034,-242.129 107.394,-231 145,-231 145,-231 145,-231 610,-231 654.004,-231 704.691,-231 737.706,-231"/>
<polygon fill="#9a32cd" stroke="#9a32cd" points="38.1854,-246.779 29.7374,-253.173 40.3288,-253.443 38.1854,-246.779"/>
<text text-anchor="middle" x="364" y="-234" font-family="Helvetica,sans-Serif" font-size="10.00"> elements</text>
</g>
<!-- Node8&#45;&gt;Node4 -->
<g id="edge8" class="edge"><title>Node8&#45;&gt;Node4</title>
<path fill="none" stroke="#9a32cd" stroke-dasharray="5,2" d="M998.011,-412.106C988.631,-413.22 979.076,-414.233 970,-415 839.74,-426.005 682.223,-428.372 628.776,-428.87"/>
<polygon fill="#9a32cd" stroke="#9a32cd" points="998.592,-415.561 1008.09,-410.865 997.737,-408.613 998.592,-415.561"/>
<text text-anchor="middle" x="774" y="-430" font-family="Helvetica,sans-Serif" font-size="10.00"> _attr_set</text>
</g>
<!-- Node9&#45;&gt;Node4 -->
<g id="edge11" class="edge"><title>Node9&#45;&gt;Node4</title>
<path fill="none" stroke="#9a32cd" stroke-dasharray="5,2" d="M1502.75,-273.552C1490.67,-278.75 1476.71,-284.703 1464,-290 1319.71,-350.124 1290.37,-387.093 1138,-422 1006.02,-452.237 969.33,-437.553 834,-442 757.597,-444.511 737.872,-451.34 662,-442 650.732,-440.613 638.394,-437.595 628.565,-434.817"/>
<polygon fill="#9a32cd" stroke="#9a32cd" points="1504.18,-276.746 1511.98,-269.572 1501.41,-270.318 1504.18,-276.746"/>
<text text-anchor="middle" x="1063" y="-444" font-family="Helvetica,sans-Serif" font-size="10.00"> _window</text>
</g>
<!-- Node10 -->
<g id="node10" class="node"><title>Node10</title>
<polygon fill="none" stroke="#bfbfbf" points="1254,-101.5 1254,-120.5 1394,-120.5 1394,-101.5 1254,-101.5"/>
<text text-anchor="middle" x="1324" y="-108.5" font-family="Helvetica,sans-Serif" font-size="10.00">map&lt; std::string, Function &gt;</text>
</g>
<!-- Node10&#45;&gt;Node9 -->
<g id="edge12" class="edge"><title>Node10&#45;&gt;Node9</title>
<path fill="none" stroke="#9a32cd" stroke-dasharray="5,2" d="M1356.22,-125.017C1385.49,-138.892 1429.74,-161.808 1464,-188 1489.21,-207.27 1513.95,-235.532 1526.15,-250.26"/>
<polygon fill="#9a32cd" stroke="#9a32cd" points="1357.45,-121.728 1346.91,-120.666 1354.49,-128.07 1357.45,-121.728"/>
<text text-anchor="middle" x="1438" y="-191" font-family="Helvetica,sans-Serif" font-size="10.00"> _func_map</text>
</g>
<!-- Node11&#45;&gt;Node10 -->
<g id="edge13" class="edge"><title>Node11&#45;&gt;Node10</title>
<path fill="none" stroke="#9a32cd" stroke-dasharray="5,2" d="M1100.41,-82.2782C1135.23,-86.4104 1189.23,-92.9196 1236,-99 1242.05,-99.7863 1248.33,-100.62 1254.63,-101.467"/>
<polygon fill="#9a32cd" stroke="#9a32cd" points="1100.58,-78.7749 1090.24,-81.0752 1099.76,-85.7264 1100.58,-78.7749"/>
<text text-anchor="middle" x="1196" y="-102" font-family="Helvetica,sans-Serif" font-size="10.00"> elements</text>
</g>
<!-- Node12&#45;&gt;Node11 -->
<g id="edge14" class="edge"><title>Node12&#45;&gt;Node11</title>
<path fill="none" stroke="#9a32cd" stroke-dasharray="5,2" d="M532.975,-267.29C613.78,-232.59 820.719,-143.363 834,-134 843.507,-127.298 841.755,-120.509 852,-115 883.463,-98.0799 986.844,-85.6423 1035.82,-80.5454"/>
<polygon fill="#9a32cd" stroke="#9a32cd" points="531.133,-264.272 523.324,-271.433 533.894,-270.705 531.133,-264.272"/>
<text text-anchor="middle" x="679" y="-212" font-family="Helvetica,sans-Serif" font-size="10.00"> _types</text>
</g>
<!-- Node13 -->
<g id="node13" class="node"><title>Node13</title>
<g id="a_node13"><a xlink:title="STL class. ">
<polygon fill="none" stroke="#bfbfbf" points="588.5,-75.5 588.5,-94.5 629.5,-94.5 629.5,-75.5 588.5,-75.5"/>
<text text-anchor="middle" x="609" y="-82.5" font-family="Helvetica,sans-Serif" font-size="10.00">string</text>
</a>
</g>
</g>
<!-- Node13&#45;&gt;Node11 -->
<g id="edge16" class="edge"><title>Node13&#45;&gt;Node11</title>
<path fill="none" stroke="#9a32cd" stroke-dasharray="5,2" d="M639.764,-84.539C723.021,-83.2497 957.326,-79.6211 1035.92,-78.4038"/>
<polygon fill="#9a32cd" stroke="#9a32cd" points="639.657,-81.0402 629.713,-84.6947 639.766,-88.0394 639.657,-81.0402"/>
<text text-anchor="middle" x="774" y="-87" font-family="Helvetica,sans-Serif" font-size="10.00"> _intents</text>
</g>
<!-- Node13&#45;&gt;Node10 -->
<g id="edge19" class="edge"><title>Node13&#45;&gt;Node10</title>
<path fill="none" stroke="#9a32cd" stroke-dasharray="5,2" d="M639.704,-79.7471C720.274,-66.3153 949.554,-33.5154 1138,-59 1196.52,-66.9139 1262.56,-88.7426 1297.74,-101.461"/>
<polygon fill="#9a32cd" stroke="#9a32cd" points="639.042,-76.3093 629.768,-81.4321 640.213,-83.2107 639.042,-76.3093"/>
<text text-anchor="middle" x="911" y="-58" font-family="Helvetica,sans-Serif" font-size="10.00"> keys</text>
</g>
<!-- Node13&#45;&gt;Node9 -->
<g id="edge29" class="edge"><title>Node13&#45;&gt;Node9</title>
<path fill="none" stroke="#9a32cd" stroke-dasharray="5,2" d="M627.561,-68.5513C655.856,-43.8403 714.323,-0 773,-0 773,-0 773,-0 1325,-0 1456.18,-0 1518.84,-203.531 1531.54,-250.438"/>
<polygon fill="#9a32cd" stroke="#9a32cd" points="625.2,-65.9671 620.093,-75.2494 629.874,-71.1783 625.2,-65.9671"/>
<text text-anchor="middle" x="1063" y="-3" font-family="Helvetica,sans-Serif" font-size="10.00"> _name</text>
</g>
<!-- Node13&#45;&gt;Node19 -->
<g id="edge31" class="edge"><title>Node13&#45;&gt;Node19</title>
<path fill="none" stroke="#9a32cd" stroke-dasharray="5,2" d="M639.597,-92.6006C646.907,-94.4223 654.727,-96.3241 662,-98 798.331,-129.416 847.54,-95.3485 970,-163 1009.39,-184.76 1042.39,-228.887 1055.7,-248.377"/>
<polygon fill="#9a32cd" stroke="#9a32cd" points="640.265,-89.1594 629.713,-90.1106 638.555,-95.9474 640.265,-89.1594"/>
<text text-anchor="middle" x="774" y="-122" font-family="Helvetica,sans-Serif" font-size="10.00"> keys</text>
</g>
<!-- Node13&#45;&gt;Node3 -->
<g id="edge34" class="edge"><title>Node13&#45;&gt;Node3</title>
<path fill="none" stroke="#9a32cd" stroke-dasharray="5,2" d="M630.797,-100.463C640.259,-107.43 651.636,-115.712 662,-123 676.923,-133.495 686.098,-130.677 696,-146 721.46,-185.399 683.234,-214.589 714,-250 721.834,-259.017 733.967,-263.787 745.197,-266.297"/>
<polygon fill="#9a32cd" stroke="#9a32cd" points="632.851,-97.6291 622.728,-94.5002 628.69,-103.259 632.851,-97.6291"/>
<text text-anchor="middle" x="679" y="-160" font-family="Helvetica,sans-Serif" font-size="10.00"> _name</text>
<text text-anchor="middle" x="679" y="-149" font-family="Helvetica,sans-Serif" font-size="10.00">_unit</text>
</g>
<!-- Node14 -->
<g id="node14" class="node"><title>Node14</title>
<g id="a_node14"><a xlink:title="STL class. ">
<polygon fill="none" stroke="#bfbfbf" points="311,-75.5 311,-94.5 417,-94.5 417,-75.5 311,-75.5"/>
<text text-anchor="middle" x="364" y="-82.5" font-family="Helvetica,sans-Serif" font-size="10.00">basic_string&lt; char &gt;</text>
</a>
</g>
</g>
<!-- Node14&#45;&gt;Node13 -->
<g id="edge17" class="edge"><title>Node14&#45;&gt;Node13</title>
<path fill="none" stroke="midnightblue" d="M427.138,-85C480.279,-85 553.507,-85 588.217,-85"/>
<polygon fill="midnightblue" stroke="midnightblue" points="427.13,-81.5001 417.13,-85 427.13,-88.5001 427.13,-81.5001"/>
</g>
<!-- Node15&#45;&gt;Node10 -->
<g id="edge20" class="edge"><title>Node15&#45;&gt;Node10</title>
<path fill="none" stroke="orange" stroke-dasharray="5,2" d="M816.508,-216.974C823.062,-213.268 829.236,-208.669 834,-203 853.286,-180.052 828.672,-156.824 852,-138 882.476,-113.408 1130.29,-110.491 1253.7,-110.588"/>
<polygon fill="orange" stroke="orange" points="814.826,-213.901 807.432,-221.49 817.945,-220.168 814.826,-213.901"/>
<text text-anchor="middle" x="1063" y="-120" font-family="Helvetica,sans-Serif" font-size="10.00"> &lt; std::string, Function &gt;</text>
</g>
<!-- Node17 -->
<g id="node17" class="node"><title>Node17</title>
<polygon fill="none" stroke="#bfbfbf" points="1156,-205.5 1156,-224.5 1236,-224.5 1236,-205.5 1156,-205.5"/>
<text text-anchor="middle" x="1196" y="-212.5" font-family="Helvetica,sans-Serif" font-size="10.00">map&lt; int, int &gt;</text>
</g>
<!-- Node15&#45;&gt;Node17 -->
<g id="edge24" class="edge"><title>Node15&#45;&gt;Node17</title>
<path fill="none" stroke="orange" stroke-dasharray="5,2" d="M820.347,-225.677C830.735,-224.628 841.739,-223.652 852,-223 961.973,-216.016 1092.13,-214.948 1155.86,-214.893"/>
<polygon fill="orange" stroke="orange" points="819.796,-222.216 810.216,-226.741 820.527,-229.178 819.796,-222.216"/>
<text text-anchor="middle" x="911" y="-226" font-family="Helvetica,sans-Serif" font-size="10.00"> &lt; int, int &gt;</text>
</g>
<!-- Node15&#45;&gt;Node18 -->
<g id="edge27" class="edge"><title>Node15&#45;&gt;Node18</title>
<path fill="none" stroke="orange" stroke-dasharray="5,2" d="M820.059,-244.069C824.84,-245.88 829.569,-247.861 834,-250 842.659,-254.18 843.078,-258.415 852,-262 901.428,-281.86 917.965,-271.601 970,-283 989.349,-287.239 1010.77,-292.777 1028.08,-297.465"/>
<polygon fill="orange" stroke="orange" points="820.848,-240.635 810.253,-240.593 818.509,-247.233 820.848,-240.635"/>
<text text-anchor="middle" x="911" y="-286" font-family="Helvetica,sans-Serif" font-size="10.00"> &lt; int, Pane * &gt;</text>
</g>
<!-- Node15&#45;&gt;Node19 -->
<g id="edge33" class="edge"><title>Node15&#45;&gt;Node19</title>
<path fill="none" stroke="orange" stroke-dasharray="5,2" d="M820.222,-235.254C865.153,-239.481 934.825,-246.036 987.857,-251.025"/>
<polygon fill="orange" stroke="orange" points="820.476,-231.763 810.192,-234.311 819.82,-238.732 820.476,-231.763"/>
<text text-anchor="middle" x="911" y="-252" font-family="Helvetica,sans-Serif" font-size="10.00"> &lt; std::string, DataItem * &gt;</text>
</g>
<!-- Node16 -->
<g id="node16" class="node"><title>Node16</title>
<polygon fill="none" stroke="#bfbfbf" points="594.5,-259.5 594.5,-278.5 623.5,-278.5 623.5,-259.5 594.5,-259.5"/>
<text text-anchor="middle" x="609" y="-266.5" font-family="Helvetica,sans-Serif" font-size="10.00">K</text>
</g>
<!-- Node16&#45;&gt;Node15 -->
<g id="edge21" class="edge"><title>Node16&#45;&gt;Node15</title>
<path fill="none" stroke="#9a32cd" stroke-dasharray="5,2" d="M633.464,-263.53C660.777,-257.162 706.162,-246.582 737.726,-239.223"/>
<polygon fill="#9a32cd" stroke="#9a32cd" points="632.561,-260.146 623.617,-265.826 634.15,-266.964 632.561,-260.146"/>
<text text-anchor="middle" x="679" y="-259" font-family="Helvetica,sans-Serif" font-size="10.00"> keys</text>
</g>
<!-- Node17&#45;&gt;Node9 -->
<g id="edge23" class="edge"><title>Node17&#45;&gt;Node9</title>
<path fill="none" stroke="#9a32cd" stroke-dasharray="5,2" d="M1246.1,-215.669C1286.1,-216.771 1343.95,-219.632 1394,-227 1430.93,-232.437 1472.48,-242.778 1500.65,-250.441"/>
<polygon fill="#9a32cd" stroke="#9a32cd" points="1246.16,-212.17 1236.08,-215.42 1245.99,-219.168 1246.16,-212.17"/>
<text text-anchor="middle" x="1324" y="-230" font-family="Helvetica,sans-Serif" font-size="10.00"> _proc_map</text>
</g>
<!-- Node18&#45;&gt;Node9 -->
<g id="edge25" class="edge"><title>Node18&#45;&gt;Node9</title>
<path fill="none" stroke="#9a32cd" stroke-dasharray="5,2" d="M1122.63,-303.836C1200.76,-299.204 1343.2,-289.31 1464,-273 1471.23,-272.024 1478.84,-270.808 1486.28,-269.513"/>
<polygon fill="#9a32cd" stroke="#9a32cd" points="1122.28,-300.35 1112.5,-304.428 1122.69,-307.338 1122.28,-300.35"/>
<text text-anchor="middle" x="1324" y="-297" font-family="Helvetica,sans-Serif" font-size="10.00"> _pane_map</text>
</g>
<!-- Node19&#45;&gt;Node9 -->
<g id="edge30" class="edge"><title>Node19&#45;&gt;Node9</title>
<path fill="none" stroke="#9a32cd" stroke-dasharray="5,2" d="M1148.29,-258.359C1245.35,-258.772 1401.73,-259.437 1482.32,-259.78"/>
<polygon fill="#9a32cd" stroke="#9a32cd" points="1148.23,-254.858 1138.21,-258.316 1148.2,-261.858 1148.23,-254.858"/>
<text text-anchor="middle" x="1324" y="-262" font-family="Helvetica,sans-Serif" font-size="10.00"> _attr_map</text>
</g>
</g>
</svg>
        <g id="navigator" transform="translate(0 0)" fill="#404254">
                <rect fill="#f2f5e9" fill-opacity="0.5" stroke="#606060" stroke-width=".5" x="0" y="0" width="60" height="60"/>
                <use id="zoomplus" xlink:href="#zoomPlus" x="17" y="9" onmousedown="handleZoom(evt,'in')"/>
                <use id="zoomminus" xlink:href="#zoomMin" x="42" y="9" onmousedown="handleZoom(evt,'out')"/>
                <use id="reset" xlink:href="#resetDef" x="30" y="36" onmousedown="handleReset()"/>
                <g id="arrowUp" xlink:href="#dirArrow" transform="translate(30 24)" onmousedown="handlePan(0,-1)">
                  <use xlink:href="#rim" fill="#404040">
                        <set attributeName="fill" to="#808080" begin="arrowUp.mouseover" end="arrowUp.mouseout"/>
                  </use>
                  <path fill="none" stroke="white" stroke-width="1.5" d="M0,-3.0v7 M-2.5,-0.5L0,-3.0L2.5,-0.5"/>
                </g>
                <g id="arrowRight" xlink:href="#dirArrow" transform="rotate(90) translate(36 -43)" onmousedown="handlePan(1,0)">
                  <use xlink:href="#rim" fill="#404040">
                        <set attributeName="fill" to="#808080" begin="arrowRight.mouseover" end="arrowRight.mouseout"/>
                  </use>
                  <path fill="none" stroke="white" stroke-width="1.5" d="M0,-3.0v7 M-2.5,-0.5L0,-3.0L2.5,-0.5"/>
                </g>
                <g id="arrowDown" xlink:href="#dirArrow" transform="rotate(180) translate(-30 -48)" onmousedown="handlePan(0,1)">
                  <use xlink:href="#rim" fill="#404040">
                        <set attributeName="fill" to="#808080" begin="arrowDown.mouseover" end="arrowDown.mouseout"/>
                  </use>
                  <path fill="none" stroke="white" stroke-width="1.5" d="M0,-3.0v7 M-2.5,-0.5L0,-3.0L2.5,-0.5"/>
                </g>
                <g id="arrowLeft" xlink:href="#dirArrow" transform="rotate(270) translate(-36 17)" onmousedown="handlePan(-1,0)">
                  <use xlink:href="#rim" fill="#404040">
                        <set attributeName="fill" to="#808080" begin="arrowLeft.mouseover" end="arrowLeft.mouseout"/>
                  </use>
                  <path fill="none" stroke="white" stroke-width="1.5" d="M0,-3.0v7 M-2.5,-0.5L0,-3.0L2.5,-0.5"/>
                </g>
        </g>
        <svg viewBox="0 0 15 15" width="100%" height="30px" preserveAspectRatio="xMaxYMin meet">
         <g id="arrow_out" transform="scale(0.3 0.3)">
          <a xlink:href="classPane__node__enumerator__coll__graph_org.svg" target="_base">
           <rect id="button" ry="5" rx="5" y="6" x="6" height="38" width="38"
                fill="#f2f5e9" fill-opacity="0.5" stroke="#606060" stroke-width="1.0"/>
           <path id="arrow"
             d="M 11.500037,31.436501 C 11.940474,20.09759 22.043105,11.32322 32.158766,21.979434 L 37.068811,17.246167 C 37.068811,17.246167 37.088388,32 37.088388,32 L 22.160133,31.978069 C 22.160133,31.978069 26.997745,27.140456 26.997745,27.140456 C 18.528582,18.264221 13.291696,25.230495 11.500037,31.436501 z"
             style="fill:#404040;"/>
          </a>
         </g>
        </svg>
</svg>
