<?xml version="1.0" encoding="UTF-8" standalone="no"?>
<!DOCTYPE svg PUBLIC "-//W3C//DTD SVG 1.1//EN"
 "http://www.w3.org/Graphics/SVG/1.1/DTD/svg11.dtd">
<!-- Generated by graphviz version 2.30.1 (20150305.2338)
 -->
<!-- Title: Initialize Pages: 1 -->
<svg width="234pt" height="87pt"
 viewBox="0.00 0.00 234.00 87.00" xmlns="http://www.w3.org/2000/svg" xmlns:xlink="http://www.w3.org/1999/xlink">
<g id="graph0" class="graph" transform="scale(1 1) rotate(0) translate(4 83)">
<title>Initialize</title>
<!-- Node1 -->
<g id="node1" class="node"><title>Node1</title>
<polygon fill="#bfbfbf" stroke="black" points="0.5,-29.5 0.5,-48.5 53.5,-48.5 53.5,-29.5 0.5,-29.5"/>
<text text-anchor="middle" x="27" y="-36.5" font-family="Helvetica,sans-Serif" font-size="10.00">Initialize</text>
</g>
<!-- Node2 -->
<g id="node2" class="node"><title>Node2</title>
<g id="a_node2"><a xlink:href="classIRAD_1_1Util_1_1ComLineObject_a469b17dd7e622de0cb6b1c51e805994c.html#a469b17dd7e622de0cb6b1c51e805994c" target="_top" xlink:title="Specify usage for an option. ">
<polygon fill="none" stroke="black" points="90,-49 90,-79 226,-79 226,-49 90,-49"/>
<text text-anchor="start" x="98" y="-67" font-family="Helvetica,sans-Serif" font-size="10.00">IRAD::Util::ComLineObject</text>
<text text-anchor="middle" x="158" y="-56" font-family="Helvetica,sans-Serif" font-size="10.00">::AddHelp</text>
</a>
</g>
</g>
<!-- Node1&#45;&gt;Node2 -->
<g id="edge1" class="edge"><title>Node1&#45;&gt;Node2</title>
<path fill="none" stroke="midnightblue" d="M53.795,-43.999C61.5986,-45.5114 70.6016,-47.2561 79.9715,-49.072"/>
<polygon fill="midnightblue" stroke="midnightblue" points="79.3505,-52.5167 89.8338,-50.9833 80.6824,-45.6446 79.3505,-52.5167"/>
</g>
<!-- Node3 -->
<g id="node3" class="node"><title>Node3</title>
<g id="a_node3"><a xlink:href="classIRAD_1_1Util_1_1ComLineObject_ac3e609c01c92ed92e57a16d226f9cdb8.html#ac3e609c01c92ed92e57a16d226f9cdb8" target="_top" xlink:title="User interface to describe simple option. ">
<polygon fill="none" stroke="black" points="90,-0 90,-30 226,-30 226,-0 90,-0"/>
<text text-anchor="start" x="98" y="-18" font-family="Helvetica,sans-Serif" font-size="10.00">IRAD::Util::ComLineObject</text>
<text text-anchor="middle" x="158" y="-7" font-family="Helvetica,sans-Serif" font-size="10.00">::AddOption</text>
</a>
</g>
</g>
<!-- Node1&#45;&gt;Node3 -->
<g id="edge2" class="edge"><title>Node1&#45;&gt;Node3</title>
<path fill="none" stroke="midnightblue" d="M53.795,-34.2009C61.5986,-32.7491 70.6016,-31.0741 79.9715,-29.3309"/>
<polygon fill="midnightblue" stroke="midnightblue" points="80.6427,-32.7662 89.8338,-27.496 79.3623,-25.8842 80.6427,-32.7662"/>
</g>
</g>
</svg>
