<?xml version="1.0" encoding="UTF-8" standalone="no"?>
<!DOCTYPE svg PUBLIC "-//W3C//DTD SVG 1.1//EN"
 "http://www.w3.org/Graphics/SVG/1.1/DTD/svg11.dtd">
<!-- Generated by graphviz version 2.30.1 (20150305.2338)
 -->
<!-- Title: Process Pages: 1 -->
<svg width="366pt" height="306pt"
 viewBox="0.00 0.00 366.00 306.00" xmlns="http://www.w3.org/2000/svg" xmlns:xlink="http://www.w3.org/1999/xlink">
<g id="graph0" class="graph" transform="scale(1 1) rotate(0) translate(4 302)">
<title>Process</title>
<!-- Node1 -->
<g id="node1" class="node"><title>Node1</title>
<polygon fill="#bfbfbf" stroke="black" points="0.5,-142.5 0.5,-161.5 53.5,-161.5 53.5,-142.5 0.5,-142.5"/>
<text text-anchor="middle" x="27" y="-149.5" font-family="Helvetica,sans-Serif" font-size="10.00">Process</text>
</g>
<!-- Node2 -->
<g id="node2" class="node"><title>Node2</title>
<g id="a_node2"><a xlink:href="classOpenFoamModuleDriver_1_1TestingObject_aa25f45634aafbb580d94840ad8452745.html#aa25f45634aafbb580d94840ad8452745" target="_top" xlink:title="Tears down the testing fixtures if needed. ">
<polygon fill="none" stroke="black" points="141,-278.5 141,-297.5 195,-297.5 195,-278.5 141,-278.5"/>
<text text-anchor="middle" x="168" y="-285.5" font-family="Helvetica,sans-Serif" font-size="10.00">Epilogue</text>
</a>
</g>
</g>
<!-- Node1&#45;&gt;Node2 -->
<g id="edge1" class="edge"><title>Node1&#45;&gt;Node2</title>
<path fill="none" stroke="midnightblue" d="M30.2258,-161.608C35.954,-184.1 53.3931,-240.43 90,-269 101.504,-277.978 116.68,-282.779 130.516,-285.323"/>
<polygon fill="midnightblue" stroke="midnightblue" points="130.344,-288.836 140.753,-286.859 131.383,-281.913 130.344,-288.836"/>
</g>
<!-- Node3 -->
<g id="node3" class="node"><title>Node3</title>
<g id="a_node3"><a xlink:href="classOpenFoamModuleDriver_1_1TestingObject_aa3cdb6d60e9d9834c19efaab0b044421.html#aa3cdb6d60e9d9834c19efaab0b044421" target="_top" xlink:title="Sets up the data fixtures for the tests. ">
<polygon fill="none" stroke="black" points="140.5,-240.5 140.5,-259.5 195.5,-259.5 195.5,-240.5 140.5,-240.5"/>
<text text-anchor="middle" x="168" y="-247.5" font-family="Helvetica,sans-Serif" font-size="10.00">Prologue</text>
</a>
</g>
</g>
<!-- Node1&#45;&gt;Node3 -->
<g id="edge2" class="edge"><title>Node1&#45;&gt;Node3</title>
<path fill="none" stroke="midnightblue" d="M32.8301,-161.726C41.7192,-178.58 62.3231,-213.117 90,-231 101.981,-238.741 116.874,-243.328 130.361,-246.047"/>
<polygon fill="midnightblue" stroke="midnightblue" points="129.876,-249.515 140.328,-247.782 131.077,-242.619 129.876,-249.515"/>
</g>
<!-- Node4 -->
<g id="node4" class="node"><title>Node4</title>
<g id="a_node4"><a xlink:href="classOpenFoamModuleDriver_1_1TestingObject_a8e78f570bb5d2e3da7b24e8e106584df.html#a8e78f570bb5d2e3da7b24e8e106584df" target="_top" xlink:title="Test__LoadUnitTestData">
<polygon fill="none" stroke="black" points="105,-202.5 105,-221.5 231,-221.5 231,-202.5 105,-202.5"/>
<text text-anchor="middle" x="168" y="-209.5" font-family="Helvetica,sans-Serif" font-size="10.00">Test__LoadUnitTestData</text>
</a>
</g>
</g>
<!-- Node1&#45;&gt;Node4 -->
<g id="edge3" class="edge"><title>Node1&#45;&gt;Node4</title>
<path fill="none" stroke="midnightblue" d="M40.0913,-161.826C52.0856,-171.115 71.3259,-184.815 90,-193 95.4936,-195.408 101.347,-197.547 107.279,-199.438"/>
<polygon fill="midnightblue" stroke="midnightblue" points="106.705,-202.917 117.287,-202.391 108.686,-196.204 106.705,-202.917"/>
</g>
<!-- Node6 -->
<g id="node6" class="node"><title>Node6</title>
<g id="a_node6"><a xlink:href="classOpenFoamModuleDriver_1_1TestingObject_acd776bc91073ed46c42a02152ffd3a6d.html#acd776bc91073ed46c42a02152ffd3a6d" target="_top" xlink:title="Test__ModuleFunctionInitialize">
<polygon fill="none" stroke="black" points="92,-164.5 92,-183.5 244,-183.5 244,-164.5 92,-164.5"/>
<text text-anchor="middle" x="168" y="-171.5" font-family="Helvetica,sans-Serif" font-size="10.00">Test__ModuleFunctionInitialize</text>
</a>
</g>
</g>
<!-- Node1&#45;&gt;Node6 -->
<g id="edge5" class="edge"><title>Node1&#45;&gt;Node6</title>
<path fill="none" stroke="midnightblue" d="M53.8191,-156.086C66.0558,-158.023 81.3306,-160.441 96.66,-162.867"/>
<polygon fill="midnightblue" stroke="midnightblue" points="96.2858,-166.351 106.71,-164.458 97.3802,-159.437 96.2858,-166.351"/>
</g>
<!-- Node7 -->
<g id="node7" class="node"><title>Node7</title>
<g id="a_node7"><a xlink:href="classOpenFoamModuleDriver_1_1TestingObject_a06be0e9e75586dee0ba11c110a2b5863.html#a06be0e9e75586dee0ba11c110a2b5863" target="_top" xlink:title="Test__ModuleFunctionStep\lFluid">
<polygon fill="none" stroke="black" points="100,-115 100,-145 236,-145 236,-115 100,-115"/>
<text text-anchor="start" x="108" y="-133" font-family="Helvetica,sans-Serif" font-size="10.00">Test__ModuleFunctionStep</text>
<text text-anchor="middle" x="168" y="-122" font-family="Helvetica,sans-Serif" font-size="10.00">Fluid</text>
</a>
</g>
</g>
<!-- Node1&#45;&gt;Node7 -->
<g id="edge7" class="edge"><title>Node1&#45;&gt;Node7</title>
<path fill="none" stroke="midnightblue" d="M53.8191,-147.914C64.2672,-146.26 76.9302,-144.256 89.9509,-142.195"/>
<polygon fill="midnightblue" stroke="midnightblue" points="90.617,-145.633 99.9469,-140.613 89.5227,-138.719 90.617,-145.633"/>
</g>
<!-- Node8 -->
<g id="node8" class="node"><title>Node8</title>
<g id="a_node8"><a xlink:href="classOpenFoamModuleDriver_1_1TestingObject_a77a1d9a76340e835e6a4f6c9428f8796.html#a77a1d9a76340e835e6a4f6c9428f8796" target="_top" xlink:title="Test__ModuleLoadUnload">
<polygon fill="none" stroke="black" points="103,-76.5 103,-95.5 233,-95.5 233,-76.5 103,-76.5"/>
<text text-anchor="middle" x="168" y="-83.5" font-family="Helvetica,sans-Serif" font-size="10.00">Test__ModuleLoadUnload</text>
</a>
</g>
</g>
<!-- Node1&#45;&gt;Node8 -->
<g id="edge9" class="edge"><title>Node1&#45;&gt;Node8</title>
<path fill="none" stroke="midnightblue" d="M38.5841,-142.123C50.3034,-131.697 70.1714,-115.486 90,-106 95.8052,-103.223 102.048,-100.794 108.377,-98.6787"/>
<polygon fill="midnightblue" stroke="midnightblue" points="109.816,-101.898 118.342,-95.6079 107.755,-95.208 109.816,-101.898"/>
</g>
<!-- Node9 -->
<g id="node9" class="node"><title>Node9</title>
<g id="a_node9"><a xlink:href="classOpenFoamModuleDriver_1_1TestingObject_a8e6b96ff06b7c7dce865d4f5518b535e.html#a8e6b96ff06b7c7dce865d4f5518b535e" target="_top" xlink:title="Test__ModuleMeshRegistration">
<polygon fill="none" stroke="black" points="90.5,-38.5 90.5,-57.5 245.5,-57.5 245.5,-38.5 90.5,-38.5"/>
<text text-anchor="middle" x="168" y="-45.5" font-family="Helvetica,sans-Serif" font-size="10.00">Test__ModuleMeshRegistration</text>
</a>
</g>
</g>
<!-- Node1&#45;&gt;Node9 -->
<g id="edge10" class="edge"><title>Node1&#45;&gt;Node9</title>
<path fill="none" stroke="midnightblue" d="M32.2282,-142.384C40.5669,-124.587 60.8837,-86.5482 90,-67 93.0972,-64.9206 96.4014,-63.0685 99.8339,-61.4189"/>
<polygon fill="midnightblue" stroke="midnightblue" points="101.296,-64.6012 109.166,-57.5082 98.5903,-58.1451 101.296,-64.6012"/>
</g>
<!-- Node10 -->
<g id="node10" class="node"><title>Node10</title>
<g id="a_node10"><a xlink:href="classOpenFoamModuleDriver_1_1TestingObject_ad1aa2004b83b4520a22c3f62e7c219c5.html#ad1aa2004b83b4520a22c3f62e7c219c5" target="_top" xlink:title="Test__ModuleSurfaceData">
<polygon fill="none" stroke="black" points="101.5,-0.5 101.5,-19.5 234.5,-19.5 234.5,-0.5 101.5,-0.5"/>
<text text-anchor="middle" x="168" y="-7.5" font-family="Helvetica,sans-Serif" font-size="10.00">Test__ModuleSurfaceData</text>
</a>
</g>
</g>
<!-- Node1&#45;&gt;Node10 -->
<g id="edge12" class="edge"><title>Node1&#45;&gt;Node10</title>
<path fill="none" stroke="midnightblue" d="M29.9905,-142.257C35.2956,-118.87 52.0376,-59.2562 90,-29 92.2713,-27.1898 94.691,-25.5489 97.2194,-24.0617"/>
<polygon fill="midnightblue" stroke="midnightblue" points="98.8029,-27.1831 106.176,-19.5748 95.6676,-20.9245 98.8029,-27.1831"/>
</g>
<!-- Node5 -->
<g id="node5" class="node"><title>Node5</title>
<g id="a_node5"><a xlink:href="classOpenFoamModuleDriver_1_1TestingObject_a90d21e92a2797915cd73e0cf48731a5c.html#a90d21e92a2797915cd73e0cf48731a5c" target="_top" xlink:title="Function to copy input data from source testing directory for use in unit tests. ">
<polygon fill="none" stroke="black" points="282.5,-120.5 282.5,-139.5 357.5,-139.5 357.5,-120.5 282.5,-120.5"/>
<text text-anchor="middle" x="320" y="-127.5" font-family="Helvetica,sans-Serif" font-size="10.00">GetInputData</text>
</a>
</g>
</g>
<!-- Node4&#45;&gt;Node5 -->
<g id="edge4" class="edge"><title>Node4&#45;&gt;Node5</title>
<path fill="none" stroke="midnightblue" d="M221.98,-202.434C230.261,-199.953 238.538,-196.856 246,-193 268.378,-181.436 289.669,-161.701 303.42,-147.396"/>
<polygon fill="midnightblue" stroke="midnightblue" points="306.335,-149.403 310.597,-139.703 301.216,-144.628 306.335,-149.403"/>
</g>
<!-- Node6&#45;&gt;Node5 -->
<g id="edge6" class="edge"><title>Node6&#45;&gt;Node5</title>
<path fill="none" stroke="midnightblue" d="M207.909,-164.406C220.145,-161.252 233.677,-157.622 246,-154 257.682,-150.566 270.312,-146.531 281.73,-142.759"/>
<polygon fill="midnightblue" stroke="midnightblue" points="283.02,-146.018 291.398,-139.533 280.804,-139.378 283.02,-146.018"/>
</g>
<!-- Node7&#45;&gt;Node5 -->
<g id="edge8" class="edge"><title>Node7&#45;&gt;Node5</title>
<path fill="none" stroke="midnightblue" d="M236.103,-130C248.286,-130 260.751,-130 272.191,-130"/>
<polygon fill="midnightblue" stroke="midnightblue" points="272.372,-133.5 282.372,-130 272.372,-126.5 272.372,-133.5"/>
</g>
<!-- Node9&#45;&gt;Node5 -->
<g id="edge11" class="edge"><title>Node9&#45;&gt;Node5</title>
<path fill="none" stroke="midnightblue" d="M221.98,-57.5661C230.261,-60.047 238.538,-63.1441 246,-67 268.378,-78.564 289.669,-98.2988 303.42,-112.604"/>
<polygon fill="midnightblue" stroke="midnightblue" points="301.216,-115.372 310.597,-120.297 306.335,-110.597 301.216,-115.372"/>
</g>
<!-- Node10&#45;&gt;Node5 -->
<g id="edge13" class="edge"><title>Node10&#45;&gt;Node5</title>
<path fill="none" stroke="midnightblue" d="M227.248,-19.6301C233.877,-22.0793 240.293,-25.1501 246,-29 276.936,-49.8675 299.323,-88.4626 310.638,-111.426"/>
<polygon fill="midnightblue" stroke="midnightblue" points="307.484,-112.944 314.925,-120.485 313.811,-109.949 307.484,-112.944"/>
</g>
</g>
</svg>
