<?xml version="1.0" encoding="UTF-8" standalone="no"?>
<!DOCTYPE svg PUBLIC "-//W3C//DTD SVG 1.1//EN"
 "http://www.w3.org/Graphics/SVG/1.1/DTD/svg11.dtd">
<!-- Generated by graphviz version 2.30.1 (20150305.2338)
 -->
<!-- Title: operator== Pages: 1 -->
<svg width="200pt" height="66pt"
 viewBox="0.00 0.00 200.00 66.00" xmlns="http://www.w3.org/2000/svg" xmlns:xlink="http://www.w3.org/1999/xlink">
<g id="graph0" class="graph" transform="scale(1 1) rotate(0) translate(4 62)">
<title>operator==</title>
<!-- Node1 -->
<g id="node1" class="node"><title>Node1</title>
<polygon fill="#bfbfbf" stroke="black" points="0,-19.5 0,-38.5 64,-38.5 64,-19.5 0,-19.5"/>
<text text-anchor="middle" x="32" y="-26.5" font-family="Helvetica,sans-Serif" font-size="10.00">operator==</text>
</g>
<!-- Node2 -->
<g id="node2" class="node"><title>Node2</title>
<g id="a_node2"><a xlink:href="classVector__2_a042a7f83fef9d5d115d1f53beecacd2c.html#a042a7f83fef9d5d115d1f53beecacd2c" target="_top" xlink:title="Vector_2\&lt; T \&gt;::x">
<polygon fill="none" stroke="black" points="100.5,-38.5 100.5,-57.5 191.5,-57.5 191.5,-38.5 100.5,-38.5"/>
<text text-anchor="middle" x="146" y="-45.5" font-family="Helvetica,sans-Serif" font-size="10.00">Vector_2&lt; T &gt;::x</text>
</a>
</g>
</g>
<!-- Node1&#45;&gt;Node2 -->
<g id="edge1" class="edge"><title>Node1&#45;&gt;Node2</title>
<path fill="none" stroke="midnightblue" d="M64.1982,-28.1692C79.0287,-29.8845 96.7673,-32.8603 111.841,-36.1509"/>
<polygon fill="midnightblue" stroke="midnightblue" points="111.249,-39.6067 121.783,-38.4678 112.838,-32.7894 111.249,-39.6067"/>
</g>
<!-- Node1&#45;&gt;Node2 -->
<g id="edge2" class="edge"><title>Node1&#45;&gt;Node2</title>
<path fill="none" stroke="midnightblue" d="M56.2065,-38.5295C66.1178,-41.007 78.1452,-43.4327 90.1054,-45.4363"/>
<polygon fill="midnightblue" stroke="midnightblue" points="89.6647,-48.91 100.088,-47.012 90.7561,-41.9956 89.6647,-48.91"/>
</g>
<!-- Node3 -->
<g id="node3" class="node"><title>Node3</title>
<g id="a_node3"><a xlink:href="classVector__2_a0b50bd5bcd25dd6ac4139c7abf656e85.html#a0b50bd5bcd25dd6ac4139c7abf656e85" target="_top" xlink:title="Vector_2\&lt; T \&gt;::y">
<polygon fill="none" stroke="black" points="100.5,-0.5 100.5,-19.5 191.5,-19.5 191.5,-0.5 100.5,-0.5"/>
<text text-anchor="middle" x="146" y="-7.5" font-family="Helvetica,sans-Serif" font-size="10.00">Vector_2&lt; T &gt;::y</text>
</a>
</g>
</g>
<!-- Node1&#45;&gt;Node3 -->
<g id="edge3" class="edge"><title>Node1&#45;&gt;Node3</title>
<path fill="none" stroke="midnightblue" d="M56.2065,-19.4705C66.1178,-16.993 78.1452,-14.5673 90.1054,-12.5637"/>
<polygon fill="midnightblue" stroke="midnightblue" points="90.7561,-16.0044 100.088,-10.988 89.6647,-9.08995 90.7561,-16.0044"/>
</g>
<!-- Node1&#45;&gt;Node3 -->
<g id="edge4" class="edge"><title>Node1&#45;&gt;Node3</title>
<path fill="none" stroke="midnightblue" d="M64.1982,-29.8308C79.0287,-28.1155 96.7673,-25.1397 111.841,-21.8491"/>
<polygon fill="midnightblue" stroke="midnightblue" points="112.838,-25.2106 121.783,-19.5322 111.249,-18.3933 112.838,-25.2106"/>
</g>
</g>
</svg>
