<?xml version="1.0" encoding="UTF-8" standalone="no"?>
<!DOCTYPE svg PUBLIC "-//W3C//DTD SVG 1.1//EN"
 "http://www.w3.org/Graphics/SVG/1.1/DTD/svg11.dtd">
<!-- Generated by graphviz version 2.30.1 (20150305.2338)
 -->
<!-- Title: set Pages: 1 -->
<svg width="340pt" height="77pt"
 viewBox="0.00 0.00 340.00 77.00" xmlns="http://www.w3.org/2000/svg" xmlns:xlink="http://www.w3.org/1999/xlink">
<g id="graph0" class="graph" transform="scale(1 1) rotate(0) translate(4 73)">
<title>set</title>
<!-- Node1 -->
<g id="node1" class="node"><title>Node1</title>
<polygon fill="#bfbfbf" stroke="black" points="0,-27.5 0,-46.5 30,-46.5 30,-27.5 0,-27.5"/>
<text text-anchor="middle" x="15" y="-34.5" font-family="Helvetica,sans-Serif" font-size="10.00">set</text>
</g>
<!-- Node2 -->
<g id="node2" class="node"><title>Node2</title>
<g id="a_node2"><a xlink:href="classElement__node__enumerator_a35a62313d45990cfa4cab8caa1dfbff6.html#a35a62313d45990cfa4cab8caa1dfbff6" target="_top" xlink:title="Number of nodes per element. ">
<polygon fill="none" stroke="black" points="66.5,-22 66.5,-52 199.5,-52 199.5,-22 66.5,-22"/>
<text text-anchor="start" x="74.5" y="-40" font-family="Helvetica,sans-Serif" font-size="10.00">Element_node_enumerator</text>
<text text-anchor="middle" x="133" y="-29" font-family="Helvetica,sans-Serif" font-size="10.00">::size_of_nodes</text>
</a>
</g>
</g>
<!-- Node1&#45;&gt;Node2 -->
<g id="edge1" class="edge"><title>Node1&#45;&gt;Node2</title>
<path fill="none" stroke="midnightblue" d="M30.2239,-37C37.3022,-37 46.4602,-37 56.3778,-37"/>
<polygon fill="midnightblue" stroke="midnightblue" points="56.4997,-40.5001 66.4997,-37 56.4996,-33.5001 56.4997,-40.5001"/>
</g>
<!-- Node3 -->
<g id="node3" class="node"><title>Node3</title>
<g id="a_node3"><a xlink:href="classPane_ae5acbe47d704ceb866e3717e2ac9422f.html#ae5acbe47d704ceb866e3717e2ac9422f" target="_top" xlink:title="Dimension of the pane. ">
<polygon fill="none" stroke="black" points="239.5,-49.5 239.5,-68.5 328.5,-68.5 328.5,-49.5 239.5,-49.5"/>
<text text-anchor="middle" x="284" y="-56.5" font-family="Helvetica,sans-Serif" font-size="10.00">Pane::dimension</text>
</a>
</g>
</g>
<!-- Node2&#45;&gt;Node3 -->
<g id="edge2" class="edge"><title>Node2&#45;&gt;Node3</title>
<path fill="none" stroke="midnightblue" d="M199.787,-46.7136C209.634,-48.1675 219.688,-49.6519 229.246,-51.0631"/>
<polygon fill="midnightblue" stroke="midnightblue" points="228.986,-54.5626 239.39,-52.5609 230.008,-47.6377 228.986,-54.5626"/>
</g>
<!-- Node4 -->
<g id="node4" class="node"><title>Node4</title>
<g id="a_node4"><a xlink:href="classConnectivity_a6b814939135364a0cd18ee54799897ee.html#a6b814939135364a0cd18ee54799897ee" target="_top" xlink:title="Get the number of nodes per element of the current connectivity table. ">
<polygon fill="none" stroke="black" points="236.5,-0 236.5,-30 331.5,-30 331.5,-0 236.5,-0"/>
<text text-anchor="start" x="244.5" y="-18" font-family="Helvetica,sans-Serif" font-size="10.00">Connectivity::size</text>
<text text-anchor="middle" x="284" y="-7" font-family="Helvetica,sans-Serif" font-size="10.00">_of_nodes_pe</text>
</a>
</g>
</g>
<!-- Node2&#45;&gt;Node4 -->
<g id="edge3" class="edge"><title>Node2&#45;&gt;Node4</title>
<path fill="none" stroke="midnightblue" d="M199.787,-27.2864C208.641,-25.9793 217.66,-24.6475 226.337,-23.3664"/>
<polygon fill="midnightblue" stroke="midnightblue" points="226.953,-26.8134 236.334,-21.8902 225.93,-19.8885 226.953,-26.8134"/>
</g>
</g>
</svg>
