<?xml version="1.0" encoding="UTF-8" standalone="no"?>
<!DOCTYPE svg PUBLIC "-//W3C//DTD SVG 1.1//EN"
 "http://www.w3.org/Graphics/SVG/1.1/DTD/svg11.dtd">
<!-- Generated by graphviz version 2.30.1 (20150305.2338)
 -->
<!-- Title: Gather Pages: 1 -->
<svg width="130pt" height="66pt"
 viewBox="0.00 0.00 130.00 66.00" xmlns="http://www.w3.org/2000/svg" xmlns:xlink="http://www.w3.org/1999/xlink">
<g id="graph0" class="graph" transform="scale(1 1) rotate(0) translate(4 62)">
<title>Gather</title>
<!-- Node1 -->
<g id="node1" class="node"><title>Node1</title>
<polygon fill="#bfbfbf" stroke="black" points="0,-19.5 0,-38.5 46,-38.5 46,-19.5 0,-19.5"/>
<text text-anchor="middle" x="23" y="-26.5" font-family="Helvetica,sans-Serif" font-size="10.00">Gather</text>
</g>
<!-- Node2 -->
<g id="node2" class="node"><title>Node2</title>
<g id="a_node2"><a xlink:href="classIRAD_1_1Comm_1_1CommunicatorObject_a575c1da8fd55deeeb351cb509ddd3dda.html#a575c1da8fd55deeeb351cb509ddd3dda" target="_top" xlink:title="Rank">
<polygon fill="none" stroke="black" points="82,-38.5 82,-57.5 122,-57.5 122,-38.5 82,-38.5"/>
<text text-anchor="middle" x="102" y="-45.5" font-family="Helvetica,sans-Serif" font-size="10.00">Rank</text>
</a>
</g>
</g>
<!-- Node1&#45;&gt;Node2 -->
<g id="edge1" class="edge"><title>Node1&#45;&gt;Node2</title>
<path fill="none" stroke="midnightblue" d="M46.2716,-34.4956C54.2922,-36.4747 63.4629,-38.7376 71.9748,-40.8379"/>
<polygon fill="midnightblue" stroke="midnightblue" points="71.3618,-44.2916 81.9091,-43.2893 73.0388,-37.4954 71.3618,-44.2916"/>
</g>
<!-- Node3 -->
<g id="node3" class="node"><title>Node3</title>
<g id="a_node3"><a xlink:href="classIRAD_1_1Comm_1_1CommunicatorObject_af40990b9bd3d70d30e8ce7cdda1ad56f.html#af40990b9bd3d70d30e8ce7cdda1ad56f" target="_top" xlink:title="Size">
<polygon fill="none" stroke="black" points="84,-0.5 84,-19.5 120,-19.5 120,-0.5 84,-0.5"/>
<text text-anchor="middle" x="102" y="-7.5" font-family="Helvetica,sans-Serif" font-size="10.00">Size</text>
</a>
</g>
</g>
<!-- Node1&#45;&gt;Node3 -->
<g id="edge2" class="edge"><title>Node1&#45;&gt;Node3</title>
<path fill="none" stroke="midnightblue" d="M46.2716,-23.5044C54.8272,-21.3933 64.6916,-18.9592 73.669,-16.744"/>
<polygon fill="midnightblue" stroke="midnightblue" points="74.7984,-20.0704 83.6687,-14.2766 73.1214,-13.2742 74.7984,-20.0704"/>
</g>
</g>
</svg>
