<?xml version="1.0" encoding="UTF-8" standalone="no"?>
<!DOCTYPE svg PUBLIC "-//W3C//DTD SVG 1.1//EN"
 "http://www.w3.org/Graphics/SVG/1.1/DTD/svg11.dtd">
<!-- Generated by graphviz version 2.30.1 (20150305.2338)
 -->
<!-- Title: C3Vector Pages: 1 -->
<svg width="152pt" height="66pt"
 viewBox="0.00 0.00 152.00 66.00" xmlns="http://www.w3.org/2000/svg" xmlns:xlink="http://www.w3.org/1999/xlink">
<g id="graph0" class="graph" transform="scale(1 1) rotate(0) translate(4 62)">
<title>C3Vector</title>
<!-- Node1 -->
<g id="node1" class="node"><title>Node1</title>
<polygon fill="#bfbfbf" stroke="black" points="0,-19.5 0,-38.5 58,-38.5 58,-19.5 0,-19.5"/>
<text text-anchor="middle" x="29" y="-26.5" font-family="Helvetica,sans-Serif" font-size="10.00">C3Vector</text>
</g>
<!-- Node2 -->
<g id="node2" class="node"><title>Node2</title>
<g id="a_node2"><a xlink:href="classSolverUtils_1_1GeoPrim_1_1C3Vector_a76362e9dac37d41cf05c2fb2f7652bf4.html#a76362e9dac37d41cf05c2fb2f7652bf4" target="_top" xlink:title="_create">
<polygon fill="none" stroke="black" points="94.5,-38.5 94.5,-57.5 143.5,-57.5 143.5,-38.5 94.5,-38.5"/>
<text text-anchor="middle" x="119" y="-45.5" font-family="Helvetica,sans-Serif" font-size="10.00">_create</text>
</a>
</g>
</g>
<!-- Node1&#45;&gt;Node2 -->
<g id="edge1" class="edge"><title>Node1&#45;&gt;Node2</title>
<path fill="none" stroke="midnightblue" d="M58.3281,-35.1163C66.7064,-36.9252 75.9567,-38.9225 84.6224,-40.7935"/>
<polygon fill="midnightblue" stroke="midnightblue" points="83.9259,-44.2237 94.4393,-42.913 85.4032,-37.3813 83.9259,-44.2237"/>
</g>
<!-- Node3 -->
<g id="node3" class="node"><title>Node3</title>
<g id="a_node3"><a xlink:href="classSolverUtils_1_1GeoPrim_1_1C3Vector_a0bbb12f0c9462031d693dfb919ce47c9.html#a0bbb12f0c9462031d693dfb919ce47c9" target="_top" xlink:title="Copy">
<polygon fill="none" stroke="black" points="99,-0.5 99,-19.5 139,-19.5 139,-0.5 99,-0.5"/>
<text text-anchor="middle" x="119" y="-7.5" font-family="Helvetica,sans-Serif" font-size="10.00">Copy</text>
</a>
</g>
</g>
<!-- Node1&#45;&gt;Node3 -->
<g id="edge2" class="edge"><title>Node1&#45;&gt;Node3</title>
<path fill="none" stroke="midnightblue" d="M58.3281,-22.8837C68.1729,-20.7581 79.2218,-18.3726 89.1113,-16.2373"/>
<polygon fill="midnightblue" stroke="midnightblue" points="89.8625,-19.6559 98.8985,-14.1242 88.3851,-12.8136 89.8625,-19.6559"/>
</g>
</g>
</svg>
