<?xml version="1.0" encoding="UTF-8" standalone="no"?>
<!DOCTYPE svg PUBLIC "-//W3C//DTD SVG 1.1//EN"
 "http://www.w3.org/Graphics/SVG/1.1/DTD/svg11.dtd">
<!-- Generated by graphviz version 2.30.1 (20150305.2338)
 -->
<!-- Title: operator&lt;= Pages: 1 -->
<svg width="212pt" height="104pt"
 viewBox="0.00 0.00 212.00 104.00" xmlns="http://www.w3.org/2000/svg" xmlns:xlink="http://www.w3.org/1999/xlink">
<g id="graph0" class="graph" transform="scale(1 1) rotate(0) translate(4 100)">
<title>operator&lt;=</title>
<!-- Node1 -->
<g id="node1" class="node"><title>Node1</title>
<polygon fill="#bfbfbf" stroke="black" points="0,-38.5 0,-57.5 64,-57.5 64,-38.5 0,-38.5"/>
<text text-anchor="middle" x="32" y="-45.5" font-family="Helvetica,sans-Serif" font-size="10.00">operator&lt;=</text>
</g>
<!-- Node2 -->
<g id="node2" class="node"><title>Node2</title>
<g id="a_node2"><a xlink:href="classSolverUtils_1_1GeoPrim_1_1CPoint_a0c08e460a130fd3b8eff7eb7484e878a.html#a0c08e460a130fd3b8eff7eb7484e878a" target="_top" xlink:title="norm">
<polygon fill="none" stroke="black" points="100,-38.5 100,-57.5 138,-57.5 138,-38.5 100,-38.5"/>
<text text-anchor="middle" x="119" y="-45.5" font-family="Helvetica,sans-Serif" font-size="10.00">norm</text>
</a>
</g>
</g>
<!-- Node1&#45;&gt;Node2 -->
<g id="edge1" class="edge"><title>Node1&#45;&gt;Node2</title>
<path fill="none" stroke="midnightblue" d="M64.1682,-48C72.4702,-48 81.3946,-48 89.543,-48"/>
<polygon fill="midnightblue" stroke="midnightblue" points="89.6903,-51.5001 99.6903,-48 89.6903,-44.5001 89.6903,-51.5001"/>
</g>
<!-- Node3 -->
<g id="node3" class="node"><title>Node3</title>
<g id="a_node3"><a xlink:href="classSolverUtils_1_1GeoPrim_1_1CPoint_a3b195b867437acf8de45f48c83e81932.html#a3b195b867437acf8de45f48c83e81932" target="_top" xlink:title="x">
<polygon fill="none" stroke="black" points="174.5,-76.5 174.5,-95.5 203.5,-95.5 203.5,-76.5 174.5,-76.5"/>
<text text-anchor="middle" x="189" y="-83.5" font-family="Helvetica,sans-Serif" font-size="10.00">x</text>
</a>
</g>
</g>
<!-- Node2&#45;&gt;Node3 -->
<g id="edge2" class="edge"><title>Node2&#45;&gt;Node3</title>
<path fill="none" stroke="midnightblue" d="M137.159,-57.589C145.686,-62.3539 156.103,-68.1753 165.283,-73.3051"/>
<polygon fill="midnightblue" stroke="midnightblue" points="163.833,-76.5043 174.27,-78.3273 167.248,-70.3937 163.833,-76.5043"/>
</g>
<!-- Node4 -->
<g id="node4" class="node"><title>Node4</title>
<g id="a_node4"><a xlink:href="classSolverUtils_1_1GeoPrim_1_1CPoint_ad927d9808ded1fc49c05ae9e1a3ed2a6.html#ad927d9808ded1fc49c05ae9e1a3ed2a6" target="_top" xlink:title="y">
<polygon fill="none" stroke="black" points="174.5,-38.5 174.5,-57.5 203.5,-57.5 203.5,-38.5 174.5,-38.5"/>
<text text-anchor="middle" x="189" y="-45.5" font-family="Helvetica,sans-Serif" font-size="10.00">y</text>
</a>
</g>
</g>
<!-- Node2&#45;&gt;Node4 -->
<g id="edge3" class="edge"><title>Node2&#45;&gt;Node4</title>
<path fill="none" stroke="midnightblue" d="M138.223,-48C146.189,-48 155.641,-48 164.156,-48"/>
<polygon fill="midnightblue" stroke="midnightblue" points="164.26,-51.5001 174.26,-48 164.26,-44.5001 164.26,-51.5001"/>
</g>
<!-- Node5 -->
<g id="node5" class="node"><title>Node5</title>
<g id="a_node5"><a xlink:href="classSolverUtils_1_1GeoPrim_1_1CPoint_a2134ad02d68f29e9c7cd87e4cd4c75b8.html#a2134ad02d68f29e9c7cd87e4cd4c75b8" target="_top" xlink:title="z">
<polygon fill="none" stroke="black" points="174.5,-0.5 174.5,-19.5 203.5,-19.5 203.5,-0.5 174.5,-0.5"/>
<text text-anchor="middle" x="189" y="-7.5" font-family="Helvetica,sans-Serif" font-size="10.00">z</text>
</a>
</g>
</g>
<!-- Node2&#45;&gt;Node5 -->
<g id="edge4" class="edge"><title>Node2&#45;&gt;Node5</title>
<path fill="none" stroke="midnightblue" d="M137.159,-38.411C145.686,-33.6461 156.103,-27.8247 165.283,-22.6949"/>
<polygon fill="midnightblue" stroke="midnightblue" points="167.248,-25.6063 174.27,-17.6727 163.833,-19.4957 167.248,-25.6063"/>
</g>
</g>
</svg>
