<?xml version="1.0" encoding="UTF-8" standalone="no"?>
<!DOCTYPE svg PUBLIC "-//W3C//DTD SVG 1.1//EN"
 "http://www.w3.org/Graphics/SVG/1.1/DTD/svg11.dtd">
<!-- Generated by graphviz version 2.30.1 (20150305.2338)
 -->
<!-- Title: size_i Pages: 1 -->
<svg width="574pt" height="175pt"
 viewBox="0.00 0.00 574.00 175.00" xmlns="http://www.w3.org/2000/svg" xmlns:xlink="http://www.w3.org/1999/xlink">
<g id="graph0" class="graph" transform="scale(1 1) rotate(0) translate(4 171)">
<title>size_i</title>
<!-- Node1 -->
<g id="node1" class="node"><title>Node1</title>
<polygon fill="#bfbfbf" stroke="black" points="0,-78.5 0,-97.5 42,-97.5 42,-78.5 0,-78.5"/>
<text text-anchor="middle" x="21" y="-85.5" font-family="Helvetica,sans-Serif" font-size="10.00">size_i</text>
</g>
<!-- Node2 -->
<g id="node2" class="node"><title>Node2</title>
<g id="a_node2"><a xlink:href="classElement__node__enumerator_ae0c063cfb2479f614be43b9d2f92ba63.html#ae0c063cfb2479f614be43b9d2f92ba63" target="_top" xlink:title="Get the local id of the element within the pane. ">
<polygon fill="none" stroke="black" points="78,-147.5 78,-166.5 224,-166.5 224,-147.5 78,-147.5"/>
<text text-anchor="middle" x="151" y="-154.5" font-family="Helvetica,sans-Serif" font-size="10.00">Element_node_enumerator::id</text>
</a>
</g>
</g>
<!-- Node1&#45;&gt;Node2 -->
<g id="edge1" class="edge"><title>Node1&#45;&gt;Node2</title>
<path fill="none" stroke="midnightblue" d="M37.6826,-105.207C48.1642,-115.763 62.7802,-128.786 78,-137 85.9917,-141.313 94.9963,-144.763 103.862,-147.499"/>
<polygon fill="midnightblue" stroke="midnightblue" points="39.9748,-102.54 30.5317,-97.7355 34.9179,-107.38 39.9748,-102.54"/>
</g>
<!-- Node5 -->
<g id="node5" class="node"><title>Node5</title>
<g id="a_node5"><a xlink:href="classElement__node__enumerator__str__2_a041249f802c5bf4c2deae666610e03c4.html#a041249f802c5bf4c2deae666610e03c4" target="_top" xlink:title="Element_node_enumerator\l_str_2::next">
<polygon fill="none" stroke="black" points="84.5,-98 84.5,-128 217.5,-128 217.5,-98 84.5,-98"/>
<text text-anchor="start" x="92.5" y="-116" font-family="Helvetica,sans-Serif" font-size="10.00">Element_node_enumerator</text>
<text text-anchor="middle" x="151" y="-105" font-family="Helvetica,sans-Serif" font-size="10.00">_str_2::next</text>
</a>
</g>
</g>
<!-- Node1&#45;&gt;Node5 -->
<g id="edge4" class="edge"><title>Node1&#45;&gt;Node5</title>
<path fill="none" stroke="midnightblue" d="M52.2002,-93.8985C61.9301,-95.7989 73.1216,-97.9847 84.38,-100.184"/>
<polygon fill="midnightblue" stroke="midnightblue" points="52.7675,-90.4432 42.282,-91.9613 51.4256,-97.3134 52.7675,-90.4432"/>
</g>
<!-- Node6 -->
<g id="node6" class="node"><title>Node6</title>
<g id="a_node6"><a xlink:href="classElement__node__enumerator_a0ef642f5b4f3b4a1fc83724dc6fdcbe0.html#a0ef642f5b4f3b4a1fc83724dc6fdcbe0" target="_top" xlink:title="Obtain the pane&#45;scope node ID from its element&#45;scope index. ">
<polygon fill="none" stroke="black" points="84.5,-49 84.5,-79 217.5,-79 217.5,-49 84.5,-49"/>
<text text-anchor="start" x="92.5" y="-67" font-family="Helvetica,sans-Serif" font-size="10.00">Element_node_enumerator</text>
<text text-anchor="middle" x="151" y="-56" font-family="Helvetica,sans-Serif" font-size="10.00">::operator[]</text>
</a>
</g>
</g>
<!-- Node1&#45;&gt;Node6 -->
<g id="edge5" class="edge"><title>Node1&#45;&gt;Node6</title>
<path fill="none" stroke="midnightblue" d="M52.2002,-82.3375C61.9301,-80.5131 73.1216,-78.4147 84.38,-76.3037"/>
<polygon fill="midnightblue" stroke="midnightblue" points="51.4657,-78.9141 42.282,-84.1971 52.7557,-85.7942 51.4657,-78.9141"/>
</g>
<!-- Node7 -->
<g id="node7" class="node"><title>Node7</title>
<g id="a_node7"><a xlink:href="classElement__node__enumerator__str__2_a0ef642f5b4f3b4a1fc83724dc6fdcbe0.html#a0ef642f5b4f3b4a1fc83724dc6fdcbe0" target="_top" xlink:title="Element_node_enumerator\l_str_2::operator[]">
<polygon fill="none" stroke="black" points="84.5,-0 84.5,-30 217.5,-30 217.5,-0 84.5,-0"/>
<text text-anchor="start" x="92.5" y="-18" font-family="Helvetica,sans-Serif" font-size="10.00">Element_node_enumerator</text>
<text text-anchor="middle" x="151" y="-7" font-family="Helvetica,sans-Serif" font-size="10.00">_str_2::operator[]</text>
</a>
</g>
</g>
<!-- Node1&#45;&gt;Node7 -->
<g id="edge6" class="edge"><title>Node1&#45;&gt;Node7</title>
<path fill="none" stroke="midnightblue" d="M38.3046,-71.1153C48.8514,-60.9711 63.3123,-48.4372 78,-40 84.54,-36.2431 91.7372,-32.9199 98.9746,-30.0233"/>
<polygon fill="midnightblue" stroke="midnightblue" points="35.6973,-68.7717 31.0633,-78.2994 40.6275,-73.741 35.6973,-68.7717"/>
</g>
<!-- Node3 -->
<g id="node3" class="node"><title>Node3</title>
<g id="a_node3"><a xlink:href="classElement__vectors__k__const_a012daf687ea85e9da2bc2d064de92aa6.html#a012daf687ea85e9da2bc2d064de92aa6" target="_top" xlink:title="initialize the accessor with a pointer and a specific stride. ">
<polygon fill="none" stroke="black" points="260.5,-147.5 260.5,-166.5 409.5,-166.5 409.5,-147.5 260.5,-147.5"/>
<text text-anchor="middle" x="335" y="-154.5" font-family="Helvetica,sans-Serif" font-size="10.00">Element_vectors_k_const::set</text>
</a>
</g>
</g>
<!-- Node2&#45;&gt;Node3 -->
<g id="edge2" class="edge"><title>Node2&#45;&gt;Node3</title>
<path fill="none" stroke="midnightblue" d="M234.329,-157C243.021,-157 251.82,-157 260.404,-157"/>
<polygon fill="midnightblue" stroke="midnightblue" points="234.193,-153.5 224.193,-157 234.193,-160.5 234.193,-153.5"/>
</g>
<!-- Node4 -->
<g id="node4" class="node"><title>Node4</title>
<g id="a_node4"><a xlink:href="classElement__vectors__k_abff5b8faeb81685278bb62a627e784b0.html#abff5b8faeb81685278bb62a627e784b0" target="_top" xlink:title="Element_vectors_k::set">
<polygon fill="none" stroke="black" points="446,-147.5 446,-166.5 566,-166.5 566,-147.5 446,-147.5"/>
<text text-anchor="middle" x="506" y="-154.5" font-family="Helvetica,sans-Serif" font-size="10.00">Element_vectors_k::set</text>
</a>
</g>
</g>
<!-- Node3&#45;&gt;Node4 -->
<g id="edge3" class="edge"><title>Node3&#45;&gt;Node4</title>
<path fill="none" stroke="midnightblue" d="M419.89,-157C428.65,-157 437.418,-157 445.818,-157"/>
<polygon fill="midnightblue" stroke="midnightblue" points="419.634,-153.5 409.634,-157 419.634,-160.5 419.634,-153.5"/>
</g>
</g>
</svg>
