<?xml version="1.0" encoding="UTF-8" standalone="no"?>
<!DOCTYPE svg PUBLIC "-//W3C//DTD SVG 1.1//EN"
 "http://www.w3.org/Graphics/SVG/1.1/DTD/svg11.dtd">
<!-- Generated by graphviz version 2.30.1 (20150305.2338)
 -->
<!-- Title: GetShort Pages: 1 -->
<svg width="174pt" height="142pt"
 viewBox="0.00 0.00 174.00 142.00" xmlns="http://www.w3.org/2000/svg" xmlns:xlink="http://www.w3.org/1999/xlink">
<g id="graph0" class="graph" transform="scale(1 1) rotate(0) translate(4 138)">
<title>GetShort</title>
<!-- Node1 -->
<g id="node1" class="node"><title>Node1</title>
<polygon fill="#bfbfbf" stroke="black" points="0,-57.5 0,-76.5 56,-76.5 56,-57.5 0,-57.5"/>
<text text-anchor="middle" x="28" y="-64.5" font-family="Helvetica,sans-Serif" font-size="10.00">GetShort</text>
</g>
<!-- Node2 -->
<g id="node2" class="node"><title>Node2</title>
<g id="a_node2"><a xlink:href="classIRAD_1_1Util_1_1ComLineObject_a7307a82313e45fe004ee9a65f4082915.html#a7307a82313e45fe004ee9a65f4082915" target="_top" xlink:title="Specify usage for an option. ">
<polygon fill="none" stroke="black" points="102,-114.5 102,-133.5 156,-133.5 156,-114.5 102,-114.5"/>
<text text-anchor="middle" x="129" y="-121.5" font-family="Helvetica,sans-Serif" font-size="10.00">AddHelp</text>
</a>
</g>
</g>
<!-- Node1&#45;&gt;Node2 -->
<g id="edge1" class="edge"><title>Node1&#45;&gt;Node2</title>
<path fill="none" stroke="midnightblue" d="M53.1075,-81.9825C64.7638,-89.1129 79.0122,-97.6636 92,-105 97.5379,-108.128 103.631,-111.405 109.205,-114.34"/>
<polygon fill="midnightblue" stroke="midnightblue" points="54.7401,-78.8776 44.3888,-76.6188 51.0722,-84.8397 54.7401,-78.8776"/>
</g>
<!-- Node3 -->
<g id="node3" class="node"><title>Node3</title>
<g id="a_node3"><a xlink:href="classIRAD_1_1Util_1_1ComLineObject_a883b307c6b0df305c078f1a91a5f2c60.html#a883b307c6b0df305c078f1a91a5f2c60" target="_top" xlink:title="Obtain the usage string for an option. ">
<polygon fill="none" stroke="black" points="102.5,-76.5 102.5,-95.5 155.5,-95.5 155.5,-76.5 102.5,-76.5"/>
<text text-anchor="middle" x="129" y="-83.5" font-family="Helvetica,sans-Serif" font-size="10.00">GetHelp</text>
</a>
</g>
</g>
<!-- Node1&#45;&gt;Node3 -->
<g id="edge2" class="edge"><title>Node1&#45;&gt;Node3</title>
<path fill="none" stroke="midnightblue" d="M65.9134,-74.0844C78.0383,-76.4114 91.2424,-78.9455 102.344,-81.0761"/>
<polygon fill="midnightblue" stroke="midnightblue" points="66.5327,-70.6394 56.0522,-72.1918 65.2133,-77.514 66.5327,-70.6394"/>
</g>
<!-- Node4 -->
<g id="node4" class="node"><title>Node4</title>
<g id="a_node4"><a xlink:href="classIRAD_1_1Util_1_1ComLineObject_abfc2043aa5484a5f3c48e4fc2f8ffcd0.html#abfc2043aa5484a5f3c48e4fc2f8ffcd0" target="_top" xlink:title="Get the value of an option. ">
<polygon fill="none" stroke="black" points="98.5,-38.5 98.5,-57.5 159.5,-57.5 159.5,-38.5 98.5,-38.5"/>
<text text-anchor="middle" x="129" y="-45.5" font-family="Helvetica,sans-Serif" font-size="10.00">GetOption</text>
</a>
</g>
</g>
<!-- Node1&#45;&gt;Node4 -->
<g id="edge3" class="edge"><title>Node1&#45;&gt;Node4</title>
<path fill="none" stroke="midnightblue" d="M65.9308,-59.9123C76.5727,-57.8699 88.0446,-55.6682 98.1961,-53.7199"/>
<polygon fill="midnightblue" stroke="midnightblue" points="65.2133,-56.486 56.0522,-61.8082 66.5327,-63.3606 65.2133,-56.486"/>
</g>
<!-- Node5 -->
<g id="node5" class="node"><title>Node5</title>
<g id="a_node5"><a xlink:href="classIRAD_1_1Util_1_1ComLineObject_a1a8d9be3fdc613b9f7b82d81c985d407.html#a1a8d9be3fdc613b9f7b82d81c985d407" target="_top" xlink:title="Specify name of an option argument. ">
<polygon fill="none" stroke="black" points="92.5,-0.5 92.5,-19.5 165.5,-19.5 165.5,-0.5 92.5,-0.5"/>
<text text-anchor="middle" x="129" y="-7.5" font-family="Helvetica,sans-Serif" font-size="10.00">SetArgName</text>
</a>
</g>
</g>
<!-- Node1&#45;&gt;Node5 -->
<g id="edge4" class="edge"><title>Node1&#45;&gt;Node5</title>
<path fill="none" stroke="midnightblue" d="M53.1075,-52.0175C64.7638,-44.8871 79.0122,-36.3364 92,-29 97.5379,-25.8718 103.631,-22.5948 109.205,-19.6602"/>
<polygon fill="midnightblue" stroke="midnightblue" points="51.0722,-49.1603 44.3888,-57.3812 54.7401,-55.1224 51.0722,-49.1603"/>
</g>
</g>
</svg>
