<?xml version="1.0" encoding="UTF-8" standalone="no"?>
<!DOCTYPE svg PUBLIC "-//W3C//DTD SVG 1.1//EN"
 "http://www.w3.org/Graphics/SVG/1.1/DTD/svg11.dtd">
<!-- Generated by graphviz version 2.26.0 (20091210.2329)
 -->
<!-- Title: fsifoam_module Pages: 1 -->
<svg width="700pt" height="372pt"
 viewBox="0.00 0.00 700.00 372.00" xmlns="http://www.w3.org/2000/svg" xmlns:xlink="http://www.w3.org/1999/xlink">
<g id="graph1" class="graph" transform="scale(1 1) rotate(0) translate(4 368)">
<title>fsifoam_module</title>
<!-- Node1 -->
<g id="node1" class="node"><title>Node1</title>
<polygon fill="#bfbfbf" stroke="black" points="606,-199.5 606,-220.5 692,-220.5 692,-199.5 606,-199.5"/>
<text text-anchor="middle" x="649" y="-207.5" font-family="Helvetica,sans-Serif" font-size="10.00">fsifoam_module</text>
</g>
<!-- Node2 -->
<g id="node2" class="node"><title>Node2</title>
<polygon fill="none" stroke="#bfbfbf" points="346,-342.5 346,-363.5 420,-363.5 420,-342.5 346,-342.5"/>
<text text-anchor="middle" x="383" y="-350.5" font-family="Helvetica,sans-Serif" font-size="10.00">COM_Object</text>
</g>
<!-- Node2&#45;&gt;Node1 -->
<g id="edge2" class="edge"><title>Node2&#45;&gt;Node1</title>
<path fill="none" stroke="midnightblue" d="M430.289,-357.528C474.897,-359.337 541.657,-355.428 588,-323 624.35,-297.565 641.047,-243.392 646.68,-220.529"/>
<polygon fill="midnightblue" stroke="midnightblue" points="430.456,-354.032 420.289,-357.012 430.095,-361.022 430.456,-354.032"/>
</g>
<!-- Node3 -->
<g id="node4" class="node"><title>Node3</title>
<polygon fill="none" stroke="#bfbfbf" points="348,-302.5 348,-323.5 418,-323.5 418,-302.5 348,-302.5"/>
<text text-anchor="middle" x="383" y="-310.5" font-family="Helvetica,sans-Serif" font-size="10.00">SolverAgent</text>
</g>
<!-- Node3&#45;&gt;Node1 -->
<g id="edge4" class="edge"><title>Node3&#45;&gt;Node1</title>
<path fill="none" stroke="midnightblue" d="M428.332,-320.026C472.145,-324.497 538.917,-325.012 588,-297 618.601,-279.536 637.496,-239.703 645.118,-220.6"/>
<polygon fill="midnightblue" stroke="midnightblue" points="428.588,-316.533 418.258,-318.887 427.801,-323.488 428.588,-316.533"/>
</g>
<!-- Node4 -->
<g id="node6" class="node"><title>Node4</title>
<polygon fill="none" stroke="#bfbfbf" points="343,-245.5 343,-266.5 423,-266.5 423,-245.5 343,-245.5"/>
<text text-anchor="middle" x="383" y="-253.5" font-family="Helvetica,sans-Serif" font-size="10.00">map&lt; int, int &gt;</text>
</g>
<!-- Node4&#45;&gt;Node1 -->
<g id="edge6" class="edge"><title>Node4&#45;&gt;Node1</title>
<path fill="none" stroke="#9a32cd" stroke-dasharray="5,2" d="M433.589,-255.843C475.565,-254.641 536.5,-250.401 588,-237 602.458,-233.238 617.835,-226.411 629.532,-220.564"/>
<polygon fill="#9a32cd" stroke="#9a32cd" points="433.256,-252.35 423.342,-256.087 433.423,-259.348 433.256,-252.35"/>
<text text-anchor="middle" x="523" y="-284" font-family="Helvetica,sans-Serif" font-size="10.00"> interfaceToFoamNodeMap</text>
<text text-anchor="middle" x="523" y="-271" font-family="Helvetica,sans-Serif" font-size="10.00">surfaceNodeMap</text>
<text text-anchor="middle" x="523" y="-258" font-family="Helvetica,sans-Serif" font-size="10.00">foamGlobalToPatchNodeMap</text>
</g>
<!-- Node5 -->
<g id="node8" class="node"><title>Node5</title>
<a xlink:title="STL class. ">
<polygon fill="none" stroke="#bfbfbf" points="127,-235.5 127,-256.5 199,-256.5 199,-235.5 127,-235.5"/>
<text text-anchor="middle" x="163" y="-243.5" font-family="Helvetica,sans-Serif" font-size="10.00">map&lt; K, T &gt;</text>
</a>
</g>
<!-- Node5&#45;&gt;Node4 -->
<g id="edge8" class="edge"><title>Node5&#45;&gt;Node4</title>
<path fill="none" stroke="orange" stroke-dasharray="5,2" d="M209.509,-248.114C249.066,-249.912 305.28,-252.467 342.888,-254.177"/>
<polygon fill="orange" stroke="orange" points="209.477,-244.609 199.329,-247.651 209.159,-251.602 209.477,-244.609"/>
<text text-anchor="middle" x="271" y="-256" font-family="Helvetica,sans-Serif" font-size="10.00"> &lt; int, int &gt;</text>
</g>
<!-- Node6 -->
<g id="node10" class="node"><title>Node6</title>
<polygon fill="none" stroke="#bfbfbf" points="0.5,-235.5 0.5,-256.5 29.5,-256.5 29.5,-235.5 0.5,-235.5"/>
<text text-anchor="middle" x="15" y="-243.5" font-family="Helvetica,sans-Serif" font-size="10.00">K</text>
</g>
<!-- Node6&#45;&gt;Node5 -->
<g id="edge10" class="edge"><title>Node6&#45;&gt;Node5</title>
<path fill="none" stroke="#9a32cd" stroke-dasharray="5,2" d="M40.0308,-246C63.8279,-246 99.8847,-246 126.81,-246"/>
<polygon fill="#9a32cd" stroke="#9a32cd" points="39.7319,-242.5 29.7319,-246 39.7319,-249.5 39.7319,-242.5"/>
<text text-anchor="middle" x="70" y="-250" font-family="Helvetica,sans-Serif" font-size="10.00"> keys</text>
</g>
<!-- Node7 -->
<g id="node12" class="node"><title>Node7</title>
<polygon fill="none" stroke="#bfbfbf" points="0.5,-179.5 0.5,-200.5 29.5,-200.5 29.5,-179.5 0.5,-179.5"/>
<text text-anchor="middle" x="15" y="-187.5" font-family="Helvetica,sans-Serif" font-size="10.00">T</text>
</g>
<!-- Node7&#45;&gt;Node5 -->
<g id="edge12" class="edge"><title>Node7&#45;&gt;Node5</title>
<path fill="none" stroke="#9a32cd" stroke-dasharray="5,2" d="M39.3034,-199.196C65.5756,-209.137 107.387,-224.957 135.013,-235.41"/>
<polygon fill="#9a32cd" stroke="#9a32cd" points="40.3234,-195.84 29.7319,-195.574 37.8461,-202.387 40.3234,-195.84"/>
<text text-anchor="middle" x="70" y="-222" font-family="Helvetica,sans-Serif" font-size="10.00"> elements</text>
</g>
<!-- Node11 -->
<g id="node20" class="node"><title>Node11</title>
<a xlink:title="STL class. ">
<polygon fill="none" stroke="#bfbfbf" points="129,-162.5 129,-183.5 197,-183.5 197,-162.5 129,-162.5"/>
<text text-anchor="middle" x="163" y="-170.5" font-family="Helvetica,sans-Serif" font-size="10.00">vector&lt; T &gt;</text>
</a>
</g>
<!-- Node7&#45;&gt;Node11 -->
<g id="edge22" class="edge"><title>Node7&#45;&gt;Node11</title>
<path fill="none" stroke="#9a32cd" stroke-dasharray="5,2" d="M38.8029,-176.959C41.8274,-175.754 44.9372,-174.717 48,-174 74.6327,-167.762 105.695,-167.914 128.819,-169.404"/>
<polygon fill="#9a32cd" stroke="#9a32cd" points="37.2103,-173.84 29.5935,-181.204 40.1403,-180.197 37.2103,-173.84"/>
<text text-anchor="middle" x="70" y="-178" font-family="Helvetica,sans-Serif" font-size="10.00"> elements</text>
</g>
<!-- Node8 -->
<g id="node14" class="node"><title>Node8</title>
<a xlink:title="STL class. ">
<polygon fill="none" stroke="#bfbfbf" points="362.5,-0.5 362.5,-21.5 403.5,-21.5 403.5,-0.5 362.5,-0.5"/>
<text text-anchor="middle" x="383" y="-8.5" font-family="Helvetica,sans-Serif" font-size="10.00">string</text>
</a>
</g>
<!-- Node8&#45;&gt;Node1 -->
<g id="edge14" class="edge"><title>Node8&#45;&gt;Node1</title>
<path fill="none" stroke="#9a32cd" stroke-dasharray="5,2" d="M413.72,-4.96032C457.433,1.76586 537.832,6.98368 588,-33 615.197,-54.6759 639.55,-163.799 646.809,-199.021"/>
<polygon fill="#9a32cd" stroke="#9a32cd" points="412.982,-1.53492 403.693,-6.63036 414.132,-8.43981 412.982,-1.53492"/>
<text text-anchor="middle" x="523" y="-37" font-family="Helvetica,sans-Serif" font-size="10.00"> my_window_name</text>
</g>
<!-- Node9 -->
<g id="node16" class="node"><title>Node9</title>
<a xlink:title="STL class. ">
<polygon fill="none" stroke="#bfbfbf" points="110,-0.5 110,-21.5 216,-21.5 216,-0.5 110,-0.5"/>
<text text-anchor="middle" x="163" y="-8.5" font-family="Helvetica,sans-Serif" font-size="10.00">basic_string&lt; char &gt;</text>
</a>
</g>
<!-- Node9&#45;&gt;Node8 -->
<g id="edge16" class="edge"><title>Node9&#45;&gt;Node8</title>
<path fill="none" stroke="midnightblue" d="M226.446,-11C272.443,-11 331.759,-11 362.494,-11"/>
<polygon fill="midnightblue" stroke="midnightblue" points="226.256,-7.5001 216.256,-11 226.256,-14.5001 226.256,-7.5001"/>
</g>
<!-- Node10 -->
<g id="node18" class="node"><title>Node10</title>
<polygon fill="none" stroke="#bfbfbf" points="347,-201.5 347,-222.5 419,-222.5 419,-201.5 347,-201.5"/>
<text text-anchor="middle" x="383" y="-209.5" font-family="Helvetica,sans-Serif" font-size="10.00">vector&lt; int &gt;</text>
</g>
<!-- Node10&#45;&gt;Node1 -->
<g id="edge18" class="edge"><title>Node10&#45;&gt;Node1</title>
<path fill="none" stroke="#9a32cd" stroke-dasharray="5,2" d="M429.315,-211.324C438.804,-211.202 448.724,-211.086 458,-211 508.733,-210.529 567.048,-210.264 605.761,-210.127"/>
<polygon fill="#9a32cd" stroke="#9a32cd" points="429.192,-207.825 419.239,-211.458 429.285,-214.824 429.192,-207.825"/>
<text text-anchor="middle" x="523" y="-228" font-family="Helvetica,sans-Serif" font-size="10.00"> initStatus</text>
<text text-anchor="middle" x="523" y="-215" font-family="Helvetica,sans-Serif" font-size="10.00">runStatus</text>
</g>
<!-- Node11&#45;&gt;Node10 -->
<g id="edge20" class="edge"><title>Node11&#45;&gt;Node10</title>
<path fill="none" stroke="orange" stroke-dasharray="5,2" d="M207.035,-183.416C215.938,-185.383 225.251,-187.341 234,-189 272.317,-196.266 316.506,-202.865 346.751,-207.113"/>
<polygon fill="orange" stroke="orange" points="207.733,-179.985 197.209,-181.207 206.197,-186.815 207.733,-179.985"/>
<text text-anchor="middle" x="271" y="-205" font-family="Helvetica,sans-Serif" font-size="10.00"> &lt; int &gt;</text>
</g>
<!-- Node12 -->
<g id="node23" class="node"><title>Node12</title>
<polygon fill="none" stroke="#bfbfbf" points="326,-161.5 326,-182.5 440,-182.5 440,-161.5 326,-161.5"/>
<text text-anchor="middle" x="383" y="-169.5" font-family="Helvetica,sans-Serif" font-size="10.00">vector&lt; unsigned int &gt;</text>
</g>
<!-- Node11&#45;&gt;Node12 -->
<g id="edge26" class="edge"><title>Node11&#45;&gt;Node12</title>
<path fill="none" stroke="orange" stroke-dasharray="5,2" d="M207.504,-172.798C241.59,-172.643 288.872,-172.428 325.772,-172.26"/>
<polygon fill="orange" stroke="orange" points="207.359,-169.298 197.375,-172.844 207.391,-176.298 207.359,-169.298"/>
<text text-anchor="middle" x="271" y="-176" font-family="Helvetica,sans-Serif" font-size="10.00"> &lt; unsigned int &gt;</text>
</g>
<!-- Node13 -->
<g id="node26" class="node"><title>Node13</title>
<polygon fill="none" stroke="#bfbfbf" points="338,-82.5 338,-103.5 428,-103.5 428,-82.5 338,-82.5"/>
<text text-anchor="middle" x="383" y="-90.5" font-family="Helvetica,sans-Serif" font-size="10.00">vector&lt; double &gt;</text>
</g>
<!-- Node11&#45;&gt;Node13 -->
<g id="edge30" class="edge"><title>Node11&#45;&gt;Node13</title>
<path fill="none" stroke="orange" stroke-dasharray="5,2" d="M201.614,-158.958C245.138,-143.132 314.907,-117.761 354.015,-103.54"/>
<polygon fill="orange" stroke="orange" points="200.416,-155.67 192.214,-162.377 202.808,-162.248 200.416,-155.67"/>
<text text-anchor="middle" x="271" y="-151" font-family="Helvetica,sans-Serif" font-size="10.00"> &lt; double &gt;</text>
</g>
<!-- Node12&#45;&gt;Node1 -->
<g id="edge24" class="edge"><title>Node12&#45;&gt;Node1</title>
<path fill="none" stroke="#9a32cd" stroke-dasharray="5,2" d="M450.585,-176.026C490.753,-179.137 542.565,-184.406 588,-193 596.858,-194.675 606.3,-197.022 615.043,-199.437"/>
<polygon fill="#9a32cd" stroke="#9a32cd" points="450.605,-172.518 440.372,-175.262 450.083,-179.498 450.605,-172.518"/>
<text text-anchor="middle" x="523" y="-197" font-family="Helvetica,sans-Serif" font-size="10.00"> surfaceConnectivity</text>
</g>
<!-- Node13&#45;&gt;Node1 -->
<g id="edge28" class="edge"><title>Node13&#45;&gt;Node1</title>
<path fill="none" stroke="#9a32cd" stroke-dasharray="5,2" d="M412.568,-78.1572C455.079,-59.1356 534.251,-32.5911 588,-68 634.156,-98.4073 645.529,-171.826 648.21,-199.345"/>
<polygon fill="#9a32cd" stroke="#9a32cd" points="410.936,-75.0559 403.331,-82.4325 413.876,-81.4085 410.936,-75.0559"/>
<text text-anchor="middle" x="523" y="-163" font-family="Helvetica,sans-Serif" font-size="10.00"> deltaTime</text>
<text text-anchor="middle" x="523" y="-150" font-family="Helvetica,sans-Serif" font-size="10.00">surfaceCoordinates</text>
<text text-anchor="middle" x="523" y="-137" font-family="Helvetica,sans-Serif" font-size="10.00">endTime</text>
<text text-anchor="middle" x="523" y="-124" font-family="Helvetica,sans-Serif" font-size="10.00">solidDisplacement</text>
<text text-anchor="middle" x="523" y="-111" font-family="Helvetica,sans-Serif" font-size="10.00">surfacePressure</text>
<text text-anchor="middle" x="523" y="-98" font-family="Helvetica,sans-Serif" font-size="10.00">surfaceTraction</text>
<text text-anchor="middle" x="523" y="-85" font-family="Helvetica,sans-Serif" font-size="10.00">surfaceDisplacement</text>
<text text-anchor="middle" x="523" y="-72" font-family="Helvetica,sans-Serif" font-size="10.00">time</text>
</g>
</g>
</svg>
