<?xml version="1.0" encoding="UTF-8" standalone="no"?>
<!DOCTYPE svg PUBLIC "-//W3C//DTD SVG 1.1//EN"
 "http://www.w3.org/Graphics/SVG/1.1/DTD/svg11.dtd">
<!-- Generated by graphviz version 2.30.1 (20150305.2338)
 -->
<!-- Title: reinit_dataitem Pages: 1 -->
<svg width="198pt" height="66pt"
 viewBox="0.00 0.00 198.00 66.00" xmlns="http://www.w3.org/2000/svg" xmlns:xlink="http://www.w3.org/1999/xlink">
<g id="graph0" class="graph" transform="scale(1 1) rotate(0) translate(4 62)">
<title>reinit_dataitem</title>
<!-- Node1 -->
<g id="node1" class="node"><title>Node1</title>
<polygon fill="#bfbfbf" stroke="black" points="0,-19.5 0,-38.5 80,-38.5 80,-19.5 0,-19.5"/>
<text text-anchor="middle" x="40" y="-26.5" font-family="Helvetica,sans-Serif" font-size="10.00">reinit_dataitem</text>
</g>
<!-- Node2 -->
<g id="node2" class="node"><title>Node2</title>
<g id="a_node2"><a xlink:href="classComponentInterface_a6ff98c610ed9a35201d9d75908e60c1c.html#a6ff98c610ed9a35201d9d75908e60c1c" target="_top" xlink:title="dealloc_array">
<polygon fill="none" stroke="black" points="116,-38.5 116,-57.5 190,-57.5 190,-38.5 116,-38.5"/>
<text text-anchor="middle" x="153" y="-45.5" font-family="Helvetica,sans-Serif" font-size="10.00">dealloc_array</text>
</a>
</g>
</g>
<!-- Node1&#45;&gt;Node2 -->
<g id="edge1" class="edge"><title>Node1&#45;&gt;Node2</title>
<path fill="none" stroke="midnightblue" d="M90.128,-37.4093C98.7661,-38.8879 107.613,-40.4022 115.816,-41.8064"/>
<polygon fill="midnightblue" stroke="midnightblue" points="90.5816,-33.9361 80.1344,-35.6987 89.4006,-40.8358 90.5816,-33.9361"/>
</g>
<!-- Node3 -->
<g id="node3" class="node"><title>Node3</title>
<g id="a_node3"><a xlink:href="classComponentInterface_a7f3cc6b70f6c91924489814c28a898b0.html#a7f3cc6b70f6c91924489814c28a898b0" target="_top" xlink:title="resize_array">
<polygon fill="none" stroke="black" points="118,-0.5 118,-19.5 188,-19.5 188,-0.5 118,-0.5"/>
<text text-anchor="middle" x="153" y="-7.5" font-family="Helvetica,sans-Serif" font-size="10.00">resize_array</text>
</a>
</g>
</g>
<!-- Node1&#45;&gt;Node3 -->
<g id="edge2" class="edge"><title>Node1&#45;&gt;Node3</title>
<path fill="none" stroke="midnightblue" d="M90.0795,-20.599C99.3791,-19.0072 108.922,-17.3736 117.646,-15.8804"/>
<polygon fill="midnightblue" stroke="midnightblue" points="89.4006,-17.1642 80.1344,-22.3013 90.5816,-24.0639 89.4006,-17.1642"/>
</g>
</g>
</svg>
