<?xml version="1.0" encoding="UTF-8" standalone="no"?>
<!DOCTYPE svg PUBLIC "-//W3C//DTD SVG 1.1//EN"
 "http://www.w3.org/Graphics/SVG/1.1/DTD/svg11.dtd">
<!-- Generated by graphviz version 2.30.1 (20150305.2338)
 -->
<!-- Title: addmeshcoordinatesandtime Pages: 1 -->
<svg width="506pt" height="77pt"
 viewBox="0.00 0.00 506.00 77.00" xmlns="http://www.w3.org/2000/svg" xmlns:xlink="http://www.w3.org/1999/xlink">
<g id="graph0" class="graph" transform="scale(1 1) rotate(0) translate(4 73)">
<title>addmeshcoordinatesandtime</title>
<!-- Node1 -->
<g id="node1" class="node"><title>Node1</title>
<polygon fill="#bfbfbf" stroke="black" points="0.5,-27.5 0.5,-46.5 141.5,-46.5 141.5,-27.5 0.5,-27.5"/>
<text text-anchor="middle" x="71" y="-34.5" font-family="Helvetica,sans-Serif" font-size="10.00">addmeshcoordinatesandtime</text>
</g>
<!-- Node2 -->
<g id="node2" class="node"><title>Node2</title>
<g id="a_node2"><a xlink:href="Initialize_8F90_afecd6445ab6f4860c0f00f62648f7332.html#afecd6445ab6f4860c0f00f62648f7332" target="_top" xlink:title="ElmerLib Elmer library routines ">
<polygon fill="none" stroke="black" points="178,-27.5 178,-46.5 254,-46.5 254,-27.5 178,-27.5"/>
<text text-anchor="middle" x="216" y="-34.5" font-family="Helvetica,sans-Serif" font-size="10.00">elmerinitialize</text>
</a>
</g>
</g>
<!-- Node1&#45;&gt;Node2 -->
<g id="edge1" class="edge"><title>Node1&#45;&gt;Node2</title>
<path fill="none" stroke="midnightblue" d="M152.044,-37C161.055,-37 169.882,-37 177.941,-37"/>
<polygon fill="midnightblue" stroke="midnightblue" points="151.824,-33.5001 141.824,-37 151.824,-40.5001 151.824,-33.5001"/>
</g>
<!-- Node3 -->
<g id="node3" class="node"><title>Node3</title>
<g id="a_node3"><a xlink:href="ElmerCSC_8F90_a7fd2a399b044e015aab8122e737dbf84.html#a7fd2a399b044e015aab8122e737dbf84" target="_top" xlink:title="A caller for the Elmer main program. ">
<polygon fill="none" stroke="black" points="290.5,-27.5 290.5,-46.5 345.5,-46.5 345.5,-27.5 290.5,-27.5"/>
<text text-anchor="middle" x="318" y="-34.5" font-family="Helvetica,sans-Serif" font-size="10.00">initializer</text>
</a>
</g>
</g>
<!-- Node2&#45;&gt;Node3 -->
<g id="edge2" class="edge"><title>Node2&#45;&gt;Node3</title>
<path fill="none" stroke="midnightblue" d="M264.249,-37C273.217,-37 282.304,-37 290.35,-37"/>
<polygon fill="midnightblue" stroke="midnightblue" points="264.236,-33.5001 254.236,-37 264.236,-40.5001 264.236,-33.5001"/>
</g>
<!-- Node4 -->
<g id="node4" class="node"><title>Node4</title>
<g id="a_node4"><a xlink:href="ElmerCSC_8F90_a08424dc689065df44a24c900bc17412b.html#a08424dc689065df44a24c900bc17412b" target="_top" xlink:title="elmercsc_load_module">
<polygon fill="none" stroke="black" points="382,-49.5 382,-68.5 498,-68.5 498,-49.5 382,-49.5"/>
<text text-anchor="middle" x="440" y="-56.5" font-family="Helvetica,sans-Serif" font-size="10.00">elmercsc_load_module</text>
</a>
</g>
</g>
<!-- Node3&#45;&gt;Node4 -->
<g id="edge3" class="edge"><title>Node3&#45;&gt;Node4</title>
<path fill="none" stroke="midnightblue" d="M355.509,-43.6933C365.392,-45.5051 376.284,-47.5021 386.846,-49.4385"/>
<polygon fill="midnightblue" stroke="midnightblue" points="356.099,-40.2432 345.632,-41.8825 354.837,-47.1285 356.099,-40.2432"/>
</g>
<!-- Node5 -->
<g id="node5" class="node"><title>Node5</title>
<g id="a_node5"><a xlink:href="ElmerCSCParallel_8F90_a0068c0eef7a91d38fe8b10ac78b73971.html#a0068c0eef7a91d38fe8b10ac78b73971" target="_top" xlink:title="elmercscparallel_load\l_module">
<polygon fill="none" stroke="black" points="385,-0 385,-30 495,-30 495,-0 385,-0"/>
<text text-anchor="start" x="393" y="-18" font-family="Helvetica,sans-Serif" font-size="10.00">elmercscparallel_load</text>
<text text-anchor="middle" x="440" y="-7" font-family="Helvetica,sans-Serif" font-size="10.00">_module</text>
</a>
</g>
</g>
<!-- Node3&#45;&gt;Node5 -->
<g id="edge4" class="edge"><title>Node3&#45;&gt;Node5</title>
<path fill="none" stroke="midnightblue" d="M355.637,-30.2833C364.88,-28.5887 374.999,-26.7335 384.902,-24.9179"/>
<polygon fill="midnightblue" stroke="midnightblue" points="354.837,-26.8715 345.632,-32.1175 356.099,-33.7568 354.837,-26.8715"/>
</g>
</g>
</svg>
