<?xml version="1.0" encoding="UTF-8" standalone="no"?>
<!DOCTYPE svg PUBLIC "-//W3C//DTD SVG 1.1//EN"
 "http://www.w3.org/Graphics/SVG/1.1/DTD/svg11.dtd">
<!-- Generated by graphviz version 2.30.1 (20150305.2338)
 -->
<!-- Title: usage Pages: 1 -->
<svg width="192pt" height="28pt"
 viewBox="0.00 0.00 192.00 28.00" xmlns="http://www.w3.org/2000/svg" xmlns:xlink="http://www.w3.org/1999/xlink">
<g id="graph0" class="graph" transform="scale(1 1) rotate(0) translate(4 24)">
<title>usage</title>
<!-- Node1 -->
<g id="node1" class="node"><title>Node1</title>
<polygon fill="#bfbfbf" stroke="black" points="0.5,-0.5 0.5,-19.5 43.5,-19.5 43.5,-0.5 0.5,-0.5"/>
<text text-anchor="middle" x="22" y="-7.5" font-family="Helvetica,sans-Serif" font-size="10.00">usage</text>
</g>
<!-- Node2 -->
<g id="node2" class="node"><title>Node2</title>
<g id="a_node2"><a xlink:href="classSolverModuleDriver_a36fd5ba3a13672607f2159d56a9f9bf2.html#a36fd5ba3a13672607f2159d56a9f9bf2" target="_top" xlink:title="init">
<polygon fill="none" stroke="black" points="80.5,-0.5 80.5,-19.5 109.5,-19.5 109.5,-0.5 80.5,-0.5"/>
<text text-anchor="middle" x="95" y="-7.5" font-family="Helvetica,sans-Serif" font-size="10.00">init</text>
</a>
</g>
</g>
<!-- Node1&#45;&gt;Node2 -->
<g id="edge1" class="edge"><title>Node1&#45;&gt;Node2</title>
<path fill="none" stroke="midnightblue" d="M53.6785,-10C62.9526,-10 72.6741,-10 80.2474,-10"/>
<polygon fill="midnightblue" stroke="midnightblue" points="53.5362,-6.5001 43.5361,-10 53.5361,-13.5001 53.5362,-6.5001"/>
</g>
<!-- Node3 -->
<g id="node3" class="node"><title>Node3</title>
<g id="a_node3"><a xlink:href="ElmerFSI_2trunk_2src_2SolverModuleDriver_8C_a0ddf1224851353fc92bfbff6f499fa97.html#a0ddf1224851353fc92bfbff6f499fa97" target="_top" xlink:title="main">
<polygon fill="none" stroke="black" points="146,-0.5 146,-19.5 184,-19.5 184,-0.5 146,-0.5"/>
<text text-anchor="middle" x="165" y="-7.5" font-family="Helvetica,sans-Serif" font-size="10.00">main</text>
</a>
</g>
</g>
<!-- Node2&#45;&gt;Node3 -->
<g id="edge2" class="edge"><title>Node2&#45;&gt;Node3</title>
<path fill="none" stroke="midnightblue" d="M119.891,-10C128.428,-10 137.901,-10 145.872,-10"/>
<polygon fill="midnightblue" stroke="midnightblue" points="119.761,-6.5001 109.761,-10 119.761,-13.5001 119.761,-6.5001"/>
</g>
</g>
</svg>
