<?xml version="1.0" encoding="UTF-8" standalone="no"?>
<!DOCTYPE svg PUBLIC "-//W3C//DTD SVG 1.1//EN"
 "http://www.w3.org/Graphics/SVG/1.1/DTD/svg11.dtd">
<!-- Generated by graphviz version 2.30.1 (20150305.2338)
 -->
<!-- Title: Unit Pages: 1 -->
<svg width="220pt" height="28pt"
 viewBox="0.00 0.00 220.00 28.00" xmlns="http://www.w3.org/2000/svg" xmlns:xlink="http://www.w3.org/1999/xlink">
<g id="graph0" class="graph" transform="scale(1 1) rotate(0) translate(4 24)">
<title>Unit</title>
<!-- Node1 -->
<g id="node1" class="node"><title>Node1</title>
<polygon fill="#bfbfbf" stroke="black" points="0.5,-0.5 0.5,-19.5 35.5,-19.5 35.5,-0.5 0.5,-0.5"/>
<text text-anchor="middle" x="18" y="-7.5" font-family="Helvetica,sans-Serif" font-size="10.00">Unit</text>
</g>
<!-- Node2 -->
<g id="node2" class="node"><title>Node2</title>
<g id="a_node2"><a xlink:href="classSolverUtils_1_1GeoPrim_1_1C3Point_aa52cbfc5ef272a55047b4a5bf00cb6c8.html#aa52cbfc5ef272a55047b4a5bf00cb6c8" target="_top" xlink:title="Normalize">
<polygon fill="none" stroke="black" points="72.5,-0.5 72.5,-19.5 133.5,-19.5 133.5,-0.5 72.5,-0.5"/>
<text text-anchor="middle" x="103" y="-7.5" font-family="Helvetica,sans-Serif" font-size="10.00">Normalize</text>
</a>
</g>
</g>
<!-- Node1&#45;&gt;Node2 -->
<g id="edge1" class="edge"><title>Node1&#45;&gt;Node2</title>
<path fill="none" stroke="midnightblue" d="M35.7963,-10C43.5189,-10 53.0359,-10 62.4216,-10"/>
<polygon fill="midnightblue" stroke="midnightblue" points="62.4634,-13.5001 72.4634,-10 62.4634,-6.5001 62.4634,-13.5001"/>
</g>
<!-- Node3 -->
<g id="node3" class="node"><title>Node3</title>
<g id="a_node3"><a xlink:href="classSolverUtils_1_1GeoPrim_1_1C3Point_a8ee7eecfcac25d9c4a6693ba1a8da90c.html#a8ee7eecfcac25d9c4a6693ba1a8da90c" target="_top" xlink:title="Norm">
<polygon fill="none" stroke="black" points="170.5,-0.5 170.5,-19.5 211.5,-19.5 211.5,-0.5 170.5,-0.5"/>
<text text-anchor="middle" x="191" y="-7.5" font-family="Helvetica,sans-Serif" font-size="10.00">Norm</text>
</a>
</g>
</g>
<!-- Node2&#45;&gt;Node3 -->
<g id="edge2" class="edge"><title>Node2&#45;&gt;Node3</title>
<path fill="none" stroke="midnightblue" d="M133.596,-10C142.232,-10 151.669,-10 160.31,-10"/>
<polygon fill="midnightblue" stroke="midnightblue" points="160.349,-13.5001 170.349,-10 160.349,-6.5001 160.349,-13.5001"/>
</g>
</g>
</svg>
