<?xml version="1.0" encoding="UTF-8" standalone="no"?>
<!DOCTYPE svg PUBLIC "-//W3C//DTD SVG 1.1//EN"
 "http://www.w3.org/Graphics/SVG/1.1/DTD/svg11.dtd">
<!-- Generated by graphviz version 2.30.1 (20150305.2338)
 -->
<!-- Title: Directory Pages: 1 -->
<svg width="204pt" height="164pt"
 viewBox="0.00 0.00 204.00 164.00" xmlns="http://www.w3.org/2000/svg" xmlns:xlink="http://www.w3.org/1999/xlink">
<g id="graph0" class="graph" transform="scale(1 1) rotate(0) translate(4 160)">
<title>Directory</title>
<!-- Node1 -->
<g id="node1" class="node"><title>Node1</title>
<polygon fill="#bfbfbf" stroke="black" points="76,-0.5 76,-19.5 132,-19.5 132,-0.5 76,-0.5"/>
<text text-anchor="middle" x="104" y="-7.5" font-family="Helvetica,sans-Serif" font-size="10.00">Directory</text>
</g>
<!-- Node2 -->
<g id="node2" class="node"><title>Node2</title>
<g id="a_node2"><a xlink:title="STL class. ">
<polygon fill="none" stroke="#bfbfbf" points="-0.5,-68.5 -0.5,-87.5 104.5,-87.5 104.5,-68.5 -0.5,-68.5"/>
<text text-anchor="middle" x="52" y="-75.5" font-family="Helvetica,sans-Serif" font-size="10.00">vector&lt; std::string &gt;</text>
</a>
</g>
</g>
<!-- Node2&#45;&gt;Node1 -->
<g id="edge1" class="edge"><title>Node2&#45;&gt;Node1</title>
<path fill="none" stroke="midnightblue" d="M65.1496,-60.3101C75.2868,-47.4437 88.9056,-30.1583 97.0343,-19.8411"/>
<polygon fill="midnightblue" stroke="midnightblue" points="62.2376,-58.3506 58.7981,-68.3717 67.7361,-62.6828 62.2376,-58.3506"/>
</g>
<!-- Node3 -->
<g id="node3" class="node"><title>Node3</title>
<polygon fill="none" stroke="#bfbfbf" points="37.5,-136.5 37.5,-155.5 66.5,-155.5 66.5,-136.5 37.5,-136.5"/>
<text text-anchor="middle" x="52" y="-143.5" font-family="Helvetica,sans-Serif" font-size="10.00">T</text>
</g>
<!-- Node3&#45;&gt;Node2 -->
<g id="edge2" class="edge"><title>Node3&#45;&gt;Node2</title>
<path fill="none" stroke="#9a32cd" stroke-dasharray="5,2" d="M52,-126.041C52,-113.472 52,-97.5631 52,-87.8411"/>
<polygon fill="#9a32cd" stroke="#9a32cd" points="48.5001,-126.372 52,-136.372 55.5001,-126.372 48.5001,-126.372"/>
<text text-anchor="middle" x="73.5" y="-109.5" font-family="Helvetica,sans-Serif" font-size="10.00"> elements</text>
</g>
<!-- Node4 -->
<g id="node4" class="node"><title>Node4</title>
<g id="a_node4"><a xlink:title="STL class. ">
<polygon fill="none" stroke="#bfbfbf" points="122.5,-68.5 122.5,-87.5 163.5,-87.5 163.5,-68.5 122.5,-68.5"/>
<text text-anchor="middle" x="143" y="-75.5" font-family="Helvetica,sans-Serif" font-size="10.00">string</text>
</a>
</g>
</g>
<!-- Node4&#45;&gt;Node1 -->
<g id="edge3" class="edge"><title>Node4&#45;&gt;Node1</title>
<path fill="none" stroke="#9a32cd" stroke-dasharray="5,2" d="M132.696,-59.563C125.144,-46.7815 115.204,-29.9599 109.224,-19.8411"/>
<polygon fill="#9a32cd" stroke="#9a32cd" points="129.801,-61.5429 137.901,-68.3717 135.827,-57.9818 129.801,-61.5429"/>
<text text-anchor="middle" x="141" y="-41.5" font-family="Helvetica,sans-Serif" font-size="10.00"> _path</text>
</g>
<!-- Node5 -->
<g id="node5" class="node"><title>Node5</title>
<g id="a_node5"><a xlink:title="STL class. ">
<polygon fill="none" stroke="#bfbfbf" points="90,-136.5 90,-155.5 196,-155.5 196,-136.5 90,-136.5"/>
<text text-anchor="middle" x="143" y="-143.5" font-family="Helvetica,sans-Serif" font-size="10.00">basic_string&lt; char &gt;</text>
</a>
</g>
</g>
<!-- Node5&#45;&gt;Node4 -->
<g id="edge4" class="edge"><title>Node5&#45;&gt;Node4</title>
<path fill="none" stroke="midnightblue" d="M143,-126.041C143,-113.472 143,-97.5631 143,-87.8411"/>
<polygon fill="midnightblue" stroke="midnightblue" points="139.5,-126.372 143,-136.372 146.5,-126.372 139.5,-126.372"/>
</g>
</g>
</svg>
