<?xml version="1.0" encoding="UTF-8" standalone="no"?>
<!DOCTYPE svg PUBLIC "-//W3C//DTD SVG 1.1//EN"
 "http://www.w3.org/Graphics/SVG/1.1/DTD/svg11.dtd">
<!-- Generated by graphviz version 2.30.1 (20150305.2338)
 -->
<!-- Title: size_of_nodes Pages: 1 -->
<svg width="392pt" height="38pt"
 viewBox="0.00 0.00 392.00 38.00" xmlns="http://www.w3.org/2000/svg" xmlns:xlink="http://www.w3.org/1999/xlink">
<g id="graph0" class="graph" transform="scale(1 1) rotate(0) translate(4 34)">
<title>size_of_nodes</title>
<!-- Node1 -->
<g id="node1" class="node"><title>Node1</title>
<polygon fill="#bfbfbf" stroke="black" points="0,-5.5 0,-24.5 80,-24.5 80,-5.5 0,-5.5"/>
<text text-anchor="middle" x="40" y="-12.5" font-family="Helvetica,sans-Serif" font-size="10.00">size_of_nodes</text>
</g>
<!-- Node2 -->
<g id="node2" class="node"><title>Node2</title>
<g id="a_node2"><a xlink:href="classElement__node__vectors__k__const_a012daf687ea85e9da2bc2d064de92aa6.html#a012daf687ea85e9da2bc2d064de92aa6" target="_top" xlink:title="initialize the accessor with a pointer and a specific stride. ">
<polygon fill="none" stroke="black" points="116,-0 116,-30 232,-30 232,-0 116,-0"/>
<text text-anchor="start" x="124" y="-18" font-family="Helvetica,sans-Serif" font-size="10.00">Element_node_vectors</text>
<text text-anchor="middle" x="174" y="-7" font-family="Helvetica,sans-Serif" font-size="10.00">_k_const::set</text>
</a>
</g>
</g>
<!-- Node1&#45;&gt;Node2 -->
<g id="edge1" class="edge"><title>Node1&#45;&gt;Node2</title>
<path fill="none" stroke="midnightblue" d="M90.4082,-15C98.6177,-15 107.194,-15 115.581,-15"/>
<polygon fill="midnightblue" stroke="midnightblue" points="90.247,-11.5001 80.247,-15 90.2469,-18.5001 90.247,-11.5001"/>
</g>
<!-- Node3 -->
<g id="node3" class="node"><title>Node3</title>
<g id="a_node3"><a xlink:href="classElement__node__vectors__k_abff5b8faeb81685278bb62a627e784b0.html#abff5b8faeb81685278bb62a627e784b0" target="_top" xlink:title="Element_node_vectors\l_k::set">
<polygon fill="none" stroke="black" points="268,-0 268,-30 384,-30 384,-0 268,-0"/>
<text text-anchor="start" x="276" y="-18" font-family="Helvetica,sans-Serif" font-size="10.00">Element_node_vectors</text>
<text text-anchor="middle" x="326" y="-7" font-family="Helvetica,sans-Serif" font-size="10.00">_k::set</text>
</a>
</g>
</g>
<!-- Node2&#45;&gt;Node3 -->
<g id="edge2" class="edge"><title>Node2&#45;&gt;Node3</title>
<path fill="none" stroke="midnightblue" d="M242.311,-15C250.728,-15 259.277,-15 267.525,-15"/>
<polygon fill="midnightblue" stroke="midnightblue" points="242.137,-11.5001 232.136,-15 242.136,-18.5001 242.137,-11.5001"/>
</g>
</g>
</svg>
