<?xml version="1.0" encoding="UTF-8" standalone="no"?>
<!DOCTYPE svg PUBLIC "-//W3C//DTD SVG 1.1//EN"
 "http://www.w3.org/Graphics/SVG/1.1/DTD/svg11.dtd">
<!-- Generated by graphviz version 2.30.1 (20150305.2338)
 -->
<!-- Title: _GatherMOV Pages: 1 -->
<svg width="192pt" height="104pt"
 viewBox="0.00 0.00 192.00 104.00" xmlns="http://www.w3.org/2000/svg" xmlns:xlink="http://www.w3.org/1999/xlink">
<g id="graph0" class="graph" transform="scale(1 1) rotate(0) translate(4 100)">
<title>_GatherMOV</title>
<!-- Node1 -->
<g id="node1" class="node"><title>Node1</title>
<polygon fill="#bfbfbf" stroke="black" points="0,-38.5 0,-57.5 74,-57.5 74,-38.5 0,-38.5"/>
<text text-anchor="middle" x="37" y="-45.5" font-family="Helvetica,sans-Serif" font-size="10.00">_GatherMOV</text>
</g>
<!-- Node2 -->
<g id="node2" class="node"><title>Node2</title>
<g id="a_node2"><a xlink:href="classIRAD_1_1Comm_1_1CommunicatorObject_a105abb0b07bba73ac96ea42d21b31bb1.html#a105abb0b07bba73ac96ea42d21b31bb1" target="_top" xlink:title="AllGatherMO">
<polygon fill="none" stroke="black" points="110.5,-76.5 110.5,-95.5 183.5,-95.5 183.5,-76.5 110.5,-76.5"/>
<text text-anchor="middle" x="147" y="-83.5" font-family="Helvetica,sans-Serif" font-size="10.00">AllGatherMO</text>
</a>
</g>
</g>
<!-- Node1&#45;&gt;Node2 -->
<g id="edge1" class="edge"><title>Node1&#45;&gt;Node2</title>
<path fill="none" stroke="midnightblue" d="M74.8672,-60.9718C89.2558,-66.0344 105.455,-71.7341 118.756,-76.4141"/>
<polygon fill="midnightblue" stroke="midnightblue" points="75.8478,-57.6065 65.253,-57.589 73.5244,-64.2097 75.8478,-57.6065"/>
</g>
<!-- Node3 -->
<g id="node3" class="node"><title>Node3</title>
<g id="a_node3"><a xlink:href="classIRAD_1_1Comm_1_1CommunicatorObject_af30bbfabcc659ee2de92caa170cfa080.html#af30bbfabcc659ee2de92caa170cfa080" target="_top" xlink:title="GatherMO">
<polygon fill="none" stroke="black" points="116,-38.5 116,-57.5 178,-57.5 178,-38.5 116,-38.5"/>
<text text-anchor="middle" x="147" y="-45.5" font-family="Helvetica,sans-Serif" font-size="10.00">GatherMO</text>
</a>
</g>
</g>
<!-- Node1&#45;&gt;Node3 -->
<g id="edge2" class="edge"><title>Node1&#45;&gt;Node3</title>
<path fill="none" stroke="midnightblue" d="M84.2944,-48C94.9459,-48 106.006,-48 115.77,-48"/>
<polygon fill="midnightblue" stroke="midnightblue" points="84.2629,-44.5001 74.2629,-48 84.2628,-51.5001 84.2629,-44.5001"/>
</g>
<!-- Node4 -->
<g id="node4" class="node"><title>Node4</title>
<g id="a_node4"><a xlink:href="classIRAD_1_1Comm_1_1CommunicatorObject_a2e690f599d0d101ad0fb1e127a65ca3b.html#a2e690f599d0d101ad0fb1e127a65ca3b" target="_top" xlink:title="GatherMOV">
<polygon fill="none" stroke="black" points="113,-0.5 113,-19.5 181,-19.5 181,-0.5 113,-0.5"/>
<text text-anchor="middle" x="147" y="-7.5" font-family="Helvetica,sans-Serif" font-size="10.00">GatherMOV</text>
</a>
</g>
</g>
<!-- Node1&#45;&gt;Node4 -->
<g id="edge3" class="edge"><title>Node1&#45;&gt;Node4</title>
<path fill="none" stroke="midnightblue" d="M74.8672,-35.0282C89.2558,-29.9656 105.455,-24.2659 118.756,-19.5859"/>
<polygon fill="midnightblue" stroke="midnightblue" points="73.5244,-31.7903 65.253,-38.411 75.8478,-38.3935 73.5244,-31.7903"/>
</g>
</g>
</svg>
