<?xml version="1.0" encoding="UTF-8" standalone="no"?>
<!DOCTYPE svg PUBLIC "-//W3C//DTD SVG 1.1//EN"
 "http://www.w3.org/Graphics/SVG/1.1/DTD/svg11.dtd">
<!-- Generated by graphviz version 2.26.0 (20091210.2329)
 -->
<!-- Title: updateloads Pages: 1 -->
<svg width="480pt" height="70pt"
 viewBox="0.00 0.00 480.00 70.00" xmlns="http://www.w3.org/2000/svg" xmlns:xlink="http://www.w3.org/1999/xlink">
<g id="graph1" class="graph" transform="scale(1 1) rotate(0) translate(4 66)">
<title>updateloads</title>
<!-- Node1 -->
<g id="node1" class="node"><title>Node1</title>
<polygon fill="#bfbfbf" stroke="black" points="0.5,-20.5 0.5,-41.5 69.5,-41.5 69.5,-20.5 0.5,-20.5"/>
<text text-anchor="middle" x="35" y="-28.5" font-family="Helvetica,sans-Serif" font-size="10.00">updateloads</text>
</g>
<!-- Node2 -->
<g id="node3" class="node"><title>Node2</title>
<a xlink:href="MyTimeStepper_8F90_a237a61ca1fd44e17d8c988a27b400ef4.html#a237a61ca1fd44e17d8c988a27b400ef4" target="_top" xlink:title="mydeprecatedtimestepper">
<polygon fill="none" stroke="black" points="106.5,-40.5 106.5,-61.5 235.5,-61.5 235.5,-40.5 106.5,-40.5"/>
<text text-anchor="middle" x="171" y="-48.5" font-family="Helvetica,sans-Serif" font-size="10.00">mydeprecatedtimestepper</text>
</a>
</g>
<!-- Node1&#45;&gt;Node2 -->
<g id="edge2" class="edge"><title>Node1&#45;&gt;Node2</title>
<path fill="none" stroke="midnightblue" d="M79.7192,-37.5763C88.2161,-38.8259 97.2646,-40.1566 106.238,-41.4761"/>
<polygon fill="midnightblue" stroke="midnightblue" points="80.0733,-34.0909 69.6704,-36.0986 79.0548,-41.0164 80.0733,-34.0909"/>
</g>
<!-- Node3 -->
<g id="node5" class="node"><title>Node3</title>
<a xlink:href="classmytimemodule_a89480aff5c9d8dca59ec62b1ae353219.html#a89480aff5c9d8dca59ec62b1ae353219" target="_top" xlink:title="mytimestepper">
<polygon fill="none" stroke="black" points="130.5,-0.5 130.5,-21.5 211.5,-21.5 211.5,-0.5 130.5,-0.5"/>
<text text-anchor="middle" x="171" y="-8.5" font-family="Helvetica,sans-Serif" font-size="10.00">mytimestepper</text>
</a>
</g>
<!-- Node1&#45;&gt;Node3 -->
<g id="edge4" class="edge"><title>Node1&#45;&gt;Node3</title>
<path fill="none" stroke="midnightblue" d="M79.9718,-24.3865C96.1487,-22.0075 114.297,-19.3387 130.108,-17.0136"/>
<polygon fill="midnightblue" stroke="midnightblue" points="79.0548,-20.9836 69.6704,-25.9014 80.0733,-27.9091 79.0548,-20.9836"/>
</g>
<!-- Node4 -->
<g id="node7" class="node"><title>Node4</title>
<a xlink:href="SolverModule_8F90_a8b10c4eb645aab66861aa1220c4adae1.html#a8b10c4eb645aab66861aa1220c4adae1" target="_top" xlink:title="run">
<polygon fill="none" stroke="black" points="272,-0.5 272,-21.5 302,-21.5 302,-0.5 272,-0.5"/>
<text text-anchor="middle" x="287" y="-8.5" font-family="Helvetica,sans-Serif" font-size="10.00">run</text>
</a>
</g>
<!-- Node3&#45;&gt;Node4 -->
<g id="edge6" class="edge"><title>Node3&#45;&gt;Node4</title>
<path fill="none" stroke="midnightblue" d="M221.822,-11C240.011,-11 259.156,-11 271.954,-11"/>
<polygon fill="midnightblue" stroke="midnightblue" points="221.571,-7.5001 211.571,-11 221.571,-14.5001 221.571,-7.5001"/>
</g>
<!-- Node5 -->
<g id="node9" class="node"><title>Node5</title>
<a xlink:href="SolverModule_8F90_a2363fcb6699317c59c1f2f041ee860d2.html#a2363fcb6699317c59c1f2f041ee860d2" target="_top" xlink:title="solvermodule_load_module">
<polygon fill="none" stroke="black" points="338,-0.5 338,-21.5 472,-21.5 472,-0.5 338,-0.5"/>
<text text-anchor="middle" x="405" y="-8.5" font-family="Helvetica,sans-Serif" font-size="10.00">solvermodule_load_module</text>
</a>
</g>
<!-- Node4&#45;&gt;Node5 -->
<g id="edge8" class="edge"><title>Node4&#45;&gt;Node5</title>
<path fill="none" stroke="midnightblue" d="M312.433,-11C320.111,-11 328.926,-11 337.998,-11"/>
<polygon fill="midnightblue" stroke="midnightblue" points="312.426,-7.5001 302.426,-11 312.426,-14.5001 312.426,-7.5001"/>
</g>
</g>
</svg>
