<?xml version="1.0" encoding="UTF-8" standalone="no"?>
<!DOCTYPE svg PUBLIC "-//W3C//DTD SVG 1.1//EN"
 "http://www.w3.org/Graphics/SVG/1.1/DTD/svg11.dtd">
<!-- Generated by graphviz version 2.30.1 (20150305.2338)
 -->
<!-- Title: Element_vectors_k&lt; Value &gt; Pages: 1 -->
<!--zoomable 548 -->
<svg id="main" version="1.1" xmlns="http://www.w3.org/2000/svg" xmlns:xlink="http://www.w3.org/1999/xlink" xml:space="preserve" onload="init(evt)">
<style type="text/css"><![CDATA[
.edge:hover path { stroke: red; }
.edge:hover polygon { stroke: red; fill: red; }
]]></style>
<script type="text/javascript"><![CDATA[
var edges = document.getElementsByTagName('g');
if (edges && edges.length) {
  for (var i=0;i<edges.length;i++) {
    if (edges[i].id.substr(0,4)=='edge') {
      edges[i].setAttribute('class','edge');
    }
  }
}
]]></script>
        <defs>
                <circle id="rim" cx="0" cy="0" r="7"/>
                <circle id="rim2" cx="0" cy="0" r="3.5"/>
                <g id="zoomPlus">
                        <use xlink:href="#rim" fill="#404040">
                                <set attributeName="fill" to="#808080" begin="zoomplus.mouseover" end="zoomplus.mouseout"/>
                        </use>
                        <path d="M-4,0h8M0,-4v8" fill="none" stroke="white" stroke-width="1.5" pointer-events="none"/>
                </g>
                <g id="zoomMin">
                        <use xlink:href="#rim" fill="#404040">
                                <set attributeName="fill" to="#808080" begin="zoomminus.mouseover" end="zoomminus.mouseout"/>
                        </use>
                        <path d="M-4,0h8" fill="none" stroke="white" stroke-width="1.5" pointer-events="none"/>
                </g>
                <g id="dirArrow">
                        <path fill="none" stroke="white" stroke-width="1.5" d="M0,-3.0v7 M-2.5,-0.5L0,-3.0L2.5,-0.5"/>
                </g>
               <g id="resetDef">
                       <use xlink:href="#rim2" fill="#404040">
                               <set attributeName="fill" to="#808080" begin="reset.mouseover" end="reset.mouseout"/>
                       </use>
               </g>
        </defs>

<script type="text/javascript">
var viewWidth = 1500;
var viewHeight = 548;
var sectionId = 'dynsection-1';
</script>
<script xlink:href="svgpan.js"/>
<svg id="graph" class="graph">
<g id="viewport">
<title>Element_vectors_k&lt; Value &gt;</title>
<!-- Node1 -->
<g id="node1" class="node"><title>Node1</title>
<polygon fill="#bfbfbf" stroke="black" points="660.5,-115.572 660.5,-145.572 767.5,-145.572 767.5,-115.572 660.5,-115.572"/>
<text text-anchor="start" x="668.5" y="-133.572" font-family="Helvetica,sans-Serif" font-size="10.00">Element_vectors_k&lt;</text>
<text text-anchor="middle" x="714" y="-122.572" font-family="Helvetica,sans-Serif" font-size="10.00"> Value &gt;</text>
</g>
<!-- Node2 -->
<g id="node2" class="node"><title>Node2</title>
<g id="a_node2"><a xlink:href="classElement__vectors__k__const.html" target="_top" xlink:title="This is a helper class for accessing elemental data. ">
<polygon fill="none" stroke="black" points="442,-115.572 442,-145.572 572,-145.572 572,-115.572 442,-115.572"/>
<text text-anchor="start" x="450" y="-133.572" font-family="Helvetica,sans-Serif" font-size="10.00">Element_vectors_k_const</text>
<text text-anchor="middle" x="507" y="-122.572" font-family="Helvetica,sans-Serif" font-size="10.00">&lt; Value &gt;</text>
</a>
</g>
</g>
<!-- Node2&#45;&gt;Node1 -->
<g id="edge1" class="edge"><title>Node2&#45;&gt;Node1</title>
<path fill="none" stroke="midnightblue" d="M582.188,-130.572C608.112,-130.572 636.659,-130.572 660.452,-130.572"/>
<polygon fill="midnightblue" stroke="midnightblue" points="582.02,-127.072 572.02,-130.572 582.02,-134.072 582.02,-127.072"/>
</g>
<!-- Node3 -->
<g id="node3" class="node"><title>Node3</title>
<g id="a_node3"><a xlink:href="classDataItem.html" target="_top" xlink:title="A DataItem object is a data member of a window. ">
<polygon fill="none" stroke="black" points="271.5,-177.072 271.5,-196.072 328.5,-196.072 328.5,-177.072 271.5,-177.072"/>
<text text-anchor="middle" x="300" y="-184.072" font-family="Helvetica,sans-Serif" font-size="10.00">DataItem</text>
</a>
</g>
</g>
<!-- Node3&#45;&gt;Node2 -->
<g id="edge2" class="edge"><title>Node3&#45;&gt;Node2</title>
<path fill="none" stroke="#9a32cd" stroke-dasharray="5,2" d="M318.677,-170.306C327.929,-162.734 339.844,-154.36 352,-149.572 380.198,-138.467 413.353,-133.452 441.663,-131.321"/>
<polygon fill="#9a32cd" stroke="#9a32cd" points="316.299,-167.735 310.998,-176.908 320.863,-173.043 316.299,-167.735"/>
<text text-anchor="middle" x="388" y="-152.572" font-family="Helvetica,sans-Serif" font-size="10.00"> _attr</text>
</g>
<!-- Node6 -->
<g id="node6" class="node"><title>Node6</title>
<g id="a_node6"><a xlink:href="classConnectivity.html" target="_top" xlink:title="Encapsulates an element&#45;connectivity of a mesh. ">
<polygon fill="none" stroke="black" points="471.5,-203.072 471.5,-222.072 542.5,-222.072 542.5,-203.072 471.5,-203.072"/>
<text text-anchor="middle" x="507" y="-210.072" font-family="Helvetica,sans-Serif" font-size="10.00">Connectivity</text>
</a>
</g>
</g>
<!-- Node3&#45;&gt;Node6 -->
<g id="edge6" class="edge"><title>Node3&#45;&gt;Node6</title>
<path fill="none" stroke="darkgreen" d="M338.769,-191.362C376.652,-196.167 434.503,-203.504 471.272,-208.168"/>
<polygon fill="darkgreen" stroke="darkgreen" points="339.008,-187.865 328.647,-190.079 338.127,-194.809 339.008,-187.865"/>
</g>
<!-- Node9 -->
<g id="node9" class="node"><title>Node9</title>
<polygon fill="none" stroke="#bfbfbf" points="452.5,-288.072 452.5,-307.072 561.5,-307.072 561.5,-288.072 452.5,-288.072"/>
<text text-anchor="middle" x="507" y="-295.072" font-family="Helvetica,sans-Serif" font-size="10.00">vector&lt; DataItem * &gt;</text>
</g>
<!-- Node3&#45;&gt;Node9 -->
<g id="edge10" class="edge"><title>Node3&#45;&gt;Node9</title>
<path fill="none" stroke="#9a32cd" stroke-dasharray="5,2" d="M329.539,-200.804C336.785,-204.195 344.612,-207.668 352,-210.572 383.264,-222.862 398.935,-211.206 424,-233.572 438.546,-246.552 427.781,-260.236 442,-273.572 448.665,-279.823 457.11,-284.485 465.662,-287.948"/>
<polygon fill="#9a32cd" stroke="#9a32cd" points="330.645,-197.453 320.114,-196.293 327.623,-203.767 330.645,-197.453"/>
<text text-anchor="middle" x="388" y="-236.572" font-family="Helvetica,sans-Serif" font-size="10.00"> elements</text>
</g>
<!-- Node12 -->
<g id="node12" class="node"><title>Node12</title>
<g id="a_node12"><a xlink:href="classFunction.html" target="_top" xlink:title="A Function object corresponds to a function member of a window. ">
<polygon fill="none" stroke="black" points="687,-401.072 687,-420.072 741,-420.072 741,-401.072 687,-401.072"/>
<text text-anchor="middle" x="714" y="-408.072" font-family="Helvetica,sans-Serif" font-size="10.00">Function</text>
</a>
</g>
</g>
<!-- Node3&#45;&gt;Node12 -->
<g id="edge19" class="edge"><title>Node3&#45;&gt;Node12</title>
<path fill="none" stroke="#9a32cd" stroke-dasharray="5,2" d="M316.294,-204.065C348.19,-240.569 419.26,-322.032 424,-328.572 433.125,-341.163 429.255,-349.665 442,-358.572 481.562,-386.222 626.74,-402.561 686.762,-408.265"/>
<polygon fill="#9a32cd" stroke="#9a32cd" points="318.649,-201.44 309.432,-196.214 313.378,-206.047 318.649,-201.44"/>
<text text-anchor="middle" x="507" y="-397.572" font-family="Helvetica,sans-Serif" font-size="10.00"> _attr</text>
</g>
<!-- Node20 -->
<g id="node20" class="node"><title>Node20</title>
<polygon fill="none" stroke="#bfbfbf" points="930,-105.072 930,-124.072 1080,-124.072 1080,-105.072 930,-105.072"/>
<text text-anchor="middle" x="1005" y="-112.072" font-family="Helvetica,sans-Serif" font-size="10.00">map&lt; std::string, DataItem * &gt;</text>
</g>
<!-- Node3&#45;&gt;Node20 -->
<g id="edge33" class="edge"><title>Node3&#45;&gt;Node20</title>
<path fill="none" stroke="#9a32cd" stroke-dasharray="5,2" d="M312.847,-168.499C322.072,-155.812 335.975,-139.414 352,-129.572 387.276,-107.908 400.953,-110.951 442,-105.572 615.675,-82.8133 822.101,-96.395 929.963,-106.545"/>
<polygon fill="#9a32cd" stroke="#9a32cd" points="309.819,-166.724 306.994,-176.935 315.57,-170.714 309.819,-166.724"/>
<text text-anchor="middle" x="612" y="-97.5723" font-family="Helvetica,sans-Serif" font-size="10.00"> elements</text>
</g>
<!-- Node3&#45;&gt;Node3 -->
<g id="edge36" class="edge"><title>Node3&#45;&gt;Node3</title>
<path fill="none" stroke="#9a32cd" stroke-dasharray="5,2" d="M286.372,-206.339C287.443,-211.069 291.985,-214.572 300,-214.572 313.152,-214.572 316.954,-205.138 311.406,-196.329"/>
<polygon fill="#9a32cd" stroke="#9a32cd" points="289.844,-206.85 288.594,-196.329 283.01,-205.333 289.844,-206.85"/>
<text text-anchor="middle" x="300" y="-217.572" font-family="Helvetica,sans-Serif" font-size="10.00"> _parent</text>
</g>
<!-- Node4 -->
<g id="node4" class="node"><title>Node4</title>
<g id="a_node4"><a xlink:href="classPane.html" target="_top" xlink:title="A Pane object contains a mesh, pane dataitem, and field variables. ">
<polygon fill="none" stroke="black" points="985.5,-258.072 985.5,-277.072 1024.5,-277.072 1024.5,-258.072 985.5,-258.072"/>
<text text-anchor="middle" x="1005" y="-265.072" font-family="Helvetica,sans-Serif" font-size="10.00">Pane</text>
</a>
</g>
</g>
<!-- Node4&#45;&gt;Node3 -->
<g id="edge3" class="edge"><title>Node4&#45;&gt;Node3</title>
<path fill="none" stroke="#9a32cd" stroke-dasharray="5,2" d="M976.634,-253.418C958.721,-244.802 934.54,-234.37 912,-228.572 701.279,-174.37 641.509,-195.164 424,-189.572 391.329,-188.732 353.775,-187.825 328.845,-187.231"/>
<polygon fill="#9a32cd" stroke="#9a32cd" points="975.373,-256.698 985.89,-257.977 978.466,-250.419 975.373,-256.698"/>
<text text-anchor="middle" x="612" y="-193.572" font-family="Helvetica,sans-Serif" font-size="10.00"> _pane</text>
</g>
<!-- Node19 -->
<g id="node19" class="node"><title>Node19</title>
<polygon fill="none" stroke="#bfbfbf" points="1196.5,-366.072 1196.5,-385.072 1295.5,-385.072 1295.5,-366.072 1196.5,-366.072"/>
<text text-anchor="middle" x="1246" y="-373.072" font-family="Helvetica,sans-Serif" font-size="10.00">map&lt; int, Pane * &gt;</text>
</g>
<!-- Node4&#45;&gt;Node19 -->
<g id="edge27" class="edge"><title>Node4&#45;&gt;Node19</title>
<path fill="none" stroke="#9a32cd" stroke-dasharray="5,2" d="M1034.02,-280.236C1082.48,-302.132 1180.86,-346.589 1223.97,-366.068"/>
<polygon fill="#9a32cd" stroke="#9a32cd" points="1035.31,-276.975 1024.75,-276.047 1032.43,-283.354 1035.31,-276.975"/>
<text text-anchor="middle" x="1138" y="-347.572" font-family="Helvetica,sans-Serif" font-size="10.00"> elements</text>
</g>
<!-- Node10 -->
<g id="node10" class="node"><title>Node10</title>
<g id="a_node10"><a xlink:href="classComponentInterface.html" target="_top" xlink:title="A ComponentInterface object contains multiple panes and multiple data dataitems. ">
<polygon fill="none" stroke="black" points="1386.5,-280.072 1386.5,-299.072 1491.5,-299.072 1491.5,-280.072 1386.5,-280.072"/>
<text text-anchor="middle" x="1439" y="-287.072" font-family="Helvetica,sans-Serif" font-size="10.00">ComponentInterface</text>
</a>
</g>
</g>
<!-- Node4&#45;&gt;Node10 -->
<g id="edge29" class="edge"><title>Node4&#45;&gt;Node10</title>
<path fill="none" stroke="#9a32cd" stroke-dasharray="5,2" d="M1034.91,-264.956C1087.16,-260.698 1200.75,-253.598 1296,-262.572 1331.1,-265.88 1370.45,-273.69 1398.8,-280.063"/>
<polygon fill="#9a32cd" stroke="#9a32cd" points="1034.39,-261.487 1024.72,-265.815 1034.97,-268.463 1034.39,-261.487"/>
<text text-anchor="middle" x="1246" y="-265.572" font-family="Helvetica,sans-Serif" font-size="10.00"> _dummy</text>
</g>
<!-- Node5 -->
<g id="node5" class="node"><title>Node5</title>
<polygon fill="none" stroke="#bfbfbf" points="652.5,-228.072 652.5,-247.072 775.5,-247.072 775.5,-228.072 652.5,-228.072"/>
<text text-anchor="middle" x="714" y="-235.072" font-family="Helvetica,sans-Serif" font-size="10.00">vector&lt; Connectivity * &gt;</text>
</g>
<!-- Node5&#45;&gt;Node4 -->
<g id="edge4" class="edge"><title>Node5&#45;&gt;Node4</title>
<path fill="none" stroke="#9a32cd" stroke-dasharray="5,2" d="M786.089,-232.82C823.731,-231.588 870.612,-232.096 912,-238.572 938.142,-242.663 967.06,-252.751 985.369,-259.875"/>
<polygon fill="#9a32cd" stroke="#9a32cd" points="785.59,-229.336 775.729,-233.21 785.853,-236.331 785.59,-229.336"/>
<text text-anchor="middle" x="853" y="-241.572" font-family="Helvetica,sans-Serif" font-size="10.00"> _cnct_set</text>
</g>
<!-- Node6&#45;&gt;Node5 -->
<g id="edge5" class="edge"><title>Node6&#45;&gt;Node5</title>
<path fill="none" stroke="#9a32cd" stroke-dasharray="5,2" d="M553.067,-218.068C582.204,-221.622 620.483,-226.29 652.286,-230.168"/>
<polygon fill="#9a32cd" stroke="#9a32cd" points="553.126,-214.55 542.775,-216.813 552.278,-221.498 553.126,-214.55"/>
<text text-anchor="middle" x="612" y="-230.572" font-family="Helvetica,sans-Serif" font-size="10.00"> elements</text>
</g>
<!-- Node7 -->
<g id="node7" class="node"><title>Node7</title>
<g id="a_node7"><a xlink:title="STL class. ">
<polygon fill="none" stroke="#bfbfbf" points="266,-396.072 266,-415.072 334,-415.072 334,-396.072 266,-396.072"/>
<text text-anchor="middle" x="300" y="-403.072" font-family="Helvetica,sans-Serif" font-size="10.00">vector&lt; T &gt;</text>
</a>
</g>
</g>
<!-- Node7&#45;&gt;Node5 -->
<g id="edge7" class="edge"><title>Node7&#45;&gt;Node5</title>
<path fill="none" stroke="orange" stroke-dasharray="5,2" d="M310.857,-386.474C320.02,-369.913 334.816,-345.94 352,-328.572 385.986,-294.222 396.657,-284.276 442,-267.572 461.239,-260.485 578.556,-249.251 652.389,-242.728"/>
<polygon fill="orange" stroke="orange" points="307.55,-385.236 305.909,-395.703 313.719,-388.544 307.55,-385.236"/>
<text text-anchor="middle" x="507" y="-270.572" font-family="Helvetica,sans-Serif" font-size="10.00"> &lt; Connectivity * &gt;</text>
</g>
<!-- Node7&#45;&gt;Node9 -->
<g id="edge11" class="edge"><title>Node7&#45;&gt;Node9</title>
<path fill="none" stroke="orange" stroke-dasharray="5,2" d="M323.793,-390.26C351.104,-372.325 398.622,-342.421 442,-321.572 453.23,-316.175 466.015,-311.167 477.189,-307.138"/>
<polygon fill="orange" stroke="orange" points="321.749,-387.415 315.341,-395.852 325.612,-393.253 321.749,-387.415"/>
<text text-anchor="middle" x="388" y="-374.572" font-family="Helvetica,sans-Serif" font-size="10.00"> &lt; DataItem * &gt;</text>
</g>
<!-- Node13 -->
<g id="node13" class="node"><title>Node13</title>
<polygon fill="none" stroke="#bfbfbf" points="451,-420.072 451,-439.072 563,-439.072 563,-420.072 451,-420.072"/>
<text text-anchor="middle" x="507" y="-427.072" font-family="Helvetica,sans-Serif" font-size="10.00">vector&lt; COM_Type &gt;</text>
</g>
<!-- Node7&#45;&gt;Node13 -->
<g id="edge16" class="edge"><title>Node7&#45;&gt;Node13</title>
<path fill="none" stroke="orange" stroke-dasharray="5,2" d="M344.48,-410.663C375.549,-414.3 417.591,-419.222 450.994,-423.133"/>
<polygon fill="orange" stroke="orange" points="344.732,-407.168 334.393,-409.482 343.918,-414.121 344.732,-407.168"/>
<text text-anchor="middle" x="388" y="-423.572" font-family="Helvetica,sans-Serif" font-size="10.00"> &lt; COM_Type &gt;</text>
</g>
<!-- Node8 -->
<g id="node8" class="node"><title>Node8</title>
<polygon fill="none" stroke="#bfbfbf" points="150.5,-474.072 150.5,-493.072 179.5,-493.072 179.5,-474.072 150.5,-474.072"/>
<text text-anchor="middle" x="165" y="-481.072" font-family="Helvetica,sans-Serif" font-size="10.00">T</text>
</g>
<!-- Node8&#45;&gt;Node7 -->
<g id="edge8" class="edge"><title>Node8&#45;&gt;Node7</title>
<path fill="none" stroke="#9a32cd" stroke-dasharray="5,2" d="M188.387,-470.443C215.061,-454.8 258.987,-429.039 282.662,-415.154"/>
<polygon fill="#9a32cd" stroke="#9a32cd" points="186.588,-467.441 179.732,-475.519 190.129,-473.479 186.588,-467.441"/>
<text text-anchor="middle" x="226" y="-462.572" font-family="Helvetica,sans-Serif" font-size="10.00"> elements</text>
</g>
<!-- Node16 -->
<g id="node16" class="node"><title>Node16</title>
<g id="a_node16"><a xlink:title="STL class. ">
<polygon fill="none" stroke="#bfbfbf" points="678,-443.072 678,-462.072 750,-462.072 750,-443.072 678,-443.072"/>
<text text-anchor="middle" x="714" y="-450.072" font-family="Helvetica,sans-Serif" font-size="10.00">map&lt; K, T &gt;</text>
</a>
</g>
</g>
<!-- Node8&#45;&gt;Node16 -->
<g id="edge23" class="edge"><title>Node8&#45;&gt;Node16</title>
<path fill="none" stroke="#9a32cd" stroke-dasharray="5,2" d="M189.394,-489.997C251.792,-506.256 427.284,-546.249 572,-524.572 600.502,-520.303 607.976,-517.956 634,-505.572 659.502,-493.437 686.183,-473.866 701.09,-462.208"/>
<polygon fill="#9a32cd" stroke="#9a32cd" points="190.292,-486.614 179.728,-487.43 188.495,-493.38 190.292,-486.614"/>
<text text-anchor="middle" x="388" y="-531.572" font-family="Helvetica,sans-Serif" font-size="10.00"> elements</text>
</g>
<!-- Node9&#45;&gt;Node4 -->
<g id="edge9" class="edge"><title>Node9&#45;&gt;Node4</title>
<path fill="none" stroke="#9a32cd" stroke-dasharray="5,2" d="M572.129,-298.064C651.968,-298.053 792.416,-295.983 912,-283.572 937.639,-280.911 966.919,-275.384 985.427,-271.577"/>
<polygon fill="#9a32cd" stroke="#9a32cd" points="571.752,-294.564 561.749,-298.054 571.745,-301.564 571.752,-294.564"/>
<text text-anchor="middle" x="714" y="-300.572" font-family="Helvetica,sans-Serif" font-size="10.00"> _attr_set</text>
</g>
<!-- Node10&#45;&gt;Node4 -->
<g id="edge12" class="edge"><title>Node10&#45;&gt;Node4</title>
<path fill="none" stroke="#9a32cd" stroke-dasharray="5,2" d="M1375.91,-286.41C1276,-281.322 1084.69,-271.58 1024.56,-268.518"/>
<polygon fill="#9a32cd" stroke="#9a32cd" points="1375.99,-289.919 1386.16,-286.932 1376.35,-282.928 1375.99,-289.919"/>
<text text-anchor="middle" x="1246" y="-285.572" font-family="Helvetica,sans-Serif" font-size="10.00"> _window</text>
</g>
<!-- Node11 -->
<g id="node11" class="node"><title>Node11</title>
<polygon fill="none" stroke="#bfbfbf" points="935,-350.072 935,-369.072 1075,-369.072 1075,-350.072 935,-350.072"/>
<text text-anchor="middle" x="1005" y="-357.072" font-family="Helvetica,sans-Serif" font-size="10.00">map&lt; std::string, Function &gt;</text>
</g>
<!-- Node11&#45;&gt;Node10 -->
<g id="edge13" class="edge"><title>Node11&#45;&gt;Node10</title>
<path fill="none" stroke="#9a32cd" stroke-dasharray="5,2" d="M1074.71,-348.439C1161.36,-334.398 1308.39,-310.574 1386.17,-297.97"/>
<polygon fill="#9a32cd" stroke="#9a32cd" points="1074.02,-345.004 1064.71,-350.059 1075.14,-351.914 1074.02,-345.004"/>
<text text-anchor="middle" x="1246" y="-331.572" font-family="Helvetica,sans-Serif" font-size="10.00"> _func_map</text>
</g>
<!-- Node12&#45;&gt;Node11 -->
<g id="edge14" class="edge"><title>Node12&#45;&gt;Node11</title>
<path fill="none" stroke="#9a32cd" stroke-dasharray="5,2" d="M742.419,-396.641C757.299,-389.723 776.237,-381.93 794,-377.572 840.022,-366.281 893.22,-361.807 934.558,-360.143"/>
<polygon fill="#9a32cd" stroke="#9a32cd" points="740.788,-393.542 733.279,-401.017 743.81,-399.856 740.788,-393.542"/>
<text text-anchor="middle" x="853" y="-380.572" font-family="Helvetica,sans-Serif" font-size="10.00"> elements</text>
</g>
<!-- Node13&#45;&gt;Node12 -->
<g id="edge15" class="edge"><title>Node13&#45;&gt;Node12</title>
<path fill="none" stroke="#9a32cd" stroke-dasharray="5,2" d="M573.301,-423.52C611.749,-419.957 658.275,-415.644 686.746,-413.006"/>
<polygon fill="#9a32cd" stroke="#9a32cd" points="572.84,-420.048 563.206,-424.456 573.486,-427.018 572.84,-420.048"/>
<text text-anchor="middle" x="612" y="-425.572" font-family="Helvetica,sans-Serif" font-size="10.00"> _types</text>
</g>
<!-- Node14 -->
<g id="node14" class="node"><title>Node14</title>
<g id="a_node14"><a xlink:title="STL class. ">
<polygon fill="none" stroke="#bfbfbf" points="144.5,-177.072 144.5,-196.072 185.5,-196.072 185.5,-177.072 144.5,-177.072"/>
<text text-anchor="middle" x="165" y="-184.072" font-family="Helvetica,sans-Serif" font-size="10.00">string</text>
</a>
</g>
</g>
<!-- Node14&#45;&gt;Node12 -->
<g id="edge17" class="edge"><title>Node14&#45;&gt;Node12</title>
<path fill="none" stroke="#9a32cd" stroke-dasharray="5,2" d="M165.643,-206.191C165.085,-262.279 166.863,-421.347 204,-453.572 211.519,-460.097 106.816,-493.138 572,-448.572 599.858,-445.903 606.901,-444.563 634,-437.572 652.526,-432.793 672.951,-425.764 688.391,-420.076"/>
<polygon fill="#9a32cd" stroke="#9a32cd" points="169.144,-206.188 165.781,-196.14 162.144,-206.091 169.144,-206.188"/>
<text text-anchor="middle" x="388" y="-469.572" font-family="Helvetica,sans-Serif" font-size="10.00"> _intents</text>
</g>
<!-- Node14&#45;&gt;Node11 -->
<g id="edge20" class="edge"><title>Node14&#45;&gt;Node11</title>
<path fill="none" stroke="#9a32cd" stroke-dasharray="5,2" d="M172.134,-206.061C186.721,-248.108 227.69,-343.572 299,-343.572 299,-343.572 299,-343.572 715,-343.572 790.25,-343.572 876.353,-349.047 934.863,-353.592"/>
<polygon fill="#9a32cd" stroke="#9a32cd" points="175.397,-204.78 168.922,-196.393 168.754,-206.987 175.397,-204.78"/>
<text text-anchor="middle" x="507" y="-346.572" font-family="Helvetica,sans-Serif" font-size="10.00"> keys</text>
</g>
<!-- Node14&#45;&gt;Node10 -->
<g id="edge30" class="edge"><title>Node14&#45;&gt;Node10</title>
<path fill="none" stroke="#9a32cd" stroke-dasharray="5,2" d="M193.179,-172.232C228.754,-154.017 293.475,-122.772 352,-104.572 567.995,-37.4034 625.802,-9.5723 852,-9.5723 852,-9.5723 852,-9.5723 1247,-9.5723 1380.87,-9.5723 1427.65,-230.699 1436.4,-279.934"/>
<polygon fill="#9a32cd" stroke="#9a32cd" points="191.224,-169.302 183.947,-177.002 194.438,-175.521 191.224,-169.302"/>
<text text-anchor="middle" x="714" y="-25.5723" font-family="Helvetica,sans-Serif" font-size="10.00"> _name</text>
</g>
<!-- Node14&#45;&gt;Node20 -->
<g id="edge32" class="edge"><title>Node14&#45;&gt;Node20</title>
<path fill="none" stroke="#9a32cd" stroke-dasharray="5,2" d="M168.01,-166.44C172.215,-128.941 183.307,-50.7289 204,-34.5723 325.433,60.2401 832.297,-67.9474 969.58,-105.047"/>
<polygon fill="#9a32cd" stroke="#9a32cd" points="164.501,-166.342 166.924,-176.657 171.462,-167.083 164.501,-166.342"/>
<text text-anchor="middle" x="507" y="-21.5723" font-family="Helvetica,sans-Serif" font-size="10.00"> keys</text>
</g>
<!-- Node14&#45;&gt;Node3 -->
<g id="edge35" class="edge"><title>Node14&#45;&gt;Node3</title>
<path fill="none" stroke="#9a32cd" stroke-dasharray="5,2" d="M195.693,-186.572C218.346,-186.572 249.317,-186.572 271.427,-186.572"/>
<polygon fill="#9a32cd" stroke="#9a32cd" points="195.625,-183.072 185.625,-186.572 195.625,-190.072 195.625,-183.072"/>
<text text-anchor="middle" x="226" y="-200.572" font-family="Helvetica,sans-Serif" font-size="10.00"> _name</text>
<text text-anchor="middle" x="226" y="-189.572" font-family="Helvetica,sans-Serif" font-size="10.00">_unit</text>
</g>
<!-- Node15 -->
<g id="node15" class="node"><title>Node15</title>
<g id="a_node15"><a xlink:title="STL class. ">
<polygon fill="none" stroke="#bfbfbf" points="0,-177.072 0,-196.072 106,-196.072 106,-177.072 0,-177.072"/>
<text text-anchor="middle" x="53" y="-184.072" font-family="Helvetica,sans-Serif" font-size="10.00">basic_string&lt; char &gt;</text>
</a>
</g>
</g>
<!-- Node15&#45;&gt;Node14 -->
<g id="edge18" class="edge"><title>Node15&#45;&gt;Node14</title>
<path fill="none" stroke="midnightblue" d="M116.338,-186.572C126.515,-186.572 136.35,-186.572 144.416,-186.572"/>
<polygon fill="midnightblue" stroke="midnightblue" points="116.101,-183.072 106.101,-186.572 116.101,-190.072 116.101,-183.072"/>
</g>
<!-- Node16&#45;&gt;Node11 -->
<g id="edge21" class="edge"><title>Node16&#45;&gt;Node11</title>
<path fill="none" stroke="orange" stroke-dasharray="5,2" d="M757.333,-439.309C763.812,-436.523 770.249,-433.283 776,-429.572 785.507,-423.439 784.012,-416.886 794,-411.572 841.171,-386.476 860.216,-401.736 912,-388.572 933.912,-383.002 958.298,-375.242 976.455,-369.151"/>
<polygon fill="orange" stroke="orange" points="755.884,-436.119 747.886,-443.068 758.472,-442.623 755.884,-436.119"/>
<text text-anchor="middle" x="853" y="-414.572" font-family="Helvetica,sans-Serif" font-size="10.00"> &lt; std::string, Function &gt;</text>
</g>
<!-- Node18 -->
<g id="node18" class="node"><title>Node18</title>
<polygon fill="none" stroke="#bfbfbf" points="1098,-459.072 1098,-478.072 1178,-478.072 1178,-459.072 1098,-459.072"/>
<text text-anchor="middle" x="1138" y="-466.072" font-family="Helvetica,sans-Serif" font-size="10.00">map&lt; int, int &gt;</text>
</g>
<!-- Node16&#45;&gt;Node18 -->
<g id="edge25" class="edge"><title>Node16&#45;&gt;Node18</title>
<path fill="none" stroke="orange" stroke-dasharray="5,2" d="M760.419,-454.294C843.719,-457.453 1019.55,-464.119 1097.9,-467.09"/>
<polygon fill="orange" stroke="orange" points="760.379,-450.79 750.254,-453.909 760.114,-457.785 760.379,-450.79"/>
<text text-anchor="middle" x="853" y="-462.572" font-family="Helvetica,sans-Serif" font-size="10.00"> &lt; int, int &gt;</text>
</g>
<!-- Node16&#45;&gt;Node19 -->
<g id="edge28" class="edge"><title>Node16&#45;&gt;Node19</title>
<path fill="none" stroke="orange" stroke-dasharray="5,2" d="M760.168,-446.01C859.136,-431.632 1094.39,-397.453 1196.42,-382.631"/>
<polygon fill="orange" stroke="orange" points="759.578,-442.559 750.185,-447.46 760.585,-449.486 759.578,-442.559"/>
<text text-anchor="middle" x="1005" y="-423.572" font-family="Helvetica,sans-Serif" font-size="10.00"> &lt; int, Pane * &gt;</text>
</g>
<!-- Node16&#45;&gt;Node20 -->
<g id="edge34" class="edge"><title>Node16&#45;&gt;Node20</title>
<path fill="none" stroke="orange" stroke-dasharray="5,2" d="M759.561,-441.875C765.757,-438.762 771.523,-434.748 776,-429.572 800.411,-401.353 774.596,-379.442 794,-347.572 829.453,-289.344 866.135,-300.009 912,-249.572 950.545,-207.185 985.542,-147.637 998.592,-124.401"/>
<polygon fill="orange" stroke="orange" points="758.112,-438.688 750.277,-445.819 760.849,-445.13 758.112,-438.688"/>
<text text-anchor="middle" x="853" y="-350.572" font-family="Helvetica,sans-Serif" font-size="10.00"> &lt; std::string, DataItem * &gt;</text>
</g>
<!-- Node17 -->
<g id="node17" class="node"><title>Node17</title>
<polygon fill="none" stroke="#bfbfbf" points="492.5,-496.072 492.5,-515.072 521.5,-515.072 521.5,-496.072 492.5,-496.072"/>
<text text-anchor="middle" x="507" y="-503.072" font-family="Helvetica,sans-Serif" font-size="10.00">K</text>
</g>
<!-- Node17&#45;&gt;Node16 -->
<g id="edge22" class="edge"><title>Node17&#45;&gt;Node16</title>
<path fill="none" stroke="#9a32cd" stroke-dasharray="5,2" d="M532.004,-502.197C557.555,-498.328 599.041,-491.248 634,-481.572 653.291,-476.233 674.559,-468.303 690.164,-462.084"/>
<polygon fill="#9a32cd" stroke="#9a32cd" points="531.163,-498.783 521.78,-503.702 532.183,-505.709 531.163,-498.783"/>
<text text-anchor="middle" x="612" y="-493.572" font-family="Helvetica,sans-Serif" font-size="10.00"> keys</text>
</g>
<!-- Node18&#45;&gt;Node10 -->
<g id="edge24" class="edge"><title>Node18&#45;&gt;Node10</title>
<path fill="none" stroke="#9a32cd" stroke-dasharray="5,2" d="M1188.09,-458.635C1237.32,-446.829 1313.44,-423.396 1368,-382.572 1399.39,-359.084 1423.4,-317.787 1433.19,-299.162"/>
<polygon fill="#9a32cd" stroke="#9a32cd" points="1187.26,-455.234 1178.32,-460.911 1188.85,-462.052 1187.26,-455.234"/>
<text text-anchor="middle" x="1246" y="-458.572" font-family="Helvetica,sans-Serif" font-size="10.00"> _proc_map</text>
</g>
<!-- Node19&#45;&gt;Node10 -->
<g id="edge26" class="edge"><title>Node19&#45;&gt;Node10</title>
<path fill="none" stroke="#9a32cd" stroke-dasharray="5,2" d="M1305.83,-369.614C1326.27,-365.96 1348.85,-360.068 1368,-350.572 1394,-337.684 1418.04,-312.762 1430.03,-299.101"/>
<polygon fill="#9a32cd" stroke="#9a32cd" points="1304.99,-366.206 1295.69,-371.281 1306.12,-373.113 1304.99,-366.206"/>
<text text-anchor="middle" x="1341" y="-370.572" font-family="Helvetica,sans-Serif" font-size="10.00"> _pane_map</text>
</g>
<!-- Node20&#45;&gt;Node10 -->
<g id="edge31" class="edge"><title>Node20&#45;&gt;Node10</title>
<path fill="none" stroke="#9a32cd" stroke-dasharray="5,2" d="M1038.81,-127.863C1122.42,-161.734 1342.01,-250.689 1414.45,-280.031"/>
<polygon fill="#9a32cd" stroke="#9a32cd" points="1040.12,-124.616 1029.53,-124.105 1037.49,-131.104 1040.12,-124.616"/>
<text text-anchor="middle" x="1246" y="-234.572" font-family="Helvetica,sans-Serif" font-size="10.00"> _attr_map</text>
</g>
</g>
</svg>
        <g id="navigator" transform="translate(0 0)" fill="#404254">
                <rect fill="#f2f5e9" fill-opacity="0.5" stroke="#606060" stroke-width=".5" x="0" y="0" width="60" height="60"/>
                <use id="zoomplus" xlink:href="#zoomPlus" x="17" y="9" onmousedown="handleZoom(evt,'in')"/>
                <use id="zoomminus" xlink:href="#zoomMin" x="42" y="9" onmousedown="handleZoom(evt,'out')"/>
                <use id="reset" xlink:href="#resetDef" x="30" y="36" onmousedown="handleReset()"/>
                <g id="arrowUp" xlink:href="#dirArrow" transform="translate(30 24)" onmousedown="handlePan(0,-1)">
                  <use xlink:href="#rim" fill="#404040">
                        <set attributeName="fill" to="#808080" begin="arrowUp.mouseover" end="arrowUp.mouseout"/>
                  </use>
                  <path fill="none" stroke="white" stroke-width="1.5" d="M0,-3.0v7 M-2.5,-0.5L0,-3.0L2.5,-0.5"/>
                </g>
                <g id="arrowRight" xlink:href="#dirArrow" transform="rotate(90) translate(36 -43)" onmousedown="handlePan(1,0)">
                  <use xlink:href="#rim" fill="#404040">
                        <set attributeName="fill" to="#808080" begin="arrowRight.mouseover" end="arrowRight.mouseout"/>
                  </use>
                  <path fill="none" stroke="white" stroke-width="1.5" d="M0,-3.0v7 M-2.5,-0.5L0,-3.0L2.5,-0.5"/>
                </g>
                <g id="arrowDown" xlink:href="#dirArrow" transform="rotate(180) translate(-30 -48)" onmousedown="handlePan(0,1)">
                  <use xlink:href="#rim" fill="#404040">
                        <set attributeName="fill" to="#808080" begin="arrowDown.mouseover" end="arrowDown.mouseout"/>
                  </use>
                  <path fill="none" stroke="white" stroke-width="1.5" d="M0,-3.0v7 M-2.5,-0.5L0,-3.0L2.5,-0.5"/>
                </g>
                <g id="arrowLeft" xlink:href="#dirArrow" transform="rotate(270) translate(-36 17)" onmousedown="handlePan(-1,0)">
                  <use xlink:href="#rim" fill="#404040">
                        <set attributeName="fill" to="#808080" begin="arrowLeft.mouseover" end="arrowLeft.mouseout"/>
                  </use>
                  <path fill="none" stroke="white" stroke-width="1.5" d="M0,-3.0v7 M-2.5,-0.5L0,-3.0L2.5,-0.5"/>
                </g>
        </g>
        <svg viewBox="0 0 15 15" width="100%" height="30px" preserveAspectRatio="xMaxYMin meet">
         <g id="arrow_out" transform="scale(0.3 0.3)">
          <a xlink:href="classElement__vectors__k__coll__graph_org.svg" target="_base">
           <rect id="button" ry="5" rx="5" y="6" x="6" height="38" width="38"
                fill="#f2f5e9" fill-opacity="0.5" stroke="#606060" stroke-width="1.0"/>
           <path id="arrow"
             d="M 11.500037,31.436501 C 11.940474,20.09759 22.043105,11.32322 32.158766,21.979434 L 37.068811,17.246167 C 37.068811,17.246167 37.088388,32 37.088388,32 L 22.160133,31.978069 C 22.160133,31.978069 26.997745,27.140456 26.997745,27.140456 C 18.528582,18.264221 13.291696,25.230495 11.500037,31.436501 z"
             style="fill:#404040;"/>
          </a>
         </g>
        </svg>
</svg>
