<?xml version="1.0" encoding="UTF-8" standalone="no"?>
<!DOCTYPE svg PUBLIC "-//W3C//DTD SVG 1.1//EN"
 "http://www.w3.org/Graphics/SVG/1.1/DTD/svg11.dtd">
<!-- Generated by graphviz version 2.30.1 (20150305.2338)
 -->
<!-- Title: AllGatherv Pages: 1 -->
<svg width="306pt" height="123pt"
 viewBox="0.00 0.00 306.00 123.00" xmlns="http://www.w3.org/2000/svg" xmlns:xlink="http://www.w3.org/1999/xlink">
<g id="graph0" class="graph" transform="scale(1 1) rotate(0) translate(4 119)">
<title>AllGatherv</title>
<!-- Node1 -->
<g id="node1" class="node"><title>Node1</title>
<polygon fill="#bfbfbf" stroke="black" points="0,-57.5 0,-76.5 62,-76.5 62,-57.5 0,-57.5"/>
<text text-anchor="middle" x="31" y="-64.5" font-family="Helvetica,sans-Serif" font-size="10.00">AllGatherv</text>
</g>
<!-- Node2 -->
<g id="node2" class="node"><title>Node2</title>
<g id="a_node2"><a xlink:href="classIRAD_1_1Comm_1_1CommunicatorObject_a467e1ea74ed33b360c9a470518143ba4.html#a467e1ea74ed33b360c9a470518143ba4" target="_top" xlink:title="_AllGatherv">
<polygon fill="none" stroke="black" points="98,-95.5 98,-114.5 166,-114.5 166,-95.5 98,-95.5"/>
<text text-anchor="middle" x="132" y="-102.5" font-family="Helvetica,sans-Serif" font-size="10.00">_AllGatherv</text>
</a>
</g>
</g>
<!-- Node1&#45;&gt;Node2 -->
<g id="edge1" class="edge"><title>Node1&#45;&gt;Node2</title>
<path fill="none" stroke="midnightblue" d="M56.9819,-76.589C68.9411,-81.1794 83.4548,-86.7503 96.451,-91.7388"/>
<polygon fill="midnightblue" stroke="midnightblue" points="95.436,-95.0981 106.026,-95.4141 97.9445,-88.563 95.436,-95.0981"/>
</g>
<!-- Node3 -->
<g id="node3" class="node"><title>Node3</title>
<g id="a_node3"><a xlink:href="classIRAD_1_1Comm_1_1CommunicatorObject_ac01818e681ddeee8f5032e7fe8a44060.html#ac01818e681ddeee8f5032e7fe8a44060" target="_top" xlink:title="AllGather">
<polygon fill="none" stroke="black" points="103.5,-57.5 103.5,-76.5 160.5,-76.5 160.5,-57.5 103.5,-57.5"/>
<text text-anchor="middle" x="132" y="-64.5" font-family="Helvetica,sans-Serif" font-size="10.00">AllGather</text>
</a>
</g>
</g>
<!-- Node1&#45;&gt;Node3 -->
<g id="edge2" class="edge"><title>Node1&#45;&gt;Node3</title>
<path fill="none" stroke="midnightblue" d="M62.2412,-67C71.948,-67 82.8253,-67 93.0137,-67"/>
<polygon fill="midnightblue" stroke="midnightblue" points="93.3037,-70.5001 103.304,-67 93.3037,-63.5001 93.3037,-70.5001"/>
</g>
<!-- Node4 -->
<g id="node4" class="node"><title>Node4</title>
<g id="a_node4"><a xlink:href="classIRAD_1_1Comm_1_1CommunicatorObject_a8d1be5b57549ef0643506f95d2602aa8.html#a8d1be5b57549ef0643506f95d2602aa8" target="_top" xlink:title="AllReduce">
<polygon fill="none" stroke="black" points="101,-19.5 101,-38.5 163,-38.5 163,-19.5 101,-19.5"/>
<text text-anchor="middle" x="132" y="-26.5" font-family="Helvetica,sans-Serif" font-size="10.00">AllReduce</text>
</a>
</g>
</g>
<!-- Node1&#45;&gt;Node4 -->
<g id="edge3" class="edge"><title>Node1&#45;&gt;Node4</title>
<path fill="none" stroke="midnightblue" d="M56.9819,-57.411C68.9411,-52.8206 83.4548,-47.2497 96.451,-42.2612"/>
<polygon fill="midnightblue" stroke="midnightblue" points="97.9445,-45.437 106.026,-38.5859 95.436,-38.9019 97.9445,-45.437"/>
</g>
<!-- Node5 -->
<g id="node5" class="node"><title>Node5</title>
<g id="a_node5"><a xlink:href="classIRAD_1_1Comm_1_1CommunicatorObject_ad993b33a029d4c8868f37b08710af360.html#ad993b33a029d4c8868f37b08710af360" target="_top" xlink:title="ResolveDataType">
<polygon fill="none" stroke="black" points="202.5,-38.5 202.5,-57.5 297.5,-57.5 297.5,-38.5 202.5,-38.5"/>
<text text-anchor="middle" x="250" y="-45.5" font-family="Helvetica,sans-Serif" font-size="10.00">ResolveDataType</text>
</a>
</g>
</g>
<!-- Node4&#45;&gt;Node5 -->
<g id="edge4" class="edge"><title>Node4&#45;&gt;Node5</title>
<path fill="none" stroke="midnightblue" d="M163.175,-33.9424C172.137,-35.4103 182.26,-37.0684 192.33,-38.7178"/>
<polygon fill="midnightblue" stroke="midnightblue" points="191.902,-42.1944 202.337,-40.3569 193.034,-35.2864 191.902,-42.1944"/>
</g>
<!-- Node6 -->
<g id="node6" class="node"><title>Node6</title>
<g id="a_node6"><a xlink:href="classIRAD_1_1Comm_1_1CommunicatorObject_adbbceea19eefc9cafdf65bb4572a0233.html#adbbceea19eefc9cafdf65bb4572a0233" target="_top" xlink:title="ResolveOp">
<polygon fill="none" stroke="black" points="217.5,-0.5 217.5,-19.5 282.5,-19.5 282.5,-0.5 217.5,-0.5"/>
<text text-anchor="middle" x="250" y="-7.5" font-family="Helvetica,sans-Serif" font-size="10.00">ResolveOp</text>
</a>
</g>
</g>
<!-- Node4&#45;&gt;Node6 -->
<g id="edge5" class="edge"><title>Node4&#45;&gt;Node6</title>
<path fill="none" stroke="midnightblue" d="M163.175,-24.0576C176.571,-21.8633 192.563,-19.2439 207.092,-16.8642"/>
<polygon fill="midnightblue" stroke="midnightblue" points="208.052,-20.2537 217.355,-15.1832 206.921,-13.3457 208.052,-20.2537"/>
</g>
</g>
</svg>
