<?xml version="1.0" encoding="UTF-8" standalone="no"?>
<!DOCTYPE svg PUBLIC "-//W3C//DTD SVG 1.1//EN"
 "http://www.w3.org/Graphics/SVG/1.1/DTD/svg11.dtd">
<!-- Generated by graphviz version 2.30.1 (20150305.2338)
 -->
<!-- Title: Initialize Pages: 1 -->
<svg width="388pt" height="114pt"
 viewBox="0.00 0.00 388.00 114.00" xmlns="http://www.w3.org/2000/svg" xmlns:xlink="http://www.w3.org/1999/xlink">
<g id="graph0" class="graph" transform="scale(1 1) rotate(0) translate(4 110)">
<title>Initialize</title>
<!-- Node1 -->
<g id="node1" class="node"><title>Node1</title>
<polygon fill="#bfbfbf" stroke="black" points="0.5,-38.5 0.5,-57.5 53.5,-57.5 53.5,-38.5 0.5,-38.5"/>
<text text-anchor="middle" x="27" y="-45.5" font-family="Helvetica,sans-Serif" font-size="10.00">Initialize</text>
</g>
<!-- Node2 -->
<g id="node2" class="node"><title>Node2</title>
<g id="a_node2"><a xlink:href="classopenfoamagentpar_a9a8261713154978fa009d8cb2c533055.html#a9a8261713154978fa009d8cb2c533055" target="_top" xlink:title="openfoamagentpar::Initialize">
<polygon fill="none" stroke="black" points="90.5,-38.5 90.5,-57.5 229.5,-57.5 229.5,-38.5 90.5,-38.5"/>
<text text-anchor="middle" x="160" y="-45.5" font-family="Helvetica,sans-Serif" font-size="10.00">openfoamagentpar::Initialize</text>
</a>
</g>
</g>
<!-- Node1&#45;&gt;Node2 -->
<g id="edge1" class="edge"><title>Node1&#45;&gt;Node2</title>
<path fill="none" stroke="midnightblue" d="M53.5691,-48C61.4717,-48 70.6284,-48 80.1796,-48"/>
<polygon fill="midnightblue" stroke="midnightblue" points="80.2398,-51.5001 90.2397,-48 80.2397,-44.5001 80.2398,-51.5001"/>
</g>
<!-- Node5 -->
<g id="node5" class="node"><title>Node5</title>
<g id="a_node5"><a xlink:href="classelmeragentpar_a66d8ac5294227a11adf08cdfa91f59b5.html#a66d8ac5294227a11adf08cdfa91f59b5" target="_top" xlink:title="elmeragentpar::Initialize">
<polygon fill="none" stroke="black" points="100,-76.5 100,-95.5 220,-95.5 220,-76.5 100,-76.5"/>
<text text-anchor="middle" x="160" y="-83.5" font-family="Helvetica,sans-Serif" font-size="10.00">elmeragentpar::Initialize</text>
</a>
</g>
</g>
<!-- Node1&#45;&gt;Node5 -->
<g id="edge4" class="edge"><title>Node1&#45;&gt;Node5</title>
<path fill="none" stroke="midnightblue" d="M53.5909,-56.0226C64.751,-59.4746 78.0008,-63.5101 90,-67 97.6338,-69.2202 105.762,-71.5175 113.661,-73.7147"/>
<polygon fill="midnightblue" stroke="midnightblue" points="112.917,-77.1404 123.488,-76.4308 114.782,-70.3933 112.917,-77.1404"/>
</g>
<!-- Node6 -->
<g id="node6" class="node"><title>Node6</title>
<g id="a_node6"><a xlink:href="classfsicouplingpar_a4bc5742de7e34b941018d50bb61b935f.html#a4bc5742de7e34b941018d50bb61b935f" target="_top" xlink:title="writeWin">
<polygon fill="none" stroke="black" points="132.5,-0.5 132.5,-19.5 187.5,-19.5 187.5,-0.5 132.5,-0.5"/>
<text text-anchor="middle" x="160" y="-7.5" font-family="Helvetica,sans-Serif" font-size="10.00">writeWin</text>
</a>
</g>
</g>
<!-- Node1&#45;&gt;Node6 -->
<g id="edge7" class="edge"><title>Node1&#45;&gt;Node6</title>
<path fill="none" stroke="midnightblue" d="M53.5909,-39.9774C64.751,-36.5254 78.0008,-32.4899 90,-29 100.578,-25.9234 112.106,-22.6988 122.656,-19.7978"/>
<polygon fill="midnightblue" stroke="midnightblue" points="123.687,-23.1446 132.41,-17.1309 121.84,-16.3924 123.687,-23.1446"/>
</g>
<!-- Node3 -->
<g id="node3" class="node"><title>Node3</title>
<g id="a_node3"><a xlink:href="classimpact_1_1orchestrator_1_1agentbase_a0c67610e579dce80081e10bbbf57eae1.html#a0c67610e579dce80081e10bbbf57eae1" target="_top" xlink:title="impact::orchestrator\l::agentbase::WriteErr">
<polygon fill="none" stroke="black" points="268,-76 268,-106 378,-106 378,-76 268,-76"/>
<text text-anchor="start" x="276" y="-94" font-family="Helvetica,sans-Serif" font-size="10.00">impact::orchestrator</text>
<text text-anchor="middle" x="323" y="-83" font-family="Helvetica,sans-Serif" font-size="10.00">::agentbase::WriteErr</text>
</a>
</g>
</g>
<!-- Node2&#45;&gt;Node3 -->
<g id="edge2" class="edge"><title>Node2&#45;&gt;Node3</title>
<path fill="none" stroke="midnightblue" d="M196.731,-57.5431C214.725,-62.349 237.096,-68.3237 257.932,-73.8887"/>
<polygon fill="midnightblue" stroke="midnightblue" points="257.128,-77.2966 267.693,-76.4956 258.934,-70.5336 257.128,-77.2966"/>
</g>
<!-- Node4 -->
<g id="node4" class="node"><title>Node4</title>
<g id="a_node4"><a xlink:href="classimpact_1_1orchestrator_1_1agentbase_acd3473c5912447035e34274950a1c8c6.html#acd3473c5912447035e34274950a1c8c6" target="_top" xlink:title="impact::orchestrator\l::agentbase::WriteOut">
<polygon fill="none" stroke="black" points="266.5,-27 266.5,-57 379.5,-57 379.5,-27 266.5,-27"/>
<text text-anchor="start" x="274.5" y="-45" font-family="Helvetica,sans-Serif" font-size="10.00">impact::orchestrator</text>
<text text-anchor="middle" x="323" y="-34" font-family="Helvetica,sans-Serif" font-size="10.00">::agentbase::WriteOut</text>
</a>
</g>
</g>
<!-- Node2&#45;&gt;Node4 -->
<g id="edge3" class="edge"><title>Node2&#45;&gt;Node4</title>
<path fill="none" stroke="midnightblue" d="M229.745,-45.4381C238.469,-45.113 247.38,-44.7809 256.057,-44.4575"/>
<polygon fill="midnightblue" stroke="midnightblue" points="256.249,-47.9529 266.112,-44.0828 255.988,-40.9577 256.249,-47.9529"/>
</g>
<!-- Node5&#45;&gt;Node3 -->
<g id="edge5" class="edge"><title>Node5&#45;&gt;Node3</title>
<path fill="none" stroke="midnightblue" d="M220.036,-87.8334C232.236,-88.2123 245.145,-88.6132 257.527,-88.9977"/>
<polygon fill="midnightblue" stroke="midnightblue" points="257.673,-92.5039 267.777,-89.316 257.89,-85.5072 257.673,-92.5039"/>
</g>
<!-- Node5&#45;&gt;Node4 -->
<g id="edge6" class="edge"><title>Node5&#45;&gt;Node4</title>
<path fill="none" stroke="midnightblue" d="M195.935,-76.4527C213.819,-71.5651 236.176,-65.4549 257.077,-59.7429"/>
<polygon fill="midnightblue" stroke="midnightblue" points="258.151,-63.0779 266.874,-57.0654 256.305,-56.3255 258.151,-63.0779"/>
</g>
</g>
</svg>
