<?xml version="1.0" encoding="UTF-8" standalone="no"?>
<!DOCTYPE svg PUBLIC "-//W3C//DTD SVG 1.1//EN"
 "http://www.w3.org/Graphics/SVG/1.1/DTD/svg11.dtd">
<!-- Generated by graphviz version 2.30.1 (20150305.2338)
 -->
<!-- Title: Test__OpenFoamFluids Pages: 1 -->
<svg width="438pt" height="66pt"
 viewBox="0.00 0.00 438.00 66.00" xmlns="http://www.w3.org/2000/svg" xmlns:xlink="http://www.w3.org/1999/xlink">
<g id="graph0" class="graph" transform="scale(1 1) rotate(0) translate(4 62)">
<title>Test__OpenFoamFluids</title>
<!-- Node1 -->
<g id="node1" class="node"><title>Node1</title>
<polygon fill="#bfbfbf" stroke="black" points="0.5,-19.5 0.5,-38.5 121.5,-38.5 121.5,-19.5 0.5,-19.5"/>
<text text-anchor="middle" x="61" y="-26.5" font-family="Helvetica,sans-Serif" font-size="10.00">Test__OpenFoamFluids</text>
</g>
<!-- Node2 -->
<g id="node2" class="node"><title>Node2</title>
<g id="a_node2"><a xlink:href="classElmerFoamFSI_1_1TestingObject_a046f7ab06db0acf616b0d2bf3d3146aa.html#a046f7ab06db0acf616b0d2bf3d3146aa" target="_top" xlink:title="Runs all tests implemented by the ElmerFoamFSI::TestingObject. ">
<polygon fill="none" stroke="black" points="158.5,-38.5 158.5,-57.5 211.5,-57.5 211.5,-38.5 158.5,-38.5"/>
<text text-anchor="middle" x="185" y="-45.5" font-family="Helvetica,sans-Serif" font-size="10.00">Process</text>
</a>
</g>
</g>
<!-- Node1&#45;&gt;Node2 -->
<g id="edge1" class="edge"><title>Node1&#45;&gt;Node2</title>
<path fill="none" stroke="midnightblue" d="M131.559,-39.833C141.084,-41.3163 150.324,-42.7554 158.327,-44.0018"/>
<polygon fill="midnightblue" stroke="midnightblue" points="131.99,-36.358 121.57,-38.2774 130.913,-43.2746 131.99,-36.358"/>
</g>
<!-- Node5 -->
<g id="node5" class="node"><title>Node5</title>
<g id="a_node5"><a xlink:href="classElmerFoamFSI_1_1TestingObject_af1f07f14b9af7708e4264bb38937eed2.html#af1f07f14b9af7708e4264bb38937eed2" target="_top" xlink:title="Runs a test specified by name. ">
<polygon fill="none" stroke="black" points="158,-0.5 158,-19.5 212,-19.5 212,-0.5 158,-0.5"/>
<text text-anchor="middle" x="185" y="-7.5" font-family="Helvetica,sans-Serif" font-size="10.00">RunTest</text>
</a>
</g>
</g>
<!-- Node1&#45;&gt;Node5 -->
<g id="edge4" class="edge"><title>Node1&#45;&gt;Node5</title>
<path fill="none" stroke="midnightblue" d="M131.669,-18.15C140.915,-16.71 149.89,-15.3123 157.72,-14.0928"/>
<polygon fill="midnightblue" stroke="midnightblue" points="130.913,-14.7254 121.57,-19.7226 131.99,-21.642 130.913,-14.7254"/>
</g>
<!-- Node3 -->
<g id="node3" class="node"><title>Node3</title>
<g id="a_node3"><a xlink:href="namespaceElmerFoamFSI_aeb590657609088b8ab12a5cbd164fcfa.html#aeb590657609088b8ab12a5cbd164fcfa" target="_top" xlink:title="Drives the ElmerFoamFSI::TestObject. ">
<polygon fill="none" stroke="black" points="248,-38.5 248,-57.5 356,-57.5 356,-38.5 248,-38.5"/>
<text text-anchor="middle" x="302" y="-45.5" font-family="Helvetica,sans-Serif" font-size="10.00">ElmerFoamFSI::Test</text>
</a>
</g>
</g>
<!-- Node2&#45;&gt;Node3 -->
<g id="edge2" class="edge"><title>Node2&#45;&gt;Node3</title>
<path fill="none" stroke="midnightblue" d="M221.58,-48C229.874,-48 238.882,-48 247.755,-48"/>
<polygon fill="midnightblue" stroke="midnightblue" points="221.522,-44.5001 211.522,-48 221.522,-51.5001 221.522,-44.5001"/>
</g>
<!-- Node4 -->
<g id="node4" class="node"><title>Node4</title>
<g id="a_node4"><a xlink:href="TestElmerFoamFSI_8C_a0ddf1224851353fc92bfbff6f499fa97.html#a0ddf1224851353fc92bfbff6f499fa97" target="_top" xlink:title="main">
<polygon fill="none" stroke="black" points="392,-38.5 392,-57.5 430,-57.5 430,-38.5 392,-38.5"/>
<text text-anchor="middle" x="411" y="-45.5" font-family="Helvetica,sans-Serif" font-size="10.00">main</text>
</a>
</g>
</g>
<!-- Node3&#45;&gt;Node4 -->
<g id="edge3" class="edge"><title>Node3&#45;&gt;Node4</title>
<path fill="none" stroke="midnightblue" d="M366.335,-48C375.591,-48 384.44,-48 391.722,-48"/>
<polygon fill="midnightblue" stroke="midnightblue" points="366.187,-44.5001 356.187,-48 366.186,-51.5001 366.187,-44.5001"/>
</g>
<!-- Node6 -->
<g id="node6" class="node"><title>Node6</title>
<g id="a_node6"><a xlink:href="classElmerFoamFSI_1_1TestingObject_a21159bd2efac623e5a5079f6a20f3444.html#a21159bd2efac623e5a5079f6a20f3444" target="_top" xlink:title="Runs a list of tests specified by name. ">
<polygon fill="none" stroke="black" points="263.5,-0.5 263.5,-19.5 340.5,-19.5 340.5,-0.5 263.5,-0.5"/>
<text text-anchor="middle" x="302" y="-7.5" font-family="Helvetica,sans-Serif" font-size="10.00">ProcessTests</text>
</a>
</g>
</g>
<!-- Node5&#45;&gt;Node6 -->
<g id="edge5" class="edge"><title>Node5&#45;&gt;Node6</title>
<path fill="none" stroke="midnightblue" d="M222.151,-10C235.227,-10 250.019,-10 263.23,-10"/>
<polygon fill="midnightblue" stroke="midnightblue" points="222.095,-6.5001 212.095,-10 222.095,-13.5001 222.095,-6.5001"/>
</g>
<!-- Node5&#45;&gt;Node3 -->
<g id="edge6" class="edge"><title>Node5&#45;&gt;Node3</title>
<path fill="none" stroke="midnightblue" d="M221.783,-21.824C237.994,-27.1806 256.904,-33.4292 272.182,-38.4777"/>
<polygon fill="midnightblue" stroke="midnightblue" points="222.688,-18.4371 212.095,-18.6228 220.492,-25.0836 222.688,-18.4371"/>
</g>
</g>
</svg>
