<?xml version="1.0" encoding="UTF-8" standalone="no"?>
<!DOCTYPE svg PUBLIC "-//W3C//DTD SVG 1.1//EN"
 "http://www.w3.org/Graphics/SVG/1.1/DTD/svg11.dtd">
<!-- Generated by graphviz version 2.30.1 (20150305.2338)
 -->
<!-- Title: around Pages: 1 -->
<svg width="200pt" height="283pt"
 viewBox="0.00 0.00 200.00 283.00" xmlns="http://www.w3.org/2000/svg" xmlns:xlink="http://www.w3.org/1999/xlink">
<g id="graph0" class="graph" transform="scale(1 1) rotate(0) translate(4 279)">
<title>around</title>
<!-- Node1 -->
<g id="node1" class="node"><title>Node1</title>
<polygon fill="#bfbfbf" stroke="black" points="0,-127.5 0,-146.5 46,-146.5 46,-127.5 0,-127.5"/>
<text text-anchor="middle" x="23" y="-134.5" font-family="Helvetica,sans-Serif" font-size="10.00">around</text>
</g>
<!-- Node2 -->
<g id="node2" class="node"><title>Node2</title>
<g id="a_node2"><a xlink:href="classSolverUtils_1_1GeoPrim_1_1C3Point_a3b195b867437acf8de45f48c83e81932.html#a3b195b867437acf8de45f48c83e81932" target="_top" xlink:title="SolverUtils::GeoPrim\l::C3Point::x">
<polygon fill="none" stroke="black" points="82.5,-245 82.5,-275 191.5,-275 191.5,-245 82.5,-245"/>
<text text-anchor="start" x="90.5" y="-263" font-family="Helvetica,sans-Serif" font-size="10.00">SolverUtils::GeoPrim</text>
<text text-anchor="middle" x="137" y="-252" font-family="Helvetica,sans-Serif" font-size="10.00">::C3Point::x</text>
</a>
</g>
</g>
<!-- Node1&#45;&gt;Node2 -->
<g id="edge1" class="edge"><title>Node1&#45;&gt;Node2</title>
<path fill="none" stroke="midnightblue" d="M27.4385,-146.637C34.7181,-165.819 53.4006,-209.148 82,-235 83.6813,-236.52 85.4709,-237.963 87.3381,-239.331"/>
<polygon fill="midnightblue" stroke="midnightblue" points="85.6211,-242.388 95.9246,-244.855 89.4088,-236.501 85.6211,-242.388"/>
</g>
<!-- Node3 -->
<g id="node3" class="node"><title>Node3</title>
<g id="a_node3"><a xlink:href="classSolverUtils_1_1GeoPrim_1_1C3Vector_a3b195b867437acf8de45f48c83e81932.html#a3b195b867437acf8de45f48c83e81932" target="_top" xlink:title="SolverUtils::GeoPrim\l::C3Vector::x">
<polygon fill="none" stroke="black" points="82.5,-196 82.5,-226 191.5,-226 191.5,-196 82.5,-196"/>
<text text-anchor="start" x="90.5" y="-214" font-family="Helvetica,sans-Serif" font-size="10.00">SolverUtils::GeoPrim</text>
<text text-anchor="middle" x="137" y="-203" font-family="Helvetica,sans-Serif" font-size="10.00">::C3Vector::x</text>
</a>
</g>
</g>
<!-- Node1&#45;&gt;Node3 -->
<g id="edge2" class="edge"><title>Node1&#45;&gt;Node3</title>
<path fill="none" stroke="midnightblue" d="M33.6237,-146.549C44.639,-157.126 63.5485,-174.237 82,-186 84.7876,-187.777 87.7221,-189.501 90.7232,-191.156"/>
<polygon fill="midnightblue" stroke="midnightblue" points="89.3594,-194.392 99.8458,-195.904 92.5912,-188.182 89.3594,-194.392"/>
</g>
<!-- Node4 -->
<g id="node4" class="node"><title>Node4</title>
<g id="a_node4"><a xlink:href="classSolverUtils_1_1GeoPrim_1_1C3Point_ad927d9808ded1fc49c05ae9e1a3ed2a6.html#ad927d9808ded1fc49c05ae9e1a3ed2a6" target="_top" xlink:title="SolverUtils::GeoPrim\l::C3Point::y">
<polygon fill="none" stroke="black" points="82.5,-147 82.5,-177 191.5,-177 191.5,-147 82.5,-147"/>
<text text-anchor="start" x="90.5" y="-165" font-family="Helvetica,sans-Serif" font-size="10.00">SolverUtils::GeoPrim</text>
<text text-anchor="middle" x="137" y="-154" font-family="Helvetica,sans-Serif" font-size="10.00">::C3Point::y</text>
</a>
</g>
</g>
<!-- Node1&#45;&gt;Node4 -->
<g id="edge3" class="edge"><title>Node1&#45;&gt;Node4</title>
<path fill="none" stroke="midnightblue" d="M46.1276,-141.939C53.8872,-143.671 63.0367,-145.714 72.4766,-147.821"/>
<polygon fill="midnightblue" stroke="midnightblue" points="71.8508,-151.267 82.3731,-150.03 73.3758,-144.435 71.8508,-151.267"/>
</g>
<!-- Node5 -->
<g id="node5" class="node"><title>Node5</title>
<g id="a_node5"><a xlink:href="classSolverUtils_1_1GeoPrim_1_1C3Vector_ad927d9808ded1fc49c05ae9e1a3ed2a6.html#ad927d9808ded1fc49c05ae9e1a3ed2a6" target="_top" xlink:title="SolverUtils::GeoPrim\l::C3Vector::y">
<polygon fill="none" stroke="black" points="82.5,-98 82.5,-128 191.5,-128 191.5,-98 82.5,-98"/>
<text text-anchor="start" x="90.5" y="-116" font-family="Helvetica,sans-Serif" font-size="10.00">SolverUtils::GeoPrim</text>
<text text-anchor="middle" x="137" y="-105" font-family="Helvetica,sans-Serif" font-size="10.00">::C3Vector::y</text>
</a>
</g>
</g>
<!-- Node1&#45;&gt;Node5 -->
<g id="edge4" class="edge"><title>Node1&#45;&gt;Node5</title>
<path fill="none" stroke="midnightblue" d="M46.1276,-132.258C53.8872,-130.596 63.0367,-128.635 72.4766,-126.612"/>
<polygon fill="midnightblue" stroke="midnightblue" points="73.3285,-130.009 82.3731,-124.491 71.8617,-123.165 73.3285,-130.009"/>
</g>
<!-- Node6 -->
<g id="node6" class="node"><title>Node6</title>
<g id="a_node6"><a xlink:href="classSolverUtils_1_1GeoPrim_1_1C3Point_a2134ad02d68f29e9c7cd87e4cd4c75b8.html#a2134ad02d68f29e9c7cd87e4cd4c75b8" target="_top" xlink:title="SolverUtils::GeoPrim\l::C3Point::z">
<polygon fill="none" stroke="black" points="82.5,-49 82.5,-79 191.5,-79 191.5,-49 82.5,-49"/>
<text text-anchor="start" x="90.5" y="-67" font-family="Helvetica,sans-Serif" font-size="10.00">SolverUtils::GeoPrim</text>
<text text-anchor="middle" x="137" y="-56" font-family="Helvetica,sans-Serif" font-size="10.00">::C3Point::z</text>
</a>
</g>
</g>
<!-- Node1&#45;&gt;Node6 -->
<g id="edge5" class="edge"><title>Node1&#45;&gt;Node6</title>
<path fill="none" stroke="midnightblue" d="M34.0624,-127.287C45.1634,-116.915 63.8666,-100.431 82,-89 84.9291,-87.1536 88.0168,-85.3621 91.1713,-83.6429"/>
<polygon fill="midnightblue" stroke="midnightblue" points="92.8809,-86.6993 100.163,-79.0032 89.6709,-80.4786 92.8809,-86.6993"/>
</g>
<!-- Node7 -->
<g id="node7" class="node"><title>Node7</title>
<g id="a_node7"><a xlink:href="classSolverUtils_1_1GeoPrim_1_1C3Vector_a2134ad02d68f29e9c7cd87e4cd4c75b8.html#a2134ad02d68f29e9c7cd87e4cd4c75b8" target="_top" xlink:title="SolverUtils::GeoPrim\l::C3Vector::z">
<polygon fill="none" stroke="black" points="82.5,-0 82.5,-30 191.5,-30 191.5,-0 82.5,-0"/>
<text text-anchor="start" x="90.5" y="-18" font-family="Helvetica,sans-Serif" font-size="10.00">SolverUtils::GeoPrim</text>
<text text-anchor="middle" x="137" y="-7" font-family="Helvetica,sans-Serif" font-size="10.00">::C3Vector::z</text>
</a>
</g>
</g>
<!-- Node1&#45;&gt;Node7 -->
<g id="edge6" class="edge"><title>Node1&#45;&gt;Node7</title>
<path fill="none" stroke="midnightblue" d="M27.4655,-127.462C34.7934,-108.478 53.5587,-65.5932 82,-40 83.7159,-38.4559 85.5436,-36.991 87.4506,-35.603"/>
<polygon fill="midnightblue" stroke="midnightblue" points="89.6732,-38.3365 96.2179,-30.0049 85.906,-32.4367 89.6732,-38.3365"/>
</g>
</g>
</svg>
