<?xml version="1.0" encoding="UTF-8" standalone="no"?>
<!DOCTYPE svg PUBLIC "-//W3C//DTD SVG 1.1//EN"
 "http://www.w3.org/Graphics/SVG/1.1/DTD/svg11.dtd">
<!-- Generated by graphviz version 2.30.1 (20150305.2338)
 -->
<!-- Title: operator+= Pages: 1 -->
<svg width="176pt" height="104pt"
 viewBox="0.00 0.00 176.00 104.00" xmlns="http://www.w3.org/2000/svg" xmlns:xlink="http://www.w3.org/1999/xlink">
<g id="graph0" class="graph" transform="scale(1 1) rotate(0) translate(4 100)">
<title>operator+=</title>
<!-- Node1 -->
<g id="node1" class="node"><title>Node1</title>
<polygon fill="#bfbfbf" stroke="black" points="0,-38.5 0,-57.5 64,-57.5 64,-38.5 0,-38.5"/>
<text text-anchor="middle" x="32" y="-45.5" font-family="Helvetica,sans-Serif" font-size="10.00">operator+=</text>
</g>
<!-- Node2 -->
<g id="node2" class="node"><title>Node2</title>
<g id="a_node2"><a xlink:href="classVector__3_a042a7f83fef9d5d115d1f53beecacd2c.html#a042a7f83fef9d5d115d1f53beecacd2c" target="_top" xlink:title="Vector_3::x">
<polygon fill="none" stroke="black" points="100.5,-76.5 100.5,-95.5 167.5,-95.5 167.5,-76.5 100.5,-76.5"/>
<text text-anchor="middle" x="134" y="-83.5" font-family="Helvetica,sans-Serif" font-size="10.00">Vector_3::x</text>
</a>
</g>
</g>
<!-- Node1&#45;&gt;Node2 -->
<g id="edge1" class="edge"><title>Node1&#45;&gt;Node2</title>
<path fill="none" stroke="midnightblue" d="M58.2342,-57.589C70.3142,-62.1794 84.9745,-67.7503 98.102,-72.7388"/>
<polygon fill="midnightblue" stroke="midnightblue" points="97.1827,-76.1336 107.774,-76.4141 99.6693,-69.5901 97.1827,-76.1336"/>
</g>
<!-- Node3 -->
<g id="node3" class="node"><title>Node3</title>
<g id="a_node3"><a xlink:href="classVector__3_a0b50bd5bcd25dd6ac4139c7abf656e85.html#a0b50bd5bcd25dd6ac4139c7abf656e85" target="_top" xlink:title="Vector_3::y">
<polygon fill="none" stroke="black" points="100.5,-38.5 100.5,-57.5 167.5,-57.5 167.5,-38.5 100.5,-38.5"/>
<text text-anchor="middle" x="134" y="-45.5" font-family="Helvetica,sans-Serif" font-size="10.00">Vector_3::y</text>
</a>
</g>
</g>
<!-- Node1&#45;&gt;Node3 -->
<g id="edge2" class="edge"><title>Node1&#45;&gt;Node3</title>
<path fill="none" stroke="midnightblue" d="M64.0925,-48C72.3343,-48 81.3799,-48 90.1283,-48"/>
<polygon fill="midnightblue" stroke="midnightblue" points="90.1957,-51.5001 100.196,-48 90.1956,-44.5001 90.1957,-51.5001"/>
</g>
<!-- Node4 -->
<g id="node4" class="node"><title>Node4</title>
<g id="a_node4"><a xlink:href="classVector__3_ae098ae990ee5ff007f41f62d8ff13764.html#ae098ae990ee5ff007f41f62d8ff13764" target="_top" xlink:title="Vector_3::z">
<polygon fill="none" stroke="black" points="100.5,-0.5 100.5,-19.5 167.5,-19.5 167.5,-0.5 100.5,-0.5"/>
<text text-anchor="middle" x="134" y="-7.5" font-family="Helvetica,sans-Serif" font-size="10.00">Vector_3::z</text>
</a>
</g>
</g>
<!-- Node1&#45;&gt;Node4 -->
<g id="edge3" class="edge"><title>Node1&#45;&gt;Node4</title>
<path fill="none" stroke="midnightblue" d="M58.2342,-38.411C70.3142,-33.8206 84.9745,-28.2497 98.102,-23.2612"/>
<polygon fill="midnightblue" stroke="midnightblue" points="99.6693,-26.4099 107.774,-19.5859 97.1827,-19.8664 99.6693,-26.4099"/>
</g>
</g>
</svg>
