<?xml version="1.0" encoding="UTF-8" standalone="no"?>
<!DOCTYPE svg PUBLIC "-//W3C//DTD SVG 1.1//EN"
 "http://www.w3.org/Graphics/SVG/1.1/DTD/svg11.dtd">
<!-- Generated by graphviz version 2.30.1 (20150305.2338)
 -->
<!-- Title: Process Pages: 1 -->
<svg width="380pt" height="328pt"
 viewBox="0.00 0.00 380.00 328.00" xmlns="http://www.w3.org/2000/svg" xmlns:xlink="http://www.w3.org/1999/xlink">
<g id="graph0" class="graph" transform="scale(1 1) rotate(0) translate(4 324)">
<title>Process</title>
<!-- Node1 -->
<g id="node1" class="node"><title>Node1</title>
<polygon fill="#bfbfbf" stroke="black" points="0.5,-205.5 0.5,-224.5 53.5,-224.5 53.5,-205.5 0.5,-205.5"/>
<text text-anchor="middle" x="27" y="-212.5" font-family="Helvetica,sans-Serif" font-size="10.00">Process</text>
</g>
<!-- Node2 -->
<g id="node2" class="node"><title>Node2</title>
<g id="a_node2"><a xlink:href="classElmerModuleDriver_1_1TestingObject_aa25f45634aafbb580d94840ad8452745.html#aa25f45634aafbb580d94840ad8452745" target="_top" xlink:title="Tears down the testing fixtures if needed. ">
<polygon fill="none" stroke="black" points="132,-300.5 132,-319.5 186,-319.5 186,-300.5 132,-300.5"/>
<text text-anchor="middle" x="159" y="-307.5" font-family="Helvetica,sans-Serif" font-size="10.00">Epilogue</text>
</a>
</g>
</g>
<!-- Node1&#45;&gt;Node2 -->
<g id="edge1" class="edge"><title>Node1&#45;&gt;Node2</title>
<path fill="none" stroke="midnightblue" d="M33.1297,-224.528C42.3326,-240.7 63.2135,-273.47 90,-291 99.5803,-297.27 111.222,-301.494 122.146,-304.33"/>
<polygon fill="midnightblue" stroke="midnightblue" points="121.367,-307.742 131.896,-306.563 122.93,-300.919 121.367,-307.742"/>
</g>
<!-- Node3 -->
<g id="node3" class="node"><title>Node3</title>
<g id="a_node3"><a xlink:href="classElmerModuleDriver_1_1TestingObject_aa3cdb6d60e9d9834c19efaab0b044421.html#aa3cdb6d60e9d9834c19efaab0b044421" target="_top" xlink:title="Sets up the data fixtures for the tests. ">
<polygon fill="none" stroke="black" points="131.5,-262.5 131.5,-281.5 186.5,-281.5 186.5,-262.5 131.5,-262.5"/>
<text text-anchor="middle" x="159" y="-269.5" font-family="Helvetica,sans-Serif" font-size="10.00">Prologue</text>
</a>
</g>
</g>
<!-- Node1&#45;&gt;Node3 -->
<g id="edge2" class="edge"><title>Node1&#45;&gt;Node3</title>
<path fill="none" stroke="midnightblue" d="M41.1968,-224.59C53.3619,-233.057 72.1782,-245.23 90,-253 99.8597,-257.299 110.95,-260.883 121.268,-263.737"/>
<polygon fill="midnightblue" stroke="midnightblue" points="120.695,-267.205 131.255,-266.348 122.465,-260.433 120.695,-267.205"/>
</g>
<!-- Node4 -->
<g id="node4" class="node"><title>Node4</title>
<g id="a_node4"><a xlink:href="classElmerModuleDriver_1_1TestingObject_ada2078f55b55b73d4aacf78d061a57de.html#ada2078f55b55b73d4aacf78d061a57de" target="_top" xlink:title="Test__ElmerUnitTests">
<polygon fill="none" stroke="black" points="101.5,-224.5 101.5,-243.5 216.5,-243.5 216.5,-224.5 101.5,-224.5"/>
<text text-anchor="middle" x="159" y="-231.5" font-family="Helvetica,sans-Serif" font-size="10.00">Test__ElmerUnitTests</text>
</a>
</g>
</g>
<!-- Node1&#45;&gt;Node4 -->
<g id="edge3" class="edge"><title>Node1&#45;&gt;Node4</title>
<path fill="none" stroke="midnightblue" d="M53.6838,-218.754C64.5925,-220.348 77.8676,-222.288 91.242,-224.243"/>
<polygon fill="midnightblue" stroke="midnightblue" points="91.0502,-227.752 101.451,-225.735 92.0626,-220.826 91.0502,-227.752"/>
</g>
<!-- Node6 -->
<g id="node6" class="node"><title>Node6</title>
<g id="a_node6"><a xlink:href="classElmerModuleDriver_1_1TestingObject_a14258b94075936cb7bfadbcfc9a37b87.html#a14258b94075936cb7bfadbcfc9a37b87" target="_top" xlink:title="Test for ElmerModuleDriver::ExampleFunction. ">
<polygon fill="none" stroke="black" points="98,-186.5 98,-205.5 220,-205.5 220,-186.5 98,-186.5"/>
<text text-anchor="middle" x="159" y="-193.5" font-family="Helvetica,sans-Serif" font-size="10.00">Test__ExampleFunction</text>
</a>
</g>
</g>
<!-- Node1&#45;&gt;Node6 -->
<g id="edge5" class="edge"><title>Node1&#45;&gt;Node6</title>
<path fill="none" stroke="midnightblue" d="M53.6838,-211.246C63.627,-209.793 75.5364,-208.052 87.695,-206.275"/>
<polygon fill="midnightblue" stroke="midnightblue" points="88.5404,-209.689 97.9291,-204.78 87.528,-202.763 88.5404,-209.689"/>
</g>
<!-- Node8 -->
<g id="node8" class="node"><title>Node8</title>
<g id="a_node8"><a xlink:href="classElmerModuleDriver_1_1TestingObject_a7de28a366b07117111ce7c1e9515a434.html#a7de28a366b07117111ce7c1e9515a434" target="_top" xlink:title="Test for ElmerModuleDriver::MidPointQuadrature. ">
<polygon fill="none" stroke="black" points="92.5,-59.5 92.5,-78.5 225.5,-78.5 225.5,-59.5 92.5,-59.5"/>
<text text-anchor="middle" x="159" y="-66.5" font-family="Helvetica,sans-Serif" font-size="10.00">Test__MidPointQuadrature</text>
</a>
</g>
</g>
<!-- Node1&#45;&gt;Node8 -->
<g id="edge7" class="edge"><title>Node1&#45;&gt;Node8</title>
<path fill="none" stroke="midnightblue" d="M31.6351,-205.443C39.6129,-185.477 60.3387,-138.735 90,-109 100.406,-98.5682 114.074,-89.8402 126.426,-83.2263"/>
<polygon fill="midnightblue" stroke="midnightblue" points="128.214,-86.2432 135.538,-78.5874 125.039,-80.005 128.214,-86.2432"/>
</g>
<!-- Node12 -->
<g id="node12" class="node"><title>Node12</title>
<g id="a_node12"><a xlink:href="classElmerModuleDriver_1_1TestingObject_a7928083cb5586c2b361e1d29a8dc2b54.html#a7928083cb5586c2b361e1d29a8dc2b54" target="_top" xlink:title="Test for ElmerModuleDriver::TrapezoidQuadrature. ">
<polygon fill="none" stroke="black" points="90.5,-118.5 90.5,-137.5 227.5,-137.5 227.5,-118.5 90.5,-118.5"/>
<text text-anchor="middle" x="159" y="-125.5" font-family="Helvetica,sans-Serif" font-size="10.00">Test__TrapezoidQuadrature</text>
</a>
</g>
</g>
<!-- Node1&#45;&gt;Node12 -->
<g id="edge11" class="edge"><title>Node1&#45;&gt;Node12</title>
<path fill="none" stroke="midnightblue" d="M42.409,-205.357C64.8597,-190.332 108.383,-161.205 135.147,-143.294"/>
<polygon fill="midnightblue" stroke="midnightblue" points="137.162,-146.157 143.526,-137.686 133.269,-140.339 137.162,-146.157"/>
</g>
<!-- Node5 -->
<g id="node5" class="node"><title>Node5</title>
<g id="a_node5"><a xlink:href="classElmerModuleDriver_1_1TestingObject_a90864b099beaf9044bf8fff8a9857c0d.html#a90864b099beaf9044bf8fff8a9857c0d" target="_top" xlink:title="Function to copy input data from source testing directory for use in unit tests. ">
<polygon fill="none" stroke="black" points="280.5,-245.5 280.5,-264.5 355.5,-264.5 355.5,-245.5 280.5,-245.5"/>
<text text-anchor="middle" x="318" y="-252.5" font-family="Helvetica,sans-Serif" font-size="10.00">GetInputData</text>
</a>
</g>
</g>
<!-- Node4&#45;&gt;Node5 -->
<g id="edge4" class="edge"><title>Node4&#45;&gt;Node5</title>
<path fill="none" stroke="midnightblue" d="M216.681,-241.581C234.283,-243.936 253.475,-246.503 270.316,-248.756"/>
<polygon fill="midnightblue" stroke="midnightblue" points="270.087,-252.256 280.463,-250.113 271.015,-245.318 270.087,-252.256"/>
</g>
<!-- Node7 -->
<g id="node7" class="node"><title>Node7</title>
<g id="a_node7"><a xlink:href="namespaceElmerModuleDriver_a4cc78661909b0a33b6b886a4d4290997.html#a4cc78661909b0a33b6b886a4d4290997" target="_top" xlink:title="Example function for ElmerModuleDriver (this is a brief description). ">
<polygon fill="none" stroke="black" points="265,-196 265,-226 371,-226 371,-196 265,-196"/>
<text text-anchor="start" x="273" y="-214" font-family="Helvetica,sans-Serif" font-size="10.00">ElmerModuleDriver::</text>
<text text-anchor="middle" x="318" y="-203" font-family="Helvetica,sans-Serif" font-size="10.00">ExampleFunction</text>
</a>
</g>
</g>
<!-- Node6&#45;&gt;Node7 -->
<g id="edge6" class="edge"><title>Node6&#45;&gt;Node7</title>
<path fill="none" stroke="midnightblue" d="M220.251,-201.756C231.506,-202.832 243.291,-203.958 254.61,-205.039"/>
<polygon fill="midnightblue" stroke="midnightblue" points="254.556,-208.55 264.844,-206.017 255.222,-201.582 254.556,-208.55"/>
</g>
<!-- Node9 -->
<g id="node9" class="node"><title>Node9</title>
<g id="a_node9"><a xlink:href="namespaceElmerModuleDriver_1_1TestFixture_a2b09de3be217e128933f09f43f9d7160.html#a2b09de3be217e128933f09f43f9d7160" target="_top" xlink:title="Simple test function fixture returns . ">
<polygon fill="none" stroke="black" points="265,-98 265,-128 371,-128 371,-98 265,-98"/>
<text text-anchor="start" x="273" y="-116" font-family="Helvetica,sans-Serif" font-size="10.00">ElmerModuleDriver::</text>
<text text-anchor="middle" x="318" y="-105" font-family="Helvetica,sans-Serif" font-size="10.00">TestFixture::F1</text>
</a>
</g>
</g>
<!-- Node8&#45;&gt;Node9 -->
<g id="edge8" class="edge"><title>Node8&#45;&gt;Node9</title>
<path fill="none" stroke="midnightblue" d="M194.067,-78.5473C211.896,-83.544 234.284,-89.8184 255.053,-95.639"/>
<polygon fill="midnightblue" stroke="midnightblue" points="254.201,-99.0349 264.774,-98.3634 256.09,-92.2946 254.201,-99.0349"/>
</g>
<!-- Node10 -->
<g id="node10" class="node"><title>Node10</title>
<g id="a_node10"><a xlink:href="namespaceElmerModuleDriver_1_1TestFixture_a79ce78283ad52a81c4107d6cdeb9337c.html#a79ce78283ad52a81c4107d6cdeb9337c" target="_top" xlink:title="Simple test function fixture returns . ">
<polygon fill="none" stroke="black" points="265,-49 265,-79 371,-79 371,-49 265,-49"/>
<text text-anchor="start" x="273" y="-67" font-family="Helvetica,sans-Serif" font-size="10.00">ElmerModuleDriver::</text>
<text text-anchor="middle" x="318" y="-56" font-family="Helvetica,sans-Serif" font-size="10.00">TestFixture::F2</text>
</a>
</g>
</g>
<!-- Node8&#45;&gt;Node10 -->
<g id="edge9" class="edge"><title>Node8&#45;&gt;Node10</title>
<path fill="none" stroke="midnightblue" d="M225.672,-66.9085C235.299,-66.6019 245.19,-66.287 254.745,-65.9826"/>
<polygon fill="midnightblue" stroke="midnightblue" points="255.069,-69.4742 264.953,-65.6575 254.847,-62.4777 255.069,-69.4742"/>
</g>
<!-- Node11 -->
<g id="node11" class="node"><title>Node11</title>
<g id="a_node11"><a xlink:href="namespaceElmerModuleDriver_a94390a668cbb6637ea246c660d00d430.html#a94390a668cbb6637ea246c660d00d430" target="_top" xlink:title="Integrates f with composite midpoint rule. ">
<polygon fill="none" stroke="black" points="265,-0 265,-30 371,-30 371,-0 265,-0"/>
<text text-anchor="start" x="273" y="-18" font-family="Helvetica,sans-Serif" font-size="10.00">ElmerModuleDriver::</text>
<text text-anchor="middle" x="318" y="-7" font-family="Helvetica,sans-Serif" font-size="10.00">MidPointQuadrature</text>
</a>
</g>
</g>
<!-- Node8&#45;&gt;Node11 -->
<g id="edge10" class="edge"><title>Node8&#45;&gt;Node11</title>
<path fill="none" stroke="midnightblue" d="M187.707,-59.4702C208.705,-52.2481 238.199,-42.1034 263.717,-33.3267"/>
<polygon fill="midnightblue" stroke="midnightblue" points="264.958,-36.6012 273.276,-30.0389 262.681,-29.9818 264.958,-36.6012"/>
</g>
<!-- Node12&#45;&gt;Node9 -->
<g id="edge12" class="edge"><title>Node12&#45;&gt;Node9</title>
<path fill="none" stroke="midnightblue" d="M227.949,-121.508C236.765,-120.666 245.761,-119.806 254.483,-118.973"/>
<polygon fill="midnightblue" stroke="midnightblue" points="254.946,-122.445 264.568,-118.009 254.28,-115.476 254.946,-122.445"/>
</g>
<!-- Node12&#45;&gt;Node10 -->
<g id="edge13" class="edge"><title>Node12&#45;&gt;Node10</title>
<path fill="none" stroke="midnightblue" d="M183.504,-118.419C206.484,-109.051 242.099,-94.5329 270.765,-82.8476"/>
<polygon fill="midnightblue" stroke="midnightblue" points="272.252,-86.0208 280.191,-79.0048 269.61,-79.5387 272.252,-86.0208"/>
</g>
<!-- Node13 -->
<g id="node13" class="node"><title>Node13</title>
<g id="a_node13"><a xlink:href="namespaceElmerModuleDriver_a7ea1066c129172a0edf5647d8254e957.html#a7ea1066c129172a0edf5647d8254e957" target="_top" xlink:title="Integrates f with composite trapezoid rule. ">
<polygon fill="none" stroke="black" points="264.5,-147 264.5,-177 371.5,-177 371.5,-147 264.5,-147"/>
<text text-anchor="start" x="272.5" y="-165" font-family="Helvetica,sans-Serif" font-size="10.00">ElmerModuleDriver::</text>
<text text-anchor="middle" x="318" y="-154" font-family="Helvetica,sans-Serif" font-size="10.00">TrapezoidQuadrature</text>
</a>
</g>
</g>
<!-- Node12&#45;&gt;Node13 -->
<g id="edge14" class="edge"><title>Node12&#45;&gt;Node13</title>
<path fill="none" stroke="midnightblue" d="M204.151,-137.561C219.769,-140.944 237.647,-144.815 254.498,-148.465"/>
<polygon fill="midnightblue" stroke="midnightblue" points="253.762,-151.886 264.276,-150.582 255.243,-145.045 253.762,-151.886"/>
</g>
</g>
</svg>
