<?xml version="1.0" encoding="UTF-8" standalone="no"?>
<!DOCTYPE svg PUBLIC "-//W3C//DTD SVG 1.1//EN"
 "http://www.w3.org/Graphics/SVG/1.1/DTD/svg11.dtd">
<!-- Generated by graphviz version 2.30.1 (20150305.2338)
 -->
<!-- Title: has_point Pages: 1 -->
<svg width="510pt" height="60pt"
 viewBox="0.00 0.00 510.00 60.00" xmlns="http://www.w3.org/2000/svg" xmlns:xlink="http://www.w3.org/1999/xlink">
<g id="graph0" class="graph" transform="scale(1 1) rotate(0) translate(4 56)">
<title>has_point</title>
<!-- Node1 -->
<g id="node1" class="node"><title>Node1</title>
<polygon fill="#bfbfbf" stroke="black" points="0.5,-27.5 0.5,-46.5 59.5,-46.5 59.5,-27.5 0.5,-27.5"/>
<text text-anchor="middle" x="30" y="-34.5" font-family="Helvetica,sans-Serif" font-size="10.00">has_point</text>
</g>
<!-- Node2 -->
<g id="node2" class="node"><title>Node2</title>
<g id="a_node2"><a xlink:href="classSolverUtils_1_1GeoPrim_1_1C3Vector_a3741036359d9b40c94a44acaef2bee31.html#a3741036359d9b40c94a44acaef2bee31" target="_top" xlink:title="SolverUtils::GeoPrim\l::C3Vector::Normalize">
<polygon fill="none" stroke="black" points="242,-22 242,-52 356,-52 356,-22 242,-22"/>
<text text-anchor="start" x="250" y="-40" font-family="Helvetica,sans-Serif" font-size="10.00">SolverUtils::GeoPrim</text>
<text text-anchor="middle" x="299" y="-29" font-family="Helvetica,sans-Serif" font-size="10.00">::C3Vector::Normalize</text>
</a>
</g>
</g>
<!-- Node1&#45;&gt;Node2 -->
<g id="edge1" class="edge"><title>Node1&#45;&gt;Node2</title>
<path fill="none" stroke="midnightblue" d="M59.7938,-38.0763C71.0821,-38.4485 84.1468,-38.8177 96,-39 144.883,-39.7519 157.114,-39.5313 206,-39 214.267,-38.9102 222.951,-38.7749 231.546,-38.6163"/>
<polygon fill="midnightblue" stroke="midnightblue" points="231.635,-42.1153 241.564,-38.4206 231.498,-35.1166 231.635,-42.1153"/>
</g>
<!-- Node4 -->
<g id="node4" class="node"><title>Node4</title>
<g id="a_node4"><a xlink:href="classSolverUtils_1_1GeoPrim_1_1C3Vector_ac9824a858358ee06d122c0bcbf06e4fe.html#ac9824a858358ee06d122c0bcbf06e4fe" target="_top" xlink:title="SolverUtils::GeoPrim\l::C3Vector::Unit">
<polygon fill="none" stroke="black" points="96.5,-0 96.5,-30 205.5,-30 205.5,-0 96.5,-0"/>
<text text-anchor="start" x="104.5" y="-18" font-family="Helvetica,sans-Serif" font-size="10.00">SolverUtils::GeoPrim</text>
<text text-anchor="middle" x="151" y="-7" font-family="Helvetica,sans-Serif" font-size="10.00">::C3Vector::Unit</text>
</a>
</g>
</g>
<!-- Node1&#45;&gt;Node4 -->
<g id="edge3" class="edge"><title>Node1&#45;&gt;Node4</title>
<path fill="none" stroke="midnightblue" d="M59.5035,-31.7305C67.5828,-30.2368 76.7199,-28.5476 86.0039,-26.8312"/>
<polygon fill="midnightblue" stroke="midnightblue" points="86.8955,-30.2258 96.0926,-24.9661 85.6229,-23.3424 86.8955,-30.2258"/>
</g>
<!-- Node3 -->
<g id="node3" class="node"><title>Node3</title>
<g id="a_node3"><a xlink:href="classSolverUtils_1_1GeoPrim_1_1C3Vector_a8ee7eecfcac25d9c4a6693ba1a8da90c.html#a8ee7eecfcac25d9c4a6693ba1a8da90c" target="_top" xlink:title="SolverUtils::GeoPrim\l::C3Vector::Norm">
<polygon fill="none" stroke="black" points="392.5,-22 392.5,-52 501.5,-52 501.5,-22 392.5,-22"/>
<text text-anchor="start" x="400.5" y="-40" font-family="Helvetica,sans-Serif" font-size="10.00">SolverUtils::GeoPrim</text>
<text text-anchor="middle" x="447" y="-29" font-family="Helvetica,sans-Serif" font-size="10.00">::C3Vector::Norm</text>
</a>
</g>
</g>
<!-- Node2&#45;&gt;Node3 -->
<g id="edge2" class="edge"><title>Node2&#45;&gt;Node3</title>
<path fill="none" stroke="midnightblue" d="M356.03,-37C364.584,-37 373.467,-37 382.174,-37"/>
<polygon fill="midnightblue" stroke="midnightblue" points="382.283,-40.5001 392.283,-37 382.283,-33.5001 382.283,-40.5001"/>
</g>
<!-- Node4&#45;&gt;Node2 -->
<g id="edge4" class="edge"><title>Node4&#45;&gt;Node2</title>
<path fill="none" stroke="midnightblue" d="M205.536,-23.0671C213.959,-24.3363 222.755,-25.6618 231.429,-26.9688"/>
<polygon fill="midnightblue" stroke="midnightblue" points="231.117,-30.4611 241.526,-28.4903 232.16,-23.5393 231.117,-30.4611"/>
</g>
</g>
</svg>
