<?xml version="1.0" encoding="UTF-8" standalone="no"?>
<!DOCTYPE svg PUBLIC "-//W3C//DTD SVG 1.1//EN"
 "http://www.w3.org/Graphics/SVG/1.1/DTD/svg11.dtd">
<!-- Generated by graphviz version 2.30.1 (20150305.2338)
 -->
<!-- Title: Point_2&lt; T &gt; Pages: 1 -->
<svg width="102pt" height="232pt"
 viewBox="0.00 0.00 102.00 232.00" xmlns="http://www.w3.org/2000/svg" xmlns:xlink="http://www.w3.org/1999/xlink">
<g id="graph0" class="graph" transform="scale(1 1) rotate(0) translate(4 228)">
<title>Point_2&lt; T &gt;</title>
<!-- Node1 -->
<g id="node1" class="node"><title>Node1</title>
<polygon fill="#bfbfbf" stroke="black" points="10,-0.5 10,-19.5 84,-19.5 84,-0.5 10,-0.5"/>
<text text-anchor="middle" x="47" y="-7.5" font-family="Helvetica,sans-Serif" font-size="10.00">Point_2&lt; T &gt;</text>
</g>
<!-- Node2 -->
<g id="node2" class="node"><title>Node2</title>
<g id="a_node2"><a xlink:href="classVector__2.html" target="_top" xlink:title="Vector_2\&lt; T \&gt;">
<polygon fill="none" stroke="black" points="7,-58.5 7,-77.5 87,-77.5 87,-58.5 7,-58.5"/>
<text text-anchor="middle" x="47" y="-65.5" font-family="Helvetica,sans-Serif" font-size="10.00">Vector_2&lt; T &gt;</text>
</a>
</g>
</g>
<!-- Node2&#45;&gt;Node1 -->
<g id="edge1" class="edge"><title>Node2&#45;&gt;Node1</title>
<path fill="none" stroke="darkgreen" d="M47,-47.953C47,-38.2875 47,-27.0312 47,-19.5052"/>
<polygon fill="darkgreen" stroke="darkgreen" points="43.5001,-48.25 47,-58.25 50.5001,-48.25 43.5001,-48.25"/>
</g>
<!-- Node3 -->
<g id="node3" class="node"><title>Node3</title>
<g id="a_node3"><a xlink:href="classVector__2.html" target="_top" xlink:title="Vector_2\&lt; Type \&gt;">
<polygon fill="none" stroke="black" points="-0.5,-126.5 -0.5,-145.5 94.5,-145.5 94.5,-126.5 -0.5,-126.5"/>
<text text-anchor="middle" x="47" y="-133.5" font-family="Helvetica,sans-Serif" font-size="10.00">Vector_2&lt; Type &gt;</text>
</a>
</g>
</g>
<!-- Node3&#45;&gt;Node2 -->
<g id="edge2" class="edge"><title>Node3&#45;&gt;Node2</title>
<path fill="none" stroke="orange" stroke-dasharray="5,2" d="M47,-116.041C47,-103.472 47,-87.5631 47,-77.8411"/>
<polygon fill="orange" stroke="orange" points="43.5001,-116.372 47,-126.372 50.5001,-116.372 43.5001,-116.372"/>
<text text-anchor="middle" x="61" y="-99.5" font-family="Helvetica,sans-Serif" font-size="10.00"> &lt; T &gt;</text>
</g>
<!-- Node4 -->
<g id="node4" class="node"><title>Node4</title>
<polygon fill="none" stroke="#bfbfbf" points="28,-204.5 28,-223.5 66,-223.5 66,-204.5 28,-204.5"/>
<text text-anchor="middle" x="47" y="-211.5" font-family="Helvetica,sans-Serif" font-size="10.00">Type</text>
</g>
<!-- Node4&#45;&gt;Node3 -->
<g id="edge3" class="edge"><title>Node4&#45;&gt;Node3</title>
<path fill="none" stroke="#9a32cd" stroke-dasharray="5,2" d="M47,-194.224C47,-178.697 47,-157.358 47,-145.616"/>
<polygon fill="#9a32cd" stroke="#9a32cd" points="43.5001,-194.282 47,-204.282 50.5001,-194.282 43.5001,-194.282"/>
<text text-anchor="middle" x="54" y="-178" font-family="Helvetica,sans-Serif" font-size="10.00"> _x</text>
<text text-anchor="middle" x="54" y="-167" font-family="Helvetica,sans-Serif" font-size="10.00">_y</text>
</g>
</g>
</svg>
