<?xml version="1.0" encoding="UTF-8" standalone="no"?>
<!DOCTYPE svg PUBLIC "-//W3C//DTD SVG 1.1//EN"
 "http://www.w3.org/Graphics/SVG/1.1/DTD/svg11.dtd">
<!-- Generated by graphviz version 2.30.1 (20150305.2338)
 -->
<!-- Title: Normalize Pages: 1 -->
<svg width="542pt" height="131pt"
 viewBox="0.00 0.00 542.00 131.00" xmlns="http://www.w3.org/2000/svg" xmlns:xlink="http://www.w3.org/1999/xlink">
<g id="graph0" class="graph" transform="scale(1 1) rotate(0) translate(4 127)">
<title>Normalize</title>
<!-- Node1 -->
<g id="node1" class="node"><title>Node1</title>
<polygon fill="#bfbfbf" stroke="black" points="0.5,-54.5 0.5,-73.5 61.5,-73.5 61.5,-54.5 0.5,-54.5"/>
<text text-anchor="middle" x="31" y="-61.5" font-family="Helvetica,sans-Serif" font-size="10.00">Normalize</text>
</g>
<!-- Node2 -->
<g id="node2" class="node"><title>Node2</title>
<g id="a_node2"><a xlink:href="classSolverUtils_1_1GeoPrim_1_1C3Plane_aba3e4120cb4b5b32164cddf75c28b014.html#aba3e4120cb4b5b32164cddf75c28b014" target="_top" xlink:title="SolverUtils::GeoPrim\l::C3Plane::C3Plane">
<polygon fill="none" stroke="black" points="98.5,-93 98.5,-123 207.5,-123 207.5,-93 98.5,-93"/>
<text text-anchor="start" x="106.5" y="-111" font-family="Helvetica,sans-Serif" font-size="10.00">SolverUtils::GeoPrim</text>
<text text-anchor="middle" x="153" y="-100" font-family="Helvetica,sans-Serif" font-size="10.00">::C3Plane::C3Plane</text>
</a>
</g>
</g>
<!-- Node1&#45;&gt;Node2 -->
<g id="edge1" class="edge"><title>Node1&#45;&gt;Node2</title>
<path fill="none" stroke="midnightblue" d="M67.5463,-77.0337C81.1668,-82.0278 96.8155,-87.7657 110.913,-92.9346"/>
<polygon fill="midnightblue" stroke="midnightblue" points="68.6319,-73.7039 58.0382,-73.5473 66.2221,-80.276 68.6319,-73.7039"/>
</g>
<!-- Node3 -->
<g id="node3" class="node"><title>Node3</title>
<g id="a_node3"><a xlink:href="classSolverUtils_1_1GeoPrim_1_1C3Line_a6f8c1b75074675c4c51b25b02f6c4dc2.html#a6f8c1b75074675c4c51b25b02f6c4dc2" target="_top" xlink:title="SolverUtils::GeoPrim\l::C3Line::has_point">
<polygon fill="none" stroke="black" points="246.5,-49 246.5,-79 355.5,-79 355.5,-49 246.5,-49"/>
<text text-anchor="start" x="254.5" y="-67" font-family="Helvetica,sans-Serif" font-size="10.00">SolverUtils::GeoPrim</text>
<text text-anchor="middle" x="301" y="-56" font-family="Helvetica,sans-Serif" font-size="10.00">::C3Line::has_point</text>
</a>
</g>
</g>
<!-- Node1&#45;&gt;Node3 -->
<g id="edge2" class="edge"><title>Node1&#45;&gt;Node3</title>
<path fill="none" stroke="midnightblue" d="M71.9543,-64C118.284,-64 194.862,-64 246.349,-64"/>
<polygon fill="midnightblue" stroke="midnightblue" points="71.7047,-60.5001 61.7047,-64 71.7046,-67.5001 71.7047,-60.5001"/>
</g>
<!-- Node5 -->
<g id="node5" class="node"><title>Node5</title>
<g id="a_node5"><a xlink:href="classSolverUtils_1_1GeoPrim_1_1C3Vector_ac9824a858358ee06d122c0bcbf06e4fe.html#ac9824a858358ee06d122c0bcbf06e4fe" target="_top" xlink:title="Unit">
<polygon fill="none" stroke="black" points="135.5,-16.5 135.5,-35.5 170.5,-35.5 170.5,-16.5 135.5,-16.5"/>
<text text-anchor="middle" x="153" y="-23.5" font-family="Helvetica,sans-Serif" font-size="10.00">Unit</text>
</a>
</g>
</g>
<!-- Node1&#45;&gt;Node5 -->
<g id="edge4" class="edge"><title>Node1&#45;&gt;Node5</title>
<path fill="none" stroke="midnightblue" d="M71.2849,-51.5598C92.9615,-44.6955 118.75,-36.5291 135.242,-31.3069"/>
<polygon fill="midnightblue" stroke="midnightblue" points="70.1397,-48.2511 61.6629,-54.6067 72.253,-54.9245 70.1397,-48.2511"/>
</g>
<!-- Node4 -->
<g id="node4" class="node"><title>Node4</title>
<g id="a_node4"><a xlink:href="classSolverUtils_1_1GeoPrim_1_1C3LineSegment_acea406f3a19b37ff68662597c6466609.html#acea406f3a19b37ff68662597c6466609" target="_top" xlink:title="SolverUtils::GeoPrim\l::C3LineSegment::has_point">
<polygon fill="none" stroke="black" points="394,-49 394,-79 534,-79 534,-49 394,-49"/>
<text text-anchor="start" x="402" y="-67" font-family="Helvetica,sans-Serif" font-size="10.00">SolverUtils::GeoPrim</text>
<text text-anchor="middle" x="464" y="-56" font-family="Helvetica,sans-Serif" font-size="10.00">::C3LineSegment::has_point</text>
</a>
</g>
</g>
<!-- Node3&#45;&gt;Node4 -->
<g id="edge3" class="edge"><title>Node3&#45;&gt;Node4</title>
<path fill="none" stroke="midnightblue" d="M365.849,-64C375.056,-64 384.567,-64 393.871,-64"/>
<polygon fill="midnightblue" stroke="midnightblue" points="365.611,-60.5001 355.611,-64 365.611,-67.5001 365.611,-60.5001"/>
</g>
<!-- Node5&#45;&gt;Node3 -->
<g id="edge5" class="edge"><title>Node5&#45;&gt;Node3</title>
<path fill="none" stroke="midnightblue" d="M180.426,-32.8781C198.737,-37.6438 223.759,-44.1565 246.183,-49.9927"/>
<polygon fill="midnightblue" stroke="midnightblue" points="181.307,-29.4908 170.748,-30.3591 179.544,-36.2651 181.307,-29.4908"/>
</g>
<!-- Node6 -->
<g id="node6" class="node"><title>Node6</title>
<g id="a_node6"><a xlink:href="classSolverUtils_1_1GeoPrim_1_1C3Plane_aefbe051711c8b698dc5f7a484ba83d82.html#aefbe051711c8b698dc5f7a484ba83d82" target="_top" xlink:title="SolverUtils::GeoPrim\l::C3Plane::operator==">
<polygon fill="none" stroke="black" points="244.5,-0 244.5,-30 357.5,-30 357.5,-0 244.5,-0"/>
<text text-anchor="start" x="252.5" y="-18" font-family="Helvetica,sans-Serif" font-size="10.00">SolverUtils::GeoPrim</text>
<text text-anchor="middle" x="301" y="-7" font-family="Helvetica,sans-Serif" font-size="10.00">::C3Plane::operator==</text>
</a>
</g>
</g>
<!-- Node5&#45;&gt;Node6 -->
<g id="edge6" class="edge"><title>Node5&#45;&gt;Node6</title>
<path fill="none" stroke="midnightblue" d="M180.919,-23.9718C198.647,-22.6362 222.507,-20.8385 244.215,-19.203"/>
<polygon fill="midnightblue" stroke="midnightblue" points="180.457,-20.4967 170.748,-24.7382 180.983,-27.4769 180.457,-20.4967"/>
</g>
</g>
</svg>
