<?xml version="1.0" encoding="UTF-8" standalone="no"?>
<!DOCTYPE svg PUBLIC "-//W3C//DTD SVG 1.1//EN"
 "http://www.w3.org/Graphics/SVG/1.1/DTD/svg11.dtd">
<!-- Generated by graphviz version 2.30.1 (20150305.2338)
 -->
<!-- Title: updateSolution Pages: 1 -->
<svg width="556pt" height="93pt"
 viewBox="0.00 0.00 556.00 93.00" xmlns="http://www.w3.org/2000/svg" xmlns:xlink="http://www.w3.org/1999/xlink">
<g id="graph0" class="graph" transform="scale(1 1) rotate(0) translate(4 89)">
<title>updateSolution</title>
<!-- Node1 -->
<g id="node1" class="node"><title>Node1</title>
<polygon fill="#bfbfbf" stroke="black" points="0.5,-46.5 0.5,-65.5 81.5,-65.5 81.5,-46.5 0.5,-46.5"/>
<text text-anchor="middle" x="41" y="-53.5" font-family="Helvetica,sans-Serif" font-size="10.00">updateSolution</text>
</g>
<!-- Node2 -->
<g id="node2" class="node"><title>Node2</title>
<g id="a_node2"><a xlink:href="com__c_8h_a6dd240c15a2b3e85d2d91cbe9eec6611.html#a6dd240c15a2b3e85d2d91cbe9eec6611" target="_top" xlink:title="Get the address for an dataitem on a specific pane. ">
<polygon fill="none" stroke="black" points="126,-65.5 126,-84.5 212,-84.5 212,-65.5 126,-65.5"/>
<text text-anchor="middle" x="169" y="-72.5" font-family="Helvetica,sans-Serif" font-size="10.00">COM_get_array</text>
</a>
</g>
</g>
<!-- Node1&#45;&gt;Node2 -->
<g id="edge1" class="edge"><title>Node1&#45;&gt;Node2</title>
<path fill="none" stroke="midnightblue" d="M81.5215,-61.9596C92.2412,-63.576 104.019,-65.3521 115.339,-67.0591"/>
<polygon fill="midnightblue" stroke="midnightblue" points="115.153,-70.5705 125.563,-68.6008 116.197,-63.6487 115.153,-70.5705"/>
</g>
<!-- Node3 -->
<g id="node3" class="node"><title>Node3</title>
<g id="a_node3"><a xlink:href="com__c_09_09_8hpp_a16b2a9aeed9d53bd2d11d4221ef2c148.html#a16b2a9aeed9d53bd2d11d4221ef2c148" target="_top" xlink:title="COM_get_dataitem">
<polygon fill="none" stroke="black" points="118.5,-27.5 118.5,-46.5 219.5,-46.5 219.5,-27.5 118.5,-27.5"/>
<text text-anchor="middle" x="169" y="-34.5" font-family="Helvetica,sans-Serif" font-size="10.00">COM_get_dataitem</text>
</a>
</g>
</g>
<!-- Node1&#45;&gt;Node3 -->
<g id="edge2" class="edge"><title>Node1&#45;&gt;Node3</title>
<path fill="none" stroke="midnightblue" d="M81.5215,-50.0404C90.0163,-48.7595 99.1756,-47.3783 108.245,-46.0107"/>
<polygon fill="midnightblue" stroke="midnightblue" points="109.04,-49.4304 118.406,-44.4784 107.996,-42.5087 109.04,-49.4304"/>
</g>
<!-- Node4 -->
<g id="node4" class="node"><title>Node4</title>
<g id="a_node4"><a xlink:href="COM__base_8hpp_a49353596e53127db61529b5c9000549d.html#a49353596e53127db61529b5c9000549d" target="_top" xlink:title="COM_get_com">
<polygon fill="none" stroke="black" points="272.5,-49.5 272.5,-68.5 355.5,-68.5 355.5,-49.5 272.5,-49.5"/>
<text text-anchor="middle" x="314" y="-56.5" font-family="Helvetica,sans-Serif" font-size="10.00">COM_get_com</text>
</a>
</g>
</g>
<!-- Node3&#45;&gt;Node4 -->
<g id="edge3" class="edge"><title>Node3&#45;&gt;Node4</title>
<path fill="none" stroke="midnightblue" d="M219.613,-44.6328C233.504,-46.7699 248.615,-49.0947 262.554,-51.2391"/>
<polygon fill="midnightblue" stroke="midnightblue" points="262.047,-54.7021 272.463,-52.7635 263.111,-47.7835 262.047,-54.7021"/>
</g>
<!-- Node6 -->
<g id="node6" class="node"><title>Node6</title>
<g id="a_node6"><a xlink:href="classCOM_1_1COM__base_a74a5100529115d055808ef9aa5c369ba.html#a74a5100529115d055808ef9aa5c369ba" target="_top" xlink:title="Information retrieval Get the information about an dataitem. ">
<polygon fill="none" stroke="black" points="256.5,-0 256.5,-30 371.5,-30 371.5,-0 256.5,-0"/>
<text text-anchor="start" x="264.5" y="-18" font-family="Helvetica,sans-Serif" font-size="10.00">COM::COM_base::get</text>
<text text-anchor="middle" x="314" y="-7" font-family="Helvetica,sans-Serif" font-size="10.00">_dataitem</text>
</a>
</g>
</g>
<!-- Node3&#45;&gt;Node6 -->
<g id="edge5" class="edge"><title>Node3&#45;&gt;Node6</title>
<path fill="none" stroke="midnightblue" d="M219.613,-29.3672C228.17,-28.0507 237.19,-26.6631 246.114,-25.2902"/>
<polygon fill="midnightblue" stroke="midnightblue" points="246.767,-28.731 256.118,-23.751 245.702,-21.8124 246.767,-28.731"/>
</g>
<!-- Node5 -->
<g id="node5" class="node"><title>Node5</title>
<g id="a_node5"><a xlink:href="classCOM_1_1COM__base_a77bb770b9ec1aac99361c45efbccabc1.html#a77bb770b9ec1aac99361c45efbccabc1" target="_top" xlink:title="Get a pointer to the COM object. ">
<polygon fill="none" stroke="black" points="408.5,-49.5 408.5,-68.5 547.5,-68.5 547.5,-49.5 408.5,-49.5"/>
<text text-anchor="middle" x="478" y="-56.5" font-family="Helvetica,sans-Serif" font-size="10.00">COM::COM_base::get_com</text>
</a>
</g>
</g>
<!-- Node4&#45;&gt;Node5 -->
<g id="edge4" class="edge"><title>Node4&#45;&gt;Node5</title>
<path fill="none" stroke="midnightblue" d="M355.879,-59C368.826,-59 383.603,-59 398.279,-59"/>
<polygon fill="midnightblue" stroke="midnightblue" points="398.4,-62.5001 408.4,-59 398.4,-55.5001 398.4,-62.5001"/>
</g>
</g>
</svg>
