<?xml version="1.0" encoding="UTF-8" standalone="no"?>
<!DOCTYPE svg PUBLIC "-//W3C//DTD SVG 1.1//EN"
 "http://www.w3.org/Graphics/SVG/1.1/DTD/svg11.dtd">
<!-- Generated by graphviz version 2.26.0 (20091210.2329)
 -->
<!-- Title: Run Pages: 1 -->
<svg width="590pt" height="452pt"
 viewBox="0.00 0.00 590.00 452.00" xmlns="http://www.w3.org/2000/svg" xmlns:xlink="http://www.w3.org/1999/xlink">
<g id="graph1" class="graph" transform="scale(1 1) rotate(0) translate(4 448)">
<title>Run</title>
<!-- Node1 -->
<g id="node1" class="node"><title>Node1</title>
<polygon fill="#bfbfbf" stroke="black" points="0.5,-247.5 0.5,-268.5 35.5,-268.5 35.5,-247.5 0.5,-247.5"/>
<text text-anchor="middle" x="18" y="-255.5" font-family="Helvetica,sans-Serif" font-size="10.00">Run</text>
</g>
<!-- Node2 -->
<g id="node3" class="node"><title>Node2</title>
<a xlink:href="classfsicoupling_a6068a393f390317c207fce14a60f9ef4.html#a6068a393f390317c207fce14a60f9ef4" target="_top" xlink:title="fsicoupling::Finalize">
<polygon fill="none" stroke="black" points="83.5,-370.5 83.5,-391.5 186.5,-391.5 186.5,-370.5 83.5,-370.5"/>
<text text-anchor="middle" x="135" y="-378.5" font-family="Helvetica,sans-Serif" font-size="10.00">fsicoupling::Finalize</text>
</a>
</g>
<!-- Node1&#45;&gt;Node2 -->
<g id="edge2" class="edge"><title>Node1&#45;&gt;Node2</title>
<path fill="none" stroke="midnightblue" d="M26.4807,-268.538C36.8612,-281.283 55.1428,-303.236 72,-321 85.987,-335.74 102.672,-351.557 115.356,-363.25"/>
<polygon fill="midnightblue" stroke="midnightblue" points="113.304,-366.116 123.045,-370.284 118.03,-360.952 113.304,-366.116"/>
</g>
<!-- Node7 -->
<g id="node13" class="node"><title>Node7</title>
<a xlink:href="classfsicoupling_ae855141f7b214925c25f7797b8b122a8.html#ae855141f7b214925c25f7797b8b122a8" target="_top" xlink:title="fsicoupling::Initialize">
<polygon fill="none" stroke="black" points="82.5,-290.5 82.5,-311.5 187.5,-311.5 187.5,-290.5 82.5,-290.5"/>
<text text-anchor="middle" x="135" y="-298.5" font-family="Helvetica,sans-Serif" font-size="10.00">fsicoupling::Initialize</text>
</a>
</g>
<!-- Node1&#45;&gt;Node7 -->
<g id="edge12" class="edge"><title>Node1&#45;&gt;Node7</title>
<path fill="none" stroke="midnightblue" d="M35.5161,-264.438C51.5856,-270.343 75.9466,-279.297 96.5393,-286.865"/>
<polygon fill="midnightblue" stroke="midnightblue" points="95.3982,-290.174 105.992,-290.339 97.813,-283.604 95.3982,-290.174"/>
</g>
<!-- Node10 -->
<g id="node23" class="node"><title>Node10</title>
<a xlink:href="classfsicoupling_afbfb74d751085fbf8cffe83b9716b2dd.html#afbfb74d751085fbf8cffe83b9716b2dd" target="_top" xlink:title="fsicoupling::Run">
<polygon fill="none" stroke="black" points="91.5,-178.5 91.5,-199.5 178.5,-199.5 178.5,-178.5 91.5,-178.5"/>
<text text-anchor="middle" x="135" y="-186.5" font-family="Helvetica,sans-Serif" font-size="10.00">fsicoupling::Run</text>
</a>
</g>
<!-- Node1&#45;&gt;Node10 -->
<g id="edge26" class="edge"><title>Node1&#45;&gt;Node10</title>
<path fill="none" stroke="midnightblue" d="M35.5161,-247.67C54.79,-236.303 85.9916,-217.902 108.313,-204.738"/>
<polygon fill="midnightblue" stroke="midnightblue" points="110.143,-207.722 116.979,-199.628 106.588,-201.693 110.143,-207.722"/>
</g>
<!-- Node21 -->
<g id="node46" class="node"><title>Node21</title>
<a xlink:href="classfsicoupling_a9339a46a8a7f217e05784068f5ac0b9d.html#a9339a46a8a7f217e05784068f5ac0b9d" target="_top" xlink:title="fsicoupling::SetRunMode">
<polygon fill="none" stroke="black" points="72,-138.5 72,-159.5 198,-159.5 198,-138.5 72,-138.5"/>
<text text-anchor="middle" x="135" y="-146.5" font-family="Helvetica,sans-Serif" font-size="10.00">fsicoupling::SetRunMode</text>
</a>
</g>
<!-- Node1&#45;&gt;Node21 -->
<g id="edge50" class="edge"><title>Node1&#45;&gt;Node21</title>
<path fill="none" stroke="midnightblue" d="M21.643,-247.241C28.5127,-228.563 45.1503,-190.116 72,-169 74.2832,-167.204 76.7309,-165.568 79.2881,-164.078"/>
<polygon fill="midnightblue" stroke="midnightblue" points="80.9519,-167.159 88.325,-159.551 77.8165,-160.9 80.9519,-167.159"/>
</g>
<!-- Node3 -->
<g id="node5" class="node"><title>Node3</title>
<a xlink:href="classimpact_1_1orchestrator_1_1agentbase_a6068a393f390317c207fce14a60f9ef4.html#a6068a393f390317c207fce14a60f9ef4" target="_top" xlink:title="impact::orchestrator\l::agentbase::Finalize">
<polygon fill="none" stroke="black" points="265.5,-410 265.5,-444 372.5,-444 372.5,-410 265.5,-410"/>
<text text-anchor="start" x="273.5" y="-431" font-family="Helvetica,sans-Serif" font-size="10.00">impact::orchestrator</text>
<text text-anchor="middle" x="319" y="-418" font-family="Helvetica,sans-Serif" font-size="10.00">::agentbase::Finalize</text>
</a>
</g>
<!-- Node2&#45;&gt;Node3 -->
<g id="edge4" class="edge"><title>Node2&#45;&gt;Node3</title>
<path fill="none" stroke="midnightblue" d="M177.213,-391.553C200.451,-397.363 229.754,-404.688 255.68,-411.17"/>
<polygon fill="midnightblue" stroke="midnightblue" points="254.881,-414.578 265.431,-413.608 256.578,-407.787 254.881,-414.578"/>
</g>
<!-- Node4 -->
<g id="node7" class="node"><title>Node4</title>
<a xlink:href="classelmeragent_a6068a393f390317c207fce14a60f9ef4.html#a6068a393f390317c207fce14a60f9ef4" target="_top" xlink:title="elmeragent::Finalize">
<polygon fill="none" stroke="black" points="267,-370.5 267,-391.5 371,-391.5 371,-370.5 267,-370.5"/>
<text text-anchor="middle" x="319" y="-378.5" font-family="Helvetica,sans-Serif" font-size="10.00">elmeragent::Finalize</text>
</a>
</g>
<!-- Node2&#45;&gt;Node4 -->
<g id="edge6" class="edge"><title>Node2&#45;&gt;Node4</title>
<path fill="none" stroke="midnightblue" d="M186.744,-381C208.406,-381 233.776,-381 256.471,-381"/>
<polygon fill="midnightblue" stroke="midnightblue" points="256.687,-384.5 266.687,-381 256.687,-377.5 256.687,-384.5"/>
</g>
<!-- Node5 -->
<g id="node9" class="node"><title>Node5</title>
<a xlink:href="classimpact_1_1orchestrator_1_1agentbase_a0c67610e579dce80081e10bbbf57eae1.html#a0c67610e579dce80081e10bbbf57eae1" target="_top" xlink:title="impact::orchestrator\l::agentbase::WriteErr">
<polygon fill="none" stroke="black" points="456,-284 456,-318 566,-318 566,-284 456,-284"/>
<text text-anchor="start" x="464" y="-305" font-family="Helvetica,sans-Serif" font-size="10.00">impact::orchestrator</text>
<text text-anchor="middle" x="511" y="-292" font-family="Helvetica,sans-Serif" font-size="10.00">::agentbase::WriteErr</text>
</a>
</g>
<!-- Node4&#45;&gt;Node5 -->
<g id="edge8" class="edge"><title>Node4&#45;&gt;Node5</title>
<path fill="none" stroke="midnightblue" d="M371.375,-373.228C382.548,-370.339 393.989,-366.391 404,-361 423.377,-350.566 421.283,-338.577 440,-327 442.596,-325.395 445.305,-323.866 448.087,-322.414"/>
<polygon fill="midnightblue" stroke="midnightblue" points="449.678,-325.533 457.165,-318.036 446.637,-319.228 449.678,-325.533"/>
</g>
<!-- Node6 -->
<g id="node11" class="node"><title>Node6</title>
<a xlink:href="classimpact_1_1orchestrator_1_1agentbase_acd3473c5912447035e34274950a1c8c6.html#acd3473c5912447035e34274950a1c8c6" target="_top" xlink:title="impact::orchestrator\l::agentbase::WriteOut">
<polygon fill="none" stroke="black" points="454.5,-336 454.5,-370 567.5,-370 567.5,-336 454.5,-336"/>
<text text-anchor="start" x="462.5" y="-357" font-family="Helvetica,sans-Serif" font-size="10.00">impact::orchestrator</text>
<text text-anchor="middle" x="511" y="-344" font-family="Helvetica,sans-Serif" font-size="10.00">::agentbase::WriteOut</text>
</a>
</g>
<!-- Node4&#45;&gt;Node6 -->
<g id="edge10" class="edge"><title>Node4&#45;&gt;Node6</title>
<path fill="none" stroke="midnightblue" d="M371.211,-373.386C393.753,-370.098 420.395,-366.213 444.342,-362.721"/>
<polygon fill="midnightblue" stroke="midnightblue" points="445.03,-366.158 454.42,-361.251 444.02,-359.231 445.03,-366.158"/>
</g>
<!-- Node8 -->
<g id="node15" class="node"><title>Node8</title>
<a xlink:href="classopenfoamagent_afd7b1d813d4425c584fa826d669e889d.html#afd7b1d813d4425c584fa826d669e889d" target="_top" xlink:title="openfoamagent::Initialize">
<polygon fill="none" stroke="black" points="256.5,-290.5 256.5,-311.5 381.5,-311.5 381.5,-290.5 256.5,-290.5"/>
<text text-anchor="middle" x="319" y="-298.5" font-family="Helvetica,sans-Serif" font-size="10.00">openfoamagent::Initialize</text>
</a>
</g>
<!-- Node7&#45;&gt;Node8 -->
<g id="edge14" class="edge"><title>Node7&#45;&gt;Node8</title>
<path fill="none" stroke="midnightblue" d="M187.727,-301C205.994,-301 226.804,-301 246.387,-301"/>
<polygon fill="midnightblue" stroke="midnightblue" points="246.495,-304.5 256.495,-301 246.495,-297.5 246.495,-304.5"/>
</g>
<!-- Node9 -->
<g id="node19" class="node"><title>Node9</title>
<a xlink:href="classelmeragent_a60b3099d2db71504ef8001c1262f26f2.html#a60b3099d2db71504ef8001c1262f26f2" target="_top" xlink:title="elmeragent::Initialize">
<polygon fill="none" stroke="black" points="265.5,-330.5 265.5,-351.5 372.5,-351.5 372.5,-330.5 265.5,-330.5"/>
<text text-anchor="middle" x="319" y="-338.5" font-family="Helvetica,sans-Serif" font-size="10.00">elmeragent::Initialize</text>
</a>
</g>
<!-- Node7&#45;&gt;Node9 -->
<g id="edge20" class="edge"><title>Node7&#45;&gt;Node9</title>
<path fill="none" stroke="midnightblue" d="M183.344,-311.51C207.02,-316.657 235.719,-322.895 260.611,-328.307"/>
<polygon fill="midnightblue" stroke="midnightblue" points="260.145,-331.787 270.66,-330.491 261.632,-324.947 260.145,-331.787"/>
</g>
<!-- Node8&#45;&gt;Node5 -->
<g id="edge16" class="edge"><title>Node8&#45;&gt;Node5</title>
<path fill="none" stroke="midnightblue" d="M381.602,-301C402.198,-301 425.136,-301 445.912,-301"/>
<polygon fill="midnightblue" stroke="midnightblue" points="445.918,-304.5 455.918,-301 445.918,-297.5 445.918,-304.5"/>
</g>
<!-- Node8&#45;&gt;Node6 -->
<g id="edge18" class="edge"><title>Node8&#45;&gt;Node6</title>
<path fill="none" stroke="midnightblue" d="M365.889,-311.506C378.315,-314.434 391.696,-317.716 404,-321 417.718,-324.662 432.343,-328.847 446.233,-332.956"/>
<polygon fill="midnightblue" stroke="midnightblue" points="445.611,-336.423 456.194,-335.927 447.612,-329.715 445.611,-336.423"/>
</g>
<!-- Node9&#45;&gt;Node5 -->
<g id="edge22" class="edge"><title>Node9&#45;&gt;Node5</title>
<path fill="none" stroke="midnightblue" d="M369.446,-330.49C392.785,-325.628 420.8,-319.792 445.725,-314.599"/>
<polygon fill="midnightblue" stroke="midnightblue" points="446.756,-317.959 455.832,-312.493 445.328,-311.107 446.756,-317.959"/>
</g>
<!-- Node9&#45;&gt;Node6 -->
<g id="edge24" class="edge"><title>Node9&#45;&gt;Node6</title>
<path fill="none" stroke="midnightblue" d="M372.738,-344.359C394.868,-345.742 420.742,-347.359 444.082,-348.818"/>
<polygon fill="midnightblue" stroke="midnightblue" points="444.059,-352.323 454.258,-349.454 444.495,-345.337 444.059,-352.323"/>
</g>
<!-- Node11 -->
<g id="node25" class="node"><title>Node11</title>
<a xlink:href="classimpact_1_1orchestrator_1_1agentbase_a50a1b38c2dca7d97a57941b99cfdf099.html#a50a1b38c2dca7d97a57941b99cfdf099" target="_top" xlink:title="impact::orchestrator\l::agentbase::FinalizeTimeStep">
<polygon fill="none" stroke="black" points="244.5,-198 244.5,-232 393.5,-232 393.5,-198 244.5,-198"/>
<text text-anchor="start" x="252.5" y="-219" font-family="Helvetica,sans-Serif" font-size="10.00">impact::orchestrator</text>
<text text-anchor="middle" x="319" y="-206" font-family="Helvetica,sans-Serif" font-size="10.00">::agentbase::FinalizeTimeStep</text>
</a>
</g>
<!-- Node10&#45;&gt;Node11 -->
<g id="edge28" class="edge"><title>Node10&#45;&gt;Node11</title>
<path fill="none" stroke="midnightblue" d="M178.605,-195.162C195.347,-197.527 215.079,-200.315 234.374,-203.042"/>
<polygon fill="midnightblue" stroke="midnightblue" points="234.015,-206.526 244.407,-204.46 234.995,-199.595 234.015,-206.526"/>
</g>
<!-- Node12 -->
<g id="node27" class="node"><title>Node12</title>
<a xlink:href="classimpact_1_1orchestrator_1_1agentbase_abae70c8ddc0a4976bf42b69f1eae8b52.html#abae70c8ddc0a4976bf42b69f1eae8b52" target="_top" xlink:title="impact::orchestrator\l::agentbase::InitializeTimeStep">
<polygon fill="none" stroke="black" points="243,-146 243,-180 395,-180 395,-146 243,-146"/>
<text text-anchor="start" x="251" y="-167" font-family="Helvetica,sans-Serif" font-size="10.00">impact::orchestrator</text>
<text text-anchor="middle" x="319" y="-154" font-family="Helvetica,sans-Serif" font-size="10.00">::agentbase::InitializeTimeStep</text>
</a>
</g>
<!-- Node10&#45;&gt;Node12 -->
<g id="edge30" class="edge"><title>Node10&#45;&gt;Node12</title>
<path fill="none" stroke="midnightblue" d="M178.605,-182.838C194.91,-180.534 214.05,-177.83 232.862,-175.172"/>
<polygon fill="midnightblue" stroke="midnightblue" points="233.543,-178.61 242.955,-173.746 232.563,-171.679 233.543,-178.61"/>
</g>
<!-- Node13 -->
<g id="node29" class="node"><title>Node13</title>
<a xlink:href="classopenfoamagent_a1e1196103d62248de06882a2f5f1adf4.html#a1e1196103d62248de06882a2f5f1adf4" target="_top" xlink:title="openfoamagent::Run">
<polygon fill="none" stroke="black" points="265.5,-106.5 265.5,-127.5 372.5,-127.5 372.5,-106.5 265.5,-106.5"/>
<text text-anchor="middle" x="319" y="-114.5" font-family="Helvetica,sans-Serif" font-size="10.00">openfoamagent::Run</text>
</a>
</g>
<!-- Node10&#45;&gt;Node13 -->
<g id="edge32" class="edge"><title>Node10&#45;&gt;Node13</title>
<path fill="none" stroke="midnightblue" d="M176.717,-178.489C184.04,-175.886 191.416,-172.744 198,-169 216.609,-158.419 215.001,-146.864 234,-137 240.736,-133.503 248.088,-130.609 255.557,-128.216"/>
<polygon fill="midnightblue" stroke="midnightblue" points="256.779,-131.505 265.402,-125.349 254.823,-124.784 256.779,-131.505"/>
</g>
<!-- Node14 -->
<g id="node31" class="node"><title>Node14</title>
<a xlink:href="classelmeragent_addc5d2e1dc0916e5c3d2e52d53261b4b.html#addc5d2e1dc0916e5c3d2e52d53261b4b" target="_top" xlink:title="elmeragent::Run">
<polygon fill="none" stroke="black" points="274.5,-250.5 274.5,-271.5 363.5,-271.5 363.5,-250.5 274.5,-250.5"/>
<text text-anchor="middle" x="319" y="-258.5" font-family="Helvetica,sans-Serif" font-size="10.00">elmeragent::Run</text>
</a>
</g>
<!-- Node10&#45;&gt;Node14 -->
<g id="edge34" class="edge"><title>Node10&#45;&gt;Node14</title>
<path fill="none" stroke="midnightblue" d="M151.91,-199.582C171.145,-211.209 203.809,-229.726 234,-241 243.686,-244.617 254.245,-247.726 264.523,-250.341"/>
<polygon fill="midnightblue" stroke="midnightblue" points="263.711,-253.746 274.254,-252.698 265.358,-246.943 263.711,-253.746"/>
</g>
<!-- Node15 -->
<g id="node34" class="node"><title>Node15</title>
<a xlink:href="classfsicoupling_afb2eaee475b0c32cd5bf6d6fcc1eff05.html#afb2eaee475b0c32cd5bf6d6fcc1eff05" target="_top" xlink:title="fsicoupling::TransferDisplacements\lToFluid">
<polygon fill="none" stroke="black" points="234,-54 234,-88 404,-88 404,-54 234,-54"/>
<text text-anchor="start" x="242" y="-75" font-family="Helvetica,sans-Serif" font-size="10.00">fsicoupling::TransferDisplacements</text>
<text text-anchor="middle" x="319" y="-62" font-family="Helvetica,sans-Serif" font-size="10.00">ToFluid</text>
</a>
</g>
<!-- Node10&#45;&gt;Node15 -->
<g id="edge38" class="edge"><title>Node10&#45;&gt;Node15</title>
<path fill="none" stroke="midnightblue" d="M178.736,-180.178C185.689,-177.408 192.417,-173.772 198,-169 225.195,-145.753 206.682,-120.103 234,-97 235.377,-95.8353 236.806,-94.7228 238.278,-93.6601"/>
<polygon fill="midnightblue" stroke="midnightblue" points="240.527,-96.3813 247.138,-88.1022 236.807,-90.4514 240.527,-96.3813"/>
</g>
<!-- Node20 -->
<g id="node44" class="node"><title>Node20</title>
<a xlink:href="classfsicoupling_a052028ae6a11a37f3c3be19a78709d97.html#a052028ae6a11a37f3c3be19a78709d97" target="_top" xlink:title="fsicoupling::TransferLoads\lToStructures">
<polygon fill="none" stroke="black" points="253.5,-2 253.5,-36 384.5,-36 384.5,-2 253.5,-2"/>
<text text-anchor="start" x="261.5" y="-23" font-family="Helvetica,sans-Serif" font-size="10.00">fsicoupling::TransferLoads</text>
<text text-anchor="middle" x="319" y="-10" font-family="Helvetica,sans-Serif" font-size="10.00">ToStructures</text>
</a>
</g>
<!-- Node10&#45;&gt;Node20 -->
<g id="edge48" class="edge"><title>Node10&#45;&gt;Node20</title>
<path fill="none" stroke="midnightblue" d="M178.534,-181.392C185.758,-178.497 192.631,-174.504 198,-169 238.071,-127.921 193.712,-85.8674 234,-45 237.194,-41.7598 240.78,-38.921 244.625,-36.4343"/>
<polygon fill="midnightblue" stroke="midnightblue" points="246.38,-39.4635 253.405,-31.5334 242.968,-33.3512 246.38,-39.4635"/>
</g>
<!-- Node14&#45;&gt;Node5 -->
<g id="edge36" class="edge"><title>Node14&#45;&gt;Node5</title>
<path fill="none" stroke="midnightblue" d="M363.531,-270.277C388,-275.375 418.801,-281.792 445.918,-287.441"/>
<polygon fill="midnightblue" stroke="midnightblue" points="445.22,-290.871 455.723,-289.484 446.647,-284.018 445.22,-290.871"/>
</g>
<!-- Node16 -->
<g id="node36" class="node"><title>Node16</title>
<a xlink:href="classopenfoamagent_a11af20e113d9cb3bad41a7504f10da2c.html#a11af20e113d9cb3bad41a7504f10da2c" target="_top" xlink:title="openfoamagent::Coordinates">
<polygon fill="none" stroke="black" points="440,-40.5 440,-61.5 582,-61.5 582,-40.5 440,-40.5"/>
<text text-anchor="middle" x="511" y="-48.5" font-family="Helvetica,sans-Serif" font-size="10.00">openfoamagent::Coordinates</text>
</a>
</g>
<!-- Node15&#45;&gt;Node16 -->
<g id="edge40" class="edge"><title>Node15&#45;&gt;Node16</title>
<path fill="none" stroke="midnightblue" d="M404.052,-62.1404C412.538,-61.2564 421.14,-60.3604 429.587,-59.4805"/>
<polygon fill="midnightblue" stroke="midnightblue" points="430.213,-62.9343 439.797,-58.417 429.488,-55.972 430.213,-62.9343"/>
</g>
<!-- Node17 -->
<g id="node38" class="node"><title>Node17</title>
<a xlink:href="classelmeragent_a11af20e113d9cb3bad41a7504f10da2c.html#a11af20e113d9cb3bad41a7504f10da2c" target="_top" xlink:title="elmeragent::Coordinates">
<polygon fill="none" stroke="black" points="449.5,-0.5 449.5,-21.5 572.5,-21.5 572.5,-0.5 449.5,-0.5"/>
<text text-anchor="middle" x="511" y="-8.5" font-family="Helvetica,sans-Serif" font-size="10.00">elmeragent::Coordinates</text>
</a>
</g>
<!-- Node15&#45;&gt;Node17 -->
<g id="edge42" class="edge"><title>Node15&#45;&gt;Node17</title>
<path fill="none" stroke="midnightblue" d="M376.798,-53.951C385.936,-51.0744 395.252,-48.0342 404,-45 420.219,-39.3743 423.719,-36.4448 440,-31 446.847,-28.7103 454.121,-26.4591 461.303,-24.3406"/>
<polygon fill="midnightblue" stroke="midnightblue" points="462.353,-27.6803 470.989,-21.5427 460.411,-20.9552 462.353,-27.6803"/>
</g>
<!-- Node18 -->
<g id="node40" class="node"><title>Node18</title>
<a xlink:href="classopenfoamagent_a84634b1a9101359943436cfa37a4b88e.html#a84634b1a9101359943436cfa37a4b88e" target="_top" xlink:title="openfoamagent::PaneID">
<polygon fill="none" stroke="black" points="450,-120.5 450,-141.5 572,-141.5 572,-120.5 450,-120.5"/>
<text text-anchor="middle" x="511" y="-128.5" font-family="Helvetica,sans-Serif" font-size="10.00">openfoamagent::PaneID</text>
</a>
</g>
<!-- Node15&#45;&gt;Node18 -->
<g id="edge44" class="edge"><title>Node15&#45;&gt;Node18</title>
<path fill="none" stroke="midnightblue" d="M376.798,-88.049C385.936,-90.9256 395.252,-93.9658 404,-97 420.219,-102.626 423.719,-105.555 440,-111 446.847,-113.29 454.121,-115.541 461.303,-117.659"/>
<polygon fill="midnightblue" stroke="midnightblue" points="460.411,-121.045 470.989,-120.457 462.353,-114.32 460.411,-121.045"/>
</g>
<!-- Node19 -->
<g id="node42" class="node"><title>Node19</title>
<a xlink:href="classelmeragent_a84634b1a9101359943436cfa37a4b88e.html#a84634b1a9101359943436cfa37a4b88e" target="_top" xlink:title="elmeragent::PaneID">
<polygon fill="none" stroke="black" points="459,-80.5 459,-101.5 563,-101.5 563,-80.5 459,-80.5"/>
<text text-anchor="middle" x="511" y="-88.5" font-family="Helvetica,sans-Serif" font-size="10.00">elmeragent::PaneID</text>
</a>
</g>
<!-- Node15&#45;&gt;Node19 -->
<g id="edge46" class="edge"><title>Node15&#45;&gt;Node19</title>
<path fill="none" stroke="midnightblue" d="M404.052,-79.8596C419.065,-81.4235 434.44,-83.025 448.682,-84.5086"/>
<polygon fill="midnightblue" stroke="midnightblue" points="448.522,-88.0108 458.831,-85.5658 449.248,-81.0485 448.522,-88.0108"/>
</g>
</g>
</svg>
