<?xml version="1.0" encoding="UTF-8" standalone="no"?>
<!DOCTYPE svg PUBLIC "-//W3C//DTD SVG 1.1//EN"
 "http://www.w3.org/Graphics/SVG/1.1/DTD/svg11.dtd">
<!-- Generated by graphviz version 2.30.1 (20150305.2338)
 -->
<!-- Title: C3Point Pages: 1 -->
<svg width="206pt" height="175pt"
 viewBox="0.00 0.00 206.00 175.00" xmlns="http://www.w3.org/2000/svg" xmlns:xlink="http://www.w3.org/1999/xlink">
<g id="graph0" class="graph" transform="scale(1 1) rotate(0) translate(4 171)">
<title>C3Point</title>
<!-- Node1 -->
<g id="node1" class="node"><title>Node1</title>
<polygon fill="#bfbfbf" stroke="black" points="0,-78.5 0,-97.5 52,-97.5 52,-78.5 0,-78.5"/>
<text text-anchor="middle" x="26" y="-85.5" font-family="Helvetica,sans-Serif" font-size="10.00">C3Point</text>
</g>
<!-- Node2 -->
<g id="node2" class="node"><title>Node2</title>
<g id="a_node2"><a xlink:href="classSolverUtils_1_1GeoPrim_1_1C3Point_a76362e9dac37d41cf05c2fb2f7652bf4.html#a76362e9dac37d41cf05c2fb2f7652bf4" target="_top" xlink:title="_create">
<polygon fill="none" stroke="black" points="118.5,-147.5 118.5,-166.5 167.5,-166.5 167.5,-147.5 118.5,-147.5"/>
<text text-anchor="middle" x="143" y="-154.5" font-family="Helvetica,sans-Serif" font-size="10.00">_create</text>
</a>
</g>
</g>
<!-- Node1&#45;&gt;Node2 -->
<g id="edge1" class="edge"><title>Node1&#45;&gt;Node2</title>
<path fill="none" stroke="midnightblue" d="M37.0434,-97.787C48.5584,-108.578 68.3836,-125.88 88,-137 94.5174,-140.695 101.846,-143.94 108.953,-146.683"/>
<polygon fill="midnightblue" stroke="midnightblue" points="107.815,-149.993 118.41,-150.106 110.198,-143.411 107.815,-149.993"/>
</g>
<!-- Node3 -->
<g id="node3" class="node"><title>Node3</title>
<g id="a_node3"><a xlink:href="classSolverUtils_1_1GeoPrim_1_1CPoint_a3b195b867437acf8de45f48c83e81932.html#a3b195b867437acf8de45f48c83e81932" target="_top" xlink:title="SolverUtils::GeoPrim\l::CPoint::x">
<polygon fill="none" stroke="black" points="88.5,-98 88.5,-128 197.5,-128 197.5,-98 88.5,-98"/>
<text text-anchor="start" x="96.5" y="-116" font-family="Helvetica,sans-Serif" font-size="10.00">SolverUtils::GeoPrim</text>
<text text-anchor="middle" x="143" y="-105" font-family="Helvetica,sans-Serif" font-size="10.00">::CPoint::x</text>
</a>
</g>
</g>
<!-- Node1&#45;&gt;Node3 -->
<g id="edge2" class="edge"><title>Node1&#45;&gt;Node3</title>
<path fill="none" stroke="midnightblue" d="M52.2372,-93.4864C60.006,-95.1752 68.9366,-97.1166 78.0865,-99.1058"/>
<polygon fill="midnightblue" stroke="midnightblue" points="77.5413,-102.569 88.0566,-101.273 79.0284,-95.7287 77.5413,-102.569"/>
</g>
<!-- Node4 -->
<g id="node4" class="node"><title>Node4</title>
<g id="a_node4"><a xlink:href="classSolverUtils_1_1GeoPrim_1_1CPoint_ad927d9808ded1fc49c05ae9e1a3ed2a6.html#ad927d9808ded1fc49c05ae9e1a3ed2a6" target="_top" xlink:title="SolverUtils::GeoPrim\l::CPoint::y">
<polygon fill="none" stroke="black" points="88.5,-49 88.5,-79 197.5,-79 197.5,-49 88.5,-49"/>
<text text-anchor="start" x="96.5" y="-67" font-family="Helvetica,sans-Serif" font-size="10.00">SolverUtils::GeoPrim</text>
<text text-anchor="middle" x="143" y="-56" font-family="Helvetica,sans-Serif" font-size="10.00">::CPoint::y</text>
</a>
</g>
</g>
<!-- Node1&#45;&gt;Node4 -->
<g id="edge3" class="edge"><title>Node1&#45;&gt;Node4</title>
<path fill="none" stroke="midnightblue" d="M52.2372,-82.7331C60.006,-81.1118 68.9366,-79.248 78.0865,-77.3385"/>
<polygon fill="midnightblue" stroke="midnightblue" points="78.9826,-80.7269 88.0566,-75.2577 77.5525,-73.8746 78.9826,-80.7269"/>
</g>
<!-- Node5 -->
<g id="node5" class="node"><title>Node5</title>
<g id="a_node5"><a xlink:href="classSolverUtils_1_1GeoPrim_1_1CPoint_a2134ad02d68f29e9c7cd87e4cd4c75b8.html#a2134ad02d68f29e9c7cd87e4cd4c75b8" target="_top" xlink:title="SolverUtils::GeoPrim\l::CPoint::z">
<polygon fill="none" stroke="black" points="88.5,-0 88.5,-30 197.5,-30 197.5,-0 88.5,-0"/>
<text text-anchor="start" x="96.5" y="-18" font-family="Helvetica,sans-Serif" font-size="10.00">SolverUtils::GeoPrim</text>
<text text-anchor="middle" x="143" y="-7" font-family="Helvetica,sans-Serif" font-size="10.00">::CPoint::z</text>
</a>
</g>
</g>
<!-- Node1&#45;&gt;Node5 -->
<g id="edge4" class="edge"><title>Node1&#45;&gt;Node5</title>
<path fill="none" stroke="midnightblue" d="M37.6727,-78.3347C49.4247,-68.0038 69.1605,-51.5542 88,-40 90.9516,-38.1898 94.0559,-36.4251 97.2224,-34.725"/>
<polygon fill="midnightblue" stroke="midnightblue" points="98.9225,-37.7868 106.235,-30.1206 95.7379,-31.5531 98.9225,-37.7868"/>
</g>
</g>
</svg>
