<?xml version="1.0" encoding="UTF-8" standalone="no"?>
<!DOCTYPE svg PUBLIC "-//W3C//DTD SVG 1.1//EN"
 "http://www.w3.org/Graphics/SVG/1.1/DTD/svg11.dtd">
<!-- Generated by graphviz version 2.26.0 (20091210.2329)
 -->
<!-- Title: Run Pages: 1 -->
<svg width="420pt" height="134pt"
 viewBox="0.00 0.00 420.00 134.00" xmlns="http://www.w3.org/2000/svg" xmlns:xlink="http://www.w3.org/1999/xlink">
<g id="graph1" class="graph" transform="scale(1 1) rotate(0) translate(4 130)">
<title>Run</title>
<!-- Node1 -->
<g id="node1" class="node"><title>Node1</title>
<polygon fill="#bfbfbf" stroke="black" points="0.5,-58.5 0.5,-79.5 35.5,-79.5 35.5,-58.5 0.5,-58.5"/>
<text text-anchor="middle" x="18" y="-66.5" font-family="Helvetica,sans-Serif" font-size="10.00">Run</text>
</g>
<!-- Node2 -->
<g id="node3" class="node"><title>Node2</title>
<a xlink:href="classElmerFoamFSI_1_1SerialDriverProgram_aac704aea738c1edc384a97e51d60662b.html#aac704aea738c1edc384a97e51d60662b" target="_top" xlink:title="This function implements the main function executed by the program. ">
<polygon fill="none" stroke="black" points="72,-52 72,-86 212,-86 212,-52 72,-52"/>
<text text-anchor="start" x="80" y="-73" font-family="Helvetica,sans-Serif" font-size="10.00">ElmerFoamFSI::SerialDriver</text>
<text text-anchor="middle" x="142" y="-60" font-family="Helvetica,sans-Serif" font-size="10.00">Program::Run</text>
</a>
</g>
<!-- Node1&#45;&gt;Node2 -->
<g id="edge2" class="edge"><title>Node1&#45;&gt;Node2</title>
<path fill="none" stroke="midnightblue" d="M45.5446,-69C53.4667,-69 62.4885,-69 71.7606,-69"/>
<polygon fill="midnightblue" stroke="midnightblue" points="45.5032,-65.5001 35.5032,-69 45.5031,-72.5001 45.5032,-65.5001"/>
</g>
<!-- Node3 -->
<g id="node5" class="node"><title>Node3</title>
<a xlink:href="namespaceElmerFoamFSI_aff46f457934a8e2d3712bdbfb1688e99.html#aff46f457934a8e2d3712bdbfb1688e99" target="_top" xlink:title="Unified driver for the example programs. ">
<polygon fill="none" stroke="black" points="272.5,-104.5 272.5,-125.5 387.5,-125.5 387.5,-104.5 272.5,-104.5"/>
<text text-anchor="middle" x="330" y="-112.5" font-family="Helvetica,sans-Serif" font-size="10.00">ElmerFoamFSI::Driver</text>
</a>
</g>
<!-- Node2&#45;&gt;Node3 -->
<g id="edge4" class="edge"><title>Node2&#45;&gt;Node3</title>
<path fill="none" stroke="midnightblue" d="M221.085,-88.4101C230.161,-90.6341 239.282,-92.8676 248,-95 260.526,-98.0637 274.13,-101.384 286.59,-104.423"/>
<polygon fill="midnightblue" stroke="midnightblue" points="221.82,-84.9869 211.275,-86.0057 220.154,-91.7857 221.82,-84.9869"/>
</g>
<!-- Node4 -->
<g id="node7" class="node"><title>Node4</title>
<a xlink:href="namespaceElmerFoamFSI_1_1ExampleProgram_a51e123c8b200fe0d466698ff7429bba6.html#a51e123c8b200fe0d466698ff7429bba6" target="_top" xlink:title="Unified driver for the example programs. ">
<polygon fill="none" stroke="black" points="248,-52 248,-86 412,-86 412,-52 248,-52"/>
<text text-anchor="start" x="256" y="-73" font-family="Helvetica,sans-Serif" font-size="10.00">ElmerFoamFSI::ExampleProgram</text>
<text text-anchor="middle" x="330" y="-60" font-family="Helvetica,sans-Serif" font-size="10.00">::Driver</text>
</a>
</g>
<!-- Node2&#45;&gt;Node4 -->
<g id="edge6" class="edge"><title>Node2&#45;&gt;Node4</title>
<path fill="none" stroke="midnightblue" d="M222.258,-69C230.741,-69 239.378,-69 247.882,-69"/>
<polygon fill="midnightblue" stroke="midnightblue" points="222.004,-65.5001 212.004,-69 222.004,-72.5001 222.004,-65.5001"/>
</g>
<!-- Node5 -->
<g id="node9" class="node"><title>Node5</title>
<a xlink:href="namespaceElmerModuleDriver_1_1ExampleProgram_a945c2d21d14578304f149399117a364c.html#a945c2d21d14578304f149399117a364c" target="_top" xlink:title="Unified driver for the example programs. ">
<polygon fill="none" stroke="black" points="268,-0 268,-34 392,-34 392,-0 268,-0"/>
<text text-anchor="start" x="276" y="-21" font-family="Helvetica,sans-Serif" font-size="10.00">ElmerModuleDriver::</text>
<text text-anchor="middle" x="330" y="-8" font-family="Helvetica,sans-Serif" font-size="10.00">ExampleProgram::Driver</text>
</a>
</g>
<!-- Node2&#45;&gt;Node5 -->
<g id="edge8" class="edge"><title>Node2&#45;&gt;Node5</title>
<path fill="none" stroke="midnightblue" d="M213.204,-49.3053C231.342,-44.2885 250.684,-38.9384 268.303,-34.065"/>
<polygon fill="midnightblue" stroke="midnightblue" points="212.263,-45.934 203.558,-51.9733 214.129,-52.6807 212.263,-45.934"/>
</g>
</g>
</svg>
