<?xml version="1.0" encoding="UTF-8" standalone="no"?>
<!DOCTYPE svg PUBLIC "-//W3C//DTD SVG 1.1//EN"
 "http://www.w3.org/Graphics/SVG/1.1/DTD/svg11.dtd">
<!-- Generated by graphviz version 2.30.1 (20150305.2338)
 -->
<!-- Title: Unload Pages: 1 -->
<svg width="542pt" height="126pt"
 viewBox="0.00 0.00 542.00 126.00" xmlns="http://www.w3.org/2000/svg" xmlns:xlink="http://www.w3.org/1999/xlink">
<g id="graph0" class="graph" transform="scale(1 1) rotate(0) translate(4 122)">
<title>Unload</title>
<!-- Node1 -->
<g id="node1" class="node"><title>Node1</title>
<polygon fill="#bfbfbf" stroke="black" points="0.5,-49.5 0.5,-68.5 47.5,-68.5 47.5,-49.5 0.5,-49.5"/>
<text text-anchor="middle" x="24" y="-56.5" font-family="Helvetica,sans-Serif" font-size="10.00">Unload</text>
</g>
<!-- Node2 -->
<g id="node2" class="node"><title>Node2</title>
<g id="a_node2"><a xlink:href="com__c_09_09_8hpp_aee2bdea02bb47943444e452f62372e33.html#aee2bdea02bb47943444e452f62372e33" target="_top" xlink:title="COM_delete_window">
<polygon fill="none" stroke="black" points="84,-68.5 84,-87.5 194,-87.5 194,-68.5 84,-68.5"/>
<text text-anchor="middle" x="139" y="-75.5" font-family="Helvetica,sans-Serif" font-size="10.00">COM_delete_window</text>
</a>
</g>
</g>
<!-- Node1&#45;&gt;Node2 -->
<g id="edge1" class="edge"><title>Node1&#45;&gt;Node2</title>
<path fill="none" stroke="midnightblue" d="M47.5956,-62.7993C55.258,-64.0876 64.2406,-65.598 73.5162,-67.1576"/>
<polygon fill="midnightblue" stroke="midnightblue" points="73.2056,-70.6544 83.6475,-68.8611 74.3663,-63.7513 73.2056,-70.6544"/>
</g>
<!-- Node6 -->
<g id="node6" class="node"><title>Node6</title>
<g id="a_node6"><a xlink:href="com__c_09_09_8hpp_a51cd80e32371211a6a01185579eff4ee.html#a51cd80e32371211a6a01185579eff4ee" target="_top" xlink:title="COM_get_object">
<polygon fill="none" stroke="black" points="94,-30.5 94,-49.5 184,-49.5 184,-30.5 94,-30.5"/>
<text text-anchor="middle" x="139" y="-37.5" font-family="Helvetica,sans-Serif" font-size="10.00">COM_get_object</text>
</a>
</g>
</g>
<!-- Node1&#45;&gt;Node6 -->
<g id="edge5" class="edge"><title>Node1&#45;&gt;Node6</title>
<path fill="none" stroke="midnightblue" d="M47.5956,-55.2007C58.0648,-53.4404 70.9984,-51.2658 83.7765,-49.1172"/>
<polygon fill="midnightblue" stroke="midnightblue" points="84.6597,-52.5179 93.9409,-47.4082 83.4989,-45.6148 84.6597,-52.5179"/>
</g>
<!-- Node3 -->
<g id="node3" class="node"><title>Node3</title>
<g id="a_node3"><a xlink:href="COM__base_8hpp_a49353596e53127db61529b5c9000549d.html#a49353596e53127db61529b5c9000549d" target="_top" xlink:title="COM_get_com">
<polygon fill="none" stroke="black" points="252.5,-49.5 252.5,-68.5 335.5,-68.5 335.5,-49.5 252.5,-49.5"/>
<text text-anchor="middle" x="294" y="-56.5" font-family="Helvetica,sans-Serif" font-size="10.00">COM_get_com</text>
</a>
</g>
</g>
<!-- Node2&#45;&gt;Node3 -->
<g id="edge2" class="edge"><title>Node2&#45;&gt;Node3</title>
<path fill="none" stroke="midnightblue" d="M194.373,-71.2478C209.866,-69.3239 226.683,-67.2354 241.969,-65.3372"/>
<polygon fill="midnightblue" stroke="midnightblue" points="242.78,-68.7635 252.272,-64.0577 241.917,-61.8169 242.78,-68.7635"/>
</g>
<!-- Node5 -->
<g id="node5" class="node"><title>Node5</title>
<g id="a_node5"><a xlink:href="classCOM_1_1COM__base_ad19a2baf9f3506b153d077429ad0cf4c.html#ad19a2baf9f3506b153d077429ad0cf4c" target="_top" xlink:title="Deletes a window with given name. ">
<polygon fill="none" stroke="black" points="230,-88 230,-118 358,-118 358,-88 230,-88"/>
<text text-anchor="start" x="238" y="-106" font-family="Helvetica,sans-Serif" font-size="10.00">COM::COM_base::delete</text>
<text text-anchor="middle" x="294" y="-95" font-family="Helvetica,sans-Serif" font-size="10.00">_window</text>
</a>
</g>
</g>
<!-- Node2&#45;&gt;Node5 -->
<g id="edge4" class="edge"><title>Node2&#45;&gt;Node5</title>
<path fill="none" stroke="midnightblue" d="M194.373,-86.8845C202.645,-88.2362 211.295,-89.6496 219.889,-91.0537"/>
<polygon fill="midnightblue" stroke="midnightblue" points="219.49,-94.5349 229.924,-92.6934 220.619,-87.6265 219.49,-94.5349"/>
</g>
<!-- Node4 -->
<g id="node4" class="node"><title>Node4</title>
<g id="a_node4"><a xlink:href="classCOM_1_1COM__base_a77bb770b9ec1aac99361c45efbccabc1.html#a77bb770b9ec1aac99361c45efbccabc1" target="_top" xlink:title="Get a pointer to the COM object. ">
<polygon fill="none" stroke="black" points="394.5,-49.5 394.5,-68.5 533.5,-68.5 533.5,-49.5 394.5,-49.5"/>
<text text-anchor="middle" x="464" y="-56.5" font-family="Helvetica,sans-Serif" font-size="10.00">COM::COM_base::get_com</text>
</a>
</g>
</g>
<!-- Node3&#45;&gt;Node4 -->
<g id="edge3" class="edge"><title>Node3&#45;&gt;Node4</title>
<path fill="none" stroke="midnightblue" d="M335.668,-59C350.224,-59 367.17,-59 383.86,-59"/>
<polygon fill="midnightblue" stroke="midnightblue" points="384.195,-62.5001 394.195,-59 384.195,-55.5001 384.195,-62.5001"/>
</g>
<!-- Node6&#45;&gt;Node3 -->
<g id="edge6" class="edge"><title>Node6&#45;&gt;Node3</title>
<path fill="none" stroke="midnightblue" d="M184.254,-45.4956C202.349,-47.7427 223.39,-50.3557 242.117,-52.6811"/>
<polygon fill="midnightblue" stroke="midnightblue" points="241.893,-56.1802 252.248,-53.9393 242.756,-49.2336 241.893,-56.1802"/>
</g>
<!-- Node7 -->
<g id="node7" class="node"><title>Node7</title>
<g id="a_node7"><a xlink:href="classCOM_1_1COM__base_aec4f9e2e59d11104d344161f74803222.html#aec4f9e2e59d11104d344161f74803222" target="_top" xlink:title="Associates an object with a specific window. ">
<polygon fill="none" stroke="black" points="236.5,-0 236.5,-30 351.5,-30 351.5,-0 236.5,-0"/>
<text text-anchor="start" x="244.5" y="-18" font-family="Helvetica,sans-Serif" font-size="10.00">COM::COM_base::get</text>
<text text-anchor="middle" x="294" y="-7" font-family="Helvetica,sans-Serif" font-size="10.00">_object</text>
</a>
</g>
</g>
<!-- Node6&#45;&gt;Node7 -->
<g id="edge7" class="edge"><title>Node6&#45;&gt;Node7</title>
<path fill="none" stroke="midnightblue" d="M184.254,-32.769C197.321,-30.6338 211.925,-28.2475 226.084,-25.934"/>
<polygon fill="midnightblue" stroke="midnightblue" points="226.982,-29.3338 236.287,-24.2669 225.853,-22.4254 226.982,-29.3338"/>
</g>
</g>
</svg>
