<?xml version="1.0" encoding="UTF-8" standalone="no"?>
<!DOCTYPE svg PUBLIC "-//W3C//DTD SVG 1.1//EN"
 "http://www.w3.org/Graphics/SVG/1.1/DTD/svg11.dtd">
<!-- Generated by graphviz version 2.30.1 (20150305.2338)
 -->
<!-- Title: IcoFoamModule Pages: 1 -->
<svg width="314pt" height="38pt"
 viewBox="0.00 0.00 314.00 38.00" xmlns="http://www.w3.org/2000/svg" xmlns:xlink="http://www.w3.org/1999/xlink">
<g id="graph0" class="graph" transform="scale(1 1) rotate(0) translate(4 34)">
<title>IcoFoamModule</title>
<!-- Node1 -->
<g id="node1" class="node"><title>Node1</title>
<polygon fill="#bfbfbf" stroke="black" points="0,-5.5 0,-24.5 86,-24.5 86,-5.5 0,-5.5"/>
<text text-anchor="middle" x="43" y="-12.5" font-family="Helvetica,sans-Serif" font-size="10.00">IcoFoamModule</text>
</g>
<!-- Node2 -->
<g id="node2" class="node"><title>Node2</title>
<g id="a_node2"><a xlink:href="classIcoFoamMod_1_1IcoFoamModule_a0163351bbf2a7fe37cedf5d673bd3ded.html#a0163351bbf2a7fe37cedf5d673bd3ded" target="_top" xlink:title="&quot;Loads&quot; IcoFoamModule ">
<polygon fill="none" stroke="black" points="122,-5.5 122,-24.5 160,-24.5 160,-5.5 122,-5.5"/>
<text text-anchor="middle" x="141" y="-12.5" font-family="Helvetica,sans-Serif" font-size="10.00">Load</text>
</a>
</g>
</g>
<!-- Node1&#45;&gt;Node2 -->
<g id="edge1" class="edge"><title>Node1&#45;&gt;Node2</title>
<path fill="none" stroke="midnightblue" d="M96.1128,-15C105.32,-15 114.324,-15 121.756,-15"/>
<polygon fill="midnightblue" stroke="midnightblue" points="96.107,-11.5001 86.107,-15 96.107,-18.5001 96.107,-11.5001"/>
</g>
<!-- Node3 -->
<g id="node3" class="node"><title>Node3</title>
<g id="a_node3"><a xlink:href="icoFoamModule_8C_a6a4b606029cee6c85493fbaee4201ec5.html#a6a4b606029cee6c85493fbaee4201ec5" target="_top" xlink:title="C/C++ bindings to load IcoFoamModule. ">
<polygon fill="none" stroke="black" points="196,-0 196,-30 306,-30 306,-0 196,-0"/>
<text text-anchor="start" x="204" y="-18" font-family="Helvetica,sans-Serif" font-size="10.00">IcoFoamModule_load</text>
<text text-anchor="middle" x="251" y="-7" font-family="Helvetica,sans-Serif" font-size="10.00">_module</text>
</a>
</g>
</g>
<!-- Node2&#45;&gt;Node3 -->
<g id="edge2" class="edge"><title>Node2&#45;&gt;Node3</title>
<path fill="none" stroke="midnightblue" d="M170.33,-15C178.16,-15 186.929,-15 195.708,-15"/>
<polygon fill="midnightblue" stroke="midnightblue" points="170.321,-11.5001 160.321,-15 170.321,-18.5001 170.321,-11.5001"/>
</g>
</g>
</svg>
