<?xml version="1.0" encoding="UTF-8" standalone="no"?>
<!DOCTYPE svg PUBLIC "-//W3C//DTD SVG 1.1//EN"
 "http://www.w3.org/Graphics/SVG/1.1/DTD/svg11.dtd">
<!-- Generated by graphviz version 2.30.1 (20150305.2338)
 -->
<!-- Title: ND Pages: 1 -->
<svg width="318pt" height="66pt"
 viewBox="0.00 0.00 318.00 66.00" xmlns="http://www.w3.org/2000/svg" xmlns:xlink="http://www.w3.org/1999/xlink">
<g id="graph0" class="graph" transform="scale(1 1) rotate(0) translate(4 62)">
<title>ND</title>
<!-- Node1 -->
<g id="node1" class="node"><title>Node1</title>
<polygon fill="#bfbfbf" stroke="black" points="0,-19.5 0,-38.5 32,-38.5 32,-19.5 0,-19.5"/>
<text text-anchor="middle" x="16" y="-26.5" font-family="Helvetica,sans-Serif" font-size="10.00">ND</text>
</g>
<!-- Node2 -->
<g id="node2" class="node"><title>Node2</title>
<g id="a_node2"><a xlink:href="classSolverUtils_1_1Mesh_1_1BSExtent_a77f23a4f2ffc868999f0484fa6a169b1.html#a77f23a4f2ffc868999f0484fa6a169b1" target="_top" xlink:title="GetFlatIndices">
<polygon fill="none" stroke="black" points="68,-38.5 68,-57.5 148,-57.5 148,-38.5 68,-38.5"/>
<text text-anchor="middle" x="108" y="-45.5" font-family="Helvetica,sans-Serif" font-size="10.00">GetFlatIndices</text>
</a>
</g>
</g>
<!-- Node1&#45;&gt;Node2 -->
<g id="edge1" class="edge"><title>Node1&#45;&gt;Node2</title>
<path fill="none" stroke="midnightblue" d="M42.0914,-34.2971C50.1153,-35.991 59.197,-37.9083 67.9705,-39.7604"/>
<polygon fill="midnightblue" stroke="midnightblue" points="42.7746,-30.8642 32.2673,-32.2231 41.3286,-37.7133 42.7746,-30.8642"/>
</g>
<!-- Node4 -->
<g id="node4" class="node"><title>Node4</title>
<g id="a_node4"><a xlink:href="classSolverUtils_1_1Mesh_1_1BSExtent_a07810e59f71203421fdd43396a5e1b83.html#a07810e59f71203421fdd43396a5e1b83" target="_top" xlink:title="Overlap">
<polygon fill="none" stroke="black" points="83,-0.5 83,-19.5 133,-19.5 133,-0.5 83,-0.5"/>
<text text-anchor="middle" x="108" y="-7.5" font-family="Helvetica,sans-Serif" font-size="10.00">Overlap</text>
</a>
</g>
</g>
<!-- Node1&#45;&gt;Node4 -->
<g id="edge3" class="edge"><title>Node1&#45;&gt;Node4</title>
<path fill="none" stroke="midnightblue" d="M42.2074,-23.6784C54.919,-20.9949 70.262,-17.7558 82.8262,-15.1034"/>
<polygon fill="midnightblue" stroke="midnightblue" points="41.3286,-20.2867 32.2673,-25.7769 42.7746,-27.1358 41.3286,-20.2867"/>
</g>
<!-- Node3 -->
<g id="node3" class="node"><title>Node3</title>
<g id="a_node3"><a xlink:href="classSolverUtils_1_1Mesh_1_1BSExtent_ad3d3d5147d6ab85f799387d5fbe18697.html#ad3d3d5147d6ab85f799387d5fbe18697" target="_top" xlink:title="CreateUnstructuredMesh">
<polygon fill="none" stroke="black" points="184,-38.5 184,-57.5 310,-57.5 310,-38.5 184,-38.5"/>
<text text-anchor="middle" x="247" y="-45.5" font-family="Helvetica,sans-Serif" font-size="10.00">CreateUnstructuredMesh</text>
</a>
</g>
</g>
<!-- Node2&#45;&gt;Node3 -->
<g id="edge2" class="edge"><title>Node2&#45;&gt;Node3</title>
<path fill="none" stroke="midnightblue" d="M158.484,-48C166.758,-48 175.434,-48 183.975,-48"/>
<polygon fill="midnightblue" stroke="midnightblue" points="158.259,-44.5001 148.259,-48 158.259,-51.5001 158.259,-44.5001"/>
</g>
<!-- Node5 -->
<g id="node5" class="node"><title>Node5</title>
<g id="a_node5"><a xlink:href="classSolverUtils_1_1Mesh_1_1BSExtent_a5f6f24dcff5a481d2216db056a66193f.html#a5f6f24dcff5a481d2216db056a66193f" target="_top" xlink:title="FindSharedNodes">
<polygon fill="none" stroke="black" points="199.5,-0.5 199.5,-19.5 294.5,-19.5 294.5,-0.5 199.5,-0.5"/>
<text text-anchor="middle" x="247" y="-7.5" font-family="Helvetica,sans-Serif" font-size="10.00">FindSharedNodes</text>
</a>
</g>
</g>
<!-- Node4&#45;&gt;Node5 -->
<g id="edge4" class="edge"><title>Node4&#45;&gt;Node5</title>
<path fill="none" stroke="midnightblue" d="M143.204,-10C160.18,-10 180.945,-10 199.357,-10"/>
<polygon fill="midnightblue" stroke="midnightblue" points="143.178,-6.5001 133.177,-10 143.177,-13.5001 143.178,-6.5001"/>
</g>
</g>
</svg>
