<?xml version="1.0" encoding="UTF-8" standalone="no"?>
<!DOCTYPE svg PUBLIC "-//W3C//DTD SVG 1.1//EN"
 "http://www.w3.org/Graphics/SVG/1.1/DTD/svg11.dtd">
<!-- Generated by graphviz version 2.30.1 (20150305.2338)
 -->
<!-- Title: GlobalObj&lt; StackType, ErrorType, ProfilerType &gt; Pages: 1 -->
<svg width="776pt" height="197pt"
 viewBox="0.00 0.00 776.00 197.00" xmlns="http://www.w3.org/2000/svg" xmlns:xlink="http://www.w3.org/1999/xlink">
<g id="graph0" class="graph" transform="scale(1 1) rotate(0) translate(4 193)">
<title>GlobalObj&lt; StackType, ErrorType, ProfilerType &gt;</title>
<!-- Node1 -->
<g id="node1" class="node"><title>Node1</title>
<polygon fill="#bfbfbf" stroke="black" points="0,-104 0,-134 130,-134 130,-104 0,-104"/>
<text text-anchor="start" x="8" y="-122" font-family="Helvetica,sans-Serif" font-size="10.00">GlobalObj&lt; StackType,</text>
<text text-anchor="middle" x="65" y="-111" font-family="Helvetica,sans-Serif" font-size="10.00"> ErrorType, ProfilerType &gt;</text>
</g>
<!-- Node2 -->
<g id="node2" class="node"><title>Node2</title>
<g id="a_node2"><a xlink:href="classfsicoupling.html" target="_top" xlink:title="fsicoupling\&lt; StackType,\l int, ProfilerType \&gt;">
<polygon fill="none" stroke="black" points="280,-159 280,-189 402,-189 402,-159 280,-159"/>
<text text-anchor="start" x="288" y="-177" font-family="Helvetica,sans-Serif" font-size="10.00">fsicoupling&lt; StackType,</text>
<text text-anchor="middle" x="341" y="-166" font-family="Helvetica,sans-Serif" font-size="10.00"> int, ProfilerType &gt;</text>
</a>
</g>
</g>
<!-- Node1&#45;&gt;Node2 -->
<g id="edge1" class="edge"><title>Node1&#45;&gt;Node2</title>
<path fill="none" stroke="midnightblue" d="M140.27,-133.908C184.09,-142.704 238.829,-153.692 279.915,-161.939"/>
<polygon fill="midnightblue" stroke="midnightblue" points="140.734,-130.432 130.241,-131.895 139.356,-137.295 140.734,-130.432"/>
</g>
<!-- Node3 -->
<g id="node3" class="node"><title>Node3</title>
<g id="a_node3"><a xlink:href="classIRAD_1_1Global_1_1ParallelGlobalObj.html" target="_top" xlink:title="ParallelGlobalObj\&lt;\l StackType, ErrorType,\l ProfilerType \&gt;">
<polygon fill="none" stroke="black" points="281.5,-98.5 281.5,-139.5 400.5,-139.5 400.5,-98.5 281.5,-98.5"/>
<text text-anchor="start" x="289.5" y="-127.5" font-family="Helvetica,sans-Serif" font-size="10.00">ParallelGlobalObj&lt;</text>
<text text-anchor="start" x="289.5" y="-116.5" font-family="Helvetica,sans-Serif" font-size="10.00"> StackType, ErrorType,</text>
<text text-anchor="middle" x="341" y="-105.5" font-family="Helvetica,sans-Serif" font-size="10.00"> ProfilerType &gt;</text>
</a>
</g>
</g>
<!-- Node1&#45;&gt;Node3 -->
<g id="edge2" class="edge"><title>Node1&#45;&gt;Node3</title>
<path fill="none" stroke="midnightblue" d="M140.378,-119C184.675,-119 240.101,-119 281.303,-119"/>
<polygon fill="midnightblue" stroke="midnightblue" points="140.241,-115.5 130.241,-119 140.241,-122.5 140.241,-115.5"/>
</g>
<!-- Node5 -->
<g id="node5" class="node"><title>Node5</title>
<g id="a_node5"><a xlink:href="classIRAD_1_1Global_1_1GlobalObj.html" target="_top" xlink:title="GlobalObj\&lt; StackType,\l int, ProfilerType \&gt;">
<polygon fill="none" stroke="black" points="281.5,-49 281.5,-79 400.5,-79 400.5,-49 281.5,-49"/>
<text text-anchor="start" x="289.5" y="-67" font-family="Helvetica,sans-Serif" font-size="10.00">GlobalObj&lt; StackType,</text>
<text text-anchor="middle" x="341" y="-56" font-family="Helvetica,sans-Serif" font-size="10.00"> int, ProfilerType &gt;</text>
</a>
</g>
</g>
<!-- Node1&#45;&gt;Node5 -->
<g id="edge4" class="edge"><title>Node1&#45;&gt;Node5</title>
<path fill="none" stroke="orange" stroke-dasharray="5,2" d="M118.897,-100.891C128.509,-97.9836 138.499,-95.2093 148,-93 192.164,-82.7303 242.92,-75.2468 281.15,-70.4566"/>
<polygon fill="orange" stroke="orange" points="117.565,-97.6398 109.054,-103.95 119.643,-104.324 117.565,-97.6398"/>
<text text-anchor="start" x="148.5" y="-107" font-family="Helvetica,sans-Serif" font-size="10.00"> &lt; StackType, int, Profiler</text>
<text text-anchor="middle" x="205" y="-96" font-family="Helvetica,sans-Serif" font-size="10.00">Type &gt;</text>
</g>
<!-- Node4 -->
<g id="node4" class="node"><title>Node4</title>
<g id="a_node4"><a xlink:href="classfsicouplingpar.html" target="_top" xlink:title="fsicouplingpar\&lt; CommType\lIrad, StackType, int,\l ProfilerType \&gt;">
<polygon fill="none" stroke="black" points="440.5,-98.5 440.5,-139.5 577.5,-139.5 577.5,-98.5 440.5,-98.5"/>
<text text-anchor="start" x="448.5" y="-127.5" font-family="Helvetica,sans-Serif" font-size="10.00">fsicouplingpar&lt; CommType</text>
<text text-anchor="start" x="448.5" y="-116.5" font-family="Helvetica,sans-Serif" font-size="10.00">Irad, StackType, int,</text>
<text text-anchor="middle" x="509" y="-105.5" font-family="Helvetica,sans-Serif" font-size="10.00"> ProfilerType &gt;</text>
</a>
</g>
</g>
<!-- Node3&#45;&gt;Node4 -->
<g id="edge3" class="edge"><title>Node3&#45;&gt;Node4</title>
<path fill="none" stroke="midnightblue" d="M410.637,-119C420.459,-119 430.557,-119 440.36,-119"/>
<polygon fill="midnightblue" stroke="midnightblue" points="410.525,-115.5 400.525,-119 410.525,-122.5 410.525,-115.5"/>
</g>
<!-- Node6 -->
<g id="node6" class="node"><title>Node6</title>
<g id="a_node6"><a xlink:href="classIRAD_1_1Global_1_1Program.html" target="_top" xlink:title="Program\&lt; GlobalType,\l ComLineType \&gt;">
<polygon fill="none" stroke="black" points="451.5,-49 451.5,-79 566.5,-79 566.5,-49 451.5,-49"/>
<text text-anchor="start" x="459.5" y="-67" font-family="Helvetica,sans-Serif" font-size="10.00">Program&lt; GlobalType,</text>
<text text-anchor="middle" x="509" y="-56" font-family="Helvetica,sans-Serif" font-size="10.00"> ComLineType &gt;</text>
</a>
</g>
</g>
<!-- Node5&#45;&gt;Node6 -->
<g id="edge5" class="edge"><title>Node5&#45;&gt;Node6</title>
<path fill="none" stroke="midnightblue" d="M410.745,-64C424.273,-64 438.323,-64 451.397,-64"/>
<polygon fill="midnightblue" stroke="midnightblue" points="410.525,-60.5001 400.525,-64 410.525,-67.5001 410.525,-60.5001"/>
</g>
<!-- Node7 -->
<g id="node7" class="node"><title>Node7</title>
<g id="a_node7"><a xlink:href="classElmerFoamFSI_1_1ExampleProgram_1_1SerialProgram.html" target="_top" xlink:title="Implementation of the basic parts of the serial program example. ">
<polygon fill="none" stroke="black" points="622,-98 622,-128 762,-128 762,-98 622,-98"/>
<text text-anchor="start" x="630" y="-116" font-family="Helvetica,sans-Serif" font-size="10.00">SerialProgram&lt; GlobalType,</text>
<text text-anchor="middle" x="692" y="-105" font-family="Helvetica,sans-Serif" font-size="10.00"> ComLineType &gt;</text>
</a>
</g>
</g>
<!-- Node6&#45;&gt;Node7 -->
<g id="edge6" class="edge"><title>Node6&#45;&gt;Node7</title>
<path fill="none" stroke="midnightblue" d="M575.561,-81.7485C595.177,-87.0591 616.49,-92.8288 635.401,-97.9484"/>
<polygon fill="midnightblue" stroke="midnightblue" points="576.35,-78.3362 565.783,-79.1014 574.521,-85.093 576.35,-78.3362"/>
</g>
<!-- Node8 -->
<g id="node8" class="node"><title>Node8</title>
<g id="a_node8"><a xlink:href="classElmerFoamFSI_1_1SerialDriverProgram.html" target="_top" xlink:title="Implementation of the basic parts of the serial program example. ">
<polygon fill="none" stroke="black" points="616.5,-49 616.5,-79 767.5,-79 767.5,-49 616.5,-49"/>
<text text-anchor="start" x="624.5" y="-67" font-family="Helvetica,sans-Serif" font-size="10.00">SerialDriverProgram</text>
<text text-anchor="middle" x="692" y="-56" font-family="Helvetica,sans-Serif" font-size="10.00">&lt; GlobalType, ComLineType &gt;</text>
</a>
</g>
</g>
<!-- Node6&#45;&gt;Node8 -->
<g id="edge7" class="edge"><title>Node6&#45;&gt;Node8</title>
<path fill="none" stroke="midnightblue" d="M576.936,-64C589.818,-64 603.385,-64 616.491,-64"/>
<polygon fill="midnightblue" stroke="midnightblue" points="576.773,-60.5001 566.773,-64 576.773,-67.5001 576.773,-60.5001"/>
</g>
<!-- Node9 -->
<g id="node9" class="node"><title>Node9</title>
<g id="a_node9"><a xlink:href="classElmerModuleDriver_1_1ExampleProgram_1_1SerialProgram.html" target="_top" xlink:title="Implementation of the basic parts of the serial program example. ">
<polygon fill="none" stroke="black" points="622,-0 622,-30 762,-30 762,-0 622,-0"/>
<text text-anchor="start" x="630" y="-18" font-family="Helvetica,sans-Serif" font-size="10.00">SerialProgram&lt; GlobalType,</text>
<text text-anchor="middle" x="692" y="-7" font-family="Helvetica,sans-Serif" font-size="10.00"> ComLineType &gt;</text>
</a>
</g>
</g>
<!-- Node6&#45;&gt;Node9 -->
<g id="edge8" class="edge"><title>Node6&#45;&gt;Node9</title>
<path fill="none" stroke="midnightblue" d="M575.561,-46.2515C595.177,-40.9409 616.49,-35.1712 635.401,-30.0516"/>
<polygon fill="midnightblue" stroke="midnightblue" points="574.521,-42.907 565.783,-48.8986 576.35,-49.6638 574.521,-42.907"/>
</g>
</g>
</svg>
