<?xml version="1.0" encoding="UTF-8" standalone="no"?>
<!DOCTYPE svg PUBLIC "-//W3C//DTD SVG 1.1//EN"
 "http://www.w3.org/Graphics/SVG/1.1/DTD/svg11.dtd">
<!-- Generated by graphviz version 2.30.1 (20150305.2338)
 -->
<!-- Title: get_incident_ghost_edge Pages: 1 -->
<!--zoomable 507 -->
<svg id="main" version="1.1" xmlns="http://www.w3.org/2000/svg" xmlns:xlink="http://www.w3.org/1999/xlink" xml:space="preserve" onload="init(evt)">
<style type="text/css"><![CDATA[
.edge:hover path { stroke: red; }
.edge:hover polygon { stroke: red; fill: red; }
]]></style>
<script type="text/javascript"><![CDATA[
var edges = document.getElementsByTagName('g');
if (edges && edges.length) {
  for (var i=0;i<edges.length;i++) {
    if (edges[i].id.substr(0,4)=='edge') {
      edges[i].setAttribute('class','edge');
    }
  }
}
]]></script>
        <defs>
                <circle id="rim" cx="0" cy="0" r="7"/>
                <circle id="rim2" cx="0" cy="0" r="3.5"/>
                <g id="zoomPlus">
                        <use xlink:href="#rim" fill="#404040">
                                <set attributeName="fill" to="#808080" begin="zoomplus.mouseover" end="zoomplus.mouseout"/>
                        </use>
                        <path d="M-4,0h8M0,-4v8" fill="none" stroke="white" stroke-width="1.5" pointer-events="none"/>
                </g>
                <g id="zoomMin">
                        <use xlink:href="#rim" fill="#404040">
                                <set attributeName="fill" to="#808080" begin="zoomminus.mouseover" end="zoomminus.mouseout"/>
                        </use>
                        <path d="M-4,0h8" fill="none" stroke="white" stroke-width="1.5" pointer-events="none"/>
                </g>
                <g id="dirArrow">
                        <path fill="none" stroke="white" stroke-width="1.5" d="M0,-3.0v7 M-2.5,-0.5L0,-3.0L2.5,-0.5"/>
                </g>
               <g id="resetDef">
                       <use xlink:href="#rim2" fill="#404040">
                               <set attributeName="fill" to="#808080" begin="reset.mouseover" end="reset.mouseout"/>
                       </use>
               </g>
        </defs>

<script type="text/javascript">
var viewWidth = 690;
var viewHeight = 507;
var sectionId = 'dynsection-0';
</script>
<script xlink:href="svgpan.js"/>
<svg id="graph" class="graph">
<g id="viewport">
<title>get_incident_ghost_edge</title>
<!-- Node1 -->
<g id="node1" class="node"><title>Node1</title>
<polygon fill="#bfbfbf" stroke="black" points="0.5,-158.5 0.5,-177.5 125.5,-177.5 125.5,-158.5 0.5,-158.5"/>
<text text-anchor="middle" x="63" y="-165.5" font-family="Helvetica,sans-Serif" font-size="10.00">get_incident_ghost_edge</text>
</g>
<!-- Node2 -->
<g id="node2" class="node"><title>Node2</title>
<g id="a_node2"><a xlink:href="classFacet__ID_a1dea367be190d5726e3aa6b8d0c47076.html#a1dea367be190d5726e3aa6b8d0c47076" target="_top" xlink:title="Element ID of the halfedge. ">
<polygon fill="none" stroke="black" points="606,-304.5 606,-323.5 682,-323.5 682,-304.5 606,-304.5"/>
<text text-anchor="middle" x="644" y="-311.5" font-family="Helvetica,sans-Serif" font-size="10.00">Facet_ID::eid</text>
</a>
</g>
</g>
<!-- Node1&#45;&gt;Node2 -->
<g id="edge1" class="edge"><title>Node1&#45;&gt;Node2</title>
<path fill="none" stroke="midnightblue" d="M80.7581,-158.406C149.963,-120.183 417.031,13.3819 570,-109 628.244,-155.598 640.069,-252.256 642.431,-294.04"/>
<polygon fill="midnightblue" stroke="midnightblue" points="638.945,-294.445 642.877,-304.283 645.939,-294.14 638.945,-294.445"/>
</g>
<!-- Node3 -->
<g id="node3" class="node"><title>Node3</title>
<g id="a_node3"><a xlink:href="classSimple__manifold__2_a5a0839973515aaf6ec86f3e88d6e1034.html#a5a0839973515aaf6ec86f3e88d6e1034" target="_top" xlink:title="get_next_real_edge\l_interior">
<polygon fill="none" stroke="black" points="323.5,-469 323.5,-499 424.5,-499 424.5,-469 323.5,-469"/>
<text text-anchor="start" x="331.5" y="-487" font-family="Helvetica,sans-Serif" font-size="10.00">get_next_real_edge</text>
<text text-anchor="middle" x="374" y="-476" font-family="Helvetica,sans-Serif" font-size="10.00">_interior</text>
</a>
</g>
</g>
<!-- Node1&#45;&gt;Node3 -->
<g id="edge2" class="edge"><title>Node1&#45;&gt;Node3</title>
<path fill="none" stroke="midnightblue" d="M67.8198,-177.79C78.9716,-205.46 113.77,-285.624 162,-338 212.956,-393.336 288.497,-439.196 334.017,-464.004"/>
<polygon fill="midnightblue" stroke="midnightblue" points="332.515,-467.17 342.98,-468.828 335.833,-461.006 332.515,-467.17"/>
</g>
<!-- Node7 -->
<g id="node7" class="node"><title>Node7</title>
<g id="a_node7"><a xlink:href="classSimple__manifold__2_aaadb5ad421b2b96276a92c40c3331517.html#aaadb5ad421b2b96276a92c40c3331517" target="_top" xlink:title="Get the opposite edge of a border edge for the real pane. ">
<polygon fill="none" stroke="black" points="162.5,-153 162.5,-183 281.5,-183 281.5,-153 162.5,-153"/>
<text text-anchor="start" x="170.5" y="-171" font-family="Helvetica,sans-Serif" font-size="10.00">get_opposite_real_edge</text>
<text text-anchor="middle" x="222" y="-160" font-family="Helvetica,sans-Serif" font-size="10.00">_border</text>
</a>
</g>
</g>
<!-- Node1&#45;&gt;Node7 -->
<g id="edge9" class="edge"><title>Node1&#45;&gt;Node7</title>
<path fill="none" stroke="midnightblue" d="M125.6,-168C134.306,-168 143.303,-168 152.135,-168"/>
<polygon fill="midnightblue" stroke="midnightblue" points="152.4,-171.5 162.4,-168 152.4,-164.5 152.4,-171.5"/>
</g>
<!-- Node10 -->
<g id="node10" class="node"><title>Node10</title>
<g id="a_node10"><a xlink:href="classSimple__manifold__2_a97484283cf37c9ffd5d002c22335d5db.html#a97484283cf37c9ffd5d002c22335d5db" target="_top" xlink:title="Get the opposite edge of an interior edge of the real part. ">
<polygon fill="none" stroke="black" points="162.5,-299 162.5,-329 281.5,-329 281.5,-299 162.5,-299"/>
<text text-anchor="start" x="170.5" y="-317" font-family="Helvetica,sans-Serif" font-size="10.00">get_opposite_real_edge</text>
<text text-anchor="middle" x="222" y="-306" font-family="Helvetica,sans-Serif" font-size="10.00">_interior</text>
</a>
</g>
</g>
<!-- Node1&#45;&gt;Node10 -->
<g id="edge14" class="edge"><title>Node1&#45;&gt;Node10</title>
<path fill="none" stroke="midnightblue" d="M74.3012,-177.579C99.0995,-200.64 162.631,-259.721 197.397,-292.051"/>
<polygon fill="midnightblue" stroke="midnightblue" points="195.056,-294.653 204.762,-298.9 199.823,-289.527 195.056,-294.653"/>
</g>
<!-- Node8 -->
<g id="node8" class="node"><title>Node8</title>
<g id="a_node8"><a xlink:href="classFacet__ID_aa126fd94949c810d24869ad04cd97e15.html#aa126fd94949c810d24869ad04cd97e15" target="_top" xlink:title="Determines whether the facet is on border. ">
<polygon fill="none" stroke="black" points="466.5,-247.5 466.5,-266.5 569.5,-266.5 569.5,-247.5 466.5,-247.5"/>
<text text-anchor="middle" x="518" y="-254.5" font-family="Helvetica,sans-Serif" font-size="10.00">Facet_ID::is_border</text>
</a>
</g>
</g>
<!-- Node1&#45;&gt;Node8 -->
<g id="edge25" class="edge"><title>Node1&#45;&gt;Node8</title>
<path fill="none" stroke="midnightblue" d="M100.646,-177.519C119.007,-182.149 141.616,-187.642 162,-192 264.783,-213.975 385.295,-235.061 456.168,-246.987"/>
<polygon fill="midnightblue" stroke="midnightblue" points="455.816,-250.477 466.257,-248.679 456.974,-243.573 455.816,-250.477"/>
</g>
<!-- Node12 -->
<g id="node12" class="node"><title>Node12</title>
<g id="a_node12"><a xlink:href="classSimple__manifold__2_a219c54c922bc32a373e463ccb5d683c8.html#a219c54c922bc32a373e463ccb5d683c8" target="_top" xlink:title="Determine whether a given edge is a border edge of ghost part of the pane (either on physical border ...">
<polygon fill="none" stroke="black" points="318,-114.5 318,-133.5 430,-133.5 430,-114.5 318,-114.5"/>
<text text-anchor="middle" x="374" y="-121.5" font-family="Helvetica,sans-Serif" font-size="10.00">is_ghost_border_edge</text>
</a>
</g>
</g>
<!-- Node1&#45;&gt;Node12 -->
<g id="edge26" class="edge"><title>Node1&#45;&gt;Node12</title>
<path fill="none" stroke="midnightblue" d="M95.9426,-158.472C114.965,-153.146 139.675,-146.827 162,-143 210.393,-134.703 265.691,-129.893 307.534,-127.189"/>
<polygon fill="midnightblue" stroke="midnightblue" points="307.835,-130.677 317.598,-126.562 307.4,-123.691 307.835,-130.677"/>
</g>
<!-- Node13 -->
<g id="node13" class="node"><title>Node13</title>
<g id="a_node13"><a xlink:href="classSimple__manifold__2_ab10e70cbf6e6aeedb1e3dd1cab81ebf8.html#ab10e70cbf6e6aeedb1e3dd1cab81ebf8" target="_top" xlink:title="Is the given node a ghost node? ">
<polygon fill="none" stroke="black" points="182,-0.5 182,-19.5 262,-19.5 262,-0.5 182,-0.5"/>
<text text-anchor="middle" x="222" y="-7.5" font-family="Helvetica,sans-Serif" font-size="10.00">is_ghost_node</text>
</a>
</g>
</g>
<!-- Node1&#45;&gt;Node13 -->
<g id="edge29" class="edge"><title>Node1&#45;&gt;Node13</title>
<path fill="none" stroke="midnightblue" d="M68.5734,-158.493C80.601,-134.414 115.427,-70.3579 162,-34 167.091,-30.0256 172.93,-26.6155 178.911,-23.7191"/>
<polygon fill="midnightblue" stroke="midnightblue" points="180.587,-26.8056 188.339,-19.583 177.775,-20.3954 180.587,-26.8056"/>
</g>
<!-- Node3&#45;&gt;Node2 -->
<g id="edge3" class="edge"><title>Node3&#45;&gt;Node2</title>
<path fill="none" stroke="midnightblue" d="M424.51,-479.433C474.436,-473.991 547.278,-463.504 570,-447 608.929,-418.726 629.47,-363.087 638.044,-333.529"/>
<polygon fill="midnightblue" stroke="midnightblue" points="641.5,-334.158 640.758,-323.59 634.748,-332.315 641.5,-334.158"/>
</g>
<!-- Node4 -->
<g id="node4" class="node"><title>Node4</title>
<g id="a_node4"><a xlink:href="classSimple__manifold__2_a678219ca5d2b29febb0820f195f668ba.html#a678219ca5d2b29febb0820f195f668ba" target="_top" xlink:title="Get an index for internal edges. ">
<polygon fill="none" stroke="black" points="475.5,-418.5 475.5,-437.5 560.5,-437.5 560.5,-418.5 475.5,-418.5"/>
<text text-anchor="middle" x="518" y="-425.5" font-family="Helvetica,sans-Serif" font-size="10.00">get_edge_index</text>
</a>
</g>
</g>
<!-- Node3&#45;&gt;Node4 -->
<g id="edge4" class="edge"><title>Node3&#45;&gt;Node4</title>
<path fill="none" stroke="midnightblue" d="M413.053,-468.993C434.897,-460.379 462.087,-449.656 483.178,-441.338"/>
<polygon fill="midnightblue" stroke="midnightblue" points="484.677,-444.51 492.695,-437.585 482.108,-437.998 484.677,-444.51"/>
</g>
<!-- Node6 -->
<g id="node6" class="node"><title>Node6</title>
<g id="a_node6"><a xlink:href="classSimple__manifold__2_ab06c9b0093094a1e15b3c1d91b6d7012.html#ab06c9b0093094a1e15b3c1d91b6d7012" target="_top" xlink:title="Is the element incident on the give edge a ghost element? ">
<polygon fill="none" stroke="black" points="471.5,-380.5 471.5,-399.5 564.5,-399.5 564.5,-380.5 471.5,-380.5"/>
<text text-anchor="middle" x="518" y="-387.5" font-family="Helvetica,sans-Serif" font-size="10.00">is_ghost_element</text>
</a>
</g>
</g>
<!-- Node3&#45;&gt;Node6 -->
<g id="edge7" class="edge"><title>Node3&#45;&gt;Node6</title>
<path fill="none" stroke="midnightblue" d="M390.227,-468.702C407.391,-452.151 436.735,-425.872 466,-409 469.447,-407.013 473.14,-405.165 476.905,-403.465"/>
<polygon fill="midnightblue" stroke="midnightblue" points="478.425,-406.623 486.311,-399.548 475.734,-400.161 478.425,-406.623"/>
</g>
<!-- Node5 -->
<g id="node5" class="node"><title>Node5</title>
<g id="a_node5"><a xlink:href="classFacet__ID_ae7df635a2e18521c31e7da0b999b802b.html#ae7df635a2e18521c31e7da0b999b802b" target="_top" xlink:title="Local edge ID of the halfedge within its element. ">
<polygon fill="none" stroke="black" points="607.5,-418.5 607.5,-437.5 680.5,-437.5 680.5,-418.5 607.5,-418.5"/>
<text text-anchor="middle" x="644" y="-425.5" font-family="Helvetica,sans-Serif" font-size="10.00">Facet_ID::lid</text>
</a>
</g>
</g>
<!-- Node3&#45;&gt;Node5 -->
<g id="edge8" class="edge"><title>Node3&#45;&gt;Node5</title>
<path fill="none" stroke="midnightblue" d="M424.841,-490.913C465.074,-494.635 522.586,-495.698 570,-480 591.53,-472.872 612.207,-457.005 626.023,-444.66"/>
<polygon fill="midnightblue" stroke="midnightblue" points="628.743,-446.91 633.685,-437.539 623.978,-441.783 628.743,-446.91"/>
</g>
<!-- Node4&#45;&gt;Node2 -->
<g id="edge5" class="edge"><title>Node4&#45;&gt;Node2</title>
<path fill="none" stroke="midnightblue" d="M552.754,-418.485C558.811,-415.947 564.832,-412.817 570,-409 598.166,-388.199 620.855,-353.676 633.091,-332.472"/>
<polygon fill="midnightblue" stroke="midnightblue" points="636.278,-333.944 638.098,-323.507 630.166,-330.531 636.278,-333.944"/>
</g>
<!-- Node4&#45;&gt;Node5 -->
<g id="edge6" class="edge"><title>Node4&#45;&gt;Node5</title>
<path fill="none" stroke="midnightblue" d="M560.635,-428C572.389,-428 585.242,-428 597.225,-428"/>
<polygon fill="midnightblue" stroke="midnightblue" points="597.482,-431.5 607.482,-428 597.482,-424.5 597.482,-431.5"/>
</g>
<!-- Node7&#45;&gt;Node2 -->
<g id="edge10" class="edge"><title>Node7&#45;&gt;Node2</title>
<path fill="none" stroke="midnightblue" d="M239.275,-152.784C257.046,-137.305 287.115,-114.31 318,-105 365.659,-90.6332 381.3,-94.6988 430,-105 496.578,-119.083 520.833,-119.952 570,-167 607.954,-203.319 629.102,-263.565 637.966,-294.44"/>
<polygon fill="midnightblue" stroke="midnightblue" points="634.672,-295.663 640.684,-304.387 641.424,-293.818 634.672,-295.663"/>
</g>
<!-- Node7&#45;&gt;Node8 -->
<g id="edge11" class="edge"><title>Node7&#45;&gt;Node8</title>
<path fill="none" stroke="midnightblue" d="M281.909,-161.84C324.609,-159.685 382.881,-161.611 430,-181 460.284,-193.461 487.329,-220.944 502.947,-239.217"/>
<polygon fill="midnightblue" stroke="midnightblue" points="500.592,-241.862 509.66,-247.342 505.989,-237.403 500.592,-241.862"/>
</g>
<!-- Node9 -->
<g id="node9" class="node"><title>Node9</title>
<g id="a_node9"><a xlink:href="classSimple__manifold__2_ae1611b1b5b6feb95d11d299ef4150866.html#ae1611b1b5b6feb95d11d299ef4150866" target="_top" xlink:title="Is the element incident on the give edge a real element? ">
<polygon fill="none" stroke="black" points="331.5,-190.5 331.5,-209.5 416.5,-209.5 416.5,-190.5 331.5,-190.5"/>
<text text-anchor="middle" x="374" y="-197.5" font-family="Helvetica,sans-Serif" font-size="10.00">is_real_element</text>
</a>
</g>
</g>
<!-- Node7&#45;&gt;Node9 -->
<g id="edge13" class="edge"><title>Node7&#45;&gt;Node9</title>
<path fill="none" stroke="midnightblue" d="M281.853,-180.555C294.936,-183.346 308.706,-186.284 321.468,-189.007"/>
<polygon fill="midnightblue" stroke="midnightblue" points="320.945,-192.474 331.455,-191.137 322.405,-185.628 320.945,-192.474"/>
</g>
<!-- Node8&#45;&gt;Node5 -->
<g id="edge12" class="edge"><title>Node8&#45;&gt;Node5</title>
<path fill="none" stroke="midnightblue" d="M526.022,-266.684C546.057,-294.313 603.727,-373.842 629.855,-409.873"/>
<polygon fill="midnightblue" stroke="midnightblue" points="627.351,-412.382 636.055,-418.423 633.018,-408.272 627.351,-412.382"/>
</g>
<!-- Node10&#45;&gt;Node2 -->
<g id="edge15" class="edge"><title>Node10&#45;&gt;Node2</title>
<path fill="none" stroke="midnightblue" d="M281.841,-314C365.825,-314 518.425,-314 595.598,-314"/>
<polygon fill="midnightblue" stroke="midnightblue" points="595.971,-317.5 605.971,-314 595.971,-310.5 595.971,-317.5"/>
</g>
<!-- Node10&#45;&gt;Node4 -->
<g id="edge16" class="edge"><title>Node10&#45;&gt;Node4</title>
<path fill="none" stroke="midnightblue" d="M234.212,-329.339C250.237,-349.963 281.789,-386.002 318,-403 364.492,-424.824 423.472,-429.799 465.116,-430.095"/>
<polygon fill="midnightblue" stroke="midnightblue" points="465.317,-433.595 475.311,-430.077 465.305,-426.595 465.317,-433.595"/>
</g>
<!-- Node11 -->
<g id="node11" class="node"><title>Node11</title>
<g id="a_node11"><a xlink:href="classSimple__manifold__2_aa81d979ace76b3412a00645efe09cfff.html#aa81d979ace76b3412a00645efe09cfff" target="_top" xlink:title="Get the opposite edge of an interior edge of the ghost part. ">
<polygon fill="none" stroke="black" points="323.5,-343 323.5,-373 424.5,-373 424.5,-343 323.5,-343"/>
<text text-anchor="start" x="331.5" y="-361" font-family="Helvetica,sans-Serif" font-size="10.00">get_opposite_ghost</text>
<text text-anchor="middle" x="374" y="-350" font-family="Helvetica,sans-Serif" font-size="10.00">_edge_interior</text>
</a>
</g>
</g>
<!-- Node10&#45;&gt;Node11 -->
<g id="edge17" class="edge"><title>Node10&#45;&gt;Node11</title>
<path fill="none" stroke="midnightblue" d="M274.202,-329.019C286.849,-332.729 300.503,-336.734 313.507,-340.549"/>
<polygon fill="midnightblue" stroke="midnightblue" points="312.716,-343.964 323.297,-343.42 314.687,-337.247 312.716,-343.964"/>
</g>
<!-- Node10&#45;&gt;Node8 -->
<g id="edge22" class="edge"><title>Node10&#45;&gt;Node8</title>
<path fill="none" stroke="midnightblue" d="M281.789,-302.602C332.846,-292.703 406.432,-278.437 457.653,-268.506"/>
<polygon fill="midnightblue" stroke="midnightblue" points="458.434,-271.92 467.585,-266.58 457.102,-265.048 458.434,-271.92"/>
</g>
<!-- Node10&#45;&gt;Node6 -->
<g id="edge23" class="edge"><title>Node10&#45;&gt;Node6</title>
<path fill="none" stroke="midnightblue" d="M238.161,-329.25C255.664,-345.721 286.155,-371.067 318,-382 364.428,-397.94 420.562,-398.66 461.359,-396.14"/>
<polygon fill="midnightblue" stroke="midnightblue" points="461.654,-399.628 471.385,-395.437 461.164,-392.645 461.654,-399.628"/>
</g>
<!-- Node10&#45;&gt;Node9 -->
<g id="edge24" class="edge"><title>Node10&#45;&gt;Node9</title>
<path fill="none" stroke="midnightblue" d="M242.919,-298.862C271.374,-277.236 323.406,-237.692 352.291,-215.739"/>
<polygon fill="midnightblue" stroke="midnightblue" points="354.616,-218.368 360.46,-209.53 350.381,-212.795 354.616,-218.368"/>
</g>
<!-- Node11&#45;&gt;Node2 -->
<g id="edge18" class="edge"><title>Node11&#45;&gt;Node2</title>
<path fill="none" stroke="midnightblue" d="M424.774,-350.859C464.226,-345.074 520.721,-336.513 570,-328 578.409,-326.547 587.344,-324.911 595.973,-323.283"/>
<polygon fill="midnightblue" stroke="midnightblue" points="596.744,-326.699 605.911,-321.387 595.433,-319.823 596.744,-326.699"/>
</g>
<!-- Node11&#45;&gt;Node4 -->
<g id="edge19" class="edge"><title>Node11&#45;&gt;Node4</title>
<path fill="none" stroke="midnightblue" d="M399.564,-373.132C417.576,-383.887 442.829,-398.269 466,-409 470.327,-411.004 474.93,-412.956 479.532,-414.799"/>
<polygon fill="midnightblue" stroke="midnightblue" points="478.299,-418.075 488.889,-418.411 480.82,-411.545 478.299,-418.075"/>
</g>
<!-- Node11&#45;&gt;Node8 -->
<g id="edge20" class="edge"><title>Node11&#45;&gt;Node8</title>
<path fill="none" stroke="midnightblue" d="M396.259,-342.879C422.812,-323.993 468.019,-291.838 494.941,-272.69"/>
<polygon fill="midnightblue" stroke="midnightblue" points="497.197,-275.381 503.317,-266.732 493.139,-269.676 497.197,-275.381"/>
</g>
<!-- Node11&#45;&gt;Node6 -->
<g id="edge21" class="edge"><title>Node11&#45;&gt;Node6</title>
<path fill="none" stroke="midnightblue" d="M424.665,-369.192C437.666,-372.122 451.72,-375.289 464.847,-378.247"/>
<polygon fill="midnightblue" stroke="midnightblue" points="464.147,-381.677 474.672,-380.461 465.686,-374.848 464.147,-381.677"/>
</g>
<!-- Node12&#45;&gt;Node2 -->
<g id="edge27" class="edge"><title>Node12&#45;&gt;Node2</title>
<path fill="none" stroke="midnightblue" d="M395.53,-133.63C432.408,-151.429 511.473,-191.89 570,-238 592.518,-255.74 614.818,-280.235 628.732,-296.571"/>
<polygon fill="midnightblue" stroke="midnightblue" points="626.095,-298.873 635.2,-304.29 631.46,-294.377 626.095,-298.873"/>
</g>
<!-- Node12&#45;&gt;Node8 -->
<g id="edge28" class="edge"><title>Node12&#45;&gt;Node8</title>
<path fill="none" stroke="midnightblue" d="M403.864,-133.508C412.75,-137.221 422.23,-142.04 430,-148 447.606,-161.504 484.596,-211.542 504.19,-238.88"/>
<polygon fill="midnightblue" stroke="midnightblue" points="501.462,-241.083 510.115,-247.196 507.162,-237.02 501.462,-241.083"/>
</g>
</g>
</svg>
        <g id="navigator" transform="translate(0 0)" fill="#404254">
                <rect fill="#f2f5e9" fill-opacity="0.5" stroke="#606060" stroke-width=".5" x="0" y="0" width="60" height="60"/>
                <use id="zoomplus" xlink:href="#zoomPlus" x="17" y="9" onmousedown="handleZoom(evt,'in')"/>
                <use id="zoomminus" xlink:href="#zoomMin" x="42" y="9" onmousedown="handleZoom(evt,'out')"/>
                <use id="reset" xlink:href="#resetDef" x="30" y="36" onmousedown="handleReset()"/>
                <g id="arrowUp" xlink:href="#dirArrow" transform="translate(30 24)" onmousedown="handlePan(0,-1)">
                  <use xlink:href="#rim" fill="#404040">
                        <set attributeName="fill" to="#808080" begin="arrowUp.mouseover" end="arrowUp.mouseout"/>
                  </use>
                  <path fill="none" stroke="white" stroke-width="1.5" d="M0,-3.0v7 M-2.5,-0.5L0,-3.0L2.5,-0.5"/>
                </g>
                <g id="arrowRight" xlink:href="#dirArrow" transform="rotate(90) translate(36 -43)" onmousedown="handlePan(1,0)">
                  <use xlink:href="#rim" fill="#404040">
                        <set attributeName="fill" to="#808080" begin="arrowRight.mouseover" end="arrowRight.mouseout"/>
                  </use>
                  <path fill="none" stroke="white" stroke-width="1.5" d="M0,-3.0v7 M-2.5,-0.5L0,-3.0L2.5,-0.5"/>
                </g>
                <g id="arrowDown" xlink:href="#dirArrow" transform="rotate(180) translate(-30 -48)" onmousedown="handlePan(0,1)">
                  <use xlink:href="#rim" fill="#404040">
                        <set attributeName="fill" to="#808080" begin="arrowDown.mouseover" end="arrowDown.mouseout"/>
                  </use>
                  <path fill="none" stroke="white" stroke-width="1.5" d="M0,-3.0v7 M-2.5,-0.5L0,-3.0L2.5,-0.5"/>
                </g>
                <g id="arrowLeft" xlink:href="#dirArrow" transform="rotate(270) translate(-36 17)" onmousedown="handlePan(-1,0)">
                  <use xlink:href="#rim" fill="#404040">
                        <set attributeName="fill" to="#808080" begin="arrowLeft.mouseover" end="arrowLeft.mouseout"/>
                  </use>
                  <path fill="none" stroke="white" stroke-width="1.5" d="M0,-3.0v7 M-2.5,-0.5L0,-3.0L2.5,-0.5"/>
                </g>
        </g>
        <svg viewBox="0 0 15 15" width="100%" height="30px" preserveAspectRatio="xMaxYMin meet">
         <g id="arrow_out" transform="scale(0.3 0.3)">
          <a xlink:href="classSimple__manifold__2_a5526ffd6e536b2c699cd80d42c05d534_a5526ffd6e536b2c699cd80d42c05d534_cgraph_org.svg" target="_base">
           <rect id="button" ry="5" rx="5" y="6" x="6" height="38" width="38"
                fill="#f2f5e9" fill-opacity="0.5" stroke="#606060" stroke-width="1.0"/>
           <path id="arrow"
             d="M 11.500037,31.436501 C 11.940474,20.09759 22.043105,11.32322 32.158766,21.979434 L 37.068811,17.246167 C 37.068811,17.246167 37.088388,32 37.088388,32 L 22.160133,31.978069 C 22.160133,31.978069 26.997745,27.140456 26.997745,27.140456 C 18.528582,18.264221 13.291696,25.230495 11.500037,31.436501 z"
             style="fill:#404040;"/>
          </a>
         </g>
        </svg>
</svg>
