<?xml version="1.0" encoding="UTF-8" standalone="no"?>
<!DOCTYPE svg PUBLIC "-//W3C//DTD SVG 1.1//EN"
 "http://www.w3.org/Graphics/SVG/1.1/DTD/svg11.dtd">
<!-- Generated by graphviz version 2.30.1 (20150305.2338)
 -->
<!-- Title: ProcessCommandLine Pages: 1 -->
<svg width="246pt" height="66pt"
 viewBox="0.00 0.00 246.00 66.00" xmlns="http://www.w3.org/2000/svg" xmlns:xlink="http://www.w3.org/1999/xlink">
<g id="graph0" class="graph" transform="scale(1 1) rotate(0) translate(4 62)">
<title>ProcessCommandLine</title>
<!-- Node1 -->
<g id="node1" class="node"><title>Node1</title>
<polygon fill="#bfbfbf" stroke="black" points="0,-19.5 0,-38.5 116,-38.5 116,-19.5 0,-19.5"/>
<text text-anchor="middle" x="58" y="-26.5" font-family="Helvetica,sans-Serif" font-size="10.00">ProcessCommandLine</text>
</g>
<!-- Node2 -->
<g id="node2" class="node"><title>Node2</title>
<g id="a_node2"><a xlink:href="classIRAD_1_1Util_1_1ComLineObject_a49a08e312b3a2d9dfda55796fb842e80.html#a49a08e312b3a2d9dfda55796fb842e80" target="_top" xlink:title="Processes all command line tokens. ">
<polygon fill="none" stroke="black" points="152,-38.5 152,-57.5 238,-57.5 238,-38.5 152,-38.5"/>
<text text-anchor="middle" x="195" y="-45.5" font-family="Helvetica,sans-Serif" font-size="10.00">ProcessOptions</text>
</a>
</g>
</g>
<!-- Node1&#45;&gt;Node2 -->
<g id="edge1" class="edge"><title>Node1&#45;&gt;Node2</title>
<path fill="none" stroke="midnightblue" d="M116.252,-37.0577C124.733,-38.2513 133.435,-39.4761 141.806,-40.6541"/>
<polygon fill="midnightblue" stroke="midnightblue" points="141.424,-44.1349 151.814,-42.0628 142.4,-37.2032 141.424,-44.1349"/>
</g>
<!-- Node3 -->
<g id="node3" class="node"><title>Node3</title>
<g id="a_node3"><a xlink:href="classIRAD_1_1Util_1_1ComLineObject_adca00a92f22899fa39ebe2f544e146c9.html#adca00a92f22899fa39ebe2f544e146c9" target="_top" xlink:title="Minimal recording of command line. ">
<polygon fill="none" stroke="black" points="171,-0.5 171,-19.5 219,-19.5 219,-0.5 171,-0.5"/>
<text text-anchor="middle" x="195" y="-7.5" font-family="Helvetica,sans-Serif" font-size="10.00">Record</text>
</a>
</g>
</g>
<!-- Node1&#45;&gt;Node3 -->
<g id="edge2" class="edge"><title>Node1&#45;&gt;Node3</title>
<path fill="none" stroke="midnightblue" d="M116.252,-20.9423C131.449,-18.8035 147.356,-16.5648 160.793,-14.6736"/>
<polygon fill="midnightblue" stroke="midnightblue" points="161.565,-18.0995 170.98,-13.2399 160.589,-11.1678 161.565,-18.0995"/>
</g>
</g>
</svg>
