<?xml version="1.0" encoding="UTF-8" standalone="no"?>
<!DOCTYPE svg PUBLIC "-//W3C//DTD SVG 1.1//EN"
 "http://www.w3.org/Graphics/SVG/1.1/DTD/svg11.dtd">
<!-- Generated by graphviz version 2.26.0 (20091210.2329)
 -->
<!-- Title: ProcessTests Pages: 1 -->
<svg width="480pt" height="322pt"
 viewBox="0.00 0.00 480.00 322.00" xmlns="http://www.w3.org/2000/svg" xmlns:xlink="http://www.w3.org/1999/xlink">
<g id="graph1" class="graph" transform="scale(1 1) rotate(0) translate(4 318)">
<title>ProcessTests</title>
<!-- Node1 -->
<g id="node1" class="node"><title>Node1</title>
<polygon fill="#bfbfbf" stroke="black" points="0.5,-252.5 0.5,-273.5 77.5,-273.5 77.5,-252.5 0.5,-252.5"/>
<text text-anchor="middle" x="39" y="-260.5" font-family="Helvetica,sans-Serif" font-size="10.00">ProcessTests</text>
</g>
<!-- Node2 -->
<g id="node3" class="node"><title>Node2</title>
<a xlink:href="classOpenFoamModuleDriver_1_1TestingObject_aa25f45634aafbb580d94840ad8452745.html#aa25f45634aafbb580d94840ad8452745" target="_top" xlink:title="Tears down the testing fixtures if needed. ">
<polygon fill="none" stroke="black" points="255,-292.5 255,-313.5 309,-313.5 309,-292.5 255,-292.5"/>
<text text-anchor="middle" x="282" y="-300.5" font-family="Helvetica,sans-Serif" font-size="10.00">Epilogue</text>
</a>
</g>
<!-- Node1&#45;&gt;Node2 -->
<g id="edge2" class="edge"><title>Node1&#45;&gt;Node2</title>
<path fill="none" stroke="midnightblue" d="M77.8854,-270.496C89.4904,-272.669 102.249,-274.994 114,-277 158.954,-284.672 210.844,-292.555 244.922,-297.599"/>
<polygon fill="midnightblue" stroke="midnightblue" points="244.494,-301.074 254.898,-299.07 245.515,-294.148 244.494,-301.074"/>
</g>
<!-- Node3 -->
<g id="node5" class="node"><title>Node3</title>
<a xlink:href="classOpenFoamModuleDriver_1_1TestingObject_aa3cdb6d60e9d9834c19efaab0b044421.html#aa3cdb6d60e9d9834c19efaab0b044421" target="_top" xlink:title="Sets up the data fixtures for the tests. ">
<polygon fill="none" stroke="black" points="254.5,-252.5 254.5,-273.5 309.5,-273.5 309.5,-252.5 254.5,-252.5"/>
<text text-anchor="middle" x="282" y="-260.5" font-family="Helvetica,sans-Serif" font-size="10.00">Prologue</text>
</a>
</g>
<!-- Node1&#45;&gt;Node3 -->
<g id="edge4" class="edge"><title>Node1&#45;&gt;Node3</title>
<path fill="none" stroke="midnightblue" d="M77.5041,-263C123.193,-263 198.877,-263 244.238,-263"/>
<polygon fill="midnightblue" stroke="midnightblue" points="244.258,-266.5 254.258,-263 244.258,-259.5 244.258,-266.5"/>
</g>
<!-- Node4 -->
<g id="node7" class="node"><title>Node4</title>
<a xlink:href="classOpenFoamModuleDriver_1_1TestingObject_af1f07f14b9af7708e4264bb38937eed2.html#af1f07f14b9af7708e4264bb38937eed2" target="_top" xlink:title="Runs a test specified by name. ">
<polygon fill="none" stroke="black" points="114,-166.5 114,-187.5 168,-187.5 168,-166.5 114,-166.5"/>
<text text-anchor="middle" x="141" y="-174.5" font-family="Helvetica,sans-Serif" font-size="10.00">RunTest</text>
</a>
</g>
<!-- Node1&#45;&gt;Node4 -->
<g id="edge6" class="edge"><title>Node1&#45;&gt;Node4</title>
<path fill="none" stroke="midnightblue" d="M51.5072,-252.455C68.7132,-237.948 99.8938,-211.658 120.527,-194.262"/>
<polygon fill="midnightblue" stroke="midnightblue" points="123.001,-196.753 128.39,-187.632 118.489,-191.402 123.001,-196.753"/>
</g>
<!-- Node4&#45;&gt;Node2 -->
<g id="edge8" class="edge"><title>Node4&#45;&gt;Node2</title>
<path fill="none" stroke="midnightblue" d="M144.225,-187.594C151.327,-209.075 170.414,-257.849 204,-283 215.681,-291.748 230.806,-296.687 244.623,-299.469"/>
<polygon fill="midnightblue" stroke="midnightblue" points="244.411,-302.983 254.856,-301.203 245.581,-296.081 244.411,-302.983"/>
</g>
<!-- Node4&#45;&gt;Node3 -->
<g id="edge10" class="edge"><title>Node4&#45;&gt;Node3</title>
<path fill="none" stroke="midnightblue" d="M148.206,-187.679C158.716,-202.408 179.67,-228.75 204,-243 216.208,-250.15 230.954,-254.773 244.323,-257.749"/>
<polygon fill="midnightblue" stroke="midnightblue" points="243.722,-261.198 254.213,-259.718 245.089,-254.332 243.722,-261.198"/>
</g>
<!-- Node5 -->
<g id="node11" class="node"><title>Node5</title>
<a xlink:href="classOpenFoamModuleDriver_1_1TestingObject_a8e78f570bb5d2e3da7b24e8e106584df.html#a8e78f570bb5d2e3da7b24e8e106584df" target="_top" xlink:title="Test__LoadUnitTestData">
<polygon fill="none" stroke="black" points="219,-40.5 219,-61.5 345,-61.5 345,-40.5 219,-40.5"/>
<text text-anchor="middle" x="282" y="-48.5" font-family="Helvetica,sans-Serif" font-size="10.00">Test__LoadUnitTestData</text>
</a>
</g>
<!-- Node4&#45;&gt;Node5 -->
<g id="edge12" class="edge"><title>Node4&#45;&gt;Node5</title>
<path fill="none" stroke="midnightblue" d="M144.225,-166.406C151.327,-144.925 170.414,-96.1511 204,-71 206.493,-69.1329 209.143,-67.4393 211.904,-65.9031"/>
<polygon fill="midnightblue" stroke="midnightblue" points="213.543,-68.9986 221.041,-61.5132 210.512,-62.689 213.543,-68.9986"/>
</g>
<!-- Node7 -->
<g id="node15" class="node"><title>Node7</title>
<a xlink:href="classOpenFoamModuleDriver_1_1TestingObject_acd776bc91073ed46c42a02152ffd3a6d.html#acd776bc91073ed46c42a02152ffd3a6d" target="_top" xlink:title="Test__ModuleFunctionInitialize">
<polygon fill="none" stroke="black" points="206,-212.5 206,-233.5 358,-233.5 358,-212.5 206,-212.5"/>
<text text-anchor="middle" x="282" y="-220.5" font-family="Helvetica,sans-Serif" font-size="10.00">Test__ModuleFunctionInitialize</text>
</a>
</g>
<!-- Node4&#45;&gt;Node7 -->
<g id="edge16" class="edge"><title>Node4&#45;&gt;Node7</title>
<path fill="none" stroke="midnightblue" d="M164.338,-187.55C176.087,-192.624 190.64,-198.555 204,-203 211.194,-205.394 218.841,-207.671 226.425,-209.773"/>
<polygon fill="midnightblue" stroke="midnightblue" points="225.751,-213.216 236.317,-212.432 227.568,-206.456 225.751,-213.216"/>
</g>
<!-- Node8 -->
<g id="node18" class="node"><title>Node8</title>
<a xlink:href="classOpenFoamModuleDriver_1_1TestingObject_a06be0e9e75586dee0ba11c110a2b5863.html#a06be0e9e75586dee0ba11c110a2b5863" target="_top" xlink:title="Test__ModuleFunctionStep\lFluid">
<polygon fill="none" stroke="black" points="214,-160 214,-194 350,-194 350,-160 214,-160"/>
<text text-anchor="start" x="222" y="-181" font-family="Helvetica,sans-Serif" font-size="10.00">Test__ModuleFunctionStep</text>
<text text-anchor="middle" x="282" y="-168" font-family="Helvetica,sans-Serif" font-size="10.00">Fluid</text>
</a>
</g>
<!-- Node4&#45;&gt;Node8 -->
<g id="edge20" class="edge"><title>Node4&#45;&gt;Node8</title>
<path fill="none" stroke="midnightblue" d="M168.186,-177C178.542,-177 190.934,-177 203.67,-177"/>
<polygon fill="midnightblue" stroke="midnightblue" points="203.926,-180.5 213.926,-177 203.926,-173.5 203.926,-180.5"/>
</g>
<!-- Node9 -->
<g id="node21" class="node"><title>Node9</title>
<a xlink:href="classOpenFoamModuleDriver_1_1TestingObject_a77a1d9a76340e835e6a4f6c9428f8796.html#a77a1d9a76340e835e6a4f6c9428f8796" target="_top" xlink:title="Test__ModuleLoadUnload">
<polygon fill="none" stroke="black" points="217,-0.5 217,-21.5 347,-21.5 347,-0.5 217,-0.5"/>
<text text-anchor="middle" x="282" y="-8.5" font-family="Helvetica,sans-Serif" font-size="10.00">Test__ModuleLoadUnload</text>
</a>
</g>
<!-- Node4&#45;&gt;Node9 -->
<g id="edge24" class="edge"><title>Node4&#45;&gt;Node9</title>
<path fill="none" stroke="midnightblue" d="M142.383,-166.303C146.46,-139.273 160.979,-67.7696 204,-31 205.953,-29.331 208.027,-27.7986 210.195,-26.3917"/>
<polygon fill="midnightblue" stroke="midnightblue" points="211.893,-29.4523 218.966,-21.5644 208.518,-23.3198 211.893,-29.4523"/>
</g>
<!-- Node10 -->
<g id="node23" class="node"><title>Node10</title>
<a xlink:href="classOpenFoamModuleDriver_1_1TestingObject_a8e6b96ff06b7c7dce865d4f5518b535e.html#a8e6b96ff06b7c7dce865d4f5518b535e" target="_top" xlink:title="Test__ModuleMeshRegistration">
<polygon fill="none" stroke="black" points="204.5,-120.5 204.5,-141.5 359.5,-141.5 359.5,-120.5 204.5,-120.5"/>
<text text-anchor="middle" x="282" y="-128.5" font-family="Helvetica,sans-Serif" font-size="10.00">Test__ModuleMeshRegistration</text>
</a>
</g>
<!-- Node4&#45;&gt;Node10 -->
<g id="edge26" class="edge"><title>Node4&#45;&gt;Node10</title>
<path fill="none" stroke="midnightblue" d="M164.338,-166.45C176.087,-161.376 190.64,-155.445 204,-151 211.194,-148.606 218.841,-146.329 226.425,-144.227"/>
<polygon fill="midnightblue" stroke="midnightblue" points="227.568,-147.544 236.317,-141.568 225.751,-140.784 227.568,-147.544"/>
</g>
<!-- Node11 -->
<g id="node26" class="node"><title>Node11</title>
<a xlink:href="classOpenFoamModuleDriver_1_1TestingObject_ad1aa2004b83b4520a22c3f62e7c219c5.html#ad1aa2004b83b4520a22c3f62e7c219c5" target="_top" xlink:title="Test__ModuleSurfaceData">
<polygon fill="none" stroke="black" points="215.5,-80.5 215.5,-101.5 348.5,-101.5 348.5,-80.5 215.5,-80.5"/>
<text text-anchor="middle" x="282" y="-88.5" font-family="Helvetica,sans-Serif" font-size="10.00">Test__ModuleSurfaceData</text>
</a>
</g>
<!-- Node4&#45;&gt;Node11 -->
<g id="edge30" class="edge"><title>Node4&#45;&gt;Node11</title>
<path fill="none" stroke="midnightblue" d="M148.206,-166.321C158.716,-151.592 179.67,-125.25 204,-111 207.664,-108.854 211.557,-106.936 215.572,-105.221"/>
<polygon fill="midnightblue" stroke="midnightblue" points="217.02,-108.415 225.115,-101.58 214.524,-101.875 217.02,-108.415"/>
</g>
<!-- Node6 -->
<g id="node13" class="node"><title>Node6</title>
<a xlink:href="classOpenFoamModuleDriver_1_1TestingObject_a90d21e92a2797915cd73e0cf48731a5c.html#a90d21e92a2797915cd73e0cf48731a5c" target="_top" xlink:title="Function to copy input data from source testing directory for use in unit tests. ">
<polygon fill="none" stroke="black" points="396.5,-120.5 396.5,-141.5 471.5,-141.5 471.5,-120.5 396.5,-120.5"/>
<text text-anchor="middle" x="434" y="-128.5" font-family="Helvetica,sans-Serif" font-size="10.00">GetInputData</text>
</a>
</g>
<!-- Node5&#45;&gt;Node6 -->
<g id="edge14" class="edge"><title>Node5&#45;&gt;Node6</title>
<path fill="none" stroke="midnightblue" d="M335.978,-61.5895C344.242,-64.1287 352.507,-67.2301 360,-71 381.491,-81.8126 402.449,-99.7077 416.543,-113.147"/>
<polygon fill="midnightblue" stroke="midnightblue" points="414.409,-115.956 424,-120.457 419.309,-110.957 414.409,-115.956"/>
</g>
<!-- Node7&#45;&gt;Node6 -->
<g id="edge18" class="edge"><title>Node7&#45;&gt;Node6</title>
<path fill="none" stroke="midnightblue" d="M337.935,-212.467C345.6,-209.943 353.173,-206.831 360,-203 384.227,-189.405 406.242,-165.882 419.844,-149.434"/>
<polygon fill="midnightblue" stroke="midnightblue" points="422.627,-151.558 426.157,-141.568 417.168,-147.177 422.627,-151.558"/>
</g>
<!-- Node8&#45;&gt;Node6 -->
<g id="edge22" class="edge"><title>Node8&#45;&gt;Node6</title>
<path fill="none" stroke="midnightblue" d="M338.599,-159.871C355.375,-154.794 373.502,-149.309 389.404,-144.496"/>
<polygon fill="midnightblue" stroke="midnightblue" points="390.428,-147.843 398.985,-141.597 388.4,-141.143 390.428,-147.843"/>
</g>
<!-- Node10&#45;&gt;Node6 -->
<g id="edge28" class="edge"><title>Node10&#45;&gt;Node6</title>
<path fill="none" stroke="midnightblue" d="M359.781,-131C368.817,-131 377.818,-131 386.275,-131"/>
<polygon fill="midnightblue" stroke="midnightblue" points="386.287,-134.5 396.287,-131 386.287,-127.5 386.287,-134.5"/>
</g>
<!-- Node11&#45;&gt;Node6 -->
<g id="edge32" class="edge"><title>Node11&#45;&gt;Node6</title>
<path fill="none" stroke="midnightblue" d="M323.72,-101.591C335.463,-104.601 348.239,-107.903 360,-111 368.602,-113.265 377.758,-115.711 386.591,-118.089"/>
<polygon fill="midnightblue" stroke="midnightblue" points="385.813,-121.504 396.379,-120.731 387.637,-114.746 385.813,-121.504"/>
</g>
</g>
</svg>
