<?xml version="1.0" encoding="UTF-8" standalone="no"?>
<!DOCTYPE svg PUBLIC "-//W3C//DTD SVG 1.1//EN"
 "http://www.w3.org/Graphics/SVG/1.1/DTD/svg11.dtd">
<!-- Generated by graphviz version 2.30.1 (20150305.2338)
 -->
<!-- Title: Interpolate Pages: 1 -->
<svg width="382pt" height="77pt"
 viewBox="0.00 0.00 382.00 77.00" xmlns="http://www.w3.org/2000/svg" xmlns:xlink="http://www.w3.org/1999/xlink">
<g id="graph0" class="graph" transform="scale(1 1) rotate(0) translate(4 73)">
<title>Interpolate</title>
<!-- Node1 -->
<g id="node1" class="node"><title>Node1</title>
<polygon fill="#bfbfbf" stroke="black" points="0,-27.5 0,-46.5 62,-46.5 62,-27.5 0,-27.5"/>
<text text-anchor="middle" x="31" y="-34.5" font-family="Helvetica,sans-Serif" font-size="10.00">Interpolate</text>
</g>
<!-- Node2 -->
<g id="node2" class="node"><title>Node2</title>
<g id="a_node2"><a xlink:href="classfsicouplingpar_a17302cafa37b73fa1812a6c83695c023.html#a17302cafa37b73fa1812a6c83695c023" target="_top" xlink:title="fsicouplingpar::TestTransfer">
<polygon fill="none" stroke="black" points="98,-49.5 98,-68.5 236,-68.5 236,-49.5 98,-49.5"/>
<text text-anchor="middle" x="167" y="-56.5" font-family="Helvetica,sans-Serif" font-size="10.00">fsicouplingpar::TestTransfer</text>
</a>
</g>
</g>
<!-- Node1&#45;&gt;Node2 -->
<g id="edge1" class="edge"><title>Node1&#45;&gt;Node2</title>
<path fill="none" stroke="midnightblue" d="M72.0596,-43.5769C83.3612,-45.4324 95.8899,-47.4894 108.017,-49.4804"/>
<polygon fill="midnightblue" stroke="midnightblue" points="72.5072,-40.1037 62.0722,-41.9372 71.373,-47.0112 72.5072,-40.1037"/>
</g>
<!-- Node3 -->
<g id="node3" class="node"><title>Node3</title>
<g id="a_node3"><a xlink:href="classfsicouplingpar_af78c1d25d3177ac2db934cf256fad8ef.html#af78c1d25d3177ac2db934cf256fad8ef" target="_top" xlink:title="fsicouplingpar::Transfer\lDisplacementsToFluid">
<polygon fill="none" stroke="black" points="107.5,-0 107.5,-30 226.5,-30 226.5,-0 107.5,-0"/>
<text text-anchor="start" x="115.5" y="-18" font-family="Helvetica,sans-Serif" font-size="10.00">fsicouplingpar::Transfer</text>
<text text-anchor="middle" x="167" y="-7" font-family="Helvetica,sans-Serif" font-size="10.00">DisplacementsToFluid</text>
</a>
</g>
</g>
<!-- Node1&#45;&gt;Node3 -->
<g id="edge2" class="edge"><title>Node1&#45;&gt;Node3</title>
<path fill="none" stroke="midnightblue" d="M71.9417,-30.4424C83.1064,-28.6094 95.476,-26.5786 107.477,-24.6083"/>
<polygon fill="midnightblue" stroke="midnightblue" points="71.373,-26.9888 62.0722,-32.0628 72.5072,-33.8963 71.373,-26.9888"/>
</g>
<!-- Node4 -->
<g id="node4" class="node"><title>Node4</title>
<g id="a_node4"><a xlink:href="classfsicouplingpar_afbfb74d751085fbf8cffe83b9716b2dd.html#afbfb74d751085fbf8cffe83b9716b2dd" target="_top" xlink:title="fsicouplingpar::Run">
<polygon fill="none" stroke="black" points="272.5,-5.5 272.5,-24.5 373.5,-24.5 373.5,-5.5 272.5,-5.5"/>
<text text-anchor="middle" x="323" y="-12.5" font-family="Helvetica,sans-Serif" font-size="10.00">fsicouplingpar::Run</text>
</a>
</g>
</g>
<!-- Node3&#45;&gt;Node4 -->
<g id="edge3" class="edge"><title>Node3&#45;&gt;Node4</title>
<path fill="none" stroke="midnightblue" d="M236.951,-15C248.768,-15 260.842,-15 272.041,-15"/>
<polygon fill="midnightblue" stroke="midnightblue" points="236.66,-11.5001 226.66,-15 236.66,-18.5001 236.66,-11.5001"/>
</g>
</g>
</svg>
