<?xml version="1.0" encoding="UTF-8" standalone="no"?>
<!DOCTYPE svg PUBLIC "-//W3C//DTD SVG 1.1//EN"
 "http://www.w3.org/Graphics/SVG/1.1/DTD/svg11.dtd">
<!-- Generated by graphviz version 2.30.1 (20150305.2338)
 -->
<!-- Title: Run Pages: 1 -->
<svg width="388pt" height="237pt"
 viewBox="0.00 0.00 388.00 237.00" xmlns="http://www.w3.org/2000/svg" xmlns:xlink="http://www.w3.org/1999/xlink">
<g id="graph0" class="graph" transform="scale(1 1) rotate(0) translate(4 233)">
<title>Run</title>
<!-- Node1 -->
<g id="node1" class="node"><title>Node1</title>
<polygon fill="#bfbfbf" stroke="black" points="0.5,-108.5 0.5,-127.5 35.5,-127.5 35.5,-108.5 0.5,-108.5"/>
<text text-anchor="middle" x="18" y="-115.5" font-family="Helvetica,sans-Serif" font-size="10.00">Run</text>
</g>
<!-- Node2 -->
<g id="node2" class="node"><title>Node2</title>
<g id="a_node2"><a xlink:href="classIRAD_1_1Global_1_1GlobalObj_a0cc0ea8bdd46b7c84dcd33965bb40357.html#a0cc0ea8bdd46b7c84dcd33965bb40357" target="_top" xlink:title="IRAD::Global::GlobalObj\l\&lt; StackType, int, ProfilerType\l \&gt;::ErrOut">
<polygon fill="none" stroke="black" points="72,-187.5 72,-228.5 220,-228.5 220,-187.5 72,-187.5"/>
<text text-anchor="start" x="80" y="-216.5" font-family="Helvetica,sans-Serif" font-size="10.00">IRAD::Global::GlobalObj</text>
<text text-anchor="start" x="80" y="-205.5" font-family="Helvetica,sans-Serif" font-size="10.00">&lt; StackType, int, ProfilerType</text>
<text text-anchor="middle" x="146" y="-194.5" font-family="Helvetica,sans-Serif" font-size="10.00"> &gt;::ErrOut</text>
</a>
</g>
</g>
<!-- Node1&#45;&gt;Node2 -->
<g id="edge1" class="edge"><title>Node1&#45;&gt;Node2</title>
<path fill="none" stroke="midnightblue" d="M25.454,-127.76C34.4937,-140.775 52.0712,-163.815 72,-178 74.1,-179.495 76.2857,-180.932 78.5329,-182.312"/>
<polygon fill="midnightblue" stroke="midnightblue" points="77.0273,-185.481 87.4559,-187.351 80.4694,-179.386 77.0273,-185.481"/>
</g>
<!-- Node4 -->
<g id="node4" class="node"><title>Node4</title>
<g id="a_node4"><a xlink:href="classIRAD_1_1Global_1_1GlobalObj_a6abe3763e61b3cb7c5bf1fc5f7f5a747.html#a6abe3763e61b3cb7c5bf1fc5f7f5a747" target="_top" xlink:title="FunctionEntry updates the Stack as well as the Profiler. ">
<polygon fill="none" stroke="black" points="72,-67.5 72,-108.5 220,-108.5 220,-67.5 72,-67.5"/>
<text text-anchor="start" x="80" y="-96.5" font-family="Helvetica,sans-Serif" font-size="10.00">IRAD::Global::GlobalObj</text>
<text text-anchor="start" x="80" y="-85.5" font-family="Helvetica,sans-Serif" font-size="10.00">&lt; StackType, int, ProfilerType</text>
<text text-anchor="middle" x="146" y="-74.5" font-family="Helvetica,sans-Serif" font-size="10.00"> &gt;::FunctionEntry</text>
</a>
</g>
</g>
<!-- Node1&#45;&gt;Node4 -->
<g id="edge3" class="edge"><title>Node1&#45;&gt;Node4</title>
<path fill="none" stroke="midnightblue" d="M35.7318,-114.016C42.9616,-112.295 52.0032,-110.142 61.7705,-107.817"/>
<polygon fill="midnightblue" stroke="midnightblue" points="62.8221,-111.164 71.7395,-105.443 61.2007,-104.354 62.8221,-111.164"/>
</g>
<!-- Node7 -->
<g id="node7" class="node"><title>Node7</title>
<g id="a_node7"><a xlink:href="classIRAD_1_1Global_1_1GlobalObj_a5c05946a616967b3ee6fdc755c31e33c.html#a5c05946a616967b3ee6fdc755c31e33c" target="_top" xlink:title="FunctionExit updates the Stack as well as the Profiler. ">
<polygon fill="none" stroke="black" points="72,-7.5 72,-48.5 220,-48.5 220,-7.5 72,-7.5"/>
<text text-anchor="start" x="80" y="-36.5" font-family="Helvetica,sans-Serif" font-size="10.00">IRAD::Global::GlobalObj</text>
<text text-anchor="start" x="80" y="-25.5" font-family="Helvetica,sans-Serif" font-size="10.00">&lt; StackType, int, ProfilerType</text>
<text text-anchor="middle" x="146" y="-14.5" font-family="Helvetica,sans-Serif" font-size="10.00"> &gt;::FunctionExit</text>
</a>
</g>
</g>
<!-- Node1&#45;&gt;Node7 -->
<g id="edge6" class="edge"><title>Node1&#45;&gt;Node7</title>
<path fill="none" stroke="midnightblue" d="M25.454,-108.24C34.4937,-95.225 52.0712,-72.185 72,-58 74.1,-56.5052 76.2857,-55.0681 78.5329,-53.6883"/>
<polygon fill="midnightblue" stroke="midnightblue" points="80.4694,-56.6143 87.4559,-48.6493 77.0273,-50.5191 80.4694,-56.6143"/>
</g>
<!-- Node9 -->
<g id="node9" class="node"><title>Node9</title>
<g id="a_node9"><a xlink:href="classIRAD_1_1Global_1_1GlobalObj_a4604cffc6d9588606aa2a5866b026226.html#a4604cffc6d9588606aa2a5866b026226" target="_top" xlink:title="IRAD::Global::GlobalObj\l\&lt; StackType, int, ProfilerType\l \&gt;::StdOut">
<polygon fill="none" stroke="black" points="72,-127.5 72,-168.5 220,-168.5 220,-127.5 72,-127.5"/>
<text text-anchor="start" x="80" y="-156.5" font-family="Helvetica,sans-Serif" font-size="10.00">IRAD::Global::GlobalObj</text>
<text text-anchor="start" x="80" y="-145.5" font-family="Helvetica,sans-Serif" font-size="10.00">&lt; StackType, int, ProfilerType</text>
<text text-anchor="middle" x="146" y="-134.5" font-family="Helvetica,sans-Serif" font-size="10.00"> &gt;::StdOut</text>
</a>
</g>
</g>
<!-- Node1&#45;&gt;Node9 -->
<g id="edge9" class="edge"><title>Node1&#45;&gt;Node9</title>
<path fill="none" stroke="midnightblue" d="M35.7318,-121.984C42.9616,-123.705 52.0032,-125.858 61.7705,-128.183"/>
<polygon fill="midnightblue" stroke="midnightblue" points="61.2007,-131.646 71.7395,-130.557 62.8221,-124.836 61.2007,-131.646"/>
</g>
<!-- Node3 -->
<g id="node3" class="node"><title>Node3</title>
<g id="a_node3"><a xlink:href="classIRAD_1_1Global_1_1GlobalObj_a384c5879386af6eaf5525b9cc755a0e4.html#a384c5879386af6eaf5525b9cc755a0e4" target="_top" xlink:title="IRAD::Global::GlobalObj\l::Name">
<polygon fill="none" stroke="black" points="256,-170 256,-200 380,-200 380,-170 256,-170"/>
<text text-anchor="start" x="264" y="-188" font-family="Helvetica,sans-Serif" font-size="10.00">IRAD::Global::GlobalObj</text>
<text text-anchor="middle" x="318" y="-177" font-family="Helvetica,sans-Serif" font-size="10.00">::Name</text>
</a>
</g>
</g>
<!-- Node2&#45;&gt;Node3 -->
<g id="edge2" class="edge"><title>Node2&#45;&gt;Node3</title>
<path fill="none" stroke="midnightblue" d="M220.082,-198.112C228.685,-196.949 237.453,-195.762 246.026,-194.602"/>
<polygon fill="midnightblue" stroke="midnightblue" points="246.538,-198.065 255.979,-193.256 245.6,-191.128 246.538,-198.065"/>
</g>
<!-- Node5 -->
<g id="node5" class="node"><title>Node5</title>
<g id="a_node5"><a xlink:href="classIRAD_1_1Global_1_1GlobalObj_af0c67ab79d88d2e58f35183a758f8e6a.html#af0c67ab79d88d2e58f35183a758f8e6a" target="_top" xlink:title="IRAD::Global::GlobalObj\l::FName">
<polygon fill="none" stroke="black" points="256,-49 256,-79 380,-79 380,-49 256,-49"/>
<text text-anchor="start" x="264" y="-67" font-family="Helvetica,sans-Serif" font-size="10.00">IRAD::Global::GlobalObj</text>
<text text-anchor="middle" x="318" y="-56" font-family="Helvetica,sans-Serif" font-size="10.00">::FName</text>
</a>
</g>
</g>
<!-- Node4&#45;&gt;Node5 -->
<g id="edge4" class="edge"><title>Node4&#45;&gt;Node5</title>
<path fill="none" stroke="midnightblue" d="M220.082,-77.6826C228.685,-76.4681 237.453,-75.2301 246.026,-74.0198"/>
<polygon fill="midnightblue" stroke="midnightblue" points="246.566,-77.4784 255.979,-72.6148 245.588,-70.5471 246.566,-77.4784"/>
</g>
<!-- Node6 -->
<g id="node6" class="node"><title>Node6</title>
<g id="a_node6"><a xlink:href="classIRAD_1_1Profiler_1_1ProfilerObj_a844a402ae1cb3ca57f1c9ea052261a14.html#a844a402ae1cb3ca57f1c9ea052261a14" target="_top" xlink:title="mark construct entry ">
<polygon fill="none" stroke="black" points="260.5,-98 260.5,-128 375.5,-128 375.5,-98 260.5,-98"/>
<text text-anchor="start" x="268.5" y="-116" font-family="Helvetica,sans-Serif" font-size="10.00">IRAD::Profiler::Profiler</text>
<text text-anchor="middle" x="318" y="-105" font-family="Helvetica,sans-Serif" font-size="10.00">Obj::FunctionEntry</text>
</a>
</g>
</g>
<!-- Node4&#45;&gt;Node6 -->
<g id="edge5" class="edge"><title>Node4&#45;&gt;Node6</title>
<path fill="none" stroke="midnightblue" d="M220.082,-98.7473C230.101,-100.221 240.344,-101.727 250.242,-103.183"/>
<polygon fill="midnightblue" stroke="midnightblue" points="250.004,-106.685 260.407,-104.678 251.023,-99.7598 250.004,-106.685"/>
</g>
<!-- Node8 -->
<g id="node8" class="node"><title>Node8</title>
<g id="a_node8"><a xlink:href="classIRAD_1_1Profiler_1_1ProfilerObj_a46ccaa5304854fd94e27e5993f32be48.html#a46ccaa5304854fd94e27e5993f32be48" target="_top" xlink:title="mark construct exit ">
<polygon fill="none" stroke="black" points="260.5,-0 260.5,-30 375.5,-30 375.5,-0 260.5,-0"/>
<text text-anchor="start" x="268.5" y="-18" font-family="Helvetica,sans-Serif" font-size="10.00">IRAD::Profiler::Profiler</text>
<text text-anchor="middle" x="318" y="-7" font-family="Helvetica,sans-Serif" font-size="10.00">Obj::FunctionExit</text>
</a>
</g>
</g>
<!-- Node7&#45;&gt;Node8 -->
<g id="edge7" class="edge"><title>Node7&#45;&gt;Node8</title>
<path fill="none" stroke="midnightblue" d="M220.082,-22.4114C230.101,-21.6453 240.344,-20.8619 250.242,-20.105"/>
<polygon fill="midnightblue" stroke="midnightblue" points="250.703,-23.5801 260.407,-19.3277 250.169,-16.6004 250.703,-23.5801"/>
</g>
<!-- Node7&#45;&gt;Node5 -->
<g id="edge8" class="edge"><title>Node7&#45;&gt;Node5</title>
<path fill="none" stroke="midnightblue" d="M220.082,-43.4762C228.685,-45.2979 237.453,-47.1548 246.026,-48.9703"/>
<polygon fill="midnightblue" stroke="midnightblue" points="245.471,-52.4301 255.979,-51.0779 246.921,-45.582 245.471,-52.4301"/>
</g>
<!-- Node9&#45;&gt;Node3 -->
<g id="edge10" class="edge"><title>Node9&#45;&gt;Node3</title>
<path fill="none" stroke="midnightblue" d="M220.082,-163.906C228.685,-165.778 237.453,-167.687 246.026,-169.553"/>
<polygon fill="midnightblue" stroke="midnightblue" points="245.463,-173.012 255.979,-171.719 246.952,-166.172 245.463,-173.012"/>
</g>
</g>
</svg>
