<?xml version="1.0" encoding="UTF-8" standalone="no"?>
<!DOCTYPE svg PUBLIC "-//W3C//DTD SVG 1.1//EN"
 "http://www.w3.org/Graphics/SVG/1.1/DTD/svg11.dtd">
<!-- Generated by graphviz version 2.30.1 (20150305.2338)
 -->
<!-- Title: Test__ElmerStructures Pages: 1 -->
<svg width="434pt" height="66pt"
 viewBox="0.00 0.00 434.00 66.00" xmlns="http://www.w3.org/2000/svg" xmlns:xlink="http://www.w3.org/1999/xlink">
<g id="graph0" class="graph" transform="scale(1 1) rotate(0) translate(4 62)">
<title>Test__ElmerStructures</title>
<!-- Node1 -->
<g id="node1" class="node"><title>Node1</title>
<polygon fill="#bfbfbf" stroke="black" points="0.5,-19.5 0.5,-38.5 117.5,-38.5 117.5,-19.5 0.5,-19.5"/>
<text text-anchor="middle" x="59" y="-26.5" font-family="Helvetica,sans-Serif" font-size="10.00">Test__ElmerStructures</text>
</g>
<!-- Node2 -->
<g id="node2" class="node"><title>Node2</title>
<g id="a_node2"><a xlink:href="classElmerFoamFSI_1_1TestingObject_a046f7ab06db0acf616b0d2bf3d3146aa.html#a046f7ab06db0acf616b0d2bf3d3146aa" target="_top" xlink:title="Runs all tests implemented by the ElmerFoamFSI::TestingObject. ">
<polygon fill="none" stroke="black" points="154.5,-38.5 154.5,-57.5 207.5,-57.5 207.5,-38.5 154.5,-38.5"/>
<text text-anchor="middle" x="181" y="-45.5" font-family="Helvetica,sans-Serif" font-size="10.00">Process</text>
</a>
</g>
</g>
<!-- Node1&#45;&gt;Node2 -->
<g id="edge1" class="edge"><title>Node1&#45;&gt;Node2</title>
<path fill="none" stroke="midnightblue" d="M127.485,-39.6851C136.979,-41.1884 146.22,-42.6515 154.235,-43.9206"/>
<polygon fill="midnightblue" stroke="midnightblue" points="127.964,-36.2174 117.54,-38.1104 126.869,-43.1313 127.964,-36.2174"/>
</g>
<!-- Node5 -->
<g id="node5" class="node"><title>Node5</title>
<g id="a_node5"><a xlink:href="classElmerFoamFSI_1_1TestingObject_af1f07f14b9af7708e4264bb38937eed2.html#af1f07f14b9af7708e4264bb38937eed2" target="_top" xlink:title="Runs a test specified by name. ">
<polygon fill="none" stroke="black" points="154,-0.5 154,-19.5 208,-19.5 208,-0.5 154,-0.5"/>
<text text-anchor="middle" x="181" y="-7.5" font-family="Helvetica,sans-Serif" font-size="10.00">RunTest</text>
</a>
</g>
</g>
<!-- Node1&#45;&gt;Node5 -->
<g id="edge4" class="edge"><title>Node1&#45;&gt;Node5</title>
<path fill="none" stroke="midnightblue" d="M127.69,-18.2825C136.993,-16.8095 146.045,-15.3762 153.932,-14.1275"/>
<polygon fill="midnightblue" stroke="midnightblue" points="126.869,-14.8687 117.54,-19.8896 127.964,-21.7826 126.869,-14.8687"/>
</g>
<!-- Node3 -->
<g id="node3" class="node"><title>Node3</title>
<g id="a_node3"><a xlink:href="namespaceElmerFoamFSI_aeb590657609088b8ab12a5cbd164fcfa.html#aeb590657609088b8ab12a5cbd164fcfa" target="_top" xlink:title="Drives the ElmerFoamFSI::TestObject. ">
<polygon fill="none" stroke="black" points="244,-38.5 244,-57.5 352,-57.5 352,-38.5 244,-38.5"/>
<text text-anchor="middle" x="298" y="-45.5" font-family="Helvetica,sans-Serif" font-size="10.00">ElmerFoamFSI::Test</text>
</a>
</g>
</g>
<!-- Node2&#45;&gt;Node3 -->
<g id="edge2" class="edge"><title>Node2&#45;&gt;Node3</title>
<path fill="none" stroke="midnightblue" d="M217.58,-48C225.874,-48 234.882,-48 243.755,-48"/>
<polygon fill="midnightblue" stroke="midnightblue" points="217.522,-44.5001 207.522,-48 217.522,-51.5001 217.522,-44.5001"/>
</g>
<!-- Node4 -->
<g id="node4" class="node"><title>Node4</title>
<g id="a_node4"><a xlink:href="TestElmerFoamFSI_8C_a0ddf1224851353fc92bfbff6f499fa97.html#a0ddf1224851353fc92bfbff6f499fa97" target="_top" xlink:title="main">
<polygon fill="none" stroke="black" points="388,-38.5 388,-57.5 426,-57.5 426,-38.5 388,-38.5"/>
<text text-anchor="middle" x="407" y="-45.5" font-family="Helvetica,sans-Serif" font-size="10.00">main</text>
</a>
</g>
</g>
<!-- Node3&#45;&gt;Node4 -->
<g id="edge3" class="edge"><title>Node3&#45;&gt;Node4</title>
<path fill="none" stroke="midnightblue" d="M362.335,-48C371.591,-48 380.44,-48 387.722,-48"/>
<polygon fill="midnightblue" stroke="midnightblue" points="362.187,-44.5001 352.187,-48 362.186,-51.5001 362.187,-44.5001"/>
</g>
<!-- Node6 -->
<g id="node6" class="node"><title>Node6</title>
<g id="a_node6"><a xlink:href="classElmerFoamFSI_1_1TestingObject_a21159bd2efac623e5a5079f6a20f3444.html#a21159bd2efac623e5a5079f6a20f3444" target="_top" xlink:title="Runs a list of tests specified by name. ">
<polygon fill="none" stroke="black" points="259.5,-0.5 259.5,-19.5 336.5,-19.5 336.5,-0.5 259.5,-0.5"/>
<text text-anchor="middle" x="298" y="-7.5" font-family="Helvetica,sans-Serif" font-size="10.00">ProcessTests</text>
</a>
</g>
</g>
<!-- Node5&#45;&gt;Node6 -->
<g id="edge5" class="edge"><title>Node5&#45;&gt;Node6</title>
<path fill="none" stroke="midnightblue" d="M218.151,-10C231.227,-10 246.019,-10 259.23,-10"/>
<polygon fill="midnightblue" stroke="midnightblue" points="218.095,-6.5001 208.095,-10 218.095,-13.5001 218.095,-6.5001"/>
</g>
<!-- Node5&#45;&gt;Node3 -->
<g id="edge6" class="edge"><title>Node5&#45;&gt;Node3</title>
<path fill="none" stroke="midnightblue" d="M217.783,-21.824C233.994,-27.1806 252.904,-33.4292 268.182,-38.4777"/>
<polygon fill="midnightblue" stroke="midnightblue" points="218.688,-18.4371 208.095,-18.6228 216.492,-25.0836 218.688,-18.4371"/>
</g>
</g>
</svg>
