<?xml version="1.0" encoding="UTF-8" standalone="no"?>
<!DOCTYPE svg PUBLIC "-//W3C//DTD SVG 1.1//EN"
 "http://www.w3.org/Graphics/SVG/1.1/DTD/svg11.dtd">
<!-- Generated by graphviz version 2.30.1 (20150305.2338)
 -->
<!-- Title: Copy Pages: 1 -->
<svg width="142pt" height="104pt"
 viewBox="0.00 0.00 142.00 104.00" xmlns="http://www.w3.org/2000/svg" xmlns:xlink="http://www.w3.org/1999/xlink">
<g id="graph0" class="graph" transform="scale(1 1) rotate(0) translate(4 100)">
<title>Copy</title>
<!-- Node1 -->
<g id="node1" class="node"><title>Node1</title>
<polygon fill="#bfbfbf" stroke="black" points="0,-38.5 0,-57.5 40,-57.5 40,-38.5 0,-38.5"/>
<text text-anchor="middle" x="20" y="-45.5" font-family="Helvetica,sans-Serif" font-size="10.00">Copy</text>
</g>
<!-- Node2 -->
<g id="node2" class="node"><title>Node2</title>
<g id="a_node2"><a xlink:href="classSolverUtils_1_1GeoPrim_1_1C3Vector_a33042d9e3d7dab75cdf7b5bd5f873cc3.html#a33042d9e3d7dab75cdf7b5bd5f873cc3" target="_top" xlink:title="C3Vector">
<polygon fill="none" stroke="black" points="76,-76.5 76,-95.5 134,-95.5 134,-76.5 76,-76.5"/>
<text text-anchor="middle" x="105" y="-83.5" font-family="Helvetica,sans-Serif" font-size="10.00">C3Vector</text>
</a>
</g>
</g>
<!-- Node1&#45;&gt;Node2 -->
<g id="edge1" class="edge"><title>Node1&#45;&gt;Node2</title>
<path fill="none" stroke="midnightblue" d="M49.5045,-61.0502C60.5364,-66.101 72.9311,-71.7757 83.1092,-76.4355"/>
<polygon fill="midnightblue" stroke="midnightblue" points="50.7999,-57.794 40.2505,-56.8135 47.8859,-64.1586 50.7999,-57.794"/>
</g>
<!-- Node3 -->
<g id="node3" class="node"><title>Node3</title>
<g id="a_node3"><a xlink:href="classSolverUtils_1_1GeoPrim_1_1C3Vector_a79d32f58917d5cf5468ba57236c0a757.html#a79d32f58917d5cf5468ba57236c0a757" target="_top" xlink:title="Init">
<polygon fill="none" stroke="black" points="90,-38.5 90,-57.5 120,-57.5 120,-38.5 90,-38.5"/>
<text text-anchor="middle" x="105" y="-45.5" font-family="Helvetica,sans-Serif" font-size="10.00">Init</text>
</a>
</g>
</g>
<!-- Node1&#45;&gt;Node3 -->
<g id="edge2" class="edge"><title>Node1&#45;&gt;Node3</title>
<path fill="none" stroke="midnightblue" d="M50.4557,-48C63.8167,-48 79.0012,-48 89.779,-48"/>
<polygon fill="midnightblue" stroke="midnightblue" points="50.2505,-44.5001 40.2505,-48 50.2505,-51.5001 50.2505,-44.5001"/>
</g>
<!-- Node4 -->
<g id="node4" class="node"><title>Node4</title>
<g id="a_node4"><a xlink:href="classSolverUtils_1_1GeoPrim_1_1C3Vector_a3f45a697b052c163df2c1ef2d9f8a929.html#a3f45a697b052c163df2c1ef2d9f8a929" target="_top" xlink:title="operator=">
<polygon fill="none" stroke="black" points="76,-0.5 76,-19.5 134,-19.5 134,-0.5 76,-0.5"/>
<text text-anchor="middle" x="105" y="-7.5" font-family="Helvetica,sans-Serif" font-size="10.00">operator=</text>
</a>
</g>
</g>
<!-- Node1&#45;&gt;Node4 -->
<g id="edge3" class="edge"><title>Node1&#45;&gt;Node4</title>
<path fill="none" stroke="midnightblue" d="M49.5045,-34.9498C60.5364,-29.899 72.9311,-24.2243 83.1092,-19.5645"/>
<polygon fill="midnightblue" stroke="midnightblue" points="47.8859,-31.8414 40.2505,-39.1865 50.7999,-38.206 47.8859,-31.8414"/>
</g>
</g>
</svg>
