<?xml version="1.0" encoding="UTF-8" standalone="no"?>
<!DOCTYPE svg PUBLIC "-//W3C//DTD SVG 1.1//EN"
 "http://www.w3.org/Graphics/SVG/1.1/DTD/svg11.dtd">
<!-- Generated by graphviz version 2.30.1 (20150305.2338)
 -->
<!-- Title: get_status Pages: 1 -->
<!--zoomable 170 -->
<svg id="main" version="1.1" xmlns="http://www.w3.org/2000/svg" xmlns:xlink="http://www.w3.org/1999/xlink" xml:space="preserve" onload="init(evt)">
<style type="text/css"><![CDATA[
.edge:hover path { stroke: red; }
.edge:hover polygon { stroke: red; fill: red; }
]]></style>
<script type="text/javascript"><![CDATA[
var edges = document.getElementsByTagName('g');
if (edges && edges.length) {
  for (var i=0;i<edges.length;i++) {
    if (edges[i].id.substr(0,4)=='edge') {
      edges[i].setAttribute('class','edge');
    }
  }
}
]]></script>
        <defs>
                <circle id="rim" cx="0" cy="0" r="7"/>
                <circle id="rim2" cx="0" cy="0" r="3.5"/>
                <g id="zoomPlus">
                        <use xlink:href="#rim" fill="#404040">
                                <set attributeName="fill" to="#808080" begin="zoomplus.mouseover" end="zoomplus.mouseout"/>
                        </use>
                        <path d="M-4,0h8M0,-4v8" fill="none" stroke="white" stroke-width="1.5" pointer-events="none"/>
                </g>
                <g id="zoomMin">
                        <use xlink:href="#rim" fill="#404040">
                                <set attributeName="fill" to="#808080" begin="zoomminus.mouseover" end="zoomminus.mouseout"/>
                        </use>
                        <path d="M-4,0h8" fill="none" stroke="white" stroke-width="1.5" pointer-events="none"/>
                </g>
                <g id="dirArrow">
                        <path fill="none" stroke="white" stroke-width="1.5" d="M0,-3.0v7 M-2.5,-0.5L0,-3.0L2.5,-0.5"/>
                </g>
               <g id="resetDef">
                       <use xlink:href="#rim2" fill="#404040">
                               <set attributeName="fill" to="#808080" begin="reset.mouseover" end="reset.mouseout"/>
                       </use>
               </g>
        </defs>

<script type="text/javascript">
var viewWidth = 796;
var viewHeight = 170;
var sectionId = 'dynsection-0';
</script>
<script xlink:href="svgpan.js"/>
<svg id="graph" class="graph">
<g id="viewport">
<title>get_status</title>
<!-- Node1 -->
<g id="node1" class="node"><title>Node1</title>
<polygon fill="#bfbfbf" stroke="black" points="0,-71.5 0,-90.5 62,-90.5 62,-71.5 0,-71.5"/>
<text text-anchor="middle" x="31" y="-78.5" font-family="Helvetica,sans-Serif" font-size="10.00">get_status</text>
</g>
<!-- Node2 -->
<g id="node2" class="node"><title>Node2</title>
<g id="a_node2"><a xlink:href="com__c_8h_a1da9106f23205e969ae8407deebbfdfe.html#a1da9106f23205e969ae8407deebbfdfe" target="_top" xlink:title="COM_get_status">
<polygon fill="none" stroke="black" points="98.5,-71.5 98.5,-90.5 189.5,-90.5 189.5,-71.5 98.5,-71.5"/>
<text text-anchor="middle" x="144" y="-78.5" font-family="Helvetica,sans-Serif" font-size="10.00">COM_get_status</text>
</a>
</g>
</g>
<!-- Node1&#45;&gt;Node2 -->
<g id="edge1" class="edge"><title>Node1&#45;&gt;Node2</title>
<path fill="none" stroke="midnightblue" d="M72.1067,-81C80.6237,-81 89.666,-81 98.3406,-81"/>
<polygon fill="midnightblue" stroke="midnightblue" points="72.0382,-77.5001 62.0382,-81 72.0382,-84.5001 72.0382,-77.5001"/>
</g>
<!-- Node3 -->
<g id="node3" class="node"><title>Node3</title>
<g id="a_node3"><a xlink:href="classOpenFoamModuleDriver_1_1TestingObject_acd776bc91073ed46c42a02152ffd3a6d.html#acd776bc91073ed46c42a02152ffd3a6d" target="_top" xlink:title="OpenFoamModuleDriver\l::TestingObject::Test\l__ModuleFunctionInitialize">
<polygon fill="none" stroke="black" points="229,-120.5 229,-161.5 361,-161.5 361,-120.5 229,-120.5"/>
<text text-anchor="start" x="237" y="-149.5" font-family="Helvetica,sans-Serif" font-size="10.00">OpenFoamModuleDriver</text>
<text text-anchor="start" x="237" y="-138.5" font-family="Helvetica,sans-Serif" font-size="10.00">::TestingObject::Test</text>
<text text-anchor="middle" x="295" y="-127.5" font-family="Helvetica,sans-Serif" font-size="10.00">__ModuleFunctionInitialize</text>
</a>
</g>
</g>
<!-- Node2&#45;&gt;Node3 -->
<g id="edge2" class="edge"><title>Node2&#45;&gt;Node3</title>
<path fill="none" stroke="midnightblue" d="M178.061,-94.3133C197.147,-101.999 221.553,-111.827 243.046,-120.482"/>
<polygon fill="midnightblue" stroke="midnightblue" points="179.193,-90.9959 168.609,-90.5072 176.578,-97.4893 179.193,-90.9959"/>
</g>
<!-- Node9 -->
<g id="node9" class="node"><title>Node9</title>
<g id="a_node9"><a xlink:href="classOpenFoamModuleDriver_1_1TestingObject_a06be0e9e75586dee0ba11c110a2b5863.html#a06be0e9e75586dee0ba11c110a2b5863" target="_top" xlink:title="OpenFoamModuleDriver\l::TestingObject::Test\l__ModuleFunctionStepFluid">
<polygon fill="none" stroke="black" points="226.5,-60.5 226.5,-101.5 363.5,-101.5 363.5,-60.5 226.5,-60.5"/>
<text text-anchor="start" x="234.5" y="-89.5" font-family="Helvetica,sans-Serif" font-size="10.00">OpenFoamModuleDriver</text>
<text text-anchor="start" x="234.5" y="-78.5" font-family="Helvetica,sans-Serif" font-size="10.00">::TestingObject::Test</text>
<text text-anchor="middle" x="295" y="-67.5" font-family="Helvetica,sans-Serif" font-size="10.00">__ModuleFunctionStepFluid</text>
</a>
</g>
</g>
<!-- Node2&#45;&gt;Node9 -->
<g id="edge9" class="edge"><title>Node2&#45;&gt;Node9</title>
<path fill="none" stroke="midnightblue" d="M199.71,-81C208.412,-81 217.502,-81 226.457,-81"/>
<polygon fill="midnightblue" stroke="midnightblue" points="199.705,-77.5001 189.705,-81 199.705,-84.5001 199.705,-77.5001"/>
</g>
<!-- Node10 -->
<g id="node10" class="node"><title>Node10</title>
<g id="a_node10"><a xlink:href="classOpenFoamModuleDriver_1_1TestingObject_ad1aa2004b83b4520a22c3f62e7c219c5.html#ad1aa2004b83b4520a22c3f62e7c219c5" target="_top" xlink:title="OpenFoamModuleDriver\l::TestingObject::Test\l__ModuleSurfaceData">
<polygon fill="none" stroke="black" points="234,-0.5 234,-41.5 356,-41.5 356,-0.5 234,-0.5"/>
<text text-anchor="start" x="242" y="-29.5" font-family="Helvetica,sans-Serif" font-size="10.00">OpenFoamModuleDriver</text>
<text text-anchor="start" x="242" y="-18.5" font-family="Helvetica,sans-Serif" font-size="10.00">::TestingObject::Test</text>
<text text-anchor="middle" x="295" y="-7.5" font-family="Helvetica,sans-Serif" font-size="10.00">__ModuleSurfaceData</text>
</a>
</g>
</g>
<!-- Node2&#45;&gt;Node10 -->
<g id="edge12" class="edge"><title>Node2&#45;&gt;Node10</title>
<path fill="none" stroke="midnightblue" d="M178.061,-67.6867C197.147,-60.0012 221.553,-50.1731 243.046,-41.5184"/>
<polygon fill="midnightblue" stroke="midnightblue" points="176.578,-64.5107 168.609,-71.4928 179.193,-71.0041 176.578,-64.5107"/>
</g>
<!-- Node4 -->
<g id="node4" class="node"><title>Node4</title>
<g id="a_node4"><a xlink:href="classOpenFoamModuleDriver_1_1TestingObject_a046f7ab06db0acf616b0d2bf3d3146aa.html#a046f7ab06db0acf616b0d2bf3d3146aa" target="_top" xlink:title="Process all tests and populate a &quot;results&quot; object. ">
<polygon fill="none" stroke="black" points="401.5,-90 401.5,-120 526.5,-120 526.5,-90 401.5,-90"/>
<text text-anchor="start" x="409.5" y="-108" font-family="Helvetica,sans-Serif" font-size="10.00">OpenFoamModuleDriver</text>
<text text-anchor="middle" x="464" y="-97" font-family="Helvetica,sans-Serif" font-size="10.00">::TestingObject::Process</text>
</a>
</g>
</g>
<!-- Node3&#45;&gt;Node4 -->
<g id="edge3" class="edge"><title>Node3&#45;&gt;Node4</title>
<path fill="none" stroke="midnightblue" d="M371.105,-124.81C381.243,-122.624 391.548,-120.403 401.414,-118.276"/>
<polygon fill="midnightblue" stroke="midnightblue" points="370.083,-121.45 361.045,-126.978 371.558,-128.292 370.083,-121.45"/>
</g>
<!-- Node7 -->
<g id="node7" class="node"><title>Node7</title>
<g id="a_node7"><a xlink:href="classOpenFoamModuleDriver_1_1TestingObject_af1f07f14b9af7708e4264bb38937eed2.html#af1f07f14b9af7708e4264bb38937eed2" target="_top" xlink:title="Runs a test specified by name. ">
<polygon fill="none" stroke="black" points="400.5,-41 400.5,-71 527.5,-71 527.5,-41 400.5,-41"/>
<text text-anchor="start" x="408.5" y="-59" font-family="Helvetica,sans-Serif" font-size="10.00">OpenFoamModuleDriver</text>
<text text-anchor="middle" x="464" y="-48" font-family="Helvetica,sans-Serif" font-size="10.00">::TestingObject::RunTest</text>
</a>
</g>
</g>
<!-- Node3&#45;&gt;Node7 -->
<g id="edge6" class="edge"><title>Node3&#45;&gt;Node7</title>
<path fill="none" stroke="midnightblue" d="M355.928,-115.712C358.693,-114.187 361.397,-112.614 364,-111 381.7,-100.023 382.096,-91.6411 400,-81 406.17,-77.3326 412.977,-73.9935 419.767,-71.0345"/>
<polygon fill="midnightblue" stroke="midnightblue" points="354.179,-112.676 346.94,-120.413 357.424,-118.879 354.179,-112.676"/>
</g>
<!-- Node5 -->
<g id="node5" class="node"><title>Node5</title>
<g id="a_node5"><a xlink:href="namespaceOpenFoamModuleDriver_a98bd69551725493def1a31bfe72b0781.html#a98bd69551725493def1a31bfe72b0781" target="_top" xlink:title="Drives the OpenFoamModuleDriver::TestObject. ">
<polygon fill="none" stroke="black" points="578,-90 578,-120 700,-120 700,-90 578,-90"/>
<text text-anchor="start" x="586" y="-108" font-family="Helvetica,sans-Serif" font-size="10.00">OpenFoamModuleDriver</text>
<text text-anchor="middle" x="639" y="-97" font-family="Helvetica,sans-Serif" font-size="10.00">::Test</text>
</a>
</g>
</g>
<!-- Node4&#45;&gt;Node5 -->
<g id="edge4" class="edge"><title>Node4&#45;&gt;Node5</title>
<path fill="none" stroke="midnightblue" d="M537.211,-105C550.757,-105 564.784,-105 577.913,-105"/>
<polygon fill="midnightblue" stroke="midnightblue" points="536.968,-101.5 526.968,-105 536.968,-108.5 536.968,-101.5"/>
</g>
<!-- Node6 -->
<g id="node6" class="node"><title>Node6</title>
<g id="a_node6"><a xlink:href="TestOpenFoamModuleDriver_8C_a0ddf1224851353fc92bfbff6f499fa97.html#a0ddf1224851353fc92bfbff6f499fa97" target="_top" xlink:title="main">
<polygon fill="none" stroke="black" points="750,-95.5 750,-114.5 788,-114.5 788,-95.5 750,-95.5"/>
<text text-anchor="middle" x="769" y="-102.5" font-family="Helvetica,sans-Serif" font-size="10.00">main</text>
</a>
</g>
</g>
<!-- Node5&#45;&gt;Node6 -->
<g id="edge5" class="edge"><title>Node5&#45;&gt;Node6</title>
<path fill="none" stroke="midnightblue" d="M710.396,-105C724.999,-105 739.154,-105 749.778,-105"/>
<polygon fill="midnightblue" stroke="midnightblue" points="710.252,-101.5 700.252,-105 710.252,-108.5 710.252,-101.5"/>
</g>
<!-- Node8 -->
<g id="node8" class="node"><title>Node8</title>
<g id="a_node8"><a xlink:href="classOpenFoamModuleDriver_1_1TestingObject_a21159bd2efac623e5a5079f6a20f3444.html#a21159bd2efac623e5a5079f6a20f3444" target="_top" xlink:title="Runs a list of tests specified by name. ">
<polygon fill="none" stroke="black" points="564,-41 564,-71 714,-71 714,-41 564,-41"/>
<text text-anchor="start" x="572" y="-59" font-family="Helvetica,sans-Serif" font-size="10.00">OpenFoamModuleDriver</text>
<text text-anchor="middle" x="639" y="-48" font-family="Helvetica,sans-Serif" font-size="10.00">::TestingObject::ProcessTests</text>
</a>
</g>
</g>
<!-- Node7&#45;&gt;Node8 -->
<g id="edge7" class="edge"><title>Node7&#45;&gt;Node8</title>
<path fill="none" stroke="midnightblue" d="M538.217,-56C546.727,-56 555.412,-56 563.934,-56"/>
<polygon fill="midnightblue" stroke="midnightblue" points="537.946,-52.5001 527.946,-56 537.946,-59.5001 537.946,-52.5001"/>
</g>
<!-- Node7&#45;&gt;Node5 -->
<g id="edge8" class="edge"><title>Node7&#45;&gt;Node5</title>
<path fill="none" stroke="midnightblue" d="M528.177,-73.8941C546.785,-79.1644 566.948,-84.8755 584.859,-89.9484"/>
<polygon fill="midnightblue" stroke="midnightblue" points="528.893,-70.4591 518.317,-71.1014 526.985,-77.1942 528.893,-70.4591"/>
</g>
<!-- Node9&#45;&gt;Node4 -->
<g id="edge10" class="edge"><title>Node9&#45;&gt;Node4</title>
<path fill="none" stroke="midnightblue" d="M373.863,-92.1898C383.073,-93.5135 392.376,-94.8504 401.319,-96.1357"/>
<polygon fill="midnightblue" stroke="midnightblue" points="374.322,-88.7199 363.925,-90.7617 373.326,-95.6487 374.322,-88.7199"/>
</g>
<!-- Node9&#45;&gt;Node7 -->
<g id="edge11" class="edge"><title>Node9&#45;&gt;Node7</title>
<path fill="none" stroke="midnightblue" d="M373.856,-69.3449C382.703,-68.0205 391.634,-66.6835 400.251,-65.3936"/>
<polygon fill="midnightblue" stroke="midnightblue" points="373.297,-65.8895 363.925,-70.8315 374.333,-72.8124 373.297,-65.8895"/>
</g>
<!-- Node10&#45;&gt;Node4 -->
<g id="edge13" class="edge"><title>Node10&#45;&gt;Node4</title>
<path fill="none" stroke="midnightblue" d="M355.895,-46.3418C358.669,-47.8526 361.384,-49.4076 364,-51 381.55,-61.6829 382.252,-69.65 400,-80 406.201,-83.616 413.023,-86.9281 419.82,-89.876"/>
<polygon fill="midnightblue" stroke="midnightblue" points="357.376,-43.1673 346.886,-41.6751 354.156,-49.3827 357.376,-43.1673"/>
</g>
<!-- Node10&#45;&gt;Node7 -->
<g id="edge14" class="edge"><title>Node10&#45;&gt;Node7</title>
<path fill="none" stroke="midnightblue" d="M366.137,-35.6993C377.464,-38.0733 389.128,-40.5179 400.266,-42.8521"/>
<polygon fill="midnightblue" stroke="midnightblue" points="366.796,-32.2615 356.291,-33.6358 365.36,-39.1127 366.796,-32.2615"/>
</g>
</g>
</svg>
        <g id="navigator" transform="translate(0 0)" fill="#404254">
                <rect fill="#f2f5e9" fill-opacity="0.5" stroke="#606060" stroke-width=".5" x="0" y="0" width="60" height="60"/>
                <use id="zoomplus" xlink:href="#zoomPlus" x="17" y="9" onmousedown="handleZoom(evt,'in')"/>
                <use id="zoomminus" xlink:href="#zoomMin" x="42" y="9" onmousedown="handleZoom(evt,'out')"/>
                <use id="reset" xlink:href="#resetDef" x="30" y="36" onmousedown="handleReset()"/>
                <g id="arrowUp" xlink:href="#dirArrow" transform="translate(30 24)" onmousedown="handlePan(0,-1)">
                  <use xlink:href="#rim" fill="#404040">
                        <set attributeName="fill" to="#808080" begin="arrowUp.mouseover" end="arrowUp.mouseout"/>
                  </use>
                  <path fill="none" stroke="white" stroke-width="1.5" d="M0,-3.0v7 M-2.5,-0.5L0,-3.0L2.5,-0.5"/>
                </g>
                <g id="arrowRight" xlink:href="#dirArrow" transform="rotate(90) translate(36 -43)" onmousedown="handlePan(1,0)">
                  <use xlink:href="#rim" fill="#404040">
                        <set attributeName="fill" to="#808080" begin="arrowRight.mouseover" end="arrowRight.mouseout"/>
                  </use>
                  <path fill="none" stroke="white" stroke-width="1.5" d="M0,-3.0v7 M-2.5,-0.5L0,-3.0L2.5,-0.5"/>
                </g>
                <g id="arrowDown" xlink:href="#dirArrow" transform="rotate(180) translate(-30 -48)" onmousedown="handlePan(0,1)">
                  <use xlink:href="#rim" fill="#404040">
                        <set attributeName="fill" to="#808080" begin="arrowDown.mouseover" end="arrowDown.mouseout"/>
                  </use>
                  <path fill="none" stroke="white" stroke-width="1.5" d="M0,-3.0v7 M-2.5,-0.5L0,-3.0L2.5,-0.5"/>
                </g>
                <g id="arrowLeft" xlink:href="#dirArrow" transform="rotate(270) translate(-36 17)" onmousedown="handlePan(-1,0)">
                  <use xlink:href="#rim" fill="#404040">
                        <set attributeName="fill" to="#808080" begin="arrowLeft.mouseover" end="arrowLeft.mouseout"/>
                  </use>
                  <path fill="none" stroke="white" stroke-width="1.5" d="M0,-3.0v7 M-2.5,-0.5L0,-3.0L2.5,-0.5"/>
                </g>
        </g>
        <svg viewBox="0 0 15 15" width="100%" height="30px" preserveAspectRatio="xMaxYMin meet">
         <g id="arrow_out" transform="scale(0.3 0.3)">
          <a xlink:href="classCOM_1_1COM__base_aac063ad261e1a52d2b23bbddf791ae9c_aac063ad261e1a52d2b23bbddf791ae9c_icgraph_org.svg" target="_base">
           <rect id="button" ry="5" rx="5" y="6" x="6" height="38" width="38"
                fill="#f2f5e9" fill-opacity="0.5" stroke="#606060" stroke-width="1.0"/>
           <path id="arrow"
             d="M 11.500037,31.436501 C 11.940474,20.09759 22.043105,11.32322 32.158766,21.979434 L 37.068811,17.246167 C 37.068811,17.246167 37.088388,32 37.088388,32 L 22.160133,31.978069 C 22.160133,31.978069 26.997745,27.140456 26.997745,27.140456 C 18.528582,18.264221 13.291696,25.230495 11.500037,31.436501 z"
             style="fill:#404040;"/>
          </a>
         </g>
        </svg>
</svg>
