<?xml version="1.0" encoding="UTF-8" standalone="no"?>
<!DOCTYPE svg PUBLIC "-//W3C//DTD SVG 1.1//EN"
 "http://www.w3.org/Graphics/SVG/1.1/DTD/svg11.dtd">
<!-- Generated by graphviz version 2.30.1 (20150305.2338)
 -->
<!-- Title: vtkDump Pages: 1 -->
<svg width="784pt" height="507pt"
 viewBox="0.00 0.00 784.00 507.00" xmlns="http://www.w3.org/2000/svg" xmlns:xlink="http://www.w3.org/1999/xlink">
<g id="graph0" class="graph" transform="scale(1 1) rotate(0) translate(4 503)">
<title>vtkDump</title>
<!-- Node1 -->
<g id="node1" class="node"><title>Node1</title>
<polygon fill="#bfbfbf" stroke="black" points="0,-345.5 0,-364.5 56,-364.5 56,-345.5 0,-345.5"/>
<text text-anchor="middle" x="28" y="-352.5" font-family="Helvetica,sans-Serif" font-size="10.00">vtkDump</text>
</g>
<!-- Node2 -->
<g id="node2" class="node"><title>Node2</title>
<g id="a_node2"><a xlink:href="classCOM_1_1SolverModuleDriver_aa4865919edd847e77ad5324473c867a2.html#aa4865919edd847e77ad5324473c867a2" target="_top" xlink:title="updateSolution">
<polygon fill="none" stroke="black" points="129.5,-441.5 129.5,-460.5 210.5,-460.5 210.5,-441.5 129.5,-441.5"/>
<text text-anchor="middle" x="170" y="-448.5" font-family="Helvetica,sans-Serif" font-size="10.00">updateSolution</text>
</a>
</g>
</g>
<!-- Node1&#45;&gt;Node2 -->
<g id="edge1" class="edge"><title>Node1&#45;&gt;Node2</title>
<path fill="none" stroke="midnightblue" d="M42.9356,-364.556C67.2549,-381.232 117.629,-415.774 146.801,-435.778"/>
<polygon fill="midnightblue" stroke="midnightblue" points="144.894,-438.714 155.121,-441.483 148.853,-432.941 144.894,-438.714"/>
</g>
<!-- Node8 -->
<g id="node8" class="node"><title>Node8</title>
<g id="a_node8"><a xlink:href="namespaceSolverUtils_a4b3e50cefefe85867c8de76b742654ff.html#a4b3e50cefefe85867c8de76b742654ff" target="_top" xlink:title="SolverUtils::WriteVTKToStream">
<polygon fill="none" stroke="black" points="92,-225.5 92,-244.5 248,-244.5 248,-225.5 92,-225.5"/>
<text text-anchor="middle" x="170" y="-232.5" font-family="Helvetica,sans-Serif" font-size="10.00">SolverUtils::WriteVTKToStream</text>
</a>
</g>
</g>
<!-- Node1&#45;&gt;Node8 -->
<g id="edge7" class="edge"><title>Node1&#45;&gt;Node8</title>
<path fill="none" stroke="midnightblue" d="M40.4568,-345.18C64.4696,-324.597 120.29,-276.751 149.847,-251.417"/>
<polygon fill="midnightblue" stroke="midnightblue" points="152.461,-253.786 157.776,-244.62 147.906,-248.471 152.461,-253.786"/>
</g>
<!-- Node3 -->
<g id="node3" class="node"><title>Node3</title>
<g id="a_node3"><a xlink:href="com__c_8h_a6dd240c15a2b3e85d2d91cbe9eec6611.html#a6dd240c15a2b3e85d2d91cbe9eec6611" target="_top" xlink:title="Get the address for an dataitem on a specific pane. ">
<polygon fill="none" stroke="black" points="314,-479.5 314,-498.5 400,-498.5 400,-479.5 314,-479.5"/>
<text text-anchor="middle" x="357" y="-486.5" font-family="Helvetica,sans-Serif" font-size="10.00">COM_get_array</text>
</a>
</g>
</g>
<!-- Node2&#45;&gt;Node3 -->
<g id="edge2" class="edge"><title>Node2&#45;&gt;Node3</title>
<path fill="none" stroke="midnightblue" d="M210.687,-459.152C237.849,-464.731 274.148,-472.187 303.671,-478.251"/>
<polygon fill="midnightblue" stroke="midnightblue" points="303.306,-481.749 313.805,-480.333 304.714,-474.892 303.306,-481.749"/>
</g>
<!-- Node4 -->
<g id="node4" class="node"><title>Node4</title>
<g id="a_node4"><a xlink:href="com__c_09_09_8hpp_a16b2a9aeed9d53bd2d11d4221ef2c148.html#a16b2a9aeed9d53bd2d11d4221ef2c148" target="_top" xlink:title="COM_get_dataitem">
<polygon fill="none" stroke="black" points="306.5,-441.5 306.5,-460.5 407.5,-460.5 407.5,-441.5 306.5,-441.5"/>
<text text-anchor="middle" x="357" y="-448.5" font-family="Helvetica,sans-Serif" font-size="10.00">COM_get_dataitem</text>
</a>
</g>
</g>
<!-- Node2&#45;&gt;Node4 -->
<g id="edge3" class="edge"><title>Node2&#45;&gt;Node4</title>
<path fill="none" stroke="midnightblue" d="M210.687,-451C235.65,-451 268.331,-451 296.377,-451"/>
<polygon fill="midnightblue" stroke="midnightblue" points="296.477,-454.5 306.477,-451 296.477,-447.5 296.477,-454.5"/>
</g>
<!-- Node5 -->
<g id="node5" class="node"><title>Node5</title>
<g id="a_node5"><a xlink:href="COM__base_8hpp_a49353596e53127db61529b5c9000549d.html#a49353596e53127db61529b5c9000549d" target="_top" xlink:title="COM_get_com">
<polygon fill="none" stroke="black" points="491.5,-463.5 491.5,-482.5 574.5,-482.5 574.5,-463.5 491.5,-463.5"/>
<text text-anchor="middle" x="533" y="-470.5" font-family="Helvetica,sans-Serif" font-size="10.00">COM_get_com</text>
</a>
</g>
</g>
<!-- Node4&#45;&gt;Node5 -->
<g id="edge4" class="edge"><title>Node4&#45;&gt;Node5</title>
<path fill="none" stroke="midnightblue" d="M407.861,-457.304C430.956,-460.224 458.348,-463.688 481.518,-466.617"/>
<polygon fill="midnightblue" stroke="midnightblue" points="481.14,-470.097 491.5,-467.879 482.018,-463.152 481.14,-470.097"/>
</g>
<!-- Node7 -->
<g id="node7" class="node"><title>Node7</title>
<g id="a_node7"><a xlink:href="classCOM_1_1COM__base_a74a5100529115d055808ef9aa5c369ba.html#a74a5100529115d055808ef9aa5c369ba" target="_top" xlink:title="Information retrieval Get the information about an dataitem. ">
<polygon fill="none" stroke="black" points="475.5,-414 475.5,-444 590.5,-444 590.5,-414 475.5,-414"/>
<text text-anchor="start" x="483.5" y="-432" font-family="Helvetica,sans-Serif" font-size="10.00">COM::COM_base::get</text>
<text text-anchor="middle" x="533" y="-421" font-family="Helvetica,sans-Serif" font-size="10.00">_dataitem</text>
</a>
</g>
</g>
<!-- Node4&#45;&gt;Node7 -->
<g id="edge6" class="edge"><title>Node4&#45;&gt;Node7</title>
<path fill="none" stroke="midnightblue" d="M407.861,-444.696C425.738,-442.435 446.189,-439.85 465.264,-437.438"/>
<polygon fill="midnightblue" stroke="midnightblue" points="465.911,-440.884 475.393,-436.157 465.033,-433.939 465.911,-440.884"/>
</g>
<!-- Node6 -->
<g id="node6" class="node"><title>Node6</title>
<g id="a_node6"><a xlink:href="classCOM_1_1COM__base_a77bb770b9ec1aac99361c45efbccabc1.html#a77bb770b9ec1aac99361c45efbccabc1" target="_top" xlink:title="Get a pointer to the COM object. ">
<polygon fill="none" stroke="black" points="636.5,-463.5 636.5,-482.5 775.5,-482.5 775.5,-463.5 636.5,-463.5"/>
<text text-anchor="middle" x="706" y="-470.5" font-family="Helvetica,sans-Serif" font-size="10.00">COM::COM_base::get_com</text>
</a>
</g>
</g>
<!-- Node5&#45;&gt;Node6 -->
<g id="edge5" class="edge"><title>Node5&#45;&gt;Node6</title>
<path fill="none" stroke="midnightblue" d="M574.525,-473C589.963,-473 608.137,-473 625.937,-473"/>
<polygon fill="midnightblue" stroke="midnightblue" points="626.35,-476.5 636.35,-473 626.35,-469.5 626.35,-476.5"/>
</g>
<!-- Node9 -->
<g id="node9" class="node"><title>Node9</title>
<g id="a_node9"><a xlink:href="classSolverUtils_1_1FEM_1_1SolverAgent_aca958a697df836ac67f3244d08d9ee6c.html#aca958a697df836ac67f3244d08d9ee6c" target="_top" xlink:title="SolverUtils::FEM::Solver\lAgent::Solution">
<polygon fill="none" stroke="black" points="294.5,-392 294.5,-422 419.5,-422 419.5,-392 294.5,-392"/>
<text text-anchor="start" x="302.5" y="-410" font-family="Helvetica,sans-Serif" font-size="10.00">SolverUtils::FEM::Solver</text>
<text text-anchor="middle" x="357" y="-399" font-family="Helvetica,sans-Serif" font-size="10.00">Agent::Solution</text>
</a>
</g>
</g>
<!-- Node8&#45;&gt;Node9 -->
<g id="edge8" class="edge"><title>Node8&#45;&gt;Node9</title>
<path fill="none" stroke="midnightblue" d="M175.895,-244.811C189.429,-270.967 229.956,-343.023 284,-382 286.629,-383.896 289.415,-385.659 292.303,-387.295"/>
<polygon fill="midnightblue" stroke="midnightblue" points="290.719,-390.417 301.219,-391.836 293.896,-384.179 290.719,-390.417"/>
</g>
<!-- Node10 -->
<g id="node10" class="node"><title>Node10</title>
<g id="a_node10"><a xlink:href="classSolverUtils_1_1FEM_1_1SolverAgent_a79921d24f767ba9aeb14b5e32db13b4c.html#a79921d24f767ba9aeb14b5e32db13b4c" target="_top" xlink:title="SolverUtils::FEM::Solver\lAgent::Mesh">
<polygon fill="none" stroke="black" points="294.5,-343 294.5,-373 419.5,-373 419.5,-343 294.5,-343"/>
<text text-anchor="start" x="302.5" y="-361" font-family="Helvetica,sans-Serif" font-size="10.00">SolverUtils::FEM::Solver</text>
<text text-anchor="middle" x="357" y="-350" font-family="Helvetica,sans-Serif" font-size="10.00">Agent::Mesh</text>
</a>
</g>
</g>
<!-- Node8&#45;&gt;Node10 -->
<g id="edge9" class="edge"><title>Node8&#45;&gt;Node10</title>
<path fill="none" stroke="midnightblue" d="M179.723,-244.723C197.545,-264.058 240.165,-307.65 284,-333 287.608,-335.087 291.419,-337.038 295.327,-338.857"/>
<polygon fill="midnightblue" stroke="midnightblue" points="294.006,-342.099 304.574,-342.858 296.786,-335.674 294.006,-342.099"/>
</g>
<!-- Node11 -->
<g id="node11" class="node"><title>Node11</title>
<g id="a_node11"><a xlink:href="namespaceSolverUtils_1_1Mesh_ad4367ce798da66717edb420d3b26323e.html#ad4367ce798da66717edb420d3b26323e" target="_top" xlink:title="SolverUtils::Mesh::\lWriteVTKToStream">
<polygon fill="none" stroke="black" points="306,-294 306,-324 408,-324 408,-294 306,-294"/>
<text text-anchor="start" x="314" y="-312" font-family="Helvetica,sans-Serif" font-size="10.00">SolverUtils::Mesh::</text>
<text text-anchor="middle" x="357" y="-301" font-family="Helvetica,sans-Serif" font-size="10.00">WriteVTKToStream</text>
</a>
</g>
</g>
<!-- Node8&#45;&gt;Node11 -->
<g id="edge10" class="edge"><title>Node8&#45;&gt;Node11</title>
<path fill="none" stroke="midnightblue" d="M191.633,-244.502C214.14,-254.736 251.326,-271.264 284,-284 289.529,-286.155 295.33,-288.322 301.138,-290.431"/>
<polygon fill="midnightblue" stroke="midnightblue" points="300.278,-293.841 310.873,-293.913 302.636,-287.25 300.278,-293.841"/>
</g>
<!-- Node12 -->
<g id="node12" class="node"><title>Node12</title>
<g id="a_node12"><a xlink:href="classSolverUtils_1_1FEM_1_1SolutionData_addf180ac6b7ba13756908f2f6218230c.html#addf180ac6b7ba13756908f2f6218230c" target="_top" xlink:title="SolverUtils::FEM::Solution\lData::Data">
<polygon fill="none" stroke="black" points="290.5,-245 290.5,-275 423.5,-275 423.5,-245 290.5,-245"/>
<text text-anchor="start" x="298.5" y="-263" font-family="Helvetica,sans-Serif" font-size="10.00">SolverUtils::FEM::Solution</text>
<text text-anchor="middle" x="357" y="-252" font-family="Helvetica,sans-Serif" font-size="10.00">Data::Data</text>
</a>
</g>
</g>
<!-- Node8&#45;&gt;Node12 -->
<g id="edge11" class="edge"><title>Node8&#45;&gt;Node12</title>
<path fill="none" stroke="midnightblue" d="M241.468,-244.523C254.118,-246.232 267.352,-248.02 280.146,-249.749"/>
<polygon fill="midnightblue" stroke="midnightblue" points="279.914,-253.25 290.293,-251.121 280.852,-246.313 279.914,-253.25"/>
</g>
<!-- Node13 -->
<g id="node13" class="node"><title>Node13</title>
<g id="a_node13"><a xlink:href="classSolverUtils_1_1FEM_1_1SolutionData_a62680bd659e55d37f379eb09498faf92.html#a62680bd659e55d37f379eb09498faf92" target="_top" xlink:title="SolverUtils::FEM::Solution\lData::Meta">
<polygon fill="none" stroke="black" points="290.5,-196 290.5,-226 423.5,-226 423.5,-196 290.5,-196"/>
<text text-anchor="start" x="298.5" y="-214" font-family="Helvetica,sans-Serif" font-size="10.00">SolverUtils::FEM::Solution</text>
<text text-anchor="middle" x="357" y="-203" font-family="Helvetica,sans-Serif" font-size="10.00">Data::Meta</text>
</a>
</g>
</g>
<!-- Node8&#45;&gt;Node13 -->
<g id="edge12" class="edge"><title>Node8&#45;&gt;Node13</title>
<path fill="none" stroke="midnightblue" d="M244.383,-225.48C256.283,-223.936 268.626,-222.335 280.574,-220.785"/>
<polygon fill="midnightblue" stroke="midnightblue" points="281.033,-224.255 290.5,-219.497 280.133,-217.313 281.033,-224.255"/>
</g>
<!-- Node14 -->
<g id="node14" class="node"><title>Node14</title>
<g id="a_node14"><a xlink:href="classSolverUtils_1_1Mesh_1_1NodalCoordinates_a6c40ee25a17756bd699b25f38bbf3001.html#a6c40ee25a17756bd699b25f38bbf3001" target="_top" xlink:title="SolverUtils::Mesh::\lNodalCoordinates::NNodes">
<polygon fill="none" stroke="black" points="288.5,-147 288.5,-177 425.5,-177 425.5,-147 288.5,-147"/>
<text text-anchor="start" x="296.5" y="-165" font-family="Helvetica,sans-Serif" font-size="10.00">SolverUtils::Mesh::</text>
<text text-anchor="middle" x="357" y="-154" font-family="Helvetica,sans-Serif" font-size="10.00">NodalCoordinates::NNodes</text>
</a>
</g>
</g>
<!-- Node8&#45;&gt;Node14 -->
<g id="edge13" class="edge"><title>Node8&#45;&gt;Node14</title>
<path fill="none" stroke="midnightblue" d="M192.486,-225.361C215.088,-215.343 251.781,-199.42 284,-187 289.753,-184.782 295.796,-182.544 301.835,-180.365"/>
<polygon fill="midnightblue" stroke="midnightblue" points="303.03,-183.655 311.276,-177.003 300.682,-177.061 303.03,-183.655"/>
</g>
<!-- Node15 -->
<g id="node15" class="node"><title>Node15</title>
<g id="a_node15"><a xlink:href="classSolverUtils_1_1Mesh_1_1Connectivity_a3efad0e23e75de241cfe6c5193f1daa7.html#a3efad0e23e75de241cfe6c5193f1daa7" target="_top" xlink:title="SolverUtils::Mesh::\lConnectivity::Nelem">
<polygon fill="none" stroke="black" points="304,-98 304,-128 410,-128 410,-98 304,-98"/>
<text text-anchor="start" x="312" y="-116" font-family="Helvetica,sans-Serif" font-size="10.00">SolverUtils::Mesh::</text>
<text text-anchor="middle" x="357" y="-105" font-family="Helvetica,sans-Serif" font-size="10.00">Connectivity::Nelem</text>
</a>
</g>
</g>
<!-- Node8&#45;&gt;Node15 -->
<g id="edge14" class="edge"><title>Node8&#45;&gt;Node15</title>
<path fill="none" stroke="midnightblue" d="M179.697,-225.23C197.471,-205.812 240.008,-162.077 284,-137 287.38,-135.073 290.939,-133.271 294.59,-131.592"/>
<polygon fill="midnightblue" stroke="midnightblue" points="295.977,-134.805 303.805,-127.665 293.234,-128.365 295.977,-134.805"/>
</g>
<!-- Node16 -->
<g id="node16" class="node"><title>Node16</title>
<g id="a_node16"><a xlink:href="classSolverUtils_1_1FEM_1_1SolutionData_a967ed966dc1c49c1cea8eee1474604b1.html#a967ed966dc1c49c1cea8eee1474604b1" target="_top" xlink:title="SolverUtils::FEM::Solution\lData::GetFieldData">
<polygon fill="none" stroke="black" points="290.5,-49 290.5,-79 423.5,-79 423.5,-49 290.5,-49"/>
<text text-anchor="start" x="298.5" y="-67" font-family="Helvetica,sans-Serif" font-size="10.00">SolverUtils::FEM::Solution</text>
<text text-anchor="middle" x="357" y="-56" font-family="Helvetica,sans-Serif" font-size="10.00">Data::GetFieldData</text>
</a>
</g>
</g>
<!-- Node8&#45;&gt;Node16 -->
<g id="edge15" class="edge"><title>Node8&#45;&gt;Node16</title>
<path fill="none" stroke="midnightblue" d="M175.868,-225.152C189.337,-198.904 229.714,-126.64 284,-88 286.113,-86.4957 288.328,-85.0809 290.614,-83.7506"/>
<polygon fill="midnightblue" stroke="midnightblue" points="292.465,-86.7339 299.737,-79.0287 289.247,-80.5174 292.465,-86.7339"/>
</g>
<!-- Node18 -->
<g id="node18" class="node"><title>Node18</title>
<g id="a_node18"><a xlink:href="classSolverUtils_1_1FEM_1_1DataBuffer_a7c0db56cdbb7cc997b82b99ba2682ff6.html#a7c0db56cdbb7cc997b82b99ba2682ff6" target="_top" xlink:title="SolverUtils::FEM::DataBuffer\l::Data">
<polygon fill="none" stroke="black" points="284.5,-0 284.5,-30 429.5,-30 429.5,-0 284.5,-0"/>
<text text-anchor="start" x="292.5" y="-18" font-family="Helvetica,sans-Serif" font-size="10.00">SolverUtils::FEM::DataBuffer</text>
<text text-anchor="middle" x="357" y="-7" font-family="Helvetica,sans-Serif" font-size="10.00">::Data</text>
</a>
</g>
</g>
<!-- Node8&#45;&gt;Node18 -->
<g id="edge17" class="edge"><title>Node8&#45;&gt;Node18</title>
<path fill="none" stroke="midnightblue" d="M173.869,-225.197C183.674,-193.408 218.895,-92.165 284,-39 285.569,-37.7187 287.209,-36.5046 288.907,-35.3545"/>
<polygon fill="midnightblue" stroke="midnightblue" points="290.959,-38.2079 297.803,-30.1201 287.409,-32.1748 290.959,-38.2079"/>
</g>
<!-- Node17 -->
<g id="node17" class="node"><title>Node17</title>
<g id="a_node17"><a xlink:href="classSolverUtils_1_1FEM_1_1SolutionData_a2b73f52413287c249bd669e3fb1bfc52.html#a2b73f52413287c249bd669e3fb1bfc52" target="_top" xlink:title="SolverUtils::FEM::Solution\lData::GetDataIndex">
<polygon fill="none" stroke="black" points="466.5,-49 466.5,-79 599.5,-79 599.5,-49 466.5,-49"/>
<text text-anchor="start" x="474.5" y="-67" font-family="Helvetica,sans-Serif" font-size="10.00">SolverUtils::FEM::Solution</text>
<text text-anchor="middle" x="533" y="-56" font-family="Helvetica,sans-Serif" font-size="10.00">Data::GetDataIndex</text>
</a>
</g>
</g>
<!-- Node16&#45;&gt;Node17 -->
<g id="edge16" class="edge"><title>Node16&#45;&gt;Node17</title>
<path fill="none" stroke="midnightblue" d="M423.782,-64C434.357,-64 445.377,-64 456.165,-64"/>
<polygon fill="midnightblue" stroke="midnightblue" points="456.414,-67.5001 466.414,-64 456.414,-60.5001 456.414,-67.5001"/>
</g>
</g>
</svg>
