<?xml version="1.0" encoding="UTF-8" standalone="no"?>
<!DOCTYPE svg PUBLIC "-//W3C//DTD SVG 1.1//EN"
 "http://www.w3.org/Graphics/SVG/1.1/DTD/svg11.dtd">
<!-- Generated by graphviz version 2.30.1 (20150305.2338)
 -->
<!-- Title: has_point Pages: 1 -->
<!--zoomable 209 -->
<svg id="main" version="1.1" xmlns="http://www.w3.org/2000/svg" xmlns:xlink="http://www.w3.org/1999/xlink" xml:space="preserve" onload="init(evt)">
<style type="text/css"><![CDATA[
.edge:hover path { stroke: red; }
.edge:hover polygon { stroke: red; fill: red; }
]]></style>
<script type="text/javascript"><![CDATA[
var edges = document.getElementsByTagName('g');
if (edges && edges.length) {
  for (var i=0;i<edges.length;i++) {
    if (edges[i].id.substr(0,4)=='edge') {
      edges[i].setAttribute('class','edge');
    }
  }
}
]]></script>
        <defs>
                <circle id="rim" cx="0" cy="0" r="7"/>
                <circle id="rim2" cx="0" cy="0" r="3.5"/>
                <g id="zoomPlus">
                        <use xlink:href="#rim" fill="#404040">
                                <set attributeName="fill" to="#808080" begin="zoomplus.mouseover" end="zoomplus.mouseout"/>
                        </use>
                        <path d="M-4,0h8M0,-4v8" fill="none" stroke="white" stroke-width="1.5" pointer-events="none"/>
                </g>
                <g id="zoomMin">
                        <use xlink:href="#rim" fill="#404040">
                                <set attributeName="fill" to="#808080" begin="zoomminus.mouseover" end="zoomminus.mouseout"/>
                        </use>
                        <path d="M-4,0h8" fill="none" stroke="white" stroke-width="1.5" pointer-events="none"/>
                </g>
                <g id="dirArrow">
                        <path fill="none" stroke="white" stroke-width="1.5" d="M0,-3.0v7 M-2.5,-0.5L0,-3.0L2.5,-0.5"/>
                </g>
               <g id="resetDef">
                       <use xlink:href="#rim2" fill="#404040">
                               <set attributeName="fill" to="#808080" begin="reset.mouseover" end="reset.mouseout"/>
                       </use>
               </g>
        </defs>

<script type="text/javascript">
var viewWidth = 506;
var viewHeight = 209;
var sectionId = 'dynsection-0';
</script>
<script xlink:href="svgpan.js"/>
<svg id="graph" class="graph">
<g id="viewport">
<title>has_point</title>
<!-- Node1 -->
<g id="node1" class="node"><title>Node1</title>
<polygon fill="#bfbfbf" stroke="black" points="0.5,-78.5 0.5,-97.5 59.5,-97.5 59.5,-78.5 0.5,-78.5"/>
<text text-anchor="middle" x="30" y="-85.5" font-family="Helvetica,sans-Serif" font-size="10.00">has_point</text>
</g>
<!-- Node2 -->
<g id="node2" class="node"><title>Node2</title>
<g id="a_node2"><a xlink:href="classSolverUtils_1_1GeoPrim_1_1CLine_a5a825f157fd23c389876bd1c54d57757.html#a5a825f157fd23c389876bd1c54d57757" target="_top" xlink:title="SolverUtils::GeoPrim\l::CLine::has_point">
<polygon fill="none" stroke="black" points="96.5,-147 96.5,-177 205.5,-177 205.5,-147 96.5,-147"/>
<text text-anchor="start" x="104.5" y="-165" font-family="Helvetica,sans-Serif" font-size="10.00">SolverUtils::GeoPrim</text>
<text text-anchor="middle" x="151" y="-154" font-family="Helvetica,sans-Serif" font-size="10.00">::CLine::has_point</text>
</a>
</g>
</g>
<!-- Node1&#45;&gt;Node2 -->
<g id="edge1" class="edge"><title>Node1&#45;&gt;Node2</title>
<path fill="none" stroke="midnightblue" d="M42.4475,-97.8216C55.0342,-108.329 76.1186,-125.089 96,-137 99.0159,-138.807 102.184,-140.575 105.411,-142.283"/>
<polygon fill="midnightblue" stroke="midnightblue" points="104.079,-145.532 114.583,-146.919 107.237,-139.284 104.079,-145.532"/>
</g>
<!-- Node6 -->
<g id="node6" class="node"><title>Node6</title>
<g id="a_node6"><a xlink:href="classSolverUtils_1_1GeoPrim_1_1CPoint_a3b195b867437acf8de45f48c83e81932.html#a3b195b867437acf8de45f48c83e81932" target="_top" xlink:title="SolverUtils::GeoPrim\l::CPoint::x">
<polygon fill="none" stroke="black" points="96.5,-98 96.5,-128 205.5,-128 205.5,-98 96.5,-98"/>
<text text-anchor="start" x="104.5" y="-116" font-family="Helvetica,sans-Serif" font-size="10.00">SolverUtils::GeoPrim</text>
<text text-anchor="middle" x="151" y="-105" font-family="Helvetica,sans-Serif" font-size="10.00">::CPoint::x</text>
</a>
</g>
</g>
<!-- Node1&#45;&gt;Node6 -->
<g id="edge6" class="edge"><title>Node1&#45;&gt;Node6</title>
<path fill="none" stroke="midnightblue" d="M59.5035,-93.9881C67.6687,-95.7035 76.9145,-97.6459 86.3003,-99.6177"/>
<polygon fill="midnightblue" stroke="midnightblue" points="85.5866,-103.044 96.0926,-101.675 87.0258,-96.1936 85.5866,-103.044"/>
</g>
<!-- Node7 -->
<g id="node7" class="node"><title>Node7</title>
<g id="a_node7"><a xlink:href="classSolverUtils_1_1GeoPrim_1_1CPoint_ad927d9808ded1fc49c05ae9e1a3ed2a6.html#ad927d9808ded1fc49c05ae9e1a3ed2a6" target="_top" xlink:title="SolverUtils::GeoPrim\l::CPoint::y">
<polygon fill="none" stroke="black" points="96.5,-49 96.5,-79 205.5,-79 205.5,-49 96.5,-49"/>
<text text-anchor="start" x="104.5" y="-67" font-family="Helvetica,sans-Serif" font-size="10.00">SolverUtils::GeoPrim</text>
<text text-anchor="middle" x="151" y="-56" font-family="Helvetica,sans-Serif" font-size="10.00">::CPoint::y</text>
</a>
</g>
</g>
<!-- Node1&#45;&gt;Node7 -->
<g id="edge7" class="edge"><title>Node1&#45;&gt;Node7</title>
<path fill="none" stroke="midnightblue" d="M59.5035,-82.2514C67.5828,-80.622 76.7199,-78.7792 86.0039,-76.9068"/>
<polygon fill="midnightblue" stroke="midnightblue" points="86.9819,-80.2801 96.0926,-74.8721 85.598,-73.4182 86.9819,-80.2801"/>
</g>
<!-- Node8 -->
<g id="node8" class="node"><title>Node8</title>
<g id="a_node8"><a xlink:href="classSolverUtils_1_1GeoPrim_1_1CPoint_a2134ad02d68f29e9c7cd87e4cd4c75b8.html#a2134ad02d68f29e9c7cd87e4cd4c75b8" target="_top" xlink:title="SolverUtils::GeoPrim\l::CPoint::z">
<polygon fill="none" stroke="black" points="96.5,-0 96.5,-30 205.5,-30 205.5,-0 96.5,-0"/>
<text text-anchor="start" x="104.5" y="-18" font-family="Helvetica,sans-Serif" font-size="10.00">SolverUtils::GeoPrim</text>
<text text-anchor="middle" x="151" y="-7" font-family="Helvetica,sans-Serif" font-size="10.00">::CPoint::z</text>
</a>
</g>
</g>
<!-- Node1&#45;&gt;Node8 -->
<g id="edge8" class="edge"><title>Node1&#45;&gt;Node8</title>
<path fill="none" stroke="midnightblue" d="M42.4816,-78.4013C55.0974,-68.1274 76.2065,-51.7261 96,-40 99.0248,-38.208 102.2,-36.4507 105.431,-34.7505"/>
<polygon fill="midnightblue" stroke="midnightblue" points="107.253,-37.7518 114.611,-30.1287 104.105,-31.4995 107.253,-37.7518"/>
</g>
<!-- Node3 -->
<g id="node3" class="node"><title>Node3</title>
<g id="a_node3"><a xlink:href="classSolverUtils_1_1GeoPrim_1_1CVector_a0126d0fe9bd09bf10febcb659a2bf1a6.html#a0126d0fe9bd09bf10febcb659a2bf1a6" target="_top" xlink:title="SolverUtils::GeoPrim\l::CVector::normalize">
<polygon fill="none" stroke="black" points="242.5,-171 242.5,-201 351.5,-201 351.5,-171 242.5,-171"/>
<text text-anchor="start" x="250.5" y="-189" font-family="Helvetica,sans-Serif" font-size="10.00">SolverUtils::GeoPrim</text>
<text text-anchor="middle" x="297" y="-178" font-family="Helvetica,sans-Serif" font-size="10.00">::CVector::normalize</text>
</a>
</g>
</g>
<!-- Node2&#45;&gt;Node3 -->
<g id="edge2" class="edge"><title>Node2&#45;&gt;Node3</title>
<path fill="none" stroke="midnightblue" d="M205.62,-170.937C214.335,-172.389 223.435,-173.906 232.361,-175.393"/>
<polygon fill="midnightblue" stroke="midnightblue" points="231.896,-178.864 242.335,-177.056 233.046,-171.959 231.896,-178.864"/>
</g>
<!-- Node5 -->
<g id="node5" class="node"><title>Node5</title>
<g id="a_node5"><a xlink:href="classSolverUtils_1_1GeoPrim_1_1CVector_a2c751c0ebacf0090e671ebd938c879bf.html#a2c751c0ebacf0090e671ebd938c879bf" target="_top" xlink:title="SolverUtils::GeoPrim\l::CVector::unit">
<polygon fill="none" stroke="black" points="242.5,-122 242.5,-152 351.5,-152 351.5,-122 242.5,-122"/>
<text text-anchor="start" x="250.5" y="-140" font-family="Helvetica,sans-Serif" font-size="10.00">SolverUtils::GeoPrim</text>
<text text-anchor="middle" x="297" y="-129" font-family="Helvetica,sans-Serif" font-size="10.00">::CVector::unit</text>
</a>
</g>
</g>
<!-- Node2&#45;&gt;Node5 -->
<g id="edge4" class="edge"><title>Node2&#45;&gt;Node5</title>
<path fill="none" stroke="midnightblue" d="M205.62,-152.691C214.335,-151.178 223.435,-149.598 232.361,-148.048"/>
<polygon fill="midnightblue" stroke="midnightblue" points="233.081,-151.476 242.335,-146.317 231.884,-144.579 233.081,-151.476"/>
</g>
<!-- Node4 -->
<g id="node4" class="node"><title>Node4</title>
<g id="a_node4"><a xlink:href="classSolverUtils_1_1GeoPrim_1_1CVector_a0c08e460a130fd3b8eff7eb7484e878a.html#a0c08e460a130fd3b8eff7eb7484e878a" target="_top" xlink:title="SolverUtils::GeoPrim\l::CVector::norm">
<polygon fill="none" stroke="black" points="388.5,-146 388.5,-176 497.5,-176 497.5,-146 388.5,-146"/>
<text text-anchor="start" x="396.5" y="-164" font-family="Helvetica,sans-Serif" font-size="10.00">SolverUtils::GeoPrim</text>
<text text-anchor="middle" x="443" y="-153" font-family="Helvetica,sans-Serif" font-size="10.00">::CVector::norm</text>
</a>
</g>
</g>
<!-- Node3&#45;&gt;Node4 -->
<g id="edge3" class="edge"><title>Node3&#45;&gt;Node4</title>
<path fill="none" stroke="midnightblue" d="M351.62,-176.691C360.335,-175.178 369.435,-173.598 378.361,-172.048"/>
<polygon fill="midnightblue" stroke="midnightblue" points="379.081,-175.476 388.335,-170.317 377.884,-168.579 379.081,-175.476"/>
</g>
<!-- Node5&#45;&gt;Node4 -->
<g id="edge5" class="edge"><title>Node5&#45;&gt;Node4</title>
<path fill="none" stroke="midnightblue" d="M351.62,-145.937C360.335,-147.389 369.435,-148.906 378.361,-150.393"/>
<polygon fill="midnightblue" stroke="midnightblue" points="377.896,-153.864 388.335,-152.056 379.046,-146.959 377.896,-153.864"/>
</g>
</g>
</svg>
        <g id="navigator" transform="translate(0 0)" fill="#404254">
                <rect fill="#f2f5e9" fill-opacity="0.5" stroke="#606060" stroke-width=".5" x="0" y="0" width="60" height="60"/>
                <use id="zoomplus" xlink:href="#zoomPlus" x="17" y="9" onmousedown="handleZoom(evt,'in')"/>
                <use id="zoomminus" xlink:href="#zoomMin" x="42" y="9" onmousedown="handleZoom(evt,'out')"/>
                <use id="reset" xlink:href="#resetDef" x="30" y="36" onmousedown="handleReset()"/>
                <g id="arrowUp" xlink:href="#dirArrow" transform="translate(30 24)" onmousedown="handlePan(0,-1)">
                  <use xlink:href="#rim" fill="#404040">
                        <set attributeName="fill" to="#808080" begin="arrowUp.mouseover" end="arrowUp.mouseout"/>
                  </use>
                  <path fill="none" stroke="white" stroke-width="1.5" d="M0,-3.0v7 M-2.5,-0.5L0,-3.0L2.5,-0.5"/>
                </g>
                <g id="arrowRight" xlink:href="#dirArrow" transform="rotate(90) translate(36 -43)" onmousedown="handlePan(1,0)">
                  <use xlink:href="#rim" fill="#404040">
                        <set attributeName="fill" to="#808080" begin="arrowRight.mouseover" end="arrowRight.mouseout"/>
                  </use>
                  <path fill="none" stroke="white" stroke-width="1.5" d="M0,-3.0v7 M-2.5,-0.5L0,-3.0L2.5,-0.5"/>
                </g>
                <g id="arrowDown" xlink:href="#dirArrow" transform="rotate(180) translate(-30 -48)" onmousedown="handlePan(0,1)">
                  <use xlink:href="#rim" fill="#404040">
                        <set attributeName="fill" to="#808080" begin="arrowDown.mouseover" end="arrowDown.mouseout"/>
                  </use>
                  <path fill="none" stroke="white" stroke-width="1.5" d="M0,-3.0v7 M-2.5,-0.5L0,-3.0L2.5,-0.5"/>
                </g>
                <g id="arrowLeft" xlink:href="#dirArrow" transform="rotate(270) translate(-36 17)" onmousedown="handlePan(-1,0)">
                  <use xlink:href="#rim" fill="#404040">
                        <set attributeName="fill" to="#808080" begin="arrowLeft.mouseover" end="arrowLeft.mouseout"/>
                  </use>
                  <path fill="none" stroke="white" stroke-width="1.5" d="M0,-3.0v7 M-2.5,-0.5L0,-3.0L2.5,-0.5"/>
                </g>
        </g>
        <svg viewBox="0 0 15 15" width="100%" height="30px" preserveAspectRatio="xMaxYMin meet">
         <g id="arrow_out" transform="scale(0.3 0.3)">
          <a xlink:href="classSolverUtils_1_1GeoPrim_1_1CLineSegment_aee8741ea7673428339de3f4d65d2d43a_aee8741ea7673428339de3f4d65d2d43a_cgraph_org.svg" target="_base">
           <rect id="button" ry="5" rx="5" y="6" x="6" height="38" width="38"
                fill="#f2f5e9" fill-opacity="0.5" stroke="#606060" stroke-width="1.0"/>
           <path id="arrow"
             d="M 11.500037,31.436501 C 11.940474,20.09759 22.043105,11.32322 32.158766,21.979434 L 37.068811,17.246167 C 37.068811,17.246167 37.088388,32 37.088388,32 L 22.160133,31.978069 C 22.160133,31.978069 26.997745,27.140456 26.997745,27.140456 C 18.528582,18.264221 13.291696,25.230495 11.500037,31.436501 z"
             style="fill:#404040;"/>
          </a>
         </g>
        </svg>
</svg>
