<?xml version="1.0" encoding="UTF-8" standalone="no"?>
<!DOCTYPE svg PUBLIC "-//W3C//DTD SVG 1.1//EN"
 "http://www.w3.org/Graphics/SVG/1.1/DTD/svg11.dtd">
<!-- Generated by graphviz version 2.30.1 (20150305.2338)
 -->
<!-- Title: Program&lt; GlobalType, ComLineType &gt; Pages: 1 -->
<svg width="698pt" height="136pt"
 viewBox="0.00 0.00 698.00 136.00" xmlns="http://www.w3.org/2000/svg" xmlns:xlink="http://www.w3.org/1999/xlink">
<g id="graph0" class="graph" transform="scale(1 1) rotate(0) translate(4 132)">
<title>Program&lt; GlobalType, ComLineType &gt;</title>
<!-- Node1 -->
<g id="node1" class="node"><title>Node1</title>
<polygon fill="#bfbfbf" stroke="black" points="384.5,-49 384.5,-79 499.5,-79 499.5,-49 384.5,-49"/>
<text text-anchor="start" x="392.5" y="-67" font-family="Helvetica,sans-Serif" font-size="10.00">Program&lt; GlobalType,</text>
<text text-anchor="middle" x="442" y="-56" font-family="Helvetica,sans-Serif" font-size="10.00"> ComLineType &gt;</text>
</g>
<!-- Node4 -->
<g id="node4" class="node"><title>Node4</title>
<g id="a_node4"><a xlink:href="classElmerFoamFSI_1_1ExampleProgram_1_1SerialProgram.html" target="_top" xlink:title="Implementation of the basic parts of the serial program example. ">
<polygon fill="none" stroke="black" points="544,-98 544,-128 684,-128 684,-98 544,-98"/>
<text text-anchor="start" x="552" y="-116" font-family="Helvetica,sans-Serif" font-size="10.00">SerialProgram&lt; GlobalType,</text>
<text text-anchor="middle" x="614" y="-105" font-family="Helvetica,sans-Serif" font-size="10.00"> ComLineType &gt;</text>
</a>
</g>
</g>
<!-- Node1&#45;&gt;Node4 -->
<g id="edge3" class="edge"><title>Node1&#45;&gt;Node4</title>
<path fill="none" stroke="midnightblue" d="M505.082,-81.8941C523.366,-87.1644 543.18,-92.8755 560.78,-97.9484"/>
<polygon fill="midnightblue" stroke="midnightblue" points="505.971,-78.508 495.393,-79.1014 504.032,-85.2342 505.971,-78.508"/>
</g>
<!-- Node5 -->
<g id="node5" class="node"><title>Node5</title>
<g id="a_node5"><a xlink:href="classElmerFoamFSI_1_1SerialDriverProgram.html" target="_top" xlink:title="Implementation of the basic parts of the serial program example. ">
<polygon fill="none" stroke="black" points="538.5,-49 538.5,-79 689.5,-79 689.5,-49 538.5,-49"/>
<text text-anchor="start" x="546.5" y="-67" font-family="Helvetica,sans-Serif" font-size="10.00">SerialDriverProgram</text>
<text text-anchor="middle" x="614" y="-56" font-family="Helvetica,sans-Serif" font-size="10.00">&lt; GlobalType, ComLineType &gt;</text>
</a>
</g>
</g>
<!-- Node1&#45;&gt;Node5 -->
<g id="edge4" class="edge"><title>Node1&#45;&gt;Node5</title>
<path fill="none" stroke="midnightblue" d="M509.708,-64C519.152,-64 528.912,-64 538.492,-64"/>
<polygon fill="midnightblue" stroke="midnightblue" points="509.608,-60.5001 499.608,-64 509.608,-67.5001 509.608,-60.5001"/>
</g>
<!-- Node6 -->
<g id="node6" class="node"><title>Node6</title>
<g id="a_node6"><a xlink:href="classElmerModuleDriver_1_1ExampleProgram_1_1SerialProgram.html" target="_top" xlink:title="Implementation of the basic parts of the serial program example. ">
<polygon fill="none" stroke="black" points="544,-0 544,-30 684,-30 684,-0 544,-0"/>
<text text-anchor="start" x="552" y="-18" font-family="Helvetica,sans-Serif" font-size="10.00">SerialProgram&lt; GlobalType,</text>
<text text-anchor="middle" x="614" y="-7" font-family="Helvetica,sans-Serif" font-size="10.00"> ComLineType &gt;</text>
</a>
</g>
</g>
<!-- Node1&#45;&gt;Node6 -->
<g id="edge5" class="edge"><title>Node1&#45;&gt;Node6</title>
<path fill="none" stroke="midnightblue" d="M505.082,-46.1059C523.366,-40.8356 543.18,-35.1245 560.78,-30.0516"/>
<polygon fill="midnightblue" stroke="midnightblue" points="504.032,-42.7658 495.393,-48.8986 505.971,-49.492 504.032,-42.7658"/>
</g>
<!-- Node2 -->
<g id="node2" class="node"><title>Node2</title>
<g id="a_node2"><a xlink:href="classIRAD_1_1Global_1_1GlobalObj.html" target="_top" xlink:title="GlobalType">
<polygon fill="none" stroke="black" points="280,-54.5 280,-73.5 346,-73.5 346,-54.5 280,-54.5"/>
<text text-anchor="middle" x="313" y="-61.5" font-family="Helvetica,sans-Serif" font-size="10.00">GlobalType</text>
</a>
</g>
</g>
<!-- Node2&#45;&gt;Node1 -->
<g id="edge1" class="edge"><title>Node2&#45;&gt;Node1</title>
<path fill="none" stroke="midnightblue" d="M356.238,-64C365.213,-64 374.829,-64 384.244,-64"/>
<polygon fill="midnightblue" stroke="midnightblue" points="356.047,-60.5001 346.047,-64 356.047,-67.5001 356.047,-60.5001"/>
</g>
<!-- Node3 -->
<g id="node3" class="node"><title>Node3</title>
<g id="a_node3"><a xlink:href="classIRAD_1_1Global_1_1GlobalObj.html" target="_top" xlink:title="Base global object. ">
<polygon fill="none" stroke="black" points="0,-49 0,-79 130,-79 130,-49 0,-49"/>
<text text-anchor="start" x="8" y="-67" font-family="Helvetica,sans-Serif" font-size="10.00">GlobalObj&lt; StackType,</text>
<text text-anchor="middle" x="65" y="-56" font-family="Helvetica,sans-Serif" font-size="10.00"> ErrorType, ProfilerType &gt;</text>
</a>
</g>
</g>
<!-- Node3&#45;&gt;Node2 -->
<g id="edge2" class="edge"><title>Node3&#45;&gt;Node2</title>
<path fill="none" stroke="orange" stroke-dasharray="5,2" d="M140.386,-64C187.026,-64 244.781,-64 279.983,-64"/>
<polygon fill="orange" stroke="orange" points="140.312,-60.5001 130.312,-64 140.312,-67.5001 140.312,-60.5001"/>
<text text-anchor="start" x="148.5" y="-78" font-family="Helvetica,sans-Serif" font-size="10.00"> &lt; StackType, int, Profiler</text>
<text text-anchor="middle" x="205" y="-67" font-family="Helvetica,sans-Serif" font-size="10.00">Type &gt;</text>
</g>
</g>
</svg>
