<?xml version="1.0" encoding="UTF-8" standalone="no"?>
<!DOCTYPE svg PUBLIC "-//W3C//DTD SVG 1.1//EN"
 "http://www.w3.org/Graphics/SVG/1.1/DTD/svg11.dtd">
<!-- Generated by graphviz version 2.26.0 (20091210.2329)
 -->
<!-- Title: Test__TrapezoidQuadrature Pages: 1 -->
<svg width="290pt" height="146pt"
 viewBox="0.00 0.00 290.00 146.00" xmlns="http://www.w3.org/2000/svg" xmlns:xlink="http://www.w3.org/1999/xlink">
<g id="graph1" class="graph" transform="scale(1 1) rotate(0) translate(4 142)">
<title>Test__TrapezoidQuadrature</title>
<!-- Node1 -->
<g id="node1" class="node"><title>Node1</title>
<polygon fill="#bfbfbf" stroke="black" points="0.5,-58.5 0.5,-79.5 137.5,-79.5 137.5,-58.5 0.5,-58.5"/>
<text text-anchor="middle" x="69" y="-66.5" font-family="Helvetica,sans-Serif" font-size="10.00">Test__TrapezoidQuadrature</text>
</g>
<!-- Node2 -->
<g id="node3" class="node"><title>Node2</title>
<a xlink:href="namespaceElmerModuleDriver_1_1TestFixture_a2b09de3be217e128933f09f43f9d7160.html#a2b09de3be217e128933f09f43f9d7160" target="_top" xlink:title="Simple test function fixture returns . ">
<polygon fill="none" stroke="black" points="175,-104 175,-138 281,-138 281,-104 175,-104"/>
<text text-anchor="start" x="183" y="-125" font-family="Helvetica,sans-Serif" font-size="10.00">ElmerModuleDriver::</text>
<text text-anchor="middle" x="228" y="-112" font-family="Helvetica,sans-Serif" font-size="10.00">TestFixture::F1</text>
</a>
</g>
<!-- Node1&#45;&gt;Node2 -->
<g id="edge2" class="edge"><title>Node1&#45;&gt;Node2</title>
<path fill="none" stroke="midnightblue" d="M101.176,-79.523C119.831,-85.6239 143.951,-93.5124 166.141,-100.769"/>
<polygon fill="midnightblue" stroke="midnightblue" points="165.249,-104.16 175.841,-103.942 167.424,-97.5066 165.249,-104.16"/>
</g>
<!-- Node3 -->
<g id="node5" class="node"><title>Node3</title>
<a xlink:href="namespaceElmerModuleDriver_1_1TestFixture_a79ce78283ad52a81c4107d6cdeb9337c.html#a79ce78283ad52a81c4107d6cdeb9337c" target="_top" xlink:title="Simple test function fixture returns . ">
<polygon fill="none" stroke="black" points="175,-52 175,-86 281,-86 281,-52 175,-52"/>
<text text-anchor="start" x="183" y="-73" font-family="Helvetica,sans-Serif" font-size="10.00">ElmerModuleDriver::</text>
<text text-anchor="middle" x="228" y="-60" font-family="Helvetica,sans-Serif" font-size="10.00">TestFixture::F2</text>
</a>
</g>
<!-- Node1&#45;&gt;Node3 -->
<g id="edge4" class="edge"><title>Node1&#45;&gt;Node3</title>
<path fill="none" stroke="midnightblue" d="M137.815,-69C146.743,-69 155.854,-69 164.687,-69"/>
<polygon fill="midnightblue" stroke="midnightblue" points="164.9,-72.5001 174.9,-69 164.9,-65.5001 164.9,-72.5001"/>
</g>
<!-- Node4 -->
<g id="node7" class="node"><title>Node4</title>
<a xlink:href="namespaceElmerModuleDriver_a7ea1066c129172a0edf5647d8254e957.html#a7ea1066c129172a0edf5647d8254e957" target="_top" xlink:title="Integrates f with composite trapezoid rule. ">
<polygon fill="none" stroke="black" points="174.5,-0 174.5,-34 281.5,-34 281.5,-0 174.5,-0"/>
<text text-anchor="start" x="182.5" y="-21" font-family="Helvetica,sans-Serif" font-size="10.00">ElmerModuleDriver::</text>
<text text-anchor="middle" x="228" y="-8" font-family="Helvetica,sans-Serif" font-size="10.00">TrapezoidQuadrature</text>
</a>
</g>
<!-- Node1&#45;&gt;Node4 -->
<g id="edge6" class="edge"><title>Node1&#45;&gt;Node4</title>
<path fill="none" stroke="midnightblue" d="M101.176,-58.477C119.831,-52.3761 143.951,-44.4876 166.141,-37.2306"/>
<polygon fill="midnightblue" stroke="midnightblue" points="167.424,-40.4934 175.841,-34.0582 165.249,-33.8401 167.424,-40.4934"/>
</g>
</g>
</svg>
