<?xml version="1.0" encoding="UTF-8" standalone="no"?>
<!DOCTYPE svg PUBLIC "-//W3C//DTD SVG 1.1//EN"
 "http://www.w3.org/Graphics/SVG/1.1/DTD/svg11.dtd">
<!-- Generated by graphviz version 2.26.0 (20091210.2329)
 -->
<!-- Title: Prologue Pages: 1 -->
<svg width="390pt" height="90pt"
 viewBox="0.00 0.00 390.00 90.00" xmlns="http://www.w3.org/2000/svg" xmlns:xlink="http://www.w3.org/1999/xlink">
<g id="graph1" class="graph" transform="scale(1 1) rotate(0) translate(4 86)">
<title>Prologue</title>
<!-- Node1 -->
<g id="node1" class="node"><title>Node1</title>
<polygon fill="#bfbfbf" stroke="black" points="0.5,-20.5 0.5,-41.5 55.5,-41.5 55.5,-20.5 0.5,-20.5"/>
<text text-anchor="middle" x="28" y="-28.5" font-family="Helvetica,sans-Serif" font-size="10.00">Prologue</text>
</g>
<!-- Node2 -->
<g id="node3" class="node"><title>Node2</title>
<a xlink:href="classElmerModuleDriver_1_1TestingObject_a046f7ab06db0acf616b0d2bf3d3146aa.html#a046f7ab06db0acf616b0d2bf3d3146aa" target="_top" xlink:title="Process">
<polygon fill="none" stroke="black" points="92.5,-60.5 92.5,-81.5 145.5,-81.5 145.5,-60.5 92.5,-60.5"/>
<text text-anchor="middle" x="119" y="-68.5" font-family="Helvetica,sans-Serif" font-size="10.00">Process</text>
</a>
</g>
<!-- Node1&#45;&gt;Node2 -->
<g id="edge2" class="edge"><title>Node1&#45;&gt;Node2</title>
<path fill="none" stroke="midnightblue" d="M61.3461,-45.6576C72.4754,-50.5496 84.6516,-55.9018 94.9346,-60.4218"/>
<polygon fill="midnightblue" stroke="midnightblue" points="62.4722,-42.3295 51.9092,-41.5095 59.6554,-48.7377 62.4722,-42.3295"/>
</g>
<!-- Node5 -->
<g id="node9" class="node"><title>Node5</title>
<a xlink:href="classElmerModuleDriver_1_1TestingObject_a21159bd2efac623e5a5079f6a20f3444.html#a21159bd2efac623e5a5079f6a20f3444" target="_top" xlink:title="Runs a list of tests specified by name. ">
<polygon fill="none" stroke="black" points="206.5,-0.5 206.5,-21.5 283.5,-21.5 283.5,-0.5 206.5,-0.5"/>
<text text-anchor="middle" x="245" y="-8.5" font-family="Helvetica,sans-Serif" font-size="10.00">ProcessTests</text>
</a>
</g>
<!-- Node1&#45;&gt;Node5 -->
<g id="edge8" class="edge"><title>Node1&#45;&gt;Node5</title>
<path fill="none" stroke="midnightblue" d="M64.8649,-17.399C73.6387,-14.7458 83.0536,-12.3653 92,-11 130.6,-5.10922 175.319,-5.98364 206.401,-7.79619"/>
<polygon fill="midnightblue" stroke="midnightblue" points="63.7432,-14.0831 55.2906,-20.4709 65.8818,-20.7485 63.7432,-14.0831"/>
</g>
<!-- Node6 -->
<g id="node11" class="node"><title>Node6</title>
<a xlink:href="classElmerModuleDriver_1_1TestingObject_af1f07f14b9af7708e4264bb38937eed2.html#af1f07f14b9af7708e4264bb38937eed2" target="_top" xlink:title="Runs a test specified by name. ">
<polygon fill="none" stroke="black" points="92,-20.5 92,-41.5 146,-41.5 146,-20.5 92,-20.5"/>
<text text-anchor="middle" x="119" y="-28.5" font-family="Helvetica,sans-Serif" font-size="10.00">RunTest</text>
</a>
</g>
<!-- Node1&#45;&gt;Node6 -->
<g id="edge10" class="edge"><title>Node1&#45;&gt;Node6</title>
<path fill="none" stroke="midnightblue" d="M65.8425,-31C74.622,-31 83.7931,-31 91.9972,-31"/>
<polygon fill="midnightblue" stroke="midnightblue" points="65.7975,-27.5001 55.7975,-31 65.7974,-34.5001 65.7975,-27.5001"/>
</g>
<!-- Node3 -->
<g id="node5" class="node"><title>Node3</title>
<a xlink:href="namespaceElmerModuleDriver_a657930328d3dc159ded2e9fd6473b2b6.html#a657930328d3dc159ded2e9fd6473b2b6" target="_top" xlink:title="Drives the ElmerModuleDriver::TestObject. ">
<polygon fill="none" stroke="black" points="182.5,-50.5 182.5,-71.5 307.5,-71.5 307.5,-50.5 182.5,-50.5"/>
<text text-anchor="middle" x="245" y="-58.5" font-family="Helvetica,sans-Serif" font-size="10.00">ElmerModuleDriver::Test</text>
</a>
</g>
<!-- Node2&#45;&gt;Node3 -->
<g id="edge4" class="edge"><title>Node2&#45;&gt;Node3</title>
<path fill="none" stroke="midnightblue" d="M155.818,-68.078C164.147,-67.4169 173.219,-66.6969 182.283,-65.9776"/>
<polygon fill="midnightblue" stroke="midnightblue" points="155.413,-64.599 145.721,-68.8793 155.967,-71.577 155.413,-64.599"/>
</g>
<!-- Node4 -->
<g id="node7" class="node"><title>Node4</title>
<a xlink:href="TestElmerModuleDriver_8C_a0ddf1224851353fc92bfbff6f499fa97.html#a0ddf1224851353fc92bfbff6f499fa97" target="_top" xlink:title="main">
<polygon fill="none" stroke="black" points="344,-50.5 344,-71.5 382,-71.5 382,-50.5 344,-50.5"/>
<text text-anchor="middle" x="363" y="-58.5" font-family="Helvetica,sans-Serif" font-size="10.00">main</text>
</a>
</g>
<!-- Node3&#45;&gt;Node4 -->
<g id="edge6" class="edge"><title>Node3&#45;&gt;Node4</title>
<path fill="none" stroke="midnightblue" d="M317.837,-61C327.336,-61 336.327,-61 343.749,-61"/>
<polygon fill="midnightblue" stroke="midnightblue" points="317.8,-57.5001 307.8,-61 317.8,-64.5001 317.8,-57.5001"/>
</g>
<!-- Node6&#45;&gt;Node3 -->
<g id="edge14" class="edge"><title>Node6&#45;&gt;Node3</title>
<path fill="none" stroke="midnightblue" d="M155.827,-39.7683C169.863,-43.1102 186.007,-46.9541 200.668,-50.4449"/>
<polygon fill="midnightblue" stroke="midnightblue" points="156.569,-36.3472 146.03,-37.4358 154.948,-43.1569 156.569,-36.3472"/>
</g>
<!-- Node6&#45;&gt;Node5 -->
<g id="edge12" class="edge"><title>Node6&#45;&gt;Node5</title>
<path fill="none" stroke="midnightblue" d="M155.949,-25.135C171.703,-22.6345 190.094,-19.7153 206.059,-17.1811"/>
<polygon fill="midnightblue" stroke="midnightblue" points="155.358,-21.685 146.03,-26.7095 156.455,-28.5985 155.358,-21.685"/>
</g>
</g>
</svg>
