<?xml version="1.0" encoding="UTF-8" standalone="no"?>
<!DOCTYPE svg PUBLIC "-//W3C//DTD SVG 1.1//EN"
 "http://www.w3.org/Graphics/SVG/1.1/DTD/svg11.dtd">
<!-- Generated by graphviz version 2.30.1 (20150305.2338)
 -->
<!-- Title: _BroadCastMOV Pages: 1 -->
<svg width="244pt" height="66pt"
 viewBox="0.00 0.00 244.00 66.00" xmlns="http://www.w3.org/2000/svg" xmlns:xlink="http://www.w3.org/1999/xlink">
<g id="graph0" class="graph" transform="scale(1 1) rotate(0) translate(4 62)">
<title>_BroadCastMOV</title>
<!-- Node1 -->
<g id="node1" class="node"><title>Node1</title>
<polygon fill="#bfbfbf" stroke="black" points="0.5,-19.5 0.5,-38.5 91.5,-38.5 91.5,-19.5 0.5,-19.5"/>
<text text-anchor="middle" x="46" y="-26.5" font-family="Helvetica,sans-Serif" font-size="10.00">_BroadCastMOV</text>
</g>
<!-- Node2 -->
<g id="node2" class="node"><title>Node2</title>
<g id="a_node2"><a xlink:href="classIRAD_1_1Comm_1_1CommunicatorObject_a83499f0a90a83084a2f8dfa75834ef2f.html#a83499f0a90a83084a2f8dfa75834ef2f" target="_top" xlink:title="BroadCastMO">
<polygon fill="none" stroke="black" points="142.5,-38.5 142.5,-57.5 221.5,-57.5 221.5,-38.5 142.5,-38.5"/>
<text text-anchor="middle" x="182" y="-45.5" font-family="Helvetica,sans-Serif" font-size="10.00">BroadCastMO</text>
</a>
</g>
</g>
<!-- Node1&#45;&gt;Node2 -->
<g id="edge1" class="edge"><title>Node1&#45;&gt;Node2</title>
<path fill="none" stroke="midnightblue" d="M101.854,-36.7778C115.464,-38.7075 129.765,-40.7354 142.41,-42.5283"/>
<polygon fill="midnightblue" stroke="midnightblue" points="102.012,-33.2653 91.6201,-35.3267 101.03,-40.196 102.012,-33.2653"/>
</g>
<!-- Node3 -->
<g id="node3" class="node"><title>Node3</title>
<g id="a_node3"><a xlink:href="classIRAD_1_1Comm_1_1CommunicatorObject_aa6eb3692d43c18bbdc3bfcfb39910f90.html#aa6eb3692d43c18bbdc3bfcfb39910f90" target="_top" xlink:title="BroadCastMOVector">
<polygon fill="none" stroke="black" points="128.5,-0.5 128.5,-19.5 235.5,-19.5 235.5,-0.5 128.5,-0.5"/>
<text text-anchor="middle" x="182" y="-7.5" font-family="Helvetica,sans-Serif" font-size="10.00">BroadCastMOVector</text>
</a>
</g>
</g>
<!-- Node1&#45;&gt;Node3 -->
<g id="edge2" class="edge"><title>Node1&#45;&gt;Node3</title>
<path fill="none" stroke="midnightblue" d="M101.72,-21.2411C110.47,-20.0006 119.508,-18.719 128.211,-17.485"/>
<polygon fill="midnightblue" stroke="midnightblue" points="101.03,-17.804 91.6201,-22.6733 102.012,-24.7347 101.03,-17.804"/>
</g>
</g>
</svg>
