<?xml version="1.0" encoding="UTF-8" standalone="no"?>
<!DOCTYPE svg PUBLIC "-//W3C//DTD SVG 1.1//EN"
 "http://www.w3.org/Graphics/SVG/1.1/DTD/svg11.dtd">
<!-- Generated by graphviz version 2.30.1 (20150305.2338)
 -->
<!-- Title: ~ParallelGlobalObj Pages: 1 -->
<svg width="352pt" height="38pt"
 viewBox="0.00 0.00 352.00 38.00" xmlns="http://www.w3.org/2000/svg" xmlns:xlink="http://www.w3.org/1999/xlink">
<g id="graph0" class="graph" transform="scale(1 1) rotate(0) translate(4 34)">
<title>~ParallelGlobalObj</title>
<!-- Node1 -->
<g id="node1" class="node"><title>Node1</title>
<polygon fill="#bfbfbf" stroke="black" points="0,-5.5 0,-24.5 98,-24.5 98,-5.5 0,-5.5"/>
<text text-anchor="middle" x="49" y="-12.5" font-family="Helvetica,sans-Serif" font-size="10.00">~ParallelGlobalObj</text>
</g>
<!-- Node2 -->
<g id="node2" class="node"><title>Node2</title>
<g id="a_node2"><a xlink:href="classIRAD_1_1Global_1_1ParallelGlobalObj_a6068a393f390317c207fce14a60f9ef4.html#a6068a393f390317c207fce14a60f9ef4" target="_top" xlink:title="Finalizes the global object, and it&#39;s profiler object. ">
<polygon fill="none" stroke="black" points="134,-5.5 134,-24.5 184,-24.5 184,-5.5 134,-5.5"/>
<text text-anchor="middle" x="159" y="-12.5" font-family="Helvetica,sans-Serif" font-size="10.00">Finalize</text>
</a>
</g>
</g>
<!-- Node1&#45;&gt;Node2 -->
<g id="edge1" class="edge"><title>Node1&#45;&gt;Node2</title>
<path fill="none" stroke="midnightblue" d="M98.3141,-15C106.905,-15 115.691,-15 123.787,-15"/>
<polygon fill="midnightblue" stroke="midnightblue" points="123.96,-18.5001 133.96,-15 123.96,-11.5001 123.96,-18.5001"/>
</g>
<!-- Node3 -->
<g id="node3" class="node"><title>Node3</title>
<g id="a_node3"><a xlink:href="classIRAD_1_1Global_1_1GlobalObj_a6068a393f390317c207fce14a60f9ef4.html#a6068a393f390317c207fce14a60f9ef4" target="_top" xlink:title="Finalizes the global object, and it&#39;s profiler object. ">
<polygon fill="none" stroke="black" points="220,-0 220,-30 344,-30 344,-0 220,-0"/>
<text text-anchor="start" x="228" y="-18" font-family="Helvetica,sans-Serif" font-size="10.00">IRAD::Global::GlobalObj</text>
<text text-anchor="middle" x="282" y="-7" font-family="Helvetica,sans-Serif" font-size="10.00">::Finalize</text>
</a>
</g>
</g>
<!-- Node2&#45;&gt;Node3 -->
<g id="edge2" class="edge"><title>Node2&#45;&gt;Node3</title>
<path fill="none" stroke="midnightblue" d="M184.195,-15C191.792,-15 200.602,-15 209.749,-15"/>
<polygon fill="midnightblue" stroke="midnightblue" points="209.768,-18.5001 219.767,-15 209.767,-11.5001 209.768,-18.5001"/>
</g>
</g>
</svg>
