<?xml version="1.0" encoding="UTF-8" standalone="no"?>
<!DOCTYPE svg PUBLIC "-//W3C//DTD SVG 1.1//EN"
 "http://www.w3.org/Graphics/SVG/1.1/DTD/svg11.dtd">
<!-- Generated by graphviz version 2.30.1 (20150305.2338)
 -->
<!-- Title: Test__ModuleFunctionStepFluid Pages: 1 -->
<svg width="466pt" height="77pt"
 viewBox="0.00 0.00 466.00 77.00" xmlns="http://www.w3.org/2000/svg" xmlns:xlink="http://www.w3.org/1999/xlink">
<g id="graph0" class="graph" transform="scale(1 1) rotate(0) translate(4 73)">
<title>Test__ModuleFunctionStepFluid</title>
<!-- Node1 -->
<g id="node1" class="node"><title>Node1</title>
<polygon fill="#bfbfbf" stroke="black" points="0,-20 0,-50 136,-50 136,-20 0,-20"/>
<text text-anchor="start" x="8" y="-38" font-family="Helvetica,sans-Serif" font-size="10.00">Test__ModuleFunctionStep</text>
<text text-anchor="middle" x="68" y="-27" font-family="Helvetica,sans-Serif" font-size="10.00">Fluid</text>
</g>
<!-- Node2 -->
<g id="node2" class="node"><title>Node2</title>
<g id="a_node2"><a xlink:href="classOpenFoamModuleDriver_1_1TestingObject_a046f7ab06db0acf616b0d2bf3d3146aa.html#a046f7ab06db0acf616b0d2bf3d3146aa" target="_top" xlink:title="Process all tests and populate a &quot;results&quot; object. ">
<polygon fill="none" stroke="black" points="172.5,-44.5 172.5,-63.5 225.5,-63.5 225.5,-44.5 172.5,-44.5"/>
<text text-anchor="middle" x="199" y="-51.5" font-family="Helvetica,sans-Serif" font-size="10.00">Process</text>
</a>
</g>
</g>
<!-- Node1&#45;&gt;Node2 -->
<g id="edge1" class="edge"><title>Node1&#45;&gt;Node2</title>
<path fill="none" stroke="midnightblue" d="M146.322,-46.3884C155.602,-47.7553 164.513,-49.0679 172.245,-50.2066"/>
<polygon fill="midnightblue" stroke="midnightblue" points="146.548,-42.8841 136.145,-44.8896 145.528,-49.8094 146.548,-42.8841"/>
</g>
<!-- Node5 -->
<g id="node5" class="node"><title>Node5</title>
<g id="a_node5"><a xlink:href="classOpenFoamModuleDriver_1_1TestingObject_af1f07f14b9af7708e4264bb38937eed2.html#af1f07f14b9af7708e4264bb38937eed2" target="_top" xlink:title="Runs a test specified by name. ">
<polygon fill="none" stroke="black" points="172,-6.5 172,-25.5 226,-25.5 226,-6.5 172,-6.5"/>
<text text-anchor="middle" x="199" y="-13.5" font-family="Helvetica,sans-Serif" font-size="10.00">RunTest</text>
</a>
</g>
</g>
<!-- Node1&#45;&gt;Node5 -->
<g id="edge4" class="edge"><title>Node1&#45;&gt;Node5</title>
<path fill="none" stroke="midnightblue" d="M146.226,-23.6257C155.42,-22.2714 164.255,-20.9701 171.943,-19.8378"/>
<polygon fill="midnightblue" stroke="midnightblue" points="145.528,-20.1906 136.145,-25.1104 146.548,-27.1159 145.528,-20.1906"/>
</g>
<!-- Node3 -->
<g id="node3" class="node"><title>Node3</title>
<g id="a_node3"><a xlink:href="namespaceOpenFoamModuleDriver_a98bd69551725493def1a31bfe72b0781.html#a98bd69551725493def1a31bfe72b0781" target="_top" xlink:title="Drives the OpenFoamModuleDriver::TestObject. ">
<polygon fill="none" stroke="black" points="262,-39 262,-69 384,-69 384,-39 262,-39"/>
<text text-anchor="start" x="270" y="-57" font-family="Helvetica,sans-Serif" font-size="10.00">OpenFoamModuleDriver</text>
<text text-anchor="middle" x="323" y="-46" font-family="Helvetica,sans-Serif" font-size="10.00">::Test</text>
</a>
</g>
</g>
<!-- Node2&#45;&gt;Node3 -->
<g id="edge2" class="edge"><title>Node2&#45;&gt;Node3</title>
<path fill="none" stroke="midnightblue" d="M235.83,-54C243.999,-54 252.899,-54 261.776,-54"/>
<polygon fill="midnightblue" stroke="midnightblue" points="235.575,-50.5001 225.575,-54 235.575,-57.5001 235.575,-50.5001"/>
</g>
<!-- Node4 -->
<g id="node4" class="node"><title>Node4</title>
<g id="a_node4"><a xlink:href="TestOpenFoamModuleDriver_8C_a0ddf1224851353fc92bfbff6f499fa97.html#a0ddf1224851353fc92bfbff6f499fa97" target="_top" xlink:title="main">
<polygon fill="none" stroke="black" points="420,-44.5 420,-63.5 458,-63.5 458,-44.5 420,-44.5"/>
<text text-anchor="middle" x="439" y="-51.5" font-family="Helvetica,sans-Serif" font-size="10.00">main</text>
</a>
</g>
</g>
<!-- Node3&#45;&gt;Node4 -->
<g id="edge3" class="edge"><title>Node3&#45;&gt;Node4</title>
<path fill="none" stroke="midnightblue" d="M394.038,-54C403.534,-54 412.52,-54 419.864,-54"/>
<polygon fill="midnightblue" stroke="midnightblue" points="394.005,-50.5001 384.005,-54 394.005,-57.5001 394.005,-50.5001"/>
</g>
<!-- Node6 -->
<g id="node6" class="node"><title>Node6</title>
<g id="a_node6"><a xlink:href="classOpenFoamModuleDriver_1_1TestingObject_a21159bd2efac623e5a5079f6a20f3444.html#a21159bd2efac623e5a5079f6a20f3444" target="_top" xlink:title="Runs a list of tests specified by name. ">
<polygon fill="none" stroke="black" points="284.5,-0.5 284.5,-19.5 361.5,-19.5 361.5,-0.5 284.5,-0.5"/>
<text text-anchor="middle" x="323" y="-7.5" font-family="Helvetica,sans-Serif" font-size="10.00">ProcessTests</text>
</a>
</g>
</g>
<!-- Node5&#45;&gt;Node6 -->
<g id="edge5" class="edge"><title>Node5&#45;&gt;Node6</title>
<path fill="none" stroke="midnightblue" d="M236.213,-14.219C251.369,-13.4737 268.984,-12.6073 284.295,-11.8543"/>
<polygon fill="midnightblue" stroke="midnightblue" points="235.988,-10.7258 226.172,-14.7128 236.332,-17.7173 235.988,-10.7258"/>
</g>
<!-- Node5&#45;&gt;Node3 -->
<g id="edge6" class="edge"><title>Node5&#45;&gt;Node3</title>
<path fill="none" stroke="midnightblue" d="M235.737,-27.1311C247.619,-30.8321 261.054,-35.0169 273.724,-38.9631"/>
<polygon fill="midnightblue" stroke="midnightblue" points="236.761,-23.7842 226.172,-24.152 234.679,-30.4675 236.761,-23.7842"/>
</g>
</g>
</svg>
