<?xml version="1.0" encoding="UTF-8" standalone="no"?>
<!DOCTYPE svg PUBLIC "-//W3C//DTD SVG 1.1//EN"
 "http://www.w3.org/Graphics/SVG/1.1/DTD/svg11.dtd">
<!-- Generated by graphviz version 2.30.1 (20150305.2338)
 -->
<!-- Title: restart Pages: 1 -->
<svg width="542pt" height="77pt"
 viewBox="0.00 0.00 542.00 77.00" xmlns="http://www.w3.org/2000/svg" xmlns:xlink="http://www.w3.org/1999/xlink">
<g id="graph0" class="graph" transform="scale(1 1) rotate(0) translate(4 73)">
<title>restart</title>
<!-- Node1 -->
<g id="node1" class="node"><title>Node1</title>
<polygon fill="#bfbfbf" stroke="black" points="0,-27.5 0,-46.5 44,-46.5 44,-27.5 0,-27.5"/>
<text text-anchor="middle" x="22" y="-34.5" font-family="Helvetica,sans-Serif" font-size="10.00">restart</text>
</g>
<!-- Node2 -->
<g id="node2" class="node"><title>Node2</title>
<g id="a_node2"><a xlink:href="classgeneralmodule_aab23af2755a40587c4f194ab80091318.html#aab23af2755a40587c4f194ab80091318" target="_top" xlink:title="Sets initial conditions for the fields. ">
<polygon fill="none" stroke="black" points="80.5,-27.5 80.5,-46.5 177.5,-46.5 177.5,-27.5 80.5,-27.5"/>
<text text-anchor="middle" x="129" y="-34.5" font-family="Helvetica,sans-Serif" font-size="10.00">setinitialconditions</text>
</a>
</g>
</g>
<!-- Node1&#45;&gt;Node2 -->
<g id="edge1" class="edge"><title>Node1&#45;&gt;Node2</title>
<path fill="none" stroke="midnightblue" d="M54.4155,-37C62.5698,-37 71.5381,-37 80.3245,-37"/>
<polygon fill="midnightblue" stroke="midnightblue" points="54.2484,-33.5001 44.2483,-37 54.2483,-40.5001 54.2484,-33.5001"/>
</g>
<!-- Node3 -->
<g id="node3" class="node"><title>Node3</title>
<g id="a_node3"><a xlink:href="Initialize_8F90_afecd6445ab6f4860c0f00f62648f7332.html#afecd6445ab6f4860c0f00f62648f7332" target="_top" xlink:title="ElmerLib Elmer library routines ">
<polygon fill="none" stroke="black" points="214,-27.5 214,-46.5 290,-46.5 290,-27.5 214,-27.5"/>
<text text-anchor="middle" x="252" y="-34.5" font-family="Helvetica,sans-Serif" font-size="10.00">elmerinitialize</text>
</a>
</g>
</g>
<!-- Node2&#45;&gt;Node3 -->
<g id="edge2" class="edge"><title>Node2&#45;&gt;Node3</title>
<path fill="none" stroke="midnightblue" d="M188.087,-37C196.897,-37 205.774,-37 213.972,-37"/>
<polygon fill="midnightblue" stroke="midnightblue" points="187.822,-33.5001 177.822,-37 187.822,-40.5001 187.822,-33.5001"/>
</g>
<!-- Node4 -->
<g id="node4" class="node"><title>Node4</title>
<g id="a_node4"><a xlink:href="ElmerCSC_8F90_a7fd2a399b044e015aab8122e737dbf84.html#a7fd2a399b044e015aab8122e737dbf84" target="_top" xlink:title="A caller for the Elmer main program. ">
<polygon fill="none" stroke="black" points="326.5,-27.5 326.5,-46.5 381.5,-46.5 381.5,-27.5 326.5,-27.5"/>
<text text-anchor="middle" x="354" y="-34.5" font-family="Helvetica,sans-Serif" font-size="10.00">initializer</text>
</a>
</g>
</g>
<!-- Node3&#45;&gt;Node4 -->
<g id="edge3" class="edge"><title>Node3&#45;&gt;Node4</title>
<path fill="none" stroke="midnightblue" d="M300.249,-37C309.217,-37 318.304,-37 326.35,-37"/>
<polygon fill="midnightblue" stroke="midnightblue" points="300.236,-33.5001 290.236,-37 300.236,-40.5001 300.236,-33.5001"/>
</g>
<!-- Node5 -->
<g id="node5" class="node"><title>Node5</title>
<g id="a_node5"><a xlink:href="ElmerCSC_8F90_a08424dc689065df44a24c900bc17412b.html#a08424dc689065df44a24c900bc17412b" target="_top" xlink:title="elmercsc_load_module">
<polygon fill="none" stroke="black" points="418,-49.5 418,-68.5 534,-68.5 534,-49.5 418,-49.5"/>
<text text-anchor="middle" x="476" y="-56.5" font-family="Helvetica,sans-Serif" font-size="10.00">elmercsc_load_module</text>
</a>
</g>
</g>
<!-- Node4&#45;&gt;Node5 -->
<g id="edge4" class="edge"><title>Node4&#45;&gt;Node5</title>
<path fill="none" stroke="midnightblue" d="M391.509,-43.6933C401.392,-45.5051 412.284,-47.5021 422.846,-49.4385"/>
<polygon fill="midnightblue" stroke="midnightblue" points="392.099,-40.2432 381.632,-41.8825 390.837,-47.1285 392.099,-40.2432"/>
</g>
<!-- Node6 -->
<g id="node6" class="node"><title>Node6</title>
<g id="a_node6"><a xlink:href="ElmerCSCParallel_8F90_a0068c0eef7a91d38fe8b10ac78b73971.html#a0068c0eef7a91d38fe8b10ac78b73971" target="_top" xlink:title="elmercscparallel_load\l_module">
<polygon fill="none" stroke="black" points="421,-0 421,-30 531,-30 531,-0 421,-0"/>
<text text-anchor="start" x="429" y="-18" font-family="Helvetica,sans-Serif" font-size="10.00">elmercscparallel_load</text>
<text text-anchor="middle" x="476" y="-7" font-family="Helvetica,sans-Serif" font-size="10.00">_module</text>
</a>
</g>
</g>
<!-- Node4&#45;&gt;Node6 -->
<g id="edge5" class="edge"><title>Node4&#45;&gt;Node6</title>
<path fill="none" stroke="midnightblue" d="M391.637,-30.2833C400.88,-28.5887 410.999,-26.7335 420.902,-24.9179"/>
<polygon fill="midnightblue" stroke="midnightblue" points="390.837,-26.8715 381.632,-32.1175 392.099,-33.7568 390.837,-26.8715"/>
</g>
</g>
</svg>
