<?xml version="1.0" encoding="UTF-8" standalone="no"?>
<!DOCTYPE svg PUBLIC "-//W3C//DTD SVG 1.1//EN"
 "http://www.w3.org/Graphics/SVG/1.1/DTD/svg11.dtd">
<!-- Generated by graphviz version 2.30.1 (20150305.2338)
 -->
<!-- Title: TransferPressuresToStructures Pages: 1 -->
<svg width="834pt" height="290pt"
 viewBox="0.00 0.00 834.00 290.00" xmlns="http://www.w3.org/2000/svg" xmlns:xlink="http://www.w3.org/1999/xlink">
<g id="graph0" class="graph" transform="scale(1 1) rotate(0) translate(4 286)">
<title>TransferPressuresToStructures</title>
<!-- Node1 -->
<g id="node1" class="node"><title>Node1</title>
<polygon fill="#bfbfbf" stroke="black" points="0.5,-142.5 0.5,-161.5 153.5,-161.5 153.5,-142.5 0.5,-142.5"/>
<text text-anchor="middle" x="77" y="-149.5" font-family="Helvetica,sans-Serif" font-size="10.00">TransferPressuresToStructures</text>
</g>
<!-- Node2 -->
<g id="node2" class="node"><title>Node2</title>
<g id="a_node2"><a xlink:href="com__c_09_09_8hpp_a6f9e4ea8f2cb977968964f4cb5a4b4f6.html#a6f9e4ea8f2cb977968964f4cb5a4b4f6" target="_top" xlink:title="COM_call_function">
<polygon fill="none" stroke="black" points="208,-262.5 208,-281.5 308,-281.5 308,-262.5 208,-262.5"/>
<text text-anchor="middle" x="258" y="-269.5" font-family="Helvetica,sans-Serif" font-size="10.00">COM_call_function</text>
</a>
</g>
</g>
<!-- Node1&#45;&gt;Node2 -->
<g id="edge1" class="edge"><title>Node1&#45;&gt;Node2</title>
<path fill="none" stroke="midnightblue" d="M85.9118,-161.644C102.869,-181.686 144.86,-228.042 190,-253 193.976,-255.198 198.229,-257.161 202.591,-258.909"/>
<polygon fill="midnightblue" stroke="midnightblue" points="201.656,-262.293 212.25,-262.403 204.037,-255.71 201.656,-262.293"/>
</g>
<!-- Node3 -->
<g id="node3" class="node"><title>Node3</title>
<g id="a_node3"><a xlink:href="com__c_8h_a6dd240c15a2b3e85d2d91cbe9eec6611.html#a6dd240c15a2b3e85d2d91cbe9eec6611" target="_top" xlink:title="Get the address for an dataitem on a specific pane. ">
<polygon fill="none" stroke="black" points="215,-224.5 215,-243.5 301,-243.5 301,-224.5 215,-224.5"/>
<text text-anchor="middle" x="258" y="-231.5" font-family="Helvetica,sans-Serif" font-size="10.00">COM_get_array</text>
</a>
</g>
</g>
<!-- Node1&#45;&gt;Node3 -->
<g id="edge2" class="edge"><title>Node1&#45;&gt;Node3</title>
<path fill="none" stroke="midnightblue" d="M94.7336,-161.565C116.332,-173.701 155.271,-194.869 190,-210 198.995,-213.919 208.857,-217.717 218.183,-221.09"/>
<polygon fill="midnightblue" stroke="midnightblue" points="217.053,-224.403 227.647,-224.44 219.388,-217.804 217.053,-224.403"/>
</g>
<!-- Node4 -->
<g id="node4" class="node"><title>Node4</title>
<g id="a_node4"><a xlink:href="com__c_09_09_8hpp_a86224e33f2e17b4cee6c3256bfdff75d.html#a86224e33f2e17b4cee6c3256bfdff75d" target="_top" xlink:title="COM_get_dataitem_handle">
<polygon fill="none" stroke="black" points="362.5,-142.5 362.5,-161.5 497.5,-161.5 497.5,-142.5 362.5,-142.5"/>
<text text-anchor="middle" x="430" y="-149.5" font-family="Helvetica,sans-Serif" font-size="10.00">COM_get_dataitem_handle</text>
</a>
</g>
</g>
<!-- Node1&#45;&gt;Node4 -->
<g id="edge3" class="edge"><title>Node1&#45;&gt;Node4</title>
<path fill="none" stroke="midnightblue" d="M113.252,-161.553C135.154,-166.988 163.996,-173.245 190,-176 250.108,-182.368 265.951,-182.904 326,-176 346.162,-173.682 368.115,-168.892 386.553,-164.196"/>
<polygon fill="midnightblue" stroke="midnightblue" points="387.617,-167.536 396.402,-161.613 385.841,-160.765 387.617,-167.536"/>
</g>
<!-- Node8 -->
<g id="node8" class="node"><title>Node8</title>
<g id="a_node8"><a xlink:href="com__c_09_09_8hpp_acbbf9749cce36d33b4c60c100bdfaea2.html#acbbf9749cce36d33b4c60c100bdfaea2" target="_top" xlink:title="COM_get_function_handle">
<polygon fill="none" stroke="black" points="192,-49.5 192,-68.5 324,-68.5 324,-49.5 192,-49.5"/>
<text text-anchor="middle" x="258" y="-56.5" font-family="Helvetica,sans-Serif" font-size="10.00">COM_get_function_handle</text>
</a>
</g>
</g>
<!-- Node1&#45;&gt;Node8 -->
<g id="edge7" class="edge"><title>Node1&#45;&gt;Node8</title>
<path fill="none" stroke="midnightblue" d="M89.705,-142.481C109.329,-126.949 150.6,-96.0744 190,-78 195.014,-75.6999 200.369,-73.6162 205.784,-71.7447"/>
<polygon fill="midnightblue" stroke="midnightblue" points="207.089,-75.0013 215.535,-68.6045 204.944,-68.3383 207.089,-75.0013"/>
</g>
<!-- Node10 -->
<g id="node10" class="node"><title>Node10</title>
<g id="a_node10"><a xlink:href="classSolverUtils_1_1TransferObject_aa84c1df0e12b686228cd064d8db0cb72.html#aa84c1df0e12b686228cd064d8db0cb72" target="_top" xlink:title="SolverUtils::TransferObject\l::Overlay">
<polygon fill="none" stroke="black" points="190.5,-88 190.5,-118 325.5,-118 325.5,-88 190.5,-88"/>
<text text-anchor="start" x="198.5" y="-106" font-family="Helvetica,sans-Serif" font-size="10.00">SolverUtils::TransferObject</text>
<text text-anchor="middle" x="258" y="-95" font-family="Helvetica,sans-Serif" font-size="10.00">::Overlay</text>
</a>
</g>
</g>
<!-- Node1&#45;&gt;Node10 -->
<g id="edge10" class="edge"><title>Node1&#45;&gt;Node10</title>
<path fill="none" stroke="midnightblue" d="M112.938,-142.436C135.501,-136.26 165.545,-128.035 192.357,-120.696"/>
<polygon fill="midnightblue" stroke="midnightblue" points="193.348,-124.053 202.069,-118.037 191.5,-117.302 193.348,-124.053"/>
</g>
<!-- Node12 -->
<g id="node12" class="node"><title>Node12</title>
<g id="a_node12"><a xlink:href="classIRAD_1_1Global_1_1GlobalObj_a4604cffc6d9588606aa2a5866b026226.html#a4604cffc6d9588606aa2a5866b026226" target="_top" xlink:title="IRAD::Global::GlobalObj\l::StdOut">
<polygon fill="none" stroke="black" points="196,-0 196,-30 320,-30 320,-0 196,-0"/>
<text text-anchor="start" x="204" y="-18" font-family="Helvetica,sans-Serif" font-size="10.00">IRAD::Global::GlobalObj</text>
<text text-anchor="middle" x="258" y="-7" font-family="Helvetica,sans-Serif" font-size="10.00">::StdOut</text>
</a>
</g>
</g>
<!-- Node1&#45;&gt;Node12 -->
<g id="edge13" class="edge"><title>Node1&#45;&gt;Node12</title>
<path fill="none" stroke="midnightblue" d="M85.3385,-142.216C101.823,-120.853 143.967,-69.5882 190,-40 193.107,-38.0029 196.397,-36.1323 199.785,-34.3859"/>
<polygon fill="midnightblue" stroke="midnightblue" points="201.389,-37.4988 208.925,-30.0511 198.39,-31.174 201.389,-37.4988"/>
</g>
<!-- Node13 -->
<g id="node13" class="node"><title>Node13</title>
<g id="a_node13"><a xlink:href="classSolverUtils_1_1TransferObject_ac956acb3aa9c094efbebec0883d08ba1.html#ac956acb3aa9c094efbebec0883d08ba1" target="_top" xlink:title="SolverUtils::TransferObject\l::Transfer">
<polygon fill="none" stroke="black" points="190.5,-137 190.5,-167 325.5,-167 325.5,-137 190.5,-137"/>
<text text-anchor="start" x="198.5" y="-155" font-family="Helvetica,sans-Serif" font-size="10.00">SolverUtils::TransferObject</text>
<text text-anchor="middle" x="258" y="-144" font-family="Helvetica,sans-Serif" font-size="10.00">::Transfer</text>
</a>
</g>
</g>
<!-- Node1&#45;&gt;Node13 -->
<g id="edge14" class="edge"><title>Node1&#45;&gt;Node13</title>
<path fill="none" stroke="midnightblue" d="M153.653,-152C162.431,-152 171.391,-152 180.185,-152"/>
<polygon fill="midnightblue" stroke="midnightblue" points="180.411,-155.5 190.411,-152 180.411,-148.5 180.411,-155.5"/>
</g>
<!-- Node5 -->
<g id="node5" class="node"><title>Node5</title>
<g id="a_node5"><a xlink:href="COM__base_8hpp_a49353596e53127db61529b5c9000549d.html#a49353596e53127db61529b5c9000549d" target="_top" xlink:title="COM_get_com">
<polygon fill="none" stroke="black" points="550.5,-76.5 550.5,-95.5 633.5,-95.5 633.5,-76.5 550.5,-76.5"/>
<text text-anchor="middle" x="592" y="-83.5" font-family="Helvetica,sans-Serif" font-size="10.00">COM_get_com</text>
</a>
</g>
</g>
<!-- Node4&#45;&gt;Node5 -->
<g id="edge4" class="edge"><title>Node4&#45;&gt;Node5</title>
<path fill="none" stroke="midnightblue" d="M467.196,-142.413C477.286,-139.413 488.172,-135.865 498,-132 521.268,-122.849 546.645,-110.098 565.003,-100.341"/>
<polygon fill="midnightblue" stroke="midnightblue" points="566.767,-103.367 573.915,-95.5468 563.45,-97.2021 566.767,-103.367"/>
</g>
<!-- Node7 -->
<g id="node7" class="node"><title>Node7</title>
<g id="a_node7"><a xlink:href="classCOM_1_1COM__base_a9fd7945150b9f390f5560bce2b7ea375.html#a9fd7945150b9f390f5560bce2b7ea375" target="_top" xlink:title="COM::COM_base::get\l_dataitem_handle">
<polygon fill="none" stroke="black" points="534.5,-137 534.5,-167 649.5,-167 649.5,-137 534.5,-137"/>
<text text-anchor="start" x="542.5" y="-155" font-family="Helvetica,sans-Serif" font-size="10.00">COM::COM_base::get</text>
<text text-anchor="middle" x="592" y="-144" font-family="Helvetica,sans-Serif" font-size="10.00">_dataitem_handle</text>
</a>
</g>
</g>
<!-- Node4&#45;&gt;Node7 -->
<g id="edge6" class="edge"><title>Node4&#45;&gt;Node7</title>
<path fill="none" stroke="midnightblue" d="M497.927,-152C506.667,-152 515.621,-152 524.356,-152"/>
<polygon fill="midnightblue" stroke="midnightblue" points="524.484,-155.5 534.484,-152 524.484,-148.5 524.484,-155.5"/>
</g>
<!-- Node6 -->
<g id="node6" class="node"><title>Node6</title>
<g id="a_node6"><a xlink:href="classCOM_1_1COM__base_a77bb770b9ec1aac99361c45efbccabc1.html#a77bb770b9ec1aac99361c45efbccabc1" target="_top" xlink:title="Get a pointer to the COM object. ">
<polygon fill="none" stroke="black" points="686.5,-76.5 686.5,-95.5 825.5,-95.5 825.5,-76.5 686.5,-76.5"/>
<text text-anchor="middle" x="756" y="-83.5" font-family="Helvetica,sans-Serif" font-size="10.00">COM::COM_base::get_com</text>
</a>
</g>
</g>
<!-- Node5&#45;&gt;Node6 -->
<g id="edge5" class="edge"><title>Node5&#45;&gt;Node6</title>
<path fill="none" stroke="midnightblue" d="M633.879,-86C646.826,-86 661.603,-86 676.279,-86"/>
<polygon fill="midnightblue" stroke="midnightblue" points="676.4,-89.5001 686.4,-86 676.4,-82.5001 676.4,-89.5001"/>
</g>
<!-- Node8&#45;&gt;Node5 -->
<g id="edge8" class="edge"><title>Node8&#45;&gt;Node5</title>
<path fill="none" stroke="midnightblue" d="M324.196,-64.3021C387.438,-69.4453 482.095,-77.1433 540.014,-81.8536"/>
<polygon fill="midnightblue" stroke="midnightblue" points="539.784,-85.3463 550.035,-82.6685 540.351,-78.3693 539.784,-85.3463"/>
</g>
<!-- Node9 -->
<g id="node9" class="node"><title>Node9</title>
<g id="a_node9"><a xlink:href="classCOM_1_1COM__base_a640995dd65a1fb030650457b9cf10b26.html#a640995dd65a1fb030650457b9cf10b26" target="_top" xlink:title="COM::COM_base::get\l_function_handle">
<polygon fill="none" stroke="black" points="372.5,-5 372.5,-35 487.5,-35 487.5,-5 372.5,-5"/>
<text text-anchor="start" x="380.5" y="-23" font-family="Helvetica,sans-Serif" font-size="10.00">COM::COM_base::get</text>
<text text-anchor="middle" x="430" y="-12" font-family="Helvetica,sans-Serif" font-size="10.00">_function_handle</text>
</a>
</g>
</g>
<!-- Node8&#45;&gt;Node9 -->
<g id="edge9" class="edge"><title>Node8&#45;&gt;Node9</title>
<path fill="none" stroke="midnightblue" d="M300.587,-49.4595C319.256,-45.1767 341.744,-40.0176 362.649,-35.2218"/>
<polygon fill="midnightblue" stroke="midnightblue" points="363.476,-38.6229 372.44,-32.9754 361.911,-31.8002 363.476,-38.6229"/>
</g>
<!-- Node10&#45;&gt;Node4 -->
<g id="edge11" class="edge"><title>Node10&#45;&gt;Node4</title>
<path fill="none" stroke="midnightblue" d="M311.393,-118.101C335.443,-125.034 363.598,-133.149 386.33,-139.701"/>
<polygon fill="midnightblue" stroke="midnightblue" points="385.456,-143.091 396.034,-142.498 387.395,-136.365 385.456,-143.091"/>
</g>
<!-- Node11 -->
<g id="node11" class="node"><title>Node11</title>
<g id="a_node11"><a xlink:href="namespaceSolverUtils_ab602f331b052ecdbea6aa8caa0eeed75.html#ab602f331b052ecdbea6aa8caa0eeed75" target="_top" xlink:title="SolverUtils::COM_call\l_function">
<polygon fill="none" stroke="black" points="373,-93 373,-123 487,-123 487,-93 373,-93"/>
<text text-anchor="start" x="381" y="-111" font-family="Helvetica,sans-Serif" font-size="10.00">SolverUtils::COM_call</text>
<text text-anchor="middle" x="430" y="-100" font-family="Helvetica,sans-Serif" font-size="10.00">_function</text>
</a>
</g>
</g>
<!-- Node10&#45;&gt;Node11 -->
<g id="edge12" class="edge"><title>Node10&#45;&gt;Node11</title>
<path fill="none" stroke="midnightblue" d="M325.701,-104.962C337.91,-105.321 350.647,-105.696 362.84,-106.054"/>
<polygon fill="midnightblue" stroke="midnightblue" points="362.832,-109.555 372.931,-106.351 363.038,-102.558 362.832,-109.555"/>
</g>
<!-- Node13&#45;&gt;Node4 -->
<g id="edge15" class="edge"><title>Node13&#45;&gt;Node4</title>
<path fill="none" stroke="midnightblue" d="M325.701,-152C334.487,-152 343.547,-152 352.48,-152"/>
<polygon fill="midnightblue" stroke="midnightblue" points="352.492,-155.5 362.492,-152 352.492,-148.5 352.492,-155.5"/>
</g>
<!-- Node13&#45;&gt;Node11 -->
<g id="edge16" class="edge"><title>Node13&#45;&gt;Node11</title>
<path fill="none" stroke="midnightblue" d="M317.029,-136.981C331.863,-133.141 347.919,-128.986 363.116,-125.052"/>
<polygon fill="midnightblue" stroke="midnightblue" points="364.153,-128.399 372.957,-122.505 362.399,-121.623 364.153,-128.399"/>
</g>
</g>
</svg>
