<?xml version="1.0" encoding="UTF-8" standalone="no"?>
<!DOCTYPE svg PUBLIC "-//W3C//DTD SVG 1.1//EN"
 "http://www.w3.org/Graphics/SVG/1.1/DTD/svg11.dtd">
<!-- Generated by graphviz version 2.30.1 (20150305.2338)
 -->
<!-- Title: TCPSolverClient Pages: 1 -->
<svg width="151pt" height="140pt"
 viewBox="0.00 0.00 151.00 140.00" xmlns="http://www.w3.org/2000/svg" xmlns:xlink="http://www.w3.org/1999/xlink">
<g id="graph0" class="graph" transform="scale(1 1) rotate(0) translate(4 136)">
<title>TCPSolverClient</title>
<!-- Node1 -->
<g id="node1" class="node"><title>Node1</title>
<polygon fill="#bfbfbf" stroke="black" points="36,-0.5 36,-19.5 126,-19.5 126,-0.5 36,-0.5"/>
<text text-anchor="middle" x="81" y="-7.5" font-family="Helvetica,sans-Serif" font-size="10.00">TCPSolverClient</text>
</g>
<!-- Node2 -->
<g id="node2" class="node"><title>Node2</title>
<g id="a_node2"><a xlink:href="classSolverUtils_1_1FEM_1_1FDSolverAgent.html" target="_top" xlink:title="FDSolverAgent">
<polygon fill="none" stroke="black" points="-0.5,-56.5 -0.5,-75.5 82.5,-75.5 82.5,-56.5 -0.5,-56.5"/>
<text text-anchor="middle" x="41" y="-63.5" font-family="Helvetica,sans-Serif" font-size="10.00">FDSolverAgent</text>
</a>
</g>
</g>
<!-- Node2&#45;&gt;Node1 -->
<g id="edge1" class="edge"><title>Node2&#45;&gt;Node1</title>
<path fill="none" stroke="midnightblue" d="M53.6997,-47.8554C60.626,-38.5048 68.9063,-27.3265 74.5177,-19.7511"/>
<polygon fill="midnightblue" stroke="midnightblue" points="50.745,-45.9641 47.6052,-56.083 56.37,-50.1307 50.745,-45.9641"/>
</g>
<!-- Node3 -->
<g id="node3" class="node"><title>Node3</title>
<g id="a_node3"><a xlink:href="classSolverUtils_1_1FEM_1_1SolverAgent.html" target="_top" xlink:title="SolverAgent">
<polygon fill="none" stroke="black" points="6,-112.5 6,-131.5 76,-131.5 76,-112.5 6,-112.5"/>
<text text-anchor="middle" x="41" y="-119.5" font-family="Helvetica,sans-Serif" font-size="10.00">SolverAgent</text>
</a>
</g>
</g>
<!-- Node3&#45;&gt;Node2 -->
<g id="edge2" class="edge"><title>Node3&#45;&gt;Node2</title>
<path fill="none" stroke="midnightblue" d="M41,-101.805C41,-92.9102 41,-82.7798 41,-75.7511"/>
<polygon fill="midnightblue" stroke="midnightblue" points="37.5001,-102.083 41,-112.083 44.5001,-102.083 37.5001,-102.083"/>
</g>
<!-- Node4 -->
<g id="node4" class="node"><title>Node4</title>
<g id="a_node4"><a xlink:href="classIRAD_1_1Sys_1_1Net_1_1Client.html" target="_top" xlink:title="Client">
<polygon fill="none" stroke="black" points="101,-56.5 101,-75.5 143,-75.5 143,-56.5 101,-56.5"/>
<text text-anchor="middle" x="122" y="-63.5" font-family="Helvetica,sans-Serif" font-size="10.00">Client</text>
</a>
</g>
</g>
<!-- Node4&#45;&gt;Node1 -->
<g id="edge3" class="edge"><title>Node4&#45;&gt;Node1</title>
<path fill="none" stroke="midnightblue" d="M108.983,-47.8554C101.883,-38.5048 93.396,-27.3265 87.6443,-19.7511"/>
<polygon fill="midnightblue" stroke="midnightblue" points="106.395,-50.235 115.23,-56.083 111.97,-46.002 106.395,-50.235"/>
</g>
</g>
</svg>
