<?xml version="1.0" encoding="UTF-8" standalone="no"?>
<!DOCTYPE svg PUBLIC "-//W3C//DTD SVG 1.1//EN"
 "http://www.w3.org/Graphics/SVG/1.1/DTD/svg11.dtd">
<!-- Generated by graphviz version 2.30.1 (20150305.2338)
 -->
<!-- Title: get_prev_edge_interior Pages: 1 -->
<svg width="366pt" height="99pt"
 viewBox="0.00 0.00 366.00 99.35" xmlns="http://www.w3.org/2000/svg" xmlns:xlink="http://www.w3.org/1999/xlink">
<g id="graph0" class="graph" transform="scale(1 1) rotate(0) translate(4 95.3522)">
<title>get_prev_edge_interior</title>
<!-- Node1 -->
<g id="node1" class="node"><title>Node1</title>
<polygon fill="#bfbfbf" stroke="black" points="0.5,-33.8522 0.5,-52.8522 115.5,-52.8522 115.5,-33.8522 0.5,-33.8522"/>
<text text-anchor="middle" x="58" y="-40.8522" font-family="Helvetica,sans-Serif" font-size="10.00">get_prev_edge_interior</text>
</g>
<!-- Node2 -->
<g id="node2" class="node"><title>Node2</title>
<g id="a_node2"><a xlink:href="classFacet__ID_a1dea367be190d5726e3aa6b8d0c47076.html#a1dea367be190d5726e3aa6b8d0c47076" target="_top" xlink:title="Element ID of the halfedge. ">
<polygon fill="none" stroke="black" points="282,-71.8522 282,-90.8522 358,-90.8522 358,-71.8522 282,-71.8522"/>
<text text-anchor="middle" x="320" y="-78.8522" font-family="Helvetica,sans-Serif" font-size="10.00">Facet_ID::eid</text>
</a>
</g>
</g>
<!-- Node1&#45;&gt;Node2 -->
<g id="edge1" class="edge"><title>Node1&#45;&gt;Node2</title>
<path fill="none" stroke="midnightblue" d="M76.5323,-52.9313C94.7657,-62.3054 124.445,-75.9399 152,-81.3522 191.834,-89.1763 238.051,-88.4418 271.753,-86.1702"/>
<polygon fill="midnightblue" stroke="midnightblue" points="272.076,-89.6559 281.789,-85.4237 271.557,-82.6752 272.076,-89.6559"/>
</g>
<!-- Node3 -->
<g id="node3" class="node"><title>Node3</title>
<g id="a_node3"><a xlink:href="classSimple__manifold__2_a678219ca5d2b29febb0820f195f668ba.html#a678219ca5d2b29febb0820f195f668ba" target="_top" xlink:title="Get an index for internal edges. ">
<polygon fill="none" stroke="black" points="156.5,-52.8522 156.5,-71.8522 241.5,-71.8522 241.5,-52.8522 156.5,-52.8522"/>
<text text-anchor="middle" x="199" y="-59.8522" font-family="Helvetica,sans-Serif" font-size="10.00">get_edge_index</text>
</a>
</g>
</g>
<!-- Node1&#45;&gt;Node3 -->
<g id="edge2" class="edge"><title>Node1&#45;&gt;Node3</title>
<path fill="none" stroke="midnightblue" d="M115.537,-51.0802C125.689,-52.468 136.225,-53.9081 146.234,-55.2763"/>
<polygon fill="midnightblue" stroke="midnightblue" points="146.055,-58.7842 156.437,-56.6708 147.003,-51.8487 146.055,-58.7842"/>
</g>
<!-- Node5 -->
<g id="node5" class="node"><title>Node5</title>
<g id="a_node5"><a xlink:href="classSimple__manifold__2_ab06c9b0093094a1e15b3c1d91b6d7012.html#ab06c9b0093094a1e15b3c1d91b6d7012" target="_top" xlink:title="Is the element incident on the give edge a ghost element? ">
<polygon fill="none" stroke="black" points="152.5,-14.8522 152.5,-33.8522 245.5,-33.8522 245.5,-14.8522 152.5,-14.8522"/>
<text text-anchor="middle" x="199" y="-21.8522" font-family="Helvetica,sans-Serif" font-size="10.00">is_ghost_element</text>
</a>
</g>
</g>
<!-- Node1&#45;&gt;Node5 -->
<g id="edge5" class="edge"><title>Node1&#45;&gt;Node5</title>
<path fill="none" stroke="midnightblue" d="M115.537,-35.6241C124.288,-34.4279 133.324,-33.1927 142.063,-31.9983"/>
<polygon fill="midnightblue" stroke="midnightblue" points="142.715,-35.4417 152.149,-30.6195 141.767,-28.5062 142.715,-35.4417"/>
</g>
<!-- Node4 -->
<g id="node4" class="node"><title>Node4</title>
<g id="a_node4"><a xlink:href="classFacet__ID_ae7df635a2e18521c31e7da0b999b802b.html#ae7df635a2e18521c31e7da0b999b802b" target="_top" xlink:title="Local edge ID of the halfedge within its element. ">
<polygon fill="none" stroke="black" points="283.5,-14.8522 283.5,-33.8522 356.5,-33.8522 356.5,-14.8522 283.5,-14.8522"/>
<text text-anchor="middle" x="320" y="-21.8522" font-family="Helvetica,sans-Serif" font-size="10.00">Facet_ID::lid</text>
</a>
</g>
</g>
<!-- Node1&#45;&gt;Node4 -->
<g id="edge6" class="edge"><title>Node1&#45;&gt;Node4</title>
<path fill="none" stroke="midnightblue" d="M76.5323,-33.773C94.7657,-24.3989 124.445,-10.7644 152,-5.35216 192.994,2.69993 204.56,-0.047695 246,-5.35216 257.025,-6.76343 268.764,-9.32741 279.531,-12.1246"/>
<polygon fill="midnightblue" stroke="midnightblue" points="278.933,-15.5893 289.502,-14.8479 280.777,-8.83669 278.933,-15.5893"/>
</g>
<!-- Node3&#45;&gt;Node2 -->
<g id="edge3" class="edge"><title>Node3&#45;&gt;Node2</title>
<path fill="none" stroke="midnightblue" d="M241.62,-68.9974C251.37,-70.5541 261.826,-72.2236 271.8,-73.816"/>
<polygon fill="midnightblue" stroke="midnightblue" points="271.543,-77.3192 281.969,-75.4397 272.646,-70.4068 271.543,-77.3192"/>
</g>
<!-- Node3&#45;&gt;Node4 -->
<g id="edge4" class="edge"><title>Node3&#45;&gt;Node4</title>
<path fill="none" stroke="midnightblue" d="M230.029,-52.7632C244.968,-47.9927 263.223,-42.1634 279.301,-37.0293"/>
<polygon fill="midnightblue" stroke="midnightblue" points="280.519,-40.3143 288.981,-33.9381 278.39,-33.646 280.519,-40.3143"/>
</g>
</g>
</svg>
