<?xml version="1.0" encoding="UTF-8" standalone="no"?>
<!DOCTYPE svg PUBLIC "-//W3C//DTD SVG 1.1//EN"
 "http://www.w3.org/Graphics/SVG/1.1/DTD/svg11.dtd">
<!-- Generated by graphviz version 2.26.0 (20091210.2329)
 -->
<!-- Title: Initialize Pages: 1 -->
<svg width="312pt" height="70pt"
 viewBox="0.00 0.00 312.00 70.00" xmlns="http://www.w3.org/2000/svg" xmlns:xlink="http://www.w3.org/1999/xlink">
<g id="graph1" class="graph" transform="scale(1 1) rotate(0) translate(4 66)">
<title>Initialize</title>
<!-- Node1 -->
<g id="node1" class="node"><title>Node1</title>
<polygon fill="#bfbfbf" stroke="black" points="0.5,-20.5 0.5,-41.5 53.5,-41.5 53.5,-20.5 0.5,-20.5"/>
<text text-anchor="middle" x="27" y="-28.5" font-family="Helvetica,sans-Serif" font-size="10.00">Initialize</text>
</g>
<!-- Node2 -->
<g id="node3" class="node"><title>Node2</title>
<a xlink:href="namespaceElmerFoamFSI_ae544cb65d02e78238b4c6f1690b9ffda.html#ae544cb65d02e78238b4c6f1690b9ffda" target="_top" xlink:title="Drives the ElmerFoamFSI::TestObject. ">
<polygon fill="none" stroke="black" points="90,-40.5 90,-61.5 230,-61.5 230,-40.5 90,-40.5"/>
<text text-anchor="middle" x="160" y="-48.5" font-family="Helvetica,sans-Serif" font-size="10.00">ElmerFoamFSI::ParallelTest</text>
</a>
</g>
<!-- Node1&#45;&gt;Node2 -->
<g id="edge2" class="edge"><title>Node1&#45;&gt;Node2</title>
<path fill="none" stroke="midnightblue" d="M63.5644,-36.4984C71.8028,-37.7373 80.8158,-39.0926 89.9186,-40.4614"/>
<polygon fill="midnightblue" stroke="midnightblue" points="64.0042,-33.0253 53.5949,-34.9992 62.9632,-39.9474 64.0042,-33.0253"/>
</g>
<!-- Node4 -->
<g id="node7" class="node"><title>Node4</title>
<a xlink:href="namespaceElmerFoamFSI_aeb590657609088b8ab12a5cbd164fcfa.html#aeb590657609088b8ab12a5cbd164fcfa" target="_top" xlink:title="Drives the ElmerFoamFSI::TestObject. ">
<polygon fill="none" stroke="black" points="106,-0.5 106,-21.5 214,-21.5 214,-0.5 106,-0.5"/>
<text text-anchor="middle" x="160" y="-8.5" font-family="Helvetica,sans-Serif" font-size="10.00">ElmerFoamFSI::Test</text>
</a>
</g>
<!-- Node1&#45;&gt;Node4 -->
<g id="edge6" class="edge"><title>Node1&#45;&gt;Node4</title>
<path fill="none" stroke="midnightblue" d="M63.6154,-25.4939C76.696,-23.5269 91.7243,-21.267 105.962,-19.126"/>
<polygon fill="midnightblue" stroke="midnightblue" points="62.9632,-22.0526 53.5949,-27.0008 64.0042,-28.9747 62.9632,-22.0526"/>
</g>
<!-- Node3 -->
<g id="node5" class="node"><title>Node3</title>
<a xlink:href="ParallelTestElmerFoamFSI_8C_a0ddf1224851353fc92bfbff6f499fa97.html#a0ddf1224851353fc92bfbff6f499fa97" target="_top" xlink:title="main">
<polygon fill="none" stroke="black" points="266,-40.5 266,-61.5 304,-61.5 304,-40.5 266,-40.5"/>
<text text-anchor="middle" x="285" y="-48.5" font-family="Helvetica,sans-Serif" font-size="10.00">main</text>
</a>
</g>
<!-- Node2&#45;&gt;Node3 -->
<g id="edge4" class="edge"><title>Node2&#45;&gt;Node3</title>
<path fill="none" stroke="midnightblue" d="M240.199,-51C249.654,-51 258.521,-51 265.83,-51"/>
<polygon fill="midnightblue" stroke="midnightblue" points="240.173,-47.5001 230.173,-51 240.173,-54.5001 240.173,-47.5001"/>
</g>
<!-- Node5 -->
<g id="node9" class="node"><title>Node5</title>
<a xlink:href="TestElmerFoamFSI_8C_a0ddf1224851353fc92bfbff6f499fa97.html#a0ddf1224851353fc92bfbff6f499fa97" target="_top" xlink:title="main">
<polygon fill="none" stroke="black" points="266,-0.5 266,-21.5 304,-21.5 304,-0.5 266,-0.5"/>
<text text-anchor="middle" x="285" y="-8.5" font-family="Helvetica,sans-Serif" font-size="10.00">main</text>
</a>
</g>
<!-- Node4&#45;&gt;Node5 -->
<g id="edge8" class="edge"><title>Node4&#45;&gt;Node5</title>
<path fill="none" stroke="midnightblue" d="M224.117,-11C239.391,-11 254.536,-11 265.9,-11"/>
<polygon fill="midnightblue" stroke="midnightblue" points="224.1,-7.5001 214.1,-11 224.1,-14.5001 224.1,-7.5001"/>
</g>
</g>
</svg>
