<?xml version="1.0" encoding="UTF-8" standalone="no"?>
<!DOCTYPE svg PUBLIC "-//W3C//DTD SVG 1.1//EN"
 "http://www.w3.org/Graphics/SVG/1.1/DTD/svg11.dtd">
<!-- Generated by graphviz version 2.30.1 (20150305.2338)
 -->
<!-- Title: SetName Pages: 1 -->
<svg width="246pt" height="66pt"
 viewBox="0.00 0.00 246.00 66.00" xmlns="http://www.w3.org/2000/svg" xmlns:xlink="http://www.w3.org/1999/xlink">
<g id="graph0" class="graph" transform="scale(1 1) rotate(0) translate(4 62)">
<title>SetName</title>
<!-- Node1 -->
<g id="node1" class="node"><title>Node1</title>
<polygon fill="#bfbfbf" stroke="black" points="0,-19.5 0,-38.5 58,-38.5 58,-19.5 0,-19.5"/>
<text text-anchor="middle" x="29" y="-26.5" font-family="Helvetica,sans-Serif" font-size="10.00">SetName</text>
</g>
<!-- Node2 -->
<g id="node2" class="node"><title>Node2</title>
<g id="a_node2"><a xlink:href="classfsicoupling_a71c29f8d795fdced4449ddf463c09996.html#a71c29f8d795fdced4449ddf463c09996" target="_top" xlink:title="fsicoupling::fsicoupling">
<polygon fill="none" stroke="black" points="108,-38.5 108,-57.5 224,-57.5 224,-38.5 108,-38.5"/>
<text text-anchor="middle" x="166" y="-45.5" font-family="Helvetica,sans-Serif" font-size="10.00">fsicoupling::fsicoupling</text>
</a>
</g>
</g>
<!-- Node1&#45;&gt;Node2 -->
<g id="edge1" class="edge"><title>Node1&#45;&gt;Node2</title>
<path fill="none" stroke="midnightblue" d="M68.2119,-34.378C80.5191,-36.1101 94.4378,-38.069 107.804,-39.9503"/>
<polygon fill="midnightblue" stroke="midnightblue" points="68.6906,-30.9109 58.3004,-32.983 67.715,-37.8426 68.6906,-30.9109"/>
</g>
<!-- Node3 -->
<g id="node3" class="node"><title>Node3</title>
<g id="a_node3"><a xlink:href="classfsicouplingpar_a74eaa7222973c321c96bc2e4d9186628.html#a74eaa7222973c321c96bc2e4d9186628" target="_top" xlink:title="fsicouplingpar::fsicouplingpar">
<polygon fill="none" stroke="black" points="94.5,-0.5 94.5,-19.5 237.5,-19.5 237.5,-0.5 94.5,-0.5"/>
<text text-anchor="middle" x="166" y="-7.5" font-family="Helvetica,sans-Serif" font-size="10.00">fsicouplingpar::fsicouplingpar</text>
</a>
</g>
</g>
<!-- Node1&#45;&gt;Node3 -->
<g id="edge2" class="edge"><title>Node1&#45;&gt;Node3</title>
<path fill="none" stroke="midnightblue" d="M68.4504,-23.5885C77.4749,-22.3183 87.3556,-20.9277 97.2435,-19.5361"/>
<polygon fill="midnightblue" stroke="midnightblue" points="67.715,-20.1574 58.3004,-25.017 68.6906,-27.0891 67.715,-20.1574"/>
</g>
</g>
</svg>
