<?xml version="1.0" encoding="UTF-8" standalone="no"?>
<!DOCTYPE svg PUBLIC "-//W3C//DTD SVG 1.1//EN"
 "http://www.w3.org/Graphics/SVG/1.1/DTD/svg11.dtd">
<!-- Generated by graphviz version 2.30.1 (20150305.2338)
 -->
<!-- Title: x Pages: 1 -->
<svg width="506pt" height="412pt"
 viewBox="0.00 0.00 506.00 412.00" xmlns="http://www.w3.org/2000/svg" xmlns:xlink="http://www.w3.org/1999/xlink">
<g id="graph0" class="graph" transform="scale(1 1) rotate(0) translate(4 408)">
<title>x</title>
<!-- Node1 -->
<g id="node1" class="node"><title>Node1</title>
<polygon fill="#bfbfbf" stroke="black" points="0.5,-199.5 0.5,-218.5 29.5,-218.5 29.5,-199.5 0.5,-199.5"/>
<text text-anchor="middle" x="15" y="-206.5" font-family="Helvetica,sans-Serif" font-size="10.00">x</text>
</g>
<!-- Node2 -->
<g id="node2" class="node"><title>Node2</title>
<g id="a_node2"><a xlink:href="classSolverUtils_1_1GeoPrim_1_1CPlane_ac4f18a9c2e73cc8e9511e43d3b22ce80.html#ac4f18a9c2e73cc8e9511e43d3b22ce80" target="_top" xlink:title="SolverUtils::GeoPrim\l::CPlane::A">
<polygon fill="none" stroke="black" points="67.5,-374 67.5,-404 176.5,-404 176.5,-374 67.5,-374"/>
<text text-anchor="start" x="75.5" y="-392" font-family="Helvetica,sans-Serif" font-size="10.00">SolverUtils::GeoPrim</text>
<text text-anchor="middle" x="122" y="-381" font-family="Helvetica,sans-Serif" font-size="10.00">::CPlane::A</text>
</a>
</g>
</g>
<!-- Node1&#45;&gt;Node2 -->
<g id="edge1" class="edge"><title>Node1&#45;&gt;Node2</title>
<path fill="none" stroke="midnightblue" d="M17.3591,-229.014C20.5514,-261.224 31.1435,-324.902 66,-364 69.4201,-367.836 73.546,-371.12 77.9821,-373.922"/>
<polygon fill="midnightblue" stroke="midnightblue" points="20.8151,-228.344 16.4865,-218.674 13.8399,-228.933 20.8151,-228.344"/>
</g>
<!-- Node4 -->
<g id="node4" class="node"><title>Node4</title>
<g id="a_node4"><a xlink:href="classSolverUtils_1_1GeoPrim_1_1CBox_abed784e3b40940aea7afe133e6bea96c.html#abed784e3b40940aea7afe133e6bea96c" target="_top" xlink:title="SolverUtils::GeoPrim\l::CBox::around">
<polygon fill="none" stroke="black" points="67.5,-325 67.5,-355 176.5,-355 176.5,-325 67.5,-325"/>
<text text-anchor="start" x="75.5" y="-343" font-family="Helvetica,sans-Serif" font-size="10.00">SolverUtils::GeoPrim</text>
<text text-anchor="middle" x="122" y="-332" font-family="Helvetica,sans-Serif" font-size="10.00">::CBox::around</text>
</a>
</g>
</g>
<!-- Node1&#45;&gt;Node4 -->
<g id="edge3" class="edge"><title>Node1&#45;&gt;Node4</title>
<path fill="none" stroke="midnightblue" d="M20.69,-228.247C27.2495,-251.515 41.234,-290.581 66,-315 69.8838,-318.829 74.4591,-322.135 79.2847,-324.97"/>
<polygon fill="midnightblue" stroke="midnightblue" points="24.0542,-227.278 18.1189,-218.502 17.2858,-229.064 24.0542,-227.278"/>
</g>
<!-- Node5 -->
<g id="node5" class="node"><title>Node5</title>
<g id="a_node5"><a xlink:href="classSolverUtils_1_1GeoPrim_1_1C3Vector_ac35b8414820c659c9fc9366c9d598077.html#ac35b8414820c659c9fc9366c9d598077" target="_top" xlink:title="SolverUtils::GeoPrim\l::C3Vector::C3Vector">
<polygon fill="none" stroke="black" points="66.5,-276 66.5,-306 177.5,-306 177.5,-276 66.5,-276"/>
<text text-anchor="start" x="74.5" y="-294" font-family="Helvetica,sans-Serif" font-size="10.00">SolverUtils::GeoPrim</text>
<text text-anchor="middle" x="122" y="-283" font-family="Helvetica,sans-Serif" font-size="10.00">::C3Vector::C3Vector</text>
</a>
</g>
</g>
<!-- Node1&#45;&gt;Node5 -->
<g id="edge4" class="edge"><title>Node1&#45;&gt;Node5</title>
<path fill="none" stroke="midnightblue" d="M30.4606,-226.582C39.8684,-237.34 52.8051,-250.924 66,-261 73.1749,-266.479 81.4788,-271.559 89.4254,-275.922"/>
<polygon fill="midnightblue" stroke="midnightblue" points="32.8824,-224.028 23.7348,-218.682 27.5524,-228.566 32.8824,-224.028"/>
</g>
<!-- Node6 -->
<g id="node6" class="node"><title>Node6</title>
<g id="a_node6"><a xlink:href="classSolverUtils_1_1GeoPrim_1_1CPlane_a58da7c91a58650c7a4c013fba2c03917.html#a58da7c91a58650c7a4c013fba2c03917" target="_top" xlink:title="SolverUtils::GeoPrim\l::CPlane::contains_point">
<polygon fill="none" stroke="black" points="214,-171 214,-201 338,-201 338,-171 214,-171"/>
<text text-anchor="start" x="222" y="-189" font-family="Helvetica,sans-Serif" font-size="10.00">SolverUtils::GeoPrim</text>
<text text-anchor="middle" x="276" y="-178" font-family="Helvetica,sans-Serif" font-size="10.00">::CPlane::contains_point</text>
</a>
</g>
</g>
<!-- Node1&#45;&gt;Node6 -->
<g id="edge5" class="edge"><title>Node1&#45;&gt;Node6</title>
<path fill="none" stroke="midnightblue" d="M39.7013,-206.895C78.8573,-203.418 158.255,-196.367 213.949,-191.421"/>
<polygon fill="midnightblue" stroke="midnightblue" points="39.2115,-203.425 29.5603,-207.796 39.8307,-210.397 39.2115,-203.425"/>
</g>
<!-- Node3 -->
<g id="node3" class="node"><title>Node3</title>
<g id="a_node3"><a xlink:href="classSolverUtils_1_1GeoPrim_1_1CPlane_a9b3d8cc7c7e241fc5a9226408ed19c59.html#a9b3d8cc7c7e241fc5a9226408ed19c59" target="_top" xlink:title="SolverUtils::GeoPrim\l::CPlane::CPlane">
<polygon fill="none" stroke="black" points="221.5,-255 221.5,-285 330.5,-285 330.5,-255 221.5,-255"/>
<text text-anchor="start" x="229.5" y="-273" font-family="Helvetica,sans-Serif" font-size="10.00">SolverUtils::GeoPrim</text>
<text text-anchor="middle" x="276" y="-262" font-family="Helvetica,sans-Serif" font-size="10.00">::CPlane::CPlane</text>
</a>
</g>
</g>
<!-- Node1&#45;&gt;Node3 -->
<g id="edge8" class="edge"><title>Node1&#45;&gt;Node3</title>
<path fill="none" stroke="midnightblue" d="M39.3871,-214.508C80.2072,-224.122 165.438,-244.196 221.416,-257.38"/>
<polygon fill="midnightblue" stroke="midnightblue" points="40.0964,-211.08 29.5603,-212.194 38.4916,-217.893 40.0964,-211.08"/>
</g>
<!-- Node9 -->
<g id="node9" class="node"><title>Node9</title>
<g id="a_node9"><a xlink:href="classSolverUtils_1_1GeoPrim_1_1CVector_a21c3d092be44dc26d41aa781cabe7654.html#a21c3d092be44dc26d41aa781cabe7654" target="_top" xlink:title="CVector">
<polygon fill="none" stroke="black" points="95.5,-161.5 95.5,-180.5 148.5,-180.5 148.5,-161.5 95.5,-161.5"/>
<text text-anchor="middle" x="122" y="-168.5" font-family="Helvetica,sans-Serif" font-size="10.00">CVector</text>
</a>
</g>
</g>
<!-- Node1&#45;&gt;Node9 -->
<g id="edge9" class="edge"><title>Node1&#45;&gt;Node9</title>
<path fill="none" stroke="midnightblue" d="M39.2025,-200.603C55.7646,-194.609 78.0489,-186.544 95.1754,-180.346"/>
<polygon fill="midnightblue" stroke="midnightblue" points="37.939,-197.338 29.7269,-204.032 40.3212,-203.92 37.939,-197.338"/>
</g>
<!-- Node10 -->
<g id="node10" class="node"><title>Node10</title>
<g id="a_node10"><a xlink:href="classSolverUtils_1_1GeoPrim_1_1CPlane_a59d61124cf2c200bc9417c5e5f3ca029.html#a59d61124cf2c200bc9417c5e5f3ca029" target="_top" xlink:title="SolverUtils::GeoPrim\l::CPlane::D">
<polygon fill="none" stroke="black" points="67.5,-112 67.5,-142 176.5,-142 176.5,-112 67.5,-112"/>
<text text-anchor="start" x="75.5" y="-130" font-family="Helvetica,sans-Serif" font-size="10.00">SolverUtils::GeoPrim</text>
<text text-anchor="middle" x="122" y="-119" font-family="Helvetica,sans-Serif" font-size="10.00">::CPlane::D</text>
</a>
</g>
</g>
<!-- Node1&#45;&gt;Node10 -->
<g id="edge10" class="edge"><title>Node1&#45;&gt;Node10</title>
<path fill="none" stroke="midnightblue" d="M28.3775,-191.267C37.6341,-179.007 51.202,-162.987 66,-152 70.9685,-148.311 76.5683,-144.994 82.2443,-142.075"/>
<polygon fill="midnightblue" stroke="midnightblue" points="25.5076,-189.263 22.4432,-199.405 31.1634,-193.387 25.5076,-189.263"/>
</g>
<!-- Node11 -->
<g id="node11" class="node"><title>Node11</title>
<g id="a_node11"><a xlink:href="classSolverUtils_1_1GeoPrim_1_1CVector_a605b78f009f41c6f4f0c08bf7a3d3a83.html#a605b78f009f41c6f4f0c08bf7a3d3a83" target="_top" xlink:title="init">
<polygon fill="none" stroke="black" points="107.5,-73.5 107.5,-92.5 136.5,-92.5 136.5,-73.5 107.5,-73.5"/>
<text text-anchor="middle" x="122" y="-80.5" font-family="Helvetica,sans-Serif" font-size="10.00">init</text>
</a>
</g>
</g>
<!-- Node1&#45;&gt;Node11 -->
<g id="edge12" class="edge"><title>Node1&#45;&gt;Node11</title>
<path fill="none" stroke="midnightblue" d="M20.2668,-189.176C26.4004,-165.29 39.9564,-125.454 66,-102 77.5605,-91.5888 95.1155,-86.8279 107.269,-84.6869"/>
<polygon fill="midnightblue" stroke="midnightblue" points="16.7926,-188.658 17.891,-199.195 23.6038,-190.273 16.7926,-188.658"/>
</g>
<!-- Node12 -->
<g id="node12" class="node"><title>Node12</title>
<g id="a_node12"><a xlink:href="classSolverUtils_1_1GeoPrim_1_1CBox_ad5a3c5c8c5d76644ff248ff8c50ddf1f.html#ad5a3c5c8c5d76644ff248ff8c50ddf1f" target="_top" xlink:title="SolverUtils::GeoPrim\l::CBox::size">
<polygon fill="none" stroke="black" points="67.5,-24 67.5,-54 176.5,-54 176.5,-24 67.5,-24"/>
<text text-anchor="start" x="75.5" y="-42" font-family="Helvetica,sans-Serif" font-size="10.00">SolverUtils::GeoPrim</text>
<text text-anchor="middle" x="122" y="-31" font-family="Helvetica,sans-Serif" font-size="10.00">::CBox::size</text>
</a>
</g>
</g>
<!-- Node1&#45;&gt;Node12 -->
<g id="edge13" class="edge"><title>Node1&#45;&gt;Node12</title>
<path fill="none" stroke="midnightblue" d="M17.9009,-188.978C21.7916,-158.438 33.2703,-99.9811 66,-64 69.4583,-60.1981 73.6078,-56.9357 78.0571,-54.1456"/>
<polygon fill="midnightblue" stroke="midnightblue" points="14.3898,-188.883 16.7529,-199.21 21.3461,-189.663 14.3898,-188.883"/>
</g>
<!-- Node2&#45;&gt;Node3 -->
<g id="edge2" class="edge"><title>Node2&#45;&gt;Node3</title>
<path fill="none" stroke="midnightblue" d="M169.549,-369.254C172.47,-367.585 175.313,-365.831 178,-364 211.913,-340.89 244.789,-305.45 262.198,-285.336"/>
<polygon fill="midnightblue" stroke="midnightblue" points="167.813,-366.213 160.626,-373.998 171.099,-372.394 167.813,-366.213"/>
</g>
<!-- Node7 -->
<g id="node7" class="node"><title>Node7</title>
<g id="a_node7"><a xlink:href="classSolverUtils_1_1GeoPrim_1_1CPlane_ad5886d99eaa33c5ef208c15d47ec3456.html#ad5886d99eaa33c5ef208c15d47ec3456" target="_top" xlink:title="SolverUtils::GeoPrim\l::CPlane::operator==">
<polygon fill="none" stroke="black" points="381.5,-196 381.5,-226 490.5,-226 490.5,-196 381.5,-196"/>
<text text-anchor="start" x="389.5" y="-214" font-family="Helvetica,sans-Serif" font-size="10.00">SolverUtils::GeoPrim</text>
<text text-anchor="middle" x="436" y="-203" font-family="Helvetica,sans-Serif" font-size="10.00">::CPlane::operator==</text>
</a>
</g>
</g>
<!-- Node6&#45;&gt;Node7 -->
<g id="edge6" class="edge"><title>Node6&#45;&gt;Node7</title>
<path fill="none" stroke="midnightblue" d="M348.21,-197.267C359.324,-199.026 370.646,-200.817 381.284,-202.501"/>
<polygon fill="midnightblue" stroke="midnightblue" points="348.511,-193.772 338.087,-195.666 347.417,-200.686 348.511,-193.772"/>
</g>
<!-- Node8 -->
<g id="node8" class="node"><title>Node8</title>
<g id="a_node8"><a xlink:href="classSolverUtils_1_1GeoPrim_1_1CFacet_a005d826749c8ee06238e1f29b295d690.html#a005d826749c8ee06238e1f29b295d690" target="_top" xlink:title="SolverUtils::GeoPrim\l::CFacet::contains_point">
<polygon fill="none" stroke="black" points="374,-147 374,-177 498,-177 498,-147 374,-147"/>
<text text-anchor="start" x="382" y="-165" font-family="Helvetica,sans-Serif" font-size="10.00">SolverUtils::GeoPrim</text>
<text text-anchor="middle" x="436" y="-154" font-family="Helvetica,sans-Serif" font-size="10.00">::CFacet::contains_point</text>
</a>
</g>
</g>
<!-- Node6&#45;&gt;Node8 -->
<g id="edge7" class="edge"><title>Node6&#45;&gt;Node8</title>
<path fill="none" stroke="midnightblue" d="M348.086,-175.202C356.673,-173.898 365.387,-172.574 373.815,-171.294"/>
<polygon fill="midnightblue" stroke="midnightblue" points="347.448,-171.759 338.087,-176.721 348.499,-178.679 347.448,-171.759"/>
</g>
<!-- Node10&#45;&gt;Node6 -->
<g id="edge11" class="edge"><title>Node10&#45;&gt;Node6</title>
<path fill="none" stroke="midnightblue" d="M171.149,-145.69C192.175,-153.851 216.501,-163.293 236.321,-170.987"/>
<polygon fill="midnightblue" stroke="midnightblue" points="172.338,-142.397 161.749,-142.041 169.805,-148.922 172.338,-142.397"/>
</g>
<!-- Node13 -->
<g id="node13" class="node"><title>Node13</title>
<g id="a_node13"><a xlink:href="classSolverUtils_1_1GeoPrim_1_1CBox_acb422a3757e69bfc73f3d00d0afa6ece.html#acb422a3757e69bfc73f3d00d0afa6ece" target="_top" xlink:title="SolverUtils::GeoPrim\l::CBox::operator\&lt;">
<polygon fill="none" stroke="black" points="221.5,-49 221.5,-79 330.5,-79 330.5,-49 221.5,-49"/>
<text text-anchor="start" x="229.5" y="-67" font-family="Helvetica,sans-Serif" font-size="10.00">SolverUtils::GeoPrim</text>
<text text-anchor="middle" x="276" y="-56" font-family="Helvetica,sans-Serif" font-size="10.00">::CBox::operator&lt;</text>
</a>
</g>
</g>
<!-- Node12&#45;&gt;Node13 -->
<g id="edge14" class="edge"><title>Node12&#45;&gt;Node13</title>
<path fill="none" stroke="midnightblue" d="M186.622,-49.4642C198.186,-51.3661 210.143,-53.3327 221.382,-55.1813"/>
<polygon fill="midnightblue" stroke="midnightblue" points="187.025,-45.9835 176.59,-47.8141 185.889,-52.8907 187.025,-45.9835"/>
</g>
<!-- Node14 -->
<g id="node14" class="node"><title>Node14</title>
<g id="a_node14"><a xlink:href="classSolverUtils_1_1GeoPrim_1_1CBox_ad9be201c6ad170a139b04be0b4f8335a.html#ad9be201c6ad170a139b04be0b4f8335a" target="_top" xlink:title="SolverUtils::GeoPrim\l::CBox::operator\&gt;">
<polygon fill="none" stroke="black" points="221.5,-0 221.5,-30 330.5,-30 330.5,-0 221.5,-0"/>
<text text-anchor="start" x="229.5" y="-18" font-family="Helvetica,sans-Serif" font-size="10.00">SolverUtils::GeoPrim</text>
<text text-anchor="middle" x="276" y="-7" font-family="Helvetica,sans-Serif" font-size="10.00">::CBox::operator&gt;</text>
</a>
</g>
</g>
<!-- Node12&#45;&gt;Node14 -->
<g id="edge15" class="edge"><title>Node12&#45;&gt;Node14</title>
<path fill="none" stroke="midnightblue" d="M186.622,-28.9543C198.186,-27.1285 210.143,-25.2406 221.382,-23.466"/>
<polygon fill="midnightblue" stroke="midnightblue" points="185.921,-25.5216 176.59,-30.5385 187.013,-32.436 185.921,-25.5216"/>
</g>
</g>
</svg>
