<?xml version="1.0" encoding="UTF-8" standalone="no"?>
<!DOCTYPE svg PUBLIC "-//W3C//DTD SVG 1.1//EN"
 "http://www.w3.org/Graphics/SVG/1.1/DTD/svg11.dtd">
<!-- Generated by graphviz version 2.30.1 (20150305.2338)
 -->
<!-- Title: ListenForInput Pages: 1 -->
<svg width="262pt" height="66pt"
 viewBox="0.00 0.00 262.00 66.00" xmlns="http://www.w3.org/2000/svg" xmlns:xlink="http://www.w3.org/1999/xlink">
<g id="graph0" class="graph" transform="scale(1 1) rotate(0) translate(4 62)">
<title>ListenForInput</title>
<!-- Node1 -->
<g id="node1" class="node"><title>Node1</title>
<polygon fill="#bfbfbf" stroke="black" points="0.5,-19.5 0.5,-38.5 79.5,-38.5 79.5,-19.5 0.5,-19.5"/>
<text text-anchor="middle" x="40" y="-26.5" font-family="Helvetica,sans-Serif" font-size="10.00">ListenForInput</text>
</g>
<!-- Node2 -->
<g id="node2" class="node"><title>Node2</title>
<g id="a_node2"><a xlink:href="classIRAD_1_1Sys_1_1FDSetMan_a8ff1bc1d59900d8e9f50614cd586171d.html#a8ff1bc1d59900d8e9f50614cd586171d" target="_top" xlink:title="SetForRead">
<polygon fill="none" stroke="black" points="116.5,-38.5 116.5,-57.5 185.5,-57.5 185.5,-38.5 116.5,-38.5"/>
<text text-anchor="middle" x="151" y="-45.5" font-family="Helvetica,sans-Serif" font-size="10.00">SetForRead</text>
</a>
</g>
</g>
<!-- Node1&#45;&gt;Node2 -->
<g id="edge1" class="edge"><title>Node1&#45;&gt;Node2</title>
<path fill="none" stroke="midnightblue" d="M79.7362,-35.7522C88.3565,-37.2548 97.5525,-38.8578 106.355,-40.3921"/>
<polygon fill="midnightblue" stroke="midnightblue" points="105.996,-43.8823 116.449,-42.1516 107.198,-36.9863 105.996,-43.8823"/>
</g>
<!-- Node4 -->
<g id="node4" class="node"><title>Node4</title>
<g id="a_node4"><a xlink:href="classIRAD_1_1Sys_1_1FDSetMan_abcae23803b7517cce5047494dfcdd2c8.html#abcae23803b7517cce5047494dfcdd2c8" target="_top" xlink:title="Zero">
<polygon fill="none" stroke="black" points="133,-0.5 133,-19.5 169,-19.5 169,-0.5 133,-0.5"/>
<text text-anchor="middle" x="151" y="-7.5" font-family="Helvetica,sans-Serif" font-size="10.00">Zero</text>
</a>
</g>
</g>
<!-- Node1&#45;&gt;Node4 -->
<g id="edge3" class="edge"><title>Node1&#45;&gt;Node4</title>
<path fill="none" stroke="midnightblue" d="M79.7362,-22.2478C93.9822,-19.7646 109.801,-17.0072 122.816,-14.7386"/>
<polygon fill="midnightblue" stroke="midnightblue" points="123.743,-18.1298 132.993,-12.9645 122.541,-11.2338 123.743,-18.1298"/>
</g>
<!-- Node3 -->
<g id="node3" class="node"><title>Node3</title>
<g id="a_node3"><a xlink:href="classIRAD_1_1Sys_1_1FDSetMan_a40d9714d71fc885c68d48f3f922152cd.html#a40d9714d71fc885c68d48f3f922152cd" target="_top" xlink:title="Set">
<polygon fill="none" stroke="black" points="222,-38.5 222,-57.5 254,-57.5 254,-38.5 222,-38.5"/>
<text text-anchor="middle" x="238" y="-45.5" font-family="Helvetica,sans-Serif" font-size="10.00">Set</text>
</a>
</g>
</g>
<!-- Node2&#45;&gt;Node3 -->
<g id="edge2" class="edge"><title>Node2&#45;&gt;Node3</title>
<path fill="none" stroke="midnightblue" d="M185.594,-48C194.241,-48 203.404,-48 211.56,-48"/>
<polygon fill="midnightblue" stroke="midnightblue" points="211.576,-51.5001 221.576,-48 211.576,-44.5001 211.576,-51.5001"/>
</g>
</g>
</svg>
