<?xml version="1.0" encoding="UTF-8" standalone="no"?>
<!DOCTYPE svg PUBLIC "-//W3C//DTD SVG 1.1//EN"
 "http://www.w3.org/Graphics/SVG/1.1/DTD/svg11.dtd">
<!-- Generated by graphviz version 2.30.1 (20150305.2338)
 -->
<!-- Title: pane Pages: 1 -->
<svg width="232pt" height="77pt"
 viewBox="0.00 0.00 232.00 77.00" xmlns="http://www.w3.org/2000/svg" xmlns:xlink="http://www.w3.org/1999/xlink">
<g id="graph0" class="graph" transform="scale(1 1) rotate(0) translate(4 73)">
<title>pane</title>
<!-- Node1 -->
<g id="node1" class="node"><title>Node1</title>
<polygon fill="#bfbfbf" stroke="black" points="0,-22.5 0,-41.5 38,-41.5 38,-22.5 0,-22.5"/>
<text text-anchor="middle" x="19" y="-29.5" font-family="Helvetica,sans-Serif" font-size="10.00">pane</text>
</g>
<!-- Node2 -->
<g id="node2" class="node"><title>Node2</title>
<g id="a_node2"><a xlink:href="classElement__node__vectors__k__const_a02114ee9def538668bfc98d2d00c4409.html#a02114ee9def538668bfc98d2d00c4409" target="_top" xlink:title="initialize the accessor from an attribute assiciated with a pane. ">
<polygon fill="none" stroke="black" points="91,-39 91,-69 207,-69 207,-39 91,-39"/>
<text text-anchor="start" x="99" y="-57" font-family="Helvetica,sans-Serif" font-size="10.00">Element_node_vectors</text>
<text text-anchor="middle" x="149" y="-46" font-family="Helvetica,sans-Serif" font-size="10.00">_k_const::set</text>
</a>
</g>
</g>
<!-- Node1&#45;&gt;Node2 -->
<g id="edge1" class="edge"><title>Node1&#45;&gt;Node2</title>
<path fill="none" stroke="midnightblue" d="M47.9565,-36.805C60.5938,-38.9771 76.0129,-41.6272 90.9247,-44.1902"/>
<polygon fill="midnightblue" stroke="midnightblue" points="48.5162,-33.35 38.0678,-35.1054 47.3304,-40.2488 48.5162,-33.35"/>
</g>
<!-- Node3 -->
<g id="node3" class="node"><title>Node3</title>
<g id="a_node3"><a xlink:href="classElement__vectors__k__const_a02114ee9def538668bfc98d2d00c4409.html#a02114ee9def538668bfc98d2d00c4409" target="_top" xlink:title="initialize the accessor from an attribute assiciated with a pane. ">
<polygon fill="none" stroke="black" points="74.5,-0.5 74.5,-19.5 223.5,-19.5 223.5,-0.5 74.5,-0.5"/>
<text text-anchor="middle" x="149" y="-7.5" font-family="Helvetica,sans-Serif" font-size="10.00">Element_vectors_k_const::set</text>
</a>
</g>
</g>
<!-- Node1&#45;&gt;Node3 -->
<g id="edge2" class="edge"><title>Node1&#45;&gt;Node3</title>
<path fill="none" stroke="midnightblue" d="M48.274,-27.1404C61.3361,-24.8954 77.3196,-22.1482 92.6316,-19.5164"/>
<polygon fill="midnightblue" stroke="midnightblue" points="47.3304,-23.7512 38.0678,-28.8946 48.5162,-30.65 47.3304,-23.7512"/>
</g>
</g>
</svg>
