<?xml version="1.0" encoding="UTF-8" standalone="no"?>
<!DOCTYPE svg PUBLIC "-//W3C//DTD SVG 1.1//EN"
 "http://www.w3.org/Graphics/SVG/1.1/DTD/svg11.dtd">
<!-- Generated by graphviz version 2.30.1 (20150305.2338)
 -->
<!-- Title: DriverRun Pages: 1 -->
<svg width="618pt" height="429pt"
 viewBox="0.00 0.00 618.00 429.00" xmlns="http://www.w3.org/2000/svg" xmlns:xlink="http://www.w3.org/1999/xlink">
<g id="graph0" class="graph" transform="scale(1 1) rotate(0) translate(4 425)">
<title>DriverRun</title>
<!-- Node1 -->
<g id="node1" class="node"><title>Node1</title>
<polygon fill="#bfbfbf" stroke="black" points="0.5,-170.5 0.5,-189.5 61.5,-189.5 61.5,-170.5 0.5,-170.5"/>
<text text-anchor="middle" x="31" y="-177.5" font-family="Helvetica,sans-Serif" font-size="10.00">DriverRun</text>
</g>
<!-- Node2 -->
<g id="node2" class="node"><title>Node2</title>
<g id="a_node2"><a xlink:href="classfsicoupling_a6068a393f390317c207fce14a60f9ef4.html#a6068a393f390317c207fce14a60f9ef4" target="_top" xlink:title="fsicoupling::Finalize">
<polygon fill="none" stroke="black" points="110.5,-352.5 110.5,-371.5 213.5,-371.5 213.5,-352.5 110.5,-352.5"/>
<text text-anchor="middle" x="162" y="-359.5" font-family="Helvetica,sans-Serif" font-size="10.00">fsicoupling::Finalize</text>
</a>
</g>
</g>
<!-- Node1&#45;&gt;Node2 -->
<g id="edge1" class="edge"><title>Node1&#45;&gt;Node2</title>
<path fill="none" stroke="midnightblue" d="M35.7698,-189.764C44.5415,-211.75 67.8851,-266.243 98,-305 110.101,-320.573 126.748,-335.428 139.891,-346.067"/>
<polygon fill="midnightblue" stroke="midnightblue" points="137.919,-348.97 147.938,-352.415 142.254,-343.474 137.919,-348.97"/>
</g>
<!-- Node7 -->
<g id="node7" class="node"><title>Node7</title>
<g id="a_node7"><a xlink:href="classfsicoupling_ae855141f7b214925c25f7797b8b122a8.html#ae855141f7b214925c25f7797b8b122a8" target="_top" xlink:title="fsicoupling::Initialize">
<polygon fill="none" stroke="black" points="109.5,-276.5 109.5,-295.5 214.5,-295.5 214.5,-276.5 109.5,-276.5"/>
<text text-anchor="middle" x="162" y="-283.5" font-family="Helvetica,sans-Serif" font-size="10.00">fsicoupling::Initialize</text>
</a>
</g>
</g>
<!-- Node1&#45;&gt;Node7 -->
<g id="edge6" class="edge"><title>Node1&#45;&gt;Node7</title>
<path fill="none" stroke="midnightblue" d="M43.9048,-189.782C66.0799,-208.004 113.918,-247.313 141.088,-269.638"/>
<polygon fill="midnightblue" stroke="midnightblue" points="139.176,-272.597 149.124,-276.241 143.62,-267.189 139.176,-272.597"/>
</g>
<!-- Node10 -->
<g id="node10" class="node"><title>Node10</title>
<g id="a_node10"><a xlink:href="classfsicoupling_afbfb74d751085fbf8cffe83b9716b2dd.html#afbfb74d751085fbf8cffe83b9716b2dd" target="_top" xlink:title="fsicoupling::Run">
<polygon fill="none" stroke="black" points="118.5,-170.5 118.5,-189.5 205.5,-189.5 205.5,-170.5 118.5,-170.5"/>
<text text-anchor="middle" x="162" y="-177.5" font-family="Helvetica,sans-Serif" font-size="10.00">fsicoupling::Run</text>
</a>
</g>
</g>
<!-- Node1&#45;&gt;Node10 -->
<g id="edge13" class="edge"><title>Node1&#45;&gt;Node10</title>
<path fill="none" stroke="midnightblue" d="M61.5952,-180C75.3855,-180 92.2221,-180 108.091,-180"/>
<polygon fill="midnightblue" stroke="midnightblue" points="108.337,-183.5 118.337,-180 108.337,-176.5 108.337,-183.5"/>
</g>
<!-- Node21 -->
<g id="node21" class="node"><title>Node21</title>
<g id="a_node21"><a xlink:href="classfsicoupling_a9339a46a8a7f217e05784068f5ac0b9d.html#a9339a46a8a7f217e05784068f5ac0b9d" target="_top" xlink:title="fsicoupling::SetRunMode">
<polygon fill="none" stroke="black" points="99,-132.5 99,-151.5 225,-151.5 225,-132.5 99,-132.5"/>
<text text-anchor="middle" x="162" y="-139.5" font-family="Helvetica,sans-Serif" font-size="10.00">fsicoupling::SetRunMode</text>
</a>
</g>
</g>
<!-- Node1&#45;&gt;Node21 -->
<g id="edge25" class="edge"><title>Node1&#45;&gt;Node21</title>
<path fill="none" stroke="midnightblue" d="M61.5952,-171.282C78.4934,-166.304 99.9657,-159.979 118.626,-154.482"/>
<polygon fill="midnightblue" stroke="midnightblue" points="119.769,-157.794 128.372,-151.611 117.791,-151.08 119.769,-157.794"/>
</g>
<!-- Node22 -->
<g id="node22" class="node"><title>Node22</title>
<g id="a_node22"><a xlink:href="classfsicoupling_a9912245de96c85424cb074624b144762.html#a9912245de96c85424cb074624b144762" target="_top" xlink:title="fsicoupling::SetVerbLevel">
<polygon fill="none" stroke="black" points="98,-94.5 98,-113.5 226,-113.5 226,-94.5 98,-94.5"/>
<text text-anchor="middle" x="162" y="-101.5" font-family="Helvetica,sans-Serif" font-size="10.00">fsicoupling::SetVerbLevel</text>
</a>
</g>
</g>
<!-- Node1&#45;&gt;Node22 -->
<g id="edge26" class="edge"><title>Node1&#45;&gt;Node22</title>
<path fill="none" stroke="midnightblue" d="M40.8711,-170.108C52.7206,-157.463 74.9146,-135.691 98,-123 101.993,-120.805 106.272,-118.832 110.65,-117.066"/>
<polygon fill="midnightblue" stroke="midnightblue" points="112.134,-120.25 120.321,-113.525 109.727,-113.677 112.134,-120.25"/>
</g>
<!-- Node3 -->
<g id="node3" class="node"><title>Node3</title>
<g id="a_node3"><a xlink:href="classimpact_1_1orchestrator_1_1agentbase_a6068a393f390317c207fce14a60f9ef4.html#a6068a393f390317c207fce14a60f9ef4" target="_top" xlink:title="impact::orchestrator\l::agentbase::Finalize">
<polygon fill="none" stroke="black" points="293.5,-391 293.5,-421 400.5,-421 400.5,-391 293.5,-391"/>
<text text-anchor="start" x="301.5" y="-409" font-family="Helvetica,sans-Serif" font-size="10.00">impact::orchestrator</text>
<text text-anchor="middle" x="347" y="-398" font-family="Helvetica,sans-Serif" font-size="10.00">::agentbase::Finalize</text>
</a>
</g>
</g>
<!-- Node2&#45;&gt;Node3 -->
<g id="edge2" class="edge"><title>Node2&#45;&gt;Node3</title>
<path fill="none" stroke="midnightblue" d="M202.708,-371.547C226.198,-377.195 256.477,-384.475 283.146,-390.888"/>
<polygon fill="midnightblue" stroke="midnightblue" points="282.627,-394.363 293.169,-393.297 284.264,-387.557 282.627,-394.363"/>
</g>
<!-- Node4 -->
<g id="node4" class="node"><title>Node4</title>
<g id="a_node4"><a xlink:href="classelmeragent_a6068a393f390317c207fce14a60f9ef4.html#a6068a393f390317c207fce14a60f9ef4" target="_top" xlink:title="elmeragent::Finalize">
<polygon fill="none" stroke="black" points="295,-352.5 295,-371.5 399,-371.5 399,-352.5 295,-352.5"/>
<text text-anchor="middle" x="347" y="-359.5" font-family="Helvetica,sans-Serif" font-size="10.00">elmeragent::Finalize</text>
</a>
</g>
</g>
<!-- Node2&#45;&gt;Node4 -->
<g id="edge3" class="edge"><title>Node2&#45;&gt;Node4</title>
<path fill="none" stroke="midnightblue" d="M213.976,-362C235.994,-362 261.935,-362 284.968,-362"/>
<polygon fill="midnightblue" stroke="midnightblue" points="284.981,-365.5 294.981,-362 284.981,-358.5 284.981,-365.5"/>
</g>
<!-- Node5 -->
<g id="node5" class="node"><title>Node5</title>
<g id="a_node5"><a xlink:href="classimpact_1_1orchestrator_1_1agentbase_a0c67610e579dce80081e10bbbf57eae1.html#a0c67610e579dce80081e10bbbf57eae1" target="_top" xlink:title="impact::orchestrator\l::agentbase::WriteErr">
<polygon fill="none" stroke="black" points="484,-271 484,-301 594,-301 594,-271 484,-271"/>
<text text-anchor="start" x="492" y="-289" font-family="Helvetica,sans-Serif" font-size="10.00">impact::orchestrator</text>
<text text-anchor="middle" x="539" y="-278" font-family="Helvetica,sans-Serif" font-size="10.00">::agentbase::WriteErr</text>
</a>
</g>
</g>
<!-- Node4&#45;&gt;Node5 -->
<g id="edge4" class="edge"><title>Node4&#45;&gt;Node5</title>
<path fill="none" stroke="midnightblue" d="M399.195,-354.73C410.383,-351.976 421.892,-348.192 432,-343 451.042,-333.218 449.582,-321.911 468,-311 471.56,-308.891 475.326,-306.918 479.191,-305.081"/>
<polygon fill="midnightblue" stroke="midnightblue" points="480.606,-308.282 488.338,-301.037 477.776,-301.879 480.606,-308.282"/>
</g>
<!-- Node6 -->
<g id="node6" class="node"><title>Node6</title>
<g id="a_node6"><a xlink:href="classimpact_1_1orchestrator_1_1agentbase_acd3473c5912447035e34274950a1c8c6.html#acd3473c5912447035e34274950a1c8c6" target="_top" xlink:title="impact::orchestrator\l::agentbase::WriteOut">
<polygon fill="none" stroke="black" points="482.5,-320 482.5,-350 595.5,-350 595.5,-320 482.5,-320"/>
<text text-anchor="start" x="490.5" y="-338" font-family="Helvetica,sans-Serif" font-size="10.00">impact::orchestrator</text>
<text text-anchor="middle" x="539" y="-327" font-family="Helvetica,sans-Serif" font-size="10.00">::agentbase::WriteOut</text>
</a>
</g>
</g>
<!-- Node4&#45;&gt;Node6 -->
<g id="edge5" class="edge"><title>Node4&#45;&gt;Node6</title>
<path fill="none" stroke="midnightblue" d="M399.166,-354.729C421.671,-351.531 448.379,-347.736 472.329,-344.332"/>
<polygon fill="midnightblue" stroke="midnightblue" points="472.996,-347.773 482.404,-342.9 472.012,-340.842 472.996,-347.773"/>
</g>
<!-- Node8 -->
<g id="node8" class="node"><title>Node8</title>
<g id="a_node8"><a xlink:href="classopenfoamagent_a9a8261713154978fa009d8cb2c533055.html#a9a8261713154978fa009d8cb2c533055" target="_top" xlink:title="openfoamagent::Initialize">
<polygon fill="none" stroke="black" points="284.5,-276.5 284.5,-295.5 409.5,-295.5 409.5,-276.5 284.5,-276.5"/>
<text text-anchor="middle" x="347" y="-283.5" font-family="Helvetica,sans-Serif" font-size="10.00">openfoamagent::Initialize</text>
</a>
</g>
</g>
<!-- Node7&#45;&gt;Node8 -->
<g id="edge7" class="edge"><title>Node7&#45;&gt;Node8</title>
<path fill="none" stroke="midnightblue" d="M214.951,-286C233.308,-286 254.294,-286 274.013,-286"/>
<polygon fill="midnightblue" stroke="midnightblue" points="274.188,-289.5 284.188,-286 274.188,-282.5 274.188,-289.5"/>
</g>
<!-- Node9 -->
<g id="node9" class="node"><title>Node9</title>
<g id="a_node9"><a xlink:href="classelmeragent_a66d8ac5294227a11adf08cdfa91f59b5.html#a66d8ac5294227a11adf08cdfa91f59b5" target="_top" xlink:title="elmeragent::Initialize">
<polygon fill="none" stroke="black" points="293.5,-314.5 293.5,-333.5 400.5,-333.5 400.5,-314.5 293.5,-314.5"/>
<text text-anchor="middle" x="347" y="-321.5" font-family="Helvetica,sans-Serif" font-size="10.00">elmeragent::Initialize</text>
</a>
</g>
</g>
<!-- Node7&#45;&gt;Node9 -->
<g id="edge10" class="edge"><title>Node7&#45;&gt;Node9</title>
<path fill="none" stroke="midnightblue" d="M209.179,-295.589C233.763,-300.694 264.186,-307.011 290.097,-312.392"/>
<polygon fill="midnightblue" stroke="midnightblue" points="289.651,-315.874 300.153,-314.48 291.074,-309.02 289.651,-315.874"/>
</g>
<!-- Node8&#45;&gt;Node5 -->
<g id="edge8" class="edge"><title>Node8&#45;&gt;Node5</title>
<path fill="none" stroke="midnightblue" d="M409.688,-286C430.173,-286 453.026,-286 473.703,-286"/>
<polygon fill="midnightblue" stroke="midnightblue" points="473.976,-289.5 483.976,-286 473.976,-282.5 473.976,-289.5"/>
</g>
<!-- Node8&#45;&gt;Node6 -->
<g id="edge9" class="edge"><title>Node8&#45;&gt;Node6</title>
<path fill="none" stroke="midnightblue" d="M392.137,-295.519C405.022,-298.423 419.104,-301.719 432,-305 446.608,-308.716 462.268,-312.988 476.948,-317.121"/>
<polygon fill="midnightblue" stroke="midnightblue" points="476.354,-320.59 486.929,-319.951 478.263,-313.855 476.354,-320.59"/>
</g>
<!-- Node9&#45;&gt;Node5 -->
<g id="edge11" class="edge"><title>Node9&#45;&gt;Node5</title>
<path fill="none" stroke="midnightblue" d="M395.945,-314.411C419.528,-309.694 448.287,-303.943 473.745,-298.851"/>
<polygon fill="midnightblue" stroke="midnightblue" points="474.569,-302.256 483.689,-296.862 473.197,-295.391 474.569,-302.256"/>
</g>
<!-- Node9&#45;&gt;Node6 -->
<g id="edge12" class="edge"><title>Node9&#45;&gt;Node6</title>
<path fill="none" stroke="midnightblue" d="M400.673,-327.05C422.772,-328.329 448.712,-329.831 472.061,-331.182"/>
<polygon fill="midnightblue" stroke="midnightblue" points="472.049,-334.688 482.235,-331.772 472.454,-327.699 472.049,-334.688"/>
</g>
<!-- Node11 -->
<g id="node11" class="node"><title>Node11</title>
<g id="a_node11"><a xlink:href="classimpact_1_1orchestrator_1_1agentbase_a50a1b38c2dca7d97a57941b99cfdf099.html#a50a1b38c2dca7d97a57941b99cfdf099" target="_top" xlink:title="impact::orchestrator\l::agentbase::FinalizeTimeStep">
<polygon fill="none" stroke="black" points="272.5,-189 272.5,-219 421.5,-219 421.5,-189 272.5,-189"/>
<text text-anchor="start" x="280.5" y="-207" font-family="Helvetica,sans-Serif" font-size="10.00">impact::orchestrator</text>
<text text-anchor="middle" x="347" y="-196" font-family="Helvetica,sans-Serif" font-size="10.00">::agentbase::FinalizeTimeStep</text>
</a>
</g>
</g>
<!-- Node10&#45;&gt;Node11 -->
<g id="edge14" class="edge"><title>Node10&#45;&gt;Node11</title>
<path fill="none" stroke="midnightblue" d="M205.905,-185.627C222.728,-187.833 242.638,-190.444 262.088,-192.995"/>
<polygon fill="midnightblue" stroke="midnightblue" points="261.828,-196.491 272.198,-194.321 262.738,-189.55 261.828,-196.491"/>
</g>
<!-- Node12 -->
<g id="node12" class="node"><title>Node12</title>
<g id="a_node12"><a xlink:href="classimpact_1_1orchestrator_1_1agentbase_abae70c8ddc0a4976bf42b69f1eae8b52.html#abae70c8ddc0a4976bf42b69f1eae8b52" target="_top" xlink:title="impact::orchestrator\l::agentbase::InitializeTimeStep">
<polygon fill="none" stroke="black" points="271,-140 271,-170 423,-170 423,-140 271,-140"/>
<text text-anchor="start" x="279" y="-158" font-family="Helvetica,sans-Serif" font-size="10.00">impact::orchestrator</text>
<text text-anchor="middle" x="347" y="-147" font-family="Helvetica,sans-Serif" font-size="10.00">::agentbase::InitializeTimeStep</text>
</a>
</g>
</g>
<!-- Node10&#45;&gt;Node12 -->
<g id="edge15" class="edge"><title>Node10&#45;&gt;Node12</title>
<path fill="none" stroke="midnightblue" d="M205.905,-174.139C222.368,-171.89 241.788,-169.237 260.839,-166.634"/>
<polygon fill="midnightblue" stroke="midnightblue" points="261.317,-170.101 270.751,-165.28 260.369,-163.166 261.317,-170.101"/>
</g>
<!-- Node13 -->
<g id="node13" class="node"><title>Node13</title>
<g id="a_node13"><a xlink:href="classopenfoamagent_a1e1196103d62248de06882a2f5f1adf4.html#a1e1196103d62248de06882a2f5f1adf4" target="_top" xlink:title="openfoamagent::Run">
<polygon fill="none" stroke="black" points="293.5,-101.5 293.5,-120.5 400.5,-120.5 400.5,-101.5 293.5,-101.5"/>
<text text-anchor="middle" x="347" y="-108.5" font-family="Helvetica,sans-Serif" font-size="10.00">openfoamagent::Run</text>
</a>
</g>
</g>
<!-- Node10&#45;&gt;Node13 -->
<g id="edge16" class="edge"><title>Node10&#45;&gt;Node13</title>
<path fill="none" stroke="midnightblue" d="M203.675,-170.467C211.328,-167.921 219.09,-164.792 226,-161 244.51,-150.842 243.143,-139.5 262,-130 268.61,-126.67 275.804,-123.918 283.109,-121.644"/>
<polygon fill="midnightblue" stroke="midnightblue" points="284.42,-124.911 293.096,-118.83 282.522,-118.173 284.42,-124.911"/>
</g>
<!-- Node14 -->
<g id="node14" class="node"><title>Node14</title>
<g id="a_node14"><a xlink:href="classelmeragent_addc5d2e1dc0916e5c3d2e52d53261b4b.html#addc5d2e1dc0916e5c3d2e52d53261b4b" target="_top" xlink:title="elmeragent::Run">
<polygon fill="none" stroke="black" points="302.5,-238.5 302.5,-257.5 391.5,-257.5 391.5,-238.5 302.5,-238.5"/>
<text text-anchor="middle" x="347" y="-245.5" font-family="Helvetica,sans-Serif" font-size="10.00">elmeragent::Run</text>
</a>
</g>
</g>
<!-- Node10&#45;&gt;Node14 -->
<g id="edge17" class="edge"><title>Node10&#45;&gt;Node14</title>
<path fill="none" stroke="midnightblue" d="M180.031,-189.677C199.374,-200.328 232.135,-217.348 262,-228 271.637,-231.437 282.106,-234.463 292.278,-237.053"/>
<polygon fill="midnightblue" stroke="midnightblue" points="291.765,-240.53 302.31,-239.496 293.422,-233.729 291.765,-240.53"/>
</g>
<!-- Node15 -->
<g id="node15" class="node"><title>Node15</title>
<g id="a_node15"><a xlink:href="classfsicoupling_afb2eaee475b0c32cd5bf6d6fcc1eff05.html#afb2eaee475b0c32cd5bf6d6fcc1eff05" target="_top" xlink:title="fsicoupling::TransferDisplacements\lToFluid">
<polygon fill="none" stroke="black" points="262,-52 262,-82 432,-82 432,-52 262,-52"/>
<text text-anchor="start" x="270" y="-70" font-family="Helvetica,sans-Serif" font-size="10.00">fsicoupling::TransferDisplacements</text>
<text text-anchor="middle" x="347" y="-59" font-family="Helvetica,sans-Serif" font-size="10.00">ToFluid</text>
</a>
</g>
</g>
<!-- Node10&#45;&gt;Node15 -->
<g id="edge19" class="edge"><title>Node10&#45;&gt;Node15</title>
<path fill="none" stroke="midnightblue" d="M205.671,-172.204C212.978,-169.508 220.104,-165.88 226,-161 252.646,-138.945 235.314,-114.007 262,-92 264.054,-90.3059 266.22,-88.7266 268.473,-87.2544"/>
<polygon fill="midnightblue" stroke="midnightblue" points="270.583,-90.0805 277.54,-82.0897 267.118,-83.998 270.583,-90.0805"/>
</g>
<!-- Node20 -->
<g id="node20" class="node"><title>Node20</title>
<g id="a_node20"><a xlink:href="classfsicoupling_a052028ae6a11a37f3c3be19a78709d97.html#a052028ae6a11a37f3c3be19a78709d97" target="_top" xlink:title="fsicoupling::TransferLoads\lToStructures">
<polygon fill="none" stroke="black" points="281.5,-3 281.5,-33 412.5,-33 412.5,-3 281.5,-3"/>
<text text-anchor="start" x="289.5" y="-21" font-family="Helvetica,sans-Serif" font-size="10.00">fsicoupling::TransferLoads</text>
<text text-anchor="middle" x="347" y="-10" font-family="Helvetica,sans-Serif" font-size="10.00">ToStructures</text>
</a>
</g>
</g>
<!-- Node10&#45;&gt;Node20 -->
<g id="edge24" class="edge"><title>Node10&#45;&gt;Node20</title>
<path fill="none" stroke="midnightblue" d="M205.811,-173.315C213.277,-170.52 220.424,-166.571 226,-161 265.089,-121.945 222.627,-80.7686 262,-42 265.1,-38.9473 268.561,-36.2773 272.261,-33.9427"/>
<polygon fill="midnightblue" stroke="midnightblue" points="274.136,-36.9086 281.276,-29.0816 270.813,-30.7473 274.136,-36.9086"/>
</g>
<!-- Node14&#45;&gt;Node5 -->
<g id="edge18" class="edge"><title>Node14&#45;&gt;Node5</title>
<path fill="none" stroke="midnightblue" d="M391.59,-256.718C415.877,-261.575 446.579,-267.716 473.589,-273.118"/>
<polygon fill="midnightblue" stroke="midnightblue" points="473.246,-276.618 483.738,-275.148 474.619,-269.754 473.246,-276.618"/>
</g>
<!-- Node16 -->
<g id="node16" class="node"><title>Node16</title>
<g id="a_node16"><a xlink:href="classopenfoamagent_a11af20e113d9cb3bad41a7504f10da2c.html#a11af20e113d9cb3bad41a7504f10da2c" target="_top" xlink:title="openfoamagent::Coordinates">
<polygon fill="none" stroke="black" points="468,-38.5 468,-57.5 610,-57.5 610,-38.5 468,-38.5"/>
<text text-anchor="middle" x="539" y="-45.5" font-family="Helvetica,sans-Serif" font-size="10.00">openfoamagent::Coordinates</text>
</a>
</g>
</g>
<!-- Node15&#45;&gt;Node16 -->
<g id="edge20" class="edge"><title>Node15&#45;&gt;Node16</title>
<path fill="none" stroke="midnightblue" d="M432.167,-58.5833C440.635,-57.7365 449.219,-56.8781 457.646,-56.0354"/>
<polygon fill="midnightblue" stroke="midnightblue" points="458.227,-59.4949 467.829,-55.0171 457.53,-52.5296 458.227,-59.4949"/>
</g>
<!-- Node17 -->
<g id="node17" class="node"><title>Node17</title>
<g id="a_node17"><a xlink:href="classelmeragent_a11af20e113d9cb3bad41a7504f10da2c.html#a11af20e113d9cb3bad41a7504f10da2c" target="_top" xlink:title="elmeragent::Coordinates">
<polygon fill="none" stroke="black" points="477.5,-0.5 477.5,-19.5 600.5,-19.5 600.5,-0.5 477.5,-0.5"/>
<text text-anchor="middle" x="539" y="-7.5" font-family="Helvetica,sans-Serif" font-size="10.00">elmeragent::Coordinates</text>
</a>
</g>
</g>
<!-- Node15&#45;&gt;Node17 -->
<g id="edge21" class="edge"><title>Node15&#45;&gt;Node17</title>
<path fill="none" stroke="midnightblue" d="M400.123,-51.9927C410.707,-48.8035 421.738,-45.3768 432,-42 448.159,-36.6827 451.778,-34.1212 468,-29 475.264,-26.7068 483.004,-24.4364 490.589,-22.3062"/>
<polygon fill="midnightblue" stroke="midnightblue" points="491.708,-25.6284 500.418,-19.5963 489.847,-18.8801 491.708,-25.6284"/>
</g>
<!-- Node18 -->
<g id="node18" class="node"><title>Node18</title>
<g id="a_node18"><a xlink:href="classopenfoamagent_a84634b1a9101359943436cfa37a4b88e.html#a84634b1a9101359943436cfa37a4b88e" target="_top" xlink:title="openfoamagent::PaneID">
<polygon fill="none" stroke="black" points="478,-114.5 478,-133.5 600,-133.5 600,-114.5 478,-114.5"/>
<text text-anchor="middle" x="539" y="-121.5" font-family="Helvetica,sans-Serif" font-size="10.00">openfoamagent::PaneID</text>
</a>
</g>
</g>
<!-- Node15&#45;&gt;Node18 -->
<g id="edge22" class="edge"><title>Node15&#45;&gt;Node18</title>
<path fill="none" stroke="midnightblue" d="M400.123,-82.0073C410.707,-85.1965 421.738,-88.6232 432,-92 448.159,-97.3173 451.778,-99.8788 468,-105 475.264,-107.293 483.004,-109.564 490.589,-111.694"/>
<polygon fill="midnightblue" stroke="midnightblue" points="489.847,-115.12 500.418,-114.404 491.708,-108.372 489.847,-115.12"/>
</g>
<!-- Node19 -->
<g id="node19" class="node"><title>Node19</title>
<g id="a_node19"><a xlink:href="classelmeragent_a84634b1a9101359943436cfa37a4b88e.html#a84634b1a9101359943436cfa37a4b88e" target="_top" xlink:title="elmeragent::PaneID">
<polygon fill="none" stroke="black" points="487,-76.5 487,-95.5 591,-95.5 591,-76.5 487,-76.5"/>
<text text-anchor="middle" x="539" y="-83.5" font-family="Helvetica,sans-Serif" font-size="10.00">elmeragent::PaneID</text>
</a>
</g>
</g>
<!-- Node15&#45;&gt;Node19 -->
<g id="edge23" class="edge"><title>Node15&#45;&gt;Node19</title>
<path fill="none" stroke="midnightblue" d="M432.167,-75.4167C447.183,-76.9183 462.565,-78.4565 476.786,-79.8786"/>
<polygon fill="midnightblue" stroke="midnightblue" points="476.615,-83.3789 486.914,-80.8914 477.312,-76.4136 476.615,-83.3789"/>
</g>
</g>
</svg>
