<?xml version="1.0" encoding="UTF-8" standalone="no"?>
<!DOCTYPE svg PUBLIC "-//W3C//DTD SVG 1.1//EN"
 "http://www.w3.org/Graphics/SVG/1.1/DTD/svg11.dtd">
<!-- Generated by graphviz version 2.26.0 (20091210.2329)
 -->
<!-- Title: setinitialconditions Pages: 1 -->
<svg width="192pt" height="70pt"
 viewBox="0.00 0.00 192.00 70.00" xmlns="http://www.w3.org/2000/svg" xmlns:xlink="http://www.w3.org/1999/xlink">
<g id="graph1" class="graph" transform="scale(1 1) rotate(0) translate(4 66)">
<title>setinitialconditions</title>
<!-- Node1 -->
<g id="node1" class="node"><title>Node1</title>
<polygon fill="#bfbfbf" stroke="black" points="0.5,-20.5 0.5,-41.5 97.5,-41.5 97.5,-20.5 0.5,-20.5"/>
<text text-anchor="middle" x="49" y="-28.5" font-family="Helvetica,sans-Serif" font-size="10.00">setinitialconditions</text>
</g>
<!-- Node2 -->
<g id="node3" class="node"><title>Node2</title>
<a xlink:href="classmymodule_af55e87fced73725324f9022ee5612521.html#af55e87fced73725324f9022ee5612521" target="_top" xlink:title="initcond">
<polygon fill="none" stroke="black" points="134,-40.5 134,-61.5 184,-61.5 184,-40.5 134,-40.5"/>
<text text-anchor="middle" x="159" y="-48.5" font-family="Helvetica,sans-Serif" font-size="10.00">initcond</text>
</a>
</g>
<!-- Node1&#45;&gt;Node2 -->
<g id="edge2" class="edge"><title>Node1&#45;&gt;Node2</title>
<path fill="none" stroke="midnightblue" d="M97.5678,-39.8305C106.488,-41.4523 115.636,-43.1157 124.058,-44.6469"/>
<polygon fill="midnightblue" stroke="midnightblue" points="123.441,-48.0921 133.906,-46.4374 124.693,-41.205 123.441,-48.0921"/>
</g>
<!-- Node3 -->
<g id="node5" class="node"><title>Node3</title>
<a xlink:href="classmymodule_a35170c044edf9e26057c957be782d749.html#a35170c044edf9e26057c957be782d749" target="_top" xlink:title="Check if we are restarting are if yes, read in field values. ">
<polygon fill="none" stroke="black" points="137,-0.5 137,-21.5 181,-21.5 181,-0.5 137,-0.5"/>
<text text-anchor="middle" x="159" y="-8.5" font-family="Helvetica,sans-Serif" font-size="10.00">restart</text>
</a>
</g>
<!-- Node1&#45;&gt;Node3 -->
<g id="edge4" class="edge"><title>Node1&#45;&gt;Node3</title>
<path fill="none" stroke="midnightblue" d="M97.5678,-22.1695C107.52,-20.36 117.757,-18.4987 126.952,-16.827"/>
<polygon fill="midnightblue" stroke="midnightblue" points="127.606,-20.2655 136.818,-15.033 126.354,-13.3784 127.606,-20.2655"/>
</g>
</g>
</svg>
