<?xml version="1.0" encoding="UTF-8" standalone="no"?>
<!DOCTYPE svg PUBLIC "-//W3C//DTD SVG 1.1//EN"
 "http://www.w3.org/Graphics/SVG/1.1/DTD/svg11.dtd">
<!-- Generated by graphviz version 2.30.1 (20150305.2338)
 -->
<!-- Title: Function_map Pages: 1 -->
<svg width="137pt" height="154pt"
 viewBox="0.00 0.00 137.00 154.00" xmlns="http://www.w3.org/2000/svg" xmlns:xlink="http://www.w3.org/1999/xlink">
<g id="graph0" class="graph" transform="scale(1 1) rotate(0) translate(4 150)">
<title>Function_map</title>
<!-- Node1 -->
<g id="node1" class="node"><title>Node1</title>
<polygon fill="#bfbfbf" stroke="black" points="24,-0.5 24,-19.5 102,-19.5 102,-0.5 24,-0.5"/>
<text text-anchor="middle" x="63" y="-7.5" font-family="Helvetica,sans-Serif" font-size="10.00">Function_map</text>
</g>
<!-- Node2 -->
<g id="node2" class="node"><title>Node2</title>
<g id="a_node2"><a xlink:href="classCOM__map.html" target="_top" xlink:title="COM_map\&lt; Function * \&gt;">
<polygon fill="none" stroke="black" points="0,-58.5 0,-77.5 126,-77.5 126,-58.5 0,-58.5"/>
<text text-anchor="middle" x="63" y="-65.5" font-family="Helvetica,sans-Serif" font-size="10.00">COM_map&lt; Function * &gt;</text>
</a>
</g>
</g>
<!-- Node2&#45;&gt;Node1 -->
<g id="edge1" class="edge"><title>Node2&#45;&gt;Node1</title>
<path fill="none" stroke="darkgreen" d="M63,-47.953C63,-38.2875 63,-27.0312 63,-19.5052"/>
<polygon fill="darkgreen" stroke="darkgreen" points="59.5001,-48.25 63,-58.25 66.5001,-48.25 59.5001,-48.25"/>
</g>
<!-- Node3 -->
<g id="node3" class="node"><title>Node3</title>
<g id="a_node3"><a xlink:href="classCOM__map.html" target="_top" xlink:title="Supports mapping from names to handles and vice&#45;versa for a module, window, function, or attribute. ">
<polygon fill="none" stroke="black" points="8,-126.5 8,-145.5 118,-145.5 118,-126.5 8,-126.5"/>
<text text-anchor="middle" x="63" y="-133.5" font-family="Helvetica,sans-Serif" font-size="10.00">COM_map&lt; Object &gt;</text>
</a>
</g>
</g>
<!-- Node3&#45;&gt;Node2 -->
<g id="edge2" class="edge"><title>Node3&#45;&gt;Node2</title>
<path fill="none" stroke="orange" stroke-dasharray="5,2" d="M63,-116.041C63,-103.472 63,-87.5631 63,-77.8411"/>
<polygon fill="orange" stroke="orange" points="59.5001,-116.372 63,-126.372 66.5001,-116.372 59.5001,-116.372"/>
<text text-anchor="middle" x="96" y="-99.5" font-family="Helvetica,sans-Serif" font-size="10.00"> &lt; Function * &gt;</text>
</g>
</g>
</svg>
