<?xml version="1.0" encoding="UTF-8" standalone="no"?>
<!DOCTYPE svg PUBLIC "-//W3C//DTD SVG 1.1//EN"
 "http://www.w3.org/Graphics/SVG/1.1/DTD/svg11.dtd">
<!-- Generated by graphviz version 2.26.0 (20091210.2329)
 -->
<!-- Title: streamdiff Pages: 1 -->
<svg width="546pt" height="70pt"
 viewBox="0.00 0.00 546.00 70.00" xmlns="http://www.w3.org/2000/svg" xmlns:xlink="http://www.w3.org/1999/xlink">
<g id="graph1" class="graph" transform="scale(1 1) rotate(0) translate(4 66)">
<title>streamdiff</title>
<!-- Node1 -->
<g id="node1" class="node"><title>Node1</title>
<polygon fill="#bfbfbf" stroke="black" points="0,-20.5 0,-41.5 60,-41.5 60,-20.5 0,-20.5"/>
<text text-anchor="middle" x="30" y="-28.5" font-family="Helvetica,sans-Serif" font-size="10.00">streamdiff</text>
</g>
<!-- Node2 -->
<g id="node3" class="node"><title>Node2</title>
<a xlink:href="classElmerModuleDriver_1_1TestingObject_ae4d44626a9c27ea8352a740ae562f97d.html#ae4d44626a9c27ea8352a740ae562f97d" target="_top" xlink:title="Test__ElasticBeam3D\l_LoadFunction">
<polygon fill="none" stroke="black" points="96.5,-14 96.5,-48 211.5,-48 211.5,-14 96.5,-14"/>
<text text-anchor="start" x="104.5" y="-35" font-family="Helvetica,sans-Serif" font-size="10.00">Test__ElasticBeam3D</text>
<text text-anchor="middle" x="154" y="-22" font-family="Helvetica,sans-Serif" font-size="10.00">_LoadFunction</text>
</a>
</g>
<!-- Node1&#45;&gt;Node2 -->
<g id="edge2" class="edge"><title>Node1&#45;&gt;Node2</title>
<path fill="none" stroke="midnightblue" d="M70.1465,-31C78.4381,-31 87.3277,-31 96.1069,-31"/>
<polygon fill="midnightblue" stroke="midnightblue" points="70.017,-27.5001 60.0169,-31 70.0169,-34.5001 70.017,-27.5001"/>
</g>
<!-- Node3 -->
<g id="node5" class="node"><title>Node3</title>
<a xlink:href="classElmerModuleDriver_1_1TestingObject_af1f07f14b9af7708e4264bb38937eed2.html#af1f07f14b9af7708e4264bb38937eed2" target="_top" xlink:title="Runs a test specified by name. ">
<polygon fill="none" stroke="black" points="248,-20.5 248,-41.5 302,-41.5 302,-20.5 248,-20.5"/>
<text text-anchor="middle" x="275" y="-28.5" font-family="Helvetica,sans-Serif" font-size="10.00">RunTest</text>
</a>
</g>
<!-- Node2&#45;&gt;Node3 -->
<g id="edge4" class="edge"><title>Node2&#45;&gt;Node3</title>
<path fill="none" stroke="midnightblue" d="M221.747,-31C230.995,-31 240.013,-31 247.921,-31"/>
<polygon fill="midnightblue" stroke="midnightblue" points="221.665,-27.5001 211.665,-31 221.665,-34.5001 221.665,-27.5001"/>
</g>
<!-- Node4 -->
<g id="node7" class="node"><title>Node4</title>
<a xlink:href="classElmerModuleDriver_1_1TestingObject_a21159bd2efac623e5a5079f6a20f3444.html#a21159bd2efac623e5a5079f6a20f3444" target="_top" xlink:title="Runs a list of tests specified by name. ">
<polygon fill="none" stroke="black" points="362.5,-40.5 362.5,-61.5 439.5,-61.5 439.5,-40.5 362.5,-40.5"/>
<text text-anchor="middle" x="401" y="-48.5" font-family="Helvetica,sans-Serif" font-size="10.00">ProcessTests</text>
</a>
</g>
<!-- Node3&#45;&gt;Node4 -->
<g id="edge6" class="edge"><title>Node3&#45;&gt;Node4</title>
<path fill="none" stroke="midnightblue" d="M311.949,-36.865C327.703,-39.3655 346.094,-42.2847 362.059,-44.8189"/>
<polygon fill="midnightblue" stroke="midnightblue" points="312.455,-33.4015 302.03,-35.2905 311.358,-40.315 312.455,-33.4015"/>
</g>
<!-- Node5 -->
<g id="node9" class="node"><title>Node5</title>
<a xlink:href="namespaceElmerModuleDriver_a657930328d3dc159ded2e9fd6473b2b6.html#a657930328d3dc159ded2e9fd6473b2b6" target="_top" xlink:title="Drives the ElmerModuleDriver::TestObject. ">
<polygon fill="none" stroke="black" points="338.5,-0.5 338.5,-21.5 463.5,-21.5 463.5,-0.5 338.5,-0.5"/>
<text text-anchor="middle" x="401" y="-8.5" font-family="Helvetica,sans-Serif" font-size="10.00">ElmerModuleDriver::Test</text>
</a>
</g>
<!-- Node3&#45;&gt;Node5 -->
<g id="edge8" class="edge"><title>Node3&#45;&gt;Node5</title>
<path fill="none" stroke="midnightblue" d="M312.057,-25.1179C320.322,-23.8061 329.307,-22.3798 338.286,-20.9547"/>
<polygon fill="midnightblue" stroke="midnightblue" points="311.358,-21.685 302.03,-26.7095 312.455,-28.5985 311.358,-21.685"/>
</g>
<!-- Node6 -->
<g id="node11" class="node"><title>Node6</title>
<a xlink:href="TestElmerModuleDriver_8C_a0ddf1224851353fc92bfbff6f499fa97.html#a0ddf1224851353fc92bfbff6f499fa97" target="_top" xlink:title="main">
<polygon fill="none" stroke="black" points="500,-0.5 500,-21.5 538,-21.5 538,-0.5 500,-0.5"/>
<text text-anchor="middle" x="519" y="-8.5" font-family="Helvetica,sans-Serif" font-size="10.00">main</text>
</a>
</g>
<!-- Node5&#45;&gt;Node6 -->
<g id="edge10" class="edge"><title>Node5&#45;&gt;Node6</title>
<path fill="none" stroke="midnightblue" d="M473.837,-11C483.336,-11 492.327,-11 499.749,-11"/>
<polygon fill="midnightblue" stroke="midnightblue" points="473.8,-7.5001 463.8,-11 473.8,-14.5001 473.8,-7.5001"/>
</g>
</g>
</svg>
