<?xml version="1.0" encoding="UTF-8" standalone="no"?>
<!DOCTYPE svg PUBLIC "-//W3C//DTD SVG 1.1//EN"
 "http://www.w3.org/Graphics/SVG/1.1/DTD/svg11.dtd">
<!-- Generated by graphviz version 2.30.1 (20150305.2338)
 -->
<!-- Title: AddResult Pages: 1 -->
<svg width="240pt" height="87pt"
 viewBox="0.00 0.00 240.00 87.00" xmlns="http://www.w3.org/2000/svg" xmlns:xlink="http://www.w3.org/1999/xlink">
<g id="graph0" class="graph" transform="scale(1 1) rotate(0) translate(4 83)">
<title>AddResult</title>
<!-- Node1 -->
<g id="node1" class="node"><title>Node1</title>
<polygon fill="#bfbfbf" stroke="black" points="0,-29.5 0,-48.5 62,-48.5 62,-29.5 0,-29.5"/>
<text text-anchor="middle" x="31" y="-36.5" font-family="Helvetica,sans-Serif" font-size="10.00">AddResult</text>
</g>
<!-- Node2 -->
<g id="node2" class="node"><title>Node2</title>
<g id="a_node2"><a xlink:href="classIRAD_1_1Primitive_1_1KeyValuePairObj_a1b0b9bfb3a1071b78d1591508c1580dc.html#a1b0b9bfb3a1071b78d1591508c1580dc" target="_top" xlink:title="IRAD::Primitive::KeyValue\lPairObj::Key">
<polygon fill="none" stroke="black" points="98,-49 98,-79 232,-79 232,-49 98,-49"/>
<text text-anchor="start" x="106" y="-67" font-family="Helvetica,sans-Serif" font-size="10.00">IRAD::Primitive::KeyValue</text>
<text text-anchor="middle" x="165" y="-56" font-family="Helvetica,sans-Serif" font-size="10.00">PairObj::Key</text>
</a>
</g>
</g>
<!-- Node1&#45;&gt;Node2 -->
<g id="edge1" class="edge"><title>Node1&#45;&gt;Node2</title>
<path fill="none" stroke="midnightblue" d="M62.2835,-44.7355C70.109,-46.2176 78.8933,-47.8813 87.9356,-49.5939"/>
<polygon fill="midnightblue" stroke="midnightblue" points="87.339,-53.043 97.8157,-51.4651 88.6417,-46.1653 87.339,-53.043"/>
</g>
<!-- Node3 -->
<g id="node3" class="node"><title>Node3</title>
<g id="a_node3"><a xlink:href="classIRAD_1_1Primitive_1_1KeyValuePairObj_acfcf2f59cdcac768ab6d8686fa04b70f.html#acfcf2f59cdcac768ab6d8686fa04b70f" target="_top" xlink:title="IRAD::Primitive::KeyValue\lPairObj::Value">
<polygon fill="none" stroke="black" points="98,-0 98,-30 232,-30 232,-0 98,-0"/>
<text text-anchor="start" x="106" y="-18" font-family="Helvetica,sans-Serif" font-size="10.00">IRAD::Primitive::KeyValue</text>
<text text-anchor="middle" x="165" y="-7" font-family="Helvetica,sans-Serif" font-size="10.00">PairObj::Value</text>
</a>
</g>
</g>
<!-- Node1&#45;&gt;Node3 -->
<g id="edge2" class="edge"><title>Node1&#45;&gt;Node3</title>
<path fill="none" stroke="midnightblue" d="M62.2835,-33.4939C70.109,-32.0711 78.8933,-30.4739 87.9356,-28.8299"/>
<polygon fill="midnightblue" stroke="midnightblue" points="88.6031,-32.266 97.8157,-27.0335 87.3509,-25.3789 88.6031,-32.266"/>
</g>
</g>
</svg>
