<?xml version="1.0" encoding="UTF-8" standalone="no"?>
<!DOCTYPE svg PUBLIC "-//W3C//DTD SVG 1.1//EN"
 "http://www.w3.org/Graphics/SVG/1.1/DTD/svg11.dtd">
<!-- Generated by graphviz version 2.30.1 (20150305.2338)
 -->
<!-- Title: GatherMO Pages: 1 -->
<svg width="256pt" height="85pt"
 viewBox="0.00 0.00 256.00 85.00" xmlns="http://www.w3.org/2000/svg" xmlns:xlink="http://www.w3.org/1999/xlink">
<g id="graph0" class="graph" transform="scale(1 1) rotate(0) translate(4 81)">
<title>GatherMO</title>
<!-- Node1 -->
<g id="node1" class="node"><title>Node1</title>
<polygon fill="#bfbfbf" stroke="black" points="0,-38.5 0,-57.5 62,-57.5 62,-38.5 0,-38.5"/>
<text text-anchor="middle" x="31" y="-45.5" font-family="Helvetica,sans-Serif" font-size="10.00">GatherMO</text>
</g>
<!-- Node2 -->
<g id="node2" class="node"><title>Node2</title>
<g id="a_node2"><a xlink:href="classIRAD_1_1Comm_1_1CommunicatorObject_a9f039d75c1cb0fb7a3daedc026228478.html#a9f039d75c1cb0fb7a3daedc026228478" target="_top" xlink:title="_GatherMOV">
<polygon fill="none" stroke="black" points="98,-57.5 98,-76.5 172,-76.5 172,-57.5 98,-57.5"/>
<text text-anchor="middle" x="135" y="-64.5" font-family="Helvetica,sans-Serif" font-size="10.00">_GatherMOV</text>
</a>
</g>
</g>
<!-- Node1&#45;&gt;Node2 -->
<g id="edge1" class="edge"><title>Node1&#45;&gt;Node2</title>
<path fill="none" stroke="midnightblue" d="M62.0517,-53.5979C70.0767,-55.0927 78.9393,-56.7436 87.6218,-58.3609"/>
<polygon fill="midnightblue" stroke="midnightblue" points="87.1987,-61.8422 97.6706,-60.2328 88.4806,-54.9606 87.1987,-61.8422"/>
</g>
<!-- Node3 -->
<g id="node3" class="node"><title>Node3</title>
<g id="a_node3"><a xlink:href="classIRAD_1_1Comm_1_1CommunicatorObject_a613f9cb226d1718e0569eec5ea1212b5.html#a613f9cb226d1718e0569eec5ea1212b5" target="_top" xlink:title="Gather">
<polygon fill="none" stroke="black" points="112,-19.5 112,-38.5 158,-38.5 158,-19.5 112,-19.5"/>
<text text-anchor="middle" x="135" y="-26.5" font-family="Helvetica,sans-Serif" font-size="10.00">Gather</text>
</a>
</g>
</g>
<!-- Node1&#45;&gt;Node3 -->
<g id="edge2" class="edge"><title>Node1&#45;&gt;Node3</title>
<path fill="none" stroke="midnightblue" d="M62.0517,-42.4021C74.5392,-40.076 89.0547,-37.3722 101.764,-35.0048"/>
<polygon fill="midnightblue" stroke="midnightblue" points="102.74,-38.3832 111.93,-33.111 101.458,-31.5015 102.74,-38.3832"/>
</g>
<!-- Node4 -->
<g id="node4" class="node"><title>Node4</title>
<g id="a_node4"><a xlink:href="classIRAD_1_1Comm_1_1CommunicatorObject_a575c1da8fd55deeeb351cb509ddd3dda.html#a575c1da8fd55deeeb351cb509ddd3dda" target="_top" xlink:title="Rank">
<polygon fill="none" stroke="black" points="208,-38.5 208,-57.5 248,-57.5 248,-38.5 208,-38.5"/>
<text text-anchor="middle" x="228" y="-45.5" font-family="Helvetica,sans-Serif" font-size="10.00">Rank</text>
</a>
</g>
</g>
<!-- Node3&#45;&gt;Node4 -->
<g id="edge3" class="edge"><title>Node3&#45;&gt;Node4</title>
<path fill="none" stroke="midnightblue" d="M158.029,-33.5994C170.065,-36.1125 185.12,-39.2557 198.09,-41.9638"/>
<polygon fill="midnightblue" stroke="midnightblue" points="197.443,-45.4042 207.948,-44.022 198.874,-38.552 197.443,-45.4042"/>
</g>
<!-- Node5 -->
<g id="node5" class="node"><title>Node5</title>
<g id="a_node5"><a xlink:href="classIRAD_1_1Comm_1_1CommunicatorObject_af40990b9bd3d70d30e8ce7cdda1ad56f.html#af40990b9bd3d70d30e8ce7cdda1ad56f" target="_top" xlink:title="Size">
<polygon fill="none" stroke="black" points="210,-0.5 210,-19.5 246,-19.5 246,-0.5 210,-0.5"/>
<text text-anchor="middle" x="228" y="-7.5" font-family="Helvetica,sans-Serif" font-size="10.00">Size</text>
</a>
</g>
</g>
<!-- Node3&#45;&gt;Node5 -->
<g id="edge4" class="edge"><title>Node3&#45;&gt;Node5</title>
<path fill="none" stroke="midnightblue" d="M158.029,-24.4006C170.563,-21.7835 186.371,-18.4831 199.689,-15.7023"/>
<polygon fill="midnightblue" stroke="midnightblue" points="200.653,-19.0766 209.726,-13.6066 199.222,-12.2244 200.653,-19.0766"/>
</g>
</g>
</svg>
