<?xml version="1.0" encoding="UTF-8" standalone="no"?>
<!DOCTYPE svg PUBLIC "-//W3C//DTD SVG 1.1//EN"
 "http://www.w3.org/Graphics/SVG/1.1/DTD/svg11.dtd">
<!-- Generated by graphviz version 2.30.1 (20150305.2338)
 -->
<!-- Title: dimension Pages: 1 -->
<svg width="544pt" height="332pt"
 viewBox="0.00 0.00 544.00 332.00" xmlns="http://www.w3.org/2000/svg" xmlns:xlink="http://www.w3.org/1999/xlink">
<g id="graph0" class="graph" transform="scale(1 1) rotate(0) translate(4 328)">
<title>dimension</title>
<!-- Node1 -->
<g id="node1" class="node"><title>Node1</title>
<polygon fill="#bfbfbf" stroke="black" points="0.5,-152.5 0.5,-171.5 61.5,-171.5 61.5,-152.5 0.5,-152.5"/>
<text text-anchor="middle" x="31" y="-159.5" font-family="Helvetica,sans-Serif" font-size="10.00">dimension</text>
</g>
<!-- Node2 -->
<g id="node2" class="node"><title>Node2</title>
<g id="a_node2"><a xlink:href="classPane__node__enumerator_ae5acbe47d704ceb866e3717e2ac9422f.html#ae5acbe47d704ceb866e3717e2ac9422f" target="_top" xlink:title="Get the dimension of the base pane. ">
<polygon fill="none" stroke="black" points="105.5,-294 105.5,-324 224.5,-324 224.5,-294 105.5,-294"/>
<text text-anchor="start" x="113.5" y="-312" font-family="Helvetica,sans-Serif" font-size="10.00">Pane_node_enumerator</text>
<text text-anchor="middle" x="165" y="-301" font-family="Helvetica,sans-Serif" font-size="10.00">::dimension</text>
</a>
</g>
</g>
<!-- Node1&#45;&gt;Node2 -->
<g id="edge1" class="edge"><title>Node1&#45;&gt;Node2</title>
<path fill="none" stroke="midnightblue" d="M37.729,-181.425C46.5281,-208.072 65.8151,-255.857 98,-284 102.427,-287.871 107.515,-291.17 112.859,-293.974"/>
<polygon fill="midnightblue" stroke="midnightblue" points="41.0173,-180.214 34.683,-171.721 34.3386,-182.31 41.0173,-180.214"/>
</g>
<!-- Node3 -->
<g id="node3" class="node"><title>Node3</title>
<g id="a_node3"><a xlink:href="classElement__node__enumerator_ae5acbe47d704ceb866e3717e2ac9422f.html#ae5acbe47d704ceb866e3717e2ac9422f" target="_top" xlink:title="Get the dimension of the base pane. ">
<polygon fill="none" stroke="black" points="98.5,-245 98.5,-275 231.5,-275 231.5,-245 98.5,-245"/>
<text text-anchor="start" x="106.5" y="-263" font-family="Helvetica,sans-Serif" font-size="10.00">Element_node_enumerator</text>
<text text-anchor="middle" x="165" y="-252" font-family="Helvetica,sans-Serif" font-size="10.00">::dimension</text>
</a>
</g>
</g>
<!-- Node1&#45;&gt;Node3 -->
<g id="edge2" class="edge"><title>Node1&#45;&gt;Node3</title>
<path fill="none" stroke="midnightblue" d="M44.4411,-180.072C56.4823,-196.383 76.0914,-220.047 98,-235 103.566,-238.799 109.787,-242.12 116.124,-244.992"/>
<polygon fill="midnightblue" stroke="midnightblue" points="47.2332,-177.96 38.5637,-171.87 41.5431,-182.037 47.2332,-177.96"/>
</g>
<!-- Node4 -->
<g id="node4" class="node"><title>Node4</title>
<g id="a_node4"><a xlink:href="classElement__node__enumerator_a484fea918d3e888f2c3ded14fe8c752f.html#a484fea918d3e888f2c3ded14fe8c752f" target="_top" xlink:title="Number of corners per element. ">
<polygon fill="none" stroke="black" points="98.5,-196 98.5,-226 231.5,-226 231.5,-196 98.5,-196"/>
<text text-anchor="start" x="106.5" y="-214" font-family="Helvetica,sans-Serif" font-size="10.00">Element_node_enumerator</text>
<text text-anchor="middle" x="165" y="-203" font-family="Helvetica,sans-Serif" font-size="10.00">::size_of_corners</text>
</a>
</g>
</g>
<!-- Node1&#45;&gt;Node4 -->
<g id="edge3" class="edge"><title>Node1&#45;&gt;Node4</title>
<path fill="none" stroke="midnightblue" d="M67.4716,-175.167C84.7447,-181.579 105.596,-189.32 123.492,-195.963"/>
<polygon fill="midnightblue" stroke="midnightblue" points="68.3573,-171.763 57.7643,-171.564 65.9212,-178.325 68.3573,-171.763"/>
</g>
<!-- Node5 -->
<g id="node5" class="node"><title>Node5</title>
<g id="a_node5"><a xlink:href="classElement__node__enumerator_a3b0965f57d58cd0e85fab4b12a9d6899.html#a3b0965f57d58cd0e85fab4b12a9d6899" target="_top" xlink:title="Number of edges per element. ">
<polygon fill="none" stroke="black" points="98.5,-147 98.5,-177 231.5,-177 231.5,-147 98.5,-147"/>
<text text-anchor="start" x="106.5" y="-165" font-family="Helvetica,sans-Serif" font-size="10.00">Element_node_enumerator</text>
<text text-anchor="middle" x="165" y="-154" font-family="Helvetica,sans-Serif" font-size="10.00">::size_of_edges</text>
</a>
</g>
</g>
<!-- Node1&#45;&gt;Node5 -->
<g id="edge4" class="edge"><title>Node1&#45;&gt;Node5</title>
<path fill="none" stroke="midnightblue" d="M71.8339,-162C80.2192,-162 89.2768,-162 98.3263,-162"/>
<polygon fill="midnightblue" stroke="midnightblue" points="71.6234,-158.5 61.6234,-162 71.6233,-165.5 71.6234,-158.5"/>
</g>
<!-- Node6 -->
<g id="node6" class="node"><title>Node6</title>
<g id="a_node6"><a xlink:href="classElement__node__enumerator_af4f9a44cfa67dbbabecdefb99a081bc5.html#af4f9a44cfa67dbbabecdefb99a081bc5" target="_top" xlink:title="Number of faces per element. ">
<polygon fill="none" stroke="black" points="98.5,-98 98.5,-128 231.5,-128 231.5,-98 98.5,-98"/>
<text text-anchor="start" x="106.5" y="-116" font-family="Helvetica,sans-Serif" font-size="10.00">Element_node_enumerator</text>
<text text-anchor="middle" x="165" y="-105" font-family="Helvetica,sans-Serif" font-size="10.00">::size_of_faces</text>
</a>
</g>
</g>
<!-- Node1&#45;&gt;Node6 -->
<g id="edge5" class="edge"><title>Node1&#45;&gt;Node6</title>
<path fill="none" stroke="midnightblue" d="M67.4716,-148.833C84.7447,-142.421 105.596,-134.68 123.492,-128.037"/>
<polygon fill="midnightblue" stroke="midnightblue" points="65.9212,-145.675 57.7643,-152.436 68.3573,-152.237 65.9212,-145.675"/>
</g>
<!-- Node7 -->
<g id="node7" class="node"><title>Node7</title>
<g id="a_node7"><a xlink:href="classElement__node__enumerator_a35a62313d45990cfa4cab8caa1dfbff6.html#a35a62313d45990cfa4cab8caa1dfbff6" target="_top" xlink:title="Number of nodes per element. ">
<polygon fill="none" stroke="black" points="98.5,-49 98.5,-79 231.5,-79 231.5,-49 98.5,-49"/>
<text text-anchor="start" x="106.5" y="-67" font-family="Helvetica,sans-Serif" font-size="10.00">Element_node_enumerator</text>
<text text-anchor="middle" x="165" y="-56" font-family="Helvetica,sans-Serif" font-size="10.00">::size_of_nodes</text>
</a>
</g>
</g>
<!-- Node1&#45;&gt;Node7 -->
<g id="edge6" class="edge"><title>Node1&#45;&gt;Node7</title>
<path fill="none" stroke="midnightblue" d="M44.4411,-143.928C56.4823,-127.617 76.0914,-103.953 98,-89 103.566,-85.201 109.787,-81.8804 116.124,-79.008"/>
<polygon fill="midnightblue" stroke="midnightblue" points="41.5431,-141.963 38.5637,-152.13 47.2332,-146.04 41.5431,-141.963"/>
</g>
<!-- Node10 -->
<g id="node10" class="node"><title>Node10</title>
<g id="a_node10"><a xlink:href="classElement__node__enumerator_a4609e33962a63a3b71f17de25e8745aa.html#a4609e33962a63a3b71f17de25e8745aa" target="_top" xlink:title="Obtain the type of the element. ">
<polygon fill="none" stroke="black" points="98.5,-0 98.5,-30 231.5,-30 231.5,-0 98.5,-0"/>
<text text-anchor="start" x="106.5" y="-18" font-family="Helvetica,sans-Serif" font-size="10.00">Element_node_enumerator</text>
<text text-anchor="middle" x="165" y="-7" font-family="Helvetica,sans-Serif" font-size="10.00">::type</text>
</a>
</g>
</g>
<!-- Node1&#45;&gt;Node10 -->
<g id="edge9" class="edge"><title>Node1&#45;&gt;Node10</title>
<path fill="none" stroke="midnightblue" d="M37.729,-142.575C46.5281,-115.928 65.8151,-68.1427 98,-40 102.427,-36.1286 107.515,-32.8301 112.859,-30.0257"/>
<polygon fill="midnightblue" stroke="midnightblue" points="34.3386,-141.69 34.683,-152.279 41.0173,-143.786 34.3386,-141.69"/>
</g>
<!-- Node8 -->
<g id="node8" class="node"><title>Node8</title>
<g id="a_node8"><a xlink:href="classElement__node__vectors__k__const_a012daf687ea85e9da2bc2d064de92aa6.html#a012daf687ea85e9da2bc2d064de92aa6" target="_top" xlink:title="initialize the accessor with a pointer and a specific stride. ">
<polygon fill="none" stroke="black" points="268,-49 268,-79 384,-79 384,-49 268,-49"/>
<text text-anchor="start" x="276" y="-67" font-family="Helvetica,sans-Serif" font-size="10.00">Element_node_vectors</text>
<text text-anchor="middle" x="326" y="-56" font-family="Helvetica,sans-Serif" font-size="10.00">_k_const::set</text>
</a>
</g>
</g>
<!-- Node7&#45;&gt;Node8 -->
<g id="edge7" class="edge"><title>Node7&#45;&gt;Node8</title>
<path fill="none" stroke="midnightblue" d="M241.845,-64C250.627,-64 259.468,-64 267.94,-64"/>
<polygon fill="midnightblue" stroke="midnightblue" points="241.589,-60.5001 231.589,-64 241.589,-67.5001 241.589,-60.5001"/>
</g>
<!-- Node9 -->
<g id="node9" class="node"><title>Node9</title>
<g id="a_node9"><a xlink:href="classElement__node__vectors__k_abff5b8faeb81685278bb62a627e784b0.html#abff5b8faeb81685278bb62a627e784b0" target="_top" xlink:title="Element_node_vectors\l_k::set">
<polygon fill="none" stroke="black" points="420,-49 420,-79 536,-79 536,-49 420,-49"/>
<text text-anchor="start" x="428" y="-67" font-family="Helvetica,sans-Serif" font-size="10.00">Element_node_vectors</text>
<text text-anchor="middle" x="478" y="-56" font-family="Helvetica,sans-Serif" font-size="10.00">_k::set</text>
</a>
</g>
</g>
<!-- Node8&#45;&gt;Node9 -->
<g id="edge8" class="edge"><title>Node8&#45;&gt;Node9</title>
<path fill="none" stroke="midnightblue" d="M394.311,-64C402.728,-64 411.277,-64 419.525,-64"/>
<polygon fill="midnightblue" stroke="midnightblue" points="394.137,-60.5001 384.136,-64 394.136,-67.5001 394.137,-60.5001"/>
</g>
</g>
</svg>
