<?xml version="1.0" encoding="UTF-8" standalone="no"?>
<!DOCTYPE svg PUBLIC "-//W3C//DTD SVG 1.1//EN"
 "http://www.w3.org/Graphics/SVG/1.1/DTD/svg11.dtd">
<!-- Generated by graphviz version 2.30.1 (20150305.2338)
 -->
<!-- Title: Test__GetInput Pages: 1 -->
<svg width="294pt" height="28pt"
 viewBox="0.00 0.00 294.00 28.00" xmlns="http://www.w3.org/2000/svg" xmlns:xlink="http://www.w3.org/1999/xlink">
<g id="graph0" class="graph" transform="scale(1 1) rotate(0) translate(4 24)">
<title>Test__GetInput</title>
<!-- Node1 -->
<g id="node1" class="node"><title>Node1</title>
<polygon fill="#bfbfbf" stroke="black" points="0,-0.5 0,-19.5 84,-19.5 84,-0.5 0,-0.5"/>
<text text-anchor="middle" x="42" y="-7.5" font-family="Helvetica,sans-Serif" font-size="10.00">Test__GetInput</text>
</g>
<!-- Node2 -->
<g id="node2" class="node"><title>Node2</title>
<g id="a_node2"><a xlink:href="classElmerFoamFSI_1_1TestingObject_a6ddf5281e8c291fe3b0db952bc4607e7.html#a6ddf5281e8c291fe3b0db952bc4607e7" target="_top" xlink:title="__helper">
<polygon fill="none" stroke="black" points="120.5,-0.5 120.5,-19.5 173.5,-19.5 173.5,-0.5 120.5,-0.5"/>
<text text-anchor="middle" x="147" y="-7.5" font-family="Helvetica,sans-Serif" font-size="10.00">__helper</text>
</a>
</g>
</g>
<!-- Node1&#45;&gt;Node2 -->
<g id="edge1" class="edge"><title>Node1&#45;&gt;Node2</title>
<path fill="none" stroke="midnightblue" d="M84.0043,-10C92.6034,-10 101.61,-10 110.01,-10"/>
<polygon fill="midnightblue" stroke="midnightblue" points="110.249,-13.5001 120.249,-10 110.249,-6.5001 110.249,-13.5001"/>
</g>
<!-- Node3 -->
<g id="node3" class="node"><title>Node3</title>
<g id="a_node3"><a xlink:href="classElmerFoamFSI_1_1TestingObject_a90864b099beaf9044bf8fff8a9857c0d.html#a90864b099beaf9044bf8fff8a9857c0d" target="_top" xlink:title="GetInputData">
<polygon fill="none" stroke="black" points="210.5,-0.5 210.5,-19.5 285.5,-19.5 285.5,-0.5 210.5,-0.5"/>
<text text-anchor="middle" x="248" y="-7.5" font-family="Helvetica,sans-Serif" font-size="10.00">GetInputData</text>
</a>
</g>
</g>
<!-- Node2&#45;&gt;Node3 -->
<g id="edge2" class="edge"><title>Node2&#45;&gt;Node3</title>
<path fill="none" stroke="midnightblue" d="M173.753,-10C181.828,-10 191.009,-10 200.074,-10"/>
<polygon fill="midnightblue" stroke="midnightblue" points="200.194,-13.5001 210.194,-10 200.194,-6.5001 200.194,-13.5001"/>
</g>
</g>
</svg>
