<?xml version="1.0" encoding="UTF-8" standalone="no"?>
<!DOCTYPE svg PUBLIC "-//W3C//DTD SVG 1.1//EN"
 "http://www.w3.org/Graphics/SVG/1.1/DTD/svg11.dtd">
<!-- Generated by graphviz version 2.30.1 (20150305.2338)
 -->
<!-- Title: is_ghost_border_node Pages: 1 -->
<svg width="370pt" height="104pt"
 viewBox="0.00 0.00 370.00 104.00" xmlns="http://www.w3.org/2000/svg" xmlns:xlink="http://www.w3.org/1999/xlink">
<g id="graph0" class="graph" transform="scale(1 1) rotate(0) translate(4 100)">
<title>is_ghost_border_node</title>
<!-- Node1 -->
<g id="node1" class="node"><title>Node1</title>
<polygon fill="#bfbfbf" stroke="black" points="0,-38.5 0,-57.5 112,-57.5 112,-38.5 0,-38.5"/>
<text text-anchor="middle" x="56" y="-45.5" font-family="Helvetica,sans-Serif" font-size="10.00">is_ghost_border_node</text>
</g>
<!-- Node2 -->
<g id="node2" class="node"><title>Node2</title>
<g id="a_node2"><a xlink:href="classFacet__ID_a1dea367be190d5726e3aa6b8d0c47076.html#a1dea367be190d5726e3aa6b8d0c47076" target="_top" xlink:title="Element ID of the halfedge. ">
<polygon fill="none" stroke="black" points="162,-76.5 162,-95.5 238,-95.5 238,-76.5 162,-76.5"/>
<text text-anchor="middle" x="200" y="-83.5" font-family="Helvetica,sans-Serif" font-size="10.00">Facet_ID::eid</text>
</a>
</g>
</g>
<!-- Node1&#45;&gt;Node2 -->
<g id="edge1" class="edge"><title>Node1&#45;&gt;Node2</title>
<path fill="none" stroke="midnightblue" d="M92.8326,-57.589C111.163,-62.4944 133.678,-68.5196 153.25,-73.7571"/>
<polygon fill="midnightblue" stroke="midnightblue" points="152.614,-77.2099 163.179,-76.4141 154.424,-70.4479 152.614,-77.2099"/>
</g>
<!-- Node3 -->
<g id="node3" class="node"><title>Node3</title>
<g id="a_node3"><a xlink:href="classFacet__ID_aa126fd94949c810d24869ad04cd97e15.html#aa126fd94949c810d24869ad04cd97e15" target="_top" xlink:title="Determines whether the facet is on border. ">
<polygon fill="none" stroke="black" points="148.5,-38.5 148.5,-57.5 251.5,-57.5 251.5,-38.5 148.5,-38.5"/>
<text text-anchor="middle" x="200" y="-45.5" font-family="Helvetica,sans-Serif" font-size="10.00">Facet_ID::is_border</text>
</a>
</g>
</g>
<!-- Node1&#45;&gt;Node3 -->
<g id="edge2" class="edge"><title>Node1&#45;&gt;Node3</title>
<path fill="none" stroke="midnightblue" d="M112.308,-48C120.723,-48 129.448,-48 137.976,-48"/>
<polygon fill="midnightblue" stroke="midnightblue" points="138.249,-51.5001 148.249,-48 138.248,-44.5001 138.249,-51.5001"/>
</g>
<!-- Node5 -->
<g id="node5" class="node"><title>Node5</title>
<g id="a_node5"><a xlink:href="classSimple__manifold__2_ab10e70cbf6e6aeedb1e3dd1cab81ebf8.html#ab10e70cbf6e6aeedb1e3dd1cab81ebf8" target="_top" xlink:title="Is the given node a ghost node? ">
<polygon fill="none" stroke="black" points="160,-0.5 160,-19.5 240,-19.5 240,-0.5 160,-0.5"/>
<text text-anchor="middle" x="200" y="-7.5" font-family="Helvetica,sans-Serif" font-size="10.00">is_ghost_node</text>
</a>
</g>
</g>
<!-- Node1&#45;&gt;Node5 -->
<g id="edge4" class="edge"><title>Node1&#45;&gt;Node5</title>
<path fill="none" stroke="midnightblue" d="M92.8326,-38.411C111.163,-33.5056 133.678,-27.4804 153.25,-22.2429"/>
<polygon fill="midnightblue" stroke="midnightblue" points="154.424,-25.5521 163.179,-19.5859 152.614,-18.7901 154.424,-25.5521"/>
</g>
<!-- Node4 -->
<g id="node4" class="node"><title>Node4</title>
<g id="a_node4"><a xlink:href="classFacet__ID_ae7df635a2e18521c31e7da0b999b802b.html#ae7df635a2e18521c31e7da0b999b802b" target="_top" xlink:title="Local edge ID of the halfedge within its element. ">
<polygon fill="none" stroke="black" points="288.5,-38.5 288.5,-57.5 361.5,-57.5 361.5,-38.5 288.5,-38.5"/>
<text text-anchor="middle" x="325" y="-45.5" font-family="Helvetica,sans-Serif" font-size="10.00">Facet_ID::lid</text>
</a>
</g>
</g>
<!-- Node3&#45;&gt;Node4 -->
<g id="edge3" class="edge"><title>Node3&#45;&gt;Node4</title>
<path fill="none" stroke="midnightblue" d="M251.739,-48C260.49,-48 269.54,-48 278.152,-48"/>
<polygon fill="midnightblue" stroke="midnightblue" points="278.39,-51.5001 288.39,-48 278.39,-44.5001 278.39,-51.5001"/>
</g>
</g>
</svg>
