<?xml version="1.0" encoding="UTF-8" standalone="no"?>
<!DOCTYPE svg PUBLIC "-//W3C//DTD SVG 1.1//EN"
 "http://www.w3.org/Graphics/SVG/1.1/DTD/svg11.dtd">
<!-- Generated by graphviz version 2.30.1 (20150305.2338)
 -->
<!-- Title: run Pages: 1 -->
<svg width="248pt" height="28pt"
 viewBox="0.00 0.00 248.00 28.00" xmlns="http://www.w3.org/2000/svg" xmlns:xlink="http://www.w3.org/1999/xlink">
<g id="graph0" class="graph" transform="scale(1 1) rotate(0) translate(4 24)">
<title>run</title>
<!-- Node1 -->
<g id="node1" class="node"><title>Node1</title>
<polygon fill="#bfbfbf" stroke="black" points="0,-0.5 0,-19.5 30,-19.5 30,-0.5 0,-0.5"/>
<text text-anchor="middle" x="15" y="-7.5" font-family="Helvetica,sans-Serif" font-size="10.00">run</text>
</g>
<!-- Node2 -->
<g id="node2" class="node"><title>Node2</title>
<g id="a_node2"><a xlink:href="classCOM_1_1SolverModuleDriver_aea42380c0ab504512101fe9a4beb3521.html#aea42380c0ab504512101fe9a4beb3521" target="_top" xlink:title="vtkDump">
<polygon fill="none" stroke="black" points="66,-0.5 66,-19.5 122,-19.5 122,-0.5 66,-0.5"/>
<text text-anchor="middle" x="94" y="-7.5" font-family="Helvetica,sans-Serif" font-size="10.00">vtkDump</text>
</a>
</g>
</g>
<!-- Node1&#45;&gt;Node2 -->
<g id="edge1" class="edge"><title>Node1&#45;&gt;Node2</title>
<path fill="none" stroke="midnightblue" d="M30.123,-10C37.3783,-10 46.5957,-10 55.7215,-10"/>
<polygon fill="midnightblue" stroke="midnightblue" points="55.8764,-13.5001 65.8764,-10 55.8763,-6.5001 55.8764,-13.5001"/>
</g>
<!-- Node3 -->
<g id="node3" class="node"><title>Node3</title>
<g id="a_node3"><a xlink:href="classCOM_1_1SolverModuleDriver_aa4865919edd847e77ad5324473c867a2.html#aa4865919edd847e77ad5324473c867a2" target="_top" xlink:title="updateSolution">
<polygon fill="none" stroke="black" points="158.5,-0.5 158.5,-19.5 239.5,-19.5 239.5,-0.5 158.5,-0.5"/>
<text text-anchor="middle" x="199" y="-7.5" font-family="Helvetica,sans-Serif" font-size="10.00">updateSolution</text>
</a>
</g>
</g>
<!-- Node2&#45;&gt;Node3 -->
<g id="edge2" class="edge"><title>Node2&#45;&gt;Node3</title>
<path fill="none" stroke="midnightblue" d="M122.062,-10C130.117,-10 139.21,-10 148.232,-10"/>
<polygon fill="midnightblue" stroke="midnightblue" points="148.329,-13.5001 158.329,-10 148.329,-6.5001 148.329,-13.5001"/>
</g>
</g>
</svg>
