<?xml version="1.0" encoding="UTF-8" standalone="no"?>
<!DOCTYPE svg PUBLIC "-//W3C//DTD SVG 1.1//EN"
 "http://www.w3.org/Graphics/SVG/1.1/DTD/svg11.dtd">
<!-- Generated by graphviz version 2.30.1 (20150305.2338)
 -->
<!-- Title: Finalize Pages: 1 -->
<svg width="258pt" height="126pt"
 viewBox="0.00 0.00 258.00 126.00" xmlns="http://www.w3.org/2000/svg" xmlns:xlink="http://www.w3.org/1999/xlink">
<g id="graph0" class="graph" transform="scale(1 1) rotate(0) translate(4 122)">
<title>Finalize</title>
<!-- Node1 -->
<g id="node1" class="node"><title>Node1</title>
<polygon fill="#bfbfbf" stroke="black" points="0,-44.5 0,-63.5 50,-63.5 50,-44.5 0,-44.5"/>
<text text-anchor="middle" x="25" y="-51.5" font-family="Helvetica,sans-Serif" font-size="10.00">Finalize</text>
</g>
<!-- Node2 -->
<g id="node2" class="node"><title>Node2</title>
<g id="a_node2"><a xlink:href="namespaceElmerFoamFSI_1_1ExampleProgram_a51e123c8b200fe0d466698ff7429bba6.html#a51e123c8b200fe0d466698ff7429bba6" target="_top" xlink:title="Unified driver for the example programs. ">
<polygon fill="none" stroke="black" points="86,-88 86,-118 250,-118 250,-88 86,-88"/>
<text text-anchor="start" x="94" y="-106" font-family="Helvetica,sans-Serif" font-size="10.00">ElmerFoamFSI::ExampleProgram</text>
<text text-anchor="middle" x="168" y="-95" font-family="Helvetica,sans-Serif" font-size="10.00">::Driver</text>
</a>
</g>
</g>
<!-- Node1&#45;&gt;Node2 -->
<g id="edge1" class="edge"><title>Node1&#45;&gt;Node2</title>
<path fill="none" stroke="midnightblue" d="M57.9972,-67.3564C66.9988,-70.9614 76.8343,-74.7584 86,-78 95.5737,-81.3859 105.871,-84.7627 115.806,-87.8895"/>
<polygon fill="midnightblue" stroke="midnightblue" points="59.2103,-64.0715 48.628,-63.5553 56.5787,-70.558 59.2103,-64.0715"/>
</g>
<!-- Node3 -->
<g id="node3" class="node"><title>Node3</title>
<g id="a_node3"><a xlink:href="namespaceElmerModuleDriver_1_1ExampleProgram_a945c2d21d14578304f149399117a364c.html#a945c2d21d14578304f149399117a364c" target="_top" xlink:title="Unified driver for the example programs. ">
<polygon fill="none" stroke="black" points="106,-39 106,-69 230,-69 230,-39 106,-39"/>
<text text-anchor="start" x="114" y="-57" font-family="Helvetica,sans-Serif" font-size="10.00">ElmerModuleDriver::</text>
<text text-anchor="middle" x="168" y="-46" font-family="Helvetica,sans-Serif" font-size="10.00">ExampleProgram::Driver</text>
</a>
</g>
</g>
<!-- Node1&#45;&gt;Node3 -->
<g id="edge2" class="edge"><title>Node1&#45;&gt;Node3</title>
<path fill="none" stroke="midnightblue" d="M60.5962,-54C74.2378,-54 90.3259,-54 105.805,-54"/>
<polygon fill="midnightblue" stroke="midnightblue" points="60.2388,-50.5001 50.2388,-54 60.2387,-57.5001 60.2388,-50.5001"/>
</g>
<!-- Node4 -->
<g id="node4" class="node"><title>Node4</title>
<g id="a_node4"><a xlink:href="namespaceElmerFoamFSI_aff46f457934a8e2d3712bdbfb1688e99.html#aff46f457934a8e2d3712bdbfb1688e99" target="_top" xlink:title="Unified driver for the example programs. ">
<polygon fill="none" stroke="black" points="110.5,-0.5 110.5,-19.5 225.5,-19.5 225.5,-0.5 110.5,-0.5"/>
<text text-anchor="middle" x="168" y="-7.5" font-family="Helvetica,sans-Serif" font-size="10.00">ElmerFoamFSI::Driver</text>
</a>
</g>
</g>
<!-- Node1&#45;&gt;Node4 -->
<g id="edge3" class="edge"><title>Node1&#45;&gt;Node4</title>
<path fill="none" stroke="midnightblue" d="M57.1955,-40.5722C66.379,-36.8787 76.5099,-33.0534 86,-30 97.9962,-26.1402 111.194,-22.594 123.391,-19.5941"/>
<polygon fill="midnightblue" stroke="midnightblue" points="55.5953,-37.4457 47.6774,-44.4854 58.2572,-43.9199 55.5953,-37.4457"/>
</g>
</g>
</svg>
