<?xml version="1.0" encoding="UTF-8" standalone="no"?>
<!DOCTYPE svg PUBLIC "-//W3C//DTD SVG 1.1//EN"
 "http://www.w3.org/Graphics/SVG/1.1/DTD/svg11.dtd">
<!-- Generated by graphviz version 2.30.1 (20150305.2338)
 -->
<!-- Title: Finalize Pages: 1 -->
<svg width="352pt" height="106pt"
 viewBox="0.00 0.00 352.00 106.00" xmlns="http://www.w3.org/2000/svg" xmlns:xlink="http://www.w3.org/1999/xlink">
<g id="graph0" class="graph" transform="scale(1 1) rotate(0) translate(4 102)">
<title>Finalize</title>
<!-- Node1 -->
<g id="node1" class="node"><title>Node1</title>
<polygon fill="#bfbfbf" stroke="black" points="0,-51.5 0,-70.5 50,-70.5 50,-51.5 0,-51.5"/>
<text text-anchor="middle" x="25" y="-58.5" font-family="Helvetica,sans-Serif" font-size="10.00">Finalize</text>
</g>
<!-- Node2 -->
<g id="node2" class="node"><title>Node2</title>
<g id="a_node2"><a xlink:href="classimpact_1_1orchestrator_1_1agentbase_a6068a393f390317c207fce14a60f9ef4.html#a6068a393f390317c207fce14a60f9ef4" target="_top" xlink:title="impact::orchestrator\l::agentbase::Finalize">
<polygon fill="none" stroke="black" points="86.5,-68 86.5,-98 193.5,-98 193.5,-68 86.5,-68"/>
<text text-anchor="start" x="94.5" y="-86" font-family="Helvetica,sans-Serif" font-size="10.00">impact::orchestrator</text>
<text text-anchor="middle" x="140" y="-75" font-family="Helvetica,sans-Serif" font-size="10.00">::agentbase::Finalize</text>
</a>
</g>
</g>
<!-- Node1&#45;&gt;Node2 -->
<g id="edge1" class="edge"><title>Node1&#45;&gt;Node2</title>
<path fill="none" stroke="midnightblue" d="M50.2413,-65.7196C58.0517,-67.2402 67.0989,-69.0015 76.3688,-70.8063"/>
<polygon fill="midnightblue" stroke="midnightblue" points="75.9826,-74.2968 86.4672,-72.7724 77.3203,-67.4258 75.9826,-74.2968"/>
</g>
<!-- Node3 -->
<g id="node3" class="node"><title>Node3</title>
<g id="a_node3"><a xlink:href="classelmeragent_a6068a393f390317c207fce14a60f9ef4.html#a6068a393f390317c207fce14a60f9ef4" target="_top" xlink:title="elmeragent::Finalize">
<polygon fill="none" stroke="black" points="88,-29.5 88,-48.5 192,-48.5 192,-29.5 88,-29.5"/>
<text text-anchor="middle" x="140" y="-36.5" font-family="Helvetica,sans-Serif" font-size="10.00">elmeragent::Finalize</text>
</a>
</g>
</g>
<!-- Node1&#45;&gt;Node3 -->
<g id="edge2" class="edge"><title>Node1&#45;&gt;Node3</title>
<path fill="none" stroke="midnightblue" d="M50.2413,-56.2804C59.0873,-54.5582 69.5197,-52.5271 80.0655,-50.474"/>
<polygon fill="midnightblue" stroke="midnightblue" points="81.0162,-53.8547 90.163,-48.5081 79.6784,-46.9837 81.0162,-53.8547"/>
</g>
<!-- Node4 -->
<g id="node4" class="node"><title>Node4</title>
<g id="a_node4"><a xlink:href="classimpact_1_1orchestrator_1_1agentbase_a0c67610e579dce80081e10bbbf57eae1.html#a0c67610e579dce80081e10bbbf57eae1" target="_top" xlink:title="impact::orchestrator\l::agentbase::WriteErr">
<polygon fill="none" stroke="black" points="232,-49 232,-79 342,-79 342,-49 232,-49"/>
<text text-anchor="start" x="240" y="-67" font-family="Helvetica,sans-Serif" font-size="10.00">impact::orchestrator</text>
<text text-anchor="middle" x="287" y="-56" font-family="Helvetica,sans-Serif" font-size="10.00">::agentbase::WriteErr</text>
</a>
</g>
</g>
<!-- Node3&#45;&gt;Node4 -->
<g id="edge3" class="edge"><title>Node3&#45;&gt;Node4</title>
<path fill="none" stroke="midnightblue" d="M192.122,-47.8141C201.784,-49.4799 212.002,-51.2417 222.001,-52.9658"/>
<polygon fill="midnightblue" stroke="midnightblue" points="221.45,-56.4223 231.899,-54.6723 222.64,-49.5241 221.45,-56.4223"/>
</g>
<!-- Node5 -->
<g id="node5" class="node"><title>Node5</title>
<g id="a_node5"><a xlink:href="classimpact_1_1orchestrator_1_1agentbase_acd3473c5912447035e34274950a1c8c6.html#acd3473c5912447035e34274950a1c8c6" target="_top" xlink:title="impact::orchestrator\l::agentbase::WriteOut">
<polygon fill="none" stroke="black" points="230.5,-0 230.5,-30 343.5,-30 343.5,-0 230.5,-0"/>
<text text-anchor="start" x="238.5" y="-18" font-family="Helvetica,sans-Serif" font-size="10.00">impact::orchestrator</text>
<text text-anchor="middle" x="287" y="-7" font-family="Helvetica,sans-Serif" font-size="10.00">::agentbase::WriteOut</text>
</a>
</g>
</g>
<!-- Node3&#45;&gt;Node5 -->
<g id="edge4" class="edge"><title>Node3&#45;&gt;Node5</title>
<path fill="none" stroke="midnightblue" d="M192.122,-30.5385C201.223,-29.0321 210.818,-27.4439 220.259,-25.8813"/>
<polygon fill="midnightblue" stroke="midnightblue" points="221.118,-29.2868 230.412,-24.2007 219.975,-22.3808 221.118,-29.2868"/>
</g>
</g>
</svg>
