<?xml version="1.0" encoding="UTF-8" standalone="no"?>
<!DOCTYPE svg PUBLIC "-//W3C//DTD SVG 1.1//EN"
 "http://www.w3.org/Graphics/SVG/1.1/DTD/svg11.dtd">
<!-- Generated by graphviz version 2.30.1 (20150305.2338)
 -->
<!-- Title: set Pages: 1 -->
<svg width="492pt" height="77pt"
 viewBox="0.00 0.00 492.00 77.00" xmlns="http://www.w3.org/2000/svg" xmlns:xlink="http://www.w3.org/1999/xlink">
<g id="graph0" class="graph" transform="scale(1 1) rotate(0) translate(4 73)">
<title>set</title>
<!-- Node1 -->
<g id="node1" class="node"><title>Node1</title>
<polygon fill="#bfbfbf" stroke="black" points="0,-27.5 0,-46.5 30,-46.5 30,-27.5 0,-27.5"/>
<text text-anchor="middle" x="15" y="-34.5" font-family="Helvetica,sans-Serif" font-size="10.00">set</text>
</g>
<!-- Node2 -->
<g id="node2" class="node"><title>Node2</title>
<g id="a_node2"><a xlink:href="classElement__node__vectors__k__const_a012daf687ea85e9da2bc2d064de92aa6.html#a012daf687ea85e9da2bc2d064de92aa6" target="_top" xlink:title="initialize the accessor with a pointer and a specific stride. ">
<polygon fill="none" stroke="black" points="66,-22 66,-52 182,-52 182,-22 66,-22"/>
<text text-anchor="start" x="74" y="-40" font-family="Helvetica,sans-Serif" font-size="10.00">Element_node_vectors</text>
<text text-anchor="middle" x="124" y="-29" font-family="Helvetica,sans-Serif" font-size="10.00">_k_const::set</text>
</a>
</g>
</g>
<!-- Node1&#45;&gt;Node2 -->
<g id="edge1" class="edge"><title>Node1&#45;&gt;Node2</title>
<path fill="none" stroke="midnightblue" d="M30.4305,-37C37.3738,-37 46.2475,-37 55.7414,-37"/>
<polygon fill="midnightblue" stroke="midnightblue" points="55.8046,-40.5001 65.8046,-37 55.8045,-33.5001 55.8046,-40.5001"/>
</g>
<!-- Node3 -->
<g id="node3" class="node"><title>Node3</title>
<g id="a_node3"><a xlink:href="classElement__node__enumerator_a35a62313d45990cfa4cab8caa1dfbff6.html#a35a62313d45990cfa4cab8caa1dfbff6" target="_top" xlink:title="Number of nodes per element. ">
<polygon fill="none" stroke="black" points="218.5,-22 218.5,-52 351.5,-52 351.5,-22 218.5,-22"/>
<text text-anchor="start" x="226.5" y="-40" font-family="Helvetica,sans-Serif" font-size="10.00">Element_node_enumerator</text>
<text text-anchor="middle" x="285" y="-29" font-family="Helvetica,sans-Serif" font-size="10.00">::size_of_nodes</text>
</a>
</g>
</g>
<!-- Node2&#45;&gt;Node3 -->
<g id="edge2" class="edge"><title>Node2&#45;&gt;Node3</title>
<path fill="none" stroke="midnightblue" d="M182.403,-37C190.778,-37 199.509,-37 208.181,-37"/>
<polygon fill="midnightblue" stroke="midnightblue" points="208.31,-40.5001 218.31,-37 208.31,-33.5001 208.31,-40.5001"/>
</g>
<!-- Node4 -->
<g id="node4" class="node"><title>Node4</title>
<g id="a_node4"><a xlink:href="classPane_ae5acbe47d704ceb866e3717e2ac9422f.html#ae5acbe47d704ceb866e3717e2ac9422f" target="_top" xlink:title="Dimension of the pane. ">
<polygon fill="none" stroke="black" points="391.5,-49.5 391.5,-68.5 480.5,-68.5 480.5,-49.5 391.5,-49.5"/>
<text text-anchor="middle" x="436" y="-56.5" font-family="Helvetica,sans-Serif" font-size="10.00">Pane::dimension</text>
</a>
</g>
</g>
<!-- Node3&#45;&gt;Node4 -->
<g id="edge3" class="edge"><title>Node3&#45;&gt;Node4</title>
<path fill="none" stroke="midnightblue" d="M351.787,-46.7136C361.634,-48.1675 371.688,-49.6519 381.246,-51.0631"/>
<polygon fill="midnightblue" stroke="midnightblue" points="380.986,-54.5626 391.39,-52.5609 382.008,-47.6377 380.986,-54.5626"/>
</g>
<!-- Node5 -->
<g id="node5" class="node"><title>Node5</title>
<g id="a_node5"><a xlink:href="classConnectivity_a6b814939135364a0cd18ee54799897ee.html#a6b814939135364a0cd18ee54799897ee" target="_top" xlink:title="Get the number of nodes per element of the current connectivity table. ">
<polygon fill="none" stroke="black" points="388.5,-0 388.5,-30 483.5,-30 483.5,-0 388.5,-0"/>
<text text-anchor="start" x="396.5" y="-18" font-family="Helvetica,sans-Serif" font-size="10.00">Connectivity::size</text>
<text text-anchor="middle" x="436" y="-7" font-family="Helvetica,sans-Serif" font-size="10.00">_of_nodes_pe</text>
</a>
</g>
</g>
<!-- Node3&#45;&gt;Node5 -->
<g id="edge4" class="edge"><title>Node3&#45;&gt;Node5</title>
<path fill="none" stroke="midnightblue" d="M351.787,-27.2864C360.641,-25.9793 369.66,-24.6475 378.337,-23.3664"/>
<polygon fill="midnightblue" stroke="midnightblue" points="378.953,-26.8134 388.334,-21.8902 377.93,-19.8885 378.953,-26.8134"/>
</g>
</g>
</svg>
