<?xml version="1.0" encoding="UTF-8" standalone="no"?>
<!DOCTYPE svg PUBLIC "-//W3C//DTD SVG 1.1//EN"
 "http://www.w3.org/Graphics/SVG/1.1/DTD/svg11.dtd">
<!-- Generated by graphviz version 2.30.1 (20150305.2338)
 -->
<!-- Title: DumpSolution Pages: 1 -->
<!--zoomable 430 -->
<svg id="main" version="1.1" xmlns="http://www.w3.org/2000/svg" xmlns:xlink="http://www.w3.org/1999/xlink" xml:space="preserve" onload="init(evt)">
<style type="text/css"><![CDATA[
.edge:hover path { stroke: red; }
.edge:hover polygon { stroke: red; fill: red; }
]]></style>
<script type="text/javascript"><![CDATA[
var edges = document.getElementsByTagName('g');
if (edges && edges.length) {
  for (var i=0;i<edges.length;i++) {
    if (edges[i].id.substr(0,4)=='edge') {
      edges[i].setAttribute('class','edge');
    }
  }
}
]]></script>
        <defs>
                <circle id="rim" cx="0" cy="0" r="7"/>
                <circle id="rim2" cx="0" cy="0" r="3.5"/>
                <g id="zoomPlus">
                        <use xlink:href="#rim" fill="#404040">
                                <set attributeName="fill" to="#808080" begin="zoomplus.mouseover" end="zoomplus.mouseout"/>
                        </use>
                        <path d="M-4,0h8M0,-4v8" fill="none" stroke="white" stroke-width="1.5" pointer-events="none"/>
                </g>
                <g id="zoomMin">
                        <use xlink:href="#rim" fill="#404040">
                                <set attributeName="fill" to="#808080" begin="zoomminus.mouseover" end="zoomminus.mouseout"/>
                        </use>
                        <path d="M-4,0h8" fill="none" stroke="white" stroke-width="1.5" pointer-events="none"/>
                </g>
                <g id="dirArrow">
                        <path fill="none" stroke="white" stroke-width="1.5" d="M0,-3.0v7 M-2.5,-0.5L0,-3.0L2.5,-0.5"/>
                </g>
               <g id="resetDef">
                       <use xlink:href="#rim2" fill="#404040">
                               <set attributeName="fill" to="#808080" begin="reset.mouseover" end="reset.mouseout"/>
                       </use>
               </g>
        </defs>

<script type="text/javascript">
var viewWidth = 762;
var viewHeight = 430;
var sectionId = 'dynsection-0';
</script>
<script xlink:href="svgpan.js"/>
<svg id="graph" class="graph">
<g id="viewport">
<title>DumpSolution</title>
<!-- Node1 -->
<g id="node1" class="node"><title>Node1</title>
<polygon fill="#bfbfbf" stroke="black" points="0,-226.5 0,-245.5 78,-245.5 78,-226.5 0,-226.5"/>
<text text-anchor="middle" x="39" y="-233.5" font-family="Helvetica,sans-Serif" font-size="10.00">DumpSolution</text>
</g>
<!-- Node2 -->
<g id="node2" class="node"><title>Node2</title>
<g id="a_node2"><a xlink:href="classIRAD_1_1Global_1_1GlobalObj_a4604cffc6d9588606aa2a5866b026226.html#a4604cffc6d9588606aa2a5866b026226" target="_top" xlink:title="IRAD::Global::GlobalObj\l::StdOut">
<polygon fill="none" stroke="black" points="262,-240 262,-270 386,-270 386,-240 262,-240"/>
<text text-anchor="start" x="270" y="-258" font-family="Helvetica,sans-Serif" font-size="10.00">IRAD::Global::GlobalObj</text>
<text text-anchor="middle" x="324" y="-247" font-family="Helvetica,sans-Serif" font-size="10.00">::StdOut</text>
</a>
</g>
</g>
<!-- Node1&#45;&gt;Node2 -->
<g id="edge1" class="edge"><title>Node1&#45;&gt;Node2</title>
<path fill="none" stroke="midnightblue" d="M78.1666,-238.562C122.552,-241.542 196.763,-246.525 251.871,-250.225"/>
<polygon fill="midnightblue" stroke="midnightblue" points="251.715,-253.722 261.927,-250.9 252.184,-246.738 251.715,-253.722"/>
</g>
<!-- Node3 -->
<g id="node3" class="node"><title>Node3</title>
<g id="a_node3"><a xlink:href="classfsicoupling_a66a7e856c6cd0d50b9e7984c98dc459a.html#a66a7e856c6cd0d50b9e7984c98dc459a" target="_top" xlink:title="WriteAgentToVTK">
<polygon fill="none" stroke="black" points="114,-207.5 114,-226.5 210,-226.5 210,-207.5 114,-207.5"/>
<text text-anchor="middle" x="162" y="-214.5" font-family="Helvetica,sans-Serif" font-size="10.00">WriteAgentToVTK</text>
</a>
</g>
</g>
<!-- Node1&#45;&gt;Node3 -->
<g id="edge2" class="edge"><title>Node1&#45;&gt;Node3</title>
<path fill="none" stroke="midnightblue" d="M78.2852,-229.988C86.3469,-228.722 95.0198,-227.361 103.609,-226.012"/>
<polygon fill="midnightblue" stroke="midnightblue" points="104.276,-229.45 113.612,-224.441 103.19,-222.535 104.276,-229.45"/>
</g>
<!-- Node3&#45;&gt;Node2 -->
<g id="edge3" class="edge"><title>Node3&#45;&gt;Node2</title>
<path fill="none" stroke="midnightblue" d="M203.375,-226.589C218.156,-230.099 235.351,-234.183 252.018,-238.142"/>
<polygon fill="midnightblue" stroke="midnightblue" points="251.209,-241.547 261.747,-240.453 252.827,-234.736 251.209,-241.547"/>
</g>
<!-- Node4 -->
<g id="node4" class="node"><title>Node4</title>
<g id="a_node4"><a xlink:href="namespaceSolverUtils_a4b3e50cefefe85867c8de76b742654ff.html#a4b3e50cefefe85867c8de76b742654ff" target="_top" xlink:title="SolverUtils::WriteVTKToStream">
<polygon fill="none" stroke="black" points="246,-201.5 246,-220.5 402,-220.5 402,-201.5 246,-201.5"/>
<text text-anchor="middle" x="324" y="-208.5" font-family="Helvetica,sans-Serif" font-size="10.00">SolverUtils::WriteVTKToStream</text>
</a>
</g>
</g>
<!-- Node3&#45;&gt;Node4 -->
<g id="edge4" class="edge"><title>Node3&#45;&gt;Node4</title>
<path fill="none" stroke="midnightblue" d="M210.14,-215.232C218.311,-214.926 227.035,-214.599 235.877,-214.267"/>
<polygon fill="midnightblue" stroke="midnightblue" points="236.023,-217.764 245.885,-213.892 235.761,-210.769 236.023,-217.764"/>
</g>
<!-- Node5 -->
<g id="node5" class="node"><title>Node5</title>
<g id="a_node5"><a xlink:href="classSolverUtils_1_1FEM_1_1SolverAgent_aca958a697df836ac67f3244d08d9ee6c.html#aca958a697df836ac67f3244d08d9ee6c" target="_top" xlink:title="SolverUtils::FEM::Solver\lAgent::Solution">
<polygon fill="none" stroke="black" points="448.5,-392 448.5,-422 573.5,-422 573.5,-392 448.5,-392"/>
<text text-anchor="start" x="456.5" y="-410" font-family="Helvetica,sans-Serif" font-size="10.00">SolverUtils::FEM::Solver</text>
<text text-anchor="middle" x="511" y="-399" font-family="Helvetica,sans-Serif" font-size="10.00">Agent::Solution</text>
</a>
</g>
</g>
<!-- Node4&#45;&gt;Node5 -->
<g id="edge5" class="edge"><title>Node4&#45;&gt;Node5</title>
<path fill="none" stroke="midnightblue" d="M387.206,-220.501C392.68,-223.221 397.746,-226.66 402,-231 450.292,-280.272 391.718,-330.834 438,-382 439.19,-383.316 440.453,-384.562 441.778,-385.743"/>
<polygon fill="midnightblue" stroke="midnightblue" points="439.848,-388.669 449.966,-391.813 444.017,-383.046 439.848,-388.669"/>
</g>
<!-- Node6 -->
<g id="node6" class="node"><title>Node6</title>
<g id="a_node6"><a xlink:href="classSolverUtils_1_1FEM_1_1SolverAgent_a79921d24f767ba9aeb14b5e32db13b4c.html#a79921d24f767ba9aeb14b5e32db13b4c" target="_top" xlink:title="SolverUtils::FEM::Solver\lAgent::Mesh">
<polygon fill="none" stroke="black" points="448.5,-343 448.5,-373 573.5,-373 573.5,-343 448.5,-343"/>
<text text-anchor="start" x="456.5" y="-361" font-family="Helvetica,sans-Serif" font-size="10.00">SolverUtils::FEM::Solver</text>
<text text-anchor="middle" x="511" y="-350" font-family="Helvetica,sans-Serif" font-size="10.00">Agent::Mesh</text>
</a>
</g>
</g>
<!-- Node4&#45;&gt;Node6 -->
<g id="edge6" class="edge"><title>Node4&#45;&gt;Node6</title>
<path fill="none" stroke="midnightblue" d="M385.988,-220.62C391.836,-223.304 397.32,-226.703 402,-231 437.41,-263.516 403.92,-299.093 438,-333 439.442,-334.435 440.971,-335.788 442.57,-337.063"/>
<polygon fill="midnightblue" stroke="midnightblue" points="440.841,-340.118 451.087,-342.815 444.759,-334.317 440.841,-340.118"/>
</g>
<!-- Node7 -->
<g id="node7" class="node"><title>Node7</title>
<g id="a_node7"><a xlink:href="namespaceSolverUtils_1_1Mesh_ad4367ce798da66717edb420d3b26323e.html#ad4367ce798da66717edb420d3b26323e" target="_top" xlink:title="SolverUtils::Mesh::\lWriteVTKToStream">
<polygon fill="none" stroke="black" points="460,-294 460,-324 562,-324 562,-294 460,-294"/>
<text text-anchor="start" x="468" y="-312" font-family="Helvetica,sans-Serif" font-size="10.00">SolverUtils::Mesh::</text>
<text text-anchor="middle" x="511" y="-301" font-family="Helvetica,sans-Serif" font-size="10.00">WriteVTKToStream</text>
</a>
</g>
</g>
<!-- Node4&#45;&gt;Node7 -->
<g id="edge7" class="edge"><title>Node4&#45;&gt;Node7</title>
<path fill="none" stroke="midnightblue" d="M381.383,-220.532C388.697,-223.203 395.792,-226.623 402,-231 425.272,-247.409 415.403,-266.673 438,-284 441.865,-286.964 446.108,-289.593 450.539,-291.921"/>
<polygon fill="midnightblue" stroke="midnightblue" points="449.301,-295.206 459.84,-296.289 452.277,-288.87 449.301,-295.206"/>
</g>
<!-- Node8 -->
<g id="node8" class="node"><title>Node8</title>
<g id="a_node8"><a xlink:href="classSolverUtils_1_1FEM_1_1SolutionData_addf180ac6b7ba13756908f2f6218230c.html#addf180ac6b7ba13756908f2f6218230c" target="_top" xlink:title="SolverUtils::FEM::Solution\lData::Data">
<polygon fill="none" stroke="black" points="444.5,-245 444.5,-275 577.5,-275 577.5,-245 444.5,-245"/>
<text text-anchor="start" x="452.5" y="-263" font-family="Helvetica,sans-Serif" font-size="10.00">SolverUtils::FEM::Solution</text>
<text text-anchor="middle" x="511" y="-252" font-family="Helvetica,sans-Serif" font-size="10.00">Data::Data</text>
</a>
</g>
</g>
<!-- Node4&#45;&gt;Node8 -->
<g id="edge8" class="edge"><title>Node4&#45;&gt;Node8</title>
<path fill="none" stroke="midnightblue" d="M361.832,-220.501C374.562,-223.802 388.913,-227.544 402,-231 415.669,-234.61 430.302,-238.514 444.242,-242.251"/>
<polygon fill="midnightblue" stroke="midnightblue" points="443.682,-245.724 454.248,-244.936 445.497,-238.963 443.682,-245.724"/>
</g>
<!-- Node9 -->
<g id="node9" class="node"><title>Node9</title>
<g id="a_node9"><a xlink:href="classSolverUtils_1_1FEM_1_1SolutionData_a62680bd659e55d37f379eb09498faf92.html#a62680bd659e55d37f379eb09498faf92" target="_top" xlink:title="SolverUtils::FEM::Solution\lData::Meta">
<polygon fill="none" stroke="black" points="444.5,-196 444.5,-226 577.5,-226 577.5,-196 444.5,-196"/>
<text text-anchor="start" x="452.5" y="-214" font-family="Helvetica,sans-Serif" font-size="10.00">SolverUtils::FEM::Solution</text>
<text text-anchor="middle" x="511" y="-203" font-family="Helvetica,sans-Serif" font-size="10.00">Data::Meta</text>
</a>
</g>
</g>
<!-- Node4&#45;&gt;Node9 -->
<g id="edge9" class="edge"><title>Node4&#45;&gt;Node9</title>
<path fill="none" stroke="midnightblue" d="M402.117,-211C412.786,-211 423.736,-211 434.377,-211"/>
<polygon fill="midnightblue" stroke="midnightblue" points="434.466,-214.5 444.466,-211 434.466,-207.5 434.466,-214.5"/>
</g>
<!-- Node10 -->
<g id="node10" class="node"><title>Node10</title>
<g id="a_node10"><a xlink:href="classSolverUtils_1_1Mesh_1_1NodalCoordinates_a6c40ee25a17756bd699b25f38bbf3001.html#a6c40ee25a17756bd699b25f38bbf3001" target="_top" xlink:title="SolverUtils::Mesh::\lNodalCoordinates::NNodes">
<polygon fill="none" stroke="black" points="442.5,-147 442.5,-177 579.5,-177 579.5,-147 442.5,-147"/>
<text text-anchor="start" x="450.5" y="-165" font-family="Helvetica,sans-Serif" font-size="10.00">SolverUtils::Mesh::</text>
<text text-anchor="middle" x="511" y="-154" font-family="Helvetica,sans-Serif" font-size="10.00">NodalCoordinates::NNodes</text>
</a>
</g>
</g>
<!-- Node4&#45;&gt;Node10 -->
<g id="edge10" class="edge"><title>Node4&#45;&gt;Node10</title>
<path fill="none" stroke="midnightblue" d="M361.109,-201.436C384.531,-195.232 415.752,-186.963 443.555,-179.599"/>
<polygon fill="midnightblue" stroke="midnightblue" points="444.457,-182.981 453.228,-177.037 442.665,-176.214 444.457,-182.981"/>
</g>
<!-- Node11 -->
<g id="node11" class="node"><title>Node11</title>
<g id="a_node11"><a xlink:href="classSolverUtils_1_1Mesh_1_1Connectivity_a3efad0e23e75de241cfe6c5193f1daa7.html#a3efad0e23e75de241cfe6c5193f1daa7" target="_top" xlink:title="SolverUtils::Mesh::\lConnectivity::Nelem">
<polygon fill="none" stroke="black" points="458,-98 458,-128 564,-128 564,-98 458,-98"/>
<text text-anchor="start" x="466" y="-116" font-family="Helvetica,sans-Serif" font-size="10.00">SolverUtils::Mesh::</text>
<text text-anchor="middle" x="511" y="-105" font-family="Helvetica,sans-Serif" font-size="10.00">Connectivity::Nelem</text>
</a>
</g>
</g>
<!-- Node4&#45;&gt;Node11 -->
<g id="edge11" class="edge"><title>Node4&#45;&gt;Node11</title>
<path fill="none" stroke="midnightblue" d="M337.622,-201.396C357.898,-186.311 399.377,-156.843 438,-138 442.378,-135.864 446.985,-133.826 451.666,-131.901"/>
<polygon fill="midnightblue" stroke="midnightblue" points="453.294,-135.022 461.327,-128.114 450.739,-128.505 453.294,-135.022"/>
</g>
<!-- Node12 -->
<g id="node12" class="node"><title>Node12</title>
<g id="a_node12"><a xlink:href="classSolverUtils_1_1FEM_1_1SolutionData_a967ed966dc1c49c1cea8eee1474604b1.html#a967ed966dc1c49c1cea8eee1474604b1" target="_top" xlink:title="SolverUtils::FEM::Solution\lData::GetFieldData">
<polygon fill="none" stroke="black" points="444.5,-49 444.5,-79 577.5,-79 577.5,-49 444.5,-49"/>
<text text-anchor="start" x="452.5" y="-67" font-family="Helvetica,sans-Serif" font-size="10.00">SolverUtils::FEM::Solution</text>
<text text-anchor="middle" x="511" y="-56" font-family="Helvetica,sans-Serif" font-size="10.00">Data::GetFieldData</text>
</a>
</g>
</g>
<!-- Node4&#45;&gt;Node12 -->
<g id="edge12" class="edge"><title>Node4&#45;&gt;Node12</title>
<path fill="none" stroke="midnightblue" d="M331.447,-201.264C347.05,-178.421 389.186,-120.908 438,-89 440.97,-87.0588 444.107,-85.2501 447.345,-83.5672"/>
<polygon fill="midnightblue" stroke="midnightblue" points="449.134,-86.5927 456.677,-79.1528 446.141,-80.2649 449.134,-86.5927"/>
</g>
<!-- Node14 -->
<g id="node14" class="node"><title>Node14</title>
<g id="a_node14"><a xlink:href="classSolverUtils_1_1FEM_1_1DataBuffer_a7c0db56cdbb7cc997b82b99ba2682ff6.html#a7c0db56cdbb7cc997b82b99ba2682ff6" target="_top" xlink:title="SolverUtils::FEM::DataBuffer\l::Data">
<polygon fill="none" stroke="black" points="438.5,-0 438.5,-30 583.5,-30 583.5,-0 438.5,-0"/>
<text text-anchor="start" x="446.5" y="-18" font-family="Helvetica,sans-Serif" font-size="10.00">SolverUtils::FEM::DataBuffer</text>
<text text-anchor="middle" x="511" y="-7" font-family="Helvetica,sans-Serif" font-size="10.00">::Data</text>
</a>
</g>
</g>
<!-- Node4&#45;&gt;Node14 -->
<g id="edge14" class="edge"><title>Node4&#45;&gt;Node14</title>
<path fill="none" stroke="midnightblue" d="M328.708,-201.185C340.227,-172.004 378.243,-84.9616 438,-39 439.824,-37.5967 441.735,-36.2732 443.712,-35.0251"/>
<polygon fill="midnightblue" stroke="midnightblue" points="445.689,-37.9311 452.739,-30.0223 442.296,-31.8085 445.689,-37.9311"/>
</g>
<!-- Node13 -->
<g id="node13" class="node"><title>Node13</title>
<g id="a_node13"><a xlink:href="classSolverUtils_1_1FEM_1_1SolutionData_a2b73f52413287c249bd669e3fb1bfc52.html#a2b73f52413287c249bd669e3fb1bfc52" target="_top" xlink:title="SolverUtils::FEM::Solution\lData::GetDataIndex">
<polygon fill="none" stroke="black" points="620.5,-49 620.5,-79 753.5,-79 753.5,-49 620.5,-49"/>
<text text-anchor="start" x="628.5" y="-67" font-family="Helvetica,sans-Serif" font-size="10.00">SolverUtils::FEM::Solution</text>
<text text-anchor="middle" x="687" y="-56" font-family="Helvetica,sans-Serif" font-size="10.00">Data::GetDataIndex</text>
</a>
</g>
</g>
<!-- Node12&#45;&gt;Node13 -->
<g id="edge13" class="edge"><title>Node12&#45;&gt;Node13</title>
<path fill="none" stroke="midnightblue" d="M577.782,-64C588.357,-64 599.377,-64 610.165,-64"/>
<polygon fill="midnightblue" stroke="midnightblue" points="610.414,-67.5001 620.414,-64 610.414,-60.5001 610.414,-67.5001"/>
</g>
</g>
</svg>
        <g id="navigator" transform="translate(0 0)" fill="#404254">
                <rect fill="#f2f5e9" fill-opacity="0.5" stroke="#606060" stroke-width=".5" x="0" y="0" width="60" height="60"/>
                <use id="zoomplus" xlink:href="#zoomPlus" x="17" y="9" onmousedown="handleZoom(evt,'in')"/>
                <use id="zoomminus" xlink:href="#zoomMin" x="42" y="9" onmousedown="handleZoom(evt,'out')"/>
                <use id="reset" xlink:href="#resetDef" x="30" y="36" onmousedown="handleReset()"/>
                <g id="arrowUp" xlink:href="#dirArrow" transform="translate(30 24)" onmousedown="handlePan(0,-1)">
                  <use xlink:href="#rim" fill="#404040">
                        <set attributeName="fill" to="#808080" begin="arrowUp.mouseover" end="arrowUp.mouseout"/>
                  </use>
                  <path fill="none" stroke="white" stroke-width="1.5" d="M0,-3.0v7 M-2.5,-0.5L0,-3.0L2.5,-0.5"/>
                </g>
                <g id="arrowRight" xlink:href="#dirArrow" transform="rotate(90) translate(36 -43)" onmousedown="handlePan(1,0)">
                  <use xlink:href="#rim" fill="#404040">
                        <set attributeName="fill" to="#808080" begin="arrowRight.mouseover" end="arrowRight.mouseout"/>
                  </use>
                  <path fill="none" stroke="white" stroke-width="1.5" d="M0,-3.0v7 M-2.5,-0.5L0,-3.0L2.5,-0.5"/>
                </g>
                <g id="arrowDown" xlink:href="#dirArrow" transform="rotate(180) translate(-30 -48)" onmousedown="handlePan(0,1)">
                  <use xlink:href="#rim" fill="#404040">
                        <set attributeName="fill" to="#808080" begin="arrowDown.mouseover" end="arrowDown.mouseout"/>
                  </use>
                  <path fill="none" stroke="white" stroke-width="1.5" d="M0,-3.0v7 M-2.5,-0.5L0,-3.0L2.5,-0.5"/>
                </g>
                <g id="arrowLeft" xlink:href="#dirArrow" transform="rotate(270) translate(-36 17)" onmousedown="handlePan(-1,0)">
                  <use xlink:href="#rim" fill="#404040">
                        <set attributeName="fill" to="#808080" begin="arrowLeft.mouseover" end="arrowLeft.mouseout"/>
                  </use>
                  <path fill="none" stroke="white" stroke-width="1.5" d="M0,-3.0v7 M-2.5,-0.5L0,-3.0L2.5,-0.5"/>
                </g>
        </g>
        <svg viewBox="0 0 15 15" width="100%" height="30px" preserveAspectRatio="xMaxYMin meet">
         <g id="arrow_out" transform="scale(0.3 0.3)">
          <a xlink:href="classfsicoupling_aad3062aacf7bb38e937f92b51f0b2f30_aad3062aacf7bb38e937f92b51f0b2f30_cgraph_org.svg" target="_base">
           <rect id="button" ry="5" rx="5" y="6" x="6" height="38" width="38"
                fill="#f2f5e9" fill-opacity="0.5" stroke="#606060" stroke-width="1.0"/>
           <path id="arrow"
             d="M 11.500037,31.436501 C 11.940474,20.09759 22.043105,11.32322 32.158766,21.979434 L 37.068811,17.246167 C 37.068811,17.246167 37.088388,32 37.088388,32 L 22.160133,31.978069 C 22.160133,31.978069 26.997745,27.140456 26.997745,27.140456 C 18.528582,18.264221 13.291696,25.230495 11.500037,31.436501 z"
             style="fill:#404040;"/>
          </a>
         </g>
        </svg>
</svg>
