<?xml version="1.0" encoding="UTF-8" standalone="no"?>
<!DOCTYPE svg PUBLIC "-//W3C//DTD SVG 1.1//EN"
 "http://www.w3.org/Graphics/SVG/1.1/DTD/svg11.dtd">
<!-- Generated by graphviz version 2.30.1 (20150305.2338)
 -->
<!-- Title: Test__ModuleMeshRegistration Pages: 1 -->
<svg width="684pt" height="628pt"
 viewBox="0.00 0.00 684.00 628.00" xmlns="http://www.w3.org/2000/svg" xmlns:xlink="http://www.w3.org/1999/xlink">
<g id="graph0" class="graph" transform="scale(1 1) rotate(0) translate(4 624)">
<title>Test__ModuleMeshRegistration</title>
<!-- Node1 -->
<g id="node1" class="node"><title>Node1</title>
<polygon fill="#bfbfbf" stroke="black" points="0.5,-238.5 0.5,-257.5 155.5,-257.5 155.5,-238.5 0.5,-238.5"/>
<text text-anchor="middle" x="78" y="-245.5" font-family="Helvetica,sans-Serif" font-size="10.00">Test__ModuleMeshRegistration</text>
</g>
<!-- Node2 -->
<g id="node2" class="node"><title>Node2</title>
<g id="a_node2"><a xlink:href="namespaceIRAD_1_1Sys_afe7cbdace3dec046da8a36d08578610d.html#afe7cbdace3dec046da8a36d08578610d" target="_top" xlink:title="IRAD::Sys::ChDir">
<polygon fill="none" stroke="black" points="382,-600.5 382,-619.5 478,-619.5 478,-600.5 382,-600.5"/>
<text text-anchor="middle" x="430" y="-607.5" font-family="Helvetica,sans-Serif" font-size="10.00">IRAD::Sys::ChDir</text>
</a>
</g>
</g>
<!-- Node1&#45;&gt;Node2 -->
<g id="edge1" class="edge"><title>Node1&#45;&gt;Node2</title>
<path fill="none" stroke="midnightblue" d="M79.9603,-257.694C84.4347,-297.682 106.778,-451.533 192,-533 240.962,-579.804 318.679,-598.159 371.667,-605.357"/>
<polygon fill="midnightblue" stroke="midnightblue" points="371.559,-608.872 381.919,-606.653 372.437,-601.927 371.559,-608.872"/>
</g>
<!-- Node3 -->
<g id="node3" class="node"><title>Node3</title>
<g id="a_node3"><a xlink:href="com__c_09_09_8hpp_a6f9e4ea8f2cb977968964f4cb5a4b4f6.html#a6f9e4ea8f2cb977968964f4cb5a4b4f6" target="_top" xlink:title="COM_call_function">
<polygon fill="none" stroke="black" points="208,-333.5 208,-352.5 308,-352.5 308,-333.5 208,-333.5"/>
<text text-anchor="middle" x="258" y="-340.5" font-family="Helvetica,sans-Serif" font-size="10.00">COM_call_function</text>
</a>
</g>
</g>
<!-- Node1&#45;&gt;Node3 -->
<g id="edge2" class="edge"><title>Node1&#45;&gt;Node3</title>
<path fill="none" stroke="midnightblue" d="M90.7943,-257.754C110.572,-273.675 152.181,-305.34 192,-324 196.924,-326.307 202.19,-328.401 207.514,-330.283"/>
<polygon fill="midnightblue" stroke="midnightblue" points="206.506,-333.636 217.099,-333.443 208.698,-326.988 206.506,-333.636"/>
</g>
<!-- Node4 -->
<g id="node4" class="node"><title>Node4</title>
<g id="a_node4"><a xlink:href="com__c_09_09_8hpp_ab5a8ac8121d23b45ad8c8354970a2130.html#ab5a8ac8121d23b45ad8c8354970a2130" target="_top" xlink:title="COM_free_buffer">
<polygon fill="none" stroke="black" points="212,-257.5 212,-276.5 304,-276.5 304,-257.5 212,-257.5"/>
<text text-anchor="middle" x="258" y="-264.5" font-family="Helvetica,sans-Serif" font-size="10.00">COM_free_buffer</text>
</a>
</g>
</g>
<!-- Node1&#45;&gt;Node4 -->
<g id="edge3" class="edge"><title>Node1&#45;&gt;Node4</title>
<path fill="none" stroke="midnightblue" d="M155.521,-256.168C170.989,-257.819 186.97,-259.525 201.545,-261.081"/>
<polygon fill="midnightblue" stroke="midnightblue" points="201.567,-264.603 211.882,-262.184 202.31,-257.642 201.567,-264.603"/>
</g>
<!-- Node8 -->
<g id="node8" class="node"><title>Node8</title>
<g id="a_node8"><a xlink:href="com__c_8h_a6dd240c15a2b3e85d2d91cbe9eec6611.html#a6dd240c15a2b3e85d2d91cbe9eec6611" target="_top" xlink:title="Get the address for an dataitem on a specific pane. ">
<polygon fill="none" stroke="black" points="215,-29.5 215,-48.5 301,-48.5 301,-29.5 215,-29.5"/>
<text text-anchor="middle" x="258" y="-36.5" font-family="Helvetica,sans-Serif" font-size="10.00">COM_get_array</text>
</a>
</g>
</g>
<!-- Node1&#45;&gt;Node8 -->
<g id="edge7" class="edge"><title>Node1&#45;&gt;Node8</title>
<path fill="none" stroke="midnightblue" d="M81.8846,-238.398C91.7356,-207.279 127.083,-108.312 192,-58 196.077,-54.8401 200.666,-52.2052 205.472,-50.0082"/>
<polygon fill="midnightblue" stroke="midnightblue" points="206.876,-53.2168 214.902,-46.3001 204.315,-46.7023 206.876,-53.2168"/>
</g>
<!-- Node9 -->
<g id="node9" class="node"><title>Node9</title>
<g id="a_node9"><a xlink:href="com__c_09_09_8hpp_a390dfbadbcb267ac867fabbcd586683b.html#a390dfbadbcb267ac867fabbcd586683b" target="_top" xlink:title="COM_get_connectivities">
<polygon fill="none" stroke="black" points="196,-295.5 196,-314.5 320,-314.5 320,-295.5 196,-295.5"/>
<text text-anchor="middle" x="258" y="-302.5" font-family="Helvetica,sans-Serif" font-size="10.00">COM_get_connectivities</text>
</a>
</g>
</g>
<!-- Node1&#45;&gt;Node9 -->
<g id="edge8" class="edge"><title>Node1&#45;&gt;Node9</title>
<path fill="none" stroke="midnightblue" d="M106.301,-257.522C129.125,-265.4 162.578,-276.757 192,-286 199.017,-288.205 206.487,-290.466 213.768,-292.626"/>
<polygon fill="midnightblue" stroke="midnightblue" points="212.94,-296.03 223.521,-295.492 214.914,-289.314 212.94,-296.03"/>
</g>
<!-- Node11 -->
<g id="node11" class="node"><title>Node11</title>
<g id="a_node11"><a xlink:href="com__c_09_09_8hpp_a16b2a9aeed9d53bd2d11d4221ef2c148.html#a16b2a9aeed9d53bd2d11d4221ef2c148" target="_top" xlink:title="COM_get_dataitem">
<polygon fill="none" stroke="black" points="207.5,-219.5 207.5,-238.5 308.5,-238.5 308.5,-219.5 207.5,-219.5"/>
<text text-anchor="middle" x="258" y="-226.5" font-family="Helvetica,sans-Serif" font-size="10.00">COM_get_dataitem</text>
</a>
</g>
</g>
<!-- Node1&#45;&gt;Node11 -->
<g id="edge11" class="edge"><title>Node1&#45;&gt;Node11</title>
<path fill="none" stroke="midnightblue" d="M155.521,-239.832C169.487,-238.341 183.872,-236.806 197.262,-235.377"/>
<polygon fill="midnightblue" stroke="midnightblue" points="197.712,-238.848 207.284,-234.307 196.969,-231.888 197.712,-238.848"/>
</g>
<!-- Node13 -->
<g id="node13" class="node"><title>Node13</title>
<g id="a_node13"><a xlink:href="com__c_09_09_8hpp_a48824b0cc48b3d1310e84d87c7af9c80.html#a48824b0cc48b3d1310e84d87c7af9c80" target="_top" xlink:title="COM_get_dataitems">
<polygon fill="none" stroke="black" points="204.5,-181.5 204.5,-200.5 311.5,-200.5 311.5,-181.5 204.5,-181.5"/>
<text text-anchor="middle" x="258" y="-188.5" font-family="Helvetica,sans-Serif" font-size="10.00">COM_get_dataitems</text>
</a>
</g>
</g>
<!-- Node1&#45;&gt;Node13 -->
<g id="edge14" class="edge"><title>Node1&#45;&gt;Node13</title>
<path fill="none" stroke="midnightblue" d="M106.301,-238.478C129.125,-230.6 162.578,-219.243 192,-210 199.017,-207.795 206.487,-205.534 213.768,-203.374"/>
<polygon fill="midnightblue" stroke="midnightblue" points="214.914,-206.686 223.521,-200.508 212.94,-199.97 214.914,-206.686"/>
</g>
<!-- Node15 -->
<g id="node15" class="node"><title>Node15</title>
<g id="a_node15"><a xlink:href="com__c_09_09_8hpp_acbbf9749cce36d33b4c60c100bdfaea2.html#acbbf9749cce36d33b4c60c100bdfaea2" target="_top" xlink:title="COM_get_function_handle">
<polygon fill="none" stroke="black" points="192,-143.5 192,-162.5 324,-162.5 324,-143.5 192,-143.5"/>
<text text-anchor="middle" x="258" y="-150.5" font-family="Helvetica,sans-Serif" font-size="10.00">COM_get_function_handle</text>
</a>
</g>
</g>
<!-- Node1&#45;&gt;Node15 -->
<g id="edge17" class="edge"><title>Node1&#45;&gt;Node15</title>
<path fill="none" stroke="midnightblue" d="M90.7943,-238.246C110.572,-222.325 152.181,-190.66 192,-172 196.924,-169.693 202.19,-167.599 207.514,-165.717"/>
<polygon fill="midnightblue" stroke="midnightblue" points="208.698,-169.012 217.099,-162.557 206.506,-162.364 208.698,-169.012"/>
</g>
<!-- Node17 -->
<g id="node17" class="node"><title>Node17</title>
<g id="a_node17"><a xlink:href="com__c_09_09_8hpp_a6e38c0b1f83c30b166b7500902e13be1.html#a6e38c0b1f83c30b166b7500902e13be1" target="_top" xlink:title="COM_get_panes">
<polygon fill="none" stroke="black" points="213,-105.5 213,-124.5 303,-124.5 303,-105.5 213,-105.5"/>
<text text-anchor="middle" x="258" y="-112.5" font-family="Helvetica,sans-Serif" font-size="10.00">COM_get_panes</text>
</a>
</g>
</g>
<!-- Node1&#45;&gt;Node17 -->
<g id="edge20" class="edge"><title>Node1&#45;&gt;Node17</title>
<path fill="none" stroke="midnightblue" d="M85.7421,-238.443C101.66,-216.592 143.874,-162.659 192,-134 195.637,-131.834 199.536,-129.902 203.552,-128.181"/>
<polygon fill="midnightblue" stroke="midnightblue" points="204.981,-131.381 213.066,-124.535 202.476,-124.845 204.981,-131.381"/>
</g>
<!-- Node19 -->
<g id="node19" class="node"><title>Node19</title>
<g id="a_node19"><a xlink:href="com__c_09_09_8hpp_a74e2d52abbc3b6532fc19b38deabba26.html#a74e2d52abbc3b6532fc19b38deabba26" target="_top" xlink:title="Get the sizes of an dataitem. ">
<polygon fill="none" stroke="black" points="217,-67.5 217,-86.5 299,-86.5 299,-67.5 217,-67.5"/>
<text text-anchor="middle" x="258" y="-74.5" font-family="Helvetica,sans-Serif" font-size="10.00">COM_get_size</text>
</a>
</g>
</g>
<!-- Node1&#45;&gt;Node19 -->
<g id="edge23" class="edge"><title>Node1&#45;&gt;Node19</title>
<path fill="none" stroke="midnightblue" d="M83.3238,-238.48C95.9703,-211.725 135.59,-135.254 192,-96 196.584,-92.8102 201.705,-90.1499 207.005,-87.9326"/>
<polygon fill="midnightblue" stroke="midnightblue" points="208.473,-91.1225 216.663,-84.401 206.069,-84.5483 208.473,-91.1225"/>
</g>
<!-- Node21 -->
<g id="node21" class="node"><title>Node21</title>
<g id="a_node21"><a xlink:href="namespaceIRAD_1_1Sys_afae3306c1aef8273c2fd074f4f5c4fe6.html#afae3306c1aef8273c2fd074f4f5c4fe6" target="_top" xlink:title="IRAD::Sys::CWD">
<polygon fill="none" stroke="black" points="382.5,-562.5 382.5,-581.5 477.5,-581.5 477.5,-562.5 382.5,-562.5"/>
<text text-anchor="middle" x="430" y="-569.5" font-family="Helvetica,sans-Serif" font-size="10.00">IRAD::Sys::CWD</text>
</a>
</g>
</g>
<!-- Node1&#45;&gt;Node21 -->
<g id="edge26" class="edge"><title>Node1&#45;&gt;Node21</title>
<path fill="none" stroke="midnightblue" d="M80.9233,-257.666C88.468,-293.158 119.279,-417.776 192,-486 242.082,-532.985 319.792,-554.681 372.456,-564.437"/>
<polygon fill="midnightblue" stroke="midnightblue" points="371.856,-567.886 382.312,-566.179 373.074,-560.992 371.856,-567.886"/>
</g>
<!-- Node22 -->
<g id="node22" class="node"><title>Node22</title>
<g id="a_node22"><a xlink:href="classOpenFoamModuleDriver_1_1TestingObject_a90d21e92a2797915cd73e0cf48731a5c.html#a90d21e92a2797915cd73e0cf48731a5c" target="_top" xlink:title="Function to copy input data from source testing directory for use in unit tests. ">
<polygon fill="none" stroke="black" points="220.5,-457.5 220.5,-476.5 295.5,-476.5 295.5,-457.5 220.5,-457.5"/>
<text text-anchor="middle" x="258" y="-464.5" font-family="Helvetica,sans-Serif" font-size="10.00">GetInputData</text>
</a>
</g>
</g>
<!-- Node1&#45;&gt;Node22 -->
<g id="edge27" class="edge"><title>Node1&#45;&gt;Node22</title>
<path fill="none" stroke="midnightblue" d="M86.8781,-257.693C114.506,-291.684 207.242,-405.781 242.882,-449.631"/>
<polygon fill="midnightblue" stroke="midnightblue" points="240.19,-451.867 249.213,-457.419 245.622,-447.452 240.19,-451.867"/>
</g>
<!-- Node5 -->
<g id="node5" class="node"><title>Node5</title>
<g id="a_node5"><a xlink:href="COM__base_8hpp_a49353596e53127db61529b5c9000549d.html#a49353596e53127db61529b5c9000549d" target="_top" xlink:title="COM_get_com">
<polygon fill="none" stroke="black" points="388.5,-137.5 388.5,-156.5 471.5,-156.5 471.5,-137.5 388.5,-137.5"/>
<text text-anchor="middle" x="430" y="-144.5" font-family="Helvetica,sans-Serif" font-size="10.00">COM_get_com</text>
</a>
</g>
</g>
<!-- Node4&#45;&gt;Node5 -->
<g id="edge4" class="edge"><title>Node4&#45;&gt;Node5</title>
<path fill="none" stroke="midnightblue" d="M304.304,-259.348C311.458,-256.636 318.347,-252.966 324,-248 353.904,-221.733 329.891,-192.032 360,-166 365.493,-161.251 372.073,-157.68 378.958,-154.997"/>
<polygon fill="midnightblue" stroke="midnightblue" points="380.063,-158.318 388.463,-151.861 377.87,-151.671 380.063,-158.318"/>
</g>
<!-- Node7 -->
<g id="node7" class="node"><title>Node7</title>
<g id="a_node7"><a xlink:href="classCOM_1_1COM__base_a28b02917e8bbf63e7b740345918f4071.html#a28b02917e8bbf63e7b740345918f4071" target="_top" xlink:title="COM::COM_base::free\l_buffer">
<polygon fill="none" stroke="black" points="371,-274 371,-304 489,-304 489,-274 371,-274"/>
<text text-anchor="start" x="379" y="-292" font-family="Helvetica,sans-Serif" font-size="10.00">COM::COM_base::free</text>
<text text-anchor="middle" x="430" y="-281" font-family="Helvetica,sans-Serif" font-size="10.00">_buffer</text>
</a>
</g>
</g>
<!-- Node4&#45;&gt;Node7 -->
<g id="edge6" class="edge"><title>Node4&#45;&gt;Node7</title>
<path fill="none" stroke="midnightblue" d="M304.111,-272.838C321.454,-275.082 341.662,-277.697 360.706,-280.162"/>
<polygon fill="midnightblue" stroke="midnightblue" points="360.471,-283.661 370.837,-281.473 361.369,-276.719 360.471,-283.661"/>
</g>
<!-- Node6 -->
<g id="node6" class="node"><title>Node6</title>
<g id="a_node6"><a xlink:href="classCOM_1_1COM__base_a77bb770b9ec1aac99361c45efbccabc1.html#a77bb770b9ec1aac99361c45efbccabc1" target="_top" xlink:title="Get a pointer to the COM object. ">
<polygon fill="none" stroke="black" points="536.5,-137.5 536.5,-156.5 675.5,-156.5 675.5,-137.5 536.5,-137.5"/>
<text text-anchor="middle" x="606" y="-144.5" font-family="Helvetica,sans-Serif" font-size="10.00">COM::COM_base::get_com</text>
</a>
</g>
</g>
<!-- Node5&#45;&gt;Node6 -->
<g id="edge5" class="edge"><title>Node5&#45;&gt;Node6</title>
<path fill="none" stroke="midnightblue" d="M471.795,-147C488.058,-147 507.355,-147 526.141,-147"/>
<polygon fill="midnightblue" stroke="midnightblue" points="526.2,-150.5 536.2,-147 526.2,-143.5 526.2,-150.5"/>
</g>
<!-- Node9&#45;&gt;Node5 -->
<g id="edge9" class="edge"><title>Node9&#45;&gt;Node5</title>
<path fill="none" stroke="midnightblue" d="M310.391,-295.471C315.407,-292.998 320.079,-289.893 324,-286 363.512,-246.767 320.182,-204.922 360,-166 365.253,-160.865 371.761,-157.088 378.662,-154.316"/>
<polygon fill="midnightblue" stroke="midnightblue" points="379.857,-157.608 388.238,-151.126 377.644,-150.967 379.857,-157.608"/>
</g>
<!-- Node10 -->
<g id="node10" class="node"><title>Node10</title>
<g id="a_node10"><a xlink:href="classCOM_1_1COM__base_a21440170f046287a32a2ca776c9fd16c.html#a21440170f046287a32a2ca776c9fd16c" target="_top" xlink:title="Obtain the connectivity tables of a pane of the given window. ">
<polygon fill="none" stroke="black" points="372.5,-323 372.5,-353 487.5,-353 487.5,-323 372.5,-323"/>
<text text-anchor="start" x="380.5" y="-341" font-family="Helvetica,sans-Serif" font-size="10.00">COM::COM_base::get</text>
<text text-anchor="middle" x="430" y="-330" font-family="Helvetica,sans-Serif" font-size="10.00">_connectivities</text>
</a>
</g>
</g>
<!-- Node9&#45;&gt;Node10 -->
<g id="edge10" class="edge"><title>Node9&#45;&gt;Node10</title>
<path fill="none" stroke="midnightblue" d="M308.171,-314.545C325.133,-317.838 344.424,-321.582 362.535,-325.098"/>
<polygon fill="midnightblue" stroke="midnightblue" points="361.97,-328.553 372.453,-327.023 363.304,-321.682 361.97,-328.553"/>
</g>
<!-- Node11&#45;&gt;Node5 -->
<g id="edge12" class="edge"><title>Node11&#45;&gt;Node5</title>
<path fill="none" stroke="midnightblue" d="M304.618,-219.489C311.422,-217.006 318.118,-213.894 324,-210 345.069,-196.053 338.822,-179.781 360,-166 365.668,-162.312 372.044,-159.333 378.571,-156.929"/>
<polygon fill="midnightblue" stroke="midnightblue" points="379.752,-160.225 388.178,-153.802 377.586,-153.569 379.752,-160.225"/>
</g>
<!-- Node12 -->
<g id="node12" class="node"><title>Node12</title>
<g id="a_node12"><a xlink:href="classCOM_1_1COM__base_a74a5100529115d055808ef9aa5c369ba.html#a74a5100529115d055808ef9aa5c369ba" target="_top" xlink:title="Information retrieval Get the information about an dataitem. ">
<polygon fill="none" stroke="black" points="372.5,-225 372.5,-255 487.5,-255 487.5,-225 372.5,-225"/>
<text text-anchor="start" x="380.5" y="-243" font-family="Helvetica,sans-Serif" font-size="10.00">COM::COM_base::get</text>
<text text-anchor="middle" x="430" y="-232" font-family="Helvetica,sans-Serif" font-size="10.00">_dataitem</text>
</a>
</g>
</g>
<!-- Node11&#45;&gt;Node12 -->
<g id="edge13" class="edge"><title>Node11&#45;&gt;Node12</title>
<path fill="none" stroke="midnightblue" d="M308.628,-232.211C325.341,-233.293 344.274,-234.518 362.094,-235.671"/>
<polygon fill="midnightblue" stroke="midnightblue" points="362.228,-239.187 372.433,-236.34 362.68,-232.201 362.228,-239.187"/>
</g>
<!-- Node13&#45;&gt;Node5 -->
<g id="edge15" class="edge"><title>Node13&#45;&gt;Node5</title>
<path fill="none" stroke="midnightblue" d="M295.887,-181.453C321.283,-174.88 355.223,-166.095 382.475,-159.042"/>
<polygon fill="midnightblue" stroke="midnightblue" points="383.381,-162.423 392.185,-156.529 381.627,-155.646 383.381,-162.423"/>
</g>
<!-- Node14 -->
<g id="node14" class="node"><title>Node14</title>
<g id="a_node14"><a xlink:href="classCOM_1_1COM__base_ac64b4d78268b8bf76bde91677b51a819.html#ac64b4d78268b8bf76bde91677b51a819" target="_top" xlink:title="Obtain the user&#45;defined dataitems of the given window. ">
<polygon fill="none" stroke="black" points="372.5,-176 372.5,-206 487.5,-206 487.5,-176 372.5,-176"/>
<text text-anchor="start" x="380.5" y="-194" font-family="Helvetica,sans-Serif" font-size="10.00">COM::COM_base::get</text>
<text text-anchor="middle" x="430" y="-183" font-family="Helvetica,sans-Serif" font-size="10.00">_dataitems</text>
</a>
</g>
</g>
<!-- Node13&#45;&gt;Node14 -->
<g id="edge16" class="edge"><title>Node13&#45;&gt;Node14</title>
<path fill="none" stroke="midnightblue" d="M311.857,-191C327.758,-191 345.419,-191 362.104,-191"/>
<polygon fill="midnightblue" stroke="midnightblue" points="362.343,-194.5 372.343,-191 362.343,-187.5 362.343,-194.5"/>
</g>
<!-- Node15&#45;&gt;Node5 -->
<g id="edge18" class="edge"><title>Node15&#45;&gt;Node5</title>
<path fill="none" stroke="midnightblue" d="M324.24,-150.697C342.075,-150.068 361.138,-149.395 378.047,-148.798"/>
<polygon fill="midnightblue" stroke="midnightblue" points="378.397,-152.288 388.267,-148.438 378.15,-145.293 378.397,-152.288"/>
</g>
<!-- Node16 -->
<g id="node16" class="node"><title>Node16</title>
<g id="a_node16"><a xlink:href="classCOM_1_1COM__base_a640995dd65a1fb030650457b9cf10b26.html#a640995dd65a1fb030650457b9cf10b26" target="_top" xlink:title="COM::COM_base::get\l_function_handle">
<polygon fill="none" stroke="black" points="372.5,-88 372.5,-118 487.5,-118 487.5,-88 372.5,-88"/>
<text text-anchor="start" x="380.5" y="-106" font-family="Helvetica,sans-Serif" font-size="10.00">COM::COM_base::get</text>
<text text-anchor="middle" x="430" y="-95" font-family="Helvetica,sans-Serif" font-size="10.00">_function_handle</text>
</a>
</g>
</g>
<!-- Node15&#45;&gt;Node16 -->
<g id="edge19" class="edge"><title>Node15&#45;&gt;Node16</title>
<path fill="none" stroke="midnightblue" d="M291.739,-143.449C302.063,-140.432 313.509,-137.082 324,-134 338.373,-129.778 353.847,-125.217 368.384,-120.927"/>
<polygon fill="midnightblue" stroke="midnightblue" points="369.672,-124.195 378.272,-118.007 367.69,-117.482 369.672,-124.195"/>
</g>
<!-- Node17&#45;&gt;Node5 -->
<g id="edge21" class="edge"><title>Node17&#45;&gt;Node5</title>
<path fill="none" stroke="midnightblue" d="M303.222,-123.324C326.292,-127.667 354.614,-132.998 378.538,-137.501"/>
<polygon fill="midnightblue" stroke="midnightblue" points="378.018,-140.965 388.493,-139.375 379.313,-134.086 378.018,-140.965"/>
</g>
<!-- Node18 -->
<g id="node18" class="node"><title>Node18</title>
<g id="a_node18"><a xlink:href="classCOM_1_1COM__base_abac5455b6ae9ddffe748955994558b95.html#abac5455b6ae9ddffe748955994558b95" target="_top" xlink:title="Obtain the panes of a given window on a specific process. ">
<polygon fill="none" stroke="black" points="372.5,-39 372.5,-69 487.5,-69 487.5,-39 372.5,-39"/>
<text text-anchor="start" x="380.5" y="-57" font-family="Helvetica,sans-Serif" font-size="10.00">COM::COM_base::get</text>
<text text-anchor="middle" x="430" y="-46" font-family="Helvetica,sans-Serif" font-size="10.00">_panes</text>
</a>
</g>
</g>
<!-- Node17&#45;&gt;Node18 -->
<g id="edge22" class="edge"><title>Node17&#45;&gt;Node18</title>
<path fill="none" stroke="midnightblue" d="M295.828,-105.481C305.132,-102.738 315.026,-99.5223 324,-96 340.652,-89.4643 343.518,-84.9528 360,-78 364.371,-76.156 368.938,-74.3385 373.55,-72.5791"/>
<polygon fill="midnightblue" stroke="midnightblue" points="374.876,-75.8205 383.033,-69.0594 372.44,-69.258 374.876,-75.8205"/>
</g>
<!-- Node19&#45;&gt;Node5 -->
<g id="edge24" class="edge"><title>Node19&#45;&gt;Node5</title>
<path fill="none" stroke="midnightblue" d="M299.254,-85.8577C307.699,-88.5072 316.355,-91.8469 324,-96 342.554,-106.079 341.435,-116.942 360,-127 365.894,-130.193 372.355,-132.928 378.885,-135.255"/>
<polygon fill="midnightblue" stroke="midnightblue" points="377.851,-138.599 388.443,-138.378 380.025,-131.945 377.851,-138.599"/>
</g>
<!-- Node20 -->
<g id="node20" class="node"><title>Node20</title>
<g id="a_node20"><a xlink:href="classCOM_1_1COM__base_a0059534958a2bbdd57080473206cd1d0.html#a0059534958a2bbdd57080473206cd1d0" target="_top" xlink:title="Get the sizes of an dataitem. The opposite of set_size. ">
<polygon fill="none" stroke="black" points="361,-0.5 361,-19.5 499,-19.5 499,-0.5 361,-0.5"/>
<text text-anchor="middle" x="430" y="-7.5" font-family="Helvetica,sans-Serif" font-size="10.00">COM::COM_base::get_size</text>
</a>
</g>
</g>
<!-- Node19&#45;&gt;Node20 -->
<g id="edge25" class="edge"><title>Node19&#45;&gt;Node20</title>
<path fill="none" stroke="midnightblue" d="M299.153,-67.9514C307.603,-65.3138 316.288,-62.0272 324,-58 342.212,-48.4896 341.714,-38.3673 360,-29 364.515,-26.6871 369.345,-24.6287 374.274,-22.8025"/>
<polygon fill="midnightblue" stroke="midnightblue" points="375.471,-26.0926 383.82,-19.5706 373.226,-19.4623 375.471,-26.0926"/>
</g>
<!-- Node22&#45;&gt;Node2 -->
<g id="edge28" class="edge"><title>Node22&#45;&gt;Node2</title>
<path fill="none" stroke="midnightblue" d="M264.124,-476.784C276.944,-500.278 312.792,-560.206 360,-591 363.79,-593.472 367.899,-595.626 372.158,-597.501"/>
<polygon fill="midnightblue" stroke="midnightblue" points="371.07,-600.833 381.659,-601.178 373.596,-594.305 371.07,-600.833"/>
</g>
<!-- Node23 -->
<g id="node23" class="node"><title>Node23</title>
<g id="a_node23"><a xlink:href="namespaceIRAD_1_1Sys_a907ccb4be0eba55b76775c69712059ad.html#a907ccb4be0eba55b76775c69712059ad" target="_top" xlink:title="IRAD::Sys::CreateDirectory">
<polygon fill="none" stroke="black" points="360,-524.5 360,-543.5 500,-543.5 500,-524.5 360,-524.5"/>
<text text-anchor="middle" x="430" y="-531.5" font-family="Helvetica,sans-Serif" font-size="10.00">IRAD::Sys::CreateDirectory</text>
</a>
</g>
</g>
<!-- Node22&#45;&gt;Node23 -->
<g id="edge29" class="edge"><title>Node22&#45;&gt;Node23</title>
<path fill="none" stroke="midnightblue" d="M276.832,-476.649C296.698,-487.119 329.977,-503.83 360,-515 366.338,-517.358 373.099,-519.572 379.817,-521.597"/>
<polygon fill="midnightblue" stroke="midnightblue" points="378.997,-525.003 389.576,-524.422 380.944,-518.279 378.997,-525.003"/>
</g>
<!-- Node22&#45;&gt;Node21 -->
<g id="edge30" class="edge"><title>Node22&#45;&gt;Node21</title>
<path fill="none" stroke="midnightblue" d="M269.101,-476.6C290.451,-496.719 339.851,-542.33 360,-553 364.303,-555.279 368.905,-557.305 373.615,-559.103"/>
<polygon fill="midnightblue" stroke="midnightblue" points="372.775,-562.516 383.37,-562.48 375.065,-555.901 372.775,-562.516"/>
</g>
<!-- Node24 -->
<g id="node24" class="node"><title>Node24</title>
<g id="a_node24"><a xlink:href="namespaceIRAD_1_1Sys_a64439af6e8939be5517df918e2ecea36.html#a64439af6e8939be5517df918e2ecea36" target="_top" xlink:title="IRAD::Sys::FILEEXISTS">
<polygon fill="none" stroke="black" points="366,-486.5 366,-505.5 494,-505.5 494,-486.5 366,-486.5"/>
<text text-anchor="middle" x="430" y="-493.5" font-family="Helvetica,sans-Serif" font-size="10.00">IRAD::Sys::FILEEXISTS</text>
</a>
</g>
</g>
<!-- Node22&#45;&gt;Node24 -->
<g id="edge31" class="edge"><title>Node22&#45;&gt;Node24</title>
<path fill="none" stroke="midnightblue" d="M295.887,-473.293C315.537,-476.645 340.303,-480.869 363.127,-484.763"/>
<polygon fill="midnightblue" stroke="midnightblue" points="362.663,-488.234 373.109,-486.466 363.84,-481.334 362.663,-488.234"/>
</g>
<!-- Node25 -->
<g id="node25" class="node"><title>Node25</title>
<g id="a_node25"><a xlink:href="namespaceIRAD_1_1Sys_a0bcb3bbe82c724ff589d3ec071e5a506.html#a0bcb3bbe82c724ff589d3ec071e5a506" target="_top" xlink:title="IRAD::Sys::ISDIR">
<polygon fill="none" stroke="black" points="381,-448.5 381,-467.5 479,-467.5 479,-448.5 381,-448.5"/>
<text text-anchor="middle" x="430" y="-455.5" font-family="Helvetica,sans-Serif" font-size="10.00">IRAD::Sys::ISDIR</text>
</a>
</g>
</g>
<!-- Node22&#45;&gt;Node25 -->
<g id="edge32" class="edge"><title>Node22&#45;&gt;Node25</title>
<path fill="none" stroke="midnightblue" d="M295.887,-465.047C317.774,-463.888 346.005,-462.394 370.833,-461.079"/>
<polygon fill="midnightblue" stroke="midnightblue" points="371.075,-464.572 380.876,-460.548 370.705,-457.581 371.075,-464.572"/>
</g>
<!-- Node26 -->
<g id="node26" class="node"><title>Node26</title>
<g id="a_node26"><a xlink:href="namespaceIRAD_1_1Sys_a2d575706e1c0f851a9f9350d15ba4313.html#a2d575706e1c0f851a9f9350d15ba4313" target="_top" xlink:title="IRAD::Sys::ISLINK">
<polygon fill="none" stroke="black" points="378.5,-410.5 378.5,-429.5 481.5,-429.5 481.5,-410.5 378.5,-410.5"/>
<text text-anchor="middle" x="430" y="-417.5" font-family="Helvetica,sans-Serif" font-size="10.00">IRAD::Sys::ISLINK</text>
</a>
</g>
</g>
<!-- Node22&#45;&gt;Node26 -->
<g id="edge33" class="edge"><title>Node22&#45;&gt;Node26</title>
<path fill="none" stroke="midnightblue" d="M293.587,-457.396C313.089,-451.984 337.901,-445.106 360,-439 367.918,-436.812 376.349,-434.487 384.499,-432.242"/>
<polygon fill="midnightblue" stroke="midnightblue" points="385.537,-435.586 394.249,-429.557 383.678,-428.838 385.537,-435.586"/>
</g>
<!-- Node27 -->
<g id="node27" class="node"><title>Node27</title>
<g id="a_node27"><a xlink:href="namespaceIRAD_1_1Sys_a05dbd3303c15001bdaeb27da8f5b7125.html#a05dbd3303c15001bdaeb27da8f5b7125" target="_top" xlink:title="IRAD::Sys::SymLink">
<polygon fill="none" stroke="black" points="375.5,-372.5 375.5,-391.5 484.5,-391.5 484.5,-372.5 375.5,-372.5"/>
<text text-anchor="middle" x="430" y="-379.5" font-family="Helvetica,sans-Serif" font-size="10.00">IRAD::Sys::SymLink</text>
</a>
</g>
</g>
<!-- Node22&#45;&gt;Node27 -->
<g id="edge34" class="edge"><title>Node22&#45;&gt;Node27</title>
<path fill="none" stroke="midnightblue" d="M271.028,-457.339C289.261,-443.127 325.44,-416.589 360,-401 365.297,-398.611 370.961,-396.46 376.681,-394.541"/>
<polygon fill="midnightblue" stroke="midnightblue" points="377.809,-397.856 386.307,-391.529 375.718,-391.175 377.809,-397.856"/>
</g>
</g>
</svg>
