<?xml version="1.0" encoding="UTF-8" standalone="no"?>
<!DOCTYPE svg PUBLIC "-//W3C//DTD SVG 1.1//EN"
 "http://www.w3.org/Graphics/SVG/1.1/DTD/svg11.dtd">
<!-- Generated by graphviz version 2.30.1 (20150305.2338)
 -->
<!-- Title: norm Pages: 1 -->
<svg width="520pt" height="234pt"
 viewBox="0.00 0.00 520.00 234.00" xmlns="http://www.w3.org/2000/svg" xmlns:xlink="http://www.w3.org/1999/xlink">
<g id="graph0" class="graph" transform="scale(1 1) rotate(0) translate(4 230)">
<title>norm</title>
<!-- Node1 -->
<g id="node1" class="node"><title>Node1</title>
<polygon fill="#bfbfbf" stroke="black" points="0,-100.5 0,-119.5 38,-119.5 38,-100.5 0,-100.5"/>
<text text-anchor="middle" x="19" y="-107.5" font-family="Helvetica,sans-Serif" font-size="10.00">norm</text>
</g>
<!-- Node2 -->
<g id="node2" class="node"><title>Node2</title>
<g id="a_node2"><a xlink:href="classSolverUtils_1_1GeoPrim_1_1CLineSegment_ad207cb443e371f73f07e874c504f60c1.html#ad207cb443e371f73f07e874c504f60c1" target="_top" xlink:title="SolverUtils::GeoPrim\l::CLineSegment::length">
<polygon fill="none" stroke="black" points="74.5,-196 74.5,-226 193.5,-226 193.5,-196 74.5,-196"/>
<text text-anchor="start" x="82.5" y="-214" font-family="Helvetica,sans-Serif" font-size="10.00">SolverUtils::GeoPrim</text>
<text text-anchor="middle" x="134" y="-203" font-family="Helvetica,sans-Serif" font-size="10.00">::CLineSegment::length</text>
</a>
</g>
</g>
<!-- Node1&#45;&gt;Node2 -->
<g id="edge1" class="edge"><title>Node1&#45;&gt;Node2</title>
<path fill="none" stroke="midnightblue" d="M29.3644,-128.658C38.6749,-145.585 54.3825,-170.236 74,-186 78.6828,-189.763 84.0151,-193.051 89.5148,-195.896"/>
<polygon fill="midnightblue" stroke="midnightblue" points="32.4042,-126.919 24.6405,-119.71 26.2138,-130.187 32.4042,-126.919"/>
</g>
<!-- Node3 -->
<g id="node3" class="node"><title>Node3</title>
<g id="a_node3"><a xlink:href="classSolverUtils_1_1GeoPrim_1_1CVector_ab94d70bc3649c9d8683246f199eb1ef4.html#ab94d70bc3649c9d8683246f199eb1ef4" target="_top" xlink:title="mag">
<polygon fill="none" stroke="black" points="116.5,-157.5 116.5,-176.5 151.5,-176.5 151.5,-157.5 116.5,-157.5"/>
<text text-anchor="middle" x="134" y="-164.5" font-family="Helvetica,sans-Serif" font-size="10.00">mag</text>
</a>
</g>
</g>
<!-- Node1&#45;&gt;Node3 -->
<g id="edge2" class="edge"><title>Node1&#45;&gt;Node3</title>
<path fill="none" stroke="midnightblue" d="M39.3258,-125.752C49.241,-133.26 61.7796,-141.909 74,-148 87.6762,-154.816 104.333,-159.917 116.457,-163.108"/>
<polygon fill="midnightblue" stroke="midnightblue" points="41.3994,-122.93 31.3616,-119.54 37.0943,-128.45 41.3994,-122.93"/>
</g>
<!-- Node4 -->
<g id="node4" class="node"><title>Node4</title>
<g id="a_node4"><a xlink:href="classSolverUtils_1_1GeoPrim_1_1CVector_a0126d0fe9bd09bf10febcb659a2bf1a6.html#a0126d0fe9bd09bf10febcb659a2bf1a6" target="_top" xlink:title="normalize">
<polygon fill="none" stroke="black" points="104.5,-119.5 104.5,-138.5 163.5,-138.5 163.5,-119.5 104.5,-119.5"/>
<text text-anchor="middle" x="134" y="-126.5" font-family="Helvetica,sans-Serif" font-size="10.00">normalize</text>
</a>
</g>
</g>
<!-- Node1&#45;&gt;Node4 -->
<g id="edge3" class="edge"><title>Node1&#45;&gt;Node4</title>
<path fill="none" stroke="midnightblue" d="M48.1287,-114.73C65.2546,-117.609 87.077,-121.278 104.305,-124.175"/>
<polygon fill="midnightblue" stroke="midnightblue" points="48.5974,-111.259 38.1554,-113.053 47.4366,-118.162 48.5974,-111.259"/>
</g>
<!-- Node8 -->
<g id="node8" class="node"><title>Node8</title>
<g id="a_node8"><a xlink:href="classSolverUtils_1_1GeoPrim_1_1CVector_a1235fe269090657a2ad5d0550b6f5eed.html#a1235fe269090657a2ad5d0550b6f5eed" target="_top" xlink:title="operator\&lt;">
<polygon fill="none" stroke="black" points="105,-81.5 105,-100.5 163,-100.5 163,-81.5 105,-81.5"/>
<text text-anchor="middle" x="134" y="-88.5" font-family="Helvetica,sans-Serif" font-size="10.00">operator&lt;</text>
</a>
</g>
</g>
<!-- Node1&#45;&gt;Node8 -->
<g id="edge7" class="edge"><title>Node1&#45;&gt;Node8</title>
<path fill="none" stroke="midnightblue" d="M48.2033,-105.258C65.4626,-102.356 87.4708,-98.6554 104.74,-95.7516"/>
<polygon fill="midnightblue" stroke="midnightblue" points="47.4366,-101.838 38.1554,-106.947 48.5974,-108.741 47.4366,-101.838"/>
</g>
<!-- Node9 -->
<g id="node9" class="node"><title>Node9</title>
<g id="a_node9"><a xlink:href="classSolverUtils_1_1GeoPrim_1_1CVector_aaa7cdf36aa3534ded5d1b21008b3e017.html#aaa7cdf36aa3534ded5d1b21008b3e017" target="_top" xlink:title="operator\&gt;">
<polygon fill="none" stroke="black" points="105,-43.5 105,-62.5 163,-62.5 163,-43.5 105,-43.5"/>
<text text-anchor="middle" x="134" y="-50.5" font-family="Helvetica,sans-Serif" font-size="10.00">operator&gt;</text>
</a>
</g>
</g>
<!-- Node1&#45;&gt;Node9 -->
<g id="edge8" class="edge"><title>Node1&#45;&gt;Node9</title>
<path fill="none" stroke="midnightblue" d="M39.3258,-94.2484C49.241,-86.74 61.7796,-78.0908 74,-72 83.6311,-67.1997 94.7406,-63.2505 104.704,-60.2199"/>
<polygon fill="midnightblue" stroke="midnightblue" points="37.0943,-91.55 31.3616,-100.46 41.3994,-97.0697 37.0943,-91.55"/>
</g>
<!-- Node10 -->
<g id="node10" class="node"><title>Node10</title>
<g id="a_node10"><a xlink:href="classSolverUtils_1_1GeoPrim_1_1CVector_a2c751c0ebacf0090e671ebd938c879bf.html#a2c751c0ebacf0090e671ebd938c879bf" target="_top" xlink:title="unit">
<polygon fill="none" stroke="black" points="118,-5.5 118,-24.5 150,-24.5 150,-5.5 118,-5.5"/>
<text text-anchor="middle" x="134" y="-12.5" font-family="Helvetica,sans-Serif" font-size="10.00">unit</text>
</a>
</g>
</g>
<!-- Node1&#45;&gt;Node10 -->
<g id="edge9" class="edge"><title>Node1&#45;&gt;Node10</title>
<path fill="none" stroke="midnightblue" d="M28.9021,-91.2069C37.9708,-73.9826 53.5896,-48.9533 74,-34 87.1078,-24.3968 105.28,-19.5119 117.981,-17.1204"/>
<polygon fill="midnightblue" stroke="midnightblue" points="25.6903,-89.8038 24.3328,-100.311 31.9466,-92.9437 25.6903,-89.8038"/>
</g>
<!-- Node5 -->
<g id="node5" class="node"><title>Node5</title>
<g id="a_node5"><a xlink:href="classSolverUtils_1_1GeoPrim_1_1CPlane_a9b3d8cc7c7e241fc5a9226408ed19c59.html#a9b3d8cc7c7e241fc5a9226408ed19c59" target="_top" xlink:title="SolverUtils::GeoPrim\l::CPlane::CPlane">
<polygon fill="none" stroke="black" points="230.5,-114 230.5,-144 339.5,-144 339.5,-114 230.5,-114"/>
<text text-anchor="start" x="238.5" y="-132" font-family="Helvetica,sans-Serif" font-size="10.00">SolverUtils::GeoPrim</text>
<text text-anchor="middle" x="285" y="-121" font-family="Helvetica,sans-Serif" font-size="10.00">::CPlane::CPlane</text>
</a>
</g>
</g>
<!-- Node4&#45;&gt;Node5 -->
<g id="edge4" class="edge"><title>Node4&#45;&gt;Node5</title>
<path fill="none" stroke="midnightblue" d="M173.972,-129C191.184,-129 211.699,-129 230.326,-129"/>
<polygon fill="midnightblue" stroke="midnightblue" points="173.729,-125.5 163.729,-129 173.729,-132.5 173.729,-125.5"/>
</g>
<!-- Node6 -->
<g id="node6" class="node"><title>Node6</title>
<g id="a_node6"><a xlink:href="classSolverUtils_1_1GeoPrim_1_1CLine_a5a825f157fd23c389876bd1c54d57757.html#a5a825f157fd23c389876bd1c54d57757" target="_top" xlink:title="SolverUtils::GeoPrim\l::CLine::has_point">
<polygon fill="none" stroke="black" points="230.5,-57 230.5,-87 339.5,-87 339.5,-57 230.5,-57"/>
<text text-anchor="start" x="238.5" y="-75" font-family="Helvetica,sans-Serif" font-size="10.00">SolverUtils::GeoPrim</text>
<text text-anchor="middle" x="285" y="-64" font-family="Helvetica,sans-Serif" font-size="10.00">::CLine::has_point</text>
</a>
</g>
</g>
<!-- Node4&#45;&gt;Node6 -->
<g id="edge5" class="edge"><title>Node4&#45;&gt;Node6</title>
<path fill="none" stroke="midnightblue" d="M173.516,-117.137C180.375,-114.871 187.425,-112.441 194,-110 212.762,-103.034 233.349,-94.4156 250.093,-87.1489"/>
<polygon fill="midnightblue" stroke="midnightblue" points="172.118,-113.91 163.683,-120.321 174.275,-120.57 172.118,-113.91"/>
</g>
<!-- Node7 -->
<g id="node7" class="node"><title>Node7</title>
<g id="a_node7"><a xlink:href="classSolverUtils_1_1GeoPrim_1_1CLineSegment_aee8741ea7673428339de3f4d65d2d43a.html#aee8741ea7673428339de3f4d65d2d43a" target="_top" xlink:title="SolverUtils::GeoPrim\l::CLineSegment::has_point">
<polygon fill="none" stroke="black" points="376.5,-57 376.5,-87 511.5,-87 511.5,-57 376.5,-57"/>
<text text-anchor="start" x="384.5" y="-75" font-family="Helvetica,sans-Serif" font-size="10.00">SolverUtils::GeoPrim</text>
<text text-anchor="middle" x="444" y="-64" font-family="Helvetica,sans-Serif" font-size="10.00">::CLineSegment::has_point</text>
</a>
</g>
</g>
<!-- Node6&#45;&gt;Node7 -->
<g id="edge6" class="edge"><title>Node6&#45;&gt;Node7</title>
<path fill="none" stroke="midnightblue" d="M349.732,-72C358.493,-72 367.509,-72 376.321,-72"/>
<polygon fill="midnightblue" stroke="midnightblue" points="349.591,-68.5001 339.591,-72 349.591,-75.5001 349.591,-68.5001"/>
</g>
<!-- Node10&#45;&gt;Node6 -->
<g id="edge10" class="edge"><title>Node10&#45;&gt;Node6</title>
<path fill="none" stroke="midnightblue" d="M159.998,-22.5155C170.563,-25.8293 182.954,-29.8983 194,-34 212.762,-40.9665 233.349,-49.5844 250.093,-56.8511"/>
<polygon fill="midnightblue" stroke="midnightblue" points="160.748,-19.084 150.16,-19.4801 158.684,-25.7729 160.748,-19.084"/>
</g>
<!-- Node11 -->
<g id="node11" class="node"><title>Node11</title>
<g id="a_node11"><a xlink:href="classSolverUtils_1_1GeoPrim_1_1CPlane_ad5886d99eaa33c5ef208c15d47ec3456.html#ad5886d99eaa33c5ef208c15d47ec3456" target="_top" xlink:title="SolverUtils::GeoPrim\l::CPlane::operator==">
<polygon fill="none" stroke="black" points="230.5,-0 230.5,-30 339.5,-30 339.5,-0 230.5,-0"/>
<text text-anchor="start" x="238.5" y="-18" font-family="Helvetica,sans-Serif" font-size="10.00">SolverUtils::GeoPrim</text>
<text text-anchor="middle" x="285" y="-7" font-family="Helvetica,sans-Serif" font-size="10.00">::CPlane::operator==</text>
</a>
</g>
</g>
<!-- Node10&#45;&gt;Node11 -->
<g id="edge11" class="edge"><title>Node10&#45;&gt;Node11</title>
<path fill="none" stroke="midnightblue" d="M160.116,-15C179.254,-15 206.304,-15 230.246,-15"/>
<polygon fill="midnightblue" stroke="midnightblue" points="160.107,-11.5001 150.107,-15 160.107,-18.5001 160.107,-11.5001"/>
</g>
</g>
</svg>
