<?xml version="1.0" encoding="UTF-8" standalone="no"?>
<!DOCTYPE svg PUBLIC "-//W3C//DTD SVG 1.1//EN"
 "http://www.w3.org/Graphics/SVG/1.1/DTD/svg11.dtd">
<!-- Generated by graphviz version 2.30.1 (20150305.2338)
 -->
<!-- Title: FieldMetaData Pages: 1 -->
<svg width="114pt" height="164pt"
 viewBox="0.00 0.00 114.00 164.00" xmlns="http://www.w3.org/2000/svg" xmlns:xlink="http://www.w3.org/1999/xlink">
<g id="graph0" class="graph" transform="scale(1 1) rotate(0) translate(4 160)">
<title>FieldMetaData</title>
<!-- Node1 -->
<g id="node1" class="node"><title>Node1</title>
<polygon fill="#bfbfbf" stroke="black" points="13,-0.5 13,-19.5 93,-19.5 93,-0.5 13,-0.5"/>
<text text-anchor="middle" x="53" y="-7.5" font-family="Helvetica,sans-Serif" font-size="10.00">FieldMetaData</text>
</g>
<!-- Node2 -->
<g id="node2" class="node"><title>Node2</title>
<g id="a_node2"><a xlink:title="STL class. ">
<polygon fill="none" stroke="#bfbfbf" points="32.5,-78.5 32.5,-97.5 73.5,-97.5 73.5,-78.5 32.5,-78.5"/>
<text text-anchor="middle" x="53" y="-85.5" font-family="Helvetica,sans-Serif" font-size="10.00">string</text>
</a>
</g>
</g>
<!-- Node2&#45;&gt;Node1 -->
<g id="edge1" class="edge"><title>Node2&#45;&gt;Node1</title>
<path fill="none" stroke="#9a32cd" stroke-dasharray="5,2" d="M53,-68.2239C53,-52.6974 53,-31.3582 53,-19.6165"/>
<polygon fill="#9a32cd" stroke="#9a32cd" points="49.5001,-68.2818 53,-78.2818 56.5001,-68.2819 49.5001,-68.2818"/>
<text text-anchor="middle" x="65.5" y="-52" font-family="Helvetica,sans-Serif" font-size="10.00"> unit</text>
<text text-anchor="middle" x="65.5" y="-41" font-family="Helvetica,sans-Serif" font-size="10.00">name</text>
</g>
<!-- Node3 -->
<g id="node3" class="node"><title>Node3</title>
<g id="a_node3"><a xlink:title="STL class. ">
<polygon fill="none" stroke="#bfbfbf" points="0,-136.5 0,-155.5 106,-155.5 106,-136.5 0,-136.5"/>
<text text-anchor="middle" x="53" y="-143.5" font-family="Helvetica,sans-Serif" font-size="10.00">basic_string&lt; char &gt;</text>
</a>
</g>
</g>
<!-- Node3&#45;&gt;Node2 -->
<g id="edge2" class="edge"><title>Node3&#45;&gt;Node2</title>
<path fill="none" stroke="midnightblue" d="M53,-125.953C53,-116.287 53,-105.031 53,-97.5052"/>
<polygon fill="midnightblue" stroke="midnightblue" points="49.5001,-126.25 53,-136.25 56.5001,-126.25 49.5001,-126.25"/>
</g>
</g>
</svg>
