<?xml version="1.0" encoding="UTF-8" standalone="no"?>
<!DOCTYPE svg PUBLIC "-//W3C//DTD SVG 1.1//EN"
 "http://www.w3.org/Graphics/SVG/1.1/DTD/svg11.dtd">
<!-- Generated by graphviz version 2.30.1 (20150305.2338)
 -->
<!-- Title: is_ghost_node Pages: 1 -->
<svg width="250pt" height="180pt"
 viewBox="0.00 0.00 250.00 180.00" xmlns="http://www.w3.org/2000/svg" xmlns:xlink="http://www.w3.org/1999/xlink">
<g id="graph0" class="graph" transform="scale(1 1) rotate(0) translate(4 176)">
<title>is_ghost_node</title>
<!-- Node1 -->
<g id="node1" class="node"><title>Node1</title>
<polygon fill="#bfbfbf" stroke="black" points="0,-76.5 0,-95.5 80,-95.5 80,-76.5 0,-76.5"/>
<text text-anchor="middle" x="40" y="-83.5" font-family="Helvetica,sans-Serif" font-size="10.00">is_ghost_node</text>
</g>
<!-- Node2 -->
<g id="node2" class="node"><title>Node2</title>
<g id="a_node2"><a xlink:href="classSimple__manifold__2_a306844d8bb7a3ba531f04bc8481b582b.html#a306844d8bb7a3ba531f04bc8481b582b" target="_top" xlink:title="Get the ID of an incident edge within the pane of a given node that originated from the node...">
<polygon fill="none" stroke="black" points="131.5,-152.5 131.5,-171.5 226.5,-171.5 226.5,-152.5 131.5,-152.5"/>
<text text-anchor="middle" x="179" y="-159.5" font-family="Helvetica,sans-Serif" font-size="10.00">get_incident_edge</text>
</a>
</g>
</g>
<!-- Node1&#45;&gt;Node2 -->
<g id="edge1" class="edge"><title>Node1&#45;&gt;Node2</title>
<path fill="none" stroke="midnightblue" d="M59.0351,-102.637C73.5051,-115.228 94.8304,-132.15 116,-143 123.213,-146.697 131.274,-149.818 139.134,-152.393"/>
<polygon fill="midnightblue" stroke="midnightblue" points="61.1563,-99.8397 51.3605,-95.803 56.5009,-105.067 61.1563,-99.8397"/>
</g>
<!-- Node3 -->
<g id="node3" class="node"><title>Node3</title>
<g id="a_node3"><a xlink:href="classSimple__manifold__2_a5526ffd6e536b2c699cd80d42c05d534.html#a5526ffd6e536b2c699cd80d42c05d534" target="_top" xlink:title="Get the ID of an incident real edge within the pane of a given node The incident edge may encode an i...">
<polygon fill="none" stroke="black" points="116.5,-114.5 116.5,-133.5 241.5,-133.5 241.5,-114.5 116.5,-114.5"/>
<text text-anchor="middle" x="179" y="-121.5" font-family="Helvetica,sans-Serif" font-size="10.00">get_incident_ghost_edge</text>
</a>
</g>
</g>
<!-- Node1&#45;&gt;Node3 -->
<g id="edge2" class="edge"><title>Node1&#45;&gt;Node3</title>
<path fill="none" stroke="midnightblue" d="M85.4108,-98.3183C104.234,-103.539 125.838,-109.532 143.44,-114.414"/>
<polygon fill="midnightblue" stroke="midnightblue" points="86.1426,-94.8892 75.5709,-95.589 84.2716,-101.635 86.1426,-94.8892"/>
</g>
<!-- Node4 -->
<g id="node4" class="node"><title>Node4</title>
<g id="a_node4"><a xlink:href="classSimple__manifold__2_a9d228fc3894d548a55db1c25d28ec9af.html#a9d228fc3894d548a55db1c25d28ec9af" target="_top" xlink:title="Is the node on pane boundary (not isolated)? ">
<polygon fill="none" stroke="black" points="137.5,-76.5 137.5,-95.5 220.5,-95.5 220.5,-76.5 137.5,-76.5"/>
<text text-anchor="middle" x="179" y="-83.5" font-family="Helvetica,sans-Serif" font-size="10.00">is_border_node</text>
</a>
</g>
</g>
<!-- Node1&#45;&gt;Node4 -->
<g id="edge3" class="edge"><title>Node1&#45;&gt;Node4</title>
<path fill="none" stroke="midnightblue" d="M90.6131,-86C105.946,-86 122.649,-86 137.305,-86"/>
<polygon fill="midnightblue" stroke="midnightblue" points="90.2587,-82.5001 80.2587,-86 90.2587,-89.5001 90.2587,-82.5001"/>
</g>
<!-- Node5 -->
<g id="node5" class="node"><title>Node5</title>
<g id="a_node5"><a xlink:href="classSimple__manifold__2_a30f5e07616a5738e328bd9c86b551e3b.html#a30f5e07616a5738e328bd9c86b551e3b" target="_top" xlink:title="Is the node on pane boundary (not isolated)? It assumes vID is incident on the ghost (no checking is ...">
<polygon fill="none" stroke="black" points="123,-38.5 123,-57.5 235,-57.5 235,-38.5 123,-38.5"/>
<text text-anchor="middle" x="179" y="-45.5" font-family="Helvetica,sans-Serif" font-size="10.00">is_ghost_border_node</text>
</a>
</g>
</g>
<!-- Node1&#45;&gt;Node5 -->
<g id="edge4" class="edge"><title>Node1&#45;&gt;Node5</title>
<path fill="none" stroke="midnightblue" d="M85.4108,-73.6817C104.234,-68.4607 125.838,-62.4684 143.44,-57.5859"/>
<polygon fill="midnightblue" stroke="midnightblue" points="84.2716,-70.3654 75.5709,-76.411 86.1426,-77.1108 84.2716,-70.3654"/>
</g>
<!-- Node6 -->
<g id="node6" class="node"><title>Node6</title>
<g id="a_node6"><a xlink:href="classSimple__manifold__2_ad6d1f85a4b3a0d2d2c8f74494d90e1fe.html#ad6d1f85a4b3a0d2d2c8f74494d90e1fe" target="_top" xlink:title="Is the node on the pane boundary of real part (not isolated)? ">
<polygon fill="none" stroke="black" points="127,-0.5 127,-19.5 231,-19.5 231,-0.5 127,-0.5"/>
<text text-anchor="middle" x="179" y="-7.5" font-family="Helvetica,sans-Serif" font-size="10.00">is_real_border_node</text>
</a>
</g>
</g>
<!-- Node1&#45;&gt;Node6 -->
<g id="edge5" class="edge"><title>Node1&#45;&gt;Node6</title>
<path fill="none" stroke="midnightblue" d="M59.0351,-69.3626C73.5051,-56.7715 94.8304,-39.85 116,-29 123.213,-25.3029 131.274,-22.1825 139.134,-19.6068"/>
<polygon fill="midnightblue" stroke="midnightblue" points="56.5009,-66.9326 51.3605,-76.197 61.1563,-72.1603 56.5009,-66.9326"/>
</g>
</g>
</svg>
