<?xml version="1.0" encoding="UTF-8" standalone="no"?>
<!DOCTYPE svg PUBLIC "-//W3C//DTD SVG 1.1//EN"
 "http://www.w3.org/Graphics/SVG/1.1/DTD/svg11.dtd">
<!-- Generated by graphviz version 2.30.1 (20150305.2338)
 -->
<!-- Title: Unit Pages: 1 -->
<svg width="370pt" height="87pt"
 viewBox="0.00 0.00 370.00 87.00" xmlns="http://www.w3.org/2000/svg" xmlns:xlink="http://www.w3.org/1999/xlink">
<g id="graph0" class="graph" transform="scale(1 1) rotate(0) translate(4 83)">
<title>Unit</title>
<!-- Node1 -->
<g id="node1" class="node"><title>Node1</title>
<polygon fill="#bfbfbf" stroke="black" points="0.5,-29.5 0.5,-48.5 35.5,-48.5 35.5,-29.5 0.5,-29.5"/>
<text text-anchor="middle" x="18" y="-36.5" font-family="Helvetica,sans-Serif" font-size="10.00">Unit</text>
</g>
<!-- Node2 -->
<g id="node2" class="node"><title>Node2</title>
<g id="a_node2"><a xlink:href="classSolverUtils_1_1GeoPrim_1_1C3Line_a6f8c1b75074675c4c51b25b02f6c4dc2.html#a6f8c1b75074675c4c51b25b02f6c4dc2" target="_top" xlink:title="SolverUtils::GeoPrim\l::C3Line::has_point">
<polygon fill="none" stroke="black" points="74.5,-49 74.5,-79 183.5,-79 183.5,-49 74.5,-49"/>
<text text-anchor="start" x="82.5" y="-67" font-family="Helvetica,sans-Serif" font-size="10.00">SolverUtils::GeoPrim</text>
<text text-anchor="middle" x="129" y="-56" font-family="Helvetica,sans-Serif" font-size="10.00">::C3Line::has_point</text>
</a>
</g>
</g>
<!-- Node1&#45;&gt;Node2 -->
<g id="edge1" class="edge"><title>Node1&#45;&gt;Node2</title>
<path fill="none" stroke="midnightblue" d="M45.4846,-45.0745C54.239,-47.0823 64.318,-49.394 74.3582,-51.6968"/>
<polygon fill="midnightblue" stroke="midnightblue" points="46.0841,-41.6211 35.5548,-42.797 44.5192,-48.444 46.0841,-41.6211"/>
</g>
<!-- Node4 -->
<g id="node4" class="node"><title>Node4</title>
<g id="a_node4"><a xlink:href="classSolverUtils_1_1GeoPrim_1_1C3Plane_aefbe051711c8b698dc5f7a484ba83d82.html#aefbe051711c8b698dc5f7a484ba83d82" target="_top" xlink:title="SolverUtils::GeoPrim\l::C3Plane::operator==">
<polygon fill="none" stroke="black" points="72.5,-0 72.5,-30 185.5,-30 185.5,-0 72.5,-0"/>
<text text-anchor="start" x="80.5" y="-18" font-family="Helvetica,sans-Serif" font-size="10.00">SolverUtils::GeoPrim</text>
<text text-anchor="middle" x="129" y="-7" font-family="Helvetica,sans-Serif" font-size="10.00">::C3Plane::operator==</text>
</a>
</g>
</g>
<!-- Node1&#45;&gt;Node4 -->
<g id="edge3" class="edge"><title>Node1&#45;&gt;Node4</title>
<path fill="none" stroke="midnightblue" d="M45.5503,-33.1541C53.7292,-31.3532 63.0597,-29.2988 72.4323,-27.2351"/>
<polygon fill="midnightblue" stroke="midnightblue" points="44.5682,-29.7864 35.5548,-35.3549 46.0735,-36.6226 44.5682,-29.7864"/>
</g>
<!-- Node3 -->
<g id="node3" class="node"><title>Node3</title>
<g id="a_node3"><a xlink:href="classSolverUtils_1_1GeoPrim_1_1C3LineSegment_acea406f3a19b37ff68662597c6466609.html#acea406f3a19b37ff68662597c6466609" target="_top" xlink:title="SolverUtils::GeoPrim\l::C3LineSegment::has_point">
<polygon fill="none" stroke="black" points="222,-49 222,-79 362,-79 362,-49 222,-49"/>
<text text-anchor="start" x="230" y="-67" font-family="Helvetica,sans-Serif" font-size="10.00">SolverUtils::GeoPrim</text>
<text text-anchor="middle" x="292" y="-56" font-family="Helvetica,sans-Serif" font-size="10.00">::C3LineSegment::has_point</text>
</a>
</g>
</g>
<!-- Node2&#45;&gt;Node3 -->
<g id="edge2" class="edge"><title>Node2&#45;&gt;Node3</title>
<path fill="none" stroke="midnightblue" d="M193.849,-64C203.056,-64 212.567,-64 221.871,-64"/>
<polygon fill="midnightblue" stroke="midnightblue" points="193.611,-60.5001 183.611,-64 193.611,-67.5001 193.611,-60.5001"/>
</g>
</g>
</svg>
