<?xml version="1.0" encoding="UTF-8" standalone="no"?>
<!DOCTYPE svg PUBLIC "-//W3C//DTD SVG 1.1//EN"
 "http://www.w3.org/Graphics/SVG/1.1/DTD/svg11.dtd">
<!-- Generated by graphviz version 2.30.1 (20150305.2338)
 -->
<!-- Title: Test__TransferDisplacementsToFluid Pages: 1 -->
<svg width="690pt" height="432pt"
 viewBox="0.00 0.00 690.00 432.00" xmlns="http://www.w3.org/2000/svg" xmlns:xlink="http://www.w3.org/1999/xlink">
<g id="graph0" class="graph" transform="scale(1 1) rotate(0) translate(4 428)">
<title>Test__TransferDisplacementsToFluid</title>
<!-- Node1 -->
<g id="node1" class="node"><title>Node1</title>
<polygon fill="#bfbfbf" stroke="black" points="0,-197 0,-227 148,-227 148,-197 0,-197"/>
<text text-anchor="start" x="8" y="-215" font-family="Helvetica,sans-Serif" font-size="10.00">Test__TransferDisplacements</text>
<text text-anchor="middle" x="74" y="-204" font-family="Helvetica,sans-Serif" font-size="10.00">ToFluid</text>
</g>
<!-- Node2 -->
<g id="node2" class="node"><title>Node2</title>
<g id="a_node2"><a xlink:href="classElmerFoamFSI_1_1TestingObject_a6ddf5281e8c291fe3b0db952bc4607e7.html#a6ddf5281e8c291fe3b0db952bc4607e7" target="_top" xlink:title="__helper">
<polygon fill="none" stroke="black" points="242.5,-404.5 242.5,-423.5 295.5,-423.5 295.5,-404.5 242.5,-404.5"/>
<text text-anchor="middle" x="269" y="-411.5" font-family="Helvetica,sans-Serif" font-size="10.00">__helper</text>
</a>
</g>
</g>
<!-- Node1&#45;&gt;Node2 -->
<g id="edge1" class="edge"><title>Node1&#45;&gt;Node2</title>
<path fill="none" stroke="midnightblue" d="M79.9015,-227.016C91.8867,-261.333 126.009,-345.932 184,-390 197.868,-400.539 216.199,-406.452 232.197,-409.769"/>
<polygon fill="midnightblue" stroke="midnightblue" points="231.839,-413.261 242.303,-411.596 233.085,-406.373 231.839,-413.261"/>
</g>
<!-- Node4 -->
<g id="node4" class="node"><title>Node4</title>
<g id="a_node4"><a xlink:href="classelmeragent_a11af20e113d9cb3bad41a7504f10da2c.html#a11af20e113d9cb3bad41a7504f10da2c" target="_top" xlink:title="elmeragent::Coordinates">
<polygon fill="none" stroke="black" points="399.5,-366.5 399.5,-385.5 522.5,-385.5 522.5,-366.5 399.5,-366.5"/>
<text text-anchor="middle" x="461" y="-373.5" font-family="Helvetica,sans-Serif" font-size="10.00">elmeragent::Coordinates</text>
</a>
</g>
</g>
<!-- Node1&#45;&gt;Node4 -->
<g id="edge3" class="edge"><title>Node1&#45;&gt;Node4</title>
<path fill="none" stroke="midnightblue" d="M81.2567,-227.189C94.7927,-257.84 129.998,-326.666 184,-356 247.023,-390.234 330.4,-391.342 388.96,-386.317"/>
<polygon fill="midnightblue" stroke="midnightblue" points="389.602,-389.772 399.23,-385.352 388.947,-382.803 389.602,-389.772"/>
</g>
<!-- Node5 -->
<g id="node5" class="node"><title>Node5</title>
<g id="a_node5"><a xlink:href="classfsicoupling_aeaba4b85bd4063253b80e9c484976af9.html#aeaba4b85bd4063253b80e9c484976af9" target="_top" xlink:title="fsicoupling::getFluidAgent">
<polygon fill="none" stroke="black" points="204.5,-278.5 204.5,-297.5 333.5,-297.5 333.5,-278.5 204.5,-278.5"/>
<text text-anchor="middle" x="269" y="-285.5" font-family="Helvetica,sans-Serif" font-size="10.00">fsicoupling::getFluidAgent</text>
</a>
</g>
</g>
<!-- Node1&#45;&gt;Node5 -->
<g id="edge4" class="edge"><title>Node1&#45;&gt;Node5</title>
<path fill="none" stroke="midnightblue" d="M99.2665,-227.035C120.818,-239.809 153.532,-257.805 184,-269 191.026,-271.582 198.516,-273.88 206.021,-275.908"/>
<polygon fill="midnightblue" stroke="midnightblue" points="205.301,-279.336 215.856,-278.418 207.032,-272.554 205.301,-279.336"/>
</g>
<!-- Node6 -->
<g id="node6" class="node"><title>Node6</title>
<g id="a_node6"><a xlink:href="classfsicoupling_a2fae8dc8fa6ec4e77af8acdfee339803.html#a2fae8dc8fa6ec4e77af8acdfee339803" target="_top" xlink:title="fsicoupling::getFluidIntName">
<polygon fill="none" stroke="black" points="198.5,-240.5 198.5,-259.5 339.5,-259.5 339.5,-240.5 198.5,-240.5"/>
<text text-anchor="middle" x="269" y="-247.5" font-family="Helvetica,sans-Serif" font-size="10.00">fsicoupling::getFluidIntName</text>
</a>
</g>
</g>
<!-- Node1&#45;&gt;Node6 -->
<g id="edge5" class="edge"><title>Node1&#45;&gt;Node6</title>
<path fill="none" stroke="midnightblue" d="M148.24,-226.42C168.581,-230.425 190.388,-234.719 209.746,-238.53"/>
<polygon fill="midnightblue" stroke="midnightblue" points="209.137,-241.978 219.625,-240.475 210.489,-235.109 209.137,-241.978"/>
</g>
<!-- Node7 -->
<g id="node7" class="node"><title>Node7</title>
<g id="a_node7"><a xlink:href="classfsicoupling_ae80b34139948f3eec47982f2e003c79b.html#ae80b34139948f3eec47982f2e003c79b" target="_top" xlink:title="fsicoupling::getRunMode">
<polygon fill="none" stroke="black" points="206.5,-202.5 206.5,-221.5 331.5,-221.5 331.5,-202.5 206.5,-202.5"/>
<text text-anchor="middle" x="269" y="-209.5" font-family="Helvetica,sans-Serif" font-size="10.00">fsicoupling::getRunMode</text>
</a>
</g>
</g>
<!-- Node1&#45;&gt;Node7 -->
<g id="edge6" class="edge"><title>Node1&#45;&gt;Node7</title>
<path fill="none" stroke="midnightblue" d="M148.24,-212C163.986,-212 180.61,-212 196.297,-212"/>
<polygon fill="midnightblue" stroke="midnightblue" points="196.451,-215.5 206.451,-212 196.451,-208.5 196.451,-215.5"/>
</g>
<!-- Node8 -->
<g id="node8" class="node"><title>Node8</title>
<g id="a_node8"><a xlink:href="classfsicoupling_ab998e228edc63ce530ff6cf179b6ccc5.html#ab998e228edc63ce530ff6cf179b6ccc5" target="_top" xlink:title="fsicoupling::getSolidIntName">
<polygon fill="none" stroke="black" points="198,-164.5 198,-183.5 340,-183.5 340,-164.5 198,-164.5"/>
<text text-anchor="middle" x="269" y="-171.5" font-family="Helvetica,sans-Serif" font-size="10.00">fsicoupling::getSolidIntName</text>
</a>
</g>
</g>
<!-- Node1&#45;&gt;Node8 -->
<g id="edge7" class="edge"><title>Node1&#45;&gt;Node8</title>
<path fill="none" stroke="midnightblue" d="M148.24,-197.58C168.581,-193.575 190.388,-189.281 209.746,-185.47"/>
<polygon fill="midnightblue" stroke="midnightblue" points="210.489,-188.891 219.625,-183.525 209.137,-182.022 210.489,-188.891"/>
</g>
<!-- Node9 -->
<g id="node9" class="node"><title>Node9</title>
<g id="a_node9"><a xlink:href="classfsicoupling_a99c099d82afe54ca3fbad7bf51c2f562.html#a99c099d82afe54ca3fbad7bf51c2f562" target="_top" xlink:title="fsicoupling::getStructure\lAgent">
<polygon fill="none" stroke="black" points="208,-115 208,-145 330,-145 330,-115 208,-115"/>
<text text-anchor="start" x="216" y="-133" font-family="Helvetica,sans-Serif" font-size="10.00">fsicoupling::getStructure</text>
<text text-anchor="middle" x="269" y="-122" font-family="Helvetica,sans-Serif" font-size="10.00">Agent</text>
</a>
</g>
</g>
<!-- Node1&#45;&gt;Node9 -->
<g id="edge8" class="edge"><title>Node1&#45;&gt;Node9</title>
<path fill="none" stroke="midnightblue" d="M100.321,-196.971C121.998,-184.545 154.319,-167.046 184,-155 189.829,-152.634 195.966,-150.381 202.16,-148.265"/>
<polygon fill="midnightblue" stroke="midnightblue" points="203.499,-151.508 211.903,-145.056 201.31,-144.86 203.499,-151.508"/>
</g>
<!-- Node10 -->
<g id="node10" class="node"><title>Node10</title>
<g id="a_node10"><a xlink:href="classfsicoupling_ae855141f7b214925c25f7797b8b122a8.html#ae855141f7b214925c25f7797b8b122a8" target="_top" xlink:title="fsicoupling::Initialize">
<polygon fill="none" stroke="black" points="216.5,-76.5 216.5,-95.5 321.5,-95.5 321.5,-76.5 216.5,-76.5"/>
<text text-anchor="middle" x="269" y="-83.5" font-family="Helvetica,sans-Serif" font-size="10.00">fsicoupling::Initialize</text>
</a>
</g>
</g>
<!-- Node1&#45;&gt;Node10 -->
<g id="edge9" class="edge"><title>Node1&#45;&gt;Node10</title>
<path fill="none" stroke="midnightblue" d="M86.2084,-196.734C104.159,-173.437 141.668,-129.269 184,-106 190.928,-102.192 198.566,-99.1041 206.328,-96.6013"/>
<polygon fill="midnightblue" stroke="midnightblue" points="207.557,-99.8887 216.181,-93.7339 205.601,-93.1676 207.557,-99.8887"/>
</g>
<!-- Node15 -->
<g id="node15" class="node"><title>Node15</title>
<g id="a_node15"><a xlink:href="classfsicoupling_a9339a46a8a7f217e05784068f5ac0b9d.html#a9339a46a8a7f217e05784068f5ac0b9d" target="_top" xlink:title="fsicoupling::SetRunMode">
<polygon fill="none" stroke="black" points="206,-38.5 206,-57.5 332,-57.5 332,-38.5 206,-38.5"/>
<text text-anchor="middle" x="269" y="-45.5" font-family="Helvetica,sans-Serif" font-size="10.00">fsicoupling::SetRunMode</text>
</a>
</g>
</g>
<!-- Node1&#45;&gt;Node15 -->
<g id="edge16" class="edge"><title>Node1&#45;&gt;Node15</title>
<path fill="none" stroke="midnightblue" d="M81.8348,-196.908C96.1855,-167.031 132.441,-100.363 184,-67 187.846,-64.5111 191.975,-62.3459 196.264,-60.4624"/>
<polygon fill="midnightblue" stroke="midnightblue" points="197.783,-63.6284 205.861,-56.773 195.271,-57.0946 197.783,-63.6284"/>
</g>
<!-- Node16 -->
<g id="node16" class="node"><title>Node16</title>
<g id="a_node16"><a xlink:href="classfsicoupling_a9912245de96c85424cb074624b144762.html#a9912245de96c85424cb074624b144762" target="_top" xlink:title="fsicoupling::SetVerbLevel">
<polygon fill="none" stroke="black" points="205,-0.5 205,-19.5 333,-19.5 333,-0.5 205,-0.5"/>
<text text-anchor="middle" x="269" y="-7.5" font-family="Helvetica,sans-Serif" font-size="10.00">fsicoupling::SetVerbLevel</text>
</a>
</g>
</g>
<!-- Node1&#45;&gt;Node16 -->
<g id="edge17" class="edge"><title>Node1&#45;&gt;Node16</title>
<path fill="none" stroke="midnightblue" d="M79.4352,-196.866C90.634,-161.455 123.554,-72.8889 184,-29 187.637,-26.3591 191.579,-24.0764 195.702,-22.1042"/>
<polygon fill="midnightblue" stroke="midnightblue" points="197.075,-25.3242 204.975,-18.2643 194.396,-18.8568 197.075,-25.3242"/>
</g>
<!-- Node17 -->
<g id="node17" class="node"><title>Node17</title>
<g id="a_node17"><a xlink:href="classfsicoupling_afb2eaee475b0c32cd5bf6d6fcc1eff05.html#afb2eaee475b0c32cd5bf6d6fcc1eff05" target="_top" xlink:title="fsicoupling::TransferDisplacements\lToFluid">
<polygon fill="none" stroke="black" points="184,-317 184,-347 354,-347 354,-317 184,-317"/>
<text text-anchor="start" x="192" y="-335" font-family="Helvetica,sans-Serif" font-size="10.00">fsicoupling::TransferDisplacements</text>
<text text-anchor="middle" x="269" y="-324" font-family="Helvetica,sans-Serif" font-size="10.00">ToFluid</text>
</a>
</g>
</g>
<!-- Node1&#45;&gt;Node17 -->
<g id="edge18" class="edge"><title>Node1&#45;&gt;Node17</title>
<path fill="none" stroke="midnightblue" d="M88.2883,-227.084C107.448,-247.944 144.854,-285.458 184,-307 188.007,-309.205 192.232,-311.237 196.568,-313.107"/>
<polygon fill="midnightblue" stroke="midnightblue" points="195.609,-316.492 206.195,-316.942 198.2,-309.99 195.609,-316.492"/>
</g>
<!-- Node3 -->
<g id="node3" class="node"><title>Node3</title>
<g id="a_node3"><a xlink:href="classElmerFoamFSI_1_1TestingObject_a90864b099beaf9044bf8fff8a9857c0d.html#a90864b099beaf9044bf8fff8a9857c0d" target="_top" xlink:title="GetInputData">
<polygon fill="none" stroke="black" points="423.5,-404.5 423.5,-423.5 498.5,-423.5 498.5,-404.5 423.5,-404.5"/>
<text text-anchor="middle" x="461" y="-411.5" font-family="Helvetica,sans-Serif" font-size="10.00">GetInputData</text>
</a>
</g>
</g>
<!-- Node2&#45;&gt;Node3 -->
<g id="edge2" class="edge"><title>Node2&#45;&gt;Node3</title>
<path fill="none" stroke="midnightblue" d="M295.624,-414C325.715,-414 376.225,-414 413.329,-414"/>
<polygon fill="midnightblue" stroke="midnightblue" points="413.41,-417.5 423.41,-414 413.41,-410.5 413.41,-417.5"/>
</g>
<!-- Node11 -->
<g id="node11" class="node"><title>Node11</title>
<g id="a_node11"><a xlink:href="classopenfoamagent_a9a8261713154978fa009d8cb2c533055.html#a9a8261713154978fa009d8cb2c533055" target="_top" xlink:title="openfoamagent::Initialize">
<polygon fill="none" stroke="black" points="398.5,-95.5 398.5,-114.5 523.5,-114.5 523.5,-95.5 398.5,-95.5"/>
<text text-anchor="middle" x="461" y="-102.5" font-family="Helvetica,sans-Serif" font-size="10.00">openfoamagent::Initialize</text>
</a>
</g>
</g>
<!-- Node10&#45;&gt;Node11 -->
<g id="edge10" class="edge"><title>Node10&#45;&gt;Node11</title>
<path fill="none" stroke="midnightblue" d="M321.667,-91.1667C342.156,-93.2156 366.066,-95.6066 388.189,-97.8189"/>
<polygon fill="midnightblue" stroke="midnightblue" points="387.911,-101.308 398.209,-98.8209 388.607,-94.3432 387.911,-101.308"/>
</g>
<!-- Node14 -->
<g id="node14" class="node"><title>Node14</title>
<g id="a_node14"><a xlink:href="classelmeragent_a66d8ac5294227a11adf08cdfa91f59b5.html#a66d8ac5294227a11adf08cdfa91f59b5" target="_top" xlink:title="elmeragent::Initialize">
<polygon fill="none" stroke="black" points="407.5,-57.5 407.5,-76.5 514.5,-76.5 514.5,-57.5 407.5,-57.5"/>
<text text-anchor="middle" x="461" y="-64.5" font-family="Helvetica,sans-Serif" font-size="10.00">elmeragent::Initialize</text>
</a>
</g>
</g>
<!-- Node10&#45;&gt;Node14 -->
<g id="edge13" class="edge"><title>Node10&#45;&gt;Node14</title>
<path fill="none" stroke="midnightblue" d="M321.667,-80.8333C344.936,-78.5064 372.619,-75.7381 397.085,-73.2915"/>
<polygon fill="midnightblue" stroke="midnightblue" points="397.749,-76.7426 407.351,-72.2649 397.053,-69.7774 397.749,-76.7426"/>
</g>
<!-- Node12 -->
<g id="node12" class="node"><title>Node12</title>
<g id="a_node12"><a xlink:href="classimpact_1_1orchestrator_1_1agentbase_a0c67610e579dce80081e10bbbf57eae1.html#a0c67610e579dce80081e10bbbf57eae1" target="_top" xlink:title="impact::orchestrator\l::agentbase::WriteErr">
<polygon fill="none" stroke="black" points="570,-96 570,-126 680,-126 680,-96 570,-96"/>
<text text-anchor="start" x="578" y="-114" font-family="Helvetica,sans-Serif" font-size="10.00">impact::orchestrator</text>
<text text-anchor="middle" x="625" y="-103" font-family="Helvetica,sans-Serif" font-size="10.00">::agentbase::WriteErr</text>
</a>
</g>
</g>
<!-- Node11&#45;&gt;Node12 -->
<g id="edge11" class="edge"><title>Node11&#45;&gt;Node12</title>
<path fill="none" stroke="midnightblue" d="M523.707,-107.285C535.464,-107.721 547.797,-108.178 559.634,-108.616"/>
<polygon fill="midnightblue" stroke="midnightblue" points="559.759,-112.123 569.882,-108.996 560.019,-105.128 559.759,-112.123"/>
</g>
<!-- Node13 -->
<g id="node13" class="node"><title>Node13</title>
<g id="a_node13"><a xlink:href="classimpact_1_1orchestrator_1_1agentbase_acd3473c5912447035e34274950a1c8c6.html#acd3473c5912447035e34274950a1c8c6" target="_top" xlink:title="impact::orchestrator\l::agentbase::WriteOut">
<polygon fill="none" stroke="black" points="568.5,-47 568.5,-77 681.5,-77 681.5,-47 568.5,-47"/>
<text text-anchor="start" x="576.5" y="-65" font-family="Helvetica,sans-Serif" font-size="10.00">impact::orchestrator</text>
<text text-anchor="middle" x="625" y="-54" font-family="Helvetica,sans-Serif" font-size="10.00">::agentbase::WriteOut</text>
</a>
</g>
</g>
<!-- Node11&#45;&gt;Node13 -->
<g id="edge12" class="edge"><title>Node11&#45;&gt;Node13</title>
<path fill="none" stroke="midnightblue" d="M497.953,-95.4569C515.818,-90.715 537.969,-84.8354 558.695,-79.3341"/>
<polygon fill="midnightblue" stroke="midnightblue" points="559.644,-82.7033 568.412,-76.7549 557.848,-75.9376 559.644,-82.7033"/>
</g>
<!-- Node14&#45;&gt;Node12 -->
<g id="edge14" class="edge"><title>Node14&#45;&gt;Node12</title>
<path fill="none" stroke="midnightblue" d="M497.252,-76.5663C508.37,-79.5839 520.698,-82.9307 532,-86 541.01,-88.4469 550.515,-91.0292 559.861,-93.5685"/>
<polygon fill="midnightblue" stroke="midnightblue" points="558.948,-96.947 569.515,-96.1916 560.783,-90.1919 558.948,-96.947"/>
</g>
<!-- Node14&#45;&gt;Node13 -->
<g id="edge15" class="edge"><title>Node14&#45;&gt;Node13</title>
<path fill="none" stroke="midnightblue" d="M514.597,-65.3766C528.425,-64.9499 543.517,-64.484 557.953,-64.0385"/>
<polygon fill="midnightblue" stroke="midnightblue" points="558.434,-67.5254 568.321,-63.7185 558.218,-60.5287 558.434,-67.5254"/>
</g>
<!-- Node18 -->
<g id="node18" class="node"><title>Node18</title>
<g id="a_node18"><a xlink:href="classopenfoamagent_a11af20e113d9cb3bad41a7504f10da2c.html#a11af20e113d9cb3bad41a7504f10da2c" target="_top" xlink:title="openfoamagent::Coordinates">
<polygon fill="none" stroke="black" points="390,-328.5 390,-347.5 532,-347.5 532,-328.5 390,-328.5"/>
<text text-anchor="middle" x="461" y="-335.5" font-family="Helvetica,sans-Serif" font-size="10.00">openfoamagent::Coordinates</text>
</a>
</g>
</g>
<!-- Node17&#45;&gt;Node18 -->
<g id="edge19" class="edge"><title>Node17&#45;&gt;Node18</title>
<path fill="none" stroke="midnightblue" d="M354.167,-334.658C362.635,-334.925 371.219,-335.196 379.646,-335.463"/>
<polygon fill="midnightblue" stroke="midnightblue" points="379.723,-338.967 389.829,-335.784 379.944,-331.97 379.723,-338.967"/>
</g>
<!-- Node17&#45;&gt;Node4 -->
<g id="edge20" class="edge"><title>Node17&#45;&gt;Node4</title>
<path fill="none" stroke="midnightblue" d="M334.856,-347.019C359.11,-352.636 386.288,-358.93 409.105,-364.214"/>
<polygon fill="midnightblue" stroke="midnightblue" points="408.392,-367.641 418.924,-366.488 409.971,-360.822 408.392,-367.641"/>
</g>
<!-- Node19 -->
<g id="node19" class="node"><title>Node19</title>
<g id="a_node19"><a xlink:href="classopenfoamagent_a84634b1a9101359943436cfa37a4b88e.html#a84634b1a9101359943436cfa37a4b88e" target="_top" xlink:title="openfoamagent::PaneID">
<polygon fill="none" stroke="black" points="400,-290.5 400,-309.5 522,-309.5 522,-290.5 400,-290.5"/>
<text text-anchor="middle" x="461" y="-297.5" font-family="Helvetica,sans-Serif" font-size="10.00">openfoamagent::PaneID</text>
</a>
</g>
</g>
<!-- Node17&#45;&gt;Node19 -->
<g id="edge21" class="edge"><title>Node17&#45;&gt;Node19</title>
<path fill="none" stroke="midnightblue" d="M354.167,-317.825C367.325,-315.608 380.764,-313.345 393.456,-311.207"/>
<polygon fill="midnightblue" stroke="midnightblue" points="394.176,-314.636 403.456,-309.523 393.014,-307.733 394.176,-314.636"/>
</g>
<!-- Node20 -->
<g id="node20" class="node"><title>Node20</title>
<g id="a_node20"><a xlink:href="classelmeragent_a84634b1a9101359943436cfa37a4b88e.html#a84634b1a9101359943436cfa37a4b88e" target="_top" xlink:title="elmeragent::PaneID">
<polygon fill="none" stroke="black" points="409,-252.5 409,-271.5 513,-271.5 513,-252.5 409,-252.5"/>
<text text-anchor="middle" x="461" y="-259.5" font-family="Helvetica,sans-Serif" font-size="10.00">elmeragent::PaneID</text>
</a>
</g>
</g>
<!-- Node17&#45;&gt;Node20 -->
<g id="edge22" class="edge"><title>Node17&#45;&gt;Node20</title>
<path fill="none" stroke="midnightblue" d="M329.702,-316.955C338.035,-314.076 346.355,-310.763 354,-307 371.708,-298.284 372.188,-289.5 390,-281 394.972,-278.627 400.289,-276.511 405.688,-274.632"/>
<polygon fill="midnightblue" stroke="midnightblue" points="406.986,-277.891 415.438,-271.503 404.846,-271.226 406.986,-277.891"/>
</g>
</g>
</svg>
