<?xml version="1.0" encoding="UTF-8" standalone="no"?>
<!DOCTYPE svg PUBLIC "-//W3C//DTD SVG 1.1//EN"
 "http://www.w3.org/Graphics/SVG/1.1/DTD/svg11.dtd">
<!-- Generated by graphviz version 2.30.1 (20150305.2338)
 -->
<!-- Title: Overlay Pages: 1 -->
<svg width="788pt" height="380pt"
 viewBox="0.00 0.00 788.00 380.00" xmlns="http://www.w3.org/2000/svg" xmlns:xlink="http://www.w3.org/1999/xlink">
<g id="graph0" class="graph" transform="scale(1 1) rotate(0) translate(4 376)">
<title>Overlay</title>
<!-- Node1 -->
<g id="node1" class="node"><title>Node1</title>
<polygon fill="#bfbfbf" stroke="black" points="0,-162.5 0,-181.5 50,-181.5 50,-162.5 0,-162.5"/>
<text text-anchor="middle" x="25" y="-169.5" font-family="Helvetica,sans-Serif" font-size="10.00">Overlay</text>
</g>
<!-- Node2 -->
<g id="node2" class="node"><title>Node2</title>
<g id="a_node2"><a xlink:href="namespaceSolverUtils_ab602f331b052ecdbea6aa8caa0eeed75.html#ab602f331b052ecdbea6aa8caa0eeed75" target="_top" xlink:title="SolverUtils::COM_call\l_function">
<polygon fill="none" stroke="black" points="304,-342 304,-372 418,-372 418,-342 304,-342"/>
<text text-anchor="start" x="312" y="-360" font-family="Helvetica,sans-Serif" font-size="10.00">SolverUtils::COM_call</text>
<text text-anchor="middle" x="361" y="-349" font-family="Helvetica,sans-Serif" font-size="10.00">_function</text>
</a>
</g>
</g>
<!-- Node1&#45;&gt;Node2 -->
<g id="edge1" class="edge"><title>Node1&#45;&gt;Node2</title>
<path fill="none" stroke="midnightblue" d="M29.2699,-181.653C36.3997,-201.253 55.2173,-245.89 86,-270 146.822,-317.638 234.271,-339.475 293.907,-349.295"/>
<polygon fill="midnightblue" stroke="midnightblue" points="293.545,-352.781 303.968,-350.882 294.635,-345.867 293.545,-352.781"/>
</g>
<!-- Node3 -->
<g id="node3" class="node"><title>Node3</title>
<g id="a_node3"><a xlink:href="com__c_09_09_8hpp_aee2bdea02bb47943444e452f62372e33.html#aee2bdea02bb47943444e452f62372e33" target="_top" xlink:title="COM_delete_window">
<polygon fill="none" stroke="black" points="306,-303.5 306,-322.5 416,-322.5 416,-303.5 306,-303.5"/>
<text text-anchor="middle" x="361" y="-310.5" font-family="Helvetica,sans-Serif" font-size="10.00">COM_delete_window</text>
</a>
</g>
</g>
<!-- Node1&#45;&gt;Node3 -->
<g id="edge2" class="edge"><title>Node1&#45;&gt;Node3</title>
<path fill="none" stroke="midnightblue" d="M34.9133,-181.662C45.9455,-193.129 65.7645,-212.183 86,-224 154.043,-263.736 242.106,-288.27 299.78,-301.265"/>
<polygon fill="midnightblue" stroke="midnightblue" points="299.31,-304.745 309.829,-303.482 300.818,-297.91 299.31,-304.745"/>
</g>
<!-- Node7 -->
<g id="node7" class="node"><title>Node7</title>
<g id="a_node7"><a xlink:href="com__c_09_09_8hpp_a86224e33f2e17b4cee6c3256bfdff75d.html#a86224e33f2e17b4cee6c3256bfdff75d" target="_top" xlink:title="COM_get_dataitem_handle">
<polygon fill="none" stroke="black" points="293.5,-101.5 293.5,-120.5 428.5,-120.5 428.5,-101.5 293.5,-101.5"/>
<text text-anchor="middle" x="361" y="-108.5" font-family="Helvetica,sans-Serif" font-size="10.00">COM_get_dataitem_handle</text>
</a>
</g>
</g>
<!-- Node1&#45;&gt;Node7 -->
<g id="edge6" class="edge"><title>Node1&#45;&gt;Node7</title>
<path fill="none" stroke="midnightblue" d="M50.0205,-167.613C101.306,-158.246 222.917,-136.036 297.663,-122.385"/>
<polygon fill="midnightblue" stroke="midnightblue" points="298.679,-125.757 307.887,-120.518 297.421,-118.871 298.679,-125.757"/>
</g>
<!-- Node9 -->
<g id="node9" class="node"><title>Node9</title>
<g id="a_node9"><a xlink:href="com__c_09_09_8hpp_af747aaa399bb2b11240e4a5631e1be93.html#af747aaa399bb2b11240e4a5631e1be93" target="_top" xlink:title="COM_set_default_communicator">
<polygon fill="none" stroke="black" points="86,-0.5 86,-19.5 246,-19.5 246,-0.5 86,-0.5"/>
<text text-anchor="middle" x="166" y="-7.5" font-family="Helvetica,sans-Serif" font-size="10.00">COM_set_default_communicator</text>
</a>
</g>
</g>
<!-- Node1&#45;&gt;Node9 -->
<g id="edge9" class="edge"><title>Node1&#45;&gt;Node9</title>
<path fill="none" stroke="midnightblue" d="M28.7803,-162.284C35.4304,-140.507 54.1176,-87.1099 86,-54 98.2377,-41.2911 114.955,-31.261 129.861,-24.0069"/>
<polygon fill="midnightblue" stroke="midnightblue" points="131.715,-27.0066 139.33,-19.6405 128.783,-20.6499 131.715,-27.0066"/>
</g>
<!-- Node11 -->
<g id="node11" class="node"><title>Node11</title>
<g id="a_node11"><a xlink:href="com__c_09_09_8hpp_a194cf98ab438699fba9f1d1705044e70.html#a194cf98ab438699fba9f1d1705044e70" target="_top" xlink:title="COM_window_init_done">
<polygon fill="none" stroke="black" points="105,-63.5 105,-82.5 227,-82.5 227,-63.5 105,-63.5"/>
<text text-anchor="middle" x="166" y="-70.5" font-family="Helvetica,sans-Serif" font-size="10.00">COM_window_init_done</text>
</a>
</g>
</g>
<!-- Node1&#45;&gt;Node11 -->
<g id="edge12" class="edge"><title>Node1&#45;&gt;Node11</title>
<path fill="none" stroke="midnightblue" d="M37.7323,-162.343C49.67,-152.628 68.81,-137.358 86,-125 104.054,-112.02 125.114,-98.2215 140.948,-88.1025"/>
<polygon fill="midnightblue" stroke="midnightblue" points="143.04,-90.9201 149.604,-82.6038 139.286,-85.0114 143.04,-90.9201"/>
</g>
<!-- Node13 -->
<g id="node13" class="node"><title>Node13</title>
<g id="a_node13"><a xlink:href="classSolverUtils_1_1TransferObjectPar_a3bf689e70e300071bc1b010c1fedaae9.html#a3bf689e70e300071bc1b010c1fedaae9" target="_top" xlink:title="read_file_rocin">
<polygon fill="none" stroke="black" points="126,-195.5 126,-214.5 206,-214.5 206,-195.5 126,-195.5"/>
<text text-anchor="middle" x="166" y="-202.5" font-family="Helvetica,sans-Serif" font-size="10.00">read_file_rocin</text>
</a>
</g>
</g>
<!-- Node1&#45;&gt;Node13 -->
<g id="edge15" class="edge"><title>Node1&#45;&gt;Node13</title>
<path fill="none" stroke="midnightblue" d="M50.212,-177.748C68.289,-182.04 93.6062,-188.05 115.866,-193.335"/>
<polygon fill="midnightblue" stroke="midnightblue" points="115.303,-196.799 125.841,-195.703 116.92,-189.988 115.303,-196.799"/>
</g>
<!-- Node4 -->
<g id="node4" class="node"><title>Node4</title>
<g id="a_node4"><a xlink:href="COM__base_8hpp_a49353596e53127db61529b5c9000549d.html#a49353596e53127db61529b5c9000549d" target="_top" xlink:title="COM_get_com">
<polygon fill="none" stroke="black" points="498.5,-177.5 498.5,-196.5 581.5,-196.5 581.5,-177.5 498.5,-177.5"/>
<text text-anchor="middle" x="540" y="-184.5" font-family="Helvetica,sans-Serif" font-size="10.00">COM_get_com</text>
</a>
</g>
</g>
<!-- Node3&#45;&gt;Node4 -->
<g id="edge3" class="edge"><title>Node3&#45;&gt;Node4</title>
<path fill="none" stroke="midnightblue" d="M416.002,-306.922C424.726,-304.044 433.134,-299.91 440,-294 472.027,-266.433 444.729,-234.422 476,-206 479.812,-202.535 484.236,-199.701 488.938,-197.384"/>
<polygon fill="midnightblue" stroke="midnightblue" points="490.335,-200.594 498.235,-193.534 487.657,-194.126 490.335,-200.594"/>
</g>
<!-- Node6 -->
<g id="node6" class="node"><title>Node6</title>
<g id="a_node6"><a xlink:href="classCOM_1_1COM__base_ad19a2baf9f3506b153d077429ad0cf4c.html#ad19a2baf9f3506b153d077429ad0cf4c" target="_top" xlink:title="Deletes a window with given name. ">
<polygon fill="none" stroke="black" points="476,-314 476,-344 604,-344 604,-314 476,-314"/>
<text text-anchor="start" x="484" y="-332" font-family="Helvetica,sans-Serif" font-size="10.00">COM::COM_base::delete</text>
<text text-anchor="middle" x="540" y="-321" font-family="Helvetica,sans-Serif" font-size="10.00">_window</text>
</a>
</g>
</g>
<!-- Node3&#45;&gt;Node6 -->
<g id="edge5" class="edge"><title>Node3&#45;&gt;Node6</title>
<path fill="none" stroke="midnightblue" d="M416.068,-317.887C431.727,-319.303 449.091,-320.873 465.716,-322.375"/>
<polygon fill="midnightblue" stroke="midnightblue" points="465.675,-325.886 475.95,-323.301 466.306,-318.914 465.675,-325.886"/>
</g>
<!-- Node5 -->
<g id="node5" class="node"><title>Node5</title>
<g id="a_node5"><a xlink:href="classCOM_1_1COM__base_a77bb770b9ec1aac99361c45efbccabc1.html#a77bb770b9ec1aac99361c45efbccabc1" target="_top" xlink:title="Get a pointer to the COM object. ">
<polygon fill="none" stroke="black" points="640.5,-106.5 640.5,-125.5 779.5,-125.5 779.5,-106.5 640.5,-106.5"/>
<text text-anchor="middle" x="710" y="-113.5" font-family="Helvetica,sans-Serif" font-size="10.00">COM::COM_base::get_com</text>
</a>
</g>
</g>
<!-- Node4&#45;&gt;Node5 -->
<g id="edge4" class="edge"><title>Node4&#45;&gt;Node5</title>
<path fill="none" stroke="midnightblue" d="M574.341,-177.405C584.01,-174.357 594.515,-170.786 604,-167 631.258,-156.12 661.278,-141.229 682.212,-130.346"/>
<polygon fill="midnightblue" stroke="midnightblue" points="683.92,-133.403 691.149,-125.657 680.668,-127.204 683.92,-133.403"/>
</g>
<!-- Node7&#45;&gt;Node4 -->
<g id="edge7" class="edge"><title>Node7&#45;&gt;Node4</title>
<path fill="none" stroke="midnightblue" d="M418.026,-120.581C425.678,-123.042 433.223,-126.128 440,-130 459.922,-141.381 456.479,-154.944 476,-167 480.116,-169.542 484.585,-171.789 489.178,-173.769"/>
<polygon fill="midnightblue" stroke="midnightblue" points="488.121,-177.114 498.71,-177.469 490.654,-170.588 488.121,-177.114"/>
</g>
<!-- Node8 -->
<g id="node8" class="node"><title>Node8</title>
<g id="a_node8"><a xlink:href="classCOM_1_1COM__base_a9fd7945150b9f390f5560bce2b7ea375.html#a9fd7945150b9f390f5560bce2b7ea375" target="_top" xlink:title="COM::COM_base::get\l_dataitem_handle">
<polygon fill="none" stroke="black" points="482.5,-79 482.5,-109 597.5,-109 597.5,-79 482.5,-79"/>
<text text-anchor="start" x="490.5" y="-97" font-family="Helvetica,sans-Serif" font-size="10.00">COM::COM_base::get</text>
<text text-anchor="middle" x="540" y="-86" font-family="Helvetica,sans-Serif" font-size="10.00">_dataitem_handle</text>
</a>
</g>
</g>
<!-- Node7&#45;&gt;Node8 -->
<g id="edge8" class="edge"><title>Node7&#45;&gt;Node8</title>
<path fill="none" stroke="midnightblue" d="M428.664,-104.597C442.858,-103.234 457.852,-101.794 472.056,-100.43"/>
<polygon fill="midnightblue" stroke="midnightblue" points="472.618,-103.892 482.237,-99.4518 471.948,-96.924 472.618,-103.892"/>
</g>
<!-- Node10 -->
<g id="node10" class="node"><title>Node10</title>
<g id="a_node10"><a xlink:href="classCOM_1_1COM__base_a6f2cbe783c1786b2f70736669a1ce7bc.html#a6f2cbe783c1786b2f70736669a1ce7bc" target="_top" xlink:title="Set the default communicator of COM. ">
<polygon fill="none" stroke="black" points="481,-0 481,-30 599,-30 599,-0 481,-0"/>
<text text-anchor="start" x="489" y="-18" font-family="Helvetica,sans-Serif" font-size="10.00">COM::COM_base::set</text>
<text text-anchor="middle" x="540" y="-7" font-family="Helvetica,sans-Serif" font-size="10.00">_default_communicator</text>
</a>
</g>
</g>
<!-- Node9&#45;&gt;Node10 -->
<g id="edge10" class="edge"><title>Node9&#45;&gt;Node10</title>
<path fill="none" stroke="midnightblue" d="M246.198,-5.03053C300.72,-2.40099 374.796,-0.38869 440,-4 449.972,-4.55228 460.482,-5.41516 470.781,-6.42041"/>
<polygon fill="midnightblue" stroke="midnightblue" points="470.677,-9.92801 480.982,-7.46689 471.392,-2.96455 470.677,-9.92801"/>
</g>
<!-- Node10&#45;&gt;Node5 -->
<g id="edge11" class="edge"><title>Node10&#45;&gt;Node5</title>
<path fill="none" stroke="midnightblue" d="M566.151,-30.1207C597.976,-49.2537 652.45,-82.0028 684.138,-101.053"/>
<polygon fill="midnightblue" stroke="midnightblue" points="682.438,-104.115 692.812,-106.268 686.045,-98.1155 682.438,-104.115"/>
</g>
<!-- Node11&#45;&gt;Node4 -->
<g id="edge13" class="edge"><title>Node11&#45;&gt;Node4</title>
<path fill="none" stroke="midnightblue" d="M211.037,-63.4776C268.895,-53.5705 371.209,-45.3024 440,-92 470.592,-112.767 448.089,-142.749 476,-167 479.906,-170.394 484.391,-173.213 489.129,-175.554"/>
<polygon fill="midnightblue" stroke="midnightblue" points="487.895,-178.831 498.469,-179.492 490.615,-172.382 487.895,-178.831"/>
</g>
<!-- Node12 -->
<g id="node12" class="node"><title>Node12</title>
<g id="a_node12"><a xlink:href="classCOM_1_1COM__base_a1546f81f8d44d2745bbdddf6eee2a03f.html#a1546f81f8d44d2745bbdddf6eee2a03f" target="_top" xlink:title="Marks the end of the registration of a window. ">
<polygon fill="none" stroke="black" points="294,-14 294,-44 428,-44 428,-14 294,-14"/>
<text text-anchor="start" x="302" y="-32" font-family="Helvetica,sans-Serif" font-size="10.00">COM::COM_base::window</text>
<text text-anchor="middle" x="361" y="-21" font-family="Helvetica,sans-Serif" font-size="10.00">_init_done</text>
</a>
</g>
</g>
<!-- Node11&#45;&gt;Node12 -->
<g id="edge14" class="edge"><title>Node11&#45;&gt;Node12</title>
<path fill="none" stroke="midnightblue" d="M208.878,-63.4527C230.802,-58.4545 258.334,-52.1778 283.871,-46.3558"/>
<polygon fill="midnightblue" stroke="midnightblue" points="284.946,-49.7006 293.918,-44.0654 283.39,-42.8758 284.946,-49.7006"/>
</g>
<!-- Node13&#45;&gt;Node2 -->
<g id="edge16" class="edge"><title>Node13&#45;&gt;Node2</title>
<path fill="none" stroke="midnightblue" d="M172.994,-214.522C188.254,-237.998 230.998,-299.125 282,-332 285.974,-334.562 290.232,-336.88 294.632,-338.974"/>
<polygon fill="midnightblue" stroke="midnightblue" points="293.254,-342.191 303.82,-342.965 296.043,-335.771 293.254,-342.191"/>
</g>
<!-- Node14 -->
<g id="node14" class="node"><title>Node14</title>
<g id="a_node14"><a xlink:href="com__c_09_09_8hpp_a7ba04c696e63cdfeb6d9b0f4b70a30ec.html#a7ba04c696e63cdfeb6d9b0f4b70a30ec" target="_top" xlink:title="Clone the subset of panes of another window of which the given pane dataitem has value val...">
<polygon fill="none" stroke="black" points="305.5,-227.5 305.5,-246.5 416.5,-246.5 416.5,-227.5 305.5,-227.5"/>
<text text-anchor="middle" x="361" y="-234.5" font-family="Helvetica,sans-Serif" font-size="10.00">COM_clone_dataitem</text>
</a>
</g>
</g>
<!-- Node13&#45;&gt;Node14 -->
<g id="edge17" class="edge"><title>Node13&#45;&gt;Node14</title>
<path fill="none" stroke="midnightblue" d="M206.056,-211.476C231.576,-215.707 265.521,-221.335 295.042,-226.23"/>
<polygon fill="midnightblue" stroke="midnightblue" points="294.841,-229.744 305.279,-227.927 295.986,-222.838 294.841,-229.744"/>
</g>
<!-- Node13&#45;&gt;Node3 -->
<g id="edge20" class="edge"><title>Node13&#45;&gt;Node3</title>
<path fill="none" stroke="midnightblue" d="M178.199,-214.651C202.431,-235.367 259.368,-283.101 282,-294 287.023,-296.419 292.381,-298.546 297.846,-300.413"/>
<polygon fill="midnightblue" stroke="midnightblue" points="297.161,-303.865 307.75,-303.5 299.244,-297.182 297.161,-303.865"/>
</g>
<!-- Node13&#45;&gt;Node7 -->
<g id="edge21" class="edge"><title>Node13&#45;&gt;Node7</title>
<path fill="none" stroke="midnightblue" d="M181.617,-195.375C211.98,-175.396 279.293,-131.172 282,-130 287.708,-127.53 293.796,-125.343 299.959,-123.417"/>
<polygon fill="midnightblue" stroke="midnightblue" points="301.032,-126.75 309.659,-120.6 299.08,-120.028 301.032,-126.75"/>
</g>
<!-- Node16 -->
<g id="node16" class="node"><title>Node16</title>
<g id="a_node16"><a xlink:href="com__c_09_09_8hpp_acbbf9749cce36d33b4c60c100bdfaea2.html#acbbf9749cce36d33b4c60c100bdfaea2" target="_top" xlink:title="COM_get_function_handle">
<polygon fill="none" stroke="black" points="295,-139.5 295,-158.5 427,-158.5 427,-139.5 295,-139.5"/>
<text text-anchor="middle" x="361" y="-146.5" font-family="Helvetica,sans-Serif" font-size="10.00">COM_get_function_handle</text>
</a>
</g>
</g>
<!-- Node13&#45;&gt;Node16 -->
<g id="edge22" class="edge"><title>Node13&#45;&gt;Node16</title>
<path fill="none" stroke="midnightblue" d="M194.714,-195.461C217.902,-187.63 251.925,-176.489 282,-168 290.576,-165.579 299.734,-163.182 308.648,-160.949"/>
<polygon fill="midnightblue" stroke="midnightblue" points="309.693,-164.296 318.564,-158.503 308.017,-157.499 309.693,-164.296"/>
</g>
<!-- Node18 -->
<g id="node18" class="node"><title>Node18</title>
<g id="a_node18"><a xlink:href="namespaceSolverUtils_a861d12c375b5d430ea1dcaf25babcb62.html#a861d12c375b5d430ea1dcaf25babcb62" target="_top" xlink:title="SolverUtils::COM_LOAD\l_MODULE_STATIC_DYNAMIC">
<polygon fill="none" stroke="black" points="282,-178 282,-208 440,-208 440,-178 282,-178"/>
<text text-anchor="start" x="290" y="-196" font-family="Helvetica,sans-Serif" font-size="10.00">SolverUtils::COM_LOAD</text>
<text text-anchor="middle" x="361" y="-185" font-family="Helvetica,sans-Serif" font-size="10.00">_MODULE_STATIC_DYNAMIC</text>
</a>
</g>
</g>
<!-- Node13&#45;&gt;Node18 -->
<g id="edge25" class="edge"><title>Node13&#45;&gt;Node18</title>
<path fill="none" stroke="midnightblue" d="M206.056,-202.572C225.054,-201.39 248.722,-199.919 271.758,-198.487"/>
<polygon fill="midnightblue" stroke="midnightblue" points="272.162,-201.968 281.925,-197.854 271.728,-194.982 272.162,-201.968"/>
</g>
<!-- Node19 -->
<g id="node19" class="node"><title>Node19</title>
<g id="a_node19"><a xlink:href="com__c_09_09_8hpp_a4859cec968839295988dd58b44f5237e.html#a4859cec968839295988dd58b44f5237e" target="_top" xlink:title="COM_new_window">
<polygon fill="none" stroke="black" points="310.5,-265.5 310.5,-284.5 411.5,-284.5 411.5,-265.5 310.5,-265.5"/>
<text text-anchor="middle" x="361" y="-272.5" font-family="Helvetica,sans-Serif" font-size="10.00">COM_new_window</text>
</a>
</g>
</g>
<!-- Node13&#45;&gt;Node19 -->
<g id="edge26" class="edge"><title>Node13&#45;&gt;Node19</title>
<path fill="none" stroke="midnightblue" d="M185.712,-214.545C208.134,-225.688 247.059,-244.103 282,-256 289.329,-258.495 297.149,-260.802 304.903,-262.885"/>
<polygon fill="midnightblue" stroke="midnightblue" points="304.09,-266.29 314.647,-265.401 305.84,-259.512 304.09,-266.29"/>
</g>
<!-- Node15 -->
<g id="node15" class="node"><title>Node15</title>
<g id="a_node15"><a xlink:href="classCOM_1_1COM__base_a4c05d883838b1ac95a1f46ee17d61fef.html#a4c05d883838b1ac95a1f46ee17d61fef" target="_top" xlink:title="Clone the subset of panes of another window of which the given pane dataitem has value val...">
<polygon fill="none" stroke="black" points="477.5,-216 477.5,-246 602.5,-246 602.5,-216 477.5,-216"/>
<text text-anchor="start" x="485.5" y="-234" font-family="Helvetica,sans-Serif" font-size="10.00">COM::COM_base::clone</text>
<text text-anchor="middle" x="540" y="-223" font-family="Helvetica,sans-Serif" font-size="10.00">_dataitem</text>
</a>
</g>
</g>
<!-- Node14&#45;&gt;Node15 -->
<g id="edge18" class="edge"><title>Node14&#45;&gt;Node15</title>
<path fill="none" stroke="midnightblue" d="M416.55,-235.151C432.448,-234.612 450.069,-234.015 466.874,-233.445"/>
<polygon fill="midnightblue" stroke="midnightblue" points="467.334,-236.931 477.21,-233.095 467.097,-229.935 467.334,-236.931"/>
</g>
<!-- Node14&#45;&gt;Node4 -->
<g id="edge19" class="edge"><title>Node14&#45;&gt;Node4</title>
<path fill="none" stroke="midnightblue" d="M400.576,-227.479C413.176,-224.271 427.214,-220.591 440,-217 456.107,-212.477 459.991,-210.86 476,-206 482.989,-203.878 490.417,-201.631 497.629,-199.454"/>
<polygon fill="midnightblue" stroke="midnightblue" points="498.704,-202.785 507.267,-196.546 496.682,-196.084 498.704,-202.785"/>
</g>
<!-- Node16&#45;&gt;Node4 -->
<g id="edge23" class="edge"><title>Node16&#45;&gt;Node4</title>
<path fill="none" stroke="midnightblue" d="M406.665,-158.589C431.527,-163.927 462.566,-170.59 488.333,-176.122"/>
<polygon fill="midnightblue" stroke="midnightblue" points="487.777,-179.583 498.288,-178.26 489.246,-172.739 487.777,-179.583"/>
</g>
<!-- Node17 -->
<g id="node17" class="node"><title>Node17</title>
<g id="a_node17"><a xlink:href="classCOM_1_1COM__base_a640995dd65a1fb030650457b9cf10b26.html#a640995dd65a1fb030650457b9cf10b26" target="_top" xlink:title="COM::COM_base::get\l_function_handle">
<polygon fill="none" stroke="black" points="482.5,-128 482.5,-158 597.5,-158 597.5,-128 482.5,-128"/>
<text text-anchor="start" x="490.5" y="-146" font-family="Helvetica,sans-Serif" font-size="10.00">COM::COM_base::get</text>
<text text-anchor="middle" x="540" y="-135" font-family="Helvetica,sans-Serif" font-size="10.00">_function_handle</text>
</a>
</g>
</g>
<!-- Node16&#45;&gt;Node17 -->
<g id="edge24" class="edge"><title>Node16&#45;&gt;Node17</title>
<path fill="none" stroke="midnightblue" d="M427.154,-146.791C441.891,-146.292 457.557,-145.761 472.354,-145.259"/>
<polygon fill="midnightblue" stroke="midnightblue" points="472.561,-148.754 482.437,-144.917 472.324,-141.758 472.561,-148.754"/>
</g>
<!-- Node19&#45;&gt;Node4 -->
<g id="edge27" class="edge"><title>Node19&#45;&gt;Node4</title>
<path fill="none" stroke="midnightblue" d="M411.654,-268.469C421.594,-265.672 431.562,-261.685 440,-256 462.71,-240.7 453.711,-221.907 476,-206 479.92,-203.202 484.257,-200.811 488.768,-198.768"/>
<polygon fill="midnightblue" stroke="midnightblue" points="490.179,-201.974 498.193,-195.044 487.607,-195.463 490.179,-201.974"/>
</g>
<!-- Node20 -->
<g id="node20" class="node"><title>Node20</title>
<g id="a_node20"><a xlink:href="classCOM_1_1COM__base_aaf1eebdcea183110f6db536e0855b0cc.html#aaf1eebdcea183110f6db536e0855b0cc" target="_top" xlink:title="Creates a window with given name. ">
<polygon fill="none" stroke="black" points="480.5,-265 480.5,-295 599.5,-295 599.5,-265 480.5,-265"/>
<text text-anchor="start" x="488.5" y="-283" font-family="Helvetica,sans-Serif" font-size="10.00">COM::COM_base::new</text>
<text text-anchor="middle" x="540" y="-272" font-family="Helvetica,sans-Serif" font-size="10.00">_window</text>
</a>
</g>
</g>
<!-- Node19&#45;&gt;Node20 -->
<g id="edge28" class="edge"><title>Node19&#45;&gt;Node20</title>
<path fill="none" stroke="midnightblue" d="M411.775,-276.406C429.886,-276.918 450.693,-277.505 470.162,-278.055"/>
<polygon fill="midnightblue" stroke="midnightblue" points="470.105,-281.555 480.2,-278.339 470.303,-274.558 470.105,-281.555"/>
</g>
</g>
</svg>
