<?xml version="1.0" encoding="UTF-8" standalone="no"?>
<!DOCTYPE svg PUBLIC "-//W3C//DTD SVG 1.1//EN"
 "http://www.w3.org/Graphics/SVG/1.1/DTD/svg11.dtd">
<!-- Generated by graphviz version 2.30.1 (20150305.2338)
 -->
<!-- Title: get_opposite_real_edge_interior Pages: 1 -->
<svg width="290pt" height="104pt"
 viewBox="0.00 0.00 290.00 104.00" xmlns="http://www.w3.org/2000/svg" xmlns:xlink="http://www.w3.org/1999/xlink">
<g id="graph0" class="graph" transform="scale(1 1) rotate(0) translate(4 100)">
<title>get_opposite_real_edge_interior</title>
<!-- Node1 -->
<g id="node1" class="node"><title>Node1</title>
<polygon fill="#bfbfbf" stroke="black" points="0.5,-33 0.5,-63 119.5,-63 119.5,-33 0.5,-33"/>
<text text-anchor="start" x="8.5" y="-51" font-family="Helvetica,sans-Serif" font-size="10.00">get_opposite_real_edge</text>
<text text-anchor="middle" x="60" y="-40" font-family="Helvetica,sans-Serif" font-size="10.00">_interior</text>
</g>
<!-- Node2 -->
<g id="node2" class="node"><title>Node2</title>
<g id="a_node2"><a xlink:href="classSimple__manifold__2_a5526ffd6e536b2c699cd80d42c05d534.html#a5526ffd6e536b2c699cd80d42c05d534" target="_top" xlink:title="Get the ID of an incident real edge within the pane of a given node The incident edge may encode an i...">
<polygon fill="none" stroke="black" points="156.5,-76.5 156.5,-95.5 281.5,-95.5 281.5,-76.5 156.5,-76.5"/>
<text text-anchor="middle" x="219" y="-83.5" font-family="Helvetica,sans-Serif" font-size="10.00">get_incident_ghost_edge</text>
</a>
</g>
</g>
<!-- Node1&#45;&gt;Node2 -->
<g id="edge1" class="edge"><title>Node1&#45;&gt;Node2</title>
<path fill="none" stroke="midnightblue" d="M130.083,-64.7208C146.586,-68.715 163.651,-72.8456 178.306,-76.3926"/>
<polygon fill="midnightblue" stroke="midnightblue" points="130.45,-61.2087 119.908,-62.2579 128.804,-68.0122 130.45,-61.2087"/>
</g>
<!-- Node3 -->
<g id="node3" class="node"><title>Node3</title>
<g id="a_node3"><a xlink:href="classSimple__manifold__2_a34afa4fb2467f7b53bfb153b728f08e0.html#a34afa4fb2467f7b53bfb153b728f08e0" target="_top" xlink:title="Get the ID of the next real edge of the element or along the boundary. ">
<polygon fill="none" stroke="black" points="168.5,-38.5 168.5,-57.5 269.5,-57.5 269.5,-38.5 168.5,-38.5"/>
<text text-anchor="middle" x="219" y="-45.5" font-family="Helvetica,sans-Serif" font-size="10.00">get_next_real_edge</text>
</a>
</g>
</g>
<!-- Node1&#45;&gt;Node3 -->
<g id="edge2" class="edge"><title>Node1&#45;&gt;Node3</title>
<path fill="none" stroke="midnightblue" d="M130.11,-48C142.957,-48 156.144,-48 168.268,-48"/>
<polygon fill="midnightblue" stroke="midnightblue" points="129.908,-44.5001 119.908,-48 129.908,-51.5001 129.908,-44.5001"/>
</g>
<!-- Node4 -->
<g id="node4" class="node"><title>Node4</title>
<g id="a_node4"><a xlink:href="classSimple__manifold__2_ab2686d48e0f5957e3414e5e474803831.html#ab2686d48e0f5957e3414e5e474803831" target="_top" xlink:title="Get the ID of the previous real edge of the element or along the boundary. ">
<polygon fill="none" stroke="black" points="168.5,-0.5 168.5,-19.5 269.5,-19.5 269.5,-0.5 168.5,-0.5"/>
<text text-anchor="middle" x="219" y="-7.5" font-family="Helvetica,sans-Serif" font-size="10.00">get_prev_real_edge</text>
</a>
</g>
</g>
<!-- Node1&#45;&gt;Node4 -->
<g id="edge3" class="edge"><title>Node1&#45;&gt;Node4</title>
<path fill="none" stroke="midnightblue" d="M130.083,-31.2792C146.586,-27.285 163.651,-23.1544 178.306,-19.6074"/>
<polygon fill="midnightblue" stroke="midnightblue" points="128.804,-27.9878 119.908,-33.7421 130.45,-34.7913 128.804,-27.9878"/>
</g>
</g>
</svg>
