<?xml version="1.0" encoding="UTF-8" standalone="no"?>
<!DOCTYPE svg PUBLIC "-//W3C//DTD SVG 1.1//EN"
 "http://www.w3.org/Graphics/SVG/1.1/DTD/svg11.dtd">
<!-- Generated by graphviz version 2.30.1 (20150305.2338)
 -->
<!-- Title: Test__ElmerStructures Pages: 1 -->
<svg width="596pt" height="202pt"
 viewBox="0.00 0.00 596.00 202.00" xmlns="http://www.w3.org/2000/svg" xmlns:xlink="http://www.w3.org/1999/xlink">
<g id="graph0" class="graph" transform="scale(1 1) rotate(0) translate(4 198)">
<title>Test__ElmerStructures</title>
<!-- Node1 -->
<g id="node1" class="node"><title>Node1</title>
<polygon fill="#bfbfbf" stroke="black" points="0.5,-80.5 0.5,-99.5 117.5,-99.5 117.5,-80.5 0.5,-80.5"/>
<text text-anchor="middle" x="59" y="-87.5" font-family="Helvetica,sans-Serif" font-size="10.00">Test__ElmerStructures</text>
</g>
<!-- Node2 -->
<g id="node2" class="node"><title>Node2</title>
<g id="a_node2"><a xlink:href="classelmeragent_a66d8ac5294227a11adf08cdfa91f59b5.html#a66d8ac5294227a11adf08cdfa91f59b5" target="_top" xlink:title="elmeragent::Initialize">
<polygon fill="none" stroke="black" points="179.5,-120.5 179.5,-139.5 286.5,-139.5 286.5,-120.5 179.5,-120.5"/>
<text text-anchor="middle" x="233" y="-127.5" font-family="Helvetica,sans-Serif" font-size="10.00">elmeragent::Initialize</text>
</a>
</g>
</g>
<!-- Node1&#45;&gt;Node2 -->
<g id="edge1" class="edge"><title>Node1&#45;&gt;Node2</title>
<path fill="none" stroke="midnightblue" d="M101.198,-99.581C125.238,-105.172 155.759,-112.269 181.27,-118.202"/>
<polygon fill="midnightblue" stroke="midnightblue" points="180.605,-121.641 191.138,-120.497 182.191,-114.823 180.605,-121.641"/>
</g>
<!-- Node5 -->
<g id="node5" class="node"><title>Node5</title>
<g id="a_node5"><a xlink:href="classelmeragent_a8575f5cc66935ad1390c5fdfa42f9038.html#a8575f5cc66935ad1390c5fdfa42f9038" target="_top" xlink:title="elmeragent::returnNodeCoords">
<polygon fill="none" stroke="black" points="158,-80.5 158,-99.5 308,-99.5 308,-80.5 158,-80.5"/>
<text text-anchor="middle" x="233" y="-87.5" font-family="Helvetica,sans-Serif" font-size="10.00">elmeragent::returnNodeCoords</text>
</a>
</g>
</g>
<!-- Node1&#45;&gt;Node5 -->
<g id="edge4" class="edge"><title>Node1&#45;&gt;Node5</title>
<path fill="none" stroke="midnightblue" d="M117.752,-90C127.414,-90 137.611,-90 147.774,-90"/>
<polygon fill="midnightblue" stroke="midnightblue" points="147.906,-93.5001 157.906,-90 147.906,-86.5001 147.906,-93.5001"/>
</g>
<!-- Node6 -->
<g id="node6" class="node"><title>Node6</title>
<g id="a_node6"><a xlink:href="classElmerFoamFSI_1_1TestingObject_a4447b305a9896c53dbfb1c57b3854e2b.html#a4447b305a9896c53dbfb1c57b3854e2b" target="_top" xlink:title="Initalize function for the fsiCoupler and agents. ">
<polygon fill="none" stroke="black" points="154,-39.5 154,-58.5 312,-58.5 312,-39.5 154,-39.5"/>
<text text-anchor="middle" x="233" y="-46.5" font-family="Helvetica,sans-Serif" font-size="10.00">Test__fsiCouplerAgentsInitialize</text>
</a>
</g>
</g>
<!-- Node1&#45;&gt;Node6 -->
<g id="edge5" class="edge"><title>Node1&#45;&gt;Node6</title>
<path fill="none" stroke="midnightblue" d="M99.8926,-80.4907C124.444,-74.6384 156.113,-67.0894 182.289,-60.8497"/>
<polygon fill="midnightblue" stroke="midnightblue" points="183.11,-64.2521 192.026,-58.5286 181.487,-57.4429 183.11,-64.2521"/>
</g>
<!-- Node3 -->
<g id="node3" class="node"><title>Node3</title>
<g id="a_node3"><a xlink:href="classimpact_1_1orchestrator_1_1agentbase_a0c67610e579dce80081e10bbbf57eae1.html#a0c67610e579dce80081e10bbbf57eae1" target="_top" xlink:title="impact::orchestrator\l::agentbase::WriteErr">
<polygon fill="none" stroke="black" points="357,-164 357,-194 467,-194 467,-164 357,-164"/>
<text text-anchor="start" x="365" y="-182" font-family="Helvetica,sans-Serif" font-size="10.00">impact::orchestrator</text>
<text text-anchor="middle" x="412" y="-171" font-family="Helvetica,sans-Serif" font-size="10.00">::agentbase::WriteErr</text>
</a>
</g>
</g>
<!-- Node2&#45;&gt;Node3 -->
<g id="edge2" class="edge"><title>Node2&#45;&gt;Node3</title>
<path fill="none" stroke="midnightblue" d="M268.548,-139.564C290.761,-145.713 320.307,-153.893 346.73,-161.208"/>
<polygon fill="midnightblue" stroke="midnightblue" points="346.111,-164.668 356.683,-163.963 347.979,-157.922 346.111,-164.668"/>
</g>
<!-- Node4 -->
<g id="node4" class="node"><title>Node4</title>
<g id="a_node4"><a xlink:href="classimpact_1_1orchestrator_1_1agentbase_acd3473c5912447035e34274950a1c8c6.html#acd3473c5912447035e34274950a1c8c6" target="_top" xlink:title="impact::orchestrator\l::agentbase::WriteOut">
<polygon fill="none" stroke="black" points="355.5,-115 355.5,-145 468.5,-145 468.5,-115 355.5,-115"/>
<text text-anchor="start" x="363.5" y="-133" font-family="Helvetica,sans-Serif" font-size="10.00">impact::orchestrator</text>
<text text-anchor="middle" x="412" y="-122" font-family="Helvetica,sans-Serif" font-size="10.00">::agentbase::WriteOut</text>
</a>
</g>
</g>
<!-- Node2&#45;&gt;Node4 -->
<g id="edge3" class="edge"><title>Node2&#45;&gt;Node4</title>
<path fill="none" stroke="midnightblue" d="M286.627,-130C305.025,-130 325.914,-130 345.249,-130"/>
<polygon fill="midnightblue" stroke="midnightblue" points="345.5,-133.5 355.5,-130 345.5,-126.5 345.5,-133.5"/>
</g>
<!-- Node7 -->
<g id="node7" class="node"><title>Node7</title>
<g id="a_node7"><a xlink:href="classElmerFoamFSI_1_1TestingObject_a6ddf5281e8c291fe3b0db952bc4607e7.html#a6ddf5281e8c291fe3b0db952bc4607e7" target="_top" xlink:title="__helper">
<polygon fill="none" stroke="black" points="385.5,-76.5 385.5,-95.5 438.5,-95.5 438.5,-76.5 385.5,-76.5"/>
<text text-anchor="middle" x="412" y="-83.5" font-family="Helvetica,sans-Serif" font-size="10.00">__helper</text>
</a>
</g>
</g>
<!-- Node6&#45;&gt;Node7 -->
<g id="edge6" class="edge"><title>Node6&#45;&gt;Node7</title>
<path fill="none" stroke="midnightblue" d="M279.582,-58.5284C309.373,-64.7559 347.725,-72.773 375.298,-78.5369"/>
<polygon fill="midnightblue" stroke="midnightblue" points="374.794,-82.007 385.298,-80.6273 376.226,-75.1551 374.794,-82.007"/>
</g>
<!-- Node9 -->
<g id="node9" class="node"><title>Node9</title>
<g id="a_node9"><a xlink:href="classfsicoupling_a9339a46a8a7f217e05784068f5ac0b9d.html#a9339a46a8a7f217e05784068f5ac0b9d" target="_top" xlink:title="fsicoupling::SetRunMode">
<polygon fill="none" stroke="black" points="349,-38.5 349,-57.5 475,-57.5 475,-38.5 349,-38.5"/>
<text text-anchor="middle" x="412" y="-45.5" font-family="Helvetica,sans-Serif" font-size="10.00">fsicoupling::SetRunMode</text>
</a>
</g>
</g>
<!-- Node6&#45;&gt;Node9 -->
<g id="edge8" class="edge"><title>Node6&#45;&gt;Node9</title>
<path fill="none" stroke="midnightblue" d="M312.15,-48.5585C321.003,-48.5085 329.996,-48.4577 338.768,-48.4081"/>
<polygon fill="midnightblue" stroke="midnightblue" points="338.962,-51.9071 348.942,-48.3506 338.923,-44.9073 338.962,-51.9071"/>
</g>
<!-- Node10 -->
<g id="node10" class="node"><title>Node10</title>
<g id="a_node10"><a xlink:href="classfsicoupling_a9912245de96c85424cb074624b144762.html#a9912245de96c85424cb074624b144762" target="_top" xlink:title="fsicoupling::SetVerbLevel">
<polygon fill="none" stroke="black" points="348,-0.5 348,-19.5 476,-19.5 476,-0.5 348,-0.5"/>
<text text-anchor="middle" x="412" y="-7.5" font-family="Helvetica,sans-Serif" font-size="10.00">fsicoupling::SetVerbLevel</text>
</a>
</g>
</g>
<!-- Node6&#45;&gt;Node10 -->
<g id="edge9" class="edge"><title>Node6&#45;&gt;Node10</title>
<path fill="none" stroke="midnightblue" d="M277.299,-39.4595C301.604,-34.1043 332.125,-27.3792 357.868,-21.707"/>
<polygon fill="midnightblue" stroke="midnightblue" points="358.829,-25.0794 367.842,-19.5095 357.323,-18.2433 358.829,-25.0794"/>
</g>
<!-- Node8 -->
<g id="node8" class="node"><title>Node8</title>
<g id="a_node8"><a xlink:href="classElmerFoamFSI_1_1TestingObject_a90864b099beaf9044bf8fff8a9857c0d.html#a90864b099beaf9044bf8fff8a9857c0d" target="_top" xlink:title="GetInputData">
<polygon fill="none" stroke="black" points="512.5,-76.5 512.5,-95.5 587.5,-95.5 587.5,-76.5 512.5,-76.5"/>
<text text-anchor="middle" x="550" y="-83.5" font-family="Helvetica,sans-Serif" font-size="10.00">GetInputData</text>
</a>
</g>
</g>
<!-- Node7&#45;&gt;Node8 -->
<g id="edge7" class="edge"><title>Node7&#45;&gt;Node8</title>
<path fill="none" stroke="midnightblue" d="M438.581,-86C456.5,-86 480.964,-86 502.311,-86"/>
<polygon fill="midnightblue" stroke="midnightblue" points="502.497,-89.5001 512.497,-86 502.497,-82.5001 502.497,-89.5001"/>
</g>
</g>
</svg>
