<?xml version="1.0" encoding="UTF-8" standalone="no"?>
<!DOCTYPE svg PUBLIC "-//W3C//DTD SVG 1.1//EN"
 "http://www.w3.org/Graphics/SVG/1.1/DTD/svg11.dtd">
<!-- Generated by graphviz version 2.30.1 (20150305.2338)
 -->
<!-- Title: end_update Pages: 1 -->
<svg width="246pt" height="104pt"
 viewBox="0.00 0.00 246.00 104.00" xmlns="http://www.w3.org/2000/svg" xmlns:xlink="http://www.w3.org/1999/xlink">
<g id="graph0" class="graph" transform="scale(1 1) rotate(0) translate(4 100)">
<title>end_update</title>
<!-- Node1 -->
<g id="node1" class="node"><title>Node1</title>
<polygon fill="#bfbfbf" stroke="black" points="0.5,-38.5 0.5,-57.5 67.5,-57.5 67.5,-38.5 0.5,-38.5"/>
<text text-anchor="middle" x="34" y="-45.5" font-family="Helvetica,sans-Serif" font-size="10.00">end_update</text>
</g>
<!-- Node2 -->
<g id="node2" class="node"><title>Node2</title>
<g id="a_node2"><a xlink:href="classPane__communicator_af364d993674f77f6c5402bfa9146b75b.html#af364d993674f77f6c5402bfa9146b75b" target="_top" xlink:title="Finalizes ghost cell updating by calling MPI_Waitall on all send requests. ">
<polygon fill="none" stroke="black" points="110,-76.5 110,-95.5 232,-95.5 232,-76.5 110,-76.5"/>
<text text-anchor="middle" x="171" y="-83.5" font-family="Helvetica,sans-Serif" font-size="10.00">end_update_ghost_cells</text>
</a>
</g>
</g>
<!-- Node1&#45;&gt;Node2 -->
<g id="edge1" class="edge"><title>Node1&#45;&gt;Node2</title>
<path fill="none" stroke="midnightblue" d="M77.5456,-59.9758C96.469,-65.3024 118.438,-71.4862 136.211,-76.4891"/>
<polygon fill="midnightblue" stroke="midnightblue" points="78.254,-56.5393 67.6797,-57.1987 76.3573,-63.2774 78.254,-56.5393"/>
</g>
<!-- Node3 -->
<g id="node3" class="node"><title>Node3</title>
<g id="a_node3"><a xlink:href="classPane__communicator_a5e75dfbbe7932ed1386e3cb6bc517ac5.html#a5e75dfbbe7932ed1386e3cb6bc517ac5" target="_top" xlink:title="Finalizes ghost node updating by calling MPI_Waitall on all send requests. ">
<polygon fill="none" stroke="black" points="107,-38.5 107,-57.5 235,-57.5 235,-38.5 107,-38.5"/>
<text text-anchor="middle" x="171" y="-45.5" font-family="Helvetica,sans-Serif" font-size="10.00">end_update_ghost_nodes</text>
</a>
</g>
</g>
<!-- Node1&#45;&gt;Node3 -->
<g id="edge2" class="edge"><title>Node1&#45;&gt;Node3</title>
<path fill="none" stroke="midnightblue" d="M77.8074,-48C87.0897,-48 97.0946,-48 106.971,-48"/>
<polygon fill="midnightblue" stroke="midnightblue" points="77.6798,-44.5001 67.6797,-48 77.6797,-51.5001 77.6798,-44.5001"/>
</g>
<!-- Node4 -->
<g id="node4" class="node"><title>Node4</title>
<g id="a_node4"><a xlink:href="classPane__communicator_a97969d4b94965236bf5b21ec92a4bb73.html#a97969d4b94965236bf5b21ec92a4bb73" target="_top" xlink:title="Finalizes shared node updating by calling MPI_Waitall on all send requests. ">
<polygon fill="none" stroke="black" points="104.5,-0.5 104.5,-19.5 237.5,-19.5 237.5,-0.5 104.5,-0.5"/>
<text text-anchor="middle" x="171" y="-7.5" font-family="Helvetica,sans-Serif" font-size="10.00">end_update_shared_nodes</text>
</a>
</g>
</g>
<!-- Node1&#45;&gt;Node4 -->
<g id="edge3" class="edge"><title>Node1&#45;&gt;Node4</title>
<path fill="none" stroke="midnightblue" d="M77.5456,-36.0242C96.469,-30.6976 118.438,-24.5138 136.211,-19.5109"/>
<polygon fill="midnightblue" stroke="midnightblue" points="76.3573,-32.7226 67.6797,-38.8013 78.254,-39.4607 76.3573,-32.7226"/>
</g>
</g>
</svg>
