<?xml version="1.0" encoding="UTF-8" standalone="no"?>
<!DOCTYPE svg PUBLIC "-//W3C//DTD SVG 1.1//EN"
 "http://www.w3.org/Graphics/SVG/1.1/DTD/svg11.dtd">
<!-- Generated by graphviz version 2.30.1 (20150305.2338)
 -->
<!-- Title: SolverModuleDriver Pages: 1 -->
<svg width="439pt" height="426pt"
 viewBox="0.00 0.00 439.00 426.00" xmlns="http://www.w3.org/2000/svg" xmlns:xlink="http://www.w3.org/1999/xlink">
<g id="graph0" class="graph" transform="scale(1 1) rotate(0) translate(4 422)">
<title>SolverModuleDriver</title>
<!-- Node1 -->
<g id="node1" class="node"><title>Node1</title>
<polygon fill="#bfbfbf" stroke="black" points="165,-0.5 165,-19.5 267,-19.5 267,-0.5 165,-0.5"/>
<text text-anchor="middle" x="216" y="-7.5" font-family="Helvetica,sans-Serif" font-size="10.00">SolverModuleDriver</text>
</g>
<!-- Node2 -->
<g id="node2" class="node"><title>Node2</title>
<polygon fill="none" stroke="#bfbfbf" points="0,-68.5 0,-87.5 70,-87.5 70,-68.5 0,-68.5"/>
<text text-anchor="middle" x="35" y="-75.5" font-family="Helvetica,sans-Serif" font-size="10.00">SolverAgent</text>
</g>
<!-- Node2&#45;&gt;Node1 -->
<g id="edge1" class="edge"><title>Node2&#45;&gt;Node1</title>
<path fill="none" stroke="midnightblue" d="M68.252,-64.875C104.32,-51.723 160.971,-31.066 192.618,-19.5259"/>
<polygon fill="midnightblue" stroke="midnightblue" points="66.8585,-61.6576 58.6626,-68.3717 69.2565,-68.234 66.8585,-61.6576"/>
</g>
<!-- Node3 -->
<g id="node3" class="node"><title>Node3</title>
<polygon fill="none" stroke="#bfbfbf" points="88,-68.5 88,-87.5 162,-87.5 162,-68.5 88,-68.5"/>
<text text-anchor="middle" x="125" y="-75.5" font-family="Helvetica,sans-Serif" font-size="10.00">COM_Object</text>
</g>
<!-- Node3&#45;&gt;Node1 -->
<g id="edge2" class="edge"><title>Node3&#45;&gt;Node1</title>
<path fill="none" stroke="midnightblue" d="M145.054,-62.4551C163.133,-49.3431 189.111,-30.5016 204.1,-19.6305"/>
<polygon fill="midnightblue" stroke="midnightblue" points="142.937,-59.6672 136.897,-68.3717 147.047,-65.3338 142.937,-59.6672"/>
</g>
<!-- Node4 -->
<g id="node4" class="node"><title>Node4</title>
<g id="a_node4"><a xlink:title="STL class. ">
<polygon fill="none" stroke="#bfbfbf" points="180.5,-68.5 180.5,-87.5 251.5,-87.5 251.5,-68.5 180.5,-68.5"/>
<text text-anchor="middle" x="216" y="-75.5" font-family="Helvetica,sans-Serif" font-size="10.00">stringstream</text>
</a>
</g>
</g>
<!-- Node4&#45;&gt;Node1 -->
<g id="edge3" class="edge"><title>Node4&#45;&gt;Node1</title>
<path fill="none" stroke="#9a32cd" stroke-dasharray="5,2" d="M216,-58.0413C216,-45.4724 216,-29.5631 216,-19.8411"/>
<polygon fill="#9a32cd" stroke="#9a32cd" points="212.5,-58.3716 216,-68.3717 219.5,-58.3717 212.5,-58.3716"/>
<text text-anchor="middle" x="223" y="-41.5" font-family="Helvetica,sans-Serif" font-size="10.00"> ss</text>
</g>
<!-- Node5 -->
<g id="node5" class="node"><title>Node5</title>
<g id="a_node5"><a xlink:title="STL class. ">
<polygon fill="none" stroke="#bfbfbf" points="130.5,-145 130.5,-175 229.5,-175 229.5,-145 130.5,-145"/>
<text text-anchor="start" x="138.5" y="-163" font-family="Helvetica,sans-Serif" font-size="10.00">basic_stringstream</text>
<text text-anchor="middle" x="180" y="-152" font-family="Helvetica,sans-Serif" font-size="10.00">&lt; char &gt;</text>
</a>
</g>
</g>
<!-- Node5&#45;&gt;Node4 -->
<g id="edge4" class="edge"><title>Node5&#45;&gt;Node4</title>
<path fill="none" stroke="midnightblue" d="M190.626,-135.386C197.837,-119.363 206.956,-99.0981 212.066,-87.7424"/>
<polygon fill="midnightblue" stroke="midnightblue" points="187.348,-134.142 186.436,-144.698 193.732,-137.015 187.348,-134.142"/>
</g>
<!-- Node6 -->
<g id="node6" class="node"><title>Node6</title>
<g id="a_node6"><a xlink:title="STL class. ">
<polygon fill="none" stroke="#bfbfbf" points="88,-224.5 88,-243.5 210,-243.5 210,-224.5 88,-224.5"/>
<text text-anchor="middle" x="149" y="-231.5" font-family="Helvetica,sans-Serif" font-size="10.00">basic_iostream&lt; Char &gt;</text>
</a>
</g>
</g>
<!-- Node6&#45;&gt;Node5 -->
<g id="edge5" class="edge"><title>Node6&#45;&gt;Node5</title>
<path fill="none" stroke="midnightblue" d="M156.662,-215.204C161.968,-202.882 168.936,-186.698 173.873,-175.232"/>
<polygon fill="midnightblue" stroke="midnightblue" points="153.418,-213.889 152.678,-224.458 159.847,-216.657 153.418,-213.889"/>
</g>
<!-- Node7 -->
<g id="node7" class="node"><title>Node7</title>
<g id="a_node7"><a xlink:title="STL class. ">
<polygon fill="none" stroke="#bfbfbf" points="91,-282.5 91,-301.5 207,-301.5 207,-282.5 91,-282.5"/>
<text text-anchor="middle" x="149" y="-289.5" font-family="Helvetica,sans-Serif" font-size="10.00">basic_istream&lt; Char &gt;</text>
</a>
</g>
</g>
<!-- Node7&#45;&gt;Node6 -->
<g id="edge6" class="edge"><title>Node7&#45;&gt;Node6</title>
<path fill="none" stroke="midnightblue" d="M149,-271.953C149,-262.287 149,-251.031 149,-243.505"/>
<polygon fill="midnightblue" stroke="midnightblue" points="145.5,-272.25 149,-282.25 152.5,-272.25 145.5,-272.25"/>
</g>
<!-- Node8 -->
<g id="node8" class="node"><title>Node8</title>
<g id="a_node8"><a xlink:title="STL class. ">
<polygon fill="none" stroke="#bfbfbf" points="181.5,-340.5 181.5,-359.5 278.5,-359.5 278.5,-340.5 181.5,-340.5"/>
<text text-anchor="middle" x="230" y="-347.5" font-family="Helvetica,sans-Serif" font-size="10.00">basic_ios&lt; Char &gt;</text>
</a>
</g>
</g>
<!-- Node8&#45;&gt;Node7 -->
<g id="edge7" class="edge"><title>Node8&#45;&gt;Node7</title>
<path fill="none" stroke="midnightblue" d="M209.445,-334.789C194.298,-324.317 174.189,-310.415 161.418,-301.585"/>
<polygon fill="midnightblue" stroke="midnightblue" points="207.482,-337.687 217.698,-340.495 211.463,-331.929 207.482,-337.687"/>
</g>
<!-- Node10 -->
<g id="node10" class="node"><title>Node10</title>
<g id="a_node10"><a xlink:title="STL class. ">
<polygon fill="none" stroke="#bfbfbf" points="225.5,-282.5 225.5,-301.5 344.5,-301.5 344.5,-282.5 225.5,-282.5"/>
<text text-anchor="middle" x="285" y="-289.5" font-family="Helvetica,sans-Serif" font-size="10.00">basic_ostream&lt; Char &gt;</text>
</a>
</g>
</g>
<!-- Node8&#45;&gt;Node10 -->
<g id="edge10" class="edge"><title>Node8&#45;&gt;Node10</title>
<path fill="none" stroke="midnightblue" d="M245.673,-333.042C255.753,-322.779 268.452,-309.849 276.647,-301.505"/>
<polygon fill="midnightblue" stroke="midnightblue" points="243.104,-330.663 238.594,-340.25 248.098,-335.568 243.104,-330.663"/>
</g>
<!-- Node9 -->
<g id="node9" class="node"><title>Node9</title>
<g id="a_node9"><a xlink:title="STL class. ">
<polygon fill="none" stroke="#bfbfbf" points="202,-398.5 202,-417.5 258,-417.5 258,-398.5 202,-398.5"/>
<text text-anchor="middle" x="230" y="-405.5" font-family="Helvetica,sans-Serif" font-size="10.00">ios_base</text>
</a>
</g>
</g>
<!-- Node9&#45;&gt;Node8 -->
<g id="edge8" class="edge"><title>Node9&#45;&gt;Node8</title>
<path fill="none" stroke="midnightblue" d="M230,-387.953C230,-378.287 230,-367.031 230,-359.505"/>
<polygon fill="midnightblue" stroke="midnightblue" points="226.5,-388.25 230,-398.25 233.5,-388.25 226.5,-388.25"/>
</g>
<!-- Node10&#45;&gt;Node6 -->
<g id="edge9" class="edge"><title>Node10&#45;&gt;Node6</title>
<path fill="none" stroke="midnightblue" d="M255.027,-278.658C229.203,-268.025 192.595,-252.951 169.85,-243.585"/>
<polygon fill="midnightblue" stroke="midnightblue" points="253.765,-281.924 264.345,-282.495 256.43,-275.451 253.765,-281.924"/>
</g>
<!-- Node12 -->
<g id="node12" class="node"><title>Node12</title>
<g id="a_node12"><a xlink:title="STL class. ">
<polygon fill="none" stroke="#bfbfbf" points="228,-224.5 228,-243.5 348,-243.5 348,-224.5 228,-224.5"/>
<text text-anchor="middle" x="288" y="-231.5" font-family="Helvetica,sans-Serif" font-size="10.00">basic_ofstream&lt; char &gt;</text>
</a>
</g>
</g>
<!-- Node10&#45;&gt;Node12 -->
<g id="edge13" class="edge"><title>Node10&#45;&gt;Node12</title>
<path fill="none" stroke="midnightblue" d="M286.02,-271.953C286.538,-262.287 287.141,-251.031 287.544,-243.505"/>
<polygon fill="midnightblue" stroke="midnightblue" points="282.509,-272.077 285.469,-282.25 289.499,-272.452 282.509,-272.077"/>
</g>
<!-- Node11 -->
<g id="node11" class="node"><title>Node11</title>
<g id="a_node11"><a xlink:title="STL class. ">
<polygon fill="none" stroke="#bfbfbf" points="260.5,-106.5 260.5,-125.5 315.5,-125.5 315.5,-106.5 260.5,-106.5"/>
<text text-anchor="middle" x="288" y="-113.5" font-family="Helvetica,sans-Serif" font-size="10.00">ofstream</text>
</a>
</g>
</g>
<!-- Node11&#45;&gt;Node1 -->
<g id="edge11" class="edge"><title>Node11&#45;&gt;Node1</title>
<path fill="none" stroke="#9a32cd" stroke-dasharray="5,2" d="M278.361,-97.7033C273.172,-88.6873 266.512,-77.5736 260,-68 247.906,-50.2213 232.201,-30.602 223.197,-19.641"/>
<polygon fill="#9a32cd" stroke="#9a32cd" points="275.365,-99.5152 283.339,-106.491 281.456,-96.0651 275.365,-99.5152"/>
<text text-anchor="middle" x="288" y="-75.5" font-family="Helvetica,sans-Serif" font-size="10.00"> outfile</text>
</g>
<!-- Node12&#45;&gt;Node11 -->
<g id="edge12" class="edge"><title>Node12&#45;&gt;Node11</title>
<path fill="none" stroke="midnightblue" d="M288,-214.025C288,-188.464 288,-144.041 288,-125.505"/>
<polygon fill="midnightblue" stroke="midnightblue" points="284.5,-214.281 288,-224.281 291.5,-214.281 284.5,-214.281"/>
</g>
<!-- Node13 -->
<g id="node13" class="node"><title>Node13</title>
<polygon fill="none" stroke="#bfbfbf" points="336,-68.5 336,-87.5 426,-87.5 426,-68.5 336,-68.5"/>
<text text-anchor="middle" x="381" y="-75.5" font-family="Helvetica,sans-Serif" font-size="10.00">vector&lt; double &gt;</text>
</g>
<!-- Node13&#45;&gt;Node1 -->
<g id="edge14" class="edge"><title>Node13&#45;&gt;Node1</title>
<path fill="none" stroke="#9a32cd" stroke-dasharray="5,2" d="M356.426,-63.6431C341.056,-55.5987 320.693,-45.4963 302,-38 284.28,-30.8938 263.918,-24.4287 247.456,-19.6075"/>
<polygon fill="#9a32cd" stroke="#9a32cd" points="354.817,-66.7514 365.291,-68.3443 358.096,-60.5672 354.817,-66.7514"/>
<text text-anchor="middle" x="343" y="-41.5" font-family="Helvetica,sans-Serif" font-size="10.00"> tNext</text>
</g>
<!-- Node14 -->
<g id="node14" class="node"><title>Node14</title>
<g id="a_node14"><a xlink:title="STL class. ">
<polygon fill="none" stroke="#bfbfbf" points="347,-150.5 347,-169.5 415,-169.5 415,-150.5 347,-150.5"/>
<text text-anchor="middle" x="381" y="-157.5" font-family="Helvetica,sans-Serif" font-size="10.00">vector&lt; T &gt;</text>
</a>
</g>
</g>
<!-- Node14&#45;&gt;Node13 -->
<g id="edge15" class="edge"><title>Node14&#45;&gt;Node13</title>
<path fill="none" stroke="orange" stroke-dasharray="5,2" d="M381,-140.289C381,-123.726 381,-100.293 381,-87.7424"/>
<polygon fill="orange" stroke="orange" points="377.5,-140.439 381,-150.439 384.5,-140.439 377.5,-140.439"/>
<text text-anchor="middle" x="406" y="-113.5" font-family="Helvetica,sans-Serif" font-size="10.00"> &lt; double &gt;</text>
</g>
<!-- Node15 -->
<g id="node15" class="node"><title>Node15</title>
<polygon fill="none" stroke="#bfbfbf" points="366.5,-224.5 366.5,-243.5 395.5,-243.5 395.5,-224.5 366.5,-224.5"/>
<text text-anchor="middle" x="381" y="-231.5" font-family="Helvetica,sans-Serif" font-size="10.00">T</text>
</g>
<!-- Node15&#45;&gt;Node14 -->
<g id="edge16" class="edge"><title>Node15&#45;&gt;Node14</title>
<path fill="none" stroke="#9a32cd" stroke-dasharray="5,2" d="M381,-214.156C381,-199.712 381,-180.459 381,-169.531"/>
<polygon fill="#9a32cd" stroke="#9a32cd" points="377.5,-214.458 381,-224.458 384.5,-214.458 377.5,-214.458"/>
<text text-anchor="middle" x="402.5" y="-197.5" font-family="Helvetica,sans-Serif" font-size="10.00"> elements</text>
</g>
</g>
</svg>
