<?xml version="1.0" encoding="UTF-8" standalone="no"?>
<!DOCTYPE svg PUBLIC "-//W3C//DTD SVG 1.1//EN"
 "http://www.w3.org/Graphics/SVG/1.1/DTD/svg11.dtd">
<!-- Generated by graphviz version 2.30.1 (20150305.2338)
 -->
<!-- Title: z Pages: 1 -->
<svg width="530pt" height="684pt"
 viewBox="0.00 0.00 530.00 684.00" xmlns="http://www.w3.org/2000/svg" xmlns:xlink="http://www.w3.org/1999/xlink">
<g id="graph0" class="graph" transform="scale(1 1) rotate(0) translate(4 680)">
<title>z</title>
<!-- Node1 -->
<g id="node1" class="node"><title>Node1</title>
<polygon fill="#bfbfbf" stroke="black" points="0.5,-328.5 0.5,-347.5 29.5,-347.5 29.5,-328.5 0.5,-328.5"/>
<text text-anchor="middle" x="15" y="-335.5" font-family="Helvetica,sans-Serif" font-size="10.00">z</text>
</g>
<!-- Node2 -->
<g id="node2" class="node"><title>Node2</title>
<g id="a_node2"><a xlink:href="classSolverUtils_1_1GeoPrim_1_1C3Box_a803141ec9e3c47cecadc8a539f918659.html#a803141ec9e3c47cecadc8a539f918659" target="_top" xlink:title="SolverUtils::GeoPrim\l::C3Box::AddPoint">
<polygon fill="none" stroke="black" points="81.5,-646 81.5,-676 190.5,-676 190.5,-646 81.5,-646"/>
<text text-anchor="start" x="89.5" y="-664" font-family="Helvetica,sans-Serif" font-size="10.00">SolverUtils::GeoPrim</text>
<text text-anchor="middle" x="136" y="-653" font-family="Helvetica,sans-Serif" font-size="10.00">::C3Box::AddPoint</text>
</a>
</g>
</g>
<!-- Node1&#45;&gt;Node2 -->
<g id="edge1" class="edge"><title>Node1&#45;&gt;Node2</title>
<path fill="none" stroke="midnightblue" d="M16.7916,-358.099C19.5352,-417.936 30.5021,-593.4 66,-636 70.2414,-641.09 75.6066,-645.144 81.4641,-648.372"/>
<polygon fill="midnightblue" stroke="midnightblue" points="20.273,-357.588 16.3477,-347.747 13.2794,-357.888 20.273,-357.588"/>
</g>
<!-- Node3 -->
<g id="node3" class="node"><title>Node3</title>
<g id="a_node3"><a xlink:href="classSolverUtils_1_1GeoPrim_1_1C3Box_a165c5a1ae5433f9c5f210e5ccaf83305.html#a165c5a1ae5433f9c5f210e5ccaf83305" target="_top" xlink:title="SolverUtils::GeoPrim\l::C3Box::around">
<polygon fill="none" stroke="black" points="81.5,-597 81.5,-627 190.5,-627 190.5,-597 81.5,-597"/>
<text text-anchor="start" x="89.5" y="-615" font-family="Helvetica,sans-Serif" font-size="10.00">SolverUtils::GeoPrim</text>
<text text-anchor="middle" x="136" y="-604" font-family="Helvetica,sans-Serif" font-size="10.00">::C3Box::around</text>
</a>
</g>
</g>
<!-- Node1&#45;&gt;Node3 -->
<g id="edge2" class="edge"><title>Node1&#45;&gt;Node3</title>
<path fill="none" stroke="midnightblue" d="M17.5038,-357.852C21.8723,-410.561 36.1882,-552.364 66,-587 70.239,-591.925 75.5275,-595.88 81.2791,-599.056"/>
<polygon fill="midnightblue" stroke="midnightblue" points="20.9835,-357.456 16.7007,-347.766 14.0056,-358.012 20.9835,-357.456"/>
</g>
<!-- Node4 -->
<g id="node4" class="node"><title>Node4</title>
<g id="a_node4"><a xlink:href="classSolverUtils_1_1GeoPrim_1_1C3Box_aeef7ded80e3429dc05835f53aa0e8816.html#aeef7ded80e3429dc05835f53aa0e8816" target="_top" xlink:title="SolverUtils::GeoPrim\l::C3Box::C3Box">
<polygon fill="none" stroke="black" points="81.5,-548 81.5,-578 190.5,-578 190.5,-548 81.5,-548"/>
<text text-anchor="start" x="89.5" y="-566" font-family="Helvetica,sans-Serif" font-size="10.00">SolverUtils::GeoPrim</text>
<text text-anchor="middle" x="136" y="-555" font-family="Helvetica,sans-Serif" font-size="10.00">::C3Box::C3Box</text>
</a>
</g>
</g>
<!-- Node1&#45;&gt;Node4 -->
<g id="edge3" class="edge"><title>Node1&#45;&gt;Node4</title>
<path fill="none" stroke="midnightblue" d="M15.1982,-357.967C14.7185,-397.47 19.3,-486.243 66,-538 70.3531,-542.824 75.7102,-546.719 81.4986,-549.862"/>
<polygon fill="midnightblue" stroke="midnightblue" points="18.7015,-357.876 15.4526,-347.792 11.7037,-357.701 18.7015,-357.876"/>
</g>
<!-- Node5 -->
<g id="node5" class="node"><title>Node5</title>
<g id="a_node5"><a xlink:href="classSolverUtils_1_1GeoPrim_1_1C3Plane_aba3e4120cb4b5b32164cddf75c28b014.html#aba3e4120cb4b5b32164cddf75c28b014" target="_top" xlink:title="SolverUtils::GeoPrim\l::C3Plane::C3Plane">
<polygon fill="none" stroke="black" points="81.5,-499 81.5,-529 190.5,-529 190.5,-499 81.5,-499"/>
<text text-anchor="start" x="89.5" y="-517" font-family="Helvetica,sans-Serif" font-size="10.00">SolverUtils::GeoPrim</text>
<text text-anchor="middle" x="136" y="-506" font-family="Helvetica,sans-Serif" font-size="10.00">::C3Plane::C3Plane</text>
</a>
</g>
</g>
<!-- Node1&#45;&gt;Node5 -->
<g id="edge4" class="edge"><title>Node1&#45;&gt;Node5</title>
<path fill="none" stroke="midnightblue" d="M17.1735,-357.822C20.1038,-389.659 30.3337,-452.326 66,-489 70.4415,-493.567 75.7803,-497.304 81.4962,-500.36"/>
<polygon fill="midnightblue" stroke="midnightblue" points="20.6436,-357.296 16.3906,-347.592 13.664,-357.83 20.6436,-357.296"/>
</g>
<!-- Node6 -->
<g id="node6" class="node"><title>Node6</title>
<g id="a_node6"><a xlink:href="classSolverUtils_1_1GeoPrim_1_1C3Point_a67964281ddda52ddf91bf042e38b2ca5.html#a67964281ddda52ddf91bf042e38b2ca5" target="_top" xlink:title="C3Point">
<polygon fill="none" stroke="black" points="110,-460.5 110,-479.5 162,-479.5 162,-460.5 110,-460.5"/>
<text text-anchor="middle" x="136" y="-467.5" font-family="Helvetica,sans-Serif" font-size="10.00">C3Point</text>
</a>
</g>
</g>
<!-- Node1&#45;&gt;Node6 -->
<g id="edge5" class="edge"><title>Node1&#45;&gt;Node6</title>
<path fill="none" stroke="midnightblue" d="M19.4828,-357.528C24.969,-382.562 38.0243,-425.635 66,-450 78.1328,-460.567 95.5586,-465.563 109.862,-467.919"/>
<polygon fill="midnightblue" stroke="midnightblue" points="22.9141,-356.837 17.5206,-347.718 16.0501,-358.21 22.9141,-356.837"/>
</g>
<!-- Node7 -->
<g id="node7" class="node"><title>Node7</title>
<g id="a_node7"><a xlink:href="classSolverUtils_1_1GeoPrim_1_1C3Vector_ab2f235e3f05015ee2c028f884ba735b5.html#ab2f235e3f05015ee2c028f884ba735b5" target="_top" xlink:title="SolverUtils::GeoPrim\l::C3Vector::C3Vector">
<polygon fill="none" stroke="black" points="80.5,-411 80.5,-441 191.5,-441 191.5,-411 80.5,-411"/>
<text text-anchor="start" x="88.5" y="-429" font-family="Helvetica,sans-Serif" font-size="10.00">SolverUtils::GeoPrim</text>
<text text-anchor="middle" x="136" y="-418" font-family="Helvetica,sans-Serif" font-size="10.00">::C3Vector::C3Vector</text>
</a>
</g>
</g>
<!-- Node1&#45;&gt;Node7 -->
<g id="edge6" class="edge"><title>Node1&#45;&gt;Node7</title>
<path fill="none" stroke="midnightblue" d="M28.2599,-356.132C37.4611,-368.648 51.0111,-384.962 66,-396 73.8887,-401.809 83.0774,-406.789 92.1274,-410.928"/>
<polygon fill="midnightblue" stroke="midnightblue" points="31.007,-353.955 22.3702,-347.818 25.2952,-358.001 31.007,-353.955"/>
</g>
<!-- Node8 -->
<g id="node8" class="node"><title>Node8</title>
<g id="a_node8"><a xlink:href="classSolverUtils_1_1GeoPrim_1_1C3Box_a76dbf3fef6fb39f4372772c9175118bb.html#a76dbf3fef6fb39f4372772c9175118bb" target="_top" xlink:title="SolverUtils::GeoPrim\l::C3Box::collide">
<polygon fill="none" stroke="black" points="252.5,-279 252.5,-309 361.5,-309 361.5,-279 252.5,-279"/>
<text text-anchor="start" x="260.5" y="-297" font-family="Helvetica,sans-Serif" font-size="10.00">SolverUtils::GeoPrim</text>
<text text-anchor="middle" x="307" y="-286" font-family="Helvetica,sans-Serif" font-size="10.00">::C3Box::collide</text>
</a>
</g>
</g>
<!-- Node1&#45;&gt;Node8 -->
<g id="edge7" class="edge"><title>Node1&#45;&gt;Node8</title>
<path fill="none" stroke="midnightblue" d="M38.9243,-324.836C47.2032,-320.671 56.7837,-316.504 66,-314 128.338,-297.061 202.847,-293.283 252.132,-292.95"/>
<polygon fill="midnightblue" stroke="midnightblue" points="37.0949,-321.844 29.9032,-329.624 40.377,-328.027 37.0949,-321.844"/>
</g>
<!-- Node10 -->
<g id="node10" class="node"><title>Node10</title>
<g id="a_node10"><a xlink:href="classSolverUtils_1_1GeoPrim_1_1C3Box_a97bfe4df560febef0415bc7dee6687a9.html#a97bfe4df560febef0415bc7dee6687a9" target="_top" xlink:title="SolverUtils::GeoPrim\l::C3Box::contains">
<polygon fill="none" stroke="black" points="81.5,-323 81.5,-353 190.5,-353 190.5,-323 81.5,-323"/>
<text text-anchor="start" x="89.5" y="-341" font-family="Helvetica,sans-Serif" font-size="10.00">SolverUtils::GeoPrim</text>
<text text-anchor="middle" x="136" y="-330" font-family="Helvetica,sans-Serif" font-size="10.00">::C3Box::contains</text>
</a>
</g>
</g>
<!-- Node1&#45;&gt;Node10 -->
<g id="edge9" class="edge"><title>Node1&#45;&gt;Node10</title>
<path fill="none" stroke="midnightblue" d="M39.6961,-338C51.692,-338 66.7792,-338 81.3882,-338"/>
<polygon fill="midnightblue" stroke="midnightblue" points="39.6508,-334.5 29.6508,-338 39.6508,-341.5 39.6508,-334.5"/>
</g>
<!-- Node11 -->
<g id="node11" class="node"><title>Node11</title>
<g id="a_node11"><a xlink:href="classSolverUtils_1_1GeoPrim_1_1C3Plane_ac3d2bce934ff081508310b330abc9746.html#ac3d2bce934ff081508310b330abc9746" target="_top" xlink:title="SolverUtils::GeoPrim\l::C3Plane::contains_point">
<polygon fill="none" stroke="black" points="242.5,-120 242.5,-150 371.5,-150 371.5,-120 242.5,-120"/>
<text text-anchor="start" x="250.5" y="-138" font-family="Helvetica,sans-Serif" font-size="10.00">SolverUtils::GeoPrim</text>
<text text-anchor="middle" x="307" y="-127" font-family="Helvetica,sans-Serif" font-size="10.00">::C3Plane::contains_point</text>
</a>
</g>
</g>
<!-- Node1&#45;&gt;Node11 -->
<g id="edge10" class="edge"><title>Node1&#45;&gt;Node11</title>
<path fill="none" stroke="midnightblue" d="M19.4685,-318.456C24.9393,-293.404 37.9778,-250.311 66,-226 114.88,-183.593 145.784,-209.7 206,-186 231.932,-175.794 260.096,-161.076 279.907,-150.072"/>
<polygon fill="midnightblue" stroke="midnightblue" points="16.0341,-317.782 17.513,-328.273 22.8992,-319.15 16.0341,-317.782"/>
</g>
<!-- Node13 -->
<g id="node13" class="node"><title>Node13</title>
<g id="a_node13"><a xlink:href="classSolverUtils_1_1GeoPrim_1_1C3Plane_a59d61124cf2c200bc9417c5e5f3ca029.html#a59d61124cf2c200bc9417c5e5f3ca029" target="_top" xlink:title="SolverUtils::GeoPrim\l::C3Plane::D">
<polygon fill="none" stroke="black" points="81.5,-49 81.5,-79 190.5,-79 190.5,-49 81.5,-49"/>
<text text-anchor="start" x="89.5" y="-67" font-family="Helvetica,sans-Serif" font-size="10.00">SolverUtils::GeoPrim</text>
<text text-anchor="middle" x="136" y="-56" font-family="Helvetica,sans-Serif" font-size="10.00">::C3Plane::D</text>
</a>
</g>
</g>
<!-- Node1&#45;&gt;Node13 -->
<g id="edge12" class="edge"><title>Node1&#45;&gt;Node13</title>
<path fill="none" stroke="midnightblue" d="M17.4398,-318.404C21.6854,-265.718 35.7956,-122.666 66,-88 70.2492,-83.1231 75.5439,-79.2368 81.2988,-76.14"/>
<polygon fill="midnightblue" stroke="midnightblue" points="13.9434,-318.223 16.6621,-328.463 20.9226,-318.763 13.9434,-318.223"/>
</g>
<!-- Node14 -->
<g id="node14" class="node"><title>Node14</title>
<g id="a_node14"><a xlink:href="classSolverUtils_1_1GeoPrim_1_1C3Box_ac6e61de369e994009e36f344f99c15ad.html#ac6e61de369e994009e36f344f99c15ad" target="_top" xlink:title="SolverUtils::GeoPrim\l::C3Box::empty">
<polygon fill="none" stroke="black" points="81.5,-235 81.5,-265 190.5,-265 190.5,-235 81.5,-235"/>
<text text-anchor="start" x="89.5" y="-253" font-family="Helvetica,sans-Serif" font-size="10.00">SolverUtils::GeoPrim</text>
<text text-anchor="middle" x="136" y="-242" font-family="Helvetica,sans-Serif" font-size="10.00">::C3Box::empty</text>
</a>
</g>
</g>
<!-- Node1&#45;&gt;Node14 -->
<g id="edge14" class="edge"><title>Node1&#45;&gt;Node14</title>
<path fill="none" stroke="midnightblue" d="M28.2599,-319.868C37.4611,-307.352 51.0111,-291.038 66,-280 73.8887,-274.191 83.0774,-269.211 92.1274,-265.072"/>
<polygon fill="midnightblue" stroke="midnightblue" points="25.2952,-317.999 22.3702,-328.182 31.007,-322.045 25.2952,-317.999"/>
</g>
<!-- Node15 -->
<g id="node15" class="node"><title>Node15</title>
<g id="a_node15"><a xlink:href="classSolverUtils_1_1GeoPrim_1_1C3LineSegment_acea406f3a19b37ff68662597c6466609.html#acea406f3a19b37ff68662597c6466609" target="_top" xlink:title="SolverUtils::GeoPrim\l::C3LineSegment::has_point">
<polygon fill="none" stroke="black" points="66,-147 66,-177 206,-177 206,-147 66,-147"/>
<text text-anchor="start" x="74" y="-165" font-family="Helvetica,sans-Serif" font-size="10.00">SolverUtils::GeoPrim</text>
<text text-anchor="middle" x="136" y="-154" font-family="Helvetica,sans-Serif" font-size="10.00">::C3LineSegment::has_point</text>
</a>
</g>
</g>
<!-- Node1&#45;&gt;Node15 -->
<g id="edge16" class="edge"><title>Node1&#45;&gt;Node15</title>
<path fill="none" stroke="midnightblue" d="M17.7334,-318.222C21.4182,-287.511 32.6478,-228.14 66,-192 71.5811,-185.952 78.5941,-181.065 85.9961,-177.132"/>
<polygon fill="midnightblue" stroke="midnightblue" points="14.2198,-318.171 16.6602,-328.48 21.1818,-318.899 14.2198,-318.171"/>
</g>
<!-- Node16 -->
<g id="node16" class="node"><title>Node16</title>
<g id="a_node16"><a xlink:href="classSolverUtils_1_1GeoPrim_1_1C3Box_a8c3f81df6348bbe00b4dc2d0206ba1bf.html#a8c3f81df6348bbe00b4dc2d0206ba1bf" target="_top" xlink:title="SolverUtils::GeoPrim\l::C3Box::init">
<polygon fill="none" stroke="black" points="81.5,-98 81.5,-128 190.5,-128 190.5,-98 81.5,-98"/>
<text text-anchor="start" x="89.5" y="-116" font-family="Helvetica,sans-Serif" font-size="10.00">SolverUtils::GeoPrim</text>
<text text-anchor="middle" x="136" y="-105" font-family="Helvetica,sans-Serif" font-size="10.00">::C3Box::init</text>
</a>
</g>
</g>
<!-- Node1&#45;&gt;Node16 -->
<g id="edge17" class="edge"><title>Node1&#45;&gt;Node16</title>
<path fill="none" stroke="midnightblue" d="M15.1085,-317.884C14.4682,-278.094 18.7769,-188.725 66,-137 70.2757,-132.317 75.5134,-128.547 81.1741,-125.513"/>
<polygon fill="midnightblue" stroke="midnightblue" points="11.6172,-318.24 15.4062,-328.134 18.6143,-318.036 11.6172,-318.24"/>
</g>
<!-- Node9 -->
<g id="node9" class="node"><title>Node9</title>
<g id="a_node9"><a xlink:href="classSolverUtils_1_1GeoPrim_1_1C3Box_a54258e31ce40e9ebdf2a389579d06942.html#a54258e31ce40e9ebdf2a389579d06942" target="_top" xlink:title="SolverUtils::GeoPrim\l::C3Box::intersect">
<polygon fill="none" stroke="black" points="410.5,-323 410.5,-353 519.5,-353 519.5,-323 410.5,-323"/>
<text text-anchor="start" x="418.5" y="-341" font-family="Helvetica,sans-Serif" font-size="10.00">SolverUtils::GeoPrim</text>
<text text-anchor="middle" x="465" y="-330" font-family="Helvetica,sans-Serif" font-size="10.00">::C3Box::intersect</text>
</a>
</g>
</g>
<!-- Node1&#45;&gt;Node9 -->
<g id="edge18" class="edge"><title>Node1&#45;&gt;Node9</title>
<path fill="none" stroke="midnightblue" d="M38.8161,-351.598C47.0854,-355.801 56.6876,-359.881 66,-362 186.82,-389.495 333.266,-366.806 410.431,-350.67"/>
<polygon fill="midnightblue" stroke="midnightblue" points="40.277,-348.409 29.818,-346.717 36.9395,-354.562 40.277,-348.409"/>
</g>
<!-- Node17 -->
<g id="node17" class="node"><title>Node17</title>
<g id="a_node17"><a xlink:href="classSolverUtils_1_1GeoPrim_1_1C3Box_a269d52d2a52f04bda36a5667e6d44f4c.html#a269d52d2a52f04bda36a5667e6d44f4c" target="_top" xlink:title="SolverUtils::GeoPrim\l::C3Box::merge">
<polygon fill="none" stroke="black" points="81.5,-0 81.5,-30 190.5,-30 190.5,-0 81.5,-0"/>
<text text-anchor="start" x="89.5" y="-18" font-family="Helvetica,sans-Serif" font-size="10.00">SolverUtils::GeoPrim</text>
<text text-anchor="middle" x="136" y="-7" font-family="Helvetica,sans-Serif" font-size="10.00">::C3Box::merge</text>
</a>
</g>
</g>
<!-- Node1&#45;&gt;Node17 -->
<g id="edge19" class="edge"><title>Node1&#45;&gt;Node17</title>
<path fill="none" stroke="midnightblue" d="M16.7407,-318.187C19.3588,-258.452 30.0488,-81.607 66,-39 70.2532,-33.9594 75.6254,-29.9763 81.4866,-26.8291"/>
<polygon fill="midnightblue" stroke="midnightblue" points="13.2424,-318.075 16.3305,-328.21 20.2366,-318.362 13.2424,-318.075"/>
</g>
<!-- Node8&#45;&gt;Node9 -->
<g id="edge8" class="edge"><title>Node8&#45;&gt;Node9</title>
<path fill="none" stroke="midnightblue" d="M371.151,-311.812C384.281,-315.515 397.993,-319.383 410.725,-322.974"/>
<polygon fill="midnightblue" stroke="midnightblue" points="371.825,-308.365 361.25,-309.019 369.924,-315.102 371.825,-308.365"/>
</g>
<!-- Node12 -->
<g id="node12" class="node"><title>Node12</title>
<g id="a_node12"><a xlink:href="classSolverUtils_1_1GeoPrim_1_1C3Plane_aefbe051711c8b698dc5f7a484ba83d82.html#aefbe051711c8b698dc5f7a484ba83d82" target="_top" xlink:title="SolverUtils::GeoPrim\l::C3Plane::operator==">
<polygon fill="none" stroke="black" points="408.5,-120 408.5,-150 521.5,-150 521.5,-120 408.5,-120"/>
<text text-anchor="start" x="416.5" y="-138" font-family="Helvetica,sans-Serif" font-size="10.00">SolverUtils::GeoPrim</text>
<text text-anchor="middle" x="465" y="-127" font-family="Helvetica,sans-Serif" font-size="10.00">::C3Plane::operator==</text>
</a>
</g>
</g>
<!-- Node11&#45;&gt;Node12 -->
<g id="edge11" class="edge"><title>Node11&#45;&gt;Node12</title>
<path fill="none" stroke="midnightblue" d="M381.921,-135C390.845,-135 399.84,-135 408.437,-135"/>
<polygon fill="midnightblue" stroke="midnightblue" points="381.901,-131.5 371.901,-135 381.901,-138.5 381.901,-131.5"/>
</g>
<!-- Node13&#45;&gt;Node11 -->
<g id="edge13" class="edge"><title>Node13&#45;&gt;Node11</title>
<path fill="none" stroke="midnightblue" d="M192.181,-82.613C196.879,-84.3729 201.537,-86.1808 206,-88 229.981,-97.7751 256.479,-110.311 276.17,-119.977"/>
<polygon fill="midnightblue" stroke="midnightblue" points="193.128,-79.2325 182.534,-79.0797 190.72,-85.8055 193.128,-79.2325"/>
</g>
<!-- Node14&#45;&gt;Node8 -->
<g id="edge15" class="edge"><title>Node14&#45;&gt;Node8</title>
<path fill="none" stroke="midnightblue" d="M200.771,-266.603C217.745,-271.022 235.909,-275.751 252.285,-280.015"/>
<polygon fill="midnightblue" stroke="midnightblue" points="201.497,-263.175 190.937,-264.043 199.733,-269.95 201.497,-263.175"/>
</g>
</g>
</svg>
