<?xml version="1.0" encoding="UTF-8" standalone="no"?>
<!DOCTYPE svg PUBLIC "-//W3C//DTD SVG 1.1//EN"
 "http://www.w3.org/Graphics/SVG/1.1/DTD/svg11.dtd">
<!-- Generated by graphviz version 2.30.1 (20150305.2338)
 -->
<!-- Title: Test__TrapezoidQuadrature Pages: 1 -->
<svg width="290pt" height="136pt"
 viewBox="0.00 0.00 290.00 136.00" xmlns="http://www.w3.org/2000/svg" xmlns:xlink="http://www.w3.org/1999/xlink">
<g id="graph0" class="graph" transform="scale(1 1) rotate(0) translate(4 132)">
<title>Test__TrapezoidQuadrature</title>
<!-- Node1 -->
<g id="node1" class="node"><title>Node1</title>
<polygon fill="#bfbfbf" stroke="black" points="0.5,-54.5 0.5,-73.5 137.5,-73.5 137.5,-54.5 0.5,-54.5"/>
<text text-anchor="middle" x="69" y="-61.5" font-family="Helvetica,sans-Serif" font-size="10.00">Test__TrapezoidQuadrature</text>
</g>
<!-- Node2 -->
<g id="node2" class="node"><title>Node2</title>
<g id="a_node2"><a xlink:href="namespaceElmerModuleDriver_1_1TestFixture_a2b09de3be217e128933f09f43f9d7160.html#a2b09de3be217e128933f09f43f9d7160" target="_top" xlink:title="Simple test function fixture returns . ">
<polygon fill="none" stroke="black" points="175,-98 175,-128 281,-128 281,-98 175,-98"/>
<text text-anchor="start" x="183" y="-116" font-family="Helvetica,sans-Serif" font-size="10.00">ElmerModuleDriver::</text>
<text text-anchor="middle" x="228" y="-105" font-family="Helvetica,sans-Serif" font-size="10.00">TestFixture::F1</text>
</a>
</g>
</g>
<!-- Node1&#45;&gt;Node2 -->
<g id="edge1" class="edge"><title>Node1&#45;&gt;Node2</title>
<path fill="none" stroke="midnightblue" d="M100.644,-73.564C120.087,-79.6321 145.863,-87.677 169.062,-94.9174"/>
<polygon fill="midnightblue" stroke="midnightblue" points="168.232,-98.3247 178.82,-97.963 170.317,-91.6426 168.232,-98.3247"/>
</g>
<!-- Node3 -->
<g id="node3" class="node"><title>Node3</title>
<g id="a_node3"><a xlink:href="namespaceElmerModuleDriver_1_1TestFixture_a79ce78283ad52a81c4107d6cdeb9337c.html#a79ce78283ad52a81c4107d6cdeb9337c" target="_top" xlink:title="Simple test function fixture returns . ">
<polygon fill="none" stroke="black" points="175,-49 175,-79 281,-79 281,-49 175,-49"/>
<text text-anchor="start" x="183" y="-67" font-family="Helvetica,sans-Serif" font-size="10.00">ElmerModuleDriver::</text>
<text text-anchor="middle" x="228" y="-56" font-family="Helvetica,sans-Serif" font-size="10.00">TestFixture::F2</text>
</a>
</g>
</g>
<!-- Node1&#45;&gt;Node3 -->
<g id="edge2" class="edge"><title>Node1&#45;&gt;Node3</title>
<path fill="none" stroke="midnightblue" d="M137.949,-64C146.765,-64 155.761,-64 164.483,-64"/>
<polygon fill="midnightblue" stroke="midnightblue" points="164.568,-67.5001 174.568,-64 164.568,-60.5001 164.568,-67.5001"/>
</g>
<!-- Node4 -->
<g id="node4" class="node"><title>Node4</title>
<g id="a_node4"><a xlink:href="namespaceElmerModuleDriver_a7ea1066c129172a0edf5647d8254e957.html#a7ea1066c129172a0edf5647d8254e957" target="_top" xlink:title="Integrates f with composite trapezoid rule. ">
<polygon fill="none" stroke="black" points="174.5,-0 174.5,-30 281.5,-30 281.5,-0 174.5,-0"/>
<text text-anchor="start" x="182.5" y="-18" font-family="Helvetica,sans-Serif" font-size="10.00">ElmerModuleDriver::</text>
<text text-anchor="middle" x="228" y="-7" font-family="Helvetica,sans-Serif" font-size="10.00">TrapezoidQuadrature</text>
</a>
</g>
</g>
<!-- Node1&#45;&gt;Node4 -->
<g id="edge3" class="edge"><title>Node1&#45;&gt;Node4</title>
<path fill="none" stroke="midnightblue" d="M100.644,-54.436C120.087,-48.3679 145.863,-40.323 169.062,-33.0826"/>
<polygon fill="midnightblue" stroke="midnightblue" points="170.317,-36.3574 178.82,-30.037 168.232,-29.6753 170.317,-36.3574"/>
</g>
</g>
</svg>
