<?xml version="1.0" encoding="UTF-8" standalone="no"?>
<!DOCTYPE svg PUBLIC "-//W3C//DTD SVG 1.1//EN"
 "http://www.w3.org/Graphics/SVG/1.1/DTD/svg11.dtd">
<!-- Generated by graphviz version 2.30.1 (20150305.2338)
 -->
<!-- Title: CreateUnstructuredMesh Pages: 1 -->
<svg width="388pt" height="126pt"
 viewBox="0.00 0.00 388.00 126.00" xmlns="http://www.w3.org/2000/svg" xmlns:xlink="http://www.w3.org/1999/xlink">
<g id="graph0" class="graph" transform="scale(1 1) rotate(0) translate(4 122)">
<title>CreateUnstructuredMesh</title>
<!-- Node1 -->
<g id="node1" class="node"><title>Node1</title>
<polygon fill="#bfbfbf" stroke="black" points="0,-49.5 0,-68.5 126,-68.5 126,-49.5 0,-49.5"/>
<text text-anchor="middle" x="63" y="-56.5" font-family="Helvetica,sans-Serif" font-size="10.00">CreateUnstructuredMesh</text>
</g>
<!-- Node2 -->
<g id="node2" class="node"><title>Node2</title>
<g id="a_node2"><a xlink:href="classSolverUtils_1_1Mesh_1_1Connectivity_accee58099f80bf9563feaab47f721134.html#accee58099f80bf9563feaab47f721134" target="_top" xlink:title="SolverUtils::Mesh::\lConnectivity::AddElement">
<polygon fill="none" stroke="black" points="162.5,-88 162.5,-118 293.5,-118 293.5,-88 162.5,-88"/>
<text text-anchor="start" x="170.5" y="-106" font-family="Helvetica,sans-Serif" font-size="10.00">SolverUtils::Mesh::</text>
<text text-anchor="middle" x="228" y="-95" font-family="Helvetica,sans-Serif" font-size="10.00">Connectivity::AddElement</text>
</a>
</g>
</g>
<!-- Node1&#45;&gt;Node2 -->
<g id="edge1" class="edge"><title>Node1&#45;&gt;Node2</title>
<path fill="none" stroke="midnightblue" d="M99.3686,-68.5473C117.475,-73.4349 140.11,-79.5451 161.271,-85.2571"/>
<polygon fill="midnightblue" stroke="midnightblue" points="160.623,-88.7075 171.19,-87.9346 162.447,-81.9494 160.623,-88.7075"/>
</g>
<!-- Node3 -->
<g id="node3" class="node"><title>Node3</title>
<g id="a_node3"><a xlink:href="classSolverUtils_1_1Mesh_1_1BSExtent_a77f23a4f2ffc868999f0484fa6a169b1.html#a77f23a4f2ffc868999f0484fa6a169b1" target="_top" xlink:title="GetFlatIndices">
<polygon fill="none" stroke="black" points="188,-49.5 188,-68.5 268,-68.5 268,-49.5 188,-49.5"/>
<text text-anchor="middle" x="228" y="-56.5" font-family="Helvetica,sans-Serif" font-size="10.00">GetFlatIndices</text>
</a>
</g>
</g>
<!-- Node1&#45;&gt;Node3 -->
<g id="edge2" class="edge"><title>Node1&#45;&gt;Node3</title>
<path fill="none" stroke="midnightblue" d="M126.088,-59C143.063,-59 161.23,-59 177.406,-59"/>
<polygon fill="midnightblue" stroke="midnightblue" points="177.716,-62.5001 187.716,-59 177.716,-55.5001 177.716,-62.5001"/>
</g>
<!-- Node6 -->
<g id="node6" class="node"><title>Node6</title>
<g id="a_node6"><a xlink:href="classSolverUtils_1_1Mesh_1_1Connectivity_a93098eecf20d66124bd7bc8370ebe52e.html#a93098eecf20d66124bd7bc8370ebe52e" target="_top" xlink:title="SolverUtils::Mesh::\lConnectivity::Sync">
<polygon fill="none" stroke="black" points="177.5,-0 177.5,-30 278.5,-30 278.5,-0 177.5,-0"/>
<text text-anchor="start" x="185.5" y="-18" font-family="Helvetica,sans-Serif" font-size="10.00">SolverUtils::Mesh::</text>
<text text-anchor="middle" x="228" y="-7" font-family="Helvetica,sans-Serif" font-size="10.00">Connectivity::Sync</text>
</a>
</g>
</g>
<!-- Node1&#45;&gt;Node6 -->
<g id="edge5" class="edge"><title>Node1&#45;&gt;Node6</title>
<path fill="none" stroke="midnightblue" d="M99.3686,-49.4527C119.359,-44.0565 144.871,-37.1699 167.823,-30.9742"/>
<polygon fill="midnightblue" stroke="midnightblue" points="168.737,-34.3528 177.479,-28.3676 166.913,-27.5947 168.737,-34.3528"/>
</g>
<!-- Node4 -->
<g id="node4" class="node"><title>Node4</title>
<g id="a_node4"><a xlink:href="classSolverUtils_1_1Mesh_1_1BSExtent_abf9d2711b9379e68847813b5f2e3c468.html#abf9d2711b9379e68847813b5f2e3c468" target="_top" xlink:title="dir_loop">
<polygon fill="none" stroke="black" points="330,-68.5 330,-87.5 380,-87.5 380,-68.5 330,-68.5"/>
<text text-anchor="middle" x="355" y="-75.5" font-family="Helvetica,sans-Serif" font-size="10.00">dir_loop</text>
</a>
</g>
</g>
<!-- Node3&#45;&gt;Node4 -->
<g id="edge3" class="edge"><title>Node3&#45;&gt;Node4</title>
<path fill="none" stroke="midnightblue" d="M268.208,-64.9596C284.771,-67.4771 303.88,-70.3818 319.854,-72.8098"/>
<polygon fill="midnightblue" stroke="midnightblue" points="319.427,-76.2851 329.84,-74.3276 320.479,-69.3646 319.427,-76.2851"/>
</g>
<!-- Node5 -->
<g id="node5" class="node"><title>Node5</title>
<g id="a_node5"><a xlink:href="classSolverUtils_1_1Mesh_1_1BSExtent_aa9e36fb52ae91b36740c55f7ba881f33.html#aa9e36fb52ae91b36740c55f7ba881f33" target="_top" xlink:title="ND">
<polygon fill="none" stroke="black" points="339,-30.5 339,-49.5 371,-49.5 371,-30.5 339,-30.5"/>
<text text-anchor="middle" x="355" y="-37.5" font-family="Helvetica,sans-Serif" font-size="10.00">ND</text>
</a>
</g>
</g>
<!-- Node3&#45;&gt;Node5 -->
<g id="edge4" class="edge"><title>Node3&#45;&gt;Node5</title>
<path fill="none" stroke="midnightblue" d="M268.208,-53.0404C288.012,-50.0303 311.456,-46.4667 328.828,-43.8261"/>
<polygon fill="midnightblue" stroke="midnightblue" points="329.413,-47.2776 338.773,-42.3145 328.361,-40.3571 329.413,-47.2776"/>
</g>
</g>
</svg>
