<?xml version="1.0" encoding="UTF-8" standalone="no"?>
<!DOCTYPE svg PUBLIC "-//W3C//DTD SVG 1.1//EN"
 "http://www.w3.org/Graphics/SVG/1.1/DTD/svg11.dtd">
<!-- Generated by graphviz version 2.30.1 (20150305.2338)
 -->
<!-- Title: Function Pages: 1 -->
<svg width="1916pt" height="419pt"
 viewBox="0.00 0.00 1916.00 419.00" xmlns="http://www.w3.org/2000/svg" xmlns:xlink="http://www.w3.org/1999/xlink">
<g id="graph0" class="graph" transform="scale(1 1) rotate(0) translate(4 415)">
<title>Function</title>
<!-- Node1 -->
<g id="node1" class="node"><title>Node1</title>
<polygon fill="#bfbfbf" stroke="black" points="519,-123.5 519,-142.5 573,-142.5 573,-123.5 519,-123.5"/>
<text text-anchor="middle" x="546" y="-130.5" font-family="Helvetica,sans-Serif" font-size="10.00">Function</text>
</g>
<!-- Node13 -->
<g id="node13" class="node"><title>Node13</title>
<polygon fill="none" stroke="#bfbfbf" points="728,-172.5 728,-191.5 868,-191.5 868,-172.5 728,-172.5"/>
<text text-anchor="middle" x="798" y="-179.5" font-family="Helvetica,sans-Serif" font-size="10.00">map&lt; std::string, Function &gt;</text>
</g>
<!-- Node1&#45;&gt;Node13 -->
<g id="edge17" class="edge"><title>Node1&#45;&gt;Node13</title>
<path fill="none" stroke="#9a32cd" stroke-dasharray="5,2" d="M583.31,-136.936C616.509,-140.868 666.862,-147.67 710,-157 729.354,-161.186 750.732,-167.308 767.453,-172.445"/>
<polygon fill="#9a32cd" stroke="#9a32cd" points="583.502,-133.435 573.165,-135.761 582.696,-140.388 583.502,-133.435"/>
<text text-anchor="middle" x="655" y="-160" font-family="Helvetica,sans-Serif" font-size="10.00"> elements</text>
</g>
<!-- Node2 -->
<g id="node2" class="node"><title>Node2</title>
<polygon fill="none" stroke="#bfbfbf" points="324,-67.5 324,-86.5 436,-86.5 436,-67.5 324,-67.5"/>
<text text-anchor="middle" x="380" y="-74.5" font-family="Helvetica,sans-Serif" font-size="10.00">vector&lt; COM_Type &gt;</text>
</g>
<!-- Node2&#45;&gt;Node1 -->
<g id="edge1" class="edge"><title>Node2&#45;&gt;Node1</title>
<path fill="none" stroke="#9a32cd" stroke-dasharray="5,2" d="M418.691,-89.8701C449.329,-100.332 491.761,-114.821 518.798,-124.053"/>
<polygon fill="#9a32cd" stroke="#9a32cd" points="419.787,-86.546 409.193,-86.6267 417.525,-93.1705 419.787,-86.546"/>
<text text-anchor="middle" x="473" y="-117" font-family="Helvetica,sans-Serif" font-size="10.00"> _types</text>
</g>
<!-- Node3 -->
<g id="node3" class="node"><title>Node3</title>
<g id="a_node3"><a xlink:title="STL class. ">
<polygon fill="none" stroke="#bfbfbf" points="129,-47.5 129,-66.5 197,-66.5 197,-47.5 129,-47.5"/>
<text text-anchor="middle" x="163" y="-54.5" font-family="Helvetica,sans-Serif" font-size="10.00">vector&lt; T &gt;</text>
</a>
</g>
</g>
<!-- Node3&#45;&gt;Node2 -->
<g id="edge2" class="edge"><title>Node3&#45;&gt;Node2</title>
<path fill="none" stroke="orange" stroke-dasharray="5,2" d="M207.509,-61.0474C241.002,-64.163 287.525,-68.4907 323.665,-71.8525"/>
<polygon fill="orange" stroke="orange" points="207.404,-57.5225 197.123,-60.0812 206.755,-64.4924 207.404,-57.5225"/>
<text text-anchor="middle" x="270" y="-72" font-family="Helvetica,sans-Serif" font-size="10.00"> &lt; COM_Type &gt;</text>
</g>
<!-- Node9 -->
<g id="node9" class="node"><title>Node9</title>
<polygon fill="none" stroke="#bfbfbf" points="1784.5,-55.5 1784.5,-74.5 1907.5,-74.5 1907.5,-55.5 1784.5,-55.5"/>
<text text-anchor="middle" x="1846" y="-62.5" font-family="Helvetica,sans-Serif" font-size="10.00">vector&lt; Connectivity * &gt;</text>
</g>
<!-- Node3&#45;&gt;Node9 -->
<g id="edge11" class="edge"><title>Node3&#45;&gt;Node9</title>
<path fill="none" stroke="orange" stroke-dasharray="5,2" d="M194.61,-43.5107C235.71,-26.656 311.397,-7.10543e-15 379,-0 379,-0 379,-0 1630,-0 1705.65,-0 1790.11,-37.3282 1826.59,-55.409"/>
<polygon fill="orange" stroke="orange" points="193.047,-40.3706 185.173,-47.4595 195.749,-46.8281 193.047,-40.3706"/>
<text text-anchor="middle" x="1027" y="-3" font-family="Helvetica,sans-Serif" font-size="10.00"> &lt; Connectivity * &gt;</text>
</g>
<!-- Node11 -->
<g id="node11" class="node"><title>Node11</title>
<polygon fill="none" stroke="#bfbfbf" points="1574.5,-93.5 1574.5,-112.5 1683.5,-112.5 1683.5,-93.5 1574.5,-93.5"/>
<text text-anchor="middle" x="1629" y="-100.5" font-family="Helvetica,sans-Serif" font-size="10.00">vector&lt; DataItem * &gt;</text>
</g>
<!-- Node3&#45;&gt;Node11 -->
<g id="edge14" class="edge"><title>Node3&#45;&gt;Node11</title>
<path fill="none" stroke="orange" stroke-dasharray="5,2" d="M207.265,-51.2414C250.619,-45.9751 319.308,-39 379,-39 379,-39 379,-39 1423,-39 1484.56,-39 1495.03,-66.3311 1554,-84 1565.05,-87.312 1577.14,-90.5673 1588.28,-93.4218"/>
<polygon fill="orange" stroke="orange" points="206.57,-47.8006 197.077,-52.5043 207.431,-54.7474 206.57,-47.8006"/>
<text text-anchor="middle" x="921" y="-42" font-family="Helvetica,sans-Serif" font-size="10.00"> &lt; DataItem * &gt;</text>
</g>
<!-- Node4 -->
<g id="node4" class="node"><title>Node4</title>
<polygon fill="none" stroke="#bfbfbf" points="0.5,-316.5 0.5,-335.5 29.5,-335.5 29.5,-316.5 0.5,-316.5"/>
<text text-anchor="middle" x="15" y="-323.5" font-family="Helvetica,sans-Serif" font-size="10.00">T</text>
</g>
<!-- Node4&#45;&gt;Node3 -->
<g id="edge3" class="edge"><title>Node4&#45;&gt;Node3</title>
<path fill="none" stroke="#9a32cd" stroke-dasharray="5,2" d="M26.0225,-307.534C54.5074,-255.051 135.262,-106.264 156.713,-66.7402"/>
<polygon fill="#9a32cd" stroke="#9a32cd" points="22.8903,-305.968 21.1962,-316.426 29.0426,-309.307 22.8903,-305.968"/>
<text text-anchor="middle" x="70" y="-263" font-family="Helvetica,sans-Serif" font-size="10.00"> elements</text>
</g>
<!-- Node14 -->
<g id="node14" class="node"><title>Node14</title>
<g id="a_node14"><a xlink:title="STL class. ">
<polygon fill="none" stroke="#bfbfbf" points="510,-305.5 510,-324.5 582,-324.5 582,-305.5 510,-305.5"/>
<text text-anchor="middle" x="546" y="-312.5" font-family="Helvetica,sans-Serif" font-size="10.00">map&lt; K, T &gt;</text>
</a>
</g>
</g>
<!-- Node4&#45;&gt;Node14 -->
<g id="edge21" class="edge"><title>Node4&#45;&gt;Node14</title>
<path fill="none" stroke="#9a32cd" stroke-dasharray="5,2" d="M40.0656,-327.379C104.348,-330.863 285.426,-339.371 436,-334 460.936,-333.111 467.423,-334.309 492,-330 499.63,-328.662 507.737,-326.67 515.256,-324.57"/>
<polygon fill="#9a32cd" stroke="#9a32cd" points="39.9598,-323.868 29.7817,-326.81 39.573,-330.857 39.9598,-323.868"/>
<text text-anchor="middle" x="270" y="-338" font-family="Helvetica,sans-Serif" font-size="10.00"> elements</text>
</g>
<!-- Node5 -->
<g id="node5" class="node"><title>Node5</title>
<g id="a_node5"><a xlink:title="STL class. ">
<polygon fill="none" stroke="#bfbfbf" points="359.5,-172.5 359.5,-191.5 400.5,-191.5 400.5,-172.5 359.5,-172.5"/>
<text text-anchor="middle" x="380" y="-179.5" font-family="Helvetica,sans-Serif" font-size="10.00">string</text>
</a>
</g>
</g>
<!-- Node5&#45;&gt;Node1 -->
<g id="edge4" class="edge"><title>Node5&#45;&gt;Node1</title>
<path fill="none" stroke="#9a32cd" stroke-dasharray="5,2" d="M410.269,-171.437C423.546,-166.785 439.491,-161.391 454,-157 475.737,-150.421 500.697,-143.911 518.972,-139.334"/>
<polygon fill="#9a32cd" stroke="#9a32cd" points="408.964,-168.186 400.704,-174.821 411.299,-174.785 408.964,-168.186"/>
<text text-anchor="middle" x="473" y="-160" font-family="Helvetica,sans-Serif" font-size="10.00"> _intents</text>
</g>
<!-- Node5&#45;&gt;Node13 -->
<g id="edge18" class="edge"><title>Node5&#45;&gt;Node13</title>
<path fill="none" stroke="#9a32cd" stroke-dasharray="5,2" d="M410.569,-182C476.201,-182 635.521,-182 727.798,-182"/>
<polygon fill="#9a32cd" stroke="#9a32cd" points="410.507,-178.5 400.507,-182 410.507,-185.5 410.507,-178.5"/>
<text text-anchor="middle" x="546" y="-185" font-family="Helvetica,sans-Serif" font-size="10.00"> keys</text>
</g>
<!-- Node12 -->
<g id="node12" class="node"><title>Node12</title>
<g id="a_node12"><a xlink:href="classComponentInterface.html" target="_top" xlink:title="A ComponentInterface object contains multiple panes and multiple data dataitems. ">
<polygon fill="none" stroke="black" points="974.5,-211.5 974.5,-230.5 1079.5,-230.5 1079.5,-211.5 974.5,-211.5"/>
<text text-anchor="middle" x="1027" y="-218.5" font-family="Helvetica,sans-Serif" font-size="10.00">ComponentInterface</text>
</a>
</g>
</g>
<!-- Node5&#45;&gt;Node12 -->
<g id="edge28" class="edge"><title>Node5&#45;&gt;Node12</title>
<path fill="none" stroke="#9a32cd" stroke-dasharray="5,2" d="M410.665,-188.706C423.865,-191.427 439.639,-194.318 454,-196 644.787,-218.343 873.484,-221.2 974.135,-221.257"/>
<polygon fill="#9a32cd" stroke="#9a32cd" points="411.218,-185.246 400.708,-186.588 409.761,-192.092 411.218,-185.246"/>
<text text-anchor="middle" x="655" y="-218" font-family="Helvetica,sans-Serif" font-size="10.00"> _name</text>
</g>
<!-- Node18 -->
<g id="node18" class="node"><title>Node18</title>
<polygon fill="none" stroke="#bfbfbf" points="1554,-306.5 1554,-325.5 1704,-325.5 1704,-306.5 1554,-306.5"/>
<text text-anchor="middle" x="1629" y="-313.5" font-family="Helvetica,sans-Serif" font-size="10.00">map&lt; std::string, DataItem * &gt;</text>
</g>
<!-- Node5&#45;&gt;Node18 -->
<g id="edge30" class="edge"><title>Node5&#45;&gt;Node18</title>
<path fill="none" stroke="#9a32cd" stroke-dasharray="5,2" d="M390.03,-200.877C408.559,-239.53 449.519,-324.534 454,-330 486.348,-369.462 493.974,-400 545,-400 545,-400 545,-400 1423,-400 1500.69,-400 1583.41,-347.7 1614.85,-325.636"/>
<polygon fill="#9a32cd" stroke="#9a32cd" points="393.118,-199.222 385.642,-191.714 386.805,-202.245 393.118,-199.222"/>
<text text-anchor="middle" x="1027" y="-403" font-family="Helvetica,sans-Serif" font-size="10.00"> keys</text>
</g>
<!-- Node7 -->
<g id="node7" class="node"><title>Node7</title>
<g id="a_node7"><a xlink:href="classDataItem.html" target="_top" xlink:title="A DataItem object is a data member of a window. ">
<polygon fill="none" stroke="black" points="1393.5,-72.5 1393.5,-91.5 1450.5,-91.5 1450.5,-72.5 1393.5,-72.5"/>
<text text-anchor="middle" x="1422" y="-79.5" font-family="Helvetica,sans-Serif" font-size="10.00">DataItem</text>
</a>
</g>
</g>
<!-- Node5&#45;&gt;Node7 -->
<g id="edge33" class="edge"><title>Node5&#45;&gt;Node7</title>
<path fill="none" stroke="#9a32cd" stroke-dasharray="5,2" d="M403.073,-166.499C427.806,-150.082 469.732,-125.043 510,-114 847.294,-21.4979 1281.16,-64.8583 1393.49,-78.4437"/>
<polygon fill="#9a32cd" stroke="#9a32cd" points="400.792,-163.816 394.474,-172.321 404.717,-169.612 400.792,-163.816"/>
<text text-anchor="middle" x="921" y="-73" font-family="Helvetica,sans-Serif" font-size="10.00"> _name</text>
<text text-anchor="middle" x="921" y="-62" font-family="Helvetica,sans-Serif" font-size="10.00">_unit</text>
</g>
<!-- Node6 -->
<g id="node6" class="node"><title>Node6</title>
<g id="a_node6"><a xlink:title="STL class. ">
<polygon fill="none" stroke="#bfbfbf" points="110,-172.5 110,-191.5 216,-191.5 216,-172.5 110,-172.5"/>
<text text-anchor="middle" x="163" y="-179.5" font-family="Helvetica,sans-Serif" font-size="10.00">basic_string&lt; char &gt;</text>
</a>
</g>
</g>
<!-- Node6&#45;&gt;Node5 -->
<g id="edge5" class="edge"><title>Node6&#45;&gt;Node5</title>
<path fill="none" stroke="midnightblue" d="M226.059,-182C271.265,-182 329.61,-182 359.481,-182"/>
<polygon fill="midnightblue" stroke="midnightblue" points="226.046,-178.5 216.046,-182 226.045,-185.5 226.046,-178.5"/>
</g>
<!-- Node7&#45;&gt;Node1 -->
<g id="edge6" class="edge"><title>Node7&#45;&gt;Node1</title>
<path fill="none" stroke="#9a32cd" stroke-dasharray="5,2" d="M1383.29,-85.6012C1373.74,-86.4515 1363.49,-87.3103 1354,-88 1047.15,-110.288 673.968,-127.407 573.147,-131.862"/>
<polygon fill="#9a32cd" stroke="#9a32cd" points="1383.67,-89.0811 1393.31,-84.6903 1383.03,-82.1098 1383.67,-89.0811"/>
<text text-anchor="middle" x="1027" y="-114" font-family="Helvetica,sans-Serif" font-size="10.00"> _attr</text>
</g>
<!-- Node10 -->
<g id="node10" class="node"><title>Node10</title>
<g id="a_node10"><a xlink:href="classConnectivity.html" target="_top" xlink:title="Encapsulates an element&#45;connectivity of a mesh. ">
<polygon fill="none" stroke="black" points="1593.5,-55.5 1593.5,-74.5 1664.5,-74.5 1664.5,-55.5 1593.5,-55.5"/>
<text text-anchor="middle" x="1629" y="-62.5" font-family="Helvetica,sans-Serif" font-size="10.00">Connectivity</text>
</a>
</g>
</g>
<!-- Node7&#45;&gt;Node10 -->
<g id="edge10" class="edge"><title>Node7&#45;&gt;Node10</title>
<path fill="none" stroke="darkgreen" d="M1460.77,-78.868C1498.65,-75.7265 1556.5,-70.929 1593.27,-67.8799"/>
<polygon fill="darkgreen" stroke="darkgreen" points="1460.32,-75.3928 1450.65,-79.7073 1460.9,-82.3688 1460.32,-75.3928"/>
</g>
<!-- Node7&#45;&gt;Node11 -->
<g id="edge13" class="edge"><title>Node7&#45;&gt;Node11</title>
<path fill="none" stroke="#9a32cd" stroke-dasharray="5,2" d="M1460.88,-85.8805C1492.75,-89.1452 1538.7,-93.8519 1574.35,-97.5041"/>
<polygon fill="#9a32cd" stroke="#9a32cd" points="1460.95,-82.3695 1450.65,-84.8322 1460.24,-89.3331 1460.95,-82.3695"/>
<text text-anchor="middle" x="1513" y="-96" font-family="Helvetica,sans-Serif" font-size="10.00"> elements</text>
</g>
<!-- Node7&#45;&gt;Node18 -->
<g id="edge31" class="edge"><title>Node7&#45;&gt;Node18</title>
<path fill="none" stroke="#9a32cd" stroke-dasharray="5,2" d="M1449.54,-96.7363C1474.06,-111.28 1510.46,-135.313 1536,-163 1579.29,-209.929 1612.48,-280.403 1623.8,-306.141"/>
<polygon fill="#9a32cd" stroke="#9a32cd" points="1451.17,-93.638 1440.77,-91.6388 1447.66,-99.69 1451.17,-93.638"/>
<text text-anchor="middle" x="1513" y="-166" font-family="Helvetica,sans-Serif" font-size="10.00"> elements</text>
</g>
<!-- Node7&#45;&gt;Node7 -->
<g id="edge34" class="edge"><title>Node7&#45;&gt;Node7</title>
<path fill="none" stroke="#9a32cd" stroke-dasharray="5,2" d="M1405.33,-101.4C1406.45,-106.315 1412,-110 1422,-110 1438,-110 1442.62,-100.565 1435.87,-91.7571"/>
<polygon fill="#9a32cd" stroke="#9a32cd" points="1408.71,-102.336 1408.13,-91.7571 1401.98,-100.388 1408.71,-102.336"/>
<text text-anchor="middle" x="1422" y="-113" font-family="Helvetica,sans-Serif" font-size="10.00"> _parent</text>
</g>
<!-- Node8 -->
<g id="node8" class="node"><title>Node8</title>
<g id="a_node8"><a xlink:href="classPane.html" target="_top" xlink:title="A Pane object contains a mesh, pane dataitem, and field variables. ">
<polygon fill="none" stroke="black" points="1241.5,-173.5 1241.5,-192.5 1280.5,-192.5 1280.5,-173.5 1241.5,-173.5"/>
<text text-anchor="middle" x="1261" y="-180.5" font-family="Helvetica,sans-Serif" font-size="10.00">Pane</text>
</a>
</g>
</g>
<!-- Node8&#45;&gt;Node7 -->
<g id="edge7" class="edge"><title>Node8&#45;&gt;Node7</title>
<path fill="none" stroke="#9a32cd" stroke-dasharray="5,2" d="M1275.54,-165.548C1283.63,-155.952 1294.53,-144.338 1306,-136 1308.07,-134.492 1367.84,-106.669 1400.37,-91.5662"/>
<polygon fill="#9a32cd" stroke="#9a32cd" points="1272.81,-163.361 1269.22,-173.329 1278.24,-167.776 1272.81,-163.361"/>
<text text-anchor="middle" x="1330" y="-139" font-family="Helvetica,sans-Serif" font-size="10.00"> _pane</text>
</g>
<!-- Node17 -->
<g id="node17" class="node"><title>Node17</title>
<polygon fill="none" stroke="#bfbfbf" points="1372.5,-230.5 1372.5,-249.5 1471.5,-249.5 1471.5,-230.5 1372.5,-230.5"/>
<text text-anchor="middle" x="1422" y="-237.5" font-family="Helvetica,sans-Serif" font-size="10.00">map&lt; int, Pane * &gt;</text>
</g>
<!-- Node8&#45;&gt;Node17 -->
<g id="edge25" class="edge"><title>Node8&#45;&gt;Node17</title>
<path fill="none" stroke="#9a32cd" stroke-dasharray="5,2" d="M1290.23,-193.121C1319.69,-203.683 1365.53,-220.116 1394.38,-230.457"/>
<polygon fill="#9a32cd" stroke="#9a32cd" points="1291.15,-189.73 1280.55,-189.65 1288.78,-196.32 1291.15,-189.73"/>
<text text-anchor="middle" x="1330" y="-217" font-family="Helvetica,sans-Serif" font-size="10.00"> elements</text>
</g>
<!-- Node8&#45;&gt;Node12 -->
<g id="edge27" class="edge"><title>Node8&#45;&gt;Node12</title>
<path fill="none" stroke="#9a32cd" stroke-dasharray="5,2" d="M1231.17,-188.334C1226.12,-189.242 1220.91,-190.162 1216,-191 1169.9,-198.868 1117.32,-207.204 1079.52,-213.086"/>
<polygon fill="#9a32cd" stroke="#9a32cd" points="1231.96,-191.748 1241.17,-186.515 1230.71,-184.861 1231.96,-191.748"/>
<text text-anchor="middle" x="1157" y="-212" font-family="Helvetica,sans-Serif" font-size="10.00"> _dummy</text>
</g>
<!-- Node9&#45;&gt;Node8 -->
<g id="edge8" class="edge"><title>Node9&#45;&gt;Node8</title>
<path fill="none" stroke="#9a32cd" stroke-dasharray="5,2" d="M1813.35,-78.6821C1784.97,-90.7408 1742.05,-108.448 1704,-122 1630.37,-148.226 1613.08,-161.046 1536,-174 1441.19,-189.934 1325.4,-186.326 1280.78,-184.095"/>
<polygon fill="#9a32cd" stroke="#9a32cd" points="1814.93,-81.8135 1822.76,-74.6685 1812.18,-75.3755 1814.93,-81.8135"/>
<text text-anchor="middle" x="1513" y="-183" font-family="Helvetica,sans-Serif" font-size="10.00"> _cnct_set</text>
</g>
<!-- Node10&#45;&gt;Node9 -->
<g id="edge9" class="edge"><title>Node10&#45;&gt;Node9</title>
<path fill="none" stroke="#9a32cd" stroke-dasharray="5,2" d="M1674.83,-65C1706.5,-65 1749.31,-65 1784.07,-65"/>
<polygon fill="#9a32cd" stroke="#9a32cd" points="1674.54,-61.5001 1664.54,-65 1674.54,-68.5001 1674.54,-61.5001"/>
<text text-anchor="middle" x="1744" y="-68" font-family="Helvetica,sans-Serif" font-size="10.00"> elements</text>
</g>
<!-- Node11&#45;&gt;Node8 -->
<g id="edge12" class="edge"><title>Node11&#45;&gt;Node8</title>
<path fill="none" stroke="#9a32cd" stroke-dasharray="5,2" d="M1574.75,-114.639C1491.5,-132.835 1334.48,-167.158 1280.65,-178.923"/>
<polygon fill="#9a32cd" stroke="#9a32cd" points="1575.51,-118.057 1584.53,-112.502 1574.01,-111.218 1575.51,-118.057"/>
<text text-anchor="middle" x="1422" y="-161" font-family="Helvetica,sans-Serif" font-size="10.00"> _attr_set</text>
</g>
<!-- Node12&#45;&gt;Node8 -->
<g id="edge15" class="edge"><title>Node12&#45;&gt;Node8</title>
<path fill="none" stroke="#9a32cd" stroke-dasharray="5,2" d="M1048.36,-205.15C1061.67,-195.82 1079.89,-184.914 1098,-180 1148.22,-166.374 1210.46,-174.009 1241.12,-179.291"/>
<polygon fill="#9a32cd" stroke="#9a32cd" points="1046,-202.538 1039.99,-211.264 1050.13,-208.191 1046,-202.538"/>
<text text-anchor="middle" x="1157" y="-183" font-family="Helvetica,sans-Serif" font-size="10.00"> _window</text>
</g>
<!-- Node13&#45;&gt;Node12 -->
<g id="edge16" class="edge"><title>Node13&#45;&gt;Node12</title>
<path fill="none" stroke="#9a32cd" stroke-dasharray="5,2" d="M878.529,-185.155C903.528,-187.195 931.098,-190.536 956,-196 972.386,-199.595 990.181,-205.986 1003.73,-211.406"/>
<polygon fill="#9a32cd" stroke="#9a32cd" points="878.593,-181.65 868.357,-184.384 878.064,-188.63 878.593,-181.65"/>
<text text-anchor="middle" x="921" y="-199" font-family="Helvetica,sans-Serif" font-size="10.00"> _func_map</text>
</g>
<!-- Node14&#45;&gt;Node13 -->
<g id="edge19" class="edge"><title>Node14&#45;&gt;Node13</title>
<path fill="none" stroke="orange" stroke-dasharray="5,2" d="M559.076,-297.125C568.681,-284.3 583.256,-267.645 600,-258 643.443,-232.975 663.382,-251.449 710,-233 737.675,-222.047 766.959,-203.151 783.512,-191.691"/>
<polygon fill="orange" stroke="orange" points="556.229,-295.089 553.255,-305.258 561.921,-299.163 556.229,-295.089"/>
<text text-anchor="middle" x="655" y="-261" font-family="Helvetica,sans-Serif" font-size="10.00"> &lt; std::string, Function &gt;</text>
</g>
<!-- Node16 -->
<g id="node16" class="node"><title>Node16</title>
<polygon fill="none" stroke="#bfbfbf" points="758,-261.5 758,-280.5 838,-280.5 838,-261.5 758,-261.5"/>
<text text-anchor="middle" x="798" y="-268.5" font-family="Helvetica,sans-Serif" font-size="10.00">map&lt; int, int &gt;</text>
</g>
<!-- Node14&#45;&gt;Node16 -->
<g id="edge23" class="edge"><title>Node14&#45;&gt;Node16</title>
<path fill="none" stroke="orange" stroke-dasharray="5,2" d="M572.611,-300.743C581.092,-296.62 590.735,-292.549 600,-290 653.338,-275.327 717.505,-271.595 757.784,-270.846"/>
<polygon fill="orange" stroke="orange" points="570.923,-297.675 563.611,-305.342 574.109,-303.908 570.923,-297.675"/>
<text text-anchor="middle" x="655" y="-293" font-family="Helvetica,sans-Serif" font-size="10.00"> &lt; int, int &gt;</text>
</g>
<!-- Node14&#45;&gt;Node17 -->
<g id="edge26" class="edge"><title>Node14&#45;&gt;Node17</title>
<path fill="none" stroke="orange" stroke-dasharray="5,2" d="M592.518,-315.917C752.499,-318.891 1283.14,-326.557 1354,-299 1380,-288.888 1402.56,-263.827 1413.67,-249.839"/>
<polygon fill="orange" stroke="orange" points="592.152,-312.41 582.088,-315.72 592.02,-319.408 592.152,-312.41"/>
<text text-anchor="middle" x="1027" y="-322" font-family="Helvetica,sans-Serif" font-size="10.00"> &lt; int, Pane * &gt;</text>
</g>
<!-- Node14&#45;&gt;Node18 -->
<g id="edge32" class="edge"><title>Node14&#45;&gt;Node18</title>
<path fill="none" stroke="orange" stroke-dasharray="5,2" d="M587.391,-327.125C591.627,-328.188 595.887,-329.173 600,-330 686.471,-347.395 708.797,-354 797,-354 797,-354 797,-354 1423,-354 1485.26,-354 1556.4,-336.846 1596.38,-325.589"/>
<polygon fill="orange" stroke="orange" points="588.195,-323.717 577.632,-324.537 586.401,-330.483 588.195,-323.717"/>
<text text-anchor="middle" x="1157" y="-357" font-family="Helvetica,sans-Serif" font-size="10.00"> &lt; std::string, DataItem * &gt;</text>
</g>
<!-- Node15 -->
<g id="node15" class="node"><title>Node15</title>
<polygon fill="none" stroke="#bfbfbf" points="365.5,-305.5 365.5,-324.5 394.5,-324.5 394.5,-305.5 365.5,-305.5"/>
<text text-anchor="middle" x="380" y="-312.5" font-family="Helvetica,sans-Serif" font-size="10.00">K</text>
</g>
<!-- Node15&#45;&gt;Node14 -->
<g id="edge20" class="edge"><title>Node15&#45;&gt;Node14</title>
<path fill="none" stroke="#9a32cd" stroke-dasharray="5,2" d="M405.009,-315C432.627,-315 478.224,-315 509.841,-315"/>
<polygon fill="#9a32cd" stroke="#9a32cd" points="404.701,-311.5 394.7,-315 404.7,-318.5 404.701,-311.5"/>
<text text-anchor="middle" x="473" y="-318" font-family="Helvetica,sans-Serif" font-size="10.00"> keys</text>
</g>
<!-- Node16&#45;&gt;Node12 -->
<g id="edge22" class="edge"><title>Node16&#45;&gt;Node12</title>
<path fill="none" stroke="#9a32cd" stroke-dasharray="5,2" d="M847.861,-260.238C888.01,-251.394 944.347,-238.985 982.85,-230.504"/>
<polygon fill="#9a32cd" stroke="#9a32cd" points="847.036,-256.835 838.023,-262.405 848.542,-263.672 847.036,-256.835"/>
<text text-anchor="middle" x="921" y="-253" font-family="Helvetica,sans-Serif" font-size="10.00"> _proc_map</text>
</g>
<!-- Node17&#45;&gt;Node12 -->
<g id="edge24" class="edge"><title>Node17&#45;&gt;Node12</title>
<path fill="none" stroke="#9a32cd" stroke-dasharray="5,2" d="M1361.76,-237.136C1285.06,-233.428 1152.64,-227.026 1079.78,-223.503"/>
<polygon fill="#9a32cd" stroke="#9a32cd" points="1362.04,-240.653 1372.2,-237.64 1362.38,-233.662 1362.04,-240.653"/>
<text text-anchor="middle" x="1261" y="-236" font-family="Helvetica,sans-Serif" font-size="10.00"> _pane_map</text>
</g>
<!-- Node18&#45;&gt;Node12 -->
<g id="edge29" class="edge"><title>Node18&#45;&gt;Node12</title>
<path fill="none" stroke="#9a32cd" stroke-dasharray="5,2" d="M1543.47,-307.671C1438.34,-296.481 1253.71,-274.096 1098,-241 1084.77,-238.188 1070.37,-234.233 1058.09,-230.581"/>
<polygon fill="#9a32cd" stroke="#9a32cd" points="1543.39,-311.182 1553.7,-308.752 1544.12,-304.221 1543.39,-311.182"/>
<text text-anchor="middle" x="1330" y="-287" font-family="Helvetica,sans-Serif" font-size="10.00"> _attr_map</text>
</g>
</g>
</svg>
