<?xml version="1.0" encoding="UTF-8" standalone="no"?>
<!DOCTYPE svg PUBLIC "-//W3C//DTD SVG 1.1//EN"
 "http://www.w3.org/Graphics/SVG/1.1/DTD/svg11.dtd">
<!-- Generated by graphviz version 2.30.1 (20150305.2338)
 -->
<!-- Title: ComLineObject Pages: 1 -->
<svg width="402pt" height="218pt"
 viewBox="0.00 0.00 402.00 218.00" xmlns="http://www.w3.org/2000/svg" xmlns:xlink="http://www.w3.org/1999/xlink">
<g id="graph0" class="graph" transform="scale(1 1) rotate(0) translate(4 214)">
<title>ComLineObject</title>
<!-- Node1 -->
<g id="node1" class="node"><title>Node1</title>
<polygon fill="#bfbfbf" stroke="black" points="142,-114.5 142,-133.5 226,-133.5 226,-114.5 142,-114.5"/>
<text text-anchor="middle" x="184" y="-121.5" font-family="Helvetica,sans-Serif" font-size="10.00">ComLineObject</text>
</g>
<!-- Node3 -->
<g id="node3" class="node"><title>Node3</title>
<g id="a_node3"><a xlink:href="classElmerFoamFSI_1_1DriverComLine.html" target="_top" xlink:title="The ComLineObject for the example programs. ">
<polygon fill="none" stroke="black" points="287,-190.5 287,-209.5 369,-209.5 369,-190.5 287,-190.5"/>
<text text-anchor="middle" x="328" y="-197.5" font-family="Helvetica,sans-Serif" font-size="10.00">DriverComLine</text>
</a>
</g>
</g>
<!-- Node1&#45;&gt;Node3 -->
<g id="edge2" class="edge"><title>Node1&#45;&gt;Node3</title>
<path fill="none" stroke="midnightblue" d="M203.553,-140.689C218.428,-153.308 240.331,-170.242 262,-181 269.793,-184.869 278.511,-188.088 286.97,-190.711"/>
<polygon fill="midnightblue" stroke="midnightblue" points="205.507,-137.75 195.661,-133.837 200.917,-143.036 205.507,-137.75"/>
</g>
<!-- Node4 -->
<g id="node4" class="node"><title>Node4</title>
<g id="a_node4"><a xlink:href="classElmerFoamFSI_1_1ExampleProgram_1_1ExampleProgramComLine.html" target="_top" xlink:title="The ComLineObject for the example programs. ">
<polygon fill="none" stroke="black" points="262.5,-152.5 262.5,-171.5 393.5,-171.5 393.5,-152.5 262.5,-152.5"/>
<text text-anchor="middle" x="328" y="-159.5" font-family="Helvetica,sans-Serif" font-size="10.00">ExampleProgramComLine</text>
</a>
</g>
</g>
<!-- Node1&#45;&gt;Node4 -->
<g id="edge3" class="edge"><title>Node1&#45;&gt;Node4</title>
<path fill="none" stroke="midnightblue" d="M230.493,-136.174C250.128,-141.429 272.766,-147.487 291.179,-152.414"/>
<polygon fill="midnightblue" stroke="midnightblue" points="231.397,-132.793 220.833,-133.589 229.588,-139.555 231.397,-132.793"/>
</g>
<!-- Node5 -->
<g id="node5" class="node"><title>Node5</title>
<g id="a_node5"><a xlink:href="classElmerFoamFSI_1_1TestComLine.html" target="_top" xlink:title="ComLineObject for ElmerFoamFSI testing command&#45;line interface. ">
<polygon fill="none" stroke="black" points="290.5,-114.5 290.5,-133.5 365.5,-133.5 365.5,-114.5 290.5,-114.5"/>
<text text-anchor="middle" x="328" y="-121.5" font-family="Helvetica,sans-Serif" font-size="10.00">TestComLine</text>
</a>
</g>
</g>
<!-- Node1&#45;&gt;Node5 -->
<g id="edge4" class="edge"><title>Node1&#45;&gt;Node5</title>
<path fill="none" stroke="midnightblue" d="M236.105,-124C254.055,-124 273.851,-124 290.374,-124"/>
<polygon fill="midnightblue" stroke="midnightblue" points="236.072,-120.5 226.072,-124 236.072,-127.5 236.072,-120.5"/>
</g>
<!-- Node1&#45;&gt;Node4 -->
<g id="edge5" class="edge"><title>Node1&#45;&gt;Node4</title>
<path fill="none" stroke="midnightblue" d="M230.493,-136.174C250.128,-141.429 272.766,-147.487 291.179,-152.414"/>
<polygon fill="midnightblue" stroke="midnightblue" points="231.397,-132.793 220.833,-133.589 229.588,-139.555 231.397,-132.793"/>
</g>
<!-- Node1&#45;&gt;Node5 -->
<g id="edge6" class="edge"><title>Node1&#45;&gt;Node5</title>
<path fill="none" stroke="midnightblue" d="M236.105,-124C254.055,-124 273.851,-124 290.374,-124"/>
<polygon fill="midnightblue" stroke="midnightblue" points="236.072,-120.5 226.072,-124 236.072,-127.5 236.072,-120.5"/>
</g>
<!-- Node6 -->
<g id="node6" class="node"><title>Node6</title>
<g id="a_node6"><a xlink:href="classIRAD_1_1CheckResultsComLine.html" target="_top" xlink:title="The ComLineObject for the example programs. ">
<polygon fill="none" stroke="black" points="269,-76.5 269,-95.5 387,-95.5 387,-76.5 269,-76.5"/>
<text text-anchor="middle" x="328" y="-83.5" font-family="Helvetica,sans-Serif" font-size="10.00">CheckResultsComLine</text>
</a>
</g>
</g>
<!-- Node1&#45;&gt;Node6 -->
<g id="edge7" class="edge"><title>Node1&#45;&gt;Node6</title>
<path fill="none" stroke="midnightblue" d="M230.493,-111.826C250.128,-106.571 272.766,-100.513 291.179,-95.5859"/>
<polygon fill="midnightblue" stroke="midnightblue" points="229.588,-108.445 220.833,-114.411 231.397,-115.207 229.588,-108.445"/>
</g>
<!-- Node7 -->
<g id="node7" class="node"><title>Node7</title>
<g id="a_node7"><a xlink:href="classIRAD_1_1DDFComLine.html" target="_top" xlink:title="ComLine object for test running utility. ">
<polygon fill="none" stroke="black" points="289.5,-38.5 289.5,-57.5 366.5,-57.5 366.5,-38.5 289.5,-38.5"/>
<text text-anchor="middle" x="328" y="-45.5" font-family="Helvetica,sans-Serif" font-size="10.00">DDFComLine</text>
</a>
</g>
</g>
<!-- Node1&#45;&gt;Node7 -->
<g id="edge8" class="edge"><title>Node1&#45;&gt;Node7</title>
<path fill="none" stroke="midnightblue" d="M203.553,-107.311C218.428,-94.6918 240.331,-77.7576 262,-67 270.53,-62.7653 280.169,-59.3082 289.362,-56.5606"/>
<polygon fill="midnightblue" stroke="midnightblue" points="200.917,-104.964 195.661,-114.163 205.507,-110.25 200.917,-104.964"/>
</g>
<!-- Node8 -->
<g id="node8" class="node"><title>Node8</title>
<g id="a_node8"><a xlink:href="classIRAD_1_1RTSComLine.html" target="_top" xlink:title="ComLine object for test running utility. ">
<polygon fill="none" stroke="black" points="290,-0.5 290,-19.5 366,-19.5 366,-0.5 290,-0.5"/>
<text text-anchor="middle" x="328" y="-7.5" font-family="Helvetica,sans-Serif" font-size="10.00">RTSComLine</text>
</a>
</g>
</g>
<!-- Node1&#45;&gt;Node8 -->
<g id="edge9" class="edge"><title>Node1&#45;&gt;Node8</title>
<path fill="none" stroke="midnightblue" d="M195.261,-105.466C208.11,-83.9512 232.109,-48.885 262,-29 270.32,-23.4648 280.281,-19.5106 289.876,-16.6979"/>
<polygon fill="midnightblue" stroke="midnightblue" points="192.133,-103.885 190.161,-114.295 198.194,-107.386 192.133,-103.885"/>
</g>
<!-- Node1&#45;&gt;Node5 -->
<g id="edge10" class="edge"><title>Node1&#45;&gt;Node5</title>
<path fill="none" stroke="midnightblue" d="M236.105,-124C254.055,-124 273.851,-124 290.374,-124"/>
<polygon fill="midnightblue" stroke="midnightblue" points="236.072,-120.5 226.072,-124 236.072,-127.5 236.072,-120.5"/>
</g>
<!-- Node2 -->
<g id="node2" class="node"><title>Node2</title>
<g id="a_node2"><a xlink:title="STL class. ">
<polygon fill="none" stroke="#bfbfbf" points="0,-109 0,-139 106,-139 106,-109 0,-109"/>
<text text-anchor="start" x="8" y="-127" font-family="Helvetica,sans-Serif" font-size="10.00">vector&lt; std::pair&lt;</text>
<text text-anchor="middle" x="53" y="-116" font-family="Helvetica,sans-Serif" font-size="10.00"> char, std::string &gt; &gt;</text>
</a>
</g>
</g>
<!-- Node2&#45;&gt;Node1 -->
<g id="edge1" class="edge"><title>Node2&#45;&gt;Node1</title>
<path fill="none" stroke="midnightblue" d="M116.228,-124C124.912,-124 133.651,-124 141.814,-124"/>
<polygon fill="midnightblue" stroke="midnightblue" points="116.097,-120.5 106.097,-124 116.097,-127.5 116.097,-120.5"/>
</g>
</g>
</svg>
