<?xml version="1.0" encoding="UTF-8" standalone="no"?>
<!DOCTYPE svg PUBLIC "-//W3C//DTD SVG 1.1//EN"
 "http://www.w3.org/Graphics/SVG/1.1/DTD/svg11.dtd">
<!-- Generated by graphviz version 2.30.1 (20150305.2338)
 -->
<!-- Title: C3Plane Pages: 1 -->
<svg width="358pt" height="351pt"
 viewBox="0.00 0.00 358.00 351.00" xmlns="http://www.w3.org/2000/svg" xmlns:xlink="http://www.w3.org/1999/xlink">
<g id="graph0" class="graph" transform="scale(1 1) rotate(0) translate(4 347)">
<title>C3Plane</title>
<!-- Node1 -->
<g id="node1" class="node"><title>Node1</title>
<polygon fill="#bfbfbf" stroke="black" points="0,-174.5 0,-193.5 54,-193.5 54,-174.5 0,-174.5"/>
<text text-anchor="middle" x="27" y="-181.5" font-family="Helvetica,sans-Serif" font-size="10.00">C3Plane</text>
</g>
<!-- Node2 -->
<g id="node2" class="node"><title>Node2</title>
<g id="a_node2"><a xlink:href="classSolverUtils_1_1GeoPrim_1_1C3Plane_ac4f18a9c2e73cc8e9511e43d3b22ce80.html#ac4f18a9c2e73cc8e9511e43d3b22ce80" target="_top" xlink:title="A">
<polygon fill="none" stroke="black" points="132.5,-234.5 132.5,-253.5 161.5,-253.5 161.5,-234.5 132.5,-234.5"/>
<text text-anchor="middle" x="147" y="-241.5" font-family="Helvetica,sans-Serif" font-size="10.00">A</text>
</a>
</g>
</g>
<!-- Node1&#45;&gt;Node2 -->
<g id="edge1" class="edge"><title>Node1&#45;&gt;Node2</title>
<path fill="none" stroke="midnightblue" d="M43.256,-193.555C55.6337,-201.136 73.6498,-211.787 90,-220 100.634,-225.341 112.736,-230.623 122.963,-234.866"/>
<polygon fill="midnightblue" stroke="midnightblue" points="121.859,-238.195 132.44,-238.726 124.499,-231.712 121.859,-238.195"/>
</g>
<!-- Node4 -->
<g id="node4" class="node"><title>Node4</title>
<g id="a_node4"><a xlink:href="classSolverUtils_1_1GeoPrim_1_1C3Plane_a6aaa91e00285e78459a764d961d00bed.html#a6aaa91e00285e78459a764d961d00bed" target="_top" xlink:title="B">
<polygon fill="none" stroke="black" points="132.5,-315.5 132.5,-334.5 161.5,-334.5 161.5,-315.5 132.5,-315.5"/>
<text text-anchor="middle" x="147" y="-322.5" font-family="Helvetica,sans-Serif" font-size="10.00">B</text>
</a>
</g>
</g>
<!-- Node1&#45;&gt;Node4 -->
<g id="edge3" class="edge"><title>Node1&#45;&gt;Node4</title>
<path fill="none" stroke="midnightblue" d="M30.6489,-193.547C37.1734,-215.424 56.0092,-269.701 90,-301 99.0808,-309.362 111.52,-315.087 122.369,-318.843"/>
<polygon fill="midnightblue" stroke="midnightblue" points="121.533,-322.248 132.121,-321.861 123.603,-315.561 121.533,-322.248"/>
</g>
<!-- Node6 -->
<g id="node6" class="node"><title>Node6</title>
<g id="a_node6"><a xlink:href="classSolverUtils_1_1GeoPrim_1_1C3Plane_ac2b85d173d93d73bad18231955331468.html#ac2b85d173d93d73bad18231955331468" target="_top" xlink:title="C">
<polygon fill="none" stroke="black" points="132.5,-272.5 132.5,-291.5 161.5,-291.5 161.5,-272.5 132.5,-272.5"/>
<text text-anchor="middle" x="147" y="-279.5" font-family="Helvetica,sans-Serif" font-size="10.00">C</text>
</a>
</g>
</g>
<!-- Node1&#45;&gt;Node6 -->
<g id="edge5" class="edge"><title>Node1&#45;&gt;Node6</title>
<path fill="none" stroke="midnightblue" d="M33.1378,-193.751C42.353,-210.331 63.2519,-244.056 90,-263 99.551,-269.765 111.701,-274.272 122.24,-277.192"/>
<polygon fill="midnightblue" stroke="midnightblue" points="121.542,-280.624 132.088,-279.606 123.209,-273.825 121.542,-280.624"/>
</g>
<!-- Node8 -->
<g id="node8" class="node"><title>Node8</title>
<g id="a_node8"><a xlink:href="classSolverUtils_1_1GeoPrim_1_1C3Vector_a3741036359d9b40c94a44acaef2bee31.html#a3741036359d9b40c94a44acaef2bee31" target="_top" xlink:title="SolverUtils::GeoPrim\l::C3Vector::Normalize">
<polygon fill="none" stroke="black" points="90,-98 90,-128 204,-128 204,-98 90,-98"/>
<text text-anchor="start" x="98" y="-116" font-family="Helvetica,sans-Serif" font-size="10.00">SolverUtils::GeoPrim</text>
<text text-anchor="middle" x="147" y="-105" font-family="Helvetica,sans-Serif" font-size="10.00">::C3Vector::Normalize</text>
</a>
</g>
</g>
<!-- Node1&#45;&gt;Node8 -->
<g id="edge7" class="edge"><title>Node1&#45;&gt;Node8</title>
<path fill="none" stroke="midnightblue" d="M39.3574,-174.382C51.407,-164.469 71.2562,-148.96 90,-138 93.2227,-136.116 96.613,-134.279 100.065,-132.511"/>
<polygon fill="midnightblue" stroke="midnightblue" points="101.825,-135.547 109.272,-128.01 98.7506,-129.258 101.825,-135.547"/>
</g>
<!-- Node10 -->
<g id="node10" class="node"><title>Node10</title>
<g id="a_node10"><a xlink:href="classSolverUtils_1_1GeoPrim_1_1C3Point_a3b195b867437acf8de45f48c83e81932.html#a3b195b867437acf8de45f48c83e81932" target="_top" xlink:title="SolverUtils::GeoPrim\l::C3Point::x">
<polygon fill="none" stroke="black" points="92.5,-147 92.5,-177 201.5,-177 201.5,-147 92.5,-147"/>
<text text-anchor="start" x="100.5" y="-165" font-family="Helvetica,sans-Serif" font-size="10.00">SolverUtils::GeoPrim</text>
<text text-anchor="middle" x="147" y="-154" font-family="Helvetica,sans-Serif" font-size="10.00">::C3Point::x</text>
</a>
</g>
</g>
<!-- Node1&#45;&gt;Node10 -->
<g id="edge9" class="edge"><title>Node1&#45;&gt;Node10</title>
<path fill="none" stroke="midnightblue" d="M54.188,-179.117C62.6413,-177.541 72.4123,-175.72 82.3602,-173.865"/>
<polygon fill="midnightblue" stroke="midnightblue" points="83.1359,-177.281 92.3249,-172.007 81.8528,-170.399 83.1359,-177.281"/>
</g>
<!-- Node3 -->
<g id="node3" class="node"><title>Node3</title>
<g id="a_node3"><a xlink:href="classSolverUtils_1_1GeoPrim_1_1C3Vector_a3b195b867437acf8de45f48c83e81932.html#a3b195b867437acf8de45f48c83e81932" target="_top" xlink:title="SolverUtils::GeoPrim\l::C3Vector::x">
<polygon fill="none" stroke="black" points="240.5,-203 240.5,-233 349.5,-233 349.5,-203 240.5,-203"/>
<text text-anchor="start" x="248.5" y="-221" font-family="Helvetica,sans-Serif" font-size="10.00">SolverUtils::GeoPrim</text>
<text text-anchor="middle" x="295" y="-210" font-family="Helvetica,sans-Serif" font-size="10.00">::C3Vector::x</text>
</a>
</g>
</g>
<!-- Node1&#45;&gt;Node3 -->
<g id="edge10" class="edge"><title>Node1&#45;&gt;Node3</title>
<path fill="none" stroke="midnightblue" d="M54.4776,-187.384C95.1162,-192.579 174.047,-202.668 230.186,-209.843"/>
<polygon fill="midnightblue" stroke="midnightblue" points="230.025,-213.351 240.388,-211.147 230.913,-206.408 230.025,-213.351"/>
</g>
<!-- Node11 -->
<g id="node11" class="node"><title>Node11</title>
<g id="a_node11"><a xlink:href="classSolverUtils_1_1GeoPrim_1_1C3Point_ad927d9808ded1fc49c05ae9e1a3ed2a6.html#ad927d9808ded1fc49c05ae9e1a3ed2a6" target="_top" xlink:title="SolverUtils::GeoPrim\l::C3Point::y">
<polygon fill="none" stroke="black" points="92.5,-49 92.5,-79 201.5,-79 201.5,-49 92.5,-49"/>
<text text-anchor="start" x="100.5" y="-67" font-family="Helvetica,sans-Serif" font-size="10.00">SolverUtils::GeoPrim</text>
<text text-anchor="middle" x="147" y="-56" font-family="Helvetica,sans-Serif" font-size="10.00">::C3Point::y</text>
</a>
</g>
</g>
<!-- Node1&#45;&gt;Node11 -->
<g id="edge11" class="edge"><title>Node1&#45;&gt;Node11</title>
<path fill="none" stroke="midnightblue" d="M32.0332,-174.346C40.3143,-155.567 60.9309,-113.796 90,-89 91.9492,-87.3374 94.0267,-85.7664 96.1912,-84.2846"/>
<polygon fill="midnightblue" stroke="midnightblue" points="98.153,-87.1881 104.883,-79.0057 94.5194,-81.2051 98.153,-87.1881"/>
</g>
<!-- Node12 -->
<g id="node12" class="node"><title>Node12</title>
<g id="a_node12"><a xlink:href="classSolverUtils_1_1GeoPrim_1_1C3Point_a2134ad02d68f29e9c7cd87e4cd4c75b8.html#a2134ad02d68f29e9c7cd87e4cd4c75b8" target="_top" xlink:title="SolverUtils::GeoPrim\l::C3Point::z">
<polygon fill="none" stroke="black" points="92.5,-0 92.5,-30 201.5,-30 201.5,-0 92.5,-0"/>
<text text-anchor="start" x="100.5" y="-18" font-family="Helvetica,sans-Serif" font-size="10.00">SolverUtils::GeoPrim</text>
<text text-anchor="middle" x="147" y="-7" font-family="Helvetica,sans-Serif" font-size="10.00">::C3Point::z</text>
</a>
</g>
</g>
<!-- Node1&#45;&gt;Node12 -->
<g id="edge12" class="edge"><title>Node1&#45;&gt;Node12</title>
<path fill="none" stroke="midnightblue" d="M29.6644,-174.234C34.4696,-148.833 50.6169,-79.911 90,-40 91.4022,-38.579 92.8994,-37.2321 94.4701,-35.956"/>
<polygon fill="midnightblue" stroke="midnightblue" points="96.6167,-38.7266 102.838,-30.1506 92.6264,-32.9753 96.6167,-38.7266"/>
</g>
<!-- Node2&#45;&gt;Node3 -->
<g id="edge2" class="edge"><title>Node2&#45;&gt;Node3</title>
<path fill="none" stroke="midnightblue" d="M161.735,-241.554C177.59,-238.731 204.782,-233.888 230.403,-229.326"/>
<polygon fill="midnightblue" stroke="midnightblue" points="231.261,-232.728 240.492,-227.529 230.034,-225.836 231.261,-232.728"/>
</g>
<!-- Node5 -->
<g id="node5" class="node"><title>Node5</title>
<g id="a_node5"><a xlink:href="classSolverUtils_1_1GeoPrim_1_1C3Vector_ad927d9808ded1fc49c05ae9e1a3ed2a6.html#ad927d9808ded1fc49c05ae9e1a3ed2a6" target="_top" xlink:title="SolverUtils::GeoPrim\l::C3Vector::y">
<polygon fill="none" stroke="black" points="240.5,-313 240.5,-343 349.5,-343 349.5,-313 240.5,-313"/>
<text text-anchor="start" x="248.5" y="-331" font-family="Helvetica,sans-Serif" font-size="10.00">SolverUtils::GeoPrim</text>
<text text-anchor="middle" x="295" y="-320" font-family="Helvetica,sans-Serif" font-size="10.00">::C3Vector::y</text>
</a>
</g>
</g>
<!-- Node4&#45;&gt;Node5 -->
<g id="edge4" class="edge"><title>Node4&#45;&gt;Node5</title>
<path fill="none" stroke="midnightblue" d="M161.735,-325.282C177.59,-325.608 204.782,-326.167 230.403,-326.693"/>
<polygon fill="midnightblue" stroke="midnightblue" points="230.422,-330.194 240.492,-326.901 230.566,-323.196 230.422,-330.194"/>
</g>
<!-- Node7 -->
<g id="node7" class="node"><title>Node7</title>
<g id="a_node7"><a xlink:href="classSolverUtils_1_1GeoPrim_1_1C3Vector_a2134ad02d68f29e9c7cd87e4cd4c75b8.html#a2134ad02d68f29e9c7cd87e4cd4c75b8" target="_top" xlink:title="SolverUtils::GeoPrim\l::C3Vector::z">
<polygon fill="none" stroke="black" points="240.5,-264 240.5,-294 349.5,-294 349.5,-264 240.5,-264"/>
<text text-anchor="start" x="248.5" y="-282" font-family="Helvetica,sans-Serif" font-size="10.00">SolverUtils::GeoPrim</text>
<text text-anchor="middle" x="295" y="-271" font-family="Helvetica,sans-Serif" font-size="10.00">::C3Vector::z</text>
</a>
</g>
</g>
<!-- Node6&#45;&gt;Node7 -->
<g id="edge6" class="edge"><title>Node6&#45;&gt;Node7</title>
<path fill="none" stroke="midnightblue" d="M161.735,-281.718C177.59,-281.392 204.782,-280.833 230.403,-280.307"/>
<polygon fill="midnightblue" stroke="midnightblue" points="230.566,-283.804 240.492,-280.099 230.422,-276.806 230.566,-283.804"/>
</g>
<!-- Node9 -->
<g id="node9" class="node"><title>Node9</title>
<g id="a_node9"><a xlink:href="classSolverUtils_1_1GeoPrim_1_1C3Vector_a8ee7eecfcac25d9c4a6693ba1a8da90c.html#a8ee7eecfcac25d9c4a6693ba1a8da90c" target="_top" xlink:title="SolverUtils::GeoPrim\l::C3Vector::Norm">
<polygon fill="none" stroke="black" points="240.5,-98 240.5,-128 349.5,-128 349.5,-98 240.5,-98"/>
<text text-anchor="start" x="248.5" y="-116" font-family="Helvetica,sans-Serif" font-size="10.00">SolverUtils::GeoPrim</text>
<text text-anchor="middle" x="295" y="-105" font-family="Helvetica,sans-Serif" font-size="10.00">::C3Vector::Norm</text>
</a>
</g>
</g>
<!-- Node8&#45;&gt;Node9 -->
<g id="edge8" class="edge"><title>Node8&#45;&gt;Node9</title>
<path fill="none" stroke="midnightblue" d="M204.03,-113C212.584,-113 221.467,-113 230.174,-113"/>
<polygon fill="midnightblue" stroke="midnightblue" points="230.283,-116.5 240.283,-113 230.283,-109.5 230.283,-116.5"/>
</g>
</g>
</svg>
