<?xml version="1.0" encoding="UTF-8" standalone="no"?>
<!DOCTYPE svg PUBLIC "-//W3C//DTD SVG 1.1//EN"
 "http://www.w3.org/Graphics/SVG/1.1/DTD/svg11.dtd">
<!-- Generated by graphviz version 2.30.1 (20150305.2338)
 -->
<!-- Title: ProcessTests Pages: 1 -->
<svg width="494pt" height="311pt"
 viewBox="0.00 0.00 494.00 311.00" xmlns="http://www.w3.org/2000/svg" xmlns:xlink="http://www.w3.org/1999/xlink">
<g id="graph0" class="graph" transform="scale(1 1) rotate(0) translate(4 307)">
<title>ProcessTests</title>
<!-- Node1 -->
<g id="node1" class="node"><title>Node1</title>
<polygon fill="#bfbfbf" stroke="black" points="0.5,-218.5 0.5,-237.5 77.5,-237.5 77.5,-218.5 0.5,-218.5"/>
<text text-anchor="middle" x="39" y="-225.5" font-family="Helvetica,sans-Serif" font-size="10.00">ProcessTests</text>
</g>
<!-- Node2 -->
<g id="node2" class="node"><title>Node2</title>
<g id="a_node2"><a xlink:href="classElmerModuleDriver_1_1TestingObject_aa25f45634aafbb580d94840ad8452745.html#aa25f45634aafbb580d94840ad8452745" target="_top" xlink:title="Tears down the testing fixtures if needed. ">
<polygon fill="none" stroke="black" points="246,-256.5 246,-275.5 300,-275.5 300,-256.5 246,-256.5"/>
<text text-anchor="middle" x="273" y="-263.5" font-family="Helvetica,sans-Serif" font-size="10.00">Epilogue</text>
</a>
</g>
</g>
<!-- Node1&#45;&gt;Node2 -->
<g id="edge1" class="edge"><title>Node1&#45;&gt;Node2</title>
<path fill="none" stroke="midnightblue" d="M77.5982,-235.386C89.2498,-237.602 102.142,-239.978 114,-242 155.651,-249.101 203.659,-256.246 235.722,-260.871"/>
<polygon fill="midnightblue" stroke="midnightblue" points="235.556,-264.383 245.952,-262.339 236.551,-257.454 235.556,-264.383"/>
</g>
<!-- Node3 -->
<g id="node3" class="node"><title>Node3</title>
<g id="a_node3"><a xlink:href="classElmerModuleDriver_1_1TestingObject_aa3cdb6d60e9d9834c19efaab0b044421.html#aa3cdb6d60e9d9834c19efaab0b044421" target="_top" xlink:title="Sets up the data fixtures for the tests. ">
<polygon fill="none" stroke="black" points="245.5,-218.5 245.5,-237.5 300.5,-237.5 300.5,-218.5 245.5,-218.5"/>
<text text-anchor="middle" x="273" y="-225.5" font-family="Helvetica,sans-Serif" font-size="10.00">Prologue</text>
</a>
</g>
</g>
<!-- Node1&#45;&gt;Node3 -->
<g id="edge2" class="edge"><title>Node1&#45;&gt;Node3</title>
<path fill="none" stroke="midnightblue" d="M77.5327,-228C121.013,-228 192.183,-228 235.305,-228"/>
<polygon fill="midnightblue" stroke="midnightblue" points="235.368,-231.5 245.368,-228 235.368,-224.5 235.368,-231.5"/>
</g>
<!-- Node4 -->
<g id="node4" class="node"><title>Node4</title>
<g id="a_node4"><a xlink:href="classElmerModuleDriver_1_1TestingObject_af1f07f14b9af7708e4264bb38937eed2.html#af1f07f14b9af7708e4264bb38937eed2" target="_top" xlink:title="Runs a test specified by name. ">
<polygon fill="none" stroke="black" points="114,-161.5 114,-180.5 168,-180.5 168,-161.5 114,-161.5"/>
<text text-anchor="middle" x="141" y="-168.5" font-family="Helvetica,sans-Serif" font-size="10.00">RunTest</text>
</a>
</g>
</g>
<!-- Node1&#45;&gt;Node4 -->
<g id="edge3" class="edge"><title>Node1&#45;&gt;Node4</title>
<path fill="none" stroke="midnightblue" d="M56.9636,-218.331C72.7177,-209.351 96.3919,-195.857 114.436,-185.571"/>
<polygon fill="midnightblue" stroke="midnightblue" points="116.332,-188.519 123.287,-180.526 112.866,-182.438 116.332,-188.519"/>
</g>
<!-- Node4&#45;&gt;Node2 -->
<g id="edge4" class="edge"><title>Node4&#45;&gt;Node2</title>
<path fill="none" stroke="midnightblue" d="M147.13,-180.528C156.333,-196.7 177.213,-229.47 204,-247 213.58,-253.27 225.222,-257.494 236.146,-260.33"/>
<polygon fill="midnightblue" stroke="midnightblue" points="235.367,-263.742 245.896,-262.563 236.93,-256.919 235.367,-263.742"/>
</g>
<!-- Node4&#45;&gt;Node3 -->
<g id="edge5" class="edge"><title>Node4&#45;&gt;Node3</title>
<path fill="none" stroke="midnightblue" d="M155.197,-180.59C167.362,-189.057 186.178,-201.23 204,-209 213.86,-213.299 224.95,-216.883 235.268,-219.737"/>
<polygon fill="midnightblue" stroke="midnightblue" points="234.695,-223.205 245.255,-222.348 236.465,-216.433 234.695,-223.205"/>
</g>
<!-- Node5 -->
<g id="node5" class="node"><title>Node5</title>
<g id="a_node5"><a xlink:href="classElmerModuleDriver_1_1TestingObject_ae4d44626a9c27ea8352a740ae562f97d.html#ae4d44626a9c27ea8352a740ae562f97d" target="_top" xlink:title="Test__ElasticBeam3D\l_LoadFunction">
<polygon fill="none" stroke="black" points="215.5,-39 215.5,-69 330.5,-69 330.5,-39 215.5,-39"/>
<text text-anchor="start" x="223.5" y="-57" font-family="Helvetica,sans-Serif" font-size="10.00">Test__ElasticBeam3D</text>
<text text-anchor="middle" x="273" y="-46" font-family="Helvetica,sans-Serif" font-size="10.00">_LoadFunction</text>
</a>
</g>
</g>
<!-- Node4&#45;&gt;Node5 -->
<g id="edge6" class="edge"><title>Node4&#45;&gt;Node5</title>
<path fill="none" stroke="midnightblue" d="M147.103,-161.25C156.415,-144.246 177.653,-108.895 204,-87 209.828,-82.1565 216.487,-77.8189 223.306,-74.0054"/>
<polygon fill="midnightblue" stroke="midnightblue" points="225.395,-76.8629 232.64,-69.1319 222.155,-70.6578 225.395,-76.8629"/>
</g>
<!-- Node8 -->
<g id="node8" class="node"><title>Node8</title>
<g id="a_node8"><a xlink:href="classElmerModuleDriver_1_1TestingObject_ada2078f55b55b73d4aacf78d061a57de.html#ada2078f55b55b73d4aacf78d061a57de" target="_top" xlink:title="Test__ElmerUnitTests">
<polygon fill="none" stroke="black" points="215.5,-0.5 215.5,-19.5 330.5,-19.5 330.5,-0.5 215.5,-0.5"/>
<text text-anchor="middle" x="273" y="-7.5" font-family="Helvetica,sans-Serif" font-size="10.00">Test__ElmerUnitTests</text>
</a>
</g>
</g>
<!-- Node4&#45;&gt;Node8 -->
<g id="edge9" class="edge"><title>Node4&#45;&gt;Node8</title>
<path fill="none" stroke="midnightblue" d="M143.327,-161.401C147.378,-135.831 161.983,-65.5404 204,-29 205.942,-27.3108 208.024,-25.7709 210.208,-24.3672"/>
<polygon fill="midnightblue" stroke="midnightblue" points="211.92,-27.4204 219.068,-19.6 208.603,-21.2561 211.92,-27.4204"/>
</g>
<!-- Node9 -->
<g id="node9" class="node"><title>Node9</title>
<g id="a_node9"><a xlink:href="classElmerModuleDriver_1_1TestingObject_a14258b94075936cb7bfadbcfc9a37b87.html#a14258b94075936cb7bfadbcfc9a37b87" target="_top" xlink:title="Test for ElmerModuleDriver::ExampleFunction. ">
<polygon fill="none" stroke="black" points="212,-96.5 212,-115.5 334,-115.5 334,-96.5 212,-96.5"/>
<text text-anchor="middle" x="273" y="-103.5" font-family="Helvetica,sans-Serif" font-size="10.00">Test__ExampleFunction</text>
</a>
</g>
</g>
<!-- Node4&#45;&gt;Node9 -->
<g id="edge11" class="edge"><title>Node4&#45;&gt;Node9</title>
<path fill="none" stroke="midnightblue" d="M156.376,-161.208C168.689,-153.063 187.064,-141.473 204,-133 213.9,-128.047 224.94,-123.337 235.196,-119.279"/>
<polygon fill="midnightblue" stroke="midnightblue" points="236.658,-122.467 244.727,-115.601 234.137,-115.936 236.658,-122.467"/>
</g>
<!-- Node11 -->
<g id="node11" class="node"><title>Node11</title>
<g id="a_node11"><a xlink:href="classElmerModuleDriver_1_1TestingObject_a7de28a366b07117111ce7c1e9515a434.html#a7de28a366b07117111ce7c1e9515a434" target="_top" xlink:title="Test for ElmerModuleDriver::MidPointQuadrature. ">
<polygon fill="none" stroke="black" points="206.5,-142.5 206.5,-161.5 339.5,-161.5 339.5,-142.5 206.5,-142.5"/>
<text text-anchor="middle" x="273" y="-149.5" font-family="Helvetica,sans-Serif" font-size="10.00">Test__MidPointQuadrature</text>
</a>
</g>
</g>
<!-- Node4&#45;&gt;Node11 -->
<g id="edge13" class="edge"><title>Node4&#45;&gt;Node11</title>
<path fill="none" stroke="midnightblue" d="M168.307,-167.155C176.71,-165.927 186.468,-164.501 196.572,-163.024"/>
<polygon fill="midnightblue" stroke="midnightblue" points="197.364,-166.446 206.753,-161.536 196.352,-159.519 197.364,-166.446"/>
</g>
<!-- Node15 -->
<g id="node15" class="node"><title>Node15</title>
<g id="a_node15"><a xlink:href="classElmerModuleDriver_1_1TestingObject_a7928083cb5586c2b361e1d29a8dc2b54.html#a7928083cb5586c2b361e1d29a8dc2b54" target="_top" xlink:title="Test for ElmerModuleDriver::TrapezoidQuadrature. ">
<polygon fill="none" stroke="black" points="204.5,-180.5 204.5,-199.5 341.5,-199.5 341.5,-180.5 204.5,-180.5"/>
<text text-anchor="middle" x="273" y="-187.5" font-family="Helvetica,sans-Serif" font-size="10.00">Test__TrapezoidQuadrature</text>
</a>
</g>
</g>
<!-- Node4&#45;&gt;Node15 -->
<g id="edge17" class="edge"><title>Node4&#45;&gt;Node15</title>
<path fill="none" stroke="midnightblue" d="M168.307,-174.845C176.71,-176.073 186.468,-177.499 196.572,-178.976"/>
<polygon fill="midnightblue" stroke="midnightblue" points="196.352,-182.481 206.753,-180.464 197.364,-175.554 196.352,-182.481"/>
</g>
<!-- Node6 -->
<g id="node6" class="node"><title>Node6</title>
<g id="a_node6"><a xlink:href="classElmerModuleDriver_1_1TestingObject_a90864b099beaf9044bf8fff8a9857c0d.html#a90864b099beaf9044bf8fff8a9857c0d" target="_top" xlink:title="Function to copy input data from source testing directory for use in unit tests. ">
<polygon fill="none" stroke="black" points="394.5,-0.5 394.5,-19.5 469.5,-19.5 469.5,-0.5 394.5,-0.5"/>
<text text-anchor="middle" x="432" y="-7.5" font-family="Helvetica,sans-Serif" font-size="10.00">GetInputData</text>
</a>
</g>
</g>
<!-- Node5&#45;&gt;Node6 -->
<g id="edge7" class="edge"><title>Node5&#45;&gt;Node6</title>
<path fill="none" stroke="midnightblue" d="M327.591,-38.9808C346.929,-33.5613 368.516,-27.5114 386.944,-22.3468"/>
<polygon fill="midnightblue" stroke="midnightblue" points="388.138,-25.6471 396.823,-19.5783 386.249,-18.9068 388.138,-25.6471"/>
</g>
<!-- Node7 -->
<g id="node7" class="node"><title>Node7</title>
<g id="a_node7"><a xlink:href="classElmerModuleDriver_1_1TestingObject_a49a87f521aad787421e458e8d303c612.html#a49a87f521aad787421e458e8d303c612" target="_top" xlink:title="Function to compare two files. ">
<polygon fill="none" stroke="black" points="402,-38.5 402,-57.5 462,-57.5 462,-38.5 402,-38.5"/>
<text text-anchor="middle" x="432" y="-45.5" font-family="Helvetica,sans-Serif" font-size="10.00">streamdiff</text>
</a>
</g>
</g>
<!-- Node5&#45;&gt;Node7 -->
<g id="edge8" class="edge"><title>Node5&#45;&gt;Node7</title>
<path fill="none" stroke="midnightblue" d="M330.681,-51.8339C350.893,-51.0614 373.201,-50.2089 391.638,-49.5043"/>
<polygon fill="midnightblue" stroke="midnightblue" points="391.864,-52.9983 401.723,-49.1189 391.596,-46.0034 391.864,-52.9983"/>
</g>
<!-- Node8&#45;&gt;Node6 -->
<g id="edge10" class="edge"><title>Node8&#45;&gt;Node6</title>
<path fill="none" stroke="midnightblue" d="M330.681,-10C348.283,-10 367.475,-10 384.316,-10"/>
<polygon fill="midnightblue" stroke="midnightblue" points="384.463,-13.5001 394.463,-10 384.463,-6.5001 384.463,-13.5001"/>
</g>
<!-- Node10 -->
<g id="node10" class="node"><title>Node10</title>
<g id="a_node10"><a xlink:href="namespaceElmerModuleDriver_a4cc78661909b0a33b6b886a4d4290997.html#a4cc78661909b0a33b6b886a4d4290997" target="_top" xlink:title="Example function for ElmerModuleDriver (this is a brief description). ">
<polygon fill="none" stroke="black" points="379,-77 379,-107 485,-107 485,-77 379,-77"/>
<text text-anchor="start" x="387" y="-95" font-family="Helvetica,sans-Serif" font-size="10.00">ElmerModuleDriver::</text>
<text text-anchor="middle" x="432" y="-84" font-family="Helvetica,sans-Serif" font-size="10.00">ExampleFunction</text>
</a>
</g>
</g>
<!-- Node9&#45;&gt;Node10 -->
<g id="edge12" class="edge"><title>Node9&#45;&gt;Node10</title>
<path fill="none" stroke="midnightblue" d="M334.251,-100.627C345.506,-99.6236 357.291,-98.5727 368.61,-97.5635"/>
<polygon fill="midnightblue" stroke="midnightblue" points="369.194,-101.025 378.844,-96.6509 368.573,-94.053 369.194,-101.025"/>
</g>
<!-- Node12 -->
<g id="node12" class="node"><title>Node12</title>
<g id="a_node12"><a xlink:href="namespaceElmerModuleDriver_1_1TestFixture_a2b09de3be217e128933f09f43f9d7160.html#a2b09de3be217e128933f09f43f9d7160" target="_top" xlink:title="Simple test function fixture returns . ">
<polygon fill="none" stroke="black" points="379,-224 379,-254 485,-254 485,-224 379,-224"/>
<text text-anchor="start" x="387" y="-242" font-family="Helvetica,sans-Serif" font-size="10.00">ElmerModuleDriver::</text>
<text text-anchor="middle" x="432" y="-231" font-family="Helvetica,sans-Serif" font-size="10.00">TestFixture::F1</text>
</a>
</g>
</g>
<!-- Node11&#45;&gt;Node12 -->
<g id="edge14" class="edge"><title>Node11&#45;&gt;Node12</title>
<path fill="none" stroke="midnightblue" d="M322.39,-161.598C329.269,-164.061 336.027,-167.145 342,-171 362.942,-184.515 358.268,-198.772 378,-214 380.079,-215.604 382.278,-217.139 384.55,-218.603"/>
<polygon fill="midnightblue" stroke="midnightblue" points="383.19,-221.862 393.59,-223.887 386.723,-215.818 383.19,-221.862"/>
</g>
<!-- Node13 -->
<g id="node13" class="node"><title>Node13</title>
<g id="a_node13"><a xlink:href="namespaceElmerModuleDriver_1_1TestFixture_a79ce78283ad52a81c4107d6cdeb9337c.html#a79ce78283ad52a81c4107d6cdeb9337c" target="_top" xlink:title="Simple test function fixture returns . ">
<polygon fill="none" stroke="black" points="379,-175 379,-205 485,-205 485,-175 379,-175"/>
<text text-anchor="start" x="387" y="-193" font-family="Helvetica,sans-Serif" font-size="10.00">ElmerModuleDriver::</text>
<text text-anchor="middle" x="432" y="-182" font-family="Helvetica,sans-Serif" font-size="10.00">TestFixture::F2</text>
</a>
</g>
</g>
<!-- Node11&#45;&gt;Node13 -->
<g id="edge15" class="edge"><title>Node11&#45;&gt;Node13</title>
<path fill="none" stroke="midnightblue" d="M313.618,-161.589C330.404,-165.652 350.364,-170.483 369.019,-174.998"/>
<polygon fill="midnightblue" stroke="midnightblue" points="368.383,-178.445 378.926,-177.396 370.03,-171.642 368.383,-178.445"/>
</g>
<!-- Node14 -->
<g id="node14" class="node"><title>Node14</title>
<g id="a_node14"><a xlink:href="namespaceElmerModuleDriver_a94390a668cbb6637ea246c660d00d430.html#a94390a668cbb6637ea246c660d00d430" target="_top" xlink:title="Integrates f with composite midpoint rule. ">
<polygon fill="none" stroke="black" points="379,-126 379,-156 485,-156 485,-126 379,-126"/>
<text text-anchor="start" x="387" y="-144" font-family="Helvetica,sans-Serif" font-size="10.00">ElmerModuleDriver::</text>
<text text-anchor="middle" x="432" y="-133" font-family="Helvetica,sans-Serif" font-size="10.00">MidPointQuadrature</text>
</a>
</g>
</g>
<!-- Node11&#45;&gt;Node14 -->
<g id="edge16" class="edge"><title>Node11&#45;&gt;Node14</title>
<path fill="none" stroke="midnightblue" d="M339.672,-147.399C349.299,-146.724 359.19,-146.031 368.745,-145.362"/>
<polygon fill="midnightblue" stroke="midnightblue" points="369.222,-148.837 378.953,-144.647 368.733,-141.854 369.222,-148.837"/>
</g>
<!-- Node15&#45;&gt;Node12 -->
<g id="edge18" class="edge"><title>Node15&#45;&gt;Node12</title>
<path fill="none" stroke="midnightblue" d="M309.397,-199.51C319.922,-202.44 331.457,-205.753 342,-209 353.687,-212.6 366.166,-216.665 377.968,-220.615"/>
<polygon fill="midnightblue" stroke="midnightblue" points="377.097,-224.014 387.691,-223.892 379.333,-217.381 377.097,-224.014"/>
</g>
<!-- Node15&#45;&gt;Node13 -->
<g id="edge19" class="edge"><title>Node15&#45;&gt;Node13</title>
<path fill="none" stroke="midnightblue" d="M341.949,-190C350.765,-190 359.761,-190 368.483,-190"/>
<polygon fill="midnightblue" stroke="midnightblue" points="368.568,-193.5 378.568,-190 368.568,-186.5 368.568,-193.5"/>
</g>
<!-- Node16 -->
<g id="node16" class="node"><title>Node16</title>
<g id="a_node16"><a xlink:href="namespaceElmerModuleDriver_a7ea1066c129172a0edf5647d8254e957.html#a7ea1066c129172a0edf5647d8254e957" target="_top" xlink:title="Integrates f with composite trapezoid rule. ">
<polygon fill="none" stroke="black" points="378.5,-273 378.5,-303 485.5,-303 485.5,-273 378.5,-273"/>
<text text-anchor="start" x="386.5" y="-291" font-family="Helvetica,sans-Serif" font-size="10.00">ElmerModuleDriver::</text>
<text text-anchor="middle" x="432" y="-280" font-family="Helvetica,sans-Serif" font-size="10.00">TrapezoidQuadrature</text>
</a>
</g>
</g>
<!-- Node15&#45;&gt;Node16 -->
<g id="edge20" class="edge"><title>Node15&#45;&gt;Node16</title>
<path fill="none" stroke="midnightblue" d="M324.192,-199.56C330.519,-202.02 336.642,-205.113 342,-209 365.347,-225.938 356.159,-244.16 378,-263 379.753,-264.512 381.612,-265.952 383.546,-267.322"/>
<polygon fill="midnightblue" stroke="midnightblue" points="382.068,-270.527 392.398,-272.879 385.79,-264.598 382.068,-270.527"/>
</g>
</g>
</svg>
