<?xml version="1.0" encoding="UTF-8" standalone="no"?>
<!DOCTYPE svg PUBLIC "-//W3C//DTD SVG 1.1//EN"
 "http://www.w3.org/Graphics/SVG/1.1/DTD/svg11.dtd">
<!-- Generated by graphviz version 2.30.1 (20150305.2338)
 -->
<!-- Title: SerialProgram Pages: 1 -->
<!--zoomable 583 -->
<svg id="main" version="1.1" xmlns="http://www.w3.org/2000/svg" xmlns:xlink="http://www.w3.org/1999/xlink" xml:space="preserve" onload="init(evt)">
<style type="text/css"><![CDATA[
.edge:hover path { stroke: red; }
.edge:hover polygon { stroke: red; fill: red; }
]]></style>
<script type="text/javascript"><![CDATA[
var edges = document.getElementsByTagName('g');
if (edges && edges.length) {
  for (var i=0;i<edges.length;i++) {
    if (edges[i].id.substr(0,4)=='edge') {
      edges[i].setAttribute('class','edge');
    }
  }
}
]]></script>
        <defs>
                <circle id="rim" cx="0" cy="0" r="7"/>
                <circle id="rim2" cx="0" cy="0" r="3.5"/>
                <g id="zoomPlus">
                        <use xlink:href="#rim" fill="#404040">
                                <set attributeName="fill" to="#808080" begin="zoomplus.mouseover" end="zoomplus.mouseout"/>
                        </use>
                        <path d="M-4,0h8M0,-4v8" fill="none" stroke="white" stroke-width="1.5" pointer-events="none"/>
                </g>
                <g id="zoomMin">
                        <use xlink:href="#rim" fill="#404040">
                                <set attributeName="fill" to="#808080" begin="zoomminus.mouseover" end="zoomminus.mouseout"/>
                        </use>
                        <path d="M-4,0h8" fill="none" stroke="white" stroke-width="1.5" pointer-events="none"/>
                </g>
                <g id="dirArrow">
                        <path fill="none" stroke="white" stroke-width="1.5" d="M0,-3.0v7 M-2.5,-0.5L0,-3.0L2.5,-0.5"/>
                </g>
               <g id="resetDef">
                       <use xlink:href="#rim2" fill="#404040">
                               <set attributeName="fill" to="#808080" begin="reset.mouseover" end="reset.mouseout"/>
                       </use>
               </g>
        </defs>

<script type="text/javascript">
var viewWidth = 1656;
var viewHeight = 583;
var sectionId = 'dynsection-1';
</script>
<script xlink:href="svgpan.js"/>
<svg id="graph" class="graph">
<g id="viewport">
<title>SerialProgram</title>
<!-- Node1 -->
<g id="node1" class="node"><title>Node1</title>
<polygon fill="#bfbfbf" stroke="black" points="1570,-72.5 1570,-91.5 1648,-91.5 1648,-72.5 1570,-72.5"/>
<text text-anchor="middle" x="1609" y="-79.5" font-family="Helvetica,sans-Serif" font-size="10.00">SerialProgram</text>
</g>
<!-- Node2 -->
<g id="node2" class="node"><title>Node2</title>
<g id="a_node2"><a xlink:href="classIRAD_1_1Global_1_1Program.html" target="_top" xlink:title="SerialProgramType">
<polygon fill="none" stroke="black" points="1432,-129.5 1432,-148.5 1532,-148.5 1532,-129.5 1432,-129.5"/>
<text text-anchor="middle" x="1482" y="-136.5" font-family="Helvetica,sans-Serif" font-size="10.00">SerialProgramType</text>
</a>
</g>
</g>
<!-- Node2&#45;&gt;Node1 -->
<g id="edge1" class="edge"><title>Node2&#45;&gt;Node1</title>
<path fill="none" stroke="midnightblue" d="M1513.17,-125.243C1536.01,-114.828 1566.8,-100.789 1587.01,-91.5716"/>
<polygon fill="midnightblue" stroke="midnightblue" points="1511.57,-122.126 1503.92,-129.459 1514.47,-128.495 1511.57,-122.126"/>
</g>
<!-- Node3 -->
<g id="node3" class="node"><title>Node3</title>
<g id="a_node3"><a xlink:href="classIRAD_1_1Global_1_1GlobalObj.html" target="_top" xlink:title="GlobalType">
<polygon fill="none" stroke="black" points="1310,-265.5 1310,-284.5 1376,-284.5 1376,-265.5 1310,-265.5"/>
<text text-anchor="middle" x="1343" y="-272.5" font-family="Helvetica,sans-Serif" font-size="10.00">GlobalType</text>
</a>
</g>
</g>
<!-- Node3&#45;&gt;Node2 -->
<g id="edge2" class="edge"><title>Node3&#45;&gt;Node2</title>
<path fill="none" stroke="midnightblue" d="M1361.24,-257.886C1390.33,-229.013 1448.22,-171.539 1471.24,-148.692"/>
<polygon fill="midnightblue" stroke="midnightblue" points="1358.48,-255.69 1353.85,-265.219 1363.42,-260.658 1358.48,-255.69"/>
</g>
<!-- Node4 -->
<g id="node4" class="node"><title>Node4</title>
<g id="a_node4"><a xlink:href="classIRAD_1_1Profiler_1_1ProfilerObj.html" target="_top" xlink:title="Performance profiling object. ">
<polygon fill="none" stroke="black" points="831,-397.5 831,-416.5 893,-416.5 893,-397.5 831,-397.5"/>
<text text-anchor="middle" x="862" y="-404.5" font-family="Helvetica,sans-Serif" font-size="10.00">ProfilerObj</text>
</a>
</g>
</g>
<!-- Node4&#45;&gt;Node3 -->
<g id="edge3" class="edge"><title>Node4&#45;&gt;Node3</title>
<path fill="none" stroke="#9a32cd" stroke-dasharray="5,2" d="M903.215,-413.785C910.129,-414.707 917.257,-415.505 924,-416 963.006,-418.862 973.182,-420.779 1012,-416 1139.31,-400.327 1186.21,-418.547 1292,-346 1314.88,-330.311 1330.7,-300.496 1337.79,-284.967"/>
<polygon fill="#9a32cd" stroke="#9a32cd" points="903.705,-410.319 893.31,-412.366 902.713,-417.249 903.705,-410.319"/>
<text text-anchor="middle" x="1095" y="-417" font-family="Helvetica,sans-Serif" font-size="10.00"> _Profiler</text>
</g>
<!-- Node21 -->
<g id="node21" class="node"><title>Node21</title>
<g id="a_node21"><a xlink:href="classIRAD_1_1Global_1_1GlobalObj.html" target="_top" xlink:title="Base global object. ">
<polygon fill="none" stroke="black" points="1030,-329 1030,-359 1160,-359 1160,-329 1030,-329"/>
<text text-anchor="start" x="1038" y="-347" font-family="Helvetica,sans-Serif" font-size="10.00">GlobalObj&lt; StackType,</text>
<text text-anchor="middle" x="1095" y="-336" font-family="Helvetica,sans-Serif" font-size="10.00"> ErrorType, ProfilerType &gt;</text>
</a>
</g>
</g>
<!-- Node4&#45;&gt;Node21 -->
<g id="edge29" class="edge"><title>Node4&#45;&gt;Node21</title>
<path fill="none" stroke="#9a32cd" stroke-dasharray="5,2" d="M903.44,-403.178C933.801,-399.601 976.137,-393.098 1012,-382 1030.74,-376.202 1050.73,-367.006 1066.28,-359.113"/>
<polygon fill="#9a32cd" stroke="#9a32cd" points="902.778,-399.73 893.231,-404.324 903.559,-406.686 902.778,-399.73"/>
<text text-anchor="middle" x="968" y="-404" font-family="Helvetica,sans-Serif" font-size="10.00"> _Profiler</text>
</g>
<!-- Node5 -->
<g id="node5" class="node"><title>Node5</title>
<polygon fill="none" stroke="#bfbfbf" points="552.5,-361 552.5,-391 685.5,-391 685.5,-361 552.5,-361"/>
<text text-anchor="start" x="560.5" y="-379" font-family="Helvetica,sans-Serif" font-size="10.00">map&lt; std::string, unsigned</text>
<text text-anchor="middle" x="619" y="-368" font-family="Helvetica,sans-Serif" font-size="10.00"> int &gt;</text>
</g>
<!-- Node5&#45;&gt;Node4 -->
<g id="edge4" class="edge"><title>Node5&#45;&gt;Node4</title>
<path fill="none" stroke="#9a32cd" stroke-dasharray="5,2" d="M695.738,-384.047C727.927,-387.671 765.841,-392.21 800,-397 810.096,-398.416 821.1,-400.158 830.946,-401.789"/>
<polygon fill="#9a32cd" stroke="#9a32cd" points="695.828,-380.535 685.501,-382.903 695.05,-387.492 695.828,-380.535"/>
<text text-anchor="middle" x="752" y="-400" font-family="Helvetica,sans-Serif" font-size="10.00"> function_map</text>
</g>
<!-- Node6 -->
<g id="node6" class="node"><title>Node6</title>
<g id="a_node6"><a xlink:title="STL class. ">
<polygon fill="none" stroke="#bfbfbf" points="319.5,-459.5 319.5,-478.5 360.5,-478.5 360.5,-459.5 319.5,-459.5"/>
<text text-anchor="middle" x="340" y="-466.5" font-family="Helvetica,sans-Serif" font-size="10.00">string</text>
</a>
</g>
</g>
<!-- Node6&#45;&gt;Node5 -->
<g id="edge5" class="edge"><title>Node6&#45;&gt;Node5</title>
<path fill="none" stroke="#9a32cd" stroke-dasharray="5,2" d="M350.271,-450.48C362.42,-428.529 386.001,-393.036 418,-378 459.641,-358.433 511.755,-358.585 552.345,-363.286"/>
<polygon fill="#9a32cd" stroke="#9a32cd" points="347.087,-449.014 345.505,-459.49 353.275,-452.287 347.087,-449.014"/>
<text text-anchor="middle" x="476" y="-381" font-family="Helvetica,sans-Serif" font-size="10.00"> keys</text>
</g>
<!-- Node14 -->
<g id="node14" class="node"><title>Node14</title>
<polygon fill="none" stroke="#bfbfbf" points="569,-410 569,-440 669,-440 669,-410 569,-410"/>
<text text-anchor="start" x="577" y="-428" font-family="Helvetica,sans-Serif" font-size="10.00">map&lt; unsigned int,</text>
<text text-anchor="middle" x="619" y="-417" font-family="Helvetica,sans-Serif" font-size="10.00"> std::string &gt;</text>
</g>
<!-- Node6&#45;&gt;Node14 -->
<g id="edge15" class="edge"><title>Node6&#45;&gt;Node14</title>
<path fill="none" stroke="#9a32cd" stroke-dasharray="5,2" d="M370.867,-464.256C418.311,-456.72 511.385,-441.935 568.79,-432.817"/>
<polygon fill="#9a32cd" stroke="#9a32cd" points="370.248,-460.81 360.921,-465.836 371.346,-467.723 370.248,-460.81"/>
<text text-anchor="middle" x="476" y="-459" font-family="Helvetica,sans-Serif" font-size="10.00"> elements</text>
</g>
<!-- Node6&#45;&gt;Node3 -->
<g id="edge23" class="edge"><title>Node6&#45;&gt;Node3</title>
<path fill="none" stroke="#9a32cd" stroke-dasharray="5,2" d="M370.589,-475.761C421.055,-486.684 527.139,-507 618,-507 618,-507 618,-507 1096,-507 1198.14,-507 1224.6,-463.746 1292,-387 1319.82,-355.32 1334.52,-305.646 1339.75,-284.764"/>
<polygon fill="#9a32cd" stroke="#9a32cd" points="371.208,-472.314 360.69,-473.584 369.704,-479.15 371.208,-472.314"/>
<text text-anchor="middle" x="862" y="-510" font-family="Helvetica,sans-Serif" font-size="10.00"> _name</text>
</g>
<!-- Node20 -->
<g id="node20" class="node"><title>Node20</title>
<polygon fill="none" stroke="#bfbfbf" points="704.5,-236.5 704.5,-255.5 799.5,-255.5 799.5,-236.5 704.5,-236.5"/>
<text text-anchor="middle" x="752" y="-243.5" font-family="Helvetica,sans-Serif" font-size="10.00">list&lt; StackType &gt;</text>
</g>
<!-- Node6&#45;&gt;Node20 -->
<g id="edge25" class="edge"><title>Node6&#45;&gt;Node20</title>
<path fill="none" stroke="#9a32cd" stroke-dasharray="5,2" d="M350.8,-450.255C362.797,-427.118 383.547,-386.475 400,-351 408.545,-332.576 401.717,-321.137 418,-309 514.137,-237.342 578.046,-330.185 686,-278 696.186,-273.076 694.281,-265.792 704,-260 706.779,-258.344 709.769,-256.871 712.845,-255.563"/>
<polygon fill="#9a32cd" stroke="#9a32cd" points="347.602,-448.817 346.091,-459.304 353.812,-452.049 347.602,-448.817"/>
<text text-anchor="middle" x="476" y="-312" font-family="Helvetica,sans-Serif" font-size="10.00"> elements</text>
</g>
<!-- Node6&#45;&gt;Node21 -->
<g id="edge30" class="edge"><title>Node6&#45;&gt;Node21</title>
<path fill="none" stroke="#9a32cd" stroke-dasharray="5,2" d="M371.104,-469.804C409.101,-470.597 476.454,-471.27 534,-468 747.354,-455.875 817.988,-505.589 1012,-416 1021.99,-411.387 1021.82,-406.366 1030,-399 1045.24,-385.271 1062.95,-370.109 1075.87,-359.187"/>
<polygon fill="#9a32cd" stroke="#9a32cd" points="370.824,-466.296 360.747,-469.569 370.665,-473.295 370.824,-466.296"/>
<text text-anchor="middle" x="752" y="-475" font-family="Helvetica,sans-Serif" font-size="10.00"> _name</text>
</g>
<!-- Node6&#45;&gt;Node1 -->
<g id="edge39" class="edge"><title>Node6&#45;&gt;Node1</title>
<path fill="none" stroke="#9a32cd" stroke-dasharray="5,2" d="M365.351,-483.756C380.138,-492.175 399.645,-502.345 418,-509 503.564,-540.023 526.985,-553 618,-553 618,-553 618,-553 1483,-553 1581.98,-553 1604.45,-159.475 1607.58,-91.8375"/>
<polygon fill="#9a32cd" stroke="#9a32cd" points="366.778,-480.537 356.375,-478.531 363.257,-486.587 366.778,-480.537"/>
<text text-anchor="middle" x="1095" y="-567" font-family="Helvetica,sans-Serif" font-size="10.00"> input_name</text>
<text text-anchor="middle" x="1095" y="-556" font-family="Helvetica,sans-Serif" font-size="10.00">output_name</text>
</g>
<!-- Node7 -->
<g id="node7" class="node"><title>Node7</title>
<g id="a_node7"><a xlink:title="STL class. ">
<polygon fill="none" stroke="#bfbfbf" points="94,-459.5 94,-478.5 200,-478.5 200,-459.5 94,-459.5"/>
<text text-anchor="middle" x="147" y="-466.5" font-family="Helvetica,sans-Serif" font-size="10.00">basic_string&lt; char &gt;</text>
</a>
</g>
</g>
<!-- Node7&#45;&gt;Node6 -->
<g id="edge6" class="edge"><title>Node7&#45;&gt;Node6</title>
<path fill="none" stroke="midnightblue" d="M210.581,-469C248.231,-469 293.657,-469 319.145,-469"/>
<polygon fill="midnightblue" stroke="midnightblue" points="210.192,-465.5 200.192,-469 210.192,-472.5 210.192,-465.5"/>
</g>
<!-- Node8 -->
<g id="node8" class="node"><title>Node8</title>
<g id="a_node8"><a xlink:title="STL class. ">
<polygon fill="none" stroke="#bfbfbf" points="304,-322.5 304,-341.5 376,-341.5 376,-322.5 304,-322.5"/>
<text text-anchor="middle" x="340" y="-329.5" font-family="Helvetica,sans-Serif" font-size="10.00">map&lt; K, T &gt;</text>
</a>
</g>
</g>
<!-- Node8&#45;&gt;Node5 -->
<g id="edge7" class="edge"><title>Node8&#45;&gt;Node5</title>
<path fill="none" stroke="orange" stroke-dasharray="5,2" d="M386.238,-326.382C425.815,-322.843 484.543,-320.941 534,-333 556.283,-338.433 579.316,-350.784 595.615,-360.861"/>
<polygon fill="orange" stroke="orange" points="385.724,-322.916 376.107,-327.362 386.397,-329.883 385.724,-322.916"/>
<text text-anchor="start" x="425.5" y="-347" font-family="Helvetica,sans-Serif" font-size="10.00"> &lt; std::string, unsigned</text>
<text text-anchor="middle" x="476" y="-336" font-family="Helvetica,sans-Serif" font-size="10.00"> int &gt;</text>
</g>
<!-- Node8&#45;&gt;Node14 -->
<g id="edge16" class="edge"><title>Node8&#45;&gt;Node14</title>
<path fill="none" stroke="orange" stroke-dasharray="5,2" d="M358.746,-348.896C373.46,-361.921 395.535,-379.298 418,-389 444.478,-400.435 518.715,-411.948 568.906,-418.775"/>
<polygon fill="orange" stroke="orange" points="360.733,-345.972 350.986,-341.82 356.017,-351.144 360.733,-345.972"/>
<text text-anchor="start" x="433.5" y="-428" font-family="Helvetica,sans-Serif" font-size="10.00"> &lt; unsigned int, std</text>
<text text-anchor="middle" x="476" y="-417" font-family="Helvetica,sans-Serif" font-size="10.00">::string &gt;</text>
</g>
<!-- Node9 -->
<g id="node9" class="node"><title>Node9</title>
<polygon fill="none" stroke="#bfbfbf" points="132.5,-322.5 132.5,-341.5 161.5,-341.5 161.5,-322.5 132.5,-322.5"/>
<text text-anchor="middle" x="147" y="-329.5" font-family="Helvetica,sans-Serif" font-size="10.00">K</text>
</g>
<!-- Node9&#45;&gt;Node8 -->
<g id="edge8" class="edge"><title>Node9&#45;&gt;Node8</title>
<path fill="none" stroke="#9a32cd" stroke-dasharray="5,2" d="M171.883,-332C205.08,-332 265.403,-332 303.773,-332"/>
<polygon fill="#9a32cd" stroke="#9a32cd" points="171.736,-328.5 161.736,-332 171.736,-335.5 171.736,-328.5"/>
<text text-anchor="middle" x="240" y="-335" font-family="Helvetica,sans-Serif" font-size="10.00"> keys</text>
</g>
<!-- Node10 -->
<g id="node10" class="node"><title>Node10</title>
<polygon fill="none" stroke="#bfbfbf" points="132.5,-248.5 132.5,-267.5 161.5,-267.5 161.5,-248.5 132.5,-248.5"/>
<text text-anchor="middle" x="147" y="-255.5" font-family="Helvetica,sans-Serif" font-size="10.00">T</text>
</g>
<!-- Node10&#45;&gt;Node8 -->
<g id="edge9" class="edge"><title>Node10&#45;&gt;Node8</title>
<path fill="none" stroke="#9a32cd" stroke-dasharray="5,2" d="M171.454,-267.087C207.757,-281.152 277.224,-308.066 314.281,-322.423"/>
<polygon fill="#9a32cd" stroke="#9a32cd" points="172.325,-263.671 161.736,-263.322 169.796,-270.198 172.325,-263.671"/>
<text text-anchor="middle" x="240" y="-305" font-family="Helvetica,sans-Serif" font-size="10.00"> elements</text>
</g>
<!-- Node13 -->
<g id="node13" class="node"><title>Node13</title>
<g id="a_node13"><a xlink:title="STL class. ">
<polygon fill="none" stroke="#bfbfbf" points="313.5,-186.5 313.5,-205.5 366.5,-205.5 366.5,-186.5 313.5,-186.5"/>
<text text-anchor="middle" x="340" y="-193.5" font-family="Helvetica,sans-Serif" font-size="10.00">list&lt; T &gt;</text>
</a>
</g>
</g>
<!-- Node10&#45;&gt;Node13 -->
<g id="edge13" class="edge"><title>Node10&#45;&gt;Node13</title>
<path fill="none" stroke="#9a32cd" stroke-dasharray="5,2" d="M171.368,-250.415C207.328,-238.742 275.973,-216.459 313.294,-204.344"/>
<polygon fill="#9a32cd" stroke="#9a32cd" points="170.167,-247.125 161.736,-253.541 172.328,-253.783 170.167,-247.125"/>
<text text-anchor="middle" x="240" y="-238" font-family="Helvetica,sans-Serif" font-size="10.00"> elements</text>
</g>
<!-- Node11 -->
<g id="node11" class="node"><title>Node11</title>
<polygon fill="none" stroke="#bfbfbf" points="569,-239 569,-269 669,-269 669,-239 569,-239"/>
<text text-anchor="start" x="577" y="-257" font-family="Helvetica,sans-Serif" font-size="10.00">list&lt; IRAD::Profiler</text>
<text text-anchor="middle" x="619" y="-246" font-family="Helvetica,sans-Serif" font-size="10.00">::Event &gt;</text>
</g>
<!-- Node11&#45;&gt;Node4 -->
<g id="edge10" class="edge"><title>Node11&#45;&gt;Node4</title>
<path fill="none" stroke="#9a32cd" stroke-dasharray="5,2" d="M641.068,-276.448C657.056,-292.389 680.27,-313.31 704,-327 743.08,-349.546 763.252,-333.825 800,-360 810.573,-367.531 808.138,-374.559 818,-383 824.495,-388.559 832.477,-393.437 839.794,-397.318"/>
<polygon fill="#9a32cd" stroke="#9a32cd" points="643.332,-273.759 633.829,-269.076 638.338,-278.663 643.332,-273.759"/>
<text text-anchor="middle" x="752" y="-374" font-family="Helvetica,sans-Serif" font-size="10.00"> event_list</text>
<text text-anchor="middle" x="752" y="-363" font-family="Helvetica,sans-Serif" font-size="10.00">open_event_list</text>
</g>
<!-- Node12 -->
<g id="node12" class="node"><title>Node12</title>
<g id="a_node12"><a xlink:href="classIRAD_1_1Profiler_1_1Event.html" target="_top" xlink:title="Marks construct entry/exit. ">
<polygon fill="none" stroke="black" points="319,-254.5 319,-273.5 361,-273.5 361,-254.5 319,-254.5"/>
<text text-anchor="middle" x="340" y="-261.5" font-family="Helvetica,sans-Serif" font-size="10.00">Event</text>
</a>
</g>
</g>
<!-- Node12&#45;&gt;Node11 -->
<g id="edge11" class="edge"><title>Node12&#45;&gt;Node11</title>
<path fill="none" stroke="#9a32cd" stroke-dasharray="5,2" d="M371.371,-262.904C419.024,-261.183 511.809,-257.834 568.994,-255.769"/>
<polygon fill="#9a32cd" stroke="#9a32cd" points="371.236,-259.406 361.368,-263.265 371.488,-266.402 371.236,-259.406"/>
<text text-anchor="middle" x="476" y="-265" font-family="Helvetica,sans-Serif" font-size="10.00"> elements</text>
</g>
<!-- Node13&#45;&gt;Node11 -->
<g id="edge12" class="edge"><title>Node13&#45;&gt;Node11</title>
<path fill="none" stroke="orange" stroke-dasharray="5,2" d="M376.367,-203.405C425.248,-213.64 513.664,-232.153 568.917,-243.723"/>
<polygon fill="orange" stroke="orange" points="377.068,-199.976 366.563,-201.353 375.633,-206.828 377.068,-199.976"/>
<text text-anchor="middle" x="476" y="-239" font-family="Helvetica,sans-Serif" font-size="10.00"> &lt; IRAD::Profiler::Event &gt;</text>
</g>
<!-- Node19 -->
<g id="node19" class="node"><title>Node19</title>
<polygon fill="none" stroke="#bfbfbf" points="723,-76.5 723,-95.5 781,-95.5 781,-76.5 723,-76.5"/>
<text text-anchor="middle" x="752" y="-83.5" font-family="Helvetica,sans-Serif" font-size="10.00">list&lt; int &gt;</text>
</g>
<!-- Node13&#45;&gt;Node19 -->
<g id="edge22" class="edge"><title>Node13&#45;&gt;Node19</title>
<path fill="none" stroke="orange" stroke-dasharray="5,2" d="M356.48,-178.677C370.9,-163.67 393.768,-142.597 418,-131 521.665,-81.3872 662.979,-81.4836 722.609,-84.1632"/>
<polygon fill="orange" stroke="orange" points="353.641,-176.59 349.383,-186.292 358.761,-181.363 353.641,-176.59"/>
<text text-anchor="middle" x="476" y="-134" font-family="Helvetica,sans-Serif" font-size="10.00"> &lt; int &gt;</text>
</g>
<!-- Node13&#45;&gt;Node20 -->
<g id="edge26" class="edge"><title>Node13&#45;&gt;Node20</title>
<path fill="none" stroke="orange" stroke-dasharray="5,2" d="M366.686,-181.879C381.263,-174.674 400.119,-166.67 418,-163 535.107,-138.963 578.238,-134.237 686,-186 710.918,-197.969 732.93,-222.77 743.804,-236.44"/>
<polygon fill="orange" stroke="orange" points="365.081,-178.769 357.778,-186.445 368.274,-184.998 365.081,-178.769"/>
<text text-anchor="middle" x="476" y="-166" font-family="Helvetica,sans-Serif" font-size="10.00"> &lt; StackType &gt;</text>
</g>
<!-- Node22 -->
<g id="node22" class="node"><title>Node22</title>
<polygon fill="none" stroke="#bfbfbf" points="707,-306.5 707,-325.5 797,-325.5 797,-306.5 707,-306.5"/>
<text text-anchor="middle" x="752" y="-313.5" font-family="Helvetica,sans-Serif" font-size="10.00">list&lt; ErrorType &gt;</text>
</g>
<!-- Node13&#45;&gt;Node22 -->
<g id="edge34" class="edge"><title>Node13&#45;&gt;Node22</title>
<path fill="none" stroke="orange" stroke-dasharray="5,2" d="M377.223,-194.086C456.633,-190.712 642.434,-187.564 686,-229 709.901,-251.732 681.434,-276.942 704,-301 705.875,-302.999 708.016,-304.733 710.326,-306.236"/>
<polygon fill="orange" stroke="orange" points="376.582,-190.611 366.75,-194.559 376.898,-197.604 376.582,-190.611"/>
<text text-anchor="middle" x="476" y="-198" font-family="Helvetica,sans-Serif" font-size="10.00"> &lt; ErrorType &gt;</text>
</g>
<!-- Node14&#45;&gt;Node4 -->
<g id="edge14" class="edge"><title>Node14&#45;&gt;Node4</title>
<path fill="none" stroke="#9a32cd" stroke-dasharray="5,2" d="M679.315,-420.57C727.275,-416.988 792.836,-412.091 830.676,-409.265"/>
<polygon fill="#9a32cd" stroke="#9a32cd" points="678.772,-417.101 669.06,-421.336 679.293,-424.081 678.772,-417.101"/>
<text text-anchor="middle" x="752" y="-422" font-family="Helvetica,sans-Serif" font-size="10.00"> configmap</text>
</g>
<!-- Node15 -->
<g id="node15" class="node"><title>Node15</title>
<g id="a_node15"><a xlink:title="STL class. ">
<polygon fill="none" stroke="#bfbfbf" points="593,-114.5 593,-133.5 645,-133.5 645,-114.5 593,-114.5"/>
<text text-anchor="middle" x="619" y="-121.5" font-family="Helvetica,sans-Serif" font-size="10.00">ostream</text>
</a>
</g>
</g>
<!-- Node15&#45;&gt;Node4 -->
<g id="edge17" class="edge"><title>Node15&#45;&gt;Node4</title>
<path fill="none" stroke="#9a32cd" stroke-dasharray="5,2" d="M642.408,-139.684C656.908,-150.97 675.059,-167.431 686,-186 702.526,-214.047 680.268,-234.717 704,-257 735.646,-286.715 769.616,-243.996 800,-275 834.06,-309.755 789.986,-343.21 818,-383 822.233,-389.012 828.474,-393.693 834.897,-397.259"/>
<polygon fill="#9a32cd" stroke="#9a32cd" points="644.474,-136.859 634.374,-133.66 640.275,-142.459 644.474,-136.859"/>
<text text-anchor="middle" x="752" y="-289" font-family="Helvetica,sans-Serif" font-size="10.00"> Err</text>
<text text-anchor="middle" x="752" y="-278" font-family="Helvetica,sans-Serif" font-size="10.00">Out</text>
</g>
<!-- Node15&#45;&gt;Node3 -->
<g id="edge27" class="edge"><title>Node15&#45;&gt;Node3</title>
<path fill="none" stroke="#9a32cd" stroke-dasharray="5,2" d="M655.522,-120.344C724.97,-114.171 883.207,-104.921 1012,-133 1139.67,-160.833 1279.38,-238.21 1325.93,-265.402"/>
<polygon fill="#9a32cd" stroke="#9a32cd" points="654.792,-116.896 645.156,-121.302 655.436,-123.866 654.792,-116.896"/>
<text text-anchor="middle" x="968" y="-202" font-family="Helvetica,sans-Serif" font-size="10.00"> _OutStreamSave</text>
<text text-anchor="middle" x="968" y="-191" font-family="Helvetica,sans-Serif" font-size="10.00">_DebugStream</text>
<text text-anchor="middle" x="968" y="-180" font-family="Helvetica,sans-Serif" font-size="10.00">_ErrStream</text>
<text text-anchor="middle" x="968" y="-169" font-family="Helvetica,sans-Serif" font-size="10.00">_LogStream</text>
<text text-anchor="middle" x="968" y="-158" font-family="Helvetica,sans-Serif" font-size="10.00">_DebugStreamSave</text>
<text text-anchor="middle" x="968" y="-147" font-family="Helvetica,sans-Serif" font-size="10.00">_ErrStreamSave</text>
<text text-anchor="middle" x="968" y="-136" font-family="Helvetica,sans-Serif" font-size="10.00">_OutStream</text>
</g>
<!-- Node15&#45;&gt;Node21 -->
<g id="edge32" class="edge"><title>Node15&#45;&gt;Node21</title>
<path fill="none" stroke="#9a32cd" stroke-dasharray="5,2" d="M654.894,-132.632C739.423,-153.986 952.571,-210.625 1012,-253 1042.3,-274.607 1069.49,-309.197 1083.67,-328.924"/>
<polygon fill="#9a32cd" stroke="#9a32cd" points="655.561,-129.19 645.009,-130.147 653.854,-135.979 655.561,-129.19"/>
<text text-anchor="middle" x="862" y="-275" font-family="Helvetica,sans-Serif" font-size="10.00"> _OutStreamSave</text>
<text text-anchor="middle" x="862" y="-264" font-family="Helvetica,sans-Serif" font-size="10.00">_DebugStream</text>
<text text-anchor="middle" x="862" y="-253" font-family="Helvetica,sans-Serif" font-size="10.00">_ErrStream</text>
<text text-anchor="middle" x="862" y="-242" font-family="Helvetica,sans-Serif" font-size="10.00">_LogStream</text>
<text text-anchor="middle" x="862" y="-231" font-family="Helvetica,sans-Serif" font-size="10.00">_DebugStreamSave</text>
<text text-anchor="middle" x="862" y="-220" font-family="Helvetica,sans-Serif" font-size="10.00">_ErrStreamSave</text>
<text text-anchor="middle" x="862" y="-209" font-family="Helvetica,sans-Serif" font-size="10.00">_OutStream</text>
</g>
<!-- Node16 -->
<g id="node16" class="node"><title>Node16</title>
<g id="a_node16"><a xlink:title="STL class. ">
<polygon fill="none" stroke="#bfbfbf" points="281.5,-95.5 281.5,-114.5 398.5,-114.5 398.5,-95.5 281.5,-95.5"/>
<text text-anchor="middle" x="340" y="-102.5" font-family="Helvetica,sans-Serif" font-size="10.00">basic_ostream&lt; char &gt;</text>
</a>
</g>
</g>
<!-- Node16&#45;&gt;Node15 -->
<g id="edge18" class="edge"><title>Node16&#45;&gt;Node15</title>
<path fill="none" stroke="midnightblue" d="M408.802,-109.651C468.279,-113.73 551.523,-119.44 592.774,-122.27"/>
<polygon fill="midnightblue" stroke="midnightblue" points="408.947,-106.153 398.731,-108.96 408.468,-113.136 408.947,-106.153"/>
</g>
<!-- Node17 -->
<g id="node17" class="node"><title>Node17</title>
<g id="a_node17"><a xlink:title="STL class. ">
<polygon fill="none" stroke="#bfbfbf" points="98.5,-38.5 98.5,-57.5 195.5,-57.5 195.5,-38.5 98.5,-38.5"/>
<text text-anchor="middle" x="147" y="-45.5" font-family="Helvetica,sans-Serif" font-size="10.00">basic_ios&lt; Char &gt;</text>
</a>
</g>
</g>
<!-- Node17&#45;&gt;Node16 -->
<g id="edge19" class="edge"><title>Node17&#45;&gt;Node16</title>
<path fill="none" stroke="midnightblue" d="M189.953,-60.5201C225.191,-71.036 274.799,-85.8405 306.927,-95.4284"/>
<polygon fill="midnightblue" stroke="midnightblue" points="190.552,-57.0464 179.969,-57.5405 188.551,-63.7541 190.552,-57.0464"/>
</g>
<!-- Node25 -->
<g id="node25" class="node"><title>Node25</title>
<g id="a_node25"><a xlink:title="STL class. ">
<polygon fill="none" stroke="#bfbfbf" points="282,-0.5 282,-19.5 398,-19.5 398,-0.5 282,-0.5"/>
<text text-anchor="middle" x="340" y="-7.5" font-family="Helvetica,sans-Serif" font-size="10.00">basic_istream&lt; Char &gt;</text>
</a>
</g>
</g>
<!-- Node17&#45;&gt;Node25 -->
<g id="edge38" class="edge"><title>Node17&#45;&gt;Node25</title>
<path fill="none" stroke="midnightblue" d="M205.543,-36.5517C232.914,-31.1062 265.253,-24.6722 291.242,-19.5017"/>
<polygon fill="midnightblue" stroke="midnightblue" points="204.829,-33.1249 195.705,-38.509 206.195,-39.9904 204.829,-33.1249"/>
</g>
<!-- Node28 -->
<g id="node28" class="node"><title>Node28</title>
<g id="a_node28"><a xlink:title="STL class. ">
<polygon fill="none" stroke="#bfbfbf" points="280.5,-38.5 280.5,-57.5 399.5,-57.5 399.5,-38.5 280.5,-38.5"/>
<text text-anchor="middle" x="340" y="-45.5" font-family="Helvetica,sans-Serif" font-size="10.00">basic_ostream&lt; Char &gt;</text>
</a>
</g>
</g>
<!-- Node17&#45;&gt;Node28 -->
<g id="edge43" class="edge"><title>Node17&#45;&gt;Node28</title>
<path fill="none" stroke="midnightblue" d="M205.903,-48C229.466,-48 256.663,-48 280.306,-48"/>
<polygon fill="midnightblue" stroke="midnightblue" points="205.705,-44.5001 195.705,-48 205.705,-51.5001 205.705,-44.5001"/>
</g>
<!-- Node18 -->
<g id="node18" class="node"><title>Node18</title>
<g id="a_node18"><a xlink:title="STL class. ">
<polygon fill="none" stroke="#bfbfbf" points="0,-38.5 0,-57.5 56,-57.5 56,-38.5 0,-38.5"/>
<text text-anchor="middle" x="28" y="-45.5" font-family="Helvetica,sans-Serif" font-size="10.00">ios_base</text>
</a>
</g>
</g>
<!-- Node18&#45;&gt;Node17 -->
<g id="edge20" class="edge"><title>Node18&#45;&gt;Node17</title>
<path fill="none" stroke="midnightblue" d="M66.3308,-48C76.5173,-48 87.6937,-48 98.3694,-48"/>
<polygon fill="midnightblue" stroke="midnightblue" points="66.1363,-44.5001 56.1362,-48 66.1362,-51.5001 66.1363,-44.5001"/>
</g>
<!-- Node19&#45;&gt;Node3 -->
<g id="edge21" class="edge"><title>Node19&#45;&gt;Node3</title>
<path fill="none" stroke="#9a32cd" stroke-dasharray="5,2" d="M791.157,-82.1462C900.99,-71.8895 1214.96,-48.6945 1292,-110 1341.42,-149.326 1343.34,-235.916 1342.49,-265.143"/>
<polygon fill="#9a32cd" stroke="#9a32cd" points="790.804,-78.664 781.18,-83.0952 791.466,-85.6325 790.804,-78.664"/>
<text text-anchor="middle" x="968" y="-76" font-family="Helvetica,sans-Serif" font-size="10.00"> _Errors</text>
</g>
<!-- Node20&#45;&gt;Node3 -->
<g id="edge24" class="edge"><title>Node20&#45;&gt;Node3</title>
<path fill="none" stroke="#9a32cd" stroke-dasharray="5,2" d="M798.559,-257.722C805.048,-259.038 811.667,-260.193 818,-261 1003.06,-284.584 1227.75,-279.374 1309.93,-276.363"/>
<polygon fill="#9a32cd" stroke="#9a32cd" points="799.043,-254.246 788.529,-255.549 797.561,-261.087 799.043,-254.246"/>
<text text-anchor="middle" x="968" y="-280" font-family="Helvetica,sans-Serif" font-size="10.00"> _Stack</text>
</g>
<!-- Node20&#45;&gt;Node21 -->
<g id="edge31" class="edge"><title>Node20&#45;&gt;Node21</title>
<path fill="none" stroke="#9a32cd" stroke-dasharray="5,2" d="M800.789,-262.399C810.373,-272.968 807.674,-281.845 818,-289 851.633,-312.307 959.411,-328.66 1029.91,-337.182"/>
<polygon fill="#9a32cd" stroke="#9a32cd" points="802.841,-259.544 793.008,-255.599 798.235,-264.815 802.841,-259.544"/>
<text text-anchor="middle" x="862" y="-321" font-family="Helvetica,sans-Serif" font-size="10.00"> _Stack</text>
</g>
<!-- Node21&#45;&gt;Node3 -->
<g id="edge28" class="edge"><title>Node21&#45;&gt;Node3</title>
<path fill="none" stroke="orange" stroke-dasharray="5,2" d="M1159.4,-326.218C1207.58,-312.704 1271.85,-294.677 1309.89,-284.008"/>
<polygon fill="orange" stroke="orange" points="1158.36,-322.872 1149.68,-328.943 1160.26,-329.612 1158.36,-322.872"/>
<text text-anchor="start" x="1178.5" y="-334" font-family="Helvetica,sans-Serif" font-size="10.00"> &lt; StackType, int, Profiler</text>
<text text-anchor="middle" x="1235" y="-323" font-family="Helvetica,sans-Serif" font-size="10.00">Type &gt;</text>
</g>
<!-- Node22&#45;&gt;Node21 -->
<g id="edge33" class="edge"><title>Node22&#45;&gt;Node21</title>
<path fill="none" stroke="#9a32cd" stroke-dasharray="5,2" d="M795.06,-328.456C796.729,-328.973 798.381,-329.489 800,-330 808.042,-332.537 809.697,-334.529 818,-336 889.746,-348.712 973.595,-349.149 1029.88,-347.406"/>
<polygon fill="#9a32cd" stroke="#9a32cd" points="795.991,-325.08 785.404,-325.503 793.944,-331.774 795.991,-325.08"/>
<text text-anchor="middle" x="862" y="-349" font-family="Helvetica,sans-Serif" font-size="10.00"> _Errors</text>
</g>
<!-- Node23 -->
<g id="node23" class="node"><title>Node23</title>
<g id="a_node23"><a xlink:title="STL class. ">
<polygon fill="none" stroke="#bfbfbf" points="942,-0.5 942,-19.5 994,-19.5 994,-0.5 942,-0.5"/>
<text text-anchor="middle" x="968" y="-7.5" font-family="Helvetica,sans-Serif" font-size="10.00">ifstream</text>
</a>
</g>
</g>
<!-- Node23&#45;&gt;Node1 -->
<g id="edge35" class="edge"><title>Node23&#45;&gt;Node1</title>
<path fill="none" stroke="#9a32cd" stroke-dasharray="5,2" d="M1004.33,-10C1055.13,-10 1151.75,-10 1234,-10 1234,-10 1234,-10 1483,-10 1532.34,-10 1579.76,-52.6368 1599,-72.2898"/>
<polygon fill="#9a32cd" stroke="#9a32cd" points="1004.21,-6.5001 994.212,-10 1004.21,-13.5001 1004.21,-6.5001"/>
<text text-anchor="middle" x="1343" y="-13" font-family="Helvetica,sans-Serif" font-size="10.00"> Inf</text>
</g>
<!-- Node24 -->
<g id="node24" class="node"><title>Node24</title>
<g id="a_node24"><a xlink:title="STL class. ">
<polygon fill="none" stroke="#bfbfbf" points="560.5,-0.5 560.5,-19.5 677.5,-19.5 677.5,-0.5 560.5,-0.5"/>
<text text-anchor="middle" x="619" y="-7.5" font-family="Helvetica,sans-Serif" font-size="10.00">basic_ifstream&lt; char &gt;</text>
</a>
</g>
</g>
<!-- Node24&#45;&gt;Node23 -->
<g id="edge36" class="edge"><title>Node24&#45;&gt;Node23</title>
<path fill="none" stroke="midnightblue" d="M687.874,-10C765.616,-10 889.033,-10 941.766,-10"/>
<polygon fill="midnightblue" stroke="midnightblue" points="687.69,-6.5001 677.69,-10 687.689,-13.5001 687.69,-6.5001"/>
</g>
<!-- Node25&#45;&gt;Node24 -->
<g id="edge37" class="edge"><title>Node25&#45;&gt;Node24</title>
<path fill="none" stroke="midnightblue" d="M408.326,-10C454.746,-10 515.814,-10 560.063,-10"/>
<polygon fill="midnightblue" stroke="midnightblue" points="408.059,-6.5001 398.059,-10 408.059,-13.5001 408.059,-6.5001"/>
</g>
<!-- Node26 -->
<g id="node26" class="node"><title>Node26</title>
<g id="a_node26"><a xlink:title="STL class. ">
<polygon fill="none" stroke="#bfbfbf" points="1207.5,-45.5 1207.5,-64.5 1262.5,-64.5 1262.5,-45.5 1207.5,-45.5"/>
<text text-anchor="middle" x="1235" y="-52.5" font-family="Helvetica,sans-Serif" font-size="10.00">ofstream</text>
</a>
</g>
</g>
<!-- Node26&#45;&gt;Node1 -->
<g id="edge40" class="edge"><title>Node26&#45;&gt;Node1</title>
<path fill="none" stroke="#9a32cd" stroke-dasharray="5,2" d="M1272.99,-57.6845C1343.87,-62.8289 1498.14,-74.0266 1569.89,-79.2341"/>
<polygon fill="#9a32cd" stroke="#9a32cd" points="1272.98,-54.1749 1262.75,-56.9418 1272.47,-61.1566 1272.98,-54.1749"/>
<text text-anchor="middle" x="1404" y="-71" font-family="Helvetica,sans-Serif" font-size="10.00"> Ouf</text>
</g>
<!-- Node27 -->
<g id="node27" class="node"><title>Node27</title>
<g id="a_node27"><a xlink:title="STL class. ">
<polygon fill="none" stroke="#bfbfbf" points="559,-38.5 559,-57.5 679,-57.5 679,-38.5 559,-38.5"/>
<text text-anchor="middle" x="619" y="-45.5" font-family="Helvetica,sans-Serif" font-size="10.00">basic_ofstream&lt; char &gt;</text>
</a>
</g>
</g>
<!-- Node27&#45;&gt;Node26 -->
<g id="edge41" class="edge"><title>Node27&#45;&gt;Node26</title>
<path fill="none" stroke="midnightblue" d="M689.388,-48.7911C824.559,-50.3321 1117.77,-53.675 1207.42,-54.697"/>
<polygon fill="midnightblue" stroke="midnightblue" points="689.191,-45.2887 679.152,-48.6744 689.111,-52.2882 689.191,-45.2887"/>
</g>
<!-- Node28&#45;&gt;Node27 -->
<g id="edge42" class="edge"><title>Node28&#45;&gt;Node27</title>
<path fill="none" stroke="midnightblue" d="M409.888,-48C455.688,-48 515.213,-48 558.863,-48"/>
<polygon fill="midnightblue" stroke="midnightblue" points="409.745,-44.5001 399.745,-48 409.745,-51.5001 409.745,-44.5001"/>
</g>
</g>
</svg>
        <g id="navigator" transform="translate(0 0)" fill="#404254">
                <rect fill="#f2f5e9" fill-opacity="0.5" stroke="#606060" stroke-width=".5" x="0" y="0" width="60" height="60"/>
                <use id="zoomplus" xlink:href="#zoomPlus" x="17" y="9" onmousedown="handleZoom(evt,'in')"/>
                <use id="zoomminus" xlink:href="#zoomMin" x="42" y="9" onmousedown="handleZoom(evt,'out')"/>
                <use id="reset" xlink:href="#resetDef" x="30" y="36" onmousedown="handleReset()"/>
                <g id="arrowUp" xlink:href="#dirArrow" transform="translate(30 24)" onmousedown="handlePan(0,-1)">
                  <use xlink:href="#rim" fill="#404040">
                        <set attributeName="fill" to="#808080" begin="arrowUp.mouseover" end="arrowUp.mouseout"/>
                  </use>
                  <path fill="none" stroke="white" stroke-width="1.5" d="M0,-3.0v7 M-2.5,-0.5L0,-3.0L2.5,-0.5"/>
                </g>
                <g id="arrowRight" xlink:href="#dirArrow" transform="rotate(90) translate(36 -43)" onmousedown="handlePan(1,0)">
                  <use xlink:href="#rim" fill="#404040">
                        <set attributeName="fill" to="#808080" begin="arrowRight.mouseover" end="arrowRight.mouseout"/>
                  </use>
                  <path fill="none" stroke="white" stroke-width="1.5" d="M0,-3.0v7 M-2.5,-0.5L0,-3.0L2.5,-0.5"/>
                </g>
                <g id="arrowDown" xlink:href="#dirArrow" transform="rotate(180) translate(-30 -48)" onmousedown="handlePan(0,1)">
                  <use xlink:href="#rim" fill="#404040">
                        <set attributeName="fill" to="#808080" begin="arrowDown.mouseover" end="arrowDown.mouseout"/>
                  </use>
                  <path fill="none" stroke="white" stroke-width="1.5" d="M0,-3.0v7 M-2.5,-0.5L0,-3.0L2.5,-0.5"/>
                </g>
                <g id="arrowLeft" xlink:href="#dirArrow" transform="rotate(270) translate(-36 17)" onmousedown="handlePan(-1,0)">
                  <use xlink:href="#rim" fill="#404040">
                        <set attributeName="fill" to="#808080" begin="arrowLeft.mouseover" end="arrowLeft.mouseout"/>
                  </use>
                  <path fill="none" stroke="white" stroke-width="1.5" d="M0,-3.0v7 M-2.5,-0.5L0,-3.0L2.5,-0.5"/>
                </g>
        </g>
        <svg viewBox="0 0 15 15" width="100%" height="30px" preserveAspectRatio="xMaxYMin meet">
         <g id="arrow_out" transform="scale(0.3 0.3)">
          <a xlink:href="classElmerModuleDriver_1_1ExampleProgram_1_1SerialProgram__coll__graph_org.svg" target="_base">
           <rect id="button" ry="5" rx="5" y="6" x="6" height="38" width="38"
                fill="#f2f5e9" fill-opacity="0.5" stroke="#606060" stroke-width="1.0"/>
           <path id="arrow"
             d="M 11.500037,31.436501 C 11.940474,20.09759 22.043105,11.32322 32.158766,21.979434 L 37.068811,17.246167 C 37.068811,17.246167 37.088388,32 37.088388,32 L 22.160133,31.978069 C 22.160133,31.978069 26.997745,27.140456 26.997745,27.140456 C 18.528582,18.264221 13.291696,25.230495 11.500037,31.436501 z"
             style="fill:#404040;"/>
          </a>
         </g>
        </svg>
</svg>
