<?xml version="1.0" encoding="UTF-8" standalone="no"?>
<!DOCTYPE svg PUBLIC "-//W3C//DTD SVG 1.1//EN"
 "http://www.w3.org/Graphics/SVG/1.1/DTD/svg11.dtd">
<!-- Generated by graphviz version 2.30.1 (20150305.2338)
 -->
<!-- Title: unload_module Pages: 1 -->
<svg width="564pt" height="71pt"
 viewBox="0.00 0.00 564.00 71.00" xmlns="http://www.w3.org/2000/svg" xmlns:xlink="http://www.w3.org/1999/xlink">
<g id="graph0" class="graph" transform="scale(1 1) rotate(0) translate(4 67)">
<title>unload_module</title>
<!-- Node1 -->
<g id="node1" class="node"><title>Node1</title>
<polygon fill="#bfbfbf" stroke="black" points="0,-24.5 0,-43.5 82,-43.5 82,-24.5 0,-24.5"/>
<text text-anchor="middle" x="41" y="-31.5" font-family="Helvetica,sans-Serif" font-size="10.00">unload_module</text>
</g>
<!-- Node2 -->
<g id="node2" class="node"><title>Node2</title>
<g id="a_node2"><a xlink:href="com__c_09_09_8hpp_a3b69f3c76a41cc5c16486cfbf2af9589.html#a3b69f3c76a41cc5c16486cfbf2af9589" target="_top" xlink:title="COM_close_module">
<polygon fill="none" stroke="black" points="120.5,-43.5 120.5,-62.5 225.5,-62.5 225.5,-43.5 120.5,-43.5"/>
<text text-anchor="middle" x="173" y="-50.5" font-family="Helvetica,sans-Serif" font-size="10.00">COM_close_module</text>
</a>
</g>
</g>
<!-- Node1&#45;&gt;Node2 -->
<g id="edge1" class="edge"><title>Node1&#45;&gt;Node2</title>
<path fill="none" stroke="midnightblue" d="M92.241,-41.3429C101.448,-42.6886 111.073,-44.0953 120.321,-45.447"/>
<polygon fill="midnightblue" stroke="midnightblue" points="92.4661,-37.8387 82.065,-39.8557 91.4537,-44.7651 92.4661,-37.8387"/>
</g>
<!-- Node3 -->
<g id="node3" class="node"><title>Node3</title>
<g id="a_node3"><a xlink:href="com__c_8h_a323e5b95442fc0c016829b7cca6dfabe.html#a323e5b95442fc0c016829b7cca6dfabe" target="_top" xlink:title="COM_unload_module">
<polygon fill="none" stroke="black" points="118,-5.5 118,-24.5 228,-24.5 228,-5.5 118,-5.5"/>
<text text-anchor="middle" x="173" y="-12.5" font-family="Helvetica,sans-Serif" font-size="10.00">COM_unload_module</text>
</a>
</g>
</g>
<!-- Node1&#45;&gt;Node3 -->
<g id="edge2" class="edge"><title>Node1&#45;&gt;Node3</title>
<path fill="none" stroke="midnightblue" d="M92.1566,-26.6694C100.608,-25.4343 109.412,-24.1475 117.957,-22.8987"/>
<polygon fill="midnightblue" stroke="midnightblue" points="91.4537,-23.2349 82.065,-28.1443 92.4661,-30.1613 91.4537,-23.2349"/>
</g>
<!-- Node4 -->
<g id="node4" class="node"><title>Node4</title>
<g id="a_node4"><a xlink:href="classElmerFoamFSI_1_1SerialDriverProgram_a5803949d99491a7186bf1ee9cee81a3b.html#a5803949d99491a7186bf1ee9cee81a3b" target="_top" xlink:title="This function implements the main function executed by the program. ">
<polygon fill="none" stroke="black" points="264,-0 264,-30 404,-30 404,-0 264,-0"/>
<text text-anchor="start" x="272" y="-18" font-family="Helvetica,sans-Serif" font-size="10.00">ElmerFoamFSI::SerialDriver</text>
<text text-anchor="middle" x="334" y="-7" font-family="Helvetica,sans-Serif" font-size="10.00">Program::DriverRun</text>
</a>
</g>
</g>
<!-- Node3&#45;&gt;Node4 -->
<g id="edge3" class="edge"><title>Node3&#45;&gt;Node4</title>
<path fill="none" stroke="midnightblue" d="M238.35,-15C246.727,-15 255.337,-15 263.789,-15"/>
<polygon fill="midnightblue" stroke="midnightblue" points="238.274,-11.5001 228.274,-15 238.274,-18.5001 238.274,-11.5001"/>
</g>
<!-- Node5 -->
<g id="node5" class="node"><title>Node5</title>
<g id="a_node5"><a xlink:href="namespaceElmerFoamFSI_aff46f457934a8e2d3712bdbfb1688e99.html#aff46f457934a8e2d3712bdbfb1688e99" target="_top" xlink:title="Unified driver for the example programs. ">
<polygon fill="none" stroke="black" points="440.5,-5.5 440.5,-24.5 555.5,-24.5 555.5,-5.5 440.5,-5.5"/>
<text text-anchor="middle" x="498" y="-12.5" font-family="Helvetica,sans-Serif" font-size="10.00">ElmerFoamFSI::Driver</text>
</a>
</g>
</g>
<!-- Node4&#45;&gt;Node5 -->
<g id="edge4" class="edge"><title>Node4&#45;&gt;Node5</title>
<path fill="none" stroke="midnightblue" d="M414.391,-15C423.127,-15 431.887,-15 440.266,-15"/>
<polygon fill="midnightblue" stroke="midnightblue" points="414.173,-11.5001 404.172,-15 414.172,-18.5001 414.173,-11.5001"/>
</g>
</g>
</svg>
