<?xml version="1.0" encoding="UTF-8" standalone="no"?>
<!DOCTYPE svg PUBLIC "-//W3C//DTD SVG 1.1//EN"
 "http://www.w3.org/Graphics/SVG/1.1/DTD/svg11.dtd">
<!-- Generated by graphviz version 2.30.1 (20150305.2338)
 -->
<!-- Title: COM_resize_array Pages: 1 -->
<!--zoomable 113 -->
<svg id="main" version="1.1" xmlns="http://www.w3.org/2000/svg" xmlns:xlink="http://www.w3.org/1999/xlink" xml:space="preserve" onload="init(evt)">
<style type="text/css"><![CDATA[
.edge:hover path { stroke: red; }
.edge:hover polygon { stroke: red; fill: red; }
]]></style>
<script type="text/javascript"><![CDATA[
var edges = document.getElementsByTagName('g');
if (edges && edges.length) {
  for (var i=0;i<edges.length;i++) {
    if (edges[i].id.substr(0,4)=='edge') {
      edges[i].setAttribute('class','edge');
    }
  }
}
]]></script>
        <defs>
                <circle id="rim" cx="0" cy="0" r="7"/>
                <circle id="rim2" cx="0" cy="0" r="3.5"/>
                <g id="zoomPlus">
                        <use xlink:href="#rim" fill="#404040">
                                <set attributeName="fill" to="#808080" begin="zoomplus.mouseover" end="zoomplus.mouseout"/>
                        </use>
                        <path d="M-4,0h8M0,-4v8" fill="none" stroke="white" stroke-width="1.5" pointer-events="none"/>
                </g>
                <g id="zoomMin">
                        <use xlink:href="#rim" fill="#404040">
                                <set attributeName="fill" to="#808080" begin="zoomminus.mouseover" end="zoomminus.mouseout"/>
                        </use>
                        <path d="M-4,0h8" fill="none" stroke="white" stroke-width="1.5" pointer-events="none"/>
                </g>
                <g id="dirArrow">
                        <path fill="none" stroke="white" stroke-width="1.5" d="M0,-3.0v7 M-2.5,-0.5L0,-3.0L2.5,-0.5"/>
                </g>
               <g id="resetDef">
                       <use xlink:href="#rim2" fill="#404040">
                               <set attributeName="fill" to="#808080" begin="reset.mouseover" end="reset.mouseout"/>
                       </use>
               </g>
        </defs>

<script type="text/javascript">
var viewWidth = 658;
var viewHeight = 113;
var sectionId = 'dynsection-1';
</script>
<script xlink:href="svgpan.js"/>
<svg id="graph" class="graph">
<g id="viewport">
<title>COM_resize_array</title>
<!-- Node1 -->
<g id="node1" class="node"><title>Node1</title>
<polygon fill="#bfbfbf" stroke="black" points="0,-44.5 0,-63.5 98,-63.5 98,-44.5 0,-44.5"/>
<text text-anchor="middle" x="49" y="-51.5" font-family="Helvetica,sans-Serif" font-size="10.00">COM_resize_array</text>
</g>
<!-- Node2 -->
<g id="node2" class="node"><title>Node2</title>
<g id="a_node2"><a xlink:href="namespaceSolverUtils_a040b0206db4efc72691b47e124622aef.html#a040b0206db4efc72691b47e124622aef" target="_top" xlink:title="SolverUtils::AgentToPane">
<polygon fill="none" stroke="black" points="332,-66.5 332,-85.5 462,-85.5 462,-66.5 332,-66.5"/>
<text text-anchor="middle" x="397" y="-73.5" font-family="Helvetica,sans-Serif" font-size="10.00">SolverUtils::AgentToPane</text>
</a>
</g>
</g>
<!-- Node1&#45;&gt;Node2 -->
<g id="edge1" class="edge"><title>Node1&#45;&gt;Node2</title>
<path fill="none" stroke="midnightblue" d="M86.142,-66.7108C100.799,-71.2349 118.013,-75.7609 134,-78 201.009,-87.3849 278.603,-85.1883 331.859,-81.7005"/>
<polygon fill="midnightblue" stroke="midnightblue" points="87.041,-63.3236 76.4499,-63.6071 84.9061,-69.9902 87.041,-63.3236"/>
</g>
<!-- Node5 -->
<g id="node5" class="node"><title>Node5</title>
<g id="a_node5"><a xlink:href="namespaceSolverUtils_ac956a14f8058561de46a633f07854aef.html#ac956a14f8058561de46a633f07854aef" target="_top" xlink:title="Creates a window pane from a Mesh object. (copy mode or use mode) ">
<polygon fill="none" stroke="black" points="151,-39 151,-69 279,-69 279,-39 151,-39"/>
<text text-anchor="start" x="159" y="-57" font-family="Helvetica,sans-Serif" font-size="10.00">SolverUtils::SurfaceMesh</text>
<text text-anchor="middle" x="215" y="-46" font-family="Helvetica,sans-Serif" font-size="10.00">ToPane</text>
</a>
</g>
</g>
<!-- Node1&#45;&gt;Node5 -->
<g id="edge4" class="edge"><title>Node1&#45;&gt;Node5</title>
<path fill="none" stroke="midnightblue" d="M108.579,-54C122.276,-54 136.925,-54 150.813,-54"/>
<polygon fill="midnightblue" stroke="midnightblue" points="108.318,-50.5001 98.3184,-54 108.318,-57.5001 108.318,-50.5001"/>
</g>
<!-- Node6 -->
<g id="node6" class="node"><title>Node6</title>
<g id="a_node6"><a xlink:href="namespaceSolverUtils_a725d859f6513d7bdac690fbae04d362d.html#a725d859f6513d7bdac690fbae04d362d" target="_top" xlink:title="Creates a window from a Mesh object. (copies data) ">
<polygon fill="none" stroke="black" points="134.5,-0.5 134.5,-19.5 295.5,-19.5 295.5,-0.5 134.5,-0.5"/>
<text text-anchor="middle" x="215" y="-7.5" font-family="Helvetica,sans-Serif" font-size="10.00">SolverUtils::VolumeMeshToPane</text>
</a>
</g>
</g>
<!-- Node1&#45;&gt;Node6 -->
<g id="edge6" class="edge"><title>Node1&#45;&gt;Node6</title>
<path fill="none" stroke="midnightblue" d="M92.468,-41.5688C105.743,-37.7631 120.457,-33.6264 134,-30 147.276,-26.445 161.845,-22.7437 174.87,-19.5059"/>
<polygon fill="midnightblue" stroke="midnightblue" points="91.2808,-38.2684 82.6409,-44.4005 93.219,-44.9947 91.2808,-38.2684"/>
</g>
<!-- Node3 -->
<g id="node3" class="node"><title>Node3</title>
<g id="a_node3"><a xlink:href="namespaceSolverUtils_abd82bb11c3dd2f2f88ff31ca33755f5b.html#abd82bb11c3dd2f2f88ff31ca33755f5b" target="_top" xlink:title="SolverUtils::RegisterSolver">
<polygon fill="none" stroke="black" points="506.5,-85.5 506.5,-104.5 641.5,-104.5 641.5,-85.5 506.5,-85.5"/>
<text text-anchor="middle" x="574" y="-92.5" font-family="Helvetica,sans-Serif" font-size="10.00">SolverUtils::RegisterSolver</text>
</a>
</g>
</g>
<!-- Node2&#45;&gt;Node3 -->
<g id="edge2" class="edge"><title>Node2&#45;&gt;Node3</title>
<path fill="none" stroke="midnightblue" d="M472.449,-84.0831C483.758,-85.3109 495.364,-86.571 506.489,-87.7788"/>
<polygon fill="midnightblue" stroke="midnightblue" points="472.489,-80.5669 462.17,-82.967 471.734,-87.526 472.489,-80.5669"/>
</g>
<!-- Node4 -->
<g id="node4" class="node"><title>Node4</title>
<g id="a_node4"><a xlink:href="namespaceSolverUtils_a4dc3eadf3c5b31e96ea58eaee60c4a59.html#a4dc3eadf3c5b31e96ea58eaee60c4a59" target="_top" xlink:title="SolverUtils::RegisterSolverInto">
<polygon fill="none" stroke="black" points="498,-47.5 498,-66.5 650,-66.5 650,-47.5 498,-47.5"/>
<text text-anchor="middle" x="574" y="-54.5" font-family="Helvetica,sans-Serif" font-size="10.00">SolverUtils::RegisterSolverInto</text>
</a>
</g>
</g>
<!-- Node2&#45;&gt;Node4 -->
<g id="edge3" class="edge"><title>Node2&#45;&gt;Node4</title>
<path fill="none" stroke="midnightblue" d="M472.363,-67.9263C480.805,-67.0098 489.414,-66.0751 497.866,-65.1574"/>
<polygon fill="midnightblue" stroke="midnightblue" points="471.734,-64.474 462.17,-69.033 472.489,-71.4331 471.734,-64.474"/>
</g>
<!-- Node5&#45;&gt;Node2 -->
<g id="edge5" class="edge"><title>Node5&#45;&gt;Node2</title>
<path fill="none" stroke="midnightblue" d="M289.32,-62.9614C303.372,-64.6788 317.986,-66.465 331.727,-68.1444"/>
<polygon fill="midnightblue" stroke="midnightblue" points="289.559,-59.4646 279.208,-61.7254 288.71,-66.4129 289.559,-59.4646"/>
</g>
</g>
</svg>
        <g id="navigator" transform="translate(0 0)" fill="#404254">
                <rect fill="#f2f5e9" fill-opacity="0.5" stroke="#606060" stroke-width=".5" x="0" y="0" width="60" height="60"/>
                <use id="zoomplus" xlink:href="#zoomPlus" x="17" y="9" onmousedown="handleZoom(evt,'in')"/>
                <use id="zoomminus" xlink:href="#zoomMin" x="42" y="9" onmousedown="handleZoom(evt,'out')"/>
                <use id="reset" xlink:href="#resetDef" x="30" y="36" onmousedown="handleReset()"/>
                <g id="arrowUp" xlink:href="#dirArrow" transform="translate(30 24)" onmousedown="handlePan(0,-1)">
                  <use xlink:href="#rim" fill="#404040">
                        <set attributeName="fill" to="#808080" begin="arrowUp.mouseover" end="arrowUp.mouseout"/>
                  </use>
                  <path fill="none" stroke="white" stroke-width="1.5" d="M0,-3.0v7 M-2.5,-0.5L0,-3.0L2.5,-0.5"/>
                </g>
                <g id="arrowRight" xlink:href="#dirArrow" transform="rotate(90) translate(36 -43)" onmousedown="handlePan(1,0)">
                  <use xlink:href="#rim" fill="#404040">
                        <set attributeName="fill" to="#808080" begin="arrowRight.mouseover" end="arrowRight.mouseout"/>
                  </use>
                  <path fill="none" stroke="white" stroke-width="1.5" d="M0,-3.0v7 M-2.5,-0.5L0,-3.0L2.5,-0.5"/>
                </g>
                <g id="arrowDown" xlink:href="#dirArrow" transform="rotate(180) translate(-30 -48)" onmousedown="handlePan(0,1)">
                  <use xlink:href="#rim" fill="#404040">
                        <set attributeName="fill" to="#808080" begin="arrowDown.mouseover" end="arrowDown.mouseout"/>
                  </use>
                  <path fill="none" stroke="white" stroke-width="1.5" d="M0,-3.0v7 M-2.5,-0.5L0,-3.0L2.5,-0.5"/>
                </g>
                <g id="arrowLeft" xlink:href="#dirArrow" transform="rotate(270) translate(-36 17)" onmousedown="handlePan(-1,0)">
                  <use xlink:href="#rim" fill="#404040">
                        <set attributeName="fill" to="#808080" begin="arrowLeft.mouseover" end="arrowLeft.mouseout"/>
                  </use>
                  <path fill="none" stroke="white" stroke-width="1.5" d="M0,-3.0v7 M-2.5,-0.5L0,-3.0L2.5,-0.5"/>
                </g>
        </g>
        <svg viewBox="0 0 15 15" width="100%" height="30px" preserveAspectRatio="xMaxYMin meet">
         <g id="arrow_out" transform="scale(0.3 0.3)">
          <a xlink:href="com__c_8h_a34c7c55b98221dbb95aba53c374cf596_a34c7c55b98221dbb95aba53c374cf596_icgraph_org.svg" target="_base">
           <rect id="button" ry="5" rx="5" y="6" x="6" height="38" width="38"
                fill="#f2f5e9" fill-opacity="0.5" stroke="#606060" stroke-width="1.0"/>
           <path id="arrow"
             d="M 11.500037,31.436501 C 11.940474,20.09759 22.043105,11.32322 32.158766,21.979434 L 37.068811,17.246167 C 37.068811,17.246167 37.088388,32 37.088388,32 L 22.160133,31.978069 C 22.160133,31.978069 26.997745,27.140456 26.997745,27.140456 C 18.528582,18.264221 13.291696,25.230495 11.500037,31.436501 z"
             style="fill:#404040;"/>
          </a>
         </g>
        </svg>
</svg>
