<?xml version="1.0" encoding="UTF-8" standalone="no"?>
<!DOCTYPE svg PUBLIC "-//W3C//DTD SVG 1.1//EN"
 "http://www.w3.org/Graphics/SVG/1.1/DTD/svg11.dtd">
<!-- Generated by graphviz version 2.30.1 (20150305.2338)
 -->
<!-- Title: COM_clone_dataitem Pages: 1 -->
<svg width="458pt" height="77pt"
 viewBox="0.00 0.00 458.00 77.00" xmlns="http://www.w3.org/2000/svg" xmlns:xlink="http://www.w3.org/1999/xlink">
<g id="graph0" class="graph" transform="scale(1 1) rotate(0) translate(4 73)">
<title>COM_clone_dataitem</title>
<!-- Node1 -->
<g id="node1" class="node"><title>Node1</title>
<polygon fill="#bfbfbf" stroke="black" points="0.5,-22.5 0.5,-41.5 111.5,-41.5 111.5,-22.5 0.5,-22.5"/>
<text text-anchor="middle" x="56" y="-29.5" font-family="Helvetica,sans-Serif" font-size="10.00">COM_clone_dataitem</text>
</g>
<!-- Node2 -->
<g id="node2" class="node"><title>Node2</title>
<g id="a_node2"><a xlink:href="classCOM_1_1COM__base_a4c05d883838b1ac95a1f46ee17d61fef.html#a4c05d883838b1ac95a1f46ee17d61fef" target="_top" xlink:title="Clone the subset of panes of another window of which the given pane dataitem has value val...">
<polygon fill="none" stroke="black" points="148.5,-39 148.5,-69 273.5,-69 273.5,-39 148.5,-39"/>
<text text-anchor="start" x="156.5" y="-57" font-family="Helvetica,sans-Serif" font-size="10.00">COM::COM_base::clone</text>
<text text-anchor="middle" x="211" y="-46" font-family="Helvetica,sans-Serif" font-size="10.00">_dataitem</text>
</a>
</g>
</g>
<!-- Node1&#45;&gt;Node2 -->
<g id="edge1" class="edge"><title>Node1&#45;&gt;Node2</title>
<path fill="none" stroke="midnightblue" d="M111.804,-39.8804C120.402,-41.1166 129.398,-42.4101 138.306,-43.6911"/>
<polygon fill="midnightblue" stroke="midnightblue" points="137.905,-47.1693 148.301,-45.1283 138.901,-40.2406 137.905,-47.1693"/>
</g>
<!-- Node3 -->
<g id="node3" class="node"><title>Node3</title>
<g id="a_node3"><a xlink:href="COM__base_8hpp_a49353596e53127db61529b5c9000549d.html#a49353596e53127db61529b5c9000549d" target="_top" xlink:title="COM_get_com">
<polygon fill="none" stroke="black" points="169.5,-0.5 169.5,-19.5 252.5,-19.5 252.5,-0.5 169.5,-0.5"/>
<text text-anchor="middle" x="211" y="-7.5" font-family="Helvetica,sans-Serif" font-size="10.00">COM_get_com</text>
</a>
</g>
</g>
<!-- Node1&#45;&gt;Node3 -->
<g id="edge2" class="edge"><title>Node1&#45;&gt;Node3</title>
<path fill="none" stroke="midnightblue" d="M111.804,-24.1196C127.271,-21.8957 144.027,-19.4863 159.244,-17.2982"/>
<polygon fill="midnightblue" stroke="midnightblue" points="160.099,-20.7114 169.499,-15.8236 159.103,-13.7826 160.099,-20.7114"/>
</g>
<!-- Node4 -->
<g id="node4" class="node"><title>Node4</title>
<g id="a_node4"><a xlink:href="classCOM_1_1COM__base_a77bb770b9ec1aac99361c45efbccabc1.html#a77bb770b9ec1aac99361c45efbccabc1" target="_top" xlink:title="Get a pointer to the COM object. ">
<polygon fill="none" stroke="black" points="310.5,-0.5 310.5,-19.5 449.5,-19.5 449.5,-0.5 310.5,-0.5"/>
<text text-anchor="middle" x="380" y="-7.5" font-family="Helvetica,sans-Serif" font-size="10.00">COM::COM_base::get_com</text>
</a>
</g>
</g>
<!-- Node3&#45;&gt;Node4 -->
<g id="edge3" class="edge"><title>Node3&#45;&gt;Node4</title>
<path fill="none" stroke="midnightblue" d="M252.853,-10C267.167,-10 283.766,-10 300.128,-10"/>
<polygon fill="midnightblue" stroke="midnightblue" points="300.262,-13.5001 310.262,-10 300.262,-6.5001 300.262,-13.5001"/>
</g>
</g>
</svg>
