<?xml version="1.0" encoding="UTF-8" standalone="no"?>
<!DOCTYPE svg PUBLIC "-//W3C//DTD SVG 1.1//EN"
 "http://www.w3.org/Graphics/SVG/1.1/DTD/svg11.dtd">
<!-- Generated by graphviz version 2.30.1 (20150305.2338)
 -->
<!-- Title: COM_call_function Pages: 1 -->
<svg width="436pt" height="77pt"
 viewBox="0.00 0.00 436.00 77.00" xmlns="http://www.w3.org/2000/svg" xmlns:xlink="http://www.w3.org/1999/xlink">
<g id="graph0" class="graph" transform="scale(1 1) rotate(0) translate(4 73)">
<title>COM_call_function</title>
<!-- Node1 -->
<g id="node1" class="node"><title>Node1</title>
<polygon fill="#bfbfbf" stroke="black" points="0,-22.5 0,-41.5 100,-41.5 100,-22.5 0,-22.5"/>
<text text-anchor="middle" x="50" y="-29.5" font-family="Helvetica,sans-Serif" font-size="10.00">COM_call_function</text>
</g>
<!-- Node2 -->
<g id="node2" class="node"><title>Node2</title>
<g id="a_node2"><a xlink:href="classCOM_1_1COM__base_aa5691bb8a33c7fddd9e2708b36d6012b.html#aa5691bb8a33c7fddd9e2708b36d6012b" target="_top" xlink:title="Invoke a function with given arguments. ">
<polygon fill="none" stroke="black" points="136,-39 136,-69 252,-69 252,-39 136,-39"/>
<text text-anchor="start" x="144" y="-57" font-family="Helvetica,sans-Serif" font-size="10.00">COM::COM_base::call</text>
<text text-anchor="middle" x="194" y="-46" font-family="Helvetica,sans-Serif" font-size="10.00">_function</text>
</a>
</g>
</g>
<!-- Node1&#45;&gt;Node2 -->
<g id="edge1" class="edge"><title>Node1&#45;&gt;Node2</title>
<path fill="none" stroke="midnightblue" d="M100.266,-39.6328C108.442,-40.8994 117.043,-42.232 125.575,-43.5539"/>
<polygon fill="midnightblue" stroke="midnightblue" points="125.111,-47.0237 135.529,-45.0961 126.183,-40.1063 125.111,-47.0237"/>
</g>
<!-- Node3 -->
<g id="node3" class="node"><title>Node3</title>
<g id="a_node3"><a xlink:href="COM__base_8hpp_a49353596e53127db61529b5c9000549d.html#a49353596e53127db61529b5c9000549d" target="_top" xlink:title="COM_get_com">
<polygon fill="none" stroke="black" points="152.5,-0.5 152.5,-19.5 235.5,-19.5 235.5,-0.5 152.5,-0.5"/>
<text text-anchor="middle" x="194" y="-7.5" font-family="Helvetica,sans-Serif" font-size="10.00">COM_get_com</text>
</a>
</g>
</g>
<!-- Node1&#45;&gt;Node3 -->
<g id="edge2" class="edge"><title>Node1&#45;&gt;Node3</title>
<path fill="none" stroke="midnightblue" d="M100.266,-24.3672C113.799,-22.2706 128.497,-19.9934 142.118,-17.8831"/>
<polygon fill="midnightblue" stroke="midnightblue" points="142.941,-21.2974 152.288,-16.3075 141.87,-14.3799 142.941,-21.2974"/>
</g>
<!-- Node4 -->
<g id="node4" class="node"><title>Node4</title>
<g id="a_node4"><a xlink:href="classCOM_1_1COM__base_a77bb770b9ec1aac99361c45efbccabc1.html#a77bb770b9ec1aac99361c45efbccabc1" target="_top" xlink:title="Get a pointer to the COM object. ">
<polygon fill="none" stroke="black" points="288.5,-0.5 288.5,-19.5 427.5,-19.5 427.5,-0.5 288.5,-0.5"/>
<text text-anchor="middle" x="358" y="-7.5" font-family="Helvetica,sans-Serif" font-size="10.00">COM::COM_base::get_com</text>
</a>
</g>
</g>
<!-- Node3&#45;&gt;Node4 -->
<g id="edge3" class="edge"><title>Node3&#45;&gt;Node4</title>
<path fill="none" stroke="midnightblue" d="M235.879,-10C248.826,-10 263.603,-10 278.279,-10"/>
<polygon fill="midnightblue" stroke="midnightblue" points="278.4,-13.5001 288.4,-10 278.4,-6.5001 278.4,-13.5001"/>
</g>
</g>
</svg>
