<?xml version="1.0" encoding="UTF-8" standalone="no"?>
<!DOCTYPE svg PUBLIC "-//W3C//DTD SVG 1.1//EN"
 "http://www.w3.org/Graphics/SVG/1.1/DTD/svg11.dtd">
<!-- Generated by graphviz version 2.30.1 (20150305.2338)
 -->
<!-- Title: COM_window_init_done Pages: 1 -->
<svg width="476pt" height="77pt"
 viewBox="0.00 0.00 476.00 77.00" xmlns="http://www.w3.org/2000/svg" xmlns:xlink="http://www.w3.org/1999/xlink">
<g id="graph0" class="graph" transform="scale(1 1) rotate(0) translate(4 73)">
<title>COM_window_init_done</title>
<!-- Node1 -->
<g id="node1" class="node"><title>Node1</title>
<polygon fill="#bfbfbf" stroke="black" points="0,-27.5 0,-46.5 122,-46.5 122,-27.5 0,-27.5"/>
<text text-anchor="middle" x="61" y="-34.5" font-family="Helvetica,sans-Serif" font-size="10.00">COM_window_init_done</text>
</g>
<!-- Node2 -->
<g id="node2" class="node"><title>Node2</title>
<g id="a_node2"><a xlink:href="COM__base_8hpp_a49353596e53127db61529b5c9000549d.html#a49353596e53127db61529b5c9000549d" target="_top" xlink:title="COM_get_com">
<polygon fill="none" stroke="black" points="183.5,-49.5 183.5,-68.5 266.5,-68.5 266.5,-49.5 183.5,-49.5"/>
<text text-anchor="middle" x="225" y="-56.5" font-family="Helvetica,sans-Serif" font-size="10.00">COM_get_com</text>
</a>
</g>
</g>
<!-- Node1&#45;&gt;Node2 -->
<g id="edge1" class="edge"><title>Node1&#45;&gt;Node2</title>
<path fill="none" stroke="midnightblue" d="M122.323,-45.192C139,-47.4568 156.931,-49.8919 173.021,-52.0769"/>
<polygon fill="midnightblue" stroke="midnightblue" points="172.917,-55.5948 183.297,-53.4724 173.859,-48.6585 172.917,-55.5948"/>
</g>
<!-- Node4 -->
<g id="node4" class="node"><title>Node4</title>
<g id="a_node4"><a xlink:href="classCOM_1_1COM__base_a1546f81f8d44d2745bbdddf6eee2a03f.html#a1546f81f8d44d2745bbdddf6eee2a03f" target="_top" xlink:title="Marks the end of the registration of a window. ">
<polygon fill="none" stroke="black" points="158,-0 158,-30 292,-30 292,-0 158,-0"/>
<text text-anchor="start" x="166" y="-18" font-family="Helvetica,sans-Serif" font-size="10.00">COM::COM_base::window</text>
<text text-anchor="middle" x="225" y="-7" font-family="Helvetica,sans-Serif" font-size="10.00">_init_done</text>
</a>
</g>
</g>
<!-- Node1&#45;&gt;Node4 -->
<g id="edge3" class="edge"><title>Node1&#45;&gt;Node4</title>
<path fill="none" stroke="midnightblue" d="M122.323,-28.808C130.664,-27.6753 139.318,-26.5 147.899,-25.3347"/>
<polygon fill="midnightblue" stroke="midnightblue" points="148.477,-28.7884 157.915,-23.9745 147.535,-21.8521 148.477,-28.7884"/>
</g>
<!-- Node3 -->
<g id="node3" class="node"><title>Node3</title>
<g id="a_node3"><a xlink:href="classCOM_1_1COM__base_a77bb770b9ec1aac99361c45efbccabc1.html#a77bb770b9ec1aac99361c45efbccabc1" target="_top" xlink:title="Get a pointer to the COM object. ">
<polygon fill="none" stroke="black" points="328.5,-49.5 328.5,-68.5 467.5,-68.5 467.5,-49.5 328.5,-49.5"/>
<text text-anchor="middle" x="398" y="-56.5" font-family="Helvetica,sans-Serif" font-size="10.00">COM::COM_base::get_com</text>
</a>
</g>
</g>
<!-- Node2&#45;&gt;Node3 -->
<g id="edge2" class="edge"><title>Node2&#45;&gt;Node3</title>
<path fill="none" stroke="midnightblue" d="M266.525,-59C281.963,-59 300.137,-59 317.937,-59"/>
<polygon fill="midnightblue" stroke="midnightblue" points="318.35,-62.5001 328.35,-59 318.35,-55.5001 318.35,-62.5001"/>
</g>
</g>
</svg>
