<?xml version="1.0" encoding="UTF-8" standalone="no"?>
<!DOCTYPE svg PUBLIC "-//W3C//DTD SVG 1.1//EN"
 "http://www.w3.org/Graphics/SVG/1.1/DTD/svg11.dtd">
<!-- Generated by graphviz version 2.30.1 (20150305.2338)
 -->
<!-- Title: COM_get_window_handle Pages: 1 -->
<svg width="1366pt" height="625pt"
 viewBox="0.00 0.00 1366.00 625.00" xmlns="http://www.w3.org/2000/svg" xmlns:xlink="http://www.w3.org/1999/xlink">
<g id="graph0" class="graph" transform="scale(1 1) rotate(0) translate(4 621)">
<title>COM_get_window_handle</title>
<!-- Node1 -->
<g id="node1" class="node"><title>Node1</title>
<polygon fill="#bfbfbf" stroke="black" points="0.5,-204.5 0.5,-223.5 131.5,-223.5 131.5,-204.5 0.5,-204.5"/>
<text text-anchor="middle" x="66" y="-211.5" font-family="Helvetica,sans-Serif" font-size="10.00">COM_get_window_handle</text>
</g>
<!-- Node2 -->
<g id="node2" class="node"><title>Node2</title>
<g id="a_node2"><a xlink:href="namespaceSolverUtils_a9da67f474f0ef835bb9707e6598de2bd.html#a9da67f474f0ef835bb9707e6598de2bd" target="_top" xlink:title="SolverUtils::PopulateSolver\lAgentFromWindow">
<polygon fill="none" stroke="black" points="179.5,-300 179.5,-330 316.5,-330 316.5,-300 179.5,-300"/>
<text text-anchor="start" x="187.5" y="-318" font-family="Helvetica,sans-Serif" font-size="10.00">SolverUtils::PopulateSolver</text>
<text text-anchor="middle" x="248" y="-307" font-family="Helvetica,sans-Serif" font-size="10.00">AgentFromWindow</text>
</a>
</g>
</g>
<!-- Node1&#45;&gt;Node2 -->
<g id="edge1" class="edge"><title>Node1&#45;&gt;Node2</title>
<path fill="none" stroke="midnightblue" d="M92.7655,-228.457C126.603,-247.444 185.738,-280.625 220.121,-299.918"/>
<polygon fill="midnightblue" stroke="midnightblue" points="94.3676,-225.343 83.934,-223.502 90.9422,-231.448 94.3676,-225.343"/>
</g>
<!-- Node23 -->
<g id="node23" class="node"><title>Node23</title>
<g id="a_node23"><a xlink:href="classElmerModuleDriver_1_1TestingObject_ae4d44626a9c27ea8352a740ae562f97d.html#ae4d44626a9c27ea8352a740ae562f97d" target="_top" xlink:title="ElmerModuleDriver::\lTestingObject::Test\l__ElasticBeam3D_LoadFunction">
<polygon fill="none" stroke="black" points="168.5,-169.5 168.5,-210.5 327.5,-210.5 327.5,-169.5 168.5,-169.5"/>
<text text-anchor="start" x="176.5" y="-198.5" font-family="Helvetica,sans-Serif" font-size="10.00">ElmerModuleDriver::</text>
<text text-anchor="start" x="176.5" y="-187.5" font-family="Helvetica,sans-Serif" font-size="10.00">TestingObject::Test</text>
<text text-anchor="middle" x="248" y="-176.5" font-family="Helvetica,sans-Serif" font-size="10.00">__ElasticBeam3D_LoadFunction</text>
</a>
</g>
</g>
<!-- Node1&#45;&gt;Node23 -->
<g id="edge37" class="edge"><title>Node1&#45;&gt;Node23</title>
<path fill="none" stroke="midnightblue" d="M141.896,-204.014C150.651,-202.847 159.601,-201.653 168.404,-200.479"/>
<polygon fill="midnightblue" stroke="midnightblue" points="141.18,-200.578 131.73,-205.369 142.105,-207.517 141.18,-200.578"/>
</g>
<!-- Node28 -->
<g id="node28" class="node"><title>Node28</title>
<g id="a_node28"><a xlink:href="classElmerFoamFSI_1_1TestingObject_a0321727b6fdd782394f76bd5ec162908.html#a0321727b6fdd782394f76bd5ec162908" target="_top" xlink:title="ElmerFoamFSI::TestingObject\l::Test__ElmerHandlesCheck">
<polygon fill="none" stroke="black" points="744.5,-146 744.5,-176 893.5,-176 893.5,-146 744.5,-146"/>
<text text-anchor="start" x="752.5" y="-164" font-family="Helvetica,sans-Serif" font-size="10.00">ElmerFoamFSI::TestingObject</text>
<text text-anchor="middle" x="819" y="-153" font-family="Helvetica,sans-Serif" font-size="10.00">::Test__ElmerHandlesCheck</text>
</a>
</g>
</g>
<!-- Node1&#45;&gt;Node28 -->
<g id="edge42" class="edge"><title>Node1&#45;&gt;Node28</title>
<path fill="none" stroke="midnightblue" d="M141.628,-221.344C259.622,-230.95 495.809,-242.008 690,-200 706.779,-196.37 709.694,-191.369 726,-186 736.533,-182.532 747.854,-179.166 758.83,-176.087"/>
<polygon fill="midnightblue" stroke="midnightblue" points="141.872,-217.852 131.616,-220.509 141.291,-224.828 141.872,-217.852"/>
</g>
<!-- Node29 -->
<g id="node29" class="node"><title>Node29</title>
<g id="a_node29"><a xlink:href="classElmerFoamFSI_1_1TestingObject_ad6222d9bde705482296d98f64300a260.html#ad6222d9bde705482296d98f64300a260" target="_top" xlink:title="ElmerFoamFSI::TestingObject\l::Test__ElmerModuleLoad">
<polygon fill="none" stroke="black" points="744.5,-587 744.5,-617 893.5,-617 893.5,-587 744.5,-587"/>
<text text-anchor="start" x="752.5" y="-605" font-family="Helvetica,sans-Serif" font-size="10.00">ElmerFoamFSI::TestingObject</text>
<text text-anchor="middle" x="819" y="-594" font-family="Helvetica,sans-Serif" font-size="10.00">::Test__ElmerModuleLoad</text>
</a>
</g>
</g>
<!-- Node1&#45;&gt;Node29 -->
<g id="edge45" class="edge"><title>Node1&#45;&gt;Node29</title>
<path fill="none" stroke="midnightblue" d="M73.17,-233.498C85.5815,-269.852 116.836,-348.503 168,-395 334.745,-546.537 612.642,-587.165 744.391,-598.038"/>
<polygon fill="midnightblue" stroke="midnightblue" points="76.3797,-232.055 69.9219,-223.656 69.7323,-234.249 76.3797,-232.055"/>
</g>
<!-- Node30 -->
<g id="node30" class="node"><title>Node30</title>
<g id="a_node30"><a xlink:href="classElmerModuleDriver_1_1TestingObject_ada2078f55b55b73d4aacf78d061a57de.html#ada2078f55b55b73d4aacf78d061a57de" target="_top" xlink:title="ElmerModuleDriver::\lTestingObject::Test\l__ElmerUnitTests">
<polygon fill="none" stroke="black" points="195,-109.5 195,-150.5 301,-150.5 301,-109.5 195,-109.5"/>
<text text-anchor="start" x="203" y="-138.5" font-family="Helvetica,sans-Serif" font-size="10.00">ElmerModuleDriver::</text>
<text text-anchor="start" x="203" y="-127.5" font-family="Helvetica,sans-Serif" font-size="10.00">TestingObject::Test</text>
<text text-anchor="middle" x="248" y="-116.5" font-family="Helvetica,sans-Serif" font-size="10.00">__ElmerUnitTests</text>
</a>
</g>
</g>
<!-- Node1&#45;&gt;Node30 -->
<g id="edge48" class="edge"><title>Node1&#45;&gt;Node30</title>
<path fill="none" stroke="midnightblue" d="M92.3255,-199.292C112.483,-187.872 141.595,-172.013 168,-160 176.547,-156.112 185.757,-152.293 194.766,-148.751"/>
<polygon fill="midnightblue" stroke="midnightblue" points="90.416,-196.351 83.4684,-204.35 93.8878,-202.43 90.416,-196.351"/>
</g>
<!-- Node32 -->
<g id="node32" class="node"><title>Node32</title>
<g id="a_node32"><a xlink:href="classOpenFoamModuleDriver_1_1TestingObject_a77a1d9a76340e835e6a4f6c9428f8796.html#a77a1d9a76340e835e6a4f6c9428f8796" target="_top" xlink:title="OpenFoamModuleDriver\l::TestingObject::Test\l__ModuleLoadUnload">
<polygon fill="none" stroke="black" points="187,-49.5 187,-90.5 309,-90.5 309,-49.5 187,-49.5"/>
<text text-anchor="start" x="195" y="-78.5" font-family="Helvetica,sans-Serif" font-size="10.00">OpenFoamModuleDriver</text>
<text text-anchor="start" x="195" y="-67.5" font-family="Helvetica,sans-Serif" font-size="10.00">::TestingObject::Test</text>
<text text-anchor="middle" x="248" y="-56.5" font-family="Helvetica,sans-Serif" font-size="10.00">__ModuleLoadUnload</text>
</a>
</g>
</g>
<!-- Node1&#45;&gt;Node32 -->
<g id="edge52" class="edge"><title>Node1&#45;&gt;Node32</title>
<path fill="none" stroke="midnightblue" d="M78.8169,-195.874C95.8183,-171.083 129.413,-126.646 168,-100 173.795,-95.9985 180.194,-92.4428 186.767,-89.3066"/>
<polygon fill="midnightblue" stroke="midnightblue" points="75.8046,-194.082 73.1376,-204.335 81.6168,-197.983 75.8046,-194.082"/>
</g>
<!-- Node38 -->
<g id="node38" class="node"><title>Node38</title>
<g id="a_node38"><a xlink:href="classElmerFoamFSI_1_1TestingObject_a3831596d059fd811ea2d1565f65f8c78.html#a3831596d059fd811ea2d1565f65f8c78" target="_top" xlink:title="ElmerFoamFSI::TestingObject\l::Test__OFModuleLoad">
<polygon fill="none" stroke="black" points="744.5,-538 744.5,-568 893.5,-568 893.5,-538 744.5,-538"/>
<text text-anchor="start" x="752.5" y="-556" font-family="Helvetica,sans-Serif" font-size="10.00">ElmerFoamFSI::TestingObject</text>
<text text-anchor="middle" x="819" y="-545" font-family="Helvetica,sans-Serif" font-size="10.00">::Test__OFModuleLoad</text>
</a>
</g>
</g>
<!-- Node1&#45;&gt;Node38 -->
<g id="edge59" class="edge"><title>Node1&#45;&gt;Node38</title>
<path fill="none" stroke="midnightblue" d="M77.3937,-232.442C93.4929,-259.449 126.927,-309.717 168,-339 350.349,-469.007 616.577,-523.585 744.293,-543.328"/>
<polygon fill="midnightblue" stroke="midnightblue" points="80.3189,-230.51 72.2647,-223.627 74.2685,-234.031 80.3189,-230.51"/>
</g>
<!-- Node39 -->
<g id="node39" class="node"><title>Node39</title>
<g id="a_node39"><a xlink:href="classIcoFoamMod_1_1IcoFoamModule_a27507865018034eb48387b7c9a205ed8.html#a27507865018034eb48387b7c9a205ed8" target="_top" xlink:title="Destructor. ">
<polygon fill="none" stroke="black" points="173.5,-0 173.5,-30 322.5,-30 322.5,-0 173.5,-0"/>
<text text-anchor="start" x="181.5" y="-18" font-family="Helvetica,sans-Serif" font-size="10.00">IcoFoamMod::IcoFoamModule</text>
<text text-anchor="middle" x="248" y="-7" font-family="Helvetica,sans-Serif" font-size="10.00">::~IcoFoamModule</text>
</a>
</g>
</g>
<!-- Node1&#45;&gt;Node39 -->
<g id="edge62" class="edge"><title>Node1&#45;&gt;Node39</title>
<path fill="none" stroke="midnightblue" d="M72.9462,-194.747C84.9835,-158.947 115.638,-81.9702 168,-40 172.827,-36.1312 178.261,-32.8568 183.962,-30.0862"/>
<polygon fill="midnightblue" stroke="midnightblue" points="69.5548,-193.859 69.8047,-204.451 76.2146,-196.015 69.5548,-193.859"/>
</g>
<!-- Node3 -->
<g id="node3" class="node"><title>Node3</title>
<g id="a_node3"><a xlink:href="classelmeragent_a66d8ac5294227a11adf08cdfa91f59b5.html#a66d8ac5294227a11adf08cdfa91f59b5" target="_top" xlink:title="elmeragent::Initialize">
<polygon fill="none" stroke="black" points="380.5,-267.5 380.5,-286.5 487.5,-286.5 487.5,-267.5 380.5,-267.5"/>
<text text-anchor="middle" x="434" y="-274.5" font-family="Helvetica,sans-Serif" font-size="10.00">elmeragent::Initialize</text>
</a>
</g>
</g>
<!-- Node2&#45;&gt;Node3 -->
<g id="edge2" class="edge"><title>Node2&#45;&gt;Node3</title>
<path fill="none" stroke="midnightblue" d="M326.702,-298.953C347.211,-294.717 368.691,-290.281 386.931,-286.514"/>
<polygon fill="midnightblue" stroke="midnightblue" points="325.816,-295.562 316.731,-301.012 327.232,-302.417 325.816,-295.562"/>
</g>
<!-- Node18 -->
<g id="node18" class="node"><title>Node18</title>
<g id="a_node18"><a xlink:href="classelmeragentpar_a66d8ac5294227a11adf08cdfa91f59b5.html#a66d8ac5294227a11adf08cdfa91f59b5" target="_top" xlink:title="elmeragentpar::Initialize">
<polygon fill="none" stroke="black" points="374,-343.5 374,-362.5 494,-362.5 494,-343.5 374,-343.5"/>
<text text-anchor="middle" x="434" y="-350.5" font-family="Helvetica,sans-Serif" font-size="10.00">elmeragentpar::Initialize</text>
</a>
</g>
</g>
<!-- Node2&#45;&gt;Node18 -->
<g id="edge28" class="edge"><title>Node2&#45;&gt;Node18</title>
<path fill="none" stroke="midnightblue" d="M326.702,-331.047C347.211,-335.283 368.691,-339.719 386.931,-343.486"/>
<polygon fill="midnightblue" stroke="midnightblue" points="327.232,-327.583 316.731,-328.988 325.816,-334.438 327.232,-327.583"/>
</g>
<!-- Node20 -->
<g id="node20" class="node"><title>Node20</title>
<g id="a_node20"><a xlink:href="classopenfoamagent_a9a8261713154978fa009d8cb2c533055.html#a9a8261713154978fa009d8cb2c533055" target="_top" xlink:title="openfoamagent::Initialize">
<polygon fill="none" stroke="black" points="371.5,-305.5 371.5,-324.5 496.5,-324.5 496.5,-305.5 371.5,-305.5"/>
<text text-anchor="middle" x="434" y="-312.5" font-family="Helvetica,sans-Serif" font-size="10.00">openfoamagent::Initialize</text>
</a>
</g>
</g>
<!-- Node2&#45;&gt;Node20 -->
<g id="edge30" class="edge"><title>Node2&#45;&gt;Node20</title>
<path fill="none" stroke="midnightblue" d="M326.879,-315C341.68,-315 356.981,-315 371.2,-315"/>
<polygon fill="midnightblue" stroke="midnightblue" points="326.731,-311.5 316.731,-315 326.731,-318.5 326.731,-311.5"/>
</g>
<!-- Node22 -->
<g id="node22" class="node"><title>Node22</title>
<g id="a_node22"><a xlink:href="classopenfoamagentpar_a9a8261713154978fa009d8cb2c533055.html#a9a8261713154978fa009d8cb2c533055" target="_top" xlink:title="openfoamagentpar::Initialize">
<polygon fill="none" stroke="black" points="364.5,-381.5 364.5,-400.5 503.5,-400.5 503.5,-381.5 364.5,-381.5"/>
<text text-anchor="middle" x="434" y="-388.5" font-family="Helvetica,sans-Serif" font-size="10.00">openfoamagentpar::Initialize</text>
</a>
</g>
</g>
<!-- Node2&#45;&gt;Node22 -->
<g id="edge35" class="edge"><title>Node2&#45;&gt;Node22</title>
<path fill="none" stroke="midnightblue" d="M284.844,-334.989C307.139,-346.858 336.674,-361.576 364,-372 373.287,-375.543 383.508,-378.727 393.172,-381.43"/>
<polygon fill="midnightblue" stroke="midnightblue" points="286.223,-331.756 275.759,-330.097 282.905,-337.92 286.223,-331.756"/>
</g>
<!-- Node4 -->
<g id="node4" class="node"><title>Node4</title>
<g id="a_node4"><a xlink:href="classElmerFoamFSI_1_1TestingObject_af35b4f0c5c244be91e637c17b3ebabd9.html#af35b4f0c5c244be91e637c17b3ebabd9" target="_top" xlink:title="Run an initialization check to make sure that the ElmerStructures are running as they should...">
<polygon fill="none" stroke="black" points="744.5,-195 744.5,-225 893.5,-225 893.5,-195 744.5,-195"/>
<text text-anchor="start" x="752.5" y="-213" font-family="Helvetica,sans-Serif" font-size="10.00">ElmerFoamFSI::TestingObject</text>
<text text-anchor="middle" x="819" y="-202" font-family="Helvetica,sans-Serif" font-size="10.00">::Test__ElmerStructures</text>
</a>
</g>
</g>
<!-- Node3&#45;&gt;Node4 -->
<g id="edge3" class="edge"><title>Node3&#45;&gt;Node4</title>
<path fill="none" stroke="midnightblue" d="M497.955,-277.482C550.305,-276.374 626.276,-271.238 690,-253 707.198,-248.078 709.287,-241.377 726,-235 735.588,-231.342 745.928,-227.989 756.093,-225.009"/>
<polygon fill="midnightblue" stroke="midnightblue" points="497.75,-273.985 487.811,-277.653 497.868,-280.984 497.75,-273.985"/>
</g>
<!-- Node10 -->
<g id="node10" class="node"><title>Node10</title>
<g id="a_node10"><a xlink:href="classfsicoupling_ae855141f7b214925c25f7797b8b122a8.html#ae855141f7b214925c25f7797b8b122a8" target="_top" xlink:title="fsicoupling::Initialize">
<polygon fill="none" stroke="black" points="562.5,-305.5 562.5,-324.5 667.5,-324.5 667.5,-305.5 562.5,-305.5"/>
<text text-anchor="middle" x="615" y="-312.5" font-family="Helvetica,sans-Serif" font-size="10.00">fsicoupling::Initialize</text>
</a>
</g>
</g>
<!-- Node3&#45;&gt;Node10 -->
<g id="edge10" class="edge"><title>Node3&#45;&gt;Node10</title>
<path fill="none" stroke="midnightblue" d="M490.024,-288.681C515.408,-294.07 545.161,-300.386 569.156,-305.48"/>
<polygon fill="midnightblue" stroke="midnightblue" points="490.678,-285.242 480.169,-286.589 489.224,-292.089 490.678,-285.242"/>
</g>
<!-- Node5 -->
<g id="node5" class="node"><title>Node5</title>
<g id="a_node5"><a xlink:href="classElmerFoamFSI_1_1TestingObject_a046f7ab06db0acf616b0d2bf3d3146aa.html#a046f7ab06db0acf616b0d2bf3d3146aa" target="_top" xlink:title="Runs all tests implemented by the ElmerFoamFSI::TestingObject. ">
<polygon fill="none" stroke="black" points="948.5,-391 948.5,-421 1097.5,-421 1097.5,-391 948.5,-391"/>
<text text-anchor="start" x="956.5" y="-409" font-family="Helvetica,sans-Serif" font-size="10.00">ElmerFoamFSI::TestingObject</text>
<text text-anchor="middle" x="1023" y="-398" font-family="Helvetica,sans-Serif" font-size="10.00">::Process</text>
</a>
</g>
</g>
<!-- Node4&#45;&gt;Node5 -->
<g id="edge4" class="edge"><title>Node4&#45;&gt;Node5</title>
<path fill="none" stroke="midnightblue" d="M902.637,-227.209C906.005,-229.501 909.154,-232.086 912,-235 958.697,-282.811 902.769,-331.799 948,-381 951.579,-384.893 955.785,-388.181 960.344,-390.956"/>
<polygon fill="midnightblue" stroke="midnightblue" points="904.267,-224.108 893.865,-222.095 900.741,-230.155 904.267,-224.108"/>
</g>
<!-- Node8 -->
<g id="node8" class="node"><title>Node8</title>
<g id="a_node8"><a xlink:href="classElmerFoamFSI_1_1TestingObject_af1f07f14b9af7708e4264bb38937eed2.html#af1f07f14b9af7708e4264bb38937eed2" target="_top" xlink:title="Runs a test specified by name. ">
<polygon fill="none" stroke="black" points="948.5,-342 948.5,-372 1097.5,-372 1097.5,-342 948.5,-342"/>
<text text-anchor="start" x="956.5" y="-360" font-family="Helvetica,sans-Serif" font-size="10.00">ElmerFoamFSI::TestingObject</text>
<text text-anchor="middle" x="1023" y="-349" font-family="Helvetica,sans-Serif" font-size="10.00">::RunTest</text>
</a>
</g>
</g>
<!-- Node4&#45;&gt;Node8 -->
<g id="edge7" class="edge"><title>Node4&#45;&gt;Node8</title>
<path fill="none" stroke="midnightblue" d="M900.785,-228.97C904.668,-230.801 908.431,-232.806 912,-235 957.675,-263.079 995.588,-315.712 1012.51,-341.693"/>
<polygon fill="midnightblue" stroke="midnightblue" points="902.11,-225.73 891.54,-225.004 899.351,-232.163 902.11,-225.73"/>
</g>
<!-- Node6 -->
<g id="node6" class="node"><title>Node6</title>
<g id="a_node6"><a xlink:href="namespaceElmerFoamFSI_aeb590657609088b8ab12a5cbd164fcfa.html#aeb590657609088b8ab12a5cbd164fcfa" target="_top" xlink:title="Drives the ElmerFoamFSI::TestObject. ">
<polygon fill="none" stroke="black" points="1155,-393.5 1155,-412.5 1263,-412.5 1263,-393.5 1155,-393.5"/>
<text text-anchor="middle" x="1209" y="-400.5" font-family="Helvetica,sans-Serif" font-size="10.00">ElmerFoamFSI::Test</text>
</a>
</g>
</g>
<!-- Node5&#45;&gt;Node6 -->
<g id="edge5" class="edge"><title>Node5&#45;&gt;Node6</title>
<path fill="none" stroke="midnightblue" d="M1107.96,-404.631C1123.97,-404.37 1140.3,-404.104 1155,-403.864"/>
<polygon fill="midnightblue" stroke="midnightblue" points="1107.46,-401.139 1097.51,-404.801 1107.57,-408.138 1107.46,-401.139"/>
</g>
<!-- Node7 -->
<g id="node7" class="node"><title>Node7</title>
<g id="a_node7"><a xlink:href="TestElmerFoamFSI_8C_a0ddf1224851353fc92bfbff6f499fa97.html#a0ddf1224851353fc92bfbff6f499fa97" target="_top" xlink:title="main">
<polygon fill="none" stroke="black" points="1320,-393.5 1320,-412.5 1358,-412.5 1358,-393.5 1320,-393.5"/>
<text text-anchor="middle" x="1339" y="-400.5" font-family="Helvetica,sans-Serif" font-size="10.00">main</text>
</a>
</g>
</g>
<!-- Node6&#45;&gt;Node7 -->
<g id="edge6" class="edge"><title>Node6&#45;&gt;Node7</title>
<path fill="none" stroke="midnightblue" d="M1273.19,-403C1290.29,-403 1307.47,-403 1319.84,-403"/>
<polygon fill="midnightblue" stroke="midnightblue" points="1273.17,-399.5 1263.17,-403 1273.17,-406.5 1273.17,-399.5"/>
</g>
<!-- Node9 -->
<g id="node9" class="node"><title>Node9</title>
<g id="a_node9"><a xlink:href="classElmerFoamFSI_1_1TestingObject_a21159bd2efac623e5a5079f6a20f3444.html#a21159bd2efac623e5a5079f6a20f3444" target="_top" xlink:title="Runs a list of tests specified by name. ">
<polygon fill="none" stroke="black" points="1134.5,-342 1134.5,-372 1283.5,-372 1283.5,-342 1134.5,-342"/>
<text text-anchor="start" x="1142.5" y="-360" font-family="Helvetica,sans-Serif" font-size="10.00">ElmerFoamFSI::TestingObject</text>
<text text-anchor="middle" x="1209" y="-349" font-family="Helvetica,sans-Serif" font-size="10.00">::ProcessTests</text>
</a>
</g>
</g>
<!-- Node8&#45;&gt;Node9 -->
<g id="edge8" class="edge"><title>Node8&#45;&gt;Node9</title>
<path fill="none" stroke="midnightblue" d="M1107.53,-357C1116.46,-357 1125.5,-357 1134.3,-357"/>
<polygon fill="midnightblue" stroke="midnightblue" points="1107.51,-353.5 1097.51,-357 1107.51,-360.5 1107.51,-353.5"/>
</g>
<!-- Node8&#45;&gt;Node6 -->
<g id="edge9" class="edge"><title>Node8&#45;&gt;Node6</title>
<path fill="none" stroke="midnightblue" d="M1093.99,-374.497C1119.75,-380.939 1147.97,-387.992 1169.89,-393.471"/>
<polygon fill="midnightblue" stroke="midnightblue" points="1094.8,-371.092 1084.25,-372.062 1093.1,-377.883 1094.8,-371.092"/>
</g>
<!-- Node11 -->
<g id="node11" class="node"><title>Node11</title>
<g id="a_node11"><a xlink:href="classElmerFoamFSI_1_1SerialDriverProgram_a5803949d99491a7186bf1ee9cee81a3b.html#a5803949d99491a7186bf1ee9cee81a3b" target="_top" xlink:title="This function implements the main function executed by the program. ">
<polygon fill="none" stroke="black" points="749,-97 749,-127 889,-127 889,-97 749,-97"/>
<text text-anchor="start" x="757" y="-115" font-family="Helvetica,sans-Serif" font-size="10.00">ElmerFoamFSI::SerialDriver</text>
<text text-anchor="middle" x="819" y="-104" font-family="Helvetica,sans-Serif" font-size="10.00">Program::DriverRun</text>
</a>
</g>
</g>
<!-- Node10&#45;&gt;Node11 -->
<g id="edge11" class="edge"><title>Node10&#45;&gt;Node11</title>
<path fill="none" stroke="midnightblue" d="M628.189,-296.715C643.109,-274.185 668.983,-234.631 690,-200 706.731,-172.431 700.494,-156.734 726,-137 732.807,-131.733 740.645,-127.575 748.814,-124.291"/>
<polygon fill="midnightblue" stroke="midnightblue" points="625.128,-294.998 622.511,-305.265 630.959,-298.871 625.128,-294.998"/>
</g>
<!-- Node13 -->
<g id="node13" class="node"><title>Node13</title>
<g id="a_node13"><a xlink:href="classElmerFoamFSI_1_1TestingObject_a07ff57097065c5066a4421176b63242b.html#a07ff57097065c5066a4421176b63242b" target="_top" xlink:title="Test the functionality of the fsiCoupler. ">
<polygon fill="none" stroke="black" points="744.5,-391 744.5,-421 893.5,-421 893.5,-391 744.5,-391"/>
<text text-anchor="start" x="752.5" y="-409" font-family="Helvetica,sans-Serif" font-size="10.00">ElmerFoamFSI::TestingObject</text>
<text text-anchor="middle" x="819" y="-398" font-family="Helvetica,sans-Serif" font-size="10.00">::Test__FsiCoupler</text>
</a>
</g>
</g>
<!-- Node10&#45;&gt;Node13 -->
<g id="edge13" class="edge"><title>Node10&#45;&gt;Node13</title>
<path fill="none" stroke="midnightblue" d="M668.489,-328.01C676.027,-331.003 683.441,-334.629 690,-339 710.458,-352.635 705.219,-367.863 726,-381 732.156,-384.892 738.913,-388.184 745.884,-390.968"/>
<polygon fill="midnightblue" stroke="midnightblue" points="669.522,-324.662 658.928,-324.55 667.14,-331.244 669.522,-324.662"/>
</g>
<!-- Node14 -->
<g id="node14" class="node"><title>Node14</title>
<g id="a_node14"><a xlink:href="classElmerFoamFSI_1_1TestingObject_abb3c0f68a2d2e212fa6e05e4628c78f0.html#abb3c0f68a2d2e212fa6e05e4628c78f0" target="_top" xlink:title="Test for fsiCoupling::TrasferDisplacementsToFluid function. ">
<polygon fill="none" stroke="black" points="726,-342 726,-372 912,-372 912,-342 726,-342"/>
<text text-anchor="start" x="734" y="-360" font-family="Helvetica,sans-Serif" font-size="10.00">ElmerFoamFSI::TestingObject</text>
<text text-anchor="middle" x="819" y="-349" font-family="Helvetica,sans-Serif" font-size="10.00">::Test__TransferDisplacementsToFluid</text>
</a>
</g>
</g>
<!-- Node10&#45;&gt;Node14 -->
<g id="edge16" class="edge"><title>Node10&#45;&gt;Node14</title>
<path fill="none" stroke="midnightblue" d="M671.724,-326.586C694.619,-331.347 721.429,-336.921 745.798,-341.988"/>
<polygon fill="midnightblue" stroke="midnightblue" points="672.34,-323.139 661.837,-324.53 670.915,-329.993 672.34,-323.139"/>
</g>
<!-- Node15 -->
<g id="node15" class="node"><title>Node15</title>
<g id="a_node15"><a xlink:href="classElmerFoamFSI_1_1TestingObject_aa7d577bcec96bb12da930ede076b6023.html#aa7d577bcec96bb12da930ede076b6023" target="_top" xlink:title="Test for fluidAgent&#45;&gt;Run() function. ">
<polygon fill="none" stroke="black" points="744.5,-293 744.5,-323 893.5,-323 893.5,-293 744.5,-293"/>
<text text-anchor="start" x="752.5" y="-311" font-family="Helvetica,sans-Serif" font-size="10.00">ElmerFoamFSI::TestingObject</text>
<text text-anchor="middle" x="819" y="-300" font-family="Helvetica,sans-Serif" font-size="10.00">::Test__FluidAgentRun</text>
</a>
</g>
</g>
<!-- Node10&#45;&gt;Node15 -->
<g id="edge19" class="edge"><title>Node10&#45;&gt;Node15</title>
<path fill="none" stroke="midnightblue" d="M677.825,-312.858C698.811,-312.13 722.466,-311.311 744.285,-310.554"/>
<polygon fill="midnightblue" stroke="midnightblue" points="677.63,-309.362 667.758,-313.206 677.873,-316.358 677.63,-309.362"/>
</g>
<!-- Node16 -->
<g id="node16" class="node"><title>Node16</title>
<g id="a_node16"><a xlink:href="classElmerFoamFSI_1_1TestingObject_a8c738943eca358248eb583bd29c5c332.html#a8c738943eca358248eb583bd29c5c332" target="_top" xlink:title="Test for TransferLoadsToStructures() function. ">
<polygon fill="none" stroke="black" points="733.5,-244 733.5,-274 904.5,-274 904.5,-244 733.5,-244"/>
<text text-anchor="start" x="741.5" y="-262" font-family="Helvetica,sans-Serif" font-size="10.00">ElmerFoamFSI::TestingObject</text>
<text text-anchor="middle" x="819" y="-251" font-family="Helvetica,sans-Serif" font-size="10.00">::Test__TransferLoadsToStructures</text>
</a>
</g>
</g>
<!-- Node10&#45;&gt;Node16 -->
<g id="edge22" class="edge"><title>Node10&#45;&gt;Node16</title>
<path fill="none" stroke="midnightblue" d="M659.531,-302.631C679.734,-296.916 704.08,-290.067 726,-284 737.645,-280.777 750.129,-277.359 762.028,-274.12"/>
<polygon fill="midnightblue" stroke="midnightblue" points="658.345,-299.329 649.677,-305.421 660.253,-306.064 658.345,-299.329"/>
</g>
<!-- Node17 -->
<g id="node17" class="node"><title>Node17</title>
<g id="a_node17"><a xlink:href="classElmerFoamFSI_1_1TestingObject_a1fae1ccecf337df1572d5a43cdae1a08.html#a1fae1ccecf337df1572d5a43cdae1a08" target="_top" xlink:title="Test for solidAgent&#45;&gt;Run() function. ">
<polygon fill="none" stroke="black" points="744.5,-440 744.5,-470 893.5,-470 893.5,-440 744.5,-440"/>
<text text-anchor="start" x="752.5" y="-458" font-family="Helvetica,sans-Serif" font-size="10.00">ElmerFoamFSI::TestingObject</text>
<text text-anchor="middle" x="819" y="-447" font-family="Helvetica,sans-Serif" font-size="10.00">::Test__SolidAgentRun</text>
</a>
</g>
</g>
<!-- Node10&#45;&gt;Node17 -->
<g id="edge25" class="edge"><title>Node10&#45;&gt;Node17</title>
<path fill="none" stroke="midnightblue" d="M675.439,-328.832C680.738,-331.622 685.711,-334.973 690,-339 721.71,-368.77 693.581,-401.004 726,-430 731.428,-434.855 737.708,-438.78 744.387,-441.95"/>
<polygon fill="midnightblue" stroke="midnightblue" points="676.827,-325.619 666.277,-324.649 673.92,-331.986 676.827,-325.619"/>
</g>
<!-- Node12 -->
<g id="node12" class="node"><title>Node12</title>
<g id="a_node12"><a xlink:href="namespaceElmerFoamFSI_aff46f457934a8e2d3712bdbfb1688e99.html#aff46f457934a8e2d3712bdbfb1688e99" target="_top" xlink:title="Unified driver for the example programs. ">
<polygon fill="none" stroke="black" points="965.5,-102.5 965.5,-121.5 1080.5,-121.5 1080.5,-102.5 965.5,-102.5"/>
<text text-anchor="middle" x="1023" y="-109.5" font-family="Helvetica,sans-Serif" font-size="10.00">ElmerFoamFSI::Driver</text>
</a>
</g>
</g>
<!-- Node11&#45;&gt;Node12 -->
<g id="edge12" class="edge"><title>Node11&#45;&gt;Node12</title>
<path fill="none" stroke="midnightblue" d="M899.243,-112C921.284,-112 944.777,-112 965.247,-112"/>
<polygon fill="midnightblue" stroke="midnightblue" points="899.234,-108.5 889.234,-112 899.234,-115.5 899.234,-108.5"/>
</g>
<!-- Node13&#45;&gt;Node5 -->
<g id="edge14" class="edge"><title>Node13&#45;&gt;Node5</title>
<path fill="none" stroke="midnightblue" d="M903.913,-406C918.683,-406 933.955,-406 948.416,-406"/>
<polygon fill="midnightblue" stroke="midnightblue" points="903.784,-402.5 893.784,-406 903.784,-409.5 903.784,-402.5"/>
</g>
<!-- Node13&#45;&gt;Node8 -->
<g id="edge15" class="edge"><title>Node13&#45;&gt;Node8</title>
<path fill="none" stroke="midnightblue" d="M891.746,-388.596C914.092,-383.176 938.529,-377.248 960.138,-372.006"/>
<polygon fill="midnightblue" stroke="midnightblue" points="890.872,-385.207 881.979,-390.965 892.523,-392.009 890.872,-385.207"/>
</g>
<!-- Node14&#45;&gt;Node5 -->
<g id="edge17" class="edge"><title>Node14&#45;&gt;Node5</title>
<path fill="none" stroke="midnightblue" d="M891.746,-374.404C914.092,-379.824 938.529,-385.752 960.138,-390.994"/>
<polygon fill="midnightblue" stroke="midnightblue" points="892.523,-370.991 881.979,-372.035 890.872,-377.793 892.523,-370.991"/>
</g>
<!-- Node14&#45;&gt;Node8 -->
<g id="edge18" class="edge"><title>Node14&#45;&gt;Node8</title>
<path fill="none" stroke="midnightblue" d="M922.144,-357C931.019,-357 939.883,-357 948.461,-357"/>
<polygon fill="midnightblue" stroke="midnightblue" points="922.133,-353.5 912.133,-357 922.133,-360.5 922.133,-353.5"/>
</g>
<!-- Node15&#45;&gt;Node5 -->
<g id="edge20" class="edge"><title>Node15&#45;&gt;Node5</title>
<path fill="none" stroke="midnightblue" d="M902.387,-327.279C905.722,-329.024 908.944,-330.926 912,-333 934.064,-347.976 926.398,-365.364 948,-381 953.273,-384.817 959.17,-388.081 965.272,-390.866"/>
<polygon fill="midnightblue" stroke="midnightblue" points="903.864,-324.106 893.326,-323.018 900.886,-330.441 903.864,-324.106"/>
</g>
<!-- Node15&#45;&gt;Node8 -->
<g id="edge21" class="edge"><title>Node15&#45;&gt;Node8</title>
<path fill="none" stroke="midnightblue" d="M891.746,-325.404C914.092,-330.824 938.529,-336.752 960.138,-341.994"/>
<polygon fill="midnightblue" stroke="midnightblue" points="892.523,-321.991 881.979,-323.035 890.872,-328.793 892.523,-321.991"/>
</g>
<!-- Node16&#45;&gt;Node5 -->
<g id="edge23" class="edge"><title>Node16&#45;&gt;Node5</title>
<path fill="none" stroke="midnightblue" d="M906.694,-279.649C908.539,-281.009 910.312,-282.458 912,-284 945.946,-315.02 915.007,-348.969 948,-381 951.989,-384.873 956.599,-388.146 961.527,-390.913"/>
<polygon fill="midnightblue" stroke="midnightblue" points="908.505,-276.652 898.19,-274.23 904.743,-282.556 908.505,-276.652"/>
</g>
<!-- Node16&#45;&gt;Node8 -->
<g id="edge24" class="edge"><title>Node16&#45;&gt;Node8</title>
<path fill="none" stroke="midnightblue" d="M895.401,-277.338C901.096,-279.374 906.688,-281.592 912,-284 946.444,-299.614 982.184,-325.427 1003.24,-341.804"/>
<polygon fill="midnightblue" stroke="midnightblue" points="896.346,-273.962 885.751,-274.083 894.108,-280.595 896.346,-273.962"/>
</g>
<!-- Node17&#45;&gt;Node5 -->
<g id="edge26" class="edge"><title>Node17&#45;&gt;Node5</title>
<path fill="none" stroke="midnightblue" d="M891.746,-437.596C914.092,-432.176 938.529,-426.248 960.138,-421.006"/>
<polygon fill="midnightblue" stroke="midnightblue" points="890.872,-434.207 881.979,-439.965 892.523,-441.009 890.872,-434.207"/>
</g>
<!-- Node17&#45;&gt;Node8 -->
<g id="edge27" class="edge"><title>Node17&#45;&gt;Node8</title>
<path fill="none" stroke="midnightblue" d="M902.387,-435.721C905.722,-433.976 908.944,-432.074 912,-430 934.064,-415.024 926.398,-397.636 948,-382 953.273,-378.183 959.17,-374.919 965.272,-372.134"/>
<polygon fill="midnightblue" stroke="midnightblue" points="900.886,-432.559 893.326,-439.982 903.864,-438.894 900.886,-432.559"/>
</g>
<!-- Node19 -->
<g id="node19" class="node"><title>Node19</title>
<g id="a_node19"><a xlink:href="classfsicouplingpar_ae855141f7b214925c25f7797b8b122a8.html#ae855141f7b214925c25f7797b8b122a8" target="_top" xlink:title="fsicouplingpar::Initialize">
<polygon fill="none" stroke="black" points="555.5,-381.5 555.5,-400.5 674.5,-400.5 674.5,-381.5 555.5,-381.5"/>
<text text-anchor="middle" x="615" y="-388.5" font-family="Helvetica,sans-Serif" font-size="10.00">fsicouplingpar::Initialize</text>
</a>
</g>
</g>
<!-- Node18&#45;&gt;Node19 -->
<g id="edge29" class="edge"><title>Node18&#45;&gt;Node19</title>
<path fill="none" stroke="midnightblue" d="M490.024,-364.681C515.408,-370.07 545.161,-376.386 569.156,-381.48"/>
<polygon fill="midnightblue" stroke="midnightblue" points="490.678,-361.242 480.169,-362.589 489.224,-368.089 490.678,-361.242"/>
</g>
<!-- Node21 -->
<g id="node21" class="node"><title>Node21</title>
<g id="a_node21"><a xlink:href="classElmerFoamFSI_1_1TestingObject_a08d0370a943e7c47c0098eb76664a71b.html#a08d0370a943e7c47c0098eb76664a71b" target="_top" xlink:title="Run an initialization check to make sure the OpenFoamFluids are running as they should. ">
<polygon fill="none" stroke="black" points="744.5,-489 744.5,-519 893.5,-519 893.5,-489 744.5,-489"/>
<text text-anchor="start" x="752.5" y="-507" font-family="Helvetica,sans-Serif" font-size="10.00">ElmerFoamFSI::TestingObject</text>
<text text-anchor="middle" x="819" y="-496" font-family="Helvetica,sans-Serif" font-size="10.00">::Test__OpenFoamFluids</text>
</a>
</g>
</g>
<!-- Node20&#45;&gt;Node21 -->
<g id="edge31" class="edge"><title>Node20&#45;&gt;Node21</title>
<path fill="none" stroke="midnightblue" d="M493.194,-326.509C566.148,-341.157 682.625,-365.359 690,-372 727.286,-405.575 689.486,-444.587 726,-479 731.3,-483.995 737.496,-488.011 744.123,-491.238"/>
<polygon fill="midnightblue" stroke="midnightblue" points="493.697,-323.041 483.205,-324.509 492.323,-329.904 493.697,-323.041"/>
</g>
<!-- Node20&#45;&gt;Node10 -->
<g id="edge34" class="edge"><title>Node20&#45;&gt;Node10</title>
<path fill="none" stroke="midnightblue" d="M506.804,-315C525.403,-315 545.064,-315 562.398,-315"/>
<polygon fill="midnightblue" stroke="midnightblue" points="506.602,-311.5 496.602,-315 506.602,-318.5 506.602,-311.5"/>
</g>
<!-- Node21&#45;&gt;Node5 -->
<g id="edge32" class="edge"><title>Node21&#45;&gt;Node5</title>
<path fill="none" stroke="midnightblue" d="M895.401,-485.662C901.096,-483.626 906.688,-481.408 912,-479 946.444,-463.386 982.184,-437.573 1003.24,-421.196"/>
<polygon fill="midnightblue" stroke="midnightblue" points="894.108,-482.405 885.751,-488.917 896.346,-489.038 894.108,-482.405"/>
</g>
<!-- Node21&#45;&gt;Node8 -->
<g id="edge33" class="edge"><title>Node21&#45;&gt;Node8</title>
<path fill="none" stroke="midnightblue" d="M902.764,-486.052C906.042,-483.951 909.144,-481.61 912,-479 945.946,-447.98 915.007,-414.031 948,-382 951.989,-378.127 956.599,-374.854 961.527,-372.087"/>
<polygon fill="midnightblue" stroke="midnightblue" points="900.767,-483.157 893.72,-491.069 904.163,-489.279 900.767,-483.157"/>
</g>
<!-- Node22&#45;&gt;Node19 -->
<g id="edge36" class="edge"><title>Node22&#45;&gt;Node19</title>
<path fill="none" stroke="midnightblue" d="M513.79,-391C527.769,-391 542.101,-391 555.396,-391"/>
<polygon fill="midnightblue" stroke="midnightblue" points="513.694,-387.5 503.694,-391 513.694,-394.5 513.694,-387.5"/>
</g>
<!-- Node24 -->
<g id="node24" class="node"><title>Node24</title>
<g id="a_node24"><a xlink:href="classElmerModuleDriver_1_1TestingObject_af1f07f14b9af7708e4264bb38937eed2.html#af1f07f14b9af7708e4264bb38937eed2" target="_top" xlink:title="Runs a test specified by name. ">
<polygon fill="none" stroke="black" points="373.5,-161 373.5,-191 494.5,-191 494.5,-161 373.5,-161"/>
<text text-anchor="start" x="381.5" y="-179" font-family="Helvetica,sans-Serif" font-size="10.00">ElmerModuleDriver::</text>
<text text-anchor="middle" x="434" y="-168" font-family="Helvetica,sans-Serif" font-size="10.00">TestingObject::RunTest</text>
</a>
</g>
</g>
<!-- Node23&#45;&gt;Node24 -->
<g id="edge38" class="edge"><title>Node23&#45;&gt;Node24</title>
<path fill="none" stroke="midnightblue" d="M337.685,-183.252C349.774,-182.332 361.939,-181.407 373.345,-180.539"/>
<polygon fill="midnightblue" stroke="midnightblue" points="337.272,-179.773 327.566,-184.022 337.803,-186.753 337.272,-179.773"/>
</g>
<!-- Node25 -->
<g id="node25" class="node"><title>Node25</title>
<g id="a_node25"><a xlink:href="classElmerModuleDriver_1_1TestingObject_a21159bd2efac623e5a5079f6a20f3444.html#a21159bd2efac623e5a5079f6a20f3444" target="_top" xlink:title="Runs a list of tests specified by name. ">
<polygon fill="none" stroke="black" points="543,-161 543,-191 687,-191 687,-161 543,-161"/>
<text text-anchor="start" x="551" y="-179" font-family="Helvetica,sans-Serif" font-size="10.00">ElmerModuleDriver::</text>
<text text-anchor="middle" x="615" y="-168" font-family="Helvetica,sans-Serif" font-size="10.00">TestingObject::ProcessTests</text>
</a>
</g>
</g>
<!-- Node24&#45;&gt;Node25 -->
<g id="edge39" class="edge"><title>Node24&#45;&gt;Node25</title>
<path fill="none" stroke="midnightblue" d="M504.92,-176C517.375,-176 530.363,-176 542.853,-176"/>
<polygon fill="midnightblue" stroke="midnightblue" points="504.604,-172.5 494.604,-176 504.604,-179.5 504.604,-172.5"/>
</g>
<!-- Node26 -->
<g id="node26" class="node"><title>Node26</title>
<g id="a_node26"><a xlink:href="namespaceElmerModuleDriver_a657930328d3dc159ded2e9fd6473b2b6.html#a657930328d3dc159ded2e9fd6473b2b6" target="_top" xlink:title="Drives the ElmerModuleDriver::TestObject. ">
<polygon fill="none" stroke="black" points="552.5,-117.5 552.5,-136.5 677.5,-136.5 677.5,-117.5 552.5,-117.5"/>
<text text-anchor="middle" x="615" y="-124.5" font-family="Helvetica,sans-Serif" font-size="10.00">ElmerModuleDriver::Test</text>
</a>
</g>
</g>
<!-- Node24&#45;&gt;Node26 -->
<g id="edge40" class="edge"><title>Node24&#45;&gt;Node26</title>
<path fill="none" stroke="midnightblue" d="M499.89,-158.237C526.729,-150.89 556.77,-142.666 579.289,-136.502"/>
<polygon fill="midnightblue" stroke="midnightblue" points="498.888,-154.882 490.166,-160.899 500.736,-161.634 498.888,-154.882"/>
</g>
<!-- Node27 -->
<g id="node27" class="node"><title>Node27</title>
<g id="a_node27"><a xlink:href="TestElmerModuleDriver_8C_a0ddf1224851353fc92bfbff6f499fa97.html#a0ddf1224851353fc92bfbff6f499fa97" target="_top" xlink:title="main">
<polygon fill="none" stroke="black" points="800,-58.5 800,-77.5 838,-77.5 838,-58.5 800,-58.5"/>
<text text-anchor="middle" x="819" y="-65.5" font-family="Helvetica,sans-Serif" font-size="10.00">main</text>
</a>
</g>
</g>
<!-- Node26&#45;&gt;Node27 -->
<g id="edge41" class="edge"><title>Node26&#45;&gt;Node27</title>
<path fill="none" stroke="midnightblue" d="M648.669,-113.706C670.339,-105.241 699.552,-94.497 726,-87 751.263,-79.839 781.138,-74.1703 799.832,-70.9491"/>
<polygon fill="midnightblue" stroke="midnightblue" points="647.294,-110.486 639.28,-117.415 649.866,-116.996 647.294,-110.486"/>
</g>
<!-- Node28&#45;&gt;Node5 -->
<g id="edge43" class="edge"><title>Node28&#45;&gt;Node5</title>
<path fill="none" stroke="midnightblue" d="M902.631,-177.85C906.026,-180.234 909.18,-182.937 912,-186 971.686,-250.843 890.301,-314.382 948,-381 951.374,-384.895 955.376,-388.185 959.747,-390.963"/>
<polygon fill="midnightblue" stroke="midnightblue" points="904.13,-174.669 893.747,-172.56 900.548,-180.684 904.13,-174.669"/>
</g>
<!-- Node28&#45;&gt;Node8 -->
<g id="edge44" class="edge"><title>Node28&#45;&gt;Node8</title>
<path fill="none" stroke="midnightblue" d="M902.867,-180.168C906.048,-181.943 909.108,-183.882 912,-186 968.81,-227.617 1003.88,-308.219 1016.59,-341.77"/>
<polygon fill="midnightblue" stroke="midnightblue" points="904.142,-176.894 893.627,-175.59 901.034,-183.166 904.142,-176.894"/>
</g>
<!-- Node29&#45;&gt;Node5 -->
<g id="edge46" class="edge"><title>Node29&#45;&gt;Node5</title>
<path fill="none" stroke="midnightblue" d="M902.867,-582.832C906.048,-581.057 909.108,-579.118 912,-577 968.81,-535.383 1003.88,-454.781 1016.59,-421.23"/>
<polygon fill="midnightblue" stroke="midnightblue" points="901.034,-579.834 893.627,-587.41 904.142,-586.106 901.034,-579.834"/>
</g>
<!-- Node29&#45;&gt;Node8 -->
<g id="edge47" class="edge"><title>Node29&#45;&gt;Node8</title>
<path fill="none" stroke="midnightblue" d="M902.631,-585.15C906.026,-582.766 909.18,-580.063 912,-577 971.686,-512.157 890.301,-448.618 948,-382 951.374,-378.105 955.376,-374.815 959.747,-372.037"/>
<polygon fill="midnightblue" stroke="midnightblue" points="900.548,-582.316 893.747,-590.44 904.13,-588.331 900.548,-582.316"/>
</g>
<!-- Node31 -->
<g id="node31" class="node"><title>Node31</title>
<g id="a_node31"><a xlink:href="classElmerModuleDriver_1_1TestingObject_a046f7ab06db0acf616b0d2bf3d3146aa.html#a046f7ab06db0acf616b0d2bf3d3146aa" target="_top" xlink:title="Process all tests and populate a &quot;results&quot; object. ">
<polygon fill="none" stroke="black" points="374.5,-112 374.5,-142 493.5,-142 493.5,-112 374.5,-112"/>
<text text-anchor="start" x="382.5" y="-130" font-family="Helvetica,sans-Serif" font-size="10.00">ElmerModuleDriver::</text>
<text text-anchor="middle" x="434" y="-119" font-family="Helvetica,sans-Serif" font-size="10.00">TestingObject::Process</text>
</a>
</g>
</g>
<!-- Node30&#45;&gt;Node31 -->
<g id="edge49" class="edge"><title>Node30&#45;&gt;Node31</title>
<path fill="none" stroke="midnightblue" d="M311.371,-128.983C331.781,-128.65 354.37,-128.282 374.485,-127.954"/>
<polygon fill="midnightblue" stroke="midnightblue" points="311.176,-125.486 301.235,-129.148 311.291,-132.485 311.176,-125.486"/>
</g>
<!-- Node30&#45;&gt;Node24 -->
<g id="edge51" class="edge"><title>Node30&#45;&gt;Node24</title>
<path fill="none" stroke="midnightblue" d="M310.951,-145.488C331.139,-150.535 353.495,-156.124 373.499,-161.125"/>
<polygon fill="midnightblue" stroke="midnightblue" points="311.785,-142.089 301.235,-143.059 310.087,-148.88 311.785,-142.089"/>
</g>
<!-- Node31&#45;&gt;Node26 -->
<g id="edge50" class="edge"><title>Node31&#45;&gt;Node26</title>
<path fill="none" stroke="midnightblue" d="M503.959,-127C519.942,-127 536.849,-127 552.488,-127"/>
<polygon fill="midnightblue" stroke="midnightblue" points="503.611,-123.5 493.611,-127 503.611,-130.5 503.611,-123.5"/>
</g>
<!-- Node33 -->
<g id="node33" class="node"><title>Node33</title>
<g id="a_node33"><a xlink:href="classOpenFoamModuleDriver_1_1TestingObject_a046f7ab06db0acf616b0d2bf3d3146aa.html#a046f7ab06db0acf616b0d2bf3d3146aa" target="_top" xlink:title="Process all tests and populate a &quot;results&quot; object. ">
<polygon fill="none" stroke="black" points="371.5,-9 371.5,-39 496.5,-39 496.5,-9 371.5,-9"/>
<text text-anchor="start" x="379.5" y="-27" font-family="Helvetica,sans-Serif" font-size="10.00">OpenFoamModuleDriver</text>
<text text-anchor="middle" x="434" y="-16" font-family="Helvetica,sans-Serif" font-size="10.00">::TestingObject::Process</text>
</a>
</g>
</g>
<!-- Node32&#45;&gt;Node33 -->
<g id="edge53" class="edge"><title>Node32&#45;&gt;Node33</title>
<path fill="none" stroke="midnightblue" d="M318.985,-52.5038C336.759,-48.0602 355.698,-43.3255 372.931,-39.0174"/>
<polygon fill="midnightblue" stroke="midnightblue" points="318.101,-49.1169 309.248,-54.9379 319.799,-55.9079 318.101,-49.1169"/>
</g>
<!-- Node36 -->
<g id="node36" class="node"><title>Node36</title>
<g id="a_node36"><a xlink:href="classOpenFoamModuleDriver_1_1TestingObject_af1f07f14b9af7708e4264bb38937eed2.html#af1f07f14b9af7708e4264bb38937eed2" target="_top" xlink:title="Runs a test specified by name. ">
<polygon fill="none" stroke="black" points="370.5,-58 370.5,-88 497.5,-88 497.5,-58 370.5,-58"/>
<text text-anchor="start" x="378.5" y="-76" font-family="Helvetica,sans-Serif" font-size="10.00">OpenFoamModuleDriver</text>
<text text-anchor="middle" x="434" y="-65" font-family="Helvetica,sans-Serif" font-size="10.00">::TestingObject::RunTest</text>
</a>
</g>
</g>
<!-- Node32&#45;&gt;Node36 -->
<g id="edge56" class="edge"><title>Node32&#45;&gt;Node36</title>
<path fill="none" stroke="midnightblue" d="M319.527,-71.1499C336.278,-71.423 354.036,-71.7125 370.405,-71.9794"/>
<polygon fill="midnightblue" stroke="midnightblue" points="319.304,-67.6459 309.248,-70.9823 319.19,-74.645 319.304,-67.6459"/>
</g>
<!-- Node34 -->
<g id="node34" class="node"><title>Node34</title>
<g id="a_node34"><a xlink:href="namespaceOpenFoamModuleDriver_a98bd69551725493def1a31bfe72b0781.html#a98bd69551725493def1a31bfe72b0781" target="_top" xlink:title="Drives the OpenFoamModuleDriver::TestObject. ">
<polygon fill="none" stroke="black" points="554,-9 554,-39 676,-39 676,-9 554,-9"/>
<text text-anchor="start" x="562" y="-27" font-family="Helvetica,sans-Serif" font-size="10.00">OpenFoamModuleDriver</text>
<text text-anchor="middle" x="615" y="-16" font-family="Helvetica,sans-Serif" font-size="10.00">::Test</text>
</a>
</g>
</g>
<!-- Node33&#45;&gt;Node34 -->
<g id="edge54" class="edge"><title>Node33&#45;&gt;Node34</title>
<path fill="none" stroke="midnightblue" d="M506.728,-24C522.335,-24 538.692,-24 553.798,-24"/>
<polygon fill="midnightblue" stroke="midnightblue" points="506.602,-20.5001 496.602,-24 506.602,-27.5001 506.602,-20.5001"/>
</g>
<!-- Node35 -->
<g id="node35" class="node"><title>Node35</title>
<g id="a_node35"><a xlink:href="TestOpenFoamModuleDriver_8C_a0ddf1224851353fc92bfbff6f499fa97.html#a0ddf1224851353fc92bfbff6f499fa97" target="_top" xlink:title="main">
<polygon fill="none" stroke="black" points="800,-14.5 800,-33.5 838,-33.5 838,-14.5 800,-14.5"/>
<text text-anchor="middle" x="819" y="-21.5" font-family="Helvetica,sans-Serif" font-size="10.00">main</text>
</a>
</g>
</g>
<!-- Node34&#45;&gt;Node35 -->
<g id="edge55" class="edge"><title>Node34&#45;&gt;Node35</title>
<path fill="none" stroke="midnightblue" d="M686.175,-24C726.651,-24 774.431,-24 799.888,-24"/>
<polygon fill="midnightblue" stroke="midnightblue" points="686.06,-20.5001 676.06,-24 686.06,-27.5001 686.06,-20.5001"/>
</g>
<!-- Node37 -->
<g id="node37" class="node"><title>Node37</title>
<g id="a_node37"><a xlink:href="classOpenFoamModuleDriver_1_1TestingObject_a21159bd2efac623e5a5079f6a20f3444.html#a21159bd2efac623e5a5079f6a20f3444" target="_top" xlink:title="Runs a list of tests specified by name. ">
<polygon fill="none" stroke="black" points="540,-58 540,-88 690,-88 690,-58 540,-58"/>
<text text-anchor="start" x="548" y="-76" font-family="Helvetica,sans-Serif" font-size="10.00">OpenFoamModuleDriver</text>
<text text-anchor="middle" x="615" y="-65" font-family="Helvetica,sans-Serif" font-size="10.00">::TestingObject::ProcessTests</text>
</a>
</g>
</g>
<!-- Node36&#45;&gt;Node37 -->
<g id="edge57" class="edge"><title>Node36&#45;&gt;Node37</title>
<path fill="none" stroke="midnightblue" d="M507.635,-73C518.221,-73 529.134,-73 539.752,-73"/>
<polygon fill="midnightblue" stroke="midnightblue" points="507.606,-69.5001 497.606,-73 507.605,-76.5001 507.606,-69.5001"/>
</g>
<!-- Node36&#45;&gt;Node34 -->
<g id="edge58" class="edge"><title>Node36&#45;&gt;Node34</title>
<path fill="none" stroke="midnightblue" d="M499.836,-55.2515C519.236,-49.9409 540.313,-44.1712 559.016,-39.0516"/>
<polygon fill="midnightblue" stroke="midnightblue" points="498.888,-51.8824 490.166,-57.8986 500.736,-58.634 498.888,-51.8824"/>
</g>
<!-- Node38&#45;&gt;Node5 -->
<g id="edge60" class="edge"><title>Node38&#45;&gt;Node5</title>
<path fill="none" stroke="midnightblue" d="M900.785,-534.03C904.668,-532.199 908.431,-530.194 912,-528 957.675,-499.921 995.588,-447.288 1012.51,-421.307"/>
<polygon fill="midnightblue" stroke="midnightblue" points="899.351,-530.837 891.54,-537.996 902.11,-537.27 899.351,-530.837"/>
</g>
<!-- Node38&#45;&gt;Node8 -->
<g id="edge61" class="edge"><title>Node38&#45;&gt;Node8</title>
<path fill="none" stroke="midnightblue" d="M902.637,-535.791C906.005,-533.499 909.154,-530.914 912,-528 958.697,-480.189 902.769,-431.201 948,-382 951.579,-378.107 955.785,-374.819 960.344,-372.044"/>
<polygon fill="midnightblue" stroke="midnightblue" points="900.741,-532.845 893.865,-540.905 904.267,-538.892 900.741,-532.845"/>
</g>
</g>
</svg>
