<?xml version="1.0" encoding="UTF-8" standalone="no"?>
<!DOCTYPE svg PUBLIC "-//W3C//DTD SVG 1.1//EN"
 "http://www.w3.org/Graphics/SVG/1.1/DTD/svg11.dtd">
<!-- Generated by graphviz version 2.30.1 (20150305.2338)
 -->
<!-- Title: COM_get_modules Pages: 1 -->
<svg width="438pt" height="77pt"
 viewBox="0.00 0.00 438.00 77.00" xmlns="http://www.w3.org/2000/svg" xmlns:xlink="http://www.w3.org/1999/xlink">
<g id="graph0" class="graph" transform="scale(1 1) rotate(0) translate(4 73)">
<title>COM_get_modules</title>
<!-- Node1 -->
<g id="node1" class="node"><title>Node1</title>
<polygon fill="#bfbfbf" stroke="black" points="0.5,-27.5 0.5,-46.5 101.5,-46.5 101.5,-27.5 0.5,-27.5"/>
<text text-anchor="middle" x="51" y="-34.5" font-family="Helvetica,sans-Serif" font-size="10.00">COM_get_modules</text>
</g>
<!-- Node2 -->
<g id="node2" class="node"><title>Node2</title>
<g id="a_node2"><a xlink:href="COM__base_8hpp_a49353596e53127db61529b5c9000549d.html#a49353596e53127db61529b5c9000549d" target="_top" xlink:title="COM_get_com">
<polygon fill="none" stroke="black" points="154.5,-49.5 154.5,-68.5 237.5,-68.5 237.5,-49.5 154.5,-49.5"/>
<text text-anchor="middle" x="196" y="-56.5" font-family="Helvetica,sans-Serif" font-size="10.00">COM_get_com</text>
</a>
</g>
</g>
<!-- Node1&#45;&gt;Node2 -->
<g id="edge1" class="edge"><title>Node1&#45;&gt;Node2</title>
<path fill="none" stroke="midnightblue" d="M101.613,-44.6328C115.504,-46.7699 130.615,-49.0947 144.554,-51.2391"/>
<polygon fill="midnightblue" stroke="midnightblue" points="144.047,-54.7021 154.463,-52.7635 145.111,-47.7835 144.047,-54.7021"/>
</g>
<!-- Node4 -->
<g id="node4" class="node"><title>Node4</title>
<g id="a_node4"><a xlink:href="classCOM_1_1COM__base_a0b372fd82aabe836abe64587448a0de6.html#a0b372fd82aabe836abe64587448a0de6" target="_top" xlink:title="Obtain a list of all module names. ">
<polygon fill="none" stroke="black" points="138.5,-0 138.5,-30 253.5,-30 253.5,-0 138.5,-0"/>
<text text-anchor="start" x="146.5" y="-18" font-family="Helvetica,sans-Serif" font-size="10.00">COM::COM_base::get</text>
<text text-anchor="middle" x="196" y="-7" font-family="Helvetica,sans-Serif" font-size="10.00">_modules</text>
</a>
</g>
</g>
<!-- Node1&#45;&gt;Node4 -->
<g id="edge3" class="edge"><title>Node1&#45;&gt;Node4</title>
<path fill="none" stroke="midnightblue" d="M101.613,-29.3672C110.17,-28.0507 119.19,-26.6631 128.114,-25.2902"/>
<polygon fill="midnightblue" stroke="midnightblue" points="128.767,-28.731 138.118,-23.751 127.702,-21.8124 128.767,-28.731"/>
</g>
<!-- Node3 -->
<g id="node3" class="node"><title>Node3</title>
<g id="a_node3"><a xlink:href="classCOM_1_1COM__base_a77bb770b9ec1aac99361c45efbccabc1.html#a77bb770b9ec1aac99361c45efbccabc1" target="_top" xlink:title="Get a pointer to the COM object. ">
<polygon fill="none" stroke="black" points="290.5,-49.5 290.5,-68.5 429.5,-68.5 429.5,-49.5 290.5,-49.5"/>
<text text-anchor="middle" x="360" y="-56.5" font-family="Helvetica,sans-Serif" font-size="10.00">COM::COM_base::get_com</text>
</a>
</g>
</g>
<!-- Node2&#45;&gt;Node3 -->
<g id="edge2" class="edge"><title>Node2&#45;&gt;Node3</title>
<path fill="none" stroke="midnightblue" d="M237.879,-59C250.826,-59 265.603,-59 280.279,-59"/>
<polygon fill="midnightblue" stroke="midnightblue" points="280.4,-62.5001 290.4,-59 280.4,-55.5001 280.4,-62.5001"/>
</g>
</g>
</svg>
