<?xml version="1.0" encoding="UTF-8" standalone="no"?>
<!DOCTYPE svg PUBLIC "-//W3C//DTD SVG 1.1//EN"
 "http://www.w3.org/Graphics/SVG/1.1/DTD/svg11.dtd">
<!-- Generated by graphviz version 2.30.1 (20150305.2338)
 -->
<!-- Title: COM_get_dataitems Pages: 1 -->
<svg width="1994pt" height="403pt"
 viewBox="0.00 0.00 1994.00 403.00" xmlns="http://www.w3.org/2000/svg" xmlns:xlink="http://www.w3.org/1999/xlink">
<g id="graph0" class="graph" transform="scale(1 1) rotate(0) translate(4 399)">
<title>COM_get_dataitems</title>
<!-- Node1 -->
<g id="node1" class="node"><title>Node1</title>
<polygon fill="#bfbfbf" stroke="black" points="0.5,-97.5 0.5,-116.5 107.5,-116.5 107.5,-97.5 0.5,-97.5"/>
<text text-anchor="middle" x="54" y="-104.5" font-family="Helvetica,sans-Serif" font-size="10.00">COM_get_dataitems</text>
</g>
<!-- Node2 -->
<g id="node2" class="node"><title>Node2</title>
<g id="a_node2"><a xlink:href="namespaceSolverUtils_a8a5727f4056aa951041899bcaa014800.html#a8a5727f4056aa951041899bcaa014800" target="_top" xlink:title="SolverUtils::GetDataItem\lNames">
<polygon fill="none" stroke="black" points="148.5,-155 148.5,-185 275.5,-185 275.5,-155 148.5,-155"/>
<text text-anchor="start" x="156.5" y="-173" font-family="Helvetica,sans-Serif" font-size="10.00">SolverUtils::GetDataItem</text>
<text text-anchor="middle" x="212" y="-162" font-family="Helvetica,sans-Serif" font-size="10.00">Names</text>
</a>
</g>
</g>
<!-- Node1&#45;&gt;Node2 -->
<g id="edge1" class="edge"><title>Node1&#45;&gt;Node2</title>
<path fill="none" stroke="midnightblue" d="M86.2719,-120.772C103.267,-128.15 124.7,-137.284 144,-145 152.3,-148.318 161.231,-151.748 169.782,-154.963"/>
<polygon fill="midnightblue" stroke="midnightblue" points="87.393,-117.443 76.8275,-116.654 84.5954,-123.859 87.393,-117.443"/>
</g>
<!-- Node27 -->
<g id="node27" class="node"><title>Node27</title>
<g id="a_node27"><a xlink:href="OFModuleDriver_8C_a0ddf1224851353fc92bfbff6f499fa97.html#a0ddf1224851353fc92bfbff6f499fa97" target="_top" xlink:title="main">
<polygon fill="none" stroke="black" points="193,-116.5 193,-135.5 231,-135.5 231,-116.5 193,-116.5"/>
<text text-anchor="middle" x="212" y="-123.5" font-family="Helvetica,sans-Serif" font-size="10.00">main</text>
</a>
</g>
</g>
<!-- Node1&#45;&gt;Node27 -->
<g id="edge41" class="edge"><title>Node1&#45;&gt;Node27</title>
<path fill="none" stroke="midnightblue" d="M118.027,-114.676C145.066,-117.97 174.599,-121.567 192.962,-123.803"/>
<polygon fill="midnightblue" stroke="midnightblue" points="118.164,-111.167 107.814,-113.433 117.318,-118.116 118.164,-111.167"/>
</g>
<!-- Node28 -->
<g id="node28" class="node"><title>Node28</title>
<g id="a_node28"><a xlink:href="namespaceCOM_ac3c87a84f9357bebe23933f58fa16aef.html#ac3c87a84f9357bebe23933f58fa16aef" target="_top" xlink:title="COM::parallelProgram">
<polygon fill="none" stroke="black" points="155.5,-78.5 155.5,-97.5 268.5,-97.5 268.5,-78.5 155.5,-78.5"/>
<text text-anchor="middle" x="212" y="-85.5" font-family="Helvetica,sans-Serif" font-size="10.00">COM::parallelProgram</text>
</a>
</g>
</g>
<!-- Node1&#45;&gt;Node28 -->
<g id="edge42" class="edge"><title>Node1&#45;&gt;Node28</title>
<path fill="none" stroke="midnightblue" d="M118.029,-99.3234C130.368,-97.8205 143.227,-96.2544 155.307,-94.7832"/>
<polygon fill="midnightblue" stroke="midnightblue" points="117.318,-95.884 107.814,-100.567 118.164,-102.833 117.318,-95.884"/>
</g>
<!-- Node29 -->
<g id="node29" class="node"><title>Node29</title>
<g id="a_node29"><a xlink:href="classOpenFoamModuleDriver_1_1TestingObject_a8e6b96ff06b7c7dce865d4f5518b535e.html#a8e6b96ff06b7c7dce865d4f5518b535e" target="_top" xlink:title="OpenFoamModuleDriver\l::TestingObject::Test\l__ModuleMeshRegistration">
<polygon fill="none" stroke="black" points="144.5,-18.5 144.5,-59.5 279.5,-59.5 279.5,-18.5 144.5,-18.5"/>
<text text-anchor="start" x="152.5" y="-47.5" font-family="Helvetica,sans-Serif" font-size="10.00">OpenFoamModuleDriver</text>
<text text-anchor="start" x="152.5" y="-36.5" font-family="Helvetica,sans-Serif" font-size="10.00">::TestingObject::Test</text>
<text text-anchor="middle" x="212" y="-25.5" font-family="Helvetica,sans-Serif" font-size="10.00">__ModuleMeshRegistration</text>
</a>
</g>
</g>
<!-- Node1&#45;&gt;Node29 -->
<g id="edge43" class="edge"><title>Node1&#45;&gt;Node29</title>
<path fill="none" stroke="midnightblue" d="M86.3003,-93.3563C108.479,-83.6886 138.631,-70.5456 163.729,-59.6052"/>
<polygon fill="midnightblue" stroke="midnightblue" points="84.7885,-90.1971 77.0201,-97.4015 87.5857,-96.614 84.7885,-90.1971"/>
</g>
<!-- Node3 -->
<g id="node3" class="node"><title>Node3</title>
<g id="a_node3"><a xlink:href="namespaceSolverUtils_a8a3863d0da9bcf306cedc7caf1c069ca.html#a8a3863d0da9bcf306cedc7caf1c069ca" target="_top" xlink:title="SolverUtils::PopulateSolution\lMetaDataFromPane">
<polygon fill="none" stroke="black" points="316,-155 316,-185 460,-185 460,-155 316,-155"/>
<text text-anchor="start" x="324" y="-173" font-family="Helvetica,sans-Serif" font-size="10.00">SolverUtils::PopulateSolution</text>
<text text-anchor="middle" x="388" y="-162" font-family="Helvetica,sans-Serif" font-size="10.00">MetaDataFromPane</text>
</a>
</g>
</g>
<!-- Node2&#45;&gt;Node3 -->
<g id="edge2" class="edge"><title>Node2&#45;&gt;Node3</title>
<path fill="none" stroke="midnightblue" d="M285.964,-170C295.807,-170 305.896,-170 315.71,-170"/>
<polygon fill="midnightblue" stroke="midnightblue" points="285.818,-166.5 275.818,-170 285.818,-173.5 285.818,-166.5"/>
</g>
<!-- Node4 -->
<g id="node4" class="node"><title>Node4</title>
<g id="a_node4"><a xlink:href="namespaceSolverUtils_a29210d58c0891b69a17bc8281ecc92cc.html#a29210d58c0891b69a17bc8281ecc92cc" target="_top" xlink:title="SolverUtils::CreateSolution\lFromPane">
<polygon fill="none" stroke="black" points="503.5,-155 503.5,-185 638.5,-185 638.5,-155 503.5,-155"/>
<text text-anchor="start" x="511.5" y="-173" font-family="Helvetica,sans-Serif" font-size="10.00">SolverUtils::CreateSolution</text>
<text text-anchor="middle" x="571" y="-162" font-family="Helvetica,sans-Serif" font-size="10.00">FromPane</text>
</a>
</g>
</g>
<!-- Node3&#45;&gt;Node4 -->
<g id="edge3" class="edge"><title>Node3&#45;&gt;Node4</title>
<path fill="none" stroke="midnightblue" d="M470.136,-170C481.235,-170 492.524,-170 503.325,-170"/>
<polygon fill="midnightblue" stroke="midnightblue" points="470.017,-166.5 460.016,-170 470.016,-173.5 470.017,-166.5"/>
</g>
<!-- Node5 -->
<g id="node5" class="node"><title>Node5</title>
<g id="a_node5"><a xlink:href="namespaceSolverUtils_aba6560399de412c7861129dc7c4a260e.html#aba6560399de412c7861129dc7c4a260e" target="_top" xlink:title="SolverUtils::PaneToAgent">
<polygon fill="none" stroke="black" points="682,-160.5 682,-179.5 812,-179.5 812,-160.5 682,-160.5"/>
<text text-anchor="middle" x="747" y="-167.5" font-family="Helvetica,sans-Serif" font-size="10.00">SolverUtils::PaneToAgent</text>
</a>
</g>
</g>
<!-- Node4&#45;&gt;Node5 -->
<g id="edge4" class="edge"><title>Node4&#45;&gt;Node5</title>
<path fill="none" stroke="midnightblue" d="M648.853,-170C659.916,-170 671.202,-170 681.981,-170"/>
<polygon fill="midnightblue" stroke="midnightblue" points="648.775,-166.5 638.775,-170 648.775,-173.5 648.775,-166.5"/>
</g>
<!-- Node6 -->
<g id="node6" class="node"><title>Node6</title>
<g id="a_node6"><a xlink:href="namespaceSolverUtils_a9da67f474f0ef835bb9707e6598de2bd.html#a9da67f474f0ef835bb9707e6598de2bd" target="_top" xlink:title="SolverUtils::PopulateSolver\lAgentFromWindow">
<polygon fill="none" stroke="black" points="848.5,-155 848.5,-185 985.5,-185 985.5,-155 848.5,-155"/>
<text text-anchor="start" x="856.5" y="-173" font-family="Helvetica,sans-Serif" font-size="10.00">SolverUtils::PopulateSolver</text>
<text text-anchor="middle" x="917" y="-162" font-family="Helvetica,sans-Serif" font-size="10.00">AgentFromWindow</text>
</a>
</g>
</g>
<!-- Node5&#45;&gt;Node6 -->
<g id="edge5" class="edge"><title>Node5&#45;&gt;Node6</title>
<path fill="none" stroke="midnightblue" d="M822.494,-170C831.103,-170 839.846,-170 848.356,-170"/>
<polygon fill="midnightblue" stroke="midnightblue" points="822.473,-166.5 812.473,-170 822.473,-173.5 822.473,-166.5"/>
</g>
<!-- Node7 -->
<g id="node7" class="node"><title>Node7</title>
<g id="a_node7"><a xlink:href="classelmeragent_a66d8ac5294227a11adf08cdfa91f59b5.html#a66d8ac5294227a11adf08cdfa91f59b5" target="_top" xlink:title="elmeragent::Initialize">
<polygon fill="none" stroke="black" points="1038.5,-179.5 1038.5,-198.5 1145.5,-198.5 1145.5,-179.5 1038.5,-179.5"/>
<text text-anchor="middle" x="1092" y="-186.5" font-family="Helvetica,sans-Serif" font-size="10.00">elmeragent::Initialize</text>
</a>
</g>
</g>
<!-- Node6&#45;&gt;Node7 -->
<g id="edge6" class="edge"><title>Node6&#45;&gt;Node7</title>
<path fill="none" stroke="midnightblue" d="M996.182,-178.586C1010.44,-180.152 1025,-181.751 1038.29,-183.211"/>
<polygon fill="midnightblue" stroke="midnightblue" points="996.2,-175.067 985.878,-177.455 995.436,-182.026 996.2,-175.067"/>
</g>
<!-- Node22 -->
<g id="node22" class="node"><title>Node22</title>
<g id="a_node22"><a xlink:href="classelmeragentpar_a66d8ac5294227a11adf08cdfa91f59b5.html#a66d8ac5294227a11adf08cdfa91f59b5" target="_top" xlink:title="elmeragentpar::Initialize">
<polygon fill="none" stroke="black" points="1032,-141.5 1032,-160.5 1152,-160.5 1152,-141.5 1032,-141.5"/>
<text text-anchor="middle" x="1092" y="-148.5" font-family="Helvetica,sans-Serif" font-size="10.00">elmeragentpar::Initialize</text>
</a>
</g>
</g>
<!-- Node6&#45;&gt;Node22 -->
<g id="edge32" class="edge"><title>Node6&#45;&gt;Node22</title>
<path fill="none" stroke="midnightblue" d="M995.911,-161.443C1007.94,-160.122 1020.2,-158.776 1031.74,-157.509"/>
<polygon fill="midnightblue" stroke="midnightblue" points="995.436,-157.974 985.878,-162.545 996.2,-164.933 995.436,-157.974"/>
</g>
<!-- Node24 -->
<g id="node24" class="node"><title>Node24</title>
<g id="a_node24"><a xlink:href="classopenfoamagent_a9a8261713154978fa009d8cb2c533055.html#a9a8261713154978fa009d8cb2c533055" target="_top" xlink:title="openfoamagent::Initialize">
<polygon fill="none" stroke="black" points="1029.5,-217.5 1029.5,-236.5 1154.5,-236.5 1154.5,-217.5 1029.5,-217.5"/>
<text text-anchor="middle" x="1092" y="-224.5" font-family="Helvetica,sans-Serif" font-size="10.00">openfoamagent::Initialize</text>
</a>
</g>
</g>
<!-- Node6&#45;&gt;Node24 -->
<g id="edge34" class="edge"><title>Node6&#45;&gt;Node24</title>
<path fill="none" stroke="midnightblue" d="M966.181,-188.534C983.654,-195.008 1003.62,-202.121 1022,-208 1032.41,-211.33 1043.82,-214.616 1054.31,-217.495"/>
<polygon fill="midnightblue" stroke="midnightblue" points="967.348,-185.233 956.755,-185.014 964.899,-191.791 967.348,-185.233"/>
</g>
<!-- Node26 -->
<g id="node26" class="node"><title>Node26</title>
<g id="a_node26"><a xlink:href="classopenfoamagentpar_a9a8261713154978fa009d8cb2c533055.html#a9a8261713154978fa009d8cb2c533055" target="_top" xlink:title="openfoamagentpar::Initialize">
<polygon fill="none" stroke="black" points="1022.5,-103.5 1022.5,-122.5 1161.5,-122.5 1161.5,-103.5 1022.5,-103.5"/>
<text text-anchor="middle" x="1092" y="-110.5" font-family="Helvetica,sans-Serif" font-size="10.00">openfoamagentpar::Initialize</text>
</a>
</g>
</g>
<!-- Node6&#45;&gt;Node26 -->
<g id="edge39" class="edge"><title>Node6&#45;&gt;Node26</title>
<path fill="none" stroke="midnightblue" d="M966.181,-151.466C983.654,-144.992 1003.62,-137.879 1022,-132 1032.41,-128.67 1043.82,-125.384 1054.31,-122.505"/>
<polygon fill="midnightblue" stroke="midnightblue" points="964.899,-148.209 956.755,-154.986 967.348,-154.767 964.899,-148.209"/>
</g>
<!-- Node8 -->
<g id="node8" class="node"><title>Node8</title>
<g id="a_node8"><a xlink:href="classElmerFoamFSI_1_1TestingObject_af35b4f0c5c244be91e637c17b3ebabd9.html#af35b4f0c5c244be91e637c17b3ebabd9" target="_top" xlink:title="Run an initialization check to make sure that the ElmerStructures are running as they should...">
<polygon fill="none" stroke="black" points="1372.5,-22 1372.5,-52 1521.5,-52 1521.5,-22 1372.5,-22"/>
<text text-anchor="start" x="1380.5" y="-40" font-family="Helvetica,sans-Serif" font-size="10.00">ElmerFoamFSI::TestingObject</text>
<text text-anchor="middle" x="1447" y="-29" font-family="Helvetica,sans-Serif" font-size="10.00">::Test__ElmerStructures</text>
</a>
</g>
</g>
<!-- Node7&#45;&gt;Node8 -->
<g id="edge7" class="edge"><title>Node7&#45;&gt;Node8</title>
<path fill="none" stroke="midnightblue" d="M1155.91,-186.886C1204.81,-182.232 1271.88,-168.901 1318,-132 1345.63,-109.896 1326.45,-83.2015 1354,-61 1359.53,-56.546 1365.79,-52.9111 1372.39,-49.9458"/>
<polygon fill="midnightblue" stroke="midnightblue" points="1155.42,-183.415 1145.76,-187.753 1156.02,-190.389 1155.42,-183.415"/>
</g>
<!-- Node14 -->
<g id="node14" class="node"><title>Node14</title>
<g id="a_node14"><a xlink:href="classfsicoupling_ae855141f7b214925c25f7797b8b122a8.html#ae855141f7b214925c25f7797b8b122a8" target="_top" xlink:title="fsicoupling::Initialize">
<polygon fill="none" stroke="black" points="1205.5,-198.5 1205.5,-217.5 1310.5,-217.5 1310.5,-198.5 1205.5,-198.5"/>
<text text-anchor="middle" x="1258" y="-205.5" font-family="Helvetica,sans-Serif" font-size="10.00">fsicoupling::Initialize</text>
</a>
</g>
</g>
<!-- Node7&#45;&gt;Node14 -->
<g id="edge14" class="edge"><title>Node7&#45;&gt;Node14</title>
<path fill="none" stroke="midnightblue" d="M1155.83,-196.279C1172.22,-198.178 1189.69,-200.202 1205.43,-202.025"/>
<polygon fill="midnightblue" stroke="midnightblue" points="1156.13,-192.79 1145.79,-195.116 1155.32,-199.744 1156.13,-192.79"/>
</g>
<!-- Node9 -->
<g id="node9" class="node"><title>Node9</title>
<g id="a_node9"><a xlink:href="classElmerFoamFSI_1_1TestingObject_a046f7ab06db0acf616b0d2bf3d3146aa.html#a046f7ab06db0acf616b0d2bf3d3146aa" target="_top" xlink:title="Runs all tests implemented by the ElmerFoamFSI::TestingObject. ">
<polygon fill="none" stroke="black" points="1576.5,-193 1576.5,-223 1725.5,-223 1725.5,-193 1576.5,-193"/>
<text text-anchor="start" x="1584.5" y="-211" font-family="Helvetica,sans-Serif" font-size="10.00">ElmerFoamFSI::TestingObject</text>
<text text-anchor="middle" x="1651" y="-200" font-family="Helvetica,sans-Serif" font-size="10.00">::Process</text>
</a>
</g>
</g>
<!-- Node8&#45;&gt;Node9 -->
<g id="edge8" class="edge"><title>Node8&#45;&gt;Node9</title>
<path fill="none" stroke="midnightblue" d="M1530.46,-53.4498C1533.88,-55.6687 1537.08,-58.1736 1540,-61 1580.6,-100.336 1536.81,-142.256 1576,-183 1579.76,-186.909 1584.15,-190.207 1588.89,-192.99"/>
<polygon fill="midnightblue" stroke="midnightblue" points="1532.04,-50.3202 1521.6,-48.5028 1528.62,-56.4326 1532.04,-50.3202"/>
</g>
<!-- Node12 -->
<g id="node12" class="node"><title>Node12</title>
<g id="a_node12"><a xlink:href="classElmerFoamFSI_1_1TestingObject_af1f07f14b9af7708e4264bb38937eed2.html#af1f07f14b9af7708e4264bb38937eed2" target="_top" xlink:title="Runs a test specified by name. ">
<polygon fill="none" stroke="black" points="1576.5,-144 1576.5,-174 1725.5,-174 1725.5,-144 1576.5,-144"/>
<text text-anchor="start" x="1584.5" y="-162" font-family="Helvetica,sans-Serif" font-size="10.00">ElmerFoamFSI::TestingObject</text>
<text text-anchor="middle" x="1651" y="-151" font-family="Helvetica,sans-Serif" font-size="10.00">::RunTest</text>
</a>
</g>
</g>
<!-- Node8&#45;&gt;Node12 -->
<g id="edge11" class="edge"><title>Node8&#45;&gt;Node12</title>
<path fill="none" stroke="midnightblue" d="M1529.09,-55.7878C1532.84,-57.3914 1536.5,-59.1255 1540,-61 1580.59,-82.7268 1618.48,-122.35 1637.4,-143.961"/>
<polygon fill="midnightblue" stroke="midnightblue" points="1530.19,-52.461 1519.61,-52.0649 1527.64,-58.9769 1530.19,-52.461"/>
</g>
<!-- Node10 -->
<g id="node10" class="node"><title>Node10</title>
<g id="a_node10"><a xlink:href="namespaceElmerFoamFSI_aeb590657609088b8ab12a5cbd164fcfa.html#aeb590657609088b8ab12a5cbd164fcfa" target="_top" xlink:title="Drives the ElmerFoamFSI::TestObject. ">
<polygon fill="none" stroke="black" points="1783,-195.5 1783,-214.5 1891,-214.5 1891,-195.5 1783,-195.5"/>
<text text-anchor="middle" x="1837" y="-202.5" font-family="Helvetica,sans-Serif" font-size="10.00">ElmerFoamFSI::Test</text>
</a>
</g>
</g>
<!-- Node9&#45;&gt;Node10 -->
<g id="edge9" class="edge"><title>Node9&#45;&gt;Node10</title>
<path fill="none" stroke="midnightblue" d="M1735.96,-206.631C1751.97,-206.37 1768.3,-206.104 1783,-205.864"/>
<polygon fill="midnightblue" stroke="midnightblue" points="1735.46,-203.139 1725.51,-206.801 1735.57,-210.138 1735.46,-203.139"/>
</g>
<!-- Node11 -->
<g id="node11" class="node"><title>Node11</title>
<g id="a_node11"><a xlink:href="TestElmerFoamFSI_8C_a0ddf1224851353fc92bfbff6f499fa97.html#a0ddf1224851353fc92bfbff6f499fa97" target="_top" xlink:title="main">
<polygon fill="none" stroke="black" points="1948,-195.5 1948,-214.5 1986,-214.5 1986,-195.5 1948,-195.5"/>
<text text-anchor="middle" x="1967" y="-202.5" font-family="Helvetica,sans-Serif" font-size="10.00">main</text>
</a>
</g>
</g>
<!-- Node10&#45;&gt;Node11 -->
<g id="edge10" class="edge"><title>Node10&#45;&gt;Node11</title>
<path fill="none" stroke="midnightblue" d="M1901.19,-205C1918.29,-205 1935.47,-205 1947.84,-205"/>
<polygon fill="midnightblue" stroke="midnightblue" points="1901.17,-201.5 1891.17,-205 1901.17,-208.5 1901.17,-201.5"/>
</g>
<!-- Node13 -->
<g id="node13" class="node"><title>Node13</title>
<g id="a_node13"><a xlink:href="classElmerFoamFSI_1_1TestingObject_a21159bd2efac623e5a5079f6a20f3444.html#a21159bd2efac623e5a5079f6a20f3444" target="_top" xlink:title="Runs a list of tests specified by name. ">
<polygon fill="none" stroke="black" points="1762.5,-144 1762.5,-174 1911.5,-174 1911.5,-144 1762.5,-144"/>
<text text-anchor="start" x="1770.5" y="-162" font-family="Helvetica,sans-Serif" font-size="10.00">ElmerFoamFSI::TestingObject</text>
<text text-anchor="middle" x="1837" y="-151" font-family="Helvetica,sans-Serif" font-size="10.00">::ProcessTests</text>
</a>
</g>
</g>
<!-- Node12&#45;&gt;Node13 -->
<g id="edge12" class="edge"><title>Node12&#45;&gt;Node13</title>
<path fill="none" stroke="midnightblue" d="M1735.53,-159C1744.46,-159 1753.5,-159 1762.3,-159"/>
<polygon fill="midnightblue" stroke="midnightblue" points="1735.51,-155.5 1725.51,-159 1735.51,-162.5 1735.51,-155.5"/>
</g>
<!-- Node12&#45;&gt;Node10 -->
<g id="edge13" class="edge"><title>Node12&#45;&gt;Node10</title>
<path fill="none" stroke="midnightblue" d="M1721.99,-176.497C1747.75,-182.939 1775.97,-189.992 1797.89,-195.471"/>
<polygon fill="midnightblue" stroke="midnightblue" points="1722.8,-173.092 1712.25,-174.062 1721.1,-179.883 1722.8,-173.092"/>
</g>
<!-- Node15 -->
<g id="node15" class="node"><title>Node15</title>
<g id="a_node15"><a xlink:href="classElmerFoamFSI_1_1SerialDriverProgram_a5803949d99491a7186bf1ee9cee81a3b.html#a5803949d99491a7186bf1ee9cee81a3b" target="_top" xlink:title="This function implements the main function executed by the program. ">
<polygon fill="none" stroke="black" points="1377,-365 1377,-395 1517,-395 1517,-365 1377,-365"/>
<text text-anchor="start" x="1385" y="-383" font-family="Helvetica,sans-Serif" font-size="10.00">ElmerFoamFSI::SerialDriver</text>
<text text-anchor="middle" x="1447" y="-372" font-family="Helvetica,sans-Serif" font-size="10.00">Program::DriverRun</text>
</a>
</g>
</g>
<!-- Node14&#45;&gt;Node15 -->
<g id="edge15" class="edge"><title>Node14&#45;&gt;Node15</title>
<path fill="none" stroke="midnightblue" d="M1266.01,-227.036C1278.62,-258.572 1308.16,-321.491 1354,-355 1360.81,-359.981 1368.57,-363.97 1376.61,-367.164"/>
<polygon fill="midnightblue" stroke="midnightblue" points="1269.25,-225.703 1262.39,-217.632 1262.72,-228.222 1269.25,-225.703"/>
</g>
<!-- Node17 -->
<g id="node17" class="node"><title>Node17</title>
<g id="a_node17"><a xlink:href="classElmerFoamFSI_1_1TestingObject_a07ff57097065c5066a4421176b63242b.html#a07ff57097065c5066a4421176b63242b" target="_top" xlink:title="Test the functionality of the fsiCoupler. ">
<polygon fill="none" stroke="black" points="1372.5,-71 1372.5,-101 1521.5,-101 1521.5,-71 1372.5,-71"/>
<text text-anchor="start" x="1380.5" y="-89" font-family="Helvetica,sans-Serif" font-size="10.00">ElmerFoamFSI::TestingObject</text>
<text text-anchor="middle" x="1447" y="-78" font-family="Helvetica,sans-Serif" font-size="10.00">::Test__FsiCoupler</text>
</a>
</g>
</g>
<!-- Node14&#45;&gt;Node17 -->
<g id="edge17" class="edge"><title>Node14&#45;&gt;Node17</title>
<path fill="none" stroke="midnightblue" d="M1283.78,-192.888C1294.98,-185.347 1307.94,-175.581 1318,-165 1338.13,-143.829 1330.28,-127.051 1354,-110 1359.63,-105.954 1365.89,-102.589 1372.42,-99.7914"/>
<polygon fill="midnightblue" stroke="midnightblue" points="1281.73,-190.046 1275.25,-198.433 1285.55,-195.914 1281.73,-190.046"/>
</g>
<!-- Node18 -->
<g id="node18" class="node"><title>Node18</title>
<g id="a_node18"><a xlink:href="classElmerFoamFSI_1_1TestingObject_abb3c0f68a2d2e212fa6e05e4628c78f0.html#abb3c0f68a2d2e212fa6e05e4628c78f0" target="_top" xlink:title="Test for fsiCoupling::TrasferDisplacementsToFluid function. ">
<polygon fill="none" stroke="black" points="1354,-267 1354,-297 1540,-297 1540,-267 1354,-267"/>
<text text-anchor="start" x="1362" y="-285" font-family="Helvetica,sans-Serif" font-size="10.00">ElmerFoamFSI::TestingObject</text>
<text text-anchor="middle" x="1447" y="-274" font-family="Helvetica,sans-Serif" font-size="10.00">::Test__TransferDisplacementsToFluid</text>
</a>
</g>
</g>
<!-- Node14&#45;&gt;Node18 -->
<g id="edge20" class="edge"><title>Node14&#45;&gt;Node18</title>
<path fill="none" stroke="midnightblue" d="M1283.78,-222.623C1302.57,-233.249 1329.29,-247.394 1354,-257 1363.41,-260.658 1373.56,-263.993 1383.56,-266.95"/>
<polygon fill="midnightblue" stroke="midnightblue" points="1285.4,-219.518 1274.99,-217.578 1281.92,-225.589 1285.4,-219.518"/>
</g>
<!-- Node19 -->
<g id="node19" class="node"><title>Node19</title>
<g id="a_node19"><a xlink:href="classElmerFoamFSI_1_1TestingObject_aa7d577bcec96bb12da930ede076b6023.html#aa7d577bcec96bb12da930ede076b6023" target="_top" xlink:title="Test for fluidAgent&#45;&gt;Run() function. ">
<polygon fill="none" stroke="black" points="1372.5,-218 1372.5,-248 1521.5,-248 1521.5,-218 1372.5,-218"/>
<text text-anchor="start" x="1380.5" y="-236" font-family="Helvetica,sans-Serif" font-size="10.00">ElmerFoamFSI::TestingObject</text>
<text text-anchor="middle" x="1447" y="-225" font-family="Helvetica,sans-Serif" font-size="10.00">::Test__FluidAgentRun</text>
</a>
</g>
</g>
<!-- Node14&#45;&gt;Node19 -->
<g id="edge23" class="edge"><title>Node14&#45;&gt;Node19</title>
<path fill="none" stroke="midnightblue" d="M1320.64,-216.241C1337.12,-218.445 1355.11,-220.849 1372.18,-223.131"/>
<polygon fill="midnightblue" stroke="midnightblue" points="1320.97,-212.754 1310.59,-214.898 1320.04,-219.692 1320.97,-212.754"/>
</g>
<!-- Node20 -->
<g id="node20" class="node"><title>Node20</title>
<g id="a_node20"><a xlink:href="classElmerFoamFSI_1_1TestingObject_a8c738943eca358248eb583bd29c5c332.html#a8c738943eca358248eb583bd29c5c332" target="_top" xlink:title="Test for TransferLoadsToStructures() function. ">
<polygon fill="none" stroke="black" points="1361.5,-169 1361.5,-199 1532.5,-199 1532.5,-169 1361.5,-169"/>
<text text-anchor="start" x="1369.5" y="-187" font-family="Helvetica,sans-Serif" font-size="10.00">ElmerFoamFSI::TestingObject</text>
<text text-anchor="middle" x="1447" y="-176" font-family="Helvetica,sans-Serif" font-size="10.00">::Test__TransferLoadsToStructures</text>
</a>
</g>
</g>
<!-- Node14&#45;&gt;Node20 -->
<g id="edge26" class="edge"><title>Node14&#45;&gt;Node20</title>
<path fill="none" stroke="midnightblue" d="M1320.76,-200.074C1333.7,-198.413 1347.57,-196.633 1361.18,-194.885"/>
<polygon fill="midnightblue" stroke="midnightblue" points="1320.07,-196.634 1310.59,-201.378 1320.96,-203.577 1320.07,-196.634"/>
</g>
<!-- Node21 -->
<g id="node21" class="node"><title>Node21</title>
<g id="a_node21"><a xlink:href="classElmerFoamFSI_1_1TestingObject_a1fae1ccecf337df1572d5a43cdae1a08.html#a1fae1ccecf337df1572d5a43cdae1a08" target="_top" xlink:title="Test for solidAgent&#45;&gt;Run() function. ">
<polygon fill="none" stroke="black" points="1372.5,-120 1372.5,-150 1521.5,-150 1521.5,-120 1372.5,-120"/>
<text text-anchor="start" x="1380.5" y="-138" font-family="Helvetica,sans-Serif" font-size="10.00">ElmerFoamFSI::TestingObject</text>
<text text-anchor="middle" x="1447" y="-127" font-family="Helvetica,sans-Serif" font-size="10.00">::Test__SolidAgentRun</text>
</a>
</g>
</g>
<!-- Node14&#45;&gt;Node21 -->
<g id="edge29" class="edge"><title>Node14&#45;&gt;Node21</title>
<path fill="none" stroke="midnightblue" d="M1283.76,-193.303C1302.53,-182.64 1329.24,-168.481 1354,-159 1362.63,-155.694 1371.89,-152.687 1381.09,-150.005"/>
<polygon fill="midnightblue" stroke="midnightblue" points="1281.88,-190.343 1274.97,-198.369 1285.38,-196.407 1281.88,-190.343"/>
</g>
<!-- Node16 -->
<g id="node16" class="node"><title>Node16</title>
<g id="a_node16"><a xlink:href="namespaceElmerFoamFSI_aff46f457934a8e2d3712bdbfb1688e99.html#aff46f457934a8e2d3712bdbfb1688e99" target="_top" xlink:title="Unified driver for the example programs. ">
<polygon fill="none" stroke="black" points="1593.5,-370.5 1593.5,-389.5 1708.5,-389.5 1708.5,-370.5 1593.5,-370.5"/>
<text text-anchor="middle" x="1651" y="-377.5" font-family="Helvetica,sans-Serif" font-size="10.00">ElmerFoamFSI::Driver</text>
</a>
</g>
</g>
<!-- Node15&#45;&gt;Node16 -->
<g id="edge16" class="edge"><title>Node15&#45;&gt;Node16</title>
<path fill="none" stroke="midnightblue" d="M1527.24,-380C1549.28,-380 1572.78,-380 1593.25,-380"/>
<polygon fill="midnightblue" stroke="midnightblue" points="1527.23,-376.5 1517.23,-380 1527.23,-383.5 1527.23,-376.5"/>
</g>
<!-- Node17&#45;&gt;Node9 -->
<g id="edge18" class="edge"><title>Node17&#45;&gt;Node9</title>
<path fill="none" stroke="midnightblue" d="M1530.66,-103.532C1533.94,-105.469 1537.08,-107.618 1540,-110 1568.04,-132.857 1548.78,-159.168 1576,-183 1580.39,-186.841 1585.39,-190.098 1590.67,-192.857"/>
<polygon fill="midnightblue" stroke="midnightblue" points="1532.15,-100.362 1521.66,-98.8822 1528.94,-106.582 1532.15,-100.362"/>
</g>
<!-- Node17&#45;&gt;Node12 -->
<g id="edge19" class="edge"><title>Node17&#45;&gt;Node12</title>
<path fill="none" stroke="midnightblue" d="M1521.29,-103.95C1527.66,-105.862 1533.97,-107.886 1540,-110 1567.62,-119.681 1597.93,-133.428 1619.73,-143.899"/>
<polygon fill="midnightblue" stroke="midnightblue" points="1521.84,-100.467 1511.26,-101.04 1519.89,-107.19 1521.84,-100.467"/>
</g>
<!-- Node18&#45;&gt;Node9 -->
<g id="edge21" class="edge"><title>Node18&#45;&gt;Node9</title>
<path fill="none" stroke="midnightblue" d="M1518.67,-263.989C1525.92,-261.786 1533.14,-259.444 1540,-257 1567.57,-247.179 1597.88,-233.445 1619.69,-223.015"/>
<polygon fill="midnightblue" stroke="midnightblue" points="1517.39,-260.718 1508.79,-266.905 1519.37,-267.432 1517.39,-260.718"/>
</g>
<!-- Node18&#45;&gt;Node12 -->
<g id="edge22" class="edge"><title>Node18&#45;&gt;Node12</title>
<path fill="none" stroke="midnightblue" d="M1533.5,-261.771C1535.76,-260.291 1537.93,-258.703 1540,-257 1567.92,-234.001 1548.78,-207.832 1576,-184 1580.39,-180.159 1585.39,-176.902 1590.67,-174.143"/>
<polygon fill="midnightblue" stroke="midnightblue" points="1531.36,-258.963 1524.41,-266.964 1534.83,-265.041 1531.36,-258.963"/>
</g>
<!-- Node19&#45;&gt;Node9 -->
<g id="edge24" class="edge"><title>Node19&#45;&gt;Node9</title>
<path fill="none" stroke="midnightblue" d="M1531.91,-222.615C1546.68,-220.787 1561.96,-218.897 1576.42,-217.107"/>
<polygon fill="midnightblue" stroke="midnightblue" points="1531.28,-219.166 1521.78,-223.868 1532.14,-226.113 1531.28,-219.166"/>
</g>
<!-- Node19&#45;&gt;Node12 -->
<g id="edge25" class="edge"><title>Node19&#45;&gt;Node12</title>
<path fill="none" stroke="midnightblue" d="M1523.41,-214.675C1529.1,-212.636 1534.69,-210.413 1540,-208 1557.51,-200.042 1558.74,-192.484 1576,-184 1583.42,-180.351 1591.51,-177.021 1599.52,-174.066"/>
<polygon fill="midnightblue" stroke="midnightblue" points="1522.11,-211.417 1513.76,-217.933 1524.35,-218.049 1522.11,-211.417"/>
</g>
<!-- Node20&#45;&gt;Node9 -->
<g id="edge27" class="edge"><title>Node20&#45;&gt;Node9</title>
<path fill="none" stroke="midnightblue" d="M1543.02,-195.29C1554.21,-196.619 1565.5,-197.96 1576.33,-199.247"/>
<polygon fill="midnightblue" stroke="midnightblue" points="1543.13,-191.778 1532.79,-194.074 1542.31,-198.729 1543.13,-191.778"/>
</g>
<!-- Node20&#45;&gt;Node12 -->
<g id="edge28" class="edge"><title>Node20&#45;&gt;Node12</title>
<path fill="none" stroke="midnightblue" d="M1543.02,-172.24C1554.21,-170.855 1565.5,-169.458 1576.33,-168.118"/>
<polygon fill="midnightblue" stroke="midnightblue" points="1542.28,-168.805 1532.79,-173.506 1543.14,-175.752 1542.28,-168.805"/>
</g>
<!-- Node21&#45;&gt;Node9 -->
<g id="edge30" class="edge"><title>Node21&#45;&gt;Node9</title>
<path fill="none" stroke="midnightblue" d="M1525.72,-153.269C1530.61,-155.034 1535.41,-156.942 1540,-159 1557.55,-166.869 1558.74,-174.516 1576,-183 1583.42,-186.649 1591.51,-189.979 1599.52,-192.934"/>
<polygon fill="midnightblue" stroke="midnightblue" points="1526.81,-149.944 1516.21,-150.05 1524.56,-156.574 1526.81,-149.944"/>
</g>
<!-- Node21&#45;&gt;Node12 -->
<g id="edge31" class="edge"><title>Node21&#45;&gt;Node12</title>
<path fill="none" stroke="midnightblue" d="M1531.91,-144.97C1546.68,-146.725 1561.96,-148.539 1576.42,-150.257"/>
<polygon fill="midnightblue" stroke="midnightblue" points="1532.13,-141.471 1521.78,-143.766 1531.3,-148.422 1532.13,-141.471"/>
</g>
<!-- Node23 -->
<g id="node23" class="node"><title>Node23</title>
<g id="a_node23"><a xlink:href="classfsicouplingpar_ae855141f7b214925c25f7797b8b122a8.html#ae855141f7b214925c25f7797b8b122a8" target="_top" xlink:title="fsicouplingpar::Initialize">
<polygon fill="none" stroke="black" points="1198.5,-103.5 1198.5,-122.5 1317.5,-122.5 1317.5,-103.5 1198.5,-103.5"/>
<text text-anchor="middle" x="1258" y="-110.5" font-family="Helvetica,sans-Serif" font-size="10.00">fsicouplingpar::Initialize</text>
</a>
</g>
</g>
<!-- Node22&#45;&gt;Node23 -->
<g id="edge33" class="edge"><title>Node22&#45;&gt;Node23</title>
<path fill="none" stroke="midnightblue" d="M1144.34,-139.104C1167.39,-133.763 1194.22,-127.546 1215.91,-122.52"/>
<polygon fill="midnightblue" stroke="midnightblue" points="1143.34,-135.744 1134.38,-141.411 1144.92,-142.563 1143.34,-135.744"/>
</g>
<!-- Node25 -->
<g id="node25" class="node"><title>Node25</title>
<g id="a_node25"><a xlink:href="classElmerFoamFSI_1_1TestingObject_a08d0370a943e7c47c0098eb76664a71b.html#a08d0370a943e7c47c0098eb76664a71b" target="_top" xlink:title="Run an initialization check to make sure the OpenFoamFluids are running as they should. ">
<polygon fill="none" stroke="black" points="1372.5,-316 1372.5,-346 1521.5,-346 1521.5,-316 1372.5,-316"/>
<text text-anchor="start" x="1380.5" y="-334" font-family="Helvetica,sans-Serif" font-size="10.00">ElmerFoamFSI::TestingObject</text>
<text text-anchor="middle" x="1447" y="-323" font-family="Helvetica,sans-Serif" font-size="10.00">::Test__OpenFoamFluids</text>
</a>
</g>
</g>
<!-- Node24&#45;&gt;Node25 -->
<g id="edge35" class="edge"><title>Node24&#45;&gt;Node25</title>
<path fill="none" stroke="midnightblue" d="M1133.14,-239.537C1184.29,-255.427 1275.51,-283.461 1354,-306 1365.45,-309.289 1377.74,-312.706 1389.49,-315.918"/>
<polygon fill="midnightblue" stroke="midnightblue" points="1134.04,-236.154 1123.45,-236.527 1131.96,-242.839 1134.04,-236.154"/>
</g>
<!-- Node24&#45;&gt;Node14 -->
<g id="edge38" class="edge"><title>Node24&#45;&gt;Node14</title>
<path fill="none" stroke="midnightblue" d="M1164.85,-218.676C1178.47,-217.098 1192.47,-215.476 1205.31,-213.988"/>
<polygon fill="midnightblue" stroke="midnightblue" points="1164.06,-215.243 1154.53,-219.871 1164.87,-222.197 1164.06,-215.243"/>
</g>
<!-- Node25&#45;&gt;Node9 -->
<g id="edge36" class="edge"><title>Node25&#45;&gt;Node9</title>
<path fill="none" stroke="midnightblue" d="M1526.73,-312.302C1531.31,-310.39 1535.77,-308.294 1540,-306 1580.25,-284.189 1617.99,-244.967 1637.06,-223.345"/>
<polygon fill="midnightblue" stroke="midnightblue" points="1525.26,-309.114 1517.19,-315.976 1527.78,-315.646 1525.26,-309.114"/>
</g>
<!-- Node25&#45;&gt;Node12 -->
<g id="edge37" class="edge"><title>Node25&#45;&gt;Node12</title>
<path fill="none" stroke="midnightblue" d="M1530.48,-313.631C1533.89,-311.381 1537.09,-308.849 1540,-306 1580.4,-266.459 1536.81,-224.744 1576,-184 1579.76,-180.091 1584.15,-176.793 1588.89,-174.01"/>
<polygon fill="midnightblue" stroke="midnightblue" points="1528.59,-310.679 1521.62,-318.663 1532.05,-316.766 1528.59,-310.679"/>
</g>
<!-- Node26&#45;&gt;Node23 -->
<g id="edge40" class="edge"><title>Node26&#45;&gt;Node23</title>
<path fill="none" stroke="midnightblue" d="M1171.68,-113C1180.64,-113 1189.66,-113 1198.3,-113"/>
<polygon fill="midnightblue" stroke="midnightblue" points="1171.6,-109.5 1161.6,-113 1171.6,-116.5 1171.6,-109.5"/>
</g>
<!-- Node30 -->
<g id="node30" class="node"><title>Node30</title>
<g id="a_node30"><a xlink:href="classOpenFoamModuleDriver_1_1TestingObject_a046f7ab06db0acf616b0d2bf3d3146aa.html#a046f7ab06db0acf616b0d2bf3d3146aa" target="_top" xlink:title="Process all tests and populate a &quot;results&quot; object. ">
<polygon fill="none" stroke="black" points="325.5,-0 325.5,-30 450.5,-30 450.5,-0 325.5,-0"/>
<text text-anchor="start" x="333.5" y="-18" font-family="Helvetica,sans-Serif" font-size="10.00">OpenFoamModuleDriver</text>
<text text-anchor="middle" x="388" y="-7" font-family="Helvetica,sans-Serif" font-size="10.00">::TestingObject::Process</text>
</a>
</g>
</g>
<!-- Node29&#45;&gt;Node30 -->
<g id="edge44" class="edge"><title>Node29&#45;&gt;Node30</title>
<path fill="none" stroke="midnightblue" d="M289.688,-28.4224C301.585,-26.7813 313.744,-25.1043 325.256,-23.5164"/>
<polygon fill="midnightblue" stroke="midnightblue" points="289.203,-24.956 279.775,-29.7896 290.16,-31.8903 289.203,-24.956"/>
</g>
<!-- Node33 -->
<g id="node33" class="node"><title>Node33</title>
<g id="a_node33"><a xlink:href="classOpenFoamModuleDriver_1_1TestingObject_af1f07f14b9af7708e4264bb38937eed2.html#af1f07f14b9af7708e4264bb38937eed2" target="_top" xlink:title="Runs a test specified by name. ">
<polygon fill="none" stroke="black" points="324.5,-49 324.5,-79 451.5,-79 451.5,-49 324.5,-49"/>
<text text-anchor="start" x="332.5" y="-67" font-family="Helvetica,sans-Serif" font-size="10.00">OpenFoamModuleDriver</text>
<text text-anchor="middle" x="388" y="-56" font-family="Helvetica,sans-Serif" font-size="10.00">::TestingObject::RunTest</text>
</a>
</g>
</g>
<!-- Node29&#45;&gt;Node33 -->
<g id="edge47" class="edge"><title>Node29&#45;&gt;Node33</title>
<path fill="none" stroke="midnightblue" d="M289.846,-50.0411C301.4,-51.7011 313.196,-53.396 324.405,-55.0064"/>
<polygon fill="midnightblue" stroke="midnightblue" points="290.171,-46.552 279.775,-48.5942 289.176,-53.4808 290.171,-46.552"/>
</g>
<!-- Node31 -->
<g id="node31" class="node"><title>Node31</title>
<g id="a_node31"><a xlink:href="namespaceOpenFoamModuleDriver_a98bd69551725493def1a31bfe72b0781.html#a98bd69551725493def1a31bfe72b0781" target="_top" xlink:title="Drives the OpenFoamModuleDriver::TestObject. ">
<polygon fill="none" stroke="black" points="510,-0 510,-30 632,-30 632,-0 510,-0"/>
<text text-anchor="start" x="518" y="-18" font-family="Helvetica,sans-Serif" font-size="10.00">OpenFoamModuleDriver</text>
<text text-anchor="middle" x="571" y="-7" font-family="Helvetica,sans-Serif" font-size="10.00">::Test</text>
</a>
</g>
</g>
<!-- Node30&#45;&gt;Node31 -->
<g id="edge45" class="edge"><title>Node30&#45;&gt;Node31</title>
<path fill="none" stroke="midnightblue" d="M460.564,-15C476.889,-15 494.075,-15 509.866,-15"/>
<polygon fill="midnightblue" stroke="midnightblue" points="460.531,-11.5001 450.531,-15 460.531,-18.5001 460.531,-11.5001"/>
</g>
<!-- Node32 -->
<g id="node32" class="node"><title>Node32</title>
<g id="a_node32"><a xlink:href="TestOpenFoamModuleDriver_8C_a0ddf1224851353fc92bfbff6f499fa97.html#a0ddf1224851353fc92bfbff6f499fa97" target="_top" xlink:title="main">
<polygon fill="none" stroke="black" points="728,-5.5 728,-24.5 766,-24.5 766,-5.5 728,-5.5"/>
<text text-anchor="middle" x="747" y="-12.5" font-family="Helvetica,sans-Serif" font-size="10.00">main</text>
</a>
</g>
</g>
<!-- Node31&#45;&gt;Node32 -->
<g id="edge46" class="edge"><title>Node31&#45;&gt;Node32</title>
<path fill="none" stroke="midnightblue" d="M642.754,-15C673.771,-15 707.644,-15 727.839,-15"/>
<polygon fill="midnightblue" stroke="midnightblue" points="642.368,-11.5001 632.368,-15 642.368,-18.5001 642.368,-11.5001"/>
</g>
<!-- Node34 -->
<g id="node34" class="node"><title>Node34</title>
<g id="a_node34"><a xlink:href="classOpenFoamModuleDriver_1_1TestingObject_a21159bd2efac623e5a5079f6a20f3444.html#a21159bd2efac623e5a5079f6a20f3444" target="_top" xlink:title="Runs a list of tests specified by name. ">
<polygon fill="none" stroke="black" points="496,-49 496,-79 646,-79 646,-49 496,-49"/>
<text text-anchor="start" x="504" y="-67" font-family="Helvetica,sans-Serif" font-size="10.00">OpenFoamModuleDriver</text>
<text text-anchor="middle" x="571" y="-56" font-family="Helvetica,sans-Serif" font-size="10.00">::TestingObject::ProcessTests</text>
</a>
</g>
</g>
<!-- Node33&#45;&gt;Node34 -->
<g id="edge48" class="edge"><title>Node33&#45;&gt;Node34</title>
<path fill="none" stroke="midnightblue" d="M461.751,-64C473.006,-64 484.642,-64 495.925,-64"/>
<polygon fill="midnightblue" stroke="midnightblue" points="461.543,-60.5001 451.543,-64 461.543,-67.5001 461.543,-60.5001"/>
</g>
<!-- Node33&#45;&gt;Node31 -->
<g id="edge49" class="edge"><title>Node33&#45;&gt;Node31</title>
<path fill="none" stroke="midnightblue" d="M454.561,-46.2515C474.177,-40.9409 495.49,-35.1712 514.401,-30.0516"/>
<polygon fill="midnightblue" stroke="midnightblue" points="453.521,-42.907 444.783,-48.8986 455.35,-49.6638 453.521,-42.907"/>
</g>
</g>
</svg>
