<?xml version="1.0" encoding="UTF-8" standalone="no"?>
<!DOCTYPE svg PUBLIC "-//W3C//DTD SVG 1.1//EN"
 "http://www.w3.org/Graphics/SVG/1.1/DTD/svg11.dtd">
<!-- Generated by graphviz version 2.30.1 (20150305.2338)
 -->
<!-- Title: COM_load_module Pages: 1 -->
<svg width="440pt" height="77pt"
 viewBox="0.00 0.00 440.00 77.00" xmlns="http://www.w3.org/2000/svg" xmlns:xlink="http://www.w3.org/1999/xlink">
<g id="graph0" class="graph" transform="scale(1 1) rotate(0) translate(4 73)">
<title>COM_load_module</title>
<!-- Node1 -->
<g id="node1" class="node"><title>Node1</title>
<polygon fill="#bfbfbf" stroke="black" points="0,-27.5 0,-46.5 100,-46.5 100,-27.5 0,-27.5"/>
<text text-anchor="middle" x="50" y="-34.5" font-family="Helvetica,sans-Serif" font-size="10.00">COM_load_module</text>
</g>
<!-- Node2 -->
<g id="node2" class="node"><title>Node2</title>
<g id="a_node2"><a xlink:href="COM__base_8hpp_a49353596e53127db61529b5c9000549d.html#a49353596e53127db61529b5c9000549d" target="_top" xlink:title="COM_get_com">
<polygon fill="none" stroke="black" points="154.5,-49.5 154.5,-68.5 237.5,-68.5 237.5,-49.5 154.5,-49.5"/>
<text text-anchor="middle" x="196" y="-56.5" font-family="Helvetica,sans-Serif" font-size="10.00">COM_get_com</text>
</a>
</g>
</g>
<!-- Node1&#45;&gt;Node2 -->
<g id="edge1" class="edge"><title>Node1&#45;&gt;Node2</title>
<path fill="none" stroke="midnightblue" d="M100.154,-44.5096C114.315,-46.6732 129.792,-49.0377 144.06,-51.2175"/>
<polygon fill="midnightblue" stroke="midnightblue" points="143.785,-54.716 154.199,-52.7665 144.842,-47.7963 143.785,-54.716"/>
</g>
<!-- Node4 -->
<g id="node4" class="node"><title>Node4</title>
<g id="a_node4"><a xlink:href="classCOM_1_1COM__base_a78a3c6bd36d919b3da5be175a6a38c8b.html#a78a3c6bd36d919b3da5be175a6a38c8b" target="_top" xlink:title="Load a module. ">
<polygon fill="none" stroke="black" points="136.5,-0 136.5,-30 255.5,-30 255.5,-0 136.5,-0"/>
<text text-anchor="start" x="144.5" y="-18" font-family="Helvetica,sans-Serif" font-size="10.00">COM::COM_base::load</text>
<text text-anchor="middle" x="196" y="-7" font-family="Helvetica,sans-Serif" font-size="10.00">_module</text>
</a>
</g>
</g>
<!-- Node1&#45;&gt;Node4 -->
<g id="edge3" class="edge"><title>Node1&#45;&gt;Node4</title>
<path fill="none" stroke="midnightblue" d="M100.154,-29.4904C108.619,-28.1971 117.554,-26.832 126.42,-25.4774"/>
<polygon fill="midnightblue" stroke="midnightblue" points="127.015,-28.9272 136.372,-23.957 125.958,-22.0075 127.015,-28.9272"/>
</g>
<!-- Node3 -->
<g id="node3" class="node"><title>Node3</title>
<g id="a_node3"><a xlink:href="classCOM_1_1COM__base_a77bb770b9ec1aac99361c45efbccabc1.html#a77bb770b9ec1aac99361c45efbccabc1" target="_top" xlink:title="Get a pointer to the COM object. ">
<polygon fill="none" stroke="black" points="292.5,-49.5 292.5,-68.5 431.5,-68.5 431.5,-49.5 292.5,-49.5"/>
<text text-anchor="middle" x="362" y="-56.5" font-family="Helvetica,sans-Serif" font-size="10.00">COM::COM_base::get_com</text>
</a>
</g>
</g>
<!-- Node2&#45;&gt;Node3 -->
<g id="edge2" class="edge"><title>Node2&#45;&gt;Node3</title>
<path fill="none" stroke="midnightblue" d="M237.539,-59C251.078,-59 266.663,-59 282.102,-59"/>
<polygon fill="midnightblue" stroke="midnightblue" points="282.203,-62.5001 292.203,-59 282.203,-55.5001 282.203,-62.5001"/>
</g>
</g>
</svg>
