<?xml version="1.0" encoding="UTF-8" standalone="no"?>
<!DOCTYPE svg PUBLIC "-//W3C//DTD SVG 1.1//EN"
 "http://www.w3.org/Graphics/SVG/1.1/DTD/svg11.dtd">
<!-- Generated by graphviz version 2.30.1 (20150305.2338)
 -->
<!-- Title: COM_get_dataitem_handle Pages: 1 -->
<svg width="472pt" height="77pt"
 viewBox="0.00 0.00 472.00 77.00" xmlns="http://www.w3.org/2000/svg" xmlns:xlink="http://www.w3.org/1999/xlink">
<g id="graph0" class="graph" transform="scale(1 1) rotate(0) translate(4 73)">
<title>COM_get_dataitem_handle</title>
<!-- Node1 -->
<g id="node1" class="node"><title>Node1</title>
<polygon fill="#bfbfbf" stroke="black" points="0.5,-27.5 0.5,-46.5 135.5,-46.5 135.5,-27.5 0.5,-27.5"/>
<text text-anchor="middle" x="68" y="-34.5" font-family="Helvetica,sans-Serif" font-size="10.00">COM_get_dataitem_handle</text>
</g>
<!-- Node2 -->
<g id="node2" class="node"><title>Node2</title>
<g id="a_node2"><a xlink:href="COM__base_8hpp_a49353596e53127db61529b5c9000549d.html#a49353596e53127db61529b5c9000549d" target="_top" xlink:title="COM_get_com">
<polygon fill="none" stroke="black" points="188.5,-49.5 188.5,-68.5 271.5,-68.5 271.5,-49.5 188.5,-49.5"/>
<text text-anchor="middle" x="230" y="-56.5" font-family="Helvetica,sans-Serif" font-size="10.00">COM_get_com</text>
</a>
</g>
</g>
<!-- Node1&#45;&gt;Node2 -->
<g id="edge1" class="edge"><title>Node1&#45;&gt;Node2</title>
<path fill="none" stroke="midnightblue" d="M135.927,-46.2025C150.121,-48.1541 164.879,-50.1834 178.348,-52.0354"/>
<polygon fill="midnightblue" stroke="midnightblue" points="177.983,-55.518 188.367,-53.4129 178.937,-48.5833 177.983,-55.518"/>
</g>
<!-- Node4 -->
<g id="node4" class="node"><title>Node4</title>
<g id="a_node4"><a xlink:href="classCOM_1_1COM__base_a9fd7945150b9f390f5560bce2b7ea375.html#a9fd7945150b9f390f5560bce2b7ea375" target="_top" xlink:title="COM::COM_base::get\l_dataitem_handle">
<polygon fill="none" stroke="black" points="172.5,-0 172.5,-30 287.5,-30 287.5,-0 172.5,-0"/>
<text text-anchor="start" x="180.5" y="-18" font-family="Helvetica,sans-Serif" font-size="10.00">COM::COM_base::get</text>
<text text-anchor="middle" x="230" y="-7" font-family="Helvetica,sans-Serif" font-size="10.00">_dataitem_handle</text>
</a>
</g>
</g>
<!-- Node1&#45;&gt;Node4 -->
<g id="edge3" class="edge"><title>Node1&#45;&gt;Node4</title>
<path fill="none" stroke="midnightblue" d="M135.927,-27.7975C144.667,-26.5958 153.621,-25.3646 162.356,-24.1635"/>
<polygon fill="midnightblue" stroke="midnightblue" points="163.054,-27.6005 172.484,-22.7709 162.101,-20.6658 163.054,-27.6005"/>
</g>
<!-- Node3 -->
<g id="node3" class="node"><title>Node3</title>
<g id="a_node3"><a xlink:href="classCOM_1_1COM__base_a77bb770b9ec1aac99361c45efbccabc1.html#a77bb770b9ec1aac99361c45efbccabc1" target="_top" xlink:title="Get a pointer to the COM object. ">
<polygon fill="none" stroke="black" points="324.5,-49.5 324.5,-68.5 463.5,-68.5 463.5,-49.5 324.5,-49.5"/>
<text text-anchor="middle" x="394" y="-56.5" font-family="Helvetica,sans-Serif" font-size="10.00">COM::COM_base::get_com</text>
</a>
</g>
</g>
<!-- Node2&#45;&gt;Node3 -->
<g id="edge2" class="edge"><title>Node2&#45;&gt;Node3</title>
<path fill="none" stroke="midnightblue" d="M271.879,-59C284.826,-59 299.603,-59 314.279,-59"/>
<polygon fill="midnightblue" stroke="midnightblue" points="314.4,-62.5001 324.4,-59 314.4,-55.5001 314.4,-62.5001"/>
</g>
</g>
</svg>
