<?xml version="1.0" encoding="UTF-8" standalone="no"?>
<!DOCTYPE svg PUBLIC "-//W3C//DTD SVG 1.1//EN"
 "http://www.w3.org/Graphics/SVG/1.1/DTD/svg11.dtd">
<!-- Generated by graphviz version 2.30.1 (20150305.2338)
 -->
<!-- Title: COM_get_error_code Pages: 1 -->
<svg width="446pt" height="77pt"
 viewBox="0.00 0.00 446.00 77.00" xmlns="http://www.w3.org/2000/svg" xmlns:xlink="http://www.w3.org/1999/xlink">
<g id="graph0" class="graph" transform="scale(1 1) rotate(0) translate(4 73)">
<title>COM_get_error_code</title>
<!-- Node1 -->
<g id="node1" class="node"><title>Node1</title>
<polygon fill="#bfbfbf" stroke="black" points="0,-27.5 0,-46.5 110,-46.5 110,-27.5 0,-27.5"/>
<text text-anchor="middle" x="55" y="-34.5" font-family="Helvetica,sans-Serif" font-size="10.00">COM_get_error_code</text>
</g>
<!-- Node2 -->
<g id="node2" class="node"><title>Node2</title>
<g id="a_node2"><a xlink:href="COM__base_8hpp_a49353596e53127db61529b5c9000549d.html#a49353596e53127db61529b5c9000549d" target="_top" xlink:title="COM_get_com">
<polygon fill="none" stroke="black" points="162.5,-49.5 162.5,-68.5 245.5,-68.5 245.5,-49.5 162.5,-49.5"/>
<text text-anchor="middle" x="204" y="-56.5" font-family="Helvetica,sans-Serif" font-size="10.00">COM_get_com</text>
</a>
</g>
</g>
<!-- Node1&#45;&gt;Node2 -->
<g id="edge1" class="edge"><title>Node1&#45;&gt;Node2</title>
<path fill="none" stroke="midnightblue" d="M110.32,-45.1295C124.006,-47.1778 138.647,-49.3689 152.156,-51.3906"/>
<polygon fill="midnightblue" stroke="midnightblue" points="151.823,-54.8797 162.231,-52.8985 152.859,-47.9568 151.823,-54.8797"/>
</g>
<!-- Node4 -->
<g id="node4" class="node"><title>Node4</title>
<g id="a_node4"><a xlink:href="classCOM_1_1COM__base_ab7606f9a90dda613fcceba14cb0b2e38.html#ab7606f9a90dda613fcceba14cb0b2e38" target="_top" xlink:title="Get the error code. ">
<polygon fill="none" stroke="black" points="146.5,-0 146.5,-30 261.5,-30 261.5,-0 146.5,-0"/>
<text text-anchor="start" x="154.5" y="-18" font-family="Helvetica,sans-Serif" font-size="10.00">COM::COM_base::get</text>
<text text-anchor="middle" x="204" y="-7" font-family="Helvetica,sans-Serif" font-size="10.00">_error_code</text>
</a>
</g>
</g>
<!-- Node1&#45;&gt;Node4 -->
<g id="edge3" class="edge"><title>Node1&#45;&gt;Node4</title>
<path fill="none" stroke="midnightblue" d="M110.32,-28.8705C118.785,-27.6037 127.615,-26.2822 136.316,-24.9799"/>
<polygon fill="midnightblue" stroke="midnightblue" points="137.07,-28.4061 146.442,-23.4645 136.034,-21.4832 137.07,-28.4061"/>
</g>
<!-- Node3 -->
<g id="node3" class="node"><title>Node3</title>
<g id="a_node3"><a xlink:href="classCOM_1_1COM__base_a77bb770b9ec1aac99361c45efbccabc1.html#a77bb770b9ec1aac99361c45efbccabc1" target="_top" xlink:title="Get a pointer to the COM object. ">
<polygon fill="none" stroke="black" points="298.5,-49.5 298.5,-68.5 437.5,-68.5 437.5,-49.5 298.5,-49.5"/>
<text text-anchor="middle" x="368" y="-56.5" font-family="Helvetica,sans-Serif" font-size="10.00">COM::COM_base::get_com</text>
</a>
</g>
</g>
<!-- Node2&#45;&gt;Node3 -->
<g id="edge2" class="edge"><title>Node2&#45;&gt;Node3</title>
<path fill="none" stroke="midnightblue" d="M245.879,-59C258.826,-59 273.603,-59 288.279,-59"/>
<polygon fill="midnightblue" stroke="midnightblue" points="288.4,-62.5001 298.4,-59 288.4,-55.5001 288.4,-62.5001"/>
</g>
</g>
</svg>
