<?xml version="1.0" encoding="UTF-8" standalone="no"?>
<!DOCTYPE svg PUBLIC "-//W3C//DTD SVG 1.1//EN"
 "http://www.w3.org/Graphics/SVG/1.1/DTD/svg11.dtd">
<!-- Generated by graphviz version 2.30.1 (20150305.2338)
 -->
<!-- Title: COM_window_init_done Pages: 1 -->
<!--zoomable 485 -->
<svg id="main" version="1.1" xmlns="http://www.w3.org/2000/svg" xmlns:xlink="http://www.w3.org/1999/xlink" xml:space="preserve" onload="init(evt)">
<style type="text/css"><![CDATA[
.edge:hover path { stroke: red; }
.edge:hover polygon { stroke: red; fill: red; }
]]></style>
<script type="text/javascript"><![CDATA[
var edges = document.getElementsByTagName('g');
if (edges && edges.length) {
  for (var i=0;i<edges.length;i++) {
    if (edges[i].id.substr(0,4)=='edge') {
      edges[i].setAttribute('class','edge');
    }
  }
}
]]></script>
        <defs>
                <circle id="rim" cx="0" cy="0" r="7"/>
                <circle id="rim2" cx="0" cy="0" r="3.5"/>
                <g id="zoomPlus">
                        <use xlink:href="#rim" fill="#404040">
                                <set attributeName="fill" to="#808080" begin="zoomplus.mouseover" end="zoomplus.mouseout"/>
                        </use>
                        <path d="M-4,0h8M0,-4v8" fill="none" stroke="white" stroke-width="1.5" pointer-events="none"/>
                </g>
                <g id="zoomMin">
                        <use xlink:href="#rim" fill="#404040">
                                <set attributeName="fill" to="#808080" begin="zoomminus.mouseover" end="zoomminus.mouseout"/>
                        </use>
                        <path d="M-4,0h8" fill="none" stroke="white" stroke-width="1.5" pointer-events="none"/>
                </g>
                <g id="dirArrow">
                        <path fill="none" stroke="white" stroke-width="1.5" d="M0,-3.0v7 M-2.5,-0.5L0,-3.0L2.5,-0.5"/>
                </g>
               <g id="resetDef">
                       <use xlink:href="#rim2" fill="#404040">
                               <set attributeName="fill" to="#808080" begin="reset.mouseover" end="reset.mouseout"/>
                       </use>
               </g>
        </defs>

<script type="text/javascript">
var viewWidth = 1142;
var viewHeight = 485;
var sectionId = 'dynsection-1';
</script>
<script xlink:href="svgpan.js"/>
<svg id="graph" class="graph">
<g id="viewport">
<title>COM_window_init_done</title>
<!-- Node1 -->
<g id="node1" class="node"><title>Node1</title>
<polygon fill="#bfbfbf" stroke="black" points="0,-153.5 0,-172.5 122,-172.5 122,-153.5 0,-153.5"/>
<text text-anchor="middle" x="61" y="-160.5" font-family="Helvetica,sans-Serif" font-size="10.00">COM_window_init_done</text>
</g>
<!-- Node2 -->
<g id="node2" class="node"><title>Node2</title>
<g id="a_node2"><a xlink:href="classopenfoamagent_a9a8261713154978fa009d8cb2c533055.html#a9a8261713154978fa009d8cb2c533055" target="_top" xlink:title="openfoamagent::Initialize">
<polygon fill="none" stroke="black" points="171.5,-251.5 171.5,-270.5 296.5,-270.5 296.5,-251.5 171.5,-251.5"/>
<text text-anchor="middle" x="234" y="-258.5" font-family="Helvetica,sans-Serif" font-size="10.00">openfoamagent::Initialize</text>
</a>
</g>
</g>
<!-- Node1&#45;&gt;Node2 -->
<g id="edge1" class="edge"><title>Node1&#45;&gt;Node2</title>
<path fill="none" stroke="midnightblue" d="M78.0788,-180.118C95.9364,-198.128 126.433,-226.031 158,-242 165.551,-245.82 173.928,-248.91 182.266,-251.399"/>
<polygon fill="midnightblue" stroke="midnightblue" points="80.2793,-177.359 70.8049,-172.617 75.2542,-182.233 80.2793,-177.359"/>
</g>
<!-- Node17 -->
<g id="node17" class="node"><title>Node17</title>
<g id="a_node17"><a xlink:href="classopenfoamagentpar_a9a8261713154978fa009d8cb2c533055.html#a9a8261713154978fa009d8cb2c533055" target="_top" xlink:title="openfoamagentpar::Initialize">
<polygon fill="none" stroke="black" points="164.5,-213.5 164.5,-232.5 303.5,-232.5 303.5,-213.5 164.5,-213.5"/>
<text text-anchor="middle" x="234" y="-220.5" font-family="Helvetica,sans-Serif" font-size="10.00">openfoamagentpar::Initialize</text>
</a>
</g>
</g>
<!-- Node1&#45;&gt;Node17 -->
<g id="edge27" class="edge"><title>Node1&#45;&gt;Node17</title>
<path fill="none" stroke="midnightblue" d="M91.0806,-176.821C109.884,-185.406 135.046,-196.243 158,-204 168.435,-207.526 179.88,-210.743 190.617,-213.486"/>
<polygon fill="midnightblue" stroke="midnightblue" points="92.4186,-173.584 81.8728,-172.566 89.4818,-179.938 92.4186,-173.584"/>
</g>
<!-- Node19 -->
<g id="node19" class="node"><title>Node19</title>
<g id="a_node19"><a xlink:href="classelmeragent_a66d8ac5294227a11adf08cdfa91f59b5.html#a66d8ac5294227a11adf08cdfa91f59b5" target="_top" xlink:title="elmeragent::Initialize">
<polygon fill="none" stroke="black" points="180.5,-289.5 180.5,-308.5 287.5,-308.5 287.5,-289.5 180.5,-289.5"/>
<text text-anchor="middle" x="234" y="-296.5" font-family="Helvetica,sans-Serif" font-size="10.00">elmeragent::Initialize</text>
</a>
</g>
</g>
<!-- Node1&#45;&gt;Node19 -->
<g id="edge29" class="edge"><title>Node1&#45;&gt;Node19</title>
<path fill="none" stroke="midnightblue" d="M72.0259,-181.492C87.1419,-207.566 118.274,-254.766 158,-280 164.803,-284.321 172.537,-287.66 180.392,-290.241"/>
<polygon fill="midnightblue" stroke="midnightblue" points="74.9882,-179.619 67.0321,-172.623 68.8886,-183.054 74.9882,-179.619"/>
</g>
<!-- Node21 -->
<g id="node21" class="node"><title>Node21</title>
<g id="a_node21"><a xlink:href="classelmeragentpar_a66d8ac5294227a11adf08cdfa91f59b5.html#a66d8ac5294227a11adf08cdfa91f59b5" target="_top" xlink:title="elmeragentpar::Initialize">
<polygon fill="none" stroke="black" points="174,-175.5 174,-194.5 294,-194.5 294,-175.5 174,-175.5"/>
<text text-anchor="middle" x="234" y="-182.5" font-family="Helvetica,sans-Serif" font-size="10.00">elmeragentpar::Initialize</text>
</a>
</g>
</g>
<!-- Node1&#45;&gt;Node21 -->
<g id="edge34" class="edge"><title>Node1&#45;&gt;Node21</title>
<path fill="none" stroke="midnightblue" d="M132.232,-172.036C146.051,-173.814 160.42,-175.662 173.832,-177.388"/>
<polygon fill="midnightblue" stroke="midnightblue" points="132.653,-168.561 122.288,-170.756 131.76,-175.504 132.653,-168.561"/>
</g>
<!-- Node22 -->
<g id="node22" class="node"><title>Node22</title>
<g id="a_node22"><a xlink:href="classIcoFoamMod_1_1IcoFoamModule_a0163351bbf2a7fe37cedf5d673bd3ded.html#a0163351bbf2a7fe37cedf5d673bd3ded" target="_top" xlink:title="&quot;Loads&quot; IcoFoamModule ">
<polygon fill="none" stroke="black" points="159.5,-77 159.5,-107 308.5,-107 308.5,-77 159.5,-77"/>
<text text-anchor="start" x="167.5" y="-95" font-family="Helvetica,sans-Serif" font-size="10.00">IcoFoamMod::IcoFoamModule</text>
<text text-anchor="middle" x="234" y="-84" font-family="Helvetica,sans-Serif" font-size="10.00">::Load</text>
</a>
</g>
</g>
<!-- Node1&#45;&gt;Node22 -->
<g id="edge36" class="edge"><title>Node1&#45;&gt;Node22</title>
<path fill="none" stroke="midnightblue" d="M89.0745,-148.906C108.086,-139.289 134.256,-126.602 158,-117 166.525,-113.552 175.725,-110.197 184.663,-107.122"/>
<polygon fill="midnightblue" stroke="midnightblue" points="87.4135,-145.825 80.0981,-153.489 90.5961,-152.059 87.4135,-145.825"/>
</g>
<!-- Node24 -->
<g id="node24" class="node"><title>Node24</title>
<g id="a_node24"><a xlink:href="classSolverUtils_1_1TransferObjectPar_a735bf8439c33b9d8f45d213ff1a113d6.html#a735bf8439c33b9d8f45d213ff1a113d6" target="_top" xlink:title="SolverUtils::TransferObject\lPar::Overlay">
<polygon fill="none" stroke="black" points="166.5,-126 166.5,-156 301.5,-156 301.5,-126 166.5,-126"/>
<text text-anchor="start" x="174.5" y="-144" font-family="Helvetica,sans-Serif" font-size="10.00">SolverUtils::TransferObject</text>
<text text-anchor="middle" x="234" y="-133" font-family="Helvetica,sans-Serif" font-size="10.00">Par::Overlay</text>
</a>
</g>
</g>
<!-- Node1&#45;&gt;Node24 -->
<g id="edge38" class="edge"><title>Node1&#45;&gt;Node24</title>
<path fill="none" stroke="midnightblue" d="M132.44,-153.938C143.628,-152.498 155.172,-151.013 166.271,-149.585"/>
<polygon fill="midnightblue" stroke="midnightblue" points="131.76,-150.496 122.288,-155.244 132.653,-157.439 131.76,-150.496"/>
</g>
<!-- Node25 -->
<g id="node25" class="node"><title>Node25</title>
<g id="a_node25"><a xlink:href="namespaceSolverUtils_abd82bb11c3dd2f2f88ff31ca33755f5b.html#abd82bb11c3dd2f2f88ff31ca33755f5b" target="_top" xlink:title="SolverUtils::RegisterSolver">
<polygon fill="none" stroke="black" points="166.5,-38.5 166.5,-57.5 301.5,-57.5 301.5,-38.5 166.5,-38.5"/>
<text text-anchor="middle" x="234" y="-45.5" font-family="Helvetica,sans-Serif" font-size="10.00">SolverUtils::RegisterSolver</text>
</a>
</g>
</g>
<!-- Node1&#45;&gt;Node25 -->
<g id="edge40" class="edge"><title>Node1&#45;&gt;Node25</title>
<path fill="none" stroke="midnightblue" d="M75.1026,-145.274C91.9241,-123.788 123.133,-87.9812 158,-68 165.6,-63.6448 174.175,-60.2118 182.742,-57.5136"/>
<polygon fill="midnightblue" stroke="midnightblue" points="72.2898,-143.191 68.9972,-153.261 77.851,-147.442 72.2898,-143.191"/>
</g>
<!-- Node26 -->
<g id="node26" class="node"><title>Node26</title>
<g id="a_node26"><a xlink:href="namespaceSolverUtils_a4dc3eadf3c5b31e96ea58eaee60c4a59.html#a4dc3eadf3c5b31e96ea58eaee60c4a59" target="_top" xlink:title="SolverUtils::RegisterSolverInto">
<polygon fill="none" stroke="black" points="158,-0.5 158,-19.5 310,-19.5 310,-0.5 158,-0.5"/>
<text text-anchor="middle" x="234" y="-7.5" font-family="Helvetica,sans-Serif" font-size="10.00">SolverUtils::RegisterSolverInto</text>
</a>
</g>
</g>
<!-- Node1&#45;&gt;Node26 -->
<g id="edge41" class="edge"><title>Node1&#45;&gt;Node26</title>
<path fill="none" stroke="midnightblue" d="M70.1257,-144.335C83.8464,-115.083 114.435,-58.7167 158,-29 163.659,-25.1398 170.04,-22.0635 176.631,-19.6121"/>
<polygon fill="midnightblue" stroke="midnightblue" points="66.9286,-142.911 65.9823,-153.463 73.3027,-145.804 66.9286,-142.911"/>
</g>
<!-- Node3 -->
<g id="node3" class="node"><title>Node3</title>
<g id="a_node3"><a xlink:href="classElmerFoamFSI_1_1TestingObject_a08d0370a943e7c47c0098eb76664a71b.html#a08d0370a943e7c47c0098eb76664a71b" target="_top" xlink:title="Run an initialization check to make sure the OpenFoamFluids are running as they should. ">
<polygon fill="none" stroke="black" points="520.5,-104 520.5,-134 669.5,-134 669.5,-104 520.5,-104"/>
<text text-anchor="start" x="528.5" y="-122" font-family="Helvetica,sans-Serif" font-size="10.00">ElmerFoamFSI::TestingObject</text>
<text text-anchor="middle" x="595" y="-111" font-family="Helvetica,sans-Serif" font-size="10.00">::Test__OpenFoamFluids</text>
</a>
</g>
</g>
<!-- Node2&#45;&gt;Node3 -->
<g id="edge2" class="edge"><title>Node2&#45;&gt;Node3</title>
<path fill="none" stroke="midnightblue" d="M306.842,-257.525C355.799,-251.959 419.857,-238.08 466,-204 491.015,-185.524 477.203,-162.767 502,-144 507.543,-139.805 513.744,-136.313 520.237,-133.407"/>
<polygon fill="midnightblue" stroke="midnightblue" points="306.218,-254.071 296.636,-258.591 306.945,-261.033 306.218,-254.071"/>
</g>
<!-- Node9 -->
<g id="node9" class="node"><title>Node9</title>
<g id="a_node9"><a xlink:href="classfsicoupling_ae855141f7b214925c25f7797b8b122a8.html#ae855141f7b214925c25f7797b8b122a8" target="_top" xlink:title="fsicoupling::Initialize">
<polygon fill="none" stroke="black" points="353.5,-280.5 353.5,-299.5 458.5,-299.5 458.5,-280.5 353.5,-280.5"/>
<text text-anchor="middle" x="406" y="-287.5" font-family="Helvetica,sans-Serif" font-size="10.00">fsicoupling::Initialize</text>
</a>
</g>
</g>
<!-- Node2&#45;&gt;Node9 -->
<g id="edge9" class="edge"><title>Node2&#45;&gt;Node9</title>
<path fill="none" stroke="midnightblue" d="M301.162,-272.286C318.444,-275.235 336.82,-278.369 353.234,-281.169"/>
<polygon fill="midnightblue" stroke="midnightblue" points="301.582,-268.808 291.135,-270.576 300.405,-275.708 301.582,-268.808"/>
</g>
<!-- Node4 -->
<g id="node4" class="node"><title>Node4</title>
<g id="a_node4"><a xlink:href="classElmerFoamFSI_1_1TestingObject_a046f7ab06db0acf616b0d2bf3d3146aa.html#a046f7ab06db0acf616b0d2bf3d3146aa" target="_top" xlink:title="Runs all tests implemented by the ElmerFoamFSI::TestingObject. ">
<polygon fill="none" stroke="black" points="724.5,-275 724.5,-305 873.5,-305 873.5,-275 724.5,-275"/>
<text text-anchor="start" x="732.5" y="-293" font-family="Helvetica,sans-Serif" font-size="10.00">ElmerFoamFSI::TestingObject</text>
<text text-anchor="middle" x="799" y="-282" font-family="Helvetica,sans-Serif" font-size="10.00">::Process</text>
</a>
</g>
</g>
<!-- Node3&#45;&gt;Node4 -->
<g id="edge3" class="edge"><title>Node3&#45;&gt;Node4</title>
<path fill="none" stroke="midnightblue" d="M678.47,-136.377C681.881,-138.625 685.086,-141.154 688,-144 728.144,-183.198 685.059,-224.606 724,-265 727.765,-268.905 732.159,-272.2 736.896,-274.981"/>
<polygon fill="midnightblue" stroke="midnightblue" points="680.035,-133.241 669.611,-131.349 676.58,-139.329 680.035,-133.241"/>
</g>
<!-- Node7 -->
<g id="node7" class="node"><title>Node7</title>
<g id="a_node7"><a xlink:href="classElmerFoamFSI_1_1TestingObject_af1f07f14b9af7708e4264bb38937eed2.html#af1f07f14b9af7708e4264bb38937eed2" target="_top" xlink:title="Runs a test specified by name. ">
<polygon fill="none" stroke="black" points="724.5,-226 724.5,-256 873.5,-256 873.5,-226 724.5,-226"/>
<text text-anchor="start" x="732.5" y="-244" font-family="Helvetica,sans-Serif" font-size="10.00">ElmerFoamFSI::TestingObject</text>
<text text-anchor="middle" x="799" y="-233" font-family="Helvetica,sans-Serif" font-size="10.00">::RunTest</text>
</a>
</g>
</g>
<!-- Node3&#45;&gt;Node7 -->
<g id="edge6" class="edge"><title>Node3&#45;&gt;Node7</title>
<path fill="none" stroke="midnightblue" d="M674.713,-137.723C679.296,-139.63 683.76,-141.717 688,-144 728.127,-165.61 765.919,-204.424 785.023,-225.818"/>
<polygon fill="midnightblue" stroke="midnightblue" points="675.763,-134.377 665.173,-134.06 673.253,-140.912 675.763,-134.377"/>
</g>
<!-- Node5 -->
<g id="node5" class="node"><title>Node5</title>
<g id="a_node5"><a xlink:href="namespaceElmerFoamFSI_aeb590657609088b8ab12a5cbd164fcfa.html#aeb590657609088b8ab12a5cbd164fcfa" target="_top" xlink:title="Drives the ElmerFoamFSI::TestObject. ">
<polygon fill="none" stroke="black" points="931,-277.5 931,-296.5 1039,-296.5 1039,-277.5 931,-277.5"/>
<text text-anchor="middle" x="985" y="-284.5" font-family="Helvetica,sans-Serif" font-size="10.00">ElmerFoamFSI::Test</text>
</a>
</g>
</g>
<!-- Node4&#45;&gt;Node5 -->
<g id="edge4" class="edge"><title>Node4&#45;&gt;Node5</title>
<path fill="none" stroke="midnightblue" d="M883.963,-288.631C899.966,-288.37 916.296,-288.104 930.996,-287.864"/>
<polygon fill="midnightblue" stroke="midnightblue" points="883.457,-285.139 873.515,-288.801 883.571,-292.138 883.457,-285.139"/>
</g>
<!-- Node6 -->
<g id="node6" class="node"><title>Node6</title>
<g id="a_node6"><a xlink:href="TestElmerFoamFSI_8C_a0ddf1224851353fc92bfbff6f499fa97.html#a0ddf1224851353fc92bfbff6f499fa97" target="_top" xlink:title="main">
<polygon fill="none" stroke="black" points="1096,-277.5 1096,-296.5 1134,-296.5 1134,-277.5 1096,-277.5"/>
<text text-anchor="middle" x="1115" y="-284.5" font-family="Helvetica,sans-Serif" font-size="10.00">main</text>
</a>
</g>
</g>
<!-- Node5&#45;&gt;Node6 -->
<g id="edge5" class="edge"><title>Node5&#45;&gt;Node6</title>
<path fill="none" stroke="midnightblue" d="M1049.19,-287C1066.29,-287 1083.47,-287 1095.84,-287"/>
<polygon fill="midnightblue" stroke="midnightblue" points="1049.17,-283.5 1039.17,-287 1049.17,-290.5 1049.17,-283.5"/>
</g>
<!-- Node8 -->
<g id="node8" class="node"><title>Node8</title>
<g id="a_node8"><a xlink:href="classElmerFoamFSI_1_1TestingObject_a21159bd2efac623e5a5079f6a20f3444.html#a21159bd2efac623e5a5079f6a20f3444" target="_top" xlink:title="Runs a list of tests specified by name. ">
<polygon fill="none" stroke="black" points="910.5,-226 910.5,-256 1059.5,-256 1059.5,-226 910.5,-226"/>
<text text-anchor="start" x="918.5" y="-244" font-family="Helvetica,sans-Serif" font-size="10.00">ElmerFoamFSI::TestingObject</text>
<text text-anchor="middle" x="985" y="-233" font-family="Helvetica,sans-Serif" font-size="10.00">::ProcessTests</text>
</a>
</g>
</g>
<!-- Node7&#45;&gt;Node8 -->
<g id="edge7" class="edge"><title>Node7&#45;&gt;Node8</title>
<path fill="none" stroke="midnightblue" d="M883.533,-241C892.462,-241 901.498,-241 910.302,-241"/>
<polygon fill="midnightblue" stroke="midnightblue" points="883.515,-237.5 873.515,-241 883.515,-244.5 883.515,-237.5"/>
</g>
<!-- Node7&#45;&gt;Node5 -->
<g id="edge8" class="edge"><title>Node7&#45;&gt;Node5</title>
<path fill="none" stroke="midnightblue" d="M869.986,-258.497C895.754,-264.939 923.97,-271.992 945.886,-277.471"/>
<polygon fill="midnightblue" stroke="midnightblue" points="870.799,-255.092 860.248,-256.062 869.101,-261.883 870.799,-255.092"/>
</g>
<!-- Node10 -->
<g id="node10" class="node"><title>Node10</title>
<g id="a_node10"><a xlink:href="classElmerFoamFSI_1_1SerialDriverProgram_a5803949d99491a7186bf1ee9cee81a3b.html#a5803949d99491a7186bf1ee9cee81a3b" target="_top" xlink:title="This function implements the main function executed by the program. ">
<polygon fill="none" stroke="black" points="525,-447 525,-477 665,-477 665,-447 525,-447"/>
<text text-anchor="start" x="533" y="-465" font-family="Helvetica,sans-Serif" font-size="10.00">ElmerFoamFSI::SerialDriver</text>
<text text-anchor="middle" x="595" y="-454" font-family="Helvetica,sans-Serif" font-size="10.00">Program::DriverRun</text>
</a>
</g>
</g>
<!-- Node9&#45;&gt;Node10 -->
<g id="edge10" class="edge"><title>Node9&#45;&gt;Node10</title>
<path fill="none" stroke="midnightblue" d="M414.011,-309.036C426.62,-340.572 456.156,-403.491 502,-437 508.815,-441.981 516.566,-445.97 524.609,-449.164"/>
<polygon fill="midnightblue" stroke="midnightblue" points="417.249,-307.703 410.385,-299.632 410.718,-310.222 417.249,-307.703"/>
</g>
<!-- Node12 -->
<g id="node12" class="node"><title>Node12</title>
<g id="a_node12"><a xlink:href="classElmerFoamFSI_1_1TestingObject_a07ff57097065c5066a4421176b63242b.html#a07ff57097065c5066a4421176b63242b" target="_top" xlink:title="Test the functionality of the fsiCoupler. ">
<polygon fill="none" stroke="black" points="520.5,-153 520.5,-183 669.5,-183 669.5,-153 520.5,-153"/>
<text text-anchor="start" x="528.5" y="-171" font-family="Helvetica,sans-Serif" font-size="10.00">ElmerFoamFSI::TestingObject</text>
<text text-anchor="middle" x="595" y="-160" font-family="Helvetica,sans-Serif" font-size="10.00">::Test__FsiCoupler</text>
</a>
</g>
</g>
<!-- Node9&#45;&gt;Node12 -->
<g id="edge12" class="edge"><title>Node9&#45;&gt;Node12</title>
<path fill="none" stroke="midnightblue" d="M438.564,-275.838C448.125,-270.543 458.159,-263.87 466,-256 488.762,-233.155 476.494,-212.734 502,-193 507.498,-188.746 513.669,-185.215 520.143,-182.284"/>
<polygon fill="midnightblue" stroke="midnightblue" points="436.885,-272.766 429.63,-280.486 440.116,-278.976 436.885,-272.766"/>
</g>
<!-- Node13 -->
<g id="node13" class="node"><title>Node13</title>
<g id="a_node13"><a xlink:href="classElmerFoamFSI_1_1TestingObject_abb3c0f68a2d2e212fa6e05e4628c78f0.html#abb3c0f68a2d2e212fa6e05e4628c78f0" target="_top" xlink:title="Test for fsiCoupling::TrasferDisplacementsToFluid function. ">
<polygon fill="none" stroke="black" points="502,-349 502,-379 688,-379 688,-349 502,-349"/>
<text text-anchor="start" x="510" y="-367" font-family="Helvetica,sans-Serif" font-size="10.00">ElmerFoamFSI::TestingObject</text>
<text text-anchor="middle" x="595" y="-356" font-family="Helvetica,sans-Serif" font-size="10.00">::Test__TransferDisplacementsToFluid</text>
</a>
</g>
</g>
<!-- Node9&#45;&gt;Node13 -->
<g id="edge15" class="edge"><title>Node9&#45;&gt;Node13</title>
<path fill="none" stroke="midnightblue" d="M431.785,-304.623C450.573,-315.249 477.289,-329.394 502,-339 511.41,-342.658 521.56,-345.993 531.561,-348.95"/>
<polygon fill="midnightblue" stroke="midnightblue" points="433.405,-301.518 422.989,-299.578 429.922,-307.589 433.405,-301.518"/>
</g>
<!-- Node14 -->
<g id="node14" class="node"><title>Node14</title>
<g id="a_node14"><a xlink:href="classElmerFoamFSI_1_1TestingObject_aa7d577bcec96bb12da930ede076b6023.html#aa7d577bcec96bb12da930ede076b6023" target="_top" xlink:title="Test for fluidAgent&#45;&gt;Run() function. ">
<polygon fill="none" stroke="black" points="520.5,-300 520.5,-330 669.5,-330 669.5,-300 520.5,-300"/>
<text text-anchor="start" x="528.5" y="-318" font-family="Helvetica,sans-Serif" font-size="10.00">ElmerFoamFSI::TestingObject</text>
<text text-anchor="middle" x="595" y="-307" font-family="Helvetica,sans-Serif" font-size="10.00">::Test__FluidAgentRun</text>
</a>
</g>
</g>
<!-- Node9&#45;&gt;Node14 -->
<g id="edge18" class="edge"><title>Node9&#45;&gt;Node14</title>
<path fill="none" stroke="midnightblue" d="M468.641,-298.241C485.125,-300.445 503.109,-302.849 520.177,-305.131"/>
<polygon fill="midnightblue" stroke="midnightblue" points="468.969,-294.754 458.594,-296.898 468.042,-301.692 468.969,-294.754"/>
</g>
<!-- Node15 -->
<g id="node15" class="node"><title>Node15</title>
<g id="a_node15"><a xlink:href="classElmerFoamFSI_1_1TestingObject_a8c738943eca358248eb583bd29c5c332.html#a8c738943eca358248eb583bd29c5c332" target="_top" xlink:title="Test for TransferLoadsToStructures() function. ">
<polygon fill="none" stroke="black" points="509.5,-251 509.5,-281 680.5,-281 680.5,-251 509.5,-251"/>
<text text-anchor="start" x="517.5" y="-269" font-family="Helvetica,sans-Serif" font-size="10.00">ElmerFoamFSI::TestingObject</text>
<text text-anchor="middle" x="595" y="-258" font-family="Helvetica,sans-Serif" font-size="10.00">::Test__TransferLoadsToStructures</text>
</a>
</g>
</g>
<!-- Node9&#45;&gt;Node15 -->
<g id="edge21" class="edge"><title>Node9&#45;&gt;Node15</title>
<path fill="none" stroke="midnightblue" d="M468.755,-282.074C481.7,-280.413 495.567,-278.633 509.185,-276.885"/>
<polygon fill="midnightblue" stroke="midnightblue" points="468.067,-278.634 458.594,-283.378 468.958,-285.577 468.067,-278.634"/>
</g>
<!-- Node16 -->
<g id="node16" class="node"><title>Node16</title>
<g id="a_node16"><a xlink:href="classElmerFoamFSI_1_1TestingObject_a1fae1ccecf337df1572d5a43cdae1a08.html#a1fae1ccecf337df1572d5a43cdae1a08" target="_top" xlink:title="Test for solidAgent&#45;&gt;Run() function. ">
<polygon fill="none" stroke="black" points="520.5,-202 520.5,-232 669.5,-232 669.5,-202 520.5,-202"/>
<text text-anchor="start" x="528.5" y="-220" font-family="Helvetica,sans-Serif" font-size="10.00">ElmerFoamFSI::TestingObject</text>
<text text-anchor="middle" x="595" y="-209" font-family="Helvetica,sans-Serif" font-size="10.00">::Test__SolidAgentRun</text>
</a>
</g>
</g>
<!-- Node9&#45;&gt;Node16 -->
<g id="edge24" class="edge"><title>Node9&#45;&gt;Node16</title>
<path fill="none" stroke="midnightblue" d="M432.162,-275.519C450.951,-265.147 477.502,-251.406 502,-242 511.426,-238.381 521.583,-235.067 531.588,-232.119"/>
<polygon fill="midnightblue" stroke="midnightblue" points="430.368,-272.512 423.351,-280.45 433.787,-278.62 430.368,-272.512"/>
</g>
<!-- Node11 -->
<g id="node11" class="node"><title>Node11</title>
<g id="a_node11"><a xlink:href="namespaceElmerFoamFSI_aff46f457934a8e2d3712bdbfb1688e99.html#aff46f457934a8e2d3712bdbfb1688e99" target="_top" xlink:title="Unified driver for the example programs. ">
<polygon fill="none" stroke="black" points="741.5,-452.5 741.5,-471.5 856.5,-471.5 856.5,-452.5 741.5,-452.5"/>
<text text-anchor="middle" x="799" y="-459.5" font-family="Helvetica,sans-Serif" font-size="10.00">ElmerFoamFSI::Driver</text>
</a>
</g>
</g>
<!-- Node10&#45;&gt;Node11 -->
<g id="edge11" class="edge"><title>Node10&#45;&gt;Node11</title>
<path fill="none" stroke="midnightblue" d="M675.243,-462C697.284,-462 720.777,-462 741.247,-462"/>
<polygon fill="midnightblue" stroke="midnightblue" points="675.234,-458.5 665.234,-462 675.234,-465.5 675.234,-458.5"/>
</g>
<!-- Node12&#45;&gt;Node4 -->
<g id="edge13" class="edge"><title>Node12&#45;&gt;Node4</title>
<path fill="none" stroke="midnightblue" d="M678.654,-186.477C681.939,-188.437 685.075,-190.604 688,-193 715.678,-215.67 697.02,-241.504 724,-265 728.397,-268.829 733.405,-272.078 738.695,-274.832"/>
<polygon fill="midnightblue" stroke="midnightblue" points="680.132,-183.299 669.65,-181.755 676.881,-189.499 680.132,-183.299"/>
</g>
<!-- Node12&#45;&gt;Node7 -->
<g id="edge14" class="edge"><title>Node12&#45;&gt;Node7</title>
<path fill="none" stroke="midnightblue" d="M666.056,-185.886C673.512,-188.131 680.944,-190.517 688,-193 715.123,-202.546 744.969,-215.748 766.72,-225.891"/>
<polygon fill="midnightblue" stroke="midnightblue" points="666.852,-182.472 656.271,-183.019 664.884,-189.19 666.852,-182.472"/>
</g>
<!-- Node13&#45;&gt;Node4 -->
<g id="edge16" class="edge"><title>Node13&#45;&gt;Node4</title>
<path fill="none" stroke="midnightblue" d="M666.667,-345.989C673.92,-343.786 681.14,-341.444 688,-339 715.572,-329.179 745.885,-315.445 767.695,-305.015"/>
<polygon fill="midnightblue" stroke="midnightblue" points="665.387,-342.718 656.786,-348.905 667.368,-349.432 665.387,-342.718"/>
</g>
<!-- Node13&#45;&gt;Node7 -->
<g id="edge17" class="edge"><title>Node13&#45;&gt;Node7</title>
<path fill="none" stroke="midnightblue" d="M681.499,-343.771C683.758,-342.291 685.932,-340.703 688,-339 715.923,-316.001 696.785,-289.832 724,-266 728.387,-262.159 733.388,-258.902 738.673,-256.143"/>
<polygon fill="midnightblue" stroke="midnightblue" points="679.358,-340.963 672.412,-348.964 682.831,-347.041 679.358,-340.963"/>
</g>
<!-- Node14&#45;&gt;Node4 -->
<g id="edge19" class="edge"><title>Node14&#45;&gt;Node4</title>
<path fill="none" stroke="midnightblue" d="M679.913,-304.615C694.683,-302.787 709.955,-300.897 724.416,-299.107"/>
<polygon fill="midnightblue" stroke="midnightblue" points="679.278,-301.166 669.784,-305.868 680.138,-308.113 679.278,-301.166"/>
</g>
<!-- Node14&#45;&gt;Node7 -->
<g id="edge20" class="edge"><title>Node14&#45;&gt;Node7</title>
<path fill="none" stroke="midnightblue" d="M671.407,-296.675C677.101,-294.636 682.691,-292.413 688,-290 705.506,-282.042 706.743,-274.484 724,-266 731.423,-262.351 739.511,-259.021 747.524,-256.066"/>
<polygon fill="midnightblue" stroke="midnightblue" points="670.113,-293.417 661.759,-299.933 672.353,-300.049 670.113,-293.417"/>
</g>
<!-- Node15&#45;&gt;Node4 -->
<g id="edge22" class="edge"><title>Node15&#45;&gt;Node4</title>
<path fill="none" stroke="midnightblue" d="M691.02,-277.29C702.209,-278.619 713.496,-279.96 724.329,-281.247"/>
<polygon fill="midnightblue" stroke="midnightblue" points="691.131,-273.778 680.788,-276.074 690.305,-280.729 691.131,-273.778"/>
</g>
<!-- Node15&#45;&gt;Node7 -->
<g id="edge23" class="edge"><title>Node15&#45;&gt;Node7</title>
<path fill="none" stroke="midnightblue" d="M691.02,-254.24C702.209,-252.855 713.496,-251.458 724.329,-250.118"/>
<polygon fill="midnightblue" stroke="midnightblue" points="690.283,-250.805 680.788,-255.506 691.142,-257.752 690.283,-250.805"/>
</g>
<!-- Node16&#45;&gt;Node4 -->
<g id="edge25" class="edge"><title>Node16&#45;&gt;Node4</title>
<path fill="none" stroke="midnightblue" d="M671.044,-235.331C676.857,-237.374 682.571,-239.595 688,-242 705.36,-249.689 706.88,-256.79 724,-265 731.581,-268.635 739.83,-271.976 747.98,-274.952"/>
<polygon fill="midnightblue" stroke="midnightblue" points="671.795,-231.893 661.201,-232.062 669.588,-238.536 671.795,-231.893"/>
</g>
<!-- Node16&#45;&gt;Node7 -->
<g id="edge26" class="edge"><title>Node16&#45;&gt;Node7</title>
<path fill="none" stroke="midnightblue" d="M679.913,-226.97C694.683,-228.725 709.955,-230.539 724.416,-232.257"/>
<polygon fill="midnightblue" stroke="midnightblue" points="680.127,-223.471 669.784,-225.766 679.301,-230.422 680.127,-223.471"/>
</g>
<!-- Node18 -->
<g id="node18" class="node"><title>Node18</title>
<g id="a_node18"><a xlink:href="classfsicouplingpar_ae855141f7b214925c25f7797b8b122a8.html#ae855141f7b214925c25f7797b8b122a8" target="_top" xlink:title="fsicouplingpar::Initialize">
<polygon fill="none" stroke="black" points="346.5,-175.5 346.5,-194.5 465.5,-194.5 465.5,-175.5 346.5,-175.5"/>
<text text-anchor="middle" x="406" y="-182.5" font-family="Helvetica,sans-Serif" font-size="10.00">fsicouplingpar::Initialize</text>
</a>
</g>
</g>
<!-- Node17&#45;&gt;Node18 -->
<g id="edge28" class="edge"><title>Node17&#45;&gt;Node18</title>
<path fill="none" stroke="midnightblue" d="M287.898,-211.176C311.865,-205.818 339.824,-199.569 362.41,-194.52"/>
<polygon fill="midnightblue" stroke="midnightblue" points="286.894,-207.814 277.898,-213.411 288.421,-214.645 286.894,-207.814"/>
</g>
<!-- Node20 -->
<g id="node20" class="node"><title>Node20</title>
<g id="a_node20"><a xlink:href="classElmerFoamFSI_1_1TestingObject_af35b4f0c5c244be91e637c17b3ebabd9.html#af35b4f0c5c244be91e637c17b3ebabd9" target="_top" xlink:title="Run an initialization check to make sure that the ElmerStructures are running as they should...">
<polygon fill="none" stroke="black" points="520.5,-398 520.5,-428 669.5,-428 669.5,-398 520.5,-398"/>
<text text-anchor="start" x="528.5" y="-416" font-family="Helvetica,sans-Serif" font-size="10.00">ElmerFoamFSI::TestingObject</text>
<text text-anchor="middle" x="595" y="-405" font-family="Helvetica,sans-Serif" font-size="10.00">::Test__ElmerStructures</text>
</a>
</g>
</g>
<!-- Node19&#45;&gt;Node20 -->
<g id="edge30" class="edge"><title>Node19&#45;&gt;Node20</title>
<path fill="none" stroke="midnightblue" d="M271.772,-311.989C323.065,-329.94 419.127,-362.95 502,-388 513.09,-391.352 524.994,-394.741 536.438,-397.894"/>
<polygon fill="midnightblue" stroke="midnightblue" points="272.723,-308.614 262.128,-308.607 270.406,-315.219 272.723,-308.614"/>
</g>
<!-- Node19&#45;&gt;Node9 -->
<g id="edge33" class="edge"><title>Node19&#45;&gt;Node9</title>
<path fill="none" stroke="midnightblue" d="M298.087,-295.66C316.286,-294.697 335.924,-293.657 353.342,-292.735"/>
<polygon fill="midnightblue" stroke="midnightblue" points="297.658,-292.178 287.857,-296.202 298.028,-299.168 297.658,-292.178"/>
</g>
<!-- Node20&#45;&gt;Node4 -->
<g id="edge31" class="edge"><title>Node20&#45;&gt;Node4</title>
<path fill="none" stroke="midnightblue" d="M674.727,-394.302C679.306,-392.39 683.766,-390.294 688,-388 728.253,-366.189 765.995,-326.967 785.057,-305.345"/>
<polygon fill="midnightblue" stroke="midnightblue" points="673.265,-391.114 665.192,-397.976 675.782,-397.646 673.265,-391.114"/>
</g>
<!-- Node20&#45;&gt;Node7 -->
<g id="edge32" class="edge"><title>Node20&#45;&gt;Node7</title>
<path fill="none" stroke="midnightblue" d="M678.478,-395.631C681.887,-393.381 685.089,-390.849 688,-388 728.405,-348.459 684.809,-306.744 724,-266 727.76,-262.091 732.152,-258.793 736.886,-256.01"/>
<polygon fill="midnightblue" stroke="midnightblue" points="676.588,-392.679 669.622,-400.663 680.046,-398.766 676.588,-392.679"/>
</g>
<!-- Node21&#45;&gt;Node18 -->
<g id="edge35" class="edge"><title>Node21&#45;&gt;Node18</title>
<path fill="none" stroke="midnightblue" d="M304.478,-185C318.411,-185 332.919,-185 346.436,-185"/>
<polygon fill="midnightblue" stroke="midnightblue" points="304.458,-181.5 294.458,-185 304.458,-188.5 304.458,-181.5"/>
</g>
<!-- Node23 -->
<g id="node23" class="node"><title>Node23</title>
<g id="a_node23"><a xlink:href="icoFoamModule_8C_a6a4b606029cee6c85493fbaee4201ec5.html#a6a4b606029cee6c85493fbaee4201ec5" target="_top" xlink:title="C/C++ bindings to load IcoFoamModule. ">
<polygon fill="none" stroke="black" points="351,-77 351,-107 461,-107 461,-77 351,-77"/>
<text text-anchor="start" x="359" y="-95" font-family="Helvetica,sans-Serif" font-size="10.00">IcoFoamModule_load</text>
<text text-anchor="middle" x="406" y="-84" font-family="Helvetica,sans-Serif" font-size="10.00">_module</text>
</a>
</g>
</g>
<!-- Node22&#45;&gt;Node23 -->
<g id="edge37" class="edge"><title>Node22&#45;&gt;Node23</title>
<path fill="none" stroke="midnightblue" d="M318.595,-92C329.537,-92 340.511,-92 350.789,-92"/>
<polygon fill="midnightblue" stroke="midnightblue" points="318.576,-88.5001 308.576,-92 318.576,-95.5001 318.576,-88.5001"/>
</g>
<!-- Node24&#45;&gt;Node18 -->
<g id="edge39" class="edge"><title>Node24&#45;&gt;Node18</title>
<path fill="none" stroke="midnightblue" d="M302.814,-158.552C325.146,-164.332 349.131,-170.54 368.247,-175.488"/>
<polygon fill="midnightblue" stroke="midnightblue" points="303.587,-155.137 293.029,-156.019 301.833,-161.913 303.587,-155.137"/>
</g>
</g>
</svg>
        <g id="navigator" transform="translate(0 0)" fill="#404254">
                <rect fill="#f2f5e9" fill-opacity="0.5" stroke="#606060" stroke-width=".5" x="0" y="0" width="60" height="60"/>
                <use id="zoomplus" xlink:href="#zoomPlus" x="17" y="9" onmousedown="handleZoom(evt,'in')"/>
                <use id="zoomminus" xlink:href="#zoomMin" x="42" y="9" onmousedown="handleZoom(evt,'out')"/>
                <use id="reset" xlink:href="#resetDef" x="30" y="36" onmousedown="handleReset()"/>
                <g id="arrowUp" xlink:href="#dirArrow" transform="translate(30 24)" onmousedown="handlePan(0,-1)">
                  <use xlink:href="#rim" fill="#404040">
                        <set attributeName="fill" to="#808080" begin="arrowUp.mouseover" end="arrowUp.mouseout"/>
                  </use>
                  <path fill="none" stroke="white" stroke-width="1.5" d="M0,-3.0v7 M-2.5,-0.5L0,-3.0L2.5,-0.5"/>
                </g>
                <g id="arrowRight" xlink:href="#dirArrow" transform="rotate(90) translate(36 -43)" onmousedown="handlePan(1,0)">
                  <use xlink:href="#rim" fill="#404040">
                        <set attributeName="fill" to="#808080" begin="arrowRight.mouseover" end="arrowRight.mouseout"/>
                  </use>
                  <path fill="none" stroke="white" stroke-width="1.5" d="M0,-3.0v7 M-2.5,-0.5L0,-3.0L2.5,-0.5"/>
                </g>
                <g id="arrowDown" xlink:href="#dirArrow" transform="rotate(180) translate(-30 -48)" onmousedown="handlePan(0,1)">
                  <use xlink:href="#rim" fill="#404040">
                        <set attributeName="fill" to="#808080" begin="arrowDown.mouseover" end="arrowDown.mouseout"/>
                  </use>
                  <path fill="none" stroke="white" stroke-width="1.5" d="M0,-3.0v7 M-2.5,-0.5L0,-3.0L2.5,-0.5"/>
                </g>
                <g id="arrowLeft" xlink:href="#dirArrow" transform="rotate(270) translate(-36 17)" onmousedown="handlePan(-1,0)">
                  <use xlink:href="#rim" fill="#404040">
                        <set attributeName="fill" to="#808080" begin="arrowLeft.mouseover" end="arrowLeft.mouseout"/>
                  </use>
                  <path fill="none" stroke="white" stroke-width="1.5" d="M0,-3.0v7 M-2.5,-0.5L0,-3.0L2.5,-0.5"/>
                </g>
        </g>
        <svg viewBox="0 0 15 15" width="100%" height="30px" preserveAspectRatio="xMaxYMin meet">
         <g id="arrow_out" transform="scale(0.3 0.3)">
          <a xlink:href="com__c_09_09_8hpp_a194cf98ab438699fba9f1d1705044e70_a194cf98ab438699fba9f1d1705044e70_icgraph_org.svg" target="_base">
           <rect id="button" ry="5" rx="5" y="6" x="6" height="38" width="38"
                fill="#f2f5e9" fill-opacity="0.5" stroke="#606060" stroke-width="1.0"/>
           <path id="arrow"
             d="M 11.500037,31.436501 C 11.940474,20.09759 22.043105,11.32322 32.158766,21.979434 L 37.068811,17.246167 C 37.068811,17.246167 37.088388,32 37.088388,32 L 22.160133,31.978069 C 22.160133,31.978069 26.997745,27.140456 26.997745,27.140456 C 18.528582,18.264221 13.291696,25.230495 11.500037,31.436501 z"
             style="fill:#404040;"/>
          </a>
         </g>
        </svg>
</svg>
