<?xml version="1.0" encoding="UTF-8" standalone="no"?>
<!DOCTYPE svg PUBLIC "-//W3C//DTD SVG 1.1//EN"
 "http://www.w3.org/Graphics/SVG/1.1/DTD/svg11.dtd">
<!-- Generated by graphviz version 2.30.1 (20150305.2338)
 -->
<!-- Title: COM_delete_window Pages: 1 -->
<svg width="644pt" height="164pt"
 viewBox="0.00 0.00 644.00 164.00" xmlns="http://www.w3.org/2000/svg" xmlns:xlink="http://www.w3.org/1999/xlink">
<g id="graph0" class="graph" transform="scale(1 1) rotate(0) translate(4 160)">
<title>COM_delete_window</title>
<!-- Node1 -->
<g id="node1" class="node"><title>Node1</title>
<polygon fill="#bfbfbf" stroke="black" points="0,-76.5 0,-95.5 110,-95.5 110,-76.5 0,-76.5"/>
<text text-anchor="middle" x="55" y="-83.5" font-family="Helvetica,sans-Serif" font-size="10.00">COM_delete_window</text>
</g>
<!-- Node2 -->
<g id="node2" class="node"><title>Node2</title>
<g id="a_node2"><a xlink:href="namespaceSolverUtils_ada85c9258996a945bcfa817ffb6e6c51.html#ada85c9258996a945bcfa817ffb6e6c51" target="_top" xlink:title="SolverUtils::DestroySolver">
<polygon fill="none" stroke="black" points="154.5,-136.5 154.5,-155.5 287.5,-155.5 287.5,-136.5 154.5,-136.5"/>
<text text-anchor="middle" x="221" y="-143.5" font-family="Helvetica,sans-Serif" font-size="10.00">SolverUtils::DestroySolver</text>
</a>
</g>
</g>
<!-- Node1&#45;&gt;Node2 -->
<g id="edge1" class="edge"><title>Node1&#45;&gt;Node2</title>
<path fill="none" stroke="midnightblue" d="M88.2727,-99.5166C105.332,-106.507 126.686,-115.014 146,-122 159.971,-127.053 175.598,-132.195 188.879,-136.416"/>
<polygon fill="midnightblue" stroke="midnightblue" points="89.3519,-96.1758 78.7727,-95.5992 86.6833,-102.647 89.3519,-96.1758"/>
</g>
<!-- Node4 -->
<g id="node4" class="node"><title>Node4</title>
<g id="a_node4"><a xlink:href="classSolverUtils_1_1TransferObjectPar_a735bf8439c33b9d8f45d213ff1a113d6.html#a735bf8439c33b9d8f45d213ff1a113d6" target="_top" xlink:title="SolverUtils::TransferObject\lPar::Overlay">
<polygon fill="none" stroke="black" points="338.5,-68 338.5,-98 473.5,-98 473.5,-68 338.5,-68"/>
<text text-anchor="start" x="346.5" y="-86" font-family="Helvetica,sans-Serif" font-size="10.00">SolverUtils::TransferObject</text>
<text text-anchor="middle" x="406" y="-75" font-family="Helvetica,sans-Serif" font-size="10.00">Par::Overlay</text>
</a>
</g>
</g>
<!-- Node1&#45;&gt;Node4 -->
<g id="edge3" class="edge"><title>Node1&#45;&gt;Node4</title>
<path fill="none" stroke="midnightblue" d="M120.309,-87.603C128.945,-87.7674 137.688,-87.9077 146,-88 212.663,-88.7406 229.351,-89.5278 296,-88 309.73,-87.6852 324.426,-87.1478 338.439,-86.5389"/>
<polygon fill="midnightblue" stroke="midnightblue" points="120.32,-84.1026 110.252,-87.4005 120.179,-91.1012 120.32,-84.1026"/>
</g>
<!-- Node6 -->
<g id="node6" class="node"><title>Node6</title>
<g id="a_node6"><a xlink:href="classSolverUtils_1_1TransferObjectPar_a3bf689e70e300071bc1b010c1fedaae9.html#a3bf689e70e300071bc1b010c1fedaae9" target="_top" xlink:title="SolverUtils::TransferObject\lPar::read_file_rocin">
<polygon fill="none" stroke="black" points="153.5,-49 153.5,-79 288.5,-79 288.5,-49 153.5,-49"/>
<text text-anchor="start" x="161.5" y="-67" font-family="Helvetica,sans-Serif" font-size="10.00">SolverUtils::TransferObject</text>
<text text-anchor="middle" x="221" y="-56" font-family="Helvetica,sans-Serif" font-size="10.00">Par::read_file_rocin</text>
</a>
</g>
</g>
<!-- Node1&#45;&gt;Node6 -->
<g id="edge5" class="edge"><title>Node1&#45;&gt;Node6</title>
<path fill="none" stroke="midnightblue" d="M120.371,-77.3649C131.192,-75.9133 142.443,-74.404 153.321,-72.9448"/>
<polygon fill="midnightblue" stroke="midnightblue" points="119.6,-73.9368 110.154,-78.7354 120.531,-80.8747 119.6,-73.9368"/>
</g>
<!-- Node7 -->
<g id="node7" class="node"><title>Node7</title>
<g id="a_node7"><a xlink:href="classIcoFoamMod_1_1IcoFoamModule_a1103cacab6c0af000e9c5aa579a3fc5f.html#a1103cacab6c0af000e9c5aa579a3fc5f" target="_top" xlink:title="Unloads the IcoFoamModule. ">
<polygon fill="none" stroke="black" points="146.5,-0 146.5,-30 295.5,-30 295.5,-0 146.5,-0"/>
<text text-anchor="start" x="154.5" y="-18" font-family="Helvetica,sans-Serif" font-size="10.00">IcoFoamMod::IcoFoamModule</text>
<text text-anchor="middle" x="221" y="-7" font-family="Helvetica,sans-Serif" font-size="10.00">::Unload</text>
</a>
</g>
</g>
<!-- Node1&#45;&gt;Node7 -->
<g id="edge7" class="edge"><title>Node1&#45;&gt;Node7</title>
<path fill="none" stroke="midnightblue" d="M81.2965,-71.3304C99.0372,-61.4079 123.509,-48.4411 146,-39 153.596,-35.8111 161.774,-32.7793 169.825,-30.0107"/>
<polygon fill="midnightblue" stroke="midnightblue" points="79.1656,-68.5149 72.1885,-76.488 82.6149,-74.6061 79.1656,-68.5149"/>
</g>
<!-- Node3 -->
<g id="node3" class="node"><title>Node3</title>
<g id="a_node3"><a xlink:href="namespaceSolverUtils_ab41d23a53d2a634a1c6f547b487252be.html#ab41d23a53d2a634a1c6f547b487252be" target="_top" xlink:title="SolverUtils::UnRegisterSolver">
<polygon fill="none" stroke="black" points="332,-136.5 332,-155.5 480,-155.5 480,-136.5 332,-136.5"/>
<text text-anchor="middle" x="406" y="-143.5" font-family="Helvetica,sans-Serif" font-size="10.00">SolverUtils::UnRegisterSolver</text>
</a>
</g>
</g>
<!-- Node2&#45;&gt;Node3 -->
<g id="edge2" class="edge"><title>Node2&#45;&gt;Node3</title>
<path fill="none" stroke="midnightblue" d="M297.779,-146C309.039,-146 320.626,-146 331.831,-146"/>
<polygon fill="midnightblue" stroke="midnightblue" points="297.55,-142.5 287.55,-146 297.55,-149.5 297.55,-142.5"/>
</g>
<!-- Node5 -->
<g id="node5" class="node"><title>Node5</title>
<g id="a_node5"><a xlink:href="classfsicouplingpar_ae855141f7b214925c25f7797b8b122a8.html#ae855141f7b214925c25f7797b8b122a8" target="_top" xlink:title="fsicouplingpar::Initialize">
<polygon fill="none" stroke="black" points="516.5,-73.5 516.5,-92.5 635.5,-92.5 635.5,-73.5 516.5,-73.5"/>
<text text-anchor="middle" x="576" y="-80.5" font-family="Helvetica,sans-Serif" font-size="10.00">fsicouplingpar::Initialize</text>
</a>
</g>
</g>
<!-- Node4&#45;&gt;Node5 -->
<g id="edge4" class="edge"><title>Node4&#45;&gt;Node5</title>
<path fill="none" stroke="midnightblue" d="M484.213,-83C495.064,-83 506.066,-83 516.49,-83"/>
<polygon fill="midnightblue" stroke="midnightblue" points="483.881,-79.5001 473.881,-83 483.881,-86.5001 483.881,-79.5001"/>
</g>
<!-- Node6&#45;&gt;Node4 -->
<g id="edge6" class="edge"><title>Node6&#45;&gt;Node4</title>
<path fill="none" stroke="midnightblue" d="M298.608,-71.9538C311.849,-73.3286 325.518,-74.7478 338.465,-76.092"/>
<polygon fill="midnightblue" stroke="midnightblue" points="298.893,-68.4647 288.585,-70.9132 298.17,-75.4273 298.893,-68.4647"/>
</g>
<!-- Node8 -->
<g id="node8" class="node"><title>Node8</title>
<g id="a_node8"><a xlink:href="icoFoamModule_8C_ad3161c274f0cecf37126d9a51b82f9df.html#ad3161c274f0cecf37126d9a51b82f9df" target="_top" xlink:title="C/C++ bindings to unload IcoFoamModule. ">
<polygon fill="none" stroke="black" points="346,-0 346,-30 466,-30 466,-0 346,-0"/>
<text text-anchor="start" x="354" y="-18" font-family="Helvetica,sans-Serif" font-size="10.00">IcoFoamModule_unload</text>
<text text-anchor="middle" x="406" y="-7" font-family="Helvetica,sans-Serif" font-size="10.00">_module</text>
</a>
</g>
</g>
<!-- Node7&#45;&gt;Node8 -->
<g id="edge8" class="edge"><title>Node7&#45;&gt;Node8</title>
<path fill="none" stroke="midnightblue" d="M305.892,-15C319.378,-15 333.087,-15 345.834,-15"/>
<polygon fill="midnightblue" stroke="midnightblue" points="305.642,-11.5001 295.642,-15 305.642,-18.5001 305.642,-11.5001"/>
</g>
</g>
</svg>
