<?xml version="1.0" encoding="UTF-8" standalone="no"?>
<!DOCTYPE svg PUBLIC "-//W3C//DTD SVG 1.1//EN"
 "http://www.w3.org/Graphics/SVG/1.1/DTD/svg11.dtd">
<!-- Generated by graphviz version 2.30.1 (20150305.2338)
 -->
<!-- Title: COM_get_communicator Pages: 1 -->
<svg width="462pt" height="77pt"
 viewBox="0.00 0.00 462.00 77.00" xmlns="http://www.w3.org/2000/svg" xmlns:xlink="http://www.w3.org/1999/xlink">
<g id="graph0" class="graph" transform="scale(1 1) rotate(0) translate(4 73)">
<title>COM_get_communicator</title>
<!-- Node1 -->
<g id="node1" class="node"><title>Node1</title>
<polygon fill="#bfbfbf" stroke="black" points="0.5,-27.5 0.5,-46.5 125.5,-46.5 125.5,-27.5 0.5,-27.5"/>
<text text-anchor="middle" x="63" y="-34.5" font-family="Helvetica,sans-Serif" font-size="10.00">COM_get_communicator</text>
</g>
<!-- Node2 -->
<g id="node2" class="node"><title>Node2</title>
<g id="a_node2"><a xlink:href="COM__base_8hpp_a49353596e53127db61529b5c9000549d.html#a49353596e53127db61529b5c9000549d" target="_top" xlink:title="COM_get_com">
<polygon fill="none" stroke="black" points="178.5,-49.5 178.5,-68.5 261.5,-68.5 261.5,-49.5 178.5,-49.5"/>
<text text-anchor="middle" x="220" y="-56.5" font-family="Helvetica,sans-Serif" font-size="10.00">COM_get_com</text>
</a>
</g>
</g>
<!-- Node1&#45;&gt;Node2 -->
<g id="edge1" class="edge"><title>Node1&#45;&gt;Node2</title>
<path fill="none" stroke="midnightblue" d="M125.705,-45.7582C139.833,-47.7634 154.692,-49.8724 168.295,-51.8032"/>
<polygon fill="midnightblue" stroke="midnightblue" points="168.027,-55.3001 178.42,-53.2402 169.011,-48.3696 168.027,-55.3001"/>
</g>
<!-- Node4 -->
<g id="node4" class="node"><title>Node4</title>
<g id="a_node4"><a xlink:href="classCOM_1_1COM__base_a52bdca9b27347e63319b7f526d996179.html#a52bdca9b27347e63319b7f526d996179" target="_top" xlink:title="COM::COM_base::get\l_communicator">
<polygon fill="none" stroke="black" points="162.5,-0 162.5,-30 277.5,-30 277.5,-0 162.5,-0"/>
<text text-anchor="start" x="170.5" y="-18" font-family="Helvetica,sans-Serif" font-size="10.00">COM::COM_base::get</text>
<text text-anchor="middle" x="220" y="-7" font-family="Helvetica,sans-Serif" font-size="10.00">_communicator</text>
</a>
</g>
</g>
<!-- Node1&#45;&gt;Node4 -->
<g id="edge3" class="edge"><title>Node1&#45;&gt;Node4</title>
<path fill="none" stroke="midnightblue" d="M125.705,-28.2418C134.383,-27.0102 143.336,-25.7395 152.104,-24.4949"/>
<polygon fill="midnightblue" stroke="midnightblue" points="152.876,-27.9205 162.285,-23.0499 151.892,-20.99 152.876,-27.9205"/>
</g>
<!-- Node3 -->
<g id="node3" class="node"><title>Node3</title>
<g id="a_node3"><a xlink:href="classCOM_1_1COM__base_a77bb770b9ec1aac99361c45efbccabc1.html#a77bb770b9ec1aac99361c45efbccabc1" target="_top" xlink:title="Get a pointer to the COM object. ">
<polygon fill="none" stroke="black" points="314.5,-49.5 314.5,-68.5 453.5,-68.5 453.5,-49.5 314.5,-49.5"/>
<text text-anchor="middle" x="384" y="-56.5" font-family="Helvetica,sans-Serif" font-size="10.00">COM::COM_base::get_com</text>
</a>
</g>
</g>
<!-- Node2&#45;&gt;Node3 -->
<g id="edge2" class="edge"><title>Node2&#45;&gt;Node3</title>
<path fill="none" stroke="midnightblue" d="M261.879,-59C274.826,-59 289.603,-59 304.279,-59"/>
<polygon fill="midnightblue" stroke="midnightblue" points="304.4,-62.5001 314.4,-59 304.4,-55.5001 304.4,-62.5001"/>
</g>
</g>
</svg>
