<?xml version="1.0" encoding="UTF-8" standalone="no"?>
<!DOCTYPE svg PUBLIC "-//W3C//DTD SVG 1.1//EN"
 "http://www.w3.org/Graphics/SVG/1.1/DTD/svg11.dtd">
<!-- Generated by graphviz version 2.30.1 (20150305.2338)
 -->
<!-- Title: com_devel.hpp Pages: 1 -->
<!--zoomable 420 -->
<svg id="main" version="1.1" xmlns="http://www.w3.org/2000/svg" xmlns:xlink="http://www.w3.org/1999/xlink" xml:space="preserve" onload="init(evt)">
<style type="text/css"><![CDATA[
.edge:hover path { stroke: red; }
.edge:hover polygon { stroke: red; fill: red; }
]]></style>
<script type="text/javascript"><![CDATA[
var edges = document.getElementsByTagName('g');
if (edges && edges.length) {
  for (var i=0;i<edges.length;i++) {
    if (edges[i].id.substr(0,4)=='edge') {
      edges[i].setAttribute('class','edge');
    }
  }
}
]]></script>
        <defs>
                <circle id="rim" cx="0" cy="0" r="7"/>
                <circle id="rim2" cx="0" cy="0" r="3.5"/>
                <g id="zoomPlus">
                        <use xlink:href="#rim" fill="#404040">
                                <set attributeName="fill" to="#808080" begin="zoomplus.mouseover" end="zoomplus.mouseout"/>
                        </use>
                        <path d="M-4,0h8M0,-4v8" fill="none" stroke="white" stroke-width="1.5" pointer-events="none"/>
                </g>
                <g id="zoomMin">
                        <use xlink:href="#rim" fill="#404040">
                                <set attributeName="fill" to="#808080" begin="zoomminus.mouseover" end="zoomminus.mouseout"/>
                        </use>
                        <path d="M-4,0h8" fill="none" stroke="white" stroke-width="1.5" pointer-events="none"/>
                </g>
                <g id="dirArrow">
                        <path fill="none" stroke="white" stroke-width="1.5" d="M0,-3.0v7 M-2.5,-0.5L0,-3.0L2.5,-0.5"/>
                </g>
               <g id="resetDef">
                       <use xlink:href="#rim2" fill="#404040">
                               <set attributeName="fill" to="#808080" begin="reset.mouseover" end="reset.mouseout"/>
                       </use>
               </g>
        </defs>

<script type="text/javascript">
var viewWidth = 509;
var viewHeight = 420;
var sectionId = 'dynsection-0';
</script>
<script xlink:href="svgpan.js"/>
<svg id="graph" class="graph">
<g id="viewport">
<title>com_devel.hpp</title>
<!-- Node1 -->
<g id="node1" class="node"><title>Node1</title>
<polygon fill="#bfbfbf" stroke="black" points="111.267,-392.5 111.267,-411.5 194.267,-411.5 194.267,-392.5 111.267,-392.5"/>
<text text-anchor="middle" x="152.767" y="-399.5" font-family="Helvetica,sans-Serif" font-size="10.00">com_devel.hpp</text>
</g>
<!-- Node2 -->
<g id="node2" class="node"><title>Node2</title>
<g id="a_node2"><a xlink:href="DataItem_8hpp.html" target="_top" xlink:title="DataItem.hpp">
<polygon fill="none" stroke="black" points="22.7673,-168.5 22.7673,-187.5 98.7673,-187.5 98.7673,-168.5 22.7673,-168.5"/>
<text text-anchor="middle" x="60.7673" y="-175.5" font-family="Helvetica,sans-Serif" font-size="10.00">DataItem.hpp</text>
</a>
</g>
</g>
<!-- Node1&#45;&gt;Node2 -->
<g id="edge1" class="edge"><title>Node1&#45;&gt;Node2</title>
<path fill="none" stroke="midnightblue" d="M139.276,-392.451C107.903,-371.654 30.6012,-314.88 2.76732,-244 -0.481728,-235.726 -1.1428,-231.983 2.76732,-224 9.28986,-210.684 21.8632,-200.177 33.6404,-192.676"/>
<polygon fill="midnightblue" stroke="midnightblue" points="35.5379,-195.621 42.3779,-187.529 31.9852,-189.589 35.5379,-195.621"/>
</g>
<!-- Node7 -->
<g id="node7" class="node"><title>Node7</title>
<g id="a_node7"><a xlink:href="Connectivity_8hpp.html" target="_top" xlink:title="Connectivity.hpp">
<polygon fill="none" stroke="black" points="11.7673,-224.5 11.7673,-243.5 101.767,-243.5 101.767,-224.5 11.7673,-224.5"/>
<text text-anchor="middle" x="56.7673" y="-231.5" font-family="Helvetica,sans-Serif" font-size="10.00">Connectivity.hpp</text>
</a>
</g>
</g>
<!-- Node1&#45;&gt;Node7 -->
<g id="edge7" class="edge"><title>Node1&#45;&gt;Node7</title>
<path fill="none" stroke="midnightblue" d="M146.037,-392.27C139.303,-383.371 128.815,-369.058 120.767,-356 98.9361,-320.578 77.0296,-277.008 65.3631,-253.005"/>
<polygon fill="midnightblue" stroke="midnightblue" points="68.3847,-251.213 60.8899,-243.725 62.0789,-254.252 68.3847,-251.213"/>
</g>
<!-- Node8 -->
<g id="node8" class="node"><title>Node8</title>
<g id="a_node8"><a xlink:href="Function_8hpp.html" target="_top" xlink:title="Contains the prototypes and implementation for the Funcion object. ">
<polygon fill="none" stroke="black" points="251.267,-280.5 251.267,-299.5 324.267,-299.5 324.267,-280.5 251.267,-280.5"/>
<text text-anchor="middle" x="287.767" y="-287.5" font-family="Helvetica,sans-Serif" font-size="10.00">Function.hpp</text>
</a>
</g>
</g>
<!-- Node1&#45;&gt;Node8 -->
<g id="edge9" class="edge"><title>Node1&#45;&gt;Node8</title>
<path fill="none" stroke="midnightblue" d="M194.479,-394.34C219.249,-388.315 249.487,-377.007 268.767,-356 280.309,-343.424 284.871,-324.206 286.657,-309.924"/>
<polygon fill="midnightblue" stroke="midnightblue" points="290.162,-310.025 287.575,-299.751 283.191,-309.396 290.162,-310.025"/>
</g>
<!-- Node13 -->
<g id="node13" class="node"><title>Node13</title>
<g id="a_node13"><a xlink:href="Pane_8hpp.html" target="_top" xlink:title="Pane.hpp">
<polygon fill="none" stroke="black" points="100.767,-280.5 100.767,-299.5 158.767,-299.5 158.767,-280.5 100.767,-280.5"/>
<text text-anchor="middle" x="129.767" y="-287.5" font-family="Helvetica,sans-Serif" font-size="10.00">Pane.hpp</text>
</a>
</g>
</g>
<!-- Node1&#45;&gt;Node13 -->
<g id="edge18" class="edge"><title>Node1&#45;&gt;Node13</title>
<path fill="none" stroke="midnightblue" d="M145.877,-392.319C139.498,-383.684 130.459,-369.77 126.767,-356 122.694,-340.809 123.939,-322.917 125.921,-309.755"/>
<polygon fill="midnightblue" stroke="midnightblue" points="129.424,-310.052 127.739,-299.592 122.533,-308.82 129.424,-310.052"/>
</g>
<!-- Node14 -->
<g id="node14" class="node"><title>Node14</title>
<g id="a_node14"><a xlink:href="ComponentInterface_8hpp.html" target="_top" xlink:title="Contains the prototypes for the ComponentInterface object. ">
<polygon fill="none" stroke="black" points="135.767,-336.5 135.767,-355.5 259.767,-355.5 259.767,-336.5 135.767,-336.5"/>
<text text-anchor="middle" x="197.767" y="-343.5" font-family="Helvetica,sans-Serif" font-size="10.00">ComponentInterface.hpp</text>
</a>
</g>
</g>
<!-- Node1&#45;&gt;Node14 -->
<g id="edge22" class="edge"><title>Node1&#45;&gt;Node14</title>
<path fill="none" stroke="midnightblue" d="M160.198,-392.083C166.62,-384.377 176.073,-373.033 183.89,-363.653"/>
<polygon fill="midnightblue" stroke="midnightblue" points="186.762,-365.674 190.475,-355.751 181.384,-361.193 186.762,-365.674"/>
</g>
<!-- Node12 -->
<g id="node12" class="node"><title>Node12</title>
<g id="a_node12"><a xlink:href="com__assertion_8h.html" target="_top" xlink:title="This file contains a set of routines for error assertion. ">
<polygon fill="none" stroke="black" points="412.267,-224.5 412.267,-243.5 501.267,-243.5 501.267,-224.5 412.267,-224.5"/>
<text text-anchor="middle" x="456.767" y="-231.5" font-family="Helvetica,sans-Serif" font-size="10.00">com_assertion.h</text>
</a>
</g>
</g>
<!-- Node1&#45;&gt;Node12 -->
<g id="edge26" class="edge"><title>Node1&#45;&gt;Node12</title>
<path fill="none" stroke="midnightblue" d="M188.315,-392.434C216.466,-384.905 256.314,-372.561 288.767,-356 348.504,-325.516 410.406,-275.192 439.585,-250.142"/>
<polygon fill="midnightblue" stroke="midnightblue" points="441.975,-252.702 447.236,-243.506 437.388,-247.414 441.975,-252.702"/>
</g>
<!-- Node3 -->
<g id="node3" class="node"><title>Node3</title>
<polygon fill="none" stroke="#bfbfbf" points="157.267,-56.5 157.267,-75.5 198.267,-75.5 198.267,-56.5 157.267,-56.5"/>
<text text-anchor="middle" x="177.767" y="-63.5" font-family="Helvetica,sans-Serif" font-size="10.00">string</text>
</g>
<!-- Node2&#45;&gt;Node3 -->
<g id="edge2" class="edge"><title>Node2&#45;&gt;Node3</title>
<path fill="none" stroke="midnightblue" d="M66.9545,-168.434C76.5687,-155.435 96.0487,-130.303 115.767,-112 127.885,-100.752 142.854,-89.8166 155.048,-81.5428"/>
<polygon fill="midnightblue" stroke="midnightblue" points="157.343,-84.2204 163.738,-75.7734 153.471,-78.3885 157.343,-84.2204"/>
</g>
<!-- Node4 -->
<g id="node4" class="node"><title>Node4</title>
<g id="a_node4"><a xlink:href="com__exception_8hpp.html" target="_top" xlink:title="com_exception.hpp">
<polygon fill="none" stroke="black" points="254.267,-112.5 254.267,-131.5 355.267,-131.5 355.267,-112.5 254.267,-112.5"/>
<text text-anchor="middle" x="304.767" y="-119.5" font-family="Helvetica,sans-Serif" font-size="10.00">com_exception.hpp</text>
</a>
</g>
</g>
<!-- Node2&#45;&gt;Node4 -->
<g id="edge3" class="edge"><title>Node2&#45;&gt;Node4</title>
<path fill="none" stroke="midnightblue" d="M98.8923,-168.562C141.348,-159.166 210.071,-143.957 256.309,-133.724"/>
<polygon fill="midnightblue" stroke="midnightblue" points="257.097,-137.135 266.105,-131.556 255.585,-130.3 257.097,-137.135"/>
</g>
<!-- Node5 -->
<g id="node5" class="node"><title>Node5</title>
<g id="a_node5"><a xlink:href="com__basic_8h.html" target="_top" xlink:title="This file contains some definitions of macros and constants for COM. ">
<polygon fill="none" stroke="black" points="347.767,-56.5 347.767,-75.5 419.767,-75.5 419.767,-56.5 347.767,-56.5"/>
<text text-anchor="middle" x="383.767" y="-63.5" font-family="Helvetica,sans-Serif" font-size="10.00">com_basic.h</text>
</a>
</g>
</g>
<!-- Node4&#45;&gt;Node5 -->
<g id="edge4" class="edge"><title>Node4&#45;&gt;Node5</title>
<path fill="none" stroke="midnightblue" d="M317.46,-112.324C329.668,-103.979 348.346,-91.2122 362.77,-81.3524"/>
<polygon fill="midnightblue" stroke="midnightblue" points="364.826,-84.1871 371.106,-75.6545 360.875,-78.4082 364.826,-84.1871"/>
</g>
<!-- Node4&#45;&gt;Node3 -->
<g id="edge6" class="edge"><title>Node4&#45;&gt;Node3</title>
<path fill="none" stroke="midnightblue" d="M284.644,-112.444C263.743,-103.557 230.833,-89.5632 207.051,-79.4514"/>
<polygon fill="midnightblue" stroke="midnightblue" points="208.369,-76.2085 197.797,-75.5164 205.63,-82.6504 208.369,-76.2085"/>
</g>
<!-- Node6 -->
<g id="node6" class="node"><title>Node6</title>
<g id="a_node6"><a xlink:href="FC_8h.html" target="_top" xlink:title="FC.h">
<polygon fill="none" stroke="black" points="364.767,-0.5 364.767,-19.5 402.767,-19.5 402.767,-0.5 364.767,-0.5"/>
<text text-anchor="middle" x="383.767" y="-7.5" font-family="Helvetica,sans-Serif" font-size="10.00">FC.h</text>
</a>
</g>
</g>
<!-- Node5&#45;&gt;Node6 -->
<g id="edge5" class="edge"><title>Node5&#45;&gt;Node6</title>
<path fill="none" stroke="midnightblue" d="M383.767,-56.083C383.767,-49.0059 383.767,-38.8611 383.767,-29.9865"/>
<polygon fill="midnightblue" stroke="midnightblue" points="387.267,-29.751 383.767,-19.7511 380.267,-29.7511 387.267,-29.751"/>
</g>
<!-- Node7&#45;&gt;Node2 -->
<g id="edge8" class="edge"><title>Node7&#45;&gt;Node2</title>
<path fill="none" stroke="midnightblue" d="M57.4278,-224.083C57.9521,-217.006 58.7035,-206.861 59.3609,-197.986"/>
<polygon fill="midnightblue" stroke="midnightblue" points="62.8707,-197.982 60.1191,-187.751 55.8898,-197.465 62.8707,-197.982"/>
</g>
<!-- Node8&#45;&gt;Node3 -->
<g id="edge10" class="edge"><title>Node8&#45;&gt;Node3</title>
<path fill="none" stroke="midnightblue" d="M278.737,-280.396C270.136,-271.818 257.274,-257.944 248.767,-244 215.924,-190.165 192.65,-118.458 182.886,-85.2738"/>
<polygon fill="midnightblue" stroke="midnightblue" points="186.226,-84.2221 180.099,-75.5785 179.498,-86.1563 186.226,-84.2221"/>
</g>
<!-- Node9 -->
<g id="node9" class="node"><title>Node9</title>
<polygon fill="none" stroke="#bfbfbf" points="157.767,-224.5 157.767,-243.5 201.767,-243.5 201.767,-224.5 157.767,-224.5"/>
<text text-anchor="middle" x="179.767" y="-231.5" font-family="Helvetica,sans-Serif" font-size="10.00">vector</text>
</g>
<!-- Node8&#45;&gt;Node9 -->
<g id="edge11" class="edge"><title>Node8&#45;&gt;Node9</title>
<path fill="none" stroke="midnightblue" d="M270.415,-280.324C253.095,-271.664 226.252,-258.242 206.265,-248.249"/>
<polygon fill="midnightblue" stroke="midnightblue" points="207.586,-244.996 197.076,-243.655 204.455,-251.257 207.586,-244.996"/>
</g>
<!-- Node10 -->
<g id="node10" class="node"><title>Node10</title>
<g id="a_node10"><a xlink:href="commpi_8h.html" target="_top" xlink:title="Contains declarations of MPI subroutines used in COPM. ">
<polygon fill="none" stroke="black" points="258.267,-224.5 258.267,-243.5 317.267,-243.5 317.267,-224.5 258.267,-224.5"/>
<text text-anchor="middle" x="287.767" y="-231.5" font-family="Helvetica,sans-Serif" font-size="10.00">commpi.h</text>
</a>
</g>
</g>
<!-- Node8&#45;&gt;Node10 -->
<g id="edge12" class="edge"><title>Node8&#45;&gt;Node10</title>
<path fill="none" stroke="midnightblue" d="M287.767,-280.083C287.767,-273.006 287.767,-262.861 287.767,-253.986"/>
<polygon fill="midnightblue" stroke="midnightblue" points="291.267,-253.751 287.767,-243.751 284.267,-253.751 291.267,-253.751"/>
</g>
<!-- Node8&#45;&gt;Node5 -->
<g id="edge14" class="edge"><title>Node8&#45;&gt;Node5</title>
<path fill="none" stroke="midnightblue" d="M302.97,-280.483C315.562,-272.634 332.929,-259.82 342.767,-244 374.356,-193.203 381.643,-120.535 383.299,-86.2741"/>
<polygon fill="midnightblue" stroke="midnightblue" points="386.812,-85.9777 383.68,-75.8563 379.816,-85.7216 386.812,-85.9777"/>
</g>
<!-- Node8&#45;&gt;Node4 -->
<g id="edge15" class="edge"><title>Node8&#45;&gt;Node4</title>
<path fill="none" stroke="midnightblue" d="M298.482,-280.305C307.706,-272.069 320.358,-258.789 325.767,-244 338.59,-208.94 324.049,-165.237 313.577,-141.114"/>
<polygon fill="midnightblue" stroke="midnightblue" points="316.647,-139.413 309.297,-131.782 310.285,-142.331 316.647,-139.413"/>
</g>
<!-- Node8&#45;&gt;Node12 -->
<g id="edge16" class="edge"><title>Node8&#45;&gt;Node12</title>
<path fill="none" stroke="midnightblue" d="M314.546,-280.444C343.1,-271.32 388.5,-256.813 420.304,-246.651"/>
<polygon fill="midnightblue" stroke="midnightblue" points="421.654,-249.894 430.114,-243.516 419.523,-243.226 421.654,-249.894"/>
</g>
<!-- Node11 -->
<g id="node11" class="node"><title>Node11</title>
<polygon fill="none" stroke="#bfbfbf" points="267.267,-168.5 267.267,-187.5 308.267,-187.5 308.267,-168.5 267.267,-168.5"/>
<text text-anchor="middle" x="287.767" y="-175.5" font-family="Helvetica,sans-Serif" font-size="10.00">mpi.h</text>
</g>
<!-- Node10&#45;&gt;Node11 -->
<g id="edge13" class="edge"><title>Node10&#45;&gt;Node11</title>
<path fill="none" stroke="midnightblue" d="M287.767,-224.083C287.767,-217.006 287.767,-206.861 287.767,-197.986"/>
<polygon fill="midnightblue" stroke="midnightblue" points="291.267,-197.751 287.767,-187.751 284.267,-197.751 291.267,-197.751"/>
</g>
<!-- Node12&#45;&gt;Node5 -->
<g id="edge17" class="edge"><title>Node12&#45;&gt;Node5</title>
<path fill="none" stroke="midnightblue" d="M452.843,-224.075C441.302,-197.832 407.314,-120.545 391.734,-85.1165"/>
<polygon fill="midnightblue" stroke="midnightblue" points="394.765,-83.3131 387.535,-75.5681 388.357,-86.131 394.765,-83.3131"/>
</g>
<!-- Node13&#45;&gt;Node3 -->
<g id="edge19" class="edge"><title>Node13&#45;&gt;Node3</title>
<path fill="none" stroke="midnightblue" d="M131.649,-280.297C138.727,-247.563 163.848,-131.375 173.731,-85.6664"/>
<polygon fill="midnightblue" stroke="midnightblue" points="177.154,-86.3976 175.847,-75.8837 170.312,-84.9182 177.154,-86.3976"/>
</g>
<!-- Node13&#45;&gt;Node9 -->
<g id="edge20" class="edge"><title>Node13&#45;&gt;Node9</title>
<path fill="none" stroke="midnightblue" d="M138.024,-280.083C145.232,-272.298 155.877,-260.801 164.613,-251.367"/>
<polygon fill="midnightblue" stroke="midnightblue" points="167.439,-253.467 171.664,-243.751 162.302,-248.711 167.439,-253.467"/>
</g>
<!-- Node13&#45;&gt;Node7 -->
<g id="edge21" class="edge"><title>Node13&#45;&gt;Node7</title>
<path fill="none" stroke="midnightblue" d="M118.039,-280.324C106.93,-272.107 90.0252,-259.602 76.784,-249.807"/>
<polygon fill="midnightblue" stroke="midnightblue" points="78.8304,-246.967 68.7094,-243.834 74.6675,-252.595 78.8304,-246.967"/>
</g>
<!-- Node14&#45;&gt;Node8 -->
<g id="edge23" class="edge"><title>Node14&#45;&gt;Node8</title>
<path fill="none" stroke="midnightblue" d="M212.227,-336.324C226.267,-327.9 247.816,-314.971 264.31,-305.074"/>
<polygon fill="midnightblue" stroke="midnightblue" points="266.569,-307.801 273.343,-299.655 262.967,-301.798 266.569,-307.801"/>
</g>
<!-- Node14&#45;&gt;Node13 -->
<g id="edge24" class="edge"><title>Node14&#45;&gt;Node13</title>
<path fill="none" stroke="midnightblue" d="M186.842,-336.324C176.593,-328.185 161.047,-315.839 148.766,-306.087"/>
<polygon fill="midnightblue" stroke="midnightblue" points="150.899,-303.312 140.891,-299.834 146.546,-308.794 150.899,-303.312"/>
</g>
<!-- Node15 -->
<g id="node15" class="node"><title>Node15</title>
<polygon fill="none" stroke="#bfbfbf" points="180.267,-280.5 180.267,-299.5 215.267,-299.5 215.267,-280.5 180.267,-280.5"/>
<text text-anchor="middle" x="197.767" y="-287.5" font-family="Helvetica,sans-Serif" font-size="10.00">map</text>
</g>
<!-- Node14&#45;&gt;Node15 -->
<g id="edge25" class="edge"><title>Node14&#45;&gt;Node15</title>
<path fill="none" stroke="midnightblue" d="M197.767,-336.083C197.767,-329.006 197.767,-318.861 197.767,-309.986"/>
<polygon fill="midnightblue" stroke="midnightblue" points="201.267,-309.751 197.767,-299.751 194.267,-309.751 201.267,-309.751"/>
</g>
</g>
</svg>
        <g id="navigator" transform="translate(0 0)" fill="#404254">
                <rect fill="#f2f5e9" fill-opacity="0.5" stroke="#606060" stroke-width=".5" x="0" y="0" width="60" height="60"/>
                <use id="zoomplus" xlink:href="#zoomPlus" x="17" y="9" onmousedown="handleZoom(evt,'in')"/>
                <use id="zoomminus" xlink:href="#zoomMin" x="42" y="9" onmousedown="handleZoom(evt,'out')"/>
                <use id="reset" xlink:href="#resetDef" x="30" y="36" onmousedown="handleReset()"/>
                <g id="arrowUp" xlink:href="#dirArrow" transform="translate(30 24)" onmousedown="handlePan(0,-1)">
                  <use xlink:href="#rim" fill="#404040">
                        <set attributeName="fill" to="#808080" begin="arrowUp.mouseover" end="arrowUp.mouseout"/>
                  </use>
                  <path fill="none" stroke="white" stroke-width="1.5" d="M0,-3.0v7 M-2.5,-0.5L0,-3.0L2.5,-0.5"/>
                </g>
                <g id="arrowRight" xlink:href="#dirArrow" transform="rotate(90) translate(36 -43)" onmousedown="handlePan(1,0)">
                  <use xlink:href="#rim" fill="#404040">
                        <set attributeName="fill" to="#808080" begin="arrowRight.mouseover" end="arrowRight.mouseout"/>
                  </use>
                  <path fill="none" stroke="white" stroke-width="1.5" d="M0,-3.0v7 M-2.5,-0.5L0,-3.0L2.5,-0.5"/>
                </g>
                <g id="arrowDown" xlink:href="#dirArrow" transform="rotate(180) translate(-30 -48)" onmousedown="handlePan(0,1)">
                  <use xlink:href="#rim" fill="#404040">
                        <set attributeName="fill" to="#808080" begin="arrowDown.mouseover" end="arrowDown.mouseout"/>
                  </use>
                  <path fill="none" stroke="white" stroke-width="1.5" d="M0,-3.0v7 M-2.5,-0.5L0,-3.0L2.5,-0.5"/>
                </g>
                <g id="arrowLeft" xlink:href="#dirArrow" transform="rotate(270) translate(-36 17)" onmousedown="handlePan(-1,0)">
                  <use xlink:href="#rim" fill="#404040">
                        <set attributeName="fill" to="#808080" begin="arrowLeft.mouseover" end="arrowLeft.mouseout"/>
                  </use>
                  <path fill="none" stroke="white" stroke-width="1.5" d="M0,-3.0v7 M-2.5,-0.5L0,-3.0L2.5,-0.5"/>
                </g>
        </g>
        <svg viewBox="0 0 15 15" width="100%" height="30px" preserveAspectRatio="xMaxYMin meet">
         <g id="arrow_out" transform="scale(0.3 0.3)">
          <a xlink:href="com__devel_8hpp__incl_org.svg" target="_base">
           <rect id="button" ry="5" rx="5" y="6" x="6" height="38" width="38"
                fill="#f2f5e9" fill-opacity="0.5" stroke="#606060" stroke-width="1.0"/>
           <path id="arrow"
             d="M 11.500037,31.436501 C 11.940474,20.09759 22.043105,11.32322 32.158766,21.979434 L 37.068811,17.246167 C 37.068811,17.246167 37.088388,32 37.088388,32 L 22.160133,31.978069 C 22.160133,31.978069 26.997745,27.140456 26.997745,27.140456 C 18.528582,18.264221 13.291696,25.230495 11.500037,31.436501 z"
             style="fill:#404040;"/>
          </a>
         </g>
        </svg>
</svg>
