<?xml version="1.0" encoding="UTF-8" standalone="no"?>
<!DOCTYPE svg PUBLIC "-//W3C//DTD SVG 1.1//EN"
 "http://www.w3.org/Graphics/SVG/1.1/DTD/svg11.dtd">
<!-- Generated by graphviz version 2.30.1 (20150305.2338)
 -->
<!-- Title: COM_unload_module Pages: 1 -->
<svg width="460pt" height="77pt"
 viewBox="0.00 0.00 460.00 77.00" xmlns="http://www.w3.org/2000/svg" xmlns:xlink="http://www.w3.org/1999/xlink">
<g id="graph0" class="graph" transform="scale(1 1) rotate(0) translate(4 73)">
<title>COM_unload_module</title>
<!-- Node1 -->
<g id="node1" class="node"><title>Node1</title>
<polygon fill="#bfbfbf" stroke="black" points="0,-27.5 0,-46.5 110,-46.5 110,-27.5 0,-27.5"/>
<text text-anchor="middle" x="55" y="-34.5" font-family="Helvetica,sans-Serif" font-size="10.00">COM_unload_module</text>
</g>
<!-- Node2 -->
<g id="node2" class="node"><title>Node2</title>
<g id="a_node2"><a xlink:href="COM__base_8hpp_a49353596e53127db61529b5c9000549d.html#a49353596e53127db61529b5c9000549d" target="_top" xlink:title="COM_get_com">
<polygon fill="none" stroke="black" points="169.5,-49.5 169.5,-68.5 252.5,-68.5 252.5,-49.5 169.5,-49.5"/>
<text text-anchor="middle" x="211" y="-56.5" font-family="Helvetica,sans-Serif" font-size="10.00">COM_get_com</text>
</a>
</g>
</g>
<!-- Node1&#45;&gt;Node2 -->
<g id="edge1" class="edge"><title>Node1&#45;&gt;Node2</title>
<path fill="none" stroke="midnightblue" d="M110.295,-44.7564C126.207,-47.0295 143.54,-49.5057 159.224,-51.7463"/>
<polygon fill="midnightblue" stroke="midnightblue" points="158.867,-55.2307 169.261,-53.1802 159.857,-48.3011 158.867,-55.2307"/>
</g>
<!-- Node4 -->
<g id="node4" class="node"><title>Node4</title>
<g id="a_node4"><a xlink:href="classCOM_1_1COM__base_a89061490cb2aad60d72461ff08d087d5.html#a89061490cb2aad60d72461ff08d087d5" target="_top" xlink:title="Unload a module. ">
<polygon fill="none" stroke="black" points="146,-0 146,-30 276,-30 276,-0 146,-0"/>
<text text-anchor="start" x="154" y="-18" font-family="Helvetica,sans-Serif" font-size="10.00">COM::COM_base::unload</text>
<text text-anchor="middle" x="211" y="-7" font-family="Helvetica,sans-Serif" font-size="10.00">_module</text>
</a>
</g>
</g>
<!-- Node1&#45;&gt;Node4 -->
<g id="edge3" class="edge"><title>Node1&#45;&gt;Node4</title>
<path fill="none" stroke="midnightblue" d="M110.295,-29.2436C118.573,-28.061 127.235,-26.8235 135.85,-25.5928"/>
<polygon fill="midnightblue" stroke="midnightblue" points="136.511,-29.034 145.916,-24.1549 135.521,-22.1044 136.511,-29.034"/>
</g>
<!-- Node3 -->
<g id="node3" class="node"><title>Node3</title>
<g id="a_node3"><a xlink:href="classCOM_1_1COM__base_a77bb770b9ec1aac99361c45efbccabc1.html#a77bb770b9ec1aac99361c45efbccabc1" target="_top" xlink:title="Get a pointer to the COM object. ">
<polygon fill="none" stroke="black" points="312.5,-49.5 312.5,-68.5 451.5,-68.5 451.5,-49.5 312.5,-49.5"/>
<text text-anchor="middle" x="382" y="-56.5" font-family="Helvetica,sans-Serif" font-size="10.00">COM::COM_base::get_com</text>
</a>
</g>
</g>
<!-- Node2&#45;&gt;Node3 -->
<g id="edge2" class="edge"><title>Node2&#45;&gt;Node3</title>
<path fill="none" stroke="midnightblue" d="M252.91,-59C267.854,-59 285.303,-59 302.425,-59"/>
<polygon fill="midnightblue" stroke="midnightblue" points="302.448,-62.5001 312.448,-59 302.448,-55.5001 302.448,-62.5001"/>
</g>
</g>
</svg>
