<?xml version="1.0" encoding="UTF-8" standalone="no"?>
<!DOCTYPE svg PUBLIC "-//W3C//DTD SVG 1.1//EN"
 "http://www.w3.org/Graphics/SVG/1.1/DTD/svg11.dtd">
<!-- Generated by graphviz version 2.30.1 (20150305.2338)
 -->
<!-- Title: COM_base.hpp Pages: 1 -->
<svg width="563pt" height="476pt"
 viewBox="0.00 0.00 562.57 476.00" xmlns="http://www.w3.org/2000/svg" xmlns:xlink="http://www.w3.org/1999/xlink">
<g id="graph0" class="graph" transform="scale(1 1) rotate(0) translate(4 472)">
<title>COM_base.hpp</title>
<!-- Node1 -->
<g id="node1" class="node"><title>Node1</title>
<polygon fill="#bfbfbf" stroke="black" points="454.074,-448.5 454.074,-467.5 539.074,-467.5 539.074,-448.5 454.074,-448.5"/>
<text text-anchor="middle" x="496.574" y="-455.5" font-family="Helvetica,sans-Serif" font-size="10.00">COM_base.hpp</text>
</g>
<!-- Node2 -->
<g id="node2" class="node"><title>Node2</title>
<g id="a_node2"><a xlink:href="com__devel_8hpp.html" target="_top" xlink:title="com_devel.hpp">
<polygon fill="none" stroke="black" points="188.074,-392.5 188.074,-411.5 271.074,-411.5 271.074,-392.5 188.074,-392.5"/>
<text text-anchor="middle" x="229.574" y="-399.5" font-family="Helvetica,sans-Serif" font-size="10.00">com_devel.hpp</text>
</a>
</g>
</g>
<!-- Node1&#45;&gt;Node2 -->
<g id="edge1" class="edge"><title>Node1&#45;&gt;Node2</title>
<path fill="none" stroke="midnightblue" d="M454.267,-448.444C407.356,-438.956 331.67,-423.649 281.28,-413.457"/>
<polygon fill="midnightblue" stroke="midnightblue" points="281.739,-409.979 271.243,-411.428 280.351,-416.84 281.739,-409.979"/>
</g>
<!-- Node17 -->
<g id="node17" class="node"><title>Node17</title>
<g id="a_node17"><a xlink:href="maps_8hpp.html" target="_top" xlink:title="Contains declaration of mappings for module, window, function, dataitem. ">
<polygon fill="none" stroke="black" points="453.074,-168.5 453.074,-187.5 512.074,-187.5 512.074,-168.5 453.074,-168.5"/>
<text text-anchor="middle" x="482.574" y="-175.5" font-family="Helvetica,sans-Serif" font-size="10.00">maps.hpp</text>
</a>
</g>
</g>
<!-- Node1&#45;&gt;Node17 -->
<g id="edge28" class="edge"><title>Node1&#45;&gt;Node17</title>
<path fill="none" stroke="midnightblue" d="M496.574,-448.442C496.574,-429.936 496.574,-384.812 496.574,-347 496.574,-347 496.574,-347 496.574,-289 496.574,-256.541 490.501,-219.121 486.354,-197.356"/>
<polygon fill="midnightblue" stroke="midnightblue" points="489.78,-196.64 484.404,-187.511 482.914,-198 489.78,-196.64"/>
</g>
<!-- Node19 -->
<g id="node19" class="node"><title>Node19</title>
<polygon fill="none" stroke="#bfbfbf" points="524.574,-392.5 524.574,-411.5 554.574,-411.5 554.574,-392.5 524.574,-392.5"/>
<text text-anchor="middle" x="539.574" y="-399.5" font-family="Helvetica,sans-Serif" font-size="10.00">set</text>
</g>
<!-- Node1&#45;&gt;Node19 -->
<g id="edge32" class="edge"><title>Node1&#45;&gt;Node19</title>
<path fill="none" stroke="midnightblue" d="M503.674,-448.083C509.811,-440.377 518.843,-429.033 526.313,-419.653"/>
<polygon fill="midnightblue" stroke="midnightblue" points="529.114,-421.754 532.605,-411.751 523.638,-417.394 529.114,-421.754"/>
</g>
<!-- Node3 -->
<g id="node3" class="node"><title>Node3</title>
<g id="a_node3"><a xlink:href="DataItem_8hpp.html" target="_top" xlink:title="DataItem.hpp">
<polygon fill="none" stroke="black" points="62.5737,-168.5 62.5737,-187.5 138.574,-187.5 138.574,-168.5 62.5737,-168.5"/>
<text text-anchor="middle" x="100.574" y="-175.5" font-family="Helvetica,sans-Serif" font-size="10.00">DataItem.hpp</text>
</a>
</g>
</g>
<!-- Node2&#45;&gt;Node3 -->
<g id="edge2" class="edge"><title>Node2&#45;&gt;Node3</title>
<path fill="none" stroke="midnightblue" d="M187.968,-399.043C150.293,-395.358 94.9727,-384.973 56.5737,-356 33.5127,-338.6 34.9671,-326.547 23.5737,-300 9.96013,-268.28 -10.7639,-253.244 7.5737,-224 17.7039,-207.844 35.4591,-197.346 52.7592,-190.593"/>
<polygon fill="midnightblue" stroke="midnightblue" points="54.0203,-193.86 62.2722,-187.215 51.6775,-187.263 54.0203,-193.86"/>
</g>
<!-- Node8 -->
<g id="node8" class="node"><title>Node8</title>
<g id="a_node8"><a xlink:href="Connectivity_8hpp.html" target="_top" xlink:title="Connectivity.hpp">
<polygon fill="none" stroke="black" points="16.5737,-224.5 16.5737,-243.5 106.574,-243.5 106.574,-224.5 16.5737,-224.5"/>
<text text-anchor="middle" x="61.5737" y="-231.5" font-family="Helvetica,sans-Serif" font-size="10.00">Connectivity.hpp</text>
</a>
</g>
</g>
<!-- Node2&#45;&gt;Node8 -->
<g id="edge8" class="edge"><title>Node2&#45;&gt;Node8</title>
<path fill="none" stroke="midnightblue" d="M228.131,-392.177C225.777,-379.277 220.358,-354.765 210.574,-336 195.811,-307.689 190.97,-299.352 165.574,-280 146.344,-265.347 121.61,-254.392 101.089,-246.962"/>
<polygon fill="midnightblue" stroke="midnightblue" points="101.99,-243.57 91.3952,-243.597 99.6941,-250.183 101.99,-243.57"/>
</g>
<!-- Node9 -->
<g id="node9" class="node"><title>Node9</title>
<g id="a_node9"><a xlink:href="Function_8hpp.html" target="_top" xlink:title="Contains the prototypes and implementation for the Funcion object. ">
<polygon fill="none" stroke="black" points="258.074,-280.5 258.074,-299.5 331.074,-299.5 331.074,-280.5 258.074,-280.5"/>
<text text-anchor="middle" x="294.574" y="-287.5" font-family="Helvetica,sans-Serif" font-size="10.00">Function.hpp</text>
</a>
</g>
</g>
<!-- Node2&#45;&gt;Node9 -->
<g id="edge10" class="edge"><title>Node2&#45;&gt;Node9</title>
<path fill="none" stroke="midnightblue" d="M234.674,-392.368C245.354,-374.296 270.242,-332.176 284.347,-308.307"/>
<polygon fill="midnightblue" stroke="midnightblue" points="287.423,-309.981 289.497,-299.591 281.396,-306.42 287.423,-309.981"/>
</g>
<!-- Node14 -->
<g id="node14" class="node"><title>Node14</title>
<g id="a_node14"><a xlink:href="Pane_8hpp.html" target="_top" xlink:title="Pane.hpp">
<polygon fill="none" stroke="black" points="32.5737,-280.5 32.5737,-299.5 90.5737,-299.5 90.5737,-280.5 32.5737,-280.5"/>
<text text-anchor="middle" x="61.5737" y="-287.5" font-family="Helvetica,sans-Serif" font-size="10.00">Pane.hpp</text>
</a>
</g>
</g>
<!-- Node2&#45;&gt;Node14 -->
<g id="edge19" class="edge"><title>Node2&#45;&gt;Node14</title>
<path fill="none" stroke="midnightblue" d="M187.744,-401.543C150.537,-399.582 97.6489,-390.326 68.5737,-356 57.923,-343.426 57.1016,-324.207 58.3862,-309.925"/>
<polygon fill="midnightblue" stroke="midnightblue" points="61.8903,-310.121 59.7203,-299.751 54.9498,-309.211 61.8903,-310.121"/>
</g>
<!-- Node15 -->
<g id="node15" class="node"><title>Node15</title>
<g id="a_node15"><a xlink:href="ComponentInterface_8hpp.html" target="_top" xlink:title="Contains the prototypes for the ComponentInterface object. ">
<polygon fill="none" stroke="black" points="77.5737,-336.5 77.5737,-355.5 201.574,-355.5 201.574,-336.5 77.5737,-336.5"/>
<text text-anchor="middle" x="139.574" y="-343.5" font-family="Helvetica,sans-Serif" font-size="10.00">ComponentInterface.hpp</text>
</a>
</g>
</g>
<!-- Node2&#45;&gt;Node15 -->
<g id="edge23" class="edge"><title>Node2&#45;&gt;Node15</title>
<path fill="none" stroke="midnightblue" d="M215.114,-392.324C201.074,-383.9 179.525,-370.971 163.031,-361.074"/>
<polygon fill="midnightblue" stroke="midnightblue" points="164.374,-357.798 153.998,-355.655 160.772,-363.801 164.374,-357.798"/>
</g>
<!-- Node13 -->
<g id="node13" class="node"><title>Node13</title>
<g id="a_node13"><a xlink:href="com__assertion_8h.html" target="_top" xlink:title="This file contains a set of routines for error assertion. ">
<polygon fill="none" stroke="black" points="379.074,-224.5 379.074,-243.5 468.074,-243.5 468.074,-224.5 379.074,-224.5"/>
<text text-anchor="middle" x="423.574" y="-231.5" font-family="Helvetica,sans-Serif" font-size="10.00">com_assertion.h</text>
</a>
</g>
</g>
<!-- Node2&#45;&gt;Node13 -->
<g id="edge27" class="edge"><title>Node2&#45;&gt;Node13</title>
<path fill="none" stroke="midnightblue" d="M239.731,-392.309C270.963,-365.584 365.87,-284.375 405.689,-250.304"/>
<polygon fill="midnightblue" stroke="midnightblue" points="408.195,-252.766 413.517,-243.605 403.643,-247.447 408.195,-252.766"/>
</g>
<!-- Node4 -->
<g id="node4" class="node"><title>Node4</title>
<polygon fill="none" stroke="#bfbfbf" points="160.074,-56.5 160.074,-75.5 201.074,-75.5 201.074,-56.5 160.074,-56.5"/>
<text text-anchor="middle" x="180.574" y="-63.5" font-family="Helvetica,sans-Serif" font-size="10.00">string</text>
</g>
<!-- Node3&#45;&gt;Node4 -->
<g id="edge3" class="edge"><title>Node3&#45;&gt;Node4</title>
<path fill="none" stroke="midnightblue" d="M106.851,-168.368C120.053,-150.215 150.9,-107.802 168.217,-83.9902"/>
<polygon fill="midnightblue" stroke="midnightblue" points="171.274,-85.7374 174.325,-75.5914 165.613,-81.6202 171.274,-85.7374"/>
</g>
<!-- Node5 -->
<g id="node5" class="node"><title>Node5</title>
<g id="a_node5"><a xlink:href="com__exception_8hpp.html" target="_top" xlink:title="com_exception.hpp">
<polygon fill="none" stroke="black" points="245.074,-112.5 245.074,-131.5 346.074,-131.5 346.074,-112.5 245.074,-112.5"/>
<text text-anchor="middle" x="295.574" y="-119.5" font-family="Helvetica,sans-Serif" font-size="10.00">com_exception.hpp</text>
</a>
</g>
</g>
<!-- Node3&#45;&gt;Node5 -->
<g id="edge4" class="edge"><title>Node3&#45;&gt;Node5</title>
<path fill="none" stroke="midnightblue" d="M131.472,-168.444C164.847,-159.201 218.168,-144.436 254.923,-134.257"/>
<polygon fill="midnightblue" stroke="midnightblue" points="256.117,-137.558 264.82,-131.516 254.249,-130.812 256.117,-137.558"/>
</g>
<!-- Node6 -->
<g id="node6" class="node"><title>Node6</title>
<g id="a_node6"><a xlink:href="com__basic_8h.html" target="_top" xlink:title="This file contains some definitions of macros and constants for COM. ">
<polygon fill="none" stroke="black" points="357.574,-56.5 357.574,-75.5 429.574,-75.5 429.574,-56.5 357.574,-56.5"/>
<text text-anchor="middle" x="393.574" y="-63.5" font-family="Helvetica,sans-Serif" font-size="10.00">com_basic.h</text>
</a>
</g>
</g>
<!-- Node5&#45;&gt;Node6 -->
<g id="edge5" class="edge"><title>Node5&#45;&gt;Node6</title>
<path fill="none" stroke="midnightblue" d="M311.319,-112.324C326.892,-103.743 350.951,-90.486 369.033,-80.5224"/>
<polygon fill="midnightblue" stroke="midnightblue" points="370.798,-83.546 377.867,-75.6545 367.42,-77.4152 370.798,-83.546"/>
</g>
<!-- Node5&#45;&gt;Node4 -->
<g id="edge7" class="edge"><title>Node5&#45;&gt;Node4</title>
<path fill="none" stroke="midnightblue" d="M277.352,-112.444C258.678,-103.675 229.418,-89.9355 207.956,-79.8579"/>
<polygon fill="midnightblue" stroke="midnightblue" points="209.25,-76.5988 198.711,-75.5164 206.275,-82.935 209.25,-76.5988"/>
</g>
<!-- Node7 -->
<g id="node7" class="node"><title>Node7</title>
<g id="a_node7"><a xlink:href="FC_8h.html" target="_top" xlink:title="FC.h">
<polygon fill="none" stroke="black" points="374.574,-0.5 374.574,-19.5 412.574,-19.5 412.574,-0.5 374.574,-0.5"/>
<text text-anchor="middle" x="393.574" y="-7.5" font-family="Helvetica,sans-Serif" font-size="10.00">FC.h</text>
</a>
</g>
</g>
<!-- Node6&#45;&gt;Node7 -->
<g id="edge6" class="edge"><title>Node6&#45;&gt;Node7</title>
<path fill="none" stroke="midnightblue" d="M393.574,-56.083C393.574,-49.0059 393.574,-38.8611 393.574,-29.9865"/>
<polygon fill="midnightblue" stroke="midnightblue" points="397.074,-29.751 393.574,-19.7511 390.074,-29.7511 397.074,-29.751"/>
</g>
<!-- Node8&#45;&gt;Node3 -->
<g id="edge9" class="edge"><title>Node8&#45;&gt;Node3</title>
<path fill="none" stroke="midnightblue" d="M68.0138,-224.083C73.5226,-216.455 81.6049,-205.264 88.3387,-195.941"/>
<polygon fill="midnightblue" stroke="midnightblue" points="91.2359,-197.907 94.2535,-187.751 85.5611,-193.809 91.2359,-197.907"/>
</g>
<!-- Node9&#45;&gt;Node4 -->
<g id="edge11" class="edge"><title>Node9&#45;&gt;Node4</title>
<path fill="none" stroke="midnightblue" d="M291.664,-280.245C284.79,-259.971 266.541,-208.442 245.574,-168 229.5,-136.997 206.638,-103.332 192.749,-83.757"/>
<polygon fill="midnightblue" stroke="midnightblue" points="195.56,-81.6705 186.888,-75.5834 189.871,-85.7497 195.56,-81.6705"/>
</g>
<!-- Node10 -->
<g id="node10" class="node"><title>Node10</title>
<polygon fill="none" stroke="#bfbfbf" points="124.574,-224.5 124.574,-243.5 168.574,-243.5 168.574,-224.5 124.574,-224.5"/>
<text text-anchor="middle" x="146.574" y="-231.5" font-family="Helvetica,sans-Serif" font-size="10.00">vector</text>
</g>
<!-- Node9&#45;&gt;Node10 -->
<g id="edge12" class="edge"><title>Node9&#45;&gt;Node10</title>
<path fill="none" stroke="midnightblue" d="M271.123,-280.444C246.151,-271.332 206.468,-256.853 178.621,-246.693"/>
<polygon fill="midnightblue" stroke="midnightblue" points="179.54,-243.303 168.946,-243.163 177.141,-249.879 179.54,-243.303"/>
</g>
<!-- Node11 -->
<g id="node11" class="node"><title>Node11</title>
<g id="a_node11"><a xlink:href="commpi_8h.html" target="_top" xlink:title="Contains declarations of MPI subroutines used in COPM. ">
<polygon fill="none" stroke="black" points="187.074,-224.5 187.074,-243.5 246.074,-243.5 246.074,-224.5 187.074,-224.5"/>
<text text-anchor="middle" x="216.574" y="-231.5" font-family="Helvetica,sans-Serif" font-size="10.00">commpi.h</text>
</a>
</g>
</g>
<!-- Node9&#45;&gt;Node11 -->
<g id="edge13" class="edge"><title>Node9&#45;&gt;Node11</title>
<path fill="none" stroke="midnightblue" d="M282.042,-280.324C269.988,-271.979 251.547,-259.212 237.305,-249.352"/>
<polygon fill="midnightblue" stroke="midnightblue" points="239.289,-246.469 229.075,-243.655 235.304,-252.224 239.289,-246.469"/>
</g>
<!-- Node9&#45;&gt;Node6 -->
<g id="edge15" class="edge"><title>Node9&#45;&gt;Node6</title>
<path fill="none" stroke="midnightblue" d="M298.455,-280.297C313.114,-247.425 365.305,-130.391 385.506,-85.0904"/>
<polygon fill="midnightblue" stroke="midnightblue" points="388.736,-86.4423 389.612,-75.8837 382.343,-83.5913 388.736,-86.4423"/>
</g>
<!-- Node9&#45;&gt;Node5 -->
<g id="edge16" class="edge"><title>Node9&#45;&gt;Node5</title>
<path fill="none" stroke="midnightblue" d="M294.627,-280.075C294.785,-253.945 295.247,-177.211 295.462,-141.577"/>
<polygon fill="midnightblue" stroke="midnightblue" points="298.962,-141.589 295.522,-131.568 291.962,-141.547 298.962,-141.589"/>
</g>
<!-- Node9&#45;&gt;Node13 -->
<g id="edge17" class="edge"><title>Node9&#45;&gt;Node13</title>
<path fill="none" stroke="midnightblue" d="M315.014,-280.444C336.244,-271.557 369.673,-257.563 393.829,-247.451"/>
<polygon fill="midnightblue" stroke="midnightblue" points="395.356,-250.606 403.229,-243.516 392.653,-244.149 395.356,-250.606"/>
</g>
<!-- Node12 -->
<g id="node12" class="node"><title>Node12</title>
<polygon fill="none" stroke="#bfbfbf" points="196.074,-168.5 196.074,-187.5 237.074,-187.5 237.074,-168.5 196.074,-168.5"/>
<text text-anchor="middle" x="216.574" y="-175.5" font-family="Helvetica,sans-Serif" font-size="10.00">mpi.h</text>
</g>
<!-- Node11&#45;&gt;Node12 -->
<g id="edge14" class="edge"><title>Node11&#45;&gt;Node12</title>
<path fill="none" stroke="midnightblue" d="M216.574,-224.083C216.574,-217.006 216.574,-206.861 216.574,-197.986"/>
<polygon fill="midnightblue" stroke="midnightblue" points="220.074,-197.751 216.574,-187.751 213.074,-197.751 220.074,-197.751"/>
</g>
<!-- Node13&#45;&gt;Node6 -->
<g id="edge18" class="edge"><title>Node13&#45;&gt;Node6</title>
<path fill="none" stroke="midnightblue" d="M421.961,-224.075C417.239,-197.945 403.371,-121.211 396.931,-85.577"/>
<polygon fill="midnightblue" stroke="midnightblue" points="400.345,-84.7862 395.122,-75.5681 393.456,-86.0312 400.345,-84.7862"/>
</g>
<!-- Node14&#45;&gt;Node4 -->
<g id="edge20" class="edge"><title>Node14&#45;&gt;Node4</title>
<path fill="none" stroke="midnightblue" d="M44.9407,-280.464C32.0858,-272.841 15.2345,-260.356 7.5737,-244 3.80343,-235.95 4.57725,-232.369 7.5737,-224 32.8156,-153.503 111.625,-103.033 153.611,-80.3691"/>
<polygon fill="midnightblue" stroke="midnightblue" points="155.489,-83.336 162.71,-75.5827 152.23,-77.1409 155.489,-83.336"/>
</g>
<!-- Node14&#45;&gt;Node10 -->
<g id="edge21" class="edge"><title>Node14&#45;&gt;Node10</title>
<path fill="none" stroke="midnightblue" d="M75.2304,-280.324C88.49,-271.9 108.842,-258.971 124.42,-249.074"/>
<polygon fill="midnightblue" stroke="midnightblue" points="126.387,-251.971 132.951,-243.655 122.633,-246.063 126.387,-251.971"/>
</g>
<!-- Node14&#45;&gt;Node8 -->
<g id="edge22" class="edge"><title>Node14&#45;&gt;Node8</title>
<path fill="none" stroke="midnightblue" d="M61.5737,-280.083C61.5737,-273.006 61.5737,-262.861 61.5737,-253.986"/>
<polygon fill="midnightblue" stroke="midnightblue" points="65.0738,-253.751 61.5737,-243.751 58.0738,-253.751 65.0738,-253.751"/>
</g>
<!-- Node15&#45;&gt;Node9 -->
<g id="edge24" class="edge"><title>Node15&#45;&gt;Node9</title>
<path fill="none" stroke="midnightblue" d="M164.134,-336.444C190.096,-327.399 231.242,-313.064 260.371,-302.916"/>
<polygon fill="midnightblue" stroke="midnightblue" points="261.837,-306.112 270.128,-299.516 259.534,-299.501 261.837,-306.112"/>
</g>
<!-- Node15&#45;&gt;Node14 -->
<g id="edge25" class="edge"><title>Node15&#45;&gt;Node14</title>
<path fill="none" stroke="midnightblue" d="M127.042,-336.324C114.988,-327.979 96.5469,-315.212 82.305,-305.352"/>
<polygon fill="midnightblue" stroke="midnightblue" points="84.2888,-302.469 74.0747,-299.655 80.3043,-308.224 84.2888,-302.469"/>
</g>
<!-- Node16 -->
<g id="node16" class="node"><title>Node16</title>
<polygon fill="none" stroke="#bfbfbf" points="122.074,-280.5 122.074,-299.5 157.074,-299.5 157.074,-280.5 122.074,-280.5"/>
<text text-anchor="middle" x="139.574" y="-287.5" font-family="Helvetica,sans-Serif" font-size="10.00">map</text>
</g>
<!-- Node15&#45;&gt;Node16 -->
<g id="edge26" class="edge"><title>Node15&#45;&gt;Node16</title>
<path fill="none" stroke="midnightblue" d="M139.574,-336.083C139.574,-329.006 139.574,-318.861 139.574,-309.986"/>
<polygon fill="midnightblue" stroke="midnightblue" points="143.074,-309.751 139.574,-299.751 136.074,-309.751 143.074,-309.751"/>
</g>
<!-- Node17&#45;&gt;Node6 -->
<g id="edge29" class="edge"><title>Node17&#45;&gt;Node6</title>
<path fill="none" stroke="midnightblue" d="M475.59,-168.368C460.837,-150.135 426.282,-107.426 407.065,-83.6752"/>
<polygon fill="midnightblue" stroke="midnightblue" points="409.536,-81.164 400.525,-75.5914 404.094,-85.567 409.536,-81.164"/>
</g>
<!-- Node17&#45;&gt;Node5 -->
<g id="edge30" class="edge"><title>Node17&#45;&gt;Node5</title>
<path fill="none" stroke="midnightblue" d="M452.943,-168.444C421.074,-159.241 370.241,-144.562 335.01,-134.388"/>
<polygon fill="midnightblue" stroke="midnightblue" points="335.644,-130.928 325.066,-131.516 333.702,-137.653 335.644,-130.928"/>
</g>
<!-- Node18 -->
<g id="node18" class="node"><title>Node18</title>
<polygon fill="none" stroke="#bfbfbf" points="479.074,-112.5 479.074,-131.5 508.074,-131.5 508.074,-112.5 479.074,-112.5"/>
<text text-anchor="middle" x="493.574" y="-119.5" font-family="Helvetica,sans-Serif" font-size="10.00">list</text>
</g>
<!-- Node17&#45;&gt;Node18 -->
<g id="edge31" class="edge"><title>Node17&#45;&gt;Node18</title>
<path fill="none" stroke="midnightblue" d="M484.39,-168.083C485.848,-160.927 487.944,-150.635 489.766,-141.691"/>
<polygon fill="midnightblue" stroke="midnightblue" points="493.225,-142.248 491.791,-131.751 486.365,-140.851 493.225,-142.248"/>
</g>
</g>
</svg>
