<?xml version="1.0" encoding="UTF-8" standalone="no"?>
<!DOCTYPE svg PUBLIC "-//W3C//DTD SVG 1.1//EN"
 "http://www.w3.org/Graphics/SVG/1.1/DTD/svg11.dtd">
<!-- Generated by graphviz version 2.30.1 (20150305.2338)
 -->
<!-- Title: COM_free_buffer Pages: 1 -->
<svg width="696pt" height="87pt"
 viewBox="0.00 0.00 696.00 87.00" xmlns="http://www.w3.org/2000/svg" xmlns:xlink="http://www.w3.org/1999/xlink">
<g id="graph0" class="graph" transform="scale(1 1) rotate(0) translate(4 83)">
<title>COM_free_buffer</title>
<!-- Node1 -->
<g id="node1" class="node"><title>Node1</title>
<polygon fill="#bfbfbf" stroke="black" points="0,-29.5 0,-48.5 92,-48.5 92,-29.5 0,-29.5"/>
<text text-anchor="middle" x="46" y="-36.5" font-family="Helvetica,sans-Serif" font-size="10.00">COM_free_buffer</text>
</g>
<!-- Node2 -->
<g id="node2" class="node"><title>Node2</title>
<g id="a_node2"><a xlink:href="classOpenFoamModuleDriver_1_1TestingObject_a8e6b96ff06b7c7dce865d4f5518b535e.html#a8e6b96ff06b7c7dce865d4f5518b535e" target="_top" xlink:title="OpenFoamModuleDriver\l::TestingObject::Test\l__ModuleMeshRegistration">
<polygon fill="none" stroke="black" points="128.5,-18.5 128.5,-59.5 263.5,-59.5 263.5,-18.5 128.5,-18.5"/>
<text text-anchor="start" x="136.5" y="-47.5" font-family="Helvetica,sans-Serif" font-size="10.00">OpenFoamModuleDriver</text>
<text text-anchor="start" x="136.5" y="-36.5" font-family="Helvetica,sans-Serif" font-size="10.00">::TestingObject::Test</text>
<text text-anchor="middle" x="196" y="-25.5" font-family="Helvetica,sans-Serif" font-size="10.00">__ModuleMeshRegistration</text>
</a>
</g>
</g>
<!-- Node1&#45;&gt;Node2 -->
<g id="edge1" class="edge"><title>Node1&#45;&gt;Node2</title>
<path fill="none" stroke="midnightblue" d="M102.325,-39C110.787,-39 119.597,-39 128.273,-39"/>
<polygon fill="midnightblue" stroke="midnightblue" points="102.209,-35.5001 92.2091,-39 102.209,-42.5001 102.209,-35.5001"/>
</g>
<!-- Node3 -->
<g id="node3" class="node"><title>Node3</title>
<g id="a_node3"><a xlink:href="classOpenFoamModuleDriver_1_1TestingObject_a046f7ab06db0acf616b0d2bf3d3146aa.html#a046f7ab06db0acf616b0d2bf3d3146aa" target="_top" xlink:title="Process all tests and populate a &quot;results&quot; object. ">
<polygon fill="none" stroke="black" points="301.5,-49 301.5,-79 426.5,-79 426.5,-49 301.5,-49"/>
<text text-anchor="start" x="309.5" y="-67" font-family="Helvetica,sans-Serif" font-size="10.00">OpenFoamModuleDriver</text>
<text text-anchor="middle" x="364" y="-56" font-family="Helvetica,sans-Serif" font-size="10.00">::TestingObject::Process</text>
</a>
</g>
</g>
<!-- Node2&#45;&gt;Node3 -->
<g id="edge2" class="edge"><title>Node2&#45;&gt;Node3</title>
<path fill="none" stroke="midnightblue" d="M273.568,-50.5313C282.848,-51.929 292.237,-53.3429 301.265,-54.7026"/>
<polygon fill="midnightblue" stroke="midnightblue" points="273.972,-47.0528 263.562,-49.0244 272.929,-53.9747 273.972,-47.0528"/>
</g>
<!-- Node6 -->
<g id="node6" class="node"><title>Node6</title>
<g id="a_node6"><a xlink:href="classOpenFoamModuleDriver_1_1TestingObject_af1f07f14b9af7708e4264bb38937eed2.html#af1f07f14b9af7708e4264bb38937eed2" target="_top" xlink:title="Runs a test specified by name. ">
<polygon fill="none" stroke="black" points="300.5,-0 300.5,-30 427.5,-30 427.5,-0 300.5,-0"/>
<text text-anchor="start" x="308.5" y="-18" font-family="Helvetica,sans-Serif" font-size="10.00">OpenFoamModuleDriver</text>
<text text-anchor="middle" x="364" y="-7" font-family="Helvetica,sans-Serif" font-size="10.00">::TestingObject::RunTest</text>
</a>
</g>
</g>
<!-- Node2&#45;&gt;Node6 -->
<g id="edge5" class="edge"><title>Node2&#45;&gt;Node6</title>
<path fill="none" stroke="midnightblue" d="M273.639,-27.9197C282.621,-26.621 291.704,-25.3079 300.462,-24.0416"/>
<polygon fill="midnightblue" stroke="midnightblue" points="272.958,-24.4816 263.562,-29.3766 273.96,-31.4096 272.958,-24.4816"/>
</g>
<!-- Node4 -->
<g id="node4" class="node"><title>Node4</title>
<g id="a_node4"><a xlink:href="namespaceOpenFoamModuleDriver_a98bd69551725493def1a31bfe72b0781.html#a98bd69551725493def1a31bfe72b0781" target="_top" xlink:title="Drives the OpenFoamModuleDriver::TestObject. ">
<polygon fill="none" stroke="black" points="478,-49 478,-79 600,-79 600,-49 478,-49"/>
<text text-anchor="start" x="486" y="-67" font-family="Helvetica,sans-Serif" font-size="10.00">OpenFoamModuleDriver</text>
<text text-anchor="middle" x="539" y="-56" font-family="Helvetica,sans-Serif" font-size="10.00">::Test</text>
</a>
</g>
</g>
<!-- Node3&#45;&gt;Node4 -->
<g id="edge3" class="edge"><title>Node3&#45;&gt;Node4</title>
<path fill="none" stroke="midnightblue" d="M437.211,-64C450.757,-64 464.784,-64 477.913,-64"/>
<polygon fill="midnightblue" stroke="midnightblue" points="436.968,-60.5001 426.968,-64 436.968,-67.5001 436.968,-60.5001"/>
</g>
<!-- Node5 -->
<g id="node5" class="node"><title>Node5</title>
<g id="a_node5"><a xlink:href="TestOpenFoamModuleDriver_8C_a0ddf1224851353fc92bfbff6f499fa97.html#a0ddf1224851353fc92bfbff6f499fa97" target="_top" xlink:title="main">
<polygon fill="none" stroke="black" points="650,-54.5 650,-73.5 688,-73.5 688,-54.5 650,-54.5"/>
<text text-anchor="middle" x="669" y="-61.5" font-family="Helvetica,sans-Serif" font-size="10.00">main</text>
</a>
</g>
</g>
<!-- Node4&#45;&gt;Node5 -->
<g id="edge4" class="edge"><title>Node4&#45;&gt;Node5</title>
<path fill="none" stroke="midnightblue" d="M610.396,-64C624.999,-64 639.154,-64 649.778,-64"/>
<polygon fill="midnightblue" stroke="midnightblue" points="610.252,-60.5001 600.252,-64 610.252,-67.5001 610.252,-60.5001"/>
</g>
<!-- Node7 -->
<g id="node7" class="node"><title>Node7</title>
<g id="a_node7"><a xlink:href="classOpenFoamModuleDriver_1_1TestingObject_a21159bd2efac623e5a5079f6a20f3444.html#a21159bd2efac623e5a5079f6a20f3444" target="_top" xlink:title="Runs a list of tests specified by name. ">
<polygon fill="none" stroke="black" points="464,-0 464,-30 614,-30 614,-0 464,-0"/>
<text text-anchor="start" x="472" y="-18" font-family="Helvetica,sans-Serif" font-size="10.00">OpenFoamModuleDriver</text>
<text text-anchor="middle" x="539" y="-7" font-family="Helvetica,sans-Serif" font-size="10.00">::TestingObject::ProcessTests</text>
</a>
</g>
</g>
<!-- Node6&#45;&gt;Node7 -->
<g id="edge6" class="edge"><title>Node6&#45;&gt;Node7</title>
<path fill="none" stroke="midnightblue" d="M438.217,-15C446.727,-15 455.412,-15 463.934,-15"/>
<polygon fill="midnightblue" stroke="midnightblue" points="437.946,-11.5001 427.946,-15 437.946,-18.5001 437.946,-11.5001"/>
</g>
<!-- Node6&#45;&gt;Node4 -->
<g id="edge7" class="edge"><title>Node6&#45;&gt;Node4</title>
<path fill="none" stroke="midnightblue" d="M428.177,-32.8941C446.785,-38.1644 466.948,-43.8755 484.859,-48.9484"/>
<polygon fill="midnightblue" stroke="midnightblue" points="428.893,-29.4591 418.317,-30.1014 426.985,-36.1942 428.893,-29.4591"/>
</g>
</g>
</svg>
