<?xml version="1.0" encoding="UTF-8" standalone="no"?>
<!DOCTYPE svg PUBLIC "-//W3C//DTD SVG 1.1//EN"
 "http://www.w3.org/Graphics/SVG/1.1/DTD/svg11.dtd">
<!-- Generated by graphviz version 2.30.1 (20150305.2338)
 -->
<!-- Title: COM_get_sizeof Pages: 1 -->
<svg width="284pt" height="77pt"
 viewBox="0.00 0.00 284.00 77.00" xmlns="http://www.w3.org/2000/svg" xmlns:xlink="http://www.w3.org/1999/xlink">
<g id="graph0" class="graph" transform="scale(1 1) rotate(0) translate(4 73)">
<title>COM_get_sizeof</title>
<!-- Node1 -->
<g id="node1" class="node"><title>Node1</title>
<polygon fill="#bfbfbf" stroke="black" points="0,-22.5 0,-41.5 90,-41.5 90,-22.5 0,-22.5"/>
<text text-anchor="middle" x="45" y="-29.5" font-family="Helvetica,sans-Serif" font-size="10.00">COM_get_sizeof</text>
</g>
<!-- Node2 -->
<g id="node2" class="node"><title>Node2</title>
<g id="a_node2"><a xlink:href="classElement__node__vectors__k__const_a02114ee9def538668bfc98d2d00c4409.html#a02114ee9def538668bfc98d2d00c4409" target="_top" xlink:title="initialize the accessor from an attribute assiciated with a pane. ">
<polygon fill="none" stroke="black" points="143,-39 143,-69 259,-69 259,-39 143,-39"/>
<text text-anchor="start" x="151" y="-57" font-family="Helvetica,sans-Serif" font-size="10.00">Element_node_vectors</text>
<text text-anchor="middle" x="201" y="-46" font-family="Helvetica,sans-Serif" font-size="10.00">_k_const::set</text>
</a>
</g>
</g>
<!-- Node1&#45;&gt;Node2 -->
<g id="edge1" class="edge"><title>Node1&#45;&gt;Node2</title>
<path fill="none" stroke="midnightblue" d="M100.422,-39.7746C114.193,-41.7418 129.02,-43.8601 142.919,-45.8455"/>
<polygon fill="midnightblue" stroke="midnightblue" points="100.525,-36.2538 90.1302,-38.3043 99.5347,-43.1834 100.525,-36.2538"/>
</g>
<!-- Node3 -->
<g id="node3" class="node"><title>Node3</title>
<g id="a_node3"><a xlink:href="classElement__vectors__k__const_a02114ee9def538668bfc98d2d00c4409.html#a02114ee9def538668bfc98d2d00c4409" target="_top" xlink:title="initialize the accessor from an attribute assiciated with a pane. ">
<polygon fill="none" stroke="black" points="126.5,-0.5 126.5,-19.5 275.5,-19.5 275.5,-0.5 126.5,-0.5"/>
<text text-anchor="middle" x="201" y="-7.5" font-family="Helvetica,sans-Serif" font-size="10.00">Element_vectors_k_const::set</text>
</a>
</g>
</g>
<!-- Node1&#45;&gt;Node3 -->
<g id="edge2" class="edge"><title>Node1&#45;&gt;Node3</title>
<path fill="none" stroke="midnightblue" d="M100.207,-24.2561C110.959,-22.7202 122.361,-21.0912 133.468,-19.5046"/>
<polygon fill="midnightblue" stroke="midnightblue" points="99.5347,-20.8166 90.1302,-25.6957 100.525,-27.7462 99.5347,-20.8166"/>
</g>
</g>
</svg>
