<?xml version="1.0" encoding="UTF-8" standalone="no"?>
<!DOCTYPE svg PUBLIC "-//W3C//DTD SVG 1.1//EN"
 "http://www.w3.org/Graphics/SVG/1.1/DTD/svg11.dtd">
<!-- Generated by graphviz version 2.30.1 (20150305.2338)
 -->
<!-- Title: COM_get_window_handle Pages: 1 -->
<svg width="468pt" height="77pt"
 viewBox="0.00 0.00 468.00 77.00" xmlns="http://www.w3.org/2000/svg" xmlns:xlink="http://www.w3.org/1999/xlink">
<g id="graph0" class="graph" transform="scale(1 1) rotate(0) translate(4 73)">
<title>COM_get_window_handle</title>
<!-- Node1 -->
<g id="node1" class="node"><title>Node1</title>
<polygon fill="#bfbfbf" stroke="black" points="0.5,-27.5 0.5,-46.5 131.5,-46.5 131.5,-27.5 0.5,-27.5"/>
<text text-anchor="middle" x="66" y="-34.5" font-family="Helvetica,sans-Serif" font-size="10.00">COM_get_window_handle</text>
</g>
<!-- Node2 -->
<g id="node2" class="node"><title>Node2</title>
<g id="a_node2"><a xlink:href="COM__base_8hpp_a49353596e53127db61529b5c9000549d.html#a49353596e53127db61529b5c9000549d" target="_top" xlink:title="COM_get_com">
<polygon fill="none" stroke="black" points="184.5,-49.5 184.5,-68.5 267.5,-68.5 267.5,-49.5 184.5,-49.5"/>
<text text-anchor="middle" x="226" y="-56.5" font-family="Helvetica,sans-Serif" font-size="10.00">COM_get_com</text>
</a>
</g>
</g>
<!-- Node1&#45;&gt;Node2 -->
<g id="edge1" class="edge"><title>Node1&#45;&gt;Node2</title>
<path fill="none" stroke="midnightblue" d="M131.721,-46.0117C145.846,-47.9786 160.602,-50.0332 174.099,-51.9125"/>
<polygon fill="midnightblue" stroke="midnightblue" points="173.757,-55.3986 184.144,-53.3112 174.722,-48.4655 173.757,-55.3986"/>
</g>
<!-- Node4 -->
<g id="node4" class="node"><title>Node4</title>
<g id="a_node4"><a xlink:href="classCOM_1_1COM__base_a75bf2e262b938dbff2d0ea8a60a8d218.html#a75bf2e262b938dbff2d0ea8a60a8d218" target="_top" xlink:title="COM::COM_base::get\l_window_handle">
<polygon fill="none" stroke="black" points="168.5,-0 168.5,-30 283.5,-30 283.5,-0 168.5,-0"/>
<text text-anchor="start" x="176.5" y="-18" font-family="Helvetica,sans-Serif" font-size="10.00">COM::COM_base::get</text>
<text text-anchor="middle" x="226" y="-7" font-family="Helvetica,sans-Serif" font-size="10.00">_window_handle</text>
</a>
</g>
</g>
<!-- Node1&#45;&gt;Node4 -->
<g id="edge3" class="edge"><title>Node1&#45;&gt;Node4</title>
<path fill="none" stroke="midnightblue" d="M131.721,-27.9883C140.575,-26.7554 149.677,-25.488 158.562,-24.2509"/>
<polygon fill="midnightblue" stroke="midnightblue" points="159.053,-27.7163 168.475,-22.8705 158.088,-20.7832 159.053,-27.7163"/>
</g>
<!-- Node3 -->
<g id="node3" class="node"><title>Node3</title>
<g id="a_node3"><a xlink:href="classCOM_1_1COM__base_a77bb770b9ec1aac99361c45efbccabc1.html#a77bb770b9ec1aac99361c45efbccabc1" target="_top" xlink:title="Get a pointer to the COM object. ">
<polygon fill="none" stroke="black" points="320.5,-49.5 320.5,-68.5 459.5,-68.5 459.5,-49.5 320.5,-49.5"/>
<text text-anchor="middle" x="390" y="-56.5" font-family="Helvetica,sans-Serif" font-size="10.00">COM::COM_base::get_com</text>
</a>
</g>
</g>
<!-- Node2&#45;&gt;Node3 -->
<g id="edge2" class="edge"><title>Node2&#45;&gt;Node3</title>
<path fill="none" stroke="midnightblue" d="M267.879,-59C280.826,-59 295.603,-59 310.279,-59"/>
<polygon fill="midnightblue" stroke="midnightblue" points="310.4,-62.5001 320.4,-59 310.4,-55.5001 310.4,-62.5001"/>
</g>
</g>
</svg>
