<?xml version="1.0" encoding="UTF-8" standalone="no"?>
<!DOCTYPE svg PUBLIC "-//W3C//DTD SVG 1.1//EN"
 "http://www.w3.org/Graphics/SVG/1.1/DTD/svg11.dtd">
<!-- Generated by graphviz version 2.30.1 (20150305.2338)
 -->
<!-- Title: COM_check_bounds Pages: 1 -->
<svg width="456pt" height="77pt"
 viewBox="0.00 0.00 456.00 77.00" xmlns="http://www.w3.org/2000/svg" xmlns:xlink="http://www.w3.org/1999/xlink">
<g id="graph0" class="graph" transform="scale(1 1) rotate(0) translate(4 73)">
<title>COM_check_bounds</title>
<!-- Node1 -->
<g id="node1" class="node"><title>Node1</title>
<polygon fill="#bfbfbf" stroke="black" points="0,-22.5 0,-41.5 108,-41.5 108,-22.5 0,-22.5"/>
<text text-anchor="middle" x="54" y="-29.5" font-family="Helvetica,sans-Serif" font-size="10.00">COM_check_bounds</text>
</g>
<!-- Node2 -->
<g id="node2" class="node"><title>Node2</title>
<g id="a_node2"><a xlink:href="classCOM_1_1COM__base_ab42f24432afb9f8eb126774fda265a01.html#ab42f24432afb9f8eb126774fda265a01" target="_top" xlink:title="COM::COM_base::check\l_bounds">
<polygon fill="none" stroke="black" points="144,-39 144,-69 272,-69 272,-39 144,-39"/>
<text text-anchor="start" x="152" y="-57" font-family="Helvetica,sans-Serif" font-size="10.00">COM::COM_base::check</text>
<text text-anchor="middle" x="208" y="-46" font-family="Helvetica,sans-Serif" font-size="10.00">_bounds</text>
</a>
</g>
</g>
<!-- Node1&#45;&gt;Node2 -->
<g id="edge1" class="edge"><title>Node1&#45;&gt;Node2</title>
<path fill="none" stroke="midnightblue" d="M108.162,-39.6945C116.469,-40.8968 125.177,-42.1572 133.836,-43.4105"/>
<polygon fill="midnightblue" stroke="midnightblue" points="133.553,-46.9059 143.952,-44.8746 134.556,-39.9781 133.553,-46.9059"/>
</g>
<!-- Node3 -->
<g id="node3" class="node"><title>Node3</title>
<g id="a_node3"><a xlink:href="COM__base_8hpp_a49353596e53127db61529b5c9000549d.html#a49353596e53127db61529b5c9000549d" target="_top" xlink:title="COM_get_com">
<polygon fill="none" stroke="black" points="166.5,-0.5 166.5,-19.5 249.5,-19.5 249.5,-0.5 166.5,-0.5"/>
<text text-anchor="middle" x="208" y="-7.5" font-family="Helvetica,sans-Serif" font-size="10.00">COM_get_com</text>
</a>
</g>
</g>
<!-- Node1&#45;&gt;Node3 -->
<g id="edge2" class="edge"><title>Node1&#45;&gt;Node3</title>
<path fill="none" stroke="midnightblue" d="M108.162,-24.3055C123.604,-22.0705 140.433,-19.6347 155.755,-17.4171"/>
<polygon fill="midnightblue" stroke="midnightblue" points="156.69,-20.8183 166.086,-15.9218 155.687,-13.8904 156.69,-20.8183"/>
</g>
<!-- Node4 -->
<g id="node4" class="node"><title>Node4</title>
<g id="a_node4"><a xlink:href="classCOM_1_1COM__base_a77bb770b9ec1aac99361c45efbccabc1.html#a77bb770b9ec1aac99361c45efbccabc1" target="_top" xlink:title="Get a pointer to the COM object. ">
<polygon fill="none" stroke="black" points="308.5,-0.5 308.5,-19.5 447.5,-19.5 447.5,-0.5 308.5,-0.5"/>
<text text-anchor="middle" x="378" y="-7.5" font-family="Helvetica,sans-Serif" font-size="10.00">COM::COM_base::get_com</text>
</a>
</g>
</g>
<!-- Node3&#45;&gt;Node4 -->
<g id="edge3" class="edge"><title>Node3&#45;&gt;Node4</title>
<path fill="none" stroke="midnightblue" d="M249.668,-10C264.224,-10 281.17,-10 297.86,-10"/>
<polygon fill="midnightblue" stroke="midnightblue" points="298.195,-13.5001 308.195,-10 298.195,-6.5001 298.195,-13.5001"/>
</g>
</g>
</svg>
