<?xml version="1.0" encoding="UTF-8" standalone="no"?>
<!DOCTYPE svg PUBLIC "-//W3C//DTD SVG 1.1//EN"
 "http://www.w3.org/Graphics/SVG/1.1/DTD/svg11.dtd">
<!-- Generated by graphviz version 2.30.1 (20150305.2338)
 -->
<!-- Title: COM_set_array Pages: 1 -->
<svg width="422pt" height="77pt"
 viewBox="0.00 0.00 422.00 77.00" xmlns="http://www.w3.org/2000/svg" xmlns:xlink="http://www.w3.org/1999/xlink">
<g id="graph0" class="graph" transform="scale(1 1) rotate(0) translate(4 73)">
<title>COM_set_array</title>
<!-- Node1 -->
<g id="node1" class="node"><title>Node1</title>
<polygon fill="#bfbfbf" stroke="black" points="0,-27.5 0,-46.5 86,-46.5 86,-27.5 0,-27.5"/>
<text text-anchor="middle" x="43" y="-34.5" font-family="Helvetica,sans-Serif" font-size="10.00">COM_set_array</text>
</g>
<!-- Node2 -->
<g id="node2" class="node"><title>Node2</title>
<g id="a_node2"><a xlink:href="COM__base_8hpp_a49353596e53127db61529b5c9000549d.html#a49353596e53127db61529b5c9000549d" target="_top" xlink:title="COM_get_com">
<polygon fill="none" stroke="black" points="138.5,-49.5 138.5,-68.5 221.5,-68.5 221.5,-49.5 138.5,-49.5"/>
<text text-anchor="middle" x="180" y="-56.5" font-family="Helvetica,sans-Serif" font-size="10.00">COM_get_com</text>
</a>
</g>
</g>
<!-- Node1&#45;&gt;Node2 -->
<g id="edge1" class="edge"><title>Node1&#45;&gt;Node2</title>
<path fill="none" stroke="midnightblue" d="M86.3444,-43.9006C99.531,-46.0495 114.212,-48.442 127.93,-50.6774"/>
<polygon fill="midnightblue" stroke="midnightblue" points="127.758,-54.1955 138.191,-52.3496 128.884,-47.2867 127.758,-54.1955"/>
</g>
<!-- Node4 -->
<g id="node4" class="node"><title>Node4</title>
<g id="a_node4"><a xlink:href="classCOM_1_1COM__base_a57c037aa472a815dda4667bb7cb2f986.html#a57c037aa472a815dda4667bb7cb2f986" target="_top" xlink:title="Associates an array with an dataitem for a specific pane. ">
<polygon fill="none" stroke="black" points="122.5,-0 122.5,-30 237.5,-30 237.5,-0 122.5,-0"/>
<text text-anchor="start" x="130.5" y="-18" font-family="Helvetica,sans-Serif" font-size="10.00">COM::COM_base::set</text>
<text text-anchor="middle" x="180" y="-7" font-family="Helvetica,sans-Serif" font-size="10.00">_array</text>
</a>
</g>
</g>
<!-- Node1&#45;&gt;Node4 -->
<g id="edge3" class="edge"><title>Node1&#45;&gt;Node4</title>
<path fill="none" stroke="midnightblue" d="M86.3444,-30.0994C94.6594,-28.7444 103.569,-27.2925 112.456,-25.8442"/>
<polygon fill="midnightblue" stroke="midnightblue" points="113.141,-29.2789 122.448,-24.2159 112.015,-22.37 113.141,-29.2789"/>
</g>
<!-- Node3 -->
<g id="node3" class="node"><title>Node3</title>
<g id="a_node3"><a xlink:href="classCOM_1_1COM__base_a77bb770b9ec1aac99361c45efbccabc1.html#a77bb770b9ec1aac99361c45efbccabc1" target="_top" xlink:title="Get a pointer to the COM object. ">
<polygon fill="none" stroke="black" points="274.5,-49.5 274.5,-68.5 413.5,-68.5 413.5,-49.5 274.5,-49.5"/>
<text text-anchor="middle" x="344" y="-56.5" font-family="Helvetica,sans-Serif" font-size="10.00">COM::COM_base::get_com</text>
</a>
</g>
</g>
<!-- Node2&#45;&gt;Node3 -->
<g id="edge2" class="edge"><title>Node2&#45;&gt;Node3</title>
<path fill="none" stroke="midnightblue" d="M221.879,-59C234.826,-59 249.603,-59 264.279,-59"/>
<polygon fill="midnightblue" stroke="midnightblue" points="264.4,-62.5001 274.4,-59 264.4,-55.5001 264.4,-62.5001"/>
</g>
</g>
</svg>
