<?xml version="1.0" encoding="UTF-8" standalone="no"?>
<!DOCTYPE svg PUBLIC "-//W3C//DTD SVG 1.1//EN"
 "http://www.w3.org/Graphics/SVG/1.1/DTD/svg11.dtd">
<!-- Generated by graphviz version 2.30.1 (20150305.2338)
 -->
<!-- Title: DataItem.hpp Pages: 1 -->
<svg width="155pt" height="196pt"
 viewBox="0.00 0.00 155.00 196.00" xmlns="http://www.w3.org/2000/svg" xmlns:xlink="http://www.w3.org/1999/xlink">
<g id="graph0" class="graph" transform="scale(1 1) rotate(0) translate(4 192)">
<title>DataItem.hpp</title>
<!-- Node1 -->
<g id="node1" class="node"><title>Node1</title>
<polygon fill="#bfbfbf" stroke="black" points="19,-168.5 19,-187.5 95,-187.5 95,-168.5 19,-168.5"/>
<text text-anchor="middle" x="57" y="-175.5" font-family="Helvetica,sans-Serif" font-size="10.00">DataItem.hpp</text>
</g>
<!-- Node2 -->
<g id="node2" class="node"><title>Node2</title>
<polygon fill="none" stroke="#bfbfbf" points="-0.5,-56.5 -0.5,-75.5 40.5,-75.5 40.5,-56.5 -0.5,-56.5"/>
<text text-anchor="middle" x="20" y="-63.5" font-family="Helvetica,sans-Serif" font-size="10.00">string</text>
</g>
<!-- Node1&#45;&gt;Node2 -->
<g id="edge1" class="edge"><title>Node1&#45;&gt;Node2</title>
<path fill="none" stroke="midnightblue" d="M52.5801,-168.208C48.2049,-159.26 41.5233,-144.909 37,-132 31.6302,-116.675 27.0732,-98.7945 24.0331,-85.6707"/>
<polygon fill="midnightblue" stroke="midnightblue" points="27.3671,-84.5412 21.7696,-75.5458 20.5357,-86.0685 27.3671,-84.5412"/>
</g>
<!-- Node3 -->
<g id="node3" class="node"><title>Node3</title>
<g id="a_node3"><a xlink:href="com__exception_8hpp.html" target="_top" xlink:title="com_exception.hpp">
<polygon fill="none" stroke="black" points="46.5,-112.5 46.5,-131.5 147.5,-131.5 147.5,-112.5 46.5,-112.5"/>
<text text-anchor="middle" x="97" y="-119.5" font-family="Helvetica,sans-Serif" font-size="10.00">com_exception.hpp</text>
</a>
</g>
</g>
<!-- Node1&#45;&gt;Node3 -->
<g id="edge2" class="edge"><title>Node1&#45;&gt;Node3</title>
<path fill="none" stroke="midnightblue" d="M63.6052,-168.083C69.2552,-160.455 77.5448,-149.264 84.4512,-139.941"/>
<polygon fill="midnightblue" stroke="midnightblue" points="87.3779,-141.87 90.5177,-131.751 81.7529,-137.703 87.3779,-141.87"/>
</g>
<!-- Node4 -->
<g id="node4" class="node"><title>Node4</title>
<g id="a_node4"><a xlink:href="com__basic_8h.html" target="_top" xlink:title="This file contains some definitions of macros and constants for COM. ">
<polygon fill="none" stroke="black" points="61,-56.5 61,-75.5 133,-75.5 133,-56.5 61,-56.5"/>
<text text-anchor="middle" x="97" y="-63.5" font-family="Helvetica,sans-Serif" font-size="10.00">com_basic.h</text>
</a>
</g>
</g>
<!-- Node3&#45;&gt;Node4 -->
<g id="edge3" class="edge"><title>Node3&#45;&gt;Node4</title>
<path fill="none" stroke="midnightblue" d="M97,-112.083C97,-105.006 97,-94.8611 97,-85.9865"/>
<polygon fill="midnightblue" stroke="midnightblue" points="100.5,-85.751 97,-75.7511 93.5001,-85.7511 100.5,-85.751"/>
</g>
<!-- Node3&#45;&gt;Node2 -->
<g id="edge5" class="edge"><title>Node3&#45;&gt;Node2</title>
<path fill="none" stroke="midnightblue" d="M84.6286,-112.324C72.8415,-104.058 54.8677,-91.4527 40.8645,-81.6322"/>
<polygon fill="midnightblue" stroke="midnightblue" points="42.5376,-78.5307 32.3407,-75.6545 38.5184,-84.2619 42.5376,-78.5307"/>
</g>
<!-- Node5 -->
<g id="node5" class="node"><title>Node5</title>
<g id="a_node5"><a xlink:href="FC_8h.html" target="_top" xlink:title="FC.h">
<polygon fill="none" stroke="black" points="78,-0.5 78,-19.5 116,-19.5 116,-0.5 78,-0.5"/>
<text text-anchor="middle" x="97" y="-7.5" font-family="Helvetica,sans-Serif" font-size="10.00">FC.h</text>
</a>
</g>
</g>
<!-- Node4&#45;&gt;Node5 -->
<g id="edge4" class="edge"><title>Node4&#45;&gt;Node5</title>
<path fill="none" stroke="midnightblue" d="M97,-56.083C97,-49.0059 97,-38.8611 97,-29.9865"/>
<polygon fill="midnightblue" stroke="midnightblue" points="100.5,-29.751 97,-19.7511 93.5001,-29.7511 100.5,-29.751"/>
</g>
</g>
</svg>
