<?xml version="1.0" encoding="UTF-8" standalone="no"?>
<!DOCTYPE svg PUBLIC "-//W3C//DTD SVG 1.1//EN"
 "http://www.w3.org/Graphics/SVG/1.1/DTD/svg11.dtd">
<!-- Generated by graphviz version 2.30.1 (20150305.2338)
 -->
<!-- Title: DataItem.hpp Pages: 1 -->
<!--zoomable 444 -->
<svg id="main" version="1.1" xmlns="http://www.w3.org/2000/svg" xmlns:xlink="http://www.w3.org/1999/xlink" xml:space="preserve" onload="init(evt)">
<style type="text/css"><![CDATA[
.edge:hover path { stroke: red; }
.edge:hover polygon { stroke: red; fill: red; }
]]></style>
<script type="text/javascript"><![CDATA[
var edges = document.getElementsByTagName('g');
if (edges && edges.length) {
  for (var i=0;i<edges.length;i++) {
    if (edges[i].id.substr(0,4)=='edge') {
      edges[i].setAttribute('class','edge');
    }
  }
}
]]></script>
        <defs>
                <circle id="rim" cx="0" cy="0" r="7"/>
                <circle id="rim2" cx="0" cy="0" r="3.5"/>
                <g id="zoomPlus">
                        <use xlink:href="#rim" fill="#404040">
                                <set attributeName="fill" to="#808080" begin="zoomplus.mouseover" end="zoomplus.mouseout"/>
                        </use>
                        <path d="M-4,0h8M0,-4v8" fill="none" stroke="white" stroke-width="1.5" pointer-events="none"/>
                </g>
                <g id="zoomMin">
                        <use xlink:href="#rim" fill="#404040">
                                <set attributeName="fill" to="#808080" begin="zoomminus.mouseover" end="zoomminus.mouseout"/>
                        </use>
                        <path d="M-4,0h8" fill="none" stroke="white" stroke-width="1.5" pointer-events="none"/>
                </g>
                <g id="dirArrow">
                        <path fill="none" stroke="white" stroke-width="1.5" d="M0,-3.0v7 M-2.5,-0.5L0,-3.0L2.5,-0.5"/>
                </g>
               <g id="resetDef">
                       <use xlink:href="#rim2" fill="#404040">
                               <set attributeName="fill" to="#808080" begin="reset.mouseover" end="reset.mouseout"/>
                       </use>
               </g>
        </defs>

<script type="text/javascript">
var viewWidth = 2319;
var viewHeight = 444;
var sectionId = 'dynsection-1';
</script>
<script xlink:href="svgpan.js"/>
<svg id="graph" class="graph">
<g id="viewport">
<title>DataItem.hpp</title>
<!-- Node1 -->
<g id="node1" class="node"><title>Node1</title>
<polygon fill="#bfbfbf" stroke="black" points="1029,-416.5 1029,-435.5 1105,-435.5 1105,-416.5 1029,-416.5"/>
<text text-anchor="middle" x="1067" y="-423.5" font-family="Helvetica,sans-Serif" font-size="10.00">DataItem.hpp</text>
</g>
<!-- Node2 -->
<g id="node2" class="node"><title>Node2</title>
<g id="a_node2"><a xlink:href="com__devel_8hpp.html" target="_top" xlink:title="com_devel.hpp">
<polygon fill="none" stroke="black" points="1024.5,-192.5 1024.5,-211.5 1107.5,-211.5 1107.5,-192.5 1024.5,-192.5"/>
<text text-anchor="middle" x="1066" y="-199.5" font-family="Helvetica,sans-Serif" font-size="10.00">com_devel.hpp</text>
</a>
</g>
</g>
<!-- Node1&#45;&gt;Node2 -->
<g id="edge1" class="edge"><title>Node1&#45;&gt;Node2</title>
<path fill="none" stroke="midnightblue" d="M1075.94,-407.195C1079.52,-399.111 1083.21,-389.295 1085,-380 1097.33,-315.966 1076.43,-237.245 1068.7,-211.549"/>
<polygon fill="midnightblue" stroke="midnightblue" points="1072.73,-405.802 1071.62,-416.339 1079.06,-408.791 1072.73,-405.802"/>
</g>
<!-- Node39 -->
<g id="node39" class="node"><title>Node39</title>
<g id="a_node39"><a xlink:href="Connectivity_8hpp.html" target="_top" xlink:title="Connectivity.hpp">
<polygon fill="none" stroke="black" points="986,-360.5 986,-379.5 1076,-379.5 1076,-360.5 986,-360.5"/>
<text text-anchor="middle" x="1031" y="-367.5" font-family="Helvetica,sans-Serif" font-size="10.00">Connectivity.hpp</text>
</a>
</g>
</g>
<!-- Node1&#45;&gt;Node39 -->
<g id="edge43" class="edge"><title>Node1&#45;&gt;Node39</title>
<path fill="none" stroke="midnightblue" d="M1055.38,-407.566C1049.18,-398.275 1041.83,-387.248 1036.83,-379.751"/>
<polygon fill="midnightblue" stroke="midnightblue" points="1052.6,-409.704 1061.06,-416.083 1058.42,-405.821 1052.6,-409.704"/>
</g>
<!-- Node3 -->
<g id="node3" class="node"><title>Node3</title>
<g id="a_node3"><a xlink:href="COM__base_8hpp.html" target="_top" xlink:title="Contains declaration of the base class for COM implementations. ">
<polygon fill="none" stroke="black" points="28.5,-136.5 28.5,-155.5 113.5,-155.5 113.5,-136.5 28.5,-136.5"/>
<text text-anchor="middle" x="71" y="-143.5" font-family="Helvetica,sans-Serif" font-size="10.00">COM_base.hpp</text>
</a>
</g>
</g>
<!-- Node2&#45;&gt;Node3 -->
<g id="edge2" class="edge"><title>Node2&#45;&gt;Node3</title>
<path fill="none" stroke="midnightblue" d="M1014.11,-200.487C871.985,-198.655 464.62,-190.547 128,-156 123.316,-155.519 118.431,-154.912 113.576,-154.24"/>
<polygon fill="midnightblue" stroke="midnightblue" points="1014.23,-203.989 1024.27,-200.613 1014.32,-196.989 1014.23,-203.989"/>
</g>
<!-- Node6 -->
<g id="node6" class="node"><title>Node6</title>
<g id="a_node6"><a xlink:href="Dual__connectivity_8h.html" target="_top" xlink:title="Dual_connectivity.h">
<polygon fill="none" stroke="black" points="302.5,-136.5 302.5,-155.5 405.5,-155.5 405.5,-136.5 302.5,-136.5"/>
<text text-anchor="middle" x="354" y="-143.5" font-family="Helvetica,sans-Serif" font-size="10.00">Dual_connectivity.h</text>
</a>
</g>
</g>
<!-- Node2&#45;&gt;Node6 -->
<g id="edge5" class="edge"><title>Node2&#45;&gt;Node6</title>
<path fill="none" stroke="midnightblue" d="M1014.2,-198.785C903.818,-193.764 637.319,-180.048 415,-156 411.914,-155.666 408.744,-155.292 405.549,-154.892"/>
<polygon fill="midnightblue" stroke="midnightblue" points="1014.25,-202.29 1024.39,-199.244 1014.56,-195.297 1014.25,-202.29"/>
</g>
<!-- Node7 -->
<g id="node7" class="node"><title>Node7</title>
<g id="a_node7"><a xlink:href="Pane__boundary_8h.html" target="_top" xlink:title="Utility for detecting boundaries of a pane. ">
<polygon fill="none" stroke="black" points="1355,-74.5 1355,-93.5 1447,-93.5 1447,-74.5 1355,-74.5"/>
<text text-anchor="middle" x="1401" y="-81.5" font-family="Helvetica,sans-Serif" font-size="10.00">Pane_boundary.h</text>
</a>
</g>
</g>
<!-- Node2&#45;&gt;Node7 -->
<g id="edge6" class="edge"><title>Node2&#45;&gt;Node7</title>
<path fill="none" stroke="midnightblue" d="M1117.63,-198.685C1191.96,-194.446 1324.45,-183.224 1363,-156 1384.7,-140.677 1395.12,-108.989 1399.05,-93.6687"/>
<polygon fill="midnightblue" stroke="midnightblue" points="1117.33,-195.196 1107.54,-199.238 1117.72,-202.186 1117.33,-195.196"/>
</g>
<!-- Node8 -->
<g id="node8" class="node"><title>Node8</title>
<g id="a_node8"><a xlink:href="Simple__manifold__2_8h.html" target="_top" xlink:title="Simple_manifold_2.h">
<polygon fill="none" stroke="black" points="1411.5,-136.5 1411.5,-155.5 1518.5,-155.5 1518.5,-136.5 1411.5,-136.5"/>
<text text-anchor="middle" x="1465" y="-143.5" font-family="Helvetica,sans-Serif" font-size="10.00">Simple_manifold_2.h</text>
</a>
</g>
</g>
<!-- Node2&#45;&gt;Node8 -->
<g id="edge7" class="edge"><title>Node2&#45;&gt;Node8</title>
<path fill="none" stroke="midnightblue" d="M1117.83,-193.985C1193.69,-183.719 1334.26,-164.694 1411.21,-154.279"/>
<polygon fill="midnightblue" stroke="midnightblue" points="1117.01,-190.564 1107.57,-195.374 1117.95,-197.501 1117.01,-190.564"/>
</g>
<!-- Node10 -->
<g id="node10" class="node"><title>Node10</title>
<g id="a_node10"><a xlink:href="Pane__communicator_8h.html" target="_top" xlink:title="Handles communication of shared nodes, ghost nodes or ghost cells across panes. ">
<polygon fill="none" stroke="black" points="170,-136.5 170,-155.5 284,-155.5 284,-136.5 170,-136.5"/>
<text text-anchor="middle" x="227" y="-143.5" font-family="Helvetica,sans-Serif" font-size="10.00">Pane_communicator.h</text>
</a>
</g>
</g>
<!-- Node2&#45;&gt;Node10 -->
<g id="edge11" class="edge"><title>Node2&#45;&gt;Node10</title>
<path fill="none" stroke="midnightblue" d="M1014.43,-199.377C890.095,-195.165 564.017,-182.327 293,-156 290.122,-155.72 287.177,-155.41 284.206,-155.076"/>
<polygon fill="midnightblue" stroke="midnightblue" points="1014.32,-202.876 1024.43,-199.712 1014.56,-195.88 1014.32,-202.876"/>
</g>
<!-- Node9 -->
<g id="node9" class="node"><title>Node9</title>
<g id="a_node9"><a xlink:href="Pane__connectivity_8h.html" target="_top" xlink:title="Utility for constructing pane connectivities in parallel. ">
<polygon fill="none" stroke="black" points="1465.5,-74.5 1465.5,-93.5 1570.5,-93.5 1570.5,-74.5 1465.5,-74.5"/>
<text text-anchor="middle" x="1518" y="-81.5" font-family="Helvetica,sans-Serif" font-size="10.00">Pane_connectivity.h</text>
</a>
</g>
</g>
<!-- Node2&#45;&gt;Node9 -->
<g id="edge13" class="edge"><title>Node2&#45;&gt;Node9</title>
<path fill="none" stroke="midnightblue" d="M1117.8,-199.781C1232.5,-196.547 1499.92,-185.853 1527,-156 1542.69,-138.699 1530.48,-108.518 1522.89,-93.7051"/>
<polygon fill="midnightblue" stroke="midnightblue" points="1117.42,-196.29 1107.52,-200.063 1117.61,-203.288 1117.42,-196.29"/>
</g>
<!-- Node12 -->
<g id="node12" class="node"><title>Node12</title>
<g id="a_node12"><a xlink:href="Rocmap_8h.html" target="_top" xlink:title="Rocmap.h">
<polygon fill="none" stroke="black" points="1749,-74.5 1749,-93.5 1811,-93.5 1811,-74.5 1749,-74.5"/>
<text text-anchor="middle" x="1780" y="-81.5" font-family="Helvetica,sans-Serif" font-size="10.00">Rocmap.h</text>
</a>
</g>
</g>
<!-- Node2&#45;&gt;Node12 -->
<g id="edge14" class="edge"><title>Node2&#45;&gt;Node12</title>
<path fill="none" stroke="midnightblue" d="M1117.66,-199.665C1278.08,-195.272 1758.32,-180.149 1781,-156 1796.86,-139.105 1788.89,-108.734 1783.53,-93.7912"/>
<polygon fill="midnightblue" stroke="midnightblue" points="1117.47,-196.169 1107.56,-199.939 1117.66,-203.167 1117.47,-196.169"/>
</g>
<!-- Node13 -->
<g id="node13" class="node"><title>Node13</title>
<g id="a_node13"><a xlink:href="ElmerFSI_2trunk_2src_2SolverModuleDriver_8C.html" target="_top" xlink:title="Main function to call the Elmer SolverModule. ">
<polygon fill="none" stroke="black" points="592.5,-136.5 592.5,-155.5 705.5,-155.5 705.5,-136.5 592.5,-136.5"/>
<text text-anchor="middle" x="649" y="-143.5" font-family="Helvetica,sans-Serif" font-size="10.00">SolverModuleDriver.C</text>
</a>
</g>
</g>
<!-- Node2&#45;&gt;Node13 -->
<g id="edge16" class="edge"><title>Node2&#45;&gt;Node13</title>
<path fill="none" stroke="midnightblue" d="M1014.14,-194.542C945.461,-185.95 820.591,-170.192 714,-156 711.29,-155.639 708.516,-155.267 705.716,-154.888"/>
<polygon fill="midnightblue" stroke="midnightblue" points="1013.9,-198.039 1024.26,-195.807 1014.77,-191.093 1013.9,-198.039"/>
</g>
<!-- Node14 -->
<g id="node14" class="node"><title>Node14</title>
<g id="a_node14"><a xlink:href="SolverModuleDriverParallel_8C.html" target="_top" xlink:title="Main function to call the Elmer SolverModule. ">
<polygon fill="none" stroke="black" points="723.5,-136.5 723.5,-155.5 868.5,-155.5 868.5,-136.5 723.5,-136.5"/>
<text text-anchor="middle" x="796" y="-143.5" font-family="Helvetica,sans-Serif" font-size="10.00">SolverModuleDriverParallel.C</text>
</a>
</g>
</g>
<!-- Node2&#45;&gt;Node14 -->
<g id="edge17" class="edge"><title>Node2&#45;&gt;Node14</title>
<path fill="none" stroke="midnightblue" d="M1014.56,-190.713C963.523,-180.505 886.217,-165.043 838.534,-155.507"/>
<polygon fill="midnightblue" stroke="midnightblue" points="1013.91,-194.152 1024.4,-192.681 1015.28,-187.288 1013.91,-194.152"/>
</g>
<!-- Node15 -->
<g id="node15" class="node"><title>Node15</title>
<g id="a_node15"><a xlink:href="ElmerModuleDriverTest_8H.html" target="_top" xlink:title="Testing object for ElmerModuleDriver. ">
<polygon fill="none" stroke="black" points="1829,-136.5 1829,-155.5 1959,-155.5 1959,-136.5 1829,-136.5"/>
<text text-anchor="middle" x="1894" y="-143.5" font-family="Helvetica,sans-Serif" font-size="10.00">ElmerModuleDriverTest.H</text>
</a>
</g>
</g>
<!-- Node2&#45;&gt;Node15 -->
<g id="edge18" class="edge"><title>Node2&#45;&gt;Node15</title>
<path fill="none" stroke="midnightblue" d="M1118.05,-198.832C1239.99,-193.542 1553.65,-178.722 1815,-156 1819.54,-155.605 1824.22,-155.163 1828.93,-154.692"/>
<polygon fill="midnightblue" stroke="midnightblue" points="1117.72,-195.342 1107.88,-199.27 1118.02,-202.336 1117.72,-195.342"/>
</g>
<!-- Node19 -->
<g id="node19" class="node"><title>Node19</title>
<g id="a_node19"><a xlink:href="ElmerTest_2trunk_2src_2SolverModuleDriver_8C.html" target="_top" xlink:title="Main function to call the Elmer SolverModule. ">
<polygon fill="none" stroke="black" points="886.5,-136.5 886.5,-155.5 999.5,-155.5 999.5,-136.5 886.5,-136.5"/>
<text text-anchor="middle" x="943" y="-143.5" font-family="Helvetica,sans-Serif" font-size="10.00">SolverModuleDriver.C</text>
</a>
</g>
</g>
<!-- Node2&#45;&gt;Node19 -->
<g id="edge22" class="edge"><title>Node2&#45;&gt;Node19</title>
<path fill="none" stroke="midnightblue" d="M1037.23,-188.368C1014.19,-178.255 982.516,-164.349 962.399,-155.516"/>
<polygon fill="midnightblue" stroke="midnightblue" points="1035.95,-191.628 1046.51,-192.444 1038.76,-185.219 1035.95,-191.628"/>
</g>
<!-- Node20 -->
<g id="node20" class="node"><title>Node20</title>
<g id="a_node20"><a xlink:href="icoFoamModule_8C.html" target="_top" xlink:title="C++ Module. ">
<polygon fill="none" stroke="black" points="1018,-136.5 1018,-155.5 1114,-155.5 1114,-136.5 1018,-136.5"/>
<text text-anchor="middle" x="1066" y="-143.5" font-family="Helvetica,sans-Serif" font-size="10.00">icoFoamModule.C</text>
</a>
</g>
</g>
<!-- Node2&#45;&gt;Node20 -->
<g id="edge23" class="edge"><title>Node2&#45;&gt;Node20</title>
<path fill="none" stroke="midnightblue" d="M1066,-181.805C1066,-172.91 1066,-162.78 1066,-155.751"/>
<polygon fill="midnightblue" stroke="midnightblue" points="1062.5,-182.083 1066,-192.083 1069.5,-182.083 1062.5,-182.083"/>
</g>
<!-- Node21 -->
<g id="node21" class="node"><title>Node21</title>
<g id="a_node21"><a xlink:href="IcoFoamModuleDriver_8C.html" target="_top" xlink:title="Main function of the driver (in C/C++) for the IcoFoamModule. ">
<polygon fill="none" stroke="black" points="1132.5,-136.5 1132.5,-155.5 1255.5,-155.5 1255.5,-136.5 1132.5,-136.5"/>
<text text-anchor="middle" x="1194" y="-143.5" font-family="Helvetica,sans-Serif" font-size="10.00">IcoFoamModuleDriver.C</text>
</a>
</g>
</g>
<!-- Node2&#45;&gt;Node21 -->
<g id="edge24" class="edge"><title>Node2&#45;&gt;Node21</title>
<path fill="none" stroke="midnightblue" d="M1095.62,-188.503C1119.62,-178.38 1152.78,-164.388 1173.81,-155.516"/>
<polygon fill="midnightblue" stroke="midnightblue" points="1094.14,-185.332 1086.28,-192.444 1096.86,-191.781 1094.14,-185.332"/>
</g>
<!-- Node22 -->
<g id="node22" class="node"><title>Node22</title>
<g id="a_node22"><a xlink:href="fsiFOAM_8H.html" target="_top" xlink:title="fsiFOAM.H">
<polygon fill="none" stroke="black" points="424,-136.5 424,-155.5 490,-155.5 490,-136.5 424,-136.5"/>
<text text-anchor="middle" x="457" y="-143.5" font-family="Helvetica,sans-Serif" font-size="10.00">fsiFOAM.H</text>
</a>
</g>
</g>
<!-- Node2&#45;&gt;Node22 -->
<g id="edge25" class="edge"><title>Node2&#45;&gt;Node22</title>
<path fill="none" stroke="midnightblue" d="M1014.03,-199.169C913.902,-195.135 687.502,-183.554 499,-156 496.196,-155.59 493.299,-155.104 490.399,-154.572"/>
<polygon fill="midnightblue" stroke="midnightblue" points="1014.04,-202.672 1024.17,-199.569 1014.32,-195.678 1014.04,-202.672"/>
</g>
<!-- Node25 -->
<g id="node25" class="node"><title>Node25</title>
<g id="a_node25"><a xlink:href="lnInclude_2fsiFOAM_8H.html" target="_top" xlink:title="fsiFOAM.H">
<polygon fill="none" stroke="black" points="508,-136.5 508,-155.5 574,-155.5 574,-136.5 508,-136.5"/>
<text text-anchor="middle" x="541" y="-143.5" font-family="Helvetica,sans-Serif" font-size="10.00">fsiFOAM.H</text>
</a>
</g>
</g>
<!-- Node2&#45;&gt;Node25 -->
<g id="edge28" class="edge"><title>Node2&#45;&gt;Node25</title>
<path fill="none" stroke="midnightblue" d="M1014.39,-198.2C925.778,-192.945 739.148,-179.918 583,-156 580.199,-155.571 577.304,-155.071 574.405,-154.531"/>
<polygon fill="midnightblue" stroke="midnightblue" points="1014.26,-201.698 1024.45,-198.788 1014.67,-194.71 1014.26,-201.698"/>
</g>
<!-- Node30 -->
<g id="node30" class="node"><title>Node30</title>
<g id="a_node30"><a xlink:href="fsiFOAMPar_8H.html" target="_top" xlink:title="fsiFOAMPar.H">
<polygon fill="none" stroke="black" points="1273.5,-136.5 1273.5,-155.5 1354.5,-155.5 1354.5,-136.5 1273.5,-136.5"/>
<text text-anchor="middle" x="1314" y="-143.5" font-family="Helvetica,sans-Serif" font-size="10.00">fsiFOAMPar.H</text>
</a>
</g>
</g>
<!-- Node2&#45;&gt;Node30 -->
<g id="edge33" class="edge"><title>Node2&#45;&gt;Node30</title>
<path fill="none" stroke="midnightblue" d="M1115.23,-190.281C1162.09,-180.077 1231.7,-164.92 1274.89,-155.516"/>
<polygon fill="midnightblue" stroke="midnightblue" points="1114.32,-186.896 1105.3,-192.444 1115.81,-193.736 1114.32,-186.896"/>
</g>
<!-- Node32 -->
<g id="node32" class="node"><title>Node32</title>
<g id="a_node32"><a xlink:href="lnInclude_2fsiFOAMPar_8H.html" target="_top" xlink:title="fsiFOAMPar.H">
<polygon fill="none" stroke="black" points="1691.5,-136.5 1691.5,-155.5 1772.5,-155.5 1772.5,-136.5 1691.5,-136.5"/>
<text text-anchor="middle" x="1732" y="-143.5" font-family="Helvetica,sans-Serif" font-size="10.00">fsiFOAMPar.H</text>
</a>
</g>
</g>
<!-- Node2&#45;&gt;Node32 -->
<g id="edge35" class="edge"><title>Node2&#45;&gt;Node32</title>
<path fill="none" stroke="midnightblue" d="M1117.72,-199.061C1223.85,-194.676 1473.77,-182.273 1682,-156 1685.06,-155.614 1688.22,-155.165 1691.4,-154.677"/>
<polygon fill="midnightblue" stroke="midnightblue" points="1117.46,-195.568 1107.61,-199.472 1117.74,-202.563 1117.46,-195.568"/>
</g>
<!-- Node34 -->
<g id="node34" class="node"><title>Node34</title>
<g id="a_node34"><a xlink:href="OFModuleDriver_8C.html" target="_top" xlink:title="Main function of the driver (in C/C++) for the OpemFoamFSIModule. ">
<polygon fill="none" stroke="black" points="1575,-136.5 1575,-155.5 1673,-155.5 1673,-136.5 1575,-136.5"/>
<text text-anchor="middle" x="1624" y="-143.5" font-family="Helvetica,sans-Serif" font-size="10.00">OFModuleDriver.C</text>
</a>
</g>
</g>
<!-- Node2&#45;&gt;Node34 -->
<g id="edge37" class="edge"><title>Node2&#45;&gt;Node34</title>
<path fill="none" stroke="midnightblue" d="M1118.04,-197.151C1208.33,-190.276 1399.82,-174.827 1561,-156 1565.5,-155.474 1570.17,-154.886 1574.85,-154.269"/>
<polygon fill="midnightblue" stroke="midnightblue" points="1117.5,-193.682 1107.8,-197.927 1118.03,-200.662 1117.5,-193.682"/>
</g>
<!-- Node11 -->
<g id="node11" class="node"><title>Node11</title>
<g id="a_node11"><a xlink:href="OFModuleDriverPar_8C.html" target="_top" xlink:title="Main function of the driver (in C/C++) for the OpemFoamFSIModule. ">
<polygon fill="none" stroke="black" points="161.5,-74.5 161.5,-93.5 274.5,-93.5 274.5,-74.5 161.5,-74.5"/>
<text text-anchor="middle" x="218" y="-81.5" font-family="Helvetica,sans-Serif" font-size="10.00">OFModuleDriverPar.C</text>
</a>
</g>
</g>
<!-- Node2&#45;&gt;Node11 -->
<g id="edge38" class="edge"><title>Node2&#45;&gt;Node11</title>
<path fill="none" stroke="midnightblue" d="M1014.06,-200.373C826.062,-197.852 190.55,-187.056 161,-156 140.951,-134.929 179.169,-107.469 202.252,-93.6893"/>
<polygon fill="midnightblue" stroke="midnightblue" points="1014.19,-203.875 1024.24,-200.507 1014.28,-196.875 1014.19,-203.875"/>
</g>
<!-- Node35 -->
<g id="node35" class="node"><title>Node35</title>
<g id="a_node35"><a xlink:href="OpenFoamModuleDriverTest_8H.html" target="_top" xlink:title="Testing object for OpenFoamModuleDriver. ">
<polygon fill="none" stroke="black" points="1985,-136.5 1985,-155.5 2137,-155.5 2137,-136.5 1985,-136.5"/>
<text text-anchor="middle" x="2061" y="-143.5" font-family="Helvetica,sans-Serif" font-size="10.00">OpenFoamModuleDriverTest.H</text>
</a>
</g>
</g>
<!-- Node2&#45;&gt;Node35 -->
<g id="edge39" class="edge"><title>Node2&#45;&gt;Node35</title>
<path fill="none" stroke="midnightblue" d="M1118.17,-199.249C1256.7,-194.414 1645.29,-179.652 1968,-156 1973.5,-155.597 1979.18,-155.142 1984.89,-154.656"/>
<polygon fill="midnightblue" stroke="midnightblue" points="1117.73,-195.762 1107.85,-199.607 1117.97,-202.758 1117.73,-195.762"/>
</g>
<!-- Node4 -->
<g id="node4" class="node"><title>Node4</title>
<g id="a_node4"><a xlink:href="com__c_09_09_8hpp.html" target="_top" xlink:title="Contains the wrapper routines for C++ binding of COM API. ">
<polygon fill="none" stroke="black" points="66.5,-74.5 66.5,-93.5 143.5,-93.5 143.5,-74.5 66.5,-74.5"/>
<text text-anchor="middle" x="105" y="-81.5" font-family="Helvetica,sans-Serif" font-size="10.00">com_c++.hpp</text>
</a>
</g>
</g>
<!-- Node3&#45;&gt;Node4 -->
<g id="edge3" class="edge"><title>Node3&#45;&gt;Node4</title>
<path fill="none" stroke="midnightblue" d="M80.9025,-127.525C87.2243,-116.369 95.1422,-102.396 100.138,-93.5806"/>
<polygon fill="midnightblue" stroke="midnightblue" points="77.7565,-125.978 75.8714,-136.403 83.8466,-129.429 77.7565,-125.978"/>
</g>
<!-- Node5 -->
<g id="node5" class="node"><title>Node5</title>
<g id="a_node5"><a xlink:href="Pane__ghost__connectivity_8h.html" target="_top" xlink:title="Utility for constructing pane ghost connecvtivities in parallel. ">
<polygon fill="none" stroke="black" points="702,-6.5 702,-25.5 836,-25.5 836,-6.5 702,-6.5"/>
<text text-anchor="middle" x="769" y="-13.5" font-family="Helvetica,sans-Serif" font-size="10.00">Pane_ghost_connectivity.h</text>
</a>
</g>
</g>
<!-- Node3&#45;&gt;Node5 -->
<g id="edge4" class="edge"><title>Node3&#45;&gt;Node5</title>
<path fill="none" stroke="midnightblue" d="M60.2647,-127.24C51.3207,-109.902 42.2182,-83.8784 57,-68 100.382,-21.3995 532.916,-16.7511 701.876,-16.7306"/>
<polygon fill="midnightblue" stroke="midnightblue" points="57.396,-129.282 65.3307,-136.302 63.5061,-125.866 57.396,-129.282"/>
</g>
<!-- Node8&#45;&gt;Node7 -->
<g id="edge8" class="edge"><title>Node8&#45;&gt;Node7</title>
<path fill="none" stroke="midnightblue" d="M1448.49,-129.521C1436.29,-118.082 1420.13,-102.93 1410.15,-93.5806"/>
<polygon fill="midnightblue" stroke="midnightblue" points="1446.14,-132.117 1455.83,-136.403 1450.93,-127.011 1446.14,-132.117"/>
</g>
<!-- Node8&#45;&gt;Node9 -->
<g id="edge9" class="edge"><title>Node8&#45;&gt;Node9</title>
<path fill="none" stroke="midnightblue" d="M1479.25,-128.863C1489.29,-117.506 1502.32,-102.752 1510.42,-93.5806"/>
<polygon fill="midnightblue" stroke="midnightblue" points="1476.59,-126.592 1472.59,-136.403 1481.84,-131.226 1476.59,-126.592"/>
</g>
<!-- Node9&#45;&gt;Node5 -->
<g id="edge10" class="edge"><title>Node9&#45;&gt;Node5</title>
<path fill="none" stroke="midnightblue" d="M1477,-72.0846C1470.03,-70.5163 1462.84,-69.0733 1456,-68 1230.63,-32.6143 959.69,-21.6464 836.218,-18.3542"/>
<polygon fill="midnightblue" stroke="midnightblue" points="1476.44,-75.5493 1486.98,-74.4434 1478.05,-68.737 1476.44,-75.5493"/>
</g>
<!-- Node10&#45;&gt;Node11 -->
<g id="edge12" class="edge"><title>Node10&#45;&gt;Node11</title>
<path fill="none" stroke="midnightblue" d="M224.225,-126.503C222.579,-115.527 220.569,-102.129 219.287,-93.5806"/>
<polygon fill="midnightblue" stroke="midnightblue" points="220.766,-127.033 225.711,-136.403 227.688,-125.995 220.766,-127.033"/>
</g>
<!-- Node12&#45;&gt;Node5 -->
<g id="edge15" class="edge"><title>Node12&#45;&gt;Node5</title>
<path fill="none" stroke="midnightblue" d="M1750.86,-71.1445C1746.92,-69.8978 1742.9,-68.7969 1739,-68 1565.93,-32.6241 1026.51,-20.9933 836.254,-17.9352"/>
<polygon fill="midnightblue" stroke="midnightblue" points="1749.73,-74.4591 1760.33,-74.4537 1752.04,-67.8509 1749.73,-74.4591"/>
</g>
<!-- Node16 -->
<g id="node16" class="node"><title>Node16</title>
<g id="a_node16"><a xlink:href="TestElmerModuleDriver_8H.html" target="_top" xlink:title="Testing utilities for ElmerModuleDriver. ">
<polygon fill="none" stroke="black" points="1829,-74.5 1829,-93.5 1959,-93.5 1959,-74.5 1829,-74.5"/>
<text text-anchor="middle" x="1894" y="-81.5" font-family="Helvetica,sans-Serif" font-size="10.00">TestElmerModuleDriver.H</text>
</a>
</g>
</g>
<!-- Node15&#45;&gt;Node16 -->
<g id="edge19" class="edge"><title>Node15&#45;&gt;Node16</title>
<path fill="none" stroke="midnightblue" d="M1894,-126.16C1894,-115.248 1894,-102.04 1894,-93.5806"/>
<polygon fill="midnightblue" stroke="midnightblue" points="1890.5,-126.403 1894,-136.403 1897.5,-126.403 1890.5,-126.403"/>
</g>
<!-- Node17 -->
<g id="node17" class="node"><title>Node17</title>
<g id="a_node17"><a xlink:href="ParallelTestElmerModuleDriver_8C.html" target="_top" xlink:title="Implements a command&#45;line interface for the ElmerModuleDriver tests. ">
<polygon fill="none" stroke="black" points="1813,-6.5 1813,-25.5 1975,-25.5 1975,-6.5 1813,-6.5"/>
<text text-anchor="middle" x="1894" y="-13.5" font-family="Helvetica,sans-Serif" font-size="10.00">ParallelTestElmerModuleDriver.C</text>
</a>
</g>
</g>
<!-- Node16&#45;&gt;Node17 -->
<g id="edge20" class="edge"><title>Node16&#45;&gt;Node17</title>
<path fill="none" stroke="midnightblue" d="M1894,-64.0413C1894,-51.4724 1894,-35.5631 1894,-25.8411"/>
<polygon fill="midnightblue" stroke="midnightblue" points="1890.5,-64.3716 1894,-74.3717 1897.5,-64.3717 1890.5,-64.3716"/>
</g>
<!-- Node18 -->
<g id="node18" class="node"><title>Node18</title>
<g id="a_node18"><a xlink:href="TestElmerModuleDriver_8C.html" target="_top" xlink:title="Implements a command&#45;line interface for the ElmerModuleDriver tests. ">
<polygon fill="none" stroke="black" points="1665,-6.5 1665,-25.5 1795,-25.5 1795,-6.5 1665,-6.5"/>
<text text-anchor="middle" x="1730" y="-13.5" font-family="Helvetica,sans-Serif" font-size="10.00">TestElmerModuleDriver.C</text>
</a>
</g>
</g>
<!-- Node16&#45;&gt;Node18 -->
<g id="edge21" class="edge"><title>Node16&#45;&gt;Node18</title>
<path fill="none" stroke="midnightblue" d="M1863.03,-70.5361C1830.31,-57.3706 1779.62,-36.9673 1751.19,-25.5259"/>
<polygon fill="midnightblue" stroke="midnightblue" points="1861.98,-73.8851 1872.56,-74.3717 1864.59,-67.3913 1861.98,-73.8851"/>
</g>
<!-- Node23 -->
<g id="node23" class="node"><title>Node23</title>
<g id="a_node23"><a xlink:href="fsiFOAM_8C.html" target="_top" xlink:title="fsiFOAM.C">
<polygon fill="none" stroke="black" points="293,-74.5 293,-93.5 359,-93.5 359,-74.5 293,-74.5"/>
<text text-anchor="middle" x="326" y="-81.5" font-family="Helvetica,sans-Serif" font-size="10.00">fsiFOAM.C</text>
</a>
</g>
</g>
<!-- Node22&#45;&gt;Node23 -->
<g id="edge26" class="edge"><title>Node22&#45;&gt;Node23</title>
<path fill="none" stroke="midnightblue" d="M429.098,-132.221C403.667,-120.573 366.801,-103.687 344.734,-93.5806"/>
<polygon fill="midnightblue" stroke="midnightblue" points="427.682,-135.421 438.231,-136.403 430.597,-129.057 427.682,-135.421"/>
</g>
<!-- Node24 -->
<g id="node24" class="node"><title>Node24</title>
<g id="a_node24"><a xlink:href="icoFsiElasticNonLinULSolidFoam_8C.html" target="_top" xlink:title="icoFsiElasticNonLinULSolid\lFoam.C">
<polygon fill="none" stroke="black" points="377,-69 377,-99 515,-99 515,-69 377,-69"/>
<text text-anchor="start" x="385" y="-87" font-family="Helvetica,sans-Serif" font-size="10.00">icoFsiElasticNonLinULSolid</text>
<text text-anchor="middle" x="446" y="-76" font-family="Helvetica,sans-Serif" font-size="10.00">Foam.C</text>
</a>
</g>
</g>
<!-- Node22&#45;&gt;Node24 -->
<g id="edge27" class="edge"><title>Node22&#45;&gt;Node24</title>
<path fill="none" stroke="midnightblue" d="M453.585,-126.371C451.974,-117.585 450.083,-107.272 448.592,-99.1408"/>
<polygon fill="midnightblue" stroke="midnightblue" points="450.178,-127.199 455.424,-136.403 457.063,-125.936 450.178,-127.199"/>
</g>
<!-- Node26 -->
<g id="node26" class="node"><title>Node26</title>
<g id="a_node26"><a xlink:href="lnInclude_2fsiFOAM_8C.html" target="_top" xlink:title="fsiFOAM.C">
<polygon fill="none" stroke="black" points="533,-74.5 533,-93.5 599,-93.5 599,-74.5 533,-74.5"/>
<text text-anchor="middle" x="566" y="-81.5" font-family="Helvetica,sans-Serif" font-size="10.00">fsiFOAM.C</text>
</a>
</g>
</g>
<!-- Node25&#45;&gt;Node26 -->
<g id="edge29" class="edge"><title>Node25&#45;&gt;Node26</title>
<path fill="none" stroke="midnightblue" d="M548.564,-126.846C553.164,-115.806 558.826,-102.218 562.425,-93.5806"/>
<polygon fill="midnightblue" stroke="midnightblue" points="545.197,-125.827 544.582,-136.403 551.659,-128.519 545.197,-125.827"/>
</g>
<!-- Node27 -->
<g id="node27" class="node"><title>Node27</title>
<g id="a_node27"><a xlink:href="lnInclude_2icoFsiElasticNonLinULSolidFoam_8C.html" target="_top" xlink:title="icoFsiElasticNonLinULSolid\lFoam.C">
<polygon fill="none" stroke="black" points="617,-69 617,-99 755,-99 755,-69 617,-69"/>
<text text-anchor="start" x="625" y="-87" font-family="Helvetica,sans-Serif" font-size="10.00">icoFsiElasticNonLinULSolid</text>
<text text-anchor="middle" x="686" y="-76" font-family="Helvetica,sans-Serif" font-size="10.00">Foam.C</text>
</a>
</g>
</g>
<!-- Node25&#45;&gt;Node27 -->
<g id="edge30" class="edge"><title>Node25&#45;&gt;Node27</title>
<path fill="none" stroke="midnightblue" d="M571.277,-132.472C594.874,-122.707 627.633,-109.152 652.105,-99.0253"/>
<polygon fill="midnightblue" stroke="midnightblue" points="569.677,-129.346 561.775,-136.403 572.353,-135.814 569.677,-129.346"/>
</g>
<!-- Node28 -->
<g id="node28" class="node"><title>Node28</title>
<g id="a_node28"><a xlink:href="ar_2icoFsiElasticNonLinULSolidFoam_8C.html" target="_top" xlink:title="icoFsiElasticNonLinULSolid\lFoam.C">
<polygon fill="none" stroke="black" points="773,-69 773,-99 911,-99 911,-69 773,-69"/>
<text text-anchor="start" x="781" y="-87" font-family="Helvetica,sans-Serif" font-size="10.00">icoFsiElasticNonLinULSolid</text>
<text text-anchor="middle" x="842" y="-76" font-family="Helvetica,sans-Serif" font-size="10.00">Foam.C</text>
</a>
</g>
</g>
<!-- Node25&#45;&gt;Node28 -->
<g id="edge31" class="edge"><title>Node25&#45;&gt;Node28</title>
<path fill="none" stroke="midnightblue" d="M583.881,-135.844C653.86,-121.495 723.087,-107.932 772.955,-98.2712"/>
<polygon fill="midnightblue" stroke="midnightblue" points="583.095,-132.432 574.004,-137.873 584.504,-139.289 583.095,-132.432"/>
</g>
<!-- Node29 -->
<g id="node29" class="node"><title>Node29</title>
<g id="a_node29"><a xlink:href="ar_2lnInclude_2icoFsiElasticNonLinULSolidFoam_8C.html" target="_top" xlink:title="icoFsiElasticNonLinULSolid\lFoam.C">
<polygon fill="none" stroke="black" points="929,-69 929,-99 1067,-99 1067,-69 929,-69"/>
<text text-anchor="start" x="937" y="-87" font-family="Helvetica,sans-Serif" font-size="10.00">icoFsiElasticNonLinULSolid</text>
<text text-anchor="middle" x="998" y="-76" font-family="Helvetica,sans-Serif" font-size="10.00">Foam.C</text>
</a>
</g>
</g>
<!-- Node25&#45;&gt;Node29 -->
<g id="edge32" class="edge"><title>Node25&#45;&gt;Node29</title>
<path fill="none" stroke="midnightblue" d="M584.39,-135.927C733.474,-112.604 774.222,-121.765 920,-100 922.864,-99.5724 925.783,-99.114 928.729,-98.6327"/>
<polygon fill="midnightblue" stroke="midnightblue" points="583.739,-132.486 574.411,-137.511 584.836,-139.4 583.739,-132.486"/>
</g>
<!-- Node31 -->
<g id="node31" class="node"><title>Node31</title>
<g id="a_node31"><a xlink:href="fsiFOAMPar_8C.html" target="_top" xlink:title="fsiFOAMPar.C">
<polygon fill="none" stroke="black" points="1255.5,-74.5 1255.5,-93.5 1336.5,-93.5 1336.5,-74.5 1255.5,-74.5"/>
<text text-anchor="middle" x="1296" y="-81.5" font-family="Helvetica,sans-Serif" font-size="10.00">fsiFOAMPar.C</text>
</a>
</g>
</g>
<!-- Node30&#45;&gt;Node31 -->
<g id="edge34" class="edge"><title>Node30&#45;&gt;Node31</title>
<path fill="none" stroke="midnightblue" d="M1308.45,-126.503C1305.16,-115.527 1301.14,-102.129 1298.57,-93.5806"/>
<polygon fill="midnightblue" stroke="midnightblue" points="1305.2,-127.831 1311.42,-136.403 1311.9,-125.819 1305.2,-127.831"/>
</g>
<!-- Node33 -->
<g id="node33" class="node"><title>Node33</title>
<g id="a_node33"><a xlink:href="lnInclude_2fsiFOAMPar_8C.html" target="_top" xlink:title="fsiFOAMPar.C">
<polygon fill="none" stroke="black" points="1649.5,-74.5 1649.5,-93.5 1730.5,-93.5 1730.5,-74.5 1649.5,-74.5"/>
<text text-anchor="middle" x="1690" y="-81.5" font-family="Helvetica,sans-Serif" font-size="10.00">fsiFOAMPar.C</text>
</a>
</g>
</g>
<!-- Node32&#45;&gt;Node33 -->
<g id="edge36" class="edge"><title>Node32&#45;&gt;Node33</title>
<path fill="none" stroke="midnightblue" d="M1720.24,-128.198C1712.35,-116.936 1702.3,-102.574 1696.01,-93.5806"/>
<polygon fill="midnightblue" stroke="midnightblue" points="1717.38,-130.218 1725.98,-136.403 1723.12,-126.204 1717.38,-130.218"/>
</g>
<!-- Node36 -->
<g id="node36" class="node"><title>Node36</title>
<g id="a_node36"><a xlink:href="TestOpenFoamModuleDriver_8H.html" target="_top" xlink:title="Testing utilities for OpenFoamModuleDriver. ">
<polygon fill="none" stroke="black" points="1993,-74.5 1993,-93.5 2145,-93.5 2145,-74.5 1993,-74.5"/>
<text text-anchor="middle" x="2069" y="-81.5" font-family="Helvetica,sans-Serif" font-size="10.00">TestOpenFoamModuleDriver.H</text>
</a>
</g>
</g>
<!-- Node35&#45;&gt;Node36 -->
<g id="edge40" class="edge"><title>Node35&#45;&gt;Node36</title>
<path fill="none" stroke="midnightblue" d="M2063.51,-126.16C2064.97,-115.248 2066.73,-102.04 2067.86,-93.5806"/>
<polygon fill="midnightblue" stroke="midnightblue" points="2060,-126.029 2062.15,-136.403 2066.94,-126.954 2060,-126.029"/>
</g>
<!-- Node37 -->
<g id="node37" class="node"><title>Node37</title>
<g id="a_node37"><a xlink:href="ParallelTestOpenFoamModuleDriver_8C.html" target="_top" xlink:title="Implements a command&#45;line interface for the OpenFoamModuleDriver tests. ">
<polygon fill="none" stroke="black" points="2163,-1 2163,-31 2311,-31 2311,-1 2163,-1"/>
<text text-anchor="start" x="2171" y="-19" font-family="Helvetica,sans-Serif" font-size="10.00">ParallelTestOpenFoamModule</text>
<text text-anchor="middle" x="2237" y="-8" font-family="Helvetica,sans-Serif" font-size="10.00">Driver.C</text>
</a>
</g>
</g>
<!-- Node36&#45;&gt;Node37 -->
<g id="edge41" class="edge"><title>Node36&#45;&gt;Node37</title>
<path fill="none" stroke="midnightblue" d="M2100.48,-70.6331C2129.11,-59.3867 2171.32,-42.801 2201.22,-31.0562"/>
<polygon fill="midnightblue" stroke="midnightblue" points="2098.99,-67.4574 2090.96,-74.3717 2101.55,-73.9727 2098.99,-67.4574"/>
</g>
<!-- Node38 -->
<g id="node38" class="node"><title>Node38</title>
<g id="a_node38"><a xlink:href="TestOpenFoamModuleDriver_8C.html" target="_top" xlink:title="Implements a command&#45;line interface for the OpenFoamModuleDriver tests. ">
<polygon fill="none" stroke="black" points="1993,-6.5 1993,-25.5 2145,-25.5 2145,-6.5 1993,-6.5"/>
<text text-anchor="middle" x="2069" y="-13.5" font-family="Helvetica,sans-Serif" font-size="10.00">TestOpenFoamModuleDriver.C</text>
</a>
</g>
</g>
<!-- Node36&#45;&gt;Node38 -->
<g id="edge42" class="edge"><title>Node36&#45;&gt;Node38</title>
<path fill="none" stroke="midnightblue" d="M2069,-64.0413C2069,-51.4724 2069,-35.5631 2069,-25.8411"/>
<polygon fill="midnightblue" stroke="midnightblue" points="2065.5,-64.3716 2069,-74.3717 2072.5,-64.3717 2065.5,-64.3716"/>
</g>
<!-- Node39&#45;&gt;Node2 -->
<g id="edge44" class="edge"><title>Node39&#45;&gt;Node2</title>
<path fill="none" stroke="midnightblue" d="M1035.02,-349.93C1042.61,-313.92 1058.78,-237.231 1064.19,-211.568"/>
<polygon fill="midnightblue" stroke="midnightblue" points="1031.52,-349.568 1032.88,-360.075 1038.37,-351.012 1031.52,-349.568"/>
</g>
<!-- Node40 -->
<g id="node40" class="node"><title>Node40</title>
<g id="a_node40"><a xlink:href="Pane_8hpp.html" target="_top" xlink:title="Pane.hpp">
<polygon fill="none" stroke="black" points="945,-304.5 945,-323.5 1003,-323.5 1003,-304.5 945,-304.5"/>
<text text-anchor="middle" x="974" y="-311.5" font-family="Helvetica,sans-Serif" font-size="10.00">Pane.hpp</text>
</a>
</g>
</g>
<!-- Node39&#45;&gt;Node40 -->
<g id="edge45" class="edge"><title>Node39&#45;&gt;Node40</title>
<path fill="none" stroke="midnightblue" d="M1014.38,-353.253C1004.27,-343.673 991.723,-331.791 983.325,-323.834"/>
<polygon fill="midnightblue" stroke="midnightblue" points="1012.18,-355.987 1021.84,-360.324 1016.99,-350.906 1012.18,-355.987"/>
</g>
<!-- Node40&#45;&gt;Node2 -->
<g id="edge46" class="edge"><title>Node40&#45;&gt;Node2</title>
<path fill="none" stroke="midnightblue" d="M987.728,-296.586C1007.56,-272.871 1043.53,-229.869 1058.81,-211.591"/>
<polygon fill="midnightblue" stroke="midnightblue" points="984.95,-294.452 981.219,-304.368 990.319,-298.943 984.95,-294.452"/>
</g>
<!-- Node41 -->
<g id="node41" class="node"><title>Node41</title>
<g id="a_node41"><a xlink:href="ComponentInterface_8hpp.html" target="_top" xlink:title="Contains the prototypes for the ComponentInterface object. ">
<polygon fill="none" stroke="black" points="876,-248.5 876,-267.5 1000,-267.5 1000,-248.5 876,-248.5"/>
<text text-anchor="middle" x="938" y="-255.5" font-family="Helvetica,sans-Serif" font-size="10.00">ComponentInterface.hpp</text>
</a>
</g>
</g>
<!-- Node40&#45;&gt;Node41 -->
<g id="edge47" class="edge"><title>Node40&#45;&gt;Node41</title>
<path fill="none" stroke="midnightblue" d="M962.377,-295.566C956.183,-286.275 948.832,-275.248 943.834,-267.751"/>
<polygon fill="midnightblue" stroke="midnightblue" points="959.596,-297.704 968.055,-304.083 965.42,-293.821 959.596,-297.704"/>
</g>
<!-- Node40&#45;&gt;Node5 -->
<g id="edge49" class="edge"><title>Node40&#45;&gt;Node5</title>
<path fill="none" stroke="midnightblue" d="M934.654,-312.763C752.509,-311.157 0,-298.729 0,-203 0,-203 0,-203 0,-145 0,-105.136 12.0433,-88.8824 46,-68 101.033,-34.156 533.088,-21.7909 701.817,-18.2239"/>
<polygon fill="midnightblue" stroke="midnightblue" points="934.822,-316.264 944.85,-312.847 934.879,-309.265 934.822,-316.264"/>
</g>
<!-- Node41&#45;&gt;Node2 -->
<g id="edge48" class="edge"><title>Node41&#45;&gt;Node2</title>
<path fill="none" stroke="midnightblue" d="M967.623,-244.503C991.619,-234.38 1024.78,-220.388 1045.81,-211.516"/>
<polygon fill="midnightblue" stroke="midnightblue" points="966.135,-241.332 958.282,-248.444 968.856,-247.781 966.135,-241.332"/>
</g>
</g>
</svg>
        <g id="navigator" transform="translate(0 0)" fill="#404254">
                <rect fill="#f2f5e9" fill-opacity="0.5" stroke="#606060" stroke-width=".5" x="0" y="0" width="60" height="60"/>
                <use id="zoomplus" xlink:href="#zoomPlus" x="17" y="9" onmousedown="handleZoom(evt,'in')"/>
                <use id="zoomminus" xlink:href="#zoomMin" x="42" y="9" onmousedown="handleZoom(evt,'out')"/>
                <use id="reset" xlink:href="#resetDef" x="30" y="36" onmousedown="handleReset()"/>
                <g id="arrowUp" xlink:href="#dirArrow" transform="translate(30 24)" onmousedown="handlePan(0,-1)">
                  <use xlink:href="#rim" fill="#404040">
                        <set attributeName="fill" to="#808080" begin="arrowUp.mouseover" end="arrowUp.mouseout"/>
                  </use>
                  <path fill="none" stroke="white" stroke-width="1.5" d="M0,-3.0v7 M-2.5,-0.5L0,-3.0L2.5,-0.5"/>
                </g>
                <g id="arrowRight" xlink:href="#dirArrow" transform="rotate(90) translate(36 -43)" onmousedown="handlePan(1,0)">
                  <use xlink:href="#rim" fill="#404040">
                        <set attributeName="fill" to="#808080" begin="arrowRight.mouseover" end="arrowRight.mouseout"/>
                  </use>
                  <path fill="none" stroke="white" stroke-width="1.5" d="M0,-3.0v7 M-2.5,-0.5L0,-3.0L2.5,-0.5"/>
                </g>
                <g id="arrowDown" xlink:href="#dirArrow" transform="rotate(180) translate(-30 -48)" onmousedown="handlePan(0,1)">
                  <use xlink:href="#rim" fill="#404040">
                        <set attributeName="fill" to="#808080" begin="arrowDown.mouseover" end="arrowDown.mouseout"/>
                  </use>
                  <path fill="none" stroke="white" stroke-width="1.5" d="M0,-3.0v7 M-2.5,-0.5L0,-3.0L2.5,-0.5"/>
                </g>
                <g id="arrowLeft" xlink:href="#dirArrow" transform="rotate(270) translate(-36 17)" onmousedown="handlePan(-1,0)">
                  <use xlink:href="#rim" fill="#404040">
                        <set attributeName="fill" to="#808080" begin="arrowLeft.mouseover" end="arrowLeft.mouseout"/>
                  </use>
                  <path fill="none" stroke="white" stroke-width="1.5" d="M0,-3.0v7 M-2.5,-0.5L0,-3.0L2.5,-0.5"/>
                </g>
        </g>
        <svg viewBox="0 0 15 15" width="100%" height="30px" preserveAspectRatio="xMaxYMin meet">
         <g id="arrow_out" transform="scale(0.3 0.3)">
          <a xlink:href="DataItem_8hpp__dep__incl_org.svg" target="_base">
           <rect id="button" ry="5" rx="5" y="6" x="6" height="38" width="38"
                fill="#f2f5e9" fill-opacity="0.5" stroke="#606060" stroke-width="1.0"/>
           <path id="arrow"
             d="M 11.500037,31.436501 C 11.940474,20.09759 22.043105,11.32322 32.158766,21.979434 L 37.068811,17.246167 C 37.068811,17.246167 37.088388,32 37.088388,32 L 22.160133,31.978069 C 22.160133,31.978069 26.997745,27.140456 26.997745,27.140456 C 18.528582,18.264221 13.291696,25.230495 11.500037,31.436501 z"
             style="fill:#404040;"/>
          </a>
         </g>
        </svg>
</svg>
