<?xml version="1.0" encoding="UTF-8" standalone="no"?>
<!DOCTYPE svg PUBLIC "-//W3C//DTD SVG 1.1//EN"
 "http://www.w3.org/Graphics/SVG/1.1/DTD/svg11.dtd">
<!-- Generated by graphviz version 2.30.1 (20150305.2338)
 -->
<!-- Title: src Pages: 1 -->
<svg width="160pt" height="151pt"
 viewBox="0.00 0.00 160.00 151.00" xmlns="http://www.w3.org/2000/svg" xmlns:xlink="http://www.w3.org/1999/xlink">
<g id="graph0" class="graph" transform="scale(1 1) rotate(0) translate(4 147)">
<title>src</title>
<g id="clust1" class="cluster"><title>clusterdir_449b81f7e544d6eefccfe3919df027a5</title>
<g id="a_clust1"><a xlink:href="dir_449b81f7e544d6eefccfe3919df027a5.html" target="_top" xlink:title="trunk">
<polygon fill="#ddddee" stroke="black" points="34,-64 34,-135 104,-135 104,-64 34,-64"/>
<text text-anchor="middle" x="69" y="-123" font-family="Helvetica,sans-Serif" font-size="10.00">trunk</text>
</a>
</g>
</g>
<!-- dir_a57391a9a0318a8a87450cbd9c881818 -->
<g id="node1" class="node"><title>dir_a57391a9a0318a8a87450cbd9c881818</title>
<g id="a_node1"><a xlink:href="dir_a57391a9a0318a8a87450cbd9c881818.html" target="_top" xlink:title="src">
<polygon fill="#eeeeff" stroke="black" points="96,-108 42,-108 42,-72 96,-72 96,-108"/>
<text text-anchor="middle" x="69" y="-87.5" font-family="Helvetica,sans-Serif" font-size="10.00">src</text>
</a>
</g>
</g>
<!-- dir_adf2fbaf40cabaf608301de2f7e284f8 -->
<g id="node2" class="node"><title>dir_adf2fbaf40cabaf608301de2f7e284f8</title>
<g id="a_node2"><a xlink:href="dir_adf2fbaf40cabaf608301de2f7e284f8.html" target="_top" xlink:title="include">
<polygon fill="none" stroke="black" points="54,-36 0,-36 0,-0 54,-0 54,-36"/>
<text text-anchor="middle" x="27" y="-15.5" font-family="Helvetica,sans-Serif" font-size="10.00">include</text>
</a>
</g>
</g>
<!-- dir_a57391a9a0318a8a87450cbd9c881818&#45;&gt;dir_adf2fbaf40cabaf608301de2f7e284f8 -->
<g id="edge1" class="edge"><title>dir_a57391a9a0318a8a87450cbd9c881818&#45;&gt;dir_adf2fbaf40cabaf608301de2f7e284f8</title>
<path fill="none" stroke="black" d="M58.618,-71.6966C53.7353,-63.5589 47.8134,-53.689 42.4208,-44.7013"/>
<polygon fill="black" stroke="black" points="45.4088,-42.8785 37.2626,-36.1043 39.4064,-46.48 45.4088,-42.8785"/>
<g id="a_edge1&#45;headlabel"><a xlink:href="dir_000040_000041.html" target="_top" xlink:title="2">
<text text-anchor="middle" x="49.6929" y="-42.0001" font-family="Helvetica,sans-Serif" font-size="10.00">2</text>
</a>
</g>
</g>
<!-- dir_cbf78fcc6d2b5f9080275c7c7de94ee2 -->
<g id="node3" class="node"><title>dir_cbf78fcc6d2b5f9080275c7c7de94ee2</title>
<g id="a_node3"><a xlink:href="dir_cbf78fcc6d2b5f9080275c7c7de94ee2.html" target="_top" xlink:title="support_install">
<polygon fill="none" stroke="red" points="152,-36 72,-36 72,-0 152,-0 152,-36"/>
<text text-anchor="middle" x="112" y="-15.5" font-family="Helvetica,sans-Serif" font-size="10.00">support_install</text>
</a>
</g>
</g>
<!-- dir_a57391a9a0318a8a87450cbd9c881818&#45;&gt;dir_cbf78fcc6d2b5f9080275c7c7de94ee2 -->
<g id="edge2" class="edge"><title>dir_a57391a9a0318a8a87450cbd9c881818&#45;&gt;dir_cbf78fcc6d2b5f9080275c7c7de94ee2</title>
<path fill="none" stroke="black" d="M79.6292,-71.6966C84.6281,-63.5589 90.691,-53.689 96.2121,-44.7013"/>
<polygon fill="black" stroke="black" points="99.2411,-46.4571 101.493,-36.1043 93.2766,-42.7931 99.2411,-46.4571"/>
<g id="a_edge2&#45;headlabel"><a xlink:href="dir_000040_000000.html" target="_top" xlink:title="12">
<text text-anchor="middle" x="99.7789" y="-48.5061" font-family="Helvetica,sans-Serif" font-size="10.00">12</text>
</a>
</g>
</g>
</g>
</svg>
