<?xml version="1.0" encoding="UTF-8" standalone="no"?>
<!DOCTYPE svg PUBLIC "-//W3C//DTD SVG 1.1//EN"
 "http://www.w3.org/Graphics/SVG/1.1/DTD/svg11.dtd">
<!-- Generated by graphviz version 2.30.1 (20150305.2338)
 -->
<!-- Title: Third_Party_Modules Pages: 1 -->
<svg width="476pt" height="132pt"
 viewBox="0.00 0.00 476.00 132.00" xmlns="http://www.w3.org/2000/svg" xmlns:xlink="http://www.w3.org/1999/xlink">
<g id="graph0" class="graph" transform="scale(1 1) rotate(0) translate(4 128)">
<title>Third_Party_Modules</title>
<g id="clust1" class="cluster"><title>clusterdir_575acdea8be5fb9f5092d7b3500049b8</title>
<g id="a_clust1"><a xlink:href="dir_575acdea8be5fb9f5092d7b3500049b8.html" target="_top">
<polygon fill="#eeeeff" stroke="black" points="8,-64 8,-116 460,-116 460,-64 8,-64"/>
</a>
</g>
</g>
<!-- dir_575acdea8be5fb9f5092d7b3500049b8 -->
<g id="node1" class="node"><title>dir_575acdea8be5fb9f5092d7b3500049b8</title>
<text text-anchor="middle" x="397" y="-87.5" font-family="Helvetica,sans-Serif" font-size="10.00">Third_Party_Modules</text>
</g>
<!-- dir_bcb0f61453aea19cd209ac575dc3a65c -->
<g id="node2" class="node"><title>dir_bcb0f61453aea19cd209ac575dc3a65c</title>
<g id="a_node2"><a xlink:href="dir_bcb0f61453aea19cd209ac575dc3a65c.html" target="_top" xlink:title="ElmerFSI">
<polygon fill="white" stroke="red" points="324,-108 266,-108 266,-72 324,-72 324,-108"/>
<text text-anchor="middle" x="295" y="-87.5" font-family="Helvetica,sans-Serif" font-size="10.00">ElmerFSI</text>
</a>
</g>
</g>
<!-- dir_cbf78fcc6d2b5f9080275c7c7de94ee2 -->
<g id="node6" class="node"><title>dir_cbf78fcc6d2b5f9080275c7c7de94ee2</title>
<g id="a_node6"><a xlink:href="dir_cbf78fcc6d2b5f9080275c7c7de94ee2.html" target="_top" xlink:title="support_install">
<polygon fill="none" stroke="red" points="219,-36 139,-36 139,-0 219,-0 219,-36"/>
<text text-anchor="middle" x="179" y="-15.5" font-family="Helvetica,sans-Serif" font-size="10.00">support_install</text>
</a>
</g>
</g>
<!-- dir_bcb0f61453aea19cd209ac575dc3a65c&#45;&gt;dir_cbf78fcc6d2b5f9080275c7c7de94ee2 -->
<g id="edge2" class="edge"><title>dir_bcb0f61453aea19cd209ac575dc3a65c&#45;&gt;dir_cbf78fcc6d2b5f9080275c7c7de94ee2</title>
<path fill="none" stroke="black" d="M269.376,-71.8497C265.263,-69.1816 261.033,-66.487 257,-64 244.579,-56.3402 230.846,-48.2835 218.409,-41.1377"/>
<polygon fill="black" stroke="black" points="220.038,-38.0375 209.619,-36.1142 216.564,-44.115 220.038,-38.0375"/>
<g id="a_edge2&#45;headlabel"><a xlink:href="dir_000007_000000.html" target="_top" xlink:title="25">
<text text-anchor="middle" x="224.567" y="-34.856" font-family="Helvetica,sans-Serif" font-size="10.00">25</text>
</a>
</g>
</g>
<!-- dir_36af86d97d6d0a19440ee5bac3f6f07e -->
<g id="node3" class="node"><title>dir_36af86d97d6d0a19440ee5bac3f6f07e</title>
<g id="a_node3"><a xlink:href="dir_36af86d97d6d0a19440ee5bac3f6f07e.html" target="_top" xlink:title="ElmerTest">
<polygon fill="white" stroke="red" points="248,-108 186,-108 186,-72 248,-72 248,-108"/>
<text text-anchor="middle" x="217" y="-87.5" font-family="Helvetica,sans-Serif" font-size="10.00">ElmerTest</text>
</a>
</g>
</g>
<!-- dir_36af86d97d6d0a19440ee5bac3f6f07e&#45;&gt;dir_cbf78fcc6d2b5f9080275c7c7de94ee2 -->
<g id="edge1" class="edge"><title>dir_36af86d97d6d0a19440ee5bac3f6f07e&#45;&gt;dir_cbf78fcc6d2b5f9080275c7c7de94ee2</title>
<path fill="none" stroke="black" d="M207.607,-71.6966C203.235,-63.6436 197.943,-53.8945 193.105,-44.9824"/>
<polygon fill="black" stroke="black" points="196.132,-43.223 188.285,-36.1043 189.98,-46.5627 196.132,-43.223"/>
<g id="a_edge1&#45;headlabel"><a xlink:href="dir_000037_000000.html" target="_top" xlink:title="2">
<text text-anchor="middle" x="200.342" y="-42.5276" font-family="Helvetica,sans-Serif" font-size="10.00">2</text>
</a>
</g>
</g>
<!-- dir_c6ed1d136a3e506ca705e5ead5deb555 -->
<g id="node4" class="node"><title>dir_c6ed1d136a3e506ca705e5ead5deb555</title>
<g id="a_node4"><a xlink:href="dir_c6ed1d136a3e506ca705e5ead5deb555.html" target="_top" xlink:title="OFTest">
<polygon fill="white" stroke="red" points="168,-108 114,-108 114,-72 168,-72 168,-108"/>
<text text-anchor="middle" x="141" y="-87.5" font-family="Helvetica,sans-Serif" font-size="10.00">OFTest</text>
</a>
</g>
</g>
<!-- dir_c6ed1d136a3e506ca705e5ead5deb555&#45;&gt;dir_cbf78fcc6d2b5f9080275c7c7de94ee2 -->
<g id="edge3" class="edge"><title>dir_c6ed1d136a3e506ca705e5ead5deb555&#45;&gt;dir_cbf78fcc6d2b5f9080275c7c7de94ee2</title>
<path fill="none" stroke="black" d="M150.393,-71.6966C154.765,-63.6436 160.057,-53.8945 164.895,-44.9824"/>
<polygon fill="black" stroke="black" points="168.02,-46.5627 169.715,-36.1043 161.868,-43.223 168.02,-46.5627"/>
<g id="a_edge3&#45;headlabel"><a xlink:href="dir_000032_000000.html" target="_top" xlink:title="4">
<text text-anchor="middle" x="168.8" y="-48.5764" font-family="Helvetica,sans-Serif" font-size="10.00">4</text>
</a>
</g>
</g>
<!-- dir_b3e81f61b28e8be359069d1e4cb66c20 -->
<g id="node5" class="node"><title>dir_b3e81f61b28e8be359069d1e4cb66c20</title>
<g id="a_node5"><a xlink:href="dir_b3e81f61b28e8be359069d1e4cb66c20.html" target="_top" xlink:title="OpenFoamFSI">
<polygon fill="white" stroke="red" points="96,-108 16,-108 16,-72 96,-72 96,-108"/>
<text text-anchor="middle" x="56" y="-87.5" font-family="Helvetica,sans-Serif" font-size="10.00">OpenFoamFSI</text>
</a>
</g>
</g>
<!-- dir_b3e81f61b28e8be359069d1e4cb66c20&#45;&gt;dir_cbf78fcc6d2b5f9080275c7c7de94ee2 -->
<g id="edge4" class="edge"><title>dir_b3e81f61b28e8be359069d1e4cb66c20&#45;&gt;dir_cbf78fcc6d2b5f9080275c7c7de94ee2</title>
<path fill="none" stroke="black" d="M86.0892,-71.8761C102.32,-62.6388 122.542,-51.1308 139.971,-41.2116"/>
<polygon fill="black" stroke="black" points="141.835,-44.1779 148.795,-36.1898 138.373,-38.0941 141.835,-44.1779"/>
<g id="a_edge4&#45;headlabel"><a xlink:href="dir_000013_000000.html" target="_top" xlink:title="36">
<text text-anchor="middle" x="140.115" y="-45.9234" font-family="Helvetica,sans-Serif" font-size="10.00">36</text>
</a>
</g>
</g>
</g>
</svg>
