<?xml version="1.0" encoding="UTF-8" standalone="no"?>
<!DOCTYPE svg PUBLIC "-//W3C//DTD SVG 1.1//EN"
 "http://www.w3.org/Graphics/SVG/1.1/DTD/svg11.dtd">
<!-- Generated by graphviz version 2.30.1 (20150305.2338)
 -->
<!-- Title: src Pages: 1 -->
<svg width="94pt" height="151pt"
 viewBox="0.00 0.00 94.00 151.00" xmlns="http://www.w3.org/2000/svg" xmlns:xlink="http://www.w3.org/1999/xlink">
<g id="graph0" class="graph" transform="scale(1 1) rotate(0) translate(4 147)">
<title>src</title>
<g id="clust1" class="cluster"><title>clusterdir_e7d3cea9d76f0c97f6c932413a9f0e4c</title>
<g id="a_clust1"><a xlink:href="dir_e7d3cea9d76f0c97f6c932413a9f0e4c.html" target="_top" xlink:title="trunk">
<polygon fill="#ddddee" stroke="black" points="8,-64 8,-135 78,-135 78,-64 8,-64"/>
<text text-anchor="middle" x="43" y="-123" font-family="Helvetica,sans-Serif" font-size="10.00">trunk</text>
</a>
</g>
</g>
<!-- dir_72bffdac34f26c92ad4a689c955c052a -->
<g id="node1" class="node"><title>dir_72bffdac34f26c92ad4a689c955c052a</title>
<g id="a_node1"><a xlink:href="dir_72bffdac34f26c92ad4a689c955c052a.html" target="_top" xlink:title="src">
<polygon fill="#eeeeff" stroke="black" points="70,-108 16,-108 16,-72 70,-72 70,-108"/>
<text text-anchor="middle" x="43" y="-87.5" font-family="Helvetica,sans-Serif" font-size="10.00">src</text>
</a>
</g>
</g>
<!-- dir_530684018f54ed8a4df161ba68b6d1f4 -->
<g id="node2" class="node"><title>dir_530684018f54ed8a4df161ba68b6d1f4</title>
<g id="a_node2"><a xlink:href="dir_530684018f54ed8a4df161ba68b6d1f4.html" target="_top" xlink:title="include">
<polygon fill="none" stroke="black" points="70,-36 16,-36 16,-0 70,-0 70,-36"/>
<text text-anchor="middle" x="43" y="-15.5" font-family="Helvetica,sans-Serif" font-size="10.00">include</text>
</a>
</g>
</g>
<!-- dir_72bffdac34f26c92ad4a689c955c052a&#45;&gt;dir_530684018f54ed8a4df161ba68b6d1f4 -->
<g id="edge1" class="edge"><title>dir_72bffdac34f26c92ad4a689c955c052a&#45;&gt;dir_530684018f54ed8a4df161ba68b6d1f4</title>
<path fill="none" stroke="black" d="M43,-71.6966C43,-63.9827 43,-54.7125 43,-46.1124"/>
<polygon fill="black" stroke="black" points="46.5001,-46.1043 43,-36.1043 39.5001,-46.1044 46.5001,-46.1043"/>
<g id="a_edge1&#45;headlabel"><a xlink:href="dir_000009_000008.html" target="_top" xlink:title="2">
<text text-anchor="middle" x="49.3393" y="-47.199" font-family="Helvetica,sans-Serif" font-size="10.00">2</text>
</a>
</g>
</g>
</g>
</svg>
