<?xml version="1.0" encoding="UTF-8" standalone="no"?>
<!DOCTYPE svg PUBLIC "-//W3C//DTD SVG 1.1//EN"
 "http://www.w3.org/Graphics/SVG/1.1/DTD/svg11.dtd">
<!-- Generated by graphviz version 2.26.0 (20091210.2329)
 -->
<!-- Title: src Pages: 1 -->
<svg width="94pt" height="153pt"
 viewBox="0.00 0.00 94.00 153.00" xmlns="http://www.w3.org/2000/svg" xmlns:xlink="http://www.w3.org/1999/xlink">
<g id="graph1" class="graph" transform="scale(1 1) rotate(0) translate(4 149)">
<title>src</title>
<g id="graph2" class="cluster"><title>clusterdir_e9b21104180176d6285ef5c25a9af914</title>
<a xlink:href="dir_e9b21104180176d6285ef5c25a9af914.html" target="_top" xlink:title="testing">
<polygon fill="#ddddee" stroke="black" points="8,-64 8,-137 78,-137 78,-64 8,-64"/>
<text text-anchor="middle" x="43" y="-124" font-family="Helvetica,sans-Serif" font-size="10.00">testing</text>
</a>
</g>
<!-- dir_cdd4042c5c7f5329e59a4dfbed35258f -->
<g id="node2" class="node"><title>dir_cdd4042c5c7f5329e59a4dfbed35258f</title>
<a xlink:href="dir_cdd4042c5c7f5329e59a4dfbed35258f.html" target="_top" xlink:title="src">
<polygon fill="#eeeeff" stroke="black" points="70,-108 16,-108 16,-72 70,-72 70,-108"/>
<text text-anchor="middle" x="43" y="-87.5" font-family="Helvetica,sans-Serif" font-size="10.00">src</text>
</a>
</g>
<!-- dir_ced755cef523c07694a5c6d0db238e0d -->
<g id="node3" class="node"><title>dir_ced755cef523c07694a5c6d0db238e0d</title>
<a xlink:href="dir_ced755cef523c07694a5c6d0db238e0d.html" target="_top" xlink:title="include">
<polygon fill="none" stroke="black" points="70,-36 16,-36 16,-1.77636e-14 70,-3.55271e-15 70,-36"/>
<text text-anchor="middle" x="43" y="-15.5" font-family="Helvetica,sans-Serif" font-size="10.00">include</text>
</a>
</g>
<!-- dir_cdd4042c5c7f5329e59a4dfbed35258f&#45;&gt;dir_ced755cef523c07694a5c6d0db238e0d -->
<g id="edge3" class="edge"><title>dir_cdd4042c5c7f5329e59a4dfbed35258f&#45;&gt;dir_ced755cef523c07694a5c6d0db238e0d</title>
<path fill="none" stroke="black" d="M43,-71.8314C43,-64.131 43,-54.9743 43,-46.4166"/>
<polygon fill="black" stroke="black" points="46.5001,-46.4132 43,-36.4133 39.5001,-46.4133 46.5001,-46.4132"/>
<a xlink:href="dir_000026_000024.html" target="_top" xlink:title="2">
<text text-anchor="middle" x="49.3393" y="-47.5079" font-family="Helvetica,sans-Serif" font-size="10.00">2</text>
</a>
</g>
</g>
</svg>
