<?xml version="1.0" encoding="UTF-8" standalone="no"?>
<!DOCTYPE svg PUBLIC "-//W3C//DTD SVG 1.1//EN"
 "http://www.w3.org/Graphics/SVG/1.1/DTD/svg11.dtd">
<!-- Generated by graphviz version 2.30.1 (20150305.2338)
 -->
<!-- Title: Driver.H Pages: 1 -->
<svg width="622pt" height="196pt"
 viewBox="0.00 0.00 622.00 196.00" xmlns="http://www.w3.org/2000/svg" xmlns:xlink="http://www.w3.org/1999/xlink">
<g id="graph0" class="graph" transform="scale(1 1) rotate(0) translate(4 192)">
<title>Driver.H</title>
<!-- Node1 -->
<g id="node1" class="node"><title>Node1</title>
<polygon fill="#bfbfbf" stroke="black" points="295.5,-168.5 295.5,-187.5 348.5,-187.5 348.5,-168.5 295.5,-168.5"/>
<text text-anchor="middle" x="322" y="-175.5" font-family="Helvetica,sans-Serif" font-size="10.00">Driver.H</text>
</g>
<!-- Node2 -->
<g id="node2" class="node"><title>Node2</title>
<g id="a_node2"><a xlink:href="ElmerFoamFSITest_8H.html" target="_top" xlink:title="Testing object for ElmerFoamFSI. ">
<polygon fill="none" stroke="black" points="88.5,-112.5 88.5,-131.5 201.5,-131.5 201.5,-112.5 88.5,-112.5"/>
<text text-anchor="middle" x="145" y="-119.5" font-family="Helvetica,sans-Serif" font-size="10.00">ElmerFoamFSITest.H</text>
</a>
</g>
</g>
<!-- Node1&#45;&gt;Node2 -->
<g id="edge1" class="edge"><title>Node1&#45;&gt;Node2</title>
<path fill="none" stroke="midnightblue" d="M285.282,-165.798C251.902,-155.614 203.361,-140.805 173.014,-131.547"/>
<polygon fill="midnightblue" stroke="midnightblue" points="284.531,-169.228 295.118,-168.799 286.574,-162.533 284.531,-169.228"/>
</g>
<!-- Node6 -->
<g id="node6" class="node"><title>Node6</title>
<g id="a_node6"><a xlink:href="driver_8C.html" target="_top" xlink:title="Main for example serial program. ">
<polygon fill="none" stroke="black" points="219.5,-112.5 219.5,-131.5 270.5,-131.5 270.5,-112.5 219.5,-112.5"/>
<text text-anchor="middle" x="245" y="-119.5" font-family="Helvetica,sans-Serif" font-size="10.00">driver.C</text>
</a>
</g>
</g>
<!-- Node1&#45;&gt;Node6 -->
<g id="edge5" class="edge"><title>Node1&#45;&gt;Node6</title>
<path fill="none" stroke="midnightblue" d="M301.099,-162.342C287.089,-152.517 269.117,-139.913 257.341,-131.655"/>
<polygon fill="midnightblue" stroke="midnightblue" points="299.432,-165.448 309.629,-168.324 303.451,-159.717 299.432,-165.448"/>
</g>
<!-- Node7 -->
<g id="node7" class="node"><title>Node7</title>
<g id="a_node7"><a xlink:href="driverPar_8C.html" target="_top" xlink:title="Main for example parallel program. ">
<polygon fill="none" stroke="black" points="289,-112.5 289,-131.5 355,-131.5 355,-112.5 289,-112.5"/>
<text text-anchor="middle" x="322" y="-119.5" font-family="Helvetica,sans-Serif" font-size="10.00">driverPar.C</text>
</a>
</g>
</g>
<!-- Node1&#45;&gt;Node7 -->
<g id="edge6" class="edge"><title>Node1&#45;&gt;Node7</title>
<path fill="none" stroke="midnightblue" d="M322,-157.805C322,-148.91 322,-138.78 322,-131.751"/>
<polygon fill="midnightblue" stroke="midnightblue" points="318.5,-158.083 322,-168.083 325.5,-158.083 318.5,-158.083"/>
</g>
<!-- Node8 -->
<g id="node8" class="node"><title>Node8</title>
<g id="a_node8"><a xlink:href="ElmerFoamDriver_8C.html" target="_top" xlink:title="Example serial program. ">
<polygon fill="none" stroke="black" points="373,-112.5 373,-131.5 477,-131.5 477,-112.5 373,-112.5"/>
<text text-anchor="middle" x="425" y="-119.5" font-family="Helvetica,sans-Serif" font-size="10.00">ElmerFoamDriver.C</text>
</a>
</g>
</g>
<!-- Node1&#45;&gt;Node8 -->
<g id="edge7" class="edge"><title>Node1&#45;&gt;Node8</title>
<path fill="none" stroke="midnightblue" d="M347.579,-163.59C366.623,-153.605 392.064,-140.267 408.492,-131.655"/>
<polygon fill="midnightblue" stroke="midnightblue" points="345.78,-160.581 338.549,-168.324 349.031,-166.78 345.78,-160.581"/>
</g>
<!-- Node9 -->
<g id="node9" class="node"><title>Node9</title>
<g id="a_node9"><a xlink:href="ElmerFoamDriverPar_8C.html" target="_top" xlink:title="Example serial program. ">
<polygon fill="none" stroke="black" points="495.5,-112.5 495.5,-131.5 614.5,-131.5 614.5,-112.5 495.5,-112.5"/>
<text text-anchor="middle" x="555" y="-119.5" font-family="Helvetica,sans-Serif" font-size="10.00">ElmerFoamDriverPar.C</text>
</a>
</g>
</g>
<!-- Node1&#45;&gt;Node9 -->
<g id="edge8" class="edge"><title>Node1&#45;&gt;Node9</title>
<path fill="none" stroke="midnightblue" d="M358.631,-168.51C402.238,-158.404 474.63,-141.626 518.277,-131.511"/>
<polygon fill="midnightblue" stroke="midnightblue" points="357.68,-165.138 348.728,-170.806 359.26,-171.957 357.68,-165.138"/>
</g>
<!-- Node3 -->
<g id="node3" class="node"><title>Node3</title>
<g id="a_node3"><a xlink:href="TestElmerFoamFSI_8H.html" target="_top" xlink:title="Testing utilities for ElmerFoamFSI. ">
<polygon fill="none" stroke="black" points="88.5,-56.5 88.5,-75.5 201.5,-75.5 201.5,-56.5 88.5,-56.5"/>
<text text-anchor="middle" x="145" y="-63.5" font-family="Helvetica,sans-Serif" font-size="10.00">TestElmerFoamFSI.H</text>
</a>
</g>
</g>
<!-- Node2&#45;&gt;Node3 -->
<g id="edge2" class="edge"><title>Node2&#45;&gt;Node3</title>
<path fill="none" stroke="midnightblue" d="M145,-101.805C145,-92.9102 145,-82.7798 145,-75.7511"/>
<polygon fill="midnightblue" stroke="midnightblue" points="141.5,-102.083 145,-112.083 148.5,-102.083 141.5,-102.083"/>
</g>
<!-- Node4 -->
<g id="node4" class="node"><title>Node4</title>
<g id="a_node4"><a xlink:href="ParallelTestElmerFoamFSI_8C.html" target="_top" xlink:title="Implements a command&#45;line interface for the ElmerFoamFSI tests. ">
<polygon fill="none" stroke="black" points="-0.5,-0.5 -0.5,-19.5 144.5,-19.5 144.5,-0.5 -0.5,-0.5"/>
<text text-anchor="middle" x="72" y="-7.5" font-family="Helvetica,sans-Serif" font-size="10.00">ParallelTestElmerFoamFSI.C</text>
</a>
</g>
</g>
<!-- Node3&#45;&gt;Node4 -->
<g id="edge3" class="edge"><title>Node3&#45;&gt;Node4</title>
<path fill="none" stroke="midnightblue" d="M124.858,-50.1008C111.721,-40.3824 95.0179,-28.0269 83.9421,-19.8339"/>
<polygon fill="midnightblue" stroke="midnightblue" points="123.15,-53.1907 133.271,-56.324 127.313,-47.5631 123.15,-53.1907"/>
</g>
<!-- Node5 -->
<g id="node5" class="node"><title>Node5</title>
<g id="a_node5"><a xlink:href="TestElmerFoamFSI_8C.html" target="_top" xlink:title="Implements a command&#45;line interface for the ElmerFoamFSI tests. ">
<polygon fill="none" stroke="black" points="162.5,-0.5 162.5,-19.5 275.5,-19.5 275.5,-0.5 162.5,-0.5"/>
<text text-anchor="middle" x="219" y="-7.5" font-family="Helvetica,sans-Serif" font-size="10.00">TestElmerFoamFSI.C</text>
</a>
</g>
</g>
<!-- Node3&#45;&gt;Node5 -->
<g id="edge4" class="edge"><title>Node3&#45;&gt;Node5</title>
<path fill="none" stroke="midnightblue" d="M165.034,-50.3804C178.409,-40.6204 195.559,-28.1057 206.894,-19.8339"/>
<polygon fill="midnightblue" stroke="midnightblue" points="162.904,-47.602 156.889,-56.324 167.03,-53.2565 162.904,-47.602"/>
</g>
</g>
</svg>
