<?xml version="1.0" encoding="UTF-8" standalone="no"?>
<!DOCTYPE svg PUBLIC "-//W3C//DTD SVG 1.1//EN"
 "http://www.w3.org/Graphics/SVG/1.1/DTD/svg11.dtd">
<!-- Generated by graphviz version 2.30.1 (20150305.2338)
 -->
<!-- Title: driverPar.C Pages: 1 -->
<svg width="201pt" height="140pt"
 viewBox="0.00 0.00 201.00 140.00" xmlns="http://www.w3.org/2000/svg" xmlns:xlink="http://www.w3.org/1999/xlink">
<g id="graph0" class="graph" transform="scale(1 1) rotate(0) translate(4 136)">
<title>driverPar.C</title>
<!-- Node1 -->
<g id="node1" class="node"><title>Node1</title>
<polygon fill="#bfbfbf" stroke="black" points="69,-112.5 69,-131.5 135,-131.5 135,-112.5 69,-112.5"/>
<text text-anchor="middle" x="102" y="-119.5" font-family="Helvetica,sans-Serif" font-size="10.00">driverPar.C</text>
</g>
<!-- Node2 -->
<g id="node2" class="node"><title>Node2</title>
<g id="a_node2"><a xlink:href="Driver_8H.html" target="_top" xlink:title="Example program interface. ">
<polygon fill="none" stroke="black" points="75.5,-56.5 75.5,-75.5 128.5,-75.5 128.5,-56.5 75.5,-56.5"/>
<text text-anchor="middle" x="102" y="-63.5" font-family="Helvetica,sans-Serif" font-size="10.00">Driver.H</text>
</a>
</g>
</g>
<!-- Node1&#45;&gt;Node2 -->
<g id="edge1" class="edge"><title>Node1&#45;&gt;Node2</title>
<path fill="none" stroke="midnightblue" d="M102,-112.083C102,-105.006 102,-94.8611 102,-85.9865"/>
<polygon fill="midnightblue" stroke="midnightblue" points="105.5,-85.751 102,-75.7511 98.5001,-85.7511 105.5,-85.751"/>
</g>
<!-- Node3 -->
<g id="node3" class="node"><title>Node3</title>
<polygon fill="none" stroke="#bfbfbf" points="-0.5,-0.5 -0.5,-19.5 54.5,-19.5 54.5,-0.5 -0.5,-0.5"/>
<text text-anchor="middle" x="27" y="-7.5" font-family="Helvetica,sans-Serif" font-size="10.00">Global.H</text>
</g>
<!-- Node2&#45;&gt;Node3 -->
<g id="edge2" class="edge"><title>Node2&#45;&gt;Node3</title>
<path fill="none" stroke="midnightblue" d="M89.95,-56.324C78.5369,-48.1066 61.169,-35.6017 47.5651,-25.8069"/>
<polygon fill="midnightblue" stroke="midnightblue" points="49.4297,-22.8366 39.2693,-19.8339 45.3396,-28.5174 49.4297,-22.8366"/>
</g>
<!-- Node4 -->
<g id="node4" class="node"><title>Node4</title>
<polygon fill="none" stroke="#bfbfbf" points="73,-0.5 73,-19.5 131,-19.5 131,-0.5 73,-0.5"/>
<text text-anchor="middle" x="102" y="-7.5" font-family="Helvetica,sans-Serif" font-size="10.00">Profiler.H</text>
</g>
<!-- Node2&#45;&gt;Node4 -->
<g id="edge3" class="edge"><title>Node2&#45;&gt;Node4</title>
<path fill="none" stroke="midnightblue" d="M102,-56.083C102,-49.0059 102,-38.8611 102,-29.9865"/>
<polygon fill="midnightblue" stroke="midnightblue" points="105.5,-29.751 102,-19.7511 98.5001,-29.7511 105.5,-29.751"/>
</g>
<!-- Node5 -->
<g id="node5" class="node"><title>Node5</title>
<polygon fill="none" stroke="#bfbfbf" points="149,-0.5 149,-19.5 193,-19.5 193,-0.5 149,-0.5"/>
<text text-anchor="middle" x="171" y="-7.5" font-family="Helvetica,sans-Serif" font-size="10.00">com.h</text>
</g>
<!-- Node2&#45;&gt;Node5 -->
<g id="edge4" class="edge"><title>Node2&#45;&gt;Node5</title>
<path fill="none" stroke="midnightblue" d="M113.086,-56.324C123.486,-48.1849 139.261,-35.8395 151.722,-26.0874"/>
<polygon fill="midnightblue" stroke="midnightblue" points="153.994,-28.7533 159.712,-19.8339 149.68,-23.2407 153.994,-28.7533"/>
</g>
</g>
</svg>
