<?xml version="1.0" encoding="UTF-8" standalone="no"?>
<!DOCTYPE svg PUBLIC "-//W3C//DTD SVG 1.1//EN"
 "http://www.w3.org/Graphics/SVG/1.1/DTD/svg11.dtd">
<!-- Generated by graphviz version 2.30.1 (20150305.2338)
 -->
<!-- Title: Element_accessors.hpp Pages: 1 -->
<svg width="563pt" height="252pt"
 viewBox="0.00 0.00 563.00 252.00" xmlns="http://www.w3.org/2000/svg" xmlns:xlink="http://www.w3.org/1999/xlink">
<g id="graph0" class="graph" transform="scale(1 1) rotate(0) translate(4 248)">
<title>Element_accessors.hpp</title>
<!-- Node1 -->
<g id="node1" class="node"><title>Node1</title>
<polygon fill="#bfbfbf" stroke="black" points="234,-224.5 234,-243.5 356,-243.5 356,-224.5 234,-224.5"/>
<text text-anchor="middle" x="295" y="-231.5" font-family="Helvetica,sans-Serif" font-size="10.00">Element_accessors.hpp</text>
</g>
<!-- Node2 -->
<g id="node2" class="node"><title>Node2</title>
<g id="a_node2"><a xlink:href="mapbasic_8h.html" target="_top" xlink:title="mapbasic.h">
<polygon fill="none" stroke="black" points="261.5,-168.5 261.5,-187.5 328.5,-187.5 328.5,-168.5 261.5,-168.5"/>
<text text-anchor="middle" x="295" y="-175.5" font-family="Helvetica,sans-Serif" font-size="10.00">mapbasic.h</text>
</a>
</g>
</g>
<!-- Node1&#45;&gt;Node2 -->
<g id="edge1" class="edge"><title>Node1&#45;&gt;Node2</title>
<path fill="none" stroke="midnightblue" d="M295,-213.805C295,-204.91 295,-194.78 295,-187.751"/>
<polygon fill="midnightblue" stroke="midnightblue" points="291.5,-214.083 295,-224.083 298.5,-214.083 291.5,-214.083"/>
</g>
<!-- Node3 -->
<g id="node3" class="node"><title>Node3</title>
<g id="a_node3"><a xlink:href="Dual__connectivity_8h.html" target="_top" xlink:title="Dual_connectivity.h">
<polygon fill="none" stroke="black" points="-0.5,-112.5 -0.5,-131.5 102.5,-131.5 102.5,-112.5 -0.5,-112.5"/>
<text text-anchor="middle" x="51" y="-119.5" font-family="Helvetica,sans-Serif" font-size="10.00">Dual_connectivity.h</text>
</a>
</g>
</g>
<!-- Node2&#45;&gt;Node3 -->
<g id="edge2" class="edge"><title>Node2&#45;&gt;Node3</title>
<path fill="none" stroke="midnightblue" d="M251.354,-167.341C205.338,-157.157 133.543,-141.268 89.5489,-131.531"/>
<polygon fill="midnightblue" stroke="midnightblue" points="250.809,-170.805 261.329,-169.548 252.322,-163.97 250.809,-170.805"/>
</g>
<!-- Node4 -->
<g id="node4" class="node"><title>Node4</title>
<g id="a_node4"><a xlink:href="Pane__boundary_8h.html" target="_top" xlink:title="Utility for detecting boundaries of a pane. ">
<polygon fill="none" stroke="black" points="87,-56.5 87,-75.5 179,-75.5 179,-56.5 87,-56.5"/>
<text text-anchor="middle" x="133" y="-63.5" font-family="Helvetica,sans-Serif" font-size="10.00">Pane_boundary.h</text>
</a>
</g>
</g>
<!-- Node2&#45;&gt;Node4 -->
<g id="edge3" class="edge"><title>Node2&#45;&gt;Node4</title>
<path fill="none" stroke="midnightblue" d="M251.334,-174.484C219.049,-170.302 176.295,-159.509 150,-132 135.17,-116.485 132.876,-89.694 132.759,-75.851"/>
<polygon fill="midnightblue" stroke="midnightblue" points="251.085,-177.978 261.415,-175.623 251.871,-171.023 251.085,-177.978"/>
</g>
<!-- Node5 -->
<g id="node5" class="node"><title>Node5</title>
<g id="a_node5"><a xlink:href="Simple__manifold__2_8h.html" target="_top" xlink:title="Simple_manifold_2.h">
<polygon fill="none" stroke="black" points="159.5,-112.5 159.5,-131.5 266.5,-131.5 266.5,-112.5 159.5,-112.5"/>
<text text-anchor="middle" x="213" y="-119.5" font-family="Helvetica,sans-Serif" font-size="10.00">Simple_manifold_2.h</text>
</a>
</g>
</g>
<!-- Node2&#45;&gt;Node5 -->
<g id="edge4" class="edge"><title>Node2&#45;&gt;Node5</title>
<path fill="none" stroke="midnightblue" d="M273.167,-162.622C258.187,-152.757 238.803,-139.992 226.142,-131.655"/>
<polygon fill="midnightblue" stroke="midnightblue" points="271.549,-165.747 281.825,-168.324 275.399,-159.901 271.549,-165.747"/>
</g>
<!-- Node8 -->
<g id="node8" class="node"><title>Node8</title>
<g id="a_node8"><a xlink:href="Pane__communicator_8h.html" target="_top" xlink:title="Handles communication of shared nodes, ghost nodes or ghost cells across panes. ">
<polygon fill="none" stroke="black" points="323,-112.5 323,-131.5 437,-131.5 437,-112.5 323,-112.5"/>
<text text-anchor="middle" x="380" y="-119.5" font-family="Helvetica,sans-Serif" font-size="10.00">Pane_communicator.h</text>
</a>
</g>
</g>
<!-- Node2&#45;&gt;Node8 -->
<g id="edge8" class="edge"><title>Node2&#45;&gt;Node8</title>
<path fill="none" stroke="midnightblue" d="M317.194,-162.901C332.78,-152.999 353.13,-140.071 366.377,-131.655"/>
<polygon fill="midnightblue" stroke="midnightblue" points="315.221,-160.007 308.657,-168.324 318.974,-165.916 315.221,-160.007"/>
</g>
<!-- Node6 -->
<g id="node6" class="node"><title>Node6</title>
<g id="a_node6"><a xlink:href="Pane__connectivity_8h.html" target="_top" xlink:title="Utility for constructing pane connectivities in parallel. ">
<polygon fill="none" stroke="black" points="200.5,-56.5 200.5,-75.5 305.5,-75.5 305.5,-56.5 200.5,-56.5"/>
<text text-anchor="middle" x="253" y="-63.5" font-family="Helvetica,sans-Serif" font-size="10.00">Pane_connectivity.h</text>
</a>
</g>
</g>
<!-- Node2&#45;&gt;Node6 -->
<g id="edge10" class="edge"><title>Node2&#45;&gt;Node6</title>
<path fill="none" stroke="midnightblue" d="M290.195,-158.701C286.539,-145.531 281.106,-127.44 275,-112 269.883,-99.0613 262.568,-84.7178 257.802,-75.7797"/>
<polygon fill="midnightblue" stroke="midnightblue" points="286.839,-159.699 292.825,-168.441 293.597,-157.874 286.839,-159.699"/>
</g>
<!-- Node7 -->
<g id="node7" class="node"><title>Node7</title>
<g id="a_node7"><a xlink:href="Pane__ghost__connectivity_8h.html" target="_top" xlink:title="Utility for constructing pane ghost connecvtivities in parallel. ">
<polygon fill="none" stroke="black" points="398,-0.5 398,-19.5 532,-19.5 532,-0.5 398,-0.5"/>
<text text-anchor="middle" x="465" y="-7.5" font-family="Helvetica,sans-Serif" font-size="10.00">Pane_ghost_connectivity.h</text>
</a>
</g>
</g>
<!-- Node2&#45;&gt;Node7 -->
<g id="edge11" class="edge"><title>Node2&#45;&gt;Node7</title>
<path fill="none" stroke="midnightblue" d="M338.916,-175.985C373.223,-172.717 419.403,-162.42 446,-132 474.693,-99.1831 469.616,-41.3332 466.455,-19.5861"/>
<polygon fill="midnightblue" stroke="midnightblue" points="338.381,-172.516 328.685,-176.788 338.928,-179.495 338.381,-172.516"/>
</g>
<!-- Node10 -->
<g id="node10" class="node"><title>Node10</title>
<g id="a_node10"><a xlink:href="Rocmap_8h.html" target="_top" xlink:title="Rocmap.h">
<polygon fill="none" stroke="black" points="493,-56.5 493,-75.5 555,-75.5 555,-56.5 493,-56.5"/>
<text text-anchor="middle" x="524" y="-63.5" font-family="Helvetica,sans-Serif" font-size="10.00">Rocmap.h</text>
</a>
</g>
</g>
<!-- Node2&#45;&gt;Node10 -->
<g id="edge12" class="edge"><title>Node2&#45;&gt;Node10</title>
<path fill="none" stroke="midnightblue" d="M338.959,-174.98C378.653,-171.249 437.091,-160.829 479,-132 500.033,-117.532 514.258,-89.7745 520.464,-75.6767"/>
<polygon fill="midnightblue" stroke="midnightblue" points="338.467,-171.509 328.792,-175.829 339.049,-178.485 338.467,-171.509"/>
</g>
<!-- Node5&#45;&gt;Node4 -->
<g id="edge5" class="edge"><title>Node5&#45;&gt;Node4</title>
<path fill="none" stroke="midnightblue" d="M191.699,-106.622C177.085,-96.7574 158.173,-83.9919 145.821,-75.6545"/>
<polygon fill="midnightblue" stroke="midnightblue" points="189.9,-109.63 200.147,-112.324 193.816,-103.828 189.9,-109.63"/>
</g>
<!-- Node5&#45;&gt;Node6 -->
<g id="edge6" class="edge"><title>Node5&#45;&gt;Node6</title>
<path fill="none" stroke="midnightblue" d="M225.7,-103.855C232.626,-94.5048 240.906,-83.3265 246.518,-75.7511"/>
<polygon fill="midnightblue" stroke="midnightblue" points="222.745,-101.964 219.605,-112.083 228.37,-106.131 222.745,-101.964"/>
</g>
<!-- Node6&#45;&gt;Node7 -->
<g id="edge7" class="edge"><title>Node6&#45;&gt;Node7</title>
<path fill="none" stroke="midnightblue" d="M296.346,-53.959C336.387,-43.7598 395.033,-28.8217 431.565,-19.5164"/>
<polygon fill="midnightblue" stroke="midnightblue" points="295.419,-50.5834 286.592,-56.4435 297.147,-57.3668 295.419,-50.5834"/>
</g>
<!-- Node9 -->
<g id="node9" class="node"><title>Node9</title>
<g id="a_node9"><a xlink:href="OFModuleDriverPar_8C.html" target="_top" xlink:title="Main function of the driver (in C/C++) for the OpemFoamFSIModule. ">
<polygon fill="none" stroke="black" points="323.5,-56.5 323.5,-75.5 436.5,-75.5 436.5,-56.5 323.5,-56.5"/>
<text text-anchor="middle" x="380" y="-63.5" font-family="Helvetica,sans-Serif" font-size="10.00">OFModuleDriverPar.C</text>
</a>
</g>
</g>
<!-- Node8&#45;&gt;Node9 -->
<g id="edge9" class="edge"><title>Node8&#45;&gt;Node9</title>
<path fill="none" stroke="midnightblue" d="M380,-101.805C380,-92.9102 380,-82.7798 380,-75.7511"/>
<polygon fill="midnightblue" stroke="midnightblue" points="376.5,-102.083 380,-112.083 383.5,-102.083 376.5,-102.083"/>
</g>
<!-- Node10&#45;&gt;Node7 -->
<g id="edge13" class="edge"><title>Node10&#45;&gt;Node7</title>
<path fill="none" stroke="midnightblue" d="M507.105,-49.5372C496.585,-39.9087 483.431,-27.8694 474.652,-19.8339"/>
<polygon fill="midnightblue" stroke="midnightblue" points="504.781,-52.1542 514.521,-56.324 509.507,-46.9905 504.781,-52.1542"/>
</g>
</g>
</svg>
