<?xml version="1.0" encoding="UTF-8" standalone="no"?>
<!DOCTYPE svg PUBLIC "-//W3C//DTD SVG 1.1//EN"
 "http://www.w3.org/Graphics/SVG/1.1/DTD/svg11.dtd">
<!-- Generated by graphviz version 2.30.1 (20150305.2338)
 -->
<!-- Title: elmercsc_load_module Pages: 1 -->
<!--zoomable 304 -->
<svg id="main" version="1.1" xmlns="http://www.w3.org/2000/svg" xmlns:xlink="http://www.w3.org/1999/xlink" xml:space="preserve" onload="init(evt)">
<style type="text/css"><![CDATA[
.edge:hover path { stroke: red; }
.edge:hover polygon { stroke: red; fill: red; }
]]></style>
<script type="text/javascript"><![CDATA[
var edges = document.getElementsByTagName('g');
if (edges && edges.length) {
  for (var i=0;i<edges.length;i++) {
    if (edges[i].id.substr(0,4)=='edge') {
      edges[i].setAttribute('class','edge');
    }
  }
}
]]></script>
        <defs>
                <circle id="rim" cx="0" cy="0" r="7"/>
                <circle id="rim2" cx="0" cy="0" r="3.5"/>
                <g id="zoomPlus">
                        <use xlink:href="#rim" fill="#404040">
                                <set attributeName="fill" to="#808080" begin="zoomplus.mouseover" end="zoomplus.mouseout"/>
                        </use>
                        <path d="M-4,0h8M0,-4v8" fill="none" stroke="white" stroke-width="1.5" pointer-events="none"/>
                </g>
                <g id="zoomMin">
                        <use xlink:href="#rim" fill="#404040">
                                <set attributeName="fill" to="#808080" begin="zoomminus.mouseover" end="zoomminus.mouseout"/>
                        </use>
                        <path d="M-4,0h8" fill="none" stroke="white" stroke-width="1.5" pointer-events="none"/>
                </g>
                <g id="dirArrow">
                        <path fill="none" stroke="white" stroke-width="1.5" d="M0,-3.0v7 M-2.5,-0.5L0,-3.0L2.5,-0.5"/>
                </g>
               <g id="resetDef">
                       <use xlink:href="#rim2" fill="#404040">
                               <set attributeName="fill" to="#808080" begin="reset.mouseover" end="reset.mouseout"/>
                       </use>
               </g>
        </defs>

<script type="text/javascript">
var viewWidth = 844;
var viewHeight = 304;
var sectionId = 'dynsection-0';
</script>
<script xlink:href="svgpan.js"/>
<svg id="graph" class="graph">
<g id="viewport">
<title>elmercsc_load_module</title>
<!-- Node1 -->
<g id="node1" class="node"><title>Node1</title>
<polygon fill="#bfbfbf" stroke="black" points="0,-114.5 0,-133.5 116,-133.5 116,-114.5 0,-114.5"/>
<text text-anchor="middle" x="58" y="-121.5" font-family="Helvetica,sans-Serif" font-size="10.00">elmercsc_load_module</text>
</g>
<!-- Node2 -->
<g id="node2" class="node"><title>Node2</title>
<g id="a_node2"><a xlink:href="classtestobject_af5ec27c31b17e62f8ebb91d2325ac962.html#af5ec27c31b17e62f8ebb91d2325ac962" target="_top" xlink:title="testobject::associate\l_pointer">
<polygon fill="none" stroke="black" points="152.5,-172 152.5,-202 259.5,-202 259.5,-172 152.5,-172"/>
<text text-anchor="start" x="160.5" y="-190" font-family="Helvetica,sans-Serif" font-size="10.00">testobject::associate</text>
<text text-anchor="middle" x="206" y="-179" font-family="Helvetica,sans-Serif" font-size="10.00">_pointer</text>
</a>
</g>
</g>
<!-- Node1&#45;&gt;Node2 -->
<g id="edge1" class="edge"><title>Node1&#45;&gt;Node2</title>
<path fill="none" stroke="midnightblue" d="M81.1743,-133.568C102.204,-142.643 134.406,-156.538 160.699,-167.884"/>
<polygon fill="midnightblue" stroke="midnightblue" points="159.519,-171.187 170.087,-171.935 162.292,-164.759 159.519,-171.187"/>
</g>
<!-- Node3 -->
<g id="node3" class="node"><title>Node3</title>
<g id="a_node3"><a xlink:href="ElmerCSC_8F90_af3d36f75ef0281d05095a89df472fa2f.html#af3d36f75ef0281d05095a89df472fa2f" target="_top" xlink:title="finalize">
<polygon fill="none" stroke="black" points="182.5,-95.5 182.5,-114.5 229.5,-114.5 229.5,-95.5 182.5,-95.5"/>
<text text-anchor="middle" x="206" y="-102.5" font-family="Helvetica,sans-Serif" font-size="10.00">finalize</text>
</a>
</g>
</g>
<!-- Node1&#45;&gt;Node3 -->
<g id="edge2" class="edge"><title>Node1&#45;&gt;Node3</title>
<path fill="none" stroke="midnightblue" d="M116.284,-116.545C135.289,-114.072 155.785,-111.405 172.284,-109.258"/>
<polygon fill="midnightblue" stroke="midnightblue" points="173.029,-112.69 182.494,-107.929 172.126,-105.749 173.029,-112.69"/>
</g>
<!-- Node7 -->
<g id="node7" class="node"><title>Node7</title>
<g id="a_node7"><a xlink:href="ElmerCSC_8F90_a7fd2a399b044e015aab8122e737dbf84.html#a7fd2a399b044e015aab8122e737dbf84" target="_top" xlink:title="A caller for the Elmer main program. ">
<polygon fill="none" stroke="black" points="178.5,-133.5 178.5,-152.5 233.5,-152.5 233.5,-133.5 178.5,-133.5"/>
<text text-anchor="middle" x="206" y="-140.5" font-family="Helvetica,sans-Serif" font-size="10.00">initializer</text>
</a>
</g>
</g>
<!-- Node1&#45;&gt;Node7 -->
<g id="edge7" class="edge"><title>Node1&#45;&gt;Node7</title>
<path fill="none" stroke="midnightblue" d="M116.284,-131.455C133.68,-133.719 152.325,-136.145 168.011,-138.186"/>
<polygon fill="midnightblue" stroke="midnightblue" points="167.978,-141.711 178.346,-139.531 168.881,-134.77 167.978,-141.711"/>
</g>
<!-- Node15 -->
<g id="node15" class="node"><title>Node15</title>
<g id="a_node15"><a xlink:href="ElmerCSC_8F90_a8b10c4eb645aab66861aa1220c4adae1.html#a8b10c4eb645aab66861aa1220c4adae1" target="_top" xlink:title="run">
<polygon fill="none" stroke="black" points="191,-38.5 191,-57.5 221,-57.5 221,-38.5 191,-38.5"/>
<text text-anchor="middle" x="206" y="-45.5" font-family="Helvetica,sans-Serif" font-size="10.00">run</text>
</a>
</g>
</g>
<!-- Node1&#45;&gt;Node15 -->
<g id="edge15" class="edge"><title>Node1&#45;&gt;Node15</title>
<path fill="none" stroke="midnightblue" d="M77.491,-114.375C103.963,-100.594 152.655,-75.2482 181.602,-60.1798"/>
<polygon fill="midnightblue" stroke="midnightblue" points="183.347,-63.2171 190.601,-55.4952 180.115,-57.008 183.347,-63.2171"/>
</g>
<!-- Node4 -->
<g id="node4" class="node"><title>Node4</title>
<g id="a_node4"><a xlink:href="Finalize_8F90_a8569340644464d5504163ec6dd668d27.html#a8569340644464d5504163ec6dd668d27" target="_top" xlink:title="ElmerLib Elmer library routines ">
<polygon fill="none" stroke="black" points="322.5,-95.5 322.5,-114.5 393.5,-114.5 393.5,-95.5 322.5,-95.5"/>
<text text-anchor="middle" x="358" y="-102.5" font-family="Helvetica,sans-Serif" font-size="10.00">elmerfinalize</text>
</a>
</g>
</g>
<!-- Node3&#45;&gt;Node4 -->
<g id="edge3" class="edge"><title>Node3&#45;&gt;Node4</title>
<path fill="none" stroke="midnightblue" d="M229.782,-105C251.584,-105 285.073,-105 312.219,-105"/>
<polygon fill="midnightblue" stroke="midnightblue" points="312.275,-108.5 322.275,-105 312.275,-101.5 312.275,-108.5"/>
</g>
<!-- Node5 -->
<g id="node5" class="node"><title>Node5</title>
<g id="a_node5"><a xlink:href="classgeneralmodule_aa4606faf69704584d197ae7ccfbf8068.html#aa4606faf69704584d197ae7ccfbf8068" target="_top" xlink:title="Saves results file to post processing file of ElmerPost format, if requested. ">
<polygon fill="none" stroke="black" points="702,-67.5 702,-86.5 836,-86.5 836,-67.5 702,-67.5"/>
<text text-anchor="middle" x="769" y="-74.5" font-family="Helvetica,sans-Serif" font-size="10.00">generalmodule::savetopost</text>
</a>
</g>
</g>
<!-- Node4&#45;&gt;Node5 -->
<g id="edge4" class="edge"><title>Node4&#45;&gt;Node5</title>
<path fill="none" stroke="midnightblue" d="M393.649,-105.726C450.638,-106.529 567.651,-106.537 666,-96 682.014,-94.2842 699.285,-91.4491 714.981,-88.4859"/>
<polygon fill="midnightblue" stroke="midnightblue" points="715.891,-91.8747 725.039,-86.5306 714.555,-85.0033 715.891,-91.8747"/>
</g>
<!-- Node6 -->
<g id="node6" class="node"><title>Node6</title>
<g id="a_node6"><a xlink:href="classgeneralmodule_a22c594fc74d4a28dc4fd20412caed9c5.html#a22c594fc74d4a28dc4fd20412caed9c5" target="_top" xlink:title="Saves current timestep to external files. ">
<polygon fill="none" stroke="black" points="492.5,-67.5 492.5,-86.5 629.5,-86.5 629.5,-67.5 492.5,-67.5"/>
<text text-anchor="middle" x="561" y="-74.5" font-family="Helvetica,sans-Serif" font-size="10.00">generalmodule::savecurrent</text>
</a>
</g>
</g>
<!-- Node4&#45;&gt;Node6 -->
<g id="edge5" class="edge"><title>Node4&#45;&gt;Node6</title>
<path fill="none" stroke="midnightblue" d="M393.553,-100.187C417.857,-96.8011 451.372,-92.1323 481.961,-87.871"/>
<polygon fill="midnightblue" stroke="midnightblue" points="482.784,-91.2903 492.206,-86.444 481.818,-84.3573 482.784,-91.2903"/>
</g>
<!-- Node6&#45;&gt;Node5 -->
<g id="edge6" class="edge"><title>Node6&#45;&gt;Node5</title>
<path fill="none" stroke="midnightblue" d="M629.737,-77C649.601,-77 671.453,-77 691.806,-77"/>
<polygon fill="midnightblue" stroke="midnightblue" points="691.976,-80.5001 701.976,-77 691.976,-73.5001 691.976,-80.5001"/>
</g>
<!-- Node8 -->
<g id="node8" class="node"><title>Node8</title>
<g id="a_node8"><a xlink:href="Initialize_8F90_afecd6445ab6f4860c0f00f62648f7332.html#afecd6445ab6f4860c0f00f62648f7332" target="_top" xlink:title="ElmerLib Elmer library routines ">
<polygon fill="none" stroke="black" points="320,-181.5 320,-200.5 396,-200.5 396,-181.5 320,-181.5"/>
<text text-anchor="middle" x="358" y="-188.5" font-family="Helvetica,sans-Serif" font-size="10.00">elmerinitialize</text>
</a>
</g>
</g>
<!-- Node7&#45;&gt;Node8 -->
<g id="edge8" class="edge"><title>Node7&#45;&gt;Node8</title>
<path fill="none" stroke="midnightblue" d="M233.817,-151.581C257.056,-159.018 290.997,-169.879 317.37,-178.318"/>
<polygon fill="midnightblue" stroke="midnightblue" points="316.478,-181.708 327.069,-181.422 318.611,-175.041 316.478,-181.708"/>
</g>
<!-- Node9 -->
<g id="node9" class="node"><title>Node9</title>
<g id="a_node9"><a xlink:href="classgeneralmodule_ace41a25456bb516f0f9ee96e9eed55ed.html#ace41a25456bb516f0f9ee96e9eed55ed" target="_top" xlink:title="generalmodule::addvtuoutputsolverhack">
<polygon fill="none" stroke="black" points="466.5,-143.5 466.5,-162.5 655.5,-162.5 655.5,-143.5 466.5,-143.5"/>
<text text-anchor="middle" x="561" y="-150.5" font-family="Helvetica,sans-Serif" font-size="10.00">generalmodule::addvtuoutputsolverhack</text>
</a>
</g>
</g>
<!-- Node8&#45;&gt;Node9 -->
<g id="edge9" class="edge"><title>Node8&#45;&gt;Node9</title>
<path fill="none" stroke="midnightblue" d="M396.289,-183.581C414.316,-180.023 436.273,-175.734 456,-172 469.221,-169.498 483.399,-166.87 496.902,-164.395"/>
<polygon fill="midnightblue" stroke="midnightblue" points="497.861,-167.777 507.068,-162.536 496.602,-160.891 497.861,-167.777"/>
</g>
<!-- Node10 -->
<g id="node10" class="node"><title>Node10</title>
<g id="a_node10"><a xlink:href="classgeneralmodule_a9fa4925b1884bc7bd5f9bb2cdddf2bbe.html#a9fa4925b1884bc7bd5f9bb2cdddf2bbe" target="_top" xlink:title="Adds flags for active solvers. ">
<polygon fill="none" stroke="black" points="494.5,-219.5 494.5,-238.5 627.5,-238.5 627.5,-219.5 494.5,-219.5"/>
<text text-anchor="middle" x="561" y="-226.5" font-family="Helvetica,sans-Serif" font-size="10.00">generalmodule::addsolvers</text>
</a>
</g>
</g>
<!-- Node8&#45;&gt;Node10 -->
<g id="edge10" class="edge"><title>Node8&#45;&gt;Node10</title>
<path fill="none" stroke="midnightblue" d="M396.289,-198.419C414.316,-201.977 436.273,-206.266 456,-210 469.221,-212.502 483.399,-215.13 496.902,-217.605"/>
<polygon fill="midnightblue" stroke="midnightblue" points="496.602,-221.109 507.068,-219.464 497.861,-214.223 496.602,-221.109"/>
</g>
<!-- Node11 -->
<g id="node11" class="node"><title>Node11</title>
<g id="a_node11"><a xlink:href="classgeneralmodule_a365409624821229f0d7ab61da0d3c6ba.html#a365409624821229f0d7ab61da0d3c6ba" target="_top" xlink:title="Adds coordinate and time variables to the current mesh structure. ">
<polygon fill="none" stroke="black" points="456,-181.5 456,-200.5 666,-200.5 666,-181.5 456,-181.5"/>
<text text-anchor="middle" x="561" y="-188.5" font-family="Helvetica,sans-Serif" font-size="10.00">generalmodule::addmeshcoordinatesandtime</text>
</a>
</g>
</g>
<!-- Node8&#45;&gt;Node11 -->
<g id="edge11" class="edge"><title>Node8&#45;&gt;Node11</title>
<path fill="none" stroke="midnightblue" d="M396.335,-191C410.571,-191 427.65,-191 445.326,-191"/>
<polygon fill="midnightblue" stroke="midnightblue" points="445.786,-194.5 455.786,-191 445.786,-187.5 445.786,-194.5"/>
</g>
<!-- Node12 -->
<g id="node12" class="node"><title>Node12</title>
<g id="a_node12"><a xlink:href="classgeneralmodule_aab23af2755a40587c4f194ab80091318.html#aab23af2755a40587c4f194ab80091318" target="_top" xlink:title="Sets initial conditions for the fields. ">
<polygon fill="none" stroke="black" points="478,-257.5 478,-276.5 644,-276.5 644,-257.5 478,-257.5"/>
<text text-anchor="middle" x="561" y="-264.5" font-family="Helvetica,sans-Serif" font-size="10.00">generalmodule::setinitialconditions</text>
</a>
</g>
</g>
<!-- Node8&#45;&gt;Node12 -->
<g id="edge12" class="edge"><title>Node8&#45;&gt;Node12</title>
<path fill="none" stroke="midnightblue" d="M372.058,-200.71C390.014,-213.57 423.778,-236.019 456,-248 463.318,-250.721 471.076,-253.063 478.925,-255.075"/>
<polygon fill="midnightblue" stroke="midnightblue" points="478.351,-258.536 488.89,-257.453 479.975,-251.728 478.351,-258.536"/>
</g>
<!-- Node13 -->
<g id="node13" class="node"><title>Node13</title>
<g id="a_node13"><a xlink:href="classgeneralmodule_a35170c044edf9e26057c957be782d749.html#a35170c044edf9e26057c957be782d749" target="_top" xlink:title="Check if we are restarting are if yes, read in field values. ">
<polygon fill="none" stroke="black" points="712.5,-238.5 712.5,-257.5 825.5,-257.5 825.5,-238.5 712.5,-238.5"/>
<text text-anchor="middle" x="769" y="-245.5" font-family="Helvetica,sans-Serif" font-size="10.00">generalmodule::restart</text>
</a>
</g>
</g>
<!-- Node12&#45;&gt;Node13 -->
<g id="edge13" class="edge"><title>Node12&#45;&gt;Node13</title>
<path fill="none" stroke="midnightblue" d="M644.009,-259.436C663.321,-257.655 683.662,-255.779 702.157,-254.073"/>
<polygon fill="midnightblue" stroke="midnightblue" points="702.587,-257.548 712.224,-253.144 701.945,-250.578 702.587,-257.548"/>
</g>
<!-- Node14 -->
<g id="node14" class="node"><title>Node14</title>
<g id="a_node14"><a xlink:href="classgeneralmodule_af55e87fced73725324f9022ee5612521.html#af55e87fced73725324f9022ee5612521" target="_top" xlink:title="generalmodule::initcond">
<polygon fill="none" stroke="black" points="709.5,-276.5 709.5,-295.5 828.5,-295.5 828.5,-276.5 709.5,-276.5"/>
<text text-anchor="middle" x="769" y="-283.5" font-family="Helvetica,sans-Serif" font-size="10.00">generalmodule::initcond</text>
</a>
</g>
</g>
<!-- Node12&#45;&gt;Node14 -->
<g id="edge14" class="edge"><title>Node12&#45;&gt;Node14</title>
<path fill="none" stroke="midnightblue" d="M644.009,-274.564C662.298,-276.251 681.51,-278.023 699.203,-279.655"/>
<polygon fill="midnightblue" stroke="midnightblue" points="699.147,-283.164 709.426,-280.598 699.79,-276.194 699.147,-283.164"/>
</g>
<!-- Node16 -->
<g id="node16" class="node"><title>Node16</title>
<g id="a_node16"><a xlink:href="classtimemodule_a1cf4a14a9976bb954bb16f95d5e2dab0.html#a1cf4a14a9976bb954bb16f95d5e2dab0" target="_top" xlink:title="timemodule::timestepper">
<polygon fill="none" stroke="black" points="296,-38.5 296,-57.5 420,-57.5 420,-38.5 296,-38.5"/>
<text text-anchor="middle" x="358" y="-45.5" font-family="Helvetica,sans-Serif" font-size="10.00">timemodule::timestepper</text>
</a>
</g>
</g>
<!-- Node15&#45;&gt;Node16 -->
<g id="edge16" class="edge"><title>Node15&#45;&gt;Node16</title>
<path fill="none" stroke="midnightblue" d="M221.112,-48C236.175,-48 261.199,-48 285.696,-48"/>
<polygon fill="midnightblue" stroke="midnightblue" points="285.764,-51.5001 295.764,-48 285.764,-44.5001 285.764,-51.5001"/>
</g>
<!-- Node18 -->
<g id="node18" class="node"><title>Node18</title>
<g id="a_node18"><a xlink:href="ElmerCSC_8F90_ac6c99ca7368bb6db20d3a6df1f442f49.html#ac6c99ca7368bb6db20d3a6df1f442f49" target="_top" xlink:title="updatedisplacements">
<polygon fill="none" stroke="black" points="303.5,-0.5 303.5,-19.5 412.5,-19.5 412.5,-0.5 303.5,-0.5"/>
<text text-anchor="middle" x="358" y="-7.5" font-family="Helvetica,sans-Serif" font-size="10.00">updatedisplacements</text>
</a>
</g>
</g>
<!-- Node15&#45;&gt;Node18 -->
<g id="edge20" class="edge"><title>Node15&#45;&gt;Node18</title>
<path fill="none" stroke="midnightblue" d="M221.112,-44.4251C241.096,-39.3623 278.613,-29.858 309.172,-22.1165"/>
<polygon fill="midnightblue" stroke="midnightblue" points="310.398,-25.4164 319.233,-19.5677 308.679,-18.6307 310.398,-25.4164"/>
</g>
<!-- Node17 -->
<g id="node17" class="node"><title>Node17</title>
<g id="a_node17"><a xlink:href="classtimemodule_ac02e054b725f683bf66b8d664a323d2d.html#ac02e054b725f683bf66b8d664a323d2d" target="_top" xlink:title="timemodule::updateloads">
<polygon fill="none" stroke="black" points="498.5,-29.5 498.5,-48.5 623.5,-48.5 623.5,-29.5 498.5,-29.5"/>
<text text-anchor="middle" x="561" y="-36.5" font-family="Helvetica,sans-Serif" font-size="10.00">timemodule::updateloads</text>
</a>
</g>
</g>
<!-- Node16&#45;&gt;Node17 -->
<g id="edge17" class="edge"><title>Node16&#45;&gt;Node17</title>
<path fill="none" stroke="midnightblue" d="M420.125,-45.263C441.659,-44.2988 466.058,-43.2063 488.38,-42.2069"/>
<polygon fill="midnightblue" stroke="midnightblue" points="488.639,-45.6989 498.472,-41.755 488.326,-38.7059 488.639,-45.6989"/>
</g>
<!-- Node16&#45;&gt;Node5 -->
<g id="edge18" class="edge"><title>Node16&#45;&gt;Node5</title>
<path fill="none" stroke="midnightblue" d="M390.501,-38.4294C416.228,-30.6929 449.383,-20.9359 456,-20 548.414,-6.92881 575.68,3.52449 666,-20 696.643,-27.9811 727.839,-47.4211 747.522,-61.3788"/>
<polygon fill="midnightblue" stroke="midnightblue" points="745.568,-64.2857 755.711,-67.3452 749.69,-58.6279 745.568,-64.2857"/>
</g>
<!-- Node16&#45;&gt;Node6 -->
<g id="edge19" class="edge"><title>Node16&#45;&gt;Node6</title>
<path fill="none" stroke="midnightblue" d="M420.125,-56.8191C440.266,-59.725 462.913,-62.9925 484.023,-66.0382"/>
<polygon fill="midnightblue" stroke="midnightblue" points="483.523,-69.5022 493.921,-67.4662 484.523,-62.574 483.523,-69.5022"/>
</g>
</g>
</svg>
        <g id="navigator" transform="translate(0 0)" fill="#404254">
                <rect fill="#f2f5e9" fill-opacity="0.5" stroke="#606060" stroke-width=".5" x="0" y="0" width="60" height="60"/>
                <use id="zoomplus" xlink:href="#zoomPlus" x="17" y="9" onmousedown="handleZoom(evt,'in')"/>
                <use id="zoomminus" xlink:href="#zoomMin" x="42" y="9" onmousedown="handleZoom(evt,'out')"/>
                <use id="reset" xlink:href="#resetDef" x="30" y="36" onmousedown="handleReset()"/>
                <g id="arrowUp" xlink:href="#dirArrow" transform="translate(30 24)" onmousedown="handlePan(0,-1)">
                  <use xlink:href="#rim" fill="#404040">
                        <set attributeName="fill" to="#808080" begin="arrowUp.mouseover" end="arrowUp.mouseout"/>
                  </use>
                  <path fill="none" stroke="white" stroke-width="1.5" d="M0,-3.0v7 M-2.5,-0.5L0,-3.0L2.5,-0.5"/>
                </g>
                <g id="arrowRight" xlink:href="#dirArrow" transform="rotate(90) translate(36 -43)" onmousedown="handlePan(1,0)">
                  <use xlink:href="#rim" fill="#404040">
                        <set attributeName="fill" to="#808080" begin="arrowRight.mouseover" end="arrowRight.mouseout"/>
                  </use>
                  <path fill="none" stroke="white" stroke-width="1.5" d="M0,-3.0v7 M-2.5,-0.5L0,-3.0L2.5,-0.5"/>
                </g>
                <g id="arrowDown" xlink:href="#dirArrow" transform="rotate(180) translate(-30 -48)" onmousedown="handlePan(0,1)">
                  <use xlink:href="#rim" fill="#404040">
                        <set attributeName="fill" to="#808080" begin="arrowDown.mouseover" end="arrowDown.mouseout"/>
                  </use>
                  <path fill="none" stroke="white" stroke-width="1.5" d="M0,-3.0v7 M-2.5,-0.5L0,-3.0L2.5,-0.5"/>
                </g>
                <g id="arrowLeft" xlink:href="#dirArrow" transform="rotate(270) translate(-36 17)" onmousedown="handlePan(-1,0)">
                  <use xlink:href="#rim" fill="#404040">
                        <set attributeName="fill" to="#808080" begin="arrowLeft.mouseover" end="arrowLeft.mouseout"/>
                  </use>
                  <path fill="none" stroke="white" stroke-width="1.5" d="M0,-3.0v7 M-2.5,-0.5L0,-3.0L2.5,-0.5"/>
                </g>
        </g>
        <svg viewBox="0 0 15 15" width="100%" height="30px" preserveAspectRatio="xMaxYMin meet">
         <g id="arrow_out" transform="scale(0.3 0.3)">
          <a xlink:href="ElmerCSC_8F90_a08424dc689065df44a24c900bc17412b_a08424dc689065df44a24c900bc17412b_cgraph_org.svg" target="_base">
           <rect id="button" ry="5" rx="5" y="6" x="6" height="38" width="38"
                fill="#f2f5e9" fill-opacity="0.5" stroke="#606060" stroke-width="1.0"/>
           <path id="arrow"
             d="M 11.500037,31.436501 C 11.940474,20.09759 22.043105,11.32322 32.158766,21.979434 L 37.068811,17.246167 C 37.068811,17.246167 37.088388,32 37.088388,32 L 22.160133,31.978069 C 22.160133,31.978069 26.997745,27.140456 26.997745,27.140456 C 18.528582,18.264221 13.291696,25.230495 11.500037,31.436501 z"
             style="fill:#404040;"/>
          </a>
         </g>
        </svg>
</svg>
