<?xml version="1.0" encoding="UTF-8" standalone="no"?>
<!DOCTYPE svg PUBLIC "-//W3C//DTD SVG 1.1//EN"
 "http://www.w3.org/Graphics/SVG/1.1/DTD/svg11.dtd">
<!-- Generated by graphviz version 2.30.1 (20150305.2338)
 -->
<!-- Title: ElmerFoamDriver.C Pages: 1 -->
<svg width="494pt" height="196pt"
 viewBox="0.00 0.00 494.00 196.00" xmlns="http://www.w3.org/2000/svg" xmlns:xlink="http://www.w3.org/1999/xlink">
<g id="graph0" class="graph" transform="scale(1 1) rotate(0) translate(4 192)">
<title>ElmerFoamDriver.C</title>
<!-- Node1 -->
<g id="node1" class="node"><title>Node1</title>
<polygon fill="#bfbfbf" stroke="black" points="144,-168.5 144,-187.5 248,-187.5 248,-168.5 144,-168.5"/>
<text text-anchor="middle" x="196" y="-175.5" font-family="Helvetica,sans-Serif" font-size="10.00">ElmerFoamDriver.C</text>
</g>
<!-- Node2 -->
<g id="node2" class="node"><title>Node2</title>
<g id="a_node2"><a xlink:href="Driver_8H.html" target="_top" xlink:title="Example program interface. ">
<polygon fill="none" stroke="black" points="74.5,-112.5 74.5,-131.5 127.5,-131.5 127.5,-112.5 74.5,-112.5"/>
<text text-anchor="middle" x="101" y="-119.5" font-family="Helvetica,sans-Serif" font-size="10.00">Driver.H</text>
</a>
</g>
</g>
<!-- Node1&#45;&gt;Node2 -->
<g id="edge1" class="edge"><title>Node1&#45;&gt;Node2</title>
<path fill="none" stroke="midnightblue" d="M180.737,-168.324C165.779,-159.822 142.745,-146.729 125.273,-136.797"/>
<polygon fill="midnightblue" stroke="midnightblue" points="126.649,-133.553 116.226,-131.655 123.19,-139.639 126.649,-133.553"/>
</g>
<!-- Node6 -->
<g id="node6" class="node"><title>Node6</title>
<polygon fill="none" stroke="#bfbfbf" points="157.5,-112.5 157.5,-131.5 234.5,-131.5 234.5,-112.5 157.5,-112.5"/>
<text text-anchor="middle" x="196" y="-119.5" font-family="Helvetica,sans-Serif" font-size="10.00">Parameters.H</text>
</g>
<!-- Node1&#45;&gt;Node6 -->
<g id="edge5" class="edge"><title>Node1&#45;&gt;Node6</title>
<path fill="none" stroke="midnightblue" d="M196,-168.083C196,-161.006 196,-150.861 196,-141.986"/>
<polygon fill="midnightblue" stroke="midnightblue" points="199.5,-141.751 196,-131.751 192.5,-141.751 199.5,-141.751"/>
</g>
<!-- Node7 -->
<g id="node7" class="node"><title>Node7</title>
<g id="a_node7"><a xlink:href="FsiCoupling_8H.html" target="_top" xlink:title="Example serial program. ">
<polygon fill="none" stroke="black" points="258.5,-112.5 258.5,-131.5 337.5,-131.5 337.5,-112.5 258.5,-112.5"/>
<text text-anchor="middle" x="298" y="-119.5" font-family="Helvetica,sans-Serif" font-size="10.00">FsiCoupling.H</text>
</a>
</g>
</g>
<!-- Node1&#45;&gt;Node7 -->
<g id="edge6" class="edge"><title>Node1&#45;&gt;Node7</title>
<path fill="none" stroke="midnightblue" d="M212.388,-168.324C228.671,-159.703 253.867,-146.364 272.716,-136.386"/>
<polygon fill="midnightblue" stroke="midnightblue" points="274.452,-139.427 281.653,-131.655 271.177,-133.24 274.452,-139.427"/>
</g>
<!-- Node3 -->
<g id="node3" class="node"><title>Node3</title>
<polygon fill="none" stroke="#bfbfbf" points="138.5,-56.5 138.5,-75.5 193.5,-75.5 193.5,-56.5 138.5,-56.5"/>
<text text-anchor="middle" x="166" y="-63.5" font-family="Helvetica,sans-Serif" font-size="10.00">Global.H</text>
</g>
<!-- Node2&#45;&gt;Node3 -->
<g id="edge2" class="edge"><title>Node2&#45;&gt;Node3</title>
<path fill="none" stroke="midnightblue" d="M111.443,-112.324C121.146,-104.263 135.815,-92.0765 147.5,-82.3695"/>
<polygon fill="midnightblue" stroke="midnightblue" points="149.911,-84.9163 155.367,-75.8339 145.438,-79.532 149.911,-84.9163"/>
</g>
<!-- Node4 -->
<g id="node4" class="node"><title>Node4</title>
<polygon fill="none" stroke="#bfbfbf" points="0,-56.5 0,-75.5 58,-75.5 58,-56.5 0,-56.5"/>
<text text-anchor="middle" x="29" y="-63.5" font-family="Helvetica,sans-Serif" font-size="10.00">Profiler.H</text>
</g>
<!-- Node2&#45;&gt;Node4 -->
<g id="edge3" class="edge"><title>Node2&#45;&gt;Node4</title>
<path fill="none" stroke="midnightblue" d="M89.432,-112.324C78.5798,-104.185 62.1193,-91.8395 49.1166,-82.0874"/>
<polygon fill="midnightblue" stroke="midnightblue" points="50.8786,-79.0339 40.7785,-75.8339 46.6785,-84.6339 50.8786,-79.0339"/>
</g>
<!-- Node5 -->
<g id="node5" class="node"><title>Node5</title>
<polygon fill="none" stroke="#bfbfbf" points="76,-56.5 76,-75.5 120,-75.5 120,-56.5 76,-56.5"/>
<text text-anchor="middle" x="98" y="-63.5" font-family="Helvetica,sans-Serif" font-size="10.00">com.h</text>
</g>
<!-- Node2&#45;&gt;Node5 -->
<g id="edge4" class="edge"><title>Node2&#45;&gt;Node5</title>
<path fill="none" stroke="midnightblue" d="M100.505,-112.083C100.111,-105.006 99.5478,-94.8611 99.0548,-85.9865"/>
<polygon fill="midnightblue" stroke="midnightblue" points="102.536,-85.5415 98.4862,-75.7511 95.5464,-85.9299 102.536,-85.5415"/>
</g>
<!-- Node8 -->
<g id="node8" class="node"><title>Node8</title>
<polygon fill="none" stroke="#bfbfbf" points="204.5,-0.5 204.5,-19.5 293.5,-19.5 293.5,-0.5 204.5,-0.5"/>
<text text-anchor="middle" x="249" y="-7.5" font-family="Helvetica,sans-Serif" font-size="10.00">InterfaceLayer.H</text>
</g>
<!-- Node7&#45;&gt;Node8 -->
<g id="edge7" class="edge"><title>Node7&#45;&gt;Node8</title>
<path fill="none" stroke="midnightblue" d="M279.918,-112.39C266.438,-104.872 249.028,-92.5651 241,-76 233.958,-61.4677 237.192,-43.0528 241.468,-29.5368"/>
<polygon fill="midnightblue" stroke="midnightblue" points="244.838,-30.5096 244.944,-19.9152 238.254,-28.1312 244.838,-30.5096"/>
</g>
<!-- Node9 -->
<g id="node9" class="node"><title>Node9</title>
<g id="a_node9"><a xlink:href="Orchestrator_8H.html" target="_top" xlink:title="Orchestrator.H">
<polygon fill="none" stroke="black" points="339.5,-0.5 339.5,-19.5 420.5,-19.5 420.5,-0.5 339.5,-0.5"/>
<text text-anchor="middle" x="380" y="-7.5" font-family="Helvetica,sans-Serif" font-size="10.00">Orchestrator.H</text>
</a>
</g>
</g>
<!-- Node7&#45;&gt;Node9 -->
<g id="edge8" class="edge"><title>Node7&#45;&gt;Node9</title>
<path fill="none" stroke="midnightblue" d="M315.399,-112.436C329.362,-104.72 348.474,-92.1205 360,-76 369.764,-62.3439 374.852,-43.8056 377.446,-30.0212"/>
<polygon fill="midnightblue" stroke="midnightblue" points="380.961,-30.1995 379.086,-19.772 374.049,-29.0933 380.961,-30.1995"/>
</g>
<!-- Node10 -->
<g id="node10" class="node"><title>Node10</title>
<g id="a_node10"><a xlink:href="OpenFoamAgent_8H.html" target="_top" xlink:title="OpenFoamAgent.H">
<polygon fill="none" stroke="black" points="250.5,-56.5 250.5,-75.5 351.5,-75.5 351.5,-56.5 250.5,-56.5"/>
<text text-anchor="middle" x="301" y="-63.5" font-family="Helvetica,sans-Serif" font-size="10.00">OpenFoamAgent.H</text>
</a>
</g>
</g>
<!-- Node7&#45;&gt;Node10 -->
<g id="edge9" class="edge"><title>Node7&#45;&gt;Node10</title>
<path fill="none" stroke="midnightblue" d="M298.495,-112.083C298.889,-105.006 299.452,-94.8611 299.945,-85.9865"/>
<polygon fill="midnightblue" stroke="midnightblue" points="303.454,-85.9299 300.514,-75.7511 296.464,-85.5415 303.454,-85.9299"/>
</g>
<!-- Node11 -->
<g id="node11" class="node"><title>Node11</title>
<g id="a_node11"><a xlink:href="ElmerAgent_8H.html" target="_top" xlink:title="ElmerAgent.H">
<polygon fill="none" stroke="black" points="408,-56.5 408,-75.5 486,-75.5 486,-56.5 408,-56.5"/>
<text text-anchor="middle" x="447" y="-63.5" font-family="Helvetica,sans-Serif" font-size="10.00">ElmerAgent.H</text>
</a>
</g>
</g>
<!-- Node7&#45;&gt;Node11 -->
<g id="edge12" class="edge"><title>Node7&#45;&gt;Node11</title>
<path fill="none" stroke="midnightblue" d="M321.609,-112.444C346.458,-103.438 385.774,-89.1891 413.754,-79.049"/>
<polygon fill="midnightblue" stroke="midnightblue" points="415.292,-82.2144 423.501,-75.5164 412.907,-75.6332 415.292,-82.2144"/>
</g>
<!-- Node7&#45;&gt;Node3 -->
<g id="edge14" class="edge"><title>Node7&#45;&gt;Node3</title>
<path fill="none" stroke="midnightblue" d="M277.084,-112.444C255.264,-103.517 220.85,-89.4387 196.108,-79.3168"/>
<polygon fill="midnightblue" stroke="midnightblue" points="197.399,-76.0634 186.818,-75.5164 194.748,-82.5422 197.399,-76.0634"/>
</g>
<!-- Node10&#45;&gt;Node9 -->
<g id="edge10" class="edge"><title>Node10&#45;&gt;Node9</title>
<path fill="none" stroke="midnightblue" d="M313.693,-56.324C325.901,-47.979 344.578,-35.2122 359.003,-25.3524"/>
<polygon fill="midnightblue" stroke="midnightblue" points="361.058,-28.1871 367.339,-19.6545 357.108,-22.4082 361.058,-28.1871"/>
</g>
<!-- Node10&#45;&gt;Node8 -->
<g id="edge11" class="edge"><title>Node10&#45;&gt;Node8</title>
<path fill="none" stroke="midnightblue" d="M292.413,-56.083C284.841,-48.2195 273.622,-36.5688 264.486,-27.0813"/>
<polygon fill="midnightblue" stroke="midnightblue" points="266.885,-24.5266 257.427,-19.7511 261.842,-29.3821 266.885,-24.5266"/>
</g>
<!-- Node11&#45;&gt;Node9 -->
<g id="edge13" class="edge"><title>Node11&#45;&gt;Node9</title>
<path fill="none" stroke="midnightblue" d="M436.235,-56.324C426.234,-48.2631 411.113,-36.0765 399.07,-26.3695"/>
<polygon fill="midnightblue" stroke="midnightblue" points="400.943,-23.3841 390.961,-19.8339 396.55,-28.8343 400.943,-23.3841"/>
</g>
</g>
</svg>
