<?xml version="1.0" encoding="UTF-8" standalone="no"?>
<!DOCTYPE svg PUBLIC "-//W3C//DTD SVG 1.1//EN"
 "http://www.w3.org/Graphics/SVG/1.1/DTD/svg11.dtd">
<!-- Generated by graphviz version 2.26.0 (20091210.2329)
 -->
<!-- Title: SolverModuleDriver.C Pages: 1 -->
<svg width="773pt" height="146pt"
 viewBox="0.00 0.00 773.00 146.00" xmlns="http://www.w3.org/2000/svg" xmlns:xlink="http://www.w3.org/1999/xlink">
<g id="graph1" class="graph" transform="scale(1 1) rotate(0) translate(4 142)">
<title>SolverModuleDriver.C</title>
<!-- Node1 -->
<g id="node1" class="node"><title>Node1</title>
<polygon fill="#bfbfbf" stroke="black" points="263.5,-116.5 263.5,-137.5 376.5,-137.5 376.5,-116.5 263.5,-116.5"/>
<text text-anchor="middle" x="320" y="-124.5" font-family="Helvetica,sans-Serif" font-size="10.00">SolverModuleDriver.C</text>
</g>
<!-- Node2 -->
<g id="node3" class="node"><title>Node2</title>
<polygon fill="none" stroke="#bfbfbf" points="0,-58.5 0,-79.5 44,-79.5 44,-58.5 0,-58.5"/>
<text text-anchor="middle" x="22" y="-66.5" font-family="Helvetica,sans-Serif" font-size="10.00">com.h</text>
</g>
<!-- Node1&#45;&gt;Node2 -->
<g id="edge2" class="edge"><title>Node1&#45;&gt;Node2</title>
<path fill="none" stroke="midnightblue" d="M263.412,-119.832C211.191,-112.591 131.442,-99.9477 54.1178,-79.9835"/>
<polygon fill="midnightblue" stroke="midnightblue" points="54.7731,-76.5369 44.212,-77.3815 52.9947,-83.3073 54.7731,-76.5369"/>
</g>
<!-- Node3 -->
<g id="node5" class="node"><title>Node3</title>
<polygon fill="none" stroke="#bfbfbf" points="61.5,-58.5 61.5,-79.5 144.5,-79.5 144.5,-58.5 61.5,-58.5"/>
<text text-anchor="middle" x="103" y="-66.5" font-family="Helvetica,sans-Serif" font-size="10.00">com_devel.hpp</text>
</g>
<!-- Node1&#45;&gt;Node3 -->
<g id="edge4" class="edge"><title>Node1&#45;&gt;Node3</title>
<path fill="none" stroke="midnightblue" d="M280.703,-116.497C244.713,-106.877 191.29,-92.5981 152.42,-82.209"/>
<polygon fill="midnightblue" stroke="midnightblue" points="152.935,-78.724 142.371,-79.5231 151.128,-85.4866 152.935,-78.724"/>
</g>
<!-- Node4 -->
<g id="node7" class="node"><title>Node4</title>
<polygon fill="none" stroke="#bfbfbf" points="162,-58.5 162,-79.5 216,-79.5 216,-58.5 162,-58.5"/>
<text text-anchor="middle" x="189" y="-66.5" font-family="Helvetica,sans-Serif" font-size="10.00">iostream</text>
</g>
<!-- Node1&#45;&gt;Node4 -->
<g id="edge6" class="edge"><title>Node1&#45;&gt;Node4</title>
<path fill="none" stroke="midnightblue" d="M296.277,-116.497C275.632,-107.356 245.484,-94.0082 222.401,-83.7883"/>
<polygon fill="midnightblue" stroke="midnightblue" points="223.55,-80.4694 212.989,-79.6212 220.716,-86.8701 223.55,-80.4694"/>
</g>
<!-- Node5 -->
<g id="node9" class="node"><title>Node5</title>
<polygon fill="none" stroke="#bfbfbf" points="234,-58.5 234,-79.5 280,-79.5 280,-58.5 234,-58.5"/>
<text text-anchor="middle" x="257" y="-66.5" font-family="Helvetica,sans-Serif" font-size="10.00">cstring</text>
</g>
<!-- Node1&#45;&gt;Node5 -->
<g id="edge8" class="edge"><title>Node1&#45;&gt;Node5</title>
<path fill="none" stroke="midnightblue" d="M308.445,-116.362C299.387,-108.023 286.59,-96.2418 276.026,-86.5162"/>
<polygon fill="midnightblue" stroke="midnightblue" points="278.21,-83.7688 268.482,-79.5707 273.468,-88.9187 278.21,-83.7688"/>
</g>
<!-- Node6 -->
<g id="node11" class="node"><title>Node6</title>
<polygon fill="none" stroke="#bfbfbf" points="297.5,-58.5 297.5,-79.5 342.5,-79.5 342.5,-58.5 297.5,-58.5"/>
<text text-anchor="middle" x="320" y="-66.5" font-family="Helvetica,sans-Serif" font-size="10.00">cstdlib</text>
</g>
<!-- Node1&#45;&gt;Node6 -->
<g id="edge10" class="edge"><title>Node1&#45;&gt;Node6</title>
<path fill="none" stroke="midnightblue" d="M320,-116.362C320,-108.922 320,-98.7427 320,-89.7276"/>
<polygon fill="midnightblue" stroke="midnightblue" points="323.5,-89.5706 320,-79.5707 316.5,-89.5707 323.5,-89.5706"/>
</g>
<!-- Node7 -->
<g id="node13" class="node"><title>Node7</title>
<polygon fill="none" stroke="#bfbfbf" points="360,-58.5 360,-79.5 408,-79.5 408,-58.5 360,-58.5"/>
<text text-anchor="middle" x="384" y="-66.5" font-family="Helvetica,sans-Serif" font-size="10.00">stdlib.h</text>
</g>
<!-- Node1&#45;&gt;Node7 -->
<g id="edge12" class="edge"><title>Node1&#45;&gt;Node7</title>
<path fill="none" stroke="midnightblue" d="M331.739,-116.362C340.941,-108.023 353.94,-96.2418 364.672,-86.5162"/>
<polygon fill="midnightblue" stroke="midnightblue" points="367.276,-88.8793 372.336,-79.5707 362.576,-83.6924 367.276,-88.8793"/>
</g>
<!-- Node8 -->
<g id="node15" class="node"><title>Node8</title>
<polygon fill="none" stroke="#bfbfbf" points="426,-58.5 426,-79.5 478,-79.5 478,-58.5 426,-58.5"/>
<text text-anchor="middle" x="452" y="-66.5" font-family="Helvetica,sans-Serif" font-size="10.00">sstream</text>
</g>
<!-- Node1&#45;&gt;Node8 -->
<g id="edge14" class="edge"><title>Node1&#45;&gt;Node8</title>
<path fill="none" stroke="midnightblue" d="M343.904,-116.497C364.8,-107.315 395.356,-93.8889 418.655,-83.6516"/>
<polygon fill="midnightblue" stroke="midnightblue" points="420.08,-86.8483 427.828,-79.6212 417.264,-80.4397 420.08,-86.8483"/>
</g>
<!-- Node9 -->
<g id="node17" class="node"><title>Node9</title>
<polygon fill="none" stroke="#bfbfbf" points="496,-58.5 496,-79.5 596,-79.5 596,-58.5 496,-58.5"/>
<text text-anchor="middle" x="546" y="-66.5" font-family="Helvetica,sans-Serif" font-size="10.00">primitive_utilities.H</text>
</g>
<!-- Node1&#45;&gt;Node9 -->
<g id="edge16" class="edge"><title>Node1&#45;&gt;Node9</title>
<path fill="none" stroke="midnightblue" d="M360.927,-116.497C398.648,-106.816 454.76,-92.4156 495.304,-82.0105"/>
<polygon fill="midnightblue" stroke="midnightblue" points="496.18,-85.3991 504.996,-79.5231 494.44,-78.6188 496.18,-85.3991"/>
</g>
<!-- Node10 -->
<g id="node19" class="node"><title>Node10</title>
<a xlink:href="SolverModuleDriver_8H.html" target="_top" xlink:title="SolverModuleDriver.H">
<polygon fill="none" stroke="black" points="613.5,-58.5 613.5,-79.5 726.5,-79.5 726.5,-58.5 613.5,-58.5"/>
<text text-anchor="middle" x="670" y="-66.5" font-family="Helvetica,sans-Serif" font-size="10.00">SolverModuleDriver.H</text>
</a>
</g>
<!-- Node1&#45;&gt;Node10 -->
<g id="edge18" class="edge"><title>Node1&#45;&gt;Node10</title>
<path fill="none" stroke="midnightblue" d="M376.52,-117.751C431.841,-108.682 518.801,-94.383 603.263,-80.286"/>
<polygon fill="midnightblue" stroke="midnightblue" points="603.995,-83.7124 613.282,-78.6128 602.842,-76.808 603.995,-83.7124"/>
</g>
<!-- Node11 -->
<g id="node21" class="node"><title>Node11</title>
<polygon fill="none" stroke="#bfbfbf" points="579,-0.5 579,-21.5 659,-21.5 659,-0.5 579,-0.5"/>
<text text-anchor="middle" x="619" y="-8.5" font-family="Helvetica,sans-Serif" font-size="10.00">SolverAgent.H</text>
</g>
<!-- Node10&#45;&gt;Node11 -->
<g id="edge20" class="edge"><title>Node10&#45;&gt;Node11</title>
<path fill="none" stroke="midnightblue" d="M660.646,-58.3619C653.457,-50.1861 643.359,-38.7025 634.907,-29.0907"/>
<polygon fill="midnightblue" stroke="midnightblue" points="637.527,-26.7692 628.295,-21.5707 632.27,-31.3916 637.527,-26.7692"/>
</g>
<!-- Node12 -->
<g id="node23" class="node"><title>Node12</title>
<polygon fill="none" stroke="#bfbfbf" points="676.5,-0.5 676.5,-21.5 765.5,-21.5 765.5,-0.5 676.5,-0.5"/>
<text text-anchor="middle" x="721" y="-8.5" font-family="Helvetica,sans-Serif" font-size="10.00">InterfaceLayer.H</text>
</g>
<!-- Node10&#45;&gt;Node12 -->
<g id="edge22" class="edge"><title>Node10&#45;&gt;Node12</title>
<path fill="none" stroke="midnightblue" d="M679.354,-58.3619C686.543,-50.1861 696.641,-38.7025 705.093,-29.0907"/>
<polygon fill="midnightblue" stroke="midnightblue" points="707.73,-31.3916 711.705,-21.5707 702.473,-26.7692 707.73,-31.3916"/>
</g>
</g>
</svg>
