<?xml version="1.0" encoding="UTF-8" standalone="no"?>
<!DOCTYPE svg PUBLIC "-//W3C//DTD SVG 1.1//EN"
 "http://www.w3.org/Graphics/SVG/1.1/DTD/svg11.dtd">
<!-- Generated by graphviz version 2.30.1 (20150305.2338)
 -->
<!-- Title: SolverModuleDriver.C Pages: 1 -->
<svg width="778pt" height="140pt"
 viewBox="0.00 0.00 778.00 140.00" xmlns="http://www.w3.org/2000/svg" xmlns:xlink="http://www.w3.org/1999/xlink">
<g id="graph0" class="graph" transform="scale(1 1) rotate(0) translate(4 136)">
<title>SolverModuleDriver.C</title>
<!-- Node1 -->
<g id="node1" class="node"><title>Node1</title>
<polygon fill="#bfbfbf" stroke="black" points="266.5,-112.5 266.5,-131.5 379.5,-131.5 379.5,-112.5 266.5,-112.5"/>
<text text-anchor="middle" x="323" y="-119.5" font-family="Helvetica,sans-Serif" font-size="10.00">SolverModuleDriver.C</text>
</g>
<!-- Node2 -->
<g id="node2" class="node"><title>Node2</title>
<polygon fill="none" stroke="#bfbfbf" points="0,-56.5 0,-75.5 44,-75.5 44,-56.5 0,-56.5"/>
<text text-anchor="middle" x="22" y="-63.5" font-family="Helvetica,sans-Serif" font-size="10.00">com.h</text>
</g>
<!-- Node1&#45;&gt;Node2 -->
<g id="edge1" class="edge"><title>Node1&#45;&gt;Node2</title>
<path fill="none" stroke="midnightblue" d="M266.498,-113.368C214.069,-105.875 133.705,-93.3523 54.4606,-75.875"/>
<polygon fill="midnightblue" stroke="midnightblue" points="54.8237,-72.3699 44.3011,-73.6053 53.2974,-79.2015 54.8237,-72.3699"/>
</g>
<!-- Node3 -->
<g id="node3" class="node"><title>Node3</title>
<polygon fill="none" stroke="#bfbfbf" points="62.5,-56.5 62.5,-75.5 145.5,-75.5 145.5,-56.5 62.5,-56.5"/>
<text text-anchor="middle" x="104" y="-63.5" font-family="Helvetica,sans-Serif" font-size="10.00">com_devel.hpp</text>
</g>
<!-- Node1&#45;&gt;Node3 -->
<g id="edge2" class="edge"><title>Node1&#45;&gt;Node3</title>
<path fill="none" stroke="midnightblue" d="M288.299,-112.444C250.415,-103.102 189.651,-88.1194 148.338,-77.9326"/>
<polygon fill="midnightblue" stroke="midnightblue" points="149.086,-74.5123 138.539,-75.5164 147.41,-81.3088 149.086,-74.5123"/>
</g>
<!-- Node4 -->
<g id="node4" class="node"><title>Node4</title>
<polygon fill="none" stroke="#bfbfbf" points="164,-56.5 164,-75.5 218,-75.5 218,-56.5 164,-56.5"/>
<text text-anchor="middle" x="191" y="-63.5" font-family="Helvetica,sans-Serif" font-size="10.00">iostream</text>
</g>
<!-- Node1&#45;&gt;Node4 -->
<g id="edge3" class="edge"><title>Node1&#45;&gt;Node4</title>
<path fill="none" stroke="midnightblue" d="M302.084,-112.444C280.264,-103.517 245.85,-89.4387 221.108,-79.3168"/>
<polygon fill="midnightblue" stroke="midnightblue" points="222.399,-76.0634 211.818,-75.5164 219.748,-82.5422 222.399,-76.0634"/>
</g>
<!-- Node5 -->
<g id="node5" class="node"><title>Node5</title>
<polygon fill="none" stroke="#bfbfbf" points="236,-56.5 236,-75.5 282,-75.5 282,-56.5 236,-56.5"/>
<text text-anchor="middle" x="259" y="-63.5" font-family="Helvetica,sans-Serif" font-size="10.00">cstring</text>
</g>
<!-- Node1&#45;&gt;Node5 -->
<g id="edge4" class="edge"><title>Node1&#45;&gt;Node5</title>
<path fill="none" stroke="midnightblue" d="M312.717,-112.324C303.164,-104.263 288.72,-92.0765 277.216,-82.3695"/>
<polygon fill="midnightblue" stroke="midnightblue" points="279.37,-79.6076 269.47,-75.8339 274.856,-84.9577 279.37,-79.6076"/>
</g>
<!-- Node6 -->
<g id="node6" class="node"><title>Node6</title>
<polygon fill="none" stroke="#bfbfbf" points="300.5,-56.5 300.5,-75.5 345.5,-75.5 345.5,-56.5 300.5,-56.5"/>
<text text-anchor="middle" x="323" y="-63.5" font-family="Helvetica,sans-Serif" font-size="10.00">cstdlib</text>
</g>
<!-- Node1&#45;&gt;Node6 -->
<g id="edge5" class="edge"><title>Node1&#45;&gt;Node6</title>
<path fill="none" stroke="midnightblue" d="M323,-112.083C323,-105.006 323,-94.8611 323,-85.9865"/>
<polygon fill="midnightblue" stroke="midnightblue" points="326.5,-85.751 323,-75.7511 319.5,-85.7511 326.5,-85.751"/>
</g>
<!-- Node7 -->
<g id="node7" class="node"><title>Node7</title>
<polygon fill="none" stroke="#bfbfbf" points="364,-56.5 364,-75.5 412,-75.5 412,-56.5 364,-56.5"/>
<text text-anchor="middle" x="388" y="-63.5" font-family="Helvetica,sans-Serif" font-size="10.00">stdlib.h</text>
</g>
<!-- Node1&#45;&gt;Node7 -->
<g id="edge6" class="edge"><title>Node1&#45;&gt;Node7</title>
<path fill="none" stroke="midnightblue" d="M333.443,-112.324C343.146,-104.263 357.815,-92.0765 369.5,-82.3695"/>
<polygon fill="midnightblue" stroke="midnightblue" points="371.911,-84.9163 377.367,-75.8339 367.438,-79.532 371.911,-84.9163"/>
</g>
<!-- Node8 -->
<g id="node8" class="node"><title>Node8</title>
<polygon fill="none" stroke="#bfbfbf" points="430,-56.5 430,-75.5 482,-75.5 482,-56.5 430,-56.5"/>
<text text-anchor="middle" x="456" y="-63.5" font-family="Helvetica,sans-Serif" font-size="10.00">sstream</text>
</g>
<!-- Node1&#45;&gt;Node8 -->
<g id="edge7" class="edge"><title>Node1&#45;&gt;Node8</title>
<path fill="none" stroke="midnightblue" d="M344.074,-112.444C366.06,-103.517 400.734,-89.4387 425.664,-79.3168"/>
<polygon fill="midnightblue" stroke="midnightblue" points="427.076,-82.5213 435.024,-75.5164 424.442,-76.0355 427.076,-82.5213"/>
</g>
<!-- Node9 -->
<g id="node9" class="node"><title>Node9</title>
<polygon fill="none" stroke="#bfbfbf" points="500,-56.5 500,-75.5 600,-75.5 600,-56.5 500,-56.5"/>
<text text-anchor="middle" x="550" y="-63.5" font-family="Helvetica,sans-Serif" font-size="10.00">primitive_utilities.H</text>
</g>
<!-- Node1&#45;&gt;Node9 -->
<g id="edge8" class="edge"><title>Node1&#45;&gt;Node9</title>
<path fill="none" stroke="midnightblue" d="M358.969,-112.444C398.319,-103.083 461.487,-88.0561 504.314,-77.868"/>
<polygon fill="midnightblue" stroke="midnightblue" points="505.281,-81.2358 514.199,-75.5164 503.661,-74.4258 505.281,-81.2358"/>
</g>
<!-- Node10 -->
<g id="node10" class="node"><title>Node10</title>
<g id="a_node10"><a xlink:href="SolverModuleDriver_8H.html" target="_top" xlink:title="SolverModuleDriver.H">
<polygon fill="none" stroke="black" points="618.5,-56.5 618.5,-75.5 731.5,-75.5 731.5,-56.5 618.5,-56.5"/>
<text text-anchor="middle" x="675" y="-63.5" font-family="Helvetica,sans-Serif" font-size="10.00">SolverModuleDriver.H</text>
</a>
</g>
</g>
<!-- Node1&#45;&gt;Node10 -->
<g id="edge9" class="edge"><title>Node1&#45;&gt;Node10</title>
<path fill="none" stroke="midnightblue" d="M378.775,-112.444C441.468,-102.826 543.146,-87.2275 609.548,-77.0409"/>
<polygon fill="midnightblue" stroke="midnightblue" points="610.132,-80.4924 619.486,-75.5164 609.07,-73.5733 610.132,-80.4924"/>
</g>
<!-- Node11 -->
<g id="node11" class="node"><title>Node11</title>
<polygon fill="none" stroke="#bfbfbf" points="583,-0.5 583,-19.5 663,-19.5 663,-0.5 583,-0.5"/>
<text text-anchor="middle" x="623" y="-7.5" font-family="Helvetica,sans-Serif" font-size="10.00">SolverAgent.H</text>
</g>
<!-- Node10&#45;&gt;Node11 -->
<g id="edge10" class="edge"><title>Node10&#45;&gt;Node11</title>
<path fill="none" stroke="midnightblue" d="M666.413,-56.083C658.841,-48.2195 647.622,-36.5688 638.486,-27.0813"/>
<polygon fill="midnightblue" stroke="midnightblue" points="640.885,-24.5266 631.427,-19.7511 635.842,-29.3821 640.885,-24.5266"/>
</g>
<!-- Node12 -->
<g id="node12" class="node"><title>Node12</title>
<polygon fill="none" stroke="#bfbfbf" points="681.5,-0.5 681.5,-19.5 770.5,-19.5 770.5,-0.5 681.5,-0.5"/>
<text text-anchor="middle" x="726" y="-7.5" font-family="Helvetica,sans-Serif" font-size="10.00">InterfaceLayer.H</text>
</g>
<!-- Node10&#45;&gt;Node12 -->
<g id="edge11" class="edge"><title>Node10&#45;&gt;Node12</title>
<path fill="none" stroke="midnightblue" d="M683.422,-56.083C690.848,-48.2195 701.852,-36.5688 710.812,-27.0813"/>
<polygon fill="midnightblue" stroke="midnightblue" points="713.413,-29.4244 717.735,-19.7511 708.324,-24.618 713.413,-29.4244"/>
</g>
</g>
</svg>
