<?xml version="1.0" encoding="UTF-8" standalone="no"?>
<!DOCTYPE svg PUBLIC "-//W3C//DTD SVG 1.1//EN"
 "http://www.w3.org/Graphics/SVG/1.1/DTD/svg11.dtd">
<!-- Generated by graphviz version 2.26.0 (20091210.2329)
 -->
<!-- Title: ElmerFoamDriver.C Pages: 1 -->
<svg width="587pt" height="146pt"
 viewBox="0.00 0.00 587.00 146.00" xmlns="http://www.w3.org/2000/svg" xmlns:xlink="http://www.w3.org/1999/xlink">
<g id="graph1" class="graph" transform="scale(1 1) rotate(0) translate(4 142)">
<title>ElmerFoamDriver.C</title>
<!-- Node1 -->
<g id="node1" class="node"><title>Node1</title>
<polygon fill="#bfbfbf" stroke="black" points="267,-116.5 267,-137.5 371,-137.5 371,-116.5 267,-116.5"/>
<text text-anchor="middle" x="319" y="-124.5" font-family="Helvetica,sans-Serif" font-size="10.00">ElmerFoamDriver.C</text>
</g>
<!-- Node2 -->
<g id="node3" class="node"><title>Node2</title>
<a xlink:href="Driver_8H.html" target="_top" xlink:title="Example program interface. ">
<polygon fill="none" stroke="black" points="74.5,-58.5 74.5,-79.5 127.5,-79.5 127.5,-58.5 74.5,-58.5"/>
<text text-anchor="middle" x="101" y="-66.5" font-family="Helvetica,sans-Serif" font-size="10.00">Driver.H</text>
</a>
</g>
<!-- Node1&#45;&gt;Node2 -->
<g id="edge2" class="edge"><title>Node1&#45;&gt;Node2</title>
<path fill="none" stroke="midnightblue" d="M275.193,-116.443C240.189,-107.851 189.664,-95.1037 137.471,-80.3353"/>
<polygon fill="midnightblue" stroke="midnightblue" points="138.285,-76.9282 127.709,-77.5548 136.368,-83.6604 138.285,-76.9282"/>
</g>
<!-- Node6 -->
<g id="node11" class="node"><title>Node6</title>
<polygon fill="none" stroke="#bfbfbf" points="144.5,-58.5 144.5,-79.5 221.5,-79.5 221.5,-58.5 144.5,-58.5"/>
<text text-anchor="middle" x="183" y="-66.5" font-family="Helvetica,sans-Serif" font-size="10.00">Parameters.H</text>
</g>
<!-- Node1&#45;&gt;Node6 -->
<g id="edge10" class="edge"><title>Node1&#45;&gt;Node6</title>
<path fill="none" stroke="midnightblue" d="M294.371,-116.497C272.843,-107.315 241.36,-93.8889 217.355,-83.6516"/>
<polygon fill="midnightblue" stroke="midnightblue" points="218.476,-80.3247 207.905,-79.6212 215.73,-86.7636 218.476,-80.3247"/>
</g>
<!-- Node7 -->
<g id="node13" class="node"><title>Node7</title>
<polygon fill="none" stroke="#bfbfbf" points="238.5,-58.5 238.5,-79.5 327.5,-79.5 327.5,-58.5 238.5,-58.5"/>
<text text-anchor="middle" x="283" y="-66.5" font-family="Helvetica,sans-Serif" font-size="10.00">InterfaceLayer.H</text>
</g>
<!-- Node1&#45;&gt;Node7 -->
<g id="edge12" class="edge"><title>Node1&#45;&gt;Node7</title>
<path fill="none" stroke="midnightblue" d="M312.397,-116.362C307.525,-108.513 300.762,-97.6159 294.95,-88.2527"/>
<polygon fill="midnightblue" stroke="midnightblue" points="297.809,-86.2213 289.561,-79.5707 291.861,-89.9129 297.809,-86.2213"/>
</g>
<!-- Node8 -->
<g id="node15" class="node"><title>Node8</title>
<a xlink:href="Orchestrator_8H.html" target="_top" xlink:title="Orchestrator.H">
<polygon fill="none" stroke="black" points="392.5,-0.5 392.5,-21.5 473.5,-21.5 473.5,-0.5 392.5,-0.5"/>
<text text-anchor="middle" x="433" y="-8.5" font-family="Helvetica,sans-Serif" font-size="10.00">Orchestrator.H</text>
</a>
</g>
<!-- Node1&#45;&gt;Node8 -->
<g id="edge14" class="edge"><title>Node1&#45;&gt;Node8</title>
<path fill="none" stroke="midnightblue" d="M326.512,-116.098C336.515,-101.949 355.149,-76.8453 374,-58 384.923,-47.0804 398.304,-36.2468 409.559,-27.7375"/>
<polygon fill="midnightblue" stroke="midnightblue" points="411.727,-30.4873 417.677,-21.7205 407.559,-24.8638 411.727,-30.4873"/>
</g>
<!-- Node9 -->
<g id="node17" class="node"><title>Node9</title>
<a xlink:href="OpenFoamAgent_8H.html" target="_top" xlink:title="OpenFoamAgent.H">
<polygon fill="none" stroke="black" points="382.5,-58.5 382.5,-79.5 483.5,-79.5 483.5,-58.5 382.5,-58.5"/>
<text text-anchor="middle" x="433" y="-66.5" font-family="Helvetica,sans-Serif" font-size="10.00">OpenFoamAgent.H</text>
</a>
</g>
<!-- Node1&#45;&gt;Node9 -->
<g id="edge16" class="edge"><title>Node1&#45;&gt;Node9</title>
<path fill="none" stroke="midnightblue" d="M339.645,-116.497C357.37,-107.479 383.145,-94.3649 403.123,-84.2006"/>
<polygon fill="midnightblue" stroke="midnightblue" points="404.798,-87.2753 412.124,-79.6212 401.624,-81.0364 404.798,-87.2753"/>
</g>
<!-- Node10 -->
<g id="node20" class="node"><title>Node10</title>
<a xlink:href="ElmerAgent_8H.html" target="_top" xlink:title="ElmerAgent.H">
<polygon fill="none" stroke="black" points="501,-58.5 501,-79.5 579,-79.5 579,-58.5 501,-58.5"/>
<text text-anchor="middle" x="540" y="-66.5" font-family="Helvetica,sans-Serif" font-size="10.00">ElmerAgent.H</text>
</a>
</g>
<!-- Node1&#45;&gt;Node10 -->
<g id="edge20" class="edge"><title>Node1&#45;&gt;Node10</title>
<path fill="none" stroke="midnightblue" d="M359.021,-116.497C396.06,-106.776 451.229,-92.2974 490.913,-81.8826"/>
<polygon fill="midnightblue" stroke="midnightblue" points="491.864,-85.2516 500.648,-79.3277 490.087,-78.4809 491.864,-85.2516"/>
</g>
<!-- Node3 -->
<g id="node5" class="node"><title>Node3</title>
<polygon fill="none" stroke="#bfbfbf" points="-0.5,-0.5 -0.5,-21.5 54.5,-21.5 54.5,-0.5 -0.5,-0.5"/>
<text text-anchor="middle" x="27" y="-8.5" font-family="Helvetica,sans-Serif" font-size="10.00">Global.H</text>
</g>
<!-- Node2&#45;&gt;Node3 -->
<g id="edge4" class="edge"><title>Node2&#45;&gt;Node3</title>
<path fill="none" stroke="midnightblue" d="M87.4273,-58.3619C76.5788,-49.859 61.1657,-37.7785 48.6215,-27.9466"/>
<polygon fill="midnightblue" stroke="midnightblue" points="50.5164,-24.9848 40.4867,-21.5707 46.1982,-30.4942 50.5164,-24.9848"/>
</g>
<!-- Node4 -->
<g id="node7" class="node"><title>Node4</title>
<polygon fill="none" stroke="#bfbfbf" points="72,-0.5 72,-21.5 130,-21.5 130,-0.5 72,-0.5"/>
<text text-anchor="middle" x="101" y="-8.5" font-family="Helvetica,sans-Serif" font-size="10.00">Profiler.H</text>
</g>
<!-- Node2&#45;&gt;Node4 -->
<g id="edge6" class="edge"><title>Node2&#45;&gt;Node4</title>
<path fill="none" stroke="midnightblue" d="M101,-58.3619C101,-50.9219 101,-40.7427 101,-31.7276"/>
<polygon fill="midnightblue" stroke="midnightblue" points="104.5,-31.5706 101,-21.5707 97.5001,-31.5707 104.5,-31.5706"/>
</g>
<!-- Node5 -->
<g id="node9" class="node"><title>Node5</title>
<polygon fill="none" stroke="#bfbfbf" points="148,-0.5 148,-21.5 192,-21.5 192,-0.5 148,-0.5"/>
<text text-anchor="middle" x="170" y="-8.5" font-family="Helvetica,sans-Serif" font-size="10.00">com.h</text>
</g>
<!-- Node2&#45;&gt;Node5 -->
<g id="edge8" class="edge"><title>Node2&#45;&gt;Node5</title>
<path fill="none" stroke="midnightblue" d="M113.656,-58.3619C123.674,-49.9408 137.867,-38.0105 149.501,-28.2308"/>
<polygon fill="midnightblue" stroke="midnightblue" points="152.022,-30.6844 157.425,-21.5707 147.518,-25.326 152.022,-30.6844"/>
</g>
<!-- Node9&#45;&gt;Node8 -->
<g id="edge18" class="edge"><title>Node9&#45;&gt;Node8</title>
<path fill="none" stroke="midnightblue" d="M433,-58.3619C433,-50.9219 433,-40.7427 433,-31.7276"/>
<polygon fill="midnightblue" stroke="midnightblue" points="436.5,-31.5706 433,-21.5707 429.5,-31.5707 436.5,-31.5706"/>
</g>
<!-- Node10&#45;&gt;Node8 -->
<g id="edge22" class="edge"><title>Node10&#45;&gt;Node8</title>
<path fill="none" stroke="midnightblue" d="M520.375,-58.3619C503.859,-49.4094 480.026,-36.4908 461.422,-26.4064"/>
<polygon fill="midnightblue" stroke="midnightblue" points="462.96,-23.2592 452.501,-21.5707 459.625,-29.4132 462.96,-23.2592"/>
</g>
</g>
</svg>
