<?xml version="1.0" encoding="UTF-8" standalone="no"?>
<!DOCTYPE svg PUBLIC "-//W3C//DTD SVG 1.1//EN"
 "http://www.w3.org/Graphics/SVG/1.1/DTD/svg11.dtd">
<!-- Generated by graphviz version 2.30.1 (20150305.2338)
 -->
<!-- Title: SolverModuleDriver.C Pages: 1 -->
<svg width="490pt" height="84pt"
 viewBox="0.00 0.00 490.00 84.00" xmlns="http://www.w3.org/2000/svg" xmlns:xlink="http://www.w3.org/1999/xlink">
<g id="graph0" class="graph" transform="scale(1 1) rotate(0) translate(4 80)">
<title>SolverModuleDriver.C</title>
<!-- Node1 -->
<g id="node1" class="node"><title>Node1</title>
<polygon fill="#bfbfbf" stroke="black" points="202.5,-56.5 202.5,-75.5 315.5,-75.5 315.5,-56.5 202.5,-56.5"/>
<text text-anchor="middle" x="259" y="-63.5" font-family="Helvetica,sans-Serif" font-size="10.00">SolverModuleDriver.C</text>
</g>
<!-- Node2 -->
<g id="node2" class="node"><title>Node2</title>
<polygon fill="none" stroke="#bfbfbf" points="0,-0.5 0,-19.5 44,-19.5 44,-0.5 0,-0.5"/>
<text text-anchor="middle" x="22" y="-7.5" font-family="Helvetica,sans-Serif" font-size="10.00">com.h</text>
</g>
<!-- Node1&#45;&gt;Node2 -->
<g id="edge1" class="edge"><title>Node1&#45;&gt;Node2</title>
<path fill="none" stroke="midnightblue" d="M215.796,-56.4464C176.1,-48.3899 115.432,-35.582 54.1409,-20.166"/>
<polygon fill="midnightblue" stroke="midnightblue" points="54.8555,-16.7365 44.3018,-17.6698 53.134,-23.5215 54.8555,-16.7365"/>
</g>
<!-- Node3 -->
<g id="node3" class="node"><title>Node3</title>
<polygon fill="none" stroke="#bfbfbf" points="62.5,-0.5 62.5,-19.5 145.5,-19.5 145.5,-0.5 62.5,-0.5"/>
<text text-anchor="middle" x="104" y="-7.5" font-family="Helvetica,sans-Serif" font-size="10.00">com_devel.hpp</text>
</g>
<!-- Node1&#45;&gt;Node3 -->
<g id="edge2" class="edge"><title>Node1&#45;&gt;Node3</title>
<path fill="none" stroke="midnightblue" d="M234.44,-56.4435C208.477,-47.3986 167.332,-33.064 138.203,-22.9158"/>
<polygon fill="midnightblue" stroke="midnightblue" points="139.04,-19.5013 128.445,-19.5164 136.737,-26.1116 139.04,-19.5013"/>
</g>
<!-- Node4 -->
<g id="node4" class="node"><title>Node4</title>
<polygon fill="none" stroke="#bfbfbf" points="164,-0.5 164,-19.5 218,-19.5 218,-0.5 164,-0.5"/>
<text text-anchor="middle" x="191" y="-7.5" font-family="Helvetica,sans-Serif" font-size="10.00">iostream</text>
</g>
<!-- Node1&#45;&gt;Node4 -->
<g id="edge3" class="edge"><title>Node1&#45;&gt;Node4</title>
<path fill="none" stroke="midnightblue" d="M248.075,-56.324C237.825,-48.1849 222.279,-35.8395 209.999,-26.0874"/>
<polygon fill="midnightblue" stroke="midnightblue" points="212.132,-23.3119 202.124,-19.8339 207.779,-28.7937 212.132,-23.3119"/>
</g>
<!-- Node5 -->
<g id="node5" class="node"><title>Node5</title>
<polygon fill="none" stroke="#bfbfbf" points="236,-0.5 236,-19.5 282,-19.5 282,-0.5 236,-0.5"/>
<text text-anchor="middle" x="259" y="-7.5" font-family="Helvetica,sans-Serif" font-size="10.00">cstring</text>
</g>
<!-- Node1&#45;&gt;Node5 -->
<g id="edge4" class="edge"><title>Node1&#45;&gt;Node5</title>
<path fill="none" stroke="midnightblue" d="M259,-56.083C259,-49.0059 259,-38.8611 259,-29.9865"/>
<polygon fill="midnightblue" stroke="midnightblue" points="262.5,-29.751 259,-19.7511 255.5,-29.7511 262.5,-29.751"/>
</g>
<!-- Node6 -->
<g id="node6" class="node"><title>Node6</title>
<polygon fill="none" stroke="#bfbfbf" points="300.5,-0.5 300.5,-19.5 345.5,-19.5 345.5,-0.5 300.5,-0.5"/>
<text text-anchor="middle" x="323" y="-7.5" font-family="Helvetica,sans-Serif" font-size="10.00">cstdlib</text>
</g>
<!-- Node1&#45;&gt;Node6 -->
<g id="edge5" class="edge"><title>Node1&#45;&gt;Node6</title>
<path fill="none" stroke="midnightblue" d="M269.283,-56.324C278.836,-48.2631 293.28,-36.0765 304.784,-26.3695"/>
<polygon fill="midnightblue" stroke="midnightblue" points="307.144,-28.9577 312.53,-19.8339 302.63,-23.6076 307.144,-28.9577"/>
</g>
<!-- Node7 -->
<g id="node7" class="node"><title>Node7</title>
<polygon fill="none" stroke="#bfbfbf" points="364,-0.5 364,-19.5 412,-19.5 412,-0.5 364,-0.5"/>
<text text-anchor="middle" x="388" y="-7.5" font-family="Helvetica,sans-Serif" font-size="10.00">stdlib.h</text>
</g>
<!-- Node1&#45;&gt;Node7 -->
<g id="edge6" class="edge"><title>Node1&#45;&gt;Node7</title>
<path fill="none" stroke="midnightblue" d="M279.44,-56.4435C300.67,-47.5566 334.099,-33.5632 358.255,-23.4514"/>
<polygon fill="midnightblue" stroke="midnightblue" points="359.782,-26.6064 367.655,-19.5164 357.079,-20.1493 359.782,-26.6064"/>
</g>
<!-- Node8 -->
<g id="node8" class="node"><title>Node8</title>
<polygon fill="none" stroke="#bfbfbf" points="430,-0.5 430,-19.5 482,-19.5 482,-0.5 430,-0.5"/>
<text text-anchor="middle" x="456" y="-7.5" font-family="Helvetica,sans-Serif" font-size="10.00">sstream</text>
</g>
<!-- Node1&#45;&gt;Node8 -->
<g id="edge7" class="edge"><title>Node1&#45;&gt;Node8</title>
<path fill="none" stroke="midnightblue" d="M290.215,-56.4435C325.52,-46.7662 382.914,-31.0336 420.059,-20.8518"/>
<polygon fill="midnightblue" stroke="midnightblue" points="421.245,-24.156 429.964,-18.1368 419.394,-17.405 421.245,-24.156"/>
</g>
</g>
</svg>
