<?xml version="1.0" encoding="UTF-8" standalone="no"?>
<!DOCTYPE svg PUBLIC "-//W3C//DTD SVG 1.1//EN"
 "http://www.w3.org/Graphics/SVG/1.1/DTD/svg11.dtd">
<!-- Generated by graphviz version 2.26.0 (20091210.2329)
 -->
<!-- Title: main Pages: 1 -->
<svg width="342pt" height="134pt"
 viewBox="0.00 0.00 342.00 134.00" xmlns="http://www.w3.org/2000/svg" xmlns:xlink="http://www.w3.org/1999/xlink">
<g id="graph1" class="graph" transform="scale(1 1) rotate(0) translate(4 130)">
<title>main</title>
<!-- Node1 -->
<g id="node1" class="node"><title>Node1</title>
<polygon fill="#bfbfbf" stroke="black" points="0,-46.5 0,-67.5 38,-67.5 38,-46.5 0,-46.5"/>
<text text-anchor="middle" x="19" y="-54.5" font-family="Helvetica,sans-Serif" font-size="10.00">main</text>
</g>
<!-- Node2 -->
<g id="node3" class="node"><title>Node2</title>
<a xlink:href="classSolverModuleDriver_a8a5d9e45fe83de57fd9597193f3b4533.html#a8a5d9e45fe83de57fd9597193f3b4533" target="_top" xlink:title="SolverModuleDriver\l::finalize">
<polygon fill="none" stroke="black" points="84,-92 84,-126 186,-126 186,-92 84,-92"/>
<text text-anchor="start" x="92" y="-113" font-family="Helvetica,sans-Serif" font-size="10.00">SolverModuleDriver</text>
<text text-anchor="middle" x="135" y="-100" font-family="Helvetica,sans-Serif" font-size="10.00">::finalize</text>
</a>
</g>
<!-- Node1&#45;&gt;Node2 -->
<g id="edge2" class="edge"><title>Node1&#45;&gt;Node2</title>
<path fill="none" stroke="midnightblue" d="M38.0063,-66.2066C48.5621,-71.2638 61.9573,-77.5895 74,-83 77.5605,-84.5996 81.2479,-86.2317 84.9662,-87.8594"/>
<polygon fill="midnightblue" stroke="midnightblue" points="83.6508,-91.1039 94.2175,-91.8758 86.4385,-84.6829 83.6508,-91.1039"/>
</g>
<!-- Node3 -->
<g id="node5" class="node"><title>Node3</title>
<a xlink:href="classSolverModuleDriver_a36fd5ba3a13672607f2159d56a9f9bf2.html#a36fd5ba3a13672607f2159d56a9f9bf2" target="_top" xlink:title="SolverModuleDriver\l::init">
<polygon fill="none" stroke="black" points="84,-40 84,-74 186,-74 186,-40 84,-40"/>
<text text-anchor="start" x="92" y="-61" font-family="Helvetica,sans-Serif" font-size="10.00">SolverModuleDriver</text>
<text text-anchor="middle" x="135" y="-48" font-family="Helvetica,sans-Serif" font-size="10.00">::init</text>
</a>
</g>
<!-- Node1&#45;&gt;Node3 -->
<g id="edge4" class="edge"><title>Node1&#45;&gt;Node3</title>
<path fill="none" stroke="midnightblue" d="M38.155,-57C48.0056,-57 60.6229,-57 73.4719,-57"/>
<polygon fill="midnightblue" stroke="midnightblue" points="73.7778,-60.5001 83.7778,-57 73.7777,-53.5001 73.7778,-60.5001"/>
</g>
<!-- Node5 -->
<g id="node9" class="node"><title>Node5</title>
<a xlink:href="classSolverModuleDriver_a58e8be2db2660128e4e6456a9c981fb5.html#a58e8be2db2660128e4e6456a9c981fb5" target="_top" xlink:title="SolverModuleDriver::run">
<polygon fill="none" stroke="black" points="74,-0.5 74,-21.5 196,-21.5 196,-0.5 74,-0.5"/>
<text text-anchor="middle" x="135" y="-8.5" font-family="Helvetica,sans-Serif" font-size="10.00">SolverModuleDriver::run</text>
</a>
</g>
<!-- Node1&#45;&gt;Node5 -->
<g id="edge8" class="edge"><title>Node1&#45;&gt;Node5</title>
<path fill="none" stroke="midnightblue" d="M38.0848,-47.2578C48.5496,-42.0998 61.8338,-35.8482 74,-31 79.2413,-28.9114 84.7951,-26.8667 90.3329,-24.9302"/>
<polygon fill="midnightblue" stroke="midnightblue" points="91.869,-28.1049 100.213,-21.5754 89.6183,-21.4767 91.869,-28.1049"/>
</g>
<!-- Node4 -->
<g id="node7" class="node"><title>Node4</title>
<a xlink:href="classSolverModuleDriver_a20c52ceae4a26c2a523366ace5cab784.html#a20c52ceae4a26c2a523366ace5cab784" target="_top" xlink:title="SolverModuleDriver\l::usage">
<polygon fill="none" stroke="black" points="232,-40 232,-74 334,-74 334,-40 232,-40"/>
<text text-anchor="start" x="240" y="-61" font-family="Helvetica,sans-Serif" font-size="10.00">SolverModuleDriver</text>
<text text-anchor="middle" x="283" y="-48" font-family="Helvetica,sans-Serif" font-size="10.00">::usage</text>
</a>
</g>
<!-- Node3&#45;&gt;Node4 -->
<g id="edge6" class="edge"><title>Node3&#45;&gt;Node4</title>
<path fill="none" stroke="midnightblue" d="M186.348,-57C197.713,-57 209.866,-57 221.586,-57"/>
<polygon fill="midnightblue" stroke="midnightblue" points="221.743,-60.5001 231.743,-57 221.743,-53.5001 221.743,-60.5001"/>
</g>
</g>
</svg>
