<?xml version="1.0" encoding="UTF-8" standalone="no"?>
<!DOCTYPE svg PUBLIC "-//W3C//DTD SVG 1.1//EN"
 "http://www.w3.org/Graphics/SVG/1.1/DTD/svg11.dtd">
<!-- Generated by graphviz version 2.30.1 (20150305.2338)
 -->
<!-- Title: FEM.H Pages: 1 -->
<!--zoomable 308 -->
<svg id="main" version="1.1" xmlns="http://www.w3.org/2000/svg" xmlns:xlink="http://www.w3.org/1999/xlink" xml:space="preserve" onload="init(evt)">
<style type="text/css"><![CDATA[
.edge:hover path { stroke: red; }
.edge:hover polygon { stroke: red; fill: red; }
]]></style>
<script type="text/javascript"><![CDATA[
var edges = document.getElementsByTagName('g');
if (edges && edges.length) {
  for (var i=0;i<edges.length;i++) {
    if (edges[i].id.substr(0,4)=='edge') {
      edges[i].setAttribute('class','edge');
    }
  }
}
]]></script>
        <defs>
                <circle id="rim" cx="0" cy="0" r="7"/>
                <circle id="rim2" cx="0" cy="0" r="3.5"/>
                <g id="zoomPlus">
                        <use xlink:href="#rim" fill="#404040">
                                <set attributeName="fill" to="#808080" begin="zoomplus.mouseover" end="zoomplus.mouseout"/>
                        </use>
                        <path d="M-4,0h8M0,-4v8" fill="none" stroke="white" stroke-width="1.5" pointer-events="none"/>
                </g>
                <g id="zoomMin">
                        <use xlink:href="#rim" fill="#404040">
                                <set attributeName="fill" to="#808080" begin="zoomminus.mouseover" end="zoomminus.mouseout"/>
                        </use>
                        <path d="M-4,0h8" fill="none" stroke="white" stroke-width="1.5" pointer-events="none"/>
                </g>
                <g id="dirArrow">
                        <path fill="none" stroke="white" stroke-width="1.5" d="M0,-3.0v7 M-2.5,-0.5L0,-3.0L2.5,-0.5"/>
                </g>
               <g id="resetDef">
                       <use xlink:href="#rim2" fill="#404040">
                               <set attributeName="fill" to="#808080" begin="reset.mouseover" end="reset.mouseout"/>
                       </use>
               </g>
        </defs>

<script type="text/javascript">
var viewWidth = 594;
var viewHeight = 308;
var sectionId = 'dynsection-0';
</script>
<script xlink:href="svgpan.js"/>
<svg id="graph" class="graph">
<g id="viewport">
<title>FEM.H</title>
<!-- Node1 -->
<g id="node1" class="node"><title>Node1</title>
<polygon fill="#bfbfbf" stroke="black" points="478,-280.5 478,-299.5 526,-299.5 526,-280.5 478,-280.5"/>
<text text-anchor="middle" x="502" y="-287.5" font-family="Helvetica,sans-Serif" font-size="10.00">FEM.H</text>
</g>
<!-- Node2 -->
<g id="node2" class="node"><title>Node2</title>
<g id="a_node2"><a xlink:href="PMesh_8H.html" target="_top" xlink:title="Parallel Mesh Stuff. ">
<polygon fill="none" stroke="black" points="417,-224.5 417,-243.5 475,-243.5 475,-224.5 417,-224.5"/>
<text text-anchor="middle" x="446" y="-231.5" font-family="Helvetica,sans-Serif" font-size="10.00">PMesh.H</text>
</a>
</g>
</g>
<!-- Node1&#45;&gt;Node2 -->
<g id="edge1" class="edge"><title>Node1&#45;&gt;Node2</title>
<path fill="none" stroke="midnightblue" d="M493.003,-280.324C484.806,-272.42 472.494,-260.548 462.528,-250.938"/>
<polygon fill="midnightblue" stroke="midnightblue" points="464.789,-248.256 455.161,-243.834 459.93,-253.295 464.789,-248.256"/>
</g>
<!-- Node17 -->
<g id="node17" class="node"><title>Node17</title>
<polygon fill="none" stroke="#bfbfbf" points="530,-56.5 530,-75.5 586,-75.5 586,-56.5 530,-56.5"/>
<text text-anchor="middle" x="558" y="-63.5" font-family="Helvetica,sans-Serif" font-size="10.00">algorithm</text>
</g>
<!-- Node1&#45;&gt;Node17 -->
<g id="edge28" class="edge"><title>Node1&#45;&gt;Node17</title>
<path fill="none" stroke="midnightblue" d="M504.195,-280.297C512.452,-247.563 541.761,-131.375 553.291,-85.6664"/>
<polygon fill="midnightblue" stroke="midnightblue" points="556.707,-86.4361 555.759,-75.8837 549.919,-84.7239 556.707,-86.4361"/>
</g>
<!-- Node3 -->
<g id="node3" class="node"><title>Node3</title>
<g id="a_node3"><a xlink:href="Mesh_8H.html" target="_top" xlink:title="Mesh Stuff. ">
<polygon fill="none" stroke="black" points="217.5,-168.5 217.5,-187.5 268.5,-187.5 268.5,-168.5 217.5,-168.5"/>
<text text-anchor="middle" x="243" y="-175.5" font-family="Helvetica,sans-Serif" font-size="10.00">Mesh.H</text>
</a>
</g>
</g>
<!-- Node2&#45;&gt;Node3 -->
<g id="edge2" class="edge"><title>Node2&#45;&gt;Node3</title>
<path fill="none" stroke="midnightblue" d="M416.915,-225.263C380.306,-215.525 317.471,-198.81 278.192,-188.361"/>
<polygon fill="midnightblue" stroke="midnightblue" points="279.067,-184.972 268.503,-185.784 277.267,-191.737 279.067,-184.972"/>
</g>
<!-- Node22 -->
<g id="node22" class="node"><title>Node22</title>
<g id="a_node22"><a xlink:href="COMM_8H.html" target="_top" xlink:title="Communication utilities. ">
<polygon fill="none" stroke="black" points="416.5,-168.5 416.5,-187.5 475.5,-187.5 475.5,-168.5 416.5,-168.5"/>
<text text-anchor="middle" x="446" y="-175.5" font-family="Helvetica,sans-Serif" font-size="10.00">COMM.H</text>
</a>
</g>
</g>
<!-- Node2&#45;&gt;Node22 -->
<g id="edge24" class="edge"><title>Node2&#45;&gt;Node22</title>
<path fill="none" stroke="midnightblue" d="M446,-224.083C446,-217.006 446,-206.861 446,-197.986"/>
<polygon fill="midnightblue" stroke="midnightblue" points="449.5,-197.751 446,-187.751 442.5,-197.751 449.5,-197.751"/>
</g>
<!-- Node4 -->
<g id="node4" class="node"><title>Node4</title>
<polygon fill="none" stroke="#bfbfbf" points="201,-112.5 201,-131.5 231,-131.5 231,-112.5 201,-112.5"/>
<text text-anchor="middle" x="216" y="-119.5" font-family="Helvetica,sans-Serif" font-size="10.00">set</text>
</g>
<!-- Node3&#45;&gt;Node4 -->
<g id="edge3" class="edge"><title>Node3&#45;&gt;Node4</title>
<path fill="none" stroke="midnightblue" d="M238.541,-168.083C234.846,-160.691 229.477,-149.953 224.906,-140.811"/>
<polygon fill="midnightblue" stroke="midnightblue" points="227.978,-139.13 220.376,-131.751 221.717,-142.261 227.978,-139.13"/>
</g>
<!-- Node5 -->
<g id="node5" class="node"><title>Node5</title>
<polygon fill="none" stroke="#bfbfbf" points="249,-112.5 249,-131.5 289,-131.5 289,-112.5 249,-112.5"/>
<text text-anchor="middle" x="269" y="-119.5" font-family="Helvetica,sans-Serif" font-size="10.00">limits</text>
</g>
<!-- Node3&#45;&gt;Node5 -->
<g id="edge4" class="edge"><title>Node3&#45;&gt;Node5</title>
<path fill="none" stroke="midnightblue" d="M247.293,-168.083C250.852,-160.691 256.022,-149.953 260.424,-140.811"/>
<polygon fill="midnightblue" stroke="midnightblue" points="263.602,-142.279 264.787,-131.751 257.295,-139.243 263.602,-142.279"/>
</g>
<!-- Node6 -->
<g id="node6" class="node"><title>Node6</title>
<polygon fill="none" stroke="#bfbfbf" points="156,-56.5 156,-75.5 202,-75.5 202,-56.5 156,-56.5"/>
<text text-anchor="middle" x="179" y="-63.5" font-family="Helvetica,sans-Serif" font-size="10.00">cstring</text>
</g>
<!-- Node3&#45;&gt;Node6 -->
<g id="edge5" class="edge"><title>Node3&#45;&gt;Node6</title>
<path fill="none" stroke="midnightblue" d="M229.023,-168.454C217.258,-160.501 200.959,-147.553 192,-132 183.832,-117.821 180.727,-99.3406 179.581,-85.7111"/>
<polygon fill="midnightblue" stroke="midnightblue" points="183.068,-85.391 179.01,-75.6042 176.079,-85.7857 183.068,-85.391"/>
</g>
<!-- Node7 -->
<g id="node7" class="node"><title>Node7</title>
<g id="a_node7"><a xlink:href="GeoPrimitives_8H.html" target="_top" xlink:title="Geometric Primitives interface. ">
<polygon fill="none" stroke="black" points="48.5,-56.5 48.5,-75.5 137.5,-75.5 137.5,-56.5 48.5,-56.5"/>
<text text-anchor="middle" x="93" y="-63.5" font-family="Helvetica,sans-Serif" font-size="10.00">GeoPrimitives.H</text>
</a>
</g>
</g>
<!-- Node3&#45;&gt;Node7 -->
<g id="edge6" class="edge"><title>Node3&#45;&gt;Node7</title>
<path fill="none" stroke="midnightblue" d="M231.093,-168.403C218.595,-159.368 198.384,-144.729 181,-132 157.641,-114.896 130.9,-95.1157 113.086,-81.9101"/>
<polygon fill="midnightblue" stroke="midnightblue" points="114.767,-78.7989 104.65,-75.6527 110.596,-84.4212 114.767,-78.7989"/>
</g>
<!-- Node13 -->
<g id="node13" class="node"><title>Node13</title>
<g id="a_node13"><a xlink:href="primitive__utilities_8H.html" target="_top" xlink:title="Basic utility header. ">
<polygon fill="none" stroke="black" points="307,-112.5 307,-131.5 407,-131.5 407,-112.5 307,-112.5"/>
<text text-anchor="middle" x="357" y="-119.5" font-family="Helvetica,sans-Serif" font-size="10.00">primitive_utilities.H</text>
</a>
</g>
</g>
<!-- Node3&#45;&gt;Node13 -->
<g id="edge12" class="edge"><title>Node3&#45;&gt;Node13</title>
<path fill="none" stroke="midnightblue" d="M261.064,-168.444C279.575,-159.675 308.581,-145.935 329.855,-135.858"/>
<polygon fill="midnightblue" stroke="midnightblue" points="331.482,-138.96 339.021,-131.516 328.485,-132.634 331.482,-138.96"/>
</g>
<!-- Node8 -->
<g id="node8" class="node"><title>Node8</title>
<polygon fill="none" stroke="#bfbfbf" points="137,-0.5 137,-19.5 181,-19.5 181,-0.5 137,-0.5"/>
<text text-anchor="middle" x="159" y="-7.5" font-family="Helvetica,sans-Serif" font-size="10.00">cmath</text>
</g>
<!-- Node7&#45;&gt;Node8 -->
<g id="edge7" class="edge"><title>Node7&#45;&gt;Node8</title>
<path fill="none" stroke="midnightblue" d="M103.604,-56.324C113.456,-48.2631 128.351,-36.0765 140.215,-26.3695"/>
<polygon fill="midnightblue" stroke="midnightblue" points="142.68,-28.8752 148.203,-19.8339 138.247,-23.4575 142.68,-28.8752"/>
</g>
<!-- Node9 -->
<g id="node9" class="node"><title>Node9</title>
<polygon fill="none" stroke="#bfbfbf" points="-0.5,-0.5 -0.5,-19.5 48.5,-19.5 48.5,-0.5 -0.5,-0.5"/>
<text text-anchor="middle" x="24" y="-7.5" font-family="Helvetica,sans-Serif" font-size="10.00">istream</text>
</g>
<!-- Node7&#45;&gt;Node9 -->
<g id="edge8" class="edge"><title>Node7&#45;&gt;Node9</title>
<path fill="none" stroke="midnightblue" d="M81.914,-56.324C71.514,-48.1849 55.7394,-35.8395 43.2784,-26.0874"/>
<polygon fill="midnightblue" stroke="midnightblue" points="45.3199,-23.2407 35.2878,-19.8339 41.0057,-28.7533 45.3199,-23.2407"/>
</g>
<!-- Node10 -->
<g id="node10" class="node"><title>Node10</title>
<polygon fill="none" stroke="#bfbfbf" points="67,-0.5 67,-19.5 119,-19.5 119,-0.5 67,-0.5"/>
<text text-anchor="middle" x="93" y="-7.5" font-family="Helvetica,sans-Serif" font-size="10.00">ostream</text>
</g>
<!-- Node7&#45;&gt;Node10 -->
<g id="edge9" class="edge"><title>Node7&#45;&gt;Node10</title>
<path fill="none" stroke="midnightblue" d="M93,-56.083C93,-49.0059 93,-38.8611 93,-29.9865"/>
<polygon fill="midnightblue" stroke="midnightblue" points="96.5001,-29.751 93,-19.7511 89.5001,-29.7511 96.5001,-29.751"/>
</g>
<!-- Node11 -->
<g id="node11" class="node"><title>Node11</title>
<polygon fill="none" stroke="#bfbfbf" points="214,-0.5 214,-19.5 258,-19.5 258,-0.5 214,-0.5"/>
<text text-anchor="middle" x="236" y="-7.5" font-family="Helvetica,sans-Serif" font-size="10.00">vector</text>
</g>
<!-- Node7&#45;&gt;Node11 -->
<g id="edge10" class="edge"><title>Node7&#45;&gt;Node11</title>
<path fill="none" stroke="midnightblue" d="M115.659,-56.4435C139.542,-47.4249 177.351,-33.1472 204.211,-23.0043"/>
<polygon fill="midnightblue" stroke="midnightblue" points="205.798,-26.1461 213.917,-19.339 203.325,-19.5975 205.798,-26.1461"/>
</g>
<!-- Node12 -->
<g id="node12" class="node"><title>Node12</title>
<polygon fill="none" stroke="#bfbfbf" points="305.5,-0.5 305.5,-19.5 354.5,-19.5 354.5,-0.5 305.5,-0.5"/>
<text text-anchor="middle" x="330" y="-7.5" font-family="Helvetica,sans-Serif" font-size="10.00">cassert</text>
</g>
<!-- Node7&#45;&gt;Node12 -->
<g id="edge11" class="edge"><title>Node7&#45;&gt;Node12</title>
<path fill="none" stroke="midnightblue" d="M130.553,-56.4435C175.867,-46.119 251.429,-28.9023 295.385,-18.887"/>
<polygon fill="midnightblue" stroke="midnightblue" points="296.343,-22.2585 305.315,-16.6243 294.788,-15.4334 296.343,-22.2585"/>
</g>
<!-- Node14 -->
<g id="node14" class="node"><title>Node14</title>
<polygon fill="none" stroke="#bfbfbf" points="220,-56.5 220,-75.5 274,-75.5 274,-56.5 220,-56.5"/>
<text text-anchor="middle" x="247" y="-63.5" font-family="Helvetica,sans-Serif" font-size="10.00">iostream</text>
</g>
<!-- Node13&#45;&gt;Node14 -->
<g id="edge13" class="edge"><title>Node13&#45;&gt;Node14</title>
<path fill="none" stroke="midnightblue" d="M339.327,-112.324C321.606,-103.625 294.097,-90.1202 273.712,-80.113"/>
<polygon fill="midnightblue" stroke="midnightblue" points="275.149,-76.9195 264.63,-75.6545 272.064,-83.2031 275.149,-76.9195"/>
</g>
<!-- Node15 -->
<g id="node15" class="node"><title>Node15</title>
<polygon fill="none" stroke="#bfbfbf" points="292.5,-56.5 292.5,-75.5 333.5,-75.5 333.5,-56.5 292.5,-56.5"/>
<text text-anchor="middle" x="313" y="-63.5" font-family="Helvetica,sans-Serif" font-size="10.00">string</text>
</g>
<!-- Node13&#45;&gt;Node15 -->
<g id="edge14" class="edge"><title>Node13&#45;&gt;Node15</title>
<path fill="none" stroke="midnightblue" d="M349.734,-112.083C343.455,-104.377 334.212,-93.0333 326.569,-83.6531"/>
<polygon fill="midnightblue" stroke="midnightblue" points="329.161,-81.2926 320.131,-75.7511 323.734,-85.7143 329.161,-81.2926"/>
</g>
<!-- Node16 -->
<g id="node16" class="node"><title>Node16</title>
<polygon fill="none" stroke="#bfbfbf" points="352,-56.5 352,-75.5 402,-75.5 402,-56.5 352,-56.5"/>
<text text-anchor="middle" x="377" y="-63.5" font-family="Helvetica,sans-Serif" font-size="10.00">fstream</text>
</g>
<!-- Node13&#45;&gt;Node16 -->
<g id="edge15" class="edge"><title>Node13&#45;&gt;Node16</title>
<path fill="none" stroke="midnightblue" d="M360.303,-112.083C362.982,-104.849 366.849,-94.4087 370.186,-85.3968"/>
<polygon fill="midnightblue" stroke="midnightblue" points="373.568,-86.3442 373.759,-75.7511 367.004,-83.9129 373.568,-86.3442"/>
</g>
<!-- Node13&#45;&gt;Node6 -->
<g id="edge16" class="edge"><title>Node13&#45;&gt;Node6</title>
<path fill="none" stroke="midnightblue" d="M328.795,-112.444C297.08,-102.822 245.634,-87.2147 212.056,-77.0283"/>
<polygon fill="midnightblue" stroke="midnightblue" points="212.837,-73.6076 202.251,-74.0537 210.804,-80.3061 212.837,-73.6076"/>
</g>
<!-- Node13&#45;&gt;Node17 -->
<g id="edge17" class="edge"><title>Node13&#45;&gt;Node17</title>
<path fill="none" stroke="midnightblue" d="M388.849,-112.444C424.516,-102.861 482.281,-87.3424 520.206,-77.1537"/>
<polygon fill="midnightblue" stroke="midnightblue" points="521.118,-80.5328 529.867,-74.558 519.302,-73.7725 521.118,-80.5328"/>
</g>
<!-- Node18 -->
<g id="node18" class="node"><title>Node18</title>
<g id="a_node18"><a xlink:href="PrimitiveTypes_8H.html" target="_top" xlink:title="Simple utility classes. ">
<polygon fill="none" stroke="black" points="420,-56.5 420,-75.5 512,-75.5 512,-56.5 420,-56.5"/>
<text text-anchor="middle" x="466" y="-63.5" font-family="Helvetica,sans-Serif" font-size="10.00">PrimitiveTypes.H</text>
</a>
</g>
</g>
<!-- Node13&#45;&gt;Node18 -->
<g id="edge18" class="edge"><title>Node13&#45;&gt;Node18</title>
<path fill="none" stroke="midnightblue" d="M374.513,-112.324C392.072,-103.625 419.331,-90.1202 439.531,-80.113"/>
<polygon fill="midnightblue" stroke="midnightblue" points="441.124,-83.23 448.531,-75.6545 438.016,-76.9575 441.124,-83.23"/>
</g>
<!-- Node18&#45;&gt;Node11 -->
<g id="edge19" class="edge"><title>Node18&#45;&gt;Node11</title>
<path fill="none" stroke="midnightblue" d="M429.556,-56.4435C384.972,-45.9759 310.213,-28.4239 267.837,-18.4748"/>
<polygon fill="midnightblue" stroke="midnightblue" points="268.586,-15.0556 258.051,-16.1772 266.986,-21.8703 268.586,-15.0556"/>
</g>
<!-- Node19 -->
<g id="node19" class="node"><title>Node19</title>
<polygon fill="none" stroke="#bfbfbf" points="510.5,-0.5 510.5,-19.5 539.5,-19.5 539.5,-0.5 510.5,-0.5"/>
<text text-anchor="middle" x="525" y="-7.5" font-family="Helvetica,sans-Serif" font-size="10.00">list</text>
</g>
<!-- Node18&#45;&gt;Node19 -->
<g id="edge20" class="edge"><title>Node18&#45;&gt;Node19</title>
<path fill="none" stroke="midnightblue" d="M475.479,-56.324C484.201,-48.3414 497.343,-36.3128 507.898,-26.6529"/>
<polygon fill="midnightblue" stroke="midnightblue" points="510.334,-29.1674 515.348,-19.8339 505.608,-24.0036 510.334,-29.1674"/>
</g>
<!-- Node20 -->
<g id="node20" class="node"><title>Node20</title>
<polygon fill="none" stroke="#bfbfbf" points="386.5,-0.5 386.5,-19.5 421.5,-19.5 421.5,-0.5 386.5,-0.5"/>
<text text-anchor="middle" x="404" y="-7.5" font-family="Helvetica,sans-Serif" font-size="10.00">map</text>
</g>
<!-- Node18&#45;&gt;Node20 -->
<g id="edge21" class="edge"><title>Node18&#45;&gt;Node20</title>
<path fill="none" stroke="midnightblue" d="M456.039,-56.324C446.873,-48.3414 433.063,-36.3128 421.972,-26.6529"/>
<polygon fill="midnightblue" stroke="midnightblue" points="423.982,-23.7624 414.143,-19.8339 419.385,-29.041 423.982,-23.7624"/>
</g>
<!-- Node18&#45;&gt;Node12 -->
<g id="edge22" class="edge"><title>Node18&#45;&gt;Node12</title>
<path fill="none" stroke="midnightblue" d="M444.45,-56.4435C421.969,-47.5171 386.512,-33.4387 361.02,-23.3168"/>
<polygon fill="midnightblue" stroke="midnightblue" points="362.035,-19.9539 351.449,-19.5164 359.451,-26.4598 362.035,-19.9539"/>
</g>
<!-- Node21 -->
<g id="node21" class="node"><title>Node21</title>
<polygon fill="none" stroke="#bfbfbf" points="440,-0.5 440,-19.5 492,-19.5 492,-0.5 440,-0.5"/>
<text text-anchor="middle" x="466" y="-7.5" font-family="Helvetica,sans-Serif" font-size="10.00">sstream</text>
</g>
<!-- Node18&#45;&gt;Node21 -->
<g id="edge23" class="edge"><title>Node18&#45;&gt;Node21</title>
<path fill="none" stroke="midnightblue" d="M466,-56.083C466,-49.0059 466,-38.8611 466,-29.9865"/>
<polygon fill="midnightblue" stroke="midnightblue" points="469.5,-29.751 466,-19.7511 462.5,-29.7511 469.5,-29.751"/>
</g>
<!-- Node23 -->
<g id="node23" class="node"><title>Node23</title>
<polygon fill="none" stroke="#bfbfbf" points="425.5,-112.5 425.5,-131.5 466.5,-131.5 466.5,-112.5 425.5,-112.5"/>
<text text-anchor="middle" x="446" y="-119.5" font-family="Helvetica,sans-Serif" font-size="10.00">mpi.h</text>
</g>
<!-- Node22&#45;&gt;Node23 -->
<g id="edge25" class="edge"><title>Node22&#45;&gt;Node23</title>
<path fill="none" stroke="midnightblue" d="M446,-168.083C446,-161.006 446,-150.861 446,-141.986"/>
<polygon fill="midnightblue" stroke="midnightblue" points="449.5,-141.751 446,-131.751 442.5,-141.751 449.5,-141.751"/>
</g>
<!-- Node24 -->
<g id="node24" class="node"><title>Node24</title>
<polygon fill="none" stroke="#bfbfbf" points="484.5,-112.5 484.5,-131.5 529.5,-131.5 529.5,-112.5 484.5,-112.5"/>
<text text-anchor="middle" x="507" y="-119.5" font-family="Helvetica,sans-Serif" font-size="10.00">cstdlib</text>
</g>
<!-- Node22&#45;&gt;Node24 -->
<g id="edge26" class="edge"><title>Node22&#45;&gt;Node24</title>
<path fill="none" stroke="midnightblue" d="M455.801,-168.324C464.818,-160.341 478.406,-148.313 489.318,-138.653"/>
<polygon fill="midnightblue" stroke="midnightblue" points="491.853,-141.083 497.021,-131.834 487.213,-135.842 491.853,-141.083"/>
</g>
<!-- Node22&#45;&gt;Node13 -->
<g id="edge27" class="edge"><title>Node22&#45;&gt;Node13</title>
<path fill="none" stroke="midnightblue" d="M431.701,-168.324C417.817,-159.9 396.508,-146.971 380.196,-137.074"/>
<polygon fill="midnightblue" stroke="midnightblue" points="381.629,-133.85 371.264,-131.655 377.998,-139.834 381.629,-133.85"/>
</g>
</g>
</svg>
        <g id="navigator" transform="translate(0 0)" fill="#404254">
                <rect fill="#f2f5e9" fill-opacity="0.5" stroke="#606060" stroke-width=".5" x="0" y="0" width="60" height="60"/>
                <use id="zoomplus" xlink:href="#zoomPlus" x="17" y="9" onmousedown="handleZoom(evt,'in')"/>
                <use id="zoomminus" xlink:href="#zoomMin" x="42" y="9" onmousedown="handleZoom(evt,'out')"/>
                <use id="reset" xlink:href="#resetDef" x="30" y="36" onmousedown="handleReset()"/>
                <g id="arrowUp" xlink:href="#dirArrow" transform="translate(30 24)" onmousedown="handlePan(0,-1)">
                  <use xlink:href="#rim" fill="#404040">
                        <set attributeName="fill" to="#808080" begin="arrowUp.mouseover" end="arrowUp.mouseout"/>
                  </use>
                  <path fill="none" stroke="white" stroke-width="1.5" d="M0,-3.0v7 M-2.5,-0.5L0,-3.0L2.5,-0.5"/>
                </g>
                <g id="arrowRight" xlink:href="#dirArrow" transform="rotate(90) translate(36 -43)" onmousedown="handlePan(1,0)">
                  <use xlink:href="#rim" fill="#404040">
                        <set attributeName="fill" to="#808080" begin="arrowRight.mouseover" end="arrowRight.mouseout"/>
                  </use>
                  <path fill="none" stroke="white" stroke-width="1.5" d="M0,-3.0v7 M-2.5,-0.5L0,-3.0L2.5,-0.5"/>
                </g>
                <g id="arrowDown" xlink:href="#dirArrow" transform="rotate(180) translate(-30 -48)" onmousedown="handlePan(0,1)">
                  <use xlink:href="#rim" fill="#404040">
                        <set attributeName="fill" to="#808080" begin="arrowDown.mouseover" end="arrowDown.mouseout"/>
                  </use>
                  <path fill="none" stroke="white" stroke-width="1.5" d="M0,-3.0v7 M-2.5,-0.5L0,-3.0L2.5,-0.5"/>
                </g>
                <g id="arrowLeft" xlink:href="#dirArrow" transform="rotate(270) translate(-36 17)" onmousedown="handlePan(-1,0)">
                  <use xlink:href="#rim" fill="#404040">
                        <set attributeName="fill" to="#808080" begin="arrowLeft.mouseover" end="arrowLeft.mouseout"/>
                  </use>
                  <path fill="none" stroke="white" stroke-width="1.5" d="M0,-3.0v7 M-2.5,-0.5L0,-3.0L2.5,-0.5"/>
                </g>
        </g>
        <svg viewBox="0 0 15 15" width="100%" height="30px" preserveAspectRatio="xMaxYMin meet">
         <g id="arrow_out" transform="scale(0.3 0.3)">
          <a xlink:href="FEM_8H__incl_org.svg" target="_base">
           <rect id="button" ry="5" rx="5" y="6" x="6" height="38" width="38"
                fill="#f2f5e9" fill-opacity="0.5" stroke="#606060" stroke-width="1.0"/>
           <path id="arrow"
             d="M 11.500037,31.436501 C 11.940474,20.09759 22.043105,11.32322 32.158766,21.979434 L 37.068811,17.246167 C 37.068811,17.246167 37.088388,32 37.088388,32 L 22.160133,31.978069 C 22.160133,31.978069 26.997745,27.140456 26.997745,27.140456 C 18.528582,18.264221 13.291696,25.230495 11.500037,31.436501 z"
             style="fill:#404040;"/>
          </a>
         </g>
        </svg>
</svg>
