<?xml version="1.0" encoding="UTF-8" standalone="no"?>
<!DOCTYPE svg PUBLIC "-//W3C//DTD SVG 1.1//EN"
 "http://www.w3.org/Graphics/SVG/1.1/DTD/svg11.dtd">
<!-- Generated by graphviz version 2.30.1 (20150305.2338)
 -->
<!-- Title: elmerfinalize Pages: 1 -->
<svg width="316pt" height="77pt"
 viewBox="0.00 0.00 316.00 77.00" xmlns="http://www.w3.org/2000/svg" xmlns:xlink="http://www.w3.org/1999/xlink">
<g id="graph0" class="graph" transform="scale(1 1) rotate(0) translate(4 73)">
<title>elmerfinalize</title>
<!-- Node1 -->
<g id="node1" class="node"><title>Node1</title>
<polygon fill="#bfbfbf" stroke="black" points="0.5,-27.5 0.5,-46.5 71.5,-46.5 71.5,-27.5 0.5,-27.5"/>
<text text-anchor="middle" x="36" y="-34.5" font-family="Helvetica,sans-Serif" font-size="10.00">elmerfinalize</text>
</g>
<!-- Node2 -->
<g id="node2" class="node"><title>Node2</title>
<g id="a_node2"><a xlink:href="ElmerCSC_8F90_af3d36f75ef0281d05095a89df472fa2f.html#af3d36f75ef0281d05095a89df472fa2f" target="_top" xlink:title="finalize">
<polygon fill="none" stroke="black" points="108.5,-27.5 108.5,-46.5 155.5,-46.5 155.5,-27.5 108.5,-27.5"/>
<text text-anchor="middle" x="132" y="-34.5" font-family="Helvetica,sans-Serif" font-size="10.00">finalize</text>
</a>
</g>
</g>
<!-- Node1&#45;&gt;Node2 -->
<g id="edge1" class="edge"><title>Node1&#45;&gt;Node2</title>
<path fill="none" stroke="midnightblue" d="M81.967,-37C91.1345,-37 100.405,-37 108.381,-37"/>
<polygon fill="midnightblue" stroke="midnightblue" points="81.7351,-33.5001 71.7351,-37 81.735,-40.5001 81.7351,-33.5001"/>
</g>
<!-- Node3 -->
<g id="node3" class="node"><title>Node3</title>
<g id="a_node3"><a xlink:href="ElmerCSC_8F90_a08424dc689065df44a24c900bc17412b.html#a08424dc689065df44a24c900bc17412b" target="_top" xlink:title="elmercsc_load_module">
<polygon fill="none" stroke="black" points="192,-49.5 192,-68.5 308,-68.5 308,-49.5 192,-49.5"/>
<text text-anchor="middle" x="250" y="-56.5" font-family="Helvetica,sans-Serif" font-size="10.00">elmercsc_load_module</text>
</a>
</g>
</g>
<!-- Node2&#45;&gt;Node3 -->
<g id="edge2" class="edge"><title>Node2&#45;&gt;Node3</title>
<path fill="none" stroke="midnightblue" d="M165.736,-43.2086C175.941,-45.1441 187.443,-47.3255 198.568,-49.4352"/>
<polygon fill="midnightblue" stroke="midnightblue" points="166.118,-39.7188 155.641,-41.294 164.814,-46.5962 166.118,-39.7188"/>
</g>
<!-- Node4 -->
<g id="node4" class="node"><title>Node4</title>
<g id="a_node4"><a xlink:href="ElmerCSCParallel_8F90_a0068c0eef7a91d38fe8b10ac78b73971.html#a0068c0eef7a91d38fe8b10ac78b73971" target="_top" xlink:title="elmercscparallel_load\l_module">
<polygon fill="none" stroke="black" points="195,-0 195,-30 305,-30 305,-0 195,-0"/>
<text text-anchor="start" x="203" y="-18" font-family="Helvetica,sans-Serif" font-size="10.00">elmercscparallel_load</text>
<text text-anchor="middle" x="250" y="-7" font-family="Helvetica,sans-Serif" font-size="10.00">_module</text>
</a>
</g>
</g>
<!-- Node2&#45;&gt;Node4 -->
<g id="edge3" class="edge"><title>Node2&#45;&gt;Node4</title>
<path fill="none" stroke="midnightblue" d="M165.705,-30.7973C174.736,-29.0846 184.783,-27.179 194.687,-25.3008"/>
<polygon fill="midnightblue" stroke="midnightblue" points="164.814,-27.4038 155.641,-32.706 166.118,-34.2812 164.814,-27.4038"/>
</g>
</g>
</svg>
