<?xml version="1.0" encoding="UTF-8" standalone="no"?>
<!DOCTYPE svg PUBLIC "-//W3C//DTD SVG 1.1//EN"
 "http://www.w3.org/Graphics/SVG/1.1/DTD/svg11.dtd">
<!-- Generated by graphviz version 2.30.1 (20150305.2338)
 -->
<!-- Title: FsiCoupling.H Pages: 1 -->
<svg width="362pt" height="140pt"
 viewBox="0.00 0.00 362.00 140.00" xmlns="http://www.w3.org/2000/svg" xmlns:xlink="http://www.w3.org/1999/xlink">
<g id="graph0" class="graph" transform="scale(1 1) rotate(0) translate(4 136)">
<title>FsiCoupling.H</title>
<!-- Node1 -->
<g id="node1" class="node"><title>Node1</title>
<polygon fill="#bfbfbf" stroke="black" points="135.5,-112.5 135.5,-131.5 214.5,-131.5 214.5,-112.5 135.5,-112.5"/>
<text text-anchor="middle" x="175" y="-119.5" font-family="Helvetica,sans-Serif" font-size="10.00">FsiCoupling.H</text>
</g>
<!-- Node2 -->
<g id="node2" class="node"><title>Node2</title>
<polygon fill="none" stroke="#bfbfbf" points="-0.5,-0.5 -0.5,-19.5 88.5,-19.5 88.5,-0.5 -0.5,-0.5"/>
<text text-anchor="middle" x="44" y="-7.5" font-family="Helvetica,sans-Serif" font-size="10.00">InterfaceLayer.H</text>
</g>
<!-- Node1&#45;&gt;Node2 -->
<g id="edge1" class="edge"><title>Node1&#45;&gt;Node2</title>
<path fill="none" stroke="midnightblue" d="M135.401,-120.131C102.841,-117.065 58.5294,-106.974 36,-76 26.1938,-62.518 30.2451,-43.1567 35.4968,-29.0736"/>
<polygon fill="midnightblue" stroke="midnightblue" points="38.8665,-30.0914 39.5373,-19.5178 32.4191,-27.3652 38.8665,-30.0914"/>
</g>
<!-- Node3 -->
<g id="node3" class="node"><title>Node3</title>
<g id="a_node3"><a xlink:href="Orchestrator_8H.html" target="_top" xlink:title="Orchestrator.H">
<polygon fill="none" stroke="black" points="134.5,-0.5 134.5,-19.5 215.5,-19.5 215.5,-0.5 134.5,-0.5"/>
<text text-anchor="middle" x="175" y="-7.5" font-family="Helvetica,sans-Serif" font-size="10.00">Orchestrator.H</text>
</a>
</g>
</g>
<!-- Node1&#45;&gt;Node3 -->
<g id="edge2" class="edge"><title>Node1&#45;&gt;Node3</title>
<path fill="none" stroke="midnightblue" d="M175,-112.368C175,-94.617 175,-53.6664 175,-29.5974"/>
<polygon fill="midnightblue" stroke="midnightblue" points="178.5,-29.5914 175,-19.5914 171.5,-29.5915 178.5,-29.5914"/>
</g>
<!-- Node4 -->
<g id="node4" class="node"><title>Node4</title>
<g id="a_node4"><a xlink:href="OpenFoamAgent_8H.html" target="_top" xlink:title="OpenFoamAgent.H">
<polygon fill="none" stroke="black" points="45.5,-56.5 45.5,-75.5 146.5,-75.5 146.5,-56.5 45.5,-56.5"/>
<text text-anchor="middle" x="96" y="-63.5" font-family="Helvetica,sans-Serif" font-size="10.00">OpenFoamAgent.H</text>
</a>
</g>
</g>
<!-- Node1&#45;&gt;Node4 -->
<g id="edge3" class="edge"><title>Node1&#45;&gt;Node4</title>
<path fill="none" stroke="midnightblue" d="M162.307,-112.324C150.099,-103.979 131.422,-91.2122 116.997,-81.3524"/>
<polygon fill="midnightblue" stroke="midnightblue" points="118.892,-78.4082 108.661,-75.6545 114.942,-84.1871 118.892,-78.4082"/>
</g>
<!-- Node5 -->
<g id="node5" class="node"><title>Node5</title>
<g id="a_node5"><a xlink:href="ElmerAgent_8H.html" target="_top" xlink:title="ElmerAgent.H">
<polygon fill="none" stroke="black" points="203,-56.5 203,-75.5 281,-75.5 281,-56.5 203,-56.5"/>
<text text-anchor="middle" x="242" y="-63.5" font-family="Helvetica,sans-Serif" font-size="10.00">ElmerAgent.H</text>
</a>
</g>
</g>
<!-- Node1&#45;&gt;Node5 -->
<g id="edge6" class="edge"><title>Node1&#45;&gt;Node5</title>
<path fill="none" stroke="midnightblue" d="M185.765,-112.324C195.766,-104.263 210.887,-92.0765 222.93,-82.3695"/>
<polygon fill="midnightblue" stroke="midnightblue" points="225.45,-84.8343 231.039,-75.8339 221.057,-79.3841 225.45,-84.8343"/>
</g>
<!-- Node6 -->
<g id="node6" class="node"><title>Node6</title>
<polygon fill="none" stroke="#bfbfbf" points="299.5,-56.5 299.5,-75.5 354.5,-75.5 354.5,-56.5 299.5,-56.5"/>
<text text-anchor="middle" x="327" y="-63.5" font-family="Helvetica,sans-Serif" font-size="10.00">Global.H</text>
</g>
<!-- Node1&#45;&gt;Node6 -->
<g id="edge8" class="edge"><title>Node1&#45;&gt;Node6</title>
<path fill="none" stroke="midnightblue" d="M199.085,-112.444C224.545,-103.399 264.894,-89.064 293.459,-78.9158"/>
<polygon fill="midnightblue" stroke="midnightblue" points="294.777,-82.1622 303.028,-75.5164 292.433,-75.5661 294.777,-82.1622"/>
</g>
<!-- Node4&#45;&gt;Node3 -->
<g id="edge4" class="edge"><title>Node4&#45;&gt;Node3</title>
<path fill="none" stroke="midnightblue" d="M108.693,-56.324C120.901,-47.979 139.578,-35.2122 154.003,-25.3524"/>
<polygon fill="midnightblue" stroke="midnightblue" points="156.058,-28.1871 162.339,-19.6545 152.108,-22.4082 156.058,-28.1871"/>
</g>
<!-- Node4&#45;&gt;Node2 -->
<g id="edge5" class="edge"><title>Node4&#45;&gt;Node2</title>
<path fill="none" stroke="midnightblue" d="M87.4133,-56.083C79.841,-48.2195 68.6218,-36.5688 59.4856,-27.0813"/>
<polygon fill="midnightblue" stroke="midnightblue" points="61.8845,-24.5266 52.427,-19.7511 56.8423,-29.3821 61.8845,-24.5266"/>
</g>
<!-- Node5&#45;&gt;Node3 -->
<g id="edge7" class="edge"><title>Node5&#45;&gt;Node3</title>
<path fill="none" stroke="midnightblue" d="M231.235,-56.324C221.234,-48.2631 206.113,-36.0765 194.07,-26.3695"/>
<polygon fill="midnightblue" stroke="midnightblue" points="195.943,-23.3841 185.961,-19.8339 191.55,-28.8343 195.943,-23.3841"/>
</g>
</g>
</svg>
