<?xml version="1.0" encoding="UTF-8" standalone="no"?>
<!DOCTYPE svg PUBLIC "-//W3C//DTD SVG 1.1//EN"
 "http://www.w3.org/Graphics/SVG/1.1/DTD/svg11.dtd">
<!-- Generated by graphviz version 2.26.0 (20091210.2329)
 -->
<!-- Title: fsiFOAM.H Pages: 1 -->
<svg width="230pt" height="102pt"
 viewBox="0.00 0.00 230.00 102.00" xmlns="http://www.w3.org/2000/svg" xmlns:xlink="http://www.w3.org/1999/xlink">
<g id="graph1" class="graph" transform="scale(1 1) rotate(0) translate(4 98)">
<title>fsiFOAM.H</title>
<!-- Node1 -->
<g id="node1" class="node"><title>Node1</title>
<polygon fill="#bfbfbf" stroke="black" points="60,-72.5 60,-93.5 126,-93.5 126,-72.5 60,-72.5"/>
<text text-anchor="middle" x="93" y="-80.5" font-family="Helvetica,sans-Serif" font-size="10.00">fsiFOAM.H</text>
</g>
<!-- Node2 -->
<g id="node3" class="node"><title>Node2</title>
<a xlink:href="fsiFOAM_8C.html" target="_top" xlink:title="fsiFOAM.C">
<polygon fill="none" stroke="black" points="0,-7.5 0,-28.5 66,-28.5 66,-7.5 0,-7.5"/>
<text text-anchor="middle" x="33" y="-15.5" font-family="Helvetica,sans-Serif" font-size="10.00">fsiFOAM.C</text>
</a>
</g>
<!-- Node1&#45;&gt;Node2 -->
<g id="edge2" class="edge"><title>Node1&#45;&gt;Node2</title>
<path fill="none" stroke="midnightblue" d="M76.1657,-64.7628C65.3744,-53.0723 51.748,-38.3103 42.7234,-28.5337"/>
<polygon fill="midnightblue" stroke="midnightblue" points="73.7376,-67.2925 83.0922,-72.2666 78.8812,-62.5445 73.7376,-67.2925"/>
</g>
<!-- Node3 -->
<g id="node5" class="node"><title>Node3</title>
<a xlink:href="icoFsiElasticNonLinULSolidFoam_8C.html" target="_top" xlink:title="icoFsiElasticNonLinULSolid\lFoam.C">
<polygon fill="none" stroke="black" points="84,-1 84,-35 222,-35 222,-1 84,-1"/>
<text text-anchor="start" x="92" y="-22" font-family="Helvetica,sans-Serif" font-size="10.00">icoFsiElasticNonLinULSolid</text>
<text text-anchor="middle" x="153" y="-9" font-family="Helvetica,sans-Serif" font-size="10.00">Foam.C</text>
</a>
</g>
<!-- Node1&#45;&gt;Node3 -->
<g id="edge4" class="edge"><title>Node1&#45;&gt;Node3</title>
<path fill="none" stroke="midnightblue" d="M109.886,-64.7066C118.454,-55.4251 128.798,-44.2189 137.206,-35.1099"/>
<polygon fill="midnightblue" stroke="midnightblue" points="107.119,-62.5445 102.908,-72.2666 112.262,-67.2925 107.119,-62.5445"/>
</g>
</g>
</svg>
