<?xml version="1.0" encoding="UTF-8" standalone="no"?>
<!DOCTYPE svg PUBLIC "-//W3C//DTD SVG 1.1//EN"
 "http://www.w3.org/Graphics/SVG/1.1/DTD/svg11.dtd">
<!-- Generated by graphviz version 2.30.1 (20150305.2338)
 -->
<!-- Title: Function.hpp Pages: 1 -->
<svg width="409pt" height="196pt"
 viewBox="0.00 0.00 409.33 196.00" xmlns="http://www.w3.org/2000/svg" xmlns:xlink="http://www.w3.org/1999/xlink">
<g id="graph0" class="graph" transform="scale(1 1) rotate(0) translate(4 192)">
<title>Function.hpp</title>
<!-- Node1 -->
<g id="node1" class="node"><title>Node1</title>
<polygon fill="#bfbfbf" stroke="black" points="143.831,-168.5 143.831,-187.5 216.831,-187.5 216.831,-168.5 143.831,-168.5"/>
<text text-anchor="middle" x="180.331" y="-175.5" font-family="Helvetica,sans-Serif" font-size="10.00">Function.hpp</text>
</g>
<!-- Node2 -->
<g id="node2" class="node"><title>Node2</title>
<polygon fill="none" stroke="#bfbfbf" points="4.83095,-56.5 4.83095,-75.5 45.831,-75.5 45.831,-56.5 4.83095,-56.5"/>
<text text-anchor="middle" x="25.331" y="-63.5" font-family="Helvetica,sans-Serif" font-size="10.00">string</text>
</g>
<!-- Node1&#45;&gt;Node2 -->
<g id="edge1" class="edge"><title>Node1&#45;&gt;Node2</title>
<path fill="none" stroke="midnightblue" d="M143.514,-172.798C97.3208,-166.681 22.1027,-153.63 5.33095,-132 -5.47038,-118.07 3.129,-98.2803 12.1741,-84.2035"/>
<polygon fill="midnightblue" stroke="midnightblue" points="15.1203,-86.0977 17.983,-75.8969 9.38385,-82.0861 15.1203,-86.0977"/>
</g>
<!-- Node3 -->
<g id="node3" class="node"><title>Node3</title>
<polygon fill="none" stroke="#bfbfbf" points="280.331,-112.5 280.331,-131.5 324.331,-131.5 324.331,-112.5 280.331,-112.5"/>
<text text-anchor="middle" x="302.331" y="-119.5" font-family="Helvetica,sans-Serif" font-size="10.00">vector</text>
</g>
<!-- Node1&#45;&gt;Node3 -->
<g id="edge2" class="edge"><title>Node1&#45;&gt;Node3</title>
<path fill="none" stroke="midnightblue" d="M199.662,-168.444C219.651,-159.596 251.074,-145.687 273.895,-135.586"/>
<polygon fill="midnightblue" stroke="midnightblue" points="275.362,-138.764 283.09,-131.516 272.529,-132.363 275.362,-138.764"/>
</g>
<!-- Node4 -->
<g id="node4" class="node"><title>Node4</title>
<g id="a_node4"><a xlink:href="commpi_8h.html" target="_top" xlink:title="Contains declarations of MPI subroutines used in COPM. ">
<polygon fill="none" stroke="black" points="342.831,-112.5 342.831,-131.5 401.831,-131.5 401.831,-112.5 342.831,-112.5"/>
<text text-anchor="middle" x="372.331" y="-119.5" font-family="Helvetica,sans-Serif" font-size="10.00">commpi.h</text>
</a>
</g>
</g>
<!-- Node1&#45;&gt;Node4 -->
<g id="edge3" class="edge"><title>Node1&#45;&gt;Node4</title>
<path fill="none" stroke="midnightblue" d="M210.754,-168.444C243.809,-159.147 296.734,-144.262 332.942,-134.078"/>
<polygon fill="midnightblue" stroke="midnightblue" points="334.002,-137.416 342.681,-131.339 332.107,-130.677 334.002,-137.416"/>
</g>
<!-- Node6 -->
<g id="node6" class="node"><title>Node6</title>
<g id="a_node6"><a xlink:href="com__basic_8h.html" target="_top" xlink:title="This file contains some definitions of macros and constants for COM. ">
<polygon fill="none" stroke="black" points="108.331,-56.5 108.331,-75.5 180.331,-75.5 180.331,-56.5 108.331,-56.5"/>
<text text-anchor="middle" x="144.331" y="-63.5" font-family="Helvetica,sans-Serif" font-size="10.00">com_basic.h</text>
</a>
</g>
</g>
<!-- Node1&#45;&gt;Node6 -->
<g id="edge5" class="edge"><title>Node1&#45;&gt;Node6</title>
<path fill="none" stroke="midnightblue" d="M176.874,-168.444C173.29,-159.443 167.623,-144.831 163.331,-132 158.145,-116.495 152.986,-98.6547 149.356,-85.5916"/>
<polygon fill="midnightblue" stroke="midnightblue" points="152.718,-84.6172 146.699,-75.8983 145.967,-86.4678 152.718,-84.6172"/>
</g>
<!-- Node8 -->
<g id="node8" class="node"><title>Node8</title>
<g id="a_node8"><a xlink:href="com__exception_8hpp.html" target="_top" xlink:title="com_exception.hpp">
<polygon fill="none" stroke="black" points="14.831,-112.5 14.831,-131.5 115.831,-131.5 115.831,-112.5 14.831,-112.5"/>
<text text-anchor="middle" x="65.331" y="-119.5" font-family="Helvetica,sans-Serif" font-size="10.00">com_exception.hpp</text>
</a>
</g>
</g>
<!-- Node1&#45;&gt;Node8 -->
<g id="edge7" class="edge"><title>Node1&#45;&gt;Node8</title>
<path fill="none" stroke="midnightblue" d="M162.109,-168.444C143.435,-159.675 114.175,-145.935 92.7136,-135.858"/>
<polygon fill="midnightblue" stroke="midnightblue" points="94.0072,-132.599 83.4678,-131.516 91.0319,-138.935 94.0072,-132.599"/>
</g>
<!-- Node9 -->
<g id="node9" class="node"><title>Node9</title>
<g id="a_node9"><a xlink:href="com__assertion_8h.html" target="_top" xlink:title="This file contains a set of routines for error assertion. ">
<polygon fill="none" stroke="black" points="172.831,-112.5 172.831,-131.5 261.831,-131.5 261.831,-112.5 172.831,-112.5"/>
<text text-anchor="middle" x="217.331" y="-119.5" font-family="Helvetica,sans-Serif" font-size="10.00">com_assertion.h</text>
</a>
</g>
</g>
<!-- Node1&#45;&gt;Node9 -->
<g id="edge10" class="edge"><title>Node1&#45;&gt;Node9</title>
<path fill="none" stroke="midnightblue" d="M186.441,-168.083C191.613,-160.534 199.177,-149.495 205.525,-140.23"/>
<polygon fill="midnightblue" stroke="midnightblue" points="208.57,-141.979 211.335,-131.751 202.795,-138.022 208.57,-141.979"/>
</g>
<!-- Node5 -->
<g id="node5" class="node"><title>Node5</title>
<polygon fill="none" stroke="#bfbfbf" points="351.831,-56.5 351.831,-75.5 392.831,-75.5 392.831,-56.5 351.831,-56.5"/>
<text text-anchor="middle" x="372.331" y="-63.5" font-family="Helvetica,sans-Serif" font-size="10.00">mpi.h</text>
</g>
<!-- Node4&#45;&gt;Node5 -->
<g id="edge4" class="edge"><title>Node4&#45;&gt;Node5</title>
<path fill="none" stroke="midnightblue" d="M372.331,-112.083C372.331,-105.006 372.331,-94.8611 372.331,-85.9865"/>
<polygon fill="midnightblue" stroke="midnightblue" points="375.831,-85.751 372.331,-75.7511 368.831,-85.7511 375.831,-85.751"/>
</g>
<!-- Node7 -->
<g id="node7" class="node"><title>Node7</title>
<g id="a_node7"><a xlink:href="FC_8h.html" target="_top" xlink:title="FC.h">
<polygon fill="none" stroke="black" points="125.331,-0.5 125.331,-19.5 163.331,-19.5 163.331,-0.5 125.331,-0.5"/>
<text text-anchor="middle" x="144.331" y="-7.5" font-family="Helvetica,sans-Serif" font-size="10.00">FC.h</text>
</a>
</g>
</g>
<!-- Node6&#45;&gt;Node7 -->
<g id="edge6" class="edge"><title>Node6&#45;&gt;Node7</title>
<path fill="none" stroke="midnightblue" d="M144.331,-56.083C144.331,-49.0059 144.331,-38.8611 144.331,-29.9865"/>
<polygon fill="midnightblue" stroke="midnightblue" points="147.831,-29.751 144.331,-19.7511 140.831,-29.7511 147.831,-29.751"/>
</g>
<!-- Node8&#45;&gt;Node6 -->
<g id="edge8" class="edge"><title>Node8&#45;&gt;Node6</title>
<path fill="none" stroke="midnightblue" d="M78.0237,-112.324C90.2321,-103.979 108.909,-91.2122 123.334,-81.3524"/>
<polygon fill="midnightblue" stroke="midnightblue" points="125.389,-84.1871 131.67,-75.6545 121.439,-78.4082 125.389,-84.1871"/>
</g>
<!-- Node8&#45;&gt;Node2 -->
<g id="edge9" class="edge"><title>Node8&#45;&gt;Node2</title>
<path fill="none" stroke="midnightblue" d="M58.7258,-112.083C53.0757,-104.455 44.7861,-93.2645 37.8797,-83.9408"/>
<polygon fill="midnightblue" stroke="midnightblue" points="40.578,-81.7034 31.8132,-75.7511 34.9531,-85.87 40.578,-81.7034"/>
</g>
<!-- Node9&#45;&gt;Node6 -->
<g id="edge11" class="edge"><title>Node9&#45;&gt;Node6</title>
<path fill="none" stroke="midnightblue" d="M205.602,-112.324C194.494,-104.107 177.589,-91.6017 164.348,-81.8069"/>
<polygon fill="midnightblue" stroke="midnightblue" points="166.394,-78.9671 156.273,-75.8339 162.231,-84.5948 166.394,-78.9671"/>
</g>
</g>
</svg>
