<?xml version="1.0" encoding="UTF-8" standalone="no"?>
<!DOCTYPE svg PUBLIC "-//W3C//DTD SVG 1.1//EN"
 "http://www.w3.org/Graphics/SVG/1.1/DTD/svg11.dtd">
<!-- Generated by graphviz version 2.30.1 (20150305.2338)
 -->
<!-- Title: IcoFoamModule_unload_module Pages: 1 -->
<svg width="800pt" height="126pt"
 viewBox="0.00 0.00 800.00 126.00" xmlns="http://www.w3.org/2000/svg" xmlns:xlink="http://www.w3.org/1999/xlink">
<g id="graph0" class="graph" transform="scale(1 1) rotate(0) translate(4 122)">
<title>IcoFoamModule_unload_module</title>
<!-- Node1 -->
<g id="node1" class="node"><title>Node1</title>
<polygon fill="#bfbfbf" stroke="black" points="0,-44 0,-74 120,-74 120,-44 0,-44"/>
<text text-anchor="start" x="8" y="-62" font-family="Helvetica,sans-Serif" font-size="10.00">IcoFoamModule_unload</text>
<text text-anchor="middle" x="60" y="-51" font-family="Helvetica,sans-Serif" font-size="10.00">_module</text>
</g>
<!-- Node2 -->
<g id="node2" class="node"><title>Node2</title>
<g id="a_node2"><a xlink:href="classIcoFoamMod_1_1IcoFoamModule_a1103cacab6c0af000e9c5aa579a3fc5f.html#a1103cacab6c0af000e9c5aa579a3fc5f" target="_top" xlink:title="Unloads the IcoFoamModule. ">
<polygon fill="none" stroke="black" points="156.5,-44 156.5,-74 305.5,-74 305.5,-44 156.5,-44"/>
<text text-anchor="start" x="164.5" y="-62" font-family="Helvetica,sans-Serif" font-size="10.00">IcoFoamMod::IcoFoamModule</text>
<text text-anchor="middle" x="231" y="-51" font-family="Helvetica,sans-Serif" font-size="10.00">::Unload</text>
</a>
</g>
</g>
<!-- Node1&#45;&gt;Node2 -->
<g id="edge1" class="edge"><title>Node1&#45;&gt;Node2</title>
<path fill="none" stroke="midnightblue" d="M120.108,-59C128.523,-59 137.308,-59 146.085,-59"/>
<polygon fill="midnightblue" stroke="midnightblue" points="146.362,-62.5001 156.362,-59 146.362,-55.5001 146.362,-62.5001"/>
</g>
<!-- Node3 -->
<g id="node3" class="node"><title>Node3</title>
<g id="a_node3"><a xlink:href="com__c_09_09_8hpp_a51cd80e32371211a6a01185579eff4ee.html#a51cd80e32371211a6a01185579eff4ee" target="_top" xlink:title="COM_get_object">
<polygon fill="none" stroke="black" points="352,-68.5 352,-87.5 442,-87.5 442,-68.5 352,-68.5"/>
<text text-anchor="middle" x="397" y="-75.5" font-family="Helvetica,sans-Serif" font-size="10.00">COM_get_object</text>
</a>
</g>
</g>
<!-- Node2&#45;&gt;Node3 -->
<g id="edge2" class="edge"><title>Node2&#45;&gt;Node3</title>
<path fill="none" stroke="midnightblue" d="M305.844,-67.5551C317.821,-68.9427 330.033,-70.3574 341.443,-71.6793"/>
<polygon fill="midnightblue" stroke="midnightblue" points="341.33,-75.1896 351.667,-72.8638 342.136,-68.2361 341.33,-75.1896"/>
</g>
<!-- Node7 -->
<g id="node7" class="node"><title>Node7</title>
<g id="a_node7"><a xlink:href="com__c_09_09_8hpp_aee2bdea02bb47943444e452f62372e33.html#aee2bdea02bb47943444e452f62372e33" target="_top" xlink:title="COM_delete_window">
<polygon fill="none" stroke="black" points="342,-30.5 342,-49.5 452,-49.5 452,-30.5 342,-30.5"/>
<text text-anchor="middle" x="397" y="-37.5" font-family="Helvetica,sans-Serif" font-size="10.00">COM_delete_window</text>
</a>
</g>
</g>
<!-- Node2&#45;&gt;Node7 -->
<g id="edge6" class="edge"><title>Node2&#45;&gt;Node7</title>
<path fill="none" stroke="midnightblue" d="M305.844,-50.4449C314.427,-49.4505 323.13,-48.4422 331.573,-47.4641"/>
<polygon fill="midnightblue" stroke="midnightblue" points="332.185,-50.9167 341.716,-46.289 331.38,-43.9632 332.185,-50.9167"/>
</g>
<!-- Node4 -->
<g id="node4" class="node"><title>Node4</title>
<g id="a_node4"><a xlink:href="COM__base_8hpp_a49353596e53127db61529b5c9000549d.html#a49353596e53127db61529b5c9000549d" target="_top" xlink:title="COM_get_com">
<polygon fill="none" stroke="black" points="510.5,-49.5 510.5,-68.5 593.5,-68.5 593.5,-49.5 510.5,-49.5"/>
<text text-anchor="middle" x="552" y="-56.5" font-family="Helvetica,sans-Serif" font-size="10.00">COM_get_com</text>
</a>
</g>
</g>
<!-- Node3&#45;&gt;Node4 -->
<g id="edge3" class="edge"><title>Node3&#45;&gt;Node4</title>
<path fill="none" stroke="midnightblue" d="M442.254,-72.5044C460.349,-70.2573 481.39,-67.6443 500.117,-65.3189"/>
<polygon fill="midnightblue" stroke="midnightblue" points="500.756,-68.7664 510.248,-64.0607 499.893,-61.8198 500.756,-68.7664"/>
</g>
<!-- Node6 -->
<g id="node6" class="node"><title>Node6</title>
<g id="a_node6"><a xlink:href="classCOM_1_1COM__base_aec4f9e2e59d11104d344161f74803222.html#aec4f9e2e59d11104d344161f74803222" target="_top" xlink:title="Associates an object with a specific window. ">
<polygon fill="none" stroke="black" points="494.5,-88 494.5,-118 609.5,-118 609.5,-88 494.5,-88"/>
<text text-anchor="start" x="502.5" y="-106" font-family="Helvetica,sans-Serif" font-size="10.00">COM::COM_base::get</text>
<text text-anchor="middle" x="552" y="-95" font-family="Helvetica,sans-Serif" font-size="10.00">_object</text>
</a>
</g>
</g>
<!-- Node3&#45;&gt;Node6 -->
<g id="edge5" class="edge"><title>Node3&#45;&gt;Node6</title>
<path fill="none" stroke="midnightblue" d="M442.254,-85.231C455.321,-87.3662 469.925,-89.7525 484.084,-92.066"/>
<polygon fill="midnightblue" stroke="midnightblue" points="483.853,-95.5746 494.287,-93.7331 484.982,-88.6662 483.853,-95.5746"/>
</g>
<!-- Node5 -->
<g id="node5" class="node"><title>Node5</title>
<g id="a_node5"><a xlink:href="classCOM_1_1COM__base_a77bb770b9ec1aac99361c45efbccabc1.html#a77bb770b9ec1aac99361c45efbccabc1" target="_top" xlink:title="Get a pointer to the COM object. ">
<polygon fill="none" stroke="black" points="652.5,-49.5 652.5,-68.5 791.5,-68.5 791.5,-49.5 652.5,-49.5"/>
<text text-anchor="middle" x="722" y="-56.5" font-family="Helvetica,sans-Serif" font-size="10.00">COM::COM_base::get_com</text>
</a>
</g>
</g>
<!-- Node4&#45;&gt;Node5 -->
<g id="edge4" class="edge"><title>Node4&#45;&gt;Node5</title>
<path fill="none" stroke="midnightblue" d="M593.668,-59C608.224,-59 625.17,-59 641.86,-59"/>
<polygon fill="midnightblue" stroke="midnightblue" points="642.195,-62.5001 652.195,-59 642.195,-55.5001 642.195,-62.5001"/>
</g>
<!-- Node7&#45;&gt;Node4 -->
<g id="edge7" class="edge"><title>Node7&#45;&gt;Node4</title>
<path fill="none" stroke="midnightblue" d="M452.373,-46.7522C467.866,-48.6761 484.683,-50.7646 499.969,-52.6628"/>
<polygon fill="midnightblue" stroke="midnightblue" points="499.917,-56.1831 510.272,-53.9423 500.78,-49.2365 499.917,-56.1831"/>
</g>
<!-- Node8 -->
<g id="node8" class="node"><title>Node8</title>
<g id="a_node8"><a xlink:href="classCOM_1_1COM__base_ad19a2baf9f3506b153d077429ad0cf4c.html#ad19a2baf9f3506b153d077429ad0cf4c" target="_top" xlink:title="Deletes a window with given name. ">
<polygon fill="none" stroke="black" points="488,-0 488,-30 616,-30 616,-0 488,-0"/>
<text text-anchor="start" x="496" y="-18" font-family="Helvetica,sans-Serif" font-size="10.00">COM::COM_base::delete</text>
<text text-anchor="middle" x="552" y="-7" font-family="Helvetica,sans-Serif" font-size="10.00">_window</text>
</a>
</g>
</g>
<!-- Node7&#45;&gt;Node8 -->
<g id="edge8" class="edge"><title>Node7&#45;&gt;Node8</title>
<path fill="none" stroke="midnightblue" d="M452.373,-31.1155C460.645,-29.7638 469.295,-28.3504 477.889,-26.9463"/>
<polygon fill="midnightblue" stroke="midnightblue" points="478.619,-30.3735 487.924,-25.3066 477.49,-23.4651 478.619,-30.3735"/>
</g>
</g>
</svg>
