<?xml version="1.0" encoding="UTF-8" standalone="no"?>
<!DOCTYPE svg PUBLIC "-//W3C//DTD SVG 1.1//EN"
 "http://www.w3.org/Graphics/SVG/1.1/DTD/svg11.dtd">
<!-- Generated by graphviz version 2.30.1 (20150305.2338)
 -->
<!-- Title: IcoFoamModule_load_module Pages: 1 -->
<svg width="490pt" height="87pt"
 viewBox="0.00 0.00 490.00 87.00" xmlns="http://www.w3.org/2000/svg" xmlns:xlink="http://www.w3.org/1999/xlink">
<g id="graph0" class="graph" transform="scale(1 1) rotate(0) translate(4 83)">
<title>IcoFoamModule_load_module</title>
<!-- Node1 -->
<g id="node1" class="node"><title>Node1</title>
<polygon fill="#bfbfbf" stroke="black" points="0,-24 0,-54 110,-54 110,-24 0,-24"/>
<text text-anchor="start" x="8" y="-42" font-family="Helvetica,sans-Serif" font-size="10.00">IcoFoamModule_load</text>
<text text-anchor="middle" x="55" y="-31" font-family="Helvetica,sans-Serif" font-size="10.00">_module</text>
</g>
<!-- Node2 -->
<g id="node2" class="node"><title>Node2</title>
<g id="a_node2"><a xlink:href="classIcoFoamMod_1_1IcoFoamModule_a0163351bbf2a7fe37cedf5d673bd3ded.html#a0163351bbf2a7fe37cedf5d673bd3ded" target="_top" xlink:title="&quot;Loads&quot; IcoFoamModule ">
<polygon fill="none" stroke="black" points="146.5,-24 146.5,-54 295.5,-54 295.5,-24 146.5,-24"/>
<text text-anchor="start" x="154.5" y="-42" font-family="Helvetica,sans-Serif" font-size="10.00">IcoFoamMod::IcoFoamModule</text>
<text text-anchor="middle" x="221" y="-31" font-family="Helvetica,sans-Serif" font-size="10.00">::Load</text>
</a>
</g>
</g>
<!-- Node1&#45;&gt;Node2 -->
<g id="edge1" class="edge"><title>Node1&#45;&gt;Node2</title>
<path fill="none" stroke="midnightblue" d="M110.154,-39C118.56,-39 127.409,-39 136.284,-39"/>
<polygon fill="midnightblue" stroke="midnightblue" points="136.294,-42.5001 146.294,-39 136.294,-35.5001 136.294,-42.5001"/>
</g>
<!-- Node3 -->
<g id="node3" class="node"><title>Node3</title>
<g id="a_node3"><a xlink:href="classIcoFoamMod_1_1IcoFoamModule_a932e824cc1c84fbcdb35d915e23d7110.html#a932e824cc1c84fbcdb35d915e23d7110" target="_top" xlink:title="Default constructor. ">
<polygon fill="none" stroke="black" points="332.5,-49 332.5,-79 481.5,-79 481.5,-49 332.5,-49"/>
<text text-anchor="start" x="340.5" y="-67" font-family="Helvetica,sans-Serif" font-size="10.00">IcoFoamMod::IcoFoamModule</text>
<text text-anchor="middle" x="407" y="-56" font-family="Helvetica,sans-Serif" font-size="10.00">::IcoFoamModule</text>
</a>
</g>
</g>
<!-- Node2&#45;&gt;Node3 -->
<g id="edge2" class="edge"><title>Node2&#45;&gt;Node3</title>
<path fill="none" stroke="midnightblue" d="M295.515,-48.9884C304.315,-50.1841 313.351,-51.4118 322.281,-52.6252"/>
<polygon fill="midnightblue" stroke="midnightblue" points="321.921,-56.1083 332.302,-53.9866 322.864,-49.1721 321.921,-56.1083"/>
</g>
<!-- Node4 -->
<g id="node4" class="node"><title>Node4</title>
<g id="a_node4"><a xlink:href="classIcoFoamMod_1_1IcoFoamModule_a4d6a2f70e3cec437bf120cf5ad46ab81.html#a4d6a2f70e3cec437bf120cf5ad46ab81" target="_top" xlink:title="IcoFoamMod::IcoFoamModule\l::IcoFoamModuleFunction">
<polygon fill="none" stroke="black" points="332.5,-0 332.5,-30 481.5,-30 481.5,-0 332.5,-0"/>
<text text-anchor="start" x="340.5" y="-18" font-family="Helvetica,sans-Serif" font-size="10.00">IcoFoamMod::IcoFoamModule</text>
<text text-anchor="middle" x="407" y="-7" font-family="Helvetica,sans-Serif" font-size="10.00">::IcoFoamModuleFunction</text>
</a>
</g>
</g>
<!-- Node2&#45;&gt;Node4 -->
<g id="edge3" class="edge"><title>Node2&#45;&gt;Node4</title>
<path fill="none" stroke="midnightblue" d="M295.515,-29.4111C304.315,-28.2632 313.351,-27.0847 322.281,-25.9198"/>
<polygon fill="midnightblue" stroke="midnightblue" points="322.838,-29.3769 332.302,-24.6128 321.933,-22.4357 322.838,-29.3769"/>
</g>
</g>
</svg>
