<?xml version="1.0" encoding="UTF-8" standalone="no"?>
<!DOCTYPE svg PUBLIC "-//W3C//DTD SVG 1.1//EN"
 "http://www.w3.org/Graphics/SVG/1.1/DTD/svg11.dtd">
<!-- Generated by graphviz version 2.26.0 (20091210.2329)
 -->
<!-- Title: ExampleHeader.H Pages: 1 -->
<svg width="282pt" height="204pt"
 viewBox="0.00 0.00 282.00 204.00" xmlns="http://www.w3.org/2000/svg" xmlns:xlink="http://www.w3.org/1999/xlink">
<g id="graph1" class="graph" transform="scale(1 1) rotate(0) translate(4 200)">
<title>ExampleHeader.H</title>
<!-- Node1 -->
<g id="node1" class="node"><title>Node1</title>
<polygon fill="#bfbfbf" stroke="black" points="96.5,-174.5 96.5,-195.5 193.5,-195.5 193.5,-174.5 96.5,-174.5"/>
<text text-anchor="middle" x="145" y="-182.5" font-family="Helvetica,sans-Serif" font-size="10.00">ExampleHeader.H</text>
</g>
<!-- Node2 -->
<g id="node3" class="node"><title>Node2</title>
<a xlink:href="ElmerFoamFSITest_8H.html" target="_top" xlink:title="Testing object for ElmerFoamFSI. ">
<polygon fill="none" stroke="black" points="88.5,-116.5 88.5,-137.5 201.5,-137.5 201.5,-116.5 88.5,-116.5"/>
<text text-anchor="middle" x="145" y="-124.5" font-family="Helvetica,sans-Serif" font-size="10.00">ElmerFoamFSITest.H</text>
</a>
</g>
<!-- Node1&#45;&gt;Node2 -->
<g id="edge2" class="edge"><title>Node1&#45;&gt;Node2</title>
<path fill="none" stroke="midnightblue" d="M145,-164.191C145,-155.168 145,-144.994 145,-137.571"/>
<polygon fill="midnightblue" stroke="midnightblue" points="141.5,-164.362 145,-174.362 148.5,-164.362 141.5,-164.362"/>
</g>
<!-- Node3 -->
<g id="node5" class="node"><title>Node3</title>
<a xlink:href="TestElmerFoamFSI_8H.html" target="_top" xlink:title="Testing utilities for ElmerFoamFSI. ">
<polygon fill="none" stroke="black" points="88.5,-58.5 88.5,-79.5 201.5,-79.5 201.5,-58.5 88.5,-58.5"/>
<text text-anchor="middle" x="145" y="-66.5" font-family="Helvetica,sans-Serif" font-size="10.00">TestElmerFoamFSI.H</text>
</a>
</g>
<!-- Node2&#45;&gt;Node3 -->
<g id="edge4" class="edge"><title>Node2&#45;&gt;Node3</title>
<path fill="none" stroke="midnightblue" d="M145,-106.191C145,-97.1684 145,-86.9941 145,-79.5707"/>
<polygon fill="midnightblue" stroke="midnightblue" points="141.5,-106.362 145,-116.362 148.5,-106.362 141.5,-106.362"/>
</g>
<!-- Node4 -->
<g id="node7" class="node"><title>Node4</title>
<a xlink:href="ParallelTestElmerFoamFSI_8C.html" target="_top" xlink:title="Implements a command&#45;line interface for the ElmerFoamFSI tests. ">
<polygon fill="none" stroke="black" points="-0.5,-0.5 -0.5,-21.5 144.5,-21.5 144.5,-0.5 -0.5,-0.5"/>
<text text-anchor="middle" x="72" y="-8.5" font-family="Helvetica,sans-Serif" font-size="10.00">ParallelTestElmerFoamFSI.C</text>
</a>
</g>
<!-- Node3&#45;&gt;Node4 -->
<g id="edge6" class="edge"><title>Node3&#45;&gt;Node4</title>
<path fill="none" stroke="midnightblue" d="M123.572,-51.9753C111.183,-42.1315 95.9824,-30.0545 85.3044,-21.5707"/>
<polygon fill="midnightblue" stroke="midnightblue" points="121.604,-54.8815 131.611,-58.3619 125.958,-49.4008 121.604,-54.8815"/>
</g>
<!-- Node5 -->
<g id="node9" class="node"><title>Node5</title>
<a xlink:href="TestElmerFoamFSI_8C.html" target="_top" xlink:title="Implements a command&#45;line interface for the ElmerFoamFSI tests. ">
<polygon fill="none" stroke="black" points="161.5,-0.5 161.5,-21.5 274.5,-21.5 274.5,-0.5 161.5,-0.5"/>
<text text-anchor="middle" x="218" y="-8.5" font-family="Helvetica,sans-Serif" font-size="10.00">TestElmerFoamFSI.C</text>
</a>
</g>
<!-- Node3&#45;&gt;Node5 -->
<g id="edge8" class="edge"><title>Node3&#45;&gt;Node5</title>
<path fill="none" stroke="midnightblue" d="M166.428,-51.9753C178.817,-42.1315 194.018,-30.0545 204.696,-21.5707"/>
<polygon fill="midnightblue" stroke="midnightblue" points="164.042,-49.4008 158.389,-58.3619 168.396,-54.8815 164.042,-49.4008"/>
</g>
</g>
</svg>
