<?xml version="1.0" encoding="UTF-8" standalone="no"?>
<!DOCTYPE svg PUBLIC "-//W3C//DTD SVG 1.1//EN"
 "http://www.w3.org/Graphics/SVG/1.1/DTD/svg11.dtd">
<!-- Generated by graphviz version 2.30.1 (20150305.2338)
 -->
<!-- Title: Graphical Class Hierarchy Pages: 1 -->
<svg width="354pt" height="71pt"
 viewBox="0.00 0.00 354.00 71.00" xmlns="http://www.w3.org/2000/svg" xmlns:xlink="http://www.w3.org/1999/xlink">
<g id="graph0" class="graph" transform="scale(1 1) rotate(0) translate(4 67)">
<title>Graphical Class Hierarchy</title>
<!-- Node1 -->
<g id="node1" class="node"><title>Node1</title>
<g id="a_node1"><a xlink:href="classDataItem.html" target="_top" xlink:title="A DataItem object is a data member of a window. ">
<polygon fill="none" stroke="black" points="0.5,-19.5 0.5,-38.5 57.5,-38.5 57.5,-19.5 0.5,-19.5"/>
<text text-anchor="middle" x="29" y="-26.5" font-family="Helvetica,sans-Serif" font-size="10.00">DataItem</text>
</a>
</g>
</g>
<!-- Node2 -->
<g id="node2" class="node"><title>Node2</title>
<g id="a_node2"><a xlink:href="classConnectivity.html" target="_top" xlink:title="Encapsulates an element&#45;connectivity of a mesh. ">
<polygon fill="none" stroke="black" points="116.5,-38.5 116.5,-57.5 187.5,-57.5 187.5,-38.5 116.5,-38.5"/>
<text text-anchor="middle" x="152" y="-45.5" font-family="Helvetica,sans-Serif" font-size="10.00">Connectivity</text>
</a>
</g>
</g>
<!-- Node1&#45;&gt;Node2 -->
<g id="edge1" class="edge"><title>Node1&#45;&gt;Node2</title>
<path fill="none" stroke="darkgreen" d="M68.0587,-34.9762C83.5506,-37.4088 101.33,-40.2005 116.444,-42.5738"/>
<polygon fill="darkgreen" stroke="darkgreen" points="68.1818,-31.4527 57.7598,-33.359 67.0958,-38.3679 68.1818,-31.4527"/>
</g>
<!-- Node4 -->
<g id="node4" class="node"><title>Node4</title>
<g id="a_node4"><a xlink:href="classPane_1_1DataItem__friend.html" target="_top" xlink:title="Pane::DataItem_friend">
<polygon fill="none" stroke="black" points="94.5,-0.5 94.5,-19.5 209.5,-19.5 209.5,-0.5 94.5,-0.5"/>
<text text-anchor="middle" x="152" y="-7.5" font-family="Helvetica,sans-Serif" font-size="10.00">Pane::DataItem_friend</text>
</a>
</g>
</g>
<!-- Node1&#45;&gt;Node4 -->
<g id="edge3" class="edge"><title>Node1&#45;&gt;Node4</title>
<path fill="none" stroke="midnightblue" d="M67.6517,-23.0878C76.0881,-21.763 85.2194,-20.3292 94.2394,-18.9128"/>
<polygon fill="midnightblue" stroke="midnightblue" points="67.0958,-19.6321 57.7598,-24.641 68.1818,-26.5473 67.0958,-19.6321"/>
</g>
<!-- Node3 -->
<g id="node3" class="node"><title>Node3</title>
<g id="a_node3"><a xlink:href="classPane_1_1Connectivity__friend.html" target="_top" xlink:title="Pane::Connectivity\l_friend">
<polygon fill="none" stroke="black" points="246,-33 246,-63 346,-63 346,-33 246,-33"/>
<text text-anchor="start" x="254" y="-51" font-family="Helvetica,sans-Serif" font-size="10.00">Pane::Connectivity</text>
<text text-anchor="middle" x="296" y="-40" font-family="Helvetica,sans-Serif" font-size="10.00">_friend</text>
</a>
</g>
</g>
<!-- Node2&#45;&gt;Node3 -->
<g id="edge2" class="edge"><title>Node2&#45;&gt;Node3</title>
<path fill="none" stroke="midnightblue" d="M197.956,-48C213.206,-48 230.318,-48 245.876,-48"/>
<polygon fill="midnightblue" stroke="midnightblue" points="197.737,-44.5001 187.737,-48 197.737,-51.5001 197.737,-44.5001"/>
</g>
</g>
</svg>
