<?xml version="1.0" encoding="UTF-8" standalone="no"?>
<!DOCTYPE svg PUBLIC "-//W3C//DTD SVG 1.1//EN"
 "http://www.w3.org/Graphics/SVG/1.1/DTD/svg11.dtd">
<!-- Generated by graphviz version 2.30.1 (20150305.2338)
 -->
<!-- Title: Graphical Class Hierarchy Pages: 1 -->
<svg width="220pt" height="294pt"
 viewBox="0.00 0.00 220.00 294.00" xmlns="http://www.w3.org/2000/svg" xmlns:xlink="http://www.w3.org/1999/xlink">
<g id="graph0" class="graph" transform="scale(1 1) rotate(0) translate(4 290)">
<title>Graphical Class Hierarchy</title>
<!-- Node1 -->
<g id="node1" class="node"><title>Node1</title>
<g id="a_node1"><a xlink:href="classimpact_1_1orchestrator_1_1agentbase.html" target="_top" xlink:title="agentbase">
<polygon fill="none" stroke="black" points="6,-57.5 6,-76.5 68,-76.5 68,-57.5 6,-57.5"/>
<text text-anchor="middle" x="37" y="-64.5" font-family="Helvetica,sans-Serif" font-size="10.00">agentbase</text>
</a>
</g>
</g>
<!-- Node2 -->
<g id="node2" class="node"><title>Node2</title>
<g id="a_node2"><a xlink:href="classelmeragent.html" target="_top" xlink:title="elmeragent">
<polygon fill="none" stroke="black" points="128.5,-38.5 128.5,-57.5 193.5,-57.5 193.5,-38.5 128.5,-38.5"/>
<text text-anchor="middle" x="161" y="-45.5" font-family="Helvetica,sans-Serif" font-size="10.00">elmeragent</text>
</a>
</g>
</g>
<!-- Node1&#45;&gt;Node2 -->
<g id="edge1" class="edge"><title>Node1&#45;&gt;Node2</title>
<path fill="none" stroke="midnightblue" d="M78.4791,-60.6959C94.7565,-58.1609 113.24,-55.2822 128.488,-52.9076"/>
<polygon fill="midnightblue" stroke="midnightblue" points="77.4996,-57.3061 68.1573,-62.3034 78.5768,-64.2228 77.4996,-57.3061"/>
</g>
<!-- Node3 -->
<g id="node3" class="node"><title>Node3</title>
<g id="a_node3"><a xlink:href="classelmeragentpar.html" target="_top" xlink:title="elmeragentpar">
<polygon fill="none" stroke="black" points="122,-0.5 122,-19.5 200,-19.5 200,-0.5 122,-0.5"/>
<text text-anchor="middle" x="161" y="-7.5" font-family="Helvetica,sans-Serif" font-size="10.00">elmeragentpar</text>
</a>
</g>
</g>
<!-- Node1&#45;&gt;Node3 -->
<g id="edge2" class="edge"><title>Node1&#45;&gt;Node3</title>
<path fill="none" stroke="midnightblue" d="M63.6549,-52.4783C77.2324,-45.0449 94.3021,-36.093 110,-29 117.362,-25.6734 125.495,-22.4135 133.025,-19.5591"/>
<polygon fill="midnightblue" stroke="midnightblue" points="61.9263,-49.4347 54.8728,-57.3403 65.3168,-55.5588 61.9263,-49.4347"/>
</g>
<!-- Node4 -->
<g id="node4" class="node"><title>Node4</title>
<g id="a_node4"><a xlink:href="classopenfoamagent.html" target="_top" xlink:title="openfoamagent">
<polygon fill="none" stroke="black" points="119.5,-114.5 119.5,-133.5 202.5,-133.5 202.5,-114.5 119.5,-114.5"/>
<text text-anchor="middle" x="161" y="-121.5" font-family="Helvetica,sans-Serif" font-size="10.00">openfoamagent</text>
</a>
</g>
</g>
<!-- Node1&#45;&gt;Node4 -->
<g id="edge3" class="edge"><title>Node1&#45;&gt;Node4</title>
<path fill="none" stroke="midnightblue" d="M63.6549,-81.5217C77.2324,-88.9551 94.3021,-97.907 110,-105 117.362,-108.327 125.495,-111.587 133.025,-114.441"/>
<polygon fill="midnightblue" stroke="midnightblue" points="65.3168,-78.4412 54.8728,-76.6597 61.9263,-84.5653 65.3168,-78.4412"/>
</g>
<!-- Node5 -->
<g id="node5" class="node"><title>Node5</title>
<g id="a_node5"><a xlink:href="classopenfoamagentpar.html" target="_top" xlink:title="openfoamagentpar">
<polygon fill="none" stroke="black" points="112.5,-76.5 112.5,-95.5 209.5,-95.5 209.5,-76.5 112.5,-76.5"/>
<text text-anchor="middle" x="161" y="-83.5" font-family="Helvetica,sans-Serif" font-size="10.00">openfoamagentpar</text>
</a>
</g>
</g>
<!-- Node1&#45;&gt;Node5 -->
<g id="edge4" class="edge"><title>Node1&#45;&gt;Node5</title>
<path fill="none" stroke="midnightblue" d="M78.2074,-73.2618C89.0639,-74.9526 100.919,-76.7988 112.149,-78.5478"/>
<polygon fill="midnightblue" stroke="midnightblue" points="78.5768,-69.7772 68.1573,-71.6966 77.4996,-76.6939 78.5768,-69.7772"/>
</g>
<!-- Node6 -->
<g id="node6" class="node"><title>Node6</title>
<polygon fill="none" stroke="#bfbfbf" points="0,-209.5 0,-228.5 74,-228.5 74,-209.5 0,-209.5"/>
<text text-anchor="middle" x="37" y="-216.5" font-family="Helvetica,sans-Serif" font-size="10.00">COM_Object</text>
</g>
<!-- Node7 -->
<g id="node7" class="node"><title>Node7</title>
<g id="a_node7"><a xlink:href="classCOM_1_1SolverModuleDriver.html" target="_top" xlink:title="SolverModuleDriver">
<polygon fill="none" stroke="black" points="110,-228.5 110,-247.5 212,-247.5 212,-228.5 110,-228.5"/>
<text text-anchor="middle" x="161" y="-235.5" font-family="Helvetica,sans-Serif" font-size="10.00">SolverModuleDriver</text>
</a>
</g>
</g>
<!-- Node6&#45;&gt;Node7 -->
<g id="edge5" class="edge"><title>Node6&#45;&gt;Node7</title>
<path fill="none" stroke="midnightblue" d="M84.1819,-226.192C92.5009,-227.488 101.211,-228.844 109.642,-230.157"/>
<polygon fill="midnightblue" stroke="midnightblue" points="84.6932,-222.73 74.2737,-224.649 83.616,-229.646 84.6932,-222.73"/>
</g>
<!-- Node8 -->
<g id="node8" class="node"><title>Node8</title>
<g id="a_node8"><a xlink:href="classfsifoam__module.html" target="_top" xlink:title="fsifoam_module">
<polygon fill="none" stroke="black" points="118,-190.5 118,-209.5 204,-209.5 204,-190.5 118,-190.5"/>
<text text-anchor="middle" x="161" y="-197.5" font-family="Helvetica,sans-Serif" font-size="10.00">fsifoam_module</text>
</a>
</g>
</g>
<!-- Node6&#45;&gt;Node8 -->
<g id="edge6" class="edge"><title>Node6&#45;&gt;Node8</title>
<path fill="none" stroke="midnightblue" d="M84.4736,-211.762C95.3735,-210.065 106.93,-208.265 117.639,-206.597"/>
<polygon fill="midnightblue" stroke="midnightblue" points="83.616,-208.354 74.2737,-213.351 84.6932,-215.27 83.616,-208.354"/>
</g>
<!-- Node9 -->
<g id="node9" class="node"><title>Node9</title>
<g id="a_node9"><a xlink:href="classIcoFoamMod_1_1IcoFoamModule.html" target="_top" xlink:title="IcoFoamModule">
<polygon fill="none" stroke="black" points="118,-266.5 118,-285.5 204,-285.5 204,-266.5 118,-266.5"/>
<text text-anchor="middle" x="161" y="-273.5" font-family="Helvetica,sans-Serif" font-size="10.00">IcoFoamModule</text>
</a>
</g>
</g>
<!-- Node6&#45;&gt;Node9 -->
<g id="edge7" class="edge"><title>Node6&#45;&gt;Node9</title>
<path fill="none" stroke="midnightblue" d="M63.6549,-233.522C77.2324,-240.955 94.3021,-249.907 110,-257 117.362,-260.327 125.495,-263.587 133.025,-266.441"/>
<polygon fill="midnightblue" stroke="midnightblue" points="65.3168,-230.441 54.8728,-228.66 61.9263,-236.565 65.3168,-230.441"/>
</g>
<!-- Node10 -->
<g id="node10" class="node"><title>Node10</title>
<g id="a_node10"><a xlink:href="classSolverModuleDriver.html" target="_top" xlink:title="SolverModuleDriver">
<polygon fill="none" stroke="black" points="110,-152.5 110,-171.5 212,-171.5 212,-152.5 110,-152.5"/>
<text text-anchor="middle" x="161" y="-159.5" font-family="Helvetica,sans-Serif" font-size="10.00">SolverModuleDriver</text>
</a>
</g>
</g>
<!-- Node6&#45;&gt;Node10 -->
<g id="edge8" class="edge"><title>Node6&#45;&gt;Node10</title>
<path fill="none" stroke="midnightblue" d="M63.6549,-204.478C77.2324,-197.045 94.3021,-188.093 110,-181 117.362,-177.673 125.495,-174.413 133.025,-171.559"/>
<polygon fill="midnightblue" stroke="midnightblue" points="61.9263,-201.435 54.8728,-209.34 65.3168,-207.559 61.9263,-201.435"/>
</g>
<!-- Node11 -->
<g id="node11" class="node"><title>Node11</title>
<polygon fill="none" stroke="#bfbfbf" points="2,-114.5 2,-133.5 72,-133.5 72,-114.5 2,-114.5"/>
<text text-anchor="middle" x="37" y="-121.5" font-family="Helvetica,sans-Serif" font-size="10.00">SolverAgent</text>
</g>
<!-- Node11&#45;&gt;Node7 -->
<g id="edge9" class="edge"><title>Node11&#45;&gt;Node7</title>
<path fill="none" stroke="midnightblue" d="M47.9216,-142.771C59.9979,-163.975 82.2564,-198.227 110,-219 115.055,-222.785 120.952,-225.899 126.887,-228.433"/>
<polygon fill="midnightblue" stroke="midnightblue" points="50.8607,-140.852 42.9688,-133.783 44.73,-144.231 50.8607,-140.852"/>
</g>
<!-- Node11&#45;&gt;Node2 -->
<g id="edge10" class="edge"><title>Node11&#45;&gt;Node2</title>
<path fill="none" stroke="midnightblue" d="M55.7941,-107.349C69.7236,-94.9752 90.0227,-78.3427 110,-67 116.299,-63.4237 123.401,-60.2628 130.232,-57.5963"/>
<polygon fill="midnightblue" stroke="midnightblue" points="53.0577,-105.106 48.004,-114.418 57.7616,-110.29 53.0577,-105.106"/>
</g>
<!-- Node11&#45;&gt;Node3 -->
<g id="edge11" class="edge"><title>Node11&#45;&gt;Node3</title>
<path fill="none" stroke="midnightblue" d="M55.3693,-107.094C61.5408,-100.726 68.3524,-93.2642 74,-86 92.3908,-62.3451 86.8021,-47.964 110,-29 114.673,-25.1797 120.197,-22.0745 125.837,-19.5676"/>
<polygon fill="midnightblue" stroke="midnightblue" points="52.5983,-104.917 48.0304,-114.476 57.5627,-109.852 52.5983,-104.917"/>
</g>
<!-- Node11&#45;&gt;Node8 -->
<g id="edge12" class="edge"><title>Node11&#45;&gt;Node8</title>
<path fill="none" stroke="midnightblue" d="M55.7941,-140.651C69.7236,-153.025 90.0227,-169.657 110,-181 116.299,-184.576 123.401,-187.737 130.232,-190.404"/>
<polygon fill="midnightblue" stroke="midnightblue" points="57.7616,-137.71 48.004,-133.582 53.0577,-142.894 57.7616,-137.71"/>
</g>
<!-- Node11&#45;&gt;Node4 -->
<g id="edge13" class="edge"><title>Node11&#45;&gt;Node4</title>
<path fill="none" stroke="midnightblue" d="M82.6144,-124C94.6716,-124 107.651,-124 119.471,-124"/>
<polygon fill="midnightblue" stroke="midnightblue" points="82.3085,-120.5 72.3085,-124 82.3084,-127.5 82.3085,-120.5"/>
</g>
<!-- Node11&#45;&gt;Node5 -->
<g id="edge14" class="edge"><title>Node11&#45;&gt;Node5</title>
<path fill="none" stroke="midnightblue" d="M78.7108,-111.32C95.195,-106.185 113.91,-100.356 129.224,-95.5859"/>
<polygon fill="midnightblue" stroke="midnightblue" points="77.2925,-108.095 68.7858,-114.411 79.3742,-114.779 77.2925,-108.095"/>
</g>
<!-- Node11&#45;&gt;Node10 -->
<g id="edge15" class="edge"><title>Node11&#45;&gt;Node10</title>
<path fill="none" stroke="midnightblue" d="M78.7108,-136.68C95.195,-141.815 113.91,-147.644 129.224,-152.414"/>
<polygon fill="midnightblue" stroke="midnightblue" points="79.3742,-133.221 68.7858,-133.589 77.2925,-139.905 79.3742,-133.221"/>
</g>
</g>
</svg>
