<?xml version="1.0" encoding="UTF-8" standalone="no"?>
<!DOCTYPE svg PUBLIC "-//W3C//DTD SVG 1.1//EN"
 "http://www.w3.org/Graphics/SVG/1.1/DTD/svg11.dtd">
<!-- Generated by graphviz version 2.30.1 (20150305.2338)
 -->
<!-- Title: Graphical Class Hierarchy Pages: 1 -->
<svg width="346pt" height="370pt"
 viewBox="0.00 0.00 346.00 370.00" xmlns="http://www.w3.org/2000/svg" xmlns:xlink="http://www.w3.org/1999/xlink">
<g id="graph0" class="graph" transform="scale(1 1) rotate(0) translate(4 366)">
<title>Graphical Class Hierarchy</title>
<!-- Node1 -->
<g id="node1" class="node"><title>Node1</title>
<g id="a_node1"><a xlink:href="classimpact_1_1orchestrator_1_1agentbase.html" target="_top" xlink:title="agentbase">
<polygon fill="none" stroke="black" points="6,-95.5 6,-114.5 68,-114.5 68,-95.5 6,-95.5"/>
<text text-anchor="middle" x="37" y="-102.5" font-family="Helvetica,sans-Serif" font-size="10.00">agentbase</text>
</a>
</g>
</g>
<!-- Node2 -->
<g id="node2" class="node"><title>Node2</title>
<g id="a_node2"><a xlink:href="classelmeragent.html" target="_top" xlink:title="elmeragent">
<polygon fill="none" stroke="black" points="128.5,-0.5 128.5,-19.5 193.5,-19.5 193.5,-0.5 128.5,-0.5"/>
<text text-anchor="middle" x="161" y="-7.5" font-family="Helvetica,sans-Serif" font-size="10.00">elmeragent</text>
</a>
</g>
</g>
<!-- Node1&#45;&gt;Node2 -->
<g id="edge1" class="edge"><title>Node1&#45;&gt;Node2</title>
<path fill="none" stroke="midnightblue" d="M50.9715,-87.2413C64.1693,-70.2666 86.0434,-44.9635 110,-29 115.564,-25.2925 121.953,-22.1675 128.264,-19.5907"/>
<polygon fill="midnightblue" stroke="midnightblue" points="48.1421,-85.18 44.8957,-95.2653 53.7227,-89.4058 48.1421,-85.18"/>
</g>
<!-- Node3 -->
<g id="node3" class="node"><title>Node3</title>
<g id="a_node3"><a xlink:href="classelmeragentpar.html" target="_top" xlink:title="elmeragentpar">
<polygon fill="none" stroke="black" points="122,-152.5 122,-171.5 200,-171.5 200,-152.5 122,-152.5"/>
<text text-anchor="middle" x="161" y="-159.5" font-family="Helvetica,sans-Serif" font-size="10.00">elmeragentpar</text>
</a>
</g>
</g>
<!-- Node1&#45;&gt;Node3 -->
<g id="edge2" class="edge"><title>Node1&#45;&gt;Node3</title>
<path fill="none" stroke="midnightblue" d="M63.6549,-119.522C77.2324,-126.955 94.3021,-135.907 110,-143 117.362,-146.327 125.495,-149.587 133.025,-152.441"/>
<polygon fill="midnightblue" stroke="midnightblue" points="65.3168,-116.441 54.8728,-114.66 61.9263,-122.565 65.3168,-116.441"/>
</g>
<!-- Node4 -->
<g id="node4" class="node"><title>Node4</title>
<g id="a_node4"><a xlink:href="classopenfoamagent.html" target="_top" xlink:title="openfoamagent">
<polygon fill="none" stroke="black" points="119.5,-114.5 119.5,-133.5 202.5,-133.5 202.5,-114.5 119.5,-114.5"/>
<text text-anchor="middle" x="161" y="-121.5" font-family="Helvetica,sans-Serif" font-size="10.00">openfoamagent</text>
</a>
</g>
</g>
<!-- Node1&#45;&gt;Node4 -->
<g id="edge3" class="edge"><title>Node1&#45;&gt;Node4</title>
<path fill="none" stroke="midnightblue" d="M78.311,-111.278C91.4267,-113.321 105.99,-115.589 119.145,-117.637"/>
<polygon fill="midnightblue" stroke="midnightblue" points="78.5768,-107.777 68.1573,-109.697 77.4996,-114.694 78.5768,-107.777"/>
</g>
<!-- Node5 -->
<g id="node5" class="node"><title>Node5</title>
<g id="a_node5"><a xlink:href="classopenfoamagentpar.html" target="_top" xlink:title="openfoamagentpar">
<polygon fill="none" stroke="black" points="112.5,-76.5 112.5,-95.5 209.5,-95.5 209.5,-76.5 112.5,-76.5"/>
<text text-anchor="middle" x="161" y="-83.5" font-family="Helvetica,sans-Serif" font-size="10.00">openfoamagentpar</text>
</a>
</g>
</g>
<!-- Node1&#45;&gt;Node5 -->
<g id="edge4" class="edge"><title>Node1&#45;&gt;Node5</title>
<path fill="none" stroke="midnightblue" d="M78.2074,-98.7382C89.0639,-97.0474 100.919,-95.2012 112.149,-93.4522"/>
<polygon fill="midnightblue" stroke="midnightblue" points="77.4996,-95.3061 68.1573,-100.303 78.5768,-102.223 77.4996,-95.3061"/>
</g>
<!-- Node6 -->
<g id="node6" class="node"><title>Node6</title>
<g id="a_node6"><a xlink:href="classIRAD_1_1Sys_1_1Net_1_1Client.html" target="_top" xlink:title="Client">
<polygon fill="none" stroke="black" points="140,-38.5 140,-57.5 182,-57.5 182,-38.5 140,-38.5"/>
<text text-anchor="middle" x="161" y="-45.5" font-family="Helvetica,sans-Serif" font-size="10.00">Client</text>
</a>
</g>
</g>
<!-- Node7 -->
<g id="node7" class="node"><title>Node7</title>
<g id="a_node7"><a xlink:href="classSolverUtils_1_1FEM_1_1TCPSolverClient.html" target="_top" xlink:title="TCPSolverClient">
<polygon fill="none" stroke="black" points="248,-114.5 248,-133.5 338,-133.5 338,-114.5 248,-114.5"/>
<text text-anchor="middle" x="293" y="-121.5" font-family="Helvetica,sans-Serif" font-size="10.00">TCPSolverClient</text>
</a>
</g>
</g>
<!-- Node6&#45;&gt;Node7 -->
<g id="edge5" class="edge"><title>Node6&#45;&gt;Node7</title>
<path fill="none" stroke="midnightblue" d="M192.01,-57.9731C198.733,-60.5977 205.728,-63.6457 212,-67 238.016,-80.9136 265.404,-102.053 280.429,-114.298"/>
<polygon fill="midnightblue" stroke="midnightblue" points="193.062,-54.6305 182.469,-54.4441 190.633,-61.1959 193.062,-54.6305"/>
</g>
<!-- Node8 -->
<g id="node8" class="node"><title>Node8</title>
<polygon fill="none" stroke="#bfbfbf" points="0,-285.5 0,-304.5 74,-304.5 74,-285.5 0,-285.5"/>
<text text-anchor="middle" x="37" y="-292.5" font-family="Helvetica,sans-Serif" font-size="10.00">COM_Object</text>
</g>
<!-- Node9 -->
<g id="node9" class="node"><title>Node9</title>
<g id="a_node9"><a xlink:href="classCOM_1_1SolverModuleDriver.html" target="_top" xlink:title="SolverModuleDriver">
<polygon fill="none" stroke="black" points="110,-304.5 110,-323.5 212,-323.5 212,-304.5 110,-304.5"/>
<text text-anchor="middle" x="161" y="-311.5" font-family="Helvetica,sans-Serif" font-size="10.00">SolverModuleDriver</text>
</a>
</g>
</g>
<!-- Node8&#45;&gt;Node9 -->
<g id="edge6" class="edge"><title>Node8&#45;&gt;Node9</title>
<path fill="none" stroke="midnightblue" d="M84.1819,-302.192C92.5009,-303.488 101.211,-304.844 109.642,-306.157"/>
<polygon fill="midnightblue" stroke="midnightblue" points="84.6932,-298.73 74.2737,-300.649 83.616,-305.646 84.6932,-298.73"/>
</g>
<!-- Node10 -->
<g id="node10" class="node"><title>Node10</title>
<g id="a_node10"><a xlink:href="classfsifoam__module.html" target="_top" xlink:title="fsifoam_module">
<polygon fill="none" stroke="black" points="118,-266.5 118,-285.5 204,-285.5 204,-266.5 118,-266.5"/>
<text text-anchor="middle" x="161" y="-273.5" font-family="Helvetica,sans-Serif" font-size="10.00">fsifoam_module</text>
</a>
</g>
</g>
<!-- Node8&#45;&gt;Node10 -->
<g id="edge7" class="edge"><title>Node8&#45;&gt;Node10</title>
<path fill="none" stroke="midnightblue" d="M84.4736,-287.762C95.3735,-286.065 106.93,-284.265 117.639,-282.597"/>
<polygon fill="midnightblue" stroke="midnightblue" points="83.616,-284.354 74.2737,-289.351 84.6932,-291.27 83.616,-284.354"/>
</g>
<!-- Node11 -->
<g id="node11" class="node"><title>Node11</title>
<g id="a_node11"><a xlink:href="classIcoFoamMod_1_1IcoFoamModule.html" target="_top" xlink:title="IcoFoamModule">
<polygon fill="none" stroke="black" points="118,-342.5 118,-361.5 204,-361.5 204,-342.5 118,-342.5"/>
<text text-anchor="middle" x="161" y="-349.5" font-family="Helvetica,sans-Serif" font-size="10.00">IcoFoamModule</text>
</a>
</g>
</g>
<!-- Node8&#45;&gt;Node11 -->
<g id="edge8" class="edge"><title>Node8&#45;&gt;Node11</title>
<path fill="none" stroke="midnightblue" d="M63.6549,-309.522C77.2324,-316.955 94.3021,-325.907 110,-333 117.362,-336.327 125.495,-339.587 133.025,-342.441"/>
<polygon fill="midnightblue" stroke="midnightblue" points="65.3168,-306.441 54.8728,-304.66 61.9263,-312.565 65.3168,-306.441"/>
</g>
<!-- Node12 -->
<g id="node12" class="node"><title>Node12</title>
<g id="a_node12"><a xlink:href="classSolverModuleDriver.html" target="_top" xlink:title="SolverModuleDriver">
<polygon fill="none" stroke="black" points="110,-228.5 110,-247.5 212,-247.5 212,-228.5 110,-228.5"/>
<text text-anchor="middle" x="161" y="-235.5" font-family="Helvetica,sans-Serif" font-size="10.00">SolverModuleDriver</text>
</a>
</g>
</g>
<!-- Node8&#45;&gt;Node12 -->
<g id="edge9" class="edge"><title>Node8&#45;&gt;Node12</title>
<path fill="none" stroke="midnightblue" d="M63.6549,-280.478C77.2324,-273.045 94.3021,-264.093 110,-257 117.362,-253.673 125.495,-250.413 133.025,-247.559"/>
<polygon fill="midnightblue" stroke="midnightblue" points="61.9263,-277.435 54.8728,-285.34 65.3168,-283.559 61.9263,-277.435"/>
</g>
<!-- Node13 -->
<g id="node13" class="node"><title>Node13</title>
<g id="a_node13"><a xlink:href="classSolverUtils_1_1FEM_1_1SolverAgent.html" target="_top" xlink:title="SolverAgent">
<polygon fill="none" stroke="black" points="2,-171.5 2,-190.5 72,-190.5 72,-171.5 2,-171.5"/>
<text text-anchor="middle" x="37" y="-178.5" font-family="Helvetica,sans-Serif" font-size="10.00">SolverAgent</text>
</a>
</g>
</g>
<!-- Node13&#45;&gt;Node9 -->
<g id="edge10" class="edge"><title>Node13&#45;&gt;Node9</title>
<path fill="none" stroke="midnightblue" d="M45.5375,-200.229C56.2841,-225.321 78.2841,-269.073 110,-295 114.673,-298.82 120.197,-301.925 125.837,-304.432"/>
<polygon fill="midnightblue" stroke="midnightblue" points="48.6682,-198.64 41.6252,-190.725 42.1951,-201.304 48.6682,-198.64"/>
</g>
<!-- Node13&#45;&gt;Node2 -->
<g id="edge11" class="edge"><title>Node13&#45;&gt;Node2</title>
<path fill="none" stroke="midnightblue" d="M50.6949,-162.984C58.0741,-152.032 67.2237,-137.582 74,-124 94.1573,-83.597 78.0873,-60.9421 110,-29 115.054,-23.9416 121.591,-20.2072 128.262,-17.458"/>
<polygon fill="midnightblue" stroke="midnightblue" points="47.783,-161.041 45.0037,-171.265 53.5521,-165.006 47.783,-161.041"/>
</g>
<!-- Node13&#45;&gt;Node3 -->
<g id="edge12" class="edge"><title>Node13&#45;&gt;Node3</title>
<path fill="none" stroke="midnightblue" d="M82.3581,-174.092C95.2362,-172.086 109.186,-169.914 121.661,-167.971"/>
<polygon fill="midnightblue" stroke="midnightblue" points="81.6507,-170.66 72.3085,-175.657 82.728,-177.576 81.6507,-170.66"/>
</g>
<!-- Node13&#45;&gt;Node10 -->
<g id="edge13" class="edge"><title>Node13&#45;&gt;Node10</title>
<path fill="none" stroke="midnightblue" d="M50.9715,-198.759C64.1693,-215.733 86.0434,-241.037 110,-257 115.564,-260.708 121.953,-263.832 128.264,-266.409"/>
<polygon fill="midnightblue" stroke="midnightblue" points="53.7227,-196.594 44.8957,-190.735 48.1421,-200.82 53.7227,-196.594"/>
</g>
<!-- Node13&#45;&gt;Node4 -->
<g id="edge14" class="edge"><title>Node13&#45;&gt;Node4</title>
<path fill="none" stroke="midnightblue" d="M63.6549,-166.478C77.2324,-159.045 94.3021,-150.093 110,-143 117.362,-139.673 125.495,-136.413 133.025,-133.559"/>
<polygon fill="midnightblue" stroke="midnightblue" points="61.9263,-163.435 54.8728,-171.34 65.3168,-169.559 61.9263,-163.435"/>
</g>
<!-- Node13&#45;&gt;Node5 -->
<g id="edge15" class="edge"><title>Node13&#45;&gt;Node5</title>
<path fill="none" stroke="midnightblue" d="M50.9715,-163.241C64.1693,-146.267 86.0434,-120.963 110,-105 115.564,-101.292 121.953,-98.1675 128.264,-95.5907"/>
<polygon fill="midnightblue" stroke="midnightblue" points="48.1421,-161.18 44.8957,-171.265 53.7227,-165.406 48.1421,-161.18"/>
</g>
<!-- Node13&#45;&gt;Node12 -->
<g id="edge16" class="edge"><title>Node13&#45;&gt;Node12</title>
<path fill="none" stroke="midnightblue" d="M63.6549,-195.522C77.2324,-202.955 94.3021,-211.907 110,-219 117.362,-222.327 125.495,-225.587 133.025,-228.441"/>
<polygon fill="midnightblue" stroke="midnightblue" points="65.3168,-192.441 54.8728,-190.66 61.9263,-198.565 65.3168,-192.441"/>
</g>
<!-- Node14 -->
<g id="node14" class="node"><title>Node14</title>
<g id="a_node14"><a xlink:href="classSolverUtils_1_1FEM_1_1FDSolverAgent.html" target="_top" xlink:title="FDSolverAgent">
<polygon fill="none" stroke="black" points="119.5,-190.5 119.5,-209.5 202.5,-209.5 202.5,-190.5 119.5,-190.5"/>
<text text-anchor="middle" x="161" y="-197.5" font-family="Helvetica,sans-Serif" font-size="10.00">FDSolverAgent</text>
</a>
</g>
</g>
<!-- Node13&#45;&gt;Node14 -->
<g id="edge17" class="edge"><title>Node13&#45;&gt;Node14</title>
<path fill="none" stroke="midnightblue" d="M82.2493,-187.891C94.4093,-189.785 107.532,-191.829 119.471,-193.688"/>
<polygon fill="midnightblue" stroke="midnightblue" points="82.728,-184.424 72.3085,-186.343 81.6507,-191.34 82.728,-184.424"/>
</g>
<!-- Node14&#45;&gt;Node7 -->
<g id="edge18" class="edge"><title>Node14&#45;&gt;Node7</title>
<path fill="none" stroke="midnightblue" d="M200.249,-186.636C204.282,-184.882 208.269,-182.995 212,-181 238.016,-167.086 265.404,-145.947 280.429,-133.702"/>
<polygon fill="midnightblue" stroke="midnightblue" points="198.785,-183.453 190.852,-190.476 201.433,-189.933 198.785,-183.453"/>
</g>
</g>
</svg>
