<?xml version="1.0" encoding="UTF-8" standalone="no"?>
<!DOCTYPE svg PUBLIC "-//W3C//DTD SVG 1.1//EN"
 "http://www.w3.org/Graphics/SVG/1.1/DTD/svg11.dtd">
<!-- Generated by graphviz version 2.30.1 (20150305.2338)
 -->
<!-- Title: Graphical Class Hierarchy Pages: 1 -->
<svg width="420pt" height="104pt"
 viewBox="0.00 0.00 420.00 104.00" xmlns="http://www.w3.org/2000/svg" xmlns:xlink="http://www.w3.org/1999/xlink">
<g id="graph0" class="graph" transform="scale(1 1) rotate(0) translate(4 100)">
<title>Graphical Class Hierarchy</title>
<!-- Node1 -->
<g id="node1" class="node"><title>Node1</title>
<g id="a_node1"><a xlink:href="classIRAD_1_1Global_1_1GlobalObj.html" target="_top" xlink:title="GlobalObj\&lt; StackType,\l int, ProfilerType \&gt;">
<polygon fill="none" stroke="black" points="0.5,-33 0.5,-63 119.5,-63 119.5,-33 0.5,-33"/>
<text text-anchor="start" x="8.5" y="-51" font-family="Helvetica,sans-Serif" font-size="10.00">GlobalObj&lt; StackType,</text>
<text text-anchor="middle" x="60" y="-40" font-family="Helvetica,sans-Serif" font-size="10.00"> int, ProfilerType &gt;</text>
</a>
</g>
</g>
<!-- Node2 -->
<g id="node2" class="node"><title>Node2</title>
<g id="a_node2"><a xlink:href="classIRAD_1_1Global_1_1Program.html" target="_top" xlink:title="Program\&lt; GlobalType,\l ComLineType \&gt;">
<polygon fill="none" stroke="black" points="156.5,-33 156.5,-63 271.5,-63 271.5,-33 156.5,-33"/>
<text text-anchor="start" x="164.5" y="-51" font-family="Helvetica,sans-Serif" font-size="10.00">Program&lt; GlobalType,</text>
<text text-anchor="middle" x="214" y="-40" font-family="Helvetica,sans-Serif" font-size="10.00"> ComLineType &gt;</text>
</a>
</g>
</g>
<!-- Node1&#45;&gt;Node2 -->
<g id="edge1" class="edge"><title>Node1&#45;&gt;Node2</title>
<path fill="none" stroke="midnightblue" d="M130.033,-48C138.852,-48 147.797,-48 156.387,-48"/>
<polygon fill="midnightblue" stroke="midnightblue" points="129.767,-44.5001 119.767,-48 129.767,-51.5001 129.767,-44.5001"/>
</g>
<!-- Node3 -->
<g id="node3" class="node"><title>Node3</title>
<g id="a_node3"><a xlink:href="classElmerFoamFSI_1_1ExampleProgram_1_1SerialProgram.html" target="_top" xlink:title="Implementation of the basic parts of the serial program example. ">
<polygon fill="none" stroke="black" points="321,-76.5 321,-95.5 399,-95.5 399,-76.5 321,-76.5"/>
<text text-anchor="middle" x="360" y="-83.5" font-family="Helvetica,sans-Serif" font-size="10.00">SerialProgram</text>
</a>
</g>
</g>
<!-- Node2&#45;&gt;Node3 -->
<g id="edge2" class="edge"><title>Node2&#45;&gt;Node3</title>
<path fill="none" stroke="midnightblue" d="M281.651,-65.5886C295.822,-69.328 310.27,-73.1408 322.785,-76.4432"/>
<polygon fill="midnightblue" stroke="midnightblue" points="282.475,-62.1861 271.913,-63.0186 280.689,-68.9544 282.475,-62.1861"/>
</g>
<!-- Node4 -->
<g id="node4" class="node"><title>Node4</title>
<g id="a_node4"><a xlink:href="classElmerFoamFSI_1_1SerialDriverProgram.html" target="_top" xlink:title="Implementation of the basic parts of the serial program example. ">
<polygon fill="none" stroke="black" points="308,-38.5 308,-57.5 412,-57.5 412,-38.5 308,-38.5"/>
<text text-anchor="middle" x="360" y="-45.5" font-family="Helvetica,sans-Serif" font-size="10.00">SerialDriverProgram</text>
</a>
</g>
</g>
<!-- Node2&#45;&gt;Node4 -->
<g id="edge3" class="edge"><title>Node2&#45;&gt;Node4</title>
<path fill="none" stroke="midnightblue" d="M281.966,-48C290.594,-48 299.319,-48 307.642,-48"/>
<polygon fill="midnightblue" stroke="midnightblue" points="281.913,-44.5001 271.913,-48 281.913,-51.5001 281.913,-44.5001"/>
</g>
<!-- Node5 -->
<g id="node5" class="node"><title>Node5</title>
<g id="a_node5"><a xlink:href="classElmerModuleDriver_1_1ExampleProgram_1_1SerialProgram.html" target="_top" xlink:title="Implementation of the basic parts of the serial program example. ">
<polygon fill="none" stroke="black" points="321,-0.5 321,-19.5 399,-19.5 399,-0.5 321,-0.5"/>
<text text-anchor="middle" x="360" y="-7.5" font-family="Helvetica,sans-Serif" font-size="10.00">SerialProgram</text>
</a>
</g>
</g>
<!-- Node2&#45;&gt;Node5 -->
<g id="edge4" class="edge"><title>Node2&#45;&gt;Node5</title>
<path fill="none" stroke="midnightblue" d="M281.651,-30.4114C295.822,-26.672 310.27,-22.8592 322.785,-19.5568"/>
<polygon fill="midnightblue" stroke="midnightblue" points="280.689,-27.0456 271.913,-32.9814 282.475,-33.8139 280.689,-27.0456"/>
</g>
</g>
</svg>
