<?xml version="1.0" encoding="UTF-8" standalone="no"?>
<!DOCTYPE svg PUBLIC "-//W3C//DTD SVG 1.1//EN"
 "http://www.w3.org/Graphics/SVG/1.1/DTD/svg11.dtd">
<!-- Generated by graphviz version 2.30.1 (20150305.2338)
 -->
<!-- Title: Graphical Class Hierarchy Pages: 1 -->
<svg width="210pt" height="116pt"
 viewBox="0.00 0.00 210.00 116.00" xmlns="http://www.w3.org/2000/svg" xmlns:xlink="http://www.w3.org/1999/xlink">
<g id="graph0" class="graph" transform="scale(1 1) rotate(0) translate(4 112)">
<title>Graphical Class Hierarchy</title>
<!-- Node1 -->
<g id="node1" class="node"><title>Node1</title>
<polygon fill="none" stroke="#bfbfbf" points="0,-44.5 0,-63.5 32,-63.5 32,-44.5 0,-44.5"/>
<text text-anchor="middle" x="16" y="-51.5" font-family="Helvetica,sans-Serif" font-size="10.00">pair</text>
</g>
<!-- Node2 -->
<g id="node2" class="node"><title>Node2</title>
<g id="a_node2"><a xlink:href="classIRAD_1_1Primitive_1_1KeyValuePairObj.html" target="_top" xlink:title="Simple key&#45;value pair. ">
<polygon fill="none" stroke="black" points="71,-88.5 71,-107.5 199,-107.5 199,-88.5 71,-88.5"/>
<text text-anchor="middle" x="135" y="-95.5" font-family="Helvetica,sans-Serif" font-size="10.00">KeyValuePairObj&lt; K, V &gt;</text>
</a>
</g>
</g>
<!-- Node1&#45;&gt;Node2 -->
<g id="edge1" class="edge"><title>Node1&#45;&gt;Node2</title>
<path fill="none" stroke="midnightblue" d="M41.5069,-66.4171C49.8066,-70.3836 59.203,-74.6179 68,-78 77.9461,-81.8239 88.9537,-85.4063 99.0825,-88.4529"/>
<polygon fill="midnightblue" stroke="midnightblue" points="42.8905,-63.1977 32.3693,-61.9508 39.8166,-69.4867 42.8905,-63.1977"/>
</g>
<!-- Node3 -->
<g id="node3" class="node"><title>Node3</title>
<g id="a_node3"><a xlink:href="classIRAD_1_1Sys_1_1DynamicObjectLib.html" target="_top" xlink:title="DynamicObjectLib\&lt; Object\lType \&gt;">
<polygon fill="none" stroke="black" points="68,-39 68,-69 202,-69 202,-39 68,-39"/>
<text text-anchor="start" x="76" y="-57" font-family="Helvetica,sans-Serif" font-size="10.00">DynamicObjectLib&lt; Object</text>
<text text-anchor="middle" x="135" y="-46" font-family="Helvetica,sans-Serif" font-size="10.00">Type &gt;</text>
</a>
</g>
</g>
<!-- Node1&#45;&gt;Node3 -->
<g id="edge2" class="edge"><title>Node1&#45;&gt;Node3</title>
<path fill="none" stroke="midnightblue" d="M42.5533,-54C50.1616,-54 58.8731,-54 67.8287,-54"/>
<polygon fill="midnightblue" stroke="midnightblue" points="42.2957,-50.5001 32.2957,-54 42.2957,-57.5001 42.2957,-50.5001"/>
</g>
<!-- Node4 -->
<g id="node4" class="node"><title>Node4</title>
<g id="a_node4"><a xlink:href="classSolverUtils_1_1Mesh_1_1GeometricEntity.html" target="_top" xlink:title="Connects continuous to discrete. ">
<polygon fill="none" stroke="black" points="91.5,-0.5 91.5,-19.5 178.5,-19.5 178.5,-0.5 91.5,-0.5"/>
<text text-anchor="middle" x="135" y="-7.5" font-family="Helvetica,sans-Serif" font-size="10.00">GeometricEntity</text>
</a>
</g>
</g>
<!-- Node1&#45;&gt;Node4 -->
<g id="edge3" class="edge"><title>Node1&#45;&gt;Node4</title>
<path fill="none" stroke="midnightblue" d="M41.5069,-41.5829C49.8066,-37.6164 59.203,-33.3821 68,-30 77.9461,-26.1761 88.9537,-22.5937 99.0825,-19.5471"/>
<polygon fill="midnightblue" stroke="midnightblue" points="39.8166,-38.5133 32.3693,-46.0492 42.8905,-44.8023 39.8166,-38.5133"/>
</g>
</g>
</svg>
