<?xml version="1.0" encoding="UTF-8" standalone="no"?>
<!DOCTYPE svg PUBLIC "-//W3C//DTD SVG 1.1//EN"
 "http://www.w3.org/Graphics/SVG/1.1/DTD/svg11.dtd">
<!-- Generated by graphviz version 2.30.1 (20150305.2338)
 -->
<!-- Title: Graphical Class Hierarchy Pages: 1 -->
<svg width="332pt" height="77pt"
 viewBox="0.00 0.00 332.00 77.00" xmlns="http://www.w3.org/2000/svg" xmlns:xlink="http://www.w3.org/1999/xlink">
<g id="graph0" class="graph" transform="scale(1 1) rotate(0) translate(4 73)">
<title>Graphical Class Hierarchy</title>
<!-- Node1 -->
<g id="node1" class="node"><title>Node1</title>
<g id="a_node1"><a xlink:href="classElement__node__enumerator.html" target="_top" xlink:title="An adaptor for enumerating node IDs of an element. ">
<polygon fill="none" stroke="black" points="0.5,-22.5 0.5,-41.5 133.5,-41.5 133.5,-22.5 0.5,-22.5"/>
<text text-anchor="middle" x="67" y="-29.5" font-family="Helvetica,sans-Serif" font-size="10.00">Element_node_enumerator</text>
</a>
</g>
</g>
<!-- Node2 -->
<g id="node2" class="node"><title>Node2</title>
<g id="a_node2"><a xlink:href="classElement__node__enumerator__str__2.html" target="_top" xlink:title="Optimized version for 2&#45;D structured meshes. ">
<polygon fill="none" stroke="black" points="180.5,-39 180.5,-69 313.5,-69 313.5,-39 180.5,-39"/>
<text text-anchor="start" x="188.5" y="-57" font-family="Helvetica,sans-Serif" font-size="10.00">Element_node_enumerator</text>
<text text-anchor="middle" x="247" y="-46" font-family="Helvetica,sans-Serif" font-size="10.00">_str_2</text>
</a>
</g>
</g>
<!-- Node1&#45;&gt;Node2 -->
<g id="edge1" class="edge"><title>Node1&#45;&gt;Node2</title>
<path fill="none" stroke="midnightblue" d="M143.662,-41.3515C155.854,-42.8583 168.387,-44.4074 180.319,-45.8821"/>
<polygon fill="midnightblue" stroke="midnightblue" points="143.876,-37.8514 133.522,-40.0983 143.017,-44.7985 143.876,-37.8514"/>
</g>
<!-- Node3 -->
<g id="node3" class="node"><title>Node3</title>
<g id="a_node3"><a xlink:href="classElement__node__enumerator__uns.html" target="_top" xlink:title="Optimized version for unstructured meshes. ">
<polygon fill="none" stroke="black" points="170,-0.5 170,-19.5 324,-19.5 324,-0.5 170,-0.5"/>
<text text-anchor="middle" x="247" y="-7.5" font-family="Helvetica,sans-Serif" font-size="10.00">Element_node_enumerator_uns</text>
</a>
</g>
</g>
<!-- Node1&#45;&gt;Node3 -->
<g id="edge2" class="edge"><title>Node1&#45;&gt;Node3</title>
<path fill="none" stroke="midnightblue" d="M143.596,-22.6567C152.262,-21.5856 161.102,-20.493 169.776,-19.4209"/>
<polygon fill="midnightblue" stroke="midnightblue" points="143.017,-19.2015 133.522,-23.9017 143.876,-26.1486 143.017,-19.2015"/>
</g>
</g>
</svg>
