<?xml version="1.0" encoding="UTF-8" standalone="no"?>
<!DOCTYPE svg PUBLIC "-//W3C//DTD SVG 1.1//EN"
 "http://www.w3.org/Graphics/SVG/1.1/DTD/svg11.dtd">
<!-- Generated by graphviz version 2.30.1 (20150305.2338)
 -->
<!-- Title: elmerinitialize Pages: 1 -->
<svg width="486pt" height="161pt"
 viewBox="0.00 0.00 486.00 161.00" xmlns="http://www.w3.org/2000/svg" xmlns:xlink="http://www.w3.org/1999/xlink">
<g id="graph0" class="graph" transform="scale(1 1) rotate(0) translate(4 157)">
<title>elmerinitialize</title>
<!-- Node1 -->
<g id="node1" class="node"><title>Node1</title>
<polygon fill="#bfbfbf" stroke="black" points="0,-76.5 0,-95.5 76,-95.5 76,-76.5 0,-76.5"/>
<text text-anchor="middle" x="38" y="-83.5" font-family="Helvetica,sans-Serif" font-size="10.00">elmerinitialize</text>
</g>
<!-- Node2 -->
<g id="node2" class="node"><title>Node2</title>
<g id="a_node2"><a xlink:href="classgeneralmodule_a365409624821229f0d7ab61da0d3c6ba.html#a365409624821229f0d7ab61da0d3c6ba" target="_top" xlink:title="Adds coordinate and time variables to the current mesh structure. ">
<polygon fill="none" stroke="black" points="112,-133.5 112,-152.5 322,-152.5 322,-133.5 112,-133.5"/>
<text text-anchor="middle" x="217" y="-140.5" font-family="Helvetica,sans-Serif" font-size="10.00">generalmodule::addmeshcoordinatesandtime</text>
</a>
</g>
</g>
<!-- Node1&#45;&gt;Node2 -->
<g id="edge1" class="edge"><title>Node1&#45;&gt;Node2</title>
<path fill="none" stroke="midnightblue" d="M54.0629,-95.5557C68.4204,-104.241 90.9159,-116.771 112,-124 120.136,-126.79 128.779,-129.195 137.47,-131.263"/>
<polygon fill="midnightblue" stroke="midnightblue" points="136.756,-134.689 147.278,-133.457 138.283,-127.858 136.756,-134.689"/>
</g>
<!-- Node3 -->
<g id="node3" class="node"><title>Node3</title>
<g id="a_node3"><a xlink:href="classgeneralmodule_a9fa4925b1884bc7bd5f9bb2cdddf2bbe.html#a9fa4925b1884bc7bd5f9bb2cdddf2bbe" target="_top" xlink:title="Adds flags for active solvers. ">
<polygon fill="none" stroke="black" points="150.5,-95.5 150.5,-114.5 283.5,-114.5 283.5,-95.5 150.5,-95.5"/>
<text text-anchor="middle" x="217" y="-102.5" font-family="Helvetica,sans-Serif" font-size="10.00">generalmodule::addsolvers</text>
</a>
</g>
</g>
<!-- Node1&#45;&gt;Node3 -->
<g id="edge2" class="edge"><title>Node1&#45;&gt;Node3</title>
<path fill="none" stroke="midnightblue" d="M76.105,-89.983C94.7415,-91.9835 118.031,-94.4836 140.23,-96.8665"/>
<polygon fill="midnightblue" stroke="midnightblue" points="140.015,-100.363 150.331,-97.9508 140.762,-93.4034 140.015,-100.363"/>
</g>
<!-- Node4 -->
<g id="node4" class="node"><title>Node4</title>
<g id="a_node4"><a xlink:href="classgeneralmodule_ace41a25456bb516f0f9ee96e9eed55ed.html#ace41a25456bb516f0f9ee96e9eed55ed" target="_top" xlink:title="generalmodule::addvtuoutputsolverhack">
<polygon fill="none" stroke="black" points="122.5,-57.5 122.5,-76.5 311.5,-76.5 311.5,-57.5 122.5,-57.5"/>
<text text-anchor="middle" x="217" y="-64.5" font-family="Helvetica,sans-Serif" font-size="10.00">generalmodule::addvtuoutputsolverhack</text>
</a>
</g>
</g>
<!-- Node1&#45;&gt;Node4 -->
<g id="edge3" class="edge"><title>Node1&#45;&gt;Node4</title>
<path fill="none" stroke="midnightblue" d="M76.105,-82.017C88.2949,-80.7085 102.476,-79.1862 117.04,-77.6229"/>
<polygon fill="midnightblue" stroke="midnightblue" points="117.594,-81.0835 127.164,-76.5361 116.847,-74.1235 117.594,-81.0835"/>
</g>
<!-- Node5 -->
<g id="node5" class="node"><title>Node5</title>
<g id="a_node5"><a xlink:href="classgeneralmodule_aab23af2755a40587c4f194ab80091318.html#aab23af2755a40587c4f194ab80091318" target="_top" xlink:title="Sets initial conditions for the fields. ">
<polygon fill="none" stroke="black" points="134,-19.5 134,-38.5 300,-38.5 300,-19.5 134,-19.5"/>
<text text-anchor="middle" x="217" y="-26.5" font-family="Helvetica,sans-Serif" font-size="10.00">generalmodule::setinitialconditions</text>
</a>
</g>
</g>
<!-- Node1&#45;&gt;Node5 -->
<g id="edge4" class="edge"><title>Node1&#45;&gt;Node5</title>
<path fill="none" stroke="midnightblue" d="M54.0629,-76.4443C68.4204,-67.7589 90.9159,-55.2295 112,-48 120.136,-45.2101 128.779,-42.8049 137.47,-40.7371"/>
<polygon fill="midnightblue" stroke="midnightblue" points="138.283,-44.1418 147.278,-38.5433 136.756,-37.3105 138.283,-44.1418"/>
</g>
<!-- Node6 -->
<g id="node6" class="node"><title>Node6</title>
<g id="a_node6"><a xlink:href="classgeneralmodule_a35170c044edf9e26057c957be782d749.html#a35170c044edf9e26057c957be782d749" target="_top" xlink:title="Check if we are restarting are if yes, read in field values. ">
<polygon fill="none" stroke="black" points="361.5,-38.5 361.5,-57.5 474.5,-57.5 474.5,-38.5 361.5,-38.5"/>
<text text-anchor="middle" x="418" y="-45.5" font-family="Helvetica,sans-Serif" font-size="10.00">generalmodule::restart</text>
</a>
</g>
</g>
<!-- Node5&#45;&gt;Node6 -->
<g id="edge5" class="edge"><title>Node5&#45;&gt;Node6</title>
<path fill="none" stroke="midnightblue" d="M300.09,-36.8377C317.202,-38.4715 335.023,-40.173 351.442,-41.7407"/>
<polygon fill="midnightblue" stroke="midnightblue" points="351.179,-45.2314 361.466,-42.6978 351.844,-38.2631 351.179,-45.2314"/>
</g>
<!-- Node7 -->
<g id="node7" class="node"><title>Node7</title>
<g id="a_node7"><a xlink:href="classgeneralmodule_af55e87fced73725324f9022ee5612521.html#af55e87fced73725324f9022ee5612521" target="_top" xlink:title="generalmodule::initcond">
<polygon fill="none" stroke="black" points="358.5,-0.5 358.5,-19.5 477.5,-19.5 477.5,-0.5 358.5,-0.5"/>
<text text-anchor="middle" x="418" y="-7.5" font-family="Helvetica,sans-Serif" font-size="10.00">generalmodule::initcond</text>
</a>
</g>
</g>
<!-- Node5&#45;&gt;Node7 -->
<g id="edge6" class="edge"><title>Node5&#45;&gt;Node7</title>
<path fill="none" stroke="midnightblue" d="M300.09,-21.1623C316.162,-19.6278 332.86,-18.0335 348.434,-16.5465"/>
<polygon fill="midnightblue" stroke="midnightblue" points="348.867,-20.0211 358.489,-15.5865 348.202,-13.0528 348.867,-20.0211"/>
</g>
</g>
</svg>
