<?xml version="1.0" encoding="UTF-8" standalone="no"?>
<!DOCTYPE svg PUBLIC "-//W3C//DTD SVG 1.1//EN"
 "http://www.w3.org/Graphics/SVG/1.1/DTD/svg11.dtd">
<!-- Generated by graphviz version 2.30.1 (20150305.2338)
 -->
<!-- Title: fsiFOAMPar.C Pages: 1 -->
<!--zoomable 432 -->
<svg id="main" version="1.1" xmlns="http://www.w3.org/2000/svg" xmlns:xlink="http://www.w3.org/1999/xlink" xml:space="preserve" onload="init(evt)">
<style type="text/css"><![CDATA[
.edge:hover path { stroke: red; }
.edge:hover polygon { stroke: red; fill: red; }
]]></style>
<script type="text/javascript"><![CDATA[
var edges = document.getElementsByTagName('g');
if (edges && edges.length) {
  for (var i=0;i<edges.length;i++) {
    if (edges[i].id.substr(0,4)=='edge') {
      edges[i].setAttribute('class','edge');
    }
  }
}
]]></script>
        <defs>
                <circle id="rim" cx="0" cy="0" r="7"/>
                <circle id="rim2" cx="0" cy="0" r="3.5"/>
                <g id="zoomPlus">
                        <use xlink:href="#rim" fill="#404040">
                                <set attributeName="fill" to="#808080" begin="zoomplus.mouseover" end="zoomplus.mouseout"/>
                        </use>
                        <path d="M-4,0h8M0,-4v8" fill="none" stroke="white" stroke-width="1.5" pointer-events="none"/>
                </g>
                <g id="zoomMin">
                        <use xlink:href="#rim" fill="#404040">
                                <set attributeName="fill" to="#808080" begin="zoomminus.mouseover" end="zoomminus.mouseout"/>
                        </use>
                        <path d="M-4,0h8" fill="none" stroke="white" stroke-width="1.5" pointer-events="none"/>
                </g>
                <g id="dirArrow">
                        <path fill="none" stroke="white" stroke-width="1.5" d="M0,-3.0v7 M-2.5,-0.5L0,-3.0L2.5,-0.5"/>
                </g>
               <g id="resetDef">
                       <use xlink:href="#rim2" fill="#404040">
                               <set attributeName="fill" to="#808080" begin="reset.mouseover" end="reset.mouseout"/>
                       </use>
               </g>
        </defs>

<script type="text/javascript">
var viewWidth = 3964;
var viewHeight = 432;
var sectionId = 'dynsection-0';
</script>
<script xlink:href="svgpan.js"/>
<svg id="graph" class="graph">
<g id="viewport">
<title>fsiFOAMPar.C</title>
<!-- Node1 -->
<g id="node1" class="node"><title>Node1</title>
<polygon fill="#bfbfbf" stroke="black" points="1981.97,-404.5 1981.97,-423.5 2062.97,-423.5 2062.97,-404.5 1981.97,-404.5"/>
<text text-anchor="middle" x="2022.47" y="-411.5" font-family="Helvetica,sans-Serif" font-size="10.00">fsiFOAMPar.C</text>
</g>
<!-- Node2 -->
<g id="node2" class="node"><title>Node2</title>
<g id="a_node2"><a xlink:href="lnInclude_2fsiFOAMPar_8H.html" target="_top" xlink:title="fsiFOAMPar.H">
<polygon fill="none" stroke="black" points="1981.97,-348.5 1981.97,-367.5 2062.97,-367.5 2062.97,-348.5 1981.97,-348.5"/>
<text text-anchor="middle" x="2022.47" y="-355.5" font-family="Helvetica,sans-Serif" font-size="10.00">fsiFOAMPar.H</text>
</a>
</g>
</g>
<!-- Node1&#45;&gt;Node2 -->
<g id="edge1" class="edge"><title>Node1&#45;&gt;Node2</title>
<path fill="none" stroke="midnightblue" d="M2022.47,-404.083C2022.47,-397.006 2022.47,-386.861 2022.47,-377.986"/>
<polygon fill="midnightblue" stroke="midnightblue" points="2025.97,-377.751 2022.47,-367.751 2018.97,-377.751 2025.97,-377.751"/>
</g>
<!-- Node3 -->
<g id="node3" class="node"><title>Node3</title>
<g id="a_node3"><a xlink:href="com_8h.html" target="_top" xlink:title="This file contains the prototypes for COM API. ">
<polygon fill="none" stroke="black" points="462.47,-224.5 462.47,-243.5 506.47,-243.5 506.47,-224.5 462.47,-224.5"/>
<text text-anchor="middle" x="484.47" y="-231.5" font-family="Helvetica,sans-Serif" font-size="10.00">com.h</text>
</a>
</g>
</g>
<!-- Node2&#45;&gt;Node3 -->
<g id="edge2" class="edge"><title>Node2&#45;&gt;Node3</title>
<path fill="none" stroke="midnightblue" d="M1981.69,-357.191C1761.67,-358.028 720.994,-359.432 586.47,-312 550.926,-299.468 517.643,-269.666 499.27,-251.029"/>
<polygon fill="midnightblue" stroke="midnightblue" points="501.579,-248.381 492.134,-243.582 496.525,-253.224 501.579,-248.381"/>
</g>
<!-- Node8 -->
<g id="node8" class="node"><title>Node8</title>
<g id="a_node8"><a xlink:href="com__devel_8hpp.html" target="_top" xlink:title="com_devel.hpp">
<polygon fill="none" stroke="black" points="118.97,-286.5 118.97,-305.5 201.97,-305.5 201.97,-286.5 118.97,-286.5"/>
<text text-anchor="middle" x="160.47" y="-293.5" font-family="Helvetica,sans-Serif" font-size="10.00">com_devel.hpp</text>
</a>
</g>
</g>
<!-- Node2&#45;&gt;Node8 -->
<g id="edge7" class="edge"><title>Node2&#45;&gt;Node8</title>
<path fill="none" stroke="midnightblue" d="M1981.89,-355.984C1806.41,-351.551 1095.35,-333.17 511.47,-312 405.082,-308.143 280.603,-302.573 212.155,-299.418"/>
<polygon fill="midnightblue" stroke="midnightblue" points="212.218,-295.917 202.067,-298.952 211.895,-302.91 212.218,-295.917"/>
</g>
<!-- Node16 -->
<g id="node16" class="node"><title>Node16</title>
<g id="a_node16"><a xlink:href="SolverAgent_8H.html" target="_top" xlink:title="SolverAgent.H">
<polygon fill="none" stroke="black" points="826.47,-224.5 826.47,-243.5 906.47,-243.5 906.47,-224.5 826.47,-224.5"/>
<text text-anchor="middle" x="866.47" y="-231.5" font-family="Helvetica,sans-Serif" font-size="10.00">SolverAgent.H</text>
</a>
</g>
</g>
<!-- Node2&#45;&gt;Node16 -->
<g id="edge25" class="edge"><title>Node2&#45;&gt;Node16</title>
<path fill="none" stroke="midnightblue" d="M1981.85,-357.15C1767.59,-357.744 776.885,-357.992 732.47,-312 701.693,-280.13 766.369,-257.338 816.166,-245.172"/>
<polygon fill="midnightblue" stroke="midnightblue" points="817.277,-248.507 826.21,-242.81 815.674,-241.692 817.277,-248.507"/>
</g>
<!-- Node25 -->
<g id="node25" class="node"><title>Node25</title>
<g id="a_node25"><a xlink:href="InterfaceLayer_8H.html" target="_top" xlink:title="InterfaceLayer.H">
<polygon fill="none" stroke="black" points="595.97,-286.5 595.97,-305.5 684.97,-305.5 684.97,-286.5 595.97,-286.5"/>
<text text-anchor="middle" x="640.47" y="-293.5" font-family="Helvetica,sans-Serif" font-size="10.00">InterfaceLayer.H</text>
</a>
</g>
</g>
<!-- Node2&#45;&gt;Node25 -->
<g id="edge35" class="edge"><title>Node2&#45;&gt;Node25</title>
<path fill="none" stroke="midnightblue" d="M1981.85,-356.794C1788.05,-355.63 956.145,-348.559 699.47,-312 692.721,-311.039 685.628,-309.61 678.792,-308.01"/>
<polygon fill="midnightblue" stroke="midnightblue" points="679.58,-304.599 669.031,-305.577 677.888,-311.391 679.58,-304.599"/>
</g>
<!-- Node27 -->
<g id="node27" class="node"><title>Node27</title>
<polygon fill="none" stroke="#bfbfbf" points="741.47,-286.5 741.47,-305.5 797.47,-305.5 797.47,-286.5 741.47,-286.5"/>
<text text-anchor="middle" x="769.47" y="-293.5" font-family="Helvetica,sans-Serif" font-size="10.00">fvCFD.H</text>
</g>
<!-- Node2&#45;&gt;Node27 -->
<g id="edge44" class="edge"><title>Node2&#45;&gt;Node27</title>
<path fill="none" stroke="midnightblue" d="M1981.68,-357.385C1797,-358.84 1038.08,-361.627 806.47,-312 803.217,-311.303 799.883,-310.34 796.612,-309.235"/>
<polygon fill="midnightblue" stroke="midnightblue" points="797.729,-305.915 787.138,-305.62 795.233,-312.455 797.729,-305.915"/>
</g>
<!-- Node28 -->
<g id="node28" class="node"><title>Node28</title>
<polygon fill="none" stroke="#bfbfbf" points="815.97,-286.5 815.97,-305.5 914.97,-305.5 914.97,-286.5 815.97,-286.5"/>
<text text-anchor="middle" x="865.47" y="-293.5" font-family="Helvetica,sans-Serif" font-size="10.00">dynamicFvMesh.H</text>
</g>
<!-- Node2&#45;&gt;Node28 -->
<g id="edge45" class="edge"><title>Node2&#45;&gt;Node28</title>
<path fill="none" stroke="midnightblue" d="M1981.77,-356.465C1808.87,-354.018 1134.49,-342.66 924.47,-312 917.724,-311.015 910.633,-309.575 903.797,-307.97"/>
<polygon fill="midnightblue" stroke="midnightblue" points="904.586,-304.56 894.037,-305.536 902.893,-311.352 904.586,-304.56"/>
</g>
<!-- Node29 -->
<g id="node29" class="node"><title>Node29</title>
<polygon fill="none" stroke="#bfbfbf" points="933.47,-286.5 933.47,-305.5 1037.47,-305.5 1037.47,-286.5 933.47,-286.5"/>
<text text-anchor="middle" x="985.47" y="-293.5" font-family="Helvetica,sans-Serif" font-size="10.00">constitutiveModel.H</text>
</g>
<!-- Node2&#45;&gt;Node29 -->
<g id="edge46" class="edge"><title>Node2&#45;&gt;Node29</title>
<path fill="none" stroke="midnightblue" d="M1981.77,-356.182C1821.21,-352.791 1231.45,-338.747 1046.47,-312 1039.58,-311.004 1032.33,-309.572 1025.34,-307.984"/>
<polygon fill="midnightblue" stroke="midnightblue" points="1025.88,-304.514 1015.34,-305.577 1024.24,-311.319 1025.88,-304.514"/>
</g>
<!-- Node30 -->
<g id="node30" class="node"><title>Node30</title>
<polygon fill="none" stroke="#bfbfbf" points="1055.97,-281 1055.97,-311 1192.97,-311 1192.97,-281 1055.97,-281"/>
<text text-anchor="start" x="1063.97" y="-299" font-family="Helvetica,sans-Serif" font-size="10.00">solidTractionFvPatchVector</text>
<text text-anchor="middle" x="1124.47" y="-288" font-family="Helvetica,sans-Serif" font-size="10.00">Field.H</text>
</g>
<!-- Node2&#45;&gt;Node30 -->
<g id="edge47" class="edge"><title>Node2&#45;&gt;Node30</title>
<path fill="none" stroke="midnightblue" d="M1981.77,-356.709C1863.26,-355.45 1508.09,-348.754 1203.65,-312.022"/>
<polygon fill="midnightblue" stroke="midnightblue" points="1203.64,-308.495 1193.29,-310.758 1202.8,-315.444 1203.64,-308.495"/>
</g>
<!-- Node31 -->
<g id="node31" class="node"><title>Node31</title>
<polygon fill="none" stroke="#bfbfbf" points="1211.47,-286.5 1211.47,-305.5 1327.47,-305.5 1327.47,-286.5 1211.47,-286.5"/>
<text text-anchor="middle" x="1269.47" y="-293.5" font-family="Helvetica,sans-Serif" font-size="10.00">volPointInterpolation.H</text>
</g>
<!-- Node2&#45;&gt;Node31 -->
<g id="edge48" class="edge"><title>Node2&#45;&gt;Node31</title>
<path fill="none" stroke="midnightblue" d="M1981.71,-356.472C1875.25,-354.63 1580.24,-346.547 1337.47,-312 1329.64,-310.886 1321.38,-309.363 1313.41,-307.712"/>
<polygon fill="midnightblue" stroke="midnightblue" points="1314.04,-304.268 1303.53,-305.573 1312.56,-311.109 1314.04,-304.268"/>
</g>
<!-- Node32 -->
<g id="node32" class="node"><title>Node32</title>
<polygon fill="none" stroke="#bfbfbf" points="1345.97,-286.5 1345.97,-305.5 1472.97,-305.5 1472.97,-286.5 1345.97,-286.5"/>
<text text-anchor="middle" x="1409.47" y="-293.5" font-family="Helvetica,sans-Serif" font-size="10.00">pointPatchInterpolation.H</text>
</g>
<!-- Node2&#45;&gt;Node32 -->
<g id="edge49" class="edge"><title>Node2&#45;&gt;Node32</title>
<path fill="none" stroke="midnightblue" d="M1981.64,-355.266C1891.29,-351.064 1667.77,-338.661 1482.47,-312 1474.09,-310.795 1465.23,-309.226 1456.68,-307.559"/>
<polygon fill="midnightblue" stroke="midnightblue" points="1457.33,-304.119 1446.83,-305.572 1455.94,-310.98 1457.33,-304.119"/>
</g>
<!-- Node33 -->
<g id="node33" class="node"><title>Node33</title>
<polygon fill="none" stroke="#bfbfbf" points="1490.97,-286.5 1490.97,-305.5 1631.97,-305.5 1631.97,-286.5 1490.97,-286.5"/>
<text text-anchor="middle" x="1561.47" y="-293.5" font-family="Helvetica,sans-Serif" font-size="10.00">patchToPatchInterpolation.H</text>
</g>
<!-- Node2&#45;&gt;Node33 -->
<g id="edge50" class="edge"><title>Node2&#45;&gt;Node33</title>
<path fill="none" stroke="midnightblue" d="M1981.75,-353.106C1911.92,-346.224 1764.93,-330.843 1641.47,-312 1632.64,-310.652 1623.29,-309.056 1614.22,-307.415"/>
<polygon fill="midnightblue" stroke="midnightblue" points="1614.61,-303.928 1604.14,-305.555 1613.34,-310.812 1614.61,-303.928"/>
</g>
<!-- Node34 -->
<g id="node34" class="node"><title>Node34</title>
<polygon fill="none" stroke="#bfbfbf" points="1650.47,-281 1650.47,-311 1790.47,-311 1790.47,-281 1650.47,-281"/>
<text text-anchor="start" x="1658.47" y="-299" font-family="Helvetica,sans-Serif" font-size="10.00">movingWallVelocityFvPatch</text>
<text text-anchor="middle" x="1720.47" y="-288" font-family="Helvetica,sans-Serif" font-size="10.00">VectorField.H</text>
</g>
<!-- Node2&#45;&gt;Node34 -->
<g id="edge51" class="edge"><title>Node2&#45;&gt;Node34</title>
<path fill="none" stroke="midnightblue" d="M1981.74,-348.908C1935.47,-339.716 1858.83,-324.49 1800.49,-312.899"/>
<polygon fill="midnightblue" stroke="midnightblue" points="1801.05,-309.441 1790.56,-310.925 1799.69,-316.307 1801.05,-309.441"/>
</g>
<!-- Node35 -->
<g id="node35" class="node"><title>Node35</title>
<polygon fill="none" stroke="#bfbfbf" points="1808.97,-286.5 1808.97,-305.5 1903.97,-305.5 1903.97,-286.5 1808.97,-286.5"/>
<text text-anchor="middle" x="1856.47" y="-293.5" font-family="Helvetica,sans-Serif" font-size="10.00">tetFemMatrices.H</text>
</g>
<!-- Node2&#45;&gt;Node35 -->
<g id="edge52" class="edge"><title>Node2&#45;&gt;Node35</title>
<path fill="none" stroke="midnightblue" d="M1998.69,-348.403C1970.09,-338.067 1921.92,-320.656 1889.67,-308.999"/>
<polygon fill="midnightblue" stroke="midnightblue" points="1890.8,-305.688 1880.21,-305.581 1888.42,-312.271 1890.8,-305.688"/>
</g>
<!-- Node36 -->
<g id="node36" class="node"><title>Node36</title>
<polygon fill="none" stroke="#bfbfbf" points="1921.97,-286.5 1921.97,-305.5 2008.97,-305.5 2008.97,-286.5 1921.97,-286.5"/>
<text text-anchor="middle" x="1965.47" y="-293.5" font-family="Helvetica,sans-Serif" font-size="10.00">tetPointFields.H</text>
</g>
<!-- Node2&#45;&gt;Node36 -->
<g id="edge53" class="edge"><title>Node2&#45;&gt;Node36</title>
<path fill="none" stroke="midnightblue" d="M2014.3,-348.403C2005.58,-339.225 1991.57,-324.47 1980.78,-313.117"/>
<polygon fill="midnightblue" stroke="midnightblue" points="1983.05,-310.42 1973.62,-305.581 1977.97,-315.241 1983.05,-310.42"/>
</g>
<!-- Node37 -->
<g id="node37" class="node"><title>Node37</title>
<polygon fill="none" stroke="#bfbfbf" points="2026.97,-286.5 2026.97,-305.5 2131.97,-305.5 2131.97,-286.5 2026.97,-286.5"/>
<text text-anchor="middle" x="2079.47" y="-293.5" font-family="Helvetica,sans-Serif" font-size="10.00">faceTetPolyPatch.H</text>
</g>
<!-- Node2&#45;&gt;Node37 -->
<g id="edge54" class="edge"><title>Node2&#45;&gt;Node37</title>
<path fill="none" stroke="midnightblue" d="M2030.64,-348.403C2039.36,-339.225 2053.37,-324.47 2064.16,-313.117"/>
<polygon fill="midnightblue" stroke="midnightblue" points="2066.97,-315.241 2071.32,-305.581 2061.89,-310.42 2066.97,-315.241"/>
</g>
<!-- Node38 -->
<g id="node38" class="node"><title>Node38</title>
<polygon fill="none" stroke="#bfbfbf" points="2149.97,-286.5 2149.97,-305.5 2286.97,-305.5 2286.97,-286.5 2149.97,-286.5"/>
<text text-anchor="middle" x="2218.47" y="-293.5" font-family="Helvetica,sans-Serif" font-size="10.00">tetPolyPatchInterpolation.H</text>
</g>
<!-- Node2&#45;&gt;Node38 -->
<g id="edge55" class="edge"><title>Node2&#45;&gt;Node38</title>
<path fill="none" stroke="midnightblue" d="M2050.55,-348.403C2084.75,-337.933 2142.67,-320.205 2180.74,-308.55"/>
<polygon fill="midnightblue" stroke="midnightblue" points="2181.9,-311.855 2190.44,-305.581 2179.85,-305.161 2181.9,-311.855"/>
</g>
<!-- Node39 -->
<g id="node39" class="node"><title>Node39</title>
<polygon fill="none" stroke="#bfbfbf" points="2305.47,-286.5 2305.47,-305.5 2463.47,-305.5 2463.47,-286.5 2305.47,-286.5"/>
<text text-anchor="middle" x="2384.47" y="-293.5" font-family="Helvetica,sans-Serif" font-size="10.00">fixedValueTetPolyPatchFields.H</text>
</g>
<!-- Node2&#45;&gt;Node39 -->
<g id="edge56" class="edge"><title>Node2&#45;&gt;Node39</title>
<path fill="none" stroke="midnightblue" d="M2063.18,-350.337C2116.53,-341.593 2213.03,-325.742 2295.47,-312 2304.76,-310.451 2314.6,-308.803 2324.21,-307.187"/>
<polygon fill="midnightblue" stroke="midnightblue" points="2324.83,-310.631 2334.11,-305.52 2323.67,-303.728 2324.83,-310.631"/>
</g>
<!-- Node40 -->
<g id="node40" class="node"><title>Node40</title>
<polygon fill="none" stroke="#bfbfbf" points="2481.97,-286.5 2481.97,-305.5 2628.97,-305.5 2628.97,-286.5 2481.97,-286.5"/>
<text text-anchor="middle" x="2555.47" y="-293.5" font-family="Helvetica,sans-Serif" font-size="10.00">fixedValuePointPatchFields.H</text>
</g>
<!-- Node2&#45;&gt;Node40 -->
<g id="edge57" class="edge"><title>Node2&#45;&gt;Node40</title>
<path fill="none" stroke="midnightblue" d="M2063.24,-354.01C2142.37,-347.966 2322.21,-333.057 2472.47,-312 2482.05,-310.658 2492.21,-309.009 2502.02,-307.302"/>
<polygon fill="midnightblue" stroke="midnightblue" points="2502.84,-310.712 2512.07,-305.513 2501.61,-303.82 2502.84,-310.712"/>
</g>
<!-- Node41 -->
<g id="node41" class="node"><title>Node41</title>
<polygon fill="none" stroke="#bfbfbf" points="2646.97,-286.5 2646.97,-305.5 2717.97,-305.5 2717.97,-286.5 2646.97,-286.5"/>
<text text-anchor="middle" x="2682.47" y="-293.5" font-family="Helvetica,sans-Serif" font-size="10.00">OFstream.H</text>
</g>
<!-- Node2&#45;&gt;Node41 -->
<g id="edge58" class="edge"><title>Node2&#45;&gt;Node41</title>
<path fill="none" stroke="midnightblue" d="M2063.23,-357.493C2162.52,-357.944 2424.37,-354.621 2637.47,-312 2641.74,-311.146 2646.17,-310.005 2650.5,-308.732"/>
<polygon fill="midnightblue" stroke="midnightblue" points="2651.87,-311.968 2660.33,-305.594 2649.74,-305.299 2651.87,-311.968"/>
</g>
<!-- Node42 -->
<g id="node42" class="node"><title>Node42</title>
<polygon fill="none" stroke="#bfbfbf" points="2735.97,-286.5 2735.97,-305.5 2836.97,-305.5 2836.97,-286.5 2735.97,-286.5"/>
<text text-anchor="middle" x="2786.47" y="-293.5" font-family="Helvetica,sans-Serif" font-size="10.00">EulerDdtScheme.H</text>
</g>
<!-- Node2&#45;&gt;Node42 -->
<g id="edge59" class="edge"><title>Node2&#45;&gt;Node42</title>
<path fill="none" stroke="midnightblue" d="M2063.23,-356.966C2171.76,-356.322 2476.57,-350.895 2726.47,-312 2733.17,-310.957 2740.22,-309.516 2747.03,-307.936"/>
<polygon fill="midnightblue" stroke="midnightblue" points="2747.9,-311.328 2756.78,-305.553 2746.23,-304.528 2747.9,-311.328"/>
</g>
<!-- Node43 -->
<g id="node43" class="node"><title>Node43</title>
<polygon fill="none" stroke="#bfbfbf" points="2854.97,-286.5 2854.97,-305.5 2975.97,-305.5 2975.97,-286.5 2854.97,-286.5"/>
<text text-anchor="middle" x="2915.47" y="-293.5" font-family="Helvetica,sans-Serif" font-size="10.00">backwardDdtScheme.H</text>
</g>
<!-- Node2&#45;&gt;Node43 -->
<g id="edge60" class="edge"><title>Node2&#45;&gt;Node43</title>
<path fill="none" stroke="midnightblue" d="M2063.36,-357.021C2183.76,-356.598 2547.26,-351.854 2845.47,-312 2853.7,-310.9 2862.41,-309.352 2870.78,-307.665"/>
<polygon fill="midnightblue" stroke="midnightblue" points="2871.7,-311.047 2880.76,-305.559 2870.26,-304.197 2871.7,-311.047"/>
</g>
<!-- Node44 -->
<g id="node44" class="node"><title>Node44</title>
<polygon fill="none" stroke="#bfbfbf" points="2994.47,-286.5 2994.47,-305.5 3068.47,-305.5 3068.47,-286.5 2994.47,-286.5"/>
<text text-anchor="middle" x="3031.47" y="-293.5" font-family="Helvetica,sans-Serif" font-size="10.00">pointFields.H</text>
</g>
<!-- Node2&#45;&gt;Node44 -->
<g id="edge61" class="edge"><title>Node2&#45;&gt;Node44</title>
<path fill="none" stroke="midnightblue" d="M2063.18,-356.514C2222.44,-354.395 2803.35,-344.553 2984.47,-312 2989.28,-311.136 2994.27,-309.914 2999.13,-308.535"/>
<polygon fill="midnightblue" stroke="midnightblue" points="3000.3,-311.838 3008.82,-305.549 2998.24,-305.148 3000.3,-311.838"/>
</g>
<!-- Node45 -->
<g id="node45" class="node"><title>Node45</title>
<polygon fill="none" stroke="#bfbfbf" points="3086.47,-286.5 3086.47,-305.5 3234.47,-305.5 3234.47,-286.5 3086.47,-286.5"/>
<text text-anchor="middle" x="3160.47" y="-293.5" font-family="Helvetica,sans-Serif" font-size="10.00">fixedGradientFvPatchFields.H</text>
</g>
<!-- Node2&#45;&gt;Node45 -->
<g id="edge62" class="edge"><title>Node2&#45;&gt;Node45</title>
<path fill="none" stroke="midnightblue" d="M2063.36,-357.253C2204.53,-357.703 2684.36,-355.7 3077.47,-312 3087.95,-310.835 3099.1,-309.139 3109.71,-307.303"/>
<polygon fill="midnightblue" stroke="midnightblue" points="3110.46,-310.725 3119.68,-305.512 3109.22,-303.835 3110.46,-310.725"/>
</g>
<!-- Node46 -->
<g id="node46" class="node"><title>Node46</title>
<polygon fill="none" stroke="#bfbfbf" points="3252.97,-286.5 3252.97,-305.5 3395.97,-305.5 3395.97,-286.5 3252.97,-286.5"/>
<text text-anchor="middle" x="3324.47" y="-293.5" font-family="Helvetica,sans-Serif" font-size="10.00">primitivePatchInterpolation.H</text>
</g>
<!-- Node2&#45;&gt;Node46 -->
<g id="edge63" class="edge"><title>Node2&#45;&gt;Node46</title>
<path fill="none" stroke="midnightblue" d="M2063.25,-356.3C2247.91,-353.005 3007.06,-338.104 3243.47,-312 3253.6,-310.882 3264.36,-309.224 3274.63,-307.414"/>
<polygon fill="midnightblue" stroke="midnightblue" points="3275.48,-310.816 3284.68,-305.567 3274.21,-303.931 3275.48,-310.816"/>
</g>
<!-- Node47 -->
<g id="node47" class="node"><title>Node47</title>
<polygon fill="none" stroke="#bfbfbf" points="3413.97,-286.5 3413.97,-305.5 3526.97,-305.5 3526.97,-286.5 3413.97,-286.5"/>
<text text-anchor="middle" x="3470.47" y="-293.5" font-family="Helvetica,sans-Serif" font-size="10.00">twoDPointCorrector.H</text>
</g>
<!-- Node2&#45;&gt;Node47 -->
<g id="edge64" class="edge"><title>Node2&#45;&gt;Node47</title>
<path fill="none" stroke="midnightblue" d="M2063.21,-356.723C2262.41,-355.207 3135.13,-346.669 3404.47,-312 3412.34,-310.987 3420.64,-309.466 3428.61,-307.774"/>
<polygon fill="midnightblue" stroke="midnightblue" points="3429.47,-311.169 3438.46,-305.566 3427.94,-304.338 3429.47,-311.169"/>
</g>
<!-- Node48 -->
<g id="node48" class="node"><title>Node48</title>
<polygon fill="none" stroke="#bfbfbf" points="3544.97,-286.5 3544.97,-305.5 3629.97,-305.5 3629.97,-286.5 3544.97,-286.5"/>
<text text-anchor="middle" x="3587.47" y="-293.5" font-family="Helvetica,sans-Serif" font-size="10.00">scalarIOField.H</text>
</g>
<!-- Node2&#45;&gt;Node48 -->
<g id="edge65" class="edge"><title>Node2&#45;&gt;Node48</title>
<path fill="none" stroke="midnightblue" d="M2063.22,-357.169C2273.78,-357.832 3239.98,-358.258 3535.47,-312 3541.1,-311.119 3546.98,-309.814 3552.67,-308.335"/>
<polygon fill="midnightblue" stroke="midnightblue" points="3553.95,-311.612 3562.63,-305.54 3552.06,-304.873 3553.95,-311.612"/>
</g>
<!-- Node49 -->
<g id="node49" class="node"><title>Node49</title>
<polygon fill="none" stroke="#bfbfbf" points="3648.47,-286.5 3648.47,-305.5 3822.47,-305.5 3822.47,-286.5 3648.47,-286.5"/>
<text text-anchor="middle" x="3735.47" y="-293.5" font-family="Helvetica,sans-Serif" font-size="10.00">leastSquaresVolPointInterpolation.H</text>
</g>
<!-- Node2&#45;&gt;Node49 -->
<g id="edge66" class="edge"><title>Node2&#45;&gt;Node49</title>
<path fill="none" stroke="midnightblue" d="M2062.99,-356.562C2281.27,-354.101 3318.95,-341.038 3638.47,-312 3651.32,-310.832 3665.07,-309.041 3678.04,-307.1"/>
<polygon fill="midnightblue" stroke="midnightblue" points="3678.91,-310.508 3688.25,-305.519 3677.84,-303.59 3678.91,-310.508"/>
</g>
<!-- Node50 -->
<g id="node50" class="node"><title>Node50</title>
<polygon fill="none" stroke="#bfbfbf" points="3840.47,-286.5 3840.47,-305.5 3956.47,-305.5 3956.47,-286.5 3840.47,-286.5"/>
<text text-anchor="middle" x="3898.47" y="-293.5" font-family="Helvetica,sans-Serif" font-size="10.00">symmetryPolyPatch.H</text>
</g>
<!-- Node2&#45;&gt;Node50 -->
<g id="edge67" class="edge"><title>Node2&#45;&gt;Node50</title>
<path fill="none" stroke="midnightblue" d="M2063.18,-357.068C2297.15,-357.296 3472.7,-356.192 3831.47,-312 3839.63,-310.995 3848.25,-309.443 3856.5,-307.712"/>
<polygon fill="midnightblue" stroke="midnightblue" points="3857.31,-311.117 3866.32,-305.536 3855.8,-304.283 3857.31,-311.117"/>
</g>
<!-- Node4 -->
<g id="node4" class="node"><title>Node4</title>
<g id="a_node4"><a xlink:href="com__c_8h.html" target="_top" xlink:title="This file contains the C wrapper for COM_base. ">
<polygon fill="none" stroke="black" points="426.47,-168.5 426.47,-187.5 480.47,-187.5 480.47,-168.5 426.47,-168.5"/>
<text text-anchor="middle" x="453.47" y="-175.5" font-family="Helvetica,sans-Serif" font-size="10.00">com_c.h</text>
</a>
</g>
</g>
<!-- Node3&#45;&gt;Node4 -->
<g id="edge3" class="edge"><title>Node3&#45;&gt;Node4</title>
<path fill="none" stroke="midnightblue" d="M479.351,-224.083C475.062,-216.613 468.812,-205.724 463.528,-196.52"/>
<polygon fill="midnightblue" stroke="midnightblue" points="466.508,-194.681 458.494,-187.751 460.437,-198.166 466.508,-194.681"/>
</g>
<!-- Node5 -->
<g id="node5" class="node"><title>Node5</title>
<g id="a_node5"><a xlink:href="com__basic_8h.html" target="_top" xlink:title="This file contains some definitions of macros and constants for COM. ">
<polygon fill="none" stroke="red" points="317.47,-56.5 317.47,-75.5 389.47,-75.5 389.47,-56.5 317.47,-56.5"/>
<text text-anchor="middle" x="353.47" y="-63.5" font-family="Helvetica,sans-Serif" font-size="10.00">com_basic.h</text>
</a>
</g>
</g>
<!-- Node4&#45;&gt;Node5 -->
<g id="edge4" class="edge"><title>Node4&#45;&gt;Node5</title>
<path fill="none" stroke="midnightblue" d="M448.61,-168.448C441.008,-155.466 425.411,-130.357 408.47,-112 398.17,-100.84 385.059,-90.0078 374.222,-81.7688"/>
<polygon fill="midnightblue" stroke="midnightblue" points="376.233,-78.903 366.115,-75.7605 372.065,-84.5268 376.233,-78.903"/>
</g>
<!-- Node6 -->
<g id="node6" class="node"><title>Node6</title>
<g id="a_node6"><a xlink:href="commpi_8h.html" target="_top" xlink:title="Contains declarations of MPI subroutines used in COPM. ">
<polygon fill="none" stroke="red" points="340.97,-112.5 340.97,-131.5 399.97,-131.5 399.97,-112.5 340.97,-112.5"/>
<text text-anchor="middle" x="370.47" y="-119.5" font-family="Helvetica,sans-Serif" font-size="10.00">commpi.h</text>
</a>
</g>
</g>
<!-- Node4&#45;&gt;Node6 -->
<g id="edge5" class="edge"><title>Node4&#45;&gt;Node6</title>
<path fill="none" stroke="midnightblue" d="M440.134,-168.324C427.308,-159.979 407.685,-147.212 392.53,-137.352"/>
<polygon fill="midnightblue" stroke="midnightblue" points="394.063,-134.174 383.772,-131.655 390.246,-140.042 394.063,-134.174"/>
</g>
<!-- Node7 -->
<g id="node7" class="node"><title>Node7</title>
<polygon fill="none" stroke="#bfbfbf" points="456.97,-112.5 456.97,-131.5 505.97,-131.5 505.97,-112.5 456.97,-112.5"/>
<text text-anchor="middle" x="481.47" y="-119.5" font-family="Helvetica,sans-Serif" font-size="10.00">string.h</text>
</g>
<!-- Node4&#45;&gt;Node7 -->
<g id="edge6" class="edge"><title>Node4&#45;&gt;Node7</title>
<path fill="none" stroke="midnightblue" d="M458.093,-168.083C461.926,-160.691 467.494,-149.953 472.234,-140.811"/>
<polygon fill="midnightblue" stroke="midnightblue" points="475.436,-142.24 476.932,-131.751 469.222,-139.018 475.436,-142.24"/>
</g>
<!-- Node9 -->
<g id="node9" class="node"><title>Node9</title>
<g id="a_node9"><a xlink:href="DataItem_8hpp.html" target="_top" xlink:title="DataItem.hpp">
<polygon fill="none" stroke="red" points="18.4698,-56.5 18.4698,-75.5 94.4698,-75.5 94.4698,-56.5 18.4698,-56.5"/>
<text text-anchor="middle" x="56.4698" y="-63.5" font-family="Helvetica,sans-Serif" font-size="10.00">DataItem.hpp</text>
</a>
</g>
</g>
<!-- Node8&#45;&gt;Node9 -->
<g id="edge8" class="edge"><title>Node8&#45;&gt;Node9</title>
<path fill="none" stroke="midnightblue" d="M137.496,-286.344C117.438,-277.905 88.4856,-263.496 68.4698,-244 27.0805,-203.686 17.6722,-187.742 2.46984,-132 0.131019,-123.424 -1.30043,-120.05 2.46984,-112 8.51466,-99.0941 20.2817,-88.5985 31.2924,-80.9999"/>
<polygon fill="midnightblue" stroke="midnightblue" points="33.2974,-83.8723 39.8368,-75.5364 29.5264,-77.9748 33.2974,-83.8723"/>
</g>
<!-- Node11 -->
<g id="node11" class="node"><title>Node11</title>
<g id="a_node11"><a xlink:href="Connectivity_8hpp.html" target="_top" xlink:title="Connectivity.hpp">
<polygon fill="none" stroke="black" points="11.4698,-112.5 11.4698,-131.5 101.47,-131.5 101.47,-112.5 11.4698,-112.5"/>
<text text-anchor="middle" x="56.4698" y="-119.5" font-family="Helvetica,sans-Serif" font-size="10.00">Connectivity.hpp</text>
</a>
</g>
</g>
<!-- Node8&#45;&gt;Node11 -->
<g id="edge10" class="edge"><title>Node8&#45;&gt;Node11</title>
<path fill="none" stroke="midnightblue" d="M138.848,-286.464C120.951,-278.265 96.2986,-264.14 82.4698,-244 61.0598,-212.818 56.8006,-167.304 56.2286,-141.914"/>
<polygon fill="midnightblue" stroke="midnightblue" points="59.7281,-141.77 56.177,-131.788 52.7281,-141.806 59.7281,-141.77"/>
</g>
<!-- Node12 -->
<g id="node12" class="node"><title>Node12</title>
<g id="a_node12"><a xlink:href="Function_8hpp.html" target="_top" xlink:title="Contains the prototypes and implementation for the Funcion object. ">
<polygon fill="none" stroke="red" points="177.97,-168.5 177.97,-187.5 250.97,-187.5 250.97,-168.5 177.97,-168.5"/>
<text text-anchor="middle" x="214.47" y="-175.5" font-family="Helvetica,sans-Serif" font-size="10.00">Function.hpp</text>
</a>
</g>
</g>
<!-- Node8&#45;&gt;Node12 -->
<g id="edge12" class="edge"><title>Node8&#45;&gt;Node12</title>
<path fill="none" stroke="midnightblue" d="M181.564,-286.428C198.49,-278.284 221.08,-264.256 231.47,-244 239.181,-228.967 232.724,-210.137 225.663,-196.619"/>
<polygon fill="midnightblue" stroke="midnightblue" points="228.633,-194.763 220.609,-187.845 222.567,-198.258 228.633,-194.763"/>
</g>
<!-- Node14 -->
<g id="node14" class="node"><title>Node14</title>
<g id="a_node14"><a xlink:href="Pane_8hpp.html" target="_top" xlink:title="Pane.hpp">
<polygon fill="none" stroke="red" points="80.4698,-168.5 80.4698,-187.5 138.47,-187.5 138.47,-168.5 80.4698,-168.5"/>
<text text-anchor="middle" x="109.47" y="-175.5" font-family="Helvetica,sans-Serif" font-size="10.00">Pane.hpp</text>
</a>
</g>
</g>
<!-- Node8&#45;&gt;Node14 -->
<g id="edge18" class="edge"><title>Node8&#45;&gt;Node14</title>
<path fill="none" stroke="midnightblue" d="M139.376,-286.428C122.45,-278.284 99.8599,-264.256 89.4698,-244 81.6648,-228.784 89.0943,-209.978 97.0178,-196.516"/>
<polygon fill="midnightblue" stroke="midnightblue" points="100.172,-198.083 102.664,-187.785 94.2944,-194.281 100.172,-198.083"/>
</g>
<!-- Node15 -->
<g id="node15" class="node"><title>Node15</title>
<g id="a_node15"><a xlink:href="ComponentInterface_8hpp.html" target="_top" xlink:title="Contains the prototypes for the ComponentInterface object. ">
<polygon fill="none" stroke="red" points="98.4698,-224.5 98.4698,-243.5 222.47,-243.5 222.47,-224.5 98.4698,-224.5"/>
<text text-anchor="middle" x="160.47" y="-231.5" font-family="Helvetica,sans-Serif" font-size="10.00">ComponentInterface.hpp</text>
</a>
</g>
</g>
<!-- Node8&#45;&gt;Node15 -->
<g id="edge21" class="edge"><title>Node8&#45;&gt;Node15</title>
<path fill="none" stroke="midnightblue" d="M160.47,-286.403C160.47,-277.938 160.47,-264.728 160.47,-253.82"/>
<polygon fill="midnightblue" stroke="midnightblue" points="163.97,-253.581 160.47,-243.581 156.97,-253.581 163.97,-253.581"/>
</g>
<!-- Node13 -->
<g id="node13" class="node"><title>Node13</title>
<g id="a_node13"><a xlink:href="com__assertion_8h.html" target="_top" xlink:title="This file contains a set of routines for error assertion. ">
<polygon fill="none" stroke="black" points="233.97,-112.5 233.97,-131.5 322.97,-131.5 322.97,-112.5 233.97,-112.5"/>
<text text-anchor="middle" x="278.47" y="-119.5" font-family="Helvetica,sans-Serif" font-size="10.00">com_assertion.h</text>
</a>
</g>
</g>
<!-- Node8&#45;&gt;Node13 -->
<g id="edge24" class="edge"><title>Node8&#45;&gt;Node13</title>
<path fill="none" stroke="midnightblue" d="M185.532,-286.478C205.236,-278.507 231.877,-264.695 247.47,-244 270.555,-213.36 276.538,-167.285 278.032,-141.739"/>
<polygon fill="midnightblue" stroke="midnightblue" points="281.536,-141.71 278.447,-131.576 274.542,-141.424 281.536,-141.71"/>
</g>
<!-- Node10 -->
<g id="node10" class="node"><title>Node10</title>
<polygon fill="none" stroke="#bfbfbf" points="108.97,-0.5 108.97,-19.5 149.97,-19.5 149.97,-0.5 108.97,-0.5"/>
<text text-anchor="middle" x="129.47" y="-7.5" font-family="Helvetica,sans-Serif" font-size="10.00">string</text>
</g>
<!-- Node9&#45;&gt;Node10 -->
<g id="edge9" class="edge"><title>Node9&#45;&gt;Node10</title>
<path fill="none" stroke="midnightblue" d="M68.1986,-56.324C79.3072,-48.1066 96.212,-35.6017 109.453,-25.8069"/>
<polygon fill="midnightblue" stroke="midnightblue" points="111.57,-28.5948 117.528,-19.8339 107.407,-22.9671 111.57,-28.5948"/>
</g>
<!-- Node11&#45;&gt;Node9 -->
<g id="edge11" class="edge"><title>Node11&#45;&gt;Node9</title>
<path fill="none" stroke="midnightblue" d="M56.4698,-112.083C56.4698,-105.006 56.4698,-94.8611 56.4698,-85.9865"/>
<polygon fill="midnightblue" stroke="midnightblue" points="59.9699,-85.751 56.4698,-75.7511 52.9699,-85.7511 59.9699,-85.751"/>
</g>
<!-- Node12&#45;&gt;Node10 -->
<g id="edge13" class="edge"><title>Node12&#45;&gt;Node10</title>
<path fill="none" stroke="midnightblue" d="M209.9,-168.075C196.404,-141.719 156.546,-63.878 138.513,-28.6608"/>
<polygon fill="midnightblue" stroke="midnightblue" points="141.53,-26.8739 133.857,-19.5681 135.3,-30.0643 141.53,-26.8739"/>
</g>
<!-- Node12&#45;&gt;Node6 -->
<g id="edge14" class="edge"><title>Node12&#45;&gt;Node6</title>
<path fill="none" stroke="midnightblue" d="M239.189,-168.444C265.318,-159.399 306.729,-145.064 336.046,-134.916"/>
<polygon fill="midnightblue" stroke="midnightblue" points="337.562,-138.095 345.867,-131.516 335.272,-131.48 337.562,-138.095"/>
</g>
<!-- Node12&#45;&gt;Node5 -->
<g id="edge15" class="edge"><title>Node12&#45;&gt;Node5</title>
<path fill="none" stroke="midnightblue" d="M213.21,-168.3C211.746,-154.664 211.034,-128.15 224.47,-112 244.803,-87.5588 279.209,-76.3753 307.376,-71.2668"/>
<polygon fill="midnightblue" stroke="midnightblue" points="308.118,-74.6926 317.434,-69.6463 307.004,-67.7817 308.118,-74.6926"/>
</g>
<!-- Node12&#45;&gt;Node13 -->
<g id="edge16" class="edge"><title>Node12&#45;&gt;Node13</title>
<path fill="none" stroke="midnightblue" d="M224.753,-168.324C234.306,-160.263 248.75,-148.077 260.254,-138.369"/>
<polygon fill="midnightblue" stroke="midnightblue" points="262.614,-140.958 268,-131.834 258.1,-135.608 262.614,-140.958"/>
</g>
<!-- Node13&#45;&gt;Node5 -->
<g id="edge17" class="edge"><title>Node13&#45;&gt;Node5</title>
<path fill="none" stroke="midnightblue" d="M290.52,-112.324C301.933,-104.107 319.301,-91.6017 332.905,-81.8069"/>
<polygon fill="midnightblue" stroke="midnightblue" points="335.13,-84.5174 341.201,-75.8339 331.04,-78.8366 335.13,-84.5174"/>
</g>
<!-- Node14&#45;&gt;Node10 -->
<g id="edge19" class="edge"><title>Node14&#45;&gt;Node10</title>
<path fill="none" stroke="midnightblue" d="M110.545,-168.075C113.693,-141.945 122.938,-65.2106 127.232,-29.577"/>
<polygon fill="midnightblue" stroke="midnightblue" points="130.716,-29.915 128.438,-19.5681 123.766,-29.0776 130.716,-29.915"/>
</g>
<!-- Node14&#45;&gt;Node11 -->
<g id="edge20" class="edge"><title>Node14&#45;&gt;Node11</title>
<path fill="none" stroke="midnightblue" d="M100.718,-168.083C93.0001,-160.22 81.5652,-148.569 72.2533,-139.081"/>
<polygon fill="midnightblue" stroke="midnightblue" points="74.5615,-136.436 65.0589,-131.751 69.5657,-141.34 74.5615,-136.436"/>
</g>
<!-- Node15&#45;&gt;Node12 -->
<g id="edge22" class="edge"><title>Node15&#45;&gt;Node12</title>
<path fill="none" stroke="midnightblue" d="M169.387,-224.083C177.25,-216.22 188.901,-204.569 198.389,-195.081"/>
<polygon fill="midnightblue" stroke="midnightblue" points="201.123,-197.297 205.719,-187.751 196.173,-192.347 201.123,-197.297"/>
</g>
<!-- Node15&#45;&gt;Node14 -->
<g id="edge23" class="edge"><title>Node15&#45;&gt;Node14</title>
<path fill="none" stroke="midnightblue" d="M152.048,-224.083C144.622,-216.22 133.618,-204.569 124.658,-195.081"/>
<polygon fill="midnightblue" stroke="midnightblue" points="127.146,-192.618 117.735,-187.751 122.056,-197.424 127.146,-192.618"/>
</g>
<!-- Node17 -->
<g id="node17" class="node"><title>Node17</title>
<g id="a_node17"><a xlink:href="FEM_8H.html" target="_top" xlink:title="Finite Element Stuff. ">
<polygon fill="none" stroke="red" points="993.47,-168.5 993.47,-187.5 1041.47,-187.5 1041.47,-168.5 993.47,-168.5"/>
<text text-anchor="middle" x="1017.47" y="-175.5" font-family="Helvetica,sans-Serif" font-size="10.00">FEM.H</text>
</a>
</g>
</g>
<!-- Node16&#45;&gt;Node17 -->
<g id="edge26" class="edge"><title>Node16&#45;&gt;Node17</title>
<path fill="none" stroke="midnightblue" d="M890.396,-224.444C915.689,-215.399 955.772,-201.064 984.15,-190.916"/>
<polygon fill="midnightblue" stroke="midnightblue" points="985.418,-194.179 993.655,-187.516 983.061,-187.588 985.418,-194.179"/>
</g>
<!-- Node18 -->
<g id="node18" class="node"><title>Node18</title>
<g id="a_node18"><a xlink:href="FieldData_8H.html" target="_top" xlink:title="Finite Element Stuff. ">
<polygon fill="none" stroke="black" points="905.97,-168.5 905.97,-187.5 974.97,-187.5 974.97,-168.5 905.97,-168.5"/>
<text text-anchor="middle" x="940.47" y="-175.5" font-family="Helvetica,sans-Serif" font-size="10.00">FieldData.H</text>
</a>
</g>
</g>
<!-- Node16&#45;&gt;Node18 -->
<g id="edge27" class="edge"><title>Node16&#45;&gt;Node18</title>
<path fill="none" stroke="midnightblue" d="M878.359,-224.324C889.62,-216.107 906.756,-203.602 920.179,-193.807"/>
<polygon fill="midnightblue" stroke="midnightblue" points="922.349,-196.556 928.364,-187.834 918.223,-190.901 922.349,-196.556"/>
</g>
<!-- Node19 -->
<g id="node19" class="node"><title>Node19</title>
<g id="a_node19"><a xlink:href="NetUtils_8H.html" target="_top" xlink:title="TCP/IP Network Utilities Interface. ">
<polygon fill="none" stroke="red" points="706.97,-168.5 706.97,-187.5 769.97,-187.5 769.97,-168.5 706.97,-168.5"/>
<text text-anchor="middle" x="738.47" y="-175.5" font-family="Helvetica,sans-Serif" font-size="10.00">NetUtils.H</text>
</a>
</g>
</g>
<!-- Node16&#45;&gt;Node19 -->
<g id="edge28" class="edge"><title>Node16&#45;&gt;Node19</title>
<path fill="none" stroke="midnightblue" d="M846.188,-224.444C825.123,-215.557 791.953,-201.563 767.984,-191.451"/>
<polygon fill="midnightblue" stroke="midnightblue" points="769.231,-188.179 758.657,-187.516 766.51,-194.628 769.231,-188.179"/>
</g>
<!-- Node23 -->
<g id="node23" class="node"><title>Node23</title>
<g id="a_node23"><a xlink:href="FDUtils_8H.html" target="_top" xlink:title="Implementation of stream object for Unix file descriptors. ">
<polygon fill="none" stroke="red" points="826.97,-168.5 826.97,-187.5 887.97,-187.5 887.97,-168.5 826.97,-168.5"/>
<text text-anchor="middle" x="857.47" y="-175.5" font-family="Helvetica,sans-Serif" font-size="10.00">FDUtils.H</text>
</a>
</g>
</g>
<!-- Node16&#45;&gt;Node23 -->
<g id="edge32" class="edge"><title>Node16&#45;&gt;Node23</title>
<path fill="none" stroke="midnightblue" d="M864.984,-224.083C863.791,-216.927 862.076,-206.635 860.585,-197.691"/>
<polygon fill="midnightblue" stroke="midnightblue" points="864.025,-197.04 858.928,-187.751 857.12,-198.19 864.025,-197.04"/>
</g>
<!-- Node20 -->
<g id="node20" class="node"><title>Node20</title>
<polygon fill="none" stroke="#bfbfbf" points="705.97,-112.5 705.97,-131.5 750.97,-131.5 750.97,-112.5 705.97,-112.5"/>
<text text-anchor="middle" x="728.47" y="-119.5" font-family="Helvetica,sans-Serif" font-size="10.00">cstdlib</text>
</g>
<!-- Node19&#45;&gt;Node20 -->
<g id="edge29" class="edge"><title>Node19&#45;&gt;Node20</title>
<path fill="none" stroke="midnightblue" d="M736.819,-168.083C735.493,-160.927 733.587,-150.635 731.931,-141.691"/>
<polygon fill="midnightblue" stroke="midnightblue" points="735.353,-140.947 730.09,-131.751 728.47,-142.221 735.353,-140.947"/>
</g>
<!-- Node21 -->
<g id="node21" class="node"><title>Node21</title>
<polygon fill="none" stroke="#bfbfbf" points="775.47,-112.5 775.47,-131.5 821.47,-131.5 821.47,-112.5 775.47,-112.5"/>
<text text-anchor="middle" x="798.47" y="-119.5" font-family="Helvetica,sans-Serif" font-size="10.00">cstring</text>
</g>
<!-- Node19&#45;&gt;Node21 -->
<g id="edge30" class="edge"><title>Node19&#45;&gt;Node21</title>
<path fill="none" stroke="midnightblue" d="M748.11,-168.324C756.979,-160.341 770.345,-148.313 781.078,-138.653"/>
<polygon fill="midnightblue" stroke="midnightblue" points="783.563,-141.125 788.654,-131.834 778.88,-135.922 783.563,-141.125"/>
</g>
<!-- Node22 -->
<g id="node22" class="node"><title>Node22</title>
<polygon fill="none" stroke="#bfbfbf" points="620.47,-112.5 620.47,-131.5 674.47,-131.5 674.47,-112.5 620.47,-112.5"/>
<text text-anchor="middle" x="647.47" y="-119.5" font-family="Helvetica,sans-Serif" font-size="10.00">iostream</text>
</g>
<!-- Node19&#45;&gt;Node22 -->
<g id="edge31" class="edge"><title>Node19&#45;&gt;Node22</title>
<path fill="none" stroke="midnightblue" d="M723.849,-168.324C709.521,-159.822 687.457,-146.729 670.721,-136.797"/>
<polygon fill="midnightblue" stroke="midnightblue" points="672.44,-133.748 662.054,-131.655 668.868,-139.768 672.44,-133.748"/>
</g>
<!-- Node23&#45;&gt;Node21 -->
<g id="edge33" class="edge"><title>Node23&#45;&gt;Node21</title>
<path fill="none" stroke="midnightblue" d="M847.99,-168.324C839.269,-160.341 826.126,-148.313 815.572,-138.653"/>
<polygon fill="midnightblue" stroke="midnightblue" points="817.862,-136.004 808.122,-131.834 813.135,-141.167 817.862,-136.004"/>
</g>
<!-- Node24 -->
<g id="node24" class="node"><title>Node24</title>
<polygon fill="none" stroke="#bfbfbf" points="941.47,-112.5 941.47,-131.5 993.47,-131.5 993.47,-112.5 941.47,-112.5"/>
<text text-anchor="middle" x="967.47" y="-119.5" font-family="Helvetica,sans-Serif" font-size="10.00">sstream</text>
</g>
<!-- Node23&#45;&gt;Node24 -->
<g id="edge34" class="edge"><title>Node23&#45;&gt;Node24</title>
<path fill="none" stroke="midnightblue" d="M875.143,-168.324C892.864,-159.625 920.373,-146.12 940.758,-136.113"/>
<polygon fill="midnightblue" stroke="midnightblue" points="942.406,-139.203 949.84,-131.655 939.321,-132.919 942.406,-139.203"/>
</g>
<!-- Node26 -->
<g id="node26" class="node"><title>Node26</title>
<polygon fill="none" stroke="#bfbfbf" points="562.47,-224.5 562.47,-243.5 612.47,-243.5 612.47,-224.5 562.47,-224.5"/>
<text text-anchor="middle" x="587.47" y="-231.5" font-family="Helvetica,sans-Serif" font-size="10.00">iomanip</text>
</g>
<!-- Node25&#45;&gt;Node26 -->
<g id="edge36" class="edge"><title>Node25&#45;&gt;Node26</title>
<path fill="none" stroke="midnightblue" d="M632.876,-286.403C624.769,-277.225 611.735,-262.47 601.707,-251.117"/>
<polygon fill="midnightblue" stroke="midnightblue" points="604.293,-248.758 595.049,-243.581 599.047,-253.392 604.293,-248.758"/>
</g>
<!-- Node25&#45;&gt;Node16 -->
<g id="edge37" class="edge"><title>Node25&#45;&gt;Node16</title>
<path fill="none" stroke="midnightblue" d="M672.85,-286.403C712.708,-275.822 780.488,-257.827 824.358,-246.18"/>
<polygon fill="midnightblue" stroke="midnightblue" points="825.383,-249.529 834.15,-243.581 823.586,-242.764 825.383,-249.529"/>
</g>
<!-- Node25&#45;&gt;Node5 -->
<g id="edge38" class="edge"><title>Node25&#45;&gt;Node5</title>
<path fill="none" stroke="midnightblue" d="M616.004,-286.487C596.38,-278.452 569.545,-264.546 553.47,-244 515.774,-195.821 558.044,-154.937 514.47,-112 484.177,-82.1502 435.813,-71.7286 399.991,-68.2738"/>
<polygon fill="midnightblue" stroke="midnightblue" points="400.029,-64.7655 389.778,-67.4424 399.461,-71.7424 400.029,-64.7655"/>
</g>
<!-- Node25&#45;&gt;Node3 -->
<g id="edge39" class="edge"><title>Node25&#45;&gt;Node3</title>
<path fill="none" stroke="midnightblue" d="M618.119,-286.403C591.475,-276.156 546.756,-258.956 516.455,-247.302"/>
<polygon fill="midnightblue" stroke="midnightblue" points="517.369,-243.904 506.779,-243.581 514.856,-250.437 517.369,-243.904"/>
</g>
<!-- Node25&#45;&gt;Node22 -->
<g id="edge40" class="edge"><title>Node25&#45;&gt;Node22</title>
<path fill="none" stroke="midnightblue" d="M640.827,-286.234C641.913,-259.548 645.196,-178.877 646.701,-141.893"/>
<polygon fill="midnightblue" stroke="midnightblue" points="650.212,-141.678 647.122,-131.544 643.218,-141.394 650.212,-141.678"/>
</g>
<!-- Node25&#45;&gt;Node21 -->
<g id="edge41" class="edge"><title>Node25&#45;&gt;Node21</title>
<path fill="none" stroke="midnightblue" d="M657.647,-286.286C686.827,-270.612 746.059,-234.882 778.47,-188 788.016,-174.191 793.128,-155.669 795.786,-141.93"/>
<polygon fill="midnightblue" stroke="midnightblue" points="799.296,-142.162 797.486,-131.723 792.391,-141.012 799.296,-142.162"/>
</g>
<!-- Node25&#45;&gt;Node20 -->
<g id="edge42" class="edge"><title>Node25&#45;&gt;Node20</title>
<path fill="none" stroke="midnightblue" d="M643.694,-286.421C651.666,-265.561 673.411,-210.756 697.47,-168 702.936,-158.285 709.915,-148.008 715.867,-139.732"/>
<polygon fill="midnightblue" stroke="midnightblue" points="718.699,-141.788 721.802,-131.658 713.059,-137.642 718.699,-141.788"/>
</g>
<!-- Node25&#45;&gt;Node24 -->
<g id="edge43" class="edge"><title>Node25&#45;&gt;Node24</title>
<path fill="none" stroke="midnightblue" d="M685.181,-287.238C757.367,-274.627 893.735,-250.445 915.47,-244 977.746,-225.532 1014.4,-242.019 1050.47,-188 1066.27,-164.343 1032.29,-145.451 1003.15,-134.26"/>
<polygon fill="midnightblue" stroke="midnightblue" points="1004.13,-130.891 993.532,-130.764 1001.73,-137.47 1004.13,-130.891"/>
</g>
</g>
</svg>
        <g id="navigator" transform="translate(0 0)" fill="#404254">
                <rect fill="#f2f5e9" fill-opacity="0.5" stroke="#606060" stroke-width=".5" x="0" y="0" width="60" height="60"/>
                <use id="zoomplus" xlink:href="#zoomPlus" x="17" y="9" onmousedown="handleZoom(evt,'in')"/>
                <use id="zoomminus" xlink:href="#zoomMin" x="42" y="9" onmousedown="handleZoom(evt,'out')"/>
                <use id="reset" xlink:href="#resetDef" x="30" y="36" onmousedown="handleReset()"/>
                <g id="arrowUp" xlink:href="#dirArrow" transform="translate(30 24)" onmousedown="handlePan(0,-1)">
                  <use xlink:href="#rim" fill="#404040">
                        <set attributeName="fill" to="#808080" begin="arrowUp.mouseover" end="arrowUp.mouseout"/>
                  </use>
                  <path fill="none" stroke="white" stroke-width="1.5" d="M0,-3.0v7 M-2.5,-0.5L0,-3.0L2.5,-0.5"/>
                </g>
                <g id="arrowRight" xlink:href="#dirArrow" transform="rotate(90) translate(36 -43)" onmousedown="handlePan(1,0)">
                  <use xlink:href="#rim" fill="#404040">
                        <set attributeName="fill" to="#808080" begin="arrowRight.mouseover" end="arrowRight.mouseout"/>
                  </use>
                  <path fill="none" stroke="white" stroke-width="1.5" d="M0,-3.0v7 M-2.5,-0.5L0,-3.0L2.5,-0.5"/>
                </g>
                <g id="arrowDown" xlink:href="#dirArrow" transform="rotate(180) translate(-30 -48)" onmousedown="handlePan(0,1)">
                  <use xlink:href="#rim" fill="#404040">
                        <set attributeName="fill" to="#808080" begin="arrowDown.mouseover" end="arrowDown.mouseout"/>
                  </use>
                  <path fill="none" stroke="white" stroke-width="1.5" d="M0,-3.0v7 M-2.5,-0.5L0,-3.0L2.5,-0.5"/>
                </g>
                <g id="arrowLeft" xlink:href="#dirArrow" transform="rotate(270) translate(-36 17)" onmousedown="handlePan(-1,0)">
                  <use xlink:href="#rim" fill="#404040">
                        <set attributeName="fill" to="#808080" begin="arrowLeft.mouseover" end="arrowLeft.mouseout"/>
                  </use>
                  <path fill="none" stroke="white" stroke-width="1.5" d="M0,-3.0v7 M-2.5,-0.5L0,-3.0L2.5,-0.5"/>
                </g>
        </g>
        <svg viewBox="0 0 15 15" width="100%" height="30px" preserveAspectRatio="xMaxYMin meet">
         <g id="arrow_out" transform="scale(0.3 0.3)">
          <a xlink:href="lnInclude_2fsiFOAMPar_8C__incl_org.svg" target="_base">
           <rect id="button" ry="5" rx="5" y="6" x="6" height="38" width="38"
                fill="#f2f5e9" fill-opacity="0.5" stroke="#606060" stroke-width="1.0"/>
           <path id="arrow"
             d="M 11.500037,31.436501 C 11.940474,20.09759 22.043105,11.32322 32.158766,21.979434 L 37.068811,17.246167 C 37.068811,17.246167 37.088388,32 37.088388,32 L 22.160133,31.978069 C 22.160133,31.978069 26.997745,27.140456 26.997745,27.140456 C 18.528582,18.264221 13.291696,25.230495 11.500037,31.436501 z"
             style="fill:#404040;"/>
          </a>
         </g>
        </svg>
</svg>
