<?xml version="1.0" encoding="UTF-8" standalone="no"?>
<!DOCTYPE svg PUBLIC "-//W3C//DTD SVG 1.1//EN"
 "http://www.w3.org/Graphics/SVG/1.1/DTD/svg11.dtd">
<!-- Generated by graphviz version 2.30.1 (20150305.2338)
 -->
<!-- Title: fsiFOAM.H Pages: 1 -->
<!--zoomable 96 -->
<svg id="main" version="1.1" xmlns="http://www.w3.org/2000/svg" xmlns:xlink="http://www.w3.org/1999/xlink" xml:space="preserve" onload="init(evt)">
<style type="text/css"><![CDATA[
.edge:hover path { stroke: red; }
.edge:hover polygon { stroke: red; fill: red; }
]]></style>
<script type="text/javascript"><![CDATA[
var edges = document.getElementsByTagName('g');
if (edges && edges.length) {
  for (var i=0;i<edges.length;i++) {
    if (edges[i].id.substr(0,4)=='edge') {
      edges[i].setAttribute('class','edge');
    }
  }
}
]]></script>
        <defs>
                <circle id="rim" cx="0" cy="0" r="7"/>
                <circle id="rim2" cx="0" cy="0" r="3.5"/>
                <g id="zoomPlus">
                        <use xlink:href="#rim" fill="#404040">
                                <set attributeName="fill" to="#808080" begin="zoomplus.mouseover" end="zoomplus.mouseout"/>
                        </use>
                        <path d="M-4,0h8M0,-4v8" fill="none" stroke="white" stroke-width="1.5" pointer-events="none"/>
                </g>
                <g id="zoomMin">
                        <use xlink:href="#rim" fill="#404040">
                                <set attributeName="fill" to="#808080" begin="zoomminus.mouseover" end="zoomminus.mouseout"/>
                        </use>
                        <path d="M-4,0h8" fill="none" stroke="white" stroke-width="1.5" pointer-events="none"/>
                </g>
                <g id="dirArrow">
                        <path fill="none" stroke="white" stroke-width="1.5" d="M0,-3.0v7 M-2.5,-0.5L0,-3.0L2.5,-0.5"/>
                </g>
               <g id="resetDef">
                       <use xlink:href="#rim2" fill="#404040">
                               <set attributeName="fill" to="#808080" begin="reset.mouseover" end="reset.mouseout"/>
                       </use>
               </g>
        </defs>

<script type="text/javascript">
var viewWidth = 542;
var viewHeight = 96;
var sectionId = 'dynsection-1';
</script>
<script xlink:href="svgpan.js"/>
<svg id="graph" class="graph">
<g id="viewport">
<title>fsiFOAM.H</title>
<!-- Node1 -->
<g id="node1" class="node"><title>Node1</title>
<polygon fill="#bfbfbf" stroke="black" points="198,-68.5 198,-87.5 264,-87.5 264,-68.5 198,-68.5"/>
<text text-anchor="middle" x="231" y="-75.5" font-family="Helvetica,sans-Serif" font-size="10.00">fsiFOAM.H</text>
</g>
<!-- Node2 -->
<g id="node2" class="node"><title>Node2</title>
<g id="a_node2"><a xlink:href="lnInclude_2fsiFOAM_8C.html" target="_top" xlink:title="fsiFOAM.C">
<polygon fill="none" stroke="black" points="0,-6.5 0,-25.5 66,-25.5 66,-6.5 0,-6.5"/>
<text text-anchor="middle" x="33" y="-13.5" font-family="Helvetica,sans-Serif" font-size="10.00">fsiFOAM.C</text>
</a>
</g>
</g>
<!-- Node1&#45;&gt;Node2 -->
<g id="edge1" class="edge"><title>Node1&#45;&gt;Node2</title>
<path fill="none" stroke="midnightblue" d="M189.384,-65.754C157.836,-57.0453 113.49,-44.4114 75,-32 68.81,-30.004 62.1602,-27.7028 56.0188,-25.5117"/>
<polygon fill="midnightblue" stroke="midnightblue" points="188.584,-69.1637 199.154,-68.4383 190.439,-62.4139 188.584,-69.1637"/>
</g>
<!-- Node3 -->
<g id="node3" class="node"><title>Node3</title>
<g id="a_node3"><a xlink:href="lnInclude_2icoFsiElasticNonLinULSolidFoam_8C.html" target="_top" xlink:title="icoFsiElasticNonLinULSolid\lFoam.C">
<polygon fill="none" stroke="black" points="84,-1 84,-31 222,-31 222,-1 84,-1"/>
<text text-anchor="start" x="92" y="-19" font-family="Helvetica,sans-Serif" font-size="10.00">icoFsiElasticNonLinULSolid</text>
<text text-anchor="middle" x="153" y="-8" font-family="Helvetica,sans-Serif" font-size="10.00">Foam.C</text>
</a>
</g>
</g>
<!-- Node1&#45;&gt;Node3 -->
<g id="edge2" class="edge"><title>Node1&#45;&gt;Node3</title>
<path fill="none" stroke="midnightblue" d="M211.592,-62.0711C199.293,-52.6097 183.481,-40.4466 171.383,-31.1408"/>
<polygon fill="midnightblue" stroke="midnightblue" points="209.764,-65.0805 219.825,-68.4035 214.032,-59.5321 209.764,-65.0805"/>
</g>
<!-- Node4 -->
<g id="node4" class="node"><title>Node4</title>
<g id="a_node4"><a xlink:href="ar_2icoFsiElasticNonLinULSolidFoam_8C.html" target="_top" xlink:title="icoFsiElasticNonLinULSolid\lFoam.C">
<polygon fill="none" stroke="black" points="240,-1 240,-31 378,-31 378,-1 240,-1"/>
<text text-anchor="start" x="248" y="-19" font-family="Helvetica,sans-Serif" font-size="10.00">icoFsiElasticNonLinULSolid</text>
<text text-anchor="middle" x="309" y="-8" font-family="Helvetica,sans-Serif" font-size="10.00">Foam.C</text>
</a>
</g>
</g>
<!-- Node1&#45;&gt;Node4 -->
<g id="edge3" class="edge"><title>Node1&#45;&gt;Node4</title>
<path fill="none" stroke="midnightblue" d="M250.408,-62.0711C262.707,-52.6097 278.519,-40.4466 290.617,-31.1408"/>
<polygon fill="midnightblue" stroke="midnightblue" points="247.968,-59.5321 242.175,-68.4035 252.236,-65.0805 247.968,-59.5321"/>
</g>
<!-- Node5 -->
<g id="node5" class="node"><title>Node5</title>
<g id="a_node5"><a xlink:href="ar_2lnInclude_2icoFsiElasticNonLinULSolidFoam_8C.html" target="_top" xlink:title="icoFsiElasticNonLinULSolid\lFoam.C">
<polygon fill="none" stroke="black" points="396,-1 396,-31 534,-31 534,-1 396,-1"/>
<text text-anchor="start" x="404" y="-19" font-family="Helvetica,sans-Serif" font-size="10.00">icoFsiElasticNonLinULSolid</text>
<text text-anchor="middle" x="465" y="-8" font-family="Helvetica,sans-Serif" font-size="10.00">Foam.C</text>
</a>
</g>
</g>
<!-- Node1&#45;&gt;Node5 -->
<g id="edge4" class="edge"><title>Node1&#45;&gt;Node5</title>
<path fill="none" stroke="midnightblue" d="M273.841,-66.0152C312.135,-56.1962 368.46,-41.7538 410.058,-31.0878"/>
<polygon fill="midnightblue" stroke="midnightblue" points="272.847,-62.6566 264.03,-68.5307 274.586,-69.4372 272.847,-62.6566"/>
</g>
</g>
</svg>
        <g id="navigator" transform="translate(0 0)" fill="#404254">
                <rect fill="#f2f5e9" fill-opacity="0.5" stroke="#606060" stroke-width=".5" x="0" y="0" width="60" height="60"/>
                <use id="zoomplus" xlink:href="#zoomPlus" x="17" y="9" onmousedown="handleZoom(evt,'in')"/>
                <use id="zoomminus" xlink:href="#zoomMin" x="42" y="9" onmousedown="handleZoom(evt,'out')"/>
                <use id="reset" xlink:href="#resetDef" x="30" y="36" onmousedown="handleReset()"/>
                <g id="arrowUp" xlink:href="#dirArrow" transform="translate(30 24)" onmousedown="handlePan(0,-1)">
                  <use xlink:href="#rim" fill="#404040">
                        <set attributeName="fill" to="#808080" begin="arrowUp.mouseover" end="arrowUp.mouseout"/>
                  </use>
                  <path fill="none" stroke="white" stroke-width="1.5" d="M0,-3.0v7 M-2.5,-0.5L0,-3.0L2.5,-0.5"/>
                </g>
                <g id="arrowRight" xlink:href="#dirArrow" transform="rotate(90) translate(36 -43)" onmousedown="handlePan(1,0)">
                  <use xlink:href="#rim" fill="#404040">
                        <set attributeName="fill" to="#808080" begin="arrowRight.mouseover" end="arrowRight.mouseout"/>
                  </use>
                  <path fill="none" stroke="white" stroke-width="1.5" d="M0,-3.0v7 M-2.5,-0.5L0,-3.0L2.5,-0.5"/>
                </g>
                <g id="arrowDown" xlink:href="#dirArrow" transform="rotate(180) translate(-30 -48)" onmousedown="handlePan(0,1)">
                  <use xlink:href="#rim" fill="#404040">
                        <set attributeName="fill" to="#808080" begin="arrowDown.mouseover" end="arrowDown.mouseout"/>
                  </use>
                  <path fill="none" stroke="white" stroke-width="1.5" d="M0,-3.0v7 M-2.5,-0.5L0,-3.0L2.5,-0.5"/>
                </g>
                <g id="arrowLeft" xlink:href="#dirArrow" transform="rotate(270) translate(-36 17)" onmousedown="handlePan(-1,0)">
                  <use xlink:href="#rim" fill="#404040">
                        <set attributeName="fill" to="#808080" begin="arrowLeft.mouseover" end="arrowLeft.mouseout"/>
                  </use>
                  <path fill="none" stroke="white" stroke-width="1.5" d="M0,-3.0v7 M-2.5,-0.5L0,-3.0L2.5,-0.5"/>
                </g>
        </g>
        <svg viewBox="0 0 15 15" width="100%" height="30px" preserveAspectRatio="xMaxYMin meet">
         <g id="arrow_out" transform="scale(0.3 0.3)">
          <a xlink:href="lnInclude_2fsiFOAM_8H__dep__incl_org.svg" target="_base">
           <rect id="button" ry="5" rx="5" y="6" x="6" height="38" width="38"
                fill="#f2f5e9" fill-opacity="0.5" stroke="#606060" stroke-width="1.0"/>
           <path id="arrow"
             d="M 11.500037,31.436501 C 11.940474,20.09759 22.043105,11.32322 32.158766,21.979434 L 37.068811,17.246167 C 37.068811,17.246167 37.088388,32 37.088388,32 L 22.160133,31.978069 C 22.160133,31.978069 26.997745,27.140456 26.997745,27.140456 C 18.528582,18.264221 13.291696,25.230495 11.500037,31.436501 z"
             style="fill:#404040;"/>
          </a>
         </g>
        </svg>
</svg>
