<?xml version="1.0" encoding="UTF-8" standalone="no"?>
<!DOCTYPE svg PUBLIC "-//W3C//DTD SVG 1.1//EN"
 "http://www.w3.org/Graphics/SVG/1.1/DTD/svg11.dtd">
<!-- Generated by graphviz version 2.30.1 (20150305.2338)
 -->
<!-- Title: Mesh.H Pages: 1 -->
<!--zoomable 544 -->
<svg id="main" version="1.1" xmlns="http://www.w3.org/2000/svg" xmlns:xlink="http://www.w3.org/1999/xlink" xml:space="preserve" onload="init(evt)">
<style type="text/css"><![CDATA[
.edge:hover path { stroke: red; }
.edge:hover polygon { stroke: red; fill: red; }
]]></style>
<script type="text/javascript"><![CDATA[
var edges = document.getElementsByTagName('g');
if (edges && edges.length) {
  for (var i=0;i<edges.length;i++) {
    if (edges[i].id.substr(0,4)=='edge') {
      edges[i].setAttribute('class','edge');
    }
  }
}
]]></script>
        <defs>
                <circle id="rim" cx="0" cy="0" r="7"/>
                <circle id="rim2" cx="0" cy="0" r="3.5"/>
                <g id="zoomPlus">
                        <use xlink:href="#rim" fill="#404040">
                                <set attributeName="fill" to="#808080" begin="zoomplus.mouseover" end="zoomplus.mouseout"/>
                        </use>
                        <path d="M-4,0h8M0,-4v8" fill="none" stroke="white" stroke-width="1.5" pointer-events="none"/>
                </g>
                <g id="zoomMin">
                        <use xlink:href="#rim" fill="#404040">
                                <set attributeName="fill" to="#808080" begin="zoomminus.mouseover" end="zoomminus.mouseout"/>
                        </use>
                        <path d="M-4,0h8" fill="none" stroke="white" stroke-width="1.5" pointer-events="none"/>
                </g>
                <g id="dirArrow">
                        <path fill="none" stroke="white" stroke-width="1.5" d="M0,-3.0v7 M-2.5,-0.5L0,-3.0L2.5,-0.5"/>
                </g>
               <g id="resetDef">
                       <use xlink:href="#rim2" fill="#404040">
                               <set attributeName="fill" to="#808080" begin="reset.mouseover" end="reset.mouseout"/>
                       </use>
               </g>
        </defs>

<script type="text/javascript">
var viewWidth = 1543;
var viewHeight = 544;
var sectionId = 'dynsection-1';
</script>
<script xlink:href="svgpan.js"/>
<svg id="graph" class="graph">
<g id="viewport">
<title>Mesh.H</title>
<!-- Node1 -->
<g id="node1" class="node"><title>Node1</title>
<polygon fill="#bfbfbf" stroke="black" points="792.5,-516.5 792.5,-535.5 843.5,-535.5 843.5,-516.5 792.5,-516.5"/>
<text text-anchor="middle" x="818" y="-523.5" font-family="Helvetica,sans-Serif" font-size="10.00">Mesh.H</text>
</g>
<!-- Node2 -->
<g id="node2" class="node"><title>Node2</title>
<g id="a_node2"><a xlink:href="BSMesh_8H.html" target="_top" xlink:title="Block Structured Mesh stuff. ">
<polygon fill="none" stroke="black" points="664.5,-460.5 664.5,-479.5 729.5,-479.5 729.5,-460.5 664.5,-460.5"/>
<text text-anchor="middle" x="697" y="-467.5" font-family="Helvetica,sans-Serif" font-size="10.00">BSMesh.H</text>
</a>
</g>
</g>
<!-- Node1&#45;&gt;Node2 -->
<g id="edge1" class="edge"><title>Node1&#45;&gt;Node2</title>
<path fill="none" stroke="midnightblue" d="M789.694,-512.368C767.035,-502.255 735.874,-488.349 716.083,-479.516"/>
<polygon fill="midnightblue" stroke="midnightblue" points="788.269,-515.564 798.827,-516.444 791.122,-509.172 788.269,-515.564"/>
</g>
<!-- Node3 -->
<g id="node3" class="node"><title>Node3</title>
<g id="a_node3"><a xlink:href="PMesh_8H.html" target="_top" xlink:title="Parallel Mesh Stuff. ">
<polygon fill="none" stroke="black" points="748,-460.5 748,-479.5 806,-479.5 806,-460.5 748,-460.5"/>
<text text-anchor="middle" x="777" y="-467.5" font-family="Helvetica,sans-Serif" font-size="10.00">PMesh.H</text>
</a>
</g>
</g>
<!-- Node1&#45;&gt;Node3 -->
<g id="edge2" class="edge"><title>Node1&#45;&gt;Node3</title>
<path fill="none" stroke="midnightblue" d="M804.983,-507.855C797.883,-498.505 789.396,-487.327 783.644,-479.751"/>
<polygon fill="midnightblue" stroke="midnightblue" points="802.395,-510.235 811.23,-516.083 807.97,-506.002 802.395,-510.235"/>
</g>
<!-- Node35 -->
<g id="node35" class="node"><title>Node35</title>
<g id="a_node35"><a xlink:href="MeshUtils_8H.html" target="_top" xlink:title="Mesh Stuff. ">
<polygon fill="none" stroke="black" points="824.5,-460.5 824.5,-479.5 895.5,-479.5 895.5,-460.5 824.5,-460.5"/>
<text text-anchor="middle" x="860" y="-467.5" font-family="Helvetica,sans-Serif" font-size="10.00">MeshUtils.H</text>
</a>
</g>
</g>
<!-- Node1&#45;&gt;Node35 -->
<g id="edge47" class="edge"><title>Node1&#45;&gt;Node35</title>
<path fill="none" stroke="midnightblue" d="M831.11,-508.144C838.428,-498.736 847.241,-487.405 853.194,-479.751"/>
<polygon fill="midnightblue" stroke="midnightblue" points="828.312,-506.041 824.935,-516.083 833.838,-510.338 828.312,-506.041"/>
</g>
<!-- Node36 -->
<g id="node36" class="node"><title>Node36</title>
<g id="a_node36"><a xlink:href="MeshVTK_8H.html" target="_top" xlink:title="MeshVTK.H">
<polygon fill="none" stroke="black" points="913.5,-460.5 913.5,-479.5 984.5,-479.5 984.5,-460.5 913.5,-460.5"/>
<text text-anchor="middle" x="949" y="-467.5" font-family="Helvetica,sans-Serif" font-size="10.00">MeshVTK.H</text>
</a>
</g>
</g>
<!-- Node1&#45;&gt;Node36 -->
<g id="edge48" class="edge"><title>Node1&#45;&gt;Node36</title>
<path fill="none" stroke="midnightblue" d="M848.317,-512.503C872.876,-502.38 906.818,-488.388 928.34,-479.516"/>
<polygon fill="midnightblue" stroke="midnightblue" points="846.669,-509.397 838.757,-516.444 849.337,-515.868 846.669,-509.397"/>
</g>
<!-- Node4 -->
<g id="node4" class="node"><title>Node4</title>
<g id="a_node4"><a xlink:href="FEM_8H.html" target="_top" xlink:title="Finite Element Stuff. ">
<polygon fill="none" stroke="black" points="753,-404.5 753,-423.5 801,-423.5 801,-404.5 753,-404.5"/>
<text text-anchor="middle" x="777" y="-411.5" font-family="Helvetica,sans-Serif" font-size="10.00">FEM.H</text>
</a>
</g>
</g>
<!-- Node3&#45;&gt;Node4 -->
<g id="edge3" class="edge"><title>Node3&#45;&gt;Node4</title>
<path fill="none" stroke="midnightblue" d="M777,-449.805C777,-440.91 777,-430.78 777,-423.751"/>
<polygon fill="midnightblue" stroke="midnightblue" points="773.5,-450.083 777,-460.083 780.5,-450.083 773.5,-450.083"/>
</g>
<!-- Node5 -->
<g id="node5" class="node"><title>Node5</title>
<g id="a_node5"><a xlink:href="SolverAgent_8H.html" target="_top" xlink:title="SolverAgent.H">
<polygon fill="none" stroke="black" points="737,-348.5 737,-367.5 817,-367.5 817,-348.5 737,-348.5"/>
<text text-anchor="middle" x="777" y="-355.5" font-family="Helvetica,sans-Serif" font-size="10.00">SolverAgent.H</text>
</a>
</g>
</g>
<!-- Node4&#45;&gt;Node5 -->
<g id="edge4" class="edge"><title>Node4&#45;&gt;Node5</title>
<path fill="none" stroke="midnightblue" d="M777,-393.805C777,-384.91 777,-374.78 777,-367.751"/>
<polygon fill="midnightblue" stroke="midnightblue" points="773.5,-394.083 777,-404.083 780.5,-394.083 773.5,-394.083"/>
</g>
<!-- Node6 -->
<g id="node6" class="node"><title>Node6</title>
<g id="a_node6"><a xlink:href="InterfaceLayer_8H.html" target="_top" xlink:title="InterfaceLayer.H">
<polygon fill="none" stroke="black" points="630.5,-292.5 630.5,-311.5 719.5,-311.5 719.5,-292.5 630.5,-292.5"/>
<text text-anchor="middle" x="675" y="-299.5" font-family="Helvetica,sans-Serif" font-size="10.00">InterfaceLayer.H</text>
</a>
</g>
</g>
<!-- Node5&#45;&gt;Node6 -->
<g id="edge5" class="edge"><title>Node5&#45;&gt;Node6</title>
<path fill="none" stroke="midnightblue" d="M751.669,-343.59C732.81,-333.605 707.616,-320.267 691.347,-311.655"/>
<polygon fill="midnightblue" stroke="midnightblue" points="750.136,-346.738 760.612,-348.324 753.412,-340.552 750.136,-346.738"/>
</g>
<!-- Node17 -->
<g id="node17" class="node"><title>Node17</title>
<g id="a_node17"><a xlink:href="SolverModuleDriver_8H.html" target="_top" xlink:title="SolverModuleDriver.H">
<polygon fill="none" stroke="black" points="-0.5,-236.5 -0.5,-255.5 112.5,-255.5 112.5,-236.5 -0.5,-236.5"/>
<text text-anchor="middle" x="56" y="-243.5" font-family="Helvetica,sans-Serif" font-size="10.00">SolverModuleDriver.H</text>
</a>
</g>
</g>
<!-- Node5&#45;&gt;Node17 -->
<g id="edge38" class="edge"><title>Node5&#45;&gt;Node17</title>
<path fill="none" stroke="midnightblue" d="M726.359,-355.414C583.053,-350.658 181.513,-335.383 127,-312 98.1261,-299.614 73.37,-270.365 62.2555,-255.7"/>
<polygon fill="midnightblue" stroke="midnightblue" points="726.513,-358.921 736.623,-355.751 726.743,-351.925 726.513,-358.921"/>
</g>
<!-- Node19 -->
<g id="node19" class="node"><title>Node19</title>
<g id="a_node19"><a xlink:href="SolverModuleDriverParallel_8H.html" target="_top" xlink:title="SolverModuleDriverParallel.H">
<polygon fill="none" stroke="black" points="169.5,-236.5 169.5,-255.5 314.5,-255.5 314.5,-236.5 169.5,-236.5"/>
<text text-anchor="middle" x="242" y="-243.5" font-family="Helvetica,sans-Serif" font-size="10.00">SolverModuleDriverParallel.H</text>
</a>
</g>
</g>
<!-- Node5&#45;&gt;Node19 -->
<g id="edge39" class="edge"><title>Node5&#45;&gt;Node19</title>
<path fill="none" stroke="midnightblue" d="M726.752,-346.669C621.652,-325.059 380.337,-275.443 283.414,-255.515"/>
<polygon fill="midnightblue" stroke="midnightblue" points="726.288,-350.146 736.788,-348.732 727.698,-343.29 726.288,-350.146"/>
</g>
<!-- Node20 -->
<g id="node20" class="node"><title>Node20</title>
<g id="a_node20"><a xlink:href="SolverModuleDriverParallel_8C.html" target="_top" xlink:title="Main function to call the Elmer SolverModule. ">
<polygon fill="none" stroke="black" points="169.5,-174.5 169.5,-193.5 314.5,-193.5 314.5,-174.5 169.5,-174.5"/>
<text text-anchor="middle" x="242" y="-181.5" font-family="Helvetica,sans-Serif" font-size="10.00">SolverModuleDriverParallel.C</text>
</a>
</g>
</g>
<!-- Node5&#45;&gt;Node20 -->
<g id="edge40" class="edge"><title>Node5&#45;&gt;Node20</title>
<path fill="none" stroke="midnightblue" d="M726.471,-356.828C592.201,-355.182 231.862,-342.624 160,-256 138.599,-230.202 186.602,-205.954 217.841,-193.572"/>
<polygon fill="midnightblue" stroke="midnightblue" points="726.835,-360.332 736.872,-356.939 726.91,-353.332 726.835,-360.332"/>
</g>
<!-- Node21 -->
<g id="node21" class="node"><title>Node21</title>
<g id="a_node21"><a xlink:href="fsiFOAM_8H.html" target="_top" xlink:title="fsiFOAM.H">
<polygon fill="none" stroke="black" points="701,-236.5 701,-255.5 767,-255.5 767,-236.5 701,-236.5"/>
<text text-anchor="middle" x="734" y="-243.5" font-family="Helvetica,sans-Serif" font-size="10.00">fsiFOAM.H</text>
</a>
</g>
</g>
<!-- Node5&#45;&gt;Node21 -->
<g id="edge41" class="edge"><title>Node5&#45;&gt;Node21</title>
<path fill="none" stroke="midnightblue" d="M769.963,-338.998C760.581,-314.997 744.347,-273.468 737.358,-255.591"/>
<polygon fill="midnightblue" stroke="midnightblue" points="766.725,-340.329 773.626,-348.368 773.245,-337.78 766.725,-340.329"/>
</g>
<!-- Node24 -->
<g id="node24" class="node"><title>Node24</title>
<g id="a_node24"><a xlink:href="lnInclude_2fsiFOAM_8H.html" target="_top" xlink:title="fsiFOAM.H">
<polygon fill="none" stroke="black" points="785,-236.5 785,-255.5 851,-255.5 851,-236.5 785,-236.5"/>
<text text-anchor="middle" x="818" y="-243.5" font-family="Helvetica,sans-Serif" font-size="10.00">fsiFOAM.H</text>
</a>
</g>
</g>
<!-- Node5&#45;&gt;Node24 -->
<g id="edge42" class="edge"><title>Node5&#45;&gt;Node24</title>
<path fill="none" stroke="midnightblue" d="M783.71,-338.998C792.656,-314.997 808.135,-273.468 814.798,-255.591"/>
<polygon fill="midnightblue" stroke="midnightblue" points="780.43,-337.776 780.217,-348.368 786.989,-340.221 780.43,-337.776"/>
</g>
<!-- Node29 -->
<g id="node29" class="node"><title>Node29</title>
<g id="a_node29"><a xlink:href="fsiFOAMPar_8H.html" target="_top" xlink:title="fsiFOAMPar.H">
<polygon fill="none" stroke="black" points="869.5,-236.5 869.5,-255.5 950.5,-255.5 950.5,-236.5 869.5,-236.5"/>
<text text-anchor="middle" x="910" y="-243.5" font-family="Helvetica,sans-Serif" font-size="10.00">fsiFOAMPar.H</text>
</a>
</g>
</g>
<!-- Node5&#45;&gt;Node29 -->
<g id="edge43" class="edge"><title>Node5&#45;&gt;Node29</title>
<path fill="none" stroke="midnightblue" d="M795.359,-341.816C823.686,-318.387 877.125,-274.19 899.612,-255.591"/>
<polygon fill="midnightblue" stroke="midnightblue" points="792.912,-339.298 787.436,-348.368 797.373,-344.692 792.912,-339.298"/>
</g>
<!-- Node31 -->
<g id="node31" class="node"><title>Node31</title>
<g id="a_node31"><a xlink:href="lnInclude_2fsiFOAMPar_8H.html" target="_top" xlink:title="fsiFOAMPar.H">
<polygon fill="none" stroke="black" points="968.5,-236.5 968.5,-255.5 1049.5,-255.5 1049.5,-236.5 968.5,-236.5"/>
<text text-anchor="middle" x="1009" y="-243.5" font-family="Helvetica,sans-Serif" font-size="10.00">fsiFOAMPar.H</text>
</a>
</g>
</g>
<!-- Node5&#45;&gt;Node31 -->
<g id="edge44" class="edge"><title>Node5&#45;&gt;Node31</title>
<path fill="none" stroke="midnightblue" d="M804.373,-344.021C852.354,-321.272 950.386,-274.791 990.88,-255.591"/>
<polygon fill="midnightblue" stroke="midnightblue" points="802.741,-340.922 795.205,-348.368 805.74,-347.247 802.741,-340.922"/>
</g>
<!-- Node33 -->
<g id="node33" class="node"><title>Node33</title>
<g id="a_node33"><a xlink:href="OFModuleDriver_8C.html" target="_top" xlink:title="Main function of the driver (in C/C++) for the OpemFoamFSIModule. ">
<polygon fill="none" stroke="black" points="1068,-236.5 1068,-255.5 1166,-255.5 1166,-236.5 1068,-236.5"/>
<text text-anchor="middle" x="1117" y="-243.5" font-family="Helvetica,sans-Serif" font-size="10.00">OFModuleDriver.C</text>
</a>
</g>
</g>
<!-- Node5&#45;&gt;Node33 -->
<g id="edge45" class="edge"><title>Node5&#45;&gt;Node33</title>
<path fill="none" stroke="midnightblue" d="M812.922,-345.378C881.537,-323.179 1029.8,-275.212 1090.39,-255.61"/>
<polygon fill="midnightblue" stroke="midnightblue" points="811.833,-342.052 803.396,-348.46 813.988,-348.712 811.833,-342.052"/>
</g>
<!-- Node34 -->
<g id="node34" class="node"><title>Node34</title>
<g id="a_node34"><a xlink:href="OFModuleDriverPar_8C.html" target="_top" xlink:title="Main function of the driver (in C/C++) for the OpemFoamFSIModule. ">
<polygon fill="none" stroke="black" points="1184.5,-236.5 1184.5,-255.5 1297.5,-255.5 1297.5,-236.5 1184.5,-236.5"/>
<text text-anchor="middle" x="1241" y="-243.5" font-family="Helvetica,sans-Serif" font-size="10.00">OFModuleDriverPar.C</text>
</a>
</g>
</g>
<!-- Node5&#45;&gt;Node34 -->
<g id="edge46" class="edge"><title>Node5&#45;&gt;Node34</title>
<path fill="none" stroke="midnightblue" d="M822.911,-346.116C915.224,-324.231 1121.59,-275.307 1205,-255.535"/>
<polygon fill="midnightblue" stroke="midnightblue" points="821.946,-342.748 813.023,-348.46 823.561,-349.559 821.946,-342.748"/>
</g>
<!-- Node7 -->
<g id="node7" class="node"><title>Node7</title>
<g id="a_node7"><a xlink:href="FsiCoupling_8H.html" target="_top" xlink:title="Example serial program. ">
<polygon fill="none" stroke="black" points="353.5,-174.5 353.5,-193.5 432.5,-193.5 432.5,-174.5 353.5,-174.5"/>
<text text-anchor="middle" x="393" y="-181.5" font-family="Helvetica,sans-Serif" font-size="10.00">FsiCoupling.H</text>
</a>
</g>
</g>
<!-- Node6&#45;&gt;Node7 -->
<g id="edge6" class="edge"><title>Node6&#45;&gt;Node7</title>
<path fill="none" stroke="midnightblue" d="M626.859,-290.031C595.758,-282.217 554.756,-270.538 520,-256 508.465,-251.175 438.801,-211.341 407.827,-193.539"/>
<polygon fill="midnightblue" stroke="midnightblue" points="626.041,-293.434 636.588,-292.431 627.717,-286.638 626.041,-293.434"/>
</g>
<!-- Node13 -->
<g id="node13" class="node"><title>Node13</title>
<g id="a_node13"><a xlink:href="OpenFoamAgent_8H.html" target="_top" xlink:title="OpenFoamAgent.H">
<polygon fill="none" stroke="black" points="371.5,-236.5 371.5,-255.5 472.5,-255.5 472.5,-236.5 371.5,-236.5"/>
<text text-anchor="middle" x="422" y="-243.5" font-family="Helvetica,sans-Serif" font-size="10.00">OpenFoamAgent.H</text>
</a>
</g>
</g>
<!-- Node6&#45;&gt;Node13 -->
<g id="edge12" class="edge"><title>Node6&#45;&gt;Node13</title>
<path fill="none" stroke="midnightblue" d="M625.082,-290.346C577.269,-280.141 506.052,-264.94 461.901,-255.516"/>
<polygon fill="midnightblue" stroke="midnightblue" points="624.401,-293.779 634.911,-292.444 625.862,-286.933 624.401,-293.779"/>
</g>
<!-- Node14 -->
<g id="node14" class="node"><title>Node14</title>
<g id="a_node14"><a xlink:href="FsiCouplingPar_8H.html" target="_top" xlink:title="Example serial program. ">
<polygon fill="none" stroke="black" points="451,-174.5 451,-193.5 545,-193.5 545,-174.5 451,-174.5"/>
<text text-anchor="middle" x="498" y="-181.5" font-family="Helvetica,sans-Serif" font-size="10.00">FsiCouplingPar.H</text>
</a>
</g>
</g>
<!-- Node6&#45;&gt;Node14 -->
<g id="edge14" class="edge"><title>Node6&#45;&gt;Node14</title>
<path fill="none" stroke="midnightblue" d="M673.434,-281.862C671.276,-267.465 666.154,-248.196 654,-236 644.974,-226.943 571.91,-205.513 529.048,-193.514"/>
<polygon fill="midnightblue" stroke="midnightblue" points="669.995,-282.597 674.606,-292.135 676.95,-281.803 669.995,-282.597"/>
</g>
<!-- Node16 -->
<g id="node16" class="node"><title>Node16</title>
<g id="a_node16"><a xlink:href="OpenFoamParAgent_8H.html" target="_top" xlink:title="OpenFoamParAgent.H">
<polygon fill="none" stroke="black" points="529,-236.5 529,-255.5 645,-255.5 645,-236.5 529,-236.5"/>
<text text-anchor="middle" x="587" y="-243.5" font-family="Helvetica,sans-Serif" font-size="10.00">OpenFoamParAgent.H</text>
</a>
</g>
</g>
<!-- Node6&#45;&gt;Node16 -->
<g id="edge17" class="edge"><title>Node6&#45;&gt;Node16</title>
<path fill="none" stroke="midnightblue" d="M652.023,-286.901C635.887,-276.999 614.819,-264.071 601.104,-255.655"/>
<polygon fill="midnightblue" stroke="midnightblue" points="650.507,-290.077 660.861,-292.324 654.169,-284.111 650.507,-290.077"/>
</g>
<!-- Node6&#45;&gt;Node17 -->
<g id="edge19" class="edge"><title>Node6&#45;&gt;Node17</title>
<path fill="none" stroke="midnightblue" d="M620.356,-296.233C503.712,-286.057 231.353,-262.297 112.81,-251.956"/>
<polygon fill="midnightblue" stroke="midnightblue" points="620.217,-299.734 630.483,-297.116 620.825,-292.761 620.217,-299.734"/>
</g>
<!-- Node6&#45;&gt;Node19 -->
<g id="edge21" class="edge"><title>Node6&#45;&gt;Node19</title>
<path fill="none" stroke="midnightblue" d="M620.092,-294.152C541.305,-284.327 396.258,-266.238 310.539,-255.548"/>
<polygon fill="midnightblue" stroke="midnightblue" points="619.936,-297.66 630.292,-295.424 620.802,-290.714 619.936,-297.66"/>
</g>
<!-- Node6&#45;&gt;Node20 -->
<g id="edge23" class="edge"><title>Node6&#45;&gt;Node20</title>
<path fill="none" stroke="midnightblue" d="M620.2,-299.556C556.483,-296.427 448.945,-286.612 362,-256 339.624,-248.122 281.169,-210.688 254.998,-193.574"/>
<polygon fill="midnightblue" stroke="midnightblue" points="620.275,-303.063 630.423,-300.019 620.592,-296.07 620.275,-303.063"/>
</g>
<!-- Node6&#45;&gt;Node21 -->
<g id="edge24" class="edge"><title>Node6&#45;&gt;Node21</title>
<path fill="none" stroke="midnightblue" d="M691.895,-285.537C702.415,-275.909 715.569,-263.869 724.348,-255.834"/>
<polygon fill="midnightblue" stroke="midnightblue" points="689.493,-282.99 684.479,-292.324 694.219,-288.154 689.493,-282.99"/>
</g>
<!-- Node6&#45;&gt;Node24 -->
<g id="edge27" class="edge"><title>Node6&#45;&gt;Node24</title>
<path fill="none" stroke="midnightblue" d="M707.027,-288.906C733.912,-278.754 771.641,-264.506 795.447,-255.516"/>
<polygon fill="midnightblue" stroke="midnightblue" points="705.778,-285.636 697.659,-292.444 708.25,-292.185 705.778,-285.636"/>
</g>
<!-- Node6&#45;&gt;Node29 -->
<g id="edge32" class="edge"><title>Node6&#45;&gt;Node29</title>
<path fill="none" stroke="midnightblue" d="M722.205,-290.153C766.607,-279.95 832.185,-264.881 872.938,-255.516"/>
<polygon fill="midnightblue" stroke="midnightblue" points="721.199,-286.793 712.236,-292.444 722.766,-293.615 721.199,-286.793"/>
</g>
<!-- Node6&#45;&gt;Node31 -->
<g id="edge34" class="edge"><title>Node6&#45;&gt;Node31</title>
<path fill="none" stroke="midnightblue" d="M729.727,-292.677C786.958,-283.891 879.367,-269.474 959,-256 962.044,-255.485 965.19,-254.943 968.353,-254.39"/>
<polygon fill="midnightblue" stroke="midnightblue" points="729.163,-289.222 719.809,-294.197 730.224,-296.141 729.163,-289.222"/>
</g>
<!-- Node6&#45;&gt;Node33 -->
<g id="edge36" class="edge"><title>Node6&#45;&gt;Node33</title>
<path fill="none" stroke="midnightblue" d="M729.654,-295.177C804.031,-287.116 941.244,-271.759 1058,-256 1061.18,-255.57 1064.46,-255.113 1067.76,-254.64"/>
<polygon fill="midnightblue" stroke="midnightblue" points="729.15,-291.711 719.584,-296.265 729.902,-298.67 729.15,-291.711"/>
</g>
<!-- Node6&#45;&gt;Node34 -->
<g id="edge37" class="edge"><title>Node6&#45;&gt;Node34</title>
<path fill="none" stroke="midnightblue" d="M729.744,-296.898C821.811,-289.814 1013.43,-274.277 1175,-256 1178.1,-255.649 1181.28,-255.272 1184.5,-254.878"/>
<polygon fill="midnightblue" stroke="midnightblue" points="729.254,-293.425 719.551,-297.679 729.789,-300.404 729.254,-293.425"/>
</g>
<!-- Node8 -->
<g id="node8" class="node"><title>Node8</title>
<g id="a_node8"><a xlink:href="ElmerFoamFSITest_8H.html" target="_top" xlink:title="Testing object for ElmerFoamFSI. ">
<polygon fill="none" stroke="black" points="389.5,-112.5 389.5,-131.5 502.5,-131.5 502.5,-112.5 389.5,-112.5"/>
<text text-anchor="middle" x="446" y="-119.5" font-family="Helvetica,sans-Serif" font-size="10.00">ElmerFoamFSITest.H</text>
</a>
</g>
</g>
<!-- Node7&#45;&gt;Node8 -->
<g id="edge7" class="edge"><title>Node7&#45;&gt;Node8</title>
<path fill="none" stroke="midnightblue" d="M407.254,-166.863C417.286,-155.506 430.319,-140.752 438.42,-131.581"/>
<polygon fill="midnightblue" stroke="midnightblue" points="404.591,-164.592 400.594,-174.403 409.837,-169.226 404.591,-164.592"/>
</g>
<!-- Node12 -->
<g id="node12" class="node"><title>Node12</title>
<g id="a_node12"><a xlink:href="ElmerFoamDriver_8C.html" target="_top" xlink:title="Example serial program. ">
<polygon fill="none" stroke="black" points="267,-112.5 267,-131.5 371,-131.5 371,-112.5 267,-112.5"/>
<text text-anchor="middle" x="319" y="-119.5" font-family="Helvetica,sans-Serif" font-size="10.00">ElmerFoamDriver.C</text>
</a>
</g>
</g>
<!-- Node7&#45;&gt;Node12 -->
<g id="edge11" class="edge"><title>Node7&#45;&gt;Node12</title>
<path fill="none" stroke="midnightblue" d="M374.311,-167.846C360.157,-156.371 341.224,-141.02 329.583,-131.581"/>
<polygon fill="midnightblue" stroke="midnightblue" points="372.426,-170.824 382.398,-174.403 376.834,-165.387 372.426,-170.824"/>
</g>
<!-- Node9 -->
<g id="node9" class="node"><title>Node9</title>
<g id="a_node9"><a xlink:href="TestElmerFoamFSI_8H.html" target="_top" xlink:title="Testing utilities for ElmerFoamFSI. ">
<polygon fill="none" stroke="black" points="389.5,-56.5 389.5,-75.5 502.5,-75.5 502.5,-56.5 389.5,-56.5"/>
<text text-anchor="middle" x="446" y="-63.5" font-family="Helvetica,sans-Serif" font-size="10.00">TestElmerFoamFSI.H</text>
</a>
</g>
</g>
<!-- Node8&#45;&gt;Node9 -->
<g id="edge8" class="edge"><title>Node8&#45;&gt;Node9</title>
<path fill="none" stroke="midnightblue" d="M446,-101.805C446,-92.9102 446,-82.7798 446,-75.7511"/>
<polygon fill="midnightblue" stroke="midnightblue" points="442.5,-102.083 446,-112.083 449.5,-102.083 442.5,-102.083"/>
</g>
<!-- Node10 -->
<g id="node10" class="node"><title>Node10</title>
<g id="a_node10"><a xlink:href="ParallelTestElmerFoamFSI_8C.html" target="_top" xlink:title="Implements a command&#45;line interface for the ElmerFoamFSI tests. ">
<polygon fill="none" stroke="black" points="300.5,-0.5 300.5,-19.5 445.5,-19.5 445.5,-0.5 300.5,-0.5"/>
<text text-anchor="middle" x="373" y="-7.5" font-family="Helvetica,sans-Serif" font-size="10.00">ParallelTestElmerFoamFSI.C</text>
</a>
</g>
</g>
<!-- Node9&#45;&gt;Node10 -->
<g id="edge9" class="edge"><title>Node9&#45;&gt;Node10</title>
<path fill="none" stroke="midnightblue" d="M425.858,-50.1008C412.721,-40.3824 396.018,-28.0269 384.942,-19.8339"/>
<polygon fill="midnightblue" stroke="midnightblue" points="424.15,-53.1907 434.271,-56.324 428.313,-47.5631 424.15,-53.1907"/>
</g>
<!-- Node11 -->
<g id="node11" class="node"><title>Node11</title>
<g id="a_node11"><a xlink:href="TestElmerFoamFSI_8C.html" target="_top" xlink:title="Implements a command&#45;line interface for the ElmerFoamFSI tests. ">
<polygon fill="none" stroke="black" points="463.5,-0.5 463.5,-19.5 576.5,-19.5 576.5,-0.5 463.5,-0.5"/>
<text text-anchor="middle" x="520" y="-7.5" font-family="Helvetica,sans-Serif" font-size="10.00">TestElmerFoamFSI.C</text>
</a>
</g>
</g>
<!-- Node9&#45;&gt;Node11 -->
<g id="edge10" class="edge"><title>Node9&#45;&gt;Node11</title>
<path fill="none" stroke="midnightblue" d="M466.034,-50.3804C479.409,-40.6204 496.559,-28.1057 507.894,-19.8339"/>
<polygon fill="midnightblue" stroke="midnightblue" points="463.904,-47.602 457.889,-56.324 468.03,-53.2565 463.904,-47.602"/>
</g>
<!-- Node13&#45;&gt;Node7 -->
<g id="edge13" class="edge"><title>Node13&#45;&gt;Node7</title>
<path fill="none" stroke="midnightblue" d="M413.39,-227.186C408.025,-216.087 401.365,-202.307 397.147,-193.581"/>
<polygon fill="midnightblue" stroke="midnightblue" points="410.342,-228.923 417.845,-236.403 416.644,-225.877 410.342,-228.923"/>
</g>
<!-- Node14&#45;&gt;Node8 -->
<g id="edge15" class="edge"><title>Node14&#45;&gt;Node8</title>
<path fill="none" stroke="midnightblue" d="M483.727,-166.531C473.924,-155.22 461.308,-140.663 453.437,-131.581"/>
<polygon fill="midnightblue" stroke="midnightblue" points="481.355,-169.139 490.55,-174.403 486.645,-164.554 481.355,-169.139"/>
</g>
<!-- Node15 -->
<g id="node15" class="node"><title>Node15</title>
<g id="a_node15"><a xlink:href="ElmerFoamDriverPar_8C.html" target="_top" xlink:title="Example serial program. ">
<polygon fill="none" stroke="black" points="520.5,-112.5 520.5,-131.5 639.5,-131.5 639.5,-112.5 520.5,-112.5"/>
<text text-anchor="middle" x="580" y="-119.5" font-family="Helvetica,sans-Serif" font-size="10.00">ElmerFoamDriverPar.C</text>
</a>
</g>
</g>
<!-- Node14&#45;&gt;Node15 -->
<g id="edge16" class="edge"><title>Node14&#45;&gt;Node15</title>
<path fill="none" stroke="midnightblue" d="M517.828,-168.492C533.599,-156.952 555.13,-141.198 568.273,-131.581"/>
<polygon fill="midnightblue" stroke="midnightblue" points="515.752,-165.674 509.749,-174.403 519.886,-171.323 515.752,-165.674"/>
</g>
<!-- Node16&#45;&gt;Node14 -->
<g id="edge18" class="edge"><title>Node16&#45;&gt;Node14</title>
<path fill="none" stroke="midnightblue" d="M565.953,-230.811C548.796,-219.244 525.125,-203.287 510.728,-193.581"/>
<polygon fill="midnightblue" stroke="midnightblue" points="564,-233.716 574.248,-236.403 567.913,-227.911 564,-233.716"/>
</g>
<!-- Node18 -->
<g id="node18" class="node"><title>Node18</title>
<g id="a_node18"><a xlink:href="ElmerFSI_2trunk_2src_2SolverModuleDriver_8C.html" target="_top" xlink:title="Main function to call the Elmer SolverModule. ">
<polygon fill="none" stroke="black" points="-0.5,-174.5 -0.5,-193.5 112.5,-193.5 112.5,-174.5 -0.5,-174.5"/>
<text text-anchor="middle" x="56" y="-181.5" font-family="Helvetica,sans-Serif" font-size="10.00">SolverModuleDriver.C</text>
</a>
</g>
</g>
<!-- Node17&#45;&gt;Node18 -->
<g id="edge20" class="edge"><title>Node17&#45;&gt;Node18</title>
<path fill="none" stroke="midnightblue" d="M56,-226.16C56,-215.248 56,-202.04 56,-193.581"/>
<polygon fill="midnightblue" stroke="midnightblue" points="52.5001,-226.403 56,-236.403 59.5001,-226.403 52.5001,-226.403"/>
</g>
<!-- Node19&#45;&gt;Node20 -->
<g id="edge22" class="edge"><title>Node19&#45;&gt;Node20</title>
<path fill="none" stroke="midnightblue" d="M242,-226.16C242,-215.248 242,-202.04 242,-193.581"/>
<polygon fill="midnightblue" stroke="midnightblue" points="238.5,-226.403 242,-236.403 245.5,-226.403 238.5,-226.403"/>
</g>
<!-- Node22 -->
<g id="node22" class="node"><title>Node22</title>
<g id="a_node22"><a xlink:href="fsiFOAM_8C.html" target="_top" xlink:title="fsiFOAM.C">
<polygon fill="none" stroke="black" points="563,-174.5 563,-193.5 629,-193.5 629,-174.5 563,-174.5"/>
<text text-anchor="middle" x="596" y="-181.5" font-family="Helvetica,sans-Serif" font-size="10.00">fsiFOAM.C</text>
</a>
</g>
</g>
<!-- Node21&#45;&gt;Node22 -->
<g id="edge25" class="edge"><title>Node21&#45;&gt;Node22</title>
<path fill="none" stroke="midnightblue" d="M704.961,-232.374C678.159,-220.721 639.083,-203.732 615.735,-193.581"/>
<polygon fill="midnightblue" stroke="midnightblue" points="703.662,-235.626 714.228,-236.403 706.453,-229.206 703.662,-235.626"/>
</g>
<!-- Node23 -->
<g id="node23" class="node"><title>Node23</title>
<g id="a_node23"><a xlink:href="icoFsiElasticNonLinULSolidFoam_8C.html" target="_top" xlink:title="icoFsiElasticNonLinULSolid\lFoam.C">
<polygon fill="none" stroke="black" points="647,-169 647,-199 785,-199 785,-169 647,-169"/>
<text text-anchor="start" x="655" y="-187" font-family="Helvetica,sans-Serif" font-size="10.00">icoFsiElasticNonLinULSolid</text>
<text text-anchor="middle" x="716" y="-176" font-family="Helvetica,sans-Serif" font-size="10.00">Foam.C</text>
</a>
</g>
</g>
<!-- Node21&#45;&gt;Node23 -->
<g id="edge26" class="edge"><title>Node21&#45;&gt;Node23</title>
<path fill="none" stroke="midnightblue" d="M728.499,-226.663C725.844,-217.814 722.709,-207.362 720.242,-199.141"/>
<polygon fill="midnightblue" stroke="midnightblue" points="725.195,-227.831 731.421,-236.403 731.9,-225.819 725.195,-227.831"/>
</g>
<!-- Node25 -->
<g id="node25" class="node"><title>Node25</title>
<g id="a_node25"><a xlink:href="lnInclude_2fsiFOAM_8C.html" target="_top" xlink:title="fsiFOAM.C">
<polygon fill="none" stroke="black" points="803,-174.5 803,-193.5 869,-193.5 869,-174.5 803,-174.5"/>
<text text-anchor="middle" x="836" y="-181.5" font-family="Helvetica,sans-Serif" font-size="10.00">fsiFOAM.C</text>
</a>
</g>
</g>
<!-- Node24&#45;&gt;Node25 -->
<g id="edge28" class="edge"><title>Node24&#45;&gt;Node25</title>
<path fill="none" stroke="midnightblue" d="M823.549,-226.503C826.842,-215.527 830.861,-202.129 833.426,-193.581"/>
<polygon fill="midnightblue" stroke="midnightblue" points="820.1,-225.819 820.579,-236.403 826.805,-227.831 820.1,-225.819"/>
</g>
<!-- Node26 -->
<g id="node26" class="node"><title>Node26</title>
<g id="a_node26"><a xlink:href="lnInclude_2icoFsiElasticNonLinULSolidFoam_8C.html" target="_top" xlink:title="icoFsiElasticNonLinULSolid\lFoam.C">
<polygon fill="none" stroke="black" points="887,-169 887,-199 1025,-199 1025,-169 887,-169"/>
<text text-anchor="start" x="895" y="-187" font-family="Helvetica,sans-Serif" font-size="10.00">icoFsiElasticNonLinULSolid</text>
<text text-anchor="middle" x="956" y="-176" font-family="Helvetica,sans-Serif" font-size="10.00">Foam.C</text>
</a>
</g>
</g>
<!-- Node24&#45;&gt;Node26 -->
<g id="edge29" class="edge"><title>Node24&#45;&gt;Node26</title>
<path fill="none" stroke="midnightblue" d="M847.116,-232.341C869.552,-222.586 900.554,-209.107 923.742,-199.025"/>
<polygon fill="midnightblue" stroke="midnightblue" points="845.547,-229.206 837.772,-236.403 848.338,-235.626 845.547,-229.206"/>
</g>
<!-- Node27 -->
<g id="node27" class="node"><title>Node27</title>
<g id="a_node27"><a xlink:href="ar_2icoFsiElasticNonLinULSolidFoam_8C.html" target="_top" xlink:title="icoFsiElasticNonLinULSolid\lFoam.C">
<polygon fill="none" stroke="black" points="1043,-169 1043,-199 1181,-199 1181,-169 1043,-169"/>
<text text-anchor="start" x="1051" y="-187" font-family="Helvetica,sans-Serif" font-size="10.00">icoFsiElasticNonLinULSolid</text>
<text text-anchor="middle" x="1112" y="-176" font-family="Helvetica,sans-Serif" font-size="10.00">Foam.C</text>
</a>
</g>
</g>
<!-- Node24&#45;&gt;Node27 -->
<g id="edge30" class="edge"><title>Node24&#45;&gt;Node27</title>
<path fill="none" stroke="midnightblue" d="M861.331,-235.941C929.038,-221.989 994.925,-208.622 1043,-198.907"/>
<polygon fill="midnightblue" stroke="midnightblue" points="860.418,-232.556 851.331,-238.004 861.831,-239.412 860.418,-232.556"/>
</g>
<!-- Node28 -->
<g id="node28" class="node"><title>Node28</title>
<g id="a_node28"><a xlink:href="ar_2lnInclude_2icoFsiElasticNonLinULSolidFoam_8C.html" target="_top" xlink:title="icoFsiElasticNonLinULSolid\lFoam.C">
<polygon fill="none" stroke="black" points="1199,-169 1199,-199 1337,-199 1337,-169 1199,-169"/>
<text text-anchor="start" x="1207" y="-187" font-family="Helvetica,sans-Serif" font-size="10.00">icoFsiElasticNonLinULSolid</text>
<text text-anchor="middle" x="1268" y="-176" font-family="Helvetica,sans-Serif" font-size="10.00">Foam.C</text>
</a>
</g>
</g>
<!-- Node24&#45;&gt;Node28 -->
<g id="edge31" class="edge"><title>Node24&#45;&gt;Node28</title>
<path fill="none" stroke="midnightblue" d="M861.545,-236.081C1008.04,-213.294 1047.81,-221.415 1190,-200 1192.86,-199.569 1195.78,-199.107 1198.73,-198.623"/>
<polygon fill="midnightblue" stroke="midnightblue" points="860.608,-232.686 851.275,-237.702 861.699,-239.6 860.608,-232.686"/>
</g>
<!-- Node30 -->
<g id="node30" class="node"><title>Node30</title>
<g id="a_node30"><a xlink:href="fsiFOAMPar_8C.html" target="_top" xlink:title="fsiFOAMPar.C">
<polygon fill="none" stroke="black" points="1355.5,-174.5 1355.5,-193.5 1436.5,-193.5 1436.5,-174.5 1355.5,-174.5"/>
<text text-anchor="middle" x="1396" y="-181.5" font-family="Helvetica,sans-Serif" font-size="10.00">fsiFOAMPar.C</text>
</a>
</g>
</g>
<!-- Node29&#45;&gt;Node30 -->
<g id="edge33" class="edge"><title>Node29&#45;&gt;Node30</title>
<path fill="none" stroke="midnightblue" d="M960.759,-236.03C1132.52,-213.467 1180.09,-232.29 1346,-200 1354.27,-198.39 1363.13,-195.97 1371.06,-193.541"/>
<polygon fill="midnightblue" stroke="midnightblue" points="960.059,-232.592 950.613,-237.391 960.99,-239.53 960.059,-232.592"/>
</g>
<!-- Node32 -->
<g id="node32" class="node"><title>Node32</title>
<g id="a_node32"><a xlink:href="lnInclude_2fsiFOAMPar_8C.html" target="_top" xlink:title="fsiFOAMPar.C">
<polygon fill="none" stroke="black" points="1454.5,-174.5 1454.5,-193.5 1535.5,-193.5 1535.5,-174.5 1454.5,-174.5"/>
<text text-anchor="middle" x="1495" y="-181.5" font-family="Helvetica,sans-Serif" font-size="10.00">fsiFOAMPar.C</text>
</a>
</g>
</g>
<!-- Node31&#45;&gt;Node32 -->
<g id="edge35" class="edge"><title>Node31&#45;&gt;Node32</title>
<path fill="none" stroke="midnightblue" d="M1059.76,-236.03C1231.52,-213.467 1279.09,-232.29 1445,-200 1453.27,-198.39 1462.13,-195.97 1470.06,-193.541"/>
<polygon fill="midnightblue" stroke="midnightblue" points="1059.06,-232.592 1049.61,-237.391 1059.99,-239.53 1059.06,-232.592"/>
</g>
</g>
</svg>
        <g id="navigator" transform="translate(0 0)" fill="#404254">
                <rect fill="#f2f5e9" fill-opacity="0.5" stroke="#606060" stroke-width=".5" x="0" y="0" width="60" height="60"/>
                <use id="zoomplus" xlink:href="#zoomPlus" x="17" y="9" onmousedown="handleZoom(evt,'in')"/>
                <use id="zoomminus" xlink:href="#zoomMin" x="42" y="9" onmousedown="handleZoom(evt,'out')"/>
                <use id="reset" xlink:href="#resetDef" x="30" y="36" onmousedown="handleReset()"/>
                <g id="arrowUp" xlink:href="#dirArrow" transform="translate(30 24)" onmousedown="handlePan(0,-1)">
                  <use xlink:href="#rim" fill="#404040">
                        <set attributeName="fill" to="#808080" begin="arrowUp.mouseover" end="arrowUp.mouseout"/>
                  </use>
                  <path fill="none" stroke="white" stroke-width="1.5" d="M0,-3.0v7 M-2.5,-0.5L0,-3.0L2.5,-0.5"/>
                </g>
                <g id="arrowRight" xlink:href="#dirArrow" transform="rotate(90) translate(36 -43)" onmousedown="handlePan(1,0)">
                  <use xlink:href="#rim" fill="#404040">
                        <set attributeName="fill" to="#808080" begin="arrowRight.mouseover" end="arrowRight.mouseout"/>
                  </use>
                  <path fill="none" stroke="white" stroke-width="1.5" d="M0,-3.0v7 M-2.5,-0.5L0,-3.0L2.5,-0.5"/>
                </g>
                <g id="arrowDown" xlink:href="#dirArrow" transform="rotate(180) translate(-30 -48)" onmousedown="handlePan(0,1)">
                  <use xlink:href="#rim" fill="#404040">
                        <set attributeName="fill" to="#808080" begin="arrowDown.mouseover" end="arrowDown.mouseout"/>
                  </use>
                  <path fill="none" stroke="white" stroke-width="1.5" d="M0,-3.0v7 M-2.5,-0.5L0,-3.0L2.5,-0.5"/>
                </g>
                <g id="arrowLeft" xlink:href="#dirArrow" transform="rotate(270) translate(-36 17)" onmousedown="handlePan(-1,0)">
                  <use xlink:href="#rim" fill="#404040">
                        <set attributeName="fill" to="#808080" begin="arrowLeft.mouseover" end="arrowLeft.mouseout"/>
                  </use>
                  <path fill="none" stroke="white" stroke-width="1.5" d="M0,-3.0v7 M-2.5,-0.5L0,-3.0L2.5,-0.5"/>
                </g>
        </g>
        <svg viewBox="0 0 15 15" width="100%" height="30px" preserveAspectRatio="xMaxYMin meet">
         <g id="arrow_out" transform="scale(0.3 0.3)">
          <a xlink:href="Mesh_8H__dep__incl_org.svg" target="_base">
           <rect id="button" ry="5" rx="5" y="6" x="6" height="38" width="38"
                fill="#f2f5e9" fill-opacity="0.5" stroke="#606060" stroke-width="1.0"/>
           <path id="arrow"
             d="M 11.500037,31.436501 C 11.940474,20.09759 22.043105,11.32322 32.158766,21.979434 L 37.068811,17.246167 C 37.068811,17.246167 37.088388,32 37.088388,32 L 22.160133,31.978069 C 22.160133,31.978069 26.997745,27.140456 26.997745,27.140456 C 18.528582,18.264221 13.291696,25.230495 11.500037,31.436501 z"
             style="fill:#404040;"/>
          </a>
         </g>
        </svg>
</svg>
