<?xml version="1.0" encoding="UTF-8" standalone="no"?>
<!DOCTYPE svg PUBLIC "-//W3C//DTD SVG 1.1//EN"
 "http://www.w3.org/Graphics/SVG/1.1/DTD/svg11.dtd">
<!-- Generated by graphviz version 2.26.0 (20091210.2329)
 -->
<!-- Title: myfinalize Pages: 1 -->
<svg width="324pt" height="30pt"
 viewBox="0.00 0.00 324.00 30.00" xmlns="http://www.w3.org/2000/svg" xmlns:xlink="http://www.w3.org/1999/xlink">
<g id="graph1" class="graph" transform="scale(1 1) rotate(0) translate(4 26)">
<title>myfinalize</title>
<!-- Node1 -->
<g id="node1" class="node"><title>Node1</title>
<polygon fill="#bfbfbf" stroke="black" points="0.5,-0.5 0.5,-21.5 61.5,-21.5 61.5,-0.5 0.5,-0.5"/>
<text text-anchor="middle" x="31" y="-8.5" font-family="Helvetica,sans-Serif" font-size="10.00">myfinalize</text>
</g>
<!-- Node2 -->
<g id="node3" class="node"><title>Node2</title>
<a xlink:href="SolverModule_8F90_af3d36f75ef0281d05095a89df472fa2f.html#af3d36f75ef0281d05095a89df472fa2f" target="_top" xlink:title="finalize">
<polygon fill="none" stroke="black" points="98.5,-0.5 98.5,-21.5 145.5,-21.5 145.5,-0.5 98.5,-0.5"/>
<text text-anchor="middle" x="122" y="-8.5" font-family="Helvetica,sans-Serif" font-size="10.00">finalize</text>
</a>
</g>
<!-- Node1&#45;&gt;Node2 -->
<g id="edge2" class="edge"><title>Node1&#45;&gt;Node2</title>
<path fill="none" stroke="midnightblue" d="M71.651,-11C80.7621,-11 90.1356,-11 98.2876,-11"/>
<polygon fill="midnightblue" stroke="midnightblue" points="71.5549,-7.5001 61.5548,-11 71.5548,-14.5001 71.5549,-7.5001"/>
</g>
<!-- Node3 -->
<g id="node5" class="node"><title>Node3</title>
<a xlink:href="SolverModule_8F90_a2363fcb6699317c59c1f2f041ee860d2.html#a2363fcb6699317c59c1f2f041ee860d2" target="_top" xlink:title="solvermodule_load_module">
<polygon fill="none" stroke="black" points="182,-0.5 182,-21.5 316,-21.5 316,-0.5 182,-0.5"/>
<text text-anchor="middle" x="249" y="-8.5" font-family="Helvetica,sans-Serif" font-size="10.00">solvermodule_load_module</text>
</a>
</g>
<!-- Node2&#45;&gt;Node3 -->
<g id="edge4" class="edge"><title>Node2&#45;&gt;Node3</title>
<path fill="none" stroke="midnightblue" d="M155.705,-11C163.813,-11 172.76,-11 181.807,-11"/>
<polygon fill="midnightblue" stroke="midnightblue" points="155.59,-7.5001 145.59,-11 155.59,-14.5001 155.59,-7.5001"/>
</g>
</g>
</svg>
