<?xml version="1.0" encoding="UTF-8" standalone="no"?>
<!DOCTYPE svg PUBLIC "-//W3C//DTD SVG 1.1//EN"
 "http://www.w3.org/Graphics/SVG/1.1/DTD/svg11.dtd">
<!-- Generated by graphviz version 2.26.0 (20091210.2329)
 -->
<!-- Title: myfinalize Pages: 1 -->
<svg width="378pt" height="50pt"
 viewBox="0.00 0.00 378.00 50.00" xmlns="http://www.w3.org/2000/svg" xmlns:xlink="http://www.w3.org/1999/xlink">
<g id="graph1" class="graph" transform="scale(1 1) rotate(0) translate(4 46)">
<title>myfinalize</title>
<!-- Node1 -->
<g id="node1" class="node"><title>Node1</title>
<polygon fill="#bfbfbf" stroke="black" points="0.5,-0.5 0.5,-21.5 61.5,-21.5 61.5,-0.5 0.5,-0.5"/>
<text text-anchor="middle" x="31" y="-8.5" font-family="Helvetica,sans-Serif" font-size="10.00">myfinalize</text>
</g>
<!-- Node2 -->
<g id="node3" class="node"><title>Node2</title>
<a xlink:href="classmymodule_a22c594fc74d4a28dc4fd20412caed9c5.html#a22c594fc74d4a28dc4fd20412caed9c5" target="_top" xlink:title="Saves current timestep to external files. ">
<polygon fill="none" stroke="black" points="98.5,-20.5 98.5,-41.5 217.5,-41.5 217.5,-20.5 98.5,-20.5"/>
<text text-anchor="middle" x="158" y="-28.5" font-family="Helvetica,sans-Serif" font-size="10.00">mymodule::savecurrent</text>
</a>
</g>
<!-- Node1&#45;&gt;Node2 -->
<g id="edge2" class="edge"><title>Node1&#45;&gt;Node2</title>
<path fill="none" stroke="midnightblue" d="M61.7432,-15.8414C69.8837,-17.1234 79.0132,-18.5611 88.3215,-20.027"/>
<polygon fill="midnightblue" stroke="midnightblue" points="88.0311,-23.5243 98.4539,-21.6227 89.1201,-16.6096 88.0311,-23.5243"/>
</g>
<!-- Node3 -->
<g id="node5" class="node"><title>Node3</title>
<a xlink:href="classmymodule_aa4606faf69704584d197ae7ccfbf8068.html#aa4606faf69704584d197ae7ccfbf8068" target="_top" xlink:title="Saves results file to post processing file of ElmerPost format, if requested. ">
<polygon fill="none" stroke="black" points="254,-0.5 254,-21.5 370,-21.5 370,-0.5 254,-0.5"/>
<text text-anchor="middle" x="312" y="-8.5" font-family="Helvetica,sans-Serif" font-size="10.00">mymodule::savetopost</text>
</a>
</g>
<!-- Node1&#45;&gt;Node3 -->
<g id="edge6" class="edge"><title>Node1&#45;&gt;Node3</title>
<path fill="none" stroke="midnightblue" d="M61.6068,-11C105.016,-11 185.636,-11 243.685,-11"/>
<polygon fill="midnightblue" stroke="midnightblue" points="243.884,-14.5001 253.884,-11 243.884,-7.5001 243.884,-14.5001"/>
</g>
<!-- Node2&#45;&gt;Node3 -->
<g id="edge4" class="edge"><title>Node2&#45;&gt;Node3</title>
<path fill="none" stroke="midnightblue" d="M217.54,-23.2675C226.118,-22.1535 235.001,-20.9999 243.732,-19.866"/>
<polygon fill="midnightblue" stroke="midnightblue" points="244.419,-23.3063 253.885,-18.5474 243.517,-16.3646 244.419,-23.3063"/>
</g>
</g>
</svg>
