<?xml version="1.0" encoding="UTF-8" standalone="no"?>
<!DOCTYPE svg PUBLIC "-//W3C//DTD SVG 1.1//EN"
 "http://www.w3.org/Graphics/SVG/1.1/DTD/svg11.dtd">
<!-- Generated by graphviz version 2.26.0 (20091210.2329)
 -->
<!-- Title: myinitialize Pages: 1 -->
<svg width="440pt" height="170pt"
 viewBox="0.00 0.00 440.00 170.00" xmlns="http://www.w3.org/2000/svg" xmlns:xlink="http://www.w3.org/1999/xlink">
<g id="graph1" class="graph" transform="scale(1 1) rotate(0) translate(4 166)">
<title>myinitialize</title>
<!-- Node1 -->
<g id="node1" class="node"><title>Node1</title>
<polygon fill="#bfbfbf" stroke="black" points="0.5,-80.5 0.5,-101.5 65.5,-101.5 65.5,-80.5 0.5,-80.5"/>
<text text-anchor="middle" x="33" y="-88.5" font-family="Helvetica,sans-Serif" font-size="10.00">myinitialize</text>
</g>
<!-- Node2 -->
<g id="node3" class="node"><title>Node2</title>
<a xlink:href="classmymodule_a365409624821229f0d7ab61da0d3c6ba.html#a365409624821229f0d7ab61da0d3c6ba" target="_top" xlink:title="Adds coordinate and time variables to the current mesh structure. ">
<polygon fill="none" stroke="black" points="102,-140.5 102,-161.5 294,-161.5 294,-140.5 102,-140.5"/>
<text text-anchor="middle" x="198" y="-148.5" font-family="Helvetica,sans-Serif" font-size="10.00">mymodule::addmeshcoordinatesandtime</text>
</a>
</g>
<!-- Node1&#45;&gt;Node2 -->
<g id="edge2" class="edge"><title>Node1&#45;&gt;Node2</title>
<path fill="none" stroke="midnightblue" d="M47.9119,-101.539C61.4316,-110.621 82.2133,-123.43 102,-131 108.778,-133.593 115.96,-135.877 123.224,-137.883"/>
<polygon fill="midnightblue" stroke="midnightblue" points="122.592,-141.334 133.15,-140.449 124.344,-134.557 122.592,-141.334"/>
</g>
<!-- Node3 -->
<g id="node5" class="node"><title>Node3</title>
<a xlink:href="classmymodule_a9fa4925b1884bc7bd5f9bb2cdddf2bbe.html#a9fa4925b1884bc7bd5f9bb2cdddf2bbe" target="_top" xlink:title="Adds flags for active solvers. ">
<polygon fill="none" stroke="black" points="140.5,-100.5 140.5,-121.5 255.5,-121.5 255.5,-100.5 140.5,-100.5"/>
<text text-anchor="middle" x="198" y="-108.5" font-family="Helvetica,sans-Serif" font-size="10.00">mymodule::addsolvers</text>
</a>
</g>
<!-- Node1&#45;&gt;Node3 -->
<g id="edge4" class="edge"><title>Node1&#45;&gt;Node3</title>
<path fill="none" stroke="midnightblue" d="M65.5987,-94.9514C84.0866,-97.1923 107.93,-100.082 130.278,-102.791"/>
<polygon fill="midnightblue" stroke="midnightblue" points="130.067,-106.291 140.416,-104.02 130.91,-99.3421 130.067,-106.291"/>
</g>
<!-- Node4 -->
<g id="node7" class="node"><title>Node4</title>
<a xlink:href="classmymodule_ace41a25456bb516f0f9ee96e9eed55ed.html#ace41a25456bb516f0f9ee96e9eed55ed" target="_top" xlink:title="mymodule::addvtuoutputsolverhack">
<polygon fill="none" stroke="black" points="112.5,-60.5 112.5,-81.5 283.5,-81.5 283.5,-60.5 112.5,-60.5"/>
<text text-anchor="middle" x="198" y="-68.5" font-family="Helvetica,sans-Serif" font-size="10.00">mymodule::addvtuoutputsolverhack</text>
</a>
</g>
<!-- Node1&#45;&gt;Node4 -->
<g id="edge6" class="edge"><title>Node1&#45;&gt;Node4</title>
<path fill="none" stroke="midnightblue" d="M65.5987,-87.0486C76.4506,-85.7333 89.1477,-84.1942 102.304,-82.5995"/>
<polygon fill="midnightblue" stroke="midnightblue" points="102.926,-86.0498 112.432,-81.3719 102.084,-79.1007 102.926,-86.0498"/>
</g>
<!-- Node5 -->
<g id="node9" class="node"><title>Node5</title>
<a xlink:href="classmymodule_aab23af2755a40587c4f194ab80091318.html#aab23af2755a40587c4f194ab80091318" target="_top" xlink:title="Sets initial conditions for the fields. ">
<polygon fill="none" stroke="black" points="124,-20.5 124,-41.5 272,-41.5 272,-20.5 124,-20.5"/>
<text text-anchor="middle" x="198" y="-28.5" font-family="Helvetica,sans-Serif" font-size="10.00">mymodule::setinitialconditions</text>
</a>
</g>
<!-- Node1&#45;&gt;Node5 -->
<g id="edge8" class="edge"><title>Node1&#45;&gt;Node5</title>
<path fill="none" stroke="midnightblue" d="M47.9119,-80.461C61.4316,-71.3789 82.2133,-58.5696 102,-51 108.778,-48.4071 115.96,-46.1233 123.224,-44.1173"/>
<polygon fill="midnightblue" stroke="midnightblue" points="124.344,-47.4429 133.15,-41.5514 122.592,-40.6657 124.344,-47.4429"/>
</g>
<!-- Node6 -->
<g id="node11" class="node"><title>Node6</title>
<a xlink:href="classmymodule_a35170c044edf9e26057c957be782d749.html#a35170c044edf9e26057c957be782d749" target="_top" xlink:title="Check if we are restarting are if yes, read in field values. ">
<polygon fill="none" stroke="black" points="333.5,-40.5 333.5,-61.5 428.5,-61.5 428.5,-40.5 333.5,-40.5"/>
<text text-anchor="middle" x="381" y="-48.5" font-family="Helvetica,sans-Serif" font-size="10.00">mymodule::restart</text>
</a>
</g>
<!-- Node5&#45;&gt;Node6 -->
<g id="edge10" class="edge"><title>Node5&#45;&gt;Node6</title>
<path fill="none" stroke="midnightblue" d="M272.169,-39.1059C289.074,-40.9535 306.798,-42.8905 322.918,-44.6523"/>
<polygon fill="midnightblue" stroke="midnightblue" points="322.934,-48.1747 333.255,-45.782 323.694,-41.2162 322.934,-48.1747"/>
</g>
<!-- Node7 -->
<g id="node13" class="node"><title>Node7</title>
<a xlink:href="classmymodule_af55e87fced73725324f9022ee5612521.html#af55e87fced73725324f9022ee5612521" target="_top" xlink:title="mymodule::initcond">
<polygon fill="none" stroke="black" points="330.5,-0.5 330.5,-21.5 431.5,-21.5 431.5,-0.5 330.5,-0.5"/>
<text text-anchor="middle" x="381" y="-8.5" font-family="Helvetica,sans-Serif" font-size="10.00">mymodule::initcond</text>
</a>
</g>
<!-- Node5&#45;&gt;Node7 -->
<g id="edge12" class="edge"><title>Node5&#45;&gt;Node7</title>
<path fill="none" stroke="midnightblue" d="M272.169,-22.8941C288.028,-21.1609 304.607,-19.349 319.907,-17.6769"/>
<polygon fill="midnightblue" stroke="midnightblue" points="320.709,-21.1101 330.27,-16.5443 319.949,-14.1515 320.709,-21.1101"/>
</g>
</g>
</svg>
