<?xml version="1.0" encoding="UTF-8" standalone="no"?>
<!DOCTYPE svg PUBLIC "-//W3C//DTD SVG 1.1//EN"
 "http://www.w3.org/Graphics/SVG/1.1/DTD/svg11.dtd">
<!-- Generated by graphviz version 2.26.0 (20091210.2329)
 -->
<!-- Title: mydeprecatedtimestepper Pages: 1 -->
<svg width="466pt" height="108pt"
 viewBox="0.00 0.00 466.00 108.00" xmlns="http://www.w3.org/2000/svg" xmlns:xlink="http://www.w3.org/1999/xlink">
<g id="graph1" class="graph" transform="scale(1 1) rotate(0) translate(4 104)">
<title>mydeprecatedtimestepper</title>
<!-- Node1 -->
<g id="node1" class="node"><title>Node1</title>
<polygon fill="#bfbfbf" stroke="black" points="0.5,-39.5 0.5,-60.5 129.5,-60.5 129.5,-39.5 0.5,-39.5"/>
<text text-anchor="middle" x="65" y="-47.5" font-family="Helvetica,sans-Serif" font-size="10.00">mydeprecatedtimestepper</text>
</g>
<!-- Node2 -->
<g id="node3" class="node"><title>Node2</title>
<a xlink:href="classmymodule_a22c594fc74d4a28dc4fd20412caed9c5.html#a22c594fc74d4a28dc4fd20412caed9c5" target="_top" xlink:title="Saves current timestep to external files. ">
<polygon fill="none" stroke="black" points="176.5,-78.5 176.5,-99.5 295.5,-99.5 295.5,-78.5 176.5,-78.5"/>
<text text-anchor="middle" x="236" y="-86.5" font-family="Helvetica,sans-Serif" font-size="10.00">mymodule::savecurrent</text>
</a>
</g>
<!-- Node1&#45;&gt;Node2 -->
<g id="edge2" class="edge"><title>Node1&#45;&gt;Node2</title>
<path fill="none" stroke="midnightblue" d="M111.275,-60.554C132.376,-65.3664 157.545,-71.1068 179.73,-76.1665"/>
<polygon fill="midnightblue" stroke="midnightblue" points="179.16,-79.6263 189.688,-78.4376 180.717,-72.8015 179.16,-79.6263"/>
</g>
<!-- Node3 -->
<g id="node5" class="node"><title>Node3</title>
<a xlink:href="classmymodule_aa4606faf69704584d197ae7ccfbf8068.html#aa4606faf69704584d197ae7ccfbf8068" target="_top" xlink:title="Saves results file to post processing file of ElmerPost format, if requested. ">
<polygon fill="none" stroke="black" points="342,-58.5 342,-79.5 458,-79.5 458,-58.5 342,-58.5"/>
<text text-anchor="middle" x="400" y="-66.5" font-family="Helvetica,sans-Serif" font-size="10.00">mymodule::savetopost</text>
</a>
</g>
<!-- Node1&#45;&gt;Node3 -->
<g id="edge6" class="edge"><title>Node1&#45;&gt;Node3</title>
<path fill="none" stroke="midnightblue" d="M129.591,-53.6634C187.645,-56.956 272.626,-61.7758 331.772,-65.1303"/>
<polygon fill="midnightblue" stroke="midnightblue" points="331.585,-68.6253 341.767,-65.6972 331.981,-61.6365 331.585,-68.6253"/>
</g>
<!-- Node4 -->
<g id="node8" class="node"><title>Node4</title>
<a xlink:href="classmytimemodule_ac02e054b725f683bf66b8d664a323d2d.html#ac02e054b725f683bf66b8d664a323d2d" target="_top" xlink:title="mytimemodule::updateloads">
<polygon fill="none" stroke="black" points="166.5,-0.5 166.5,-21.5 305.5,-21.5 305.5,-0.5 166.5,-0.5"/>
<text text-anchor="middle" x="236" y="-8.5" font-family="Helvetica,sans-Serif" font-size="10.00">mytimemodule::updateloads</text>
</a>
</g>
<!-- Node1&#45;&gt;Node4 -->
<g id="edge8" class="edge"><title>Node1&#45;&gt;Node4</title>
<path fill="none" stroke="midnightblue" d="M111.275,-39.446C132.376,-34.6336 157.545,-28.8932 179.73,-23.8335"/>
<polygon fill="midnightblue" stroke="midnightblue" points="180.717,-27.1985 189.688,-21.5624 179.16,-20.3737 180.717,-27.1985"/>
</g>
<!-- Node2&#45;&gt;Node3 -->
<g id="edge4" class="edge"><title>Node2&#45;&gt;Node3</title>
<path fill="none" stroke="midnightblue" d="M295.672,-81.723C307.406,-80.2919 319.801,-78.7804 331.79,-77.3182"/>
<polygon fill="midnightblue" stroke="midnightblue" points="332.24,-80.7894 341.743,-76.1045 331.393,-73.8409 332.24,-80.7894"/>
</g>
</g>
</svg>
