<?xml version="1.0" encoding="UTF-8" standalone="no"?>
<!DOCTYPE svg PUBLIC "-//W3C//DTD SVG 1.1//EN"
 "http://www.w3.org/Graphics/SVG/1.1/DTD/svg11.dtd">
<!-- Generated by graphviz version 2.30.1 (20150305.2338)
 -->
<!-- Title: MakeProject Pages: 1 -->
<!--zoomable 268 -->
<svg id="main" version="1.1" xmlns="http://www.w3.org/2000/svg" xmlns:xlink="http://www.w3.org/1999/xlink" xml:space="preserve" onload="init(evt)">
<style type="text/css"><![CDATA[
.edge:hover path { stroke: red; }
.edge:hover polygon { stroke: red; fill: red; }
]]></style>
<script type="text/javascript"><![CDATA[
var edges = document.getElementsByTagName('g');
if (edges && edges.length) {
  for (var i=0;i<edges.length;i++) {
    if (edges[i].id.substr(0,4)=='edge') {
      edges[i].setAttribute('class','edge');
    }
  }
}
]]></script>
        <defs>
                <circle id="rim" cx="0" cy="0" r="7"/>
                <circle id="rim2" cx="0" cy="0" r="3.5"/>
                <g id="zoomPlus">
                        <use xlink:href="#rim" fill="#404040">
                                <set attributeName="fill" to="#808080" begin="zoomplus.mouseover" end="zoomplus.mouseout"/>
                        </use>
                        <path d="M-4,0h8M0,-4v8" fill="none" stroke="white" stroke-width="1.5" pointer-events="none"/>
                </g>
                <g id="zoomMin">
                        <use xlink:href="#rim" fill="#404040">
                                <set attributeName="fill" to="#808080" begin="zoomminus.mouseover" end="zoomminus.mouseout"/>
                        </use>
                        <path d="M-4,0h8" fill="none" stroke="white" stroke-width="1.5" pointer-events="none"/>
                </g>
                <g id="dirArrow">
                        <path fill="none" stroke="white" stroke-width="1.5" d="M0,-3.0v7 M-2.5,-0.5L0,-3.0L2.5,-0.5"/>
                </g>
               <g id="resetDef">
                       <use xlink:href="#rim2" fill="#404040">
                               <set attributeName="fill" to="#808080" begin="reset.mouseover" end="reset.mouseout"/>
                       </use>
               </g>
        </defs>

<script type="text/javascript">
var viewWidth = 560;
var viewHeight = 268;
var sectionId = 'dynsection-0';
</script>
<script xlink:href="svgpan.js"/>
<svg id="graph" class="graph">
<g id="viewport">
<title>MakeProject</title>
<!-- Node1 -->
<g id="node1" class="node"><title>Node1</title>
<polygon fill="#bfbfbf" stroke="black" points="0.5,-120.5 0.5,-139.5 71.5,-139.5 71.5,-120.5 0.5,-120.5"/>
<text text-anchor="middle" x="36" y="-127.5" font-family="Helvetica,sans-Serif" font-size="10.00">MakeProject</text>
</g>
<!-- Node2 -->
<g id="node2" class="node"><title>Node2</title>
<g id="a_node2"><a xlink:href="namespaceIRAD_1_1Sys_afe7cbdace3dec046da8a36d08578610d.html#afe7cbdace3dec046da8a36d08578610d" target="_top" xlink:title="IRAD::Sys::ChDir">
<polygon fill="none" stroke="black" points="130,-240.5 130,-259.5 226,-259.5 226,-240.5 130,-240.5"/>
<text text-anchor="middle" x="178" y="-247.5" font-family="Helvetica,sans-Serif" font-size="10.00">IRAD::Sys::ChDir</text>
</a>
</g>
</g>
<!-- Node1&#45;&gt;Node2 -->
<g id="edge1" class="edge"><title>Node1&#45;&gt;Node2</title>
<path fill="none" stroke="midnightblue" d="M41.0736,-139.748C50.0405,-159.986 73.473,-206.694 108,-231 111.759,-233.646 115.873,-235.925 120.161,-237.886"/>
<polygon fill="midnightblue" stroke="midnightblue" points="119.168,-241.258 129.754,-241.693 121.75,-234.751 119.168,-241.258"/>
</g>
<!-- Node3 -->
<g id="node3" class="node"><title>Node3</title>
<g id="a_node3"><a xlink:href="namespaceIRAD_1_1Sys_a907ccb4be0eba55b76775c69712059ad.html#a907ccb4be0eba55b76775c69712059ad" target="_top" xlink:title="IRAD::Sys::CreateDirectory">
<polygon fill="none" stroke="black" points="108,-202.5 108,-221.5 248,-221.5 248,-202.5 108,-202.5"/>
<text text-anchor="middle" x="178" y="-209.5" font-family="Helvetica,sans-Serif" font-size="10.00">IRAD::Sys::CreateDirectory</text>
</a>
</g>
</g>
<!-- Node1&#45;&gt;Node3 -->
<g id="edge2" class="edge"><title>Node1&#45;&gt;Node3</title>
<path fill="none" stroke="midnightblue" d="M45.164,-139.62C57.4191,-153.453 81.9292,-178.851 108,-193 112.215,-195.287 116.727,-197.317 121.351,-199.114"/>
<polygon fill="midnightblue" stroke="midnightblue" points="120.345,-202.471 130.94,-202.486 122.667,-195.867 120.345,-202.471"/>
</g>
<!-- Node4 -->
<g id="node4" class="node"><title>Node4</title>
<g id="a_node4"><a xlink:href="namespaceElmerFoamFSI_a3261e5acb7e570cd0f7988a29b3002a8.html#a3261e5acb7e570cd0f7988a29b3002a8" target="_top" xlink:title="Exclude certain template files from conversion in project creation. ">
<polygon fill="none" stroke="black" points="149.5,-164.5 149.5,-183.5 206.5,-183.5 206.5,-164.5 149.5,-164.5"/>
<text text-anchor="middle" x="178" y="-171.5" font-family="Helvetica,sans-Serif" font-size="10.00">Excluded</text>
</a>
</g>
</g>
<!-- Node1&#45;&gt;Node4 -->
<g id="edge3" class="edge"><title>Node1&#45;&gt;Node4</title>
<path fill="none" stroke="midnightblue" d="M64.2181,-139.512C77.3962,-144.038 93.4747,-149.442 108,-154 118.175,-157.193 129.25,-160.483 139.489,-163.451"/>
<polygon fill="midnightblue" stroke="midnightblue" points="138.807,-166.897 149.384,-166.295 140.74,-160.169 138.807,-166.897"/>
</g>
<!-- Node5 -->
<g id="node5" class="node"><title>Node5</title>
<g id="a_node5"><a xlink:href="classIRAD_1_1Sys_1_1InProcess_a3f481172d730dc4f700fa60da15da03e.html#a3f481172d730dc4f700fa60da15da03e" target="_top" xlink:title="IRAD::Sys::InProcess\l::Execute">
<polygon fill="none" stroke="black" points="120.5,-115 120.5,-145 235.5,-145 235.5,-115 120.5,-115"/>
<text text-anchor="start" x="128.5" y="-133" font-family="Helvetica,sans-Serif" font-size="10.00">IRAD::Sys::InProcess</text>
<text text-anchor="middle" x="178" y="-122" font-family="Helvetica,sans-Serif" font-size="10.00">::Execute</text>
</a>
</g>
</g>
<!-- Node1&#45;&gt;Node5 -->
<g id="edge4" class="edge"><title>Node1&#45;&gt;Node5</title>
<path fill="none" stroke="midnightblue" d="M71.6068,-130C83.3503,-130 96.8974,-130 110.284,-130"/>
<polygon fill="midnightblue" stroke="midnightblue" points="110.457,-133.5 120.457,-130 110.457,-126.5 110.457,-133.5"/>
</g>
<!-- Node9 -->
<g id="node9" class="node"><title>Node9</title>
<g id="a_node9"><a xlink:href="namespaceIRAD_1_1Sys_a64439af6e8939be5517df918e2ecea36.html#a64439af6e8939be5517df918e2ecea36" target="_top" xlink:title="IRAD::Sys::FILEEXISTS">
<polygon fill="none" stroke="black" points="114,-76.5 114,-95.5 242,-95.5 242,-76.5 114,-76.5"/>
<text text-anchor="middle" x="178" y="-83.5" font-family="Helvetica,sans-Serif" font-size="10.00">IRAD::Sys::FILEEXISTS</text>
</a>
</g>
</g>
<!-- Node1&#45;&gt;Node9 -->
<g id="edge8" class="edge"><title>Node1&#45;&gt;Node9</title>
<path fill="none" stroke="midnightblue" d="M64.2181,-120.488C77.3962,-115.962 93.4747,-110.558 108,-106 116.126,-103.45 124.825,-100.838 133.215,-98.3778"/>
<polygon fill="midnightblue" stroke="midnightblue" points="134.242,-101.724 142.868,-95.5724 132.289,-95.0022 134.242,-101.724"/>
</g>
<!-- Node10 -->
<g id="node10" class="node"><title>Node10</title>
<g id="a_node10"><a xlink:href="namespaceIRAD_1_1Sys_a7fedc8245d345e74b2b491b733b9fa73.html#a7fedc8245d345e74b2b491b733b9fa73" target="_top" xlink:title="IRAD::Sys::Remove">
<polygon fill="none" stroke="black" points="124.5,-38.5 124.5,-57.5 231.5,-57.5 231.5,-38.5 124.5,-38.5"/>
<text text-anchor="middle" x="178" y="-45.5" font-family="Helvetica,sans-Serif" font-size="10.00">IRAD::Sys::Remove</text>
</a>
</g>
</g>
<!-- Node1&#45;&gt;Node10 -->
<g id="edge9" class="edge"><title>Node1&#45;&gt;Node10</title>
<path fill="none" stroke="midnightblue" d="M45.164,-120.38C57.4191,-106.547 81.9292,-81.1491 108,-67 112.215,-64.7127 116.727,-62.6832 121.351,-60.8857"/>
<polygon fill="midnightblue" stroke="midnightblue" points="122.667,-64.133 130.94,-57.514 120.345,-57.5293 122.667,-64.133"/>
</g>
<!-- Node11 -->
<g id="node11" class="node"><title>Node11</title>
<g id="a_node11"><a xlink:href="namespaceIRAD_1_1Sys_ada7f1d70ac61c1da4eee75cc2f686567.html#ada7f1d70ac61c1da4eee75cc2f686567" target="_top" xlink:title="IRAD::Sys::Rename">
<polygon fill="none" stroke="black" points="124.5,-0.5 124.5,-19.5 231.5,-19.5 231.5,-0.5 124.5,-0.5"/>
<text text-anchor="middle" x="178" y="-7.5" font-family="Helvetica,sans-Serif" font-size="10.00">IRAD::Sys::Rename</text>
</a>
</g>
</g>
<!-- Node1&#45;&gt;Node11 -->
<g id="edge10" class="edge"><title>Node1&#45;&gt;Node11</title>
<path fill="none" stroke="midnightblue" d="M41.0736,-120.252C50.0405,-100.014 73.473,-53.3063 108,-29 110.743,-27.0689 113.675,-25.3337 116.726,-23.7747"/>
<polygon fill="midnightblue" stroke="midnightblue" points="118.43,-26.8484 126.163,-19.6062 115.601,-20.4452 118.43,-26.8484"/>
</g>
<!-- Node6 -->
<g id="node6" class="node"><title>Node6</title>
<g id="a_node6"><a xlink:href="classIRAD_1_1Sys_1_1fdistream_a9c75c18093415e5ee6ed0db880234d50.html#a9c75c18093415e5ee6ed0db880234d50" target="_top" xlink:title="IRAD::Sys::fdistream\l::Init">
<polygon fill="none" stroke="black" points="284.5,-115 284.5,-145 395.5,-145 395.5,-115 284.5,-115"/>
<text text-anchor="start" x="292.5" y="-133" font-family="Helvetica,sans-Serif" font-size="10.00">IRAD::Sys::fdistream</text>
<text text-anchor="middle" x="340" y="-122" font-family="Helvetica,sans-Serif" font-size="10.00">::Init</text>
</a>
</g>
</g>
<!-- Node5&#45;&gt;Node6 -->
<g id="edge5" class="edge"><title>Node5&#45;&gt;Node6</title>
<path fill="none" stroke="midnightblue" d="M235.861,-130C248.334,-130 261.63,-130 274.383,-130"/>
<polygon fill="midnightblue" stroke="midnightblue" points="274.468,-133.5 284.468,-130 274.468,-126.5 274.468,-133.5"/>
</g>
<!-- Node7 -->
<g id="node7" class="node"><title>Node7</title>
<g id="a_node7"><a xlink:href="classIRAD_1_1Sys_1_1fdinbuf_ae47b2b2bde19d7cc697daca696c971fa.html#ae47b2b2bde19d7cc697daca696c971fa" target="_top" xlink:title="IRAD::Sys::fdinbuf\l::Init">
<polygon fill="none" stroke="black" points="442,-137 442,-167 542,-167 542,-137 442,-137"/>
<text text-anchor="start" x="450" y="-155" font-family="Helvetica,sans-Serif" font-size="10.00">IRAD::Sys::fdinbuf</text>
<text text-anchor="middle" x="492" y="-144" font-family="Helvetica,sans-Serif" font-size="10.00">::Init</text>
</a>
</g>
</g>
<!-- Node6&#45;&gt;Node7 -->
<g id="edge6" class="edge"><title>Node6&#45;&gt;Node7</title>
<path fill="none" stroke="midnightblue" d="M395.578,-138.005C407.24,-139.715 419.615,-141.53 431.453,-143.266"/>
<polygon fill="midnightblue" stroke="midnightblue" points="431.284,-146.779 441.686,-144.767 432.3,-139.853 431.284,-146.779"/>
</g>
<!-- Node8 -->
<g id="node8" class="node"><title>Node8</title>
<g id="a_node8"><a xlink:href="classIRAD_1_1Sys_1_1fdinbuf_ae35946314ac7f20fe7fcb3dc4c4185fc.html#ae35946314ac7f20fe7fcb3dc4c4185fc" target="_top" xlink:title="IRAD::Sys::fdinbuf::FD">
<polygon fill="none" stroke="black" points="432.5,-98.5 432.5,-117.5 551.5,-117.5 551.5,-98.5 432.5,-98.5"/>
<text text-anchor="middle" x="492" y="-105.5" font-family="Helvetica,sans-Serif" font-size="10.00">IRAD::Sys::fdinbuf::FD</text>
</a>
</g>
</g>
<!-- Node6&#45;&gt;Node8 -->
<g id="edge7" class="edge"><title>Node6&#45;&gt;Node8</title>
<path fill="none" stroke="midnightblue" d="M395.578,-121.995C404.281,-120.719 413.381,-119.384 422.359,-118.067"/>
<polygon fill="midnightblue" stroke="midnightblue" points="423.03,-121.506 432.416,-116.592 422.014,-114.581 423.03,-121.506"/>
</g>
</g>
</svg>
        <g id="navigator" transform="translate(0 0)" fill="#404254">
                <rect fill="#f2f5e9" fill-opacity="0.5" stroke="#606060" stroke-width=".5" x="0" y="0" width="60" height="60"/>
                <use id="zoomplus" xlink:href="#zoomPlus" x="17" y="9" onmousedown="handleZoom(evt,'in')"/>
                <use id="zoomminus" xlink:href="#zoomMin" x="42" y="9" onmousedown="handleZoom(evt,'out')"/>
                <use id="reset" xlink:href="#resetDef" x="30" y="36" onmousedown="handleReset()"/>
                <g id="arrowUp" xlink:href="#dirArrow" transform="translate(30 24)" onmousedown="handlePan(0,-1)">
                  <use xlink:href="#rim" fill="#404040">
                        <set attributeName="fill" to="#808080" begin="arrowUp.mouseover" end="arrowUp.mouseout"/>
                  </use>
                  <path fill="none" stroke="white" stroke-width="1.5" d="M0,-3.0v7 M-2.5,-0.5L0,-3.0L2.5,-0.5"/>
                </g>
                <g id="arrowRight" xlink:href="#dirArrow" transform="rotate(90) translate(36 -43)" onmousedown="handlePan(1,0)">
                  <use xlink:href="#rim" fill="#404040">
                        <set attributeName="fill" to="#808080" begin="arrowRight.mouseover" end="arrowRight.mouseout"/>
                  </use>
                  <path fill="none" stroke="white" stroke-width="1.5" d="M0,-3.0v7 M-2.5,-0.5L0,-3.0L2.5,-0.5"/>
                </g>
                <g id="arrowDown" xlink:href="#dirArrow" transform="rotate(180) translate(-30 -48)" onmousedown="handlePan(0,1)">
                  <use xlink:href="#rim" fill="#404040">
                        <set attributeName="fill" to="#808080" begin="arrowDown.mouseover" end="arrowDown.mouseout"/>
                  </use>
                  <path fill="none" stroke="white" stroke-width="1.5" d="M0,-3.0v7 M-2.5,-0.5L0,-3.0L2.5,-0.5"/>
                </g>
                <g id="arrowLeft" xlink:href="#dirArrow" transform="rotate(270) translate(-36 17)" onmousedown="handlePan(-1,0)">
                  <use xlink:href="#rim" fill="#404040">
                        <set attributeName="fill" to="#808080" begin="arrowLeft.mouseover" end="arrowLeft.mouseout"/>
                  </use>
                  <path fill="none" stroke="white" stroke-width="1.5" d="M0,-3.0v7 M-2.5,-0.5L0,-3.0L2.5,-0.5"/>
                </g>
        </g>
        <svg viewBox="0 0 15 15" width="100%" height="30px" preserveAspectRatio="xMaxYMin meet">
         <g id="arrow_out" transform="scale(0.3 0.3)">
          <a xlink:href="namespaceElmerFoamFSI_aa2359350d020cad5cca93309e5531e19_aa2359350d020cad5cca93309e5531e19_cgraph_org.svg" target="_base">
           <rect id="button" ry="5" rx="5" y="6" x="6" height="38" width="38"
                fill="#f2f5e9" fill-opacity="0.5" stroke="#606060" stroke-width="1.0"/>
           <path id="arrow"
             d="M 11.500037,31.436501 C 11.940474,20.09759 22.043105,11.32322 32.158766,21.979434 L 37.068811,17.246167 C 37.068811,17.246167 37.088388,32 37.088388,32 L 22.160133,31.978069 C 22.160133,31.978069 26.997745,27.140456 26.997745,27.140456 C 18.528582,18.264221 13.291696,25.230495 11.500037,31.436501 z"
             style="fill:#404040;"/>
          </a>
         </g>
        </svg>
</svg>
