<?xml version="1.0" encoding="UTF-8" standalone="no"?>
<!DOCTYPE svg PUBLIC "-//W3C//DTD SVG 1.1//EN"
 "http://www.w3.org/Graphics/SVG/1.1/DTD/svg11.dtd">
<!-- Generated by graphviz version 2.30.1 (20150305.2338)
 -->
<!-- Title: WriteVTKToStream Pages: 1 -->
<!--zoomable 241 -->
<svg id="main" version="1.1" xmlns="http://www.w3.org/2000/svg" xmlns:xlink="http://www.w3.org/1999/xlink" xml:space="preserve" onload="init(evt)">
<style type="text/css"><![CDATA[
.edge:hover path { stroke: red; }
.edge:hover polygon { stroke: red; fill: red; }
]]></style>
<script type="text/javascript"><![CDATA[
var edges = document.getElementsByTagName('g');
if (edges && edges.length) {
  for (var i=0;i<edges.length;i++) {
    if (edges[i].id.substr(0,4)=='edge') {
      edges[i].setAttribute('class','edge');
    }
  }
}
]]></script>
        <defs>
                <circle id="rim" cx="0" cy="0" r="7"/>
                <circle id="rim2" cx="0" cy="0" r="3.5"/>
                <g id="zoomPlus">
                        <use xlink:href="#rim" fill="#404040">
                                <set attributeName="fill" to="#808080" begin="zoomplus.mouseover" end="zoomplus.mouseout"/>
                        </use>
                        <path d="M-4,0h8M0,-4v8" fill="none" stroke="white" stroke-width="1.5" pointer-events="none"/>
                </g>
                <g id="zoomMin">
                        <use xlink:href="#rim" fill="#404040">
                                <set attributeName="fill" to="#808080" begin="zoomminus.mouseover" end="zoomminus.mouseout"/>
                        </use>
                        <path d="M-4,0h8" fill="none" stroke="white" stroke-width="1.5" pointer-events="none"/>
                </g>
                <g id="dirArrow">
                        <path fill="none" stroke="white" stroke-width="1.5" d="M0,-3.0v7 M-2.5,-0.5L0,-3.0L2.5,-0.5"/>
                </g>
               <g id="resetDef">
                       <use xlink:href="#rim2" fill="#404040">
                               <set attributeName="fill" to="#808080" begin="reset.mouseover" end="reset.mouseout"/>
                       </use>
               </g>
        </defs>

<script type="text/javascript">
var viewWidth = 708;
var viewHeight = 241;
var sectionId = 'dynsection-1';
</script>
<script xlink:href="svgpan.js"/>
<svg id="graph" class="graph">
<g id="viewport">
<title>WriteVTKToStream</title>
<!-- Node1 -->
<g id="node1" class="node"><title>Node1</title>
<polygon fill="#bfbfbf" stroke="black" points="0,-115.5 0,-134.5 102,-134.5 102,-115.5 0,-115.5"/>
<text text-anchor="middle" x="51" y="-122.5" font-family="Helvetica,sans-Serif" font-size="10.00">WriteVTKToStream</text>
</g>
<!-- Node2 -->
<g id="node2" class="node"><title>Node2</title>
<g id="a_node2"><a xlink:href="OFModuleDriver_8C_a0ddf1224851353fc92bfbff6f499fa97.html#a0ddf1224851353fc92bfbff6f499fa97" target="_top" xlink:title="main">
<polygon fill="none" stroke="black" points="194,-213.5 194,-232.5 232,-232.5 232,-213.5 194,-213.5"/>
<text text-anchor="middle" x="213" y="-220.5" font-family="Helvetica,sans-Serif" font-size="10.00">main</text>
</a>
</g>
</g>
<!-- Node1&#45;&gt;Node2 -->
<g id="edge1" class="edge"><title>Node1&#45;&gt;Node2</title>
<path fill="none" stroke="midnightblue" d="M66.4708,-142.655C82.2221,-160.718 109.057,-188.295 138,-204 155.604,-213.552 178.186,-218.446 193.75,-220.854"/>
<polygon fill="midnightblue" stroke="midnightblue" points="68.8094,-140.002 59.6681,-134.646 63.4742,-144.534 68.8094,-140.002"/>
</g>
<!-- Node3 -->
<g id="node3" class="node"><title>Node3</title>
<g id="a_node3"><a xlink:href="namespaceCOM_ac3c87a84f9357bebe23933f58fa16aef.html#ac3c87a84f9357bebe23933f58fa16aef" target="_top" xlink:title="COM::parallelProgram">
<polygon fill="none" stroke="black" points="156.5,-175.5 156.5,-194.5 269.5,-194.5 269.5,-175.5 156.5,-175.5"/>
<text text-anchor="middle" x="213" y="-182.5" font-family="Helvetica,sans-Serif" font-size="10.00">COM::parallelProgram</text>
</a>
</g>
</g>
<!-- Node1&#45;&gt;Node3 -->
<g id="edge2" class="edge"><title>Node1&#45;&gt;Node3</title>
<path fill="none" stroke="midnightblue" d="M78.5094,-139.282C95.2264,-147.872 117.464,-158.548 138,-166 147.85,-169.574 158.668,-172.752 168.918,-175.437"/>
<polygon fill="midnightblue" stroke="midnightblue" points="79.8438,-136.03 69.3593,-134.506 76.6046,-142.236 79.8438,-136.03"/>
</g>
<!-- Node4 -->
<g id="node4" class="node"><title>Node4</title>
<g id="a_node4"><a xlink:href="classSolverModuleDriver_a58e8be2db2660128e4e6456a9c981fb5.html#a58e8be2db2660128e4e6456a9c981fb5" target="_top" xlink:title="SolverModuleDriver::run">
<polygon fill="none" stroke="black" points="152,-137.5 152,-156.5 274,-156.5 274,-137.5 152,-137.5"/>
<text text-anchor="middle" x="213" y="-144.5" font-family="Helvetica,sans-Serif" font-size="10.00">SolverModuleDriver::run</text>
</a>
</g>
</g>
<!-- Node1&#45;&gt;Node4 -->
<g id="edge3" class="edge"><title>Node1&#45;&gt;Node4</title>
<path fill="none" stroke="midnightblue" d="M112.374,-133.301C125.307,-135.08 138.969,-136.958 151.892,-138.735"/>
<polygon fill="midnightblue" stroke="midnightblue" points="112.57,-129.795 102.186,-131.901 111.616,-136.73 112.57,-129.795"/>
</g>
<!-- Node6 -->
<g id="node6" class="node"><title>Node6</title>
<g id="a_node6"><a xlink:href="classCOM_1_1SolverModuleDriver_aea42380c0ab504512101fe9a4beb3521.html#aea42380c0ab504512101fe9a4beb3521" target="_top" xlink:title="COM::SolverModuleDriver\l::vtkDump">
<polygon fill="none" stroke="black" points="147.5,-88 147.5,-118 278.5,-118 278.5,-88 147.5,-88"/>
<text text-anchor="start" x="155.5" y="-106" font-family="Helvetica,sans-Serif" font-size="10.00">COM::SolverModuleDriver</text>
<text text-anchor="middle" x="213" y="-95" font-family="Helvetica,sans-Serif" font-size="10.00">::vtkDump</text>
</a>
</g>
</g>
<!-- Node1&#45;&gt;Node6 -->
<g id="edge5" class="edge"><title>Node1&#45;&gt;Node6</title>
<path fill="none" stroke="midnightblue" d="M112.106,-116.735C123.594,-115.156 135.667,-113.496 147.293,-111.897"/>
<polygon fill="midnightblue" stroke="midnightblue" points="111.616,-113.27 102.186,-118.099 112.57,-120.205 111.616,-113.27"/>
</g>
<!-- Node10 -->
<g id="node10" class="node"><title>Node10</title>
<g id="a_node10"><a xlink:href="classfsicouplingpar_a66a7e856c6cd0d50b9e7984c98dc459a.html#a66a7e856c6cd0d50b9e7984c98dc459a" target="_top" xlink:title="fsicouplingpar::WriteAgent\lToVTK">
<polygon fill="none" stroke="black" points="147.5,-39 147.5,-69 278.5,-69 278.5,-39 147.5,-39"/>
<text text-anchor="start" x="155.5" y="-57" font-family="Helvetica,sans-Serif" font-size="10.00">fsicouplingpar::WriteAgent</text>
<text text-anchor="middle" x="213" y="-46" font-family="Helvetica,sans-Serif" font-size="10.00">ToVTK</text>
</a>
</g>
</g>
<!-- Node1&#45;&gt;Node10 -->
<g id="edge9" class="edge"><title>Node1&#45;&gt;Node10</title>
<path fill="none" stroke="midnightblue" d="M76.0893,-110.252C93.004,-100.294 116.378,-87.3178 138,-78 145.442,-74.793 153.46,-71.7708 161.376,-69.0232"/>
<polygon fill="midnightblue" stroke="midnightblue" points="74.2032,-107.302 67.4089,-115.431 77.7898,-113.313 74.2032,-107.302"/>
</g>
<!-- Node12 -->
<g id="node12" class="node"><title>Node12</title>
<g id="a_node12"><a xlink:href="classfsicoupling_a66a7e856c6cd0d50b9e7984c98dc459a.html#a66a7e856c6cd0d50b9e7984c98dc459a" target="_top" xlink:title="fsicoupling::WriteAgentToVTK">
<polygon fill="none" stroke="black" points="138.5,-0.5 138.5,-19.5 287.5,-19.5 287.5,-0.5 138.5,-0.5"/>
<text text-anchor="middle" x="213" y="-7.5" font-family="Helvetica,sans-Serif" font-size="10.00">fsicoupling::WriteAgentToVTK</text>
</a>
</g>
</g>
<!-- Node1&#45;&gt;Node12 -->
<g id="edge11" class="edge"><title>Node1&#45;&gt;Node12</title>
<path fill="none" stroke="midnightblue" d="M63.3988,-106.745C77.9958,-84.9114 105.347,-48.8321 138,-29 144.349,-25.1442 151.461,-22.0661 158.698,-19.61"/>
<polygon fill="midnightblue" stroke="midnightblue" points="60.2878,-105.11 57.7805,-115.403 66.1599,-108.92 60.2878,-105.11"/>
</g>
<!-- Node5 -->
<g id="node5" class="node"><title>Node5</title>
<g id="a_node5"><a xlink:href="ElmerFSI_2trunk_2src_2SolverModuleDriver_8C_a0ddf1224851353fc92bfbff6f499fa97.html#a0ddf1224851353fc92bfbff6f499fa97" target="_top" xlink:title="main">
<polygon fill="none" stroke="black" points="381,-137.5 381,-156.5 419,-156.5 419,-137.5 381,-137.5"/>
<text text-anchor="middle" x="400" y="-144.5" font-family="Helvetica,sans-Serif" font-size="10.00">main</text>
</a>
</g>
</g>
<!-- Node4&#45;&gt;Node5 -->
<g id="edge4" class="edge"><title>Node4&#45;&gt;Node5</title>
<path fill="none" stroke="midnightblue" d="M284.247,-147C319.145,-147 358.535,-147 380.903,-147"/>
<polygon fill="midnightblue" stroke="midnightblue" points="284.064,-143.5 274.064,-147 284.064,-150.5 284.064,-143.5"/>
</g>
<!-- Node7 -->
<g id="node7" class="node"><title>Node7</title>
<g id="a_node7"><a xlink:href="classCOM_1_1SolverModuleDriver_a58e8be2db2660128e4e6456a9c981fb5.html#a58e8be2db2660128e4e6456a9c981fb5" target="_top" xlink:title="COM::SolverModuleDriver::run">
<polygon fill="none" stroke="black" points="324.5,-93.5 324.5,-112.5 475.5,-112.5 475.5,-93.5 324.5,-93.5"/>
<text text-anchor="middle" x="400" y="-100.5" font-family="Helvetica,sans-Serif" font-size="10.00">COM::SolverModuleDriver::run</text>
</a>
</g>
</g>
<!-- Node6&#45;&gt;Node7 -->
<g id="edge6" class="edge"><title>Node6&#45;&gt;Node7</title>
<path fill="none" stroke="midnightblue" d="M288.829,-103C300.487,-103 312.534,-103 324.191,-103"/>
<polygon fill="midnightblue" stroke="midnightblue" points="288.704,-99.5001 278.704,-103 288.704,-106.5 288.704,-99.5001"/>
</g>
<!-- Node8 -->
<g id="node8" class="node"><title>Node8</title>
<g id="a_node8"><a xlink:href="namespaceCOM_ad2c6e118fa61fc0ead53e102bd072dfd.html#ad2c6e118fa61fc0ead53e102bd072dfd" target="_top" xlink:title="COM::parallelProgram">
<polygon fill="none" stroke="black" points="512.5,-93.5 512.5,-112.5 625.5,-112.5 625.5,-93.5 512.5,-93.5"/>
<text text-anchor="middle" x="569" y="-100.5" font-family="Helvetica,sans-Serif" font-size="10.00">COM::parallelProgram</text>
</a>
</g>
</g>
<!-- Node7&#45;&gt;Node8 -->
<g id="edge7" class="edge"><title>Node7&#45;&gt;Node8</title>
<path fill="none" stroke="midnightblue" d="M485.86,-103C494.863,-103 503.845,-103 512.388,-103"/>
<polygon fill="midnightblue" stroke="midnightblue" points="485.708,-99.5001 475.708,-103 485.708,-106.5 485.708,-99.5001"/>
</g>
<!-- Node9 -->
<g id="node9" class="node"><title>Node9</title>
<g id="a_node9"><a xlink:href="OFModuleDriverPar_8C_a3c04138a5bfe5d72780bb7e82a18e627.html#a3c04138a5bfe5d72780bb7e82a18e627" target="_top" xlink:title="main">
<polygon fill="none" stroke="black" points="662,-93.5 662,-112.5 700,-112.5 700,-93.5 662,-93.5"/>
<text text-anchor="middle" x="681" y="-100.5" font-family="Helvetica,sans-Serif" font-size="10.00">main</text>
</a>
</g>
</g>
<!-- Node8&#45;&gt;Node9 -->
<g id="edge8" class="edge"><title>Node8&#45;&gt;Node9</title>
<path fill="none" stroke="midnightblue" d="M635.941,-103C645.32,-103 654.257,-103 661.6,-103"/>
<polygon fill="midnightblue" stroke="midnightblue" points="635.645,-99.5001 625.645,-103 635.644,-106.5 635.645,-99.5001"/>
</g>
<!-- Node11 -->
<g id="node11" class="node"><title>Node11</title>
<g id="a_node11"><a xlink:href="classfsicouplingpar_aad3062aacf7bb38e937f92b51f0b2f30.html#aad3062aacf7bb38e937f92b51f0b2f30" target="_top" xlink:title="fsicouplingpar::DumpSolution">
<polygon fill="none" stroke="black" points="328,-44.5 328,-63.5 472,-63.5 472,-44.5 328,-44.5"/>
<text text-anchor="middle" x="400" y="-51.5" font-family="Helvetica,sans-Serif" font-size="10.00">fsicouplingpar::DumpSolution</text>
</a>
</g>
</g>
<!-- Node10&#45;&gt;Node11 -->
<g id="edge10" class="edge"><title>Node10&#45;&gt;Node11</title>
<path fill="none" stroke="midnightblue" d="M288.867,-54C301.689,-54 314.98,-54 327.706,-54"/>
<polygon fill="midnightblue" stroke="midnightblue" points="288.704,-50.5001 278.704,-54 288.704,-57.5001 288.704,-50.5001"/>
</g>
<!-- Node13 -->
<g id="node13" class="node"><title>Node13</title>
<g id="a_node13"><a xlink:href="classfsicoupling_aad3062aacf7bb38e937f92b51f0b2f30.html#aad3062aacf7bb38e937f92b51f0b2f30" target="_top" xlink:title="fsicoupling::DumpSolution">
<polygon fill="none" stroke="black" points="334.5,-0.5 334.5,-19.5 465.5,-19.5 465.5,-0.5 334.5,-0.5"/>
<text text-anchor="middle" x="400" y="-7.5" font-family="Helvetica,sans-Serif" font-size="10.00">fsicoupling::DumpSolution</text>
</a>
</g>
</g>
<!-- Node12&#45;&gt;Node13 -->
<g id="edge12" class="edge"><title>Node12&#45;&gt;Node13</title>
<path fill="none" stroke="midnightblue" d="M297.851,-10C310.077,-10 322.507,-10 334.275,-10"/>
<polygon fill="midnightblue" stroke="midnightblue" points="297.649,-6.5001 287.648,-10 297.648,-13.5001 297.649,-6.5001"/>
</g>
</g>
</svg>
        <g id="navigator" transform="translate(0 0)" fill="#404254">
                <rect fill="#f2f5e9" fill-opacity="0.5" stroke="#606060" stroke-width=".5" x="0" y="0" width="60" height="60"/>
                <use id="zoomplus" xlink:href="#zoomPlus" x="17" y="9" onmousedown="handleZoom(evt,'in')"/>
                <use id="zoomminus" xlink:href="#zoomMin" x="42" y="9" onmousedown="handleZoom(evt,'out')"/>
                <use id="reset" xlink:href="#resetDef" x="30" y="36" onmousedown="handleReset()"/>
                <g id="arrowUp" xlink:href="#dirArrow" transform="translate(30 24)" onmousedown="handlePan(0,-1)">
                  <use xlink:href="#rim" fill="#404040">
                        <set attributeName="fill" to="#808080" begin="arrowUp.mouseover" end="arrowUp.mouseout"/>
                  </use>
                  <path fill="none" stroke="white" stroke-width="1.5" d="M0,-3.0v7 M-2.5,-0.5L0,-3.0L2.5,-0.5"/>
                </g>
                <g id="arrowRight" xlink:href="#dirArrow" transform="rotate(90) translate(36 -43)" onmousedown="handlePan(1,0)">
                  <use xlink:href="#rim" fill="#404040">
                        <set attributeName="fill" to="#808080" begin="arrowRight.mouseover" end="arrowRight.mouseout"/>
                  </use>
                  <path fill="none" stroke="white" stroke-width="1.5" d="M0,-3.0v7 M-2.5,-0.5L0,-3.0L2.5,-0.5"/>
                </g>
                <g id="arrowDown" xlink:href="#dirArrow" transform="rotate(180) translate(-30 -48)" onmousedown="handlePan(0,1)">
                  <use xlink:href="#rim" fill="#404040">
                        <set attributeName="fill" to="#808080" begin="arrowDown.mouseover" end="arrowDown.mouseout"/>
                  </use>
                  <path fill="none" stroke="white" stroke-width="1.5" d="M0,-3.0v7 M-2.5,-0.5L0,-3.0L2.5,-0.5"/>
                </g>
                <g id="arrowLeft" xlink:href="#dirArrow" transform="rotate(270) translate(-36 17)" onmousedown="handlePan(-1,0)">
                  <use xlink:href="#rim" fill="#404040">
                        <set attributeName="fill" to="#808080" begin="arrowLeft.mouseover" end="arrowLeft.mouseout"/>
                  </use>
                  <path fill="none" stroke="white" stroke-width="1.5" d="M0,-3.0v7 M-2.5,-0.5L0,-3.0L2.5,-0.5"/>
                </g>
        </g>
        <svg viewBox="0 0 15 15" width="100%" height="30px" preserveAspectRatio="xMaxYMin meet">
         <g id="arrow_out" transform="scale(0.3 0.3)">
          <a xlink:href="namespaceSolverUtils_a4b3e50cefefe85867c8de76b742654ff_a4b3e50cefefe85867c8de76b742654ff_icgraph_org.svg" target="_base">
           <rect id="button" ry="5" rx="5" y="6" x="6" height="38" width="38"
                fill="#f2f5e9" fill-opacity="0.5" stroke="#606060" stroke-width="1.0"/>
           <path id="arrow"
             d="M 11.500037,31.436501 C 11.940474,20.09759 22.043105,11.32322 32.158766,21.979434 L 37.068811,17.246167 C 37.068811,17.246167 37.088388,32 37.088388,32 L 22.160133,31.978069 C 22.160133,31.978069 26.997745,27.140456 26.997745,27.140456 C 18.528582,18.264221 13.291696,25.230495 11.500037,31.436501 z"
             style="fill:#404040;"/>
          </a>
         </g>
        </svg>
</svg>
