<?xml version="1.0" encoding="UTF-8" standalone="no"?>
<!DOCTYPE svg PUBLIC "-//W3C//DTD SVG 1.1//EN"
 "http://www.w3.org/Graphics/SVG/1.1/DTD/svg11.dtd">
<!-- Generated by graphviz version 2.30.1 (20150305.2338)
 -->
<!-- Title: PaneToAgent Pages: 1 -->
<svg width="1286pt" height="381pt"
 viewBox="0.00 0.00 1286.00 381.00" xmlns="http://www.w3.org/2000/svg" xmlns:xlink="http://www.w3.org/1999/xlink">
<g id="graph0" class="graph" transform="scale(1 1) rotate(0) translate(4 377)">
<title>PaneToAgent</title>
<!-- Node1 -->
<g id="node1" class="node"><title>Node1</title>
<polygon fill="#bfbfbf" stroke="black" points="0,-138.5 0,-157.5 76,-157.5 76,-138.5 0,-138.5"/>
<text text-anchor="middle" x="38" y="-145.5" font-family="Helvetica,sans-Serif" font-size="10.00">PaneToAgent</text>
</g>
<!-- Node2 -->
<g id="node2" class="node"><title>Node2</title>
<g id="a_node2"><a xlink:href="namespaceSolverUtils_a9da67f474f0ef835bb9707e6598de2bd.html#a9da67f474f0ef835bb9707e6598de2bd" target="_top" xlink:title="PopulateSolverAgentFromWindow">
<polygon fill="none" stroke="black" points="112,-138.5 112,-157.5 278,-157.5 278,-138.5 112,-138.5"/>
<text text-anchor="middle" x="195" y="-145.5" font-family="Helvetica,sans-Serif" font-size="10.00">PopulateSolverAgentFromWindow</text>
</a>
</g>
</g>
<!-- Node1&#45;&gt;Node2 -->
<g id="edge1" class="edge"><title>Node1&#45;&gt;Node2</title>
<path fill="none" stroke="midnightblue" d="M86.1304,-148C94.2799,-148 102.962,-148 111.725,-148"/>
<polygon fill="midnightblue" stroke="midnightblue" points="86.1264,-144.5 76.1264,-148 86.1263,-151.5 86.1264,-144.5"/>
</g>
<!-- Node3 -->
<g id="node3" class="node"><title>Node3</title>
<g id="a_node3"><a xlink:href="classopenfoamagent_a9a8261713154978fa009d8cb2c533055.html#a9a8261713154978fa009d8cb2c533055" target="_top" xlink:title="openfoamagent::Initialize">
<polygon fill="none" stroke="black" points="321.5,-157.5 321.5,-176.5 446.5,-176.5 446.5,-157.5 321.5,-157.5"/>
<text text-anchor="middle" x="384" y="-164.5" font-family="Helvetica,sans-Serif" font-size="10.00">openfoamagent::Initialize</text>
</a>
</g>
</g>
<!-- Node2&#45;&gt;Node3 -->
<g id="edge2" class="edge"><title>Node2&#45;&gt;Node3</title>
<path fill="none" stroke="midnightblue" d="M288.276,-157.376C299.471,-158.513 310.688,-159.653 321.287,-160.73"/>
<polygon fill="midnightblue" stroke="midnightblue" points="288.324,-153.863 278.021,-156.334 287.616,-160.827 288.324,-153.863"/>
</g>
<!-- Node18 -->
<g id="node18" class="node"><title>Node18</title>
<g id="a_node18"><a xlink:href="classopenfoamagentpar_a9a8261713154978fa009d8cb2c533055.html#a9a8261713154978fa009d8cb2c533055" target="_top" xlink:title="openfoamagentpar::Initialize">
<polygon fill="none" stroke="black" points="314.5,-119.5 314.5,-138.5 453.5,-138.5 453.5,-119.5 314.5,-119.5"/>
<text text-anchor="middle" x="384" y="-126.5" font-family="Helvetica,sans-Serif" font-size="10.00">openfoamagentpar::Initialize</text>
</a>
</g>
</g>
<!-- Node2&#45;&gt;Node18 -->
<g id="edge28" class="edge"><title>Node2&#45;&gt;Node18</title>
<path fill="none" stroke="midnightblue" d="M288.045,-138.648C296.945,-137.744 305.863,-136.837 314.476,-135.962"/>
<polygon fill="midnightblue" stroke="midnightblue" points="287.616,-135.173 278.021,-139.666 288.324,-142.137 287.616,-135.173"/>
</g>
<!-- Node20 -->
<g id="node20" class="node"><title>Node20</title>
<g id="a_node20"><a xlink:href="classelmeragent_a66d8ac5294227a11adf08cdfa91f59b5.html#a66d8ac5294227a11adf08cdfa91f59b5" target="_top" xlink:title="elmeragent::Initialize">
<polygon fill="none" stroke="black" points="330.5,-195.5 330.5,-214.5 437.5,-214.5 437.5,-195.5 330.5,-195.5"/>
<text text-anchor="middle" x="384" y="-202.5" font-family="Helvetica,sans-Serif" font-size="10.00">elmeragent::Initialize</text>
</a>
</g>
</g>
<!-- Node2&#45;&gt;Node20 -->
<g id="edge30" class="edge"><title>Node2&#45;&gt;Node20</title>
<path fill="none" stroke="midnightblue" d="M234.244,-160.774C257.276,-168.353 287.233,-178.009 314,-186 324.715,-189.199 336.424,-192.497 347.104,-195.429"/>
<polygon fill="midnightblue" stroke="midnightblue" points="235.1,-157.371 224.506,-157.558 232.904,-164.018 235.1,-157.371"/>
</g>
<!-- Node22 -->
<g id="node22" class="node"><title>Node22</title>
<g id="a_node22"><a xlink:href="classelmeragentpar_a66d8ac5294227a11adf08cdfa91f59b5.html#a66d8ac5294227a11adf08cdfa91f59b5" target="_top" xlink:title="elmeragentpar::Initialize">
<polygon fill="none" stroke="black" points="324,-81.5 324,-100.5 444,-100.5 444,-81.5 324,-81.5"/>
<text text-anchor="middle" x="384" y="-88.5" font-family="Helvetica,sans-Serif" font-size="10.00">elmeragentpar::Initialize</text>
</a>
</g>
</g>
<!-- Node2&#45;&gt;Node22 -->
<g id="edge35" class="edge"><title>Node2&#45;&gt;Node22</title>
<path fill="none" stroke="midnightblue" d="M234.244,-135.226C257.276,-127.647 287.233,-117.991 314,-110 324.715,-106.801 336.424,-103.503 347.104,-100.571"/>
<polygon fill="midnightblue" stroke="midnightblue" points="232.904,-131.982 224.506,-138.442 235.1,-138.629 232.904,-131.982"/>
</g>
<!-- Node4 -->
<g id="node4" class="node"><title>Node4</title>
<g id="a_node4"><a xlink:href="classfsicoupling_ae855141f7b214925c25f7797b8b122a8.html#ae855141f7b214925c25f7797b8b122a8" target="_top" xlink:title="fsicoupling::Initialize">
<polygon fill="none" stroke="black" points="497.5,-176.5 497.5,-195.5 602.5,-195.5 602.5,-176.5 497.5,-176.5"/>
<text text-anchor="middle" x="550" y="-183.5" font-family="Helvetica,sans-Serif" font-size="10.00">fsicoupling::Initialize</text>
</a>
</g>
</g>
<!-- Node3&#45;&gt;Node4 -->
<g id="edge3" class="edge"><title>Node3&#45;&gt;Node4</title>
<path fill="none" stroke="midnightblue" d="M456.85,-175.324C470.47,-176.902 484.469,-178.524 497.313,-180.012"/>
<polygon fill="midnightblue" stroke="midnightblue" points="456.871,-171.803 446.534,-174.129 456.065,-178.757 456.871,-171.803"/>
</g>
<!-- Node17 -->
<g id="node17" class="node"><title>Node17</title>
<g id="a_node17"><a xlink:href="classElmerFoamFSI_1_1TestingObject_a08d0370a943e7c47c0098eb76664a71b.html#a08d0370a943e7c47c0098eb76664a71b" target="_top" xlink:title="Run an initialization check to make sure the OpenFoamFluids are running as they should. ">
<polygon fill="none" stroke="black" points="664.5,-0 664.5,-30 813.5,-30 813.5,-0 664.5,-0"/>
<text text-anchor="start" x="672.5" y="-18" font-family="Helvetica,sans-Serif" font-size="10.00">ElmerFoamFSI::TestingObject</text>
<text text-anchor="middle" x="739" y="-7" font-family="Helvetica,sans-Serif" font-size="10.00">::Test__OpenFoamFluids</text>
</a>
</g>
</g>
<!-- Node3&#45;&gt;Node17 -->
<g id="edge25" class="edge"><title>Node3&#45;&gt;Node17</title>
<path fill="none" stroke="midnightblue" d="M456.975,-163.943C504.854,-158.532 566.672,-144.668 610,-110 637.625,-87.896 618.453,-61.2015 646,-39 651.526,-34.546 657.792,-30.9111 664.392,-27.9458"/>
<polygon fill="midnightblue" stroke="midnightblue" points="456.569,-160.466 446.981,-164.973 457.287,-167.429 456.569,-160.466"/>
</g>
<!-- Node5 -->
<g id="node5" class="node"><title>Node5</title>
<g id="a_node5"><a xlink:href="classElmerFoamFSI_1_1SerialDriverProgram_a5803949d99491a7186bf1ee9cee81a3b.html#a5803949d99491a7186bf1ee9cee81a3b" target="_top" xlink:title="This function implements the main function executed by the program. ">
<polygon fill="none" stroke="black" points="669,-343 669,-373 809,-373 809,-343 669,-343"/>
<text text-anchor="start" x="677" y="-361" font-family="Helvetica,sans-Serif" font-size="10.00">ElmerFoamFSI::SerialDriver</text>
<text text-anchor="middle" x="739" y="-350" font-family="Helvetica,sans-Serif" font-size="10.00">Program::DriverRun</text>
</a>
</g>
</g>
<!-- Node4&#45;&gt;Node5 -->
<g id="edge4" class="edge"><title>Node4&#45;&gt;Node5</title>
<path fill="none" stroke="midnightblue" d="M558.011,-205.036C570.62,-236.572 600.156,-299.491 646,-333 652.815,-337.981 660.566,-341.97 668.609,-345.164"/>
<polygon fill="midnightblue" stroke="midnightblue" points="561.249,-203.703 554.385,-195.632 554.718,-206.222 561.249,-203.703"/>
</g>
<!-- Node7 -->
<g id="node7" class="node"><title>Node7</title>
<g id="a_node7"><a xlink:href="classElmerFoamFSI_1_1TestingObject_aa7d577bcec96bb12da930ede076b6023.html#aa7d577bcec96bb12da930ede076b6023" target="_top" xlink:title="Test for fluidAgent&#45;&gt;Run() function. ">
<polygon fill="none" stroke="black" points="664.5,-49 664.5,-79 813.5,-79 813.5,-49 664.5,-49"/>
<text text-anchor="start" x="672.5" y="-67" font-family="Helvetica,sans-Serif" font-size="10.00">ElmerFoamFSI::TestingObject</text>
<text text-anchor="middle" x="739" y="-56" font-family="Helvetica,sans-Serif" font-size="10.00">::Test__FluidAgentRun</text>
</a>
</g>
</g>
<!-- Node4&#45;&gt;Node7 -->
<g id="edge6" class="edge"><title>Node4&#45;&gt;Node7</title>
<path fill="none" stroke="midnightblue" d="M575.778,-170.888C586.983,-163.347 599.938,-153.581 610,-143 630.133,-121.829 622.277,-105.051 646,-88 651.63,-83.9537 657.888,-80.5891 664.418,-77.7914"/>
<polygon fill="midnightblue" stroke="midnightblue" points="573.729,-168.046 567.255,-176.433 577.546,-173.914 573.729,-168.046"/>
</g>
<!-- Node13 -->
<g id="node13" class="node"><title>Node13</title>
<g id="a_node13"><a xlink:href="classElmerFoamFSI_1_1TestingObject_a07ff57097065c5066a4421176b63242b.html#a07ff57097065c5066a4421176b63242b" target="_top" xlink:title="Test the functionality of the fsiCoupler. ">
<polygon fill="none" stroke="black" points="664.5,-245 664.5,-275 813.5,-275 813.5,-245 664.5,-245"/>
<text text-anchor="start" x="672.5" y="-263" font-family="Helvetica,sans-Serif" font-size="10.00">ElmerFoamFSI::TestingObject</text>
<text text-anchor="middle" x="739" y="-252" font-family="Helvetica,sans-Serif" font-size="10.00">::Test__FsiCoupler</text>
</a>
</g>
</g>
<!-- Node4&#45;&gt;Node13 -->
<g id="edge13" class="edge"><title>Node4&#45;&gt;Node13</title>
<path fill="none" stroke="midnightblue" d="M575.785,-200.623C594.573,-211.249 621.289,-225.394 646,-235 655.41,-238.658 665.56,-241.993 675.561,-244.95"/>
<polygon fill="midnightblue" stroke="midnightblue" points="577.405,-197.518 566.989,-195.578 573.922,-203.589 577.405,-197.518"/>
</g>
<!-- Node14 -->
<g id="node14" class="node"><title>Node14</title>
<g id="a_node14"><a xlink:href="classElmerFoamFSI_1_1TestingObject_a1fae1ccecf337df1572d5a43cdae1a08.html#a1fae1ccecf337df1572d5a43cdae1a08" target="_top" xlink:title="Test for solidAgent&#45;&gt;Run() function. ">
<polygon fill="none" stroke="black" points="664.5,-196 664.5,-226 813.5,-226 813.5,-196 664.5,-196"/>
<text text-anchor="start" x="672.5" y="-214" font-family="Helvetica,sans-Serif" font-size="10.00">ElmerFoamFSI::TestingObject</text>
<text text-anchor="middle" x="739" y="-203" font-family="Helvetica,sans-Serif" font-size="10.00">::Test__SolidAgentRun</text>
</a>
</g>
</g>
<!-- Node4&#45;&gt;Node14 -->
<g id="edge16" class="edge"><title>Node4&#45;&gt;Node14</title>
<path fill="none" stroke="midnightblue" d="M612.641,-194.241C629.125,-196.445 647.109,-198.849 664.177,-201.131"/>
<polygon fill="midnightblue" stroke="midnightblue" points="612.969,-190.754 602.594,-192.898 612.042,-197.692 612.969,-190.754"/>
</g>
<!-- Node15 -->
<g id="node15" class="node"><title>Node15</title>
<g id="a_node15"><a xlink:href="classElmerFoamFSI_1_1TestingObject_abb3c0f68a2d2e212fa6e05e4628c78f0.html#abb3c0f68a2d2e212fa6e05e4628c78f0" target="_top" xlink:title="Test for fsiCoupling::TrasferDisplacementsToFluid function. ">
<polygon fill="none" stroke="black" points="646,-147 646,-177 832,-177 832,-147 646,-147"/>
<text text-anchor="start" x="654" y="-165" font-family="Helvetica,sans-Serif" font-size="10.00">ElmerFoamFSI::TestingObject</text>
<text text-anchor="middle" x="739" y="-154" font-family="Helvetica,sans-Serif" font-size="10.00">::Test__TransferDisplacementsToFluid</text>
</a>
</g>
</g>
<!-- Node4&#45;&gt;Node15 -->
<g id="edge19" class="edge"><title>Node4&#45;&gt;Node15</title>
<path fill="none" stroke="midnightblue" d="M612.567,-178.098C623.192,-176.735 634.441,-175.291 645.668,-173.85"/>
<polygon fill="midnightblue" stroke="midnightblue" points="612.067,-174.634 602.594,-179.378 612.958,-181.577 612.067,-174.634"/>
</g>
<!-- Node16 -->
<g id="node16" class="node"><title>Node16</title>
<g id="a_node16"><a xlink:href="classElmerFoamFSI_1_1TestingObject_a8c738943eca358248eb583bd29c5c332.html#a8c738943eca358248eb583bd29c5c332" target="_top" xlink:title="Test for TransferLoadsToStructures() function. ">
<polygon fill="none" stroke="black" points="653.5,-98 653.5,-128 824.5,-128 824.5,-98 653.5,-98"/>
<text text-anchor="start" x="661.5" y="-116" font-family="Helvetica,sans-Serif" font-size="10.00">ElmerFoamFSI::TestingObject</text>
<text text-anchor="middle" x="739" y="-105" font-family="Helvetica,sans-Serif" font-size="10.00">::Test__TransferLoadsToStructures</text>
</a>
</g>
</g>
<!-- Node4&#45;&gt;Node16 -->
<g id="edge22" class="edge"><title>Node4&#45;&gt;Node16</title>
<path fill="none" stroke="midnightblue" d="M575.756,-171.303C594.53,-160.64 621.241,-146.481 646,-137 654.633,-133.694 663.891,-130.687 673.088,-128.005"/>
<polygon fill="midnightblue" stroke="midnightblue" points="573.884,-168.343 566.969,-176.369 577.38,-174.407 573.884,-168.343"/>
</g>
<!-- Node6 -->
<g id="node6" class="node"><title>Node6</title>
<g id="a_node6"><a xlink:href="namespaceElmerFoamFSI_aff46f457934a8e2d3712bdbfb1688e99.html#aff46f457934a8e2d3712bdbfb1688e99" target="_top" xlink:title="Unified driver for the example programs. ">
<polygon fill="none" stroke="black" points="885.5,-348.5 885.5,-367.5 1000.5,-367.5 1000.5,-348.5 885.5,-348.5"/>
<text text-anchor="middle" x="943" y="-355.5" font-family="Helvetica,sans-Serif" font-size="10.00">ElmerFoamFSI::Driver</text>
</a>
</g>
</g>
<!-- Node5&#45;&gt;Node6 -->
<g id="edge5" class="edge"><title>Node5&#45;&gt;Node6</title>
<path fill="none" stroke="midnightblue" d="M819.243,-358C841.284,-358 864.777,-358 885.247,-358"/>
<polygon fill="midnightblue" stroke="midnightblue" points="819.234,-354.5 809.234,-358 819.234,-361.5 819.234,-354.5"/>
</g>
<!-- Node8 -->
<g id="node8" class="node"><title>Node8</title>
<g id="a_node8"><a xlink:href="classElmerFoamFSI_1_1TestingObject_a046f7ab06db0acf616b0d2bf3d3146aa.html#a046f7ab06db0acf616b0d2bf3d3146aa" target="_top" xlink:title="Runs all tests implemented by the ElmerFoamFSI::TestingObject. ">
<polygon fill="none" stroke="black" points="868.5,-122 868.5,-152 1017.5,-152 1017.5,-122 868.5,-122"/>
<text text-anchor="start" x="876.5" y="-140" font-family="Helvetica,sans-Serif" font-size="10.00">ElmerFoamFSI::TestingObject</text>
<text text-anchor="middle" x="943" y="-129" font-family="Helvetica,sans-Serif" font-size="10.00">::Process</text>
</a>
</g>
</g>
<!-- Node7&#45;&gt;Node8 -->
<g id="edge7" class="edge"><title>Node7&#45;&gt;Node8</title>
<path fill="none" stroke="midnightblue" d="M813.288,-81.9503C819.657,-83.8624 825.969,-85.8859 832,-88 859.621,-97.6814 889.93,-111.428 911.725,-121.899"/>
<polygon fill="midnightblue" stroke="midnightblue" points="813.844,-78.4672 803.265,-79.0403 811.892,-85.1896 813.844,-78.4672"/>
</g>
<!-- Node11 -->
<g id="node11" class="node"><title>Node11</title>
<g id="a_node11"><a xlink:href="classElmerFoamFSI_1_1TestingObject_af1f07f14b9af7708e4264bb38937eed2.html#af1f07f14b9af7708e4264bb38937eed2" target="_top" xlink:title="Runs a test specified by name. ">
<polygon fill="none" stroke="black" points="868.5,-171 868.5,-201 1017.5,-201 1017.5,-171 868.5,-171"/>
<text text-anchor="start" x="876.5" y="-189" font-family="Helvetica,sans-Serif" font-size="10.00">ElmerFoamFSI::TestingObject</text>
<text text-anchor="middle" x="943" y="-178" font-family="Helvetica,sans-Serif" font-size="10.00">::RunTest</text>
</a>
</g>
</g>
<!-- Node7&#45;&gt;Node11 -->
<g id="edge10" class="edge"><title>Node7&#45;&gt;Node11</title>
<path fill="none" stroke="midnightblue" d="M822.66,-81.532C825.944,-83.4691 829.077,-85.6175 832,-88 860.04,-110.857 840.785,-137.168 868,-161 872.387,-164.841 877.388,-168.098 882.673,-170.857"/>
<polygon fill="midnightblue" stroke="midnightblue" points="824.15,-78.3624 813.659,-76.8822 820.937,-84.5816 824.15,-78.3624"/>
</g>
<!-- Node9 -->
<g id="node9" class="node"><title>Node9</title>
<g id="a_node9"><a xlink:href="namespaceElmerFoamFSI_aeb590657609088b8ab12a5cbd164fcfa.html#aeb590657609088b8ab12a5cbd164fcfa" target="_top" xlink:title="Drives the ElmerFoamFSI::TestObject. ">
<polygon fill="none" stroke="black" points="1075,-130.5 1075,-149.5 1183,-149.5 1183,-130.5 1075,-130.5"/>
<text text-anchor="middle" x="1129" y="-137.5" font-family="Helvetica,sans-Serif" font-size="10.00">ElmerFoamFSI::Test</text>
</a>
</g>
</g>
<!-- Node8&#45;&gt;Node9 -->
<g id="edge8" class="edge"><title>Node8&#45;&gt;Node9</title>
<path fill="none" stroke="midnightblue" d="M1027.96,-138.369C1043.97,-138.63 1060.3,-138.896 1075,-139.136"/>
<polygon fill="midnightblue" stroke="midnightblue" points="1027.57,-134.862 1017.51,-138.199 1027.46,-141.861 1027.57,-134.862"/>
</g>
<!-- Node10 -->
<g id="node10" class="node"><title>Node10</title>
<g id="a_node10"><a xlink:href="TestElmerFoamFSI_8C_a0ddf1224851353fc92bfbff6f499fa97.html#a0ddf1224851353fc92bfbff6f499fa97" target="_top" xlink:title="main">
<polygon fill="none" stroke="black" points="1240,-130.5 1240,-149.5 1278,-149.5 1278,-130.5 1240,-130.5"/>
<text text-anchor="middle" x="1259" y="-137.5" font-family="Helvetica,sans-Serif" font-size="10.00">main</text>
</a>
</g>
</g>
<!-- Node9&#45;&gt;Node10 -->
<g id="edge9" class="edge"><title>Node9&#45;&gt;Node10</title>
<path fill="none" stroke="midnightblue" d="M1193.19,-140C1210.29,-140 1227.47,-140 1239.84,-140"/>
<polygon fill="midnightblue" stroke="midnightblue" points="1193.17,-136.5 1183.17,-140 1193.17,-143.5 1193.17,-136.5"/>
</g>
<!-- Node12 -->
<g id="node12" class="node"><title>Node12</title>
<g id="a_node12"><a xlink:href="classElmerFoamFSI_1_1TestingObject_a21159bd2efac623e5a5079f6a20f3444.html#a21159bd2efac623e5a5079f6a20f3444" target="_top" xlink:title="Runs a list of tests specified by name. ">
<polygon fill="none" stroke="black" points="1054.5,-171 1054.5,-201 1203.5,-201 1203.5,-171 1054.5,-171"/>
<text text-anchor="start" x="1062.5" y="-189" font-family="Helvetica,sans-Serif" font-size="10.00">ElmerFoamFSI::TestingObject</text>
<text text-anchor="middle" x="1129" y="-178" font-family="Helvetica,sans-Serif" font-size="10.00">::ProcessTests</text>
</a>
</g>
</g>
<!-- Node11&#45;&gt;Node12 -->
<g id="edge11" class="edge"><title>Node11&#45;&gt;Node12</title>
<path fill="none" stroke="midnightblue" d="M1027.53,-186C1036.46,-186 1045.5,-186 1054.3,-186"/>
<polygon fill="midnightblue" stroke="midnightblue" points="1027.51,-182.5 1017.51,-186 1027.51,-189.5 1027.51,-182.5"/>
</g>
<!-- Node11&#45;&gt;Node9 -->
<g id="edge12" class="edge"><title>Node11&#45;&gt;Node9</title>
<path fill="none" stroke="midnightblue" d="M1013.99,-168.503C1039.75,-162.061 1067.97,-155.008 1089.89,-149.529"/>
<polygon fill="midnightblue" stroke="midnightblue" points="1013.1,-165.117 1004.25,-170.938 1014.8,-171.908 1013.1,-165.117"/>
</g>
<!-- Node13&#45;&gt;Node8 -->
<g id="edge14" class="edge"><title>Node13&#45;&gt;Node8</title>
<path fill="none" stroke="midnightblue" d="M822.687,-241.563C825.963,-239.592 829.088,-237.412 832,-235 860.169,-211.672 840.403,-185.001 868,-161 871.975,-157.543 876.455,-154.583 881.196,-152.048"/>
<polygon fill="midnightblue" stroke="midnightblue" points="820.91,-238.543 813.701,-246.307 824.178,-244.733 820.91,-238.543"/>
</g>
<!-- Node13&#45;&gt;Node11 -->
<g id="edge15" class="edge"><title>Node13&#45;&gt;Node11</title>
<path fill="none" stroke="midnightblue" d="M810.667,-241.989C817.92,-239.786 825.14,-237.444 832,-235 859.572,-225.179 889.885,-211.445 911.695,-201.015"/>
<polygon fill="midnightblue" stroke="midnightblue" points="809.387,-238.718 800.786,-244.905 811.368,-245.432 809.387,-238.718"/>
</g>
<!-- Node14&#45;&gt;Node8 -->
<g id="edge17" class="edge"><title>Node14&#45;&gt;Node8</title>
<path fill="none" stroke="midnightblue" d="M816.176,-192.525C821.61,-190.532 826.937,-188.36 832,-186 849.656,-177.771 850.548,-169.653 868,-161 874.655,-157.7 881.866,-154.71 889.087,-152.05"/>
<polygon fill="midnightblue" stroke="midnightblue" points="814.631,-189.356 806.315,-195.921 816.91,-195.974 814.631,-189.356"/>
</g>
<!-- Node14&#45;&gt;Node11 -->
<g id="edge18" class="edge"><title>Node14&#45;&gt;Node11</title>
<path fill="none" stroke="midnightblue" d="M823.913,-200.615C838.683,-198.787 853.955,-196.897 868.416,-195.107"/>
<polygon fill="midnightblue" stroke="midnightblue" points="823.278,-197.166 813.784,-201.868 824.138,-204.113 823.278,-197.166"/>
</g>
<!-- Node15&#45;&gt;Node8 -->
<g id="edge20" class="edge"><title>Node15&#45;&gt;Node8</title>
<path fill="none" stroke="midnightblue" d="M842.144,-149.358C851.019,-148.26 859.883,-147.163 868.461,-146.101"/>
<polygon fill="midnightblue" stroke="midnightblue" points="841.628,-145.896 832.133,-150.597 842.487,-152.843 841.628,-145.896"/>
</g>
<!-- Node15&#45;&gt;Node11 -->
<g id="edge21" class="edge"><title>Node15&#45;&gt;Node11</title>
<path fill="none" stroke="midnightblue" d="M842.144,-174.136C851.019,-175.19 859.883,-176.244 868.461,-177.263"/>
<polygon fill="midnightblue" stroke="midnightblue" points="842.476,-170.651 832.133,-172.947 841.65,-177.602 842.476,-170.651"/>
</g>
<!-- Node16&#45;&gt;Node8 -->
<g id="edge23" class="edge"><title>Node16&#45;&gt;Node8</title>
<path fill="none" stroke="midnightblue" d="M835.02,-124.29C846.209,-125.619 857.496,-126.96 868.329,-128.247"/>
<polygon fill="midnightblue" stroke="midnightblue" points="835.131,-120.778 824.788,-123.074 834.305,-127.729 835.131,-120.778"/>
</g>
<!-- Node16&#45;&gt;Node11 -->
<g id="edge24" class="edge"><title>Node16&#45;&gt;Node11</title>
<path fill="none" stroke="midnightblue" d="M817.716,-131.269C822.611,-133.034 827.411,-134.942 832,-137 849.546,-144.869 850.743,-152.516 868,-161 875.423,-164.649 883.511,-167.979 891.524,-170.934"/>
<polygon fill="midnightblue" stroke="midnightblue" points="818.808,-127.944 808.213,-128.05 816.562,-134.574 818.808,-127.944"/>
</g>
<!-- Node17&#45;&gt;Node8 -->
<g id="edge26" class="edge"><title>Node17&#45;&gt;Node8</title>
<path fill="none" stroke="midnightblue" d="M821.091,-33.7878C824.842,-35.3914 828.498,-37.1255 832,-39 872.589,-60.7268 910.482,-100.35 929.404,-121.961"/>
<polygon fill="midnightblue" stroke="midnightblue" points="822.194,-30.461 811.607,-30.0649 819.637,-36.9769 822.194,-30.461"/>
</g>
<!-- Node17&#45;&gt;Node11 -->
<g id="edge27" class="edge"><title>Node17&#45;&gt;Node11</title>
<path fill="none" stroke="midnightblue" d="M822.462,-31.4498C825.875,-33.6687 829.082,-36.1736 832,-39 872.605,-78.3356 828.809,-120.256 868,-161 871.76,-164.909 876.152,-168.207 880.886,-170.99"/>
<polygon fill="midnightblue" stroke="midnightblue" points="824.036,-28.3202 813.598,-26.5028 820.624,-34.4326 824.036,-28.3202"/>
</g>
<!-- Node19 -->
<g id="node19" class="node"><title>Node19</title>
<g id="a_node19"><a xlink:href="classfsicouplingpar_ae855141f7b214925c25f7797b8b122a8.html#ae855141f7b214925c25f7797b8b122a8" target="_top" xlink:title="fsicouplingpar::Initialize">
<polygon fill="none" stroke="black" points="490.5,-81.5 490.5,-100.5 609.5,-100.5 609.5,-81.5 490.5,-81.5"/>
<text text-anchor="middle" x="550" y="-88.5" font-family="Helvetica,sans-Serif" font-size="10.00">fsicouplingpar::Initialize</text>
</a>
</g>
</g>
<!-- Node18&#45;&gt;Node19 -->
<g id="edge29" class="edge"><title>Node18&#45;&gt;Node19</title>
<path fill="none" stroke="midnightblue" d="M436.341,-117.104C459.393,-111.763 486.221,-105.546 507.913,-100.52"/>
<polygon fill="midnightblue" stroke="midnightblue" points="435.336,-113.744 426.384,-119.411 436.916,-120.563 435.336,-113.744"/>
</g>
<!-- Node20&#45;&gt;Node4 -->
<g id="edge31" class="edge"><title>Node20&#45;&gt;Node4</title>
<path fill="none" stroke="midnightblue" d="M447.833,-197.721C464.223,-195.822 481.695,-193.798 497.426,-191.975"/>
<polygon fill="midnightblue" stroke="midnightblue" points="447.324,-194.256 437.793,-198.884 448.13,-201.21 447.324,-194.256"/>
</g>
<!-- Node21 -->
<g id="node21" class="node"><title>Node21</title>
<g id="a_node21"><a xlink:href="classElmerFoamFSI_1_1TestingObject_af35b4f0c5c244be91e637c17b3ebabd9.html#af35b4f0c5c244be91e637c17b3ebabd9" target="_top" xlink:title="Run an initialization check to make sure that the ElmerStructures are running as they should...">
<polygon fill="none" stroke="black" points="664.5,-294 664.5,-324 813.5,-324 813.5,-294 664.5,-294"/>
<text text-anchor="start" x="672.5" y="-312" font-family="Helvetica,sans-Serif" font-size="10.00">ElmerFoamFSI::TestingObject</text>
<text text-anchor="middle" x="739" y="-301" font-family="Helvetica,sans-Serif" font-size="10.00">::Test__ElmerStructures</text>
</a>
</g>
</g>
<!-- Node20&#45;&gt;Node21 -->
<g id="edge32" class="edge"><title>Node20&#45;&gt;Node21</title>
<path fill="none" stroke="midnightblue" d="M425.136,-217.537C476.289,-233.427 567.506,-261.461 646,-284 657.454,-287.289 669.743,-290.706 681.49,-293.918"/>
<polygon fill="midnightblue" stroke="midnightblue" points="426.043,-214.154 415.455,-214.527 423.964,-220.839 426.043,-214.154"/>
</g>
<!-- Node21&#45;&gt;Node8 -->
<g id="edge33" class="edge"><title>Node21&#45;&gt;Node8</title>
<path fill="none" stroke="midnightblue" d="M822.486,-291.639C825.893,-289.387 829.092,-286.852 832,-284 872.666,-244.116 828.309,-201.854 868,-161 871.294,-157.61 875.07,-154.697 879.136,-152.196"/>
<polygon fill="midnightblue" stroke="midnightblue" points="820.595,-288.688 813.634,-296.675 824.057,-294.772 820.595,-288.688"/>
</g>
<!-- Node21&#45;&gt;Node11 -->
<g id="edge34" class="edge"><title>Node21&#45;&gt;Node11</title>
<path fill="none" stroke="midnightblue" d="M818.727,-290.302C823.306,-288.39 827.766,-286.294 832,-284 872.253,-262.189 909.995,-222.967 929.057,-201.345"/>
<polygon fill="midnightblue" stroke="midnightblue" points="817.265,-287.114 809.192,-293.976 819.782,-293.646 817.265,-287.114"/>
</g>
<!-- Node22&#45;&gt;Node19 -->
<g id="edge36" class="edge"><title>Node22&#45;&gt;Node19</title>
<path fill="none" stroke="midnightblue" d="M454.218,-91C466.27,-91 478.698,-91 490.429,-91"/>
<polygon fill="midnightblue" stroke="midnightblue" points="454.208,-87.5001 444.208,-91 454.208,-94.5001 454.208,-87.5001"/>
</g>
</g>
</svg>
