<?xml version="1.0" encoding="UTF-8" standalone="no"?>
<!DOCTYPE svg PUBLIC "-//W3C//DTD SVG 1.1//EN"
 "http://www.w3.org/Graphics/SVG/1.1/DTD/svg11.dtd">
<!-- Generated by graphviz version 2.30.1 (20150305.2338)
 -->
<!-- Title: SymLink Pages: 1 -->
<svg width="850pt" height="110pt"
 viewBox="0.00 0.00 850.00 110.00" xmlns="http://www.w3.org/2000/svg" xmlns:xlink="http://www.w3.org/1999/xlink">
<g id="graph0" class="graph" transform="scale(1 1) rotate(0) translate(4 106)">
<title>SymLink</title>
<!-- Node1 -->
<g id="node1" class="node"><title>Node1</title>
<polygon fill="#bfbfbf" stroke="black" points="0.5,-41.5 0.5,-60.5 55.5,-60.5 55.5,-41.5 0.5,-41.5"/>
<text text-anchor="middle" x="28" y="-48.5" font-family="Helvetica,sans-Serif" font-size="10.00">SymLink</text>
</g>
<!-- Node2 -->
<g id="node2" class="node"><title>Node2</title>
<g id="a_node2"><a xlink:href="classElmerModuleDriver_1_1TestingObject_a90864b099beaf9044bf8fff8a9857c0d.html#a90864b099beaf9044bf8fff8a9857c0d" target="_top" xlink:title="Function to copy input data from source testing directory for use in unit tests. ">
<polygon fill="none" stroke="black" points="92,-36 92,-66 234,-66 234,-36 92,-36"/>
<text text-anchor="start" x="100" y="-54" font-family="Helvetica,sans-Serif" font-size="10.00">ElmerModuleDriver::</text>
<text text-anchor="middle" x="163" y="-43" font-family="Helvetica,sans-Serif" font-size="10.00">TestingObject::GetInputData</text>
</a>
</g>
</g>
<!-- Node1&#45;&gt;Node2 -->
<g id="edge1" class="edge"><title>Node1&#45;&gt;Node2</title>
<path fill="none" stroke="midnightblue" d="M65.8393,-51C74.0031,-51 82.917,-51 91.9186,-51"/>
<polygon fill="midnightblue" stroke="midnightblue" points="65.5949,-47.5001 55.5949,-51 65.5948,-54.5001 65.5949,-47.5001"/>
</g>
<!-- Node3 -->
<g id="node3" class="node"><title>Node3</title>
<g id="a_node3"><a xlink:href="classElmerModuleDriver_1_1TestingObject_ae4d44626a9c27ea8352a740ae562f97d.html#ae4d44626a9c27ea8352a740ae562f97d" target="_top" xlink:title="ElmerModuleDriver::\lTestingObject::Test\l__ElasticBeam3D_LoadFunction">
<polygon fill="none" stroke="black" points="270.5,-60.5 270.5,-101.5 429.5,-101.5 429.5,-60.5 270.5,-60.5"/>
<text text-anchor="start" x="278.5" y="-89.5" font-family="Helvetica,sans-Serif" font-size="10.00">ElmerModuleDriver::</text>
<text text-anchor="start" x="278.5" y="-78.5" font-family="Helvetica,sans-Serif" font-size="10.00">TestingObject::Test</text>
<text text-anchor="middle" x="350" y="-67.5" font-family="Helvetica,sans-Serif" font-size="10.00">__ElasticBeam3D_LoadFunction</text>
</a>
</g>
</g>
<!-- Node2&#45;&gt;Node3 -->
<g id="edge2" class="edge"><title>Node2&#45;&gt;Node3</title>
<path fill="none" stroke="midnightblue" d="M244.313,-64.0238C252.998,-65.4321 261.828,-66.864 270.491,-68.2688"/>
<polygon fill="midnightblue" stroke="midnightblue" points="244.636,-60.5304 234.204,-62.3845 243.515,-67.4402 244.636,-60.5304"/>
</g>
<!-- Node8 -->
<g id="node8" class="node"><title>Node8</title>
<g id="a_node8"><a xlink:href="classElmerModuleDriver_1_1TestingObject_ada2078f55b55b73d4aacf78d061a57de.html#ada2078f55b55b73d4aacf78d061a57de" target="_top" xlink:title="ElmerModuleDriver::\lTestingObject::Test\l__ElmerUnitTests">
<polygon fill="none" stroke="black" points="297,-0.5 297,-41.5 403,-41.5 403,-0.5 297,-0.5"/>
<text text-anchor="start" x="305" y="-29.5" font-family="Helvetica,sans-Serif" font-size="10.00">ElmerModuleDriver::</text>
<text text-anchor="start" x="305" y="-18.5" font-family="Helvetica,sans-Serif" font-size="10.00">TestingObject::Test</text>
<text text-anchor="middle" x="350" y="-7.5" font-family="Helvetica,sans-Serif" font-size="10.00">__ElmerUnitTests</text>
</a>
</g>
</g>
<!-- Node2&#45;&gt;Node8 -->
<g id="edge7" class="edge"><title>Node2&#45;&gt;Node8</title>
<path fill="none" stroke="midnightblue" d="M244.079,-38.0142C262.002,-35.1077 280.559,-32.0985 296.992,-29.4337"/>
<polygon fill="midnightblue" stroke="midnightblue" points="243.515,-34.5598 234.204,-39.6155 244.636,-41.4696 243.515,-34.5598"/>
</g>
<!-- Node4 -->
<g id="node4" class="node"><title>Node4</title>
<g id="a_node4"><a xlink:href="classElmerModuleDriver_1_1TestingObject_af1f07f14b9af7708e4264bb38937eed2.html#af1f07f14b9af7708e4264bb38937eed2" target="_top" xlink:title="Runs a test specified by name. ">
<polygon fill="none" stroke="black" points="466.5,-55 466.5,-85 587.5,-85 587.5,-55 466.5,-55"/>
<text text-anchor="start" x="474.5" y="-73" font-family="Helvetica,sans-Serif" font-size="10.00">ElmerModuleDriver::</text>
<text text-anchor="middle" x="527" y="-62" font-family="Helvetica,sans-Serif" font-size="10.00">TestingObject::RunTest</text>
</a>
</g>
</g>
<!-- Node3&#45;&gt;Node4 -->
<g id="edge3" class="edge"><title>Node3&#45;&gt;Node4</title>
<path fill="none" stroke="midnightblue" d="M439.712,-75.4238C448.732,-74.8568 457.735,-74.2909 466.337,-73.7502"/>
<polygon fill="midnightblue" stroke="midnightblue" points="439.303,-71.9426 429.542,-76.0631 439.742,-78.9288 439.303,-71.9426"/>
</g>
<!-- Node5 -->
<g id="node5" class="node"><title>Node5</title>
<g id="a_node5"><a xlink:href="classElmerModuleDriver_1_1TestingObject_a21159bd2efac623e5a5079f6a20f3444.html#a21159bd2efac623e5a5079f6a20f3444" target="_top" xlink:title="Runs a list of tests specified by name. ">
<polygon fill="none" stroke="black" points="624,-55 624,-85 768,-85 768,-55 624,-55"/>
<text text-anchor="start" x="632" y="-73" font-family="Helvetica,sans-Serif" font-size="10.00">ElmerModuleDriver::</text>
<text text-anchor="middle" x="696" y="-62" font-family="Helvetica,sans-Serif" font-size="10.00">TestingObject::ProcessTests</text>
</a>
</g>
</g>
<!-- Node4&#45;&gt;Node5 -->
<g id="edge4" class="edge"><title>Node4&#45;&gt;Node5</title>
<path fill="none" stroke="midnightblue" d="M597.828,-70C606.451,-70 615.275,-70 623.917,-70"/>
<polygon fill="midnightblue" stroke="midnightblue" points="597.819,-66.5001 587.819,-70 597.819,-73.5001 597.819,-66.5001"/>
</g>
<!-- Node6 -->
<g id="node6" class="node"><title>Node6</title>
<g id="a_node6"><a xlink:href="namespaceElmerModuleDriver_a657930328d3dc159ded2e9fd6473b2b6.html#a657930328d3dc159ded2e9fd6473b2b6" target="_top" xlink:title="Drives the ElmerModuleDriver::TestObject. ">
<polygon fill="none" stroke="black" points="633.5,-14.5 633.5,-33.5 758.5,-33.5 758.5,-14.5 633.5,-14.5"/>
<text text-anchor="middle" x="696" y="-21.5" font-family="Helvetica,sans-Serif" font-size="10.00">ElmerModuleDriver::Test</text>
</a>
</g>
</g>
<!-- Node4&#45;&gt;Node6 -->
<g id="edge5" class="edge"><title>Node4&#45;&gt;Node6</title>
<path fill="none" stroke="midnightblue" d="M592.449,-52.2477C615.583,-45.8753 640.779,-38.9351 660.407,-33.5286"/>
<polygon fill="midnightblue" stroke="midnightblue" points="591.394,-48.9079 582.682,-54.9379 593.252,-55.6565 591.394,-48.9079"/>
</g>
<!-- Node7 -->
<g id="node7" class="node"><title>Node7</title>
<g id="a_node7"><a xlink:href="TestElmerModuleDriver_8C_a0ddf1224851353fc92bfbff6f499fa97.html#a0ddf1224851353fc92bfbff6f499fa97" target="_top" xlink:title="main">
<polygon fill="none" stroke="black" points="804,-14.5 804,-33.5 842,-33.5 842,-14.5 804,-14.5"/>
<text text-anchor="middle" x="823" y="-21.5" font-family="Helvetica,sans-Serif" font-size="10.00">main</text>
</a>
</g>
</g>
<!-- Node6&#45;&gt;Node7 -->
<g id="edge6" class="edge"><title>Node6&#45;&gt;Node7</title>
<path fill="none" stroke="midnightblue" d="M768.783,-24C781.79,-24 794.248,-24 803.836,-24"/>
<polygon fill="midnightblue" stroke="midnightblue" points="768.768,-20.5001 758.768,-24 768.768,-27.5001 768.768,-20.5001"/>
</g>
<!-- Node9 -->
<g id="node9" class="node"><title>Node9</title>
<g id="a_node9"><a xlink:href="classElmerModuleDriver_1_1TestingObject_a046f7ab06db0acf616b0d2bf3d3146aa.html#a046f7ab06db0acf616b0d2bf3d3146aa" target="_top" xlink:title="Process all tests and populate a &quot;results&quot; object. ">
<polygon fill="none" stroke="black" points="467.5,-6 467.5,-36 586.5,-36 586.5,-6 467.5,-6"/>
<text text-anchor="start" x="475.5" y="-24" font-family="Helvetica,sans-Serif" font-size="10.00">ElmerModuleDriver::</text>
<text text-anchor="middle" x="527" y="-13" font-family="Helvetica,sans-Serif" font-size="10.00">TestingObject::Process</text>
</a>
</g>
</g>
<!-- Node8&#45;&gt;Node9 -->
<g id="edge8" class="edge"><title>Node8&#45;&gt;Node9</title>
<path fill="none" stroke="midnightblue" d="M413.221,-21C430.863,-21 450.004,-21 467.422,-21"/>
<polygon fill="midnightblue" stroke="midnightblue" points="413.032,-17.5001 403.032,-21 413.032,-24.5001 413.032,-17.5001"/>
</g>
<!-- Node8&#45;&gt;Node4 -->
<g id="edge10" class="edge"><title>Node8&#45;&gt;Node4</title>
<path fill="none" stroke="midnightblue" d="M412.714,-38.2798C432.172,-43.7283 453.499,-49.6998 472.349,-54.9776"/>
<polygon fill="midnightblue" stroke="midnightblue" points="413.605,-34.8949 403.032,-35.5689 411.718,-41.6357 413.605,-34.8949"/>
</g>
<!-- Node9&#45;&gt;Node6 -->
<g id="edge9" class="edge"><title>Node9&#45;&gt;Node6</title>
<path fill="none" stroke="midnightblue" d="M596.883,-22.2374C608.938,-22.454 621.413,-22.6781 633.26,-22.8909"/>
<polygon fill="midnightblue" stroke="midnightblue" points="596.939,-18.738 586.878,-22.0577 596.813,-25.7368 596.939,-18.738"/>
</g>
</g>
</svg>
