<?xml version="1.0" encoding="UTF-8" standalone="no"?>
<!DOCTYPE svg PUBLIC "-//W3C//DTD SVG 1.1//EN"
 "http://www.w3.org/Graphics/SVG/1.1/DTD/svg11.dtd">
<!-- Generated by graphviz version 2.30.1 (20150305.2338)
 -->
<!-- Title: ExampleFunction Pages: 1 -->
<svg width="732pt" height="87pt"
 viewBox="0.00 0.00 732.00 87.00" xmlns="http://www.w3.org/2000/svg" xmlns:xlink="http://www.w3.org/1999/xlink">
<g id="graph0" class="graph" transform="scale(1 1) rotate(0) translate(4 83)">
<title>ExampleFunction</title>
<!-- Node1 -->
<g id="node1" class="node"><title>Node1</title>
<polygon fill="#bfbfbf" stroke="black" points="0,-29.5 0,-48.5 92,-48.5 92,-29.5 0,-29.5"/>
<text text-anchor="middle" x="46" y="-36.5" font-family="Helvetica,sans-Serif" font-size="10.00">ExampleFunction</text>
</g>
<!-- Node2 -->
<g id="node2" class="node"><title>Node2</title>
<g id="a_node2"><a xlink:href="classElmerFoamFSI_1_1TestingObject_a14258b94075936cb7bfadbcfc9a37b87.html#a14258b94075936cb7bfadbcfc9a37b87" target="_top" xlink:title="Test for ElmerFoamFSI::ExampleFunction. ">
<polygon fill="none" stroke="black" points="128.5,-24 128.5,-54 277.5,-54 277.5,-24 128.5,-24"/>
<text text-anchor="start" x="136.5" y="-42" font-family="Helvetica,sans-Serif" font-size="10.00">ElmerFoamFSI::TestingObject</text>
<text text-anchor="middle" x="203" y="-31" font-family="Helvetica,sans-Serif" font-size="10.00">::Test__ExampleFunction</text>
</a>
</g>
</g>
<!-- Node1&#45;&gt;Node2 -->
<g id="edge1" class="edge"><title>Node1&#45;&gt;Node2</title>
<path fill="none" stroke="midnightblue" d="M102.341,-39C110.796,-39 119.635,-39 128.407,-39"/>
<polygon fill="midnightblue" stroke="midnightblue" points="102.249,-35.5001 92.2491,-39 102.249,-42.5001 102.249,-35.5001"/>
</g>
<!-- Node3 -->
<g id="node3" class="node"><title>Node3</title>
<g id="a_node3"><a xlink:href="classElmerFoamFSI_1_1TestingObject_a046f7ab06db0acf616b0d2bf3d3146aa.html#a046f7ab06db0acf616b0d2bf3d3146aa" target="_top" xlink:title="Runs all tests implemented by the ElmerFoamFSI::TestingObject. ">
<polygon fill="none" stroke="black" points="314.5,-49 314.5,-79 463.5,-79 463.5,-49 314.5,-49"/>
<text text-anchor="start" x="322.5" y="-67" font-family="Helvetica,sans-Serif" font-size="10.00">ElmerFoamFSI::TestingObject</text>
<text text-anchor="middle" x="389" y="-56" font-family="Helvetica,sans-Serif" font-size="10.00">::Process</text>
</a>
</g>
</g>
<!-- Node2&#45;&gt;Node3 -->
<g id="edge2" class="edge"><title>Node2&#45;&gt;Node3</title>
<path fill="none" stroke="midnightblue" d="M287.533,-50.3495C296.462,-51.5627 305.498,-52.7905 314.302,-53.9866"/>
<polygon fill="midnightblue" stroke="midnightblue" points="287.895,-46.8667 277.515,-48.9884 286.953,-53.803 287.895,-46.8667"/>
</g>
<!-- Node6 -->
<g id="node6" class="node"><title>Node6</title>
<g id="a_node6"><a xlink:href="classElmerFoamFSI_1_1TestingObject_af1f07f14b9af7708e4264bb38937eed2.html#af1f07f14b9af7708e4264bb38937eed2" target="_top" xlink:title="Runs a test specified by name. ">
<polygon fill="none" stroke="black" points="314.5,-0 314.5,-30 463.5,-30 463.5,-0 314.5,-0"/>
<text text-anchor="start" x="322.5" y="-18" font-family="Helvetica,sans-Serif" font-size="10.00">ElmerFoamFSI::TestingObject</text>
<text text-anchor="middle" x="389" y="-7" font-family="Helvetica,sans-Serif" font-size="10.00">::RunTest</text>
</a>
</g>
</g>
<!-- Node2&#45;&gt;Node6 -->
<g id="edge5" class="edge"><title>Node2&#45;&gt;Node6</title>
<path fill="none" stroke="midnightblue" d="M287.533,-28.1045C296.462,-26.9398 305.498,-25.7611 314.302,-24.6128"/>
<polygon fill="midnightblue" stroke="midnightblue" points="286.978,-24.647 277.515,-29.4111 287.884,-31.5882 286.978,-24.647"/>
</g>
<!-- Node4 -->
<g id="node4" class="node"><title>Node4</title>
<g id="a_node4"><a xlink:href="namespaceElmerFoamFSI_aeb590657609088b8ab12a5cbd164fcfa.html#aeb590657609088b8ab12a5cbd164fcfa" target="_top" xlink:title="Drives the ElmerFoamFSI::TestObject. ">
<polygon fill="none" stroke="black" points="557,-51.5 557,-70.5 593,-70.5 593,-51.5 557,-51.5"/>
<text text-anchor="middle" x="575" y="-58.5" font-family="Helvetica,sans-Serif" font-size="10.00">Test</text>
</a>
</g>
</g>
<!-- Node3&#45;&gt;Node4 -->
<g id="edge3" class="edge"><title>Node3&#45;&gt;Node4</title>
<path fill="none" stroke="midnightblue" d="M473.628,-62.6365C504.974,-62.1254 537.628,-61.593 556.87,-61.2793"/>
<polygon fill="midnightblue" stroke="midnightblue" points="473.457,-59.1387 463.515,-62.8014 473.571,-66.1378 473.457,-59.1387"/>
</g>
<!-- Node5 -->
<g id="node5" class="node"><title>Node5</title>
<g id="a_node5"><a xlink:href="TestElmerFoamFSI_8C_a0ddf1224851353fc92bfbff6f499fa97.html#a0ddf1224851353fc92bfbff6f499fa97" target="_top" xlink:title="main">
<polygon fill="none" stroke="black" points="686,-51.5 686,-70.5 724,-70.5 724,-51.5 686,-51.5"/>
<text text-anchor="middle" x="705" y="-58.5" font-family="Helvetica,sans-Serif" font-size="10.00">main</text>
</a>
</g>
</g>
<!-- Node4&#45;&gt;Node5 -->
<g id="edge4" class="edge"><title>Node4&#45;&gt;Node5</title>
<path fill="none" stroke="midnightblue" d="M603.496,-61C628.367,-61 664.288,-61 685.773,-61"/>
<polygon fill="midnightblue" stroke="midnightblue" points="603.263,-57.5001 593.263,-61 603.263,-64.5001 603.263,-57.5001"/>
</g>
<!-- Node7 -->
<g id="node7" class="node"><title>Node7</title>
<g id="a_node7"><a xlink:href="classElmerFoamFSI_1_1TestingObject_a21159bd2efac623e5a5079f6a20f3444.html#a21159bd2efac623e5a5079f6a20f3444" target="_top" xlink:title="Runs a list of tests specified by name. ">
<polygon fill="none" stroke="black" points="500.5,-0 500.5,-30 649.5,-30 649.5,-0 500.5,-0"/>
<text text-anchor="start" x="508.5" y="-18" font-family="Helvetica,sans-Serif" font-size="10.00">ElmerFoamFSI::TestingObject</text>
<text text-anchor="middle" x="575" y="-7" font-family="Helvetica,sans-Serif" font-size="10.00">::ProcessTests</text>
</a>
</g>
</g>
<!-- Node6&#45;&gt;Node7 -->
<g id="edge6" class="edge"><title>Node6&#45;&gt;Node7</title>
<path fill="none" stroke="midnightblue" d="M473.533,-15C482.462,-15 491.498,-15 500.302,-15"/>
<polygon fill="midnightblue" stroke="midnightblue" points="473.515,-11.5001 463.515,-15 473.515,-18.5001 473.515,-11.5001"/>
</g>
<!-- Node6&#45;&gt;Node4 -->
<g id="edge7" class="edge"><title>Node6&#45;&gt;Node4</title>
<path fill="none" stroke="midnightblue" d="M460.025,-32.5064C495.182,-41.2956 534.886,-51.2216 556.927,-56.7318"/>
<polygon fill="midnightblue" stroke="midnightblue" points="460.799,-29.0921 450.248,-30.0621 459.101,-35.8831 460.799,-29.0921"/>
</g>
</g>
</svg>
