<?xml version="1.0" encoding="UTF-8" standalone="no"?>
<!DOCTYPE svg PUBLIC "-//W3C//DTD SVG 1.1//EN"
 "http://www.w3.org/Graphics/SVG/1.1/DTD/svg11.dtd">
<!-- Generated by graphviz version 2.30.1 (20150305.2338)
 -->
<!-- Title: PaneToUnstructuredMesh Pages: 1 -->
<svg width="644pt" height="213pt"
 viewBox="0.00 0.00 644.00 213.00" xmlns="http://www.w3.org/2000/svg" xmlns:xlink="http://www.w3.org/1999/xlink">
<g id="graph0" class="graph" transform="scale(1 1) rotate(0) translate(4 209)">
<title>PaneToUnstructuredMesh</title>
<!-- Node1 -->
<g id="node1" class="node"><title>Node1</title>
<polygon fill="#bfbfbf" stroke="black" points="0.5,-98.5 0.5,-117.5 131.5,-117.5 131.5,-98.5 0.5,-98.5"/>
<text text-anchor="middle" x="66" y="-105.5" font-family="Helvetica,sans-Serif" font-size="10.00">PaneToUnstructuredMesh</text>
</g>
<!-- Node2 -->
<g id="node2" class="node"><title>Node2</title>
<g id="a_node2"><a xlink:href="classSolverUtils_1_1Mesh_1_1Connectivity_accee58099f80bf9563feaab47f721134.html#accee58099f80bf9563feaab47f721134" target="_top" xlink:title="SolverUtils::Mesh::\lConnectivity::AddElement">
<polygon fill="none" stroke="black" points="172.5,-175 172.5,-205 303.5,-205 303.5,-175 172.5,-175"/>
<text text-anchor="start" x="180.5" y="-193" font-family="Helvetica,sans-Serif" font-size="10.00">SolverUtils::Mesh::</text>
<text text-anchor="middle" x="238" y="-182" font-family="Helvetica,sans-Serif" font-size="10.00">Connectivity::AddElement</text>
</a>
</g>
</g>
<!-- Node1&#45;&gt;Node2 -->
<g id="edge1" class="edge"><title>Node1&#45;&gt;Node2</title>
<path fill="none" stroke="midnightblue" d="M81.9849,-117.504C101.351,-129.539 136.349,-150.457 168,-165 172.656,-167.139 177.553,-169.224 182.499,-171.217"/>
<polygon fill="midnightblue" stroke="midnightblue" points="181.433,-174.558 192.021,-174.93 183.976,-168.037 181.433,-174.558"/>
</g>
<!-- Node3 -->
<g id="node3" class="node"><title>Node3</title>
<g id="a_node3"><a xlink:href="com__c_8h_a6dd240c15a2b3e85d2d91cbe9eec6611.html#a6dd240c15a2b3e85d2d91cbe9eec6611" target="_top" xlink:title="Get the address for an dataitem on a specific pane. ">
<polygon fill="none" stroke="black" points="195,-136.5 195,-155.5 281,-155.5 281,-136.5 195,-136.5"/>
<text text-anchor="middle" x="238" y="-143.5" font-family="Helvetica,sans-Serif" font-size="10.00">COM_get_array</text>
</a>
</g>
</g>
<!-- Node1&#45;&gt;Node3 -->
<g id="edge2" class="edge"><title>Node1&#45;&gt;Node3</title>
<path fill="none" stroke="midnightblue" d="M109.898,-117.589C132.706,-122.687 160.924,-128.995 184.974,-134.371"/>
<polygon fill="midnightblue" stroke="midnightblue" points="184.475,-137.845 194.998,-136.611 186.002,-131.014 184.475,-137.845"/>
</g>
<!-- Node4 -->
<g id="node4" class="node"><title>Node4</title>
<g id="a_node4"><a xlink:href="com__c_09_09_8hpp_a390dfbadbcb267ac867fabbcd586683b.html#a390dfbadbcb267ac867fabbcd586683b" target="_top" xlink:title="COM_get_connectivities">
<polygon fill="none" stroke="black" points="176,-98.5 176,-117.5 300,-117.5 300,-98.5 176,-98.5"/>
<text text-anchor="middle" x="238" y="-105.5" font-family="Helvetica,sans-Serif" font-size="10.00">COM_get_connectivities</text>
</a>
</g>
</g>
<!-- Node1&#45;&gt;Node4 -->
<g id="edge3" class="edge"><title>Node1&#45;&gt;Node4</title>
<path fill="none" stroke="midnightblue" d="M131.755,-108C142.818,-108 154.367,-108 165.592,-108"/>
<polygon fill="midnightblue" stroke="midnightblue" points="165.786,-111.5 175.786,-108 165.786,-104.5 165.786,-111.5"/>
</g>
<!-- Node8 -->
<g id="node8" class="node"><title>Node8</title>
<g id="a_node8"><a xlink:href="classSolverUtils_1_1Mesh_1_1NodalCoordinates_a63168d7692629b18626db5341564797a.html#a63168d7692629b18626db5341564797a" target="_top" xlink:title="SolverUtils::Mesh::\lNodalCoordinates::init_copy">
<polygon fill="none" stroke="black" points="168,-49 168,-79 308,-79 308,-49 168,-49"/>
<text text-anchor="start" x="176" y="-67" font-family="Helvetica,sans-Serif" font-size="10.00">SolverUtils::Mesh::</text>
<text text-anchor="middle" x="238" y="-56" font-family="Helvetica,sans-Serif" font-size="10.00">NodalCoordinates::init_copy</text>
</a>
</g>
</g>
<!-- Node1&#45;&gt;Node8 -->
<g id="edge7" class="edge"><title>Node1&#45;&gt;Node8</title>
<path fill="none" stroke="midnightblue" d="M103.887,-98.4527C122.942,-93.5209 146.806,-87.3442 169.047,-81.5879"/>
<polygon fill="midnightblue" stroke="midnightblue" points="169.989,-84.9595 178.793,-79.0654 168.235,-78.1828 169.989,-84.9595"/>
</g>
<!-- Node9 -->
<g id="node9" class="node"><title>Node9</title>
<g id="a_node9"><a xlink:href="classSolverUtils_1_1Mesh_1_1Connectivity_a8b1fa3c57790c589817637cca2118cfe.html#a8b1fa3c57790c589817637cca2118cfe" target="_top" xlink:title="SolverUtils::Mesh::\lConnectivity::ShrinkWrap">
<polygon fill="none" stroke="black" points="174,-0 174,-30 302,-30 302,-0 174,-0"/>
<text text-anchor="start" x="182" y="-18" font-family="Helvetica,sans-Serif" font-size="10.00">SolverUtils::Mesh::</text>
<text text-anchor="middle" x="238" y="-7" font-family="Helvetica,sans-Serif" font-size="10.00">Connectivity::ShrinkWrap</text>
</a>
</g>
</g>
<!-- Node1&#45;&gt;Node9 -->
<g id="edge8" class="edge"><title>Node1&#45;&gt;Node9</title>
<path fill="none" stroke="midnightblue" d="M79.144,-98.3728C97.5241,-84.1474 133.889,-57.3306 168,-40 172.249,-37.8412 176.73,-35.7795 181.283,-33.8326"/>
<polygon fill="midnightblue" stroke="midnightblue" points="182.742,-37.0178 190.682,-30.0034 180.1,-30.5352 182.742,-37.0178"/>
</g>
<!-- Node5 -->
<g id="node5" class="node"><title>Node5</title>
<g id="a_node5"><a xlink:href="COM__base_8hpp_a49353596e53127db61529b5c9000549d.html#a49353596e53127db61529b5c9000549d" target="_top" xlink:title="COM_get_com">
<polygon fill="none" stroke="black" points="360.5,-120.5 360.5,-139.5 443.5,-139.5 443.5,-120.5 360.5,-120.5"/>
<text text-anchor="middle" x="402" y="-127.5" font-family="Helvetica,sans-Serif" font-size="10.00">COM_get_com</text>
</a>
</g>
</g>
<!-- Node4&#45;&gt;Node5 -->
<g id="edge4" class="edge"><title>Node4&#45;&gt;Node5</title>
<path fill="none" stroke="midnightblue" d="M300.245,-116.317C316.709,-118.553 334.333,-120.946 350.164,-123.096"/>
<polygon fill="midnightblue" stroke="midnightblue" points="349.897,-126.592 360.277,-124.47 350.839,-119.656 349.897,-126.592"/>
</g>
<!-- Node7 -->
<g id="node7" class="node"><title>Node7</title>
<g id="a_node7"><a xlink:href="classCOM_1_1COM__base_a21440170f046287a32a2ca776c9fd16c.html#a21440170f046287a32a2ca776c9fd16c" target="_top" xlink:title="Obtain the connectivity tables of a pane of the given window. ">
<polygon fill="none" stroke="black" points="344.5,-71 344.5,-101 459.5,-101 459.5,-71 344.5,-71"/>
<text text-anchor="start" x="352.5" y="-89" font-family="Helvetica,sans-Serif" font-size="10.00">COM::COM_base::get</text>
<text text-anchor="middle" x="402" y="-78" font-family="Helvetica,sans-Serif" font-size="10.00">_connectivities</text>
</a>
</g>
</g>
<!-- Node4&#45;&gt;Node7 -->
<g id="edge6" class="edge"><title>Node4&#45;&gt;Node7</title>
<path fill="none" stroke="midnightblue" d="M300.245,-99.6827C311.359,-98.1735 323,-96.5926 334.262,-95.0632"/>
<polygon fill="midnightblue" stroke="midnightblue" points="335.034,-98.4906 344.472,-93.6767 334.092,-91.5543 335.034,-98.4906"/>
</g>
<!-- Node6 -->
<g id="node6" class="node"><title>Node6</title>
<g id="a_node6"><a xlink:href="classCOM_1_1COM__base_a77bb770b9ec1aac99361c45efbccabc1.html#a77bb770b9ec1aac99361c45efbccabc1" target="_top" xlink:title="Get a pointer to the COM object. ">
<polygon fill="none" stroke="black" points="496.5,-120.5 496.5,-139.5 635.5,-139.5 635.5,-120.5 496.5,-120.5"/>
<text text-anchor="middle" x="566" y="-127.5" font-family="Helvetica,sans-Serif" font-size="10.00">COM::COM_base::get_com</text>
</a>
</g>
</g>
<!-- Node5&#45;&gt;Node6 -->
<g id="edge5" class="edge"><title>Node5&#45;&gt;Node6</title>
<path fill="none" stroke="midnightblue" d="M443.879,-130C456.826,-130 471.603,-130 486.279,-130"/>
<polygon fill="midnightblue" stroke="midnightblue" points="486.4,-133.5 496.4,-130 486.4,-126.5 486.4,-133.5"/>
</g>
</g>
</svg>
