<?xml version="1.0" encoding="UTF-8" standalone="no"?>
<!DOCTYPE svg PUBLIC "-//W3C//DTD SVG 1.1//EN"
 "http://www.w3.org/Graphics/SVG/1.1/DTD/svg11.dtd">
<!-- Generated by graphviz version 2.30.1 (20150305.2338)
 -->
<!-- Title: PopulateSolutionMetaDataFromPane Pages: 1 -->
<svg width="792pt" height="165pt"
 viewBox="0.00 0.00 792.00 165.00" xmlns="http://www.w3.org/2000/svg" xmlns:xlink="http://www.w3.org/1999/xlink">
<g id="graph0" class="graph" transform="scale(1 1) rotate(0) translate(4 161)">
<title>PopulateSolutionMetaDataFromPane</title>
<!-- Node1 -->
<g id="node1" class="node"><title>Node1</title>
<polygon fill="#bfbfbf" stroke="black" points="0.5,-66 0.5,-96 133.5,-96 133.5,-66 0.5,-66"/>
<text text-anchor="start" x="8.5" y="-84" font-family="Helvetica,sans-Serif" font-size="10.00">PopulateSolutionMetaData</text>
<text text-anchor="middle" x="67" y="-73" font-family="Helvetica,sans-Serif" font-size="10.00">FromPane</text>
</g>
<!-- Node2 -->
<g id="node2" class="node"><title>Node2</title>
<g id="a_node2"><a xlink:href="com__c_09_09_8hpp_a16b2a9aeed9d53bd2d11d4221ef2c148.html#a16b2a9aeed9d53bd2d11d4221ef2c148" target="_top" xlink:title="COM_get_dataitem">
<polygon fill="none" stroke="black" points="186.5,-137.5 186.5,-156.5 287.5,-156.5 287.5,-137.5 186.5,-137.5"/>
<text text-anchor="middle" x="237" y="-144.5" font-family="Helvetica,sans-Serif" font-size="10.00">COM_get_dataitem</text>
</a>
</g>
</g>
<!-- Node1&#45;&gt;Node2 -->
<g id="edge1" class="edge"><title>Node1&#45;&gt;Node2</title>
<path fill="none" stroke="midnightblue" d="M98.8115,-96.1536C118.824,-105.681 145.628,-117.856 170,-127 176.936,-129.602 184.375,-132.115 191.668,-134.43"/>
<polygon fill="midnightblue" stroke="midnightblue" points="190.875,-137.848 201.463,-137.453 192.94,-131.159 190.875,-137.848"/>
</g>
<!-- Node6 -->
<g id="node6" class="node"><title>Node6</title>
<g id="a_node6"><a xlink:href="classSolverUtils_1_1FEM_1_1SolutionData_addf180ac6b7ba13756908f2f6218230c.html#addf180ac6b7ba13756908f2f6218230c" target="_top" xlink:title="SolverUtils::FEM::Solution\lData::Data">
<polygon fill="none" stroke="black" points="170.5,-88 170.5,-118 303.5,-118 303.5,-88 170.5,-88"/>
<text text-anchor="start" x="178.5" y="-106" font-family="Helvetica,sans-Serif" font-size="10.00">SolverUtils::FEM::Solution</text>
<text text-anchor="middle" x="237" y="-95" font-family="Helvetica,sans-Serif" font-size="10.00">Data::Data</text>
</a>
</g>
</g>
<!-- Node1&#45;&gt;Node6 -->
<g id="edge5" class="edge"><title>Node1&#45;&gt;Node6</title>
<path fill="none" stroke="midnightblue" d="M133.916,-89.6318C142.505,-90.7566 151.359,-91.9161 160.096,-93.0601"/>
<polygon fill="midnightblue" stroke="midnightblue" points="159.904,-96.5649 170.274,-94.3931 160.813,-89.6242 159.904,-96.5649"/>
</g>
<!-- Node7 -->
<g id="node7" class="node"><title>Node7</title>
<g id="a_node7"><a xlink:href="namespaceSolverUtils_a8a5727f4056aa951041899bcaa014800.html#a8a5727f4056aa951041899bcaa014800" target="_top" xlink:title="GetDataItemNames">
<polygon fill="none" stroke="black" points="185,-49.5 185,-68.5 289,-68.5 289,-49.5 185,-49.5"/>
<text text-anchor="middle" x="237" y="-56.5" font-family="Helvetica,sans-Serif" font-size="10.00">GetDataItemNames</text>
</a>
</g>
</g>
<!-- Node1&#45;&gt;Node7 -->
<g id="edge6" class="edge"><title>Node1&#45;&gt;Node7</title>
<path fill="none" stroke="midnightblue" d="M133.916,-72.3682C147.395,-70.6031 161.525,-68.7526 174.829,-67.0104"/>
<polygon fill="midnightblue" stroke="midnightblue" points="175.357,-70.4714 184.817,-65.7025 174.448,-63.5306 175.357,-70.4714"/>
</g>
<!-- Node10 -->
<g id="node10" class="node"><title>Node10</title>
<g id="a_node10"><a xlink:href="classSolverUtils_1_1FEM_1_1SolutionData_a62680bd659e55d37f379eb09498faf92.html#a62680bd659e55d37f379eb09498faf92" target="_top" xlink:title="SolverUtils::FEM::Solution\lData::Meta">
<polygon fill="none" stroke="black" points="170.5,-0 170.5,-30 303.5,-30 303.5,-0 170.5,-0"/>
<text text-anchor="start" x="178.5" y="-18" font-family="Helvetica,sans-Serif" font-size="10.00">SolverUtils::FEM::Solution</text>
<text text-anchor="middle" x="237" y="-7" font-family="Helvetica,sans-Serif" font-size="10.00">Data::Meta</text>
</a>
</g>
</g>
<!-- Node1&#45;&gt;Node10 -->
<g id="edge10" class="edge"><title>Node1&#45;&gt;Node10</title>
<path fill="none" stroke="midnightblue" d="M105.232,-65.8254C124.524,-58.0158 148.487,-48.397 170,-40 175.208,-37.9673 180.656,-35.865 186.092,-33.7826"/>
<polygon fill="midnightblue" stroke="midnightblue" points="187.717,-36.909 195.813,-30.075 185.222,-30.3686 187.717,-36.909"/>
</g>
<!-- Node3 -->
<g id="node3" class="node"><title>Node3</title>
<g id="a_node3"><a xlink:href="COM__base_8hpp_a49353596e53127db61529b5c9000549d.html#a49353596e53127db61529b5c9000549d" target="_top" xlink:title="COM_get_com">
<polygon fill="none" stroke="black" points="508.5,-115.5 508.5,-134.5 591.5,-134.5 591.5,-115.5 508.5,-115.5"/>
<text text-anchor="middle" x="550" y="-122.5" font-family="Helvetica,sans-Serif" font-size="10.00">COM_get_com</text>
</a>
</g>
</g>
<!-- Node2&#45;&gt;Node3 -->
<g id="edge2" class="edge"><title>Node2&#45;&gt;Node3</title>
<path fill="none" stroke="midnightblue" d="M287.623,-143.49C345.378,-139.404 440.242,-132.693 498.408,-128.579"/>
<polygon fill="midnightblue" stroke="midnightblue" points="498.744,-132.064 508.472,-127.867 498.25,-125.081 498.744,-132.064"/>
</g>
<!-- Node5 -->
<g id="node5" class="node"><title>Node5</title>
<g id="a_node5"><a xlink:href="classCOM_1_1COM__base_a74a5100529115d055808ef9aa5c369ba.html#a74a5100529115d055808ef9aa5c369ba" target="_top" xlink:title="Information retrieval Get the information about an dataitem. ">
<polygon fill="none" stroke="black" points="340.5,-88 340.5,-118 455.5,-118 455.5,-88 340.5,-88"/>
<text text-anchor="start" x="348.5" y="-106" font-family="Helvetica,sans-Serif" font-size="10.00">COM::COM_base::get</text>
<text text-anchor="middle" x="398" y="-95" font-family="Helvetica,sans-Serif" font-size="10.00">_dataitem</text>
</a>
</g>
</g>
<!-- Node2&#45;&gt;Node5 -->
<g id="edge4" class="edge"><title>Node2&#45;&gt;Node5</title>
<path fill="none" stroke="midnightblue" d="M272.501,-137.453C290.162,-132.565 312.242,-126.455 332.884,-120.743"/>
<polygon fill="midnightblue" stroke="midnightblue" points="333.855,-124.106 342.559,-118.065 331.988,-117.359 333.855,-124.106"/>
</g>
<!-- Node4 -->
<g id="node4" class="node"><title>Node4</title>
<g id="a_node4"><a xlink:href="classCOM_1_1COM__base_a77bb770b9ec1aac99361c45efbccabc1.html#a77bb770b9ec1aac99361c45efbccabc1" target="_top" xlink:title="Get a pointer to the COM object. ">
<polygon fill="none" stroke="black" points="644.5,-115.5 644.5,-134.5 783.5,-134.5 783.5,-115.5 644.5,-115.5"/>
<text text-anchor="middle" x="714" y="-122.5" font-family="Helvetica,sans-Serif" font-size="10.00">COM::COM_base::get_com</text>
</a>
</g>
</g>
<!-- Node3&#45;&gt;Node4 -->
<g id="edge3" class="edge"><title>Node3&#45;&gt;Node4</title>
<path fill="none" stroke="midnightblue" d="M591.879,-125C604.826,-125 619.603,-125 634.279,-125"/>
<polygon fill="midnightblue" stroke="midnightblue" points="634.4,-128.5 644.4,-125 634.4,-121.5 634.4,-128.5"/>
</g>
<!-- Node8 -->
<g id="node8" class="node"><title>Node8</title>
<g id="a_node8"><a xlink:href="com__c_09_09_8hpp_a48824b0cc48b3d1310e84d87c7af9c80.html#a48824b0cc48b3d1310e84d87c7af9c80" target="_top" xlink:title="COM_get_dataitems">
<polygon fill="none" stroke="black" points="344.5,-49.5 344.5,-68.5 451.5,-68.5 451.5,-49.5 344.5,-49.5"/>
<text text-anchor="middle" x="398" y="-56.5" font-family="Helvetica,sans-Serif" font-size="10.00">COM_get_dataitems</text>
</a>
</g>
</g>
<!-- Node7&#45;&gt;Node8 -->
<g id="edge7" class="edge"><title>Node7&#45;&gt;Node8</title>
<path fill="none" stroke="midnightblue" d="M289.184,-59C303.493,-59 319.211,-59 334.113,-59"/>
<polygon fill="midnightblue" stroke="midnightblue" points="334.273,-62.5001 344.273,-59 334.273,-55.5001 334.273,-62.5001"/>
</g>
<!-- Node8&#45;&gt;Node3 -->
<g id="edge8" class="edge"><title>Node8&#45;&gt;Node3</title>
<path fill="none" stroke="midnightblue" d="M430.366,-68.5418C438.782,-71.349 447.816,-74.5894 456,-78 479.178,-87.6592 504.563,-100.661 522.947,-110.541"/>
<polygon fill="midnightblue" stroke="midnightblue" points="521.415,-113.693 531.873,-115.389 524.756,-107.541 521.415,-113.693"/>
</g>
<!-- Node9 -->
<g id="node9" class="node"><title>Node9</title>
<g id="a_node9"><a xlink:href="classCOM_1_1COM__base_ac64b4d78268b8bf76bde91677b51a819.html#ac64b4d78268b8bf76bde91677b51a819" target="_top" xlink:title="Obtain the user&#45;defined dataitems of the given window. ">
<polygon fill="none" stroke="black" points="492.5,-44 492.5,-74 607.5,-74 607.5,-44 492.5,-44"/>
<text text-anchor="start" x="500.5" y="-62" font-family="Helvetica,sans-Serif" font-size="10.00">COM::COM_base::get</text>
<text text-anchor="middle" x="550" y="-51" font-family="Helvetica,sans-Serif" font-size="10.00">_dataitems</text>
</a>
</g>
</g>
<!-- Node8&#45;&gt;Node9 -->
<g id="edge9" class="edge"><title>Node8&#45;&gt;Node9</title>
<path fill="none" stroke="midnightblue" d="M451.884,-59C461.69,-59 472.049,-59 482.205,-59"/>
<polygon fill="midnightblue" stroke="midnightblue" points="482.266,-62.5001 492.266,-59 482.266,-55.5001 482.266,-62.5001"/>
</g>
</g>
</svg>
