<?xml version="1.0" encoding="UTF-8" standalone="no"?>
<!DOCTYPE svg PUBLIC "-//W3C//DTD SVG 1.1//EN"
 "http://www.w3.org/Graphics/SVG/1.1/DTD/svg11.dtd">
<!-- Generated by graphviz version 2.30.1 (20150305.2338)
 -->
<!-- Title: InitializeInterface Pages: 1 -->
<svg width="344pt" height="28pt"
 viewBox="0.00 0.00 344.00 28.00" xmlns="http://www.w3.org/2000/svg" xmlns:xlink="http://www.w3.org/1999/xlink">
<g id="graph0" class="graph" transform="scale(1 1) rotate(0) translate(4 24)">
<title>InitializeInterface</title>
<!-- Node1 -->
<g id="node1" class="node"><title>Node1</title>
<polygon fill="#bfbfbf" stroke="black" points="0.5,-0.5 0.5,-19.5 91.5,-19.5 91.5,-0.5 0.5,-0.5"/>
<text text-anchor="middle" x="46" y="-7.5" font-family="Helvetica,sans-Serif" font-size="10.00">InitializeInterface</text>
</g>
<!-- Node2 -->
<g id="node2" class="node"><title>Node2</title>
<g id="a_node2"><a xlink:href="com__c_09_09_8hpp_ac0f80d6e63759a2afe40ed883cea3d5e.html#ac0f80d6e63759a2afe40ed883cea3d5e" target="_top" xlink:title="COM_init">
<polygon fill="none" stroke="black" points="128,-0.5 128,-19.5 186,-19.5 186,-0.5 128,-0.5"/>
<text text-anchor="middle" x="157" y="-7.5" font-family="Helvetica,sans-Serif" font-size="10.00">COM_init</text>
</a>
</g>
</g>
<!-- Node1&#45;&gt;Node2 -->
<g id="edge1" class="edge"><title>Node1&#45;&gt;Node2</title>
<path fill="none" stroke="midnightblue" d="M91.649,-10C100.247,-10 109.184,-10 117.565,-10"/>
<polygon fill="midnightblue" stroke="midnightblue" points="117.815,-13.5001 127.815,-10 117.815,-6.5001 117.815,-13.5001"/>
</g>
<!-- Node3 -->
<g id="node3" class="node"><title>Node3</title>
<g id="a_node3"><a xlink:href="classCOM_1_1COM__base_a38b2bac03bb06f2d0ea5c99760da5f1c.html#a38b2bac03bb06f2d0ea5c99760da5f1c" target="_top" xlink:title="COM::COM_base::init">
<polygon fill="none" stroke="black" points="222,-0.5 222,-19.5 336,-19.5 336,-0.5 222,-0.5"/>
<text text-anchor="middle" x="279" y="-7.5" font-family="Helvetica,sans-Serif" font-size="10.00">COM::COM_base::init</text>
</a>
</g>
</g>
<!-- Node2&#45;&gt;Node3 -->
<g id="edge2" class="edge"><title>Node2&#45;&gt;Node3</title>
<path fill="none" stroke="midnightblue" d="M186.135,-10C193.886,-10 202.636,-10 211.58,-10"/>
<polygon fill="midnightblue" stroke="midnightblue" points="211.715,-13.5001 221.715,-10 211.715,-6.5001 211.715,-13.5001"/>
</g>
</g>
</svg>
