<?xml version="1.0" encoding="UTF-8" standalone="no"?>
<!DOCTYPE svg PUBLIC "-//W3C//DTD SVG 1.1//EN"
 "http://www.w3.org/Graphics/SVG/1.1/DTD/svg11.dtd">
<!-- Generated by graphviz version 2.30.1 (20150305.2338)
 -->
<!-- Title: RegisterSolverInto Pages: 1 -->
<!--zoomable 661 -->
<svg id="main" version="1.1" xmlns="http://www.w3.org/2000/svg" xmlns:xlink="http://www.w3.org/1999/xlink" xml:space="preserve" onload="init(evt)">
<style type="text/css"><![CDATA[
.edge:hover path { stroke: red; }
.edge:hover polygon { stroke: red; fill: red; }
]]></style>
<script type="text/javascript"><![CDATA[
var edges = document.getElementsByTagName('g');
if (edges && edges.length) {
  for (var i=0;i<edges.length;i++) {
    if (edges[i].id.substr(0,4)=='edge') {
      edges[i].setAttribute('class','edge');
    }
  }
}
]]></script>
        <defs>
                <circle id="rim" cx="0" cy="0" r="7"/>
                <circle id="rim2" cx="0" cy="0" r="3.5"/>
                <g id="zoomPlus">
                        <use xlink:href="#rim" fill="#404040">
                                <set attributeName="fill" to="#808080" begin="zoomplus.mouseover" end="zoomplus.mouseout"/>
                        </use>
                        <path d="M-4,0h8M0,-4v8" fill="none" stroke="white" stroke-width="1.5" pointer-events="none"/>
                </g>
                <g id="zoomMin">
                        <use xlink:href="#rim" fill="#404040">
                                <set attributeName="fill" to="#808080" begin="zoomminus.mouseover" end="zoomminus.mouseout"/>
                        </use>
                        <path d="M-4,0h8" fill="none" stroke="white" stroke-width="1.5" pointer-events="none"/>
                </g>
                <g id="dirArrow">
                        <path fill="none" stroke="white" stroke-width="1.5" d="M0,-3.0v7 M-2.5,-0.5L0,-3.0L2.5,-0.5"/>
                </g>
               <g id="resetDef">
                       <use xlink:href="#rim2" fill="#404040">
                               <set attributeName="fill" to="#808080" begin="reset.mouseover" end="reset.mouseout"/>
                       </use>
               </g>
        </defs>

<script type="text/javascript">
var viewWidth = 980;
var viewHeight = 661;
var sectionId = 'dynsection-0';
</script>
<script xlink:href="svgpan.js"/>
<svg id="graph" class="graph">
<g id="viewport">
<title>RegisterSolverInto</title>
<!-- Node1 -->
<g id="node1" class="node"><title>Node1</title>
<polygon fill="#bfbfbf" stroke="black" points="0,-211.5 0,-230.5 98,-230.5 98,-211.5 0,-211.5"/>
<text text-anchor="middle" x="49" y="-218.5" font-family="Helvetica,sans-Serif" font-size="10.00">RegisterSolverInto</text>
</g>
<!-- Node2 -->
<g id="node2" class="node"><title>Node2</title>
<g id="a_node2"><a xlink:href="namespaceSolverUtils_a040b0206db4efc72691b47e124622aef.html#a040b0206db4efc72691b47e124622aef" target="_top" xlink:title="AgentToPane">
<polygon fill="none" stroke="black" points="171,-270.5 171,-289.5 247,-289.5 247,-270.5 171,-270.5"/>
<text text-anchor="middle" x="209" y="-277.5" font-family="Helvetica,sans-Serif" font-size="10.00">AgentToPane</text>
</a>
</g>
</g>
<!-- Node1&#45;&gt;Node2 -->
<g id="edge1" class="edge"><title>Node1&#45;&gt;Node2</title>
<path fill="none" stroke="midnightblue" d="M75.7371,-230.611C102.213,-240.497 143.628,-255.962 173.055,-266.951"/>
<polygon fill="midnightblue" stroke="midnightblue" points="171.943,-270.272 182.536,-270.491 174.392,-263.714 171.943,-270.272"/>
</g>
<!-- Node20 -->
<g id="node20" class="node"><title>Node20</title>
<g id="a_node20"><a xlink:href="com__c_09_09_8hpp_a194cf98ab438699fba9f1d1705044e70.html#a194cf98ab438699fba9f1d1705044e70" target="_top" xlink:title="COM_window_init_done">
<polygon fill="none" stroke="black" points="148,-49.5 148,-68.5 270,-68.5 270,-49.5 148,-49.5"/>
<text text-anchor="middle" x="209" y="-56.5" font-family="Helvetica,sans-Serif" font-size="10.00">COM_window_init_done</text>
</a>
</g>
</g>
<!-- Node1&#45;&gt;Node20 -->
<g id="edge27" class="edge"><title>Node1&#45;&gt;Node20</title>
<path fill="none" stroke="midnightblue" d="M59.4105,-211.351C85.3651,-184.74 158.225,-110.035 191.297,-76.1259"/>
<polygon fill="midnightblue" stroke="midnightblue" points="193.963,-78.4056 198.439,-68.803 188.951,-73.5181 193.963,-78.4056"/>
</g>
<!-- Node22 -->
<g id="node22" class="node"><title>Node22</title>
<g id="a_node22"><a xlink:href="namespaceSolverUtils_a5715c31b1d60ded22957f9d3e53a713a.html#a5715c31b1d60ded22957f9d3e53a713a" target="_top" xlink:title="CreateDataItemsFromSolution">
<polygon fill="none" stroke="black" points="134.5,-530.5 134.5,-549.5 283.5,-549.5 283.5,-530.5 134.5,-530.5"/>
<text text-anchor="middle" x="209" y="-537.5" font-family="Helvetica,sans-Serif" font-size="10.00">CreateDataItemsFromSolution</text>
</a>
</g>
</g>
<!-- Node1&#45;&gt;Node22 -->
<g id="edge30" class="edge"><title>Node1&#45;&gt;Node22</title>
<path fill="none" stroke="midnightblue" d="M54.7286,-230.547C76.7164,-274.94 169.142,-461.546 198.799,-521.423"/>
<polygon fill="midnightblue" stroke="midnightblue" points="195.715,-523.083 203.29,-530.49 201.988,-519.976 195.715,-523.083"/>
</g>
<!-- Node17 -->
<g id="node17" class="node"><title>Node17</title>
<g id="a_node17"><a xlink:href="classSolverUtils_1_1FEM_1_1SolverAgent_aca958a697df836ac67f3244d08d9ee6c.html#aca958a697df836ac67f3244d08d9ee6c" target="_top" xlink:title="SolverUtils::FEM::Solver\lAgent::Solution">
<polygon fill="none" stroke="black" points="324.5,-88 324.5,-118 449.5,-118 449.5,-88 324.5,-88"/>
<text text-anchor="start" x="332.5" y="-106" font-family="Helvetica,sans-Serif" font-size="10.00">SolverUtils::FEM::Solver</text>
<text text-anchor="middle" x="387" y="-95" font-family="Helvetica,sans-Serif" font-size="10.00">Agent::Solution</text>
</a>
</g>
</g>
<!-- Node1&#45;&gt;Node17 -->
<g id="edge38" class="edge"><title>Node1&#45;&gt;Node17</title>
<path fill="none" stroke="midnightblue" d="M77.2117,-211.444C132.942,-191.871 260.908,-146.931 333.4,-121.472"/>
<polygon fill="midnightblue" stroke="midnightblue" points="334.973,-124.63 343.248,-118.014 332.653,-118.025 334.973,-124.63"/>
</g>
<!-- Node3 -->
<g id="node3" class="node"><title>Node3</title>
<g id="a_node3"><a xlink:href="com__c_8h_a6dd240c15a2b3e85d2d91cbe9eec6611.html#a6dd240c15a2b3e85d2d91cbe9eec6611" target="_top" xlink:title="Get the address for an dataitem on a specific pane. ">
<polygon fill="none" stroke="black" points="513,-222.5 513,-241.5 599,-241.5 599,-222.5 513,-222.5"/>
<text text-anchor="middle" x="556" y="-229.5" font-family="Helvetica,sans-Serif" font-size="10.00">COM_get_array</text>
</a>
</g>
</g>
<!-- Node2&#45;&gt;Node3 -->
<g id="edge2" class="edge"><title>Node2&#45;&gt;Node3</title>
<path fill="none" stroke="midnightblue" d="M231.816,-270.348C253.649,-261.199 288.438,-247.991 320,-242 382.045,-230.223 454.889,-229.026 502.841,-229.924"/>
<polygon fill="midnightblue" stroke="midnightblue" points="502.905,-233.426 512.981,-230.152 503.062,-226.428 502.905,-233.426"/>
</g>
<!-- Node4 -->
<g id="node4" class="node"><title>Node4</title>
<g id="a_node4"><a xlink:href="com__c_09_09_8hpp_ab6a6d18043bc76f9a381084af49c6a9f.html#ab6a6d18043bc76f9a381084af49c6a9f" target="_top" xlink:title="Resize an dataitem on a specific pane and return the address by setting addr. ">
<polygon fill="none" stroke="black" points="507,-134.5 507,-153.5 605,-153.5 605,-134.5 507,-134.5"/>
<text text-anchor="middle" x="556" y="-141.5" font-family="Helvetica,sans-Serif" font-size="10.00">COM_resize_array</text>
</a>
</g>
</g>
<!-- Node2&#45;&gt;Node4 -->
<g id="edge3" class="edge"><title>Node2&#45;&gt;Node4</title>
<path fill="none" stroke="midnightblue" d="M219.279,-270.253C237.037,-252.215 277.823,-213.681 320,-194 376.639,-167.571 447.485,-154.951 496.502,-149.029"/>
<polygon fill="midnightblue" stroke="midnightblue" points="497.083,-152.485 506.618,-147.864 496.283,-145.531 497.083,-152.485"/>
</g>
<!-- Node8 -->
<g id="node8" class="node"><title>Node8</title>
<g id="a_node8"><a xlink:href="com__c_09_09_8hpp_adca6827f3c065859156fa3562c2cd9a8.html#adca6827f3c065859156fa3562c2cd9a8" target="_top" xlink:title="Associates an array with an dataitem for a specific pane. ">
<polygon fill="none" stroke="black" points="513,-374.5 513,-393.5 599,-393.5 599,-374.5 513,-374.5"/>
<text text-anchor="middle" x="556" y="-381.5" font-family="Helvetica,sans-Serif" font-size="10.00">COM_set_array</text>
</a>
</g>
</g>
<!-- Node2&#45;&gt;Node8 -->
<g id="edge7" class="edge"><title>Node2&#45;&gt;Node8</title>
<path fill="none" stroke="midnightblue" d="M218.222,-289.535C235.086,-308.324 275.746,-349.8 320,-367 379.444,-390.103 453.646,-391.371 502.582,-388.831"/>
<polygon fill="midnightblue" stroke="midnightblue" points="502.85,-392.321 512.626,-388.238 502.437,-385.333 502.85,-392.321"/>
</g>
<!-- Node10 -->
<g id="node10" class="node"><title>Node10</title>
<g id="a_node10"><a xlink:href="com__c_09_09_8hpp_a000a075fb1782d7eeaae75a7136e6411.html#a000a075fb1782d7eeaae75a7136e6411" target="_top" xlink:title="Set sizes of for a specific dataitem. ">
<polygon fill="none" stroke="black" points="515,-415.5 515,-434.5 597,-434.5 597,-415.5 515,-415.5"/>
<text text-anchor="middle" x="556" y="-422.5" font-family="Helvetica,sans-Serif" font-size="10.00">COM_set_size</text>
</a>
</g>
</g>
<!-- Node2&#45;&gt;Node10 -->
<g id="edge10" class="edge"><title>Node2&#45;&gt;Node10</title>
<path fill="none" stroke="midnightblue" d="M216.027,-289.638C230.68,-312.138 270.62,-368.097 320,-393 378.521,-422.513 455.122,-427.696 504.694,-427.395"/>
<polygon fill="midnightblue" stroke="midnightblue" points="504.896,-430.893 514.846,-427.255 504.799,-423.894 504.896,-430.893"/>
</g>
<!-- Node12 -->
<g id="node12" class="node"><title>Node12</title>
<g id="a_node12"><a xlink:href="classSolverUtils_1_1FEM_1_1SolutionData_addf180ac6b7ba13756908f2f6218230c.html#addf180ac6b7ba13756908f2f6218230c" target="_top" xlink:title="SolverUtils::FEM::Solution\lData::Data">
<polygon fill="none" stroke="black" points="320.5,-454 320.5,-484 453.5,-484 453.5,-454 320.5,-454"/>
<text text-anchor="start" x="328.5" y="-472" font-family="Helvetica,sans-Serif" font-size="10.00">SolverUtils::FEM::Solution</text>
<text text-anchor="middle" x="387" y="-461" font-family="Helvetica,sans-Serif" font-size="10.00">Data::Data</text>
</a>
</g>
</g>
<!-- Node2&#45;&gt;Node12 -->
<g id="edge13" class="edge"><title>Node2&#45;&gt;Node12</title>
<path fill="none" stroke="midnightblue" d="M214.318,-289.561C226.916,-316.506 266.168,-394.015 320,-439 324.517,-442.774 329.586,-446.171 334.855,-449.202"/>
<polygon fill="midnightblue" stroke="midnightblue" points="333.372,-452.377 343.848,-453.959 336.645,-446.189 333.372,-452.377"/>
</g>
<!-- Node13 -->
<g id="node13" class="node"><title>Node13</title>
<g id="a_node13"><a xlink:href="classSolverUtils_1_1FEM_1_1SolverAgent_a79921d24f767ba9aeb14b5e32db13b4c.html#a79921d24f767ba9aeb14b5e32db13b4c" target="_top" xlink:title="SolverUtils::FEM::Solver\lAgent::Mesh">
<polygon fill="none" stroke="black" points="324.5,-328 324.5,-358 449.5,-358 449.5,-328 324.5,-328"/>
<text text-anchor="start" x="332.5" y="-346" font-family="Helvetica,sans-Serif" font-size="10.00">SolverUtils::FEM::Solver</text>
<text text-anchor="middle" x="387" y="-335" font-family="Helvetica,sans-Serif" font-size="10.00">Agent::Mesh</text>
</a>
</g>
</g>
<!-- Node2&#45;&gt;Node13 -->
<g id="edge14" class="edge"><title>Node2&#45;&gt;Node13</title>
<path fill="none" stroke="midnightblue" d="M236.731,-289.568C262.526,-298.802 302.266,-313.027 334.258,-324.479"/>
<polygon fill="midnightblue" stroke="midnightblue" points="333.319,-327.86 343.914,-327.935 335.678,-321.27 333.319,-327.86"/>
</g>
<!-- Node14 -->
<g id="node14" class="node"><title>Node14</title>
<g id="a_node14"><a xlink:href="classSolverUtils_1_1FEM_1_1SolutionData_a62680bd659e55d37f379eb09498faf92.html#a62680bd659e55d37f379eb09498faf92" target="_top" xlink:title="SolverUtils::FEM::Solution\lData::Meta">
<polygon fill="none" stroke="black" points="320.5,-503 320.5,-533 453.5,-533 453.5,-503 320.5,-503"/>
<text text-anchor="start" x="328.5" y="-521" font-family="Helvetica,sans-Serif" font-size="10.00">SolverUtils::FEM::Solution</text>
<text text-anchor="middle" x="387" y="-510" font-family="Helvetica,sans-Serif" font-size="10.00">Data::Meta</text>
</a>
</g>
</g>
<!-- Node2&#45;&gt;Node14 -->
<g id="edge15" class="edge"><title>Node2&#45;&gt;Node14</title>
<path fill="none" stroke="midnightblue" d="M212.303,-289.594C220.719,-322.668 252.896,-433.178 320,-493 321.746,-494.557 323.599,-496.02 325.533,-497.396"/>
<polygon fill="midnightblue" stroke="midnightblue" points="324.101,-500.624 334.452,-502.881 327.768,-494.661 324.101,-500.624"/>
</g>
<!-- Node15 -->
<g id="node15" class="node"><title>Node15</title>
<g id="a_node15"><a xlink:href="classSolverUtils_1_1Mesh_1_1Connectivity_a3efad0e23e75de241cfe6c5193f1daa7.html#a3efad0e23e75de241cfe6c5193f1daa7" target="_top" xlink:title="SolverUtils::Mesh::\lConnectivity::Nelem">
<polygon fill="none" stroke="black" points="503,-310 503,-340 609,-340 609,-310 503,-310"/>
<text text-anchor="start" x="511" y="-328" font-family="Helvetica,sans-Serif" font-size="10.00">SolverUtils::Mesh::</text>
<text text-anchor="middle" x="556" y="-317" font-family="Helvetica,sans-Serif" font-size="10.00">Connectivity::Nelem</text>
</a>
</g>
</g>
<!-- Node2&#45;&gt;Node15 -->
<g id="edge16" class="edge"><title>Node2&#45;&gt;Node15</title>
<path fill="none" stroke="midnightblue" d="M247.249,-284.859C306.038,-292.527 420.992,-307.521 492.556,-316.855"/>
<polygon fill="midnightblue" stroke="midnightblue" points="492.419,-320.367 502.788,-318.19 493.325,-313.426 492.419,-320.367"/>
</g>
<!-- Node16 -->
<g id="node16" class="node"><title>Node16</title>
<g id="a_node16"><a xlink:href="classSolverUtils_1_1Mesh_1_1NodalCoordinates_a3dc03243fcc53453e160252efee8e232.html#a3dc03243fcc53453e160252efee8e232" target="_top" xlink:title="SolverUtils::Mesh::\lNodalCoordinates::Size">
<polygon fill="none" stroke="black" points="496,-173 496,-203 616,-203 616,-173 496,-173"/>
<text text-anchor="start" x="504" y="-191" font-family="Helvetica,sans-Serif" font-size="10.00">SolverUtils::Mesh::</text>
<text text-anchor="middle" x="556" y="-180" font-family="Helvetica,sans-Serif" font-size="10.00">NodalCoordinates::Size</text>
</a>
</g>
</g>
<!-- Node2&#45;&gt;Node16 -->
<g id="edge17" class="edge"><title>Node2&#45;&gt;Node16</title>
<path fill="none" stroke="midnightblue" d="M225.771,-270.386C246.587,-258.143 284.728,-237.234 320,-226 374.298,-208.707 438.278,-199.018 485.759,-193.759"/>
<polygon fill="midnightblue" stroke="midnightblue" points="486.362,-197.215 495.934,-192.672 485.618,-190.255 486.362,-197.215"/>
</g>
<!-- Node2&#45;&gt;Node17 -->
<g id="edge18" class="edge"><title>Node2&#45;&gt;Node17</title>
<path fill="none" stroke="midnightblue" d="M216.838,-270.291C238.773,-239.23 306.713,-143.69 320,-133 324.649,-129.26 329.839,-125.876 335.211,-122.845"/>
<polygon fill="midnightblue" stroke="midnightblue" points="337.11,-125.802 344.36,-118.076 333.874,-119.595 337.11,-125.802"/>
</g>
<!-- Node18 -->
<g id="node18" class="node"><title>Node18</title>
<g id="a_node18"><a xlink:href="namespaceSolverUtils_ac956a14f8058561de46a633f07854aef.html#ac956a14f8058561de46a633f07854aef" target="_top" xlink:title="Creates a window pane from a Mesh object. (copy mode or use mode) ">
<polygon fill="none" stroke="black" points="333,-251.5 333,-270.5 441,-270.5 441,-251.5 333,-251.5"/>
<text text-anchor="middle" x="387" y="-258.5" font-family="Helvetica,sans-Serif" font-size="10.00">SurfaceMeshToPane</text>
</a>
</g>
</g>
<!-- Node2&#45;&gt;Node18 -->
<g id="edge19" class="edge"><title>Node2&#45;&gt;Node18</title>
<path fill="none" stroke="midnightblue" d="M247.325,-275.971C269.142,-273.615 297.262,-270.58 322.472,-267.858"/>
<polygon fill="midnightblue" stroke="midnightblue" points="323.135,-271.307 332.702,-266.754 322.384,-264.347 323.135,-271.307"/>
</g>
<!-- Node5 -->
<g id="node5" class="node"><title>Node5</title>
<g id="a_node5"><a xlink:href="COM__base_8hpp_a49353596e53127db61529b5c9000549d.html#a49353596e53127db61529b5c9000549d" target="_top" xlink:title="COM_get_com">
<polygon fill="none" stroke="black" points="685.5,-330.5 685.5,-349.5 768.5,-349.5 768.5,-330.5 685.5,-330.5"/>
<text text-anchor="middle" x="727" y="-337.5" font-family="Helvetica,sans-Serif" font-size="10.00">COM_get_com</text>
</a>
</g>
</g>
<!-- Node4&#45;&gt;Node5 -->
<g id="edge4" class="edge"><title>Node4&#45;&gt;Node5</title>
<path fill="none" stroke="midnightblue" d="M605.19,-153.531C611.205,-155.996 616.992,-159.098 622,-163 676.012,-205.09 707.529,-283.696 719.895,-320.302"/>
<polygon fill="midnightblue" stroke="midnightblue" points="716.701,-321.799 723.121,-330.227 723.358,-319.635 716.701,-321.799"/>
</g>
<!-- Node7 -->
<g id="node7" class="node"><title>Node7</title>
<g id="a_node7"><a xlink:href="classCOM_1_1COM__base_a9b92a84a6063e6a965b5d603c14fd722.html#a9b92a84a6063e6a965b5d603c14fd722" target="_top" xlink:title="Resize an dataitem on a specific pane and return the address by setting addr. ">
<polygon fill="none" stroke="black" points="663,-129 663,-159 791,-159 791,-129 663,-129"/>
<text text-anchor="start" x="671" y="-147" font-family="Helvetica,sans-Serif" font-size="10.00">COM::COM_base::resize</text>
<text text-anchor="middle" x="727" y="-136" font-family="Helvetica,sans-Serif" font-size="10.00">_array</text>
</a>
</g>
</g>
<!-- Node4&#45;&gt;Node7 -->
<g id="edge6" class="edge"><title>Node4&#45;&gt;Node7</title>
<path fill="none" stroke="midnightblue" d="M605.429,-144C620.071,-144 636.492,-144 652.39,-144"/>
<polygon fill="midnightblue" stroke="midnightblue" points="652.737,-147.5 662.737,-144 652.737,-140.5 652.737,-147.5"/>
</g>
<!-- Node6 -->
<g id="node6" class="node"><title>Node6</title>
<g id="a_node6"><a xlink:href="classCOM_1_1COM__base_a77bb770b9ec1aac99361c45efbccabc1.html#a77bb770b9ec1aac99361c45efbccabc1" target="_top" xlink:title="Get a pointer to the COM object. ">
<polygon fill="none" stroke="black" points="832.5,-330.5 832.5,-349.5 971.5,-349.5 971.5,-330.5 832.5,-330.5"/>
<text text-anchor="middle" x="902" y="-337.5" font-family="Helvetica,sans-Serif" font-size="10.00">COM::COM_base::get_com</text>
</a>
</g>
</g>
<!-- Node5&#45;&gt;Node6 -->
<g id="edge5" class="edge"><title>Node5&#45;&gt;Node6</title>
<path fill="none" stroke="midnightblue" d="M768.561,-340C784.571,-340 803.54,-340 822.044,-340"/>
<polygon fill="midnightblue" stroke="midnightblue" points="822.255,-343.5 832.255,-340 822.255,-336.5 822.255,-343.5"/>
</g>
<!-- Node8&#45;&gt;Node5 -->
<g id="edge8" class="edge"><title>Node8&#45;&gt;Node5</title>
<path fill="none" stroke="midnightblue" d="M593.67,-374.453C618.806,-367.908 652.361,-359.172 679.392,-352.135"/>
<polygon fill="midnightblue" stroke="midnightblue" points="680.606,-355.435 689.401,-349.529 678.842,-348.661 680.606,-355.435"/>
</g>
<!-- Node9 -->
<g id="node9" class="node"><title>Node9</title>
<g id="a_node9"><a xlink:href="classCOM_1_1COM__base_a57c037aa472a815dda4667bb7cb2f986.html#a57c037aa472a815dda4667bb7cb2f986" target="_top" xlink:title="Associates an array with an dataitem for a specific pane. ">
<polygon fill="none" stroke="black" points="669.5,-369 669.5,-399 784.5,-399 784.5,-369 669.5,-369"/>
<text text-anchor="start" x="677.5" y="-387" font-family="Helvetica,sans-Serif" font-size="10.00">COM::COM_base::set</text>
<text text-anchor="middle" x="727" y="-376" font-family="Helvetica,sans-Serif" font-size="10.00">_array</text>
</a>
</g>
</g>
<!-- Node8&#45;&gt;Node9 -->
<g id="edge9" class="edge"><title>Node8&#45;&gt;Node9</title>
<path fill="none" stroke="midnightblue" d="M599.21,-384C617.359,-384 639.015,-384 659.249,-384"/>
<polygon fill="midnightblue" stroke="midnightblue" points="659.359,-387.5 669.359,-384 659.359,-380.5 659.359,-387.5"/>
</g>
<!-- Node10&#45;&gt;Node5 -->
<g id="edge11" class="edge"><title>Node10&#45;&gt;Node5</title>
<path fill="none" stroke="midnightblue" d="M596.835,-415.434C605.573,-412.294 614.459,-408.223 622,-403 642.772,-388.614 636.848,-372.821 658,-359 663.387,-355.48 669.425,-352.605 675.619,-350.258"/>
<polygon fill="midnightblue" stroke="midnightblue" points="677.035,-353.475 685.412,-346.987 674.818,-346.835 677.035,-353.475"/>
</g>
<!-- Node11 -->
<g id="node11" class="node"><title>Node11</title>
<g id="a_node11"><a xlink:href="classCOM_1_1COM__base_aeeab27fa8f95627604ddb3d48dcc15d0.html#aeeab27fa8f95627604ddb3d48dcc15d0" target="_top" xlink:title="Set the sizes of an dataitem. ">
<polygon fill="none" stroke="black" points="658,-418.5 658,-437.5 796,-437.5 796,-418.5 658,-418.5"/>
<text text-anchor="middle" x="727" y="-425.5" font-family="Helvetica,sans-Serif" font-size="10.00">COM::COM_base::set_size</text>
</a>
</g>
</g>
<!-- Node10&#45;&gt;Node11 -->
<g id="edge12" class="edge"><title>Node10&#45;&gt;Node11</title>
<path fill="none" stroke="midnightblue" d="M597.051,-425.711C612.227,-425.98 630.078,-426.297 647.579,-426.608"/>
<polygon fill="midnightblue" stroke="midnightblue" points="647.76,-430.112 657.821,-426.79 647.884,-423.113 647.76,-430.112"/>
</g>
<!-- Node19 -->
<g id="node19" class="node"><title>Node19</title>
<g id="a_node19"><a xlink:href="classSolverUtils_1_1Mesh_1_1Connectivity_accee58099f80bf9563feaab47f721134.html#accee58099f80bf9563feaab47f721134" target="_top" xlink:title="SolverUtils::Mesh::\lConnectivity::AddElement">
<polygon fill="none" stroke="black" points="490.5,-261 490.5,-291 621.5,-291 621.5,-261 490.5,-261"/>
<text text-anchor="start" x="498.5" y="-279" font-family="Helvetica,sans-Serif" font-size="10.00">SolverUtils::Mesh::</text>
<text text-anchor="middle" x="556" y="-268" font-family="Helvetica,sans-Serif" font-size="10.00">Connectivity::AddElement</text>
</a>
</g>
</g>
<!-- Node18&#45;&gt;Node19 -->
<g id="edge20" class="edge"><title>Node18&#45;&gt;Node19</title>
<path fill="none" stroke="midnightblue" d="M441.299,-265.787C453.698,-266.901 467.124,-268.107 480.257,-269.287"/>
<polygon fill="midnightblue" stroke="midnightblue" points="479.948,-272.773 490.222,-270.182 480.575,-265.801 479.948,-272.773"/>
</g>
<!-- Node18&#45;&gt;Node3 -->
<g id="edge21" class="edge"><title>Node18&#45;&gt;Node3</title>
<path fill="none" stroke="midnightblue" d="M441.299,-251.744C460.97,-248.328 483.227,-244.464 502.8,-241.065"/>
<polygon fill="midnightblue" stroke="midnightblue" points="503.509,-244.494 512.763,-239.335 502.311,-237.597 503.509,-244.494"/>
</g>
<!-- Node18&#45;&gt;Node4 -->
<g id="edge22" class="edge"><title>Node18&#45;&gt;Node4</title>
<path fill="none" stroke="midnightblue" d="M395.319,-251.348C410.685,-231.752 448.347,-187.12 490,-163 493.72,-160.846 497.703,-158.919 501.799,-157.2"/>
<polygon fill="midnightblue" stroke="midnightblue" points="503.362,-160.351 511.487,-153.552 500.895,-153.8 503.362,-160.351"/>
</g>
<!-- Node18&#45;&gt;Node8 -->
<g id="edge23" class="edge"><title>Node18&#45;&gt;Node8</title>
<path fill="none" stroke="midnightblue" d="M399.227,-270.7C425.609,-293.491 489.389,-348.579 490,-349 501.052,-356.608 513.935,-363.847 525.303,-369.746"/>
<polygon fill="midnightblue" stroke="midnightblue" points="523.92,-372.969 534.422,-374.365 527.082,-366.724 523.92,-372.969"/>
</g>
<!-- Node18&#45;&gt;Node10 -->
<g id="edge24" class="edge"><title>Node18&#45;&gt;Node10</title>
<path fill="none" stroke="midnightblue" d="M402.592,-270.583C417.244,-280.832 439.649,-298.297 454,-318 478.155,-351.162 459.933,-375.087 490,-403 494.475,-407.154 499.763,-410.527 505.359,-413.264"/>
<polygon fill="midnightblue" stroke="midnightblue" points="504.404,-416.659 514.98,-417.297 507.111,-410.203 504.404,-416.659"/>
</g>
<!-- Node18&#45;&gt;Node15 -->
<g id="edge25" class="edge"><title>Node18&#45;&gt;Node15</title>
<path fill="none" stroke="midnightblue" d="M415.079,-270.529C427.054,-274.825 441.277,-280.039 454,-285 470.149,-291.297 473.909,-293.555 490,-300 495.121,-302.051 500.481,-304.165 505.832,-306.255"/>
<polygon fill="midnightblue" stroke="midnightblue" points="504.813,-309.614 515.402,-309.97 507.347,-303.088 504.813,-309.614"/>
</g>
<!-- Node18&#45;&gt;Node16 -->
<g id="edge26" class="edge"><title>Node18&#45;&gt;Node16</title>
<path fill="none" stroke="midnightblue" d="M407.363,-251.373C427.74,-241.364 460.841,-225.449 490,-213 494.811,-210.946 499.852,-208.872 504.909,-206.844"/>
<polygon fill="midnightblue" stroke="midnightblue" points="506.581,-209.947 514.595,-203.017 504.008,-203.437 506.581,-209.947"/>
</g>
<!-- Node20&#45;&gt;Node5 -->
<g id="edge28" class="edge"><title>Node20&#45;&gt;Node5</title>
<path fill="none" stroke="midnightblue" d="M270.197,-50.9469C358.02,-42.7097 521.702,-41.1144 622,-125 654.532,-152.209 701.48,-273.218 719.032,-320.746"/>
<polygon fill="midnightblue" stroke="midnightblue" points="715.854,-322.247 722.578,-330.435 722.428,-319.842 715.854,-322.247"/>
</g>
<!-- Node21 -->
<g id="node21" class="node"><title>Node21</title>
<g id="a_node21"><a xlink:href="classCOM_1_1COM__base_a1546f81f8d44d2745bbdddf6eee2a03f.html#a1546f81f8d44d2745bbdddf6eee2a03f" target="_top" xlink:title="Marks the end of the registration of a window. ">
<polygon fill="none" stroke="black" points="320,-0 320,-30 454,-30 454,-0 320,-0"/>
<text text-anchor="start" x="328" y="-18" font-family="Helvetica,sans-Serif" font-size="10.00">COM::COM_base::window</text>
<text text-anchor="middle" x="387" y="-7" font-family="Helvetica,sans-Serif" font-size="10.00">_init_done</text>
</a>
</g>
</g>
<!-- Node20&#45;&gt;Node21 -->
<g id="edge29" class="edge"><title>Node20&#45;&gt;Node21</title>
<path fill="none" stroke="midnightblue" d="M248.189,-49.4527C268.005,-44.4988 292.845,-38.2888 315.958,-32.5105"/>
<polygon fill="midnightblue" stroke="midnightblue" points="316.886,-35.8863 325.739,-30.0654 315.188,-29.0953 316.886,-35.8863"/>
</g>
<!-- Node23 -->
<g id="node23" class="node"><title>Node23</title>
<g id="a_node23"><a xlink:href="com__c_09_09_8hpp_a8d14cf34eccebd1168103d4624ac2677.html#a8d14cf34eccebd1168103d4624ac2677" target="_top" xlink:title="Registering an dataitem type. ">
<polygon fill="none" stroke="black" points="334,-628.5 334,-647.5 440,-647.5 440,-628.5 334,-628.5"/>
<text text-anchor="middle" x="387" y="-635.5" font-family="Helvetica,sans-Serif" font-size="10.00">COM_new_dataitem</text>
</a>
</g>
</g>
<!-- Node22&#45;&gt;Node23 -->
<g id="edge31" class="edge"><title>Node22&#45;&gt;Node23</title>
<path fill="none" stroke="midnightblue" d="M222.251,-549.712C241.94,-564.973 282.251,-594.802 320,-614 327.975,-618.056 336.801,-621.759 345.335,-624.977"/>
<polygon fill="midnightblue" stroke="midnightblue" points="344.191,-628.285 354.785,-628.399 346.574,-621.703 344.191,-628.285"/>
</g>
<!-- Node22&#45;&gt;Node8 -->
<g id="edge34" class="edge"><title>Node22&#45;&gt;Node8</title>
<path fill="none" stroke="midnightblue" d="M236.04,-549.615C284.523,-565.681 389.547,-591.612 454,-542 503.548,-503.861 447.306,-451.681 490,-406 493.864,-401.866 498.532,-398.508 503.572,-395.781"/>
<polygon fill="midnightblue" stroke="midnightblue" points="505.295,-398.843 512.954,-391.523 502.402,-392.469 505.295,-398.843"/>
</g>
<!-- Node22&#45;&gt;Node10 -->
<g id="edge35" class="edge"><title>Node22&#45;&gt;Node10</title>
<path fill="none" stroke="midnightblue" d="M227.338,-549.532C269.317,-571.21 378.515,-619.102 454,-576 481.338,-560.39 472.766,-541.344 490,-515 506.803,-489.316 527.852,-460.761 541.364,-442.844"/>
<polygon fill="midnightblue" stroke="midnightblue" points="544.425,-444.599 547.68,-434.517 538.848,-440.369 544.425,-444.599"/>
</g>
<!-- Node22&#45;&gt;Node12 -->
<g id="edge36" class="edge"><title>Node22&#45;&gt;Node12</title>
<path fill="none" stroke="midnightblue" d="M232.241,-530.438C254.396,-520.975 289.424,-506.18 320,-494 325.122,-491.96 330.483,-489.864 335.84,-487.796"/>
<polygon fill="midnightblue" stroke="midnightblue" points="337.343,-490.968 345.427,-484.12 334.837,-484.432 337.343,-490.968"/>
</g>
<!-- Node22&#45;&gt;Node14 -->
<g id="edge37" class="edge"><title>Node22&#45;&gt;Node14</title>
<path fill="none" stroke="midnightblue" d="M283.62,-530.797C292.354,-529.706 301.282,-528.59 310.047,-527.494"/>
<polygon fill="midnightblue" stroke="midnightblue" points="310.753,-530.933 320.241,-526.22 309.884,-523.987 310.753,-530.933"/>
</g>
<!-- Node23&#45;&gt;Node5 -->
<g id="edge32" class="edge"><title>Node23&#45;&gt;Node5</title>
<path fill="none" stroke="midnightblue" d="M405.981,-628.377C419.611,-620.784 438.564,-609.575 454,-598 535.038,-537.233 563.581,-526.747 622,-444 645.662,-410.485 627.192,-386.093 658,-359 663.133,-354.486 669.257,-351.037 675.695,-348.403"/>
<polygon fill="midnightblue" stroke="midnightblue" points="676.964,-351.668 685.276,-345.099 674.681,-345.051 676.964,-351.668"/>
</g>
<!-- Node24 -->
<g id="node24" class="node"><title>Node24</title>
<g id="a_node24"><a xlink:href="classCOM_1_1COM__base_a3f8b62a994717d5b99e6e48280ea94a1.html#a3f8b62a994717d5b99e6e48280ea94a1" target="_top" xlink:title="Creates a new dataitem for a window. ">
<polygon fill="none" stroke="black" points="496.5,-623 496.5,-653 615.5,-653 615.5,-623 496.5,-623"/>
<text text-anchor="start" x="504.5" y="-641" font-family="Helvetica,sans-Serif" font-size="10.00">COM::COM_base::new</text>
<text text-anchor="middle" x="556" y="-630" font-family="Helvetica,sans-Serif" font-size="10.00">_dataitem</text>
</a>
</g>
</g>
<!-- Node23&#45;&gt;Node24 -->
<g id="edge33" class="edge"><title>Node23&#45;&gt;Node24</title>
<path fill="none" stroke="midnightblue" d="M440.382,-638C454.838,-638 470.746,-638 485.989,-638"/>
<polygon fill="midnightblue" stroke="midnightblue" points="486.41,-641.5 496.41,-638 486.41,-634.5 486.41,-641.5"/>
</g>
</g>
</svg>
        <g id="navigator" transform="translate(0 0)" fill="#404254">
                <rect fill="#f2f5e9" fill-opacity="0.5" stroke="#606060" stroke-width=".5" x="0" y="0" width="60" height="60"/>
                <use id="zoomplus" xlink:href="#zoomPlus" x="17" y="9" onmousedown="handleZoom(evt,'in')"/>
                <use id="zoomminus" xlink:href="#zoomMin" x="42" y="9" onmousedown="handleZoom(evt,'out')"/>
                <use id="reset" xlink:href="#resetDef" x="30" y="36" onmousedown="handleReset()"/>
                <g id="arrowUp" xlink:href="#dirArrow" transform="translate(30 24)" onmousedown="handlePan(0,-1)">
                  <use xlink:href="#rim" fill="#404040">
                        <set attributeName="fill" to="#808080" begin="arrowUp.mouseover" end="arrowUp.mouseout"/>
                  </use>
                  <path fill="none" stroke="white" stroke-width="1.5" d="M0,-3.0v7 M-2.5,-0.5L0,-3.0L2.5,-0.5"/>
                </g>
                <g id="arrowRight" xlink:href="#dirArrow" transform="rotate(90) translate(36 -43)" onmousedown="handlePan(1,0)">
                  <use xlink:href="#rim" fill="#404040">
                        <set attributeName="fill" to="#808080" begin="arrowRight.mouseover" end="arrowRight.mouseout"/>
                  </use>
                  <path fill="none" stroke="white" stroke-width="1.5" d="M0,-3.0v7 M-2.5,-0.5L0,-3.0L2.5,-0.5"/>
                </g>
                <g id="arrowDown" xlink:href="#dirArrow" transform="rotate(180) translate(-30 -48)" onmousedown="handlePan(0,1)">
                  <use xlink:href="#rim" fill="#404040">
                        <set attributeName="fill" to="#808080" begin="arrowDown.mouseover" end="arrowDown.mouseout"/>
                  </use>
                  <path fill="none" stroke="white" stroke-width="1.5" d="M0,-3.0v7 M-2.5,-0.5L0,-3.0L2.5,-0.5"/>
                </g>
                <g id="arrowLeft" xlink:href="#dirArrow" transform="rotate(270) translate(-36 17)" onmousedown="handlePan(-1,0)">
                  <use xlink:href="#rim" fill="#404040">
                        <set attributeName="fill" to="#808080" begin="arrowLeft.mouseover" end="arrowLeft.mouseout"/>
                  </use>
                  <path fill="none" stroke="white" stroke-width="1.5" d="M0,-3.0v7 M-2.5,-0.5L0,-3.0L2.5,-0.5"/>
                </g>
        </g>
        <svg viewBox="0 0 15 15" width="100%" height="30px" preserveAspectRatio="xMaxYMin meet">
         <g id="arrow_out" transform="scale(0.3 0.3)">
          <a xlink:href="namespaceSolverUtils_a4dc3eadf3c5b31e96ea58eaee60c4a59_a4dc3eadf3c5b31e96ea58eaee60c4a59_cgraph_org.svg" target="_base">
           <rect id="button" ry="5" rx="5" y="6" x="6" height="38" width="38"
                fill="#f2f5e9" fill-opacity="0.5" stroke="#606060" stroke-width="1.0"/>
           <path id="arrow"
             d="M 11.500037,31.436501 C 11.940474,20.09759 22.043105,11.32322 32.158766,21.979434 L 37.068811,17.246167 C 37.068811,17.246167 37.088388,32 37.088388,32 L 22.160133,31.978069 C 22.160133,31.978069 26.997745,27.140456 26.997745,27.140456 C 18.528582,18.264221 13.291696,25.230495 11.500037,31.436501 z"
             style="fill:#404040;"/>
          </a>
         </g>
        </svg>
</svg>
