<?xml version="1.0" encoding="UTF-8" standalone="no"?>
<!DOCTYPE svg PUBLIC "-//W3C//DTD SVG 1.1//EN"
 "http://www.w3.org/Graphics/SVG/1.1/DTD/svg11.dtd">
<!-- Generated by graphviz version 2.30.1 (20150305.2338)
 -->
<!-- Title: Usage Pages: 1 -->
<svg width="174pt" height="66pt"
 viewBox="0.00 0.00 174.00 66.00" xmlns="http://www.w3.org/2000/svg" xmlns:xlink="http://www.w3.org/1999/xlink">
<g id="graph0" class="graph" transform="scale(1 1) rotate(0) translate(4 62)">
<title>Usage</title>
<!-- Node1 -->
<g id="node1" class="node"><title>Node1</title>
<polygon fill="#bfbfbf" stroke="black" points="0.5,-19.5 0.5,-38.5 45.5,-38.5 45.5,-19.5 0.5,-19.5"/>
<text text-anchor="middle" x="23" y="-26.5" font-family="Helvetica,sans-Serif" font-size="10.00">Usage</text>
</g>
<!-- Node2 -->
<g id="node2" class="node"><title>Node2</title>
<g id="a_node2"><a xlink:href="OFModuleDriver_8C_a0ddf1224851353fc92bfbff6f499fa97.html#a0ddf1224851353fc92bfbff6f499fa97" target="_top" xlink:title="main">
<polygon fill="none" stroke="black" points="105,-38.5 105,-57.5 143,-57.5 143,-38.5 105,-38.5"/>
<text text-anchor="middle" x="124" y="-45.5" font-family="Helvetica,sans-Serif" font-size="10.00">main</text>
</a>
</g>
</g>
<!-- Node1&#45;&gt;Node2 -->
<g id="edge1" class="edge"><title>Node1&#45;&gt;Node2</title>
<path fill="none" stroke="midnightblue" d="M56.0689,-35.1546C72.1842,-38.2475 91.1253,-41.8826 104.737,-44.495"/>
<polygon fill="midnightblue" stroke="midnightblue" points="56.4518,-31.6643 45.9713,-33.2167 55.1324,-38.5389 56.4518,-31.6643"/>
</g>
<!-- Node3 -->
<g id="node3" class="node"><title>Node3</title>
<g id="a_node3"><a xlink:href="namespaceCOM_ac3c87a84f9357bebe23933f58fa16aef.html#ac3c87a84f9357bebe23933f58fa16aef" target="_top" xlink:title="parallelProgram">
<polygon fill="none" stroke="black" points="82,-0.5 82,-19.5 166,-19.5 166,-0.5 82,-0.5"/>
<text text-anchor="middle" x="124" y="-7.5" font-family="Helvetica,sans-Serif" font-size="10.00">parallelProgram</text>
</a>
</g>
</g>
<!-- Node1&#45;&gt;Node3 -->
<g id="edge2" class="edge"><title>Node1&#45;&gt;Node3</title>
<path fill="none" stroke="midnightblue" d="M55.9769,-22.863C64.2592,-21.2735 73.293,-19.5397 81.9691,-17.8746"/>
<polygon fill="midnightblue" stroke="midnightblue" points="55.1324,-19.4611 45.9713,-24.7833 56.4518,-26.3357 55.1324,-19.4611"/>
</g>
</g>
</svg>
