<?xml version="1.0" encoding="UTF-8" standalone="no"?>
<!DOCTYPE svg PUBLIC "-//W3C//DTD SVG 1.1//EN"
 "http://www.w3.org/Graphics/SVG/1.1/DTD/svg11.dtd">
<!-- Generated by graphviz version 2.30.1 (20150305.2338)
 -->
<!-- Title: SurfaceMeshToPane Pages: 1 -->
<svg width="362pt" height="66pt"
 viewBox="0.00 0.00 362.00 66.00" xmlns="http://www.w3.org/2000/svg" xmlns:xlink="http://www.w3.org/1999/xlink">
<g id="graph0" class="graph" transform="scale(1 1) rotate(0) translate(4 62)">
<title>SurfaceMeshToPane</title>
<!-- Node1 -->
<g id="node1" class="node"><title>Node1</title>
<polygon fill="#bfbfbf" stroke="black" points="0,-19.5 0,-38.5 108,-38.5 108,-19.5 0,-19.5"/>
<text text-anchor="middle" x="54" y="-26.5" font-family="Helvetica,sans-Serif" font-size="10.00">SurfaceMeshToPane</text>
</g>
<!-- Node2 -->
<g id="node2" class="node"><title>Node2</title>
<g id="a_node2"><a xlink:href="namespaceSolverUtils_a040b0206db4efc72691b47e124622aef.html#a040b0206db4efc72691b47e124622aef" target="_top" xlink:title="AgentToPane">
<polygon fill="none" stroke="black" points="144,-19.5 144,-38.5 220,-38.5 220,-19.5 144,-19.5"/>
<text text-anchor="middle" x="182" y="-26.5" font-family="Helvetica,sans-Serif" font-size="10.00">AgentToPane</text>
</a>
</g>
</g>
<!-- Node1&#45;&gt;Node2 -->
<g id="edge1" class="edge"><title>Node1&#45;&gt;Node2</title>
<path fill="none" stroke="midnightblue" d="M118.248,-29C126.949,-29 135.644,-29 143.669,-29"/>
<polygon fill="midnightblue" stroke="midnightblue" points="118.07,-25.5001 108.07,-29 118.07,-32.5001 118.07,-25.5001"/>
</g>
<!-- Node3 -->
<g id="node3" class="node"><title>Node3</title>
<g id="a_node3"><a xlink:href="namespaceSolverUtils_abd82bb11c3dd2f2f88ff31ca33755f5b.html#abd82bb11c3dd2f2f88ff31ca33755f5b" target="_top" xlink:title="RegisterSolver">
<polygon fill="none" stroke="black" points="264.5,-38.5 264.5,-57.5 345.5,-57.5 345.5,-38.5 264.5,-38.5"/>
<text text-anchor="middle" x="305" y="-45.5" font-family="Helvetica,sans-Serif" font-size="10.00">RegisterSolver</text>
</a>
</g>
</g>
<!-- Node2&#45;&gt;Node3 -->
<g id="edge2" class="edge"><title>Node2&#45;&gt;Node3</title>
<path fill="none" stroke="midnightblue" d="M230.326,-36.4314C241.497,-38.1855 253.298,-40.0385 264.102,-41.7351"/>
<polygon fill="midnightblue" stroke="midnightblue" points="230.713,-32.9494 220.291,-34.8557 229.627,-39.8646 230.713,-32.9494"/>
</g>
<!-- Node4 -->
<g id="node4" class="node"><title>Node4</title>
<g id="a_node4"><a xlink:href="namespaceSolverUtils_a4dc3eadf3c5b31e96ea58eaee60c4a59.html#a4dc3eadf3c5b31e96ea58eaee60c4a59" target="_top" xlink:title="RegisterSolverInto">
<polygon fill="none" stroke="black" points="256,-0.5 256,-19.5 354,-19.5 354,-0.5 256,-0.5"/>
<text text-anchor="middle" x="305" y="-7.5" font-family="Helvetica,sans-Serif" font-size="10.00">RegisterSolverInto</text>
</a>
</g>
</g>
<!-- Node2&#45;&gt;Node4 -->
<g id="edge3" class="edge"><title>Node2&#45;&gt;Node4</title>
<path fill="none" stroke="midnightblue" d="M230.316,-21.5702C238.718,-20.2509 247.476,-18.8757 255.899,-17.553"/>
<polygon fill="midnightblue" stroke="midnightblue" points="229.627,-18.1354 220.291,-23.1443 230.713,-25.0506 229.627,-18.1354"/>
</g>
</g>
</svg>
