<?xml version="1.0" encoding="UTF-8" standalone="no"?>
<!DOCTYPE svg PUBLIC "-//W3C//DTD SVG 1.1//EN"
 "http://www.w3.org/Graphics/SVG/1.1/DTD/svg11.dtd">
<!-- Generated by graphviz version 2.30.1 (20150305.2338)
 -->
<!-- Title: MidPointQuadrature Pages: 1 -->
<svg width="674pt" height="87pt"
 viewBox="0.00 0.00 674.00 87.00" xmlns="http://www.w3.org/2000/svg" xmlns:xlink="http://www.w3.org/1999/xlink">
<g id="graph0" class="graph" transform="scale(1 1) rotate(0) translate(4 83)">
<title>MidPointQuadrature</title>
<!-- Node1 -->
<g id="node1" class="node"><title>Node1</title>
<polygon fill="#bfbfbf" stroke="black" points="0.5,-29.5 0.5,-48.5 103.5,-48.5 103.5,-29.5 0.5,-29.5"/>
<text text-anchor="middle" x="52" y="-36.5" font-family="Helvetica,sans-Serif" font-size="10.00">MidPointQuadrature</text>
</g>
<!-- Node2 -->
<g id="node2" class="node"><title>Node2</title>
<g id="a_node2"><a xlink:href="classElmerModuleDriver_1_1TestingObject_a7de28a366b07117111ce7c1e9515a434.html#a7de28a366b07117111ce7c1e9515a434" target="_top" xlink:title="Test for ElmerModuleDriver::MidPointQuadrature. ">
<polygon fill="none" stroke="black" points="140.5,-18.5 140.5,-59.5 253.5,-59.5 253.5,-18.5 140.5,-18.5"/>
<text text-anchor="start" x="148.5" y="-47.5" font-family="Helvetica,sans-Serif" font-size="10.00">ElmerModuleDriver::</text>
<text text-anchor="start" x="148.5" y="-36.5" font-family="Helvetica,sans-Serif" font-size="10.00">TestingObject::Test</text>
<text text-anchor="middle" x="197" y="-25.5" font-family="Helvetica,sans-Serif" font-size="10.00">__MidPointQuadrature</text>
</a>
</g>
</g>
<!-- Node1&#45;&gt;Node2 -->
<g id="edge1" class="edge"><title>Node1&#45;&gt;Node2</title>
<path fill="none" stroke="midnightblue" d="M114.009,-39C122.802,-39 131.811,-39 140.489,-39"/>
<polygon fill="midnightblue" stroke="midnightblue" points="113.819,-35.5001 103.819,-39 113.819,-42.5001 113.819,-35.5001"/>
</g>
<!-- Node3 -->
<g id="node3" class="node"><title>Node3</title>
<g id="a_node3"><a xlink:href="classElmerModuleDriver_1_1TestingObject_a046f7ab06db0acf616b0d2bf3d3146aa.html#a046f7ab06db0acf616b0d2bf3d3146aa" target="_top" xlink:title="ElmerModuleDriver::\lTestingObject::Process">
<polygon fill="none" stroke="black" points="291.5,-49 291.5,-79 410.5,-79 410.5,-49 291.5,-49"/>
<text text-anchor="start" x="299.5" y="-67" font-family="Helvetica,sans-Serif" font-size="10.00">ElmerModuleDriver::</text>
<text text-anchor="middle" x="351" y="-56" font-family="Helvetica,sans-Serif" font-size="10.00">TestingObject::Process</text>
</a>
</g>
</g>
<!-- Node2&#45;&gt;Node3 -->
<g id="edge2" class="edge"><title>Node2&#45;&gt;Node3</title>
<path fill="none" stroke="midnightblue" d="M263.661,-49.7995C272.907,-51.3202 282.361,-52.8752 291.462,-54.3721"/>
<polygon fill="midnightblue" stroke="midnightblue" points="264.172,-46.3365 253.736,-48.1671 263.035,-53.2437 264.172,-46.3365"/>
</g>
<!-- Node6 -->
<g id="node6" class="node"><title>Node6</title>
<g id="a_node6"><a xlink:href="classElmerModuleDriver_1_1TestingObject_af1f07f14b9af7708e4264bb38937eed2.html#af1f07f14b9af7708e4264bb38937eed2" target="_top" xlink:title="Runs a test specified by name. ">
<polygon fill="none" stroke="black" points="290.5,-0 290.5,-30 411.5,-30 411.5,-0 290.5,-0"/>
<text text-anchor="start" x="298.5" y="-18" font-family="Helvetica,sans-Serif" font-size="10.00">ElmerModuleDriver::</text>
<text text-anchor="middle" x="351" y="-7" font-family="Helvetica,sans-Serif" font-size="10.00">TestingObject::RunTest</text>
</a>
</g>
</g>
<!-- Node2&#45;&gt;Node6 -->
<g id="edge5" class="edge"><title>Node2&#45;&gt;Node6</title>
<path fill="none" stroke="midnightblue" d="M263.671,-28.6309C272.567,-27.2263 281.655,-25.7914 290.435,-24.405"/>
<polygon fill="midnightblue" stroke="midnightblue" points="263.068,-25.1827 253.736,-30.1996 264.16,-32.097 263.068,-25.1827"/>
</g>
<!-- Node4 -->
<g id="node4" class="node"><title>Node4</title>
<g id="a_node4"><a xlink:href="namespaceElmerModuleDriver_a657930328d3dc159ded2e9fd6473b2b6.html#a657930328d3dc159ded2e9fd6473b2b6" target="_top" xlink:title="Drives the ElmerModuleDriver::TestObject. ">
<polygon fill="none" stroke="black" points="502,-51.5 502,-70.5 538,-70.5 538,-51.5 502,-51.5"/>
<text text-anchor="middle" x="520" y="-58.5" font-family="Helvetica,sans-Serif" font-size="10.00">Test</text>
</a>
</g>
</g>
<!-- Node3&#45;&gt;Node4 -->
<g id="edge3" class="edge"><title>Node3&#45;&gt;Node4</title>
<path fill="none" stroke="midnightblue" d="M421.193,-62.757C450.715,-62.2267 482.697,-61.6522 501.778,-61.3094"/>
<polygon fill="midnightblue" stroke="midnightblue" points="420.813,-59.2632 410.878,-62.9423 420.939,-66.262 420.813,-59.2632"/>
</g>
<!-- Node5 -->
<g id="node5" class="node"><title>Node5</title>
<g id="a_node5"><a xlink:href="TestElmerModuleDriver_8C_a0ddf1224851353fc92bfbff6f499fa97.html#a0ddf1224851353fc92bfbff6f499fa97" target="_top" xlink:title="main">
<polygon fill="none" stroke="black" points="628,-51.5 628,-70.5 666,-70.5 666,-51.5 628,-51.5"/>
<text text-anchor="middle" x="647" y="-58.5" font-family="Helvetica,sans-Serif" font-size="10.00">main</text>
</a>
</g>
</g>
<!-- Node4&#45;&gt;Node5 -->
<g id="edge4" class="edge"><title>Node4&#45;&gt;Node5</title>
<path fill="none" stroke="midnightblue" d="M548.396,-61C572.535,-61 607.014,-61 627.874,-61"/>
<polygon fill="midnightblue" stroke="midnightblue" points="548.119,-57.5001 538.119,-61 548.119,-64.5001 548.119,-57.5001"/>
</g>
<!-- Node7 -->
<g id="node7" class="node"><title>Node7</title>
<g id="a_node7"><a xlink:href="classElmerModuleDriver_1_1TestingObject_a21159bd2efac623e5a5079f6a20f3444.html#a21159bd2efac623e5a5079f6a20f3444" target="_top" xlink:title="Runs a list of tests specified by name. ">
<polygon fill="none" stroke="black" points="448,-0 448,-30 592,-30 592,-0 448,-0"/>
<text text-anchor="start" x="456" y="-18" font-family="Helvetica,sans-Serif" font-size="10.00">ElmerModuleDriver::</text>
<text text-anchor="middle" x="520" y="-7" font-family="Helvetica,sans-Serif" font-size="10.00">TestingObject::ProcessTests</text>
</a>
</g>
</g>
<!-- Node6&#45;&gt;Node7 -->
<g id="edge6" class="edge"><title>Node6&#45;&gt;Node7</title>
<path fill="none" stroke="midnightblue" d="M421.828,-15C430.451,-15 439.275,-15 447.917,-15"/>
<polygon fill="midnightblue" stroke="midnightblue" points="421.819,-11.5001 411.819,-15 421.819,-18.5001 421.819,-11.5001"/>
</g>
<!-- Node6&#45;&gt;Node4 -->
<g id="edge7" class="edge"><title>Node6&#45;&gt;Node4</title>
<path fill="none" stroke="midnightblue" d="M416.497,-32.7656C447.188,-41.2193 481.495,-50.6693 501.615,-56.2114"/>
<polygon fill="midnightblue" stroke="midnightblue" points="417.252,-29.3435 406.682,-30.0621 415.394,-36.0921 417.252,-29.3435"/>
</g>
</g>
</svg>
