<?xml version="1.0" encoding="UTF-8" standalone="no"?>
<!DOCTYPE svg PUBLIC "-//W3C//DTD SVG 1.1//EN"
 "http://www.w3.org/Graphics/SVG/1.1/DTD/svg11.dtd">
<!-- Generated by graphviz version 2.30.1 (20150305.2338)
 -->
<!-- Title: ParallelTest Pages: 1 -->
<!--zoomable 594 -->
<svg id="main" version="1.1" xmlns="http://www.w3.org/2000/svg" xmlns:xlink="http://www.w3.org/1999/xlink" xml:space="preserve" onload="init(evt)">
<style type="text/css"><![CDATA[
.edge:hover path { stroke: red; }
.edge:hover polygon { stroke: red; fill: red; }
]]></style>
<script type="text/javascript"><![CDATA[
var edges = document.getElementsByTagName('g');
if (edges && edges.length) {
  for (var i=0;i<edges.length;i++) {
    if (edges[i].id.substr(0,4)=='edge') {
      edges[i].setAttribute('class','edge');
    }
  }
}
]]></script>
        <defs>
                <circle id="rim" cx="0" cy="0" r="7"/>
                <circle id="rim2" cx="0" cy="0" r="3.5"/>
                <g id="zoomPlus">
                        <use xlink:href="#rim" fill="#404040">
                                <set attributeName="fill" to="#808080" begin="zoomplus.mouseover" end="zoomplus.mouseout"/>
                        </use>
                        <path d="M-4,0h8M0,-4v8" fill="none" stroke="white" stroke-width="1.5" pointer-events="none"/>
                </g>
                <g id="zoomMin">
                        <use xlink:href="#rim" fill="#404040">
                                <set attributeName="fill" to="#808080" begin="zoomminus.mouseover" end="zoomminus.mouseout"/>
                        </use>
                        <path d="M-4,0h8" fill="none" stroke="white" stroke-width="1.5" pointer-events="none"/>
                </g>
                <g id="dirArrow">
                        <path fill="none" stroke="white" stroke-width="1.5" d="M0,-3.0v7 M-2.5,-0.5L0,-3.0L2.5,-0.5"/>
                </g>
               <g id="resetDef">
                       <use xlink:href="#rim2" fill="#404040">
                               <set attributeName="fill" to="#808080" begin="reset.mouseover" end="reset.mouseout"/>
                       </use>
               </g>
        </defs>

<script type="text/javascript">
var viewWidth = 612;
var viewHeight = 594;
var sectionId = 'dynsection-0';
</script>
<script xlink:href="svgpan.js"/>
<svg id="graph" class="graph">
<g id="viewport">
<title>ParallelTest</title>
<!-- Node1 -->
<g id="node1" class="node"><title>Node1</title>
<polygon fill="#bfbfbf" stroke="black" points="0,-299.5 0,-318.5 68,-318.5 68,-299.5 0,-299.5"/>
<text text-anchor="middle" x="34" y="-306.5" font-family="Helvetica,sans-Serif" font-size="10.00">ParallelTest</text>
</g>
<!-- Node2 -->
<g id="node2" class="node"><title>Node2</title>
<g id="a_node2"><a xlink:href="classIRAD_1_1Comm_1_1CommunicatorObject_a661992fe569928d57ddd3641cb461de6.html#a661992fe569928d57ddd3641cb461de6" target="_top" xlink:title="IRAD::Comm::Communicator\lObject::Check">
<polygon fill="none" stroke="black" points="104,-556 104,-586 250,-586 250,-556 104,-556"/>
<text text-anchor="start" x="112" y="-574" font-family="Helvetica,sans-Serif" font-size="10.00">IRAD::Comm::Communicator</text>
<text text-anchor="middle" x="177" y="-563" font-family="Helvetica,sans-Serif" font-size="10.00">Object::Check</text>
</a>
</g>
</g>
<!-- Node1&#45;&gt;Node2 -->
<g id="edge1" class="edge"><title>Node1&#45;&gt;Node2</title>
<path fill="none" stroke="midnightblue" d="M34.8555,-318.639C34.858,-354.033 39.6427,-478.281 104,-546 105.253,-547.319 106.58,-548.568 107.968,-549.752"/>
<polygon fill="midnightblue" stroke="midnightblue" points="106.335,-552.886 116.511,-555.834 110.395,-547.183 106.335,-552.886"/>
</g>
<!-- Node3 -->
<g id="node3" class="node"><title>Node3</title>
<g id="a_node3"><a xlink:href="com__c_09_09_8hpp_a47ed797bddcdd0aabcd9f8e47f326744.html#a47ed797bddcdd0aabcd9f8e47f326744" target="_top" xlink:title="COM_finalize">
<polygon fill="none" stroke="black" points="139,-517.5 139,-536.5 215,-536.5 215,-517.5 139,-517.5"/>
<text text-anchor="middle" x="177" y="-524.5" font-family="Helvetica,sans-Serif" font-size="10.00">COM_finalize</text>
</a>
</g>
</g>
<!-- Node1&#45;&gt;Node3 -->
<g id="edge2" class="edge"><title>Node1&#45;&gt;Node3</title>
<path fill="none" stroke="midnightblue" d="M35.306,-318.565C36.8636,-350.518 46.3435,-454.554 104,-508 110.963,-514.454 119.856,-518.769 128.998,-521.641"/>
<polygon fill="midnightblue" stroke="midnightblue" points="128.379,-525.096 138.938,-524.223 130.14,-518.321 128.379,-525.096"/>
</g>
<!-- Node5 -->
<g id="node5" class="node"><title>Node5</title>
<g id="a_node5"><a xlink:href="com__c_09_09_8hpp_ac0f80d6e63759a2afe40ed883cea3d5e.html#ac0f80d6e63759a2afe40ed883cea3d5e" target="_top" xlink:title="COM_init">
<polygon fill="none" stroke="black" points="148,-479.5 148,-498.5 206,-498.5 206,-479.5 148,-479.5"/>
<text text-anchor="middle" x="177" y="-486.5" font-family="Helvetica,sans-Serif" font-size="10.00">COM_init</text>
</a>
</g>
</g>
<!-- Node1&#45;&gt;Node5 -->
<g id="edge4" class="edge"><title>Node1&#45;&gt;Node5</title>
<path fill="none" stroke="midnightblue" d="M36.1997,-318.685C40.1938,-346.667 55.6514,-428.278 104,-470 113.482,-478.182 126.098,-482.892 138.118,-485.587"/>
<polygon fill="midnightblue" stroke="midnightblue" points="137.524,-489.036 147.993,-487.408 138.794,-482.153 137.524,-489.036"/>
</g>
<!-- Node7 -->
<g id="node7" class="node"><title>Node7</title>
<g id="a_node7"><a xlink:href="com__c_09_09_8hpp_ab1d1395d3d329bd968a9e806ea1605f1.html#ab1d1395d3d329bd968a9e806ea1605f1" target="_top" xlink:title="COM_initialized">
<polygon fill="none" stroke="black" points="134,-441.5 134,-460.5 220,-460.5 220,-441.5 134,-441.5"/>
<text text-anchor="middle" x="177" y="-448.5" font-family="Helvetica,sans-Serif" font-size="10.00">COM_initialized</text>
</a>
</g>
</g>
<!-- Node1&#45;&gt;Node7 -->
<g id="edge6" class="edge"><title>Node1&#45;&gt;Node7</title>
<path fill="none" stroke="midnightblue" d="M37.6437,-318.61C44.4989,-341.689 65.0834,-400.577 104,-431 109.903,-435.614 116.806,-439.164 123.958,-441.896"/>
<polygon fill="midnightblue" stroke="midnightblue" points="123.202,-445.332 133.796,-445.136 125.392,-438.683 123.202,-445.332"/>
</g>
<!-- Node10 -->
<g id="node10" class="node"><title>Node10</title>
<g id="a_node10"><a xlink:href="classIRAD_1_1Util_1_1ComLineObject_aa433a792b5ff1791f801e99048c285bc.html#aa433a792b5ff1791f801e99048c285bc" target="_top" xlink:title="Error reporting. ">
<polygon fill="none" stroke="black" points="109,-392 109,-422 245,-422 245,-392 109,-392"/>
<text text-anchor="start" x="117" y="-410" font-family="Helvetica,sans-Serif" font-size="10.00">IRAD::Util::ComLineObject</text>
<text text-anchor="middle" x="177" y="-399" font-family="Helvetica,sans-Serif" font-size="10.00">::ErrorReport</text>
</a>
</g>
</g>
<!-- Node1&#45;&gt;Node10 -->
<g id="edge9" class="edge"><title>Node1&#45;&gt;Node10</title>
<path fill="none" stroke="midnightblue" d="M41.9091,-318.941C53.1966,-334.489 77.0526,-364.58 104,-382 107.129,-384.023 110.44,-385.903 113.857,-387.647"/>
<polygon fill="midnightblue" stroke="midnightblue" points="112.548,-390.899 123.09,-391.953 115.506,-384.555 112.548,-390.899"/>
</g>
<!-- Node11 -->
<g id="node11" class="node"><title>Node11</title>
<g id="a_node11"><a xlink:href="classIRAD_1_1Util_1_1ComLineObject_a2724b7e78e4a1650818395c714595738.html#a2724b7e78e4a1650818395c714595738" target="_top" xlink:title="Get the value of an option. ">
<polygon fill="none" stroke="black" points="109,-343 109,-373 245,-373 245,-343 109,-343"/>
<text text-anchor="start" x="117" y="-361" font-family="Helvetica,sans-Serif" font-size="10.00">IRAD::Util::ComLineObject</text>
<text text-anchor="middle" x="177" y="-350" font-family="Helvetica,sans-Serif" font-size="10.00">::GetOption</text>
</a>
</g>
</g>
<!-- Node1&#45;&gt;Node11 -->
<g id="edge10" class="edge"><title>Node1&#45;&gt;Node11</title>
<path fill="none" stroke="midnightblue" d="M62.5312,-318.58C75.1658,-322.975 90.3425,-328.254 104,-333 110.07,-335.109 116.428,-337.318 122.746,-339.513"/>
<polygon fill="midnightblue" stroke="midnightblue" points="122,-342.959 132.595,-342.933 124.296,-336.346 122,-342.959"/>
</g>
<!-- Node12 -->
<g id="node12" class="node"><title>Node12</title>
<g id="a_node12"><a xlink:href="classElmerModuleDriver_1_1TestComLine_a98b1050f09da390896f964fb7a892391.html#a98b1050f09da390896f964fb7a892391" target="_top" xlink:title="virtual function for program specific Initialization. ">
<polygon fill="none" stroke="black" points="118.5,-294 118.5,-324 235.5,-324 235.5,-294 118.5,-294"/>
<text text-anchor="start" x="126.5" y="-312" font-family="Helvetica,sans-Serif" font-size="10.00">ElmerModuleDriver::</text>
<text text-anchor="middle" x="177" y="-301" font-family="Helvetica,sans-Serif" font-size="10.00">TestComLine::Initialize</text>
</a>
</g>
</g>
<!-- Node1&#45;&gt;Node12 -->
<g id="edge11" class="edge"><title>Node1&#45;&gt;Node12</title>
<path fill="none" stroke="midnightblue" d="M68.0582,-309C80.1101,-309 94.2185,-309 108.186,-309"/>
<polygon fill="midnightblue" stroke="midnightblue" points="108.3,-312.5 118.3,-309 108.3,-305.5 108.3,-312.5"/>
</g>
<!-- Node15 -->
<g id="node15" class="node"><title>Node15</title>
<g id="a_node15"><a xlink:href="classIRAD_1_1Util_1_1ComLineObject_aa9cce130873f2d7d00a01053b5fc9f97.html#aa9cce130873f2d7d00a01053b5fc9f97" target="_top" xlink:title="Generate long usage string. ">
<polygon fill="none" stroke="black" points="109,-245 109,-275 245,-275 245,-245 109,-245"/>
<text text-anchor="start" x="117" y="-263" font-family="Helvetica,sans-Serif" font-size="10.00">IRAD::Util::ComLineObject</text>
<text text-anchor="middle" x="177" y="-252" font-family="Helvetica,sans-Serif" font-size="10.00">::LongUsage</text>
</a>
</g>
</g>
<!-- Node1&#45;&gt;Node15 -->
<g id="edge14" class="edge"><title>Node1&#45;&gt;Node15</title>
<path fill="none" stroke="midnightblue" d="M62.5312,-299.42C75.1658,-295.025 90.3425,-289.746 104,-285 110.07,-282.891 116.428,-280.682 122.746,-278.487"/>
<polygon fill="midnightblue" stroke="midnightblue" points="124.296,-281.654 132.595,-275.067 122,-275.041 124.296,-281.654"/>
</g>
<!-- Node16 -->
<g id="node16" class="node"><title>Node16</title>
<g id="a_node16"><a xlink:href="classIRAD_1_1Util_1_1ComLineObject_a49a08e312b3a2d9dfda55796fb842e80.html#a49a08e312b3a2d9dfda55796fb842e80" target="_top" xlink:title="Processes all command line tokens. ">
<polygon fill="none" stroke="black" points="109,-196 109,-226 245,-226 245,-196 109,-196"/>
<text text-anchor="start" x="117" y="-214" font-family="Helvetica,sans-Serif" font-size="10.00">IRAD::Util::ComLineObject</text>
<text text-anchor="middle" x="177" y="-203" font-family="Helvetica,sans-Serif" font-size="10.00">::ProcessOptions</text>
</a>
</g>
</g>
<!-- Node1&#45;&gt;Node16 -->
<g id="edge15" class="edge"><title>Node1&#45;&gt;Node16</title>
<path fill="none" stroke="midnightblue" d="M41.9091,-299.059C53.1966,-283.511 77.0526,-253.42 104,-236 107.129,-233.977 110.44,-232.097 113.857,-230.353"/>
<polygon fill="midnightblue" stroke="midnightblue" points="115.506,-233.445 123.09,-226.047 112.548,-227.101 115.506,-233.445"/>
</g>
<!-- Node17 -->
<g id="node17" class="node"><title>Node17</title>
<g id="a_node17"><a xlink:href="classIRAD_1_1Comm_1_1CommunicatorObject_a575c1da8fd55deeeb351cb509ddd3dda.html#a575c1da8fd55deeeb351cb509ddd3dda" target="_top" xlink:title="IRAD::Comm::Communicator\lObject::Rank">
<polygon fill="none" stroke="black" points="104,-147 104,-177 250,-177 250,-147 104,-147"/>
<text text-anchor="start" x="112" y="-165" font-family="Helvetica,sans-Serif" font-size="10.00">IRAD::Comm::Communicator</text>
<text text-anchor="middle" x="177" y="-154" font-family="Helvetica,sans-Serif" font-size="10.00">Object::Rank</text>
</a>
</g>
</g>
<!-- Node1&#45;&gt;Node17 -->
<g id="edge16" class="edge"><title>Node1&#45;&gt;Node17</title>
<path fill="none" stroke="midnightblue" d="M37.8764,-299.207C45.1142,-276.241 66.2517,-218.482 104,-187 106.001,-185.331 108.119,-183.772 110.326,-182.314"/>
<polygon fill="midnightblue" stroke="midnightblue" points="112.303,-185.214 119.211,-177.182 108.802,-179.153 112.303,-185.214"/>
</g>
<!-- Node18 -->
<g id="node18" class="node"><title>Node18</title>
<g id="a_node18"><a xlink:href="classIRAD_1_1Comm_1_1CommunicatorObject_ae5812ab412465cf395e574fb7380f462.html#ae5812ab412465cf395e574fb7380f462" target="_top" xlink:title="IRAD::Comm::Communicator\lObject::SetExit">
<polygon fill="none" stroke="black" points="104,-98 104,-128 250,-128 250,-98 104,-98"/>
<text text-anchor="start" x="112" y="-116" font-family="Helvetica,sans-Serif" font-size="10.00">IRAD::Comm::Communicator</text>
<text text-anchor="middle" x="177" y="-105" font-family="Helvetica,sans-Serif" font-size="10.00">Object::SetExit</text>
</a>
</g>
</g>
<!-- Node1&#45;&gt;Node18 -->
<g id="edge17" class="edge"><title>Node1&#45;&gt;Node18</title>
<path fill="none" stroke="midnightblue" d="M36.1112,-299.323C39.9249,-270.539 55.073,-184.571 104,-138 105.635,-136.443 107.373,-134.983 109.191,-133.614"/>
<polygon fill="midnightblue" stroke="midnightblue" points="111.117,-136.536 117.617,-128.17 107.318,-130.657 111.117,-136.536"/>
</g>
<!-- Node19 -->
<g id="node19" class="node"><title>Node19</title>
<g id="a_node19"><a xlink:href="classIRAD_1_1Util_1_1ComLineObject_a91336093c461161b48bab405326d74b3.html#a91336093c461161b48bab405326d74b3" target="_top" xlink:title="Generate short usage string. ">
<polygon fill="none" stroke="black" points="109,-49 109,-79 245,-79 245,-49 109,-49"/>
<text text-anchor="start" x="117" y="-67" font-family="Helvetica,sans-Serif" font-size="10.00">IRAD::Util::ComLineObject</text>
<text text-anchor="middle" x="177" y="-56" font-family="Helvetica,sans-Serif" font-size="10.00">::ShortUsage</text>
</a>
</g>
</g>
<!-- Node1&#45;&gt;Node19 -->
<g id="edge18" class="edge"><title>Node1&#45;&gt;Node19</title>
<path fill="none" stroke="midnightblue" d="M35.1177,-299.11C36.0637,-265.014 43.7943,-151.057 104,-89 105.417,-87.5398 106.923,-86.1649 108.503,-84.8702"/>
<polygon fill="midnightblue" stroke="midnightblue" points="110.702,-87.6046 116.942,-79.0423 106.725,-81.8444 110.702,-87.6046"/>
</g>
<!-- Node20 -->
<g id="node20" class="node"><title>Node20</title>
<g id="a_node20"><a xlink:href="classIRAD_1_1Comm_1_1CommunicatorObject_af40990b9bd3d70d30e8ce7cdda1ad56f.html#af40990b9bd3d70d30e8ce7cdda1ad56f" target="_top" xlink:title="IRAD::Comm::Communicator\lObject::Size">
<polygon fill="none" stroke="black" points="104,-0 104,-30 250,-30 250,-0 104,-0"/>
<text text-anchor="start" x="112" y="-18" font-family="Helvetica,sans-Serif" font-size="10.00">IRAD::Comm::Communicator</text>
<text text-anchor="middle" x="177" y="-7" font-family="Helvetica,sans-Serif" font-size="10.00">Object::Size</text>
</a>
</g>
</g>
<!-- Node1&#45;&gt;Node20 -->
<g id="edge19" class="edge"><title>Node1&#45;&gt;Node20</title>
<path fill="none" stroke="midnightblue" d="M34.4598,-299.429C32.8452,-261.264 32.0149,-118.231 104,-40 105.232,-38.6611 106.539,-37.394 107.91,-36.1947"/>
<polygon fill="midnightblue" stroke="midnightblue" points="110.346,-38.7512 116.378,-30.0413 106.231,-33.0884 110.346,-38.7512"/>
</g>
<!-- Node4 -->
<g id="node4" class="node"><title>Node4</title>
<g id="a_node4"><a xlink:href="classCOM_1_1COM__base_aa77ce2c05f3e9d82815db88996cfc1ed.html#aa77ce2c05f3e9d82815db88996cfc1ed" target="_top" xlink:title="COM::COM_base::finalize">
<polygon fill="none" stroke="black" points="291,-517.5 291,-536.5 423,-536.5 423,-517.5 291,-517.5"/>
<text text-anchor="middle" x="357" y="-524.5" font-family="Helvetica,sans-Serif" font-size="10.00">COM::COM_base::finalize</text>
</a>
</g>
</g>
<!-- Node3&#45;&gt;Node4 -->
<g id="edge3" class="edge"><title>Node3&#45;&gt;Node4</title>
<path fill="none" stroke="midnightblue" d="M215.315,-527C234.233,-527 257.92,-527 280.433,-527"/>
<polygon fill="midnightblue" stroke="midnightblue" points="280.673,-530.5 290.673,-527 280.673,-523.5 280.673,-530.5"/>
</g>
<!-- Node6 -->
<g id="node6" class="node"><title>Node6</title>
<g id="a_node6"><a xlink:href="classCOM_1_1COM__base_a38b2bac03bb06f2d0ea5c99760da5f1c.html#a38b2bac03bb06f2d0ea5c99760da5f1c" target="_top" xlink:title="COM::COM_base::init">
<polygon fill="none" stroke="black" points="300,-479.5 300,-498.5 414,-498.5 414,-479.5 300,-479.5"/>
<text text-anchor="middle" x="357" y="-486.5" font-family="Helvetica,sans-Serif" font-size="10.00">COM::COM_base::init</text>
</a>
</g>
</g>
<!-- Node5&#45;&gt;Node6 -->
<g id="edge5" class="edge"><title>Node5&#45;&gt;Node6</title>
<path fill="none" stroke="midnightblue" d="M206.205,-489C228.653,-489 260.987,-489 289.873,-489"/>
<polygon fill="midnightblue" stroke="midnightblue" points="289.924,-492.5 299.924,-489 289.924,-485.5 289.924,-492.5"/>
</g>
<!-- Node8 -->
<g id="node8" class="node"><title>Node8</title>
<g id="a_node8"><a xlink:href="classCOM_1_1COM__base_a87753f5d050529932389515f11f80e7c.html#a87753f5d050529932389515f11f80e7c" target="_top" xlink:title="Checks whether COM has been initialized. ">
<polygon fill="none" stroke="black" points="286,-441.5 286,-460.5 428,-460.5 428,-441.5 286,-441.5"/>
<text text-anchor="middle" x="357" y="-448.5" font-family="Helvetica,sans-Serif" font-size="10.00">COM::COM_base::initialized</text>
</a>
</g>
</g>
<!-- Node7&#45;&gt;Node8 -->
<g id="edge7" class="edge"><title>Node7&#45;&gt;Node8</title>
<path fill="none" stroke="midnightblue" d="M220.184,-451C236.828,-451 256.527,-451 275.684,-451"/>
<polygon fill="midnightblue" stroke="midnightblue" points="275.939,-454.5 285.939,-451 275.939,-447.5 275.939,-454.5"/>
</g>
<!-- Node9 -->
<g id="node9" class="node"><title>Node9</title>
<g id="a_node9"><a xlink:href="classCOM_1_1COM__base_a77bb770b9ec1aac99361c45efbccabc1.html#a77bb770b9ec1aac99361c45efbccabc1" target="_top" xlink:title="Get a pointer to the COM object. ">
<polygon fill="none" stroke="black" points="464.5,-441.5 464.5,-460.5 603.5,-460.5 603.5,-441.5 464.5,-441.5"/>
<text text-anchor="middle" x="534" y="-448.5" font-family="Helvetica,sans-Serif" font-size="10.00">COM::COM_base::get_com</text>
</a>
</g>
</g>
<!-- Node8&#45;&gt;Node9 -->
<g id="edge8" class="edge"><title>Node8&#45;&gt;Node9</title>
<path fill="none" stroke="midnightblue" d="M428.171,-451C436.714,-451 445.487,-451 454.146,-451"/>
<polygon fill="midnightblue" stroke="midnightblue" points="454.238,-454.5 464.238,-451 454.238,-447.5 454.238,-454.5"/>
</g>
<!-- Node13 -->
<g id="node13" class="node"><title>Node13</title>
<g id="a_node13"><a xlink:href="classIRAD_1_1Util_1_1ComLineObject_ac3e609c01c92ed92e57a16d226f9cdb8.html#ac3e609c01c92ed92e57a16d226f9cdb8" target="_top" xlink:title="User interface to describe simple option. ">
<polygon fill="none" stroke="black" points="289,-318 289,-348 425,-348 425,-318 289,-318"/>
<text text-anchor="start" x="297" y="-336" font-family="Helvetica,sans-Serif" font-size="10.00">IRAD::Util::ComLineObject</text>
<text text-anchor="middle" x="357" y="-325" font-family="Helvetica,sans-Serif" font-size="10.00">::AddOption</text>
</a>
</g>
</g>
<!-- Node12&#45;&gt;Node13 -->
<g id="edge12" class="edge"><title>Node12&#45;&gt;Node13</title>
<path fill="none" stroke="midnightblue" d="M235.791,-316.792C249.566,-318.649 264.482,-320.66 278.967,-322.614"/>
<polygon fill="midnightblue" stroke="midnightblue" points="278.529,-326.086 288.907,-323.954 279.464,-319.149 278.529,-326.086"/>
</g>
<!-- Node14 -->
<g id="node14" class="node"><title>Node14</title>
<g id="a_node14"><a xlink:href="classIRAD_1_1Util_1_1ComLineObject_a469b17dd7e622de0cb6b1c51e805994c.html#a469b17dd7e622de0cb6b1c51e805994c" target="_top" xlink:title="Specify usage for an option. ">
<polygon fill="none" stroke="black" points="289,-269 289,-299 425,-299 425,-269 289,-269"/>
<text text-anchor="start" x="297" y="-287" font-family="Helvetica,sans-Serif" font-size="10.00">IRAD::Util::ComLineObject</text>
<text text-anchor="middle" x="357" y="-276" font-family="Helvetica,sans-Serif" font-size="10.00">::AddHelp</text>
</a>
</g>
</g>
<!-- Node12&#45;&gt;Node14 -->
<g id="edge13" class="edge"><title>Node12&#45;&gt;Node14</title>
<path fill="none" stroke="midnightblue" d="M235.791,-300.883C249.566,-298.949 264.482,-296.854 278.967,-294.819"/>
<polygon fill="midnightblue" stroke="midnightblue" points="279.491,-298.28 288.907,-293.423 278.517,-291.348 279.491,-298.28"/>
</g>
</g>
</svg>
        <g id="navigator" transform="translate(0 0)" fill="#404254">
                <rect fill="#f2f5e9" fill-opacity="0.5" stroke="#606060" stroke-width=".5" x="0" y="0" width="60" height="60"/>
                <use id="zoomplus" xlink:href="#zoomPlus" x="17" y="9" onmousedown="handleZoom(evt,'in')"/>
                <use id="zoomminus" xlink:href="#zoomMin" x="42" y="9" onmousedown="handleZoom(evt,'out')"/>
                <use id="reset" xlink:href="#resetDef" x="30" y="36" onmousedown="handleReset()"/>
                <g id="arrowUp" xlink:href="#dirArrow" transform="translate(30 24)" onmousedown="handlePan(0,-1)">
                  <use xlink:href="#rim" fill="#404040">
                        <set attributeName="fill" to="#808080" begin="arrowUp.mouseover" end="arrowUp.mouseout"/>
                  </use>
                  <path fill="none" stroke="white" stroke-width="1.5" d="M0,-3.0v7 M-2.5,-0.5L0,-3.0L2.5,-0.5"/>
                </g>
                <g id="arrowRight" xlink:href="#dirArrow" transform="rotate(90) translate(36 -43)" onmousedown="handlePan(1,0)">
                  <use xlink:href="#rim" fill="#404040">
                        <set attributeName="fill" to="#808080" begin="arrowRight.mouseover" end="arrowRight.mouseout"/>
                  </use>
                  <path fill="none" stroke="white" stroke-width="1.5" d="M0,-3.0v7 M-2.5,-0.5L0,-3.0L2.5,-0.5"/>
                </g>
                <g id="arrowDown" xlink:href="#dirArrow" transform="rotate(180) translate(-30 -48)" onmousedown="handlePan(0,1)">
                  <use xlink:href="#rim" fill="#404040">
                        <set attributeName="fill" to="#808080" begin="arrowDown.mouseover" end="arrowDown.mouseout"/>
                  </use>
                  <path fill="none" stroke="white" stroke-width="1.5" d="M0,-3.0v7 M-2.5,-0.5L0,-3.0L2.5,-0.5"/>
                </g>
                <g id="arrowLeft" xlink:href="#dirArrow" transform="rotate(270) translate(-36 17)" onmousedown="handlePan(-1,0)">
                  <use xlink:href="#rim" fill="#404040">
                        <set attributeName="fill" to="#808080" begin="arrowLeft.mouseover" end="arrowLeft.mouseout"/>
                  </use>
                  <path fill="none" stroke="white" stroke-width="1.5" d="M0,-3.0v7 M-2.5,-0.5L0,-3.0L2.5,-0.5"/>
                </g>
        </g>
        <svg viewBox="0 0 15 15" width="100%" height="30px" preserveAspectRatio="xMaxYMin meet">
         <g id="arrow_out" transform="scale(0.3 0.3)">
          <a xlink:href="namespaceElmerModuleDriver_a81f0cdc909567e8d6ef1546887dfa3e2_a81f0cdc909567e8d6ef1546887dfa3e2_cgraph_org.svg" target="_base">
           <rect id="button" ry="5" rx="5" y="6" x="6" height="38" width="38"
                fill="#f2f5e9" fill-opacity="0.5" stroke="#606060" stroke-width="1.0"/>
           <path id="arrow"
             d="M 11.500037,31.436501 C 11.940474,20.09759 22.043105,11.32322 32.158766,21.979434 L 37.068811,17.246167 C 37.068811,17.246167 37.088388,32 37.088388,32 L 22.160133,31.978069 C 22.160133,31.978069 26.997745,27.140456 26.997745,27.140456 C 18.528582,18.264221 13.291696,25.230495 11.500037,31.436501 z"
             style="fill:#404040;"/>
          </a>
         </g>
        </svg>
</svg>
