<?xml version="1.0" encoding="UTF-8" standalone="no"?>
<!DOCTYPE svg PUBLIC "-//W3C//DTD SVG 1.1//EN"
 "http://www.w3.org/Graphics/SVG/1.1/DTD/svg11.dtd">
<!-- Generated by graphviz version 2.30.1 (20150305.2338)
 -->
<!-- Title: Driver Pages: 1 -->
<svg width="776pt" height="459pt"
 viewBox="0.00 0.00 776.00 459.00" xmlns="http://www.w3.org/2000/svg" xmlns:xlink="http://www.w3.org/1999/xlink">
<g id="graph0" class="graph" transform="scale(1 1) rotate(0) translate(4 455)">
<title>Driver</title>
<!-- Node1 -->
<g id="node1" class="node"><title>Node1</title>
<polygon fill="#bfbfbf" stroke="black" points="0.5,-306.5 0.5,-325.5 43.5,-325.5 43.5,-306.5 0.5,-306.5"/>
<text text-anchor="middle" x="22" y="-313.5" font-family="Helvetica,sans-Serif" font-size="10.00">Driver</text>
</g>
<!-- Node2 -->
<g id="node2" class="node"><title>Node2</title>
<g id="a_node2"><a xlink:href="classElmerFoamFSI_1_1SerialDriverProgram_a5803949d99491a7186bf1ee9cee81a3b.html#a5803949d99491a7186bf1ee9cee81a3b" target="_top" xlink:title="This function implements the main function executed by the program. ">
<polygon fill="none" stroke="black" points="80,-350 80,-380 220,-380 220,-350 80,-350"/>
<text text-anchor="start" x="88" y="-368" font-family="Helvetica,sans-Serif" font-size="10.00">ElmerFoamFSI::SerialDriver</text>
<text text-anchor="middle" x="150" y="-357" font-family="Helvetica,sans-Serif" font-size="10.00">Program::DriverRun</text>
</a>
</g>
</g>
<!-- Node1&#45;&gt;Node2 -->
<g id="edge1" class="edge"><title>Node1&#45;&gt;Node2</title>
<path fill="none" stroke="midnightblue" d="M43.7422,-325.033C54.5059,-329.644 67.9016,-335.265 80,-340 85.3966,-342.112 91.0538,-344.263 96.7085,-346.372"/>
<polygon fill="midnightblue" stroke="midnightblue" points="95.5829,-349.687 106.176,-349.868 98.0076,-343.121 95.5829,-349.687"/>
</g>
<!-- Node24 -->
<g id="node24" class="node"><title>Node24</title>
<g id="a_node24"><a xlink:href="classElmerFoamFSI_1_1SerialDriverProgram_aa07151f89ba8e36b3783651c8edf8337.html#aa07151f89ba8e36b3783651c8edf8337" target="_top" xlink:title="Initializes native data structures from commandline args. ">
<polygon fill="none" stroke="black" points="80,-301 80,-331 220,-331 220,-301 80,-301"/>
<text text-anchor="start" x="88" y="-319" font-family="Helvetica,sans-Serif" font-size="10.00">ElmerFoamFSI::SerialDriver</text>
<text text-anchor="middle" x="150" y="-308" font-family="Helvetica,sans-Serif" font-size="10.00">Program::Initialize</text>
</a>
</g>
</g>
<!-- Node1&#45;&gt;Node24 -->
<g id="edge28" class="edge"><title>Node1&#45;&gt;Node24</title>
<path fill="none" stroke="midnightblue" d="M43.5245,-316C51.0808,-316 60.163,-316 69.7869,-316"/>
<polygon fill="midnightblue" stroke="midnightblue" points="69.9708,-319.5 79.9707,-316 69.9707,-312.5 69.9708,-319.5"/>
</g>
<!-- Node25 -->
<g id="node25" class="node"><title>Node25</title>
<g id="a_node25"><a xlink:href="classElmerFoamFSI_1_1SerialDriverProgram_ab17757bfd183c39a2c228c852d2020f1.html#ab17757bfd183c39a2c228c852d2020f1" target="_top" xlink:title="Returns verbosity level. ">
<polygon fill="none" stroke="black" points="80,-252 80,-282 220,-282 220,-252 80,-252"/>
<text text-anchor="start" x="88" y="-270" font-family="Helvetica,sans-Serif" font-size="10.00">ElmerFoamFSI::SerialDriver</text>
<text text-anchor="middle" x="150" y="-259" font-family="Helvetica,sans-Serif" font-size="10.00">Program::VerbLevel</text>
</a>
</g>
</g>
<!-- Node1&#45;&gt;Node25 -->
<g id="edge29" class="edge"><title>Node1&#45;&gt;Node25</title>
<path fill="none" stroke="midnightblue" d="M43.7422,-306.967C54.5059,-302.356 67.9016,-296.735 80,-292 85.3966,-289.888 91.0538,-287.737 96.7085,-285.628"/>
<polygon fill="midnightblue" stroke="midnightblue" points="98.0076,-288.879 106.176,-282.132 95.5829,-282.313 98.0076,-288.879"/>
</g>
<!-- Node3 -->
<g id="node3" class="node"><title>Node3</title>
<g id="a_node3"><a xlink:href="classfsicoupling_a9339a46a8a7f217e05784068f5ac0b9d.html#a9339a46a8a7f217e05784068f5ac0b9d" target="_top" xlink:title="fsicoupling::SetRunMode">
<polygon fill="none" stroke="black" points="257,-431.5 257,-450.5 383,-450.5 383,-431.5 257,-431.5"/>
<text text-anchor="middle" x="320" y="-438.5" font-family="Helvetica,sans-Serif" font-size="10.00">fsicoupling::SetRunMode</text>
</a>
</g>
</g>
<!-- Node2&#45;&gt;Node3 -->
<g id="edge2" class="edge"><title>Node2&#45;&gt;Node3</title>
<path fill="none" stroke="midnightblue" d="M175.328,-380.065C196.171,-392.513 227.284,-410.024 256,-422 261.471,-424.282 267.313,-426.419 273.15,-428.377"/>
<polygon fill="midnightblue" stroke="midnightblue" points="272.312,-431.784 282.903,-431.496 274.444,-425.116 272.312,-431.784"/>
</g>
<!-- Node4 -->
<g id="node4" class="node"><title>Node4</title>
<g id="a_node4"><a xlink:href="classfsicoupling_a9912245de96c85424cb074624b144762.html#a9912245de96c85424cb074624b144762" target="_top" xlink:title="fsicoupling::SetVerbLevel">
<polygon fill="none" stroke="black" points="256,-393.5 256,-412.5 384,-412.5 384,-393.5 256,-393.5"/>
<text text-anchor="middle" x="320" y="-400.5" font-family="Helvetica,sans-Serif" font-size="10.00">fsicoupling::SetVerbLevel</text>
</a>
</g>
</g>
<!-- Node2&#45;&gt;Node4 -->
<g id="edge3" class="edge"><title>Node2&#45;&gt;Node4</title>
<path fill="none" stroke="midnightblue" d="M217.398,-380.019C233.8,-383.728 251.138,-387.65 266.759,-391.184"/>
<polygon fill="midnightblue" stroke="midnightblue" points="266.223,-394.651 276.749,-393.443 267.767,-387.823 266.223,-394.651"/>
</g>
<!-- Node5 -->
<g id="node5" class="node"><title>Node5</title>
<g id="a_node5"><a xlink:href="classfsicoupling_ae855141f7b214925c25f7797b8b122a8.html#ae855141f7b214925c25f7797b8b122a8" target="_top" xlink:title="fsicoupling::Initialize">
<polygon fill="none" stroke="black" points="267.5,-314.5 267.5,-333.5 372.5,-333.5 372.5,-314.5 267.5,-314.5"/>
<text text-anchor="middle" x="320" y="-321.5" font-family="Helvetica,sans-Serif" font-size="10.00">fsicoupling::Initialize</text>
</a>
</g>
</g>
<!-- Node2&#45;&gt;Node5 -->
<g id="edge4" class="edge"><title>Node2&#45;&gt;Node5</title>
<path fill="none" stroke="midnightblue" d="M212.603,-349.966C231.479,-345.359 251.982,-340.356 269.906,-335.981"/>
<polygon fill="midnightblue" stroke="midnightblue" points="270.965,-339.326 279.85,-333.554 269.305,-332.525 270.965,-339.326"/>
</g>
<!-- Node10 -->
<g id="node10" class="node"><title>Node10</title>
<g id="a_node10"><a xlink:href="classfsicoupling_afbfb74d751085fbf8cffe83b9716b2dd.html#afbfb74d751085fbf8cffe83b9716b2dd" target="_top" xlink:title="fsicoupling::Run">
<polygon fill="none" stroke="black" points="276.5,-145.5 276.5,-164.5 363.5,-164.5 363.5,-145.5 276.5,-145.5"/>
<text text-anchor="middle" x="320" y="-152.5" font-family="Helvetica,sans-Serif" font-size="10.00">fsicoupling::Run</text>
</a>
</g>
</g>
<!-- Node2&#45;&gt;Node10 -->
<g id="edge11" class="edge"><title>Node2&#45;&gt;Node10</title>
<path fill="none" stroke="midnightblue" d="M205.172,-349.875C210.502,-347.101 215.569,-343.836 220,-340 273.393,-293.779 302.693,-211.47 313.771,-174.237"/>
<polygon fill="midnightblue" stroke="midnightblue" points="317.14,-175.184 316.524,-164.607 310.41,-173.259 317.14,-175.184"/>
</g>
<!-- Node21 -->
<g id="node21" class="node"><title>Node21</title>
<g id="a_node21"><a xlink:href="classfsicoupling_a6068a393f390317c207fce14a60f9ef4.html#a6068a393f390317c207fce14a60f9ef4" target="_top" xlink:title="fsicoupling::Finalize">
<polygon fill="none" stroke="black" points="268.5,-355.5 268.5,-374.5 371.5,-374.5 371.5,-355.5 268.5,-355.5"/>
<text text-anchor="middle" x="320" y="-362.5" font-family="Helvetica,sans-Serif" font-size="10.00">fsicoupling::Finalize</text>
</a>
</g>
</g>
<!-- Node2&#45;&gt;Node21 -->
<g id="edge23" class="edge"><title>Node2&#45;&gt;Node21</title>
<path fill="none" stroke="midnightblue" d="M220.302,-365C232.871,-365 245.894,-365 258.196,-365"/>
<polygon fill="midnightblue" stroke="midnightblue" points="258.335,-368.5 268.335,-365 258.335,-361.5 258.335,-368.5"/>
</g>
<!-- Node6 -->
<g id="node6" class="node"><title>Node6</title>
<g id="a_node6"><a xlink:href="classopenfoamagent_a9a8261713154978fa009d8cb2c533055.html#a9a8261713154978fa009d8cb2c533055" target="_top" xlink:title="openfoamagent::Initialize">
<polygon fill="none" stroke="black" points="442.5,-276.5 442.5,-295.5 567.5,-295.5 567.5,-276.5 442.5,-276.5"/>
<text text-anchor="middle" x="505" y="-283.5" font-family="Helvetica,sans-Serif" font-size="10.00">openfoamagent::Initialize</text>
</a>
</g>
</g>
<!-- Node5&#45;&gt;Node6 -->
<g id="edge5" class="edge"><title>Node5&#45;&gt;Node6</title>
<path fill="none" stroke="midnightblue" d="M367.179,-314.411C391.763,-309.306 422.186,-302.989 448.097,-297.608"/>
<polygon fill="midnightblue" stroke="midnightblue" points="449.074,-300.98 458.153,-295.52 447.651,-294.126 449.074,-300.98"/>
</g>
<!-- Node9 -->
<g id="node9" class="node"><title>Node9</title>
<g id="a_node9"><a xlink:href="classelmeragent_a66d8ac5294227a11adf08cdfa91f59b5.html#a66d8ac5294227a11adf08cdfa91f59b5" target="_top" xlink:title="elmeragent::Initialize">
<polygon fill="none" stroke="black" points="451.5,-314.5 451.5,-333.5 558.5,-333.5 558.5,-314.5 451.5,-314.5"/>
<text text-anchor="middle" x="505" y="-321.5" font-family="Helvetica,sans-Serif" font-size="10.00">elmeragent::Initialize</text>
</a>
</g>
</g>
<!-- Node5&#45;&gt;Node9 -->
<g id="edge8" class="edge"><title>Node5&#45;&gt;Node9</title>
<path fill="none" stroke="midnightblue" d="M372.951,-324C394.21,-324 418.997,-324 441.256,-324"/>
<polygon fill="midnightblue" stroke="midnightblue" points="441.284,-327.5 451.284,-324 441.284,-320.5 441.284,-327.5"/>
</g>
<!-- Node7 -->
<g id="node7" class="node"><title>Node7</title>
<g id="a_node7"><a xlink:href="classimpact_1_1orchestrator_1_1agentbase_a0c67610e579dce80081e10bbbf57eae1.html#a0c67610e579dce80081e10bbbf57eae1" target="_top" xlink:title="impact::orchestrator\l::agentbase::WriteErr">
<polygon fill="none" stroke="black" points="642,-271 642,-301 752,-301 752,-271 642,-271"/>
<text text-anchor="start" x="650" y="-289" font-family="Helvetica,sans-Serif" font-size="10.00">impact::orchestrator</text>
<text text-anchor="middle" x="697" y="-278" font-family="Helvetica,sans-Serif" font-size="10.00">::agentbase::WriteErr</text>
</a>
</g>
</g>
<!-- Node6&#45;&gt;Node7 -->
<g id="edge6" class="edge"><title>Node6&#45;&gt;Node7</title>
<path fill="none" stroke="midnightblue" d="M567.688,-286C588.173,-286 611.026,-286 631.703,-286"/>
<polygon fill="midnightblue" stroke="midnightblue" points="631.976,-289.5 641.976,-286 631.976,-282.5 631.976,-289.5"/>
</g>
<!-- Node8 -->
<g id="node8" class="node"><title>Node8</title>
<g id="a_node8"><a xlink:href="classimpact_1_1orchestrator_1_1agentbase_acd3473c5912447035e34274950a1c8c6.html#acd3473c5912447035e34274950a1c8c6" target="_top" xlink:title="impact::orchestrator\l::agentbase::WriteOut">
<polygon fill="none" stroke="black" points="640.5,-320 640.5,-350 753.5,-350 753.5,-320 640.5,-320"/>
<text text-anchor="start" x="648.5" y="-338" font-family="Helvetica,sans-Serif" font-size="10.00">impact::orchestrator</text>
<text text-anchor="middle" x="697" y="-327" font-family="Helvetica,sans-Serif" font-size="10.00">::agentbase::WriteOut</text>
</a>
</g>
</g>
<!-- Node6&#45;&gt;Node8 -->
<g id="edge7" class="edge"><title>Node6&#45;&gt;Node8</title>
<path fill="none" stroke="midnightblue" d="M550.137,-295.519C563.022,-298.423 577.104,-301.719 590,-305 604.608,-308.716 620.268,-312.988 634.948,-317.121"/>
<polygon fill="midnightblue" stroke="midnightblue" points="634.354,-320.59 644.929,-319.951 636.263,-313.855 634.354,-320.59"/>
</g>
<!-- Node9&#45;&gt;Node7 -->
<g id="edge9" class="edge"><title>Node9&#45;&gt;Node7</title>
<path fill="none" stroke="midnightblue" d="M553.945,-314.411C577.528,-309.694 606.287,-303.943 631.745,-298.851"/>
<polygon fill="midnightblue" stroke="midnightblue" points="632.569,-302.256 641.689,-296.862 631.197,-295.391 632.569,-302.256"/>
</g>
<!-- Node9&#45;&gt;Node8 -->
<g id="edge10" class="edge"><title>Node9&#45;&gt;Node8</title>
<path fill="none" stroke="midnightblue" d="M558.673,-327.05C580.772,-328.329 606.712,-329.831 630.061,-331.182"/>
<polygon fill="midnightblue" stroke="midnightblue" points="630.049,-334.688 640.235,-331.772 630.454,-327.699 630.049,-334.688"/>
</g>
<!-- Node11 -->
<g id="node11" class="node"><title>Node11</title>
<g id="a_node11"><a xlink:href="classimpact_1_1orchestrator_1_1agentbase_a50a1b38c2dca7d97a57941b99cfdf099.html#a50a1b38c2dca7d97a57941b99cfdf099" target="_top" xlink:title="impact::orchestrator\l::agentbase::FinalizeTimeStep">
<polygon fill="none" stroke="black" points="430.5,-189 430.5,-219 579.5,-219 579.5,-189 430.5,-189"/>
<text text-anchor="start" x="438.5" y="-207" font-family="Helvetica,sans-Serif" font-size="10.00">impact::orchestrator</text>
<text text-anchor="middle" x="505" y="-196" font-family="Helvetica,sans-Serif" font-size="10.00">::agentbase::FinalizeTimeStep</text>
</a>
</g>
</g>
<!-- Node10&#45;&gt;Node11 -->
<g id="edge12" class="edge"><title>Node10&#45;&gt;Node11</title>
<path fill="none" stroke="midnightblue" d="M356.719,-164.564C379.786,-170.74 410.502,-178.965 437.913,-186.304"/>
<polygon fill="midnightblue" stroke="midnightblue" points="437.277,-189.757 447.842,-188.963 439.087,-182.996 437.277,-189.757"/>
</g>
<!-- Node12 -->
<g id="node12" class="node"><title>Node12</title>
<g id="a_node12"><a xlink:href="classimpact_1_1orchestrator_1_1agentbase_abae70c8ddc0a4976bf42b69f1eae8b52.html#abae70c8ddc0a4976bf42b69f1eae8b52" target="_top" xlink:title="impact::orchestrator\l::agentbase::InitializeTimeStep">
<polygon fill="none" stroke="black" points="429,-140 429,-170 581,-170 581,-140 429,-140"/>
<text text-anchor="start" x="437" y="-158" font-family="Helvetica,sans-Serif" font-size="10.00">impact::orchestrator</text>
<text text-anchor="middle" x="505" y="-147" font-family="Helvetica,sans-Serif" font-size="10.00">::agentbase::InitializeTimeStep</text>
</a>
</g>
</g>
<!-- Node10&#45;&gt;Node12 -->
<g id="edge13" class="edge"><title>Node10&#45;&gt;Node12</title>
<path fill="none" stroke="midnightblue" d="M363.905,-155C380.293,-155 399.61,-155 418.577,-155"/>
<polygon fill="midnightblue" stroke="midnightblue" points="418.751,-158.5 428.751,-155 418.751,-151.5 418.751,-158.5"/>
</g>
<!-- Node13 -->
<g id="node13" class="node"><title>Node13</title>
<g id="a_node13"><a xlink:href="classopenfoamagent_a1e1196103d62248de06882a2f5f1adf4.html#a1e1196103d62248de06882a2f5f1adf4" target="_top" xlink:title="openfoamagent::Run">
<polygon fill="none" stroke="black" points="451.5,-101.5 451.5,-120.5 558.5,-120.5 558.5,-101.5 451.5,-101.5"/>
<text text-anchor="middle" x="505" y="-108.5" font-family="Helvetica,sans-Serif" font-size="10.00">openfoamagent::Run</text>
</a>
</g>
</g>
<!-- Node10&#45;&gt;Node13 -->
<g id="edge14" class="edge"><title>Node10&#45;&gt;Node13</title>
<path fill="none" stroke="midnightblue" d="M360.494,-145.386C378.62,-140.984 400.397,-135.71 420,-131 430.937,-128.372 442.678,-125.567 453.813,-122.914"/>
<polygon fill="midnightblue" stroke="midnightblue" points="454.911,-126.25 463.829,-120.529 453.29,-119.441 454.911,-126.25"/>
</g>
<!-- Node14 -->
<g id="node14" class="node"><title>Node14</title>
<g id="a_node14"><a xlink:href="classelmeragent_addc5d2e1dc0916e5c3d2e52d53261b4b.html#addc5d2e1dc0916e5c3d2e52d53261b4b" target="_top" xlink:title="elmeragent::Run">
<polygon fill="none" stroke="black" points="460.5,-238.5 460.5,-257.5 549.5,-257.5 549.5,-238.5 460.5,-238.5"/>
<text text-anchor="middle" x="505" y="-245.5" font-family="Helvetica,sans-Serif" font-size="10.00">elmeragent::Run</text>
</a>
</g>
</g>
<!-- Node10&#45;&gt;Node14 -->
<g id="edge15" class="edge"><title>Node10&#45;&gt;Node14</title>
<path fill="none" stroke="midnightblue" d="M331.077,-164.638C348.036,-180.319 383.972,-211.278 420,-228 429.48,-232.4 440.027,-235.887 450.356,-238.632"/>
<polygon fill="midnightblue" stroke="midnightblue" points="449.604,-242.051 460.151,-241.041 451.276,-235.254 449.604,-242.051"/>
</g>
<!-- Node15 -->
<g id="node15" class="node"><title>Node15</title>
<g id="a_node15"><a xlink:href="classfsicoupling_afb2eaee475b0c32cd5bf6d6fcc1eff05.html#afb2eaee475b0c32cd5bf6d6fcc1eff05" target="_top" xlink:title="fsicoupling::TransferDisplacements\lToFluid">
<polygon fill="none" stroke="black" points="420,-52 420,-82 590,-82 590,-52 420,-52"/>
<text text-anchor="start" x="428" y="-70" font-family="Helvetica,sans-Serif" font-size="10.00">fsicoupling::TransferDisplacements</text>
<text text-anchor="middle" x="505" y="-59" font-family="Helvetica,sans-Serif" font-size="10.00">ToFluid</text>
</a>
</g>
</g>
<!-- Node10&#45;&gt;Node15 -->
<g id="edge17" class="edge"><title>Node10&#45;&gt;Node15</title>
<path fill="none" stroke="midnightblue" d="M333.477,-145.438C351.64,-131.906 386.823,-107.136 420,-92 425.232,-89.613 430.751,-87.386 436.356,-85.3236"/>
<polygon fill="midnightblue" stroke="midnightblue" points="437.553,-88.6129 445.838,-82.009 435.243,-82.005 437.553,-88.6129"/>
</g>
<!-- Node20 -->
<g id="node20" class="node"><title>Node20</title>
<g id="a_node20"><a xlink:href="classfsicoupling_a052028ae6a11a37f3c3be19a78709d97.html#a052028ae6a11a37f3c3be19a78709d97" target="_top" xlink:title="fsicoupling::TransferLoads\lToStructures">
<polygon fill="none" stroke="black" points="439.5,-3 439.5,-33 570.5,-33 570.5,-3 439.5,-3"/>
<text text-anchor="start" x="447.5" y="-21" font-family="Helvetica,sans-Serif" font-size="10.00">fsicoupling::TransferLoads</text>
<text text-anchor="middle" x="505" y="-10" font-family="Helvetica,sans-Serif" font-size="10.00">ToStructures</text>
</a>
</g>
</g>
<!-- Node10&#45;&gt;Node20 -->
<g id="edge22" class="edge"><title>Node10&#45;&gt;Node20</title>
<path fill="none" stroke="midnightblue" d="M326.613,-145.479C339.942,-123.719 375.717,-70.0613 420,-42 423.199,-39.973 426.573,-38.113 430.057,-36.4069"/>
<polygon fill="midnightblue" stroke="midnightblue" points="431.76,-39.4812 439.494,-32.2407 428.933,-33.0775 431.76,-39.4812"/>
</g>
<!-- Node14&#45;&gt;Node7 -->
<g id="edge16" class="edge"><title>Node14&#45;&gt;Node7</title>
<path fill="none" stroke="midnightblue" d="M549.59,-256.718C573.877,-261.575 604.579,-267.716 631.589,-273.118"/>
<polygon fill="midnightblue" stroke="midnightblue" points="631.246,-276.618 641.738,-275.148 632.619,-269.754 631.246,-276.618"/>
</g>
<!-- Node16 -->
<g id="node16" class="node"><title>Node16</title>
<g id="a_node16"><a xlink:href="classopenfoamagent_a11af20e113d9cb3bad41a7504f10da2c.html#a11af20e113d9cb3bad41a7504f10da2c" target="_top" xlink:title="openfoamagent::Coordinates">
<polygon fill="none" stroke="black" points="626,-38.5 626,-57.5 768,-57.5 768,-38.5 626,-38.5"/>
<text text-anchor="middle" x="697" y="-45.5" font-family="Helvetica,sans-Serif" font-size="10.00">openfoamagent::Coordinates</text>
</a>
</g>
</g>
<!-- Node15&#45;&gt;Node16 -->
<g id="edge18" class="edge"><title>Node15&#45;&gt;Node16</title>
<path fill="none" stroke="midnightblue" d="M590.167,-58.5833C598.635,-57.7365 607.219,-56.8781 615.646,-56.0354"/>
<polygon fill="midnightblue" stroke="midnightblue" points="616.227,-59.4949 625.829,-55.0171 615.53,-52.5296 616.227,-59.4949"/>
</g>
<!-- Node17 -->
<g id="node17" class="node"><title>Node17</title>
<g id="a_node17"><a xlink:href="classelmeragent_a11af20e113d9cb3bad41a7504f10da2c.html#a11af20e113d9cb3bad41a7504f10da2c" target="_top" xlink:title="elmeragent::Coordinates">
<polygon fill="none" stroke="black" points="635.5,-0.5 635.5,-19.5 758.5,-19.5 758.5,-0.5 635.5,-0.5"/>
<text text-anchor="middle" x="697" y="-7.5" font-family="Helvetica,sans-Serif" font-size="10.00">elmeragent::Coordinates</text>
</a>
</g>
</g>
<!-- Node15&#45;&gt;Node17 -->
<g id="edge19" class="edge"><title>Node15&#45;&gt;Node17</title>
<path fill="none" stroke="midnightblue" d="M558.123,-51.9927C568.707,-48.8035 579.738,-45.3768 590,-42 606.159,-36.6827 609.778,-34.1212 626,-29 633.264,-26.7068 641.004,-24.4364 648.589,-22.3062"/>
<polygon fill="midnightblue" stroke="midnightblue" points="649.708,-25.6284 658.418,-19.5963 647.847,-18.8801 649.708,-25.6284"/>
</g>
<!-- Node18 -->
<g id="node18" class="node"><title>Node18</title>
<g id="a_node18"><a xlink:href="classopenfoamagent_a84634b1a9101359943436cfa37a4b88e.html#a84634b1a9101359943436cfa37a4b88e" target="_top" xlink:title="openfoamagent::PaneID">
<polygon fill="none" stroke="black" points="636,-114.5 636,-133.5 758,-133.5 758,-114.5 636,-114.5"/>
<text text-anchor="middle" x="697" y="-121.5" font-family="Helvetica,sans-Serif" font-size="10.00">openfoamagent::PaneID</text>
</a>
</g>
</g>
<!-- Node15&#45;&gt;Node18 -->
<g id="edge20" class="edge"><title>Node15&#45;&gt;Node18</title>
<path fill="none" stroke="midnightblue" d="M558.123,-82.0073C568.707,-85.1965 579.738,-88.6232 590,-92 606.159,-97.3173 609.778,-99.8788 626,-105 633.264,-107.293 641.004,-109.564 648.589,-111.694"/>
<polygon fill="midnightblue" stroke="midnightblue" points="647.847,-115.12 658.418,-114.404 649.708,-108.372 647.847,-115.12"/>
</g>
<!-- Node19 -->
<g id="node19" class="node"><title>Node19</title>
<g id="a_node19"><a xlink:href="classelmeragent_a84634b1a9101359943436cfa37a4b88e.html#a84634b1a9101359943436cfa37a4b88e" target="_top" xlink:title="elmeragent::PaneID">
<polygon fill="none" stroke="black" points="645,-76.5 645,-95.5 749,-95.5 749,-76.5 645,-76.5"/>
<text text-anchor="middle" x="697" y="-83.5" font-family="Helvetica,sans-Serif" font-size="10.00">elmeragent::PaneID</text>
</a>
</g>
</g>
<!-- Node15&#45;&gt;Node19 -->
<g id="edge21" class="edge"><title>Node15&#45;&gt;Node19</title>
<path fill="none" stroke="midnightblue" d="M590.167,-75.4167C605.183,-76.9183 620.565,-78.4565 634.786,-79.8786"/>
<polygon fill="midnightblue" stroke="midnightblue" points="634.615,-83.3789 644.914,-80.8914 635.312,-76.4136 634.615,-83.3789"/>
</g>
<!-- Node22 -->
<g id="node22" class="node"><title>Node22</title>
<g id="a_node22"><a xlink:href="classimpact_1_1orchestrator_1_1agentbase_a6068a393f390317c207fce14a60f9ef4.html#a6068a393f390317c207fce14a60f9ef4" target="_top" xlink:title="impact::orchestrator\l::agentbase::Finalize">
<polygon fill="none" stroke="black" points="451.5,-353 451.5,-383 558.5,-383 558.5,-353 451.5,-353"/>
<text text-anchor="start" x="459.5" y="-371" font-family="Helvetica,sans-Serif" font-size="10.00">impact::orchestrator</text>
<text text-anchor="middle" x="505" y="-360" font-family="Helvetica,sans-Serif" font-size="10.00">::agentbase::Finalize</text>
</a>
</g>
</g>
<!-- Node21&#45;&gt;Node22 -->
<g id="edge24" class="edge"><title>Node21&#45;&gt;Node22</title>
<path fill="none" stroke="midnightblue" d="M371.976,-365.836C393.436,-366.187 418.624,-366.6 441.214,-366.971"/>
<polygon fill="midnightblue" stroke="midnightblue" points="441.331,-370.473 451.387,-367.137 441.446,-363.474 441.331,-370.473"/>
</g>
<!-- Node23 -->
<g id="node23" class="node"><title>Node23</title>
<g id="a_node23"><a xlink:href="classelmeragent_a6068a393f390317c207fce14a60f9ef4.html#a6068a393f390317c207fce14a60f9ef4" target="_top" xlink:title="elmeragent::Finalize">
<polygon fill="none" stroke="black" points="453,-402.5 453,-421.5 557,-421.5 557,-402.5 453,-402.5"/>
<text text-anchor="middle" x="505" y="-409.5" font-family="Helvetica,sans-Serif" font-size="10.00">elmeragent::Finalize</text>
</a>
</g>
</g>
<!-- Node21&#45;&gt;Node23 -->
<g id="edge25" class="edge"><title>Node21&#45;&gt;Node23</title>
<path fill="none" stroke="midnightblue" d="M354.834,-374.52C373.928,-379.819 398.251,-386.447 420,-392 430.565,-394.698 441.907,-397.477 452.732,-400.073"/>
<polygon fill="midnightblue" stroke="midnightblue" points="451.952,-403.485 462.491,-402.399 453.575,-396.676 451.952,-403.485"/>
</g>
<!-- Node23&#45;&gt;Node7 -->
<g id="edge26" class="edge"><title>Node23&#45;&gt;Node7</title>
<path fill="none" stroke="midnightblue" d="M557.436,-407.505C569.112,-404.49 580.775,-399.663 590,-392 620.304,-366.828 597.116,-337.79 626,-311 628.173,-308.984 630.52,-307.129 632.992,-305.422"/>
<polygon fill="midnightblue" stroke="midnightblue" points="635.007,-308.295 641.806,-300.169 631.424,-302.282 635.007,-308.295"/>
</g>
<!-- Node23&#45;&gt;Node8 -->
<g id="edge27" class="edge"><title>Node23&#45;&gt;Node8</title>
<path fill="none" stroke="midnightblue" d="M555.507,-402.469C567.004,-399.639 579.071,-396.158 590,-392 615.687,-382.227 642.962,-367.449 663.411,-355.389"/>
<polygon fill="midnightblue" stroke="midnightblue" points="665.232,-358.378 672.014,-350.239 661.636,-352.372 665.232,-358.378"/>
</g>
</g>
</svg>
