<?xml version="1.0" encoding="UTF-8" standalone="no"?>
<!DOCTYPE svg PUBLIC "-//W3C//DTD SVG 1.1//EN"
 "http://www.w3.org/Graphics/SVG/1.1/DTD/svg11.dtd">
<!-- Generated by graphviz version 2.30.1 (20150305.2338)
 -->
<!-- Title: Driver Pages: 1 -->
<!--zoomable 409 -->
<svg id="main" version="1.1" xmlns="http://www.w3.org/2000/svg" xmlns:xlink="http://www.w3.org/1999/xlink" xml:space="preserve" onload="init(evt)">
<style type="text/css"><![CDATA[
.edge:hover path { stroke: red; }
.edge:hover polygon { stroke: red; fill: red; }
]]></style>
<script type="text/javascript"><![CDATA[
var edges = document.getElementsByTagName('g');
if (edges && edges.length) {
  for (var i=0;i<edges.length;i++) {
    if (edges[i].id.substr(0,4)=='edge') {
      edges[i].setAttribute('class','edge');
    }
  }
}
]]></script>
        <defs>
                <circle id="rim" cx="0" cy="0" r="7"/>
                <circle id="rim2" cx="0" cy="0" r="3.5"/>
                <g id="zoomPlus">
                        <use xlink:href="#rim" fill="#404040">
                                <set attributeName="fill" to="#808080" begin="zoomplus.mouseover" end="zoomplus.mouseout"/>
                        </use>
                        <path d="M-4,0h8M0,-4v8" fill="none" stroke="white" stroke-width="1.5" pointer-events="none"/>
                </g>
                <g id="zoomMin">
                        <use xlink:href="#rim" fill="#404040">
                                <set attributeName="fill" to="#808080" begin="zoomminus.mouseover" end="zoomminus.mouseout"/>
                        </use>
                        <path d="M-4,0h8" fill="none" stroke="white" stroke-width="1.5" pointer-events="none"/>
                </g>
                <g id="dirArrow">
                        <path fill="none" stroke="white" stroke-width="1.5" d="M0,-3.0v7 M-2.5,-0.5L0,-3.0L2.5,-0.5"/>
                </g>
               <g id="resetDef">
                       <use xlink:href="#rim2" fill="#404040">
                               <set attributeName="fill" to="#808080" begin="reset.mouseover" end="reset.mouseout"/>
                       </use>
               </g>
        </defs>

<script type="text/javascript">
var viewWidth = 574;
var viewHeight = 409;
var sectionId = 'dynsection-0';
</script>
<script xlink:href="svgpan.js"/>
<svg id="graph" class="graph">
<g id="viewport">
<title>Driver</title>
<!-- Node1 -->
<g id="node1" class="node"><title>Node1</title>
<polygon fill="#bfbfbf" stroke="black" points="0.5,-132.5 0.5,-151.5 43.5,-151.5 43.5,-132.5 0.5,-132.5"/>
<text text-anchor="middle" x="22" y="-139.5" font-family="Helvetica,sans-Serif" font-size="10.00">Driver</text>
</g>
<!-- Node2 -->
<g id="node2" class="node"><title>Node2</title>
<g id="a_node2"><a xlink:href="classIRAD_1_1Global_1_1GlobalObj_a0cc0ea8bdd46b7c84dcd33965bb40357.html#a0cc0ea8bdd46b7c84dcd33965bb40357" target="_top" xlink:title="IRAD::Global::GlobalObj\l::ErrOut">
<polygon fill="none" stroke="black" points="270,-291 270,-321 394,-321 394,-291 270,-291"/>
<text text-anchor="start" x="278" y="-309" font-family="Helvetica,sans-Serif" font-size="10.00">IRAD::Global::GlobalObj</text>
<text text-anchor="middle" x="332" y="-298" font-family="Helvetica,sans-Serif" font-size="10.00">::ErrOut</text>
</a>
</g>
</g>
<!-- Node1&#45;&gt;Node2 -->
<g id="edge1" class="edge"><title>Node1&#45;&gt;Node2</title>
<path fill="none" stroke="midnightblue" d="M28.3231,-151.93C37.1207,-167.464 56.1192,-197.534 80,-215 133.977,-254.476 206.832,-278.36 260.145,-291.688"/>
<polygon fill="midnightblue" stroke="midnightblue" points="259.319,-295.089 269.863,-294.055 260.976,-288.287 259.319,-295.089"/>
</g>
<!-- Node3 -->
<g id="node3" class="node"><title>Node3</title>
<g id="a_node3"><a xlink:href="classIRAD_1_1Global_1_1Program_a6068a393f390317c207fce14a60f9ef4.html#a6068a393f390317c207fce14a60f9ef4" target="_top" xlink:title="Finalizes the global object, and it&#39;s profiler object. ">
<polygon fill="none" stroke="black" points="92,-322 92,-352 210,-352 210,-322 92,-322"/>
<text text-anchor="start" x="100" y="-340" font-family="Helvetica,sans-Serif" font-size="10.00">IRAD::Global::Program</text>
<text text-anchor="middle" x="151" y="-329" font-family="Helvetica,sans-Serif" font-size="10.00">::Finalize</text>
</a>
</g>
</g>
<!-- Node1&#45;&gt;Node3 -->
<g id="edge2" class="edge"><title>Node1&#45;&gt;Node3</title>
<path fill="none" stroke="midnightblue" d="M24.9498,-151.509C30.2789,-175.698 46.9463,-240.721 80,-284 89.5469,-296.5 102.771,-307.535 115.156,-316.253"/>
<polygon fill="midnightblue" stroke="midnightblue" points="113.293,-319.219 123.541,-321.909 117.208,-313.416 113.293,-319.219"/>
</g>
<!-- Node7 -->
<g id="node7" class="node"><title>Node7</title>
<g id="a_node7"><a xlink:href="classElmerFoamFSI_1_1SerialDriverProgram_aa07151f89ba8e36b3783651c8edf8337.html#aa07151f89ba8e36b3783651c8edf8337" target="_top" xlink:title="Initializes native data structures from commandline args. ">
<polygon fill="none" stroke="black" points="81,-176 81,-206 221,-206 221,-176 81,-176"/>
<text text-anchor="start" x="89" y="-194" font-family="Helvetica,sans-Serif" font-size="10.00">ElmerFoamFSI::SerialDriver</text>
<text text-anchor="middle" x="151" y="-183" font-family="Helvetica,sans-Serif" font-size="10.00">Program::Initialize</text>
</a>
</g>
</g>
<!-- Node1&#45;&gt;Node7 -->
<g id="edge6" class="edge"><title>Node1&#45;&gt;Node7</title>
<path fill="none" stroke="midnightblue" d="M43.7331,-151.056C54.4945,-155.673 67.8908,-161.293 80,-166 85.4707,-168.127 91.2072,-170.287 96.9422,-172.402"/>
<polygon fill="midnightblue" stroke="midnightblue" points="95.9516,-175.766 106.546,-175.903 98.3497,-169.189 95.9516,-175.766"/>
</g>
<!-- Node14 -->
<g id="node14" class="node"><title>Node14</title>
<g id="a_node14"><a xlink:href="classIRAD_1_1Global_1_1GlobalObj_ab41e240910a841a66ce9fba79e07148b.html#ab41e240910a841a66ce9fba79e07148b" target="_top" xlink:title="Creates the final profiling report on the specified stream. ">
<polygon fill="none" stroke="black" points="89,-127 89,-157 213,-157 213,-127 89,-127"/>
<text text-anchor="start" x="97" y="-145" font-family="Helvetica,sans-Serif" font-size="10.00">IRAD::Global::GlobalObj</text>
<text text-anchor="middle" x="151" y="-134" font-family="Helvetica,sans-Serif" font-size="10.00">::Report</text>
</a>
</g>
</g>
<!-- Node1&#45;&gt;Node14 -->
<g id="edge14" class="edge"><title>Node1&#45;&gt;Node14</title>
<path fill="none" stroke="midnightblue" d="M43.6874,-142C53.504,-142 65.8757,-142 78.6781,-142"/>
<polygon fill="midnightblue" stroke="midnightblue" points="78.9971,-145.5 88.9971,-142 78.9971,-138.5 78.9971,-145.5"/>
</g>
<!-- Node15 -->
<g id="node15" class="node"><title>Node15</title>
<g id="a_node15"><a xlink:href="classIRAD_1_1Global_1_1Program_afbfb74d751085fbf8cffe83b9716b2dd.html#afbfb74d751085fbf8cffe83b9716b2dd" target="_top" xlink:title="IRAD::Global::Program::Run">
<polygon fill="none" stroke="black" points="80,-88.5 80,-107.5 222,-107.5 222,-88.5 80,-88.5"/>
<text text-anchor="middle" x="151" y="-95.5" font-family="Helvetica,sans-Serif" font-size="10.00">IRAD::Global::Program::Run</text>
</a>
</g>
</g>
<!-- Node1&#45;&gt;Node15 -->
<g id="edge15" class="edge"><title>Node1&#45;&gt;Node15</title>
<path fill="none" stroke="midnightblue" d="M42.7571,-132.47C53.596,-127.463 67.3642,-121.458 80,-117 86.7762,-114.609 94.0095,-112.34 101.159,-110.258"/>
<polygon fill="midnightblue" stroke="midnightblue" points="102.131,-113.62 110.807,-107.539 100.232,-106.883 102.131,-113.62"/>
</g>
<!-- Node12 -->
<g id="node12" class="node"><title>Node12</title>
<g id="a_node12"><a xlink:href="classIRAD_1_1Global_1_1GlobalObj_a4604cffc6d9588606aa2a5866b026226.html#a4604cffc6d9588606aa2a5866b026226" target="_top" xlink:title="IRAD::Global::GlobalObj\l\&lt; StackType, int, ProfilerType\l \&gt;::StdOut">
<polygon fill="none" stroke="black" points="258,-0.5 258,-41.5 406,-41.5 406,-0.5 258,-0.5"/>
<text text-anchor="start" x="266" y="-29.5" font-family="Helvetica,sans-Serif" font-size="10.00">IRAD::Global::GlobalObj</text>
<text text-anchor="start" x="266" y="-18.5" font-family="Helvetica,sans-Serif" font-size="10.00">&lt; StackType, int, ProfilerType</text>
<text text-anchor="middle" x="332" y="-7.5" font-family="Helvetica,sans-Serif" font-size="10.00"> &gt;::StdOut</text>
</a>
</g>
</g>
<!-- Node1&#45;&gt;Node12 -->
<g id="edge16" class="edge"><title>Node1&#45;&gt;Node12</title>
<path fill="none" stroke="midnightblue" d="M29.0358,-132.195C38.2287,-118.132 57.1092,-92.4497 80,-79 94.6484,-70.3932 180.336,-51.5698 247.572,-37.6903"/>
<polygon fill="midnightblue" stroke="midnightblue" points="248.678,-41.0362 257.768,-35.594 247.268,-34.1796 248.678,-41.0362"/>
</g>
<!-- Node16 -->
<g id="node16" class="node"><title>Node16</title>
<g id="a_node16"><a xlink:href="classElmerFoamFSI_1_1SerialDriverProgram_ab17757bfd183c39a2c228c852d2020f1.html#ab17757bfd183c39a2c228c852d2020f1" target="_top" xlink:title="Returns verbosity level. ">
<polygon fill="none" stroke="black" points="81,-1 81,-31 221,-31 221,-1 81,-1"/>
<text text-anchor="start" x="89" y="-19" font-family="Helvetica,sans-Serif" font-size="10.00">ElmerFoamFSI::SerialDriver</text>
<text text-anchor="middle" x="151" y="-8" font-family="Helvetica,sans-Serif" font-size="10.00">Program::VerbLevel</text>
</a>
</g>
</g>
<!-- Node1&#45;&gt;Node16 -->
<g id="edge17" class="edge"><title>Node1&#45;&gt;Node16</title>
<path fill="none" stroke="midnightblue" d="M26.3262,-132.49C33.385,-113.577 51.5824,-70.9211 80,-46 84.3941,-42.1465 89.3578,-38.7294 94.5634,-35.7127"/>
<polygon fill="midnightblue" stroke="midnightblue" points="96.2783,-38.7653 103.494,-31.0078 93.0157,-32.5721 96.2783,-38.7653"/>
</g>
<!-- Node4 -->
<g id="node4" class="node"><title>Node4</title>
<g id="a_node4"><a xlink:href="classIRAD_1_1Global_1_1GlobalObj_a6068a393f390317c207fce14a60f9ef4.html#a6068a393f390317c207fce14a60f9ef4" target="_top" xlink:title="Finalizes the global object, and it&#39;s profiler object. ">
<polygon fill="none" stroke="black" points="258,-340.5 258,-381.5 406,-381.5 406,-340.5 258,-340.5"/>
<text text-anchor="start" x="266" y="-369.5" font-family="Helvetica,sans-Serif" font-size="10.00">IRAD::Global::GlobalObj</text>
<text text-anchor="start" x="266" y="-358.5" font-family="Helvetica,sans-Serif" font-size="10.00">&lt; StackType, int, ProfilerType</text>
<text text-anchor="middle" x="332" y="-347.5" font-family="Helvetica,sans-Serif" font-size="10.00"> &gt;::Finalize</text>
</a>
</g>
</g>
<!-- Node3&#45;&gt;Node4 -->
<g id="edge3" class="edge"><title>Node3&#45;&gt;Node4</title>
<path fill="none" stroke="midnightblue" d="M210.116,-344.792C222.118,-346.401 234.982,-348.126 247.68,-349.829"/>
<polygon fill="midnightblue" stroke="midnightblue" points="247.431,-353.326 257.808,-351.186 248.361,-346.389 247.431,-353.326"/>
</g>
<!-- Node5 -->
<g id="node5" class="node"><title>Node5</title>
<g id="a_node5"><a xlink:href="classIRAD_1_1Profiler_1_1ProfilerObj_aaacf18af7288392a800c7c449830fd06.html#aaacf18af7288392a800c7c449830fd06" target="_top" xlink:title="Ready to finalize? ">
<polygon fill="none" stroke="black" points="446.5,-321 446.5,-351 561.5,-351 561.5,-321 446.5,-321"/>
<text text-anchor="start" x="454.5" y="-339" font-family="Helvetica,sans-Serif" font-size="10.00">IRAD::Profiler::Profiler</text>
<text text-anchor="middle" x="504" y="-328" font-family="Helvetica,sans-Serif" font-size="10.00">Obj::FinalizeReady</text>
</a>
</g>
</g>
<!-- Node4&#45;&gt;Node5 -->
<g id="edge4" class="edge"><title>Node4&#45;&gt;Node5</title>
<path fill="none" stroke="midnightblue" d="M406.082,-350.253C416.101,-348.779 426.344,-347.273 436.242,-345.817"/>
<polygon fill="midnightblue" stroke="midnightblue" points="437.023,-349.24 446.407,-344.322 436.004,-342.315 437.023,-349.24"/>
</g>
<!-- Node6 -->
<g id="node6" class="node"><title>Node6</title>
<g id="a_node6"><a xlink:href="classIRAD_1_1Profiler_1_1ProfilerObj_a47a17e5fa173afb5e3259c913ccee89c.html#a47a17e5fa173afb5e3259c913ccee89c" target="_top" xlink:title="Shut down profiler. ">
<polygon fill="none" stroke="black" points="446.5,-370 446.5,-400 561.5,-400 561.5,-370 446.5,-370"/>
<text text-anchor="start" x="454.5" y="-388" font-family="Helvetica,sans-Serif" font-size="10.00">IRAD::Profiler::Profiler</text>
<text text-anchor="middle" x="504" y="-377" font-family="Helvetica,sans-Serif" font-size="10.00">Obj::Finalize</text>
</a>
</g>
</g>
<!-- Node4&#45;&gt;Node6 -->
<g id="edge5" class="edge"><title>Node4&#45;&gt;Node6</title>
<path fill="none" stroke="midnightblue" d="M406.082,-371.317C416.101,-372.732 426.344,-374.178 436.242,-375.575"/>
<polygon fill="midnightblue" stroke="midnightblue" points="436.016,-379.078 446.407,-377.01 436.995,-372.147 436.016,-379.078"/>
</g>
<!-- Node7&#45;&gt;Node2 -->
<g id="edge7" class="edge"><title>Node7&#45;&gt;Node2</title>
<path fill="none" stroke="midnightblue" d="M168.258,-206.118C192.882,-228.784 238.797,-270.083 258,-281 261.668,-283.086 265.539,-285.036 269.507,-286.854"/>
<polygon fill="midnightblue" stroke="midnightblue" points="268.321,-290.153 278.893,-290.854 271.066,-283.714 268.321,-290.153"/>
</g>
<!-- Node8 -->
<g id="node8" class="node"><title>Node8</title>
<g id="a_node8"><a xlink:href="classIRAD_1_1Global_1_1Program_aa07151f89ba8e36b3783651c8edf8337.html#aa07151f89ba8e36b3783651c8edf8337" target="_top" xlink:title="IRAD::Global::Program\l::Initialize">
<polygon fill="none" stroke="black" points="273,-61 273,-91 391,-91 391,-61 273,-61"/>
<text text-anchor="start" x="281" y="-79" font-family="Helvetica,sans-Serif" font-size="10.00">IRAD::Global::Program</text>
<text text-anchor="middle" x="332" y="-68" font-family="Helvetica,sans-Serif" font-size="10.00">::Initialize</text>
</a>
</g>
</g>
<!-- Node7&#45;&gt;Node8 -->
<g id="edge8" class="edge"><title>Node7&#45;&gt;Node8</title>
<path fill="none" stroke="midnightblue" d="M206.897,-175.888C212.316,-173.111 217.475,-169.842 222,-166 247.172,-144.624 232.688,-122.211 258,-101 260.021,-99.3061 262.164,-97.7248 264.396,-96.2489"/>
<polygon fill="midnightblue" stroke="midnightblue" points="266.475,-99.0903 273.39,-91.0632 262.979,-93.026 266.475,-99.0903"/>
</g>
<!-- Node9 -->
<g id="node9" class="node"><title>Node9</title>
<g id="a_node9"><a xlink:href="classIRAD_1_1Global_1_1GlobalObj_ab0a553458dd5d904746a77d53bbd5592.html#ab0a553458dd5d904746a77d53bbd5592" target="_top" xlink:title="Sets the level of debugging. ">
<polygon fill="none" stroke="black" points="258,-230.5 258,-271.5 406,-271.5 406,-230.5 258,-230.5"/>
<text text-anchor="start" x="266" y="-259.5" font-family="Helvetica,sans-Serif" font-size="10.00">IRAD::Global::GlobalObj</text>
<text text-anchor="start" x="266" y="-248.5" font-family="Helvetica,sans-Serif" font-size="10.00">&lt; StackType, int, ProfilerType</text>
<text text-anchor="middle" x="332" y="-237.5" font-family="Helvetica,sans-Serif" font-size="10.00"> &gt;::SetDebugLevel</text>
</a>
</g>
</g>
<!-- Node7&#45;&gt;Node9 -->
<g id="edge9" class="edge"><title>Node7&#45;&gt;Node9</title>
<path fill="none" stroke="midnightblue" d="M197.169,-206.141C216.21,-212.523 238.831,-220.106 260.008,-227.204"/>
<polygon fill="midnightblue" stroke="midnightblue" points="259.024,-230.565 269.617,-230.425 261.248,-223.928 259.024,-230.565"/>
</g>
<!-- Node10 -->
<g id="node10" class="node"><title>Node10</title>
<g id="a_node10"><a xlink:href="classIRAD_1_1Global_1_1GlobalObj_a217c7c7de551d0db973598a39b5e6486.html#a217c7c7de551d0db973598a39b5e6486" target="_top" xlink:title="Sets the debug stream object. ">
<polygon fill="none" stroke="black" points="258,-170.5 258,-211.5 406,-211.5 406,-170.5 258,-170.5"/>
<text text-anchor="start" x="266" y="-199.5" font-family="Helvetica,sans-Serif" font-size="10.00">IRAD::Global::GlobalObj</text>
<text text-anchor="start" x="266" y="-188.5" font-family="Helvetica,sans-Serif" font-size="10.00">&lt; StackType, int, ProfilerType</text>
<text text-anchor="middle" x="332" y="-177.5" font-family="Helvetica,sans-Serif" font-size="10.00"> &gt;::SetDebugStream</text>
</a>
</g>
</g>
<!-- Node7&#45;&gt;Node10 -->
<g id="edge10" class="edge"><title>Node7&#45;&gt;Node10</title>
<path fill="none" stroke="midnightblue" d="M221.206,-191C229.927,-191 238.918,-191 247.826,-191"/>
<polygon fill="midnightblue" stroke="midnightblue" points="247.829,-194.5 257.829,-191 247.829,-187.5 247.829,-194.5"/>
</g>
<!-- Node11 -->
<g id="node11" class="node"><title>Node11</title>
<g id="a_node11"><a xlink:href="classIRAD_1_1Global_1_1GlobalObj_a649aae23edb1e3e3a8a40acac7c50776.html#a649aae23edb1e3e3a8a40acac7c50776" target="_top" xlink:title="IRAD::Global::GlobalObj\l\&lt; StackType, int, ProfilerType\l \&gt;::SetVerbLevel">
<polygon fill="none" stroke="black" points="258,-110.5 258,-151.5 406,-151.5 406,-110.5 258,-110.5"/>
<text text-anchor="start" x="266" y="-139.5" font-family="Helvetica,sans-Serif" font-size="10.00">IRAD::Global::GlobalObj</text>
<text text-anchor="start" x="266" y="-128.5" font-family="Helvetica,sans-Serif" font-size="10.00">&lt; StackType, int, ProfilerType</text>
<text text-anchor="middle" x="332" y="-117.5" font-family="Helvetica,sans-Serif" font-size="10.00"> &gt;::SetVerbLevel</text>
</a>
</g>
</g>
<!-- Node7&#45;&gt;Node11 -->
<g id="edge11" class="edge"><title>Node7&#45;&gt;Node11</title>
<path fill="none" stroke="midnightblue" d="M197.169,-175.859C216.21,-169.477 238.831,-161.894 260.008,-154.796"/>
<polygon fill="midnightblue" stroke="midnightblue" points="261.248,-158.072 269.617,-151.575 259.024,-151.435 261.248,-158.072"/>
</g>
<!-- Node7&#45;&gt;Node12 -->
<g id="edge12" class="edge"><title>Node7&#45;&gt;Node12</title>
<path fill="none" stroke="midnightblue" d="M209.092,-175.99C213.837,-173.206 218.244,-169.908 222,-166 259.112,-127.386 221.803,-90.4731 258,-51 258.912,-50.0059 259.861,-49.0439 260.844,-48.113"/>
<polygon fill="midnightblue" stroke="midnightblue" points="263.376,-50.5679 268.967,-41.5685 258.984,-45.1169 263.376,-50.5679"/>
</g>
<!-- Node13 -->
<g id="node13" class="node"><title>Node13</title>
<g id="a_node13"><a xlink:href="classIRAD_1_1Global_1_1GlobalObj_a384c5879386af6eaf5525b9cc755a0e4.html#a384c5879386af6eaf5525b9cc755a0e4" target="_top" xlink:title="IRAD::Global::GlobalObj\l::Name">
<polygon fill="none" stroke="black" points="442,-6 442,-36 566,-36 566,-6 442,-6"/>
<text text-anchor="start" x="450" y="-24" font-family="Helvetica,sans-Serif" font-size="10.00">IRAD::Global::GlobalObj</text>
<text text-anchor="middle" x="504" y="-13" font-family="Helvetica,sans-Serif" font-size="10.00">::Name</text>
</a>
</g>
</g>
<!-- Node12&#45;&gt;Node13 -->
<g id="edge13" class="edge"><title>Node12&#45;&gt;Node13</title>
<path fill="none" stroke="midnightblue" d="M406.082,-21C414.591,-21 423.263,-21 431.747,-21"/>
<polygon fill="midnightblue" stroke="midnightblue" points="431.979,-24.5001 441.979,-21 431.979,-17.5001 431.979,-24.5001"/>
</g>
</g>
</svg>
        <g id="navigator" transform="translate(0 0)" fill="#404254">
                <rect fill="#f2f5e9" fill-opacity="0.5" stroke="#606060" stroke-width=".5" x="0" y="0" width="60" height="60"/>
                <use id="zoomplus" xlink:href="#zoomPlus" x="17" y="9" onmousedown="handleZoom(evt,'in')"/>
                <use id="zoomminus" xlink:href="#zoomMin" x="42" y="9" onmousedown="handleZoom(evt,'out')"/>
                <use id="reset" xlink:href="#resetDef" x="30" y="36" onmousedown="handleReset()"/>
                <g id="arrowUp" xlink:href="#dirArrow" transform="translate(30 24)" onmousedown="handlePan(0,-1)">
                  <use xlink:href="#rim" fill="#404040">
                        <set attributeName="fill" to="#808080" begin="arrowUp.mouseover" end="arrowUp.mouseout"/>
                  </use>
                  <path fill="none" stroke="white" stroke-width="1.5" d="M0,-3.0v7 M-2.5,-0.5L0,-3.0L2.5,-0.5"/>
                </g>
                <g id="arrowRight" xlink:href="#dirArrow" transform="rotate(90) translate(36 -43)" onmousedown="handlePan(1,0)">
                  <use xlink:href="#rim" fill="#404040">
                        <set attributeName="fill" to="#808080" begin="arrowRight.mouseover" end="arrowRight.mouseout"/>
                  </use>
                  <path fill="none" stroke="white" stroke-width="1.5" d="M0,-3.0v7 M-2.5,-0.5L0,-3.0L2.5,-0.5"/>
                </g>
                <g id="arrowDown" xlink:href="#dirArrow" transform="rotate(180) translate(-30 -48)" onmousedown="handlePan(0,1)">
                  <use xlink:href="#rim" fill="#404040">
                        <set attributeName="fill" to="#808080" begin="arrowDown.mouseover" end="arrowDown.mouseout"/>
                  </use>
                  <path fill="none" stroke="white" stroke-width="1.5" d="M0,-3.0v7 M-2.5,-0.5L0,-3.0L2.5,-0.5"/>
                </g>
                <g id="arrowLeft" xlink:href="#dirArrow" transform="rotate(270) translate(-36 17)" onmousedown="handlePan(-1,0)">
                  <use xlink:href="#rim" fill="#404040">
                        <set attributeName="fill" to="#808080" begin="arrowLeft.mouseover" end="arrowLeft.mouseout"/>
                  </use>
                  <path fill="none" stroke="white" stroke-width="1.5" d="M0,-3.0v7 M-2.5,-0.5L0,-3.0L2.5,-0.5"/>
                </g>
        </g>
        <svg viewBox="0 0 15 15" width="100%" height="30px" preserveAspectRatio="xMaxYMin meet">
         <g id="arrow_out" transform="scale(0.3 0.3)">
          <a xlink:href="namespaceElmerFoamFSI_1_1ExampleProgram_a51e123c8b200fe0d466698ff7429bba6_a51e123c8b200fe0d466698ff7429bba6_cgraph_org.svg" target="_base">
           <rect id="button" ry="5" rx="5" y="6" x="6" height="38" width="38"
                fill="#f2f5e9" fill-opacity="0.5" stroke="#606060" stroke-width="1.0"/>
           <path id="arrow"
             d="M 11.500037,31.436501 C 11.940474,20.09759 22.043105,11.32322 32.158766,21.979434 L 37.068811,17.246167 C 37.068811,17.246167 37.088388,32 37.088388,32 L 22.160133,31.978069 C 22.160133,31.978069 26.997745,27.140456 26.997745,27.140456 C 18.528582,18.264221 13.291696,25.230495 11.500037,31.436501 z"
             style="fill:#404040;"/>
          </a>
         </g>
        </svg>
</svg>
