<?xml version="1.0" encoding="UTF-8" standalone="no"?>
<!DOCTYPE svg PUBLIC "-//W3C//DTD SVG 1.1//EN"
 "http://www.w3.org/Graphics/SVG/1.1/DTD/svg11.dtd">
<!-- Generated by graphviz version 2.30.1 (20150305.2338)
 -->
<!-- Title: Excluded Pages: 1 -->
<svg width="248pt" height="28pt"
 viewBox="0.00 0.00 248.00 28.00" xmlns="http://www.w3.org/2000/svg" xmlns:xlink="http://www.w3.org/1999/xlink">
<g id="graph0" class="graph" transform="scale(1 1) rotate(0) translate(4 24)">
<title>Excluded</title>
<!-- Node1 -->
<g id="node1" class="node"><title>Node1</title>
<polygon fill="#bfbfbf" stroke="black" points="0.5,-0.5 0.5,-19.5 57.5,-19.5 57.5,-0.5 0.5,-0.5"/>
<text text-anchor="middle" x="29" y="-7.5" font-family="Helvetica,sans-Serif" font-size="10.00">Excluded</text>
</g>
<!-- Node2 -->
<g id="node2" class="node"><title>Node2</title>
<g id="a_node2"><a xlink:href="namespaceElmerModuleDriver_ab4c303c5755207acda2729884495664e.html#ab4c303c5755207acda2729884495664e" target="_top" xlink:title="Creates a new project from an ElmerModuleDriver base. ">
<polygon fill="none" stroke="black" points="94.5,-0.5 94.5,-19.5 165.5,-19.5 165.5,-0.5 94.5,-0.5"/>
<text text-anchor="middle" x="130" y="-7.5" font-family="Helvetica,sans-Serif" font-size="10.00">MakeProject</text>
</a>
</g>
</g>
<!-- Node1&#45;&gt;Node2 -->
<g id="edge1" class="edge"><title>Node1&#45;&gt;Node2</title>
<path fill="none" stroke="midnightblue" d="M67.8052,-10C76.459,-10 85.6187,-10 94.142,-10"/>
<polygon fill="midnightblue" stroke="midnightblue" points="67.5771,-6.5001 57.577,-10 67.577,-13.5001 67.5771,-6.5001"/>
</g>
<!-- Node3 -->
<g id="node3" class="node"><title>Node3</title>
<g id="a_node3"><a xlink:href="Third__Party__Modules_2ElmerFSI_2trunk_2src_2MakeProject_8C_a0ddf1224851353fc92bfbff6f499fa97.html#a0ddf1224851353fc92bfbff6f499fa97" target="_top" xlink:title="main">
<polygon fill="none" stroke="black" points="202,-0.5 202,-19.5 240,-19.5 240,-0.5 202,-0.5"/>
<text text-anchor="middle" x="221" y="-7.5" font-family="Helvetica,sans-Serif" font-size="10.00">main</text>
</a>
</g>
</g>
<!-- Node2&#45;&gt;Node3 -->
<g id="edge2" class="edge"><title>Node2&#45;&gt;Node3</title>
<path fill="none" stroke="midnightblue" d="M175.909,-10C185.046,-10 194.161,-10 201.711,-10"/>
<polygon fill="midnightblue" stroke="midnightblue" points="175.665,-6.5001 165.665,-10 175.665,-13.5001 175.665,-6.5001"/>
</g>
</g>
</svg>
