<?xml version="1.0" encoding="UTF-8" standalone="no"?>
<!DOCTYPE svg PUBLIC "-//W3C//DTD SVG 1.1//EN"
 "http://www.w3.org/Graphics/SVG/1.1/DTD/svg11.dtd">
<!-- Generated by graphviz version 2.30.1 (20150305.2338)
 -->
<!-- Title: F2 Pages: 1 -->
<svg width="604pt" height="110pt"
 viewBox="0.00 0.00 604.00 110.00" xmlns="http://www.w3.org/2000/svg" xmlns:xlink="http://www.w3.org/1999/xlink">
<g id="graph0" class="graph" transform="scale(1 1) rotate(0) translate(4 106)">
<title>F2</title>
<!-- Node1 -->
<g id="node1" class="node"><title>Node1</title>
<polygon fill="#bfbfbf" stroke="black" points="0.5,-41.5 0.5,-60.5 29.5,-60.5 29.5,-41.5 0.5,-41.5"/>
<text text-anchor="middle" x="15" y="-48.5" font-family="Helvetica,sans-Serif" font-size="10.00">F2</text>
</g>
<!-- Node2 -->
<g id="node2" class="node"><title>Node2</title>
<g id="a_node2"><a xlink:href="classElmerModuleDriver_1_1TestingObject_a7de28a366b07117111ce7c1e9515a434.html#a7de28a366b07117111ce7c1e9515a434" target="_top" xlink:title="Test for ElmerModuleDriver::MidPointQuadrature. ">
<polygon fill="none" stroke="black" points="68.5,-60.5 68.5,-101.5 181.5,-101.5 181.5,-60.5 68.5,-60.5"/>
<text text-anchor="start" x="76.5" y="-89.5" font-family="Helvetica,sans-Serif" font-size="10.00">ElmerModuleDriver::</text>
<text text-anchor="start" x="76.5" y="-78.5" font-family="Helvetica,sans-Serif" font-size="10.00">TestingObject::Test</text>
<text text-anchor="middle" x="125" y="-67.5" font-family="Helvetica,sans-Serif" font-size="10.00">__MidPointQuadrature</text>
</a>
</g>
</g>
<!-- Node1&#45;&gt;Node2 -->
<g id="edge1" class="edge"><title>Node1&#45;&gt;Node2</title>
<path fill="none" stroke="midnightblue" d="M39.314,-57.4761C47.9294,-59.8693 58.1046,-62.6957 68.3589,-65.5441"/>
<polygon fill="midnightblue" stroke="midnightblue" points="40.2502,-54.1037 29.6783,-54.7995 38.3767,-60.8483 40.2502,-54.1037"/>
</g>
<!-- Node8 -->
<g id="node8" class="node"><title>Node8</title>
<g id="a_node8"><a xlink:href="classElmerModuleDriver_1_1TestingObject_a7928083cb5586c2b361e1d29a8dc2b54.html#a7928083cb5586c2b361e1d29a8dc2b54" target="_top" xlink:title="Test for ElmerModuleDriver::TrapezoidQuadrature. ">
<polygon fill="none" stroke="black" points="66,-0.5 66,-41.5 184,-41.5 184,-0.5 66,-0.5"/>
<text text-anchor="start" x="74" y="-29.5" font-family="Helvetica,sans-Serif" font-size="10.00">ElmerModuleDriver::</text>
<text text-anchor="start" x="74" y="-18.5" font-family="Helvetica,sans-Serif" font-size="10.00">TestingObject::Test</text>
<text text-anchor="middle" x="125" y="-7.5" font-family="Helvetica,sans-Serif" font-size="10.00">__TrapezoidQuadrature</text>
</a>
</g>
</g>
<!-- Node1&#45;&gt;Node8 -->
<g id="edge8" class="edge"><title>Node1&#45;&gt;Node8</title>
<path fill="none" stroke="midnightblue" d="M39.5209,-44.4664C47.4015,-42.2774 56.57,-39.7306 65.9026,-37.1382"/>
<polygon fill="midnightblue" stroke="midnightblue" points="38.3767,-41.1517 29.6783,-47.2005 40.2502,-47.8963 38.3767,-41.1517"/>
</g>
<!-- Node3 -->
<g id="node3" class="node"><title>Node3</title>
<g id="a_node3"><a xlink:href="classElmerModuleDriver_1_1TestingObject_a046f7ab06db0acf616b0d2bf3d3146aa.html#a046f7ab06db0acf616b0d2bf3d3146aa" target="_top" xlink:title="ElmerModuleDriver::\lTestingObject::Process">
<polygon fill="none" stroke="black" points="221.5,-60 221.5,-90 340.5,-90 340.5,-60 221.5,-60"/>
<text text-anchor="start" x="229.5" y="-78" font-family="Helvetica,sans-Serif" font-size="10.00">ElmerModuleDriver::</text>
<text text-anchor="middle" x="281" y="-67" font-family="Helvetica,sans-Serif" font-size="10.00">TestingObject::Process</text>
</a>
</g>
</g>
<!-- Node2&#45;&gt;Node3 -->
<g id="edge2" class="edge"><title>Node2&#45;&gt;Node3</title>
<path fill="none" stroke="midnightblue" d="M191.739,-78.4387C201.585,-78.0551 211.682,-77.6617 221.367,-77.2844"/>
<polygon fill="midnightblue" stroke="midnightblue" points="191.454,-74.9471 181.598,-78.8339 191.726,-81.9418 191.454,-74.9471"/>
</g>
<!-- Node6 -->
<g id="node6" class="node"><title>Node6</title>
<g id="a_node6"><a xlink:href="classElmerModuleDriver_1_1TestingObject_af1f07f14b9af7708e4264bb38937eed2.html#af1f07f14b9af7708e4264bb38937eed2" target="_top" xlink:title="Runs a test specified by name. ">
<polygon fill="none" stroke="black" points="220.5,-11 220.5,-41 341.5,-41 341.5,-11 220.5,-11"/>
<text text-anchor="start" x="228.5" y="-29" font-family="Helvetica,sans-Serif" font-size="10.00">ElmerModuleDriver::</text>
<text text-anchor="middle" x="281" y="-18" font-family="Helvetica,sans-Serif" font-size="10.00">TestingObject::RunTest</text>
</a>
</g>
</g>
<!-- Node2&#45;&gt;Node6 -->
<g id="edge5" class="edge"><title>Node2&#45;&gt;Node6</title>
<path fill="none" stroke="midnightblue" d="M191.238,-57.7007C206.897,-52.1081 223.221,-46.2781 237.537,-41.1655"/>
<polygon fill="midnightblue" stroke="midnightblue" points="189.838,-54.4842 181.598,-61.1437 192.192,-61.0764 189.838,-54.4842"/>
</g>
<!-- Node4 -->
<g id="node4" class="node"><title>Node4</title>
<g id="a_node4"><a xlink:href="namespaceElmerModuleDriver_a657930328d3dc159ded2e9fd6473b2b6.html#a657930328d3dc159ded2e9fd6473b2b6" target="_top" xlink:title="Drives the ElmerModuleDriver::TestObject. ">
<polygon fill="none" stroke="black" points="387.5,-62.5 387.5,-81.5 512.5,-81.5 512.5,-62.5 387.5,-62.5"/>
<text text-anchor="middle" x="450" y="-69.5" font-family="Helvetica,sans-Serif" font-size="10.00">ElmerModuleDriver::Test</text>
</a>
</g>
</g>
<!-- Node3&#45;&gt;Node4 -->
<g id="edge3" class="edge"><title>Node3&#45;&gt;Node4</title>
<path fill="none" stroke="midnightblue" d="M350.883,-73.7626C362.938,-73.546 375.413,-73.3219 387.26,-73.1091"/>
<polygon fill="midnightblue" stroke="midnightblue" points="350.813,-70.2632 340.878,-73.9423 350.939,-77.262 350.813,-70.2632"/>
</g>
<!-- Node5 -->
<g id="node5" class="node"><title>Node5</title>
<g id="a_node5"><a xlink:href="TestElmerModuleDriver_8C_a0ddf1224851353fc92bfbff6f499fa97.html#a0ddf1224851353fc92bfbff6f499fa97" target="_top" xlink:title="main">
<polygon fill="none" stroke="black" points="558,-62.5 558,-81.5 596,-81.5 596,-62.5 558,-62.5"/>
<text text-anchor="middle" x="577" y="-69.5" font-family="Helvetica,sans-Serif" font-size="10.00">main</text>
</a>
</g>
</g>
<!-- Node4&#45;&gt;Node5 -->
<g id="edge4" class="edge"><title>Node4&#45;&gt;Node5</title>
<path fill="none" stroke="midnightblue" d="M522.783,-72C535.79,-72 548.248,-72 557.836,-72"/>
<polygon fill="midnightblue" stroke="midnightblue" points="522.768,-68.5001 512.768,-72 522.768,-75.5001 522.768,-68.5001"/>
</g>
<!-- Node7 -->
<g id="node7" class="node"><title>Node7</title>
<g id="a_node7"><a xlink:href="classElmerModuleDriver_1_1TestingObject_a21159bd2efac623e5a5079f6a20f3444.html#a21159bd2efac623e5a5079f6a20f3444" target="_top" xlink:title="Runs a list of tests specified by name. ">
<polygon fill="none" stroke="black" points="378,-11 378,-41 522,-41 522,-11 378,-11"/>
<text text-anchor="start" x="386" y="-29" font-family="Helvetica,sans-Serif" font-size="10.00">ElmerModuleDriver::</text>
<text text-anchor="middle" x="450" y="-18" font-family="Helvetica,sans-Serif" font-size="10.00">TestingObject::ProcessTests</text>
</a>
</g>
</g>
<!-- Node6&#45;&gt;Node7 -->
<g id="edge6" class="edge"><title>Node6&#45;&gt;Node7</title>
<path fill="none" stroke="midnightblue" d="M351.828,-26C360.451,-26 369.275,-26 377.917,-26"/>
<polygon fill="midnightblue" stroke="midnightblue" points="351.819,-22.5001 341.819,-26 351.819,-29.5001 351.819,-22.5001"/>
</g>
<!-- Node6&#45;&gt;Node4 -->
<g id="edge7" class="edge"><title>Node6&#45;&gt;Node4</title>
<path fill="none" stroke="midnightblue" d="M346.449,-43.7523C369.583,-50.1247 394.779,-57.0649 414.407,-62.4714"/>
<polygon fill="midnightblue" stroke="midnightblue" points="347.252,-40.3435 336.682,-41.0621 345.394,-47.0921 347.252,-40.3435"/>
</g>
<!-- Node8&#45;&gt;Node3 -->
<g id="edge9" class="edge"><title>Node8&#45;&gt;Node3</title>
<path fill="none" stroke="midnightblue" d="M193.791,-44.7707C208.488,-49.9243 223.639,-55.237 237.061,-59.9434"/>
<polygon fill="midnightblue" stroke="midnightblue" points="194.816,-41.4213 184.221,-41.4151 192.499,-48.027 194.816,-41.4213"/>
</g>
<!-- Node8&#45;&gt;Node6 -->
<g id="edge10" class="edge"><title>Node8&#45;&gt;Node6</title>
<path fill="none" stroke="midnightblue" d="M194.333,-23.2186C203.029,-23.5009 211.873,-23.7881 220.417,-24.0655"/>
<polygon fill="midnightblue" stroke="midnightblue" points="194.329,-19.7167 184.221,-22.8903 194.102,-26.713 194.329,-19.7167"/>
</g>
</g>
</svg>
