<?xml version="1.0" encoding="UTF-8" standalone="no"?>
<!DOCTYPE svg PUBLIC "-//W3C//DTD SVG 1.1//EN"
 "http://www.w3.org/Graphics/SVG/1.1/DTD/svg11.dtd">
<!-- Generated by graphviz version 2.30.1 (20150305.2338)
 -->
<!-- Title: GetDataItemNames Pages: 1 -->
<!--zoomable 381 -->
<svg id="main" version="1.1" xmlns="http://www.w3.org/2000/svg" xmlns:xlink="http://www.w3.org/1999/xlink" xml:space="preserve" onload="init(evt)">
<style type="text/css"><![CDATA[
.edge:hover path { stroke: red; }
.edge:hover polygon { stroke: red; fill: red; }
]]></style>
<script type="text/javascript"><![CDATA[
var edges = document.getElementsByTagName('g');
if (edges && edges.length) {
  for (var i=0;i<edges.length;i++) {
    if (edges[i].id.substr(0,4)=='edge') {
      edges[i].setAttribute('class','edge');
    }
  }
}
]]></script>
        <defs>
                <circle id="rim" cx="0" cy="0" r="7"/>
                <circle id="rim2" cx="0" cy="0" r="3.5"/>
                <g id="zoomPlus">
                        <use xlink:href="#rim" fill="#404040">
                                <set attributeName="fill" to="#808080" begin="zoomplus.mouseover" end="zoomplus.mouseout"/>
                        </use>
                        <path d="M-4,0h8M0,-4v8" fill="none" stroke="white" stroke-width="1.5" pointer-events="none"/>
                </g>
                <g id="zoomMin">
                        <use xlink:href="#rim" fill="#404040">
                                <set attributeName="fill" to="#808080" begin="zoomminus.mouseover" end="zoomminus.mouseout"/>
                        </use>
                        <path d="M-4,0h8" fill="none" stroke="white" stroke-width="1.5" pointer-events="none"/>
                </g>
                <g id="dirArrow">
                        <path fill="none" stroke="white" stroke-width="1.5" d="M0,-3.0v7 M-2.5,-0.5L0,-3.0L2.5,-0.5"/>
                </g>
               <g id="resetDef">
                       <use xlink:href="#rim2" fill="#404040">
                               <set attributeName="fill" to="#808080" begin="reset.mouseover" end="reset.mouseout"/>
                       </use>
               </g>
        </defs>

<script type="text/javascript">
var viewWidth = 1758;
var viewHeight = 381;
var sectionId = 'dynsection-1';
</script>
<script xlink:href="svgpan.js"/>
<svg id="graph" class="graph">
<g id="viewport">
<title>GetDataItemNames</title>
<!-- Node1 -->
<g id="node1" class="node"><title>Node1</title>
<polygon fill="#bfbfbf" stroke="black" points="0,-138.5 0,-157.5 104,-157.5 104,-138.5 0,-138.5"/>
<text text-anchor="middle" x="52" y="-145.5" font-family="Helvetica,sans-Serif" font-size="10.00">GetDataItemNames</text>
</g>
<!-- Node2 -->
<g id="node2" class="node"><title>Node2</title>
<g id="a_node2"><a xlink:href="namespaceSolverUtils_a8a3863d0da9bcf306cedc7caf1c069ca.html#a8a3863d0da9bcf306cedc7caf1c069ca" target="_top" xlink:title="PopulateSolutionMetaData\lFromPane">
<polygon fill="none" stroke="black" points="140.5,-133 140.5,-163 273.5,-163 273.5,-133 140.5,-133"/>
<text text-anchor="start" x="148.5" y="-151" font-family="Helvetica,sans-Serif" font-size="10.00">PopulateSolutionMetaData</text>
<text text-anchor="middle" x="207" y="-140" font-family="Helvetica,sans-Serif" font-size="10.00">FromPane</text>
</a>
</g>
</g>
<!-- Node1&#45;&gt;Node2 -->
<g id="edge1" class="edge"><title>Node1&#45;&gt;Node2</title>
<path fill="none" stroke="midnightblue" d="M114.571,-148C123.06,-148 131.804,-148 140.363,-148"/>
<polygon fill="midnightblue" stroke="midnightblue" points="114.372,-144.5 104.372,-148 114.372,-151.5 114.372,-144.5"/>
</g>
<!-- Node3 -->
<g id="node3" class="node"><title>Node3</title>
<g id="a_node3"><a xlink:href="namespaceSolverUtils_a29210d58c0891b69a17bc8281ecc92cc.html#a29210d58c0891b69a17bc8281ecc92cc" target="_top" xlink:title="CreateSolutionFromPane">
<polygon fill="none" stroke="black" points="310,-138.5 310,-157.5 436,-157.5 436,-138.5 310,-138.5"/>
<text text-anchor="middle" x="373" y="-145.5" font-family="Helvetica,sans-Serif" font-size="10.00">CreateSolutionFromPane</text>
</a>
</g>
</g>
<!-- Node2&#45;&gt;Node3 -->
<g id="edge2" class="edge"><title>Node2&#45;&gt;Node3</title>
<path fill="none" stroke="midnightblue" d="M283.925,-148C292.641,-148 301.448,-148 309.951,-148"/>
<polygon fill="midnightblue" stroke="midnightblue" points="283.76,-144.5 273.76,-148 283.76,-151.5 283.76,-144.5"/>
</g>
<!-- Node4 -->
<g id="node4" class="node"><title>Node4</title>
<g id="a_node4"><a xlink:href="namespaceSolverUtils_aba6560399de412c7861129dc7c4a260e.html#aba6560399de412c7861129dc7c4a260e" target="_top" xlink:title="PaneToAgent">
<polygon fill="none" stroke="black" points="472,-138.5 472,-157.5 548,-157.5 548,-138.5 472,-138.5"/>
<text text-anchor="middle" x="510" y="-145.5" font-family="Helvetica,sans-Serif" font-size="10.00">PaneToAgent</text>
</a>
</g>
</g>
<!-- Node3&#45;&gt;Node4 -->
<g id="edge3" class="edge"><title>Node3&#45;&gt;Node4</title>
<path fill="none" stroke="midnightblue" d="M446.64,-148C455.379,-148 464.003,-148 471.921,-148"/>
<polygon fill="midnightblue" stroke="midnightblue" points="446.363,-144.5 436.363,-148 446.363,-151.5 446.363,-144.5"/>
</g>
<!-- Node5 -->
<g id="node5" class="node"><title>Node5</title>
<g id="a_node5"><a xlink:href="namespaceSolverUtils_a9da67f474f0ef835bb9707e6598de2bd.html#a9da67f474f0ef835bb9707e6598de2bd" target="_top" xlink:title="PopulateSolverAgentFromWindow">
<polygon fill="none" stroke="black" points="584,-138.5 584,-157.5 750,-157.5 750,-138.5 584,-138.5"/>
<text text-anchor="middle" x="667" y="-145.5" font-family="Helvetica,sans-Serif" font-size="10.00">PopulateSolverAgentFromWindow</text>
</a>
</g>
</g>
<!-- Node4&#45;&gt;Node5 -->
<g id="edge4" class="edge"><title>Node4&#45;&gt;Node5</title>
<path fill="none" stroke="midnightblue" d="M558.13,-148C566.28,-148 574.962,-148 583.725,-148"/>
<polygon fill="midnightblue" stroke="midnightblue" points="558.126,-144.5 548.126,-148 558.126,-151.5 558.126,-144.5"/>
</g>
<!-- Node6 -->
<g id="node6" class="node"><title>Node6</title>
<g id="a_node6"><a xlink:href="classopenfoamagent_a9a8261713154978fa009d8cb2c533055.html#a9a8261713154978fa009d8cb2c533055" target="_top" xlink:title="openfoamagent::Initialize">
<polygon fill="none" stroke="black" points="793.5,-157.5 793.5,-176.5 918.5,-176.5 918.5,-157.5 793.5,-157.5"/>
<text text-anchor="middle" x="856" y="-164.5" font-family="Helvetica,sans-Serif" font-size="10.00">openfoamagent::Initialize</text>
</a>
</g>
</g>
<!-- Node5&#45;&gt;Node6 -->
<g id="edge5" class="edge"><title>Node5&#45;&gt;Node6</title>
<path fill="none" stroke="midnightblue" d="M760.276,-157.376C771.471,-158.513 782.688,-159.653 793.287,-160.73"/>
<polygon fill="midnightblue" stroke="midnightblue" points="760.324,-153.863 750.021,-156.334 759.616,-160.827 760.324,-153.863"/>
</g>
<!-- Node21 -->
<g id="node21" class="node"><title>Node21</title>
<g id="a_node21"><a xlink:href="classopenfoamagentpar_a9a8261713154978fa009d8cb2c533055.html#a9a8261713154978fa009d8cb2c533055" target="_top" xlink:title="openfoamagentpar::Initialize">
<polygon fill="none" stroke="black" points="786.5,-119.5 786.5,-138.5 925.5,-138.5 925.5,-119.5 786.5,-119.5"/>
<text text-anchor="middle" x="856" y="-126.5" font-family="Helvetica,sans-Serif" font-size="10.00">openfoamagentpar::Initialize</text>
</a>
</g>
</g>
<!-- Node5&#45;&gt;Node21 -->
<g id="edge31" class="edge"><title>Node5&#45;&gt;Node21</title>
<path fill="none" stroke="midnightblue" d="M760.045,-138.648C768.945,-137.744 777.863,-136.837 786.476,-135.962"/>
<polygon fill="midnightblue" stroke="midnightblue" points="759.616,-135.173 750.021,-139.666 760.324,-142.137 759.616,-135.173"/>
</g>
<!-- Node23 -->
<g id="node23" class="node"><title>Node23</title>
<g id="a_node23"><a xlink:href="classelmeragent_a66d8ac5294227a11adf08cdfa91f59b5.html#a66d8ac5294227a11adf08cdfa91f59b5" target="_top" xlink:title="elmeragent::Initialize">
<polygon fill="none" stroke="black" points="802.5,-195.5 802.5,-214.5 909.5,-214.5 909.5,-195.5 802.5,-195.5"/>
<text text-anchor="middle" x="856" y="-202.5" font-family="Helvetica,sans-Serif" font-size="10.00">elmeragent::Initialize</text>
</a>
</g>
</g>
<!-- Node5&#45;&gt;Node23 -->
<g id="edge33" class="edge"><title>Node5&#45;&gt;Node23</title>
<path fill="none" stroke="midnightblue" d="M706.244,-160.774C729.276,-168.353 759.233,-178.009 786,-186 796.715,-189.199 808.424,-192.497 819.104,-195.429"/>
<polygon fill="midnightblue" stroke="midnightblue" points="707.1,-157.371 696.506,-157.558 704.904,-164.018 707.1,-157.371"/>
</g>
<!-- Node25 -->
<g id="node25" class="node"><title>Node25</title>
<g id="a_node25"><a xlink:href="classelmeragentpar_a66d8ac5294227a11adf08cdfa91f59b5.html#a66d8ac5294227a11adf08cdfa91f59b5" target="_top" xlink:title="elmeragentpar::Initialize">
<polygon fill="none" stroke="black" points="796,-81.5 796,-100.5 916,-100.5 916,-81.5 796,-81.5"/>
<text text-anchor="middle" x="856" y="-88.5" font-family="Helvetica,sans-Serif" font-size="10.00">elmeragentpar::Initialize</text>
</a>
</g>
</g>
<!-- Node5&#45;&gt;Node25 -->
<g id="edge38" class="edge"><title>Node5&#45;&gt;Node25</title>
<path fill="none" stroke="midnightblue" d="M706.244,-135.226C729.276,-127.647 759.233,-117.991 786,-110 796.715,-106.801 808.424,-103.503 819.104,-100.571"/>
<polygon fill="midnightblue" stroke="midnightblue" points="704.904,-131.982 696.506,-138.442 707.1,-138.629 704.904,-131.982"/>
</g>
<!-- Node7 -->
<g id="node7" class="node"><title>Node7</title>
<g id="a_node7"><a xlink:href="classfsicoupling_ae855141f7b214925c25f7797b8b122a8.html#ae855141f7b214925c25f7797b8b122a8" target="_top" xlink:title="fsicoupling::Initialize">
<polygon fill="none" stroke="black" points="969.5,-176.5 969.5,-195.5 1074.5,-195.5 1074.5,-176.5 969.5,-176.5"/>
<text text-anchor="middle" x="1022" y="-183.5" font-family="Helvetica,sans-Serif" font-size="10.00">fsicoupling::Initialize</text>
</a>
</g>
</g>
<!-- Node6&#45;&gt;Node7 -->
<g id="edge6" class="edge"><title>Node6&#45;&gt;Node7</title>
<path fill="none" stroke="midnightblue" d="M928.85,-175.324C942.47,-176.902 956.469,-178.524 969.313,-180.012"/>
<polygon fill="midnightblue" stroke="midnightblue" points="928.871,-171.803 918.534,-174.129 928.065,-178.757 928.871,-171.803"/>
</g>
<!-- Node20 -->
<g id="node20" class="node"><title>Node20</title>
<g id="a_node20"><a xlink:href="classElmerFoamFSI_1_1TestingObject_a08d0370a943e7c47c0098eb76664a71b.html#a08d0370a943e7c47c0098eb76664a71b" target="_top" xlink:title="Run an initialization check to make sure the OpenFoamFluids are running as they should. ">
<polygon fill="none" stroke="black" points="1136.5,-0 1136.5,-30 1285.5,-30 1285.5,-0 1136.5,-0"/>
<text text-anchor="start" x="1144.5" y="-18" font-family="Helvetica,sans-Serif" font-size="10.00">ElmerFoamFSI::TestingObject</text>
<text text-anchor="middle" x="1211" y="-7" font-family="Helvetica,sans-Serif" font-size="10.00">::Test__OpenFoamFluids</text>
</a>
</g>
</g>
<!-- Node6&#45;&gt;Node20 -->
<g id="edge28" class="edge"><title>Node6&#45;&gt;Node20</title>
<path fill="none" stroke="midnightblue" d="M928.975,-163.943C976.854,-158.532 1038.67,-144.668 1082,-110 1109.63,-87.896 1090.45,-61.2015 1118,-39 1123.53,-34.546 1129.79,-30.9111 1136.39,-27.9458"/>
<polygon fill="midnightblue" stroke="midnightblue" points="928.569,-160.466 918.981,-164.973 929.287,-167.429 928.569,-160.466"/>
</g>
<!-- Node8 -->
<g id="node8" class="node"><title>Node8</title>
<g id="a_node8"><a xlink:href="classElmerFoamFSI_1_1SerialDriverProgram_a5803949d99491a7186bf1ee9cee81a3b.html#a5803949d99491a7186bf1ee9cee81a3b" target="_top" xlink:title="This function implements the main function executed by the program. ">
<polygon fill="none" stroke="black" points="1141,-343 1141,-373 1281,-373 1281,-343 1141,-343"/>
<text text-anchor="start" x="1149" y="-361" font-family="Helvetica,sans-Serif" font-size="10.00">ElmerFoamFSI::SerialDriver</text>
<text text-anchor="middle" x="1211" y="-350" font-family="Helvetica,sans-Serif" font-size="10.00">Program::DriverRun</text>
</a>
</g>
</g>
<!-- Node7&#45;&gt;Node8 -->
<g id="edge7" class="edge"><title>Node7&#45;&gt;Node8</title>
<path fill="none" stroke="midnightblue" d="M1030.01,-205.036C1042.62,-236.572 1072.16,-299.491 1118,-333 1124.81,-337.981 1132.57,-341.97 1140.61,-345.164"/>
<polygon fill="midnightblue" stroke="midnightblue" points="1033.25,-203.703 1026.39,-195.632 1026.72,-206.222 1033.25,-203.703"/>
</g>
<!-- Node10 -->
<g id="node10" class="node"><title>Node10</title>
<g id="a_node10"><a xlink:href="classElmerFoamFSI_1_1TestingObject_aa7d577bcec96bb12da930ede076b6023.html#aa7d577bcec96bb12da930ede076b6023" target="_top" xlink:title="Test for fluidAgent&#45;&gt;Run() function. ">
<polygon fill="none" stroke="black" points="1136.5,-49 1136.5,-79 1285.5,-79 1285.5,-49 1136.5,-49"/>
<text text-anchor="start" x="1144.5" y="-67" font-family="Helvetica,sans-Serif" font-size="10.00">ElmerFoamFSI::TestingObject</text>
<text text-anchor="middle" x="1211" y="-56" font-family="Helvetica,sans-Serif" font-size="10.00">::Test__FluidAgentRun</text>
</a>
</g>
</g>
<!-- Node7&#45;&gt;Node10 -->
<g id="edge9" class="edge"><title>Node7&#45;&gt;Node10</title>
<path fill="none" stroke="midnightblue" d="M1047.78,-170.888C1058.98,-163.347 1071.94,-153.581 1082,-143 1102.13,-121.829 1094.28,-105.051 1118,-88 1123.63,-83.9537 1129.89,-80.5891 1136.42,-77.7914"/>
<polygon fill="midnightblue" stroke="midnightblue" points="1045.73,-168.046 1039.25,-176.433 1049.55,-173.914 1045.73,-168.046"/>
</g>
<!-- Node16 -->
<g id="node16" class="node"><title>Node16</title>
<g id="a_node16"><a xlink:href="classElmerFoamFSI_1_1TestingObject_a07ff57097065c5066a4421176b63242b.html#a07ff57097065c5066a4421176b63242b" target="_top" xlink:title="Test the functionality of the fsiCoupler. ">
<polygon fill="none" stroke="black" points="1136.5,-245 1136.5,-275 1285.5,-275 1285.5,-245 1136.5,-245"/>
<text text-anchor="start" x="1144.5" y="-263" font-family="Helvetica,sans-Serif" font-size="10.00">ElmerFoamFSI::TestingObject</text>
<text text-anchor="middle" x="1211" y="-252" font-family="Helvetica,sans-Serif" font-size="10.00">::Test__FsiCoupler</text>
</a>
</g>
</g>
<!-- Node7&#45;&gt;Node16 -->
<g id="edge16" class="edge"><title>Node7&#45;&gt;Node16</title>
<path fill="none" stroke="midnightblue" d="M1047.78,-200.623C1066.57,-211.249 1093.29,-225.394 1118,-235 1127.41,-238.658 1137.56,-241.993 1147.56,-244.95"/>
<polygon fill="midnightblue" stroke="midnightblue" points="1049.4,-197.518 1038.99,-195.578 1045.92,-203.589 1049.4,-197.518"/>
</g>
<!-- Node17 -->
<g id="node17" class="node"><title>Node17</title>
<g id="a_node17"><a xlink:href="classElmerFoamFSI_1_1TestingObject_a1fae1ccecf337df1572d5a43cdae1a08.html#a1fae1ccecf337df1572d5a43cdae1a08" target="_top" xlink:title="Test for solidAgent&#45;&gt;Run() function. ">
<polygon fill="none" stroke="black" points="1136.5,-196 1136.5,-226 1285.5,-226 1285.5,-196 1136.5,-196"/>
<text text-anchor="start" x="1144.5" y="-214" font-family="Helvetica,sans-Serif" font-size="10.00">ElmerFoamFSI::TestingObject</text>
<text text-anchor="middle" x="1211" y="-203" font-family="Helvetica,sans-Serif" font-size="10.00">::Test__SolidAgentRun</text>
</a>
</g>
</g>
<!-- Node7&#45;&gt;Node17 -->
<g id="edge19" class="edge"><title>Node7&#45;&gt;Node17</title>
<path fill="none" stroke="midnightblue" d="M1084.64,-194.241C1101.12,-196.445 1119.11,-198.849 1136.18,-201.131"/>
<polygon fill="midnightblue" stroke="midnightblue" points="1084.97,-190.754 1074.59,-192.898 1084.04,-197.692 1084.97,-190.754"/>
</g>
<!-- Node18 -->
<g id="node18" class="node"><title>Node18</title>
<g id="a_node18"><a xlink:href="classElmerFoamFSI_1_1TestingObject_abb3c0f68a2d2e212fa6e05e4628c78f0.html#abb3c0f68a2d2e212fa6e05e4628c78f0" target="_top" xlink:title="Test for fsiCoupling::TrasferDisplacementsToFluid function. ">
<polygon fill="none" stroke="black" points="1118,-147 1118,-177 1304,-177 1304,-147 1118,-147"/>
<text text-anchor="start" x="1126" y="-165" font-family="Helvetica,sans-Serif" font-size="10.00">ElmerFoamFSI::TestingObject</text>
<text text-anchor="middle" x="1211" y="-154" font-family="Helvetica,sans-Serif" font-size="10.00">::Test__TransferDisplacementsToFluid</text>
</a>
</g>
</g>
<!-- Node7&#45;&gt;Node18 -->
<g id="edge22" class="edge"><title>Node7&#45;&gt;Node18</title>
<path fill="none" stroke="midnightblue" d="M1084.57,-178.098C1095.19,-176.735 1106.44,-175.291 1117.67,-173.85"/>
<polygon fill="midnightblue" stroke="midnightblue" points="1084.07,-174.634 1074.59,-179.378 1084.96,-181.577 1084.07,-174.634"/>
</g>
<!-- Node19 -->
<g id="node19" class="node"><title>Node19</title>
<g id="a_node19"><a xlink:href="classElmerFoamFSI_1_1TestingObject_a8c738943eca358248eb583bd29c5c332.html#a8c738943eca358248eb583bd29c5c332" target="_top" xlink:title="Test for TransferLoadsToStructures() function. ">
<polygon fill="none" stroke="black" points="1125.5,-98 1125.5,-128 1296.5,-128 1296.5,-98 1125.5,-98"/>
<text text-anchor="start" x="1133.5" y="-116" font-family="Helvetica,sans-Serif" font-size="10.00">ElmerFoamFSI::TestingObject</text>
<text text-anchor="middle" x="1211" y="-105" font-family="Helvetica,sans-Serif" font-size="10.00">::Test__TransferLoadsToStructures</text>
</a>
</g>
</g>
<!-- Node7&#45;&gt;Node19 -->
<g id="edge25" class="edge"><title>Node7&#45;&gt;Node19</title>
<path fill="none" stroke="midnightblue" d="M1047.76,-171.303C1066.53,-160.64 1093.24,-146.481 1118,-137 1126.63,-133.694 1135.89,-130.687 1145.09,-128.005"/>
<polygon fill="midnightblue" stroke="midnightblue" points="1045.88,-168.343 1038.97,-176.369 1049.38,-174.407 1045.88,-168.343"/>
</g>
<!-- Node9 -->
<g id="node9" class="node"><title>Node9</title>
<g id="a_node9"><a xlink:href="namespaceElmerFoamFSI_aff46f457934a8e2d3712bdbfb1688e99.html#aff46f457934a8e2d3712bdbfb1688e99" target="_top" xlink:title="Unified driver for the example programs. ">
<polygon fill="none" stroke="black" points="1357.5,-348.5 1357.5,-367.5 1472.5,-367.5 1472.5,-348.5 1357.5,-348.5"/>
<text text-anchor="middle" x="1415" y="-355.5" font-family="Helvetica,sans-Serif" font-size="10.00">ElmerFoamFSI::Driver</text>
</a>
</g>
</g>
<!-- Node8&#45;&gt;Node9 -->
<g id="edge8" class="edge"><title>Node8&#45;&gt;Node9</title>
<path fill="none" stroke="midnightblue" d="M1291.24,-358C1313.28,-358 1336.78,-358 1357.25,-358"/>
<polygon fill="midnightblue" stroke="midnightblue" points="1291.23,-354.5 1281.23,-358 1291.23,-361.5 1291.23,-354.5"/>
</g>
<!-- Node11 -->
<g id="node11" class="node"><title>Node11</title>
<g id="a_node11"><a xlink:href="classElmerFoamFSI_1_1TestingObject_a046f7ab06db0acf616b0d2bf3d3146aa.html#a046f7ab06db0acf616b0d2bf3d3146aa" target="_top" xlink:title="Runs all tests implemented by the ElmerFoamFSI::TestingObject. ">
<polygon fill="none" stroke="black" points="1340.5,-122 1340.5,-152 1489.5,-152 1489.5,-122 1340.5,-122"/>
<text text-anchor="start" x="1348.5" y="-140" font-family="Helvetica,sans-Serif" font-size="10.00">ElmerFoamFSI::TestingObject</text>
<text text-anchor="middle" x="1415" y="-129" font-family="Helvetica,sans-Serif" font-size="10.00">::Process</text>
</a>
</g>
</g>
<!-- Node10&#45;&gt;Node11 -->
<g id="edge10" class="edge"><title>Node10&#45;&gt;Node11</title>
<path fill="none" stroke="midnightblue" d="M1285.29,-81.9503C1291.66,-83.8624 1297.97,-85.8859 1304,-88 1331.62,-97.6814 1361.93,-111.428 1383.73,-121.899"/>
<polygon fill="midnightblue" stroke="midnightblue" points="1285.84,-78.4672 1275.26,-79.0403 1283.89,-85.1896 1285.84,-78.4672"/>
</g>
<!-- Node14 -->
<g id="node14" class="node"><title>Node14</title>
<g id="a_node14"><a xlink:href="classElmerFoamFSI_1_1TestingObject_af1f07f14b9af7708e4264bb38937eed2.html#af1f07f14b9af7708e4264bb38937eed2" target="_top" xlink:title="Runs a test specified by name. ">
<polygon fill="none" stroke="black" points="1340.5,-171 1340.5,-201 1489.5,-201 1489.5,-171 1340.5,-171"/>
<text text-anchor="start" x="1348.5" y="-189" font-family="Helvetica,sans-Serif" font-size="10.00">ElmerFoamFSI::TestingObject</text>
<text text-anchor="middle" x="1415" y="-178" font-family="Helvetica,sans-Serif" font-size="10.00">::RunTest</text>
</a>
</g>
</g>
<!-- Node10&#45;&gt;Node14 -->
<g id="edge13" class="edge"><title>Node10&#45;&gt;Node14</title>
<path fill="none" stroke="midnightblue" d="M1294.66,-81.532C1297.94,-83.4691 1301.08,-85.6175 1304,-88 1332.04,-110.857 1312.78,-137.168 1340,-161 1344.39,-164.841 1349.39,-168.098 1354.67,-170.857"/>
<polygon fill="midnightblue" stroke="midnightblue" points="1296.15,-78.3624 1285.66,-76.8822 1292.94,-84.5816 1296.15,-78.3624"/>
</g>
<!-- Node12 -->
<g id="node12" class="node"><title>Node12</title>
<g id="a_node12"><a xlink:href="namespaceElmerFoamFSI_aeb590657609088b8ab12a5cbd164fcfa.html#aeb590657609088b8ab12a5cbd164fcfa" target="_top" xlink:title="Drives the ElmerFoamFSI::TestObject. ">
<polygon fill="none" stroke="black" points="1547,-130.5 1547,-149.5 1655,-149.5 1655,-130.5 1547,-130.5"/>
<text text-anchor="middle" x="1601" y="-137.5" font-family="Helvetica,sans-Serif" font-size="10.00">ElmerFoamFSI::Test</text>
</a>
</g>
</g>
<!-- Node11&#45;&gt;Node12 -->
<g id="edge11" class="edge"><title>Node11&#45;&gt;Node12</title>
<path fill="none" stroke="midnightblue" d="M1499.96,-138.369C1515.97,-138.63 1532.3,-138.896 1547,-139.136"/>
<polygon fill="midnightblue" stroke="midnightblue" points="1499.57,-134.862 1489.51,-138.199 1499.46,-141.861 1499.57,-134.862"/>
</g>
<!-- Node13 -->
<g id="node13" class="node"><title>Node13</title>
<g id="a_node13"><a xlink:href="TestElmerFoamFSI_8C_a0ddf1224851353fc92bfbff6f499fa97.html#a0ddf1224851353fc92bfbff6f499fa97" target="_top" xlink:title="main">
<polygon fill="none" stroke="black" points="1712,-130.5 1712,-149.5 1750,-149.5 1750,-130.5 1712,-130.5"/>
<text text-anchor="middle" x="1731" y="-137.5" font-family="Helvetica,sans-Serif" font-size="10.00">main</text>
</a>
</g>
</g>
<!-- Node12&#45;&gt;Node13 -->
<g id="edge12" class="edge"><title>Node12&#45;&gt;Node13</title>
<path fill="none" stroke="midnightblue" d="M1665.19,-140C1682.29,-140 1699.47,-140 1711.84,-140"/>
<polygon fill="midnightblue" stroke="midnightblue" points="1665.17,-136.5 1655.17,-140 1665.17,-143.5 1665.17,-136.5"/>
</g>
<!-- Node15 -->
<g id="node15" class="node"><title>Node15</title>
<g id="a_node15"><a xlink:href="classElmerFoamFSI_1_1TestingObject_a21159bd2efac623e5a5079f6a20f3444.html#a21159bd2efac623e5a5079f6a20f3444" target="_top" xlink:title="Runs a list of tests specified by name. ">
<polygon fill="none" stroke="black" points="1526.5,-171 1526.5,-201 1675.5,-201 1675.5,-171 1526.5,-171"/>
<text text-anchor="start" x="1534.5" y="-189" font-family="Helvetica,sans-Serif" font-size="10.00">ElmerFoamFSI::TestingObject</text>
<text text-anchor="middle" x="1601" y="-178" font-family="Helvetica,sans-Serif" font-size="10.00">::ProcessTests</text>
</a>
</g>
</g>
<!-- Node14&#45;&gt;Node15 -->
<g id="edge14" class="edge"><title>Node14&#45;&gt;Node15</title>
<path fill="none" stroke="midnightblue" d="M1499.53,-186C1508.46,-186 1517.5,-186 1526.3,-186"/>
<polygon fill="midnightblue" stroke="midnightblue" points="1499.51,-182.5 1489.51,-186 1499.51,-189.5 1499.51,-182.5"/>
</g>
<!-- Node14&#45;&gt;Node12 -->
<g id="edge15" class="edge"><title>Node14&#45;&gt;Node12</title>
<path fill="none" stroke="midnightblue" d="M1485.99,-168.503C1511.75,-162.061 1539.97,-155.008 1561.89,-149.529"/>
<polygon fill="midnightblue" stroke="midnightblue" points="1485.1,-165.117 1476.25,-170.938 1486.8,-171.908 1485.1,-165.117"/>
</g>
<!-- Node16&#45;&gt;Node11 -->
<g id="edge17" class="edge"><title>Node16&#45;&gt;Node11</title>
<path fill="none" stroke="midnightblue" d="M1294.69,-241.563C1297.96,-239.592 1301.09,-237.412 1304,-235 1332.17,-211.672 1312.4,-185.001 1340,-161 1343.97,-157.543 1348.46,-154.583 1353.2,-152.048"/>
<polygon fill="midnightblue" stroke="midnightblue" points="1292.91,-238.543 1285.7,-246.307 1296.18,-244.733 1292.91,-238.543"/>
</g>
<!-- Node16&#45;&gt;Node14 -->
<g id="edge18" class="edge"><title>Node16&#45;&gt;Node14</title>
<path fill="none" stroke="midnightblue" d="M1282.67,-241.989C1289.92,-239.786 1297.14,-237.444 1304,-235 1331.57,-225.179 1361.88,-211.445 1383.69,-201.015"/>
<polygon fill="midnightblue" stroke="midnightblue" points="1281.39,-238.718 1272.79,-244.905 1283.37,-245.432 1281.39,-238.718"/>
</g>
<!-- Node17&#45;&gt;Node11 -->
<g id="edge20" class="edge"><title>Node17&#45;&gt;Node11</title>
<path fill="none" stroke="midnightblue" d="M1288.18,-192.525C1293.61,-190.532 1298.94,-188.36 1304,-186 1321.66,-177.771 1322.55,-169.653 1340,-161 1346.66,-157.7 1353.87,-154.71 1361.09,-152.05"/>
<polygon fill="midnightblue" stroke="midnightblue" points="1286.63,-189.356 1278.31,-195.921 1288.91,-195.974 1286.63,-189.356"/>
</g>
<!-- Node17&#45;&gt;Node14 -->
<g id="edge21" class="edge"><title>Node17&#45;&gt;Node14</title>
<path fill="none" stroke="midnightblue" d="M1295.91,-200.615C1310.68,-198.787 1325.96,-196.897 1340.42,-195.107"/>
<polygon fill="midnightblue" stroke="midnightblue" points="1295.28,-197.166 1285.78,-201.868 1296.14,-204.113 1295.28,-197.166"/>
</g>
<!-- Node18&#45;&gt;Node11 -->
<g id="edge23" class="edge"><title>Node18&#45;&gt;Node11</title>
<path fill="none" stroke="midnightblue" d="M1314.14,-149.358C1323.02,-148.26 1331.88,-147.163 1340.46,-146.101"/>
<polygon fill="midnightblue" stroke="midnightblue" points="1313.63,-145.896 1304.13,-150.597 1314.49,-152.843 1313.63,-145.896"/>
</g>
<!-- Node18&#45;&gt;Node14 -->
<g id="edge24" class="edge"><title>Node18&#45;&gt;Node14</title>
<path fill="none" stroke="midnightblue" d="M1314.14,-174.136C1323.02,-175.19 1331.88,-176.244 1340.46,-177.263"/>
<polygon fill="midnightblue" stroke="midnightblue" points="1314.48,-170.651 1304.13,-172.947 1313.65,-177.602 1314.48,-170.651"/>
</g>
<!-- Node19&#45;&gt;Node11 -->
<g id="edge26" class="edge"><title>Node19&#45;&gt;Node11</title>
<path fill="none" stroke="midnightblue" d="M1307.02,-124.29C1318.21,-125.619 1329.5,-126.96 1340.33,-128.247"/>
<polygon fill="midnightblue" stroke="midnightblue" points="1307.13,-120.778 1296.79,-123.074 1306.31,-127.729 1307.13,-120.778"/>
</g>
<!-- Node19&#45;&gt;Node14 -->
<g id="edge27" class="edge"><title>Node19&#45;&gt;Node14</title>
<path fill="none" stroke="midnightblue" d="M1289.72,-131.269C1294.61,-133.034 1299.41,-134.942 1304,-137 1321.55,-144.869 1322.74,-152.516 1340,-161 1347.42,-164.649 1355.51,-167.979 1363.52,-170.934"/>
<polygon fill="midnightblue" stroke="midnightblue" points="1290.81,-127.944 1280.21,-128.05 1288.56,-134.574 1290.81,-127.944"/>
</g>
<!-- Node20&#45;&gt;Node11 -->
<g id="edge29" class="edge"><title>Node20&#45;&gt;Node11</title>
<path fill="none" stroke="midnightblue" d="M1293.09,-33.7878C1296.84,-35.3914 1300.5,-37.1255 1304,-39 1344.59,-60.7268 1382.48,-100.35 1401.4,-121.961"/>
<polygon fill="midnightblue" stroke="midnightblue" points="1294.19,-30.461 1283.61,-30.0649 1291.64,-36.9769 1294.19,-30.461"/>
</g>
<!-- Node20&#45;&gt;Node14 -->
<g id="edge30" class="edge"><title>Node20&#45;&gt;Node14</title>
<path fill="none" stroke="midnightblue" d="M1294.46,-31.4498C1297.88,-33.6687 1301.08,-36.1736 1304,-39 1344.6,-78.3356 1300.81,-120.256 1340,-161 1343.76,-164.909 1348.15,-168.207 1352.89,-170.99"/>
<polygon fill="midnightblue" stroke="midnightblue" points="1296.04,-28.3202 1285.6,-26.5028 1292.62,-34.4326 1296.04,-28.3202"/>
</g>
<!-- Node22 -->
<g id="node22" class="node"><title>Node22</title>
<g id="a_node22"><a xlink:href="classfsicouplingpar_ae855141f7b214925c25f7797b8b122a8.html#ae855141f7b214925c25f7797b8b122a8" target="_top" xlink:title="fsicouplingpar::Initialize">
<polygon fill="none" stroke="black" points="962.5,-81.5 962.5,-100.5 1081.5,-100.5 1081.5,-81.5 962.5,-81.5"/>
<text text-anchor="middle" x="1022" y="-88.5" font-family="Helvetica,sans-Serif" font-size="10.00">fsicouplingpar::Initialize</text>
</a>
</g>
</g>
<!-- Node21&#45;&gt;Node22 -->
<g id="edge32" class="edge"><title>Node21&#45;&gt;Node22</title>
<path fill="none" stroke="midnightblue" d="M908.341,-117.104C931.393,-111.763 958.221,-105.546 979.913,-100.52"/>
<polygon fill="midnightblue" stroke="midnightblue" points="907.336,-113.744 898.384,-119.411 908.916,-120.563 907.336,-113.744"/>
</g>
<!-- Node23&#45;&gt;Node7 -->
<g id="edge34" class="edge"><title>Node23&#45;&gt;Node7</title>
<path fill="none" stroke="midnightblue" d="M919.833,-197.721C936.223,-195.822 953.695,-193.798 969.426,-191.975"/>
<polygon fill="midnightblue" stroke="midnightblue" points="919.324,-194.256 909.793,-198.884 920.13,-201.21 919.324,-194.256"/>
</g>
<!-- Node24 -->
<g id="node24" class="node"><title>Node24</title>
<g id="a_node24"><a xlink:href="classElmerFoamFSI_1_1TestingObject_af35b4f0c5c244be91e637c17b3ebabd9.html#af35b4f0c5c244be91e637c17b3ebabd9" target="_top" xlink:title="Run an initialization check to make sure that the ElmerStructures are running as they should...">
<polygon fill="none" stroke="black" points="1136.5,-294 1136.5,-324 1285.5,-324 1285.5,-294 1136.5,-294"/>
<text text-anchor="start" x="1144.5" y="-312" font-family="Helvetica,sans-Serif" font-size="10.00">ElmerFoamFSI::TestingObject</text>
<text text-anchor="middle" x="1211" y="-301" font-family="Helvetica,sans-Serif" font-size="10.00">::Test__ElmerStructures</text>
</a>
</g>
</g>
<!-- Node23&#45;&gt;Node24 -->
<g id="edge35" class="edge"><title>Node23&#45;&gt;Node24</title>
<path fill="none" stroke="midnightblue" d="M897.136,-217.537C948.289,-233.427 1039.51,-261.461 1118,-284 1129.45,-287.289 1141.74,-290.706 1153.49,-293.918"/>
<polygon fill="midnightblue" stroke="midnightblue" points="898.043,-214.154 887.455,-214.527 895.964,-220.839 898.043,-214.154"/>
</g>
<!-- Node24&#45;&gt;Node11 -->
<g id="edge36" class="edge"><title>Node24&#45;&gt;Node11</title>
<path fill="none" stroke="midnightblue" d="M1294.49,-291.639C1297.89,-289.387 1301.09,-286.852 1304,-284 1344.67,-244.116 1300.31,-201.854 1340,-161 1343.29,-157.61 1347.07,-154.697 1351.14,-152.196"/>
<polygon fill="midnightblue" stroke="midnightblue" points="1292.6,-288.688 1285.63,-296.675 1296.06,-294.772 1292.6,-288.688"/>
</g>
<!-- Node24&#45;&gt;Node14 -->
<g id="edge37" class="edge"><title>Node24&#45;&gt;Node14</title>
<path fill="none" stroke="midnightblue" d="M1290.73,-290.302C1295.31,-288.39 1299.77,-286.294 1304,-284 1344.25,-262.189 1381.99,-222.967 1401.06,-201.345"/>
<polygon fill="midnightblue" stroke="midnightblue" points="1289.26,-287.114 1281.19,-293.976 1291.78,-293.646 1289.26,-287.114"/>
</g>
<!-- Node25&#45;&gt;Node22 -->
<g id="edge39" class="edge"><title>Node25&#45;&gt;Node22</title>
<path fill="none" stroke="midnightblue" d="M926.218,-91C938.27,-91 950.698,-91 962.429,-91"/>
<polygon fill="midnightblue" stroke="midnightblue" points="926.208,-87.5001 916.208,-91 926.208,-94.5001 926.208,-87.5001"/>
</g>
</g>
</svg>
        <g id="navigator" transform="translate(0 0)" fill="#404254">
                <rect fill="#f2f5e9" fill-opacity="0.5" stroke="#606060" stroke-width=".5" x="0" y="0" width="60" height="60"/>
                <use id="zoomplus" xlink:href="#zoomPlus" x="17" y="9" onmousedown="handleZoom(evt,'in')"/>
                <use id="zoomminus" xlink:href="#zoomMin" x="42" y="9" onmousedown="handleZoom(evt,'out')"/>
                <use id="reset" xlink:href="#resetDef" x="30" y="36" onmousedown="handleReset()"/>
                <g id="arrowUp" xlink:href="#dirArrow" transform="translate(30 24)" onmousedown="handlePan(0,-1)">
                  <use xlink:href="#rim" fill="#404040">
                        <set attributeName="fill" to="#808080" begin="arrowUp.mouseover" end="arrowUp.mouseout"/>
                  </use>
                  <path fill="none" stroke="white" stroke-width="1.5" d="M0,-3.0v7 M-2.5,-0.5L0,-3.0L2.5,-0.5"/>
                </g>
                <g id="arrowRight" xlink:href="#dirArrow" transform="rotate(90) translate(36 -43)" onmousedown="handlePan(1,0)">
                  <use xlink:href="#rim" fill="#404040">
                        <set attributeName="fill" to="#808080" begin="arrowRight.mouseover" end="arrowRight.mouseout"/>
                  </use>
                  <path fill="none" stroke="white" stroke-width="1.5" d="M0,-3.0v7 M-2.5,-0.5L0,-3.0L2.5,-0.5"/>
                </g>
                <g id="arrowDown" xlink:href="#dirArrow" transform="rotate(180) translate(-30 -48)" onmousedown="handlePan(0,1)">
                  <use xlink:href="#rim" fill="#404040">
                        <set attributeName="fill" to="#808080" begin="arrowDown.mouseover" end="arrowDown.mouseout"/>
                  </use>
                  <path fill="none" stroke="white" stroke-width="1.5" d="M0,-3.0v7 M-2.5,-0.5L0,-3.0L2.5,-0.5"/>
                </g>
                <g id="arrowLeft" xlink:href="#dirArrow" transform="rotate(270) translate(-36 17)" onmousedown="handlePan(-1,0)">
                  <use xlink:href="#rim" fill="#404040">
                        <set attributeName="fill" to="#808080" begin="arrowLeft.mouseover" end="arrowLeft.mouseout"/>
                  </use>
                  <path fill="none" stroke="white" stroke-width="1.5" d="M0,-3.0v7 M-2.5,-0.5L0,-3.0L2.5,-0.5"/>
                </g>
        </g>
        <svg viewBox="0 0 15 15" width="100%" height="30px" preserveAspectRatio="xMaxYMin meet">
         <g id="arrow_out" transform="scale(0.3 0.3)">
          <a xlink:href="namespaceSolverUtils_a8a5727f4056aa951041899bcaa014800_a8a5727f4056aa951041899bcaa014800_icgraph_org.svg" target="_base">
           <rect id="button" ry="5" rx="5" y="6" x="6" height="38" width="38"
                fill="#f2f5e9" fill-opacity="0.5" stroke="#606060" stroke-width="1.0"/>
           <path id="arrow"
             d="M 11.500037,31.436501 C 11.940474,20.09759 22.043105,11.32322 32.158766,21.979434 L 37.068811,17.246167 C 37.068811,17.246167 37.088388,32 37.088388,32 L 22.160133,31.978069 C 22.160133,31.978069 26.997745,27.140456 26.997745,27.140456 C 18.528582,18.264221 13.291696,25.230495 11.500037,31.436501 z"
             style="fill:#404040;"/>
          </a>
         </g>
        </svg>
</svg>
