<?xml version="1.0" encoding="UTF-8" standalone="no"?>
<!DOCTYPE svg PUBLIC "-//W3C//DTD SVG 1.1//EN"
 "http://www.w3.org/Graphics/SVG/1.1/DTD/svg11.dtd">
<!-- Generated by graphviz version 2.30.1 (20150305.2338)
 -->
<!-- Title: DestroySolver Pages: 1 -->
<svg width="574pt" height="77pt"
 viewBox="0.00 0.00 574.00 77.00" xmlns="http://www.w3.org/2000/svg" xmlns:xlink="http://www.w3.org/1999/xlink">
<g id="graph0" class="graph" transform="scale(1 1) rotate(0) translate(4 73)">
<title>DestroySolver</title>
<!-- Node1 -->
<g id="node1" class="node"><title>Node1</title>
<polygon fill="#bfbfbf" stroke="black" points="0.5,-27.5 0.5,-46.5 79.5,-46.5 79.5,-27.5 0.5,-27.5"/>
<text text-anchor="middle" x="40" y="-34.5" font-family="Helvetica,sans-Serif" font-size="10.00">DestroySolver</text>
</g>
<!-- Node2 -->
<g id="node2" class="node"><title>Node2</title>
<g id="a_node2"><a xlink:href="com__c_09_09_8hpp_aee2bdea02bb47943444e452f62372e33.html#aee2bdea02bb47943444e452f62372e33" target="_top" xlink:title="COM_delete_window">
<polygon fill="none" stroke="black" points="116,-27.5 116,-46.5 226,-46.5 226,-27.5 116,-27.5"/>
<text text-anchor="middle" x="171" y="-34.5" font-family="Helvetica,sans-Serif" font-size="10.00">COM_delete_window</text>
</a>
</g>
</g>
<!-- Node1&#45;&gt;Node2 -->
<g id="edge1" class="edge"><title>Node1&#45;&gt;Node2</title>
<path fill="none" stroke="midnightblue" d="M79.7043,-37C87.8122,-37 96.5712,-37 105.334,-37"/>
<polygon fill="midnightblue" stroke="midnightblue" points="105.585,-40.5001 115.585,-37 105.584,-33.5001 105.585,-40.5001"/>
</g>
<!-- Node3 -->
<g id="node3" class="node"><title>Node3</title>
<g id="a_node3"><a xlink:href="COM__base_8hpp_a49353596e53127db61529b5c9000549d.html#a49353596e53127db61529b5c9000549d" target="_top" xlink:title="COM_get_com">
<polygon fill="none" stroke="black" points="284.5,-49.5 284.5,-68.5 367.5,-68.5 367.5,-49.5 284.5,-49.5"/>
<text text-anchor="middle" x="326" y="-56.5" font-family="Helvetica,sans-Serif" font-size="10.00">COM_get_com</text>
</a>
</g>
</g>
<!-- Node2&#45;&gt;Node3 -->
<g id="edge2" class="edge"><title>Node2&#45;&gt;Node3</title>
<path fill="none" stroke="midnightblue" d="M226.373,-44.8183C241.866,-47.046 258.683,-49.4642 273.969,-51.6622"/>
<polygon fill="midnightblue" stroke="midnightblue" points="273.876,-55.1847 284.272,-53.1437 274.872,-48.256 273.876,-55.1847"/>
</g>
<!-- Node5 -->
<g id="node5" class="node"><title>Node5</title>
<g id="a_node5"><a xlink:href="classCOM_1_1COM__base_ad19a2baf9f3506b153d077429ad0cf4c.html#ad19a2baf9f3506b153d077429ad0cf4c" target="_top" xlink:title="Deletes a window with given name. ">
<polygon fill="none" stroke="black" points="262,-0 262,-30 390,-30 390,-0 262,-0"/>
<text text-anchor="start" x="270" y="-18" font-family="Helvetica,sans-Serif" font-size="10.00">COM::COM_base::delete</text>
<text text-anchor="middle" x="326" y="-7" font-family="Helvetica,sans-Serif" font-size="10.00">_window</text>
</a>
</g>
</g>
<!-- Node2&#45;&gt;Node5 -->
<g id="edge4" class="edge"><title>Node2&#45;&gt;Node5</title>
<path fill="none" stroke="midnightblue" d="M226.373,-29.1817C234.645,-27.9922 243.295,-26.7484 251.889,-25.5128"/>
<polygon fill="midnightblue" stroke="midnightblue" points="252.524,-28.9575 261.924,-24.0698 251.527,-22.0288 252.524,-28.9575"/>
</g>
<!-- Node4 -->
<g id="node4" class="node"><title>Node4</title>
<g id="a_node4"><a xlink:href="classCOM_1_1COM__base_a77bb770b9ec1aac99361c45efbccabc1.html#a77bb770b9ec1aac99361c45efbccabc1" target="_top" xlink:title="Get a pointer to the COM object. ">
<polygon fill="none" stroke="black" points="426.5,-49.5 426.5,-68.5 565.5,-68.5 565.5,-49.5 426.5,-49.5"/>
<text text-anchor="middle" x="496" y="-56.5" font-family="Helvetica,sans-Serif" font-size="10.00">COM::COM_base::get_com</text>
</a>
</g>
</g>
<!-- Node3&#45;&gt;Node4 -->
<g id="edge3" class="edge"><title>Node3&#45;&gt;Node4</title>
<path fill="none" stroke="midnightblue" d="M367.668,-59C382.224,-59 399.17,-59 415.86,-59"/>
<polygon fill="midnightblue" stroke="midnightblue" points="416.195,-62.5001 426.195,-59 416.195,-55.5001 416.195,-62.5001"/>
</g>
</g>
</svg>
