<?xml version="1.0" encoding="UTF-8" standalone="no"?>
<!DOCTYPE svg PUBLIC "-//W3C//DTD SVG 1.1//EN"
 "http://www.w3.org/Graphics/SVG/1.1/DTD/svg11.dtd">
<!-- Generated by graphviz version 2.26.0 (20091210.2329)
 -->
<!-- Title: MidPointQuadrature Pages: 1 -->
<svg width="674pt" height="94pt"
 viewBox="0.00 0.00 674.00 94.00" xmlns="http://www.w3.org/2000/svg" xmlns:xlink="http://www.w3.org/1999/xlink">
<g id="graph1" class="graph" transform="scale(1 1) rotate(0) translate(4 90)">
<title>MidPointQuadrature</title>
<!-- Node1 -->
<g id="node1" class="node"><title>Node1</title>
<polygon fill="#bfbfbf" stroke="black" points="0.5,-32.5 0.5,-53.5 103.5,-53.5 103.5,-32.5 0.5,-32.5"/>
<text text-anchor="middle" x="52" y="-40.5" font-family="Helvetica,sans-Serif" font-size="10.00">MidPointQuadrature</text>
</g>
<!-- Node2 -->
<g id="node3" class="node"><title>Node2</title>
<a xlink:href="classElmerModuleDriver_1_1TestingObject_a7de28a366b07117111ce7c1e9515a434.html#a7de28a366b07117111ce7c1e9515a434" target="_top" xlink:title="Test for ElmerModuleDriver::MidPointQuadrature. ">
<polygon fill="none" stroke="black" points="140.5,-19.5 140.5,-66.5 253.5,-66.5 253.5,-19.5 140.5,-19.5"/>
<text text-anchor="start" x="148.5" y="-53.5" font-family="Helvetica,sans-Serif" font-size="10.00">ElmerModuleDriver::</text>
<text text-anchor="start" x="148.5" y="-40.5" font-family="Helvetica,sans-Serif" font-size="10.00">TestingObject::Test</text>
<text text-anchor="middle" x="197" y="-27.5" font-family="Helvetica,sans-Serif" font-size="10.00">__MidPointQuadrature</text>
</a>
</g>
<!-- Node1&#45;&gt;Node2 -->
<g id="edge2" class="edge"><title>Node1&#45;&gt;Node2</title>
<path fill="none" stroke="midnightblue" d="M113.721,-43C122.514,-43 131.523,-43 140.216,-43"/>
<polygon fill="midnightblue" stroke="midnightblue" points="113.53,-39.5001 103.53,-43 113.53,-46.5001 113.53,-39.5001"/>
</g>
<!-- Node3 -->
<g id="node5" class="node"><title>Node3</title>
<a xlink:href="classElmerModuleDriver_1_1TestingObject_a046f7ab06db0acf616b0d2bf3d3146aa.html#a046f7ab06db0acf616b0d2bf3d3146aa" target="_top" xlink:title="ElmerModuleDriver::\lTestingObject::Process">
<polygon fill="none" stroke="black" points="291.5,-52 291.5,-86 410.5,-86 410.5,-52 291.5,-52"/>
<text text-anchor="start" x="299.5" y="-73" font-family="Helvetica,sans-Serif" font-size="10.00">ElmerModuleDriver::</text>
<text text-anchor="middle" x="351" y="-60" font-family="Helvetica,sans-Serif" font-size="10.00">TestingObject::Process</text>
</a>
</g>
<!-- Node2&#45;&gt;Node3 -->
<g id="edge4" class="edge"><title>Node2&#45;&gt;Node3</title>
<path fill="none" stroke="midnightblue" d="M263.799,-54.2777C273.011,-55.833 282.421,-57.4218 291.49,-58.9528"/>
<polygon fill="midnightblue" stroke="midnightblue" points="264.35,-50.8212 253.906,-52.6076 263.184,-57.7236 264.35,-50.8212"/>
</g>
<!-- Node6 -->
<g id="node11" class="node"><title>Node6</title>
<a xlink:href="classElmerModuleDriver_1_1TestingObject_af1f07f14b9af7708e4264bb38937eed2.html#af1f07f14b9af7708e4264bb38937eed2" target="_top" xlink:title="Runs a test specified by name. ">
<polygon fill="none" stroke="black" points="290.5,-0 290.5,-34 411.5,-34 411.5,-0 290.5,-0"/>
<text text-anchor="start" x="298.5" y="-21" font-family="Helvetica,sans-Serif" font-size="10.00">ElmerModuleDriver::</text>
<text text-anchor="middle" x="351" y="-8" font-family="Helvetica,sans-Serif" font-size="10.00">TestingObject::RunTest</text>
</a>
</g>
<!-- Node2&#45;&gt;Node6 -->
<g id="edge10" class="edge"><title>Node2&#45;&gt;Node6</title>
<path fill="none" stroke="midnightblue" d="M263.805,-31.7212C272.664,-30.2255 281.707,-28.6989 290.452,-27.2224"/>
<polygon fill="midnightblue" stroke="midnightblue" points="263.184,-28.2764 253.906,-33.3924 264.35,-35.1788 263.184,-28.2764"/>
</g>
<!-- Node4 -->
<g id="node7" class="node"><title>Node4</title>
<a xlink:href="namespaceElmerModuleDriver_a657930328d3dc159ded2e9fd6473b2b6.html#a657930328d3dc159ded2e9fd6473b2b6" target="_top" xlink:title="Drives the ElmerModuleDriver::TestObject. ">
<polygon fill="none" stroke="black" points="502,-55.5 502,-76.5 538,-76.5 538,-55.5 502,-55.5"/>
<text text-anchor="middle" x="520" y="-63.5" font-family="Helvetica,sans-Serif" font-size="10.00">Test</text>
</a>
</g>
<!-- Node3&#45;&gt;Node4 -->
<g id="edge6" class="edge"><title>Node3&#45;&gt;Node4</title>
<path fill="none" stroke="midnightblue" d="M420.898,-67.7592C450.417,-67.2352 482.389,-66.6676 501.807,-66.3229"/>
<polygon fill="midnightblue" stroke="midnightblue" points="420.519,-64.2653 410.583,-67.9423 420.644,-71.2642 420.519,-64.2653"/>
</g>
<!-- Node5 -->
<g id="node9" class="node"><title>Node5</title>
<a xlink:href="TestElmerModuleDriver_8C_a0ddf1224851353fc92bfbff6f499fa97.html#a0ddf1224851353fc92bfbff6f499fa97" target="_top" xlink:title="main">
<polygon fill="none" stroke="black" points="628,-55.5 628,-76.5 666,-76.5 666,-55.5 628,-55.5"/>
<text text-anchor="middle" x="647" y="-63.5" font-family="Helvetica,sans-Serif" font-size="10.00">main</text>
</a>
</g>
<!-- Node4&#45;&gt;Node5 -->
<g id="edge8" class="edge"><title>Node4&#45;&gt;Node5</title>
<path fill="none" stroke="midnightblue" d="M548.502,-66C572.609,-66 606.502,-66 627.588,-66"/>
<polygon fill="midnightblue" stroke="midnightblue" points="548.196,-62.5001 538.196,-66 548.196,-69.5001 548.196,-62.5001"/>
</g>
<!-- Node6&#45;&gt;Node4 -->
<g id="edge14" class="edge"><title>Node6&#45;&gt;Node4</title>
<path fill="none" stroke="midnightblue" d="M419.27,-36.7944C449.322,-45.5075 482.219,-55.0458 501.977,-60.7743"/>
<polygon fill="midnightblue" stroke="midnightblue" points="420.213,-33.4235 409.634,-34.0003 418.263,-40.1467 420.213,-33.4235"/>
</g>
<!-- Node7 -->
<g id="node13" class="node"><title>Node7</title>
<a xlink:href="classElmerModuleDriver_1_1TestingObject_a21159bd2efac623e5a5079f6a20f3444.html#a21159bd2efac623e5a5079f6a20f3444" target="_top" xlink:title="Runs a list of tests specified by name. ">
<polygon fill="none" stroke="black" points="448,-0 448,-34 592,-34 592,-0 448,-0"/>
<text text-anchor="start" x="456" y="-21" font-family="Helvetica,sans-Serif" font-size="10.00">ElmerModuleDriver::</text>
<text text-anchor="middle" x="520" y="-8" font-family="Helvetica,sans-Serif" font-size="10.00">TestingObject::ProcessTests</text>
</a>
</g>
<!-- Node6&#45;&gt;Node7 -->
<g id="edge12" class="edge"><title>Node6&#45;&gt;Node7</title>
<path fill="none" stroke="midnightblue" d="M421.582,-17C430.238,-17 439.094,-17 447.773,-17"/>
<polygon fill="midnightblue" stroke="midnightblue" points="421.536,-13.5001 411.536,-17 421.535,-20.5001 421.536,-13.5001"/>
</g>
</g>
</svg>
