<?xml version="1.0" encoding="UTF-8" standalone="no"?>
<!DOCTYPE svg PUBLIC "-//W3C//DTD SVG 1.1//EN"
 "http://www.w3.org/Graphics/SVG/1.1/DTD/svg11.dtd">
<!-- Generated by graphviz version 2.30.1 (20150305.2338)
 -->
<!-- Title: PopulateSolutionMetaDataFromPane Pages: 1 -->
<!--zoomable 381 -->
<svg id="main" version="1.1" xmlns="http://www.w3.org/2000/svg" xmlns:xlink="http://www.w3.org/1999/xlink" xml:space="preserve" onload="init(evt)">
<style type="text/css"><![CDATA[
.edge:hover path { stroke: red; }
.edge:hover polygon { stroke: red; fill: red; }
]]></style>
<script type="text/javascript"><![CDATA[
var edges = document.getElementsByTagName('g');
if (edges && edges.length) {
  for (var i=0;i<edges.length;i++) {
    if (edges[i].id.substr(0,4)=='edge') {
      edges[i].setAttribute('class','edge');
    }
  }
}
]]></script>
        <defs>
                <circle id="rim" cx="0" cy="0" r="7"/>
                <circle id="rim2" cx="0" cy="0" r="3.5"/>
                <g id="zoomPlus">
                        <use xlink:href="#rim" fill="#404040">
                                <set attributeName="fill" to="#808080" begin="zoomplus.mouseover" end="zoomplus.mouseout"/>
                        </use>
                        <path d="M-4,0h8M0,-4v8" fill="none" stroke="white" stroke-width="1.5" pointer-events="none"/>
                </g>
                <g id="zoomMin">
                        <use xlink:href="#rim" fill="#404040">
                                <set attributeName="fill" to="#808080" begin="zoomminus.mouseover" end="zoomminus.mouseout"/>
                        </use>
                        <path d="M-4,0h8" fill="none" stroke="white" stroke-width="1.5" pointer-events="none"/>
                </g>
                <g id="dirArrow">
                        <path fill="none" stroke="white" stroke-width="1.5" d="M0,-3.0v7 M-2.5,-0.5L0,-3.0L2.5,-0.5"/>
                </g>
               <g id="resetDef">
                       <use xlink:href="#rim2" fill="#404040">
                               <set attributeName="fill" to="#808080" begin="reset.mouseover" end="reset.mouseout"/>
                       </use>
               </g>
        </defs>

<script type="text/javascript">
var viewWidth = 1618;
var viewHeight = 381;
var sectionId = 'dynsection-1';
</script>
<script xlink:href="svgpan.js"/>
<svg id="graph" class="graph">
<g id="viewport">
<title>PopulateSolutionMetaDataFromPane</title>
<!-- Node1 -->
<g id="node1" class="node"><title>Node1</title>
<polygon fill="#bfbfbf" stroke="black" points="0.5,-133 0.5,-163 133.5,-163 133.5,-133 0.5,-133"/>
<text text-anchor="start" x="8.5" y="-151" font-family="Helvetica,sans-Serif" font-size="10.00">PopulateSolutionMetaData</text>
<text text-anchor="middle" x="67" y="-140" font-family="Helvetica,sans-Serif" font-size="10.00">FromPane</text>
</g>
<!-- Node2 -->
<g id="node2" class="node"><title>Node2</title>
<g id="a_node2"><a xlink:href="namespaceSolverUtils_a29210d58c0891b69a17bc8281ecc92cc.html#a29210d58c0891b69a17bc8281ecc92cc" target="_top" xlink:title="CreateSolutionFromPane">
<polygon fill="none" stroke="black" points="170,-138.5 170,-157.5 296,-157.5 296,-138.5 170,-138.5"/>
<text text-anchor="middle" x="233" y="-145.5" font-family="Helvetica,sans-Serif" font-size="10.00">CreateSolutionFromPane</text>
</a>
</g>
</g>
<!-- Node1&#45;&gt;Node2 -->
<g id="edge1" class="edge"><title>Node1&#45;&gt;Node2</title>
<path fill="none" stroke="midnightblue" d="M143.925,-148C152.641,-148 161.448,-148 169.951,-148"/>
<polygon fill="midnightblue" stroke="midnightblue" points="143.76,-144.5 133.76,-148 143.76,-151.5 143.76,-144.5"/>
</g>
<!-- Node3 -->
<g id="node3" class="node"><title>Node3</title>
<g id="a_node3"><a xlink:href="namespaceSolverUtils_aba6560399de412c7861129dc7c4a260e.html#aba6560399de412c7861129dc7c4a260e" target="_top" xlink:title="PaneToAgent">
<polygon fill="none" stroke="black" points="332,-138.5 332,-157.5 408,-157.5 408,-138.5 332,-138.5"/>
<text text-anchor="middle" x="370" y="-145.5" font-family="Helvetica,sans-Serif" font-size="10.00">PaneToAgent</text>
</a>
</g>
</g>
<!-- Node2&#45;&gt;Node3 -->
<g id="edge2" class="edge"><title>Node2&#45;&gt;Node3</title>
<path fill="none" stroke="midnightblue" d="M306.64,-148C315.379,-148 324.003,-148 331.921,-148"/>
<polygon fill="midnightblue" stroke="midnightblue" points="306.363,-144.5 296.363,-148 306.363,-151.5 306.363,-144.5"/>
</g>
<!-- Node4 -->
<g id="node4" class="node"><title>Node4</title>
<g id="a_node4"><a xlink:href="namespaceSolverUtils_a9da67f474f0ef835bb9707e6598de2bd.html#a9da67f474f0ef835bb9707e6598de2bd" target="_top" xlink:title="PopulateSolverAgentFromWindow">
<polygon fill="none" stroke="black" points="444,-138.5 444,-157.5 610,-157.5 610,-138.5 444,-138.5"/>
<text text-anchor="middle" x="527" y="-145.5" font-family="Helvetica,sans-Serif" font-size="10.00">PopulateSolverAgentFromWindow</text>
</a>
</g>
</g>
<!-- Node3&#45;&gt;Node4 -->
<g id="edge3" class="edge"><title>Node3&#45;&gt;Node4</title>
<path fill="none" stroke="midnightblue" d="M418.13,-148C426.28,-148 434.962,-148 443.725,-148"/>
<polygon fill="midnightblue" stroke="midnightblue" points="418.126,-144.5 408.126,-148 418.126,-151.5 418.126,-144.5"/>
</g>
<!-- Node5 -->
<g id="node5" class="node"><title>Node5</title>
<g id="a_node5"><a xlink:href="classopenfoamagent_a9a8261713154978fa009d8cb2c533055.html#a9a8261713154978fa009d8cb2c533055" target="_top" xlink:title="openfoamagent::Initialize">
<polygon fill="none" stroke="black" points="653.5,-157.5 653.5,-176.5 778.5,-176.5 778.5,-157.5 653.5,-157.5"/>
<text text-anchor="middle" x="716" y="-164.5" font-family="Helvetica,sans-Serif" font-size="10.00">openfoamagent::Initialize</text>
</a>
</g>
</g>
<!-- Node4&#45;&gt;Node5 -->
<g id="edge4" class="edge"><title>Node4&#45;&gt;Node5</title>
<path fill="none" stroke="midnightblue" d="M620.276,-157.376C631.471,-158.513 642.688,-159.653 653.287,-160.73"/>
<polygon fill="midnightblue" stroke="midnightblue" points="620.324,-153.863 610.021,-156.334 619.616,-160.827 620.324,-153.863"/>
</g>
<!-- Node20 -->
<g id="node20" class="node"><title>Node20</title>
<g id="a_node20"><a xlink:href="classopenfoamagentpar_a9a8261713154978fa009d8cb2c533055.html#a9a8261713154978fa009d8cb2c533055" target="_top" xlink:title="openfoamagentpar::Initialize">
<polygon fill="none" stroke="black" points="646.5,-119.5 646.5,-138.5 785.5,-138.5 785.5,-119.5 646.5,-119.5"/>
<text text-anchor="middle" x="716" y="-126.5" font-family="Helvetica,sans-Serif" font-size="10.00">openfoamagentpar::Initialize</text>
</a>
</g>
</g>
<!-- Node4&#45;&gt;Node20 -->
<g id="edge30" class="edge"><title>Node4&#45;&gt;Node20</title>
<path fill="none" stroke="midnightblue" d="M620.045,-138.648C628.945,-137.744 637.863,-136.837 646.476,-135.962"/>
<polygon fill="midnightblue" stroke="midnightblue" points="619.616,-135.173 610.021,-139.666 620.324,-142.137 619.616,-135.173"/>
</g>
<!-- Node22 -->
<g id="node22" class="node"><title>Node22</title>
<g id="a_node22"><a xlink:href="classelmeragent_a66d8ac5294227a11adf08cdfa91f59b5.html#a66d8ac5294227a11adf08cdfa91f59b5" target="_top" xlink:title="elmeragent::Initialize">
<polygon fill="none" stroke="black" points="662.5,-195.5 662.5,-214.5 769.5,-214.5 769.5,-195.5 662.5,-195.5"/>
<text text-anchor="middle" x="716" y="-202.5" font-family="Helvetica,sans-Serif" font-size="10.00">elmeragent::Initialize</text>
</a>
</g>
</g>
<!-- Node4&#45;&gt;Node22 -->
<g id="edge32" class="edge"><title>Node4&#45;&gt;Node22</title>
<path fill="none" stroke="midnightblue" d="M566.244,-160.774C589.276,-168.353 619.233,-178.009 646,-186 656.715,-189.199 668.424,-192.497 679.104,-195.429"/>
<polygon fill="midnightblue" stroke="midnightblue" points="567.1,-157.371 556.506,-157.558 564.904,-164.018 567.1,-157.371"/>
</g>
<!-- Node24 -->
<g id="node24" class="node"><title>Node24</title>
<g id="a_node24"><a xlink:href="classelmeragentpar_a66d8ac5294227a11adf08cdfa91f59b5.html#a66d8ac5294227a11adf08cdfa91f59b5" target="_top" xlink:title="elmeragentpar::Initialize">
<polygon fill="none" stroke="black" points="656,-81.5 656,-100.5 776,-100.5 776,-81.5 656,-81.5"/>
<text text-anchor="middle" x="716" y="-88.5" font-family="Helvetica,sans-Serif" font-size="10.00">elmeragentpar::Initialize</text>
</a>
</g>
</g>
<!-- Node4&#45;&gt;Node24 -->
<g id="edge37" class="edge"><title>Node4&#45;&gt;Node24</title>
<path fill="none" stroke="midnightblue" d="M566.244,-135.226C589.276,-127.647 619.233,-117.991 646,-110 656.715,-106.801 668.424,-103.503 679.104,-100.571"/>
<polygon fill="midnightblue" stroke="midnightblue" points="564.904,-131.982 556.506,-138.442 567.1,-138.629 564.904,-131.982"/>
</g>
<!-- Node6 -->
<g id="node6" class="node"><title>Node6</title>
<g id="a_node6"><a xlink:href="classfsicoupling_ae855141f7b214925c25f7797b8b122a8.html#ae855141f7b214925c25f7797b8b122a8" target="_top" xlink:title="fsicoupling::Initialize">
<polygon fill="none" stroke="black" points="829.5,-176.5 829.5,-195.5 934.5,-195.5 934.5,-176.5 829.5,-176.5"/>
<text text-anchor="middle" x="882" y="-183.5" font-family="Helvetica,sans-Serif" font-size="10.00">fsicoupling::Initialize</text>
</a>
</g>
</g>
<!-- Node5&#45;&gt;Node6 -->
<g id="edge5" class="edge"><title>Node5&#45;&gt;Node6</title>
<path fill="none" stroke="midnightblue" d="M788.85,-175.324C802.47,-176.902 816.469,-178.524 829.313,-180.012"/>
<polygon fill="midnightblue" stroke="midnightblue" points="788.871,-171.803 778.534,-174.129 788.065,-178.757 788.871,-171.803"/>
</g>
<!-- Node19 -->
<g id="node19" class="node"><title>Node19</title>
<g id="a_node19"><a xlink:href="classElmerFoamFSI_1_1TestingObject_a08d0370a943e7c47c0098eb76664a71b.html#a08d0370a943e7c47c0098eb76664a71b" target="_top" xlink:title="Run an initialization check to make sure the OpenFoamFluids are running as they should. ">
<polygon fill="none" stroke="black" points="996.5,-0 996.5,-30 1145.5,-30 1145.5,-0 996.5,-0"/>
<text text-anchor="start" x="1004.5" y="-18" font-family="Helvetica,sans-Serif" font-size="10.00">ElmerFoamFSI::TestingObject</text>
<text text-anchor="middle" x="1071" y="-7" font-family="Helvetica,sans-Serif" font-size="10.00">::Test__OpenFoamFluids</text>
</a>
</g>
</g>
<!-- Node5&#45;&gt;Node19 -->
<g id="edge27" class="edge"><title>Node5&#45;&gt;Node19</title>
<path fill="none" stroke="midnightblue" d="M788.975,-163.943C836.854,-158.532 898.672,-144.668 942,-110 969.625,-87.896 950.453,-61.2015 978,-39 983.526,-34.546 989.792,-30.9111 996.392,-27.9458"/>
<polygon fill="midnightblue" stroke="midnightblue" points="788.569,-160.466 778.981,-164.973 789.287,-167.429 788.569,-160.466"/>
</g>
<!-- Node7 -->
<g id="node7" class="node"><title>Node7</title>
<g id="a_node7"><a xlink:href="classElmerFoamFSI_1_1SerialDriverProgram_a5803949d99491a7186bf1ee9cee81a3b.html#a5803949d99491a7186bf1ee9cee81a3b" target="_top" xlink:title="This function implements the main function executed by the program. ">
<polygon fill="none" stroke="black" points="1001,-343 1001,-373 1141,-373 1141,-343 1001,-343"/>
<text text-anchor="start" x="1009" y="-361" font-family="Helvetica,sans-Serif" font-size="10.00">ElmerFoamFSI::SerialDriver</text>
<text text-anchor="middle" x="1071" y="-350" font-family="Helvetica,sans-Serif" font-size="10.00">Program::DriverRun</text>
</a>
</g>
</g>
<!-- Node6&#45;&gt;Node7 -->
<g id="edge6" class="edge"><title>Node6&#45;&gt;Node7</title>
<path fill="none" stroke="midnightblue" d="M890.011,-205.036C902.62,-236.572 932.156,-299.491 978,-333 984.815,-337.981 992.566,-341.97 1000.61,-345.164"/>
<polygon fill="midnightblue" stroke="midnightblue" points="893.249,-203.703 886.385,-195.632 886.718,-206.222 893.249,-203.703"/>
</g>
<!-- Node9 -->
<g id="node9" class="node"><title>Node9</title>
<g id="a_node9"><a xlink:href="classElmerFoamFSI_1_1TestingObject_aa7d577bcec96bb12da930ede076b6023.html#aa7d577bcec96bb12da930ede076b6023" target="_top" xlink:title="Test for fluidAgent&#45;&gt;Run() function. ">
<polygon fill="none" stroke="black" points="996.5,-49 996.5,-79 1145.5,-79 1145.5,-49 996.5,-49"/>
<text text-anchor="start" x="1004.5" y="-67" font-family="Helvetica,sans-Serif" font-size="10.00">ElmerFoamFSI::TestingObject</text>
<text text-anchor="middle" x="1071" y="-56" font-family="Helvetica,sans-Serif" font-size="10.00">::Test__FluidAgentRun</text>
</a>
</g>
</g>
<!-- Node6&#45;&gt;Node9 -->
<g id="edge8" class="edge"><title>Node6&#45;&gt;Node9</title>
<path fill="none" stroke="midnightblue" d="M907.778,-170.888C918.983,-163.347 931.938,-153.581 942,-143 962.133,-121.829 954.277,-105.051 978,-88 983.63,-83.9537 989.888,-80.5891 996.418,-77.7914"/>
<polygon fill="midnightblue" stroke="midnightblue" points="905.729,-168.046 899.255,-176.433 909.546,-173.914 905.729,-168.046"/>
</g>
<!-- Node15 -->
<g id="node15" class="node"><title>Node15</title>
<g id="a_node15"><a xlink:href="classElmerFoamFSI_1_1TestingObject_a07ff57097065c5066a4421176b63242b.html#a07ff57097065c5066a4421176b63242b" target="_top" xlink:title="Test the functionality of the fsiCoupler. ">
<polygon fill="none" stroke="black" points="996.5,-245 996.5,-275 1145.5,-275 1145.5,-245 996.5,-245"/>
<text text-anchor="start" x="1004.5" y="-263" font-family="Helvetica,sans-Serif" font-size="10.00">ElmerFoamFSI::TestingObject</text>
<text text-anchor="middle" x="1071" y="-252" font-family="Helvetica,sans-Serif" font-size="10.00">::Test__FsiCoupler</text>
</a>
</g>
</g>
<!-- Node6&#45;&gt;Node15 -->
<g id="edge15" class="edge"><title>Node6&#45;&gt;Node15</title>
<path fill="none" stroke="midnightblue" d="M907.785,-200.623C926.573,-211.249 953.289,-225.394 978,-235 987.41,-238.658 997.56,-241.993 1007.56,-244.95"/>
<polygon fill="midnightblue" stroke="midnightblue" points="909.405,-197.518 898.989,-195.578 905.922,-203.589 909.405,-197.518"/>
</g>
<!-- Node16 -->
<g id="node16" class="node"><title>Node16</title>
<g id="a_node16"><a xlink:href="classElmerFoamFSI_1_1TestingObject_a1fae1ccecf337df1572d5a43cdae1a08.html#a1fae1ccecf337df1572d5a43cdae1a08" target="_top" xlink:title="Test for solidAgent&#45;&gt;Run() function. ">
<polygon fill="none" stroke="black" points="996.5,-196 996.5,-226 1145.5,-226 1145.5,-196 996.5,-196"/>
<text text-anchor="start" x="1004.5" y="-214" font-family="Helvetica,sans-Serif" font-size="10.00">ElmerFoamFSI::TestingObject</text>
<text text-anchor="middle" x="1071" y="-203" font-family="Helvetica,sans-Serif" font-size="10.00">::Test__SolidAgentRun</text>
</a>
</g>
</g>
<!-- Node6&#45;&gt;Node16 -->
<g id="edge18" class="edge"><title>Node6&#45;&gt;Node16</title>
<path fill="none" stroke="midnightblue" d="M944.641,-194.241C961.125,-196.445 979.109,-198.849 996.177,-201.131"/>
<polygon fill="midnightblue" stroke="midnightblue" points="944.969,-190.754 934.594,-192.898 944.042,-197.692 944.969,-190.754"/>
</g>
<!-- Node17 -->
<g id="node17" class="node"><title>Node17</title>
<g id="a_node17"><a xlink:href="classElmerFoamFSI_1_1TestingObject_abb3c0f68a2d2e212fa6e05e4628c78f0.html#abb3c0f68a2d2e212fa6e05e4628c78f0" target="_top" xlink:title="Test for fsiCoupling::TrasferDisplacementsToFluid function. ">
<polygon fill="none" stroke="black" points="978,-147 978,-177 1164,-177 1164,-147 978,-147"/>
<text text-anchor="start" x="986" y="-165" font-family="Helvetica,sans-Serif" font-size="10.00">ElmerFoamFSI::TestingObject</text>
<text text-anchor="middle" x="1071" y="-154" font-family="Helvetica,sans-Serif" font-size="10.00">::Test__TransferDisplacementsToFluid</text>
</a>
</g>
</g>
<!-- Node6&#45;&gt;Node17 -->
<g id="edge21" class="edge"><title>Node6&#45;&gt;Node17</title>
<path fill="none" stroke="midnightblue" d="M944.567,-178.098C955.192,-176.735 966.441,-175.291 977.668,-173.85"/>
<polygon fill="midnightblue" stroke="midnightblue" points="944.067,-174.634 934.594,-179.378 944.958,-181.577 944.067,-174.634"/>
</g>
<!-- Node18 -->
<g id="node18" class="node"><title>Node18</title>
<g id="a_node18"><a xlink:href="classElmerFoamFSI_1_1TestingObject_a8c738943eca358248eb583bd29c5c332.html#a8c738943eca358248eb583bd29c5c332" target="_top" xlink:title="Test for TransferLoadsToStructures() function. ">
<polygon fill="none" stroke="black" points="985.5,-98 985.5,-128 1156.5,-128 1156.5,-98 985.5,-98"/>
<text text-anchor="start" x="993.5" y="-116" font-family="Helvetica,sans-Serif" font-size="10.00">ElmerFoamFSI::TestingObject</text>
<text text-anchor="middle" x="1071" y="-105" font-family="Helvetica,sans-Serif" font-size="10.00">::Test__TransferLoadsToStructures</text>
</a>
</g>
</g>
<!-- Node6&#45;&gt;Node18 -->
<g id="edge24" class="edge"><title>Node6&#45;&gt;Node18</title>
<path fill="none" stroke="midnightblue" d="M907.756,-171.303C926.53,-160.64 953.241,-146.481 978,-137 986.633,-133.694 995.891,-130.687 1005.09,-128.005"/>
<polygon fill="midnightblue" stroke="midnightblue" points="905.884,-168.343 898.969,-176.369 909.38,-174.407 905.884,-168.343"/>
</g>
<!-- Node8 -->
<g id="node8" class="node"><title>Node8</title>
<g id="a_node8"><a xlink:href="namespaceElmerFoamFSI_aff46f457934a8e2d3712bdbfb1688e99.html#aff46f457934a8e2d3712bdbfb1688e99" target="_top" xlink:title="Unified driver for the example programs. ">
<polygon fill="none" stroke="black" points="1217.5,-348.5 1217.5,-367.5 1332.5,-367.5 1332.5,-348.5 1217.5,-348.5"/>
<text text-anchor="middle" x="1275" y="-355.5" font-family="Helvetica,sans-Serif" font-size="10.00">ElmerFoamFSI::Driver</text>
</a>
</g>
</g>
<!-- Node7&#45;&gt;Node8 -->
<g id="edge7" class="edge"><title>Node7&#45;&gt;Node8</title>
<path fill="none" stroke="midnightblue" d="M1151.24,-358C1173.28,-358 1196.78,-358 1217.25,-358"/>
<polygon fill="midnightblue" stroke="midnightblue" points="1151.23,-354.5 1141.23,-358 1151.23,-361.5 1151.23,-354.5"/>
</g>
<!-- Node10 -->
<g id="node10" class="node"><title>Node10</title>
<g id="a_node10"><a xlink:href="classElmerFoamFSI_1_1TestingObject_a046f7ab06db0acf616b0d2bf3d3146aa.html#a046f7ab06db0acf616b0d2bf3d3146aa" target="_top" xlink:title="Runs all tests implemented by the ElmerFoamFSI::TestingObject. ">
<polygon fill="none" stroke="black" points="1200.5,-122 1200.5,-152 1349.5,-152 1349.5,-122 1200.5,-122"/>
<text text-anchor="start" x="1208.5" y="-140" font-family="Helvetica,sans-Serif" font-size="10.00">ElmerFoamFSI::TestingObject</text>
<text text-anchor="middle" x="1275" y="-129" font-family="Helvetica,sans-Serif" font-size="10.00">::Process</text>
</a>
</g>
</g>
<!-- Node9&#45;&gt;Node10 -->
<g id="edge9" class="edge"><title>Node9&#45;&gt;Node10</title>
<path fill="none" stroke="midnightblue" d="M1145.29,-81.9503C1151.66,-83.8624 1157.97,-85.8859 1164,-88 1191.62,-97.6814 1221.93,-111.428 1243.73,-121.899"/>
<polygon fill="midnightblue" stroke="midnightblue" points="1145.84,-78.4672 1135.26,-79.0403 1143.89,-85.1896 1145.84,-78.4672"/>
</g>
<!-- Node13 -->
<g id="node13" class="node"><title>Node13</title>
<g id="a_node13"><a xlink:href="classElmerFoamFSI_1_1TestingObject_af1f07f14b9af7708e4264bb38937eed2.html#af1f07f14b9af7708e4264bb38937eed2" target="_top" xlink:title="Runs a test specified by name. ">
<polygon fill="none" stroke="black" points="1200.5,-171 1200.5,-201 1349.5,-201 1349.5,-171 1200.5,-171"/>
<text text-anchor="start" x="1208.5" y="-189" font-family="Helvetica,sans-Serif" font-size="10.00">ElmerFoamFSI::TestingObject</text>
<text text-anchor="middle" x="1275" y="-178" font-family="Helvetica,sans-Serif" font-size="10.00">::RunTest</text>
</a>
</g>
</g>
<!-- Node9&#45;&gt;Node13 -->
<g id="edge12" class="edge"><title>Node9&#45;&gt;Node13</title>
<path fill="none" stroke="midnightblue" d="M1154.66,-81.532C1157.94,-83.4691 1161.08,-85.6175 1164,-88 1192.04,-110.857 1172.78,-137.168 1200,-161 1204.39,-164.841 1209.39,-168.098 1214.67,-170.857"/>
<polygon fill="midnightblue" stroke="midnightblue" points="1156.15,-78.3624 1145.66,-76.8822 1152.94,-84.5816 1156.15,-78.3624"/>
</g>
<!-- Node11 -->
<g id="node11" class="node"><title>Node11</title>
<g id="a_node11"><a xlink:href="namespaceElmerFoamFSI_aeb590657609088b8ab12a5cbd164fcfa.html#aeb590657609088b8ab12a5cbd164fcfa" target="_top" xlink:title="Drives the ElmerFoamFSI::TestObject. ">
<polygon fill="none" stroke="black" points="1407,-130.5 1407,-149.5 1515,-149.5 1515,-130.5 1407,-130.5"/>
<text text-anchor="middle" x="1461" y="-137.5" font-family="Helvetica,sans-Serif" font-size="10.00">ElmerFoamFSI::Test</text>
</a>
</g>
</g>
<!-- Node10&#45;&gt;Node11 -->
<g id="edge10" class="edge"><title>Node10&#45;&gt;Node11</title>
<path fill="none" stroke="midnightblue" d="M1359.96,-138.369C1375.97,-138.63 1392.3,-138.896 1407,-139.136"/>
<polygon fill="midnightblue" stroke="midnightblue" points="1359.57,-134.862 1349.51,-138.199 1359.46,-141.861 1359.57,-134.862"/>
</g>
<!-- Node12 -->
<g id="node12" class="node"><title>Node12</title>
<g id="a_node12"><a xlink:href="TestElmerFoamFSI_8C_a0ddf1224851353fc92bfbff6f499fa97.html#a0ddf1224851353fc92bfbff6f499fa97" target="_top" xlink:title="main">
<polygon fill="none" stroke="black" points="1572,-130.5 1572,-149.5 1610,-149.5 1610,-130.5 1572,-130.5"/>
<text text-anchor="middle" x="1591" y="-137.5" font-family="Helvetica,sans-Serif" font-size="10.00">main</text>
</a>
</g>
</g>
<!-- Node11&#45;&gt;Node12 -->
<g id="edge11" class="edge"><title>Node11&#45;&gt;Node12</title>
<path fill="none" stroke="midnightblue" d="M1525.19,-140C1542.29,-140 1559.47,-140 1571.84,-140"/>
<polygon fill="midnightblue" stroke="midnightblue" points="1525.17,-136.5 1515.17,-140 1525.17,-143.5 1525.17,-136.5"/>
</g>
<!-- Node14 -->
<g id="node14" class="node"><title>Node14</title>
<g id="a_node14"><a xlink:href="classElmerFoamFSI_1_1TestingObject_a21159bd2efac623e5a5079f6a20f3444.html#a21159bd2efac623e5a5079f6a20f3444" target="_top" xlink:title="Runs a list of tests specified by name. ">
<polygon fill="none" stroke="black" points="1386.5,-171 1386.5,-201 1535.5,-201 1535.5,-171 1386.5,-171"/>
<text text-anchor="start" x="1394.5" y="-189" font-family="Helvetica,sans-Serif" font-size="10.00">ElmerFoamFSI::TestingObject</text>
<text text-anchor="middle" x="1461" y="-178" font-family="Helvetica,sans-Serif" font-size="10.00">::ProcessTests</text>
</a>
</g>
</g>
<!-- Node13&#45;&gt;Node14 -->
<g id="edge13" class="edge"><title>Node13&#45;&gt;Node14</title>
<path fill="none" stroke="midnightblue" d="M1359.53,-186C1368.46,-186 1377.5,-186 1386.3,-186"/>
<polygon fill="midnightblue" stroke="midnightblue" points="1359.51,-182.5 1349.51,-186 1359.51,-189.5 1359.51,-182.5"/>
</g>
<!-- Node13&#45;&gt;Node11 -->
<g id="edge14" class="edge"><title>Node13&#45;&gt;Node11</title>
<path fill="none" stroke="midnightblue" d="M1345.99,-168.503C1371.75,-162.061 1399.97,-155.008 1421.89,-149.529"/>
<polygon fill="midnightblue" stroke="midnightblue" points="1345.1,-165.117 1336.25,-170.938 1346.8,-171.908 1345.1,-165.117"/>
</g>
<!-- Node15&#45;&gt;Node10 -->
<g id="edge16" class="edge"><title>Node15&#45;&gt;Node10</title>
<path fill="none" stroke="midnightblue" d="M1154.69,-241.563C1157.96,-239.592 1161.09,-237.412 1164,-235 1192.17,-211.672 1172.4,-185.001 1200,-161 1203.97,-157.543 1208.46,-154.583 1213.2,-152.048"/>
<polygon fill="midnightblue" stroke="midnightblue" points="1152.91,-238.543 1145.7,-246.307 1156.18,-244.733 1152.91,-238.543"/>
</g>
<!-- Node15&#45;&gt;Node13 -->
<g id="edge17" class="edge"><title>Node15&#45;&gt;Node13</title>
<path fill="none" stroke="midnightblue" d="M1142.67,-241.989C1149.92,-239.786 1157.14,-237.444 1164,-235 1191.57,-225.179 1221.88,-211.445 1243.69,-201.015"/>
<polygon fill="midnightblue" stroke="midnightblue" points="1141.39,-238.718 1132.79,-244.905 1143.37,-245.432 1141.39,-238.718"/>
</g>
<!-- Node16&#45;&gt;Node10 -->
<g id="edge19" class="edge"><title>Node16&#45;&gt;Node10</title>
<path fill="none" stroke="midnightblue" d="M1148.18,-192.525C1153.61,-190.532 1158.94,-188.36 1164,-186 1181.66,-177.771 1182.55,-169.653 1200,-161 1206.66,-157.7 1213.87,-154.71 1221.09,-152.05"/>
<polygon fill="midnightblue" stroke="midnightblue" points="1146.63,-189.356 1138.31,-195.921 1148.91,-195.974 1146.63,-189.356"/>
</g>
<!-- Node16&#45;&gt;Node13 -->
<g id="edge20" class="edge"><title>Node16&#45;&gt;Node13</title>
<path fill="none" stroke="midnightblue" d="M1155.91,-200.615C1170.68,-198.787 1185.96,-196.897 1200.42,-195.107"/>
<polygon fill="midnightblue" stroke="midnightblue" points="1155.28,-197.166 1145.78,-201.868 1156.14,-204.113 1155.28,-197.166"/>
</g>
<!-- Node17&#45;&gt;Node10 -->
<g id="edge22" class="edge"><title>Node17&#45;&gt;Node10</title>
<path fill="none" stroke="midnightblue" d="M1174.14,-149.358C1183.02,-148.26 1191.88,-147.163 1200.46,-146.101"/>
<polygon fill="midnightblue" stroke="midnightblue" points="1173.63,-145.896 1164.13,-150.597 1174.49,-152.843 1173.63,-145.896"/>
</g>
<!-- Node17&#45;&gt;Node13 -->
<g id="edge23" class="edge"><title>Node17&#45;&gt;Node13</title>
<path fill="none" stroke="midnightblue" d="M1174.14,-174.136C1183.02,-175.19 1191.88,-176.244 1200.46,-177.263"/>
<polygon fill="midnightblue" stroke="midnightblue" points="1174.48,-170.651 1164.13,-172.947 1173.65,-177.602 1174.48,-170.651"/>
</g>
<!-- Node18&#45;&gt;Node10 -->
<g id="edge25" class="edge"><title>Node18&#45;&gt;Node10</title>
<path fill="none" stroke="midnightblue" d="M1167.02,-124.29C1178.21,-125.619 1189.5,-126.96 1200.33,-128.247"/>
<polygon fill="midnightblue" stroke="midnightblue" points="1167.13,-120.778 1156.79,-123.074 1166.31,-127.729 1167.13,-120.778"/>
</g>
<!-- Node18&#45;&gt;Node13 -->
<g id="edge26" class="edge"><title>Node18&#45;&gt;Node13</title>
<path fill="none" stroke="midnightblue" d="M1149.72,-131.269C1154.61,-133.034 1159.41,-134.942 1164,-137 1181.55,-144.869 1182.74,-152.516 1200,-161 1207.42,-164.649 1215.51,-167.979 1223.52,-170.934"/>
<polygon fill="midnightblue" stroke="midnightblue" points="1150.81,-127.944 1140.21,-128.05 1148.56,-134.574 1150.81,-127.944"/>
</g>
<!-- Node19&#45;&gt;Node10 -->
<g id="edge28" class="edge"><title>Node19&#45;&gt;Node10</title>
<path fill="none" stroke="midnightblue" d="M1153.09,-33.7878C1156.84,-35.3914 1160.5,-37.1255 1164,-39 1204.59,-60.7268 1242.48,-100.35 1261.4,-121.961"/>
<polygon fill="midnightblue" stroke="midnightblue" points="1154.19,-30.461 1143.61,-30.0649 1151.64,-36.9769 1154.19,-30.461"/>
</g>
<!-- Node19&#45;&gt;Node13 -->
<g id="edge29" class="edge"><title>Node19&#45;&gt;Node13</title>
<path fill="none" stroke="midnightblue" d="M1154.46,-31.4498C1157.88,-33.6687 1161.08,-36.1736 1164,-39 1204.6,-78.3356 1160.81,-120.256 1200,-161 1203.76,-164.909 1208.15,-168.207 1212.89,-170.99"/>
<polygon fill="midnightblue" stroke="midnightblue" points="1156.04,-28.3202 1145.6,-26.5028 1152.62,-34.4326 1156.04,-28.3202"/>
</g>
<!-- Node21 -->
<g id="node21" class="node"><title>Node21</title>
<g id="a_node21"><a xlink:href="classfsicouplingpar_ae855141f7b214925c25f7797b8b122a8.html#ae855141f7b214925c25f7797b8b122a8" target="_top" xlink:title="fsicouplingpar::Initialize">
<polygon fill="none" stroke="black" points="822.5,-81.5 822.5,-100.5 941.5,-100.5 941.5,-81.5 822.5,-81.5"/>
<text text-anchor="middle" x="882" y="-88.5" font-family="Helvetica,sans-Serif" font-size="10.00">fsicouplingpar::Initialize</text>
</a>
</g>
</g>
<!-- Node20&#45;&gt;Node21 -->
<g id="edge31" class="edge"><title>Node20&#45;&gt;Node21</title>
<path fill="none" stroke="midnightblue" d="M768.341,-117.104C791.393,-111.763 818.221,-105.546 839.913,-100.52"/>
<polygon fill="midnightblue" stroke="midnightblue" points="767.336,-113.744 758.384,-119.411 768.916,-120.563 767.336,-113.744"/>
</g>
<!-- Node22&#45;&gt;Node6 -->
<g id="edge33" class="edge"><title>Node22&#45;&gt;Node6</title>
<path fill="none" stroke="midnightblue" d="M779.833,-197.721C796.223,-195.822 813.695,-193.798 829.426,-191.975"/>
<polygon fill="midnightblue" stroke="midnightblue" points="779.324,-194.256 769.793,-198.884 780.13,-201.21 779.324,-194.256"/>
</g>
<!-- Node23 -->
<g id="node23" class="node"><title>Node23</title>
<g id="a_node23"><a xlink:href="classElmerFoamFSI_1_1TestingObject_af35b4f0c5c244be91e637c17b3ebabd9.html#af35b4f0c5c244be91e637c17b3ebabd9" target="_top" xlink:title="Run an initialization check to make sure that the ElmerStructures are running as they should...">
<polygon fill="none" stroke="black" points="996.5,-294 996.5,-324 1145.5,-324 1145.5,-294 996.5,-294"/>
<text text-anchor="start" x="1004.5" y="-312" font-family="Helvetica,sans-Serif" font-size="10.00">ElmerFoamFSI::TestingObject</text>
<text text-anchor="middle" x="1071" y="-301" font-family="Helvetica,sans-Serif" font-size="10.00">::Test__ElmerStructures</text>
</a>
</g>
</g>
<!-- Node22&#45;&gt;Node23 -->
<g id="edge34" class="edge"><title>Node22&#45;&gt;Node23</title>
<path fill="none" stroke="midnightblue" d="M757.136,-217.537C808.289,-233.427 899.506,-261.461 978,-284 989.454,-287.289 1001.74,-290.706 1013.49,-293.918"/>
<polygon fill="midnightblue" stroke="midnightblue" points="758.043,-214.154 747.455,-214.527 755.964,-220.839 758.043,-214.154"/>
</g>
<!-- Node23&#45;&gt;Node10 -->
<g id="edge35" class="edge"><title>Node23&#45;&gt;Node10</title>
<path fill="none" stroke="midnightblue" d="M1154.49,-291.639C1157.89,-289.387 1161.09,-286.852 1164,-284 1204.67,-244.116 1160.31,-201.854 1200,-161 1203.29,-157.61 1207.07,-154.697 1211.14,-152.196"/>
<polygon fill="midnightblue" stroke="midnightblue" points="1152.6,-288.688 1145.63,-296.675 1156.06,-294.772 1152.6,-288.688"/>
</g>
<!-- Node23&#45;&gt;Node13 -->
<g id="edge36" class="edge"><title>Node23&#45;&gt;Node13</title>
<path fill="none" stroke="midnightblue" d="M1150.73,-290.302C1155.31,-288.39 1159.77,-286.294 1164,-284 1204.25,-262.189 1241.99,-222.967 1261.06,-201.345"/>
<polygon fill="midnightblue" stroke="midnightblue" points="1149.26,-287.114 1141.19,-293.976 1151.78,-293.646 1149.26,-287.114"/>
</g>
<!-- Node24&#45;&gt;Node21 -->
<g id="edge38" class="edge"><title>Node24&#45;&gt;Node21</title>
<path fill="none" stroke="midnightblue" d="M786.218,-91C798.27,-91 810.698,-91 822.429,-91"/>
<polygon fill="midnightblue" stroke="midnightblue" points="786.208,-87.5001 776.208,-91 786.208,-94.5001 786.208,-87.5001"/>
</g>
</g>
</svg>
        <g id="navigator" transform="translate(0 0)" fill="#404254">
                <rect fill="#f2f5e9" fill-opacity="0.5" stroke="#606060" stroke-width=".5" x="0" y="0" width="60" height="60"/>
                <use id="zoomplus" xlink:href="#zoomPlus" x="17" y="9" onmousedown="handleZoom(evt,'in')"/>
                <use id="zoomminus" xlink:href="#zoomMin" x="42" y="9" onmousedown="handleZoom(evt,'out')"/>
                <use id="reset" xlink:href="#resetDef" x="30" y="36" onmousedown="handleReset()"/>
                <g id="arrowUp" xlink:href="#dirArrow" transform="translate(30 24)" onmousedown="handlePan(0,-1)">
                  <use xlink:href="#rim" fill="#404040">
                        <set attributeName="fill" to="#808080" begin="arrowUp.mouseover" end="arrowUp.mouseout"/>
                  </use>
                  <path fill="none" stroke="white" stroke-width="1.5" d="M0,-3.0v7 M-2.5,-0.5L0,-3.0L2.5,-0.5"/>
                </g>
                <g id="arrowRight" xlink:href="#dirArrow" transform="rotate(90) translate(36 -43)" onmousedown="handlePan(1,0)">
                  <use xlink:href="#rim" fill="#404040">
                        <set attributeName="fill" to="#808080" begin="arrowRight.mouseover" end="arrowRight.mouseout"/>
                  </use>
                  <path fill="none" stroke="white" stroke-width="1.5" d="M0,-3.0v7 M-2.5,-0.5L0,-3.0L2.5,-0.5"/>
                </g>
                <g id="arrowDown" xlink:href="#dirArrow" transform="rotate(180) translate(-30 -48)" onmousedown="handlePan(0,1)">
                  <use xlink:href="#rim" fill="#404040">
                        <set attributeName="fill" to="#808080" begin="arrowDown.mouseover" end="arrowDown.mouseout"/>
                  </use>
                  <path fill="none" stroke="white" stroke-width="1.5" d="M0,-3.0v7 M-2.5,-0.5L0,-3.0L2.5,-0.5"/>
                </g>
                <g id="arrowLeft" xlink:href="#dirArrow" transform="rotate(270) translate(-36 17)" onmousedown="handlePan(-1,0)">
                  <use xlink:href="#rim" fill="#404040">
                        <set attributeName="fill" to="#808080" begin="arrowLeft.mouseover" end="arrowLeft.mouseout"/>
                  </use>
                  <path fill="none" stroke="white" stroke-width="1.5" d="M0,-3.0v7 M-2.5,-0.5L0,-3.0L2.5,-0.5"/>
                </g>
        </g>
        <svg viewBox="0 0 15 15" width="100%" height="30px" preserveAspectRatio="xMaxYMin meet">
         <g id="arrow_out" transform="scale(0.3 0.3)">
          <a xlink:href="namespaceSolverUtils_a8a3863d0da9bcf306cedc7caf1c069ca_a8a3863d0da9bcf306cedc7caf1c069ca_icgraph_org.svg" target="_base">
           <rect id="button" ry="5" rx="5" y="6" x="6" height="38" width="38"
                fill="#f2f5e9" fill-opacity="0.5" stroke="#606060" stroke-width="1.0"/>
           <path id="arrow"
             d="M 11.500037,31.436501 C 11.940474,20.09759 22.043105,11.32322 32.158766,21.979434 L 37.068811,17.246167 C 37.068811,17.246167 37.088388,32 37.088388,32 L 22.160133,31.978069 C 22.160133,31.978069 26.997745,27.140456 26.997745,27.140456 C 18.528582,18.264221 13.291696,25.230495 11.500037,31.436501 z"
             style="fill:#404040;"/>
          </a>
         </g>
        </svg>
</svg>
