<?xml version="1.0" encoding="UTF-8" standalone="no"?>
<!DOCTYPE svg PUBLIC "-//W3C//DTD SVG 1.1//EN"
 "http://www.w3.org/Graphics/SVG/1.1/DTD/svg11.dtd">
<!-- Generated by graphviz version 2.30.1 (20150305.2338)
 -->
<!-- Title: CreateDataItemsFromSolution Pages: 1 -->
<svg width="292pt" height="66pt"
 viewBox="0.00 0.00 292.00 66.00" xmlns="http://www.w3.org/2000/svg" xmlns:xlink="http://www.w3.org/1999/xlink">
<g id="graph0" class="graph" transform="scale(1 1) rotate(0) translate(4 62)">
<title>CreateDataItemsFromSolution</title>
<!-- Node1 -->
<g id="node1" class="node"><title>Node1</title>
<polygon fill="#bfbfbf" stroke="black" points="0.5,-19.5 0.5,-38.5 149.5,-38.5 149.5,-19.5 0.5,-19.5"/>
<text text-anchor="middle" x="75" y="-26.5" font-family="Helvetica,sans-Serif" font-size="10.00">CreateDataItemsFromSolution</text>
</g>
<!-- Node2 -->
<g id="node2" class="node"><title>Node2</title>
<g id="a_node2"><a xlink:href="namespaceSolverUtils_abd82bb11c3dd2f2f88ff31ca33755f5b.html#abd82bb11c3dd2f2f88ff31ca33755f5b" target="_top" xlink:title="RegisterSolver">
<polygon fill="none" stroke="black" points="194.5,-38.5 194.5,-57.5 275.5,-57.5 275.5,-38.5 194.5,-38.5"/>
<text text-anchor="middle" x="235" y="-45.5" font-family="Helvetica,sans-Serif" font-size="10.00">RegisterSolver</text>
</a>
</g>
</g>
<!-- Node1&#45;&gt;Node2 -->
<g id="edge1" class="edge"><title>Node1&#45;&gt;Node2</title>
<path fill="none" stroke="midnightblue" d="M159.938,-39.0938C171.861,-40.5276 183.634,-41.9433 194.163,-43.2095"/>
<polygon fill="midnightblue" stroke="midnightblue" points="160.258,-35.6071 149.911,-37.8881 159.422,-42.5571 160.258,-35.6071"/>
</g>
<!-- Node3 -->
<g id="node3" class="node"><title>Node3</title>
<g id="a_node3"><a xlink:href="namespaceSolverUtils_a4dc3eadf3c5b31e96ea58eaee60c4a59.html#a4dc3eadf3c5b31e96ea58eaee60c4a59" target="_top" xlink:title="RegisterSolverInto">
<polygon fill="none" stroke="black" points="186,-0.5 186,-19.5 284,-19.5 284,-0.5 186,-0.5"/>
<text text-anchor="middle" x="235" y="-7.5" font-family="Helvetica,sans-Serif" font-size="10.00">RegisterSolverInto</text>
</a>
</g>
</g>
<!-- Node1&#45;&gt;Node3 -->
<g id="edge2" class="edge"><title>Node1&#45;&gt;Node3</title>
<path fill="none" stroke="midnightblue" d="M159.938,-18.9062C168.809,-17.8394 177.596,-16.7827 185.851,-15.7901"/>
<polygon fill="midnightblue" stroke="midnightblue" points="159.422,-15.4429 149.911,-20.1119 160.258,-22.3929 159.422,-15.4429"/>
</g>
</g>
</svg>
