<?xml version="1.0" encoding="UTF-8" standalone="no"?>
<!DOCTYPE svg PUBLIC "-//W3C//DTD SVG 1.1//EN"
 "http://www.w3.org/Graphics/SVG/1.1/DTD/svg11.dtd">
<!-- Generated by graphviz version 2.30.1 (20150305.2338)
 -->
<!-- Title: TrapezoidQuadrature Pages: 1 -->
<svg width="682pt" height="87pt"
 viewBox="0.00 0.00 682.00 87.00" xmlns="http://www.w3.org/2000/svg" xmlns:xlink="http://www.w3.org/1999/xlink">
<g id="graph0" class="graph" transform="scale(1 1) rotate(0) translate(4 83)">
<title>TrapezoidQuadrature</title>
<!-- Node1 -->
<g id="node1" class="node"><title>Node1</title>
<polygon fill="#bfbfbf" stroke="black" points="0.5,-29.5 0.5,-48.5 107.5,-48.5 107.5,-29.5 0.5,-29.5"/>
<text text-anchor="middle" x="54" y="-36.5" font-family="Helvetica,sans-Serif" font-size="10.00">TrapezoidQuadrature</text>
</g>
<!-- Node2 -->
<g id="node2" class="node"><title>Node2</title>
<g id="a_node2"><a xlink:href="classElmerModuleDriver_1_1TestingObject_a7928083cb5586c2b361e1d29a8dc2b54.html#a7928083cb5586c2b361e1d29a8dc2b54" target="_top" xlink:title="Test for ElmerModuleDriver::TrapezoidQuadrature. ">
<polygon fill="none" stroke="black" points="144,-18.5 144,-59.5 262,-59.5 262,-18.5 144,-18.5"/>
<text text-anchor="start" x="152" y="-47.5" font-family="Helvetica,sans-Serif" font-size="10.00">ElmerModuleDriver::</text>
<text text-anchor="start" x="152" y="-36.5" font-family="Helvetica,sans-Serif" font-size="10.00">TestingObject::Test</text>
<text text-anchor="middle" x="203" y="-25.5" font-family="Helvetica,sans-Serif" font-size="10.00">__TrapezoidQuadrature</text>
</a>
</g>
</g>
<!-- Node1&#45;&gt;Node2 -->
<g id="edge1" class="edge"><title>Node1&#45;&gt;Node2</title>
<path fill="none" stroke="midnightblue" d="M117.75,-39C126.455,-39 135.366,-39 143.98,-39"/>
<polygon fill="midnightblue" stroke="midnightblue" points="117.655,-35.5001 107.655,-39 117.655,-42.5001 117.655,-35.5001"/>
</g>
<!-- Node3 -->
<g id="node3" class="node"><title>Node3</title>
<g id="a_node3"><a xlink:href="classElmerModuleDriver_1_1TestingObject_a046f7ab06db0acf616b0d2bf3d3146aa.html#a046f7ab06db0acf616b0d2bf3d3146aa" target="_top" xlink:title="ElmerModuleDriver::\lTestingObject::Process">
<polygon fill="none" stroke="black" points="299.5,-49 299.5,-79 418.5,-79 418.5,-49 299.5,-49"/>
<text text-anchor="start" x="307.5" y="-67" font-family="Helvetica,sans-Serif" font-size="10.00">ElmerModuleDriver::</text>
<text text-anchor="middle" x="359" y="-56" font-family="Helvetica,sans-Serif" font-size="10.00">TestingObject::Process</text>
</a>
</g>
</g>
<!-- Node2&#45;&gt;Node3 -->
<g id="edge2" class="edge"><title>Node2&#45;&gt;Node3</title>
<path fill="none" stroke="midnightblue" d="M272.335,-50.0934C281.378,-51.5614 290.583,-53.0556 299.441,-54.4937"/>
<polygon fill="midnightblue" stroke="midnightblue" points="272.652,-46.5991 262.221,-48.4514 271.531,-53.5087 272.652,-46.5991"/>
</g>
<!-- Node6 -->
<g id="node6" class="node"><title>Node6</title>
<g id="a_node6"><a xlink:href="classElmerModuleDriver_1_1TestingObject_af1f07f14b9af7708e4264bb38937eed2.html#af1f07f14b9af7708e4264bb38937eed2" target="_top" xlink:title="Runs a test specified by name. ">
<polygon fill="none" stroke="black" points="298.5,-0 298.5,-30 419.5,-30 419.5,-0 298.5,-0"/>
<text text-anchor="start" x="306.5" y="-18" font-family="Helvetica,sans-Serif" font-size="10.00">ElmerModuleDriver::</text>
<text text-anchor="middle" x="359" y="-7" font-family="Helvetica,sans-Serif" font-size="10.00">TestingObject::RunTest</text>
</a>
</g>
</g>
<!-- Node2&#45;&gt;Node6 -->
<g id="edge5" class="edge"><title>Node2&#45;&gt;Node6</title>
<path fill="none" stroke="midnightblue" d="M272.333,-28.3507C281.029,-26.9955 289.873,-25.6171 298.417,-24.2857"/>
<polygon fill="midnightblue" stroke="midnightblue" points="271.563,-24.9284 262.221,-29.9266 272.641,-31.8449 271.563,-24.9284"/>
</g>
<!-- Node4 -->
<g id="node4" class="node"><title>Node4</title>
<g id="a_node4"><a xlink:href="namespaceElmerModuleDriver_a657930328d3dc159ded2e9fd6473b2b6.html#a657930328d3dc159ded2e9fd6473b2b6" target="_top" xlink:title="Drives the ElmerModuleDriver::TestObject. ">
<polygon fill="none" stroke="black" points="510,-51.5 510,-70.5 546,-70.5 546,-51.5 510,-51.5"/>
<text text-anchor="middle" x="528" y="-58.5" font-family="Helvetica,sans-Serif" font-size="10.00">Test</text>
</a>
</g>
</g>
<!-- Node3&#45;&gt;Node4 -->
<g id="edge3" class="edge"><title>Node3&#45;&gt;Node4</title>
<path fill="none" stroke="midnightblue" d="M429.193,-62.757C458.715,-62.2267 490.697,-61.6522 509.778,-61.3094"/>
<polygon fill="midnightblue" stroke="midnightblue" points="428.813,-59.2632 418.878,-62.9423 428.939,-66.262 428.813,-59.2632"/>
</g>
<!-- Node5 -->
<g id="node5" class="node"><title>Node5</title>
<g id="a_node5"><a xlink:href="TestElmerModuleDriver_8C_a0ddf1224851353fc92bfbff6f499fa97.html#a0ddf1224851353fc92bfbff6f499fa97" target="_top" xlink:title="main">
<polygon fill="none" stroke="black" points="636,-51.5 636,-70.5 674,-70.5 674,-51.5 636,-51.5"/>
<text text-anchor="middle" x="655" y="-58.5" font-family="Helvetica,sans-Serif" font-size="10.00">main</text>
</a>
</g>
</g>
<!-- Node4&#45;&gt;Node5 -->
<g id="edge4" class="edge"><title>Node4&#45;&gt;Node5</title>
<path fill="none" stroke="midnightblue" d="M556.396,-61C580.535,-61 615.014,-61 635.874,-61"/>
<polygon fill="midnightblue" stroke="midnightblue" points="556.119,-57.5001 546.119,-61 556.119,-64.5001 556.119,-57.5001"/>
</g>
<!-- Node7 -->
<g id="node7" class="node"><title>Node7</title>
<g id="a_node7"><a xlink:href="classElmerModuleDriver_1_1TestingObject_a21159bd2efac623e5a5079f6a20f3444.html#a21159bd2efac623e5a5079f6a20f3444" target="_top" xlink:title="Runs a list of tests specified by name. ">
<polygon fill="none" stroke="black" points="456,-0 456,-30 600,-30 600,-0 456,-0"/>
<text text-anchor="start" x="464" y="-18" font-family="Helvetica,sans-Serif" font-size="10.00">ElmerModuleDriver::</text>
<text text-anchor="middle" x="528" y="-7" font-family="Helvetica,sans-Serif" font-size="10.00">TestingObject::ProcessTests</text>
</a>
</g>
</g>
<!-- Node6&#45;&gt;Node7 -->
<g id="edge6" class="edge"><title>Node6&#45;&gt;Node7</title>
<path fill="none" stroke="midnightblue" d="M429.828,-15C438.451,-15 447.275,-15 455.917,-15"/>
<polygon fill="midnightblue" stroke="midnightblue" points="429.819,-11.5001 419.819,-15 429.819,-18.5001 429.819,-11.5001"/>
</g>
<!-- Node6&#45;&gt;Node4 -->
<g id="edge7" class="edge"><title>Node6&#45;&gt;Node4</title>
<path fill="none" stroke="midnightblue" d="M424.497,-32.7656C455.188,-41.2193 489.495,-50.6693 509.615,-56.2114"/>
<polygon fill="midnightblue" stroke="midnightblue" points="425.252,-29.3435 414.682,-30.0621 423.394,-36.0921 425.252,-29.3435"/>
</g>
</g>
</svg>
