<?xml version="1.0" encoding="UTF-8" standalone="no"?>
<!DOCTYPE svg PUBLIC "-//W3C//DTD SVG 1.1//EN"
 "http://www.w3.org/Graphics/SVG/1.1/DTD/svg11.dtd">
<!-- Generated by graphviz version 2.26.0 (20091210.2329)
 -->
<!-- Title: TrapezoidQuadrature Pages: 1 -->
<svg width="748pt" height="94pt"
 viewBox="0.00 0.00 748.00 94.00" xmlns="http://www.w3.org/2000/svg" xmlns:xlink="http://www.w3.org/1999/xlink">
<g id="graph1" class="graph" transform="scale(1 1) rotate(0) translate(4 90)">
<title>TrapezoidQuadrature</title>
<!-- Node1 -->
<g id="node1" class="node"><title>Node1</title>
<polygon fill="#bfbfbf" stroke="black" points="0.5,-32.5 0.5,-53.5 107.5,-53.5 107.5,-32.5 0.5,-32.5"/>
<text text-anchor="middle" x="54" y="-40.5" font-family="Helvetica,sans-Serif" font-size="10.00">TrapezoidQuadrature</text>
</g>
<!-- Node2 -->
<g id="node3" class="node"><title>Node2</title>
<a xlink:href="classElmerFoamFSI_1_1TestingObject_a7928083cb5586c2b361e1d29a8dc2b54.html#a7928083cb5586c2b361e1d29a8dc2b54" target="_top" xlink:title="Test for ElmerFoamFSI::TrapezoidQuadrature. ">
<polygon fill="none" stroke="black" points="144.5,-26 144.5,-60 293.5,-60 293.5,-26 144.5,-26"/>
<text text-anchor="start" x="152.5" y="-47" font-family="Helvetica,sans-Serif" font-size="10.00">ElmerFoamFSI::TestingObject</text>
<text text-anchor="middle" x="219" y="-34" font-family="Helvetica,sans-Serif" font-size="10.00">::Test__TrapezoidQuadrature</text>
</a>
</g>
<!-- Node1&#45;&gt;Node2 -->
<g id="edge2" class="edge"><title>Node1&#45;&gt;Node2</title>
<path fill="none" stroke="midnightblue" d="M117.683,-43C126.436,-43 135.487,-43 144.413,-43"/>
<polygon fill="midnightblue" stroke="midnightblue" points="117.571,-39.5001 107.571,-43 117.571,-46.5001 117.571,-39.5001"/>
</g>
<!-- Node3 -->
<g id="node5" class="node"><title>Node3</title>
<a xlink:href="classElmerFoamFSI_1_1TestingObject_a046f7ab06db0acf616b0d2bf3d3146aa.html#a046f7ab06db0acf616b0d2bf3d3146aa" target="_top" xlink:title="Runs all tests implemented by the ElmerFoamFSI::TestingObject. ">
<polygon fill="none" stroke="black" points="330.5,-52 330.5,-86 479.5,-86 479.5,-52 330.5,-52"/>
<text text-anchor="start" x="338.5" y="-73" font-family="Helvetica,sans-Serif" font-size="10.00">ElmerFoamFSI::TestingObject</text>
<text text-anchor="middle" x="405" y="-60" font-family="Helvetica,sans-Serif" font-size="10.00">::Process</text>
</a>
</g>
<!-- Node2&#45;&gt;Node3 -->
<g id="edge4" class="edge"><title>Node2&#45;&gt;Node3</title>
<path fill="none" stroke="midnightblue" d="M303.61,-54.8272C312.548,-56.0766 321.59,-57.3405 330.402,-58.5723"/>
<polygon fill="midnightblue" stroke="midnightblue" points="303.97,-51.3436 293.582,-53.4254 303.001,-58.2762 303.97,-51.3436"/>
</g>
<!-- Node6 -->
<g id="node11" class="node"><title>Node6</title>
<a xlink:href="classElmerFoamFSI_1_1TestingObject_af1f07f14b9af7708e4264bb38937eed2.html#af1f07f14b9af7708e4264bb38937eed2" target="_top" xlink:title="Runs a test specified by name. ">
<polygon fill="none" stroke="black" points="330.5,-0 330.5,-34 479.5,-34 479.5,-0 330.5,-0"/>
<text text-anchor="start" x="338.5" y="-21" font-family="Helvetica,sans-Serif" font-size="10.00">ElmerFoamFSI::TestingObject</text>
<text text-anchor="middle" x="405" y="-8" font-family="Helvetica,sans-Serif" font-size="10.00">::RunTest</text>
</a>
</g>
<!-- Node2&#45;&gt;Node6 -->
<g id="edge10" class="edge"><title>Node2&#45;&gt;Node6</title>
<path fill="none" stroke="midnightblue" d="M303.61,-31.1728C312.548,-29.9234 321.59,-28.6595 330.402,-27.4277"/>
<polygon fill="midnightblue" stroke="midnightblue" points="303.001,-27.7238 293.582,-32.5746 303.97,-34.6564 303.001,-27.7238"/>
</g>
<!-- Node4 -->
<g id="node7" class="node"><title>Node4</title>
<a xlink:href="namespaceElmerFoamFSI_aeb590657609088b8ab12a5cbd164fcfa.html#aeb590657609088b8ab12a5cbd164fcfa" target="_top" xlink:title="Drives the ElmerFoamFSI::TestObject. ">
<polygon fill="none" stroke="black" points="573,-55.5 573,-76.5 609,-76.5 609,-55.5 573,-55.5"/>
<text text-anchor="middle" x="591" y="-63.5" font-family="Helvetica,sans-Serif" font-size="10.00">Test</text>
</a>
</g>
<!-- Node3&#45;&gt;Node4 -->
<g id="edge6" class="edge"><title>Node3&#45;&gt;Node4</title>
<path fill="none" stroke="midnightblue" d="M489.67,-67.6343C520.937,-67.1301 553.469,-66.6053 572.978,-66.2907"/>
<polygon fill="midnightblue" stroke="midnightblue" points="489.524,-64.1362 479.582,-67.7971 489.637,-71.1352 489.524,-64.1362"/>
</g>
<!-- Node5 -->
<g id="node9" class="node"><title>Node5</title>
<a xlink:href="TestElmerFoamFSI_8C_a0ddf1224851353fc92bfbff6f499fa97.html#a0ddf1224851353fc92bfbff6f499fa97" target="_top" xlink:title="main">
<polygon fill="none" stroke="black" points="702,-55.5 702,-76.5 740,-76.5 740,-55.5 702,-55.5"/>
<text text-anchor="middle" x="721" y="-63.5" font-family="Helvetica,sans-Serif" font-size="10.00">main</text>
</a>
</g>
<!-- Node4&#45;&gt;Node5 -->
<g id="edge8" class="edge"><title>Node4&#45;&gt;Node5</title>
<path fill="none" stroke="midnightblue" d="M619.382,-66C644.362,-66 680.05,-66 701.809,-66"/>
<polygon fill="midnightblue" stroke="midnightblue" points="619.076,-62.5001 609.076,-66 619.076,-69.5001 619.076,-62.5001"/>
</g>
<!-- Node6&#45;&gt;Node4 -->
<g id="edge14" class="edge"><title>Node6&#45;&gt;Node4</title>
<path fill="none" stroke="midnightblue" d="M479.512,-36.6294C513.616,-45.6138 551.177,-55.5089 572.835,-61.2146"/>
<polygon fill="midnightblue" stroke="midnightblue" points="480.093,-33.1633 469.532,-34.0003 478.31,-39.9324 480.093,-33.1633"/>
</g>
<!-- Node7 -->
<g id="node13" class="node"><title>Node7</title>
<a xlink:href="classElmerFoamFSI_1_1TestingObject_a21159bd2efac623e5a5079f6a20f3444.html#a21159bd2efac623e5a5079f6a20f3444" target="_top" xlink:title="Runs a list of tests specified by name. ">
<polygon fill="none" stroke="black" points="516.5,-0 516.5,-34 665.5,-34 665.5,-0 516.5,-0"/>
<text text-anchor="start" x="524.5" y="-21" font-family="Helvetica,sans-Serif" font-size="10.00">ElmerFoamFSI::TestingObject</text>
<text text-anchor="middle" x="591" y="-8" font-family="Helvetica,sans-Serif" font-size="10.00">::ProcessTests</text>
</a>
</g>
<!-- Node6&#45;&gt;Node7 -->
<g id="edge12" class="edge"><title>Node6&#45;&gt;Node7</title>
<path fill="none" stroke="midnightblue" d="M489.61,-17C498.548,-17 507.59,-17 516.402,-17"/>
<polygon fill="midnightblue" stroke="midnightblue" points="489.582,-13.5001 479.582,-17 489.582,-20.5001 489.582,-13.5001"/>
</g>
</g>
</svg>
