<?xml version="1.0" encoding="UTF-8" standalone="no"?>
<!DOCTYPE svg PUBLIC "-//W3C//DTD SVG 1.1//EN"
 "http://www.w3.org/Graphics/SVG/1.1/DTD/svg11.dtd">
<!-- Generated by graphviz version 2.30.1 (20150305.2338)
 -->
<!-- Title: MidPointQuadrature Pages: 1 -->
<svg width="744pt" height="87pt"
 viewBox="0.00 0.00 744.00 87.00" xmlns="http://www.w3.org/2000/svg" xmlns:xlink="http://www.w3.org/1999/xlink">
<g id="graph0" class="graph" transform="scale(1 1) rotate(0) translate(4 83)">
<title>MidPointQuadrature</title>
<!-- Node1 -->
<g id="node1" class="node"><title>Node1</title>
<polygon fill="#bfbfbf" stroke="black" points="0.5,-29.5 0.5,-48.5 103.5,-48.5 103.5,-29.5 0.5,-29.5"/>
<text text-anchor="middle" x="52" y="-36.5" font-family="Helvetica,sans-Serif" font-size="10.00">MidPointQuadrature</text>
</g>
<!-- Node2 -->
<g id="node2" class="node"><title>Node2</title>
<g id="a_node2"><a xlink:href="classElmerFoamFSI_1_1TestingObject_a7de28a366b07117111ce7c1e9515a434.html#a7de28a366b07117111ce7c1e9515a434" target="_top" xlink:title="Test for ElmerFoamFSI::MidPointQuadrature. ">
<polygon fill="none" stroke="black" points="140.5,-24 140.5,-54 289.5,-54 289.5,-24 140.5,-24"/>
<text text-anchor="start" x="148.5" y="-42" font-family="Helvetica,sans-Serif" font-size="10.00">ElmerFoamFSI::TestingObject</text>
<text text-anchor="middle" x="215" y="-31" font-family="Helvetica,sans-Serif" font-size="10.00">::Test__MidPointQuadrature</text>
</a>
</g>
</g>
<!-- Node1&#45;&gt;Node2 -->
<g id="edge1" class="edge"><title>Node1&#45;&gt;Node2</title>
<path fill="none" stroke="midnightblue" d="M114.218,-39C122.792,-39 131.676,-39 140.45,-39"/>
<polygon fill="midnightblue" stroke="midnightblue" points="113.941,-35.5001 103.941,-39 113.941,-42.5001 113.941,-35.5001"/>
</g>
<!-- Node3 -->
<g id="node3" class="node"><title>Node3</title>
<g id="a_node3"><a xlink:href="classElmerFoamFSI_1_1TestingObject_a046f7ab06db0acf616b0d2bf3d3146aa.html#a046f7ab06db0acf616b0d2bf3d3146aa" target="_top" xlink:title="Runs all tests implemented by the ElmerFoamFSI::TestingObject. ">
<polygon fill="none" stroke="black" points="326.5,-49 326.5,-79 475.5,-79 475.5,-49 326.5,-49"/>
<text text-anchor="start" x="334.5" y="-67" font-family="Helvetica,sans-Serif" font-size="10.00">ElmerFoamFSI::TestingObject</text>
<text text-anchor="middle" x="401" y="-56" font-family="Helvetica,sans-Serif" font-size="10.00">::Process</text>
</a>
</g>
</g>
<!-- Node2&#45;&gt;Node3 -->
<g id="edge2" class="edge"><title>Node2&#45;&gt;Node3</title>
<path fill="none" stroke="midnightblue" d="M299.533,-50.3495C308.462,-51.5627 317.498,-52.7905 326.302,-53.9866"/>
<polygon fill="midnightblue" stroke="midnightblue" points="299.895,-46.8667 289.515,-48.9884 298.953,-53.803 299.895,-46.8667"/>
</g>
<!-- Node6 -->
<g id="node6" class="node"><title>Node6</title>
<g id="a_node6"><a xlink:href="classElmerFoamFSI_1_1TestingObject_af1f07f14b9af7708e4264bb38937eed2.html#af1f07f14b9af7708e4264bb38937eed2" target="_top" xlink:title="Runs a test specified by name. ">
<polygon fill="none" stroke="black" points="326.5,-0 326.5,-30 475.5,-30 475.5,-0 326.5,-0"/>
<text text-anchor="start" x="334.5" y="-18" font-family="Helvetica,sans-Serif" font-size="10.00">ElmerFoamFSI::TestingObject</text>
<text text-anchor="middle" x="401" y="-7" font-family="Helvetica,sans-Serif" font-size="10.00">::RunTest</text>
</a>
</g>
</g>
<!-- Node2&#45;&gt;Node6 -->
<g id="edge5" class="edge"><title>Node2&#45;&gt;Node6</title>
<path fill="none" stroke="midnightblue" d="M299.533,-28.1045C308.462,-26.9398 317.498,-25.7611 326.302,-24.6128"/>
<polygon fill="midnightblue" stroke="midnightblue" points="298.978,-24.647 289.515,-29.4111 299.884,-31.5882 298.978,-24.647"/>
</g>
<!-- Node4 -->
<g id="node4" class="node"><title>Node4</title>
<g id="a_node4"><a xlink:href="namespaceElmerFoamFSI_aeb590657609088b8ab12a5cbd164fcfa.html#aeb590657609088b8ab12a5cbd164fcfa" target="_top" xlink:title="Drives the ElmerFoamFSI::TestObject. ">
<polygon fill="none" stroke="black" points="569,-51.5 569,-70.5 605,-70.5 605,-51.5 569,-51.5"/>
<text text-anchor="middle" x="587" y="-58.5" font-family="Helvetica,sans-Serif" font-size="10.00">Test</text>
</a>
</g>
</g>
<!-- Node3&#45;&gt;Node4 -->
<g id="edge3" class="edge"><title>Node3&#45;&gt;Node4</title>
<path fill="none" stroke="midnightblue" d="M485.628,-62.6365C516.974,-62.1254 549.628,-61.593 568.87,-61.2793"/>
<polygon fill="midnightblue" stroke="midnightblue" points="485.457,-59.1387 475.515,-62.8014 485.571,-66.1378 485.457,-59.1387"/>
</g>
<!-- Node5 -->
<g id="node5" class="node"><title>Node5</title>
<g id="a_node5"><a xlink:href="TestElmerFoamFSI_8C_a0ddf1224851353fc92bfbff6f499fa97.html#a0ddf1224851353fc92bfbff6f499fa97" target="_top" xlink:title="main">
<polygon fill="none" stroke="black" points="698,-51.5 698,-70.5 736,-70.5 736,-51.5 698,-51.5"/>
<text text-anchor="middle" x="717" y="-58.5" font-family="Helvetica,sans-Serif" font-size="10.00">main</text>
</a>
</g>
</g>
<!-- Node4&#45;&gt;Node5 -->
<g id="edge4" class="edge"><title>Node4&#45;&gt;Node5</title>
<path fill="none" stroke="midnightblue" d="M615.496,-61C640.367,-61 676.288,-61 697.773,-61"/>
<polygon fill="midnightblue" stroke="midnightblue" points="615.263,-57.5001 605.263,-61 615.263,-64.5001 615.263,-57.5001"/>
</g>
<!-- Node7 -->
<g id="node7" class="node"><title>Node7</title>
<g id="a_node7"><a xlink:href="classElmerFoamFSI_1_1TestingObject_a21159bd2efac623e5a5079f6a20f3444.html#a21159bd2efac623e5a5079f6a20f3444" target="_top" xlink:title="Runs a list of tests specified by name. ">
<polygon fill="none" stroke="black" points="512.5,-0 512.5,-30 661.5,-30 661.5,-0 512.5,-0"/>
<text text-anchor="start" x="520.5" y="-18" font-family="Helvetica,sans-Serif" font-size="10.00">ElmerFoamFSI::TestingObject</text>
<text text-anchor="middle" x="587" y="-7" font-family="Helvetica,sans-Serif" font-size="10.00">::ProcessTests</text>
</a>
</g>
</g>
<!-- Node6&#45;&gt;Node7 -->
<g id="edge6" class="edge"><title>Node6&#45;&gt;Node7</title>
<path fill="none" stroke="midnightblue" d="M485.533,-15C494.462,-15 503.498,-15 512.302,-15"/>
<polygon fill="midnightblue" stroke="midnightblue" points="485.515,-11.5001 475.515,-15 485.515,-18.5001 485.515,-11.5001"/>
</g>
<!-- Node6&#45;&gt;Node4 -->
<g id="edge7" class="edge"><title>Node6&#45;&gt;Node4</title>
<path fill="none" stroke="midnightblue" d="M472.025,-32.5064C507.182,-41.2956 546.886,-51.2216 568.927,-56.7318"/>
<polygon fill="midnightblue" stroke="midnightblue" points="472.799,-29.0921 462.248,-30.0621 471.101,-35.8831 472.799,-29.0921"/>
</g>
</g>
</svg>
