<?xml version="1.0" encoding="UTF-8" standalone="no"?>
<!DOCTYPE svg PUBLIC "-//W3C//DTD SVG 1.1//EN"
 "http://www.w3.org/Graphics/SVG/1.1/DTD/svg11.dtd">
<!-- Generated by graphviz version 2.30.1 (20150305.2338)
 -->
<!-- Title: SurfaceMeshToPane Pages: 1 -->
<!--zoomable 289 -->
<svg id="main" version="1.1" xmlns="http://www.w3.org/2000/svg" xmlns:xlink="http://www.w3.org/1999/xlink" xml:space="preserve" onload="init(evt)">
<style type="text/css"><![CDATA[
.edge:hover path { stroke: red; }
.edge:hover polygon { stroke: red; fill: red; }
]]></style>
<script type="text/javascript"><![CDATA[
var edges = document.getElementsByTagName('g');
if (edges && edges.length) {
  for (var i=0;i<edges.length;i++) {
    if (edges[i].id.substr(0,4)=='edge') {
      edges[i].setAttribute('class','edge');
    }
  }
}
]]></script>
        <defs>
                <circle id="rim" cx="0" cy="0" r="7"/>
                <circle id="rim2" cx="0" cy="0" r="3.5"/>
                <g id="zoomPlus">
                        <use xlink:href="#rim" fill="#404040">
                                <set attributeName="fill" to="#808080" begin="zoomplus.mouseover" end="zoomplus.mouseout"/>
                        </use>
                        <path d="M-4,0h8M0,-4v8" fill="none" stroke="white" stroke-width="1.5" pointer-events="none"/>
                </g>
                <g id="zoomMin">
                        <use xlink:href="#rim" fill="#404040">
                                <set attributeName="fill" to="#808080" begin="zoomminus.mouseover" end="zoomminus.mouseout"/>
                        </use>
                        <path d="M-4,0h8" fill="none" stroke="white" stroke-width="1.5" pointer-events="none"/>
                </g>
                <g id="dirArrow">
                        <path fill="none" stroke="white" stroke-width="1.5" d="M0,-3.0v7 M-2.5,-0.5L0,-3.0L2.5,-0.5"/>
                </g>
               <g id="resetDef">
                       <use xlink:href="#rim2" fill="#404040">
                               <set attributeName="fill" to="#808080" begin="reset.mouseover" end="reset.mouseout"/>
                       </use>
               </g>
        </defs>

<script type="text/javascript">
var viewWidth = 634;
var viewHeight = 289;
var sectionId = 'dynsection-0';
</script>
<script xlink:href="svgpan.js"/>
<svg id="graph" class="graph">
<g id="viewport">
<title>SurfaceMeshToPane</title>
<!-- Node1 -->
<g id="node1" class="node"><title>Node1</title>
<polygon fill="#bfbfbf" stroke="black" points="0,-136.5 0,-155.5 108,-155.5 108,-136.5 0,-136.5"/>
<text text-anchor="middle" x="54" y="-143.5" font-family="Helvetica,sans-Serif" font-size="10.00">SurfaceMeshToPane</text>
</g>
<!-- Node2 -->
<g id="node2" class="node"><title>Node2</title>
<g id="a_node2"><a xlink:href="classSolverUtils_1_1Mesh_1_1Connectivity_accee58099f80bf9563feaab47f721134.html#accee58099f80bf9563feaab47f721134" target="_top" xlink:title="SolverUtils::Mesh::\lConnectivity::AddElement">
<polygon fill="none" stroke="black" points="144.5,-251 144.5,-281 275.5,-281 275.5,-251 144.5,-251"/>
<text text-anchor="start" x="152.5" y="-269" font-family="Helvetica,sans-Serif" font-size="10.00">SolverUtils::Mesh::</text>
<text text-anchor="middle" x="210" y="-258" font-family="Helvetica,sans-Serif" font-size="10.00">Connectivity::AddElement</text>
</a>
</g>
</g>
<!-- Node1&#45;&gt;Node2 -->
<g id="edge1" class="edge"><title>Node1&#45;&gt;Node2</title>
<path fill="none" stroke="midnightblue" d="M61.7326,-155.709C75.273,-174.582 107.631,-216.513 144,-241 146.896,-242.95 149.966,-244.778 153.133,-246.487"/>
<polygon fill="midnightblue" stroke="midnightblue" points="151.738,-249.701 162.254,-250.99 154.837,-243.425 151.738,-249.701"/>
</g>
<!-- Node3 -->
<g id="node3" class="node"><title>Node3</title>
<g id="a_node3"><a xlink:href="com__c_8h_a6dd240c15a2b3e85d2d91cbe9eec6611.html#a6dd240c15a2b3e85d2d91cbe9eec6611" target="_top" xlink:title="Get the address for an dataitem on a specific pane. ">
<polygon fill="none" stroke="black" points="167,-212.5 167,-231.5 253,-231.5 253,-212.5 167,-212.5"/>
<text text-anchor="middle" x="210" y="-219.5" font-family="Helvetica,sans-Serif" font-size="10.00">COM_get_array</text>
</a>
</g>
</g>
<!-- Node1&#45;&gt;Node3 -->
<g id="edge2" class="edge"><title>Node1&#45;&gt;Node3</title>
<path fill="none" stroke="midnightblue" d="M67.3138,-155.514C83.9151,-167.948 114.773,-189.702 144,-203 149.016,-205.282 154.375,-207.366 159.782,-209.247"/>
<polygon fill="midnightblue" stroke="midnightblue" points="158.912,-212.645 169.504,-212.413 161.08,-205.989 158.912,-212.645"/>
</g>
<!-- Node4 -->
<g id="node4" class="node"><title>Node4</title>
<g id="a_node4"><a xlink:href="com__c_09_09_8hpp_ab6a6d18043bc76f9a381084af49c6a9f.html#ab6a6d18043bc76f9a381084af49c6a9f" target="_top" xlink:title="Resize an dataitem on a specific pane and return the address by setting addr. ">
<polygon fill="none" stroke="black" points="161,-136.5 161,-155.5 259,-155.5 259,-136.5 161,-136.5"/>
<text text-anchor="middle" x="210" y="-143.5" font-family="Helvetica,sans-Serif" font-size="10.00">COM_resize_array</text>
</a>
</g>
</g>
<!-- Node1&#45;&gt;Node4 -->
<g id="edge3" class="edge"><title>Node1&#45;&gt;Node4</title>
<path fill="none" stroke="midnightblue" d="M108.43,-146C121.998,-146 136.647,-146 150.455,-146"/>
<polygon fill="midnightblue" stroke="midnightblue" points="150.818,-149.5 160.818,-146 150.818,-142.5 150.818,-149.5"/>
</g>
<!-- Node8 -->
<g id="node8" class="node"><title>Node8</title>
<g id="a_node8"><a xlink:href="com__c_09_09_8hpp_adca6827f3c065859156fa3562c2cd9a8.html#adca6827f3c065859156fa3562c2cd9a8" target="_top" xlink:title="Associates an array with an dataitem for a specific pane. ">
<polygon fill="none" stroke="black" points="167,-174.5 167,-193.5 253,-193.5 253,-174.5 167,-174.5"/>
<text text-anchor="middle" x="210" y="-181.5" font-family="Helvetica,sans-Serif" font-size="10.00">COM_set_array</text>
</a>
</g>
</g>
<!-- Node1&#45;&gt;Node8 -->
<g id="edge7" class="edge"><title>Node1&#45;&gt;Node8</title>
<path fill="none" stroke="midnightblue" d="M93.8607,-155.589C114.091,-160.581 139.021,-166.732 160.504,-172.033"/>
<polygon fill="midnightblue" stroke="midnightblue" points="159.871,-175.482 170.419,-174.48 161.548,-168.686 159.871,-175.482"/>
</g>
<!-- Node10 -->
<g id="node10" class="node"><title>Node10</title>
<g id="a_node10"><a xlink:href="com__c_09_09_8hpp_a000a075fb1782d7eeaae75a7136e6411.html#a000a075fb1782d7eeaae75a7136e6411" target="_top" xlink:title="Set sizes of for a specific dataitem. ">
<polygon fill="none" stroke="black" points="169,-98.5 169,-117.5 251,-117.5 251,-98.5 169,-98.5"/>
<text text-anchor="middle" x="210" y="-105.5" font-family="Helvetica,sans-Serif" font-size="10.00">COM_set_size</text>
</a>
</g>
</g>
<!-- Node1&#45;&gt;Node10 -->
<g id="edge10" class="edge"><title>Node1&#45;&gt;Node10</title>
<path fill="none" stroke="midnightblue" d="M93.8607,-136.411C114.091,-131.419 139.021,-125.268 160.504,-119.967"/>
<polygon fill="midnightblue" stroke="midnightblue" points="161.548,-123.314 170.419,-117.52 159.871,-116.518 161.548,-123.314"/>
</g>
<!-- Node12 -->
<g id="node12" class="node"><title>Node12</title>
<g id="a_node12"><a xlink:href="classSolverUtils_1_1Mesh_1_1Connectivity_a3efad0e23e75de241cfe6c5193f1daa7.html#a3efad0e23e75de241cfe6c5193f1daa7" target="_top" xlink:title="SolverUtils::Mesh::\lConnectivity::Nelem">
<polygon fill="none" stroke="black" points="157,-49 157,-79 263,-79 263,-49 157,-49"/>
<text text-anchor="start" x="165" y="-67" font-family="Helvetica,sans-Serif" font-size="10.00">SolverUtils::Mesh::</text>
<text text-anchor="middle" x="210" y="-56" font-family="Helvetica,sans-Serif" font-size="10.00">Connectivity::Nelem</text>
</a>
</g>
</g>
<!-- Node1&#45;&gt;Node12 -->
<g id="edge13" class="edge"><title>Node1&#45;&gt;Node12</title>
<path fill="none" stroke="midnightblue" d="M68.0679,-136.429C84.989,-124.323 115.676,-103.331 144,-89 148.054,-86.9488 152.318,-84.9611 156.644,-83.0625"/>
<polygon fill="midnightblue" stroke="midnightblue" points="158.296,-86.1647 166.154,-79.0583 155.579,-79.7133 158.296,-86.1647"/>
</g>
<!-- Node13 -->
<g id="node13" class="node"><title>Node13</title>
<g id="a_node13"><a xlink:href="classSolverUtils_1_1Mesh_1_1NodalCoordinates_a3dc03243fcc53453e160252efee8e232.html#a3dc03243fcc53453e160252efee8e232" target="_top" xlink:title="SolverUtils::Mesh::\lNodalCoordinates::Size">
<polygon fill="none" stroke="black" points="150,-0 150,-30 270,-30 270,-0 150,-0"/>
<text text-anchor="start" x="158" y="-18" font-family="Helvetica,sans-Serif" font-size="10.00">SolverUtils::Mesh::</text>
<text text-anchor="middle" x="210" y="-7" font-family="Helvetica,sans-Serif" font-size="10.00">NodalCoordinates::Size</text>
</a>
</g>
</g>
<!-- Node1&#45;&gt;Node13 -->
<g id="edge14" class="edge"><title>Node1&#45;&gt;Node13</title>
<path fill="none" stroke="midnightblue" d="M60.6193,-136.264C73.0577,-115.522 104.933,-66.616 144,-39 146.106,-37.5114 148.315,-36.1039 150.595,-34.7742"/>
<polygon fill="midnightblue" stroke="midnightblue" points="152.435,-37.7615 159.673,-30.0249 149.19,-31.5589 152.435,-37.7615"/>
</g>
<!-- Node5 -->
<g id="node5" class="node"><title>Node5</title>
<g id="a_node5"><a xlink:href="COM__base_8hpp_a49353596e53127db61529b5c9000549d.html#a49353596e53127db61529b5c9000549d" target="_top" xlink:title="COM_get_com">
<polygon fill="none" stroke="black" points="339.5,-155.5 339.5,-174.5 422.5,-174.5 422.5,-155.5 339.5,-155.5"/>
<text text-anchor="middle" x="381" y="-162.5" font-family="Helvetica,sans-Serif" font-size="10.00">COM_get_com</text>
</a>
</g>
</g>
<!-- Node4&#45;&gt;Node5 -->
<g id="edge4" class="edge"><title>Node4&#45;&gt;Node5</title>
<path fill="none" stroke="midnightblue" d="M259.429,-151.445C281.237,-153.896 306.992,-156.792 329.087,-159.276"/>
<polygon fill="midnightblue" stroke="midnightblue" points="328.951,-162.783 339.279,-160.422 329.733,-155.827 328.951,-162.783"/>
</g>
<!-- Node7 -->
<g id="node7" class="node"><title>Node7</title>
<g id="a_node7"><a xlink:href="classCOM_1_1COM__base_a9b92a84a6063e6a965b5d603c14fd722.html#a9b92a84a6063e6a965b5d603c14fd722" target="_top" xlink:title="Resize an dataitem on a specific pane and return the address by setting addr. ">
<polygon fill="none" stroke="black" points="317,-106 317,-136 445,-136 445,-106 317,-106"/>
<text text-anchor="start" x="325" y="-124" font-family="Helvetica,sans-Serif" font-size="10.00">COM::COM_base::resize</text>
<text text-anchor="middle" x="381" y="-113" font-family="Helvetica,sans-Serif" font-size="10.00">_array</text>
</a>
</g>
</g>
<!-- Node4&#45;&gt;Node7 -->
<g id="edge6" class="edge"><title>Node4&#45;&gt;Node7</title>
<path fill="none" stroke="midnightblue" d="M259.429,-138.836C274.21,-136.649 290.805,-134.195 306.844,-131.822"/>
<polygon fill="midnightblue" stroke="midnightblue" points="307.357,-135.284 316.737,-130.358 306.333,-128.36 307.357,-135.284"/>
</g>
<!-- Node6 -->
<g id="node6" class="node"><title>Node6</title>
<g id="a_node6"><a xlink:href="classCOM_1_1COM__base_a77bb770b9ec1aac99361c45efbccabc1.html#a77bb770b9ec1aac99361c45efbccabc1" target="_top" xlink:title="Get a pointer to the COM object. ">
<polygon fill="none" stroke="black" points="486.5,-155.5 486.5,-174.5 625.5,-174.5 625.5,-155.5 486.5,-155.5"/>
<text text-anchor="middle" x="556" y="-162.5" font-family="Helvetica,sans-Serif" font-size="10.00">COM::COM_base::get_com</text>
</a>
</g>
</g>
<!-- Node5&#45;&gt;Node6 -->
<g id="edge5" class="edge"><title>Node5&#45;&gt;Node6</title>
<path fill="none" stroke="midnightblue" d="M422.561,-165C438.571,-165 457.54,-165 476.044,-165"/>
<polygon fill="midnightblue" stroke="midnightblue" points="476.255,-168.5 486.255,-165 476.255,-161.5 476.255,-168.5"/>
</g>
<!-- Node8&#45;&gt;Node5 -->
<g id="edge8" class="edge"><title>Node8&#45;&gt;Node5</title>
<path fill="none" stroke="midnightblue" d="M253.21,-179.255C276.307,-176.658 305.085,-173.422 329.382,-170.691"/>
<polygon fill="midnightblue" stroke="midnightblue" points="329.945,-174.15 339.492,-169.554 329.163,-167.193 329.945,-174.15"/>
</g>
<!-- Node9 -->
<g id="node9" class="node"><title>Node9</title>
<g id="a_node9"><a xlink:href="classCOM_1_1COM__base_a57c037aa472a815dda4667bb7cb2f986.html#a57c037aa472a815dda4667bb7cb2f986" target="_top" xlink:title="Associates an array with an dataitem for a specific pane. ">
<polygon fill="none" stroke="black" points="323.5,-194 323.5,-224 438.5,-224 438.5,-194 323.5,-194"/>
<text text-anchor="start" x="331.5" y="-212" font-family="Helvetica,sans-Serif" font-size="10.00">COM::COM_base::set</text>
<text text-anchor="middle" x="381" y="-201" font-family="Helvetica,sans-Serif" font-size="10.00">_array</text>
</a>
</g>
</g>
<!-- Node8&#45;&gt;Node9 -->
<g id="edge9" class="edge"><title>Node8&#45;&gt;Node9</title>
<path fill="none" stroke="midnightblue" d="M253.21,-190.244C271.359,-192.929 293.015,-196.132 313.249,-199.126"/>
<polygon fill="midnightblue" stroke="midnightblue" points="312.955,-202.62 323.359,-200.621 313.979,-195.695 312.955,-202.62"/>
</g>
<!-- Node10&#45;&gt;Node5 -->
<g id="edge11" class="edge"><title>Node10&#45;&gt;Node5</title>
<path fill="none" stroke="midnightblue" d="M247.828,-117.519C257.132,-120.262 267.026,-123.478 276,-127 292.652,-133.536 295.354,-138.45 312,-145 318.849,-147.695 326.21,-150.222 333.469,-152.513"/>
<polygon fill="midnightblue" stroke="midnightblue" points="332.662,-155.926 343.248,-155.484 334.697,-149.228 332.662,-155.926"/>
</g>
<!-- Node11 -->
<g id="node11" class="node"><title>Node11</title>
<g id="a_node11"><a xlink:href="classCOM_1_1COM__base_aeeab27fa8f95627604ddb3d48dcc15d0.html#aeeab27fa8f95627604ddb3d48dcc15d0" target="_top" xlink:title="Set the sizes of an dataitem. ">
<polygon fill="none" stroke="black" points="312,-67.5 312,-86.5 450,-86.5 450,-67.5 312,-67.5"/>
<text text-anchor="middle" x="381" y="-74.5" font-family="Helvetica,sans-Serif" font-size="10.00">COM::COM_base::set_size</text>
</a>
</g>
</g>
<!-- Node10&#45;&gt;Node11 -->
<g id="edge12" class="edge"><title>Node10&#45;&gt;Node11</title>
<path fill="none" stroke="midnightblue" d="M251.051,-100.653C271.027,-96.9892 295.636,-92.475 317.983,-88.3759"/>
<polygon fill="midnightblue" stroke="midnightblue" points="318.862,-91.7731 328.067,-86.5262 317.599,-84.888 318.862,-91.7731"/>
</g>
</g>
</svg>
        <g id="navigator" transform="translate(0 0)" fill="#404254">
                <rect fill="#f2f5e9" fill-opacity="0.5" stroke="#606060" stroke-width=".5" x="0" y="0" width="60" height="60"/>
                <use id="zoomplus" xlink:href="#zoomPlus" x="17" y="9" onmousedown="handleZoom(evt,'in')"/>
                <use id="zoomminus" xlink:href="#zoomMin" x="42" y="9" onmousedown="handleZoom(evt,'out')"/>
                <use id="reset" xlink:href="#resetDef" x="30" y="36" onmousedown="handleReset()"/>
                <g id="arrowUp" xlink:href="#dirArrow" transform="translate(30 24)" onmousedown="handlePan(0,-1)">
                  <use xlink:href="#rim" fill="#404040">
                        <set attributeName="fill" to="#808080" begin="arrowUp.mouseover" end="arrowUp.mouseout"/>
                  </use>
                  <path fill="none" stroke="white" stroke-width="1.5" d="M0,-3.0v7 M-2.5,-0.5L0,-3.0L2.5,-0.5"/>
                </g>
                <g id="arrowRight" xlink:href="#dirArrow" transform="rotate(90) translate(36 -43)" onmousedown="handlePan(1,0)">
                  <use xlink:href="#rim" fill="#404040">
                        <set attributeName="fill" to="#808080" begin="arrowRight.mouseover" end="arrowRight.mouseout"/>
                  </use>
                  <path fill="none" stroke="white" stroke-width="1.5" d="M0,-3.0v7 M-2.5,-0.5L0,-3.0L2.5,-0.5"/>
                </g>
                <g id="arrowDown" xlink:href="#dirArrow" transform="rotate(180) translate(-30 -48)" onmousedown="handlePan(0,1)">
                  <use xlink:href="#rim" fill="#404040">
                        <set attributeName="fill" to="#808080" begin="arrowDown.mouseover" end="arrowDown.mouseout"/>
                  </use>
                  <path fill="none" stroke="white" stroke-width="1.5" d="M0,-3.0v7 M-2.5,-0.5L0,-3.0L2.5,-0.5"/>
                </g>
                <g id="arrowLeft" xlink:href="#dirArrow" transform="rotate(270) translate(-36 17)" onmousedown="handlePan(-1,0)">
                  <use xlink:href="#rim" fill="#404040">
                        <set attributeName="fill" to="#808080" begin="arrowLeft.mouseover" end="arrowLeft.mouseout"/>
                  </use>
                  <path fill="none" stroke="white" stroke-width="1.5" d="M0,-3.0v7 M-2.5,-0.5L0,-3.0L2.5,-0.5"/>
                </g>
        </g>
        <svg viewBox="0 0 15 15" width="100%" height="30px" preserveAspectRatio="xMaxYMin meet">
         <g id="arrow_out" transform="scale(0.3 0.3)">
          <a xlink:href="namespaceSolverUtils_ac956a14f8058561de46a633f07854aef_ac956a14f8058561de46a633f07854aef_cgraph_org.svg" target="_base">
           <rect id="button" ry="5" rx="5" y="6" x="6" height="38" width="38"
                fill="#f2f5e9" fill-opacity="0.5" stroke="#606060" stroke-width="1.0"/>
           <path id="arrow"
             d="M 11.500037,31.436501 C 11.940474,20.09759 22.043105,11.32322 32.158766,21.979434 L 37.068811,17.246167 C 37.068811,17.246167 37.088388,32 37.088388,32 L 22.160133,31.978069 C 22.160133,31.978069 26.997745,27.140456 26.997745,27.140456 C 18.528582,18.264221 13.291696,25.230495 11.500037,31.436501 z"
             style="fill:#404040;"/>
          </a>
         </g>
        </svg>
</svg>
