<?xml version="1.0" encoding="UTF-8" standalone="no"?>
<!DOCTYPE svg PUBLIC "-//W3C//DTD SVG 1.1//EN"
 "http://www.w3.org/Graphics/SVG/1.1/DTD/svg11.dtd">
<!-- Generated by graphviz version 2.30.1 (20150305.2338)
 -->
<!-- Title: CreateDataItemsFromSolution Pages: 1 -->
<svg width="678pt" height="232pt"
 viewBox="0.00 0.00 678.00 232.00" xmlns="http://www.w3.org/2000/svg" xmlns:xlink="http://www.w3.org/1999/xlink">
<g id="graph0" class="graph" transform="scale(1 1) rotate(0) translate(4 228)">
<title>CreateDataItemsFromSolution</title>
<!-- Node1 -->
<g id="node1" class="node"><title>Node1</title>
<polygon fill="#bfbfbf" stroke="black" points="0.5,-98.5 0.5,-117.5 149.5,-117.5 149.5,-98.5 0.5,-98.5"/>
<text text-anchor="middle" x="75" y="-105.5" font-family="Helvetica,sans-Serif" font-size="10.00">CreateDataItemsFromSolution</text>
</g>
<!-- Node2 -->
<g id="node2" class="node"><title>Node2</title>
<g id="a_node2"><a xlink:href="com__c_09_09_8hpp_a8d14cf34eccebd1168103d4624ac2677.html#a8d14cf34eccebd1168103d4624ac2677" target="_top" xlink:title="Registering an dataitem type. ">
<polygon fill="none" stroke="black" points="200,-136.5 200,-155.5 306,-155.5 306,-136.5 200,-136.5"/>
<text text-anchor="middle" x="253" y="-143.5" font-family="Helvetica,sans-Serif" font-size="10.00">COM_new_dataitem</text>
</a>
</g>
</g>
<!-- Node1&#45;&gt;Node2 -->
<g id="edge1" class="edge"><title>Node1&#45;&gt;Node2</title>
<path fill="none" stroke="midnightblue" d="M120.412,-117.589C143.951,-122.671 173.057,-128.955 197.905,-134.32"/>
<polygon fill="midnightblue" stroke="midnightblue" points="197.394,-137.791 207.907,-136.48 198.871,-130.948 197.394,-137.791"/>
</g>
<!-- Node6 -->
<g id="node6" class="node"><title>Node6</title>
<g id="a_node6"><a xlink:href="com__c_09_09_8hpp_adca6827f3c065859156fa3562c2cd9a8.html#adca6827f3c065859156fa3562c2cd9a8" target="_top" xlink:title="Associates an array with an dataitem for a specific pane. ">
<polygon fill="none" stroke="black" points="210,-174.5 210,-193.5 296,-193.5 296,-174.5 210,-174.5"/>
<text text-anchor="middle" x="253" y="-181.5" font-family="Helvetica,sans-Serif" font-size="10.00">COM_set_array</text>
</a>
</g>
</g>
<!-- Node1&#45;&gt;Node6 -->
<g id="edge5" class="edge"><title>Node1&#45;&gt;Node6</title>
<path fill="none" stroke="midnightblue" d="M91.9267,-117.534C112.91,-129.792 151.233,-151.146 186,-165 191.815,-167.317 198.021,-169.483 204.213,-171.462"/>
<polygon fill="midnightblue" stroke="midnightblue" points="203.286,-174.839 213.873,-174.414 205.332,-168.144 203.286,-174.839"/>
</g>
<!-- Node8 -->
<g id="node8" class="node"><title>Node8</title>
<g id="a_node8"><a xlink:href="com__c_09_09_8hpp_a000a075fb1782d7eeaae75a7136e6411.html#a000a075fb1782d7eeaae75a7136e6411" target="_top" xlink:title="Set sizes of for a specific dataitem. ">
<polygon fill="none" stroke="black" points="212,-98.5 212,-117.5 294,-117.5 294,-98.5 212,-98.5"/>
<text text-anchor="middle" x="253" y="-105.5" font-family="Helvetica,sans-Serif" font-size="10.00">COM_set_size</text>
</a>
</g>
</g>
<!-- Node1&#45;&gt;Node8 -->
<g id="edge8" class="edge"><title>Node1&#45;&gt;Node8</title>
<path fill="none" stroke="midnightblue" d="M149.62,-108C167.083,-108 185.323,-108 201.487,-108"/>
<polygon fill="midnightblue" stroke="midnightblue" points="201.781,-111.5 211.781,-108 201.781,-104.5 201.781,-111.5"/>
</g>
<!-- Node10 -->
<g id="node10" class="node"><title>Node10</title>
<g id="a_node10"><a xlink:href="classSolverUtils_1_1FEM_1_1SolutionData_addf180ac6b7ba13756908f2f6218230c.html#addf180ac6b7ba13756908f2f6218230c" target="_top" xlink:title="SolverUtils::FEM::Solution\lData::Data">
<polygon fill="none" stroke="black" points="186.5,-49 186.5,-79 319.5,-79 319.5,-49 186.5,-49"/>
<text text-anchor="start" x="194.5" y="-67" font-family="Helvetica,sans-Serif" font-size="10.00">SolverUtils::FEM::Solution</text>
<text text-anchor="middle" x="253" y="-56" font-family="Helvetica,sans-Serif" font-size="10.00">Data::Data</text>
</a>
</g>
</g>
<!-- Node1&#45;&gt;Node10 -->
<g id="edge11" class="edge"><title>Node1&#45;&gt;Node10</title>
<path fill="none" stroke="midnightblue" d="M114.189,-98.4527C134.005,-93.4988 158.845,-87.2888 181.958,-81.5105"/>
<polygon fill="midnightblue" stroke="midnightblue" points="182.886,-84.8863 191.739,-79.0654 181.188,-78.0953 182.886,-84.8863"/>
</g>
<!-- Node11 -->
<g id="node11" class="node"><title>Node11</title>
<g id="a_node11"><a xlink:href="classSolverUtils_1_1FEM_1_1SolutionData_a62680bd659e55d37f379eb09498faf92.html#a62680bd659e55d37f379eb09498faf92" target="_top" xlink:title="SolverUtils::FEM::Solution\lData::Meta">
<polygon fill="none" stroke="black" points="186.5,-0 186.5,-30 319.5,-30 319.5,-0 186.5,-0"/>
<text text-anchor="start" x="194.5" y="-18" font-family="Helvetica,sans-Serif" font-size="10.00">SolverUtils::FEM::Solution</text>
<text text-anchor="middle" x="253" y="-7" font-family="Helvetica,sans-Serif" font-size="10.00">Data::Meta</text>
</a>
</g>
</g>
<!-- Node1&#45;&gt;Node11 -->
<g id="edge12" class="edge"><title>Node1&#45;&gt;Node11</title>
<path fill="none" stroke="midnightblue" d="M89.3521,-98.3157C109.531,-83.9887 149.339,-56.9133 186,-39 189.594,-37.2437 193.352,-35.5433 197.171,-33.9134"/>
<polygon fill="midnightblue" stroke="midnightblue" points="198.796,-37.0307 206.736,-30.0152 196.154,-30.5484 198.796,-37.0307"/>
</g>
<!-- Node3 -->
<g id="node3" class="node"><title>Node3</title>
<g id="a_node3"><a xlink:href="COM__base_8hpp_a49353596e53127db61529b5c9000549d.html#a49353596e53127db61529b5c9000549d" target="_top" xlink:title="COM_get_com">
<polygon fill="none" stroke="black" points="383.5,-155.5 383.5,-174.5 466.5,-174.5 466.5,-155.5 383.5,-155.5"/>
<text text-anchor="middle" x="425" y="-162.5" font-family="Helvetica,sans-Serif" font-size="10.00">COM_get_com</text>
</a>
</g>
</g>
<!-- Node2&#45;&gt;Node3 -->
<g id="edge2" class="edge"><title>Node2&#45;&gt;Node3</title>
<path fill="none" stroke="midnightblue" d="M306.393,-151.856C327.688,-154.236 352.202,-156.975 373.319,-159.336"/>
<polygon fill="midnightblue" stroke="midnightblue" points="373.057,-162.828 383.384,-160.461 373.834,-155.871 373.057,-162.828"/>
</g>
<!-- Node5 -->
<g id="node5" class="node"><title>Node5</title>
<g id="a_node5"><a xlink:href="classCOM_1_1COM__base_a3f8b62a994717d5b99e6e48280ea94a1.html#a3f8b62a994717d5b99e6e48280ea94a1" target="_top" xlink:title="Creates a new dataitem for a window. ">
<polygon fill="none" stroke="black" points="365.5,-106 365.5,-136 484.5,-136 484.5,-106 365.5,-106"/>
<text text-anchor="start" x="373.5" y="-124" font-family="Helvetica,sans-Serif" font-size="10.00">COM::COM_base::new</text>
<text text-anchor="middle" x="425" y="-113" font-family="Helvetica,sans-Serif" font-size="10.00">_dataitem</text>
</a>
</g>
</g>
<!-- Node2&#45;&gt;Node5 -->
<g id="edge4" class="edge"><title>Node2&#45;&gt;Node5</title>
<path fill="none" stroke="midnightblue" d="M306.393,-138.295C321.824,-136.026 338.945,-133.508 355.239,-131.112"/>
<polygon fill="midnightblue" stroke="midnightblue" points="355.87,-134.557 365.255,-129.639 354.852,-127.631 355.87,-134.557"/>
</g>
<!-- Node4 -->
<g id="node4" class="node"><title>Node4</title>
<g id="a_node4"><a xlink:href="classCOM_1_1COM__base_a77bb770b9ec1aac99361c45efbccabc1.html#a77bb770b9ec1aac99361c45efbccabc1" target="_top" xlink:title="Get a pointer to the COM object. ">
<polygon fill="none" stroke="black" points="530.5,-155.5 530.5,-174.5 669.5,-174.5 669.5,-155.5 530.5,-155.5"/>
<text text-anchor="middle" x="600" y="-162.5" font-family="Helvetica,sans-Serif" font-size="10.00">COM::COM_base::get_com</text>
</a>
</g>
</g>
<!-- Node3&#45;&gt;Node4 -->
<g id="edge3" class="edge"><title>Node3&#45;&gt;Node4</title>
<path fill="none" stroke="midnightblue" d="M466.561,-165C482.571,-165 501.54,-165 520.044,-165"/>
<polygon fill="midnightblue" stroke="midnightblue" points="520.255,-168.5 530.255,-165 520.255,-161.5 520.255,-168.5"/>
</g>
<!-- Node6&#45;&gt;Node3 -->
<g id="edge6" class="edge"><title>Node6&#45;&gt;Node3</title>
<path fill="none" stroke="midnightblue" d="M296.022,-179.303C319.338,-176.698 348.507,-173.437 373.107,-170.688"/>
<polygon fill="midnightblue" stroke="midnightblue" points="373.791,-174.134 383.34,-169.544 373.013,-167.177 373.791,-174.134"/>
</g>
<!-- Node7 -->
<g id="node7" class="node"><title>Node7</title>
<g id="a_node7"><a xlink:href="classCOM_1_1COM__base_a57c037aa472a815dda4667bb7cb2f986.html#a57c037aa472a815dda4667bb7cb2f986" target="_top" xlink:title="Associates an array with an dataitem for a specific pane. ">
<polygon fill="none" stroke="black" points="367.5,-194 367.5,-224 482.5,-224 482.5,-194 367.5,-194"/>
<text text-anchor="start" x="375.5" y="-212" font-family="Helvetica,sans-Serif" font-size="10.00">COM::COM_base::set</text>
<text text-anchor="middle" x="425" y="-201" font-family="Helvetica,sans-Serif" font-size="10.00">_array</text>
</a>
</g>
</g>
<!-- Node6&#45;&gt;Node7 -->
<g id="edge7" class="edge"><title>Node6&#45;&gt;Node7</title>
<path fill="none" stroke="midnightblue" d="M296.022,-190.18C314.527,-192.901 336.72,-196.165 357.389,-199.204"/>
<polygon fill="midnightblue" stroke="midnightblue" points="356.988,-202.683 367.391,-200.675 358.006,-195.757 356.988,-202.683"/>
</g>
<!-- Node8&#45;&gt;Node3 -->
<g id="edge9" class="edge"><title>Node8&#45;&gt;Node3</title>
<path fill="none" stroke="midnightblue" d="M291.745,-117.576C301.091,-120.299 311.002,-123.49 320,-127 336.665,-133.502 339.354,-138.45 356,-145 362.849,-147.695 370.21,-150.222 377.469,-152.513"/>
<polygon fill="midnightblue" stroke="midnightblue" points="376.662,-155.926 387.248,-155.484 378.697,-149.228 376.662,-155.926"/>
</g>
<!-- Node9 -->
<g id="node9" class="node"><title>Node9</title>
<g id="a_node9"><a xlink:href="classCOM_1_1COM__base_aeeab27fa8f95627604ddb3d48dcc15d0.html#aeeab27fa8f95627604ddb3d48dcc15d0" target="_top" xlink:title="Set the sizes of an dataitem. ">
<polygon fill="none" stroke="black" points="356,-67.5 356,-86.5 494,-86.5 494,-67.5 356,-67.5"/>
<text text-anchor="middle" x="425" y="-74.5" font-family="Helvetica,sans-Serif" font-size="10.00">COM::COM_base::set_size</text>
</a>
</g>
</g>
<!-- Node8&#45;&gt;Node9 -->
<g id="edge10" class="edge"><title>Node8&#45;&gt;Node9</title>
<path fill="none" stroke="midnightblue" d="M294.288,-100.653C314.473,-96.9727 339.36,-92.4343 361.92,-88.3205"/>
<polygon fill="midnightblue" stroke="midnightblue" points="362.55,-91.7635 371.759,-86.5262 361.294,-84.877 362.55,-91.7635"/>
</g>
</g>
</svg>
