<?xml version="1.0" encoding="UTF-8" standalone="no"?>
<!DOCTYPE svg PUBLIC "-//W3C//DTD SVG 1.1//EN"
 "http://www.w3.org/Graphics/SVG/1.1/DTD/svg11.dtd">
<!-- Generated by graphviz version 2.26.0 (20091210.2329)
 -->
<!-- Title: Test Pages: 1 -->
<!--zoomable 457 -->
<svg id="main" version="1.1" xmlns="http://www.w3.org/2000/svg" xmlns:xlink="http://www.w3.org/1999/xlink" xml:space="preserve" onload="init(evt)">
<style type="text/css"><![CDATA[
.edge:hover path { stroke: red; }
.edge:hover polygon { stroke: red; fill: red; }
]]></style>
<script type="text/javascript"><![CDATA[
var edges = document.getElementsByTagName('g');
if (edges && edges.length) {
  for (var i=0;i<edges.length;i++) {
    if (edges[i].id.substr(0,4)=='edge') {
      edges[i].setAttribute('class','edge');
    }
  }
}
]]></script>
        <defs>
                <circle id="rim" cx="0" cy="0" r="7"/>
                <circle id="rim2" cx="0" cy="0" r="3.5"/>
                <g id="zoomPlus">
                        <use xlink:href="#rim" fill="#404040">
                                <set attributeName="fill" to="#808080" begin="zoomplus.mouseover" end="zoomplus.mouseout"/>
                        </use>
                        <path d="M-4,0h8M0,-4v8" fill="none" stroke="white" stroke-width="1.5" pointer-events="none"/>
                </g>
                <g id="zoomMin">
                        <use xlink:href="#rim" fill="#404040">
                                <set attributeName="fill" to="#808080" begin="zoomminus.mouseover" end="zoomminus.mouseout"/>
                        </use>
                        <path d="M-4,0h8" fill="none" stroke="white" stroke-width="1.5" pointer-events="none"/>
                </g>
                <g id="dirArrow">
                        <path fill="none" stroke="white" stroke-width="1.5" d="M0,-3.0v7 M-2.5,-0.5L0,-3.0L2.5,-0.5"/>
                </g>
               <g id="resetDef">
                       <use xlink:href="#rim2" fill="#404040">
                               <set attributeName="fill" to="#808080" begin="reset.mouseover" end="reset.mouseout"/>
                       </use>
               </g>
        </defs>

<script type="text/javascript">
var viewWidth = 616;
var viewHeight = 457;
var sectionId = 'dynsection-0';
</script>
<script xlink:href="svgpan.js"/>
<svg id="graph" class="graph">
<g id="viewport">
<title>Test</title>
<!-- Node1 -->
<g id="node1" class="node"><title>Node1</title>
<polygon fill="#bfbfbf" stroke="black" points="0,-216.5 0,-237.5 36,-237.5 36,-216.5 0,-216.5"/>
<text text-anchor="middle" x="18" y="-224.5" font-family="Helvetica,sans-Serif" font-size="10.00">Test</text>
</g>
<!-- Node2 -->
<g id="node3" class="node"><title>Node2</title>
<a xlink:href="classElmerModuleDriver_1_1TestComLine_a98b1050f09da390896f964fb7a892391.html#a98b1050f09da390896f964fb7a892391" target="_top" xlink:title="ElmerModuleDriver::\lTestComLine::Initialize">
<polygon fill="none" stroke="black" points="94.5,-288 94.5,-322 211.5,-322 211.5,-288 94.5,-288"/>
<text text-anchor="start" x="102.5" y="-309" font-family="Helvetica,sans-Serif" font-size="10.00">ElmerModuleDriver::</text>
<text text-anchor="middle" x="153" y="-296" font-family="Helvetica,sans-Serif" font-size="10.00">TestComLine::Initialize</text>
</a>
</g>
<!-- Node1&#45;&gt;Node2 -->
<g id="edge2" class="edge"><title>Node1&#45;&gt;Node2</title>
<path fill="none" stroke="midnightblue" d="M26.4529,-237.653C36.2539,-249.344 53.4533,-267.919 72,-279 76.0651,-281.429 80.3824,-283.657 84.8252,-285.697"/>
<polygon fill="midnightblue" stroke="midnightblue" points="83.5071,-288.94 94.0799,-289.623 86.241,-282.496 83.5071,-288.94"/>
</g>
<!-- Node3 -->
<g id="node5" class="node"><title>Node3</title>
<a xlink:href="classElmerModuleDriver_1_1TestingObject_a046f7ab06db0acf616b0d2bf3d3146aa.html#a046f7ab06db0acf616b0d2bf3d3146aa" target="_top" xlink:title="ElmerModuleDriver::\lTestingObject::Process">
<polygon fill="none" stroke="black" points="93.5,-236 93.5,-270 212.5,-270 212.5,-236 93.5,-236"/>
<text text-anchor="start" x="101.5" y="-257" font-family="Helvetica,sans-Serif" font-size="10.00">ElmerModuleDriver::</text>
<text text-anchor="middle" x="153" y="-244" font-family="Helvetica,sans-Serif" font-size="10.00">TestingObject::Process</text>
</a>
</g>
<!-- Node1&#45;&gt;Node3 -->
<g id="edge4" class="edge"><title>Node1&#45;&gt;Node3</title>
<path fill="none" stroke="midnightblue" d="M36.2067,-230.506C48.5402,-232.882 65.7014,-236.187 83.077,-239.533"/>
<polygon fill="midnightblue" stroke="midnightblue" points="82.8158,-243.047 93.2973,-241.502 84.1397,-236.174 82.8158,-243.047"/>
</g>
<!-- Node16 -->
<g id="node33" class="node"><title>Node16</title>
<a xlink:href="classElmerModuleDriver_1_1TestingObject_af1f07f14b9af7708e4264bb38937eed2.html#af1f07f14b9af7708e4264bb38937eed2" target="_top" xlink:title="Runs a test specified by name. ">
<polygon fill="none" stroke="black" points="92.5,-184 92.5,-218 213.5,-218 213.5,-184 92.5,-184"/>
<text text-anchor="start" x="100.5" y="-205" font-family="Helvetica,sans-Serif" font-size="10.00">ElmerModuleDriver::</text>
<text text-anchor="middle" x="153" y="-192" font-family="Helvetica,sans-Serif" font-size="10.00">TestingObject::RunTest</text>
</a>
</g>
<!-- Node1&#45;&gt;Node16 -->
<g id="edge34" class="edge"><title>Node1&#45;&gt;Node16</title>
<path fill="none" stroke="midnightblue" d="M36.2067,-223.494C48.3597,-221.153 65.2001,-217.91 82.3143,-214.614"/>
<polygon fill="midnightblue" stroke="midnightblue" points="83.2315,-218.001 92.3891,-212.673 81.9076,-211.128 83.2315,-218.001"/>
</g>
<!-- Node19 -->
<g id="node46" class="node"><title>Node19</title>
<a xlink:href="classElmerModuleDriver_1_1TestingObject_ab09e42d6825cd0ec94272ae199bae45b.html#ab09e42d6825cd0ec94272ae199bae45b" target="_top" xlink:title="Sets the string value of the testing source directory. ">
<polygon fill="none" stroke="black" points="72,-132 72,-166 234,-166 234,-132 72,-132"/>
<text text-anchor="start" x="80" y="-153" font-family="Helvetica,sans-Serif" font-size="10.00">ElmerModuleDriver::</text>
<text text-anchor="middle" x="153" y="-140" font-family="Helvetica,sans-Serif" font-size="10.00">TestingObject::SetSourceDirPath</text>
</a>
</g>
<!-- Node1&#45;&gt;Node19 -->
<g id="edge54" class="edge"><title>Node1&#45;&gt;Node19</title>
<path fill="none" stroke="midnightblue" d="M26.4529,-216.347C36.2539,-204.656 53.4533,-186.081 72,-175 74.7893,-173.333 77.6974,-171.761 80.6832,-170.28"/>
<polygon fill="midnightblue" stroke="midnightblue" points="82.1899,-173.439 89.8331,-166.102 79.2827,-167.072 82.1899,-173.439"/>
</g>
<!-- Node4 -->
<g id="node7" class="node"><title>Node4</title>
<a xlink:href="classElmerModuleDriver_1_1TestingObject_aa3cdb6d60e9d9834c19efaab0b044421.html#aa3cdb6d60e9d9834c19efaab0b044421" target="_top" xlink:title="Sets up the data fixtures for the tests. ">
<polygon fill="none" stroke="black" points="289,-132 289,-166 411,-166 411,-132 289,-132"/>
<text text-anchor="start" x="297" y="-153" font-family="Helvetica,sans-Serif" font-size="10.00">ElmerModuleDriver::</text>
<text text-anchor="middle" x="350" y="-140" font-family="Helvetica,sans-Serif" font-size="10.00">TestingObject::Prologue</text>
</a>
</g>
<!-- Node3&#45;&gt;Node4 -->
<g id="edge6" class="edge"><title>Node3&#45;&gt;Node4</title>
<path fill="none" stroke="midnightblue" d="M212.741,-238.854C220.285,-235.652 227.593,-231.75 234,-227 256.581,-210.26 247.449,-191.781 270,-175 273.05,-172.73 276.307,-170.654 279.697,-168.754"/>
<polygon fill="midnightblue" stroke="midnightblue" points="281.558,-171.736 288.931,-164.128 278.423,-165.477 281.558,-171.736"/>
</g>
<!-- Node5 -->
<g id="node9" class="node"><title>Node5</title>
<a xlink:href="classElmerModuleDriver_1_1TestingObject_a14258b94075936cb7bfadbcfc9a37b87.html#a14258b94075936cb7bfadbcfc9a37b87" target="_top" xlink:title="Test for ElmerModuleDriver::ExampleFunction. ">
<polygon fill="none" stroke="black" points="297,-236.5 297,-283.5 403,-283.5 403,-236.5 297,-236.5"/>
<text text-anchor="start" x="305" y="-270.5" font-family="Helvetica,sans-Serif" font-size="10.00">ElmerModuleDriver::</text>
<text text-anchor="start" x="305" y="-257.5" font-family="Helvetica,sans-Serif" font-size="10.00">TestingObject::Test</text>
<text text-anchor="middle" x="350" y="-244.5" font-family="Helvetica,sans-Serif" font-size="10.00">__ExampleFunction</text>
</a>
</g>
<!-- Node3&#45;&gt;Node5 -->
<g id="edge8" class="edge"><title>Node3&#45;&gt;Node5</title>
<path fill="none" stroke="midnightblue" d="M212.641,-255.119C236.021,-255.95 262.879,-256.904 286.609,-257.748"/>
<polygon fill="midnightblue" stroke="midnightblue" points="286.799,-261.256 296.917,-258.114 287.048,-254.261 286.799,-261.256"/>
</g>
<!-- Node7 -->
<g id="node13" class="node"><title>Node7</title>
<a xlink:href="classElmerModuleDriver_1_1TestingObject_a7928083cb5586c2b361e1d29a8dc2b54.html#a7928083cb5586c2b361e1d29a8dc2b54" target="_top" xlink:title="Test for ElmerModuleDriver::TrapezoidQuadrature. ">
<polygon fill="none" stroke="black" points="291,-302.5 291,-349.5 409,-349.5 409,-302.5 291,-302.5"/>
<text text-anchor="start" x="299" y="-336.5" font-family="Helvetica,sans-Serif" font-size="10.00">ElmerModuleDriver::</text>
<text text-anchor="start" x="299" y="-323.5" font-family="Helvetica,sans-Serif" font-size="10.00">TestingObject::Test</text>
<text text-anchor="middle" x="350" y="-310.5" font-family="Helvetica,sans-Serif" font-size="10.00">__TrapezoidQuadrature</text>
</a>
</g>
<!-- Node3&#45;&gt;Node7 -->
<g id="edge12" class="edge"><title>Node3&#45;&gt;Node7</title>
<path fill="none" stroke="midnightblue" d="M208.087,-270.074C216.794,-272.947 225.669,-275.98 234,-279 244.053,-282.644 263.523,-290.434 283.683,-298.643"/>
<polygon fill="midnightblue" stroke="midnightblue" points="282.382,-301.892 292.963,-302.43 285.027,-295.411 282.382,-301.892"/>
</g>
<!-- Node11 -->
<g id="node21" class="node"><title>Node11</title>
<a xlink:href="classElmerModuleDriver_1_1TestingObject_a7de28a366b07117111ce7c1e9515a434.html#a7de28a366b07117111ce7c1e9515a434" target="_top" xlink:title="Test for ElmerModuleDriver::MidPointQuadrature. ">
<polygon fill="none" stroke="black" points="293.5,-368.5 293.5,-415.5 406.5,-415.5 406.5,-368.5 293.5,-368.5"/>
<text text-anchor="start" x="301.5" y="-402.5" font-family="Helvetica,sans-Serif" font-size="10.00">ElmerModuleDriver::</text>
<text text-anchor="start" x="301.5" y="-389.5" font-family="Helvetica,sans-Serif" font-size="10.00">TestingObject::Test</text>
<text text-anchor="middle" x="350" y="-376.5" font-family="Helvetica,sans-Serif" font-size="10.00">__MidPointQuadrature</text>
</a>
</g>
<!-- Node3&#45;&gt;Node11 -->
<g id="edge20" class="edge"><title>Node3&#45;&gt;Node11</title>
<path fill="none" stroke="midnightblue" d="M212.775,-265.721C220.488,-269.145 227.833,-273.489 234,-279 263.073,-304.98 241.998,-331.869 270,-359 274.286,-363.152 279.167,-366.811 284.357,-370.028"/>
<polygon fill="midnightblue" stroke="midnightblue" points="282.892,-373.219 293.33,-375.036 286.304,-367.106 282.892,-373.219"/>
</g>
<!-- Node13 -->
<g id="node27" class="node"><title>Node13</title>
<a xlink:href="classElmerModuleDriver_1_1TestingObject_ada2078f55b55b73d4aacf78d061a57de.html#ada2078f55b55b73d4aacf78d061a57de" target="_top" xlink:title="ElmerModuleDriver::\lTestingObject::Test\l__ElmerUnitTests">
<polygon fill="none" stroke="black" points="297,-66.5 297,-113.5 403,-113.5 403,-66.5 297,-66.5"/>
<text text-anchor="start" x="305" y="-100.5" font-family="Helvetica,sans-Serif" font-size="10.00">ElmerModuleDriver::</text>
<text text-anchor="start" x="305" y="-87.5" font-family="Helvetica,sans-Serif" font-size="10.00">TestingObject::Test</text>
<text text-anchor="middle" x="350" y="-74.5" font-family="Helvetica,sans-Serif" font-size="10.00">__ElmerUnitTests</text>
</a>
</g>
<!-- Node3&#45;&gt;Node13 -->
<g id="edge28" class="edge"><title>Node3&#45;&gt;Node13</title>
<path fill="none" stroke="midnightblue" d="M212.829,-240.961C220.626,-237.438 227.98,-232.885 234,-227 268.976,-192.807 236.43,-158.575 270,-123 275.104,-117.591 281.225,-113.04 287.78,-109.217"/>
<polygon fill="midnightblue" stroke="midnightblue" points="289.683,-112.172 296.931,-104.444 286.446,-105.966 289.683,-112.172"/>
</g>
<!-- Node15 -->
<g id="node31" class="node"><title>Node15</title>
<a xlink:href="classElmerModuleDriver_1_1TestingObject_aa25f45634aafbb580d94840ad8452745.html#aa25f45634aafbb580d94840ad8452745" target="_top" xlink:title="Tears down the testing fixtures if needed. ">
<polygon fill="none" stroke="black" points="289.5,-184 289.5,-218 410.5,-218 410.5,-184 289.5,-184"/>
<text text-anchor="start" x="297.5" y="-205" font-family="Helvetica,sans-Serif" font-size="10.00">ElmerModuleDriver::</text>
<text text-anchor="middle" x="350" y="-192" font-family="Helvetica,sans-Serif" font-size="10.00">TestingObject::Epilogue</text>
</a>
</g>
<!-- Node3&#45;&gt;Node15 -->
<g id="edge32" class="edge"><title>Node3&#45;&gt;Node15</title>
<path fill="none" stroke="midnightblue" d="M212.641,-237.257C233.657,-231.71 257.484,-225.42 279.323,-219.656"/>
<polygon fill="midnightblue" stroke="midnightblue" points="280.424,-222.985 289.2,-217.049 278.638,-216.217 280.424,-222.985"/>
</g>
<!-- Node6 -->
<g id="node11" class="node"><title>Node6</title>
<a xlink:href="namespaceElmerModuleDriver_a4cc78661909b0a33b6b886a4d4290997.html#a4cc78661909b0a33b6b886a4d4290997" target="_top" xlink:title="Example function for ElmerModuleDriver (this is a brief description). ">
<polygon fill="none" stroke="black" points="491,-243.5 491,-264.5 583,-264.5 583,-243.5 491,-243.5"/>
<text text-anchor="middle" x="537" y="-251.5" font-family="Helvetica,sans-Serif" font-size="10.00">ExampleFunction</text>
</a>
</g>
<!-- Node5&#45;&gt;Node6 -->
<g id="edge10" class="edge"><title>Node5&#45;&gt;Node6</title>
<path fill="none" stroke="midnightblue" d="M403.086,-258.297C427.274,-257.521 455.929,-256.601 480.513,-255.812"/>
<polygon fill="midnightblue" stroke="midnightblue" points="480.893,-259.302 490.775,-255.483 480.668,-252.306 480.893,-259.302"/>
</g>
<!-- Node8 -->
<g id="node15" class="node"><title>Node8</title>
<a xlink:href="namespaceElmerModuleDriver_a7ea1066c129172a0edf5647d8254e957.html#a7ea1066c129172a0edf5647d8254e957" target="_top" xlink:title="Integrates f with composite trapezoid rule. ">
<polygon fill="none" stroke="black" points="483.5,-283.5 483.5,-304.5 590.5,-304.5 590.5,-283.5 483.5,-283.5"/>
<text text-anchor="middle" x="537" y="-291.5" font-family="Helvetica,sans-Serif" font-size="10.00">TrapezoidQuadrature</text>
</a>
</g>
<!-- Node7&#45;&gt;Node8 -->
<g id="edge14" class="edge"><title>Node7&#45;&gt;Node8</title>
<path fill="none" stroke="midnightblue" d="M409.168,-315.875C429.582,-312.382 452.532,-308.454 473.293,-304.902"/>
<polygon fill="midnightblue" stroke="midnightblue" points="474.022,-308.328 483.288,-303.191 472.841,-301.428 474.022,-308.328"/>
</g>
<!-- Node9 -->
<g id="node17" class="node"><title>Node9</title>
<a xlink:href="namespaceElmerModuleDriver_1_1TestFixture_a2b09de3be217e128933f09f43f9d7160.html#a2b09de3be217e128933f09f43f9d7160" target="_top" xlink:title="Simple test function fixture returns . ">
<polygon fill="none" stroke="black" points="484,-375 484,-409 590,-409 590,-375 484,-375"/>
<text text-anchor="start" x="492" y="-396" font-family="Helvetica,sans-Serif" font-size="10.00">ElmerModuleDriver::</text>
<text text-anchor="middle" x="537" y="-383" font-family="Helvetica,sans-Serif" font-size="10.00">TestFixture::F1</text>
</a>
</g>
<!-- Node7&#45;&gt;Node9 -->
<g id="edge16" class="edge"><title>Node7&#45;&gt;Node9</title>
<path fill="none" stroke="midnightblue" d="M409.168,-346.883C431.445,-354.745 456.741,-363.673 478.918,-371.501"/>
<polygon fill="midnightblue" stroke="midnightblue" points="477.944,-374.868 488.539,-374.896 480.274,-368.267 477.944,-374.868"/>
</g>
<!-- Node10 -->
<g id="node19" class="node"><title>Node10</title>
<a xlink:href="namespaceElmerModuleDriver_1_1TestFixture_a79ce78283ad52a81c4107d6cdeb9337c.html#a79ce78283ad52a81c4107d6cdeb9337c" target="_top" xlink:title="Simple test function fixture returns . ">
<polygon fill="none" stroke="black" points="484,-323 484,-357 590,-357 590,-323 484,-323"/>
<text text-anchor="start" x="492" y="-344" font-family="Helvetica,sans-Serif" font-size="10.00">ElmerModuleDriver::</text>
<text text-anchor="middle" x="537" y="-331" font-family="Helvetica,sans-Serif" font-size="10.00">TestFixture::F2</text>
</a>
</g>
<!-- Node7&#45;&gt;Node10 -->
<g id="edge18" class="edge"><title>Node7&#45;&gt;Node10</title>
<path fill="none" stroke="midnightblue" d="M409.168,-330.43C429.766,-331.972 452.945,-333.707 473.853,-335.272"/>
<polygon fill="midnightblue" stroke="midnightblue" points="473.68,-338.769 483.914,-336.026 474.203,-331.789 473.68,-338.769"/>
</g>
<!-- Node11&#45;&gt;Node9 -->
<g id="edge24" class="edge"><title>Node11&#45;&gt;Node9</title>
<path fill="none" stroke="midnightblue" d="M406.614,-392C427.772,-392 451.932,-392 473.659,-392"/>
<polygon fill="midnightblue" stroke="midnightblue" points="473.777,-395.5 483.777,-392 473.777,-388.5 473.777,-395.5"/>
</g>
<!-- Node11&#45;&gt;Node10 -->
<g id="edge26" class="edge"><title>Node11&#45;&gt;Node10</title>
<path fill="none" stroke="midnightblue" d="M406.614,-376.257C427.868,-370.347 452.151,-363.594 473.954,-357.532"/>
<polygon fill="midnightblue" stroke="midnightblue" points="475.08,-360.851 483.777,-354.8 473.205,-354.107 475.08,-360.851"/>
</g>
<!-- Node12 -->
<g id="node23" class="node"><title>Node12</title>
<a xlink:href="namespaceElmerModuleDriver_a94390a668cbb6637ea246c660d00d430.html#a94390a668cbb6637ea246c660d00d430" target="_top" xlink:title="Integrates f with composite midpoint rule. ">
<polygon fill="none" stroke="black" points="485.5,-427.5 485.5,-448.5 588.5,-448.5 588.5,-427.5 485.5,-427.5"/>
<text text-anchor="middle" x="537" y="-435.5" font-family="Helvetica,sans-Serif" font-size="10.00">MidPointQuadrature</text>
</a>
</g>
<!-- Node11&#45;&gt;Node12 -->
<g id="edge22" class="edge"><title>Node11&#45;&gt;Node12</title>
<path fill="none" stroke="midnightblue" d="M406.614,-405.926C431.368,-412.016 460.229,-419.115 484.497,-425.085"/>
<polygon fill="midnightblue" stroke="midnightblue" points="483.697,-428.492 494.243,-427.482 485.369,-421.695 483.697,-428.492"/>
</g>
<!-- Node14 -->
<g id="node29" class="node"><title>Node14</title>
<a xlink:href="classElmerModuleDriver_1_1TestingObject_a90864b099beaf9044bf8fff8a9857c0d.html#a90864b099beaf9044bf8fff8a9857c0d" target="_top" xlink:title="Function to copy input data from source testing directory for use in unit tests. ">
<polygon fill="none" stroke="black" points="466,-66 466,-100 608,-100 608,-66 466,-66"/>
<text text-anchor="start" x="474" y="-87" font-family="Helvetica,sans-Serif" font-size="10.00">ElmerModuleDriver::</text>
<text text-anchor="middle" x="537" y="-74" font-family="Helvetica,sans-Serif" font-size="10.00">TestingObject::GetInputData</text>
</a>
</g>
<!-- Node13&#45;&gt;Node14 -->
<g id="edge30" class="edge"><title>Node13&#45;&gt;Node14</title>
<path fill="none" stroke="midnightblue" d="M403.086,-88.0128C419.424,-87.4012 437.801,-86.7133 455.584,-86.0477"/>
<polygon fill="midnightblue" stroke="midnightblue" points="456.104,-89.5307 465.966,-85.659 455.842,-82.5356 456.104,-89.5307"/>
</g>
<!-- Node16&#45;&gt;Node4 -->
<g id="edge36" class="edge"><title>Node16&#45;&gt;Node4</title>
<path fill="none" stroke="midnightblue" d="M213.714,-184.974C234.4,-179.514 257.707,-173.362 279.119,-167.71"/>
<polygon fill="midnightblue" stroke="midnightblue" points="280.032,-171.089 288.808,-165.152 278.246,-164.32 280.032,-171.089"/>
</g>
<!-- Node16&#45;&gt;Node5 -->
<g id="edge38" class="edge"><title>Node16&#45;&gt;Node5</title>
<path fill="none" stroke="midnightblue" d="M209.981,-218.065C234.157,-225.306 262.419,-233.77 287.196,-241.191"/>
<polygon fill="midnightblue" stroke="midnightblue" points="286.278,-244.569 296.861,-244.085 288.286,-237.863 286.278,-244.569"/>
</g>
<!-- Node16&#45;&gt;Node7 -->
<g id="edge40" class="edge"><title>Node16&#45;&gt;Node7</title>
<path fill="none" stroke="midnightblue" d="M213.643,-214.707C220.962,-217.974 227.968,-222.011 234,-227 259.748,-248.295 245.131,-270.684 270,-293 273.652,-296.277 277.673,-299.255 281.912,-301.956"/>
<polygon fill="midnightblue" stroke="midnightblue" points="280.454,-305.156 290.865,-307.122 283.952,-299.093 280.454,-305.156"/>
</g>
<!-- Node16&#45;&gt;Node11 -->
<g id="edge42" class="edge"><title>Node16&#45;&gt;Node11</title>
<path fill="none" stroke="midnightblue" d="M213.599,-212.869C221.191,-216.418 228.283,-221.023 234,-227 276.035,-270.941 229.771,-313.4 270,-359 274.175,-363.732 279.133,-367.799 284.505,-371.293"/>
<polygon fill="midnightblue" stroke="midnightblue" points="282.823,-374.363 293.235,-376.324 286.318,-368.298 282.823,-374.363"/>
</g>
<!-- Node16&#45;&gt;Node13 -->
<g id="edge44" class="edge"><title>Node16&#45;&gt;Node13</title>
<path fill="none" stroke="midnightblue" d="M213.578,-186.495C220.825,-183.362 227.83,-179.574 234,-175 256.581,-158.26 248.112,-140.636 270,-123 275.345,-118.693 281.33,-114.873 287.557,-111.502"/>
<polygon fill="midnightblue" stroke="midnightblue" points="289.425,-114.481 296.806,-106.881 286.296,-108.219 289.425,-114.481"/>
</g>
<!-- Node16&#45;&gt;Node15 -->
<g id="edge52" class="edge"><title>Node16&#45;&gt;Node15</title>
<path fill="none" stroke="midnightblue" d="M213.714,-201C234.502,-201 257.937,-201 279.436,-201"/>
<polygon fill="midnightblue" stroke="midnightblue" points="279.487,-204.5 289.487,-201 279.486,-197.5 279.487,-204.5"/>
</g>
<!-- Node17 -->
<g id="node40" class="node"><title>Node17</title>
<a xlink:href="classElmerModuleDriver_1_1TestingObject_ae4d44626a9c27ea8352a740ae562f97d.html#ae4d44626a9c27ea8352a740ae562f97d" target="_top" xlink:title="ElmerModuleDriver::\lTestingObject::Test\l__ElasticBeam3D_LoadFunction">
<polygon fill="none" stroke="black" points="270.5,-0.5 270.5,-47.5 429.5,-47.5 429.5,-0.5 270.5,-0.5"/>
<text text-anchor="start" x="278.5" y="-34.5" font-family="Helvetica,sans-Serif" font-size="10.00">ElmerModuleDriver::</text>
<text text-anchor="start" x="278.5" y="-21.5" font-family="Helvetica,sans-Serif" font-size="10.00">TestingObject::Test</text>
<text text-anchor="middle" x="350" y="-8.5" font-family="Helvetica,sans-Serif" font-size="10.00">__ElasticBeam3D_LoadFunction</text>
</a>
</g>
<!-- Node16&#45;&gt;Node17 -->
<g id="edge46" class="edge"><title>Node16&#45;&gt;Node17</title>
<path fill="none" stroke="midnightblue" d="M213.845,-188.784C221.307,-185.285 228.298,-180.785 234,-175 272.489,-135.949 233.116,-97.5707 270,-57 270.881,-56.0308 271.795,-55.0893 272.739,-54.1747"/>
<polygon fill="midnightblue" stroke="midnightblue" points="275.076,-56.7827 280.496,-47.6792 270.582,-51.4158 275.076,-56.7827"/>
</g>
<!-- Node17&#45;&gt;Node14 -->
<g id="edge48" class="edge"><title>Node17&#45;&gt;Node14</title>
<path fill="none" stroke="midnightblue" d="M424.714,-47.5727C440.805,-52.6496 457.67,-57.9708 473.296,-62.9008"/>
<polygon fill="midnightblue" stroke="midnightblue" points="472.257,-66.243 482.847,-65.9142 474.363,-59.5674 472.257,-66.243"/>
</g>
<!-- Node18 -->
<g id="node43" class="node"><title>Node18</title>
<a xlink:href="classElmerModuleDriver_1_1TestingObject_a49a87f521aad787421e458e8d303c612.html#a49a87f521aad787421e458e8d303c612" target="_top" xlink:title="Function to compare two files. ">
<polygon fill="none" stroke="black" points="473.5,-7 473.5,-41 600.5,-41 600.5,-7 473.5,-7"/>
<text text-anchor="start" x="481.5" y="-28" font-family="Helvetica,sans-Serif" font-size="10.00">ElmerModuleDriver::</text>
<text text-anchor="middle" x="537" y="-15" font-family="Helvetica,sans-Serif" font-size="10.00">TestingObject::streamdiff</text>
</a>
</g>
<!-- Node17&#45;&gt;Node18 -->
<g id="edge50" class="edge"><title>Node17&#45;&gt;Node18</title>
<path fill="none" stroke="midnightblue" d="M429.576,-24C440.764,-24 452.224,-24 463.296,-24"/>
<polygon fill="midnightblue" stroke="midnightblue" points="463.336,-27.5001 473.336,-24 463.336,-20.5001 463.336,-27.5001"/>
</g>
</g>
</svg>
        <g id="navigator" transform="translate(0 0)" fill="#404254">
                <rect fill="#f2f5e9" fill-opacity="0.5" stroke="#606060" stroke-width=".5" x="0" y="0" width="60" height="60"/>
                <use id="zoomplus" xlink:href="#zoomPlus" x="17" y="9" onmousedown="handleZoom(evt,'in')"/>
                <use id="zoomminus" xlink:href="#zoomMin" x="42" y="9" onmousedown="handleZoom(evt,'out')"/>
                <use id="reset" xlink:href="#resetDef" x="30" y="36" onmousedown="handleReset()"/>
                <g id="arrowUp" xlink:href="#dirArrow" transform="translate(30 24)" onmousedown="handlePan(0,-1)">
                  <use xlink:href="#rim" fill="#404040">
                        <set attributeName="fill" to="#808080" begin="arrowUp.mouseover" end="arrowUp.mouseout"/>
                  </use>
                  <path fill="none" stroke="white" stroke-width="1.5" d="M0,-3.0v7 M-2.5,-0.5L0,-3.0L2.5,-0.5"/>
                </g>
                <g id="arrowRight" xlink:href="#dirArrow" transform="rotate(90) translate(36 -43)" onmousedown="handlePan(1,0)">
                  <use xlink:href="#rim" fill="#404040">
                        <set attributeName="fill" to="#808080" begin="arrowRight.mouseover" end="arrowRight.mouseout"/>
                  </use>
                  <path fill="none" stroke="white" stroke-width="1.5" d="M0,-3.0v7 M-2.5,-0.5L0,-3.0L2.5,-0.5"/>
                </g>
                <g id="arrowDown" xlink:href="#dirArrow" transform="rotate(180) translate(-30 -48)" onmousedown="handlePan(0,1)">
                  <use xlink:href="#rim" fill="#404040">
                        <set attributeName="fill" to="#808080" begin="arrowDown.mouseover" end="arrowDown.mouseout"/>
                  </use>
                  <path fill="none" stroke="white" stroke-width="1.5" d="M0,-3.0v7 M-2.5,-0.5L0,-3.0L2.5,-0.5"/>
                </g>
                <g id="arrowLeft" xlink:href="#dirArrow" transform="rotate(270) translate(-36 17)" onmousedown="handlePan(-1,0)">
                  <use xlink:href="#rim" fill="#404040">
                        <set attributeName="fill" to="#808080" begin="arrowLeft.mouseover" end="arrowLeft.mouseout"/>
                  </use>
                  <path fill="none" stroke="white" stroke-width="1.5" d="M0,-3.0v7 M-2.5,-0.5L0,-3.0L2.5,-0.5"/>
                </g>
        </g>
        <svg viewBox="0 0 15 15" width="100%" height="30px" preserveAspectRatio="xMaxYMin meet">
         <g id="arrow_out" transform="scale(0.3 0.3)">
          <a xlink:href="namespaceElmerModuleDriver_a657930328d3dc159ded2e9fd6473b2b6_a657930328d3dc159ded2e9fd6473b2b6_cgraph_org.svg" target="_base">
           <rect id="button" ry="5" rx="5" y="6" x="6" height="38" width="38"
                fill="#f2f5e9" fill-opacity="0.5" stroke="#606060" stroke-width="1.0"/>
           <path id="arrow"
             d="M 11.500037,31.436501 C 11.940474,20.09759 22.043105,11.32322 32.158766,21.979434 L 37.068811,17.246167 C 37.068811,17.246167 37.088388,32 37.088388,32 L 22.160133,31.978069 C 22.160133,31.978069 26.997745,27.140456 26.997745,27.140456 C 18.528582,18.264221 13.291696,25.230495 11.500037,31.436501 z"
             style="fill:#404040;"/>
          </a>
         </g>
        </svg>
</svg>
