<?xml version="1.0" encoding="UTF-8" standalone="no"?>
<!DOCTYPE svg PUBLIC "-//W3C//DTD SVG 1.1//EN"
 "http://www.w3.org/Graphics/SVG/1.1/DTD/svg11.dtd">
<!-- Generated by graphviz version 2.30.1 (20150305.2338)
 -->
<!-- Title: UnRegisterSolver Pages: 1 -->
<svg width="704pt" height="77pt"
 viewBox="0.00 0.00 704.00 77.00" xmlns="http://www.w3.org/2000/svg" xmlns:xlink="http://www.w3.org/1999/xlink">
<g id="graph0" class="graph" transform="scale(1 1) rotate(0) translate(4 73)">
<title>UnRegisterSolver</title>
<!-- Node1 -->
<g id="node1" class="node"><title>Node1</title>
<polygon fill="#bfbfbf" stroke="black" points="0,-27.5 0,-46.5 94,-46.5 94,-27.5 0,-27.5"/>
<text text-anchor="middle" x="47" y="-34.5" font-family="Helvetica,sans-Serif" font-size="10.00">UnRegisterSolver</text>
</g>
<!-- Node2 -->
<g id="node2" class="node"><title>Node2</title>
<g id="a_node2"><a xlink:href="namespaceSolverUtils_ada85c9258996a945bcfa817ffb6e6c51.html#ada85c9258996a945bcfa817ffb6e6c51" target="_top" xlink:title="DestroySolver">
<polygon fill="none" stroke="black" points="130.5,-27.5 130.5,-46.5 209.5,-46.5 209.5,-27.5 130.5,-27.5"/>
<text text-anchor="middle" x="170" y="-34.5" font-family="Helvetica,sans-Serif" font-size="10.00">DestroySolver</text>
</a>
</g>
</g>
<!-- Node1&#45;&gt;Node2 -->
<g id="edge1" class="edge"><title>Node1&#45;&gt;Node2</title>
<path fill="none" stroke="midnightblue" d="M94.0901,-37C102.542,-37 111.392,-37 119.927,-37"/>
<polygon fill="midnightblue" stroke="midnightblue" points="120.134,-40.5001 130.134,-37 120.133,-33.5001 120.134,-40.5001"/>
</g>
<!-- Node3 -->
<g id="node3" class="node"><title>Node3</title>
<g id="a_node3"><a xlink:href="com__c_09_09_8hpp_aee2bdea02bb47943444e452f62372e33.html#aee2bdea02bb47943444e452f62372e33" target="_top" xlink:title="COM_delete_window">
<polygon fill="none" stroke="black" points="246,-27.5 246,-46.5 356,-46.5 356,-27.5 246,-27.5"/>
<text text-anchor="middle" x="301" y="-34.5" font-family="Helvetica,sans-Serif" font-size="10.00">COM_delete_window</text>
</a>
</g>
</g>
<!-- Node2&#45;&gt;Node3 -->
<g id="edge2" class="edge"><title>Node2&#45;&gt;Node3</title>
<path fill="none" stroke="midnightblue" d="M209.704,-37C217.812,-37 226.571,-37 235.334,-37"/>
<polygon fill="midnightblue" stroke="midnightblue" points="235.585,-40.5001 245.585,-37 235.584,-33.5001 235.585,-40.5001"/>
</g>
<!-- Node4 -->
<g id="node4" class="node"><title>Node4</title>
<g id="a_node4"><a xlink:href="COM__base_8hpp_a49353596e53127db61529b5c9000549d.html#a49353596e53127db61529b5c9000549d" target="_top" xlink:title="COM_get_com">
<polygon fill="none" stroke="black" points="414.5,-49.5 414.5,-68.5 497.5,-68.5 497.5,-49.5 414.5,-49.5"/>
<text text-anchor="middle" x="456" y="-56.5" font-family="Helvetica,sans-Serif" font-size="10.00">COM_get_com</text>
</a>
</g>
</g>
<!-- Node3&#45;&gt;Node4 -->
<g id="edge3" class="edge"><title>Node3&#45;&gt;Node4</title>
<path fill="none" stroke="midnightblue" d="M356.373,-44.8183C371.866,-47.046 388.683,-49.4642 403.969,-51.6622"/>
<polygon fill="midnightblue" stroke="midnightblue" points="403.876,-55.1847 414.272,-53.1437 404.872,-48.256 403.876,-55.1847"/>
</g>
<!-- Node6 -->
<g id="node6" class="node"><title>Node6</title>
<g id="a_node6"><a xlink:href="classCOM_1_1COM__base_ad19a2baf9f3506b153d077429ad0cf4c.html#ad19a2baf9f3506b153d077429ad0cf4c" target="_top" xlink:title="Deletes a window with given name. ">
<polygon fill="none" stroke="black" points="392,-0 392,-30 520,-30 520,-0 392,-0"/>
<text text-anchor="start" x="400" y="-18" font-family="Helvetica,sans-Serif" font-size="10.00">COM::COM_base::delete</text>
<text text-anchor="middle" x="456" y="-7" font-family="Helvetica,sans-Serif" font-size="10.00">_window</text>
</a>
</g>
</g>
<!-- Node3&#45;&gt;Node6 -->
<g id="edge5" class="edge"><title>Node3&#45;&gt;Node6</title>
<path fill="none" stroke="midnightblue" d="M356.373,-29.1817C364.645,-27.9922 373.295,-26.7484 381.889,-25.5128"/>
<polygon fill="midnightblue" stroke="midnightblue" points="382.524,-28.9575 391.924,-24.0698 381.527,-22.0288 382.524,-28.9575"/>
</g>
<!-- Node5 -->
<g id="node5" class="node"><title>Node5</title>
<g id="a_node5"><a xlink:href="classCOM_1_1COM__base_a77bb770b9ec1aac99361c45efbccabc1.html#a77bb770b9ec1aac99361c45efbccabc1" target="_top" xlink:title="Get a pointer to the COM object. ">
<polygon fill="none" stroke="black" points="556.5,-49.5 556.5,-68.5 695.5,-68.5 695.5,-49.5 556.5,-49.5"/>
<text text-anchor="middle" x="626" y="-56.5" font-family="Helvetica,sans-Serif" font-size="10.00">COM::COM_base::get_com</text>
</a>
</g>
</g>
<!-- Node4&#45;&gt;Node5 -->
<g id="edge4" class="edge"><title>Node4&#45;&gt;Node5</title>
<path fill="none" stroke="midnightblue" d="M497.668,-59C512.224,-59 529.17,-59 545.86,-59"/>
<polygon fill="midnightblue" stroke="midnightblue" points="546.195,-62.5001 556.195,-59 546.195,-55.5001 546.195,-62.5001"/>
</g>
</g>
</svg>
