<?xml version="1.0" encoding="UTF-8" standalone="no"?>
<!DOCTYPE svg PUBLIC "-//W3C//DTD SVG 1.1//EN"
 "http://www.w3.org/Graphics/SVG/1.1/DTD/svg11.dtd">
<!-- Generated by graphviz version 2.30.1 (20150305.2338)
 -->
<!-- Title: Usage Pages: 1 -->
<svg width="204pt" height="66pt"
 viewBox="0.00 0.00 204.00 66.00" xmlns="http://www.w3.org/2000/svg" xmlns:xlink="http://www.w3.org/1999/xlink">
<g id="graph0" class="graph" transform="scale(1 1) rotate(0) translate(4 62)">
<title>Usage</title>
<!-- Node1 -->
<g id="node1" class="node"><title>Node1</title>
<polygon fill="#bfbfbf" stroke="black" points="0.5,-19.5 0.5,-38.5 45.5,-38.5 45.5,-19.5 0.5,-19.5"/>
<text text-anchor="middle" x="23" y="-26.5" font-family="Helvetica,sans-Serif" font-size="10.00">Usage</text>
</g>
<!-- Node2 -->
<g id="node2" class="node"><title>Node2</title>
<g id="a_node2"><a xlink:href="OFModuleDriver_8C_a0ddf1224851353fc92bfbff6f499fa97.html#a0ddf1224851353fc92bfbff6f499fa97" target="_top" xlink:title="main">
<polygon fill="none" stroke="black" points="120,-38.5 120,-57.5 158,-57.5 158,-38.5 120,-38.5"/>
<text text-anchor="middle" x="139" y="-45.5" font-family="Helvetica,sans-Serif" font-size="10.00">main</text>
</a>
</g>
</g>
<!-- Node1&#45;&gt;Node2 -->
<g id="edge1" class="edge"><title>Node1&#45;&gt;Node2</title>
<path fill="none" stroke="midnightblue" d="M55.6289,-34.2715C76.2786,-37.7131 102.51,-42.0849 119.753,-44.9588"/>
<polygon fill="midnightblue" stroke="midnightblue" points="56.1502,-30.8102 45.7109,-32.6185 54.9994,-37.7149 56.1502,-30.8102"/>
</g>
<!-- Node3 -->
<g id="node3" class="node"><title>Node3</title>
<g id="a_node3"><a xlink:href="namespaceCOM_ac3c87a84f9357bebe23933f58fa16aef.html#ac3c87a84f9357bebe23933f58fa16aef" target="_top" xlink:title="COM::parallelProgram">
<polygon fill="none" stroke="black" points="82.5,-0.5 82.5,-19.5 195.5,-19.5 195.5,-0.5 82.5,-0.5"/>
<text text-anchor="middle" x="139" y="-7.5" font-family="Helvetica,sans-Serif" font-size="10.00">COM::parallelProgram</text>
</a>
</g>
</g>
<!-- Node1&#45;&gt;Node3 -->
<g id="edge2" class="edge"><title>Node1&#45;&gt;Node3</title>
<path fill="none" stroke="midnightblue" d="M55.6528,-23.7245C63.9362,-22.344 73.1164,-20.8139 82.2537,-19.2911"/>
<polygon fill="midnightblue" stroke="midnightblue" points="54.9994,-20.2851 45.7109,-25.3815 56.1502,-27.1898 54.9994,-20.2851"/>
</g>
</g>
</svg>
