<?xml version="1.0" encoding="UTF-8" standalone="no"?>
<!DOCTYPE svg PUBLIC "-//W3C//DTD SVG 1.1//EN"
 "http://www.w3.org/Graphics/SVG/1.1/DTD/svg11.dtd">
<!-- Generated by graphviz version 2.30.1 (20150305.2338)
 -->
<!-- Title: OFModuleDriver.H Pages: 1 -->
<svg width="237pt" height="84pt"
 viewBox="0.00 0.00 237.00 84.00" xmlns="http://www.w3.org/2000/svg" xmlns:xlink="http://www.w3.org/1999/xlink">
<g id="graph0" class="graph" transform="scale(1 1) rotate(0) translate(4 80)">
<title>OFModuleDriver.H</title>
<!-- Node1 -->
<g id="node1" class="node"><title>Node1</title>
<polygon fill="#bfbfbf" stroke="black" points="62,-56.5 62,-75.5 160,-75.5 160,-56.5 62,-56.5"/>
<text text-anchor="middle" x="111" y="-63.5" font-family="Helvetica,sans-Serif" font-size="10.00">OFModuleDriver.H</text>
</g>
<!-- Node2 -->
<g id="node2" class="node"><title>Node2</title>
<g id="a_node2"><a xlink:href="OFModuleDriver_8C.html" target="_top" xlink:title="Main function of the driver (in C/C++) for the OpemFoamFSIModule. ">
<polygon fill="none" stroke="black" points="0,-0.5 0,-19.5 98,-19.5 98,-0.5 0,-0.5"/>
<text text-anchor="middle" x="49" y="-7.5" font-family="Helvetica,sans-Serif" font-size="10.00">OFModuleDriver.C</text>
</a>
</g>
</g>
<!-- Node1&#45;&gt;Node2 -->
<g id="edge1" class="edge"><title>Node1&#45;&gt;Node2</title>
<path fill="none" stroke="midnightblue" d="M93.2464,-49.5372C82.1915,-39.9087 68.3685,-27.8694 59.1426,-19.8339"/>
<polygon fill="midnightblue" stroke="midnightblue" points="91.199,-52.3954 101.039,-56.324 95.7965,-47.1168 91.199,-52.3954"/>
</g>
<!-- Node3 -->
<g id="node3" class="node"><title>Node3</title>
<g id="a_node3"><a xlink:href="OFModuleDriverPar_8C.html" target="_top" xlink:title="Main function of the driver (in C/C++) for the OpemFoamFSIModule. ">
<polygon fill="none" stroke="black" points="116.5,-0.5 116.5,-19.5 229.5,-19.5 229.5,-0.5 116.5,-0.5"/>
<text text-anchor="middle" x="173" y="-7.5" font-family="Helvetica,sans-Serif" font-size="10.00">OFModuleDriverPar.C</text>
</a>
</g>
</g>
<!-- Node1&#45;&gt;Node3 -->
<g id="edge2" class="edge"><title>Node1&#45;&gt;Node3</title>
<path fill="none" stroke="midnightblue" d="M128.754,-49.5372C139.808,-39.9087 153.631,-27.8694 162.857,-19.8339"/>
<polygon fill="midnightblue" stroke="midnightblue" points="126.203,-47.1168 120.961,-56.324 130.801,-52.3954 126.203,-47.1168"/>
</g>
</g>
</svg>
