<?xml version="1.0" encoding="UTF-8" standalone="no"?>
<!DOCTYPE svg PUBLIC "-//W3C//DTD SVG 1.1//EN"
 "http://www.w3.org/Graphics/SVG/1.1/DTD/svg11.dtd">
<!-- Generated by graphviz version 2.30.1 (20150305.2338)
 -->
<!-- Title: OFModuleDriver.C Pages: 1 -->
<svg width="864pt" height="84pt"
 viewBox="0.00 0.00 864.00 84.00" xmlns="http://www.w3.org/2000/svg" xmlns:xlink="http://www.w3.org/1999/xlink">
<g id="graph0" class="graph" transform="scale(1 1) rotate(0) translate(4 80)">
<title>OFModuleDriver.C</title>
<!-- Node1 -->
<g id="node1" class="node"><title>Node1</title>
<polygon fill="#bfbfbf" stroke="black" points="307,-56.5 307,-75.5 405,-75.5 405,-56.5 307,-56.5"/>
<text text-anchor="middle" x="356" y="-63.5" font-family="Helvetica,sans-Serif" font-size="10.00">OFModuleDriver.C</text>
</g>
<!-- Node2 -->
<g id="node2" class="node"><title>Node2</title>
<polygon fill="none" stroke="#bfbfbf" points="0,-0.5 0,-19.5 44,-19.5 44,-0.5 0,-0.5"/>
<text text-anchor="middle" x="22" y="-7.5" font-family="Helvetica,sans-Serif" font-size="10.00">com.h</text>
</g>
<!-- Node1&#45;&gt;Node2 -->
<g id="edge1" class="edge"><title>Node1&#45;&gt;Node2</title>
<path fill="none" stroke="midnightblue" d="M306.826,-59.7677C248.636,-53.1179 148.711,-40.2624 54.2633,-20.0284"/>
<polygon fill="midnightblue" stroke="midnightblue" points="54.7741,-16.5578 44.2587,-17.8524 53.2864,-23.3978 54.7741,-16.5578"/>
</g>
<!-- Node3 -->
<g id="node3" class="node"><title>Node3</title>
<polygon fill="none" stroke="#bfbfbf" points="62.5,-0.5 62.5,-19.5 145.5,-19.5 145.5,-0.5 62.5,-0.5"/>
<text text-anchor="middle" x="104" y="-7.5" font-family="Helvetica,sans-Serif" font-size="10.00">com_devel.hpp</text>
</g>
<!-- Node1&#45;&gt;Node3 -->
<g id="edge2" class="edge"><title>Node1&#45;&gt;Node3</title>
<path fill="none" stroke="midnightblue" d="M316.07,-56.4435C272.109,-47.0234 201.373,-31.8656 153.817,-21.6752"/>
<polygon fill="midnightblue" stroke="midnightblue" points="154.255,-18.1895 143.743,-19.5164 152.788,-25.0341 154.255,-18.1895"/>
</g>
<!-- Node4 -->
<g id="node4" class="node"><title>Node4</title>
<polygon fill="none" stroke="#bfbfbf" points="164,-0.5 164,-19.5 218,-19.5 218,-0.5 164,-0.5"/>
<text text-anchor="middle" x="191" y="-7.5" font-family="Helvetica,sans-Serif" font-size="10.00">iostream</text>
</g>
<!-- Node1&#45;&gt;Node4 -->
<g id="edge3" class="edge"><title>Node1&#45;&gt;Node4</title>
<path fill="none" stroke="midnightblue" d="M329.855,-56.4435C301.977,-47.3196 257.652,-32.8133 226.6,-22.6509"/>
<polygon fill="midnightblue" stroke="midnightblue" points="227.615,-19.3005 217.022,-19.5164 225.438,-25.9533 227.615,-19.3005"/>
</g>
<!-- Node5 -->
<g id="node5" class="node"><title>Node5</title>
<polygon fill="none" stroke="#bfbfbf" points="236,-0.5 236,-19.5 282,-19.5 282,-0.5 236,-0.5"/>
<text text-anchor="middle" x="259" y="-7.5" font-family="Helvetica,sans-Serif" font-size="10.00">cstring</text>
</g>
<!-- Node1&#45;&gt;Node5 -->
<g id="edge4" class="edge"><title>Node1&#45;&gt;Node5</title>
<path fill="none" stroke="midnightblue" d="M340.415,-56.324C325.001,-47.7428 301.188,-34.486 283.29,-24.5224"/>
<polygon fill="midnightblue" stroke="midnightblue" points="284.986,-21.4606 274.546,-19.6545 281.581,-27.5767 284.986,-21.4606"/>
</g>
<!-- Node6 -->
<g id="node6" class="node"><title>Node6</title>
<polygon fill="none" stroke="#bfbfbf" points="300.5,-0.5 300.5,-19.5 345.5,-19.5 345.5,-0.5 300.5,-0.5"/>
<text text-anchor="middle" x="323" y="-7.5" font-family="Helvetica,sans-Serif" font-size="10.00">cstdlib</text>
</g>
<!-- Node1&#45;&gt;Node6 -->
<g id="edge5" class="edge"><title>Node1&#45;&gt;Node6</title>
<path fill="none" stroke="midnightblue" d="M350.551,-56.083C345.986,-48.6127 339.332,-37.7244 333.707,-28.5199"/>
<polygon fill="midnightblue" stroke="midnightblue" points="336.549,-26.4588 328.348,-19.7511 330.576,-30.109 336.549,-26.4588"/>
</g>
<!-- Node7 -->
<g id="node7" class="node"><title>Node7</title>
<polygon fill="none" stroke="#bfbfbf" points="364,-0.5 364,-19.5 416,-19.5 416,-0.5 364,-0.5"/>
<text text-anchor="middle" x="390" y="-7.5" font-family="Helvetica,sans-Serif" font-size="10.00">sstream</text>
</g>
<!-- Node1&#45;&gt;Node7 -->
<g id="edge6" class="edge"><title>Node1&#45;&gt;Node7</title>
<path fill="none" stroke="midnightblue" d="M361.614,-56.083C366.367,-48.5341 373.318,-37.4948 379.152,-28.2298"/>
<polygon fill="midnightblue" stroke="midnightblue" points="382.124,-30.0783 384.49,-19.7511 376.2,-26.3486 382.124,-30.0783"/>
</g>
<!-- Node8 -->
<g id="node8" class="node"><title>Node8</title>
<polygon fill="none" stroke="#bfbfbf" points="434,-0.5 434,-19.5 534,-19.5 534,-0.5 434,-0.5"/>
<text text-anchor="middle" x="484" y="-7.5" font-family="Helvetica,sans-Serif" font-size="10.00">primitive_utilities.H</text>
</g>
<!-- Node1&#45;&gt;Node8 -->
<g id="edge7" class="edge"><title>Node1&#45;&gt;Node8</title>
<path fill="none" stroke="midnightblue" d="M376.282,-56.4435C397.347,-47.5566 430.517,-33.5632 454.486,-23.4514"/>
<polygon fill="midnightblue" stroke="midnightblue" points="455.96,-26.6283 463.813,-19.5164 453.239,-20.1787 455.96,-26.6283"/>
</g>
<!-- Node9 -->
<g id="node9" class="node"><title>Node9</title>
<polygon fill="none" stroke="#bfbfbf" points="552,-0.5 552,-19.5 632,-19.5 632,-0.5 552,-0.5"/>
<text text-anchor="middle" x="592" y="-7.5" font-family="Helvetica,sans-Serif" font-size="10.00">SolverAgent.H</text>
</g>
<!-- Node1&#45;&gt;Node9 -->
<g id="edge8" class="edge"><title>Node1&#45;&gt;Node9</title>
<path fill="none" stroke="midnightblue" d="M393.395,-56.4435C434.392,-47.0629 500.254,-31.9926 544.784,-21.8036"/>
<polygon fill="midnightblue" stroke="midnightblue" points="545.813,-25.1588 554.78,-19.5164 544.251,-18.3352 545.813,-25.1588"/>
</g>
<!-- Node10 -->
<g id="node10" class="node"><title>Node10</title>
<polygon fill="none" stroke="#bfbfbf" points="650.5,-0.5 650.5,-19.5 739.5,-19.5 739.5,-0.5 650.5,-0.5"/>
<text text-anchor="middle" x="695" y="-7.5" font-family="Helvetica,sans-Serif" font-size="10.00">InterfaceLayer.H</text>
</g>
<!-- Node1&#45;&gt;Node10 -->
<g id="edge9" class="edge"><title>Node1&#45;&gt;Node10</title>
<path fill="none" stroke="midnightblue" d="M405.193,-57.3634C459.962,-48.8319 551.396,-34.5024 640.237,-20.1126"/>
<polygon fill="midnightblue" stroke="midnightblue" points="640.905,-23.5501 650.216,-18.4943 639.784,-16.6404 640.905,-23.5501"/>
</g>
<!-- Node11 -->
<g id="node11" class="node"><title>Node11</title>
<g id="a_node11"><a xlink:href="OFModuleDriver_8H.html" target="_top" xlink:title="OFModuleDriver.H">
<polygon fill="none" stroke="black" points="758,-0.5 758,-19.5 856,-19.5 856,-0.5 758,-0.5"/>
<text text-anchor="middle" x="807" y="-7.5" font-family="Helvetica,sans-Serif" font-size="10.00">OFModuleDriver.H</text>
</a>
</g>
</g>
<!-- Node1&#45;&gt;Node11 -->
<g id="edge10" class="edge"><title>Node1&#45;&gt;Node11</title>
<path fill="none" stroke="midnightblue" d="M405.269,-59.9367C477.743,-52.3581 617.6,-37.2375 747.623,-20.0015"/>
<polygon fill="midnightblue" stroke="midnightblue" points="748.314,-23.4405 757.764,-18.6502 747.389,-16.5018 748.314,-23.4405"/>
</g>
</g>
</svg>
