<?xml version="1.0" encoding="UTF-8" standalone="no"?>
<!DOCTYPE svg PUBLIC "-//W3C//DTD SVG 1.1//EN"
 "http://www.w3.org/Graphics/SVG/1.1/DTD/svg11.dtd">
<!-- Generated by graphviz version 2.30.1 (20150305.2338)
 -->
<!-- Title: main Pages: 1 -->
<!--zoomable 871 -->
<svg id="main" version="1.1" xmlns="http://www.w3.org/2000/svg" xmlns:xlink="http://www.w3.org/1999/xlink" xml:space="preserve" onload="init(evt)">
<style type="text/css"><![CDATA[
.edge:hover path { stroke: red; }
.edge:hover polygon { stroke: red; fill: red; }
]]></style>
<script type="text/javascript"><![CDATA[
var edges = document.getElementsByTagName('g');
if (edges && edges.length) {
  for (var i=0;i<edges.length;i++) {
    if (edges[i].id.substr(0,4)=='edge') {
      edges[i].setAttribute('class','edge');
    }
  }
}
]]></script>
        <defs>
                <circle id="rim" cx="0" cy="0" r="7"/>
                <circle id="rim2" cx="0" cy="0" r="3.5"/>
                <g id="zoomPlus">
                        <use xlink:href="#rim" fill="#404040">
                                <set attributeName="fill" to="#808080" begin="zoomplus.mouseover" end="zoomplus.mouseout"/>
                        </use>
                        <path d="M-4,0h8M0,-4v8" fill="none" stroke="white" stroke-width="1.5" pointer-events="none"/>
                </g>
                <g id="zoomMin">
                        <use xlink:href="#rim" fill="#404040">
                                <set attributeName="fill" to="#808080" begin="zoomminus.mouseover" end="zoomminus.mouseout"/>
                        </use>
                        <path d="M-4,0h8" fill="none" stroke="white" stroke-width="1.5" pointer-events="none"/>
                </g>
                <g id="dirArrow">
                        <path fill="none" stroke="white" stroke-width="1.5" d="M0,-3.0v7 M-2.5,-0.5L0,-3.0L2.5,-0.5"/>
                </g>
               <g id="resetDef">
                       <use xlink:href="#rim2" fill="#404040">
                               <set attributeName="fill" to="#808080" begin="reset.mouseover" end="reset.mouseout"/>
                       </use>
               </g>
        </defs>

<script type="text/javascript">
var viewWidth = 596;
var viewHeight = 871;
var sectionId = 'dynsection-0';
</script>
<script xlink:href="svgpan.js"/>
<svg id="graph" class="graph">
<g id="viewport">
<title>main</title>
<!-- Node1 -->
<g id="node1" class="node"><title>Node1</title>
<polygon fill="#bfbfbf" stroke="black" points="0,-566.5 0,-585.5 38,-585.5 38,-566.5 0,-566.5"/>
<text text-anchor="middle" x="19" y="-573.5" font-family="Helvetica,sans-Serif" font-size="10.00">main</text>
</g>
<!-- Node2 -->
<g id="node2" class="node"><title>Node2</title>
<g id="a_node2"><a xlink:href="classSolverUtils_1_1FEM_1_1SolutionMetaData_a5ef81681512f0a2b59acf62166deaf9e.html#a5ef81681512f0a2b59acf62166deaf9e" target="_top" xlink:title="SolverUtils::FEM::Solution\lMetaData::AddField">
<polygon fill="none" stroke="black" points="85.5,-833 85.5,-863 218.5,-863 218.5,-833 85.5,-833"/>
<text text-anchor="start" x="93.5" y="-851" font-family="Helvetica,sans-Serif" font-size="10.00">SolverUtils::FEM::Solution</text>
<text text-anchor="middle" x="152" y="-840" font-family="Helvetica,sans-Serif" font-size="10.00">MetaData::AddField</text>
</a>
</g>
</g>
<!-- Node1&#45;&gt;Node2 -->
<g id="edge1" class="edge"><title>Node1&#45;&gt;Node2</title>
<path fill="none" stroke="midnightblue" d="M20.8479,-585.723C24.6277,-626.943 41.2153,-786.809 74,-823 75.2001,-824.325 76.4711,-825.58 77.8029,-826.768"/>
<polygon fill="midnightblue" stroke="midnightblue" points="75.9112,-829.723 86.0256,-832.877 80.0857,-824.104 75.9112,-829.723"/>
</g>
<!-- Node3 -->
<g id="node3" class="node"><title>Node3</title>
<g id="a_node3"><a xlink:href="com__c_09_09_8hpp_a6f9e4ea8f2cb977968964f4cb5a4b4f6.html#a6f9e4ea8f2cb977968964f4cb5a4b4f6" target="_top" xlink:title="COM_call_function">
<polygon fill="none" stroke="black" points="102,-794.5 102,-813.5 202,-813.5 202,-794.5 102,-794.5"/>
<text text-anchor="middle" x="152" y="-801.5" font-family="Helvetica,sans-Serif" font-size="10.00">COM_call_function</text>
</a>
</g>
</g>
<!-- Node1&#45;&gt;Node3 -->
<g id="edge2" class="edge"><title>Node1&#45;&gt;Node3</title>
<path fill="none" stroke="midnightblue" d="M21.1645,-585.517C25.8766,-622.495 44.6915,-756.01 74,-785 79.1822,-790.126 85.5137,-793.944 92.2977,-796.777"/>
<polygon fill="midnightblue" stroke="midnightblue" points="91.1687,-800.09 101.764,-800.058 93.4616,-793.476 91.1687,-800.09"/>
</g>
<!-- Node4 -->
<g id="node4" class="node"><title>Node4</title>
<g id="a_node4"><a xlink:href="com__c_09_09_8hpp_a47ed797bddcdd0aabcd9f8e47f326744.html#a47ed797bddcdd0aabcd9f8e47f326744" target="_top" xlink:title="COM_finalize">
<polygon fill="none" stroke="black" points="114,-756.5 114,-775.5 190,-775.5 190,-756.5 114,-756.5"/>
<text text-anchor="middle" x="152" y="-763.5" font-family="Helvetica,sans-Serif" font-size="10.00">COM_finalize</text>
</a>
</g>
</g>
<!-- Node1&#45;&gt;Node4 -->
<g id="edge3" class="edge"><title>Node1&#45;&gt;Node4</title>
<path fill="none" stroke="midnightblue" d="M19.9778,-585.828C20.4721,-615.034 26.0889,-702.059 74,-747 82.1501,-754.645 92.8712,-759.352 103.714,-762.216"/>
<polygon fill="midnightblue" stroke="midnightblue" points="103.122,-765.669 113.636,-764.359 104.6,-758.827 103.122,-765.669"/>
</g>
<!-- Node6 -->
<g id="node6" class="node"><title>Node6</title>
<g id="a_node6"><a xlink:href="com__c_8h_a6dd240c15a2b3e85d2d91cbe9eec6611.html#a6dd240c15a2b3e85d2d91cbe9eec6611" target="_top" xlink:title="Get the address for an dataitem on a specific pane. ">
<polygon fill="none" stroke="black" points="109,-718.5 109,-737.5 195,-737.5 195,-718.5 109,-718.5"/>
<text text-anchor="middle" x="152" y="-725.5" font-family="Helvetica,sans-Serif" font-size="10.00">COM_get_array</text>
</a>
</g>
</g>
<!-- Node1&#45;&gt;Node6 -->
<g id="edge5" class="edge"><title>Node1&#45;&gt;Node6</title>
<path fill="none" stroke="midnightblue" d="M20.9766,-585.751C23.9825,-610.391 35.3743,-675.563 74,-709 81.1099,-715.155 89.9065,-719.378 98.9839,-722.262"/>
<polygon fill="midnightblue" stroke="midnightblue" points="98.3138,-725.705 108.878,-724.894 100.113,-718.941 98.3138,-725.705"/>
</g>
<!-- Node7 -->
<g id="node7" class="node"><title>Node7</title>
<g id="a_node7"><a xlink:href="com__c_09_09_8hpp_a390dfbadbcb267ac867fabbcd586683b.html#a390dfbadbcb267ac867fabbcd586683b" target="_top" xlink:title="COM_get_connectivities">
<polygon fill="none" stroke="black" points="90,-642.5 90,-661.5 214,-661.5 214,-642.5 90,-642.5"/>
<text text-anchor="middle" x="152" y="-649.5" font-family="Helvetica,sans-Serif" font-size="10.00">COM_get_connectivities</text>
</a>
</g>
</g>
<!-- Node1&#45;&gt;Node7 -->
<g id="edge6" class="edge"><title>Node1&#45;&gt;Node7</title>
<path fill="none" stroke="midnightblue" d="M26.4499,-585.684C35.5177,-598.515 53.2658,-620.93 74,-633 77.8525,-635.243 81.9621,-637.222 86.2021,-638.969"/>
<polygon fill="midnightblue" stroke="midnightblue" points="85.0499,-642.274 95.6435,-642.433 87.4611,-635.702 85.0499,-642.274"/>
</g>
<!-- Node11 -->
<g id="node11" class="node"><title>Node11</title>
<g id="a_node11"><a xlink:href="com__c_09_09_8hpp_a16b2a9aeed9d53bd2d11d4221ef2c148.html#a16b2a9aeed9d53bd2d11d4221ef2c148" target="_top" xlink:title="COM_get_dataitem">
<polygon fill="none" stroke="black" points="101.5,-680.5 101.5,-699.5 202.5,-699.5 202.5,-680.5 101.5,-680.5"/>
<text text-anchor="middle" x="152" y="-687.5" font-family="Helvetica,sans-Serif" font-size="10.00">COM_get_dataitem</text>
</a>
</g>
</g>
<!-- Node1&#45;&gt;Node11 -->
<g id="edge10" class="edge"><title>Node1&#45;&gt;Node11</title>
<path fill="none" stroke="midnightblue" d="M22.6226,-585.511C28.4486,-604.793 44.3518,-648.558 74,-671 79.3847,-675.076 85.5324,-678.287 91.9533,-680.816"/>
<polygon fill="midnightblue" stroke="midnightblue" points="90.9045,-684.156 101.499,-684.053 93.1528,-677.527 90.9045,-684.156"/>
</g>
<!-- Node13 -->
<g id="node13" class="node"><title>Node13</title>
<g id="a_node13"><a xlink:href="com__c_09_09_8hpp_a48824b0cc48b3d1310e84d87c7af9c80.html#a48824b0cc48b3d1310e84d87c7af9c80" target="_top" xlink:title="COM_get_dataitems">
<polygon fill="none" stroke="black" points="98.5,-604.5 98.5,-623.5 205.5,-623.5 205.5,-604.5 98.5,-604.5"/>
<text text-anchor="middle" x="152" y="-611.5" font-family="Helvetica,sans-Serif" font-size="10.00">COM_get_dataitems</text>
</a>
</g>
</g>
<!-- Node1&#45;&gt;Node13 -->
<g id="edge13" class="edge"><title>Node1&#45;&gt;Node13</title>
<path fill="none" stroke="midnightblue" d="M38.3501,-582.951C48.7321,-586.759 62.001,-591.418 74,-595 82.1553,-597.435 90.8614,-599.801 99.377,-601.991"/>
<polygon fill="midnightblue" stroke="midnightblue" points="98.6897,-605.427 109.242,-604.473 100.398,-598.639 98.6897,-605.427"/>
</g>
<!-- Node15 -->
<g id="node15" class="node"><title>Node15</title>
<g id="a_node15"><a xlink:href="com__c_09_09_8hpp_acbbf9749cce36d33b4c60c100bdfaea2.html#acbbf9749cce36d33b4c60c100bdfaea2" target="_top" xlink:title="COM_get_function_handle">
<polygon fill="none" stroke="black" points="86,-566.5 86,-585.5 218,-585.5 218,-566.5 86,-566.5"/>
<text text-anchor="middle" x="152" y="-573.5" font-family="Helvetica,sans-Serif" font-size="10.00">COM_get_function_handle</text>
</a>
</g>
</g>
<!-- Node1&#45;&gt;Node15 -->
<g id="edge16" class="edge"><title>Node1&#45;&gt;Node15</title>
<path fill="none" stroke="midnightblue" d="M38.215,-576C48.3414,-576 61.6965,-576 75.6621,-576"/>
<polygon fill="midnightblue" stroke="midnightblue" points="75.9018,-579.5 85.9018,-576 75.9017,-572.5 75.9018,-579.5"/>
</g>
<!-- Node17 -->
<g id="node17" class="node"><title>Node17</title>
<g id="a_node17"><a xlink:href="com__c_09_09_8hpp_a6e38c0b1f83c30b166b7500902e13be1.html#a6e38c0b1f83c30b166b7500902e13be1" target="_top" xlink:title="COM_get_panes">
<polygon fill="none" stroke="black" points="107,-528.5 107,-547.5 197,-547.5 197,-528.5 107,-528.5"/>
<text text-anchor="middle" x="152" y="-535.5" font-family="Helvetica,sans-Serif" font-size="10.00">COM_get_panes</text>
</a>
</g>
</g>
<!-- Node1&#45;&gt;Node17 -->
<g id="edge19" class="edge"><title>Node1&#45;&gt;Node17</title>
<path fill="none" stroke="midnightblue" d="M38.3501,-569.049C48.7321,-565.241 62.001,-560.582 74,-557 82.1553,-554.565 90.8614,-552.199 99.377,-550.009"/>
<polygon fill="midnightblue" stroke="midnightblue" points="100.398,-553.361 109.242,-547.527 98.6897,-546.573 100.398,-553.361"/>
</g>
<!-- Node19 -->
<g id="node19" class="node"><title>Node19</title>
<g id="a_node19"><a xlink:href="com__c_09_09_8hpp_a74e2d52abbc3b6532fc19b38deabba26.html#a74e2d52abbc3b6532fc19b38deabba26" target="_top" xlink:title="Get the sizes of an dataitem. ">
<polygon fill="none" stroke="black" points="111,-490.5 111,-509.5 193,-509.5 193,-490.5 111,-490.5"/>
<text text-anchor="middle" x="152" y="-497.5" font-family="Helvetica,sans-Serif" font-size="10.00">COM_get_size</text>
</a>
</g>
</g>
<!-- Node1&#45;&gt;Node19 -->
<g id="edge22" class="edge"><title>Node1&#45;&gt;Node19</title>
<path fill="none" stroke="midnightblue" d="M26.4499,-566.316C35.5177,-553.485 53.2658,-531.07 74,-519 82.3019,-514.167 91.7975,-510.558 101.22,-507.863"/>
<polygon fill="midnightblue" stroke="midnightblue" points="102.137,-511.241 110.959,-505.374 100.404,-504.459 102.137,-511.241"/>
</g>
<!-- Node21 -->
<g id="node21" class="node"><title>Node21</title>
<g id="a_node21"><a xlink:href="com__c_09_09_8hpp_ac0f80d6e63759a2afe40ed883cea3d5e.html#ac0f80d6e63759a2afe40ed883cea3d5e" target="_top" xlink:title="COM_init">
<polygon fill="none" stroke="black" points="123,-446.5 123,-465.5 181,-465.5 181,-446.5 123,-446.5"/>
<text text-anchor="middle" x="152" y="-453.5" font-family="Helvetica,sans-Serif" font-size="10.00">COM_init</text>
</a>
</g>
</g>
<!-- Node1&#45;&gt;Node21 -->
<g id="edge25" class="edge"><title>Node1&#45;&gt;Node21</title>
<path fill="none" stroke="midnightblue" d="M22.8527,-566.37C29.0034,-547.26 45.326,-504.374 74,-481 85.1119,-471.942 99.5929,-466.133 112.994,-462.422"/>
<polygon fill="midnightblue" stroke="midnightblue" points="114.082,-465.759 122.958,-459.975 112.412,-458.961 114.082,-465.759"/>
</g>
<!-- Node23 -->
<g id="node23" class="node"><title>Node23</title>
<g id="a_node23"><a xlink:href="classSolverUtils_1_1FEM_1_1SolutionData_a62680bd659e55d37f379eb09498faf92.html#a62680bd659e55d37f379eb09498faf92" target="_top" xlink:title="SolverUtils::FEM::Solution\lData::Meta">
<polygon fill="none" stroke="black" points="272.5,-392 272.5,-422 405.5,-422 405.5,-392 272.5,-392"/>
<text text-anchor="start" x="280.5" y="-410" font-family="Helvetica,sans-Serif" font-size="10.00">SolverUtils::FEM::Solution</text>
<text text-anchor="middle" x="339" y="-399" font-family="Helvetica,sans-Serif" font-size="10.00">Data::Meta</text>
</a>
</g>
</g>
<!-- Node1&#45;&gt;Node23 -->
<g id="edge27" class="edge"><title>Node1&#45;&gt;Node23</title>
<path fill="none" stroke="midnightblue" d="M20.5128,-566.268C22.4454,-540.406 31.556,-469.717 74,-437 127.076,-396.087 204.931,-391.948 262.349,-396.021"/>
<polygon fill="midnightblue" stroke="midnightblue" points="262.212,-399.522 272.461,-396.838 262.775,-392.544 262.212,-399.522"/>
</g>
<!-- Node24 -->
<g id="node24" class="node"><title>Node24</title>
<g id="a_node24"><a xlink:href="classSolverUtils_1_1FEM_1_1SolverAgent_aca958a697df836ac67f3244d08d9ee6c.html#aca958a697df836ac67f3244d08d9ee6c" target="_top" xlink:title="SolverUtils::FEM::Solver\lAgent::Solution">
<polygon fill="none" stroke="black" points="276.5,-343 276.5,-373 401.5,-373 401.5,-343 276.5,-343"/>
<text text-anchor="start" x="284.5" y="-361" font-family="Helvetica,sans-Serif" font-size="10.00">SolverUtils::FEM::Solver</text>
<text text-anchor="middle" x="339" y="-350" font-family="Helvetica,sans-Serif" font-size="10.00">Agent::Solution</text>
</a>
</g>
</g>
<!-- Node1&#45;&gt;Node24 -->
<g id="edge28" class="edge"><title>Node1&#45;&gt;Node24</title>
<path fill="none" stroke="midnightblue" d="M19.4823,-566.445C18.3807,-535.512 19.4947,-437.431 74,-391 126.492,-346.284 207.539,-342.498 265.988,-347.112"/>
<polygon fill="midnightblue" stroke="midnightblue" points="265.989,-350.626 276.26,-348.027 266.61,-343.654 265.989,-350.626"/>
</g>
<!-- Node25 -->
<g id="node25" class="node"><title>Node25</title>
<g id="a_node25"><a xlink:href="OFModuleDriver_8H_a1b77c1a7b6991fc163116c4193c51ffb.html#a1b77c1a7b6991fc163116c4193c51ffb" target="_top" xlink:title="Usage">
<polygon fill="none" stroke="black" points="129.5,-212.5 129.5,-231.5 174.5,-231.5 174.5,-212.5 129.5,-212.5"/>
<text text-anchor="middle" x="152" y="-219.5" font-family="Helvetica,sans-Serif" font-size="10.00">Usage</text>
</a>
</g>
</g>
<!-- Node1&#45;&gt;Node25 -->
<g id="edge29" class="edge"><title>Node1&#45;&gt;Node25</title>
<path fill="none" stroke="midnightblue" d="M20.1708,-566.301C21.2458,-516.536 28.6008,-290.288 74,-241 85.2932,-228.739 103.125,-223.826 118.786,-222.052"/>
<polygon fill="midnightblue" stroke="midnightblue" points="119.463,-225.511 129.174,-221.275 118.941,-218.531 119.463,-225.511"/>
</g>
<!-- Node26 -->
<g id="node26" class="node"><title>Node26</title>
<g id="a_node26"><a xlink:href="namespaceSolverUtils_a4b3e50cefefe85867c8de76b742654ff.html#a4b3e50cefefe85867c8de76b742654ff" target="_top" xlink:title="SolverUtils::WriteVTKToStream">
<polygon fill="none" stroke="black" points="74,-250.5 74,-269.5 230,-269.5 230,-250.5 74,-250.5"/>
<text text-anchor="middle" x="152" y="-257.5" font-family="Helvetica,sans-Serif" font-size="10.00">SolverUtils::WriteVTKToStream</text>
</a>
</g>
</g>
<!-- Node1&#45;&gt;Node26 -->
<g id="edge30" class="edge"><title>Node1&#45;&gt;Node26</title>
<path fill="none" stroke="midnightblue" d="M20.8511,-566.221C23.9431,-534.279 36.4468,-430.723 74,-355 89.1326,-324.487 115.539,-294.908 133.145,-277.077"/>
<polygon fill="midnightblue" stroke="midnightblue" points="135.902,-279.273 140.544,-269.749 130.976,-274.299 135.902,-279.273"/>
</g>
<!-- Node5 -->
<g id="node5" class="node"><title>Node5</title>
<g id="a_node5"><a xlink:href="classCOM_1_1COM__base_aa77ce2c05f3e9d82815db88996cfc1ed.html#aa77ce2c05f3e9d82815db88996cfc1ed" target="_top" xlink:title="COM::COM_base::finalize">
<polygon fill="none" stroke="black" points="273,-802.5 273,-821.5 405,-821.5 405,-802.5 273,-802.5"/>
<text text-anchor="middle" x="339" y="-809.5" font-family="Helvetica,sans-Serif" font-size="10.00">COM::COM_base::finalize</text>
</a>
</g>
</g>
<!-- Node4&#45;&gt;Node5 -->
<g id="edge4" class="edge"><title>Node4&#45;&gt;Node5</title>
<path fill="none" stroke="midnightblue" d="M190.212,-775.158C202.844,-778.273 217.038,-781.781 230,-785 249.716,-789.897 271.448,-795.324 290.217,-800.021"/>
<polygon fill="midnightblue" stroke="midnightblue" points="289.47,-803.442 300.021,-802.475 291.17,-796.651 289.47,-803.442"/>
</g>
<!-- Node8 -->
<g id="node8" class="node"><title>Node8</title>
<g id="a_node8"><a xlink:href="COM__base_8hpp_a49353596e53127db61529b5c9000549d.html#a49353596e53127db61529b5c9000549d" target="_top" xlink:title="COM_get_com">
<polygon fill="none" stroke="black" points="297.5,-616.5 297.5,-635.5 380.5,-635.5 380.5,-616.5 297.5,-616.5"/>
<text text-anchor="middle" x="339" y="-623.5" font-family="Helvetica,sans-Serif" font-size="10.00">COM_get_com</text>
</a>
</g>
</g>
<!-- Node7&#45;&gt;Node8 -->
<g id="edge7" class="edge"><title>Node7&#45;&gt;Node8</title>
<path fill="none" stroke="midnightblue" d="M214.089,-643.415C237.819,-640.08 264.678,-636.305 287.309,-633.124"/>
<polygon fill="midnightblue" stroke="midnightblue" points="287.968,-636.566 297.383,-631.708 286.993,-629.634 287.968,-636.566"/>
</g>
<!-- Node10 -->
<g id="node10" class="node"><title>Node10</title>
<g id="a_node10"><a xlink:href="classCOM_1_1COM__base_a21440170f046287a32a2ca776c9fd16c.html#a21440170f046287a32a2ca776c9fd16c" target="_top" xlink:title="Obtain the connectivity tables of a pane of the given window. ">
<polygon fill="none" stroke="black" points="281.5,-704 281.5,-734 396.5,-734 396.5,-704 281.5,-704"/>
<text text-anchor="start" x="289.5" y="-722" font-family="Helvetica,sans-Serif" font-size="10.00">COM::COM_base::get</text>
<text text-anchor="middle" x="339" y="-711" font-family="Helvetica,sans-Serif" font-size="10.00">_connectivities</text>
</a>
</g>
</g>
<!-- Node7&#45;&gt;Node10 -->
<g id="edge9" class="edge"><title>Node7&#45;&gt;Node10</title>
<path fill="none" stroke="midnightblue" d="M202.257,-661.608C211.65,-664.148 221.269,-667.255 230,-671 247.449,-678.485 248.915,-685.718 266,-694 270.571,-696.216 275.39,-698.329 280.281,-700.321"/>
<polygon fill="midnightblue" stroke="midnightblue" points="279.137,-703.632 289.726,-703.997 281.676,-697.109 279.137,-703.632"/>
</g>
<!-- Node9 -->
<g id="node9" class="node"><title>Node9</title>
<g id="a_node9"><a xlink:href="classCOM_1_1COM__base_a77bb770b9ec1aac99361c45efbccabc1.html#a77bb770b9ec1aac99361c45efbccabc1" target="_top" xlink:title="Get a pointer to the COM object. ">
<polygon fill="none" stroke="black" points="448.5,-616.5 448.5,-635.5 587.5,-635.5 587.5,-616.5 448.5,-616.5"/>
<text text-anchor="middle" x="518" y="-623.5" font-family="Helvetica,sans-Serif" font-size="10.00">COM::COM_base::get_com</text>
</a>
</g>
</g>
<!-- Node8&#45;&gt;Node9 -->
<g id="edge8" class="edge"><title>Node8&#45;&gt;Node9</title>
<path fill="none" stroke="midnightblue" d="M380.607,-626C397.808,-626 418.462,-626 438.433,-626"/>
<polygon fill="midnightblue" stroke="midnightblue" points="438.477,-629.5 448.477,-626 438.477,-622.5 438.477,-629.5"/>
</g>
<!-- Node11&#45;&gt;Node8 -->
<g id="edge11" class="edge"><title>Node11&#45;&gt;Node8</title>
<path fill="none" stroke="midnightblue" d="M202.783,-680.548C212.036,-678.004 221.468,-674.856 230,-671 247.751,-662.978 248.367,-654.279 266,-646 272.701,-642.854 279.992,-640.116 287.277,-637.762"/>
<polygon fill="midnightblue" stroke="midnightblue" points="288.587,-641.023 297.151,-634.786 286.567,-634.321 288.587,-641.023"/>
</g>
<!-- Node12 -->
<g id="node12" class="node"><title>Node12</title>
<g id="a_node12"><a xlink:href="classCOM_1_1COM__base_a74a5100529115d055808ef9aa5c369ba.html#a74a5100529115d055808ef9aa5c369ba" target="_top" xlink:title="Information retrieval Get the information about an dataitem. ">
<polygon fill="none" stroke="black" points="281.5,-753 281.5,-783 396.5,-783 396.5,-753 281.5,-753"/>
<text text-anchor="start" x="289.5" y="-771" font-family="Helvetica,sans-Serif" font-size="10.00">COM::COM_base::get</text>
<text text-anchor="middle" x="339" y="-760" font-family="Helvetica,sans-Serif" font-size="10.00">_dataitem</text>
</a>
</g>
</g>
<!-- Node11&#45;&gt;Node12 -->
<g id="edge12" class="edge"><title>Node11&#45;&gt;Node12</title>
<path fill="none" stroke="midnightblue" d="M202.883,-698.32C212.221,-700.973 221.66,-704.45 230,-709 249.32,-719.539 247.186,-731.581 266,-743 269.402,-745.065 272.999,-746.99 276.698,-748.779"/>
<polygon fill="midnightblue" stroke="midnightblue" points="275.489,-752.073 286.048,-752.95 278.341,-745.68 275.489,-752.073"/>
</g>
<!-- Node13&#45;&gt;Node8 -->
<g id="edge14" class="edge"><title>Node13&#45;&gt;Node8</title>
<path fill="none" stroke="midnightblue" d="M205.519,-617.407C231.15,-619.069 261.854,-621.061 287.246,-622.708"/>
<polygon fill="midnightblue" stroke="midnightblue" points="287.206,-626.213 297.412,-623.367 287.659,-619.227 287.206,-626.213"/>
</g>
<!-- Node14 -->
<g id="node14" class="node"><title>Node14</title>
<g id="a_node14"><a xlink:href="classCOM_1_1COM__base_ac64b4d78268b8bf76bde91677b51a819.html#ac64b4d78268b8bf76bde91677b51a819" target="_top" xlink:title="Obtain the user&#45;defined dataitems of the given window. ">
<polygon fill="none" stroke="black" points="281.5,-655 281.5,-685 396.5,-685 396.5,-655 281.5,-655"/>
<text text-anchor="start" x="289.5" y="-673" font-family="Helvetica,sans-Serif" font-size="10.00">COM::COM_base::get</text>
<text text-anchor="middle" x="339" y="-662" font-family="Helvetica,sans-Serif" font-size="10.00">_dataitems</text>
</a>
</g>
</g>
<!-- Node13&#45;&gt;Node14 -->
<g id="edge15" class="edge"><title>Node13&#45;&gt;Node14</title>
<path fill="none" stroke="midnightblue" d="M194.74,-623.589C206.222,-626.419 218.64,-629.659 230,-633 235.812,-634.709 260.709,-643.226 285.134,-651.658"/>
<polygon fill="midnightblue" stroke="midnightblue" points="284.196,-655.036 294.791,-654.995 286.482,-648.42 284.196,-655.036"/>
</g>
<!-- Node15&#45;&gt;Node8 -->
<g id="edge17" class="edge"><title>Node15&#45;&gt;Node8</title>
<path fill="none" stroke="midnightblue" d="M193.47,-585.546C205.281,-588.451 218.187,-591.74 230,-595 246.128,-599.45 249.939,-601.316 266,-606 274.687,-608.533 283.985,-611.171 292.917,-613.668"/>
<polygon fill="midnightblue" stroke="midnightblue" points="292.22,-617.107 302.793,-616.414 294.096,-610.363 292.22,-617.107"/>
</g>
<!-- Node16 -->
<g id="node16" class="node"><title>Node16</title>
<g id="a_node16"><a xlink:href="classCOM_1_1COM__base_a640995dd65a1fb030650457b9cf10b26.html#a640995dd65a1fb030650457b9cf10b26" target="_top" xlink:title="COM::COM_base::get\l_function_handle">
<polygon fill="none" stroke="black" points="281.5,-567 281.5,-597 396.5,-597 396.5,-567 281.5,-567"/>
<text text-anchor="start" x="289.5" y="-585" font-family="Helvetica,sans-Serif" font-size="10.00">COM::COM_base::get</text>
<text text-anchor="middle" x="339" y="-574" font-family="Helvetica,sans-Serif" font-size="10.00">_function_handle</text>
</a>
</g>
</g>
<!-- Node15&#45;&gt;Node16 -->
<g id="edge18" class="edge"><title>Node15&#45;&gt;Node16</title>
<path fill="none" stroke="midnightblue" d="M218.224,-578.115C235.442,-578.674 254.046,-579.277 271.339,-579.838"/>
<polygon fill="midnightblue" stroke="midnightblue" points="271.241,-583.337 281.349,-580.163 271.468,-576.34 271.241,-583.337"/>
</g>
<!-- Node17&#45;&gt;Node8 -->
<g id="edge20" class="edge"><title>Node17&#45;&gt;Node8</title>
<path fill="none" stroke="midnightblue" d="M197.149,-543.397C208.515,-546.212 220.272,-550.493 230,-557 252.462,-572.025 243.759,-590.651 266,-606 272.532,-610.508 280.053,-614.003 287.718,-616.712"/>
<polygon fill="midnightblue" stroke="midnightblue" points="286.851,-620.108 297.44,-619.741 288.934,-613.425 286.851,-620.108"/>
</g>
<!-- Node18 -->
<g id="node18" class="node"><title>Node18</title>
<g id="a_node18"><a xlink:href="classCOM_1_1COM__base_abac5455b6ae9ddffe748955994558b95.html#abac5455b6ae9ddffe748955994558b95" target="_top" xlink:title="Obtain the panes of a given window on a specific process. ">
<polygon fill="none" stroke="black" points="281.5,-518 281.5,-548 396.5,-548 396.5,-518 281.5,-518"/>
<text text-anchor="start" x="289.5" y="-536" font-family="Helvetica,sans-Serif" font-size="10.00">COM::COM_base::get</text>
<text text-anchor="middle" x="339" y="-525" font-family="Helvetica,sans-Serif" font-size="10.00">_panes</text>
</a>
</g>
</g>
<!-- Node17&#45;&gt;Node18 -->
<g id="edge21" class="edge"><title>Node17&#45;&gt;Node18</title>
<path fill="none" stroke="midnightblue" d="M197.312,-536.802C219.485,-536.203 246.782,-535.465 271.413,-534.8"/>
<polygon fill="midnightblue" stroke="midnightblue" points="271.52,-538.298 281.422,-534.529 271.331,-531.301 271.52,-538.298"/>
</g>
<!-- Node19&#45;&gt;Node8 -->
<g id="edge23" class="edge"><title>Node19&#45;&gt;Node8</title>
<path fill="none" stroke="midnightblue" d="M193.095,-502.725C206.087,-505.356 219.769,-510.202 230,-519 261.729,-546.283 234.67,-578.26 266,-606 272.215,-611.503 279.821,-615.504 287.734,-618.411"/>
<polygon fill="midnightblue" stroke="midnightblue" points="286.878,-621.81 297.467,-621.441 288.959,-615.127 286.878,-621.81"/>
</g>
<!-- Node20 -->
<g id="node20" class="node"><title>Node20</title>
<g id="a_node20"><a xlink:href="classCOM_1_1COM__base_a0059534958a2bbdd57080473206cd1d0.html#a0059534958a2bbdd57080473206cd1d0" target="_top" xlink:title="Get the sizes of an dataitem. The opposite of set_size. ">
<polygon fill="none" stroke="black" points="270,-479.5 270,-498.5 408,-498.5 408,-479.5 270,-479.5"/>
<text text-anchor="middle" x="339" y="-486.5" font-family="Helvetica,sans-Serif" font-size="10.00">COM::COM_base::get_size</text>
</a>
</g>
</g>
<!-- Node19&#45;&gt;Node20 -->
<g id="edge24" class="edge"><title>Node19&#45;&gt;Node20</title>
<path fill="none" stroke="midnightblue" d="M193.142,-497.613C212.675,-496.452 236.851,-495.014 259.821,-493.649"/>
<polygon fill="midnightblue" stroke="midnightblue" points="260.145,-497.136 269.919,-493.048 259.729,-490.148 260.145,-497.136"/>
</g>
<!-- Node22 -->
<g id="node22" class="node"><title>Node22</title>
<g id="a_node22"><a xlink:href="classCOM_1_1COM__base_a38b2bac03bb06f2d0ea5c99760da5f1c.html#a38b2bac03bb06f2d0ea5c99760da5f1c" target="_top" xlink:title="COM::COM_base::init">
<polygon fill="none" stroke="black" points="282,-441.5 282,-460.5 396,-460.5 396,-441.5 282,-441.5"/>
<text text-anchor="middle" x="339" y="-448.5" font-family="Helvetica,sans-Serif" font-size="10.00">COM::COM_base::init</text>
</a>
</g>
</g>
<!-- Node21&#45;&gt;Node22 -->
<g id="edge26" class="edge"><title>Node21&#45;&gt;Node22</title>
<path fill="none" stroke="midnightblue" d="M181.098,-455.241C204.982,-454.595 240.238,-453.642 271.284,-452.803"/>
<polygon fill="midnightblue" stroke="midnightblue" points="271.727,-456.293 281.628,-452.524 271.537,-449.295 271.727,-456.293"/>
</g>
<!-- Node26&#45;&gt;Node24 -->
<g id="edge31" class="edge"><title>Node26&#45;&gt;Node24</title>
<path fill="none" stroke="midnightblue" d="M165.622,-269.604C185.898,-284.689 227.377,-314.157 266,-333 270.378,-335.136 274.985,-337.174 279.666,-339.099"/>
<polygon fill="midnightblue" stroke="midnightblue" points="278.739,-342.495 289.327,-342.886 281.294,-335.978 278.739,-342.495"/>
</g>
<!-- Node27 -->
<g id="node27" class="node"><title>Node27</title>
<g id="a_node27"><a xlink:href="classSolverUtils_1_1FEM_1_1SolverAgent_a79921d24f767ba9aeb14b5e32db13b4c.html#a79921d24f767ba9aeb14b5e32db13b4c" target="_top" xlink:title="SolverUtils::FEM::Solver\lAgent::Mesh">
<polygon fill="none" stroke="black" points="276.5,-49 276.5,-79 401.5,-79 401.5,-49 276.5,-49"/>
<text text-anchor="start" x="284.5" y="-67" font-family="Helvetica,sans-Serif" font-size="10.00">SolverUtils::FEM::Solver</text>
<text text-anchor="middle" x="339" y="-56" font-family="Helvetica,sans-Serif" font-size="10.00">Agent::Mesh</text>
</a>
</g>
</g>
<!-- Node26&#45;&gt;Node27 -->
<g id="edge32" class="edge"><title>Node26&#45;&gt;Node27</title>
<path fill="none" stroke="midnightblue" d="M217.043,-250.418C221.811,-247.913 226.224,-244.818 230,-241 279.128,-191.337 218.893,-139.584 266,-88 266.777,-87.1487 267.586,-86.3275 268.422,-85.5354"/>
<polygon fill="midnightblue" stroke="midnightblue" points="270.874,-88.063 276.622,-79.1633 266.578,-82.5356 270.874,-88.063"/>
</g>
<!-- Node28 -->
<g id="node28" class="node"><title>Node28</title>
<g id="a_node28"><a xlink:href="namespaceSolverUtils_1_1Mesh_ad4367ce798da66717edb420d3b26323e.html#ad4367ce798da66717edb420d3b26323e" target="_top" xlink:title="SolverUtils::Mesh::\lWriteVTKToStream">
<polygon fill="none" stroke="black" points="288,-0 288,-30 390,-30 390,-0 288,-0"/>
<text text-anchor="start" x="296" y="-18" font-family="Helvetica,sans-Serif" font-size="10.00">SolverUtils::Mesh::</text>
<text text-anchor="middle" x="339" y="-7" font-family="Helvetica,sans-Serif" font-size="10.00">WriteVTKToStream</text>
</a>
</g>
</g>
<!-- Node26&#45;&gt;Node28 -->
<g id="edge33" class="edge"><title>Node26&#45;&gt;Node28</title>
<path fill="none" stroke="midnightblue" d="M217.633,-250.44C222.212,-247.923 226.423,-244.819 230,-241 292.335,-174.439 206.371,-107.996 266,-39 269.608,-34.8255 273.962,-31.3745 278.721,-28.522"/>
<polygon fill="midnightblue" stroke="midnightblue" points="280.307,-31.6421 287.653,-24.007 277.149,-25.3949 280.307,-31.6421"/>
</g>
<!-- Node29 -->
<g id="node29" class="node"><title>Node29</title>
<g id="a_node29"><a xlink:href="classSolverUtils_1_1FEM_1_1SolutionData_addf180ac6b7ba13756908f2f6218230c.html#addf180ac6b7ba13756908f2f6218230c" target="_top" xlink:title="SolverUtils::FEM::Solution\lData::Data">
<polygon fill="none" stroke="black" points="272.5,-294 272.5,-324 405.5,-324 405.5,-294 272.5,-294"/>
<text text-anchor="start" x="280.5" y="-312" font-family="Helvetica,sans-Serif" font-size="10.00">SolverUtils::FEM::Solution</text>
<text text-anchor="middle" x="339" y="-301" font-family="Helvetica,sans-Serif" font-size="10.00">Data::Data</text>
</a>
</g>
</g>
<!-- Node26&#45;&gt;Node29 -->
<g id="edge34" class="edge"><title>Node26&#45;&gt;Node29</title>
<path fill="none" stroke="midnightblue" d="M189.109,-269.564C212.531,-275.768 243.752,-284.037 271.555,-291.401"/>
<polygon fill="midnightblue" stroke="midnightblue" points="270.665,-294.786 281.228,-293.963 272.457,-288.019 270.665,-294.786"/>
</g>
<!-- Node26&#45;&gt;Node23 -->
<g id="edge35" class="edge"><title>Node26&#45;&gt;Node23</title>
<path fill="none" stroke="midnightblue" d="M159.447,-269.736C175.05,-292.579 217.186,-350.092 266,-382 268.97,-383.941 272.107,-385.75 275.345,-387.433"/>
<polygon fill="midnightblue" stroke="midnightblue" points="274.141,-390.735 284.677,-391.847 277.134,-384.407 274.141,-390.735"/>
</g>
<!-- Node30 -->
<g id="node30" class="node"><title>Node30</title>
<g id="a_node30"><a xlink:href="classSolverUtils_1_1Mesh_1_1NodalCoordinates_a6c40ee25a17756bd699b25f38bbf3001.html#a6c40ee25a17756bd699b25f38bbf3001" target="_top" xlink:title="SolverUtils::Mesh::\lNodalCoordinates::NNodes">
<polygon fill="none" stroke="black" points="270.5,-245 270.5,-275 407.5,-275 407.5,-245 270.5,-245"/>
<text text-anchor="start" x="278.5" y="-263" font-family="Helvetica,sans-Serif" font-size="10.00">SolverUtils::Mesh::</text>
<text text-anchor="middle" x="339" y="-252" font-family="Helvetica,sans-Serif" font-size="10.00">NodalCoordinates::NNodes</text>
</a>
</g>
</g>
<!-- Node26&#45;&gt;Node30 -->
<g id="edge36" class="edge"><title>Node26&#45;&gt;Node30</title>
<path fill="none" stroke="midnightblue" d="M230.117,-260C240.051,-260 250.228,-260 260.173,-260"/>
<polygon fill="midnightblue" stroke="midnightblue" points="260.433,-263.5 270.433,-260 260.433,-256.5 260.433,-263.5"/>
</g>
<!-- Node31 -->
<g id="node31" class="node"><title>Node31</title>
<g id="a_node31"><a xlink:href="classSolverUtils_1_1Mesh_1_1Connectivity_a3efad0e23e75de241cfe6c5193f1daa7.html#a3efad0e23e75de241cfe6c5193f1daa7" target="_top" xlink:title="SolverUtils::Mesh::\lConnectivity::Nelem">
<polygon fill="none" stroke="black" points="286,-196 286,-226 392,-226 392,-196 286,-196"/>
<text text-anchor="start" x="294" y="-214" font-family="Helvetica,sans-Serif" font-size="10.00">SolverUtils::Mesh::</text>
<text text-anchor="middle" x="339" y="-203" font-family="Helvetica,sans-Serif" font-size="10.00">Connectivity::Nelem</text>
</a>
</g>
</g>
<!-- Node26&#45;&gt;Node31 -->
<g id="edge37" class="edge"><title>Node26&#45;&gt;Node31</title>
<path fill="none" stroke="midnightblue" d="M192.624,-250.456C204.647,-247.497 217.88,-244.178 230,-241 244.978,-237.073 261.079,-232.688 276.158,-228.511"/>
<polygon fill="midnightblue" stroke="midnightblue" points="277.2,-231.854 285.897,-225.802 275.325,-225.11 277.2,-231.854"/>
</g>
<!-- Node32 -->
<g id="node32" class="node"><title>Node32</title>
<g id="a_node32"><a xlink:href="classSolverUtils_1_1FEM_1_1SolutionData_a967ed966dc1c49c1cea8eee1474604b1.html#a967ed966dc1c49c1cea8eee1474604b1" target="_top" xlink:title="SolverUtils::FEM::Solution\lData::GetFieldData">
<polygon fill="none" stroke="black" points="272.5,-147 272.5,-177 405.5,-177 405.5,-147 272.5,-147"/>
<text text-anchor="start" x="280.5" y="-165" font-family="Helvetica,sans-Serif" font-size="10.00">SolverUtils::FEM::Solution</text>
<text text-anchor="middle" x="339" y="-154" font-family="Helvetica,sans-Serif" font-size="10.00">Data::GetFieldData</text>
</a>
</g>
</g>
<!-- Node26&#45;&gt;Node32 -->
<g id="edge38" class="edge"><title>Node26&#45;&gt;Node32</title>
<path fill="none" stroke="midnightblue" d="M211.82,-250.474C218.277,-248.005 224.496,-244.901 230,-241 253.836,-224.106 242.857,-203.831 266,-186 267.823,-184.595 269.733,-183.27 271.709,-182.021"/>
<polygon fill="midnightblue" stroke="midnightblue" points="273.686,-184.926 280.733,-177.014 270.29,-178.806 273.686,-184.926"/>
</g>
<!-- Node34 -->
<g id="node34" class="node"><title>Node34</title>
<g id="a_node34"><a xlink:href="classSolverUtils_1_1FEM_1_1DataBuffer_a7c0db56cdbb7cc997b82b99ba2682ff6.html#a7c0db56cdbb7cc997b82b99ba2682ff6" target="_top" xlink:title="SolverUtils::FEM::DataBuffer\l::Data">
<polygon fill="none" stroke="black" points="266.5,-98 266.5,-128 411.5,-128 411.5,-98 266.5,-98"/>
<text text-anchor="start" x="274.5" y="-116" font-family="Helvetica,sans-Serif" font-size="10.00">SolverUtils::FEM::DataBuffer</text>
<text text-anchor="middle" x="339" y="-105" font-family="Helvetica,sans-Serif" font-size="10.00">::Data</text>
</a>
</g>
</g>
<!-- Node26&#45;&gt;Node34 -->
<g id="edge40" class="edge"><title>Node26&#45;&gt;Node34</title>
<path fill="none" stroke="midnightblue" d="M215.884,-250.358C221.021,-247.879 225.83,-244.805 230,-241 266.13,-208.028 231.215,-171.387 266,-137 267.083,-135.929 268.216,-134.906 269.391,-133.928"/>
<polygon fill="midnightblue" stroke="midnightblue" points="271.506,-136.72 277.689,-128.116 267.49,-130.986 271.506,-136.72"/>
</g>
<!-- Node33 -->
<g id="node33" class="node"><title>Node33</title>
<g id="a_node33"><a xlink:href="classSolverUtils_1_1FEM_1_1SolutionData_a2b73f52413287c249bd669e3fb1bfc52.html#a2b73f52413287c249bd669e3fb1bfc52" target="_top" xlink:title="SolverUtils::FEM::Solution\lData::GetDataIndex">
<polygon fill="none" stroke="black" points="451.5,-147 451.5,-177 584.5,-177 584.5,-147 451.5,-147"/>
<text text-anchor="start" x="459.5" y="-165" font-family="Helvetica,sans-Serif" font-size="10.00">SolverUtils::FEM::Solution</text>
<text text-anchor="middle" x="518" y="-154" font-family="Helvetica,sans-Serif" font-size="10.00">Data::GetDataIndex</text>
</a>
</g>
</g>
<!-- Node32&#45;&gt;Node33 -->
<g id="edge39" class="edge"><title>Node32&#45;&gt;Node33</title>
<path fill="none" stroke="midnightblue" d="M405.657,-162C417.223,-162 429.348,-162 441.165,-162"/>
<polygon fill="midnightblue" stroke="midnightblue" points="441.449,-165.5 451.449,-162 441.449,-158.5 441.449,-165.5"/>
</g>
</g>
</svg>
        <g id="navigator" transform="translate(0 0)" fill="#404254">
                <rect fill="#f2f5e9" fill-opacity="0.5" stroke="#606060" stroke-width=".5" x="0" y="0" width="60" height="60"/>
                <use id="zoomplus" xlink:href="#zoomPlus" x="17" y="9" onmousedown="handleZoom(evt,'in')"/>
                <use id="zoomminus" xlink:href="#zoomMin" x="42" y="9" onmousedown="handleZoom(evt,'out')"/>
                <use id="reset" xlink:href="#resetDef" x="30" y="36" onmousedown="handleReset()"/>
                <g id="arrowUp" xlink:href="#dirArrow" transform="translate(30 24)" onmousedown="handlePan(0,-1)">
                  <use xlink:href="#rim" fill="#404040">
                        <set attributeName="fill" to="#808080" begin="arrowUp.mouseover" end="arrowUp.mouseout"/>
                  </use>
                  <path fill="none" stroke="white" stroke-width="1.5" d="M0,-3.0v7 M-2.5,-0.5L0,-3.0L2.5,-0.5"/>
                </g>
                <g id="arrowRight" xlink:href="#dirArrow" transform="rotate(90) translate(36 -43)" onmousedown="handlePan(1,0)">
                  <use xlink:href="#rim" fill="#404040">
                        <set attributeName="fill" to="#808080" begin="arrowRight.mouseover" end="arrowRight.mouseout"/>
                  </use>
                  <path fill="none" stroke="white" stroke-width="1.5" d="M0,-3.0v7 M-2.5,-0.5L0,-3.0L2.5,-0.5"/>
                </g>
                <g id="arrowDown" xlink:href="#dirArrow" transform="rotate(180) translate(-30 -48)" onmousedown="handlePan(0,1)">
                  <use xlink:href="#rim" fill="#404040">
                        <set attributeName="fill" to="#808080" begin="arrowDown.mouseover" end="arrowDown.mouseout"/>
                  </use>
                  <path fill="none" stroke="white" stroke-width="1.5" d="M0,-3.0v7 M-2.5,-0.5L0,-3.0L2.5,-0.5"/>
                </g>
                <g id="arrowLeft" xlink:href="#dirArrow" transform="rotate(270) translate(-36 17)" onmousedown="handlePan(-1,0)">
                  <use xlink:href="#rim" fill="#404040">
                        <set attributeName="fill" to="#808080" begin="arrowLeft.mouseover" end="arrowLeft.mouseout"/>
                  </use>
                  <path fill="none" stroke="white" stroke-width="1.5" d="M0,-3.0v7 M-2.5,-0.5L0,-3.0L2.5,-0.5"/>
                </g>
        </g>
        <svg viewBox="0 0 15 15" width="100%" height="30px" preserveAspectRatio="xMaxYMin meet">
         <g id="arrow_out" transform="scale(0.3 0.3)">
          <a xlink:href="OFModuleDriver_8C_a0ddf1224851353fc92bfbff6f499fa97_a0ddf1224851353fc92bfbff6f499fa97_cgraph_org.svg" target="_base">
           <rect id="button" ry="5" rx="5" y="6" x="6" height="38" width="38"
                fill="#f2f5e9" fill-opacity="0.5" stroke="#606060" stroke-width="1.0"/>
           <path id="arrow"
             d="M 11.500037,31.436501 C 11.940474,20.09759 22.043105,11.32322 32.158766,21.979434 L 37.068811,17.246167 C 37.068811,17.246167 37.088388,32 37.088388,32 L 22.160133,31.978069 C 22.160133,31.978069 26.997745,27.140456 26.997745,27.140456 C 18.528582,18.264221 13.291696,25.230495 11.500037,31.436501 z"
             style="fill:#404040;"/>
          </a>
         </g>
        </svg>
</svg>
