<?xml version="1.0" encoding="UTF-8" standalone="no"?>
<!DOCTYPE svg PUBLIC "-//W3C//DTD SVG 1.1//EN"
 "http://www.w3.org/Graphics/SVG/1.1/DTD/svg11.dtd">
<!-- Generated by graphviz version 2.30.1 (20150305.2338)
 -->
<!-- Title: Orchestrator.H Pages: 1 -->
<!--zoomable 308 -->
<svg id="main" version="1.1" xmlns="http://www.w3.org/2000/svg" xmlns:xlink="http://www.w3.org/1999/xlink" xml:space="preserve" onload="init(evt)">
<style type="text/css"><![CDATA[
.edge:hover path { stroke: red; }
.edge:hover polygon { stroke: red; fill: red; }
]]></style>
<script type="text/javascript"><![CDATA[
var edges = document.getElementsByTagName('g');
if (edges && edges.length) {
  for (var i=0;i<edges.length;i++) {
    if (edges[i].id.substr(0,4)=='edge') {
      edges[i].setAttribute('class','edge');
    }
  }
}
]]></script>
        <defs>
                <circle id="rim" cx="0" cy="0" r="7"/>
                <circle id="rim2" cx="0" cy="0" r="3.5"/>
                <g id="zoomPlus">
                        <use xlink:href="#rim" fill="#404040">
                                <set attributeName="fill" to="#808080" begin="zoomplus.mouseover" end="zoomplus.mouseout"/>
                        </use>
                        <path d="M-4,0h8M0,-4v8" fill="none" stroke="white" stroke-width="1.5" pointer-events="none"/>
                </g>
                <g id="zoomMin">
                        <use xlink:href="#rim" fill="#404040">
                                <set attributeName="fill" to="#808080" begin="zoomminus.mouseover" end="zoomminus.mouseout"/>
                        </use>
                        <path d="M-4,0h8" fill="none" stroke="white" stroke-width="1.5" pointer-events="none"/>
                </g>
                <g id="dirArrow">
                        <path fill="none" stroke="white" stroke-width="1.5" d="M0,-3.0v7 M-2.5,-0.5L0,-3.0L2.5,-0.5"/>
                </g>
               <g id="resetDef">
                       <use xlink:href="#rim2" fill="#404040">
                               <set attributeName="fill" to="#808080" begin="reset.mouseover" end="reset.mouseout"/>
                       </use>
               </g>
        </defs>

<script type="text/javascript">
var viewWidth = 527;
var viewHeight = 308;
var sectionId = 'dynsection-0';
</script>
<script xlink:href="svgpan.js"/>
<svg id="graph" class="graph">
<g id="viewport">
<title>Orchestrator.H</title>
<!-- Node1 -->
<g id="node1" class="node"><title>Node1</title>
<polygon fill="#bfbfbf" stroke="black" points="183.5,-280.5 183.5,-299.5 264.5,-299.5 264.5,-280.5 183.5,-280.5"/>
<text text-anchor="middle" x="224" y="-287.5" font-family="Helvetica,sans-Serif" font-size="10.00">Orchestrator.H</text>
</g>
<!-- Node2 -->
<g id="node2" class="node"><title>Node2</title>
<g id="a_node2"><a xlink:href="ElmerAgent_8H.html" target="_top" xlink:title="ElmerAgent.H">
<polygon fill="none" stroke="black" points="0,-224.5 0,-243.5 78,-243.5 78,-224.5 0,-224.5"/>
<text text-anchor="middle" x="39" y="-231.5" font-family="Helvetica,sans-Serif" font-size="10.00">ElmerAgent.H</text>
</a>
</g>
</g>
<!-- Node1&#45;&gt;Node2 -->
<g id="edge1" class="edge"><title>Node1&#45;&gt;Node2</title>
<path fill="none" stroke="midnightblue" d="M184.834,-277.568C149.935,-267.381 99.6507,-252.703 68.1767,-243.516"/>
<polygon fill="midnightblue" stroke="midnightblue" points="184.106,-281.001 194.686,-280.444 186.067,-274.282 184.106,-281.001"/>
</g>
<!-- Node3 -->
<g id="node3" class="node"><title>Node3</title>
<g id="a_node3"><a xlink:href="FsiCoupling_8H.html" target="_top" xlink:title="Example serial program. ">
<polygon fill="none" stroke="black" points="66.5,-168.5 66.5,-187.5 145.5,-187.5 145.5,-168.5 66.5,-168.5"/>
<text text-anchor="middle" x="106" y="-175.5" font-family="Helvetica,sans-Serif" font-size="10.00">FsiCoupling.H</text>
</a>
</g>
</g>
<!-- Node1&#45;&gt;Node3 -->
<g id="edge8" class="edge"><title>Node1&#45;&gt;Node3</title>
<path fill="none" stroke="midnightblue" d="M177.327,-277.068C158.741,-270.178 138.586,-259.67 125,-244 110.829,-227.655 107.213,-201.227 106.301,-187.654"/>
<polygon fill="midnightblue" stroke="midnightblue" points="176.265,-280.404 186.859,-280.35 178.543,-273.786 176.265,-280.404"/>
</g>
<!-- Node9 -->
<g id="node9" class="node"><title>Node9</title>
<g id="a_node9"><a xlink:href="OpenFoamAgent_8H.html" target="_top" xlink:title="OpenFoamAgent.H">
<polygon fill="none" stroke="black" points="134.5,-224.5 134.5,-243.5 235.5,-243.5 235.5,-224.5 134.5,-224.5"/>
<text text-anchor="middle" x="185" y="-231.5" font-family="Helvetica,sans-Serif" font-size="10.00">OpenFoamAgent.H</text>
</a>
</g>
</g>
<!-- Node1&#45;&gt;Node9 -->
<g id="edge9" class="edge"><title>Node1&#45;&gt;Node9</title>
<path fill="none" stroke="midnightblue" d="M211.618,-271.855C204.865,-262.505 196.791,-251.327 191.32,-243.751"/>
<polygon fill="midnightblue" stroke="midnightblue" points="208.868,-274.025 217.56,-280.083 214.542,-269.927 208.868,-274.025"/>
</g>
<!-- Node10 -->
<g id="node10" class="node"><title>Node10</title>
<g id="a_node10"><a xlink:href="FsiCouplingPar_8H.html" target="_top" xlink:title="Example serial program. ">
<polygon fill="none" stroke="black" points="303,-168.5 303,-187.5 397,-187.5 397,-168.5 303,-168.5"/>
<text text-anchor="middle" x="350" y="-175.5" font-family="Helvetica,sans-Serif" font-size="10.00">FsiCouplingPar.H</text>
</a>
</g>
</g>
<!-- Node1&#45;&gt;Node10 -->
<g id="edge11" class="edge"><title>Node1&#45;&gt;Node10</title>
<path fill="none" stroke="midnightblue" d="M237.232,-272.289C248.581,-258.508 265.783,-238.876 283,-224 299.646,-209.617 321.074,-195.951 335.158,-187.531"/>
<polygon fill="midnightblue" stroke="midnightblue" points="234.246,-270.416 230.678,-280.392 239.689,-274.818 234.246,-270.416"/>
</g>
<!-- Node12 -->
<g id="node12" class="node"><title>Node12</title>
<g id="a_node12"><a xlink:href="OpenFoamParAgent_8H.html" target="_top" xlink:title="OpenFoamParAgent.H">
<polygon fill="none" stroke="black" points="292,-224.5 292,-243.5 408,-243.5 408,-224.5 292,-224.5"/>
<text text-anchor="middle" x="350" y="-231.5" font-family="Helvetica,sans-Serif" font-size="10.00">OpenFoamParAgent.H</text>
</a>
</g>
</g>
<!-- Node1&#45;&gt;Node12 -->
<g id="edge14" class="edge"><title>Node1&#45;&gt;Node12</title>
<path fill="none" stroke="midnightblue" d="M253.16,-276.503C276.781,-266.38 309.428,-252.388 330.128,-243.516"/>
<polygon fill="midnightblue" stroke="midnightblue" points="251.778,-273.287 243.965,-280.444 254.535,-279.721 251.778,-273.287"/>
</g>
<!-- Node13 -->
<g id="node13" class="node"><title>Node13</title>
<g id="a_node13"><a xlink:href="ElmerParAgent_8H.html" target="_top" xlink:title="ElmerParAgent.H">
<polygon fill="none" stroke="black" points="426.5,-224.5 426.5,-243.5 519.5,-243.5 519.5,-224.5 426.5,-224.5"/>
<text text-anchor="middle" x="473" y="-231.5" font-family="Helvetica,sans-Serif" font-size="10.00">ElmerParAgent.H</text>
</a>
</g>
</g>
<!-- Node1&#45;&gt;Node13 -->
<g id="edge16" class="edge"><title>Node1&#45;&gt;Node13</title>
<path fill="none" stroke="midnightblue" d="M273.424,-278.281C320.479,-268.077 390.367,-252.92 433.73,-243.516"/>
<polygon fill="midnightblue" stroke="midnightblue" points="272.486,-274.904 263.455,-280.444 273.969,-281.745 272.486,-274.904"/>
</g>
<!-- Node2&#45;&gt;Node3 -->
<g id="edge2" class="edge"><title>Node2&#45;&gt;Node3</title>
<path fill="none" stroke="midnightblue" d="M57.8348,-217.82C69.8384,-208.145 84.9717,-195.948 95.0394,-187.834"/>
<polygon fill="midnightblue" stroke="midnightblue" points="55.3543,-215.324 49.7647,-224.324 59.747,-220.774 55.3543,-215.324"/>
</g>
<!-- Node4 -->
<g id="node4" class="node"><title>Node4</title>
<g id="a_node4"><a xlink:href="ElmerFoamFSITest_8H.html" target="_top" xlink:title="Testing object for ElmerFoamFSI. ">
<polygon fill="none" stroke="black" points="168.5,-112.5 168.5,-131.5 281.5,-131.5 281.5,-112.5 168.5,-112.5"/>
<text text-anchor="middle" x="225" y="-119.5" font-family="Helvetica,sans-Serif" font-size="10.00">ElmerFoamFSITest.H</text>
</a>
</g>
</g>
<!-- Node3&#45;&gt;Node4 -->
<g id="edge3" class="edge"><title>Node3&#45;&gt;Node4</title>
<path fill="none" stroke="midnightblue" d="M134.137,-164.232C156.396,-154.131 186.856,-140.309 206.232,-131.516"/>
<polygon fill="midnightblue" stroke="midnightblue" points="132.516,-161.124 124.856,-168.444 135.409,-167.498 132.516,-161.124"/>
</g>
<!-- Node8 -->
<g id="node8" class="node"><title>Node8</title>
<g id="a_node8"><a xlink:href="ElmerFoamDriver_8C.html" target="_top" xlink:title="Example serial program. ">
<polygon fill="none" stroke="black" points="46,-112.5 46,-131.5 150,-131.5 150,-112.5 46,-112.5"/>
<text text-anchor="middle" x="98" y="-119.5" font-family="Helvetica,sans-Serif" font-size="10.00">ElmerFoamDriver.C</text>
</a>
</g>
</g>
<!-- Node3&#45;&gt;Node8 -->
<g id="edge7" class="edge"><title>Node3&#45;&gt;Node8</title>
<path fill="none" stroke="midnightblue" d="M103.2,-158.101C101.872,-149.136 100.349,-138.858 99.2965,-131.751"/>
<polygon fill="midnightblue" stroke="midnightblue" points="99.7512,-158.704 104.679,-168.083 106.676,-157.678 99.7512,-158.704"/>
</g>
<!-- Node5 -->
<g id="node5" class="node"><title>Node5</title>
<g id="a_node5"><a xlink:href="TestElmerFoamFSI_8H.html" target="_top" xlink:title="Testing utilities for ElmerFoamFSI. ">
<polygon fill="none" stroke="black" points="168.5,-56.5 168.5,-75.5 281.5,-75.5 281.5,-56.5 168.5,-56.5"/>
<text text-anchor="middle" x="225" y="-63.5" font-family="Helvetica,sans-Serif" font-size="10.00">TestElmerFoamFSI.H</text>
</a>
</g>
</g>
<!-- Node4&#45;&gt;Node5 -->
<g id="edge4" class="edge"><title>Node4&#45;&gt;Node5</title>
<path fill="none" stroke="midnightblue" d="M225,-101.805C225,-92.9102 225,-82.7798 225,-75.7511"/>
<polygon fill="midnightblue" stroke="midnightblue" points="221.5,-102.083 225,-112.083 228.5,-102.083 221.5,-102.083"/>
</g>
<!-- Node6 -->
<g id="node6" class="node"><title>Node6</title>
<g id="a_node6"><a xlink:href="ParallelTestElmerFoamFSI_8C.html" target="_top" xlink:title="Implements a command&#45;line interface for the ElmerFoamFSI tests. ">
<polygon fill="none" stroke="black" points="79.5,-0.5 79.5,-19.5 224.5,-19.5 224.5,-0.5 79.5,-0.5"/>
<text text-anchor="middle" x="152" y="-7.5" font-family="Helvetica,sans-Serif" font-size="10.00">ParallelTestElmerFoamFSI.C</text>
</a>
</g>
</g>
<!-- Node5&#45;&gt;Node6 -->
<g id="edge5" class="edge"><title>Node5&#45;&gt;Node6</title>
<path fill="none" stroke="midnightblue" d="M204.858,-50.1008C191.721,-40.3824 175.018,-28.0269 163.942,-19.8339"/>
<polygon fill="midnightblue" stroke="midnightblue" points="203.15,-53.1907 213.271,-56.324 207.313,-47.5631 203.15,-53.1907"/>
</g>
<!-- Node7 -->
<g id="node7" class="node"><title>Node7</title>
<g id="a_node7"><a xlink:href="TestElmerFoamFSI_8C.html" target="_top" xlink:title="Implements a command&#45;line interface for the ElmerFoamFSI tests. ">
<polygon fill="none" stroke="black" points="242.5,-0.5 242.5,-19.5 355.5,-19.5 355.5,-0.5 242.5,-0.5"/>
<text text-anchor="middle" x="299" y="-7.5" font-family="Helvetica,sans-Serif" font-size="10.00">TestElmerFoamFSI.C</text>
</a>
</g>
</g>
<!-- Node5&#45;&gt;Node7 -->
<g id="edge6" class="edge"><title>Node5&#45;&gt;Node7</title>
<path fill="none" stroke="midnightblue" d="M245.034,-50.3804C258.409,-40.6204 275.559,-28.1057 286.894,-19.8339"/>
<polygon fill="midnightblue" stroke="midnightblue" points="242.904,-47.602 236.889,-56.324 247.03,-53.2565 242.904,-47.602"/>
</g>
<!-- Node9&#45;&gt;Node3 -->
<g id="edge10" class="edge"><title>Node9&#45;&gt;Node3</title>
<path fill="none" stroke="midnightblue" d="M163.966,-218.622C149.534,-208.757 130.859,-195.992 118.661,-187.655"/>
<polygon fill="midnightblue" stroke="midnightblue" points="162.077,-221.57 172.307,-224.324 166.027,-215.791 162.077,-221.57"/>
</g>
<!-- Node10&#45;&gt;Node4 -->
<g id="edge12" class="edge"><title>Node10&#45;&gt;Node4</title>
<path fill="none" stroke="midnightblue" d="M320.759,-164.368C297.35,-154.255 265.159,-140.349 244.714,-131.516"/>
<polygon fill="midnightblue" stroke="midnightblue" points="319.625,-167.691 330.193,-168.444 322.401,-161.265 319.625,-167.691"/>
</g>
<!-- Node11 -->
<g id="node11" class="node"><title>Node11</title>
<g id="a_node11"><a xlink:href="ElmerFoamDriverPar_8C.html" target="_top" xlink:title="Example serial program. ">
<polygon fill="none" stroke="black" points="299.5,-112.5 299.5,-131.5 418.5,-131.5 418.5,-112.5 299.5,-112.5"/>
<text text-anchor="middle" x="359" y="-119.5" font-family="Helvetica,sans-Serif" font-size="10.00">ElmerFoamDriverPar.C</text>
</a>
</g>
</g>
<!-- Node10&#45;&gt;Node11 -->
<g id="edge13" class="edge"><title>Node10&#45;&gt;Node11</title>
<path fill="none" stroke="midnightblue" d="M353.15,-158.101C354.644,-149.136 356.357,-138.858 357.541,-131.751"/>
<polygon fill="midnightblue" stroke="midnightblue" points="349.678,-157.644 351.486,-168.083 356.583,-158.794 349.678,-157.644"/>
</g>
<!-- Node12&#45;&gt;Node10 -->
<g id="edge15" class="edge"><title>Node12&#45;&gt;Node10</title>
<path fill="none" stroke="midnightblue" d="M350,-213.805C350,-204.91 350,-194.78 350,-187.751"/>
<polygon fill="midnightblue" stroke="midnightblue" points="346.5,-214.083 350,-224.083 353.5,-214.083 346.5,-214.083"/>
</g>
<!-- Node13&#45;&gt;Node10 -->
<g id="edge17" class="edge"><title>Node13&#45;&gt;Node10</title>
<path fill="none" stroke="midnightblue" d="M444.227,-220.368C421.193,-210.255 389.516,-196.349 369.399,-187.516"/>
<polygon fill="midnightblue" stroke="midnightblue" points="442.947,-223.628 453.51,-224.444 445.761,-217.219 442.947,-223.628"/>
</g>
</g>
</svg>
        <g id="navigator" transform="translate(0 0)" fill="#404254">
                <rect fill="#f2f5e9" fill-opacity="0.5" stroke="#606060" stroke-width=".5" x="0" y="0" width="60" height="60"/>
                <use id="zoomplus" xlink:href="#zoomPlus" x="17" y="9" onmousedown="handleZoom(evt,'in')"/>
                <use id="zoomminus" xlink:href="#zoomMin" x="42" y="9" onmousedown="handleZoom(evt,'out')"/>
                <use id="reset" xlink:href="#resetDef" x="30" y="36" onmousedown="handleReset()"/>
                <g id="arrowUp" xlink:href="#dirArrow" transform="translate(30 24)" onmousedown="handlePan(0,-1)">
                  <use xlink:href="#rim" fill="#404040">
                        <set attributeName="fill" to="#808080" begin="arrowUp.mouseover" end="arrowUp.mouseout"/>
                  </use>
                  <path fill="none" stroke="white" stroke-width="1.5" d="M0,-3.0v7 M-2.5,-0.5L0,-3.0L2.5,-0.5"/>
                </g>
                <g id="arrowRight" xlink:href="#dirArrow" transform="rotate(90) translate(36 -43)" onmousedown="handlePan(1,0)">
                  <use xlink:href="#rim" fill="#404040">
                        <set attributeName="fill" to="#808080" begin="arrowRight.mouseover" end="arrowRight.mouseout"/>
                  </use>
                  <path fill="none" stroke="white" stroke-width="1.5" d="M0,-3.0v7 M-2.5,-0.5L0,-3.0L2.5,-0.5"/>
                </g>
                <g id="arrowDown" xlink:href="#dirArrow" transform="rotate(180) translate(-30 -48)" onmousedown="handlePan(0,1)">
                  <use xlink:href="#rim" fill="#404040">
                        <set attributeName="fill" to="#808080" begin="arrowDown.mouseover" end="arrowDown.mouseout"/>
                  </use>
                  <path fill="none" stroke="white" stroke-width="1.5" d="M0,-3.0v7 M-2.5,-0.5L0,-3.0L2.5,-0.5"/>
                </g>
                <g id="arrowLeft" xlink:href="#dirArrow" transform="rotate(270) translate(-36 17)" onmousedown="handlePan(-1,0)">
                  <use xlink:href="#rim" fill="#404040">
                        <set attributeName="fill" to="#808080" begin="arrowLeft.mouseover" end="arrowLeft.mouseout"/>
                  </use>
                  <path fill="none" stroke="white" stroke-width="1.5" d="M0,-3.0v7 M-2.5,-0.5L0,-3.0L2.5,-0.5"/>
                </g>
        </g>
        <svg viewBox="0 0 15 15" width="100%" height="30px" preserveAspectRatio="xMaxYMin meet">
         <g id="arrow_out" transform="scale(0.3 0.3)">
          <a xlink:href="Orchestrator_8H__dep__incl_org.svg" target="_base">
           <rect id="button" ry="5" rx="5" y="6" x="6" height="38" width="38"
                fill="#f2f5e9" fill-opacity="0.5" stroke="#606060" stroke-width="1.0"/>
           <path id="arrow"
             d="M 11.500037,31.436501 C 11.940474,20.09759 22.043105,11.32322 32.158766,21.979434 L 37.068811,17.246167 C 37.068811,17.246167 37.088388,32 37.088388,32 L 22.160133,31.978069 C 22.160133,31.978069 26.997745,27.140456 26.997745,27.140456 C 18.528582,18.264221 13.291696,25.230495 11.500037,31.436501 z"
             style="fill:#404040;"/>
          </a>
         </g>
        </svg>
</svg>
