<?xml version="1.0" encoding="UTF-8" standalone="no"?>
<!DOCTYPE svg PUBLIC "-//W3C//DTD SVG 1.1//EN"
 "http://www.w3.org/Graphics/SVG/1.1/DTD/svg11.dtd">
<!-- Generated by graphviz version 2.30.1 (20150305.2338)
 -->
<!-- Title: Pane.hpp Pages: 1 -->
<svg width="175pt" height="308pt"
 viewBox="0.00 0.00 175.22 308.00" xmlns="http://www.w3.org/2000/svg" xmlns:xlink="http://www.w3.org/1999/xlink">
<g id="graph0" class="graph" transform="scale(1 1) rotate(0) translate(4 304)">
<title>Pane.hpp</title>
<!-- Node1 -->
<g id="node1" class="node"><title>Node1</title>
<polygon fill="#bfbfbf" stroke="black" points="8.22466,-280.5 8.22466,-299.5 66.2247,-299.5 66.2247,-280.5 8.22466,-280.5"/>
<text text-anchor="middle" x="37.2247" y="-287.5" font-family="Helvetica,sans-Serif" font-size="10.00">Pane.hpp</text>
</g>
<!-- Node2 -->
<g id="node2" class="node"><title>Node2</title>
<polygon fill="none" stroke="#bfbfbf" points="13.7247,-56.5 13.7247,-75.5 54.7247,-75.5 54.7247,-56.5 13.7247,-56.5"/>
<text text-anchor="middle" x="34.2247" y="-63.5" font-family="Helvetica,sans-Serif" font-size="10.00">string</text>
</g>
<!-- Node1&#45;&gt;Node2 -->
<g id="edge1" class="edge"><title>Node1&#45;&gt;Node2</title>
<path fill="none" stroke="midnightblue" d="M28.742,-280.234C21.1708,-271.75 10.621,-258.131 6.22466,-244 -11.2954,-187.685 12.486,-117.715 26.0078,-85.1937"/>
<polygon fill="midnightblue" stroke="midnightblue" points="29.3677,-86.242 30.1257,-75.6743 22.943,-83.4628 29.3677,-86.242"/>
</g>
<!-- Node3 -->
<g id="node3" class="node"><title>Node3</title>
<polygon fill="none" stroke="#bfbfbf" points="15.2247,-224.5 15.2247,-243.5 59.2247,-243.5 59.2247,-224.5 15.2247,-224.5"/>
<text text-anchor="middle" x="37.2247" y="-231.5" font-family="Helvetica,sans-Serif" font-size="10.00">vector</text>
</g>
<!-- Node1&#45;&gt;Node3 -->
<g id="edge2" class="edge"><title>Node1&#45;&gt;Node3</title>
<path fill="none" stroke="midnightblue" d="M37.2247,-280.083C37.2247,-273.006 37.2247,-262.861 37.2247,-253.986"/>
<polygon fill="midnightblue" stroke="midnightblue" points="40.7248,-253.751 37.2247,-243.751 33.7248,-253.751 40.7248,-253.751"/>
</g>
<!-- Node4 -->
<g id="node4" class="node"><title>Node4</title>
<g id="a_node4"><a xlink:href="Connectivity_8hpp.html" target="_top" xlink:title="Connectivity.hpp">
<polygon fill="none" stroke="black" points="77.2247,-224.5 77.2247,-243.5 167.225,-243.5 167.225,-224.5 77.2247,-224.5"/>
<text text-anchor="middle" x="122.225" y="-231.5" font-family="Helvetica,sans-Serif" font-size="10.00">Connectivity.hpp</text>
</a>
</g>
</g>
<!-- Node1&#45;&gt;Node4 -->
<g id="edge3" class="edge"><title>Node1&#45;&gt;Node4</title>
<path fill="none" stroke="midnightblue" d="M50.8814,-280.324C64.141,-271.9 84.4927,-258.971 100.071,-249.074"/>
<polygon fill="midnightblue" stroke="midnightblue" points="102.038,-251.971 108.602,-243.655 98.2843,-246.063 102.038,-251.971"/>
</g>
<!-- Node5 -->
<g id="node5" class="node"><title>Node5</title>
<g id="a_node5"><a xlink:href="DataItem_8hpp.html" target="_top" xlink:title="DataItem.hpp">
<polygon fill="none" stroke="black" points="75.2247,-168.5 75.2247,-187.5 151.225,-187.5 151.225,-168.5 75.2247,-168.5"/>
<text text-anchor="middle" x="113.225" y="-175.5" font-family="Helvetica,sans-Serif" font-size="10.00">DataItem.hpp</text>
</a>
</g>
</g>
<!-- Node4&#45;&gt;Node5 -->
<g id="edge4" class="edge"><title>Node4&#45;&gt;Node5</title>
<path fill="none" stroke="midnightblue" d="M120.738,-224.083C119.546,-216.927 117.831,-206.635 116.34,-197.691"/>
<polygon fill="midnightblue" stroke="midnightblue" points="119.78,-197.04 114.683,-187.751 112.875,-198.19 119.78,-197.04"/>
</g>
<!-- Node5&#45;&gt;Node2 -->
<g id="edge5" class="edge"><title>Node5&#45;&gt;Node2</title>
<path fill="none" stroke="midnightblue" d="M96.3314,-168.346C82.7857,-160.576 64.2726,-147.948 53.2247,-132 43.7052,-118.258 38.899,-99.7295 36.507,-85.9705"/>
<polygon fill="midnightblue" stroke="midnightblue" points="39.9222,-85.1345 35.0152,-75.7446 32.9955,-86.1451 39.9222,-85.1345"/>
</g>
<!-- Node6 -->
<g id="node6" class="node"><title>Node6</title>
<g id="a_node6"><a xlink:href="com__exception_8hpp.html" target="_top" xlink:title="com_exception.hpp">
<polygon fill="none" stroke="black" points="62.7247,-112.5 62.7247,-131.5 163.725,-131.5 163.725,-112.5 62.7247,-112.5"/>
<text text-anchor="middle" x="113.225" y="-119.5" font-family="Helvetica,sans-Serif" font-size="10.00">com_exception.hpp</text>
</a>
</g>
</g>
<!-- Node5&#45;&gt;Node6 -->
<g id="edge6" class="edge"><title>Node5&#45;&gt;Node6</title>
<path fill="none" stroke="midnightblue" d="M113.225,-168.083C113.225,-161.006 113.225,-150.861 113.225,-141.986"/>
<polygon fill="midnightblue" stroke="midnightblue" points="116.725,-141.751 113.225,-131.751 109.725,-141.751 116.725,-141.751"/>
</g>
<!-- Node7 -->
<g id="node7" class="node"><title>Node7</title>
<g id="a_node7"><a xlink:href="com__basic_8h.html" target="_top" xlink:title="This file contains some definitions of macros and constants for COM. ">
<polygon fill="none" stroke="black" points="77.2247,-56.5 77.2247,-75.5 149.225,-75.5 149.225,-56.5 77.2247,-56.5"/>
<text text-anchor="middle" x="113.225" y="-63.5" font-family="Helvetica,sans-Serif" font-size="10.00">com_basic.h</text>
</a>
</g>
</g>
<!-- Node6&#45;&gt;Node7 -->
<g id="edge7" class="edge"><title>Node6&#45;&gt;Node7</title>
<path fill="none" stroke="midnightblue" d="M113.225,-112.083C113.225,-105.006 113.225,-94.8611 113.225,-85.9865"/>
<polygon fill="midnightblue" stroke="midnightblue" points="116.725,-85.751 113.225,-75.7511 109.725,-85.7511 116.725,-85.751"/>
</g>
<!-- Node6&#45;&gt;Node2 -->
<g id="edge9" class="edge"><title>Node6&#45;&gt;Node2</title>
<path fill="none" stroke="midnightblue" d="M100.532,-112.324C88.3235,-103.979 69.6462,-91.2122 55.2217,-81.3524"/>
<polygon fill="midnightblue" stroke="midnightblue" points="57.1166,-78.4082 46.8859,-75.6545 53.1664,-84.1871 57.1166,-78.4082"/>
</g>
<!-- Node8 -->
<g id="node8" class="node"><title>Node8</title>
<g id="a_node8"><a xlink:href="FC_8h.html" target="_top" xlink:title="FC.h">
<polygon fill="none" stroke="black" points="94.2247,-0.5 94.2247,-19.5 132.225,-19.5 132.225,-0.5 94.2247,-0.5"/>
<text text-anchor="middle" x="113.225" y="-7.5" font-family="Helvetica,sans-Serif" font-size="10.00">FC.h</text>
</a>
</g>
</g>
<!-- Node7&#45;&gt;Node8 -->
<g id="edge8" class="edge"><title>Node7&#45;&gt;Node8</title>
<path fill="none" stroke="midnightblue" d="M113.225,-56.083C113.225,-49.0059 113.225,-38.8611 113.225,-29.9865"/>
<polygon fill="midnightblue" stroke="midnightblue" points="116.725,-29.751 113.225,-19.7511 109.725,-29.7511 116.725,-29.751"/>
</g>
</g>
</svg>
