<?xml version="1.0" encoding="UTF-8" standalone="no"?>
<!DOCTYPE svg PUBLIC "-//W3C//DTD SVG 1.1//EN"
 "http://www.w3.org/Graphics/SVG/1.1/DTD/svg11.dtd">
<!-- Generated by graphviz version 2.30.1 (20150305.2338)
 -->
<!-- Title: main Pages: 1 -->
<svg width="724pt" height="595pt"
 viewBox="0.00 0.00 724.00 595.00" xmlns="http://www.w3.org/2000/svg" xmlns:xlink="http://www.w3.org/1999/xlink">
<g id="graph0" class="graph" transform="scale(1 1) rotate(0) translate(4 591)">
<title>main</title>
<!-- Node1 -->
<g id="node1" class="node"><title>Node1</title>
<polygon fill="#bfbfbf" stroke="black" points="0,-289.5 0,-308.5 38,-308.5 38,-289.5 0,-289.5"/>
<text text-anchor="middle" x="19" y="-296.5" font-family="Helvetica,sans-Serif" font-size="10.00">main</text>
</g>
<!-- Node2 -->
<g id="node2" class="node"><title>Node2</title>
<g id="a_node2"><a xlink:href="namespaceElmerModuleDriver_a81f0cdc909567e8d6ef1546887dfa3e2.html#a81f0cdc909567e8d6ef1546887dfa3e2" target="_top" xlink:title="Drives the ElmerModuleDriver::TestObject. ">
<polygon fill="none" stroke="black" points="74,-284 74,-314 180,-314 180,-284 74,-284"/>
<text text-anchor="start" x="82" y="-302" font-family="Helvetica,sans-Serif" font-size="10.00">ElmerModuleDriver::</text>
<text text-anchor="middle" x="127" y="-291" font-family="Helvetica,sans-Serif" font-size="10.00">ParallelTest</text>
</a>
</g>
</g>
<!-- Node1&#45;&gt;Node2 -->
<g id="edge1" class="edge"><title>Node1&#45;&gt;Node2</title>
<path fill="none" stroke="midnightblue" d="M38.4638,-299C45.6948,-299 54.4449,-299 63.5808,-299"/>
<polygon fill="midnightblue" stroke="midnightblue" points="63.592,-302.5 73.592,-299 63.5919,-295.5 63.592,-302.5"/>
</g>
<!-- Node3 -->
<g id="node3" class="node"><title>Node3</title>
<g id="a_node3"><a xlink:href="com__c_09_09_8hpp_ab1d1395d3d329bd968a9e806ea1605f1.html#ab1d1395d3d329bd968a9e806ea1605f1" target="_top" xlink:title="COM_initialized">
<polygon fill="none" stroke="black" points="246,-567.5 246,-586.5 332,-586.5 332,-567.5 246,-567.5"/>
<text text-anchor="middle" x="289" y="-574.5" font-family="Helvetica,sans-Serif" font-size="10.00">COM_initialized</text>
</a>
</g>
</g>
<!-- Node2&#45;&gt;Node3 -->
<g id="edge2" class="edge"><title>Node2&#45;&gt;Node3</title>
<path fill="none" stroke="midnightblue" d="M128.424,-314.175C130.516,-358.646 142.899,-489.813 216,-558 221.589,-563.214 228.438,-567.033 235.665,-569.823"/>
<polygon fill="midnightblue" stroke="midnightblue" points="235.082,-573.311 245.673,-573.025 237.215,-566.644 235.082,-573.311"/>
</g>
<!-- Node6 -->
<g id="node6" class="node"><title>Node6</title>
<g id="a_node6"><a xlink:href="com__c_09_09_8hpp_ac0f80d6e63759a2afe40ed883cea3d5e.html#ac0f80d6e63759a2afe40ed883cea3d5e" target="_top" xlink:title="COM_init">
<polygon fill="none" stroke="black" points="260,-529.5 260,-548.5 318,-548.5 318,-529.5 260,-529.5"/>
<text text-anchor="middle" x="289" y="-536.5" font-family="Helvetica,sans-Serif" font-size="10.00">COM_init</text>
</a>
</g>
</g>
<!-- Node2&#45;&gt;Node6 -->
<g id="edge5" class="edge"><title>Node2&#45;&gt;Node6</title>
<path fill="none" stroke="midnightblue" d="M129.502,-314.137C134.275,-353.931 152.735,-462.312 216,-519 225.36,-527.387 237.947,-532.29 249.977,-535.146"/>
<polygon fill="midnightblue" stroke="midnightblue" points="249.381,-538.595 259.869,-537.094 250.734,-531.727 249.381,-538.595"/>
</g>
<!-- Node8 -->
<g id="node8" class="node"><title>Node8</title>
<g id="a_node8"><a xlink:href="classIRAD_1_1Comm_1_1CommunicatorObject_a575c1da8fd55deeeb351cb509ddd3dda.html#a575c1da8fd55deeeb351cb509ddd3dda" target="_top" xlink:title="IRAD::Comm::Communicator\lObject::Rank">
<polygon fill="none" stroke="black" points="216,-480 216,-510 362,-510 362,-480 216,-480"/>
<text text-anchor="start" x="224" y="-498" font-family="Helvetica,sans-Serif" font-size="10.00">IRAD::Comm::Communicator</text>
<text text-anchor="middle" x="289" y="-487" font-family="Helvetica,sans-Serif" font-size="10.00">Object::Rank</text>
</a>
</g>
</g>
<!-- Node2&#45;&gt;Node8 -->
<g id="edge7" class="edge"><title>Node2&#45;&gt;Node8</title>
<path fill="none" stroke="midnightblue" d="M131.683,-314.18C140.481,-347.276 165.824,-426.446 216,-470 217.924,-471.67 219.965,-473.23 222.096,-474.687"/>
<polygon fill="midnightblue" stroke="midnightblue" points="220.314,-477.699 230.696,-479.814 223.898,-471.687 220.314,-477.699"/>
</g>
<!-- Node9 -->
<g id="node9" class="node"><title>Node9</title>
<g id="a_node9"><a xlink:href="classIRAD_1_1Comm_1_1CommunicatorObject_af40990b9bd3d70d30e8ce7cdda1ad56f.html#af40990b9bd3d70d30e8ce7cdda1ad56f" target="_top" xlink:title="IRAD::Comm::Communicator\lObject::Size">
<polygon fill="none" stroke="black" points="216,-431 216,-461 362,-461 362,-431 216,-431"/>
<text text-anchor="start" x="224" y="-449" font-family="Helvetica,sans-Serif" font-size="10.00">IRAD::Comm::Communicator</text>
<text text-anchor="middle" x="289" y="-438" font-family="Helvetica,sans-Serif" font-size="10.00">Object::Size</text>
</a>
</g>
</g>
<!-- Node2&#45;&gt;Node9 -->
<g id="edge8" class="edge"><title>Node2&#45;&gt;Node9</title>
<path fill="none" stroke="midnightblue" d="M134.993,-314.044C147.621,-339.627 176.621,-391.677 216,-421 218.519,-422.876 221.19,-424.618 223.962,-426.237"/>
<polygon fill="midnightblue" stroke="midnightblue" points="222.617,-429.482 233.104,-430.993 225.848,-423.272 222.617,-429.482"/>
</g>
<!-- Node10 -->
<g id="node10" class="node"><title>Node10</title>
<g id="a_node10"><a xlink:href="classElmerModuleDriver_1_1TestComLine_a98b1050f09da390896f964fb7a892391.html#a98b1050f09da390896f964fb7a892391" target="_top" xlink:title="virtual function for program specific Initialization. ">
<polygon fill="none" stroke="black" points="230.5,-382 230.5,-412 347.5,-412 347.5,-382 230.5,-382"/>
<text text-anchor="start" x="238.5" y="-400" font-family="Helvetica,sans-Serif" font-size="10.00">ElmerModuleDriver::</text>
<text text-anchor="middle" x="289" y="-389" font-family="Helvetica,sans-Serif" font-size="10.00">TestComLine::Initialize</text>
</a>
</g>
</g>
<!-- Node2&#45;&gt;Node10 -->
<g id="edge9" class="edge"><title>Node2&#45;&gt;Node10</title>
<path fill="none" stroke="midnightblue" d="M142.638,-314.017C159.159,-330.239 187.469,-355.915 216,-372 219.696,-374.083 223.595,-376.037 227.589,-377.861"/>
<polygon fill="midnightblue" stroke="midnightblue" points="226.457,-381.183 237.029,-381.881 229.2,-374.743 226.457,-381.183"/>
</g>
<!-- Node13 -->
<g id="node13" class="node"><title>Node13</title>
<g id="a_node13"><a xlink:href="classIRAD_1_1Util_1_1ComLineObject_a49a08e312b3a2d9dfda55796fb842e80.html#a49a08e312b3a2d9dfda55796fb842e80" target="_top" xlink:title="Processes all command line tokens. ">
<polygon fill="none" stroke="black" points="221,-333 221,-363 357,-363 357,-333 221,-333"/>
<text text-anchor="start" x="229" y="-351" font-family="Helvetica,sans-Serif" font-size="10.00">IRAD::Util::ComLineObject</text>
<text text-anchor="middle" x="289" y="-340" font-family="Helvetica,sans-Serif" font-size="10.00">::ProcessOptions</text>
</a>
</g>
</g>
<!-- Node2&#45;&gt;Node13 -->
<g id="edge12" class="edge"><title>Node2&#45;&gt;Node13</title>
<path fill="none" stroke="midnightblue" d="M177.311,-314.101C193.66,-319.108 212.024,-324.732 229.025,-329.939"/>
<polygon fill="midnightblue" stroke="midnightblue" points="228.265,-333.367 238.852,-332.948 230.315,-326.674 228.265,-333.367"/>
</g>
<!-- Node14 -->
<g id="node14" class="node"><title>Node14</title>
<g id="a_node14"><a xlink:href="classIRAD_1_1Util_1_1ComLineObject_a2724b7e78e4a1650818395c714595738.html#a2724b7e78e4a1650818395c714595738" target="_top" xlink:title="Get the value of an option. ">
<polygon fill="none" stroke="black" points="221,-284 221,-314 357,-314 357,-284 221,-284"/>
<text text-anchor="start" x="229" y="-302" font-family="Helvetica,sans-Serif" font-size="10.00">IRAD::Util::ComLineObject</text>
<text text-anchor="middle" x="289" y="-291" font-family="Helvetica,sans-Serif" font-size="10.00">::GetOption</text>
</a>
</g>
</g>
<!-- Node2&#45;&gt;Node14 -->
<g id="edge13" class="edge"><title>Node2&#45;&gt;Node14</title>
<path fill="none" stroke="midnightblue" d="M180.39,-299C190.096,-299 200.42,-299 210.686,-299"/>
<polygon fill="midnightblue" stroke="midnightblue" points="210.906,-302.5 220.906,-299 210.906,-295.5 210.906,-302.5"/>
</g>
<!-- Node15 -->
<g id="node15" class="node"><title>Node15</title>
<g id="a_node15"><a xlink:href="classIRAD_1_1Util_1_1ComLineObject_aa9cce130873f2d7d00a01053b5fc9f97.html#aa9cce130873f2d7d00a01053b5fc9f97" target="_top" xlink:title="Generate long usage string. ">
<polygon fill="none" stroke="black" points="221,-235 221,-265 357,-265 357,-235 221,-235"/>
<text text-anchor="start" x="229" y="-253" font-family="Helvetica,sans-Serif" font-size="10.00">IRAD::Util::ComLineObject</text>
<text text-anchor="middle" x="289" y="-242" font-family="Helvetica,sans-Serif" font-size="10.00">::LongUsage</text>
</a>
</g>
</g>
<!-- Node2&#45;&gt;Node15 -->
<g id="edge14" class="edge"><title>Node2&#45;&gt;Node15</title>
<path fill="none" stroke="midnightblue" d="M177.311,-283.899C193.66,-278.892 212.024,-273.268 229.025,-268.061"/>
<polygon fill="midnightblue" stroke="midnightblue" points="230.315,-271.326 238.852,-265.052 228.265,-264.633 230.315,-271.326"/>
</g>
<!-- Node16 -->
<g id="node16" class="node"><title>Node16</title>
<g id="a_node16"><a xlink:href="classIRAD_1_1Comm_1_1CommunicatorObject_ae5812ab412465cf395e574fb7380f462.html#ae5812ab412465cf395e574fb7380f462" target="_top" xlink:title="IRAD::Comm::Communicator\lObject::SetExit">
<polygon fill="none" stroke="black" points="216,-186 216,-216 362,-216 362,-186 216,-186"/>
<text text-anchor="start" x="224" y="-204" font-family="Helvetica,sans-Serif" font-size="10.00">IRAD::Comm::Communicator</text>
<text text-anchor="middle" x="289" y="-193" font-family="Helvetica,sans-Serif" font-size="10.00">Object::SetExit</text>
</a>
</g>
</g>
<!-- Node2&#45;&gt;Node16 -->
<g id="edge15" class="edge"><title>Node2&#45;&gt;Node16</title>
<path fill="none" stroke="midnightblue" d="M142.638,-283.983C159.159,-267.761 187.469,-242.085 216,-226 219.696,-223.917 223.595,-221.963 227.589,-220.139"/>
<polygon fill="midnightblue" stroke="midnightblue" points="229.2,-223.257 237.029,-216.119 226.457,-216.817 229.2,-223.257"/>
</g>
<!-- Node17 -->
<g id="node17" class="node"><title>Node17</title>
<g id="a_node17"><a xlink:href="classIRAD_1_1Comm_1_1CommunicatorObject_a661992fe569928d57ddd3641cb461de6.html#a661992fe569928d57ddd3641cb461de6" target="_top" xlink:title="IRAD::Comm::Communicator\lObject::Check">
<polygon fill="none" stroke="black" points="216,-137 216,-167 362,-167 362,-137 216,-137"/>
<text text-anchor="start" x="224" y="-155" font-family="Helvetica,sans-Serif" font-size="10.00">IRAD::Comm::Communicator</text>
<text text-anchor="middle" x="289" y="-144" font-family="Helvetica,sans-Serif" font-size="10.00">Object::Check</text>
</a>
</g>
</g>
<!-- Node2&#45;&gt;Node17 -->
<g id="edge16" class="edge"><title>Node2&#45;&gt;Node17</title>
<path fill="none" stroke="midnightblue" d="M134.921,-283.779C147.441,-257.906 176.282,-205.311 216,-176 218.041,-174.494 220.182,-173.079 222.396,-171.749"/>
<polygon fill="midnightblue" stroke="midnightblue" points="224.067,-174.825 231.247,-167.034 220.776,-168.647 224.067,-174.825"/>
</g>
<!-- Node18 -->
<g id="node18" class="node"><title>Node18</title>
<g id="a_node18"><a xlink:href="classIRAD_1_1Util_1_1ComLineObject_aa433a792b5ff1791f801e99048c285bc.html#aa433a792b5ff1791f801e99048c285bc" target="_top" xlink:title="Error reporting. ">
<polygon fill="none" stroke="black" points="221,-88 221,-118 357,-118 357,-88 221,-88"/>
<text text-anchor="start" x="229" y="-106" font-family="Helvetica,sans-Serif" font-size="10.00">IRAD::Util::ComLineObject</text>
<text text-anchor="middle" x="289" y="-95" font-family="Helvetica,sans-Serif" font-size="10.00">::ErrorReport</text>
</a>
</g>
</g>
<!-- Node2&#45;&gt;Node18 -->
<g id="edge17" class="edge"><title>Node2&#45;&gt;Node18</title>
<path fill="none" stroke="midnightblue" d="M131.55,-283.937C140.154,-250.706 165.245,-170.61 216,-127 217.499,-125.712 219.07,-124.492 220.698,-123.338"/>
<polygon fill="midnightblue" stroke="midnightblue" points="222.565,-126.299 229.262,-118.09 218.907,-120.331 222.565,-126.299"/>
</g>
<!-- Node19 -->
<g id="node19" class="node"><title>Node19</title>
<g id="a_node19"><a xlink:href="classIRAD_1_1Util_1_1ComLineObject_a91336093c461161b48bab405326d74b3.html#a91336093c461161b48bab405326d74b3" target="_top" xlink:title="Generate short usage string. ">
<polygon fill="none" stroke="black" points="221,-39 221,-69 357,-69 357,-39 221,-39"/>
<text text-anchor="start" x="229" y="-57" font-family="Helvetica,sans-Serif" font-size="10.00">IRAD::Util::ComLineObject</text>
<text text-anchor="middle" x="289" y="-46" font-family="Helvetica,sans-Serif" font-size="10.00">::ShortUsage</text>
</a>
</g>
</g>
<!-- Node2&#45;&gt;Node19 -->
<g id="edge18" class="edge"><title>Node2&#45;&gt;Node19</title>
<path fill="none" stroke="midnightblue" d="M129.644,-283.975C134.764,-244.442 153.998,-136.553 216,-78 217.138,-76.9257 218.325,-75.8994 219.554,-74.919"/>
<polygon fill="midnightblue" stroke="midnightblue" points="221.868,-77.5805 228.208,-69.0918 217.958,-71.7742 221.868,-77.5805"/>
</g>
<!-- Node20 -->
<g id="node20" class="node"><title>Node20</title>
<g id="a_node20"><a xlink:href="com__c_09_09_8hpp_a47ed797bddcdd0aabcd9f8e47f326744.html#a47ed797bddcdd0aabcd9f8e47f326744" target="_top" xlink:title="COM_finalize">
<polygon fill="none" stroke="black" points="251,-0.5 251,-19.5 327,-19.5 327,-0.5 251,-0.5"/>
<text text-anchor="middle" x="289" y="-7.5" font-family="Helvetica,sans-Serif" font-size="10.00">COM_finalize</text>
</a>
</g>
</g>
<!-- Node2&#45;&gt;Node20 -->
<g id="edge19" class="edge"><title>Node2&#45;&gt;Node20</title>
<path fill="none" stroke="midnightblue" d="M128.181,-283.852C129.58,-238.183 140.194,-100.599 216,-29 222.902,-22.481 231.769,-18.1386 240.906,-15.2605"/>
<polygon fill="midnightblue" stroke="midnightblue" points="242.047,-18.5803 250.846,-12.6785 240.287,-11.8052 242.047,-18.5803"/>
</g>
<!-- Node4 -->
<g id="node4" class="node"><title>Node4</title>
<g id="a_node4"><a xlink:href="classCOM_1_1COM__base_a87753f5d050529932389515f11f80e7c.html#a87753f5d050529932389515f11f80e7c" target="_top" xlink:title="Checks whether COM has been initialized. ">
<polygon fill="none" stroke="black" points="398,-567.5 398,-586.5 540,-586.5 540,-567.5 398,-567.5"/>
<text text-anchor="middle" x="469" y="-574.5" font-family="Helvetica,sans-Serif" font-size="10.00">COM::COM_base::initialized</text>
</a>
</g>
</g>
<!-- Node3&#45;&gt;Node4 -->
<g id="edge3" class="edge"><title>Node3&#45;&gt;Node4</title>
<path fill="none" stroke="midnightblue" d="M332.184,-577C348.828,-577 368.527,-577 387.684,-577"/>
<polygon fill="midnightblue" stroke="midnightblue" points="387.939,-580.5 397.939,-577 387.939,-573.5 387.939,-580.5"/>
</g>
<!-- Node5 -->
<g id="node5" class="node"><title>Node5</title>
<g id="a_node5"><a xlink:href="classCOM_1_1COM__base_a77bb770b9ec1aac99361c45efbccabc1.html#a77bb770b9ec1aac99361c45efbccabc1" target="_top" xlink:title="Get a pointer to the COM object. ">
<polygon fill="none" stroke="black" points="576.5,-567.5 576.5,-586.5 715.5,-586.5 715.5,-567.5 576.5,-567.5"/>
<text text-anchor="middle" x="646" y="-574.5" font-family="Helvetica,sans-Serif" font-size="10.00">COM::COM_base::get_com</text>
</a>
</g>
</g>
<!-- Node4&#45;&gt;Node5 -->
<g id="edge4" class="edge"><title>Node4&#45;&gt;Node5</title>
<path fill="none" stroke="midnightblue" d="M540.171,-577C548.714,-577 557.487,-577 566.146,-577"/>
<polygon fill="midnightblue" stroke="midnightblue" points="566.238,-580.5 576.238,-577 566.238,-573.5 566.238,-580.5"/>
</g>
<!-- Node7 -->
<g id="node7" class="node"><title>Node7</title>
<g id="a_node7"><a xlink:href="classCOM_1_1COM__base_a38b2bac03bb06f2d0ea5c99760da5f1c.html#a38b2bac03bb06f2d0ea5c99760da5f1c" target="_top" xlink:title="COM::COM_base::init">
<polygon fill="none" stroke="black" points="412,-529.5 412,-548.5 526,-548.5 526,-529.5 412,-529.5"/>
<text text-anchor="middle" x="469" y="-536.5" font-family="Helvetica,sans-Serif" font-size="10.00">COM::COM_base::init</text>
</a>
</g>
</g>
<!-- Node6&#45;&gt;Node7 -->
<g id="edge6" class="edge"><title>Node6&#45;&gt;Node7</title>
<path fill="none" stroke="midnightblue" d="M318.205,-539C340.653,-539 372.987,-539 401.873,-539"/>
<polygon fill="midnightblue" stroke="midnightblue" points="401.924,-542.5 411.924,-539 401.924,-535.5 401.924,-542.5"/>
</g>
<!-- Node11 -->
<g id="node11" class="node"><title>Node11</title>
<g id="a_node11"><a xlink:href="classIRAD_1_1Util_1_1ComLineObject_ac3e609c01c92ed92e57a16d226f9cdb8.html#ac3e609c01c92ed92e57a16d226f9cdb8" target="_top" xlink:title="User interface to describe simple option. ">
<polygon fill="none" stroke="black" points="401,-406 401,-436 537,-436 537,-406 401,-406"/>
<text text-anchor="start" x="409" y="-424" font-family="Helvetica,sans-Serif" font-size="10.00">IRAD::Util::ComLineObject</text>
<text text-anchor="middle" x="469" y="-413" font-family="Helvetica,sans-Serif" font-size="10.00">::AddOption</text>
</a>
</g>
</g>
<!-- Node10&#45;&gt;Node11 -->
<g id="edge10" class="edge"><title>Node10&#45;&gt;Node11</title>
<path fill="none" stroke="midnightblue" d="M347.791,-404.792C361.566,-406.649 376.482,-408.66 390.967,-410.614"/>
<polygon fill="midnightblue" stroke="midnightblue" points="390.529,-414.086 400.907,-411.954 391.464,-407.149 390.529,-414.086"/>
</g>
<!-- Node12 -->
<g id="node12" class="node"><title>Node12</title>
<g id="a_node12"><a xlink:href="classIRAD_1_1Util_1_1ComLineObject_a469b17dd7e622de0cb6b1c51e805994c.html#a469b17dd7e622de0cb6b1c51e805994c" target="_top" xlink:title="Specify usage for an option. ">
<polygon fill="none" stroke="black" points="401,-357 401,-387 537,-387 537,-357 401,-357"/>
<text text-anchor="start" x="409" y="-375" font-family="Helvetica,sans-Serif" font-size="10.00">IRAD::Util::ComLineObject</text>
<text text-anchor="middle" x="469" y="-364" font-family="Helvetica,sans-Serif" font-size="10.00">::AddHelp</text>
</a>
</g>
</g>
<!-- Node10&#45;&gt;Node12 -->
<g id="edge11" class="edge"><title>Node10&#45;&gt;Node12</title>
<path fill="none" stroke="midnightblue" d="M347.791,-388.883C361.566,-386.949 376.482,-384.854 390.967,-382.819"/>
<polygon fill="midnightblue" stroke="midnightblue" points="391.491,-386.28 400.907,-381.423 390.517,-379.348 391.491,-386.28"/>
</g>
<!-- Node21 -->
<g id="node21" class="node"><title>Node21</title>
<g id="a_node21"><a xlink:href="classCOM_1_1COM__base_aa77ce2c05f3e9d82815db88996cfc1ed.html#aa77ce2c05f3e9d82815db88996cfc1ed" target="_top" xlink:title="COM::COM_base::finalize">
<polygon fill="none" stroke="black" points="403,-0.5 403,-19.5 535,-19.5 535,-0.5 403,-0.5"/>
<text text-anchor="middle" x="469" y="-7.5" font-family="Helvetica,sans-Serif" font-size="10.00">COM::COM_base::finalize</text>
</a>
</g>
</g>
<!-- Node20&#45;&gt;Node21 -->
<g id="edge20" class="edge"><title>Node20&#45;&gt;Node21</title>
<path fill="none" stroke="midnightblue" d="M327.315,-10C346.233,-10 369.92,-10 392.433,-10"/>
<polygon fill="midnightblue" stroke="midnightblue" points="392.673,-13.5001 402.673,-10 392.673,-6.5001 392.673,-13.5001"/>
</g>
</g>
</svg>
