<?xml version="1.0" encoding="UTF-8" standalone="no"?>
<!DOCTYPE svg PUBLIC "-//W3C//DTD SVG 1.1//EN"
 "http://www.w3.org/Graphics/SVG/1.1/DTD/svg11.dtd">
<!-- Generated by graphviz version 2.30.1 (20150305.2338)
 -->
<!-- Title: ParallelTestElmerFoamFSI.C Pages: 1 -->
<svg width="1009pt" height="308pt"
 viewBox="0.00 0.00 1009.41 308.00" xmlns="http://www.w3.org/2000/svg" xmlns:xlink="http://www.w3.org/1999/xlink">
<g id="graph0" class="graph" transform="scale(1 1) rotate(0) translate(4 304)">
<title>ParallelTestElmerFoamFSI.C</title>
<!-- Node1 -->
<g id="node1" class="node"><title>Node1</title>
<polygon fill="#bfbfbf" stroke="black" points="245.5,-280.5 245.5,-299.5 390.5,-299.5 390.5,-280.5 245.5,-280.5"/>
<text text-anchor="middle" x="318" y="-287.5" font-family="Helvetica,sans-Serif" font-size="10.00">ParallelTestElmerFoamFSI.C</text>
</g>
<!-- Node2 -->
<g id="node2" class="node"><title>Node2</title>
<polygon fill="none" stroke="#bfbfbf" points="177,-224.5 177,-243.5 243,-243.5 243,-224.5 177,-224.5"/>
<text text-anchor="middle" x="210" y="-231.5" font-family="Helvetica,sans-Serif" font-size="10.00">ComLine.H</text>
</g>
<!-- Node1&#45;&gt;Node2 -->
<g id="edge1" class="edge"><title>Node1&#45;&gt;Node2</title>
<path fill="none" stroke="midnightblue" d="M300.648,-280.324C283.328,-271.664 256.485,-258.242 236.498,-248.249"/>
<polygon fill="midnightblue" stroke="midnightblue" points="237.819,-244.996 227.309,-243.655 234.688,-251.257 237.819,-244.996"/>
</g>
<!-- Node3 -->
<g id="node3" class="node"><title>Node3</title>
<g id="a_node3"><a xlink:href="TestElmerFoamFSI_8H.html" target="_top" xlink:title="Testing utilities for ElmerFoamFSI. ">
<polygon fill="none" stroke="black" points="261.5,-224.5 261.5,-243.5 374.5,-243.5 374.5,-224.5 261.5,-224.5"/>
<text text-anchor="middle" x="318" y="-231.5" font-family="Helvetica,sans-Serif" font-size="10.00">TestElmerFoamFSI.H</text>
</a>
</g>
</g>
<!-- Node1&#45;&gt;Node3 -->
<g id="edge2" class="edge"><title>Node1&#45;&gt;Node3</title>
<path fill="none" stroke="midnightblue" d="M318,-280.083C318,-273.006 318,-262.861 318,-253.986"/>
<polygon fill="midnightblue" stroke="midnightblue" points="321.5,-253.751 318,-243.751 314.5,-253.751 321.5,-253.751"/>
</g>
<!-- Node24 -->
<g id="node24" class="node"><title>Node24</title>
<polygon fill="none" stroke="#bfbfbf" points="392.5,-224.5 392.5,-243.5 451.5,-243.5 451.5,-224.5 392.5,-224.5"/>
<text text-anchor="middle" x="422" y="-231.5" font-family="Helvetica,sans-Serif" font-size="10.00">COMM.H</text>
</g>
<!-- Node1&#45;&gt;Node24 -->
<g id="edge34" class="edge"><title>Node1&#45;&gt;Node24</title>
<path fill="none" stroke="midnightblue" d="M334.709,-280.324C351.312,-271.703 377.002,-258.364 396.22,-248.386"/>
<polygon fill="midnightblue" stroke="midnightblue" points="398.07,-251.369 405.332,-243.655 394.844,-245.156 398.07,-251.369"/>
</g>
<!-- Node4 -->
<g id="node4" class="node"><title>Node4</title>
<g id="a_node4"><a xlink:href="ElmerFoamFSITest_8H.html" target="_top" xlink:title="Testing object for ElmerFoamFSI. ">
<polygon fill="none" stroke="black" points="261.5,-168.5 261.5,-187.5 374.5,-187.5 374.5,-168.5 261.5,-168.5"/>
<text text-anchor="middle" x="318" y="-175.5" font-family="Helvetica,sans-Serif" font-size="10.00">ElmerFoamFSITest.H</text>
</a>
</g>
</g>
<!-- Node3&#45;&gt;Node4 -->
<g id="edge3" class="edge"><title>Node3&#45;&gt;Node4</title>
<path fill="none" stroke="midnightblue" d="M318,-224.083C318,-217.006 318,-206.861 318,-197.986"/>
<polygon fill="midnightblue" stroke="midnightblue" points="321.5,-197.751 318,-187.751 314.5,-197.751 321.5,-197.751"/>
</g>
<!-- Node5 -->
<g id="node5" class="node"><title>Node5</title>
<polygon fill="none" stroke="#bfbfbf" points="-0.5,-112.5 -0.5,-131.5 58.5,-131.5 58.5,-112.5 -0.5,-112.5"/>
<text text-anchor="middle" x="29" y="-119.5" font-family="Helvetica,sans-Serif" font-size="10.00">Testing.H</text>
</g>
<!-- Node4&#45;&gt;Node5 -->
<g id="edge4" class="edge"><title>Node4&#45;&gt;Node5</title>
<path fill="none" stroke="midnightblue" d="M265.437,-168.444C216.728,-160.32 142.028,-147.366 68.7018,-132.276"/>
<polygon fill="midnightblue" stroke="midnightblue" points="69.3384,-128.833 58.8361,-130.231 67.9174,-135.688 69.3384,-128.833"/>
</g>
<!-- Node6 -->
<g id="node6" class="node"><title>Node6</title>
<g id="a_node6"><a xlink:href="include_2ExampleHeader_8H.html" target="_top" xlink:title="Example C++ header file for ElmerFoamFSI. ">
<polygon fill="none" stroke="black" points="76.5,-112.5 76.5,-131.5 173.5,-131.5 173.5,-112.5 76.5,-112.5"/>
<text text-anchor="middle" x="125" y="-119.5" font-family="Helvetica,sans-Serif" font-size="10.00">ExampleHeader.H</text>
</a>
</g>
</g>
<!-- Node4&#45;&gt;Node6 -->
<g id="edge5" class="edge"><title>Node4&#45;&gt;Node6</title>
<path fill="none" stroke="midnightblue" d="M287.419,-168.444C254.385,-159.201 201.612,-144.436 165.234,-134.257"/>
<polygon fill="midnightblue" stroke="midnightblue" points="166.012,-130.84 155.438,-131.516 164.125,-137.582 166.012,-130.84"/>
</g>
<!-- Node8 -->
<g id="node8" class="node"><title>Node8</title>
<polygon fill="none" stroke="#bfbfbf" points="91,-56.5 91,-75.5 149,-75.5 149,-56.5 91,-56.5"/>
<text text-anchor="middle" x="120" y="-63.5" font-family="Helvetica,sans-Serif" font-size="10.00">Profiler.H</text>
</g>
<!-- Node4&#45;&gt;Node8 -->
<g id="edge7" class="edge"><title>Node4&#45;&gt;Node8</title>
<path fill="none" stroke="midnightblue" d="M297.536,-168.483C277.624,-159.969 246.697,-146.142 221,-132 192.167,-116.132 160.497,-95.124 140.447,-81.3448"/>
<polygon fill="midnightblue" stroke="midnightblue" points="142.318,-78.3833 132.104,-75.567 138.333,-84.1379 142.318,-78.3833"/>
</g>
<!-- Node9 -->
<g id="node9" class="node"><title>Node9</title>
<polygon fill="none" stroke="#bfbfbf" points="628,-112.5 628,-131.5 672,-131.5 672,-112.5 628,-112.5"/>
<text text-anchor="middle" x="650" y="-119.5" font-family="Helvetica,sans-Serif" font-size="10.00">vector</text>
</g>
<!-- Node4&#45;&gt;Node9 -->
<g id="edge8" class="edge"><title>Node4&#45;&gt;Node9</title>
<path fill="none" stroke="midnightblue" d="M374.72,-170.822C433.401,-163.915 527.81,-151.365 617.911,-131.995"/>
<polygon fill="midnightblue" stroke="midnightblue" points="618.717,-135.401 627.741,-129.85 617.224,-128.562 618.717,-135.401"/>
</g>
<!-- Node10 -->
<g id="node10" class="node"><title>Node10</title>
<polygon fill="none" stroke="#bfbfbf" points="690,-112.5 690,-131.5 734,-131.5 734,-112.5 690,-112.5"/>
<text text-anchor="middle" x="712" y="-119.5" font-family="Helvetica,sans-Serif" font-size="10.00">cmath</text>
</g>
<!-- Node4&#45;&gt;Node10 -->
<g id="edge9" class="edge"><title>Node4&#45;&gt;Node10</title>
<path fill="none" stroke="midnightblue" d="M374.732,-172.782C444.524,-166.968 566.695,-154.764 679.883,-131.941"/>
<polygon fill="midnightblue" stroke="midnightblue" points="680.661,-135.354 689.755,-129.918 679.256,-128.496 680.661,-135.354"/>
</g>
<!-- Node11 -->
<g id="node11" class="node"><title>Node11</title>
<g id="a_node11"><a xlink:href="Driver_8H.html" target="_top" xlink:title="Example program interface. ">
<polygon fill="none" stroke="black" points="230.5,-112.5 230.5,-131.5 283.5,-131.5 283.5,-112.5 230.5,-112.5"/>
<text text-anchor="middle" x="257" y="-119.5" font-family="Helvetica,sans-Serif" font-size="10.00">Driver.H</text>
</a>
</g>
</g>
<!-- Node4&#45;&gt;Node11 -->
<g id="edge10" class="edge"><title>Node4&#45;&gt;Node11</title>
<path fill="none" stroke="midnightblue" d="M308.199,-168.324C299.182,-160.341 285.594,-148.313 274.682,-138.653"/>
<polygon fill="midnightblue" stroke="midnightblue" points="276.787,-135.842 266.979,-131.834 272.147,-141.083 276.787,-135.842"/>
</g>
<!-- Node14 -->
<g id="node14" class="node"><title>Node14</title>
<g id="a_node14"><a xlink:href="FsiCoupling_8H.html" target="_top" xlink:title="Example serial program. ">
<polygon fill="none" stroke="black" points="321.5,-112.5 321.5,-131.5 400.5,-131.5 400.5,-112.5 321.5,-112.5"/>
<text text-anchor="middle" x="361" y="-119.5" font-family="Helvetica,sans-Serif" font-size="10.00">FsiCoupling.H</text>
</a>
</g>
</g>
<!-- Node4&#45;&gt;Node14 -->
<g id="edge14" class="edge"><title>Node4&#45;&gt;Node14</title>
<path fill="none" stroke="midnightblue" d="M325.101,-168.083C331.237,-160.377 340.27,-149.033 347.739,-139.653"/>
<polygon fill="midnightblue" stroke="midnightblue" points="350.54,-141.754 354.032,-131.751 345.064,-137.394 350.54,-141.754"/>
</g>
<!-- Node19 -->
<g id="node19" class="node"><title>Node19</title>
<g id="a_node19"><a xlink:href="FsiCouplingPar_8H.html" target="_top" xlink:title="Example serial program. ">
<polygon fill="none" stroke="black" points="516,-112.5 516,-131.5 610,-131.5 610,-112.5 516,-112.5"/>
<text text-anchor="middle" x="563" y="-119.5" font-family="Helvetica,sans-Serif" font-size="10.00">FsiCouplingPar.H</text>
</a>
</g>
</g>
<!-- Node4&#45;&gt;Node19 -->
<g id="edge23" class="edge"><title>Node4&#45;&gt;Node19</title>
<path fill="none" stroke="midnightblue" d="M356.821,-168.444C399.561,-159.023 468.332,-143.866 514.566,-133.675"/>
<polygon fill="midnightblue" stroke="midnightblue" points="515.348,-137.087 524.361,-131.516 513.842,-130.251 515.348,-137.087"/>
</g>
<!-- Node7 -->
<g id="node7" class="node"><title>Node7</title>
<polygon fill="none" stroke="#bfbfbf" points="31.5,-56.5 31.5,-75.5 72.5,-75.5 72.5,-56.5 31.5,-56.5"/>
<text text-anchor="middle" x="52" y="-63.5" font-family="Helvetica,sans-Serif" font-size="10.00">string</text>
</g>
<!-- Node6&#45;&gt;Node7 -->
<g id="edge6" class="edge"><title>Node6&#45;&gt;Node7</title>
<path fill="none" stroke="midnightblue" d="M113.271,-112.324C102.163,-104.107 85.2578,-91.6017 72.0167,-81.8069"/>
<polygon fill="midnightblue" stroke="midnightblue" points="74.0631,-78.9671 63.9421,-75.8339 69.9001,-84.5948 74.0631,-78.9671"/>
</g>
<!-- Node12 -->
<g id="node12" class="node"><title>Node12</title>
<polygon fill="none" stroke="#bfbfbf" points="229.5,-56.5 229.5,-75.5 284.5,-75.5 284.5,-56.5 229.5,-56.5"/>
<text text-anchor="middle" x="257" y="-63.5" font-family="Helvetica,sans-Serif" font-size="10.00">Global.H</text>
</g>
<!-- Node11&#45;&gt;Node12 -->
<g id="edge11" class="edge"><title>Node11&#45;&gt;Node12</title>
<path fill="none" stroke="midnightblue" d="M257,-112.083C257,-105.006 257,-94.8611 257,-85.9865"/>
<polygon fill="midnightblue" stroke="midnightblue" points="260.5,-85.751 257,-75.7511 253.5,-85.7511 260.5,-85.751"/>
</g>
<!-- Node11&#45;&gt;Node8 -->
<g id="edge12" class="edge"><title>Node11&#45;&gt;Node8</title>
<path fill="none" stroke="midnightblue" d="M235.292,-112.444C212.645,-103.517 176.928,-89.4387 151.248,-79.3168"/>
<polygon fill="midnightblue" stroke="midnightblue" points="152.193,-75.9273 141.606,-75.5164 149.626,-82.4397 152.193,-75.9273"/>
</g>
<!-- Node13 -->
<g id="node13" class="node"><title>Node13</title>
<polygon fill="none" stroke="#bfbfbf" points="167,-56.5 167,-75.5 211,-75.5 211,-56.5 167,-56.5"/>
<text text-anchor="middle" x="189" y="-63.5" font-family="Helvetica,sans-Serif" font-size="10.00">com.h</text>
</g>
<!-- Node11&#45;&gt;Node13 -->
<g id="edge13" class="edge"><title>Node11&#45;&gt;Node13</title>
<path fill="none" stroke="midnightblue" d="M246.075,-112.324C235.825,-104.185 220.279,-91.8395 207.999,-82.0874"/>
<polygon fill="midnightblue" stroke="midnightblue" points="210.132,-79.3119 200.124,-75.8339 205.779,-84.7937 210.132,-79.3119"/>
</g>
<!-- Node15 -->
<g id="node15" class="node"><title>Node15</title>
<polygon fill="none" stroke="#bfbfbf" points="714.5,-0.5 714.5,-19.5 803.5,-19.5 803.5,-0.5 714.5,-0.5"/>
<text text-anchor="middle" x="759" y="-7.5" font-family="Helvetica,sans-Serif" font-size="10.00">InterfaceLayer.H</text>
</g>
<!-- Node14&#45;&gt;Node15 -->
<g id="edge15" class="edge"><title>Node14&#45;&gt;Node15</title>
<path fill="none" stroke="midnightblue" d="M400.593,-118.925C477.714,-114.36 644.984,-101.74 696,-76 717.844,-64.9787 736.42,-43.3224 747.623,-28.0427"/>
<polygon fill="midnightblue" stroke="midnightblue" points="750.734,-29.7023 753.61,-19.5051 745.003,-25.6835 750.734,-29.7023"/>
</g>
<!-- Node16 -->
<g id="node16" class="node"><title>Node16</title>
<g id="a_node16"><a xlink:href="Orchestrator_8H.html" target="_top" xlink:title="Orchestrator.H">
<polygon fill="none" stroke="black" points="445.5,-0.5 445.5,-19.5 526.5,-19.5 526.5,-0.5 445.5,-0.5"/>
<text text-anchor="middle" x="486" y="-7.5" font-family="Helvetica,sans-Serif" font-size="10.00">Orchestrator.H</text>
</a>
</g>
</g>
<!-- Node14&#45;&gt;Node16 -->
<g id="edge16" class="edge"><title>Node14&#45;&gt;Node16</title>
<path fill="none" stroke="midnightblue" d="M351.75,-112.357C338.859,-99.2565 318.511,-73.995 332,-56 344.552,-39.2548 395.428,-26.6633 435.313,-19.1187"/>
<polygon fill="midnightblue" stroke="midnightblue" points="435.98,-22.5547 445.186,-17.3099 434.719,-15.6693 435.98,-22.5547"/>
</g>
<!-- Node17 -->
<g id="node17" class="node"><title>Node17</title>
<g id="a_node17"><a xlink:href="OpenFoamAgent_8H.html" target="_top" xlink:title="OpenFoamAgent.H">
<polygon fill="none" stroke="black" points="475.5,-56.5 475.5,-75.5 576.5,-75.5 576.5,-56.5 475.5,-56.5"/>
<text text-anchor="middle" x="526" y="-63.5" font-family="Helvetica,sans-Serif" font-size="10.00">OpenFoamAgent.H</text>
</a>
</g>
</g>
<!-- Node14&#45;&gt;Node17 -->
<g id="edge17" class="edge"><title>Node14&#45;&gt;Node17</title>
<path fill="none" stroke="midnightblue" d="M387.145,-112.444C415.023,-103.32 459.348,-88.8133 490.4,-78.6509"/>
<polygon fill="midnightblue" stroke="midnightblue" points="491.562,-81.9533 499.978,-75.5164 489.385,-75.3005 491.562,-81.9533"/>
</g>
<!-- Node18 -->
<g id="node18" class="node"><title>Node18</title>
<g id="a_node18"><a xlink:href="ElmerAgent_8H.html" target="_top" xlink:title="ElmerAgent.H">
<polygon fill="none" stroke="black" points="341,-56.5 341,-75.5 419,-75.5 419,-56.5 341,-56.5"/>
<text text-anchor="middle" x="380" y="-63.5" font-family="Helvetica,sans-Serif" font-size="10.00">ElmerAgent.H</text>
</a>
</g>
</g>
<!-- Node14&#45;&gt;Node18 -->
<g id="edge20" class="edge"><title>Node14&#45;&gt;Node18</title>
<path fill="none" stroke="midnightblue" d="M364.137,-112.083C366.683,-104.849 370.356,-94.4087 373.527,-85.3968"/>
<polygon fill="midnightblue" stroke="midnightblue" points="376.903,-86.3459 376.921,-75.7511 370.3,-84.0225 376.903,-86.3459"/>
</g>
<!-- Node14&#45;&gt;Node12 -->
<g id="edge22" class="edge"><title>Node14&#45;&gt;Node12</title>
<path fill="none" stroke="midnightblue" d="M344.291,-112.324C327.688,-103.703 301.998,-90.3643 282.78,-80.3855"/>
<polygon fill="midnightblue" stroke="midnightblue" points="284.156,-77.1565 273.668,-75.6545 280.93,-83.3689 284.156,-77.1565"/>
</g>
<!-- Node17&#45;&gt;Node16 -->
<g id="edge18" class="edge"><title>Node17&#45;&gt;Node16</title>
<path fill="none" stroke="midnightblue" d="M519.395,-56.083C513.745,-48.4554 505.455,-37.2645 498.549,-27.9408"/>
<polygon fill="midnightblue" stroke="midnightblue" points="501.247,-25.7034 492.482,-19.7511 495.622,-29.87 501.247,-25.7034"/>
</g>
<!-- Node17&#45;&gt;Node15 -->
<g id="edge19" class="edge"><title>Node17&#45;&gt;Node15</title>
<path fill="none" stroke="midnightblue" d="M562.92,-56.4435C603.395,-47.0629 668.421,-31.9926 712.384,-21.8036"/>
<polygon fill="midnightblue" stroke="midnightblue" points="713.302,-25.1839 722.253,-19.5164 711.721,-18.3646 713.302,-25.1839"/>
</g>
<!-- Node18&#45;&gt;Node16 -->
<g id="edge21" class="edge"><title>Node18&#45;&gt;Node16</title>
<path fill="none" stroke="midnightblue" d="M397.031,-56.324C414.03,-47.6641 440.376,-34.2424 459.993,-24.249"/>
<polygon fill="midnightblue" stroke="midnightblue" points="461.69,-27.3125 469.012,-19.6545 458.512,-21.0752 461.69,-27.3125"/>
</g>
<!-- Node19&#45;&gt;Node15 -->
<g id="edge24" class="edge"><title>Node19&#45;&gt;Node15</title>
<path fill="none" stroke="midnightblue" d="M610.022,-113.218C613.057,-112.785 616.07,-112.375 619,-112 660.849,-106.65 968.617,-107.215 997,-76 1002.98,-69.4234 1002.67,-62.8444 997,-56 974.189,-28.4719 876.685,-17.6599 813.772,-13.5026"/>
<polygon fill="midnightblue" stroke="midnightblue" points="813.804,-9.99791 803.606,-12.8685 813.369,-16.9843 813.804,-9.99791"/>
</g>
<!-- Node19&#45;&gt;Node16 -->
<g id="edge25" class="edge"><title>Node19&#45;&gt;Node16</title>
<path fill="none" stroke="midnightblue" d="M520.61,-112.451C500.419,-106.022 478.088,-94.933 466,-76 456.605,-61.2842 464.737,-41.881 473.282,-28.1157"/>
<polygon fill="midnightblue" stroke="midnightblue" points="476.333,-29.8531 479.054,-19.6136 470.542,-25.9214 476.333,-29.8531"/>
</g>
<!-- Node20 -->
<g id="node20" class="node"><title>Node20</title>
<g id="a_node20"><a xlink:href="OpenFoamParAgent_8H.html" target="_top" xlink:title="OpenFoamParAgent.H">
<polygon fill="none" stroke="black" points="744,-56.5 744,-75.5 860,-75.5 860,-56.5 744,-56.5"/>
<text text-anchor="middle" x="802" y="-63.5" font-family="Helvetica,sans-Serif" font-size="10.00">OpenFoamParAgent.H</text>
</a>
</g>
</g>
<!-- Node19&#45;&gt;Node20 -->
<g id="edge26" class="edge"><title>Node19&#45;&gt;Node20</title>
<path fill="none" stroke="midnightblue" d="M600.87,-112.444C642.476,-103.043 709.369,-87.9291 754.469,-77.7393"/>
<polygon fill="midnightblue" stroke="midnightblue" points="755.324,-81.1343 764.307,-75.5164 753.781,-74.3064 755.324,-81.1343"/>
</g>
<!-- Node21 -->
<g id="node21" class="node"><title>Node21</title>
<g id="a_node21"><a xlink:href="ElmerParAgent_8H.html" target="_top" xlink:title="ElmerParAgent.H">
<polygon fill="none" stroke="black" points="594.5,-56.5 594.5,-75.5 687.5,-75.5 687.5,-56.5 594.5,-56.5"/>
<text text-anchor="middle" x="641" y="-63.5" font-family="Helvetica,sans-Serif" font-size="10.00">ElmerParAgent.H</text>
</a>
</g>
</g>
<!-- Node19&#45;&gt;Node21 -->
<g id="edge29" class="edge"><title>Node19&#45;&gt;Node21</title>
<path fill="none" stroke="midnightblue" d="M575.532,-112.324C587.586,-103.979 606.027,-91.2122 620.269,-81.3524"/>
<polygon fill="midnightblue" stroke="midnightblue" points="622.269,-84.2243 628.499,-75.6545 618.285,-78.469 622.269,-84.2243"/>
</g>
<!-- Node19&#45;&gt;Node12 -->
<g id="edge31" class="edge"><title>Node19&#45;&gt;Node12</title>
<path fill="none" stroke="midnightblue" d="M515.858,-112.681C455.064,-101.953 350.535,-83.5061 294.718,-73.6561"/>
<polygon fill="midnightblue" stroke="midnightblue" points="295.014,-70.1543 284.558,-71.8631 293.797,-77.0478 295.014,-70.1543"/>
</g>
<!-- Node22 -->
<g id="node22" class="node"><title>Node22</title>
<polygon fill="none" stroke="#bfbfbf" points="878.5,-56.5 878.5,-75.5 919.5,-75.5 919.5,-56.5 878.5,-56.5"/>
<text text-anchor="middle" x="899" y="-63.5" font-family="Helvetica,sans-Serif" font-size="10.00">ctime</text>
</g>
<!-- Node19&#45;&gt;Node22 -->
<g id="edge32" class="edge"><title>Node19&#45;&gt;Node22</title>
<path fill="none" stroke="midnightblue" d="M610.045,-113.382C613.075,-112.909 616.08,-112.445 619,-112 726.834,-95.5719 757.65,-99.9237 868.545,-75.7877"/>
<polygon fill="midnightblue" stroke="midnightblue" points="869.437,-79.175 878.449,-73.6035 867.93,-72.3393 869.437,-79.175"/>
</g>
<!-- Node23 -->
<g id="node23" class="node"><title>Node23</title>
<polygon fill="none" stroke="#bfbfbf" points="937.5,-56.5 937.5,-75.5 988.5,-75.5 988.5,-56.5 937.5,-56.5"/>
<text text-anchor="middle" x="963" y="-63.5" font-family="Helvetica,sans-Serif" font-size="10.00">unistd.h</text>
</g>
<!-- Node19&#45;&gt;Node23 -->
<g id="edge33" class="edge"><title>Node19&#45;&gt;Node23</title>
<path fill="none" stroke="midnightblue" d="M610.032,-113.29C613.064,-112.839 616.074,-112.405 619,-112 752.744,-93.4706 790.319,-100.903 927.429,-75.8509"/>
<polygon fill="midnightblue" stroke="midnightblue" points="928.28,-79.2528 937.475,-73.9902 927.005,-72.3699 928.28,-79.2528"/>
</g>
<!-- Node20&#45;&gt;Node16 -->
<g id="edge27" class="edge"><title>Node20&#45;&gt;Node16</title>
<path fill="none" stroke="midnightblue" d="M751.929,-56.4435C693.033,-46.3791 595.812,-29.7654 536.662,-19.6574"/>
<polygon fill="midnightblue" stroke="midnightblue" points="537.24,-16.2055 526.793,-17.971 536.061,-23.1055 537.24,-16.2055"/>
</g>
<!-- Node20&#45;&gt;Node15 -->
<g id="edge28" class="edge"><title>Node20&#45;&gt;Node15</title>
<path fill="none" stroke="midnightblue" d="M794.899,-56.083C788.763,-48.3768 779.73,-37.0333 772.261,-27.6531"/>
<polygon fill="midnightblue" stroke="midnightblue" points="774.936,-25.3936 765.968,-19.7511 769.46,-29.7542 774.936,-25.3936"/>
</g>
<!-- Node21&#45;&gt;Node16 -->
<g id="edge30" class="edge"><title>Node21&#45;&gt;Node16</title>
<path fill="none" stroke="midnightblue" d="M616.44,-56.4435C590.477,-47.3986 549.332,-33.064 520.203,-22.9158"/>
<polygon fill="midnightblue" stroke="midnightblue" points="521.04,-19.5013 510.445,-19.5164 518.737,-26.1116 521.04,-19.5013"/>
</g>
</g>
</svg>
