<?xml version="1.0" encoding="UTF-8" standalone="no"?>
<!DOCTYPE svg PUBLIC "-//W3C//DTD SVG 1.1//EN"
 "http://www.w3.org/Graphics/SVG/1.1/DTD/svg11.dtd">
<!-- Generated by graphviz version 2.30.1 (20150305.2338)
 -->
<!-- Title: main Pages: 1 -->
<svg width="760pt" height="556pt"
 viewBox="0.00 0.00 760.00 556.00" xmlns="http://www.w3.org/2000/svg" xmlns:xlink="http://www.w3.org/1999/xlink">
<g id="graph0" class="graph" transform="scale(1 1) rotate(0) translate(4 552)">
<title>main</title>
<!-- Node1 -->
<g id="node1" class="node"><title>Node1</title>
<polygon fill="#bfbfbf" stroke="black" points="0,-274.5 0,-293.5 38,-293.5 38,-274.5 0,-274.5"/>
<text text-anchor="middle" x="19" y="-281.5" font-family="Helvetica,sans-Serif" font-size="10.00">main</text>
</g>
<!-- Node2 -->
<g id="node2" class="node"><title>Node2</title>
<g id="a_node2"><a xlink:href="namespaceElmerFoamFSI_ae544cb65d02e78238b4c6f1690b9ffda.html#ae544cb65d02e78238b4c6f1690b9ffda" target="_top" xlink:title="Drives the ElmerFoamFSI::TestObject. ">
<polygon fill="none" stroke="black" points="74,-274.5 74,-293.5 214,-293.5 214,-274.5 74,-274.5"/>
<text text-anchor="middle" x="144" y="-281.5" font-family="Helvetica,sans-Serif" font-size="10.00">ElmerFoamFSI::ParallelTest</text>
</a>
</g>
</g>
<!-- Node1&#45;&gt;Node2 -->
<g id="edge1" class="edge"><title>Node1&#45;&gt;Node2</title>
<path fill="none" stroke="midnightblue" d="M38.1491,-284C45.3902,-284 54.2627,-284 63.7518,-284"/>
<polygon fill="midnightblue" stroke="midnightblue" points="63.821,-287.5 73.821,-284 63.8209,-280.5 63.821,-287.5"/>
</g>
<!-- Node3 -->
<g id="node3" class="node"><title>Node3</title>
<g id="a_node3"><a xlink:href="com__c_09_09_8hpp_ab1d1395d3d329bd968a9e806ea1605f1.html#ab1d1395d3d329bd968a9e806ea1605f1" target="_top" xlink:title="COM_initialized">
<polygon fill="none" stroke="black" points="281,-528.5 281,-547.5 367,-547.5 367,-528.5 281,-528.5"/>
<text text-anchor="middle" x="324" y="-535.5" font-family="Helvetica,sans-Serif" font-size="10.00">COM_initialized</text>
</a>
</g>
</g>
<!-- Node2&#45;&gt;Node3 -->
<g id="edge2" class="edge"><title>Node2&#45;&gt;Node3</title>
<path fill="none" stroke="midnightblue" d="M146.34,-293.835C151.788,-329.899 175.657,-456.049 250,-519 256.114,-524.177 263.474,-527.964 271.135,-530.731"/>
<polygon fill="midnightblue" stroke="midnightblue" points="270.345,-534.149 280.931,-533.718 272.386,-527.453 270.345,-534.149"/>
</g>
<!-- Node6 -->
<g id="node6" class="node"><title>Node6</title>
<g id="a_node6"><a xlink:href="com__c_09_09_8hpp_ac0f80d6e63759a2afe40ed883cea3d5e.html#ac0f80d6e63759a2afe40ed883cea3d5e" target="_top" xlink:title="COM_init">
<polygon fill="none" stroke="black" points="295,-490.5 295,-509.5 353,-509.5 353,-490.5 295,-490.5"/>
<text text-anchor="middle" x="324" y="-497.5" font-family="Helvetica,sans-Serif" font-size="10.00">COM_init</text>
</a>
</g>
</g>
<!-- Node2&#45;&gt;Node6 -->
<g id="edge5" class="edge"><title>Node2&#45;&gt;Node6</title>
<path fill="none" stroke="midnightblue" d="M147.336,-293.937C155.434,-326.136 185.413,-428.493 250,-480 259.953,-487.937 272.826,-492.731 284.985,-495.624"/>
<polygon fill="midnightblue" stroke="midnightblue" points="284.456,-499.088 294.951,-497.635 285.84,-492.226 284.456,-499.088"/>
</g>
<!-- Node8 -->
<g id="node8" class="node"><title>Node8</title>
<g id="a_node8"><a xlink:href="classIRAD_1_1Comm_1_1CommunicatorObject_a575c1da8fd55deeeb351cb509ddd3dda.html#a575c1da8fd55deeeb351cb509ddd3dda" target="_top" xlink:title="IRAD::Comm::Communicator\lObject::Rank">
<polygon fill="none" stroke="black" points="251,-441 251,-471 397,-471 397,-441 251,-441"/>
<text text-anchor="start" x="259" y="-459" font-family="Helvetica,sans-Serif" font-size="10.00">IRAD::Comm::Communicator</text>
<text text-anchor="middle" x="324" y="-448" font-family="Helvetica,sans-Serif" font-size="10.00">Object::Rank</text>
</a>
</g>
</g>
<!-- Node2&#45;&gt;Node8 -->
<g id="edge7" class="edge"><title>Node2&#45;&gt;Node8</title>
<path fill="none" stroke="midnightblue" d="M149.346,-293.832C161.418,-320.041 197.937,-392.217 250,-431 252.498,-432.861 255.144,-434.59 257.891,-436.195"/>
<polygon fill="midnightblue" stroke="midnightblue" points="256.464,-439.398 266.949,-440.915 259.698,-433.19 256.464,-439.398"/>
</g>
<!-- Node9 -->
<g id="node9" class="node"><title>Node9</title>
<g id="a_node9"><a xlink:href="classIRAD_1_1Comm_1_1CommunicatorObject_af40990b9bd3d70d30e8ce7cdda1ad56f.html#af40990b9bd3d70d30e8ce7cdda1ad56f" target="_top" xlink:title="IRAD::Comm::Communicator\lObject::Size">
<polygon fill="none" stroke="black" points="251,-392 251,-422 397,-422 397,-392 251,-392"/>
<text text-anchor="start" x="259" y="-410" font-family="Helvetica,sans-Serif" font-size="10.00">IRAD::Comm::Communicator</text>
<text text-anchor="middle" x="324" y="-399" font-family="Helvetica,sans-Serif" font-size="10.00">Object::Size</text>
</a>
</g>
</g>
<!-- Node2&#45;&gt;Node9 -->
<g id="edge8" class="edge"><title>Node2&#45;&gt;Node9</title>
<path fill="none" stroke="midnightblue" d="M152.942,-293.78C169.207,-313.216 208.306,-356.982 250,-382 253.554,-384.132 257.315,-386.114 261.181,-387.951"/>
<polygon fill="midnightblue" stroke="midnightblue" points="259.782,-391.16 270.345,-391.977 262.597,-384.751 259.782,-391.16"/>
</g>
<!-- Node10 -->
<g id="node10" class="node"><title>Node10</title>
<g id="a_node10"><a xlink:href="classElmerFoamFSI_1_1TestComLine_a98b1050f09da390896f964fb7a892391.html#a98b1050f09da390896f964fb7a892391" target="_top" xlink:title="virtual function for program specific Initialization. ">
<polygon fill="none" stroke="black" points="250.5,-343 250.5,-373 397.5,-373 397.5,-343 250.5,-343"/>
<text text-anchor="start" x="258.5" y="-361" font-family="Helvetica,sans-Serif" font-size="10.00">ElmerFoamFSI::TestComLine</text>
<text text-anchor="middle" x="324" y="-350" font-family="Helvetica,sans-Serif" font-size="10.00">::Initialize</text>
</a>
</g>
</g>
<!-- Node2&#45;&gt;Node10 -->
<g id="edge9" class="edge"><title>Node2&#45;&gt;Node10</title>
<path fill="none" stroke="midnightblue" d="M164.081,-293.656C184.916,-304.023 219.403,-320.662 250,-333 255.412,-335.182 261.096,-337.346 266.803,-339.434"/>
<polygon fill="midnightblue" stroke="midnightblue" points="265.79,-342.789 276.385,-342.866 268.151,-336.199 265.79,-342.789"/>
</g>
<!-- Node13 -->
<g id="node13" class="node"><title>Node13</title>
<g id="a_node13"><a xlink:href="classIRAD_1_1Util_1_1ComLineObject_a49a08e312b3a2d9dfda55796fb842e80.html#a49a08e312b3a2d9dfda55796fb842e80" target="_top" xlink:title="Processes all command line tokens. ">
<polygon fill="none" stroke="black" points="256,-294 256,-324 392,-324 392,-294 256,-294"/>
<text text-anchor="start" x="264" y="-312" font-family="Helvetica,sans-Serif" font-size="10.00">IRAD::Util::ComLineObject</text>
<text text-anchor="middle" x="324" y="-301" font-family="Helvetica,sans-Serif" font-size="10.00">::ProcessOptions</text>
</a>
</g>
</g>
<!-- Node2&#45;&gt;Node13 -->
<g id="edge12" class="edge"><title>Node2&#45;&gt;Node13</title>
<path fill="none" stroke="midnightblue" d="M212.802,-293.523C223.634,-295.044 234.91,-296.628 245.938,-298.177"/>
<polygon fill="midnightblue" stroke="midnightblue" points="245.586,-301.661 255.975,-299.586 246.559,-294.73 245.586,-301.661"/>
</g>
<!-- Node14 -->
<g id="node14" class="node"><title>Node14</title>
<g id="a_node14"><a xlink:href="classIRAD_1_1Util_1_1ComLineObject_a2724b7e78e4a1650818395c714595738.html#a2724b7e78e4a1650818395c714595738" target="_top" xlink:title="Get the value of an option. ">
<polygon fill="none" stroke="black" points="256,-245 256,-275 392,-275 392,-245 256,-245"/>
<text text-anchor="start" x="264" y="-263" font-family="Helvetica,sans-Serif" font-size="10.00">IRAD::Util::ComLineObject</text>
<text text-anchor="middle" x="324" y="-252" font-family="Helvetica,sans-Serif" font-size="10.00">::GetOption</text>
</a>
</g>
</g>
<!-- Node2&#45;&gt;Node14 -->
<g id="edge13" class="edge"><title>Node2&#45;&gt;Node14</title>
<path fill="none" stroke="midnightblue" d="M214.074,-274.687C224.442,-273.289 235.19,-271.84 245.716,-270.42"/>
<polygon fill="midnightblue" stroke="midnightblue" points="246.277,-273.876 255.72,-269.072 245.342,-266.939 246.277,-273.876"/>
</g>
<!-- Node15 -->
<g id="node15" class="node"><title>Node15</title>
<g id="a_node15"><a xlink:href="classIRAD_1_1Util_1_1ComLineObject_aa9cce130873f2d7d00a01053b5fc9f97.html#aa9cce130873f2d7d00a01053b5fc9f97" target="_top" xlink:title="Generate long usage string. ">
<polygon fill="none" stroke="black" points="256,-196 256,-226 392,-226 392,-196 256,-196"/>
<text text-anchor="start" x="264" y="-214" font-family="Helvetica,sans-Serif" font-size="10.00">IRAD::Util::ComLineObject</text>
<text text-anchor="middle" x="324" y="-203" font-family="Helvetica,sans-Serif" font-size="10.00">::LongUsage</text>
</a>
</g>
</g>
<!-- Node2&#45;&gt;Node15 -->
<g id="edge14" class="edge"><title>Node2&#45;&gt;Node15</title>
<path fill="none" stroke="midnightblue" d="M164.488,-274.389C185.382,-264.25 219.652,-248.099 250,-236 255.501,-233.807 261.278,-231.626 267.073,-229.518"/>
<polygon fill="midnightblue" stroke="midnightblue" points="268.552,-232.707 276.795,-226.051 266.201,-226.113 268.552,-232.707"/>
</g>
<!-- Node16 -->
<g id="node16" class="node"><title>Node16</title>
<g id="a_node16"><a xlink:href="classIRAD_1_1Comm_1_1CommunicatorObject_ae5812ab412465cf395e574fb7380f462.html#ae5812ab412465cf395e574fb7380f462" target="_top" xlink:title="IRAD::Comm::Communicator\lObject::SetExit">
<polygon fill="none" stroke="black" points="251,-147 251,-177 397,-177 397,-147 251,-147"/>
<text text-anchor="start" x="259" y="-165" font-family="Helvetica,sans-Serif" font-size="10.00">IRAD::Comm::Communicator</text>
<text text-anchor="middle" x="324" y="-154" font-family="Helvetica,sans-Serif" font-size="10.00">Object::SetExit</text>
</a>
</g>
</g>
<!-- Node2&#45;&gt;Node16 -->
<g id="edge15" class="edge"><title>Node2&#45;&gt;Node16</title>
<path fill="none" stroke="midnightblue" d="M152.965,-274.325C169.271,-255.096 208.44,-211.793 250,-187 253.559,-184.877 257.324,-182.902 261.194,-181.07"/>
<polygon fill="midnightblue" stroke="midnightblue" points="262.608,-184.271 270.363,-177.053 259.799,-177.86 262.608,-184.271"/>
</g>
<!-- Node17 -->
<g id="node17" class="node"><title>Node17</title>
<g id="a_node17"><a xlink:href="classIRAD_1_1Comm_1_1CommunicatorObject_a661992fe569928d57ddd3641cb461de6.html#a661992fe569928d57ddd3641cb461de6" target="_top" xlink:title="IRAD::Comm::Communicator\lObject::Check">
<polygon fill="none" stroke="black" points="251,-98 251,-128 397,-128 397,-98 251,-98"/>
<text text-anchor="start" x="259" y="-116" font-family="Helvetica,sans-Serif" font-size="10.00">IRAD::Comm::Communicator</text>
<text text-anchor="middle" x="324" y="-105" font-family="Helvetica,sans-Serif" font-size="10.00">Object::Check</text>
</a>
</g>
</g>
<!-- Node2&#45;&gt;Node17 -->
<g id="edge16" class="edge"><title>Node2&#45;&gt;Node17</title>
<path fill="none" stroke="midnightblue" d="M149.365,-274.235C161.484,-248.206 198.109,-176.525 250,-138 252.501,-136.143 255.149,-134.418 257.898,-132.815"/>
<polygon fill="midnightblue" stroke="midnightblue" points="259.704,-135.821 266.962,-128.102 256.475,-129.61 259.704,-135.821"/>
</g>
<!-- Node18 -->
<g id="node18" class="node"><title>Node18</title>
<g id="a_node18"><a xlink:href="classIRAD_1_1Util_1_1ComLineObject_aa433a792b5ff1791f801e99048c285bc.html#aa433a792b5ff1791f801e99048c285bc" target="_top" xlink:title="Error reporting. ">
<polygon fill="none" stroke="black" points="256,-49 256,-79 392,-79 392,-49 256,-49"/>
<text text-anchor="start" x="264" y="-67" font-family="Helvetica,sans-Serif" font-size="10.00">IRAD::Util::ComLineObject</text>
<text text-anchor="middle" x="324" y="-56" font-family="Helvetica,sans-Serif" font-size="10.00">::ErrorReport</text>
</a>
</g>
</g>
<!-- Node2&#45;&gt;Node18 -->
<g id="edge17" class="edge"><title>Node2&#45;&gt;Node18</title>
<path fill="none" stroke="midnightblue" d="M147.484,-274.274C156.036,-242.728 187.247,-142.222 250,-89 252.011,-87.2941 254.145,-85.7027 256.371,-84.2184"/>
<polygon fill="midnightblue" stroke="midnightblue" points="258.454,-87.0561 265.344,-79.0076 254.938,-81.0028 258.454,-87.0561"/>
</g>
<!-- Node19 -->
<g id="node19" class="node"><title>Node19</title>
<g id="a_node19"><a xlink:href="classIRAD_1_1Util_1_1ComLineObject_a91336093c461161b48bab405326d74b3.html#a91336093c461161b48bab405326d74b3" target="_top" xlink:title="Generate short usage string. ">
<polygon fill="none" stroke="black" points="256,-0 256,-30 392,-30 392,-0 256,-0"/>
<text text-anchor="start" x="264" y="-18" font-family="Helvetica,sans-Serif" font-size="10.00">IRAD::Util::ComLineObject</text>
<text text-anchor="middle" x="324" y="-7" font-family="Helvetica,sans-Serif" font-size="10.00">::ShortUsage</text>
</a>
</g>
</g>
<!-- Node2&#45;&gt;Node19 -->
<g id="edge18" class="edge"><title>Node2&#45;&gt;Node19</title>
<path fill="none" stroke="midnightblue" d="M146.303,-274.484C151.741,-238.405 175.909,-108.634 250,-40 251.677,-38.4467 253.454,-36.9894 255.312,-35.6221"/>
<polygon fill="midnightblue" stroke="midnightblue" points="257.324,-38.491 263.903,-30.1864 253.581,-32.5756 257.324,-38.491"/>
</g>
<!-- Node4 -->
<g id="node4" class="node"><title>Node4</title>
<g id="a_node4"><a xlink:href="classCOM_1_1COM__base_a87753f5d050529932389515f11f80e7c.html#a87753f5d050529932389515f11f80e7c" target="_top" xlink:title="Checks whether COM has been initialized. ">
<polygon fill="none" stroke="black" points="434,-528.5 434,-547.5 576,-547.5 576,-528.5 434,-528.5"/>
<text text-anchor="middle" x="505" y="-535.5" font-family="Helvetica,sans-Serif" font-size="10.00">COM::COM_base::initialized</text>
</a>
</g>
</g>
<!-- Node3&#45;&gt;Node4 -->
<g id="edge3" class="edge"><title>Node3&#45;&gt;Node4</title>
<path fill="none" stroke="midnightblue" d="M367.421,-538C384.324,-538 404.359,-538 423.803,-538"/>
<polygon fill="midnightblue" stroke="midnightblue" points="423.897,-541.5 433.897,-538 423.897,-534.5 423.897,-541.5"/>
</g>
<!-- Node5 -->
<g id="node5" class="node"><title>Node5</title>
<g id="a_node5"><a xlink:href="classCOM_1_1COM__base_a77bb770b9ec1aac99361c45efbccabc1.html#a77bb770b9ec1aac99361c45efbccabc1" target="_top" xlink:title="Get a pointer to the COM object. ">
<polygon fill="none" stroke="black" points="612.5,-528.5 612.5,-547.5 751.5,-547.5 751.5,-528.5 612.5,-528.5"/>
<text text-anchor="middle" x="682" y="-535.5" font-family="Helvetica,sans-Serif" font-size="10.00">COM::COM_base::get_com</text>
</a>
</g>
</g>
<!-- Node4&#45;&gt;Node5 -->
<g id="edge4" class="edge"><title>Node4&#45;&gt;Node5</title>
<path fill="none" stroke="midnightblue" d="M576.171,-538C584.714,-538 593.487,-538 602.146,-538"/>
<polygon fill="midnightblue" stroke="midnightblue" points="602.238,-541.5 612.238,-538 602.238,-534.5 602.238,-541.5"/>
</g>
<!-- Node7 -->
<g id="node7" class="node"><title>Node7</title>
<g id="a_node7"><a xlink:href="classCOM_1_1COM__base_a38b2bac03bb06f2d0ea5c99760da5f1c.html#a38b2bac03bb06f2d0ea5c99760da5f1c" target="_top" xlink:title="COM::COM_base::init">
<polygon fill="none" stroke="black" points="448,-490.5 448,-509.5 562,-509.5 562,-490.5 448,-490.5"/>
<text text-anchor="middle" x="505" y="-497.5" font-family="Helvetica,sans-Serif" font-size="10.00">COM::COM_base::init</text>
</a>
</g>
</g>
<!-- Node6&#45;&gt;Node7 -->
<g id="edge6" class="edge"><title>Node6&#45;&gt;Node7</title>
<path fill="none" stroke="midnightblue" d="M353.363,-500C376.026,-500 408.708,-500 437.841,-500"/>
<polygon fill="midnightblue" stroke="midnightblue" points="437.976,-503.5 447.976,-500 437.976,-496.5 437.976,-503.5"/>
</g>
<!-- Node11 -->
<g id="node11" class="node"><title>Node11</title>
<g id="a_node11"><a xlink:href="classIRAD_1_1Util_1_1ComLineObject_ac3e609c01c92ed92e57a16d226f9cdb8.html#ac3e609c01c92ed92e57a16d226f9cdb8" target="_top" xlink:title="User interface to describe simple option. ">
<polygon fill="none" stroke="black" points="437,-367 437,-397 573,-397 573,-367 437,-367"/>
<text text-anchor="start" x="445" y="-385" font-family="Helvetica,sans-Serif" font-size="10.00">IRAD::Util::ComLineObject</text>
<text text-anchor="middle" x="505" y="-374" font-family="Helvetica,sans-Serif" font-size="10.00">::AddOption</text>
</a>
</g>
</g>
<!-- Node10&#45;&gt;Node11 -->
<g id="edge10" class="edge"><title>Node10&#45;&gt;Node11</title>
<path fill="none" stroke="midnightblue" d="M397.548,-367.727C407.186,-369.019 417.097,-370.348 426.81,-371.65"/>
<polygon fill="midnightblue" stroke="midnightblue" points="426.464,-375.135 436.841,-372.995 427.395,-368.197 426.464,-375.135"/>
</g>
<!-- Node12 -->
<g id="node12" class="node"><title>Node12</title>
<g id="a_node12"><a xlink:href="classIRAD_1_1Util_1_1ComLineObject_a469b17dd7e622de0cb6b1c51e805994c.html#a469b17dd7e622de0cb6b1c51e805994c" target="_top" xlink:title="Specify usage for an option. ">
<polygon fill="none" stroke="black" points="437,-318 437,-348 573,-348 573,-318 437,-318"/>
<text text-anchor="start" x="445" y="-336" font-family="Helvetica,sans-Serif" font-size="10.00">IRAD::Util::ComLineObject</text>
<text text-anchor="middle" x="505" y="-325" font-family="Helvetica,sans-Serif" font-size="10.00">::AddHelp</text>
</a>
</g>
</g>
<!-- Node10&#45;&gt;Node12 -->
<g id="edge11" class="edge"><title>Node10&#45;&gt;Node12</title>
<path fill="none" stroke="midnightblue" d="M397.548,-347.868C407.186,-346.521 417.097,-345.137 426.81,-343.781"/>
<polygon fill="midnightblue" stroke="midnightblue" points="427.421,-347.229 436.841,-342.38 426.453,-340.297 427.421,-347.229"/>
</g>
</g>
</svg>
