<?xml version="1.0" encoding="UTF-8" standalone="no"?>
<!DOCTYPE svg PUBLIC "-//W3C//DTD SVG 1.1//EN"
 "http://www.w3.org/Graphics/SVG/1.1/DTD/svg11.dtd">
<!-- Generated by graphviz version 2.26.0 (20091210.2329)
 -->
<!-- Title: initializer Pages: 1 -->
<!--zoomable 170 -->
<svg id="main" version="1.1" xmlns="http://www.w3.org/2000/svg" xmlns:xlink="http://www.w3.org/1999/xlink" xml:space="preserve" onload="init(evt)">
<style type="text/css"><![CDATA[
.edge:hover path { stroke: red; }
.edge:hover polygon { stroke: red; fill: red; }
]]></style>
<script type="text/javascript"><![CDATA[
var edges = document.getElementsByTagName('g');
if (edges && edges.length) {
  for (var i=0;i<edges.length;i++) {
    if (edges[i].id.substr(0,4)=='edge') {
      edges[i].setAttribute('class','edge');
    }
  }
}
]]></script>
        <defs>
                <circle id="rim" cx="0" cy="0" r="7"/>
                <circle id="rim2" cx="0" cy="0" r="3.5"/>
                <g id="zoomPlus">
                        <use xlink:href="#rim" fill="#404040">
                                <set attributeName="fill" to="#808080" begin="zoomplus.mouseover" end="zoomplus.mouseout"/>
                        </use>
                        <path d="M-4,0h8M0,-4v8" fill="none" stroke="white" stroke-width="1.5" pointer-events="none"/>
                </g>
                <g id="zoomMin">
                        <use xlink:href="#rim" fill="#404040">
                                <set attributeName="fill" to="#808080" begin="zoomminus.mouseover" end="zoomminus.mouseout"/>
                        </use>
                        <path d="M-4,0h8" fill="none" stroke="white" stroke-width="1.5" pointer-events="none"/>
                </g>
                <g id="dirArrow">
                        <path fill="none" stroke="white" stroke-width="1.5" d="M0,-3.0v7 M-2.5,-0.5L0,-3.0L2.5,-0.5"/>
                </g>
               <g id="resetDef">
                       <use xlink:href="#rim2" fill="#404040">
                               <set attributeName="fill" to="#808080" begin="reset.mouseover" end="reset.mouseout"/>
                       </use>
               </g>
        </defs>

<script type="text/javascript">
var viewWidth = 532;
var viewHeight = 170;
var sectionId = 'dynsection-0';
</script>
<script xlink:href="svgpan.js"/>
<svg id="graph" class="graph">
<g id="viewport">
<title>initializer</title>
<!-- Node1 -->
<g id="node1" class="node"><title>Node1</title>
<polygon fill="#bfbfbf" stroke="black" points="0.5,-80.5 0.5,-101.5 55.5,-101.5 55.5,-80.5 0.5,-80.5"/>
<text text-anchor="middle" x="28" y="-88.5" font-family="Helvetica,sans-Serif" font-size="10.00">initializer</text>
</g>
<!-- Node2 -->
<g id="node3" class="node"><title>Node2</title>
<a xlink:href="MyInitialize_8F90_a5efd0681c40e89427aed63760a3dd706.html#a5efd0681c40e89427aed63760a3dd706" target="_top" xlink:title="ElmerLib Elmer library routines ">
<polygon fill="none" stroke="black" points="92.5,-80.5 92.5,-101.5 157.5,-101.5 157.5,-80.5 92.5,-80.5"/>
<text text-anchor="middle" x="125" y="-88.5" font-family="Helvetica,sans-Serif" font-size="10.00">myinitialize</text>
</a>
</g>
<!-- Node1&#45;&gt;Node2 -->
<g id="edge2" class="edge"><title>Node1&#45;&gt;Node2</title>
<path fill="none" stroke="midnightblue" d="M55.5368,-91C63.8387,-91 73.1552,-91 82.2033,-91"/>
<polygon fill="midnightblue" stroke="midnightblue" points="82.2363,-94.5001 92.2363,-91 82.2363,-87.5001 82.2363,-94.5001"/>
</g>
<!-- Node3 -->
<g id="node5" class="node"><title>Node3</title>
<a xlink:href="classmymodule_a365409624821229f0d7ab61da0d3c6ba.html#a365409624821229f0d7ab61da0d3c6ba" target="_top" xlink:title="Adds coordinate and time variables to the current mesh structure. ">
<polygon fill="none" stroke="black" points="194,-140.5 194,-161.5 386,-161.5 386,-140.5 194,-140.5"/>
<text text-anchor="middle" x="290" y="-148.5" font-family="Helvetica,sans-Serif" font-size="10.00">mymodule::addmeshcoordinatesandtime</text>
</a>
</g>
<!-- Node2&#45;&gt;Node3 -->
<g id="edge4" class="edge"><title>Node2&#45;&gt;Node3</title>
<path fill="none" stroke="midnightblue" d="M139.912,-101.539C153.432,-110.621 174.213,-123.43 194,-131 200.778,-133.593 207.96,-135.877 215.224,-137.883"/>
<polygon fill="midnightblue" stroke="midnightblue" points="214.592,-141.334 225.15,-140.449 216.344,-134.557 214.592,-141.334"/>
</g>
<!-- Node4 -->
<g id="node7" class="node"><title>Node4</title>
<a xlink:href="classmymodule_a9fa4925b1884bc7bd5f9bb2cdddf2bbe.html#a9fa4925b1884bc7bd5f9bb2cdddf2bbe" target="_top" xlink:title="Adds flags for active solvers. ">
<polygon fill="none" stroke="black" points="232.5,-100.5 232.5,-121.5 347.5,-121.5 347.5,-100.5 232.5,-100.5"/>
<text text-anchor="middle" x="290" y="-108.5" font-family="Helvetica,sans-Serif" font-size="10.00">mymodule::addsolvers</text>
</a>
</g>
<!-- Node2&#45;&gt;Node4 -->
<g id="edge6" class="edge"><title>Node2&#45;&gt;Node4</title>
<path fill="none" stroke="midnightblue" d="M157.599,-94.9514C176.087,-97.1923 199.93,-100.082 222.278,-102.791"/>
<polygon fill="midnightblue" stroke="midnightblue" points="222.067,-106.291 232.416,-104.02 222.91,-99.3421 222.067,-106.291"/>
</g>
<!-- Node5 -->
<g id="node9" class="node"><title>Node5</title>
<a xlink:href="classmymodule_ace41a25456bb516f0f9ee96e9eed55ed.html#ace41a25456bb516f0f9ee96e9eed55ed" target="_top" xlink:title="mymodule::addvtuoutputsolverhack">
<polygon fill="none" stroke="black" points="204.5,-60.5 204.5,-81.5 375.5,-81.5 375.5,-60.5 204.5,-60.5"/>
<text text-anchor="middle" x="290" y="-68.5" font-family="Helvetica,sans-Serif" font-size="10.00">mymodule::addvtuoutputsolverhack</text>
</a>
</g>
<!-- Node2&#45;&gt;Node5 -->
<g id="edge8" class="edge"><title>Node2&#45;&gt;Node5</title>
<path fill="none" stroke="midnightblue" d="M157.599,-87.0486C168.451,-85.7333 181.148,-84.1942 194.304,-82.5995"/>
<polygon fill="midnightblue" stroke="midnightblue" points="194.926,-86.0498 204.432,-81.3719 194.084,-79.1007 194.926,-86.0498"/>
</g>
<!-- Node6 -->
<g id="node11" class="node"><title>Node6</title>
<a xlink:href="classmymodule_aab23af2755a40587c4f194ab80091318.html#aab23af2755a40587c4f194ab80091318" target="_top" xlink:title="Sets initial conditions for the fields. ">
<polygon fill="none" stroke="black" points="216,-20.5 216,-41.5 364,-41.5 364,-20.5 216,-20.5"/>
<text text-anchor="middle" x="290" y="-28.5" font-family="Helvetica,sans-Serif" font-size="10.00">mymodule::setinitialconditions</text>
</a>
</g>
<!-- Node2&#45;&gt;Node6 -->
<g id="edge10" class="edge"><title>Node2&#45;&gt;Node6</title>
<path fill="none" stroke="midnightblue" d="M139.912,-80.461C153.432,-71.3789 174.213,-58.5696 194,-51 200.778,-48.4071 207.96,-46.1233 215.224,-44.1173"/>
<polygon fill="midnightblue" stroke="midnightblue" points="216.344,-47.4429 225.15,-41.5514 214.592,-40.6657 216.344,-47.4429"/>
</g>
<!-- Node7 -->
<g id="node13" class="node"><title>Node7</title>
<a xlink:href="classmymodule_a35170c044edf9e26057c957be782d749.html#a35170c044edf9e26057c957be782d749" target="_top" xlink:title="Check if we are restarting are if yes, read in field values. ">
<polygon fill="none" stroke="black" points="425.5,-40.5 425.5,-61.5 520.5,-61.5 520.5,-40.5 425.5,-40.5"/>
<text text-anchor="middle" x="473" y="-48.5" font-family="Helvetica,sans-Serif" font-size="10.00">mymodule::restart</text>
</a>
</g>
<!-- Node6&#45;&gt;Node7 -->
<g id="edge12" class="edge"><title>Node6&#45;&gt;Node7</title>
<path fill="none" stroke="midnightblue" d="M364.169,-39.1059C381.074,-40.9535 398.798,-42.8905 414.918,-44.6523"/>
<polygon fill="midnightblue" stroke="midnightblue" points="414.934,-48.1747 425.255,-45.782 415.694,-41.2162 414.934,-48.1747"/>
</g>
<!-- Node8 -->
<g id="node15" class="node"><title>Node8</title>
<a xlink:href="classmymodule_af55e87fced73725324f9022ee5612521.html#af55e87fced73725324f9022ee5612521" target="_top" xlink:title="mymodule::initcond">
<polygon fill="none" stroke="black" points="422.5,-0.5 422.5,-21.5 523.5,-21.5 523.5,-0.5 422.5,-0.5"/>
<text text-anchor="middle" x="473" y="-8.5" font-family="Helvetica,sans-Serif" font-size="10.00">mymodule::initcond</text>
</a>
</g>
<!-- Node6&#45;&gt;Node8 -->
<g id="edge14" class="edge"><title>Node6&#45;&gt;Node8</title>
<path fill="none" stroke="midnightblue" d="M364.169,-22.8941C380.028,-21.1609 396.607,-19.349 411.907,-17.6769"/>
<polygon fill="midnightblue" stroke="midnightblue" points="412.709,-21.1101 422.27,-16.5443 411.949,-14.1515 412.709,-21.1101"/>
</g>
</g>
</svg>
        <g id="navigator" transform="translate(0 0)" fill="#404254">
                <rect fill="#f2f5e9" fill-opacity="0.5" stroke="#606060" stroke-width=".5" x="0" y="0" width="60" height="60"/>
                <use id="zoomplus" xlink:href="#zoomPlus" x="17" y="9" onmousedown="handleZoom(evt,'in')"/>
                <use id="zoomminus" xlink:href="#zoomMin" x="42" y="9" onmousedown="handleZoom(evt,'out')"/>
                <use id="reset" xlink:href="#resetDef" x="30" y="36" onmousedown="handleReset()"/>
                <g id="arrowUp" xlink:href="#dirArrow" transform="translate(30 24)" onmousedown="handlePan(0,-1)">
                  <use xlink:href="#rim" fill="#404040">
                        <set attributeName="fill" to="#808080" begin="arrowUp.mouseover" end="arrowUp.mouseout"/>
                  </use>
                  <path fill="none" stroke="white" stroke-width="1.5" d="M0,-3.0v7 M-2.5,-0.5L0,-3.0L2.5,-0.5"/>
                </g>
                <g id="arrowRight" xlink:href="#dirArrow" transform="rotate(90) translate(36 -43)" onmousedown="handlePan(1,0)">
                  <use xlink:href="#rim" fill="#404040">
                        <set attributeName="fill" to="#808080" begin="arrowRight.mouseover" end="arrowRight.mouseout"/>
                  </use>
                  <path fill="none" stroke="white" stroke-width="1.5" d="M0,-3.0v7 M-2.5,-0.5L0,-3.0L2.5,-0.5"/>
                </g>
                <g id="arrowDown" xlink:href="#dirArrow" transform="rotate(180) translate(-30 -48)" onmousedown="handlePan(0,1)">
                  <use xlink:href="#rim" fill="#404040">
                        <set attributeName="fill" to="#808080" begin="arrowDown.mouseover" end="arrowDown.mouseout"/>
                  </use>
                  <path fill="none" stroke="white" stroke-width="1.5" d="M0,-3.0v7 M-2.5,-0.5L0,-3.0L2.5,-0.5"/>
                </g>
                <g id="arrowLeft" xlink:href="#dirArrow" transform="rotate(270) translate(-36 17)" onmousedown="handlePan(-1,0)">
                  <use xlink:href="#rim" fill="#404040">
                        <set attributeName="fill" to="#808080" begin="arrowLeft.mouseover" end="arrowLeft.mouseout"/>
                  </use>
                  <path fill="none" stroke="white" stroke-width="1.5" d="M0,-3.0v7 M-2.5,-0.5L0,-3.0L2.5,-0.5"/>
                </g>
        </g>
        <svg viewBox="0 0 15 15" width="100%" height="30px" preserveAspectRatio="xMaxYMin meet">
         <g id="arrow_out" transform="scale(0.3 0.3)">
          <a xlink:href="SolverModule_8F90_a4de4792abefc1f58f85b334aa265a623_a4de4792abefc1f58f85b334aa265a623_cgraph_org.svg" target="_base">
           <rect id="button" ry="5" rx="5" y="6" x="6" height="38" width="38"
                fill="#f2f5e9" fill-opacity="0.5" stroke="#606060" stroke-width="1.0"/>
           <path id="arrow"
             d="M 11.500037,31.436501 C 11.940474,20.09759 22.043105,11.32322 32.158766,21.979434 L 37.068811,17.246167 C 37.068811,17.246167 37.088388,32 37.088388,32 L 22.160133,31.978069 C 22.160133,31.978069 26.997745,27.140456 26.997745,27.140456 C 18.528582,18.264221 13.291696,25.230495 11.500037,31.436501 z"
             style="fill:#404040;"/>
          </a>
         </g>
        </svg>
</svg>
