<?xml version="1.0" encoding="UTF-8" standalone="no"?>
<!DOCTYPE svg PUBLIC "-//W3C//DTD SVG 1.1//EN"
 "http://www.w3.org/Graphics/SVG/1.1/DTD/svg11.dtd">
<!-- Generated by graphviz version 2.30.1 (20150305.2338)
 -->
<!-- Title: main Pages: 1 -->
<!--zoomable 459 -->
<svg id="main" version="1.1" xmlns="http://www.w3.org/2000/svg" xmlns:xlink="http://www.w3.org/1999/xlink" xml:space="preserve" onload="init(evt)">
<style type="text/css"><![CDATA[
.edge:hover path { stroke: red; }
.edge:hover polygon { stroke: red; fill: red; }
]]></style>
<script type="text/javascript"><![CDATA[
var edges = document.getElementsByTagName('g');
if (edges && edges.length) {
  for (var i=0;i<edges.length;i++) {
    if (edges[i].id.substr(0,4)=='edge') {
      edges[i].setAttribute('class','edge');
    }
  }
}
]]></script>
        <defs>
                <circle id="rim" cx="0" cy="0" r="7"/>
                <circle id="rim2" cx="0" cy="0" r="3.5"/>
                <g id="zoomPlus">
                        <use xlink:href="#rim" fill="#404040">
                                <set attributeName="fill" to="#808080" begin="zoomplus.mouseover" end="zoomplus.mouseout"/>
                        </use>
                        <path d="M-4,0h8M0,-4v8" fill="none" stroke="white" stroke-width="1.5" pointer-events="none"/>
                </g>
                <g id="zoomMin">
                        <use xlink:href="#rim" fill="#404040">
                                <set attributeName="fill" to="#808080" begin="zoomminus.mouseover" end="zoomminus.mouseout"/>
                        </use>
                        <path d="M-4,0h8" fill="none" stroke="white" stroke-width="1.5" pointer-events="none"/>
                </g>
                <g id="dirArrow">
                        <path fill="none" stroke="white" stroke-width="1.5" d="M0,-3.0v7 M-2.5,-0.5L0,-3.0L2.5,-0.5"/>
                </g>
               <g id="resetDef">
                       <use xlink:href="#rim2" fill="#404040">
                               <set attributeName="fill" to="#808080" begin="reset.mouseover" end="reset.mouseout"/>
                       </use>
               </g>
        </defs>

<script type="text/javascript">
var viewWidth = 720;
var viewHeight = 459;
var sectionId = 'dynsection-0';
</script>
<script xlink:href="svgpan.js"/>
<svg id="graph" class="graph">
<g id="viewport">
<title>main</title>
<!-- Node1 -->
<g id="node1" class="node"><title>Node1</title>
<polygon fill="#bfbfbf" stroke="black" points="0,-208.5 0,-227.5 38,-227.5 38,-208.5 0,-208.5"/>
<text text-anchor="middle" x="19" y="-215.5" font-family="Helvetica,sans-Serif" font-size="10.00">main</text>
</g>
<!-- Node2 -->
<g id="node2" class="node"><title>Node2</title>
<g id="a_node2"><a xlink:href="namespaceCOM_ad2c6e118fa61fc0ead53e102bd072dfd.html#ad2c6e118fa61fc0ead53e102bd072dfd" target="_top" xlink:title="COM::parallelProgram">
<polygon fill="none" stroke="black" points="74.5,-208.5 74.5,-227.5 187.5,-227.5 187.5,-208.5 74.5,-208.5"/>
<text text-anchor="middle" x="131" y="-215.5" font-family="Helvetica,sans-Serif" font-size="10.00">COM::parallelProgram</text>
</a>
</g>
</g>
<!-- Node1&#45;&gt;Node2 -->
<g id="edge1" class="edge"><title>Node1&#45;&gt;Node2</title>
<path fill="none" stroke="midnightblue" d="M38.1643,-218C45.5917,-218 54.678,-218 64.2145,-218"/>
<polygon fill="midnightblue" stroke="midnightblue" points="64.2649,-221.5 74.2649,-218 64.2648,-214.5 64.2649,-221.5"/>
</g>
<!-- Node3 -->
<g id="node3" class="node"><title>Node3</title>
<g id="a_node3"><a xlink:href="classCOM_1_1SolverModuleDriver_a4b0330ef7d252401753fd73b9f754672.html#a4b0330ef7d252401753fd73b9f754672" target="_top" xlink:title="COM::SolverModuleDriver\l::setRank">
<polygon fill="none" stroke="black" points="234.5,-421 234.5,-451 365.5,-451 365.5,-421 234.5,-421"/>
<text text-anchor="start" x="242.5" y="-439" font-family="Helvetica,sans-Serif" font-size="10.00">COM::SolverModuleDriver</text>
<text text-anchor="middle" x="300" y="-428" font-family="Helvetica,sans-Serif" font-size="10.00">::setRank</text>
</a>
</g>
</g>
<!-- Node2&#45;&gt;Node3 -->
<g id="edge2" class="edge"><title>Node2&#45;&gt;Node3</title>
<path fill="none" stroke="midnightblue" d="M133.81,-227.632C140.182,-258.871 164.483,-358.392 224,-411 225.935,-412.71 227.99,-414.304 230.138,-415.789"/>
<polygon fill="midnightblue" stroke="midnightblue" points="228.445,-418.855 238.821,-420.997 232.045,-412.852 228.445,-418.855"/>
</g>
<!-- Node4 -->
<g id="node4" class="node"><title>Node4</title>
<g id="a_node4"><a xlink:href="classCOM_1_1SolverModuleDriver_a82d7f84c9a50192122d662f1f6900688.html#a82d7f84c9a50192122d662f1f6900688" target="_top" xlink:title="COM::SolverModuleDriver\l::isStreamer">
<polygon fill="none" stroke="black" points="234.5,-372 234.5,-402 365.5,-402 365.5,-372 234.5,-372"/>
<text text-anchor="start" x="242.5" y="-390" font-family="Helvetica,sans-Serif" font-size="10.00">COM::SolverModuleDriver</text>
<text text-anchor="middle" x="300" y="-379" font-family="Helvetica,sans-Serif" font-size="10.00">::isStreamer</text>
</a>
</g>
</g>
<!-- Node2&#45;&gt;Node4 -->
<g id="edge3" class="edge"><title>Node2&#45;&gt;Node4</title>
<path fill="none" stroke="midnightblue" d="M135.498,-227.658C145.306,-253.399 175.562,-324.251 224,-362 226.412,-363.88 228.973,-365.622 231.637,-367.236"/>
<polygon fill="midnightblue" stroke="midnightblue" points="229.981,-370.319 240.448,-371.966 233.293,-364.152 229.981,-370.319"/>
</g>
<!-- Node5 -->
<g id="node5" class="node"><title>Node5</title>
<g id="a_node5"><a xlink:href="classCOM_1_1SolverModuleDriver_a52e528485f5b06122ecc0eed6e4d30ce.html#a52e528485f5b06122ecc0eed6e4d30ce" target="_top" xlink:title="COM::SolverModuleDriver\l::setColor">
<polygon fill="none" stroke="black" points="234.5,-323 234.5,-353 365.5,-353 365.5,-323 234.5,-323"/>
<text text-anchor="start" x="242.5" y="-341" font-family="Helvetica,sans-Serif" font-size="10.00">COM::SolverModuleDriver</text>
<text text-anchor="middle" x="300" y="-330" font-family="Helvetica,sans-Serif" font-size="10.00">::setColor</text>
</a>
</g>
</g>
<!-- Node2&#45;&gt;Node5 -->
<g id="edge4" class="edge"><title>Node2&#45;&gt;Node5</title>
<path fill="none" stroke="midnightblue" d="M138.727,-227.55C152.561,-246.517 186.106,-289.158 224,-313 227.304,-315.079 230.799,-317.004 234.402,-318.784"/>
<polygon fill="midnightblue" stroke="midnightblue" points="232.981,-321.983 243.534,-322.916 235.866,-315.605 232.981,-321.983"/>
</g>
<!-- Node6 -->
<g id="node6" class="node"><title>Node6</title>
<g id="a_node6"><a xlink:href="classCOM_1_1SolverModuleDriver_a0d12bfc087ffe790b169cf5e83198a32.html#a0d12bfc087ffe790b169cf5e83198a32" target="_top" xlink:title="COM::SolverModuleDriver\l::setComm">
<polygon fill="none" stroke="black" points="234.5,-274 234.5,-304 365.5,-304 365.5,-274 234.5,-274"/>
<text text-anchor="start" x="242.5" y="-292" font-family="Helvetica,sans-Serif" font-size="10.00">COM::SolverModuleDriver</text>
<text text-anchor="middle" x="300" y="-281" font-family="Helvetica,sans-Serif" font-size="10.00">::setComm</text>
</a>
</g>
</g>
<!-- Node2&#45;&gt;Node6 -->
<g id="edge5" class="edge"><title>Node2&#45;&gt;Node6</title>
<path fill="none" stroke="midnightblue" d="M149.292,-227.574C167.531,-237.449 197.273,-252.929 224,-264 229.443,-266.254 235.169,-268.456 240.93,-270.558"/>
<polygon fill="midnightblue" stroke="midnightblue" points="240.02,-273.949 250.615,-273.995 242.361,-267.352 240.02,-273.949"/>
</g>
<!-- Node7 -->
<g id="node7" class="node"><title>Node7</title>
<g id="a_node7"><a xlink:href="classCOM_1_1SolverModuleDriver_a36fd5ba3a13672607f2159d56a9f9bf2.html#a36fd5ba3a13672607f2159d56a9f9bf2" target="_top" xlink:title="COM::SolverModuleDriver\l::init">
<polygon fill="none" stroke="black" points="234.5,-225 234.5,-255 365.5,-255 365.5,-225 234.5,-225"/>
<text text-anchor="start" x="242.5" y="-243" font-family="Helvetica,sans-Serif" font-size="10.00">COM::SolverModuleDriver</text>
<text text-anchor="middle" x="300" y="-232" font-family="Helvetica,sans-Serif" font-size="10.00">::init</text>
</a>
</g>
</g>
<!-- Node2&#45;&gt;Node7 -->
<g id="edge6" class="edge"><title>Node2&#45;&gt;Node7</title>
<path fill="none" stroke="midnightblue" d="M187.609,-225.326C199.321,-226.869 211.86,-228.52 224.147,-230.139"/>
<polygon fill="midnightblue" stroke="midnightblue" points="224.013,-233.652 234.385,-231.488 224.928,-226.712 224.013,-233.652"/>
</g>
<!-- Node9 -->
<g id="node9" class="node"><title>Node9</title>
<g id="a_node9"><a xlink:href="classCOM_1_1SolverModuleDriver_aa4865919edd847e77ad5324473c867a2.html#aa4865919edd847e77ad5324473c867a2" target="_top" xlink:title="COM::SolverModuleDriver\l::updateSolution">
<polygon fill="none" stroke="black" points="580.5,-136 580.5,-166 711.5,-166 711.5,-136 580.5,-136"/>
<text text-anchor="start" x="588.5" y="-154" font-family="Helvetica,sans-Serif" font-size="10.00">COM::SolverModuleDriver</text>
<text text-anchor="middle" x="646" y="-143" font-family="Helvetica,sans-Serif" font-size="10.00">::updateSolution</text>
</a>
</g>
</g>
<!-- Node2&#45;&gt;Node9 -->
<g id="edge8" class="edge"><title>Node2&#45;&gt;Node9</title>
<path fill="none" stroke="midnightblue" d="M187.877,-210.702C280.612,-198.591 466.365,-174.331 570.266,-160.761"/>
<polygon fill="midnightblue" stroke="midnightblue" points="570.905,-164.207 580.367,-159.441 569.998,-157.266 570.905,-164.207"/>
</g>
<!-- Node10 -->
<g id="node10" class="node"><title>Node10</title>
<g id="a_node10"><a xlink:href="classCOM_1_1SolverModuleDriver_a43175ff148904c0869215fea00585ba0.html#a43175ff148904c0869215fea00585ba0" target="_top" xlink:title="COM::SolverModuleDriver\l::isFSISim">
<polygon fill="none" stroke="black" points="234.5,-137 234.5,-167 365.5,-167 365.5,-137 234.5,-137"/>
<text text-anchor="start" x="242.5" y="-155" font-family="Helvetica,sans-Serif" font-size="10.00">COM::SolverModuleDriver</text>
<text text-anchor="middle" x="300" y="-144" font-family="Helvetica,sans-Serif" font-size="10.00">::isFSISim</text>
</a>
</g>
</g>
<!-- Node2&#45;&gt;Node10 -->
<g id="edge9" class="edge"><title>Node2&#45;&gt;Node10</title>
<path fill="none" stroke="midnightblue" d="M156.283,-208.403C181.124,-198.586 220.37,-183.075 251.425,-170.802"/>
<polygon fill="midnightblue" stroke="midnightblue" points="252.761,-174.038 260.774,-167.107 250.188,-167.528 252.761,-174.038"/>
</g>
<!-- Node11 -->
<g id="node11" class="node"><title>Node11</title>
<g id="a_node11"><a xlink:href="classCOM_1_1SolverModuleDriver_a6098c61bf72cbba4983a2bf602d2207f.html#a6098c61bf72cbba4983a2bf602d2207f" target="_top" xlink:title="COM::SolverModuleDriver\l::isChangeLoad">
<polygon fill="none" stroke="black" points="234.5,-88 234.5,-118 365.5,-118 365.5,-88 234.5,-88"/>
<text text-anchor="start" x="242.5" y="-106" font-family="Helvetica,sans-Serif" font-size="10.00">COM::SolverModuleDriver</text>
<text text-anchor="middle" x="300" y="-95" font-family="Helvetica,sans-Serif" font-size="10.00">::isChangeLoad</text>
</a>
</g>
</g>
<!-- Node2&#45;&gt;Node11 -->
<g id="edge10" class="edge"><title>Node2&#45;&gt;Node11</title>
<path fill="none" stroke="midnightblue" d="M139.236,-208.262C153.459,-189.782 186.919,-149.471 224,-127 226.806,-125.3 229.745,-123.707 232.768,-122.217"/>
<polygon fill="midnightblue" stroke="midnightblue" points="234.351,-125.343 242.036,-118.05 231.48,-118.958 234.351,-125.343"/>
</g>
<!-- Node12 -->
<g id="node12" class="node"><title>Node12</title>
<g id="a_node12"><a xlink:href="classCOM_1_1SolverModuleDriver_a58e8be2db2660128e4e6456a9c981fb5.html#a58e8be2db2660128e4e6456a9c981fb5" target="_top" xlink:title="COM::SolverModuleDriver::run">
<polygon fill="none" stroke="black" points="224.5,-49.5 224.5,-68.5 375.5,-68.5 375.5,-49.5 224.5,-49.5"/>
<text text-anchor="middle" x="300" y="-56.5" font-family="Helvetica,sans-Serif" font-size="10.00">COM::SolverModuleDriver::run</text>
</a>
</g>
</g>
<!-- Node2&#45;&gt;Node12 -->
<g id="edge11" class="edge"><title>Node2&#45;&gt;Node12</title>
<path fill="none" stroke="midnightblue" d="M135.431,-208.414C145.074,-182.903 174.958,-112.92 224,-78 226.735,-76.0522 229.652,-74.3037 232.688,-72.7341"/>
<polygon fill="midnightblue" stroke="midnightblue" points="234.385,-75.8098 242.093,-68.5414 231.534,-69.4163 234.385,-75.8098"/>
</g>
<!-- Node14 -->
<g id="node14" class="node"><title>Node14</title>
<g id="a_node14"><a xlink:href="classCOM_1_1SolverModuleDriver_a8a5d9e45fe83de57fd9597193f3b4533.html#a8a5d9e45fe83de57fd9597193f3b4533" target="_top" xlink:title="COM::SolverModuleDriver\l::finalize">
<polygon fill="none" stroke="black" points="234.5,-0 234.5,-30 365.5,-30 365.5,-0 234.5,-0"/>
<text text-anchor="start" x="242.5" y="-18" font-family="Helvetica,sans-Serif" font-size="10.00">COM::SolverModuleDriver</text>
<text text-anchor="middle" x="300" y="-7" font-family="Helvetica,sans-Serif" font-size="10.00">::finalize</text>
</a>
</g>
</g>
<!-- Node2&#45;&gt;Node14 -->
<g id="edge14" class="edge"><title>Node2&#45;&gt;Node14</title>
<path fill="none" stroke="midnightblue" d="M134.253,-208.282C141.645,-178.552 167.965,-87.9451 224,-40 225.962,-38.3213 228.04,-36.7544 230.208,-35.2918"/>
<polygon fill="midnightblue" stroke="midnightblue" points="232.104,-38.2375 238.95,-30.1523 228.556,-32.203 232.104,-38.2375"/>
</g>
<!-- Node8 -->
<g id="node8" class="node"><title>Node8</title>
<g id="a_node8"><a xlink:href="classCOM_1_1SolverModuleDriver_a20c52ceae4a26c2a523366ace5cab784.html#a20c52ceae4a26c2a523366ace5cab784" target="_top" xlink:title="COM::SolverModuleDriver\l::usage">
<polygon fill="none" stroke="black" points="412.5,-225 412.5,-255 543.5,-255 543.5,-225 412.5,-225"/>
<text text-anchor="start" x="420.5" y="-243" font-family="Helvetica,sans-Serif" font-size="10.00">COM::SolverModuleDriver</text>
<text text-anchor="middle" x="478" y="-232" font-family="Helvetica,sans-Serif" font-size="10.00">::usage</text>
</a>
</g>
</g>
<!-- Node7&#45;&gt;Node8 -->
<g id="edge7" class="edge"><title>Node7&#45;&gt;Node8</title>
<path fill="none" stroke="midnightblue" d="M365.537,-240C377.493,-240 390.073,-240 402.303,-240"/>
<polygon fill="midnightblue" stroke="midnightblue" points="402.471,-243.5 412.471,-240 402.471,-236.5 402.471,-243.5"/>
</g>
<!-- Node13 -->
<g id="node13" class="node"><title>Node13</title>
<g id="a_node13"><a xlink:href="classCOM_1_1SolverModuleDriver_aea42380c0ab504512101fe9a4beb3521.html#aea42380c0ab504512101fe9a4beb3521" target="_top" xlink:title="COM::SolverModuleDriver\l::vtkDump">
<polygon fill="none" stroke="black" points="412.5,-91 412.5,-121 543.5,-121 543.5,-91 412.5,-91"/>
<text text-anchor="start" x="420.5" y="-109" font-family="Helvetica,sans-Serif" font-size="10.00">COM::SolverModuleDriver</text>
<text text-anchor="middle" x="478" y="-98" font-family="Helvetica,sans-Serif" font-size="10.00">::vtkDump</text>
</a>
</g>
</g>
<!-- Node12&#45;&gt;Node13 -->
<g id="edge12" class="edge"><title>Node12&#45;&gt;Node13</title>
<path fill="none" stroke="midnightblue" d="M339.197,-68.5014C351.01,-71.4868 364.055,-74.8318 376,-78 388.213,-81.2393 401.231,-84.7814 413.719,-88.2236"/>
<polygon fill="midnightblue" stroke="midnightblue" points="413.024,-91.6627 423.595,-90.9551 414.89,-84.916 413.024,-91.6627"/>
</g>
<!-- Node13&#45;&gt;Node9 -->
<g id="edge13" class="edge"><title>Node13&#45;&gt;Node9</title>
<path fill="none" stroke="midnightblue" d="M534.737,-121.11C549.048,-124.989 564.575,-129.198 579.337,-133.2"/>
<polygon fill="midnightblue" stroke="midnightblue" points="578.842,-136.692 589.41,-135.93 580.674,-129.936 578.842,-136.692"/>
</g>
</g>
</svg>
        <g id="navigator" transform="translate(0 0)" fill="#404254">
                <rect fill="#f2f5e9" fill-opacity="0.5" stroke="#606060" stroke-width=".5" x="0" y="0" width="60" height="60"/>
                <use id="zoomplus" xlink:href="#zoomPlus" x="17" y="9" onmousedown="handleZoom(evt,'in')"/>
                <use id="zoomminus" xlink:href="#zoomMin" x="42" y="9" onmousedown="handleZoom(evt,'out')"/>
                <use id="reset" xlink:href="#resetDef" x="30" y="36" onmousedown="handleReset()"/>
                <g id="arrowUp" xlink:href="#dirArrow" transform="translate(30 24)" onmousedown="handlePan(0,-1)">
                  <use xlink:href="#rim" fill="#404040">
                        <set attributeName="fill" to="#808080" begin="arrowUp.mouseover" end="arrowUp.mouseout"/>
                  </use>
                  <path fill="none" stroke="white" stroke-width="1.5" d="M0,-3.0v7 M-2.5,-0.5L0,-3.0L2.5,-0.5"/>
                </g>
                <g id="arrowRight" xlink:href="#dirArrow" transform="rotate(90) translate(36 -43)" onmousedown="handlePan(1,0)">
                  <use xlink:href="#rim" fill="#404040">
                        <set attributeName="fill" to="#808080" begin="arrowRight.mouseover" end="arrowRight.mouseout"/>
                  </use>
                  <path fill="none" stroke="white" stroke-width="1.5" d="M0,-3.0v7 M-2.5,-0.5L0,-3.0L2.5,-0.5"/>
                </g>
                <g id="arrowDown" xlink:href="#dirArrow" transform="rotate(180) translate(-30 -48)" onmousedown="handlePan(0,1)">
                  <use xlink:href="#rim" fill="#404040">
                        <set attributeName="fill" to="#808080" begin="arrowDown.mouseover" end="arrowDown.mouseout"/>
                  </use>
                  <path fill="none" stroke="white" stroke-width="1.5" d="M0,-3.0v7 M-2.5,-0.5L0,-3.0L2.5,-0.5"/>
                </g>
                <g id="arrowLeft" xlink:href="#dirArrow" transform="rotate(270) translate(-36 17)" onmousedown="handlePan(-1,0)">
                  <use xlink:href="#rim" fill="#404040">
                        <set attributeName="fill" to="#808080" begin="arrowLeft.mouseover" end="arrowLeft.mouseout"/>
                  </use>
                  <path fill="none" stroke="white" stroke-width="1.5" d="M0,-3.0v7 M-2.5,-0.5L0,-3.0L2.5,-0.5"/>
                </g>
        </g>
        <svg viewBox="0 0 15 15" width="100%" height="30px" preserveAspectRatio="xMaxYMin meet">
         <g id="arrow_out" transform="scale(0.3 0.3)">
          <a xlink:href="SolverModuleDriverParallel_8C_a3c04138a5bfe5d72780bb7e82a18e627_a3c04138a5bfe5d72780bb7e82a18e627_cgraph_org.svg" target="_base">
           <rect id="button" ry="5" rx="5" y="6" x="6" height="38" width="38"
                fill="#f2f5e9" fill-opacity="0.5" stroke="#606060" stroke-width="1.0"/>
           <path id="arrow"
             d="M 11.500037,31.436501 C 11.940474,20.09759 22.043105,11.32322 32.158766,21.979434 L 37.068811,17.246167 C 37.068811,17.246167 37.088388,32 37.088388,32 L 22.160133,31.978069 C 22.160133,31.978069 26.997745,27.140456 26.997745,27.140456 C 18.528582,18.264221 13.291696,25.230495 11.500037,31.436501 z"
             style="fill:#404040;"/>
          </a>
         </g>
        </svg>
</svg>
