<?xml version="1.0" encoding="UTF-8" standalone="no"?>
<!DOCTYPE svg PUBLIC "-//W3C//DTD SVG 1.1//EN"
 "http://www.w3.org/Graphics/SVG/1.1/DTD/svg11.dtd">
<!-- Generated by graphviz version 2.26.0 (20091210.2329)
 -->
<!-- Title: updatedisplacements Pages: 1 -->
<svg width="354pt" height="30pt"
 viewBox="0.00 0.00 354.00 30.00" xmlns="http://www.w3.org/2000/svg" xmlns:xlink="http://www.w3.org/1999/xlink">
<g id="graph1" class="graph" transform="scale(1 1) rotate(0) translate(4 26)">
<title>updatedisplacements</title>
<!-- Node1 -->
<g id="node1" class="node"><title>Node1</title>
<polygon fill="#bfbfbf" stroke="black" points="0.5,-0.5 0.5,-21.5 109.5,-21.5 109.5,-0.5 0.5,-0.5"/>
<text text-anchor="middle" x="55" y="-8.5" font-family="Helvetica,sans-Serif" font-size="10.00">updatedisplacements</text>
</g>
<!-- Node2 -->
<g id="node3" class="node"><title>Node2</title>
<a xlink:href="SolverModule_8F90_a8b10c4eb645aab66861aa1220c4adae1.html#a8b10c4eb645aab66861aa1220c4adae1" target="_top" xlink:title="run">
<polygon fill="none" stroke="black" points="146,-0.5 146,-21.5 176,-21.5 176,-0.5 146,-0.5"/>
<text text-anchor="middle" x="161" y="-8.5" font-family="Helvetica,sans-Serif" font-size="10.00">run</text>
</a>
</g>
<!-- Node1&#45;&gt;Node2 -->
<g id="edge2" class="edge"><title>Node1&#45;&gt;Node2</title>
<path fill="none" stroke="midnightblue" d="M119.825,-11C129.545,-11 138.706,-11 145.908,-11"/>
<polygon fill="midnightblue" stroke="midnightblue" points="119.553,-7.5001 109.553,-11 119.553,-14.5001 119.553,-7.5001"/>
</g>
<!-- Node3 -->
<g id="node5" class="node"><title>Node3</title>
<a xlink:href="SolverModule_8F90_a2363fcb6699317c59c1f2f041ee860d2.html#a2363fcb6699317c59c1f2f041ee860d2" target="_top" xlink:title="solvermodule_load_module">
<polygon fill="none" stroke="black" points="212,-0.5 212,-21.5 346,-21.5 346,-0.5 212,-0.5"/>
<text text-anchor="middle" x="279" y="-8.5" font-family="Helvetica,sans-Serif" font-size="10.00">solvermodule_load_module</text>
</a>
</g>
<!-- Node2&#45;&gt;Node3 -->
<g id="edge4" class="edge"><title>Node2&#45;&gt;Node3</title>
<path fill="none" stroke="midnightblue" d="M186.433,-11C194.111,-11 202.926,-11 211.998,-11"/>
<polygon fill="midnightblue" stroke="midnightblue" points="186.426,-7.5001 176.426,-11 186.426,-14.5001 186.426,-7.5001"/>
</g>
</g>
</svg>
