<?xml version="1.0" encoding="UTF-8" standalone="no"?>
<!DOCTYPE svg PUBLIC "-//W3C//DTD SVG 1.1//EN"
 "http://www.w3.org/Graphics/SVG/1.1/DTD/svg11.dtd">
<!-- Generated by graphviz version 2.26.0 (20091210.2329)
 -->
<!-- Title: solvermodule_load_module Pages: 1 -->
<!--zoomable 318 -->
<svg id="main" version="1.1" xmlns="http://www.w3.org/2000/svg" xmlns:xlink="http://www.w3.org/1999/xlink" xml:space="preserve" onload="init(evt)">
<style type="text/css"><![CDATA[
.edge:hover path { stroke: red; }
.edge:hover polygon { stroke: red; fill: red; }
]]></style>
<script type="text/javascript"><![CDATA[
var edges = document.getElementsByTagName('g');
if (edges && edges.length) {
  for (var i=0;i<edges.length;i++) {
    if (edges[i].id.substr(0,4)=='edge') {
      edges[i].setAttribute('class','edge');
    }
  }
}
]]></script>
        <defs>
                <circle id="rim" cx="0" cy="0" r="7"/>
                <circle id="rim2" cx="0" cy="0" r="3.5"/>
                <g id="zoomPlus">
                        <use xlink:href="#rim" fill="#404040">
                                <set attributeName="fill" to="#808080" begin="zoomplus.mouseover" end="zoomplus.mouseout"/>
                        </use>
                        <path d="M-4,0h8M0,-4v8" fill="none" stroke="white" stroke-width="1.5" pointer-events="none"/>
                </g>
                <g id="zoomMin">
                        <use xlink:href="#rim" fill="#404040">
                                <set attributeName="fill" to="#808080" begin="zoomminus.mouseover" end="zoomminus.mouseout"/>
                        </use>
                        <path d="M-4,0h8" fill="none" stroke="white" stroke-width="1.5" pointer-events="none"/>
                </g>
                <g id="dirArrow">
                        <path fill="none" stroke="white" stroke-width="1.5" d="M0,-3.0v7 M-2.5,-0.5L0,-3.0L2.5,-0.5"/>
                </g>
               <g id="resetDef">
                       <use xlink:href="#rim2" fill="#404040">
                               <set attributeName="fill" to="#808080" begin="reset.mouseover" end="reset.mouseout"/>
                       </use>
               </g>
        </defs>

<script type="text/javascript">
var viewWidth = 854;
var viewHeight = 318;
var sectionId = 'dynsection-0';
</script>
<script xlink:href="svgpan.js"/>
<svg id="graph" class="graph">
<g id="viewport">
<title>solvermodule_load_module</title>
<!-- Node1 -->
<g id="node1" class="node"><title>Node1</title>
<polygon fill="#bfbfbf" stroke="black" points="0,-119.5 0,-140.5 134,-140.5 134,-119.5 0,-119.5"/>
<text text-anchor="middle" x="67" y="-127.5" font-family="Helvetica,sans-Serif" font-size="10.00">solvermodule_load_module</text>
</g>
<!-- Node2 -->
<g id="node3" class="node"><title>Node2</title>
<a xlink:href="classtestobject_af5ec27c31b17e62f8ebb91d2325ac962.html#af5ec27c31b17e62f8ebb91d2325ac962" target="_top" xlink:title="testobject::associate\l_pointer">
<polygon fill="none" stroke="black" points="170.5,-179 170.5,-213 277.5,-213 277.5,-179 170.5,-179"/>
<text text-anchor="start" x="178.5" y="-200" font-family="Helvetica,sans-Serif" font-size="10.00">testobject::associate</text>
<text text-anchor="middle" x="224" y="-187" font-family="Helvetica,sans-Serif" font-size="10.00">_pointer</text>
</a>
</g>
<!-- Node1&#45;&gt;Node2 -->
<g id="edge2" class="edge"><title>Node1&#45;&gt;Node2</title>
<path fill="none" stroke="midnightblue" d="M92.2248,-140.604C114.246,-149.861 146.857,-163.57 174.127,-175.034"/>
<polygon fill="midnightblue" stroke="midnightblue" points="172.949,-178.336 183.524,-178.985 175.662,-171.883 172.949,-178.336"/>
</g>
<!-- Node3 -->
<g id="node5" class="node"><title>Node3</title>
<a xlink:href="SolverModule_8F90_af3d36f75ef0281d05095a89df472fa2f.html#af3d36f75ef0281d05095a89df472fa2f" target="_top" xlink:title="finalize">
<polygon fill="none" stroke="black" points="200.5,-99.5 200.5,-120.5 247.5,-120.5 247.5,-99.5 200.5,-99.5"/>
<text text-anchor="middle" x="224" y="-107.5" font-family="Helvetica,sans-Serif" font-size="10.00">finalize</text>
</a>
</g>
<!-- Node1&#45;&gt;Node3 -->
<g id="edge4" class="edge"><title>Node1&#45;&gt;Node3</title>
<path fill="none" stroke="midnightblue" d="M134.038,-121.46C153.454,-118.987 173.827,-116.391 190.266,-114.297"/>
<polygon fill="midnightblue" stroke="midnightblue" points="190.973,-117.736 200.45,-113 190.088,-110.792 190.973,-117.736"/>
</g>
<!-- Node7 -->
<g id="node14" class="node"><title>Node7</title>
<a xlink:href="SolverModule_8F90_a4de4792abefc1f58f85b334aa265a623.html#a4de4792abefc1f58f85b334aa265a623" target="_top" xlink:title="A caller for the Elmer main program. ">
<polygon fill="none" stroke="black" points="196.5,-139.5 196.5,-160.5 251.5,-160.5 251.5,-139.5 196.5,-139.5"/>
<text text-anchor="middle" x="224" y="-147.5" font-family="Helvetica,sans-Serif" font-size="10.00">initializer</text>
</a>
</g>
<!-- Node1&#45;&gt;Node7 -->
<g id="edge14" class="edge"><title>Node1&#45;&gt;Node7</title>
<path fill="none" stroke="midnightblue" d="M134.038,-138.54C151.779,-140.8 170.32,-143.162 185.927,-145.15"/>
<polygon fill="midnightblue" stroke="midnightblue" points="185.856,-148.669 196.218,-146.461 186.741,-141.725 185.856,-148.669"/>
</g>
<!-- Node15 -->
<g id="node30" class="node"><title>Node15</title>
<a xlink:href="SolverModule_8F90_a8b10c4eb645aab66861aa1220c4adae1.html#a8b10c4eb645aab66861aa1220c4adae1" target="_top" xlink:title="run">
<polygon fill="none" stroke="black" points="209,-40.5 209,-61.5 239,-61.5 239,-40.5 209,-40.5"/>
<text text-anchor="middle" x="224" y="-48.5" font-family="Helvetica,sans-Serif" font-size="10.00">run</text>
</a>
</g>
<!-- Node1&#45;&gt;Node15 -->
<g id="edge30" class="edge"><title>Node1&#45;&gt;Node15</title>
<path fill="none" stroke="midnightblue" d="M88.1737,-119.346C117.176,-104.752 169.132,-78.6089 199.69,-63.2324"/>
<polygon fill="midnightblue" stroke="midnightblue" points="201.444,-66.2681 208.804,-58.6466 198.297,-60.0151 201.444,-66.2681"/>
</g>
<!-- Node4 -->
<g id="node7" class="node"><title>Node4</title>
<a xlink:href="MyFinalize_8F90_a8f0a6f152f814befec4a1a2e5752bd58.html#a8f0a6f152f814befec4a1a2e5752bd58" target="_top" xlink:title="ElmerLib Elmer library routines ">
<polygon fill="none" stroke="black" points="359.5,-99.5 359.5,-120.5 420.5,-120.5 420.5,-99.5 359.5,-99.5"/>
<text text-anchor="middle" x="390" y="-107.5" font-family="Helvetica,sans-Serif" font-size="10.00">myfinalize</text>
</a>
</g>
<!-- Node3&#45;&gt;Node4 -->
<g id="edge6" class="edge"><title>Node3&#45;&gt;Node4</title>
<path fill="none" stroke="midnightblue" d="M247.784,-110C274.202,-110 317.322,-110 349.166,-110"/>
<polygon fill="midnightblue" stroke="midnightblue" points="349.493,-113.5 359.493,-110 349.493,-106.5 349.493,-113.5"/>
</g>
<!-- Node5 -->
<g id="node9" class="node"><title>Node5</title>
<a xlink:href="classmymodule_a22c594fc74d4a28dc4fd20412caed9c5.html#a22c594fc74d4a28dc4fd20412caed9c5" target="_top" xlink:title="Saves current timestep to external files. ">
<polygon fill="none" stroke="black" points="538.5,-70.5 538.5,-91.5 657.5,-91.5 657.5,-70.5 538.5,-70.5"/>
<text text-anchor="middle" x="598" y="-78.5" font-family="Helvetica,sans-Serif" font-size="10.00">mymodule::savecurrent</text>
</a>
</g>
<!-- Node4&#45;&gt;Node5 -->
<g id="edge8" class="edge"><title>Node4&#45;&gt;Node5</title>
<path fill="none" stroke="midnightblue" d="M420.691,-105.721C448.89,-101.789 491.72,-95.8179 528.221,-90.7289"/>
<polygon fill="midnightblue" stroke="midnightblue" points="528.909,-94.1668 538.33,-89.3193 527.943,-87.2338 528.909,-94.1668"/>
</g>
<!-- Node6 -->
<g id="node11" class="node"><title>Node6</title>
<a xlink:href="classmymodule_aa4606faf69704584d197ae7ccfbf8068.html#aa4606faf69704584d197ae7ccfbf8068" target="_top" xlink:title="Saves results file to post processing file of ElmerPost format, if requested. ">
<polygon fill="none" stroke="black" points="730,-70.5 730,-91.5 846,-91.5 846,-70.5 730,-70.5"/>
<text text-anchor="middle" x="788" y="-78.5" font-family="Helvetica,sans-Serif" font-size="10.00">mymodule::savetopost</text>
</a>
</g>
<!-- Node4&#45;&gt;Node6 -->
<g id="edge12" class="edge"><title>Node4&#45;&gt;Node6</title>
<path fill="none" stroke="midnightblue" d="M420.772,-110.911C475.812,-112.135 594.657,-112.94 694,-101 707.729,-99.3499 722.42,-96.6722 736.012,-93.8051"/>
<polygon fill="midnightblue" stroke="midnightblue" points="737.134,-97.1426 746.157,-91.5895 735.64,-90.3037 737.134,-97.1426"/>
</g>
<!-- Node5&#45;&gt;Node6 -->
<g id="edge10" class="edge"><title>Node5&#45;&gt;Node6</title>
<path fill="none" stroke="midnightblue" d="M657.596,-81C677.333,-81 699.45,-81 719.783,-81"/>
<polygon fill="midnightblue" stroke="midnightblue" points="719.917,-84.5001 729.917,-81 719.917,-77.5001 719.917,-84.5001"/>
</g>
<!-- Node8 -->
<g id="node16" class="node"><title>Node8</title>
<a xlink:href="MyInitialize_8F90_a5efd0681c40e89427aed63760a3dd706.html#a5efd0681c40e89427aed63760a3dd706" target="_top" xlink:title="ElmerLib Elmer library routines ">
<polygon fill="none" stroke="black" points="357.5,-188.5 357.5,-209.5 422.5,-209.5 422.5,-188.5 357.5,-188.5"/>
<text text-anchor="middle" x="390" y="-196.5" font-family="Helvetica,sans-Serif" font-size="10.00">myinitialize</text>
</a>
</g>
<!-- Node7&#45;&gt;Node8 -->
<g id="edge16" class="edge"><title>Node7&#45;&gt;Node8</title>
<path fill="none" stroke="midnightblue" d="M251.785,-158.201C277.905,-165.912 317.379,-177.564 347.463,-186.444"/>
<polygon fill="midnightblue" stroke="midnightblue" points="346.691,-189.865 357.273,-189.34 348.673,-183.152 346.691,-189.865"/>
</g>
<!-- Node9 -->
<g id="node18" class="node"><title>Node9</title>
<a xlink:href="classmymodule_a365409624821229f0d7ab61da0d3c6ba.html#a365409624821229f0d7ab61da0d3c6ba" target="_top" xlink:title="Adds coordinate and time variables to the current mesh structure. ">
<polygon fill="none" stroke="black" points="502,-148.5 502,-169.5 694,-169.5 694,-148.5 502,-148.5"/>
<text text-anchor="middle" x="598" y="-156.5" font-family="Helvetica,sans-Serif" font-size="10.00">mymodule::addmeshcoordinatesandtime</text>
</a>
</g>
<!-- Node8&#45;&gt;Node9 -->
<g id="edge18" class="edge"><title>Node8&#45;&gt;Node9</title>
<path fill="none" stroke="midnightblue" d="M422.958,-192.662C452.486,-186.984 496.648,-178.491 533.226,-171.457"/>
<polygon fill="midnightblue" stroke="midnightblue" points="534.164,-174.84 543.323,-169.515 532.842,-167.966 534.164,-174.84"/>
</g>
<!-- Node10 -->
<g id="node20" class="node"><title>Node10</title>
<a xlink:href="classmymodule_a9fa4925b1884bc7bd5f9bb2cdddf2bbe.html#a9fa4925b1884bc7bd5f9bb2cdddf2bbe" target="_top" xlink:title="Adds flags for active solvers. ">
<polygon fill="none" stroke="black" points="540.5,-228.5 540.5,-249.5 655.5,-249.5 655.5,-228.5 540.5,-228.5"/>
<text text-anchor="middle" x="598" y="-236.5" font-family="Helvetica,sans-Serif" font-size="10.00">mymodule::addsolvers</text>
</a>
</g>
<!-- Node8&#45;&gt;Node10 -->
<g id="edge20" class="edge"><title>Node8&#45;&gt;Node10</title>
<path fill="none" stroke="midnightblue" d="M422.958,-205.338C452.486,-211.016 496.648,-219.509 533.226,-226.543"/>
<polygon fill="midnightblue" stroke="midnightblue" points="532.842,-230.034 543.323,-228.485 534.164,-223.16 532.842,-230.034"/>
</g>
<!-- Node11 -->
<g id="node22" class="node"><title>Node11</title>
<a xlink:href="classmymodule_ace41a25456bb516f0f9ee96e9eed55ed.html#ace41a25456bb516f0f9ee96e9eed55ed" target="_top" xlink:title="mymodule::addvtuoutputsolverhack">
<polygon fill="none" stroke="black" points="512.5,-188.5 512.5,-209.5 683.5,-209.5 683.5,-188.5 512.5,-188.5"/>
<text text-anchor="middle" x="598" y="-196.5" font-family="Helvetica,sans-Serif" font-size="10.00">mymodule::addvtuoutputsolverhack</text>
</a>
</g>
<!-- Node8&#45;&gt;Node11 -->
<g id="edge22" class="edge"><title>Node8&#45;&gt;Node11</title>
<path fill="none" stroke="midnightblue" d="M422.958,-199C444.477,-199 473.768,-199 502.232,-199"/>
<polygon fill="midnightblue" stroke="midnightblue" points="502.252,-202.5 512.252,-199 502.252,-195.5 502.252,-202.5"/>
</g>
<!-- Node12 -->
<g id="node24" class="node"><title>Node12</title>
<a xlink:href="classmymodule_aab23af2755a40587c4f194ab80091318.html#aab23af2755a40587c4f194ab80091318" target="_top" xlink:title="Sets initial conditions for the fields. ">
<polygon fill="none" stroke="black" points="524,-268.5 524,-289.5 672,-289.5 672,-268.5 524,-268.5"/>
<text text-anchor="middle" x="598" y="-276.5" font-family="Helvetica,sans-Serif" font-size="10.00">mymodule::setinitialconditions</text>
</a>
</g>
<!-- Node8&#45;&gt;Node12 -->
<g id="edge24" class="edge"><title>Node8&#45;&gt;Node12</title>
<path fill="none" stroke="midnightblue" d="M406.375,-209.721C427.595,-223.146 466.134,-245.965 502,-259 509.256,-261.637 516.955,-263.968 524.711,-266.018"/>
<polygon fill="midnightblue" stroke="midnightblue" points="523.987,-269.444 534.536,-268.466 525.679,-262.652 523.987,-269.444"/>
</g>
<!-- Node13 -->
<g id="node26" class="node"><title>Node13</title>
<a xlink:href="classmymodule_a35170c044edf9e26057c957be782d749.html#a35170c044edf9e26057c957be782d749" target="_top" xlink:title="Check if we are restarting are if yes, read in field values. ">
<polygon fill="none" stroke="black" points="740.5,-248.5 740.5,-269.5 835.5,-269.5 835.5,-248.5 740.5,-248.5"/>
<text text-anchor="middle" x="788" y="-256.5" font-family="Helvetica,sans-Serif" font-size="10.00">mymodule::restart</text>
</a>
</g>
<!-- Node12&#45;&gt;Node13 -->
<g id="edge26" class="edge"><title>Node12&#45;&gt;Node13</title>
<path fill="none" stroke="midnightblue" d="M672.003,-271.21C691.432,-269.165 712.095,-266.99 730.516,-265.051"/>
<polygon fill="midnightblue" stroke="midnightblue" points="730.919,-268.528 740.497,-264 730.186,-261.566 730.919,-268.528"/>
</g>
<!-- Node14 -->
<g id="node28" class="node"><title>Node14</title>
<a xlink:href="classmymodule_af55e87fced73725324f9022ee5612521.html#af55e87fced73725324f9022ee5612521" target="_top" xlink:title="mymodule::initcond">
<polygon fill="none" stroke="black" points="737.5,-288.5 737.5,-309.5 838.5,-309.5 838.5,-288.5 737.5,-288.5"/>
<text text-anchor="middle" x="788" y="-296.5" font-family="Helvetica,sans-Serif" font-size="10.00">mymodule::initcond</text>
</a>
</g>
<!-- Node12&#45;&gt;Node14 -->
<g id="edge28" class="edge"><title>Node12&#45;&gt;Node14</title>
<path fill="none" stroke="midnightblue" d="M672.003,-286.79C690.294,-288.715 709.679,-290.756 727.257,-292.606"/>
<polygon fill="midnightblue" stroke="midnightblue" points="727.064,-296.105 737.376,-293.671 727.797,-289.143 727.064,-296.105"/>
</g>
<!-- Node16 -->
<g id="node32" class="node"><title>Node16</title>
<a xlink:href="classmytimemodule_a89480aff5c9d8dca59ec62b1ae353219.html#a89480aff5c9d8dca59ec62b1ae353219" target="_top" xlink:title="mytimemodule::mytimestepper">
<polygon fill="none" stroke="black" points="314.5,-40.5 314.5,-61.5 465.5,-61.5 465.5,-40.5 314.5,-40.5"/>
<text text-anchor="middle" x="390" y="-48.5" font-family="Helvetica,sans-Serif" font-size="10.00">mytimemodule::mytimestepper</text>
</a>
</g>
<!-- Node15&#45;&gt;Node16 -->
<g id="edge32" class="edge"><title>Node15&#45;&gt;Node16</title>
<path fill="none" stroke="midnightblue" d="M239.024,-51C254.243,-51 279.067,-51 304.231,-51"/>
<polygon fill="midnightblue" stroke="midnightblue" points="304.249,-54.5001 314.249,-51 304.249,-47.5001 304.249,-54.5001"/>
</g>
<!-- Node18 -->
<g id="node38" class="node"><title>Node18</title>
<a xlink:href="SolverModule_8F90_ac6c99ca7368bb6db20d3a6df1f442f49.html#ac6c99ca7368bb6db20d3a6df1f442f49" target="_top" xlink:title="updatedisplacements">
<polygon fill="none" stroke="black" points="335.5,-0.5 335.5,-21.5 444.5,-21.5 444.5,-0.5 335.5,-0.5"/>
<text text-anchor="middle" x="390" y="-8.5" font-family="Helvetica,sans-Serif" font-size="10.00">updatedisplacements</text>
</a>
</g>
<!-- Node15&#45;&gt;Node18 -->
<g id="edge40" class="edge"><title>Node15&#45;&gt;Node18</title>
<path fill="none" stroke="midnightblue" d="M239.024,-47.3797C260.816,-42.1287 302.303,-32.1319 336.281,-23.9444"/>
<polygon fill="midnightblue" stroke="midnightblue" points="337.195,-27.3243 346.097,-21.579 335.555,-20.5191 337.195,-27.3243"/>
</g>
<!-- Node16&#45;&gt;Node5 -->
<g id="edge38" class="edge"><title>Node16&#45;&gt;Node5</title>
<path fill="none" stroke="midnightblue" d="M463.041,-61.5347C484.166,-64.5816 507.166,-67.8989 528.095,-70.9175"/>
<polygon fill="midnightblue" stroke="midnightblue" points="527.788,-74.4094 538.185,-72.3729 528.788,-67.4811 527.788,-74.4094"/>
</g>
<!-- Node16&#45;&gt;Node6 -->
<g id="edge36" class="edge"><title>Node16&#45;&gt;Node6</title>
<path fill="none" stroke="midnightblue" d="M430.653,-40.4113C442.094,-37.4015 454.542,-34.099 466,-31 482.03,-26.6646 485.546,-23.2428 502,-21 586.551,-9.47493 612.086,2.91449 694,-21 722.429,-29.2997 750.446,-49.1035 768.392,-63.6999"/>
<polygon fill="midnightblue" stroke="midnightblue" points="766.44,-66.6303 776.351,-70.3738 770.938,-61.2665 766.44,-66.6303"/>
</g>
<!-- Node17 -->
<g id="node34" class="node"><title>Node17</title>
<a xlink:href="classmytimemodule_ac02e054b725f683bf66b8d664a323d2d.html#ac02e054b725f683bf66b8d664a323d2d" target="_top" xlink:title="mytimemodule::updateloads">
<polygon fill="none" stroke="black" points="528.5,-30.5 528.5,-51.5 667.5,-51.5 667.5,-30.5 528.5,-30.5"/>
<text text-anchor="middle" x="598" y="-38.5" font-family="Helvetica,sans-Serif" font-size="10.00">mytimemodule::updateloads</text>
</a>
</g>
<!-- Node16&#45;&gt;Node17 -->
<g id="edge34" class="edge"><title>Node16&#45;&gt;Node17</title>
<path fill="none" stroke="midnightblue" d="M465.681,-47.3615C482.771,-46.5399 500.965,-45.6652 518.217,-44.8357"/>
<polygon fill="midnightblue" stroke="midnightblue" points="518.431,-48.3296 528.251,-44.3533 518.094,-41.3377 518.431,-48.3296"/>
</g>
</g>
</svg>
        <g id="navigator" transform="translate(0 0)" fill="#404254">
                <rect fill="#f2f5e9" fill-opacity="0.5" stroke="#606060" stroke-width=".5" x="0" y="0" width="60" height="60"/>
                <use id="zoomplus" xlink:href="#zoomPlus" x="17" y="9" onmousedown="handleZoom(evt,'in')"/>
                <use id="zoomminus" xlink:href="#zoomMin" x="42" y="9" onmousedown="handleZoom(evt,'out')"/>
                <use id="reset" xlink:href="#resetDef" x="30" y="36" onmousedown="handleReset()"/>
                <g id="arrowUp" xlink:href="#dirArrow" transform="translate(30 24)" onmousedown="handlePan(0,-1)">
                  <use xlink:href="#rim" fill="#404040">
                        <set attributeName="fill" to="#808080" begin="arrowUp.mouseover" end="arrowUp.mouseout"/>
                  </use>
                  <path fill="none" stroke="white" stroke-width="1.5" d="M0,-3.0v7 M-2.5,-0.5L0,-3.0L2.5,-0.5"/>
                </g>
                <g id="arrowRight" xlink:href="#dirArrow" transform="rotate(90) translate(36 -43)" onmousedown="handlePan(1,0)">
                  <use xlink:href="#rim" fill="#404040">
                        <set attributeName="fill" to="#808080" begin="arrowRight.mouseover" end="arrowRight.mouseout"/>
                  </use>
                  <path fill="none" stroke="white" stroke-width="1.5" d="M0,-3.0v7 M-2.5,-0.5L0,-3.0L2.5,-0.5"/>
                </g>
                <g id="arrowDown" xlink:href="#dirArrow" transform="rotate(180) translate(-30 -48)" onmousedown="handlePan(0,1)">
                  <use xlink:href="#rim" fill="#404040">
                        <set attributeName="fill" to="#808080" begin="arrowDown.mouseover" end="arrowDown.mouseout"/>
                  </use>
                  <path fill="none" stroke="white" stroke-width="1.5" d="M0,-3.0v7 M-2.5,-0.5L0,-3.0L2.5,-0.5"/>
                </g>
                <g id="arrowLeft" xlink:href="#dirArrow" transform="rotate(270) translate(-36 17)" onmousedown="handlePan(-1,0)">
                  <use xlink:href="#rim" fill="#404040">
                        <set attributeName="fill" to="#808080" begin="arrowLeft.mouseover" end="arrowLeft.mouseout"/>
                  </use>
                  <path fill="none" stroke="white" stroke-width="1.5" d="M0,-3.0v7 M-2.5,-0.5L0,-3.0L2.5,-0.5"/>
                </g>
        </g>
        <svg viewBox="0 0 15 15" width="100%" height="30px" preserveAspectRatio="xMaxYMin meet">
         <g id="arrow_out" transform="scale(0.3 0.3)">
          <a xlink:href="SolverModule_8F90_a2363fcb6699317c59c1f2f041ee860d2_a2363fcb6699317c59c1f2f041ee860d2_cgraph_org.svg" target="_base">
           <rect id="button" ry="5" rx="5" y="6" x="6" height="38" width="38"
                fill="#f2f5e9" fill-opacity="0.5" stroke="#606060" stroke-width="1.0"/>
           <path id="arrow"
             d="M 11.500037,31.436501 C 11.940474,20.09759 22.043105,11.32322 32.158766,21.979434 L 37.068811,17.246167 C 37.068811,17.246167 37.088388,32 37.088388,32 L 22.160133,31.978069 C 22.160133,31.978069 26.997745,27.140456 26.997745,27.140456 C 18.528582,18.264221 13.291696,25.230495 11.500037,31.436501 z"
             style="fill:#404040;"/>
          </a>
         </g>
        </svg>
</svg>
