<?xml version="1.0" encoding="UTF-8" standalone="no"?>
<!DOCTYPE svg PUBLIC "-//W3C//DTD SVG 1.1//EN"
 "http://www.w3.org/Graphics/SVG/1.1/DTD/svg11.dtd">
<!-- Generated by graphviz version 2.30.1 (20150305.2338)
 -->
<!-- Title: main Pages: 1 -->
<svg width="706pt" height="268pt"
 viewBox="0.00 0.00 706.00 268.00" xmlns="http://www.w3.org/2000/svg" xmlns:xlink="http://www.w3.org/1999/xlink">
<g id="graph0" class="graph" transform="scale(1 1) rotate(0) translate(4 264)">
<title>main</title>
<!-- Node1 -->
<g id="node1" class="node"><title>Node1</title>
<polygon fill="#bfbfbf" stroke="black" points="0,-120.5 0,-139.5 38,-139.5 38,-120.5 0,-120.5"/>
<text text-anchor="middle" x="19" y="-127.5" font-family="Helvetica,sans-Serif" font-size="10.00">main</text>
</g>
<!-- Node2 -->
<g id="node2" class="node"><title>Node2</title>
<g id="a_node2"><a xlink:href="namespaceElmerFoamFSI_aa2359350d020cad5cca93309e5531e19.html#aa2359350d020cad5cca93309e5531e19" target="_top" xlink:title="Creates a new project from an ElmerFoamFSI base. ">
<polygon fill="none" stroke="black" points="74.5,-120.5 74.5,-139.5 217.5,-139.5 217.5,-120.5 74.5,-120.5"/>
<text text-anchor="middle" x="146" y="-127.5" font-family="Helvetica,sans-Serif" font-size="10.00">ElmerFoamFSI::MakeProject</text>
</a>
</g>
</g>
<!-- Node1&#45;&gt;Node2 -->
<g id="edge1" class="edge"><title>Node1&#45;&gt;Node2</title>
<path fill="none" stroke="midnightblue" d="M38.1761,-130C45.5133,-130 54.5296,-130 64.1856,-130"/>
<polygon fill="midnightblue" stroke="midnightblue" points="64.4362,-133.5 74.4362,-130 64.4362,-126.5 64.4362,-133.5"/>
</g>
<!-- Node3 -->
<g id="node3" class="node"><title>Node3</title>
<g id="a_node3"><a xlink:href="namespaceIRAD_1_1Sys_a64439af6e8939be5517df918e2ecea36.html#a64439af6e8939be5517df918e2ecea36" target="_top" xlink:title="IRAD::Sys::FILEEXISTS">
<polygon fill="none" stroke="black" points="260,-240.5 260,-259.5 388,-259.5 388,-240.5 260,-240.5"/>
<text text-anchor="middle" x="324" y="-247.5" font-family="Helvetica,sans-Serif" font-size="10.00">IRAD::Sys::FILEEXISTS</text>
</a>
</g>
</g>
<!-- Node2&#45;&gt;Node3 -->
<g id="edge2" class="edge"><title>Node2&#45;&gt;Node3</title>
<path fill="none" stroke="midnightblue" d="M154.442,-139.688C170.423,-159.813 210.145,-206.318 254,-231 257.944,-233.22 262.162,-235.192 266.497,-236.943"/>
<polygon fill="midnightblue" stroke="midnightblue" points="265.517,-240.311 276.111,-240.432 267.905,-233.731 265.517,-240.311"/>
</g>
<!-- Node4 -->
<g id="node4" class="node"><title>Node4</title>
<g id="a_node4"><a xlink:href="namespaceIRAD_1_1Sys_a907ccb4be0eba55b76775c69712059ad.html#a907ccb4be0eba55b76775c69712059ad" target="_top" xlink:title="IRAD::Sys::CreateDirectory">
<polygon fill="none" stroke="black" points="254,-202.5 254,-221.5 394,-221.5 394,-202.5 254,-202.5"/>
<text text-anchor="middle" x="324" y="-209.5" font-family="Helvetica,sans-Serif" font-size="10.00">IRAD::Sys::CreateDirectory</text>
</a>
</g>
</g>
<!-- Node2&#45;&gt;Node4 -->
<g id="edge3" class="edge"><title>Node2&#45;&gt;Node4</title>
<path fill="none" stroke="midnightblue" d="M160.573,-139.588C180.31,-153.15 218.465,-177.959 254,-193 259.707,-195.416 265.809,-197.611 271.936,-199.581"/>
<polygon fill="midnightblue" stroke="midnightblue" points="270.945,-202.938 281.531,-202.489 272.976,-196.239 270.945,-202.938"/>
</g>
<!-- Node5 -->
<g id="node5" class="node"><title>Node5</title>
<g id="a_node5"><a xlink:href="namespaceIRAD_1_1Sys_ada7f1d70ac61c1da4eee75cc2f686567.html#ada7f1d70ac61c1da4eee75cc2f686567" target="_top" xlink:title="IRAD::Sys::Rename">
<polygon fill="none" stroke="black" points="270.5,-164.5 270.5,-183.5 377.5,-183.5 377.5,-164.5 270.5,-164.5"/>
<text text-anchor="middle" x="324" y="-171.5" font-family="Helvetica,sans-Serif" font-size="10.00">IRAD::Sys::Rename</text>
</a>
</g>
</g>
<!-- Node2&#45;&gt;Node5 -->
<g id="edge4" class="edge"><title>Node2&#45;&gt;Node5</title>
<path fill="none" stroke="midnightblue" d="M185.189,-139.547C211.482,-146.12 246.619,-154.905 274.833,-161.958"/>
<polygon fill="midnightblue" stroke="midnightblue" points="274.335,-165.441 284.885,-164.471 276.033,-158.65 274.335,-165.441"/>
</g>
<!-- Node6 -->
<g id="node6" class="node"><title>Node6</title>
<g id="a_node6"><a xlink:href="classIRAD_1_1Sys_1_1InProcess_a3f481172d730dc4f700fa60da15da03e.html#a3f481172d730dc4f700fa60da15da03e" target="_top" xlink:title="IRAD::Sys::InProcess\l::Execute">
<polygon fill="none" stroke="black" points="266.5,-115 266.5,-145 381.5,-145 381.5,-115 266.5,-115"/>
<text text-anchor="start" x="274.5" y="-133" font-family="Helvetica,sans-Serif" font-size="10.00">IRAD::Sys::InProcess</text>
<text text-anchor="middle" x="324" y="-122" font-family="Helvetica,sans-Serif" font-size="10.00">::Execute</text>
</a>
</g>
</g>
<!-- Node2&#45;&gt;Node6 -->
<g id="edge5" class="edge"><title>Node2&#45;&gt;Node6</title>
<path fill="none" stroke="midnightblue" d="M217.572,-130C230.4,-130 243.743,-130 256.451,-130"/>
<polygon fill="midnightblue" stroke="midnightblue" points="256.484,-133.5 266.484,-130 256.484,-126.5 256.484,-133.5"/>
</g>
<!-- Node10 -->
<g id="node10" class="node"><title>Node10</title>
<g id="a_node10"><a xlink:href="namespaceIRAD_1_1Sys_a7fedc8245d345e74b2b491b733b9fa73.html#a7fedc8245d345e74b2b491b733b9fa73" target="_top" xlink:title="IRAD::Sys::Remove">
<polygon fill="none" stroke="black" points="270.5,-76.5 270.5,-95.5 377.5,-95.5 377.5,-76.5 270.5,-76.5"/>
<text text-anchor="middle" x="324" y="-83.5" font-family="Helvetica,sans-Serif" font-size="10.00">IRAD::Sys::Remove</text>
</a>
</g>
</g>
<!-- Node2&#45;&gt;Node10 -->
<g id="edge9" class="edge"><title>Node2&#45;&gt;Node10</title>
<path fill="none" stroke="midnightblue" d="M185.189,-120.453C211.482,-113.88 246.619,-105.095 274.833,-98.0417"/>
<polygon fill="midnightblue" stroke="midnightblue" points="276.033,-101.35 284.885,-95.5287 274.335,-94.5586 276.033,-101.35"/>
</g>
<!-- Node11 -->
<g id="node11" class="node"><title>Node11</title>
<g id="a_node11"><a xlink:href="namespaceIRAD_1_1Sys_afe7cbdace3dec046da8a36d08578610d.html#afe7cbdace3dec046da8a36d08578610d" target="_top" xlink:title="IRAD::Sys::ChDir">
<polygon fill="none" stroke="black" points="276,-38.5 276,-57.5 372,-57.5 372,-38.5 276,-38.5"/>
<text text-anchor="middle" x="324" y="-45.5" font-family="Helvetica,sans-Serif" font-size="10.00">IRAD::Sys::ChDir</text>
</a>
</g>
</g>
<!-- Node2&#45;&gt;Node11 -->
<g id="edge10" class="edge"><title>Node2&#45;&gt;Node11</title>
<path fill="none" stroke="midnightblue" d="M160.573,-120.412C180.31,-106.85 218.465,-82.0415 254,-67 259.707,-64.5844 265.809,-62.3889 271.936,-60.4193"/>
<polygon fill="midnightblue" stroke="midnightblue" points="272.976,-63.7614 281.531,-57.5112 270.945,-57.0623 272.976,-63.7614"/>
</g>
<!-- Node12 -->
<g id="node12" class="node"><title>Node12</title>
<g id="a_node12"><a xlink:href="namespaceElmerFoamFSI_a3261e5acb7e570cd0f7988a29b3002a8.html#a3261e5acb7e570cd0f7988a29b3002a8" target="_top" xlink:title="Exclude certain template files from conversion in project creation. ">
<polygon fill="none" stroke="black" points="259.5,-0.5 259.5,-19.5 388.5,-19.5 388.5,-0.5 259.5,-0.5"/>
<text text-anchor="middle" x="324" y="-7.5" font-family="Helvetica,sans-Serif" font-size="10.00">ElmerFoamFSI::Excluded</text>
</a>
</g>
</g>
<!-- Node2&#45;&gt;Node12 -->
<g id="edge11" class="edge"><title>Node2&#45;&gt;Node12</title>
<path fill="none" stroke="midnightblue" d="M154.442,-120.312C170.423,-100.187 210.145,-53.6824 254,-29 257.944,-26.7804 262.162,-24.8078 266.497,-23.0568"/>
<polygon fill="midnightblue" stroke="midnightblue" points="267.905,-26.2692 276.111,-19.5678 265.517,-19.689 267.905,-26.2692"/>
</g>
<!-- Node7 -->
<g id="node7" class="node"><title>Node7</title>
<g id="a_node7"><a xlink:href="classIRAD_1_1Sys_1_1fdistream_a9c75c18093415e5ee6ed0db880234d50.html#a9c75c18093415e5ee6ed0db880234d50" target="_top" xlink:title="IRAD::Sys::fdistream\l::Init">
<polygon fill="none" stroke="black" points="430.5,-115 430.5,-145 541.5,-145 541.5,-115 430.5,-115"/>
<text text-anchor="start" x="438.5" y="-133" font-family="Helvetica,sans-Serif" font-size="10.00">IRAD::Sys::fdistream</text>
<text text-anchor="middle" x="486" y="-122" font-family="Helvetica,sans-Serif" font-size="10.00">::Init</text>
</a>
</g>
</g>
<!-- Node6&#45;&gt;Node7 -->
<g id="edge6" class="edge"><title>Node6&#45;&gt;Node7</title>
<path fill="none" stroke="midnightblue" d="M381.861,-130C394.334,-130 407.63,-130 420.383,-130"/>
<polygon fill="midnightblue" stroke="midnightblue" points="420.468,-133.5 430.468,-130 420.468,-126.5 420.468,-133.5"/>
</g>
<!-- Node8 -->
<g id="node8" class="node"><title>Node8</title>
<g id="a_node8"><a xlink:href="classIRAD_1_1Sys_1_1fdinbuf_ae47b2b2bde19d7cc697daca696c971fa.html#ae47b2b2bde19d7cc697daca696c971fa" target="_top" xlink:title="IRAD::Sys::fdinbuf\l::Init">
<polygon fill="none" stroke="black" points="588,-137 588,-167 688,-167 688,-137 588,-137"/>
<text text-anchor="start" x="596" y="-155" font-family="Helvetica,sans-Serif" font-size="10.00">IRAD::Sys::fdinbuf</text>
<text text-anchor="middle" x="638" y="-144" font-family="Helvetica,sans-Serif" font-size="10.00">::Init</text>
</a>
</g>
</g>
<!-- Node7&#45;&gt;Node8 -->
<g id="edge7" class="edge"><title>Node7&#45;&gt;Node8</title>
<path fill="none" stroke="midnightblue" d="M541.578,-138.005C553.24,-139.715 565.615,-141.53 577.453,-143.266"/>
<polygon fill="midnightblue" stroke="midnightblue" points="577.284,-146.779 587.686,-144.767 578.3,-139.853 577.284,-146.779"/>
</g>
<!-- Node9 -->
<g id="node9" class="node"><title>Node9</title>
<g id="a_node9"><a xlink:href="classIRAD_1_1Sys_1_1fdinbuf_ae35946314ac7f20fe7fcb3dc4c4185fc.html#ae35946314ac7f20fe7fcb3dc4c4185fc" target="_top" xlink:title="IRAD::Sys::fdinbuf::FD">
<polygon fill="none" stroke="black" points="578.5,-98.5 578.5,-117.5 697.5,-117.5 697.5,-98.5 578.5,-98.5"/>
<text text-anchor="middle" x="638" y="-105.5" font-family="Helvetica,sans-Serif" font-size="10.00">IRAD::Sys::fdinbuf::FD</text>
</a>
</g>
</g>
<!-- Node7&#45;&gt;Node9 -->
<g id="edge8" class="edge"><title>Node7&#45;&gt;Node9</title>
<path fill="none" stroke="midnightblue" d="M541.578,-121.995C550.281,-120.719 559.381,-119.384 568.359,-118.067"/>
<polygon fill="midnightblue" stroke="midnightblue" points="569.03,-121.506 578.416,-116.592 568.014,-114.581 569.03,-121.506"/>
</g>
</g>
</svg>
