<?xml version="1.0" encoding="UTF-8" standalone="no"?>
<!DOCTYPE svg PUBLIC "-//W3C//DTD SVG 1.1//EN"
 "http://www.w3.org/Graphics/SVG/1.1/DTD/svg11.dtd">
<!-- Generated by graphviz version 2.30.1 (20150305.2338)
 -->
<!-- Title: scalability_stats Pages: 1 -->
<svg width="230pt" height="232pt"
 viewBox="0.00 0.00 230.00 232.00" xmlns="http://www.w3.org/2000/svg" xmlns:xlink="http://www.w3.org/1999/xlink">
<g id="graph0" class="graph" transform="scale(1 1) rotate(0) translate(4 228)">
<title>scalability_stats</title>
<!-- Node1 -->
<g id="node1" class="node"><title>Node1</title>
<polygon fill="#bfbfbf" stroke="black" points="81.5,-0.5 81.5,-19.5 168.5,-19.5 168.5,-0.5 81.5,-0.5"/>
<text text-anchor="middle" x="125" y="-7.5" font-family="Helvetica,sans-Serif" font-size="10.00">scalability_stats</text>
</g>
<!-- Node2 -->
<g id="node2" class="node"><title>Node2</title>
<polygon fill="none" stroke="#bfbfbf" points="0,-68.5 0,-87.5 114,-87.5 114,-68.5 0,-68.5"/>
<text text-anchor="middle" x="57" y="-75.5" font-family="Helvetica,sans-Serif" font-size="10.00">vector&lt; unsigned int &gt;</text>
</g>
<!-- Node2&#45;&gt;Node1 -->
<g id="edge1" class="edge"><title>Node2&#45;&gt;Node1</title>
<path fill="none" stroke="#9a32cd" stroke-dasharray="5,2" d="M73.436,-61.0474C86.7643,-48.1111 105.057,-30.3567 115.891,-19.8411"/>
<polygon fill="#9a32cd" stroke="#9a32cd" points="70.628,-58.8953 65.8898,-68.3717 75.5033,-63.9184 70.628,-58.8953"/>
<text text-anchor="middle" x="114.5" y="-41.5" font-family="Helvetica,sans-Serif" font-size="10.00"> nprocs</text>
</g>
<!-- Node3 -->
<g id="node3" class="node"><title>Node3</title>
<g id="a_node3"><a xlink:title="STL class. ">
<polygon fill="none" stroke="#bfbfbf" points="77,-136.5 77,-155.5 145,-155.5 145,-136.5 77,-136.5"/>
<text text-anchor="middle" x="111" y="-143.5" font-family="Helvetica,sans-Serif" font-size="10.00">vector&lt; T &gt;</text>
</a>
</g>
</g>
<!-- Node3&#45;&gt;Node2 -->
<g id="edge2" class="edge"><title>Node3&#45;&gt;Node2</title>
<path fill="none" stroke="orange" stroke-dasharray="5,2" d="M87.9835,-130.428C83.2988,-126.761 78.6837,-122.557 75,-118 67.5927,-108.837 62.4722,-96.1289 59.6373,-87.7418"/>
<polygon fill="orange" stroke="orange" points="86.142,-133.415 96.3049,-136.409 90.2274,-127.73 86.142,-133.415"/>
<text text-anchor="middle" x="112" y="-109.5" font-family="Helvetica,sans-Serif" font-size="10.00"> &lt; unsigned int &gt;</text>
</g>
<!-- Node5 -->
<g id="node5" class="node"><title>Node5</title>
<polygon fill="none" stroke="#bfbfbf" points="132,-68.5 132,-87.5 222,-87.5 222,-68.5 132,-68.5"/>
<text text-anchor="middle" x="177" y="-75.5" font-family="Helvetica,sans-Serif" font-size="10.00">vector&lt; double &gt;</text>
</g>
<!-- Node3&#45;&gt;Node5 -->
<g id="edge5" class="edge"><title>Node3&#45;&gt;Node5</title>
<path fill="none" stroke="orange" stroke-dasharray="5,2" d="M134.046,-130.473C139.229,-126.715 144.516,-122.462 149,-118 158.335,-108.711 166.813,-96.0319 171.936,-87.6861"/>
<polygon fill="orange" stroke="orange" points="131.85,-127.734 125.582,-136.276 135.809,-133.507 131.85,-127.734"/>
<text text-anchor="middle" x="184" y="-109.5" font-family="Helvetica,sans-Serif" font-size="10.00"> &lt; double &gt;</text>
</g>
<!-- Node4 -->
<g id="node4" class="node"><title>Node4</title>
<polygon fill="none" stroke="#bfbfbf" points="96.5,-204.5 96.5,-223.5 125.5,-223.5 125.5,-204.5 96.5,-204.5"/>
<text text-anchor="middle" x="111" y="-211.5" font-family="Helvetica,sans-Serif" font-size="10.00">T</text>
</g>
<!-- Node4&#45;&gt;Node3 -->
<g id="edge3" class="edge"><title>Node4&#45;&gt;Node3</title>
<path fill="none" stroke="#9a32cd" stroke-dasharray="5,2" d="M111,-194.041C111,-181.472 111,-165.563 111,-155.841"/>
<polygon fill="#9a32cd" stroke="#9a32cd" points="107.5,-194.372 111,-204.372 114.5,-194.372 107.5,-194.372"/>
<text text-anchor="middle" x="132.5" y="-177.5" font-family="Helvetica,sans-Serif" font-size="10.00"> elements</text>
</g>
<!-- Node5&#45;&gt;Node1 -->
<g id="edge4" class="edge"><title>Node5&#45;&gt;Node1</title>
<path fill="none" stroke="#9a32cd" stroke-dasharray="5,2" d="M163.85,-60.3101C153.713,-47.4437 140.094,-30.1583 131.966,-19.8411"/>
<polygon fill="#9a32cd" stroke="#9a32cd" points="161.264,-62.6828 170.202,-68.3717 166.762,-58.3506 161.264,-62.6828"/>
<text text-anchor="middle" x="170.5" y="-41.5" font-family="Helvetica,sans-Serif" font-size="10.00"> sstats</text>
</g>
</g>
</svg>
