<?xml version="1.0" encoding="UTF-8" standalone="no"?>
<!DOCTYPE svg PUBLIC "-//W3C//DTD SVG 1.1//EN"
 "http://www.w3.org/Graphics/SVG/1.1/DTD/svg11.dtd">
<!-- Generated by graphviz version 2.30.1 (20150305.2338)
 -->
<!-- Title: BorderData Pages: 1 -->
<svg width="253pt" height="286pt"
 viewBox="0.00 0.00 253.00 286.00" xmlns="http://www.w3.org/2000/svg" xmlns:xlink="http://www.w3.org/1999/xlink">
<g id="graph0" class="graph" transform="scale(1 1) rotate(0) translate(4 282)">
<title>BorderData</title>
<!-- Node1 -->
<g id="node1" class="node"><title>Node1</title>
<polygon fill="#bfbfbf" stroke="black" points="106,-0.5 106,-19.5 172,-19.5 172,-0.5 106,-0.5"/>
<text text-anchor="middle" x="139" y="-7.5" font-family="Helvetica,sans-Serif" font-size="10.00">BorderData</text>
</g>
<!-- Node2 -->
<g id="node2" class="node"><title>Node2</title>
<polygon fill="none" stroke="#bfbfbf" points="-0.5,-122.5 -0.5,-141.5 136.5,-141.5 136.5,-122.5 -0.5,-122.5"/>
<text text-anchor="middle" x="68" y="-129.5" font-family="Helvetica,sans-Serif" font-size="10.00">vector&lt; Mesh::IndexType &gt;</text>
</g>
<!-- Node2&#45;&gt;Node1 -->
<g id="edge1" class="edge"><title>Node2&#45;&gt;Node1</title>
<path fill="none" stroke="#9a32cd" stroke-dasharray="5,2" d="M68.6331,-112.254C70.2018,-92.0415 75.3677,-59.8352 92,-38 98.1583,-29.9152 107.486,-23.8465 116.212,-19.5318"/>
<polygon fill="#9a32cd" stroke="#9a32cd" points="65.1322,-112.175 68.0735,-122.353 72.1214,-112.562 65.1322,-112.175"/>
<text text-anchor="middle" x="122" y="-96" font-family="Helvetica,sans-Serif" font-size="10.00"> RecvAp</text>
<text text-anchor="middle" x="122" y="-85" font-family="Helvetica,sans-Serif" font-size="10.00">SendAp</text>
<text text-anchor="start" x="92" y="-74" font-family="Helvetica,sans-Serif" font-size="10.00">border_dof_to</text>
<text text-anchor="middle" x="122" y="-63" font-family="Helvetica,sans-Serif" font-size="10.00">_global</text>
<text text-anchor="middle" x="122" y="-52" font-family="Helvetica,sans-Serif" font-size="10.00">RecvAi</text>
<text text-anchor="middle" x="122" y="-41" font-family="Helvetica,sans-Serif" font-size="10.00">SendAi</text>
</g>
<!-- Node3 -->
<g id="node3" class="node"><title>Node3</title>
<g id="a_node3"><a xlink:title="STL class. ">
<polygon fill="none" stroke="#bfbfbf" points="97,-190.5 97,-209.5 165,-209.5 165,-190.5 97,-190.5"/>
<text text-anchor="middle" x="131" y="-197.5" font-family="Helvetica,sans-Serif" font-size="10.00">vector&lt; T &gt;</text>
</a>
</g>
</g>
<!-- Node3&#45;&gt;Node2 -->
<g id="edge2" class="edge"><title>Node3&#45;&gt;Node2</title>
<path fill="none" stroke="orange" stroke-dasharray="5,2" d="M94.6609,-185.762C88.3926,-182.113 82.4675,-177.578 78,-172 71.0085,-163.271 68.8501,-150.219 68.2145,-141.657"/>
<polygon fill="orange" stroke="orange" points="93.4602,-189.078 103.96,-190.491 96.6335,-182.838 93.4602,-189.078"/>
<text text-anchor="middle" x="126.5" y="-163.5" font-family="Helvetica,sans-Serif" font-size="10.00"> &lt; Mesh::IndexType &gt;</text>
</g>
<!-- Node5 -->
<g id="node5" class="node"><title>Node5</title>
<polygon fill="none" stroke="#bfbfbf" points="155,-122.5 155,-141.5 245,-141.5 245,-122.5 155,-122.5"/>
<text text-anchor="middle" x="200" y="-129.5" font-family="Helvetica,sans-Serif" font-size="10.00">vector&lt; double &gt;</text>
</g>
<!-- Node3&#45;&gt;Node5 -->
<g id="edge5" class="edge"><title>Node3&#45;&gt;Node5</title>
<path fill="none" stroke="orange" stroke-dasharray="5,2" d="M157.701,-185.277C163.775,-181.458 169.926,-176.975 175,-172 184.188,-162.991 191.657,-150.009 195.966,-141.539"/>
<polygon fill="orange" stroke="orange" points="155.852,-182.303 148.99,-190.376 159.388,-188.344 155.852,-182.303"/>
<text text-anchor="middle" x="210" y="-163.5" font-family="Helvetica,sans-Serif" font-size="10.00"> &lt; double &gt;</text>
</g>
<!-- Node4 -->
<g id="node4" class="node"><title>Node4</title>
<polygon fill="none" stroke="#bfbfbf" points="116.5,-258.5 116.5,-277.5 145.5,-277.5 145.5,-258.5 116.5,-258.5"/>
<text text-anchor="middle" x="131" y="-265.5" font-family="Helvetica,sans-Serif" font-size="10.00">T</text>
</g>
<!-- Node4&#45;&gt;Node3 -->
<g id="edge3" class="edge"><title>Node4&#45;&gt;Node3</title>
<path fill="none" stroke="#9a32cd" stroke-dasharray="5,2" d="M131,-248.041C131,-235.472 131,-219.563 131,-209.841"/>
<polygon fill="#9a32cd" stroke="#9a32cd" points="127.5,-248.372 131,-258.372 134.5,-248.372 127.5,-248.372"/>
<text text-anchor="middle" x="152.5" y="-231.5" font-family="Helvetica,sans-Serif" font-size="10.00"> elements</text>
</g>
<!-- Node5&#45;&gt;Node1 -->
<g id="edge4" class="edge"><title>Node5&#45;&gt;Node1</title>
<path fill="none" stroke="#9a32cd" stroke-dasharray="5,2" d="M192.32,-113.148C183.988,-94.1888 169.994,-63.4992 156,-38 152.589,-31.7842 148.339,-25.0342 144.942,-19.8382"/>
<polygon fill="#9a32cd" stroke="#9a32cd" points="189.132,-114.592 196.331,-122.366 195.551,-111.8 189.132,-114.592"/>
<text text-anchor="middle" x="215" y="-74" font-family="Helvetica,sans-Serif" font-size="10.00"> SendBuffer</text>
<text text-anchor="middle" x="215" y="-63" font-family="Helvetica,sans-Serif" font-size="10.00">RecvBuffer</text>
</g>
</g>
</svg>
