<?xml version="1.0" encoding="UTF-8" standalone="no"?>
<!DOCTYPE svg PUBLIC "-//W3C//DTD SVG 1.1//EN"
 "http://www.w3.org/Graphics/SVG/1.1/DTD/svg11.dtd">
<!-- Generated by graphviz version 2.26.0 (20091210.2329)
 -->
<!-- Title: TestOpenFoamModuleDriver.H Pages: 1 -->
<svg width="514pt" height="146pt"
 viewBox="0.00 0.00 514.00 146.00" xmlns="http://www.w3.org/2000/svg" xmlns:xlink="http://www.w3.org/1999/xlink">
<g id="graph1" class="graph" transform="scale(1 1) rotate(0) translate(4 142)">
<title>TestOpenFoamModuleDriver.H</title>
<!-- Node1 -->
<g id="node1" class="node"><title>Node1</title>
<polygon fill="#bfbfbf" stroke="black" points="160,-116.5 160,-137.5 312,-137.5 312,-116.5 160,-116.5"/>
<text text-anchor="middle" x="236" y="-124.5" font-family="Helvetica,sans-Serif" font-size="10.00">TestOpenFoamModuleDriver.H</text>
</g>
<!-- Node2 -->
<g id="node3" class="node"><title>Node2</title>
<a xlink:href="OpenFoamModuleDriverTest_8H.html" target="_top" xlink:title="Testing object for OpenFoamModuleDriver. ">
<polygon fill="none" stroke="black" points="160,-58.5 160,-79.5 312,-79.5 312,-58.5 160,-58.5"/>
<text text-anchor="middle" x="236" y="-66.5" font-family="Helvetica,sans-Serif" font-size="10.00">OpenFoamModuleDriverTest.H</text>
</a>
</g>
<!-- Node1&#45;&gt;Node2 -->
<g id="edge2" class="edge"><title>Node1&#45;&gt;Node2</title>
<path fill="none" stroke="midnightblue" d="M236,-116.362C236,-108.922 236,-98.7427 236,-89.7276"/>
<polygon fill="midnightblue" stroke="midnightblue" points="239.5,-89.5706 236,-79.5707 232.5,-89.5707 239.5,-89.5706"/>
</g>
<!-- Node3 -->
<g id="node5" class="node"><title>Node3</title>
<polygon fill="none" stroke="#bfbfbf" points="-0.5,-0.5 -0.5,-21.5 58.5,-21.5 58.5,-0.5 -0.5,-0.5"/>
<text text-anchor="middle" x="29" y="-8.5" font-family="Helvetica,sans-Serif" font-size="10.00">Testing.H</text>
</g>
<!-- Node2&#45;&gt;Node3 -->
<g id="edge4" class="edge"><title>Node2&#45;&gt;Node3</title>
<path fill="none" stroke="midnightblue" d="M197.71,-58.4747C165.577,-49.6146 118.208,-36.4893 68.7729,-22.4875"/>
<polygon fill="midnightblue" stroke="midnightblue" points="69.4378,-19.0381 58.8622,-19.6765 67.5276,-25.7724 69.4378,-19.0381"/>
</g>
<!-- Node4 -->
<g id="node7" class="node"><title>Node4</title>
<polygon fill="none" stroke="#bfbfbf" points="76,-0.5 76,-21.5 134,-21.5 134,-0.5 76,-0.5"/>
<text text-anchor="middle" x="105" y="-8.5" font-family="Helvetica,sans-Serif" font-size="10.00">Profiler.H</text>
</g>
<!-- Node2&#45;&gt;Node4 -->
<g id="edge6" class="edge"><title>Node2&#45;&gt;Node4</title>
<path fill="none" stroke="midnightblue" d="M212.277,-58.4966C191.632,-49.3562 161.484,-36.0082 138.401,-25.7883"/>
<polygon fill="midnightblue" stroke="midnightblue" points="139.55,-22.4694 128.989,-21.6212 136.716,-28.8701 139.55,-22.4694"/>
</g>
<!-- Node5 -->
<g id="node9" class="node"><title>Node5</title>
<polygon fill="none" stroke="#bfbfbf" points="152,-0.5 152,-21.5 196,-21.5 196,-0.5 152,-0.5"/>
<text text-anchor="middle" x="174" y="-8.5" font-family="Helvetica,sans-Serif" font-size="10.00">vector</text>
</g>
<!-- Node2&#45;&gt;Node5 -->
<g id="edge8" class="edge"><title>Node2&#45;&gt;Node5</title>
<path fill="none" stroke="midnightblue" d="M224.628,-58.3619C215.714,-50.0226 203.121,-38.2418 192.724,-28.5162"/>
<polygon fill="midnightblue" stroke="midnightblue" points="194.993,-25.8463 185.3,-21.5707 190.211,-30.9582 194.993,-25.8463"/>
</g>
<!-- Node6 -->
<g id="node11" class="node"><title>Node6</title>
<polygon fill="none" stroke="#bfbfbf" points="214,-0.5 214,-21.5 258,-21.5 258,-0.5 214,-0.5"/>
<text text-anchor="middle" x="236" y="-8.5" font-family="Helvetica,sans-Serif" font-size="10.00">cmath</text>
</g>
<!-- Node2&#45;&gt;Node6 -->
<g id="edge10" class="edge"><title>Node2&#45;&gt;Node6</title>
<path fill="none" stroke="midnightblue" d="M236,-58.3619C236,-50.9219 236,-40.7427 236,-31.7276"/>
<polygon fill="midnightblue" stroke="midnightblue" points="239.5,-31.5706 236,-21.5707 232.5,-31.5707 239.5,-31.5706"/>
</g>
<!-- Node7 -->
<g id="node13" class="node"><title>Node7</title>
<polygon fill="none" stroke="#bfbfbf" points="276,-0.5 276,-21.5 320,-21.5 320,-0.5 276,-0.5"/>
<text text-anchor="middle" x="298" y="-8.5" font-family="Helvetica,sans-Serif" font-size="10.00">com.h</text>
</g>
<!-- Node2&#45;&gt;Node7 -->
<g id="edge12" class="edge"><title>Node2&#45;&gt;Node7</title>
<path fill="none" stroke="midnightblue" d="M247.372,-58.3619C256.286,-50.0226 268.879,-38.2418 279.276,-28.5162"/>
<polygon fill="midnightblue" stroke="midnightblue" points="281.789,-30.9582 286.7,-21.5707 277.007,-25.8463 281.789,-30.9582"/>
</g>
<!-- Node8 -->
<g id="node15" class="node"><title>Node8</title>
<polygon fill="none" stroke="#bfbfbf" points="337.5,-0.5 337.5,-21.5 420.5,-21.5 420.5,-0.5 337.5,-0.5"/>
<text text-anchor="middle" x="379" y="-8.5" font-family="Helvetica,sans-Serif" font-size="10.00">com_devel.hpp</text>
</g>
<!-- Node2&#45;&gt;Node8 -->
<g id="edge14" class="edge"><title>Node2&#45;&gt;Node8</title>
<path fill="none" stroke="midnightblue" d="M261.896,-58.4966C284.633,-49.2746 317.93,-35.7695 343.212,-25.5153"/>
<polygon fill="midnightblue" stroke="midnightblue" points="344.862,-28.6232 352.813,-21.6212 342.231,-22.1365 344.862,-28.6232"/>
</g>
<!-- Node9 -->
<g id="node17" class="node"><title>Node9</title>
<polygon fill="none" stroke="#bfbfbf" points="438,-0.5 438,-21.5 506,-21.5 506,-0.5 438,-0.5"/>
<text text-anchor="middle" x="472" y="-8.5" font-family="Helvetica,sans-Serif" font-size="10.00">UnixUtils.H</text>
</g>
<!-- Node2&#45;&gt;Node9 -->
<g id="edge16" class="edge"><title>Node2&#45;&gt;Node9</title>
<path fill="none" stroke="midnightblue" d="M280.111,-58.4114C317.112,-49.495 371.611,-36.2821 427.948,-22.2455"/>
<polygon fill="midnightblue" stroke="midnightblue" points="428.886,-25.6189 437.742,-19.8018 427.192,-18.8271 428.886,-25.6189"/>
</g>
</g>
</svg>
