<?xml version="1.0" encoding="UTF-8" standalone="no"?>
<!DOCTYPE svg PUBLIC "-//W3C//DTD SVG 1.1//EN"
 "http://www.w3.org/Graphics/SVG/1.1/DTD/svg11.dtd">
<!-- Generated by graphviz version 2.26.0 (20091210.2329)
 -->
<!-- Title: TestElmerModuleDriver.H Pages: 1 -->
<svg width="318pt" height="88pt"
 viewBox="0.00 0.00 318.00 88.00" xmlns="http://www.w3.org/2000/svg" xmlns:xlink="http://www.w3.org/1999/xlink">
<g id="graph1" class="graph" transform="scale(1 1) rotate(0) translate(4 84)">
<title>TestElmerModuleDriver.H</title>
<!-- Node1 -->
<g id="node1" class="node"><title>Node1</title>
<polygon fill="#bfbfbf" stroke="black" points="98,-58.5 98,-79.5 228,-79.5 228,-58.5 98,-58.5"/>
<text text-anchor="middle" x="163" y="-66.5" font-family="Helvetica,sans-Serif" font-size="10.00">TestElmerModuleDriver.H</text>
</g>
<!-- Node2 -->
<g id="node3" class="node"><title>Node2</title>
<a xlink:href="ParallelTestElmerModuleDriver_8C.html" target="_top" xlink:title="Implements a command&#45;line interface for the ElmerModuleDriver tests. ">
<polygon fill="none" stroke="black" points="0,-0.5 0,-21.5 162,-21.5 162,-0.5 0,-0.5"/>
<text text-anchor="middle" x="81" y="-8.5" font-family="Helvetica,sans-Serif" font-size="10.00">ParallelTestElmerModuleDriver.C</text>
</a>
</g>
<!-- Node1&#45;&gt;Node2 -->
<g id="edge2" class="edge"><title>Node1&#45;&gt;Node2</title>
<path fill="none" stroke="midnightblue" d="M139.73,-52.5407C125.672,-42.5973 108.17,-30.2177 95.9447,-21.5707"/>
<polygon fill="midnightblue" stroke="midnightblue" points="137.775,-55.4447 147.96,-58.3619 141.817,-49.7298 137.775,-55.4447"/>
</g>
<!-- Node3 -->
<g id="node5" class="node"><title>Node3</title>
<a xlink:href="TestElmerModuleDriver_8C.html" target="_top" xlink:title="Implements a command&#45;line interface for the ElmerModuleDriver tests. ">
<polygon fill="none" stroke="black" points="180,-0.5 180,-21.5 310,-21.5 310,-0.5 180,-0.5"/>
<text text-anchor="middle" x="245" y="-8.5" font-family="Helvetica,sans-Serif" font-size="10.00">TestElmerModuleDriver.C</text>
</a>
</g>
<!-- Node1&#45;&gt;Node3 -->
<g id="edge4" class="edge"><title>Node1&#45;&gt;Node3</title>
<path fill="none" stroke="midnightblue" d="M186.27,-52.5407C200.328,-42.5973 217.83,-30.2177 230.055,-21.5707"/>
<polygon fill="midnightblue" stroke="midnightblue" points="184.183,-49.7298 178.04,-58.3619 188.225,-55.4447 184.183,-49.7298"/>
</g>
</g>
</svg>
