<?xml version="1.0" encoding="UTF-8" standalone="no"?>
<!DOCTYPE svg PUBLIC "-//W3C//DTD SVG 1.1//EN"
 "http://www.w3.org/Graphics/SVG/1.1/DTD/svg11.dtd">
<!-- Generated by graphviz version 2.26.0 (20091210.2329)
 -->
<!-- Title: main Pages: 1 -->
<svg width="778pt" height="284pt"
 viewBox="0.00 0.00 778.00 284.00" xmlns="http://www.w3.org/2000/svg" xmlns:xlink="http://www.w3.org/1999/xlink">
<g id="graph1" class="graph" transform="scale(1 1) rotate(0) translate(4 280)">
<title>main</title>
<!-- Node1 -->
<g id="node1" class="node"><title>Node1</title>
<polygon fill="#bfbfbf" stroke="black" points="0,-170.5 0,-191.5 38,-191.5 38,-170.5 0,-170.5"/>
<text text-anchor="middle" x="19" y="-178.5" font-family="Helvetica,sans-Serif" font-size="10.00">main</text>
</g>
<!-- Node2 -->
<g id="node3" class="node"><title>Node2</title>
<a xlink:href="namespaceElmerFoamFSI_aeb590657609088b8ab12a5cbd164fcfa.html#aeb590657609088b8ab12a5cbd164fcfa" target="_top" xlink:title="Drives the ElmerFoamFSI::TestObject. ">
<polygon fill="none" stroke="black" points="74,-170.5 74,-191.5 182,-191.5 182,-170.5 74,-170.5"/>
<text text-anchor="middle" x="128" y="-178.5" font-family="Helvetica,sans-Serif" font-size="10.00">ElmerFoamFSI::Test</text>
</a>
</g>
<!-- Node1&#45;&gt;Node2 -->
<g id="edge2" class="edge"><title>Node1&#45;&gt;Node2</title>
<path fill="none" stroke="midnightblue" d="M38.2361,-181C45.5968,-181 54.4616,-181 63.7154,-181"/>
<polygon fill="midnightblue" stroke="midnightblue" points="63.8568,-184.5 73.8568,-181 63.8567,-177.5 63.8568,-184.5"/>
</g>
<!-- Node3 -->
<g id="node5" class="node"><title>Node3</title>
<a xlink:href="classElmerFoamFSI_1_1TestComLine_a98b1050f09da390896f964fb7a892391.html#a98b1050f09da390896f964fb7a892391" target="_top" xlink:title="ElmerFoamFSI::TestComLine\l::Initialize">
<polygon fill="none" stroke="black" points="219.5,-216 219.5,-250 366.5,-250 366.5,-216 219.5,-216"/>
<text text-anchor="start" x="227.5" y="-237" font-family="Helvetica,sans-Serif" font-size="10.00">ElmerFoamFSI::TestComLine</text>
<text text-anchor="middle" x="293" y="-224" font-family="Helvetica,sans-Serif" font-size="10.00">::Initialize</text>
</a>
</g>
<!-- Node2&#45;&gt;Node3 -->
<g id="edge4" class="edge"><title>Node2&#45;&gt;Node3</title>
<path fill="none" stroke="midnightblue" d="M161.39,-191.523C180.836,-197.651 206.004,-205.583 229.116,-212.867"/>
<polygon fill="midnightblue" stroke="midnightblue" points="228.283,-216.274 238.873,-215.942 230.387,-209.598 228.283,-216.274"/>
</g>
<!-- Node4 -->
<g id="node7" class="node"><title>Node4</title>
<a xlink:href="classElmerFoamFSI_1_1TestingObject_af1f07f14b9af7708e4264bb38937eed2.html#af1f07f14b9af7708e4264bb38937eed2" target="_top" xlink:title="Runs a test specified by name. ">
<polygon fill="none" stroke="black" points="218.5,-112 218.5,-146 367.5,-146 367.5,-112 218.5,-112"/>
<text text-anchor="start" x="226.5" y="-133" font-family="Helvetica,sans-Serif" font-size="10.00">ElmerFoamFSI::TestingObject</text>
<text text-anchor="middle" x="293" y="-120" font-family="Helvetica,sans-Serif" font-size="10.00">::RunTest</text>
</a>
</g>
<!-- Node2&#45;&gt;Node4 -->
<g id="edge6" class="edge"><title>Node2&#45;&gt;Node4</title>
<path fill="none" stroke="midnightblue" d="M161.39,-170.477C180.836,-164.349 206.004,-156.417 229.116,-149.133"/>
<polygon fill="midnightblue" stroke="midnightblue" points="230.387,-152.402 238.873,-146.058 228.283,-145.726 230.387,-152.402"/>
</g>
<!-- Node15 -->
<g id="node31" class="node"><title>Node15</title>
<a xlink:href="classElmerFoamFSI_1_1TestingObject_a046f7ab06db0acf616b0d2bf3d3146aa.html#a046f7ab06db0acf616b0d2bf3d3146aa" target="_top" xlink:title="Runs all tests implemented by the ElmerFoamFSI::TestingObject. ">
<polygon fill="none" stroke="black" points="218.5,-164 218.5,-198 367.5,-198 367.5,-164 218.5,-164"/>
<text text-anchor="start" x="226.5" y="-185" font-family="Helvetica,sans-Serif" font-size="10.00">ElmerFoamFSI::TestingObject</text>
<text text-anchor="middle" x="293" y="-172" font-family="Helvetica,sans-Serif" font-size="10.00">::Process</text>
</a>
</g>
<!-- Node2&#45;&gt;Node15 -->
<g id="edge32" class="edge"><title>Node2&#45;&gt;Node15</title>
<path fill="none" stroke="midnightblue" d="M182.027,-181C190.495,-181 199.418,-181 208.376,-181"/>
<polygon fill="midnightblue" stroke="midnightblue" points="208.48,-184.5 218.48,-181 208.48,-177.5 208.48,-184.5"/>
</g>
<!-- Node5 -->
<g id="node9" class="node"><title>Node5</title>
<a xlink:href="classElmerFoamFSI_1_1TestingObject_aa3cdb6d60e9d9834c19efaab0b044421.html#aa3cdb6d60e9d9834c19efaab0b044421" target="_top" xlink:title="Sets up the data fixtures for the tests. ">
<polygon fill="none" stroke="black" points="404.5,-190 404.5,-224 553.5,-224 553.5,-190 404.5,-190"/>
<text text-anchor="start" x="412.5" y="-211" font-family="Helvetica,sans-Serif" font-size="10.00">ElmerFoamFSI::TestingObject</text>
<text text-anchor="middle" x="479" y="-198" font-family="Helvetica,sans-Serif" font-size="10.00">::Prologue</text>
</a>
</g>
<!-- Node4&#45;&gt;Node5 -->
<g id="edge8" class="edge"><title>Node4&#45;&gt;Node5</title>
<path fill="none" stroke="midnightblue" d="M348.261,-146.077C355.037,-148.774 361.765,-151.757 368,-155 385.51,-164.107 386.49,-171.893 404,-181 407.313,-182.723 410.764,-184.372 414.288,-185.944"/>
<polygon fill="midnightblue" stroke="midnightblue" points="413.165,-189.269 423.739,-189.923 415.881,-182.817 413.165,-189.269"/>
</g>
<!-- Node6 -->
<g id="node11" class="node"><title>Node6</title>
<a xlink:href="classElmerFoamFSI_1_1TestingObject_a14258b94075936cb7bfadbcfc9a37b87.html#a14258b94075936cb7bfadbcfc9a37b87" target="_top" xlink:title="Test for ElmerFoamFSI::ExampleFunction. ">
<polygon fill="none" stroke="black" points="404.5,-138 404.5,-172 553.5,-172 553.5,-138 404.5,-138"/>
<text text-anchor="start" x="412.5" y="-159" font-family="Helvetica,sans-Serif" font-size="10.00">ElmerFoamFSI::TestingObject</text>
<text text-anchor="middle" x="479" y="-146" font-family="Helvetica,sans-Serif" font-size="10.00">::Test__ExampleFunction</text>
</a>
</g>
<!-- Node4&#45;&gt;Node6 -->
<g id="edge10" class="edge"><title>Node4&#45;&gt;Node6</title>
<path fill="none" stroke="midnightblue" d="M367.582,-139.425C376.393,-140.657 385.435,-141.921 394.373,-143.17"/>
<polygon fill="midnightblue" stroke="midnightblue" points="394.013,-146.654 404.402,-144.572 394.983,-139.722 394.013,-146.654"/>
</g>
<!-- Node8 -->
<g id="node15" class="node"><title>Node8</title>
<a xlink:href="classElmerFoamFSI_1_1TestingObject_a7928083cb5586c2b361e1d29a8dc2b54.html#a7928083cb5586c2b361e1d29a8dc2b54" target="_top" xlink:title="Test for ElmerFoamFSI::TrapezoidQuadrature. ">
<polygon fill="none" stroke="black" points="404.5,-86 404.5,-120 553.5,-120 553.5,-86 404.5,-86"/>
<text text-anchor="start" x="412.5" y="-107" font-family="Helvetica,sans-Serif" font-size="10.00">ElmerFoamFSI::TestingObject</text>
<text text-anchor="middle" x="479" y="-94" font-family="Helvetica,sans-Serif" font-size="10.00">::Test__TrapezoidQuadrature</text>
</a>
</g>
<!-- Node4&#45;&gt;Node8 -->
<g id="edge14" class="edge"><title>Node4&#45;&gt;Node8</title>
<path fill="none" stroke="midnightblue" d="M367.582,-118.575C376.393,-117.343 385.435,-116.079 394.373,-114.83"/>
<polygon fill="midnightblue" stroke="midnightblue" points="394.983,-118.278 404.402,-113.428 394.013,-111.346 394.983,-118.278"/>
</g>
<!-- Node12 -->
<g id="node23" class="node"><title>Node12</title>
<a xlink:href="classElmerFoamFSI_1_1TestingObject_a7de28a366b07117111ce7c1e9515a434.html#a7de28a366b07117111ce7c1e9515a434" target="_top" xlink:title="Test for ElmerFoamFSI::MidPointQuadrature. ">
<polygon fill="none" stroke="black" points="404.5,-34 404.5,-68 553.5,-68 553.5,-34 404.5,-34"/>
<text text-anchor="start" x="412.5" y="-55" font-family="Helvetica,sans-Serif" font-size="10.00">ElmerFoamFSI::TestingObject</text>
<text text-anchor="middle" x="479" y="-42" font-family="Helvetica,sans-Serif" font-size="10.00">::Test__MidPointQuadrature</text>
</a>
</g>
<!-- Node4&#45;&gt;Node12 -->
<g id="edge22" class="edge"><title>Node4&#45;&gt;Node12</title>
<path fill="none" stroke="midnightblue" d="M327.09,-111.901C348.842,-101.273 377.778,-87.6533 404,-77 408.473,-75.1829 413.126,-73.3762 417.826,-71.6112"/>
<polygon fill="midnightblue" stroke="midnightblue" points="419.319,-74.7915 427.497,-68.0566 416.904,-68.2212 419.319,-74.7915"/>
</g>
<!-- Node14 -->
<g id="node29" class="node"><title>Node14</title>
<a xlink:href="classElmerFoamFSI_1_1TestingObject_aa25f45634aafbb580d94840ad8452745.html#aa25f45634aafbb580d94840ad8452745" target="_top" xlink:title="Tears down the testing fixtures if needed. ">
<polygon fill="none" stroke="black" points="404.5,-242 404.5,-276 553.5,-276 553.5,-242 404.5,-242"/>
<text text-anchor="start" x="412.5" y="-263" font-family="Helvetica,sans-Serif" font-size="10.00">ElmerFoamFSI::TestingObject</text>
<text text-anchor="middle" x="479" y="-250" font-family="Helvetica,sans-Serif" font-size="10.00">::Epilogue</text>
</a>
</g>
<!-- Node4&#45;&gt;Node14 -->
<g id="edge30" class="edge"><title>Node4&#45;&gt;Node14</title>
<path fill="none" stroke="midnightblue" d="M355.456,-146.012C359.968,-148.6 364.221,-151.577 368,-155 396.297,-180.633 375.703,-207.367 404,-233 405.299,-234.177 406.654,-235.301 408.056,-236.374"/>
<polygon fill="midnightblue" stroke="midnightblue" points="406.272,-239.391 416.544,-241.988 410.134,-233.552 406.272,-239.391"/>
</g>
<!-- Node7 -->
<g id="node13" class="node"><title>Node7</title>
<a xlink:href="namespaceElmerFoamFSI_a4cc78661909b0a33b6b886a4d4290997.html#a4cc78661909b0a33b6b886a4d4290997" target="_top" xlink:title="Example function for ElmerFoamFSI (this is a brief description). ">
<polygon fill="none" stroke="black" points="598,-160.5 598,-181.5 762,-181.5 762,-160.5 598,-160.5"/>
<text text-anchor="middle" x="680" y="-168.5" font-family="Helvetica,sans-Serif" font-size="10.00">ElmerFoamFSI::ExampleFunction</text>
</a>
</g>
<!-- Node6&#45;&gt;Node7 -->
<g id="edge12" class="edge"><title>Node6&#45;&gt;Node7</title>
<path fill="none" stroke="midnightblue" d="M553.559,-160.935C564.706,-161.822 576.311,-162.746 587.77,-163.658"/>
<polygon fill="midnightblue" stroke="midnightblue" points="587.542,-167.151 597.789,-164.456 588.098,-160.173 587.542,-167.151"/>
</g>
<!-- Node9 -->
<g id="node17" class="node"><title>Node9</title>
<a xlink:href="namespaceElmerFoamFSI_a7ea1066c129172a0edf5647d8254e957.html#a7ea1066c129172a0edf5647d8254e957" target="_top" xlink:title="Integrates f with composite trapezoid rule. ">
<polygon fill="none" stroke="black" points="590.5,-120.5 590.5,-141.5 769.5,-141.5 769.5,-120.5 590.5,-120.5"/>
<text text-anchor="middle" x="680" y="-128.5" font-family="Helvetica,sans-Serif" font-size="10.00">ElmerFoamFSI::TrapezoidQuadrature</text>
</a>
</g>
<!-- Node8&#45;&gt;Node9 -->
<g id="edge16" class="edge"><title>Node8&#45;&gt;Node9</title>
<path fill="none" stroke="midnightblue" d="M553.559,-113.386C566.825,-115.234 580.738,-117.172 594.284,-119.059"/>
<polygon fill="midnightblue" stroke="midnightblue" points="594.167,-122.577 604.555,-120.49 595.133,-115.644 594.167,-122.577"/>
</g>
<!-- Node10 -->
<g id="node19" class="node"><title>Node10</title>
<a xlink:href="namespaceElmerFoamFSI_1_1TestFixture_a9c8d4061c611e98ad87be909ec0139c2.html#a9c8d4061c611e98ad87be909ec0139c2" target="_top" xlink:title="Simple test function fixture returns . ">
<polygon fill="none" stroke="black" points="602.5,-40.5 602.5,-61.5 757.5,-61.5 757.5,-40.5 602.5,-40.5"/>
<text text-anchor="middle" x="680" y="-48.5" font-family="Helvetica,sans-Serif" font-size="10.00">ElmerFoamFSI::TestFixture::F1</text>
</a>
</g>
<!-- Node8&#45;&gt;Node10 -->
<g id="edge18" class="edge"><title>Node8&#45;&gt;Node10</title>
<path fill="none" stroke="midnightblue" d="M535.569,-85.9585C552.967,-80.9153 572.218,-75.5343 590,-71 599.655,-68.5381 609.936,-66.0909 619.968,-63.7968"/>
<polygon fill="midnightblue" stroke="midnightblue" points="620.9,-67.1745 629.884,-61.5589 619.359,-60.3463 620.9,-67.1745"/>
</g>
<!-- Node11 -->
<g id="node21" class="node"><title>Node11</title>
<a xlink:href="namespaceElmerFoamFSI_1_1TestFixture_a3b7a7eff5f830fd464df46a8f2caecbf.html#a3b7a7eff5f830fd464df46a8f2caecbf" target="_top" xlink:title="Simple test function fixture returns . ">
<polygon fill="none" stroke="black" points="602.5,-80.5 602.5,-101.5 757.5,-101.5 757.5,-80.5 602.5,-80.5"/>
<text text-anchor="middle" x="680" y="-88.5" font-family="Helvetica,sans-Serif" font-size="10.00">ElmerFoamFSI::TestFixture::F2</text>
</a>
</g>
<!-- Node8&#45;&gt;Node11 -->
<g id="edge20" class="edge"><title>Node8&#45;&gt;Node11</title>
<path fill="none" stroke="midnightblue" d="M553.559,-98.5487C566.078,-97.8013 579.172,-97.0196 591.992,-96.2542"/>
<polygon fill="midnightblue" stroke="midnightblue" points="592.424,-99.7348 602.197,-95.6449 592.006,-92.7472 592.424,-99.7348"/>
</g>
<!-- Node12&#45;&gt;Node10 -->
<g id="edge26" class="edge"><title>Node12&#45;&gt;Node10</title>
<path fill="none" stroke="midnightblue" d="M553.559,-51C566.078,-51 579.172,-51 591.992,-51"/>
<polygon fill="midnightblue" stroke="midnightblue" points="592.197,-54.5001 602.197,-51 592.197,-47.5001 592.197,-54.5001"/>
</g>
<!-- Node12&#45;&gt;Node11 -->
<g id="edge28" class="edge"><title>Node12&#45;&gt;Node11</title>
<path fill="none" stroke="midnightblue" d="M553.559,-65.8377C574.491,-70.0031 597.033,-74.4892 617.205,-78.5036"/>
<polygon fill="midnightblue" stroke="midnightblue" points="616.717,-81.9749 627.208,-80.494 618.083,-75.1095 616.717,-81.9749"/>
</g>
<!-- Node13 -->
<g id="node25" class="node"><title>Node13</title>
<a xlink:href="namespaceElmerFoamFSI_a94390a668cbb6637ea246c660d00d430.html#a94390a668cbb6637ea246c660d00d430" target="_top" xlink:title="Integrates f with composite midpoint rule. ">
<polygon fill="none" stroke="black" points="592.5,-0.5 592.5,-21.5 767.5,-21.5 767.5,-0.5 592.5,-0.5"/>
<text text-anchor="middle" x="680" y="-8.5" font-family="Helvetica,sans-Serif" font-size="10.00">ElmerFoamFSI::MidPointQuadrature</text>
</a>
</g>
<!-- Node12&#45;&gt;Node13 -->
<g id="edge24" class="edge"><title>Node12&#45;&gt;Node13</title>
<path fill="none" stroke="midnightblue" d="M553.559,-36.1623C574.491,-31.9969 597.033,-27.5108 617.205,-23.4964"/>
<polygon fill="midnightblue" stroke="midnightblue" points="618.083,-26.8905 627.208,-21.506 616.717,-20.0251 618.083,-26.8905"/>
</g>
<!-- Node15&#45;&gt;Node5 -->
<g id="edge34" class="edge"><title>Node15&#45;&gt;Node5</title>
<path fill="none" stroke="midnightblue" d="M367.582,-191.425C376.393,-192.657 385.435,-193.921 394.373,-195.17"/>
<polygon fill="midnightblue" stroke="midnightblue" points="394.013,-198.654 404.402,-196.572 394.983,-191.722 394.013,-198.654"/>
</g>
<!-- Node15&#45;&gt;Node6 -->
<g id="edge36" class="edge"><title>Node15&#45;&gt;Node6</title>
<path fill="none" stroke="midnightblue" d="M367.582,-170.575C376.393,-169.343 385.435,-168.079 394.373,-166.83"/>
<polygon fill="midnightblue" stroke="midnightblue" points="394.983,-170.278 404.402,-165.428 394.013,-163.346 394.983,-170.278"/>
</g>
<!-- Node15&#45;&gt;Node8 -->
<g id="edge38" class="edge"><title>Node15&#45;&gt;Node8</title>
<path fill="none" stroke="midnightblue" d="M348.261,-163.923C355.037,-161.226 361.765,-158.243 368,-155 385.51,-145.893 386.49,-138.107 404,-129 407.313,-127.277 410.764,-125.628 414.288,-124.056"/>
<polygon fill="midnightblue" stroke="midnightblue" points="415.881,-127.183 423.739,-120.077 413.165,-120.731 415.881,-127.183"/>
</g>
<!-- Node15&#45;&gt;Node12 -->
<g id="edge40" class="edge"><title>Node15&#45;&gt;Node12</title>
<path fill="none" stroke="midnightblue" d="M355.456,-163.988C359.968,-161.4 364.221,-158.423 368,-155 396.297,-129.367 375.703,-102.633 404,-77 405.299,-75.8233 406.654,-74.6993 408.056,-73.6257"/>
<polygon fill="midnightblue" stroke="midnightblue" points="410.134,-76.4478 416.544,-68.0119 406.272,-70.6094 410.134,-76.4478"/>
</g>
<!-- Node15&#45;&gt;Node14 -->
<g id="edge42" class="edge"><title>Node15&#45;&gt;Node14</title>
<path fill="none" stroke="midnightblue" d="M348.261,-198.077C355.037,-200.774 361.765,-203.757 368,-207 385.51,-216.107 386.49,-223.893 404,-233 407.313,-234.723 410.764,-236.372 414.288,-237.944"/>
<polygon fill="midnightblue" stroke="midnightblue" points="413.165,-241.269 423.739,-241.923 415.881,-234.817 413.165,-241.269"/>
</g>
</g>
</svg>
