<?xml version="1.0" encoding="UTF-8" standalone="no"?>
<!DOCTYPE svg PUBLIC "-//W3C//DTD SVG 1.1//EN"
 "http://www.w3.org/Graphics/SVG/1.1/DTD/svg11.dtd">
<!-- Generated by graphviz version 2.30.1 (20150305.2338)
 -->
<!-- Title: main Pages: 1 -->
<svg width="330pt" height="38pt"
 viewBox="0.00 0.00 330.00 38.00" xmlns="http://www.w3.org/2000/svg" xmlns:xlink="http://www.w3.org/1999/xlink">
<g id="graph0" class="graph" transform="scale(1 1) rotate(0) translate(4 34)">
<title>main</title>
<!-- Node1 -->
<g id="node1" class="node"><title>Node1</title>
<polygon fill="#bfbfbf" stroke="black" points="0,-5.5 0,-24.5 38,-24.5 38,-5.5 0,-5.5"/>
<text text-anchor="middle" x="19" y="-12.5" font-family="Helvetica,sans-Serif" font-size="10.00">main</text>
</g>
<!-- Node2 -->
<g id="node2" class="node"><title>Node2</title>
<g id="a_node2"><a xlink:href="namespaceElmerModuleDriver_ab4c303c5755207acda2729884495664e.html#ab4c303c5755207acda2729884495664e" target="_top" xlink:title="Creates a new project from an ElmerModuleDriver base. ">
<polygon fill="none" stroke="black" points="74,-0 74,-30 180,-30 180,-0 74,-0"/>
<text text-anchor="start" x="82" y="-18" font-family="Helvetica,sans-Serif" font-size="10.00">ElmerModuleDriver::</text>
<text text-anchor="middle" x="127" y="-7" font-family="Helvetica,sans-Serif" font-size="10.00">MakeProject</text>
</a>
</g>
</g>
<!-- Node1&#45;&gt;Node2 -->
<g id="edge1" class="edge"><title>Node1&#45;&gt;Node2</title>
<path fill="none" stroke="midnightblue" d="M38.4638,-15C45.6948,-15 54.4449,-15 63.5808,-15"/>
<polygon fill="midnightblue" stroke="midnightblue" points="63.592,-18.5001 73.592,-15 63.5919,-11.5001 63.592,-18.5001"/>
</g>
<!-- Node3 -->
<g id="node3" class="node"><title>Node3</title>
<g id="a_node3"><a xlink:href="namespaceElmerModuleDriver_a1e8f13b4d7c0a595f378800f7005a6d7.html#a1e8f13b4d7c0a595f378800f7005a6d7" target="_top" xlink:title="Exclude certain template files from conversion in project creation. ">
<polygon fill="none" stroke="black" points="216,-0 216,-30 322,-30 322,-0 216,-0"/>
<text text-anchor="start" x="224" y="-18" font-family="Helvetica,sans-Serif" font-size="10.00">ElmerModuleDriver::</text>
<text text-anchor="middle" x="269" y="-7" font-family="Helvetica,sans-Serif" font-size="10.00">Excluded</text>
</a>
</g>
</g>
<!-- Node2&#45;&gt;Node3 -->
<g id="edge2" class="edge"><title>Node2&#45;&gt;Node3</title>
<path fill="none" stroke="midnightblue" d="M180.131,-15C188.421,-15 197.07,-15 205.568,-15"/>
<polygon fill="midnightblue" stroke="midnightblue" points="205.826,-18.5001 215.826,-15 205.826,-11.5001 205.826,-18.5001"/>
</g>
</g>
</svg>
