<?xml version="1.0" encoding="UTF-8" standalone="no"?>
<!DOCTYPE svg PUBLIC "-//W3C//DTD SVG 1.1//EN"
 "http://www.w3.org/Graphics/SVG/1.1/DTD/svg11.dtd">
<!-- Generated by graphviz version 2.26.0 (20091210.2329)
 -->
<!-- Title: ExampleProgram.H Pages: 1 -->
<!--zoomable 88 -->
<svg id="main" version="1.1" xmlns="http://www.w3.org/2000/svg" xmlns:xlink="http://www.w3.org/1999/xlink" xml:space="preserve" onload="init(evt)">
<style type="text/css"><![CDATA[
.edge:hover path { stroke: red; }
.edge:hover polygon { stroke: red; fill: red; }
]]></style>
<script type="text/javascript"><![CDATA[
var edges = document.getElementsByTagName('g');
if (edges && edges.length) {
  for (var i=0;i<edges.length;i++) {
    if (edges[i].id.substr(0,4)=='edge') {
      edges[i].setAttribute('class','edge');
    }
  }
}
]]></script>
        <defs>
                <circle id="rim" cx="0" cy="0" r="7"/>
                <circle id="rim2" cx="0" cy="0" r="3.5"/>
                <g id="zoomPlus">
                        <use xlink:href="#rim" fill="#404040">
                                <set attributeName="fill" to="#808080" begin="zoomplus.mouseover" end="zoomplus.mouseout"/>
                        </use>
                        <path d="M-4,0h8M0,-4v8" fill="none" stroke="white" stroke-width="1.5" pointer-events="none"/>
                </g>
                <g id="zoomMin">
                        <use xlink:href="#rim" fill="#404040">
                                <set attributeName="fill" to="#808080" begin="zoomminus.mouseover" end="zoomminus.mouseout"/>
                        </use>
                        <path d="M-4,0h8" fill="none" stroke="white" stroke-width="1.5" pointer-events="none"/>
                </g>
                <g id="dirArrow">
                        <path fill="none" stroke="white" stroke-width="1.5" d="M0,-3.0v7 M-2.5,-0.5L0,-3.0L2.5,-0.5"/>
                </g>
               <g id="resetDef">
                       <use xlink:href="#rim2" fill="#404040">
                               <set attributeName="fill" to="#808080" begin="reset.mouseover" end="reset.mouseout"/>
                       </use>
               </g>
        </defs>

<script type="text/javascript">
var viewWidth = 826;
var viewHeight = 88;
var sectionId = 'dynsection-1';
</script>
<script xlink:href="svgpan.js"/>
<svg id="graph" class="graph">
<g id="viewport">
<title>ExampleProgram.H</title>
<!-- Node1 -->
<g id="node1" class="node"><title>Node1</title>
<polygon fill="#bfbfbf" stroke="black" points="381,-58.5 381,-79.5 483,-79.5 483,-58.5 381,-58.5"/>
<text text-anchor="middle" x="432" y="-66.5" font-family="Helvetica,sans-Serif" font-size="10.00">ExampleProgram.H</text>
</g>
<!-- Node2 -->
<g id="node3" class="node"><title>Node2</title>
<a xlink:href="src_2ExampleParallelProgram_8C.html" target="_top" xlink:title="Example parallel program. ">
<polygon fill="none" stroke="black" points="0,-0.5 0,-21.5 134,-21.5 134,-0.5 0,-0.5"/>
<text text-anchor="middle" x="67" y="-8.5" font-family="Helvetica,sans-Serif" font-size="10.00">ExampleParallelProgram.C</text>
</a>
</g>
<!-- Node1&#45;&gt;Node2 -->
<g id="edge2" class="edge"><title>Node1&#45;&gt;Node2</title>
<path fill="none" stroke="midnightblue" d="M370.649,-59.2511C304.882,-48.8004 200.833,-32.2665 133.239,-21.5257"/>
<polygon fill="midnightblue" stroke="midnightblue" points="370.439,-62.7615 380.864,-60.8743 371.537,-55.8482 370.439,-62.7615"/>
</g>
<!-- Node3 -->
<g id="node5" class="node"><title>Node3</title>
<a xlink:href="src_2ExampleSerialProgram_8C.html" target="_top" xlink:title="Example serial program. ">
<polygon fill="none" stroke="black" points="151.5,-0.5 151.5,-21.5 278.5,-21.5 278.5,-0.5 151.5,-0.5"/>
<text text-anchor="middle" x="215" y="-8.5" font-family="Helvetica,sans-Serif" font-size="10.00">ExampleSerialProgram.C</text>
</a>
</g>
<!-- Node1&#45;&gt;Node3 -->
<g id="edge4" class="edge"><title>Node1&#45;&gt;Node3</title>
<path fill="none" stroke="midnightblue" d="M382.66,-55.8123C343.81,-45.4285 290.384,-31.1487 254.371,-21.5231"/>
<polygon fill="midnightblue" stroke="midnightblue" points="382.138,-59.2957 392.703,-58.4966 383.946,-52.5331 382.138,-59.2957"/>
</g>
<!-- Node4 -->
<g id="node7" class="node"><title>Node4</title>
<a xlink:href="src_2pepi_8C.html" target="_top" xlink:title="Main for example parallel program. ">
<polygon fill="none" stroke="black" points="295.5,-0.5 295.5,-21.5 340.5,-21.5 340.5,-0.5 295.5,-0.5"/>
<text text-anchor="middle" x="318" y="-8.5" font-family="Helvetica,sans-Serif" font-size="10.00">pepi.C</text>
</a>
</g>
<!-- Node1&#45;&gt;Node4 -->
<g id="edge6" class="edge"><title>Node1&#45;&gt;Node4</title>
<path fill="none" stroke="midnightblue" d="M402.383,-53.9319C382.456,-43.7932 356.671,-30.6748 338.876,-21.6212"/>
<polygon fill="midnightblue" stroke="midnightblue" points="400.856,-57.0815 411.355,-58.4966 404.03,-50.8425 400.856,-57.0815"/>
</g>
<!-- Node5 -->
<g id="node9" class="node"><title>Node5</title>
<a xlink:href="src_2sep_8C.html" target="_top" xlink:title="Main for example serial program. ">
<polygon fill="none" stroke="black" points="357.5,-0.5 357.5,-21.5 400.5,-21.5 400.5,-0.5 357.5,-0.5"/>
<text text-anchor="middle" x="379" y="-8.5" font-family="Helvetica,sans-Serif" font-size="10.00">sep.C</text>
</a>
</g>
<!-- Node1&#45;&gt;Node5 -->
<g id="edge8" class="edge"><title>Node1&#45;&gt;Node5</title>
<path fill="none" stroke="midnightblue" d="M415.396,-50.8299C406.604,-41.2078 396.114,-29.7282 388.659,-21.5707"/>
<polygon fill="midnightblue" stroke="midnightblue" points="412.949,-53.3408 422.279,-58.3619 418.117,-48.6188 412.949,-53.3408"/>
</g>
<!-- Node6 -->
<g id="node11" class="node"><title>Node6</title>
<a xlink:href="Third__Party__Modules_2ElmerFSI_2trunk_2src_2ExampleParallelProgram_8C.html" target="_top" xlink:title="Example parallel program. ">
<polygon fill="none" stroke="black" points="418,-0.5 418,-21.5 552,-21.5 552,-0.5 418,-0.5"/>
<text text-anchor="middle" x="485" y="-8.5" font-family="Helvetica,sans-Serif" font-size="10.00">ExampleParallelProgram.C</text>
</a>
</g>
<!-- Node1&#45;&gt;Node6 -->
<g id="edge10" class="edge"><title>Node1&#45;&gt;Node6</title>
<path fill="none" stroke="midnightblue" d="M448.604,-50.8299C457.396,-41.2078 467.886,-29.7282 475.341,-21.5707"/>
<polygon fill="midnightblue" stroke="midnightblue" points="445.883,-48.6188 441.721,-58.3619 451.051,-53.3408 445.883,-48.6188"/>
</g>
<!-- Node7 -->
<g id="node13" class="node"><title>Node7</title>
<a xlink:href="Third__Party__Modules_2ElmerFSI_2trunk_2src_2ExampleSerialProgram_8C.html" target="_top" xlink:title="Example serial program. ">
<polygon fill="none" stroke="black" points="569.5,-0.5 569.5,-21.5 696.5,-21.5 696.5,-0.5 569.5,-0.5"/>
<text text-anchor="middle" x="633" y="-8.5" font-family="Helvetica,sans-Serif" font-size="10.00">ExampleSerialProgram.C</text>
</a>
</g>
<!-- Node1&#45;&gt;Node7 -->
<g id="edge12" class="edge"><title>Node1&#45;&gt;Node7</title>
<path fill="none" stroke="midnightblue" d="M478.162,-55.6795C514.108,-45.307 563.316,-31.1078 596.532,-21.5231"/>
<polygon fill="midnightblue" stroke="midnightblue" points="477.037,-52.3613 468.4,-58.4966 478.978,-59.0869 477.037,-52.3613"/>
</g>
<!-- Node8 -->
<g id="node15" class="node"><title>Node8</title>
<a xlink:href="Third__Party__Modules_2ElmerFSI_2trunk_2src_2pepi_8C.html" target="_top" xlink:title="Main for example parallel program. ">
<polygon fill="none" stroke="black" points="713.5,-0.5 713.5,-21.5 758.5,-21.5 758.5,-0.5 713.5,-0.5"/>
<text text-anchor="middle" x="736" y="-8.5" font-family="Helvetica,sans-Serif" font-size="10.00">pepi.C</text>
</a>
</g>
<!-- Node1&#45;&gt;Node8 -->
<g id="edge14" class="edge"><title>Node1&#45;&gt;Node8</title>
<path fill="none" stroke="midnightblue" d="M493.188,-61.5071C548.938,-53.9641 633.273,-40.7537 705,-22 707.762,-21.2777 710.628,-20.418 713.452,-19.502"/>
<polygon fill="midnightblue" stroke="midnightblue" points="492.569,-58.0584 483.12,-62.8496 493.495,-64.997 492.569,-58.0584"/>
</g>
<!-- Node9 -->
<g id="node17" class="node"><title>Node9</title>
<a xlink:href="Third__Party__Modules_2ElmerFSI_2trunk_2src_2sep_8C.html" target="_top" xlink:title="Main for example serial program. ">
<polygon fill="none" stroke="black" points="775.5,-0.5 775.5,-21.5 818.5,-21.5 818.5,-0.5 775.5,-0.5"/>
<text text-anchor="middle" x="797" y="-8.5" font-family="Helvetica,sans-Serif" font-size="10.00">sep.C</text>
</a>
</g>
<!-- Node1&#45;&gt;Node9 -->
<g id="edge16" class="edge"><title>Node1&#45;&gt;Node9</title>
<path fill="none" stroke="midnightblue" d="M493.228,-64.3336C560.968,-58.2672 672.984,-45.5477 767,-22 769.691,-21.3261 772.475,-20.4958 775.213,-19.596"/>
<polygon fill="midnightblue" stroke="midnightblue" points="492.811,-60.8566 483.154,-65.2158 493.422,-67.8299 492.811,-60.8566"/>
</g>
</g>
</svg>
        <g id="navigator" transform="translate(0 0)" fill="#404254">
                <rect fill="#f2f5e9" fill-opacity="0.5" stroke="#606060" stroke-width=".5" x="0" y="0" width="60" height="60"/>
                <use id="zoomplus" xlink:href="#zoomPlus" x="17" y="9" onmousedown="handleZoom(evt,'in')"/>
                <use id="zoomminus" xlink:href="#zoomMin" x="42" y="9" onmousedown="handleZoom(evt,'out')"/>
                <use id="reset" xlink:href="#resetDef" x="30" y="36" onmousedown="handleReset()"/>
                <g id="arrowUp" xlink:href="#dirArrow" transform="translate(30 24)" onmousedown="handlePan(0,-1)">
                  <use xlink:href="#rim" fill="#404040">
                        <set attributeName="fill" to="#808080" begin="arrowUp.mouseover" end="arrowUp.mouseout"/>
                  </use>
                  <path fill="none" stroke="white" stroke-width="1.5" d="M0,-3.0v7 M-2.5,-0.5L0,-3.0L2.5,-0.5"/>
                </g>
                <g id="arrowRight" xlink:href="#dirArrow" transform="rotate(90) translate(36 -43)" onmousedown="handlePan(1,0)">
                  <use xlink:href="#rim" fill="#404040">
                        <set attributeName="fill" to="#808080" begin="arrowRight.mouseover" end="arrowRight.mouseout"/>
                  </use>
                  <path fill="none" stroke="white" stroke-width="1.5" d="M0,-3.0v7 M-2.5,-0.5L0,-3.0L2.5,-0.5"/>
                </g>
                <g id="arrowDown" xlink:href="#dirArrow" transform="rotate(180) translate(-30 -48)" onmousedown="handlePan(0,1)">
                  <use xlink:href="#rim" fill="#404040">
                        <set attributeName="fill" to="#808080" begin="arrowDown.mouseover" end="arrowDown.mouseout"/>
                  </use>
                  <path fill="none" stroke="white" stroke-width="1.5" d="M0,-3.0v7 M-2.5,-0.5L0,-3.0L2.5,-0.5"/>
                </g>
                <g id="arrowLeft" xlink:href="#dirArrow" transform="rotate(270) translate(-36 17)" onmousedown="handlePan(-1,0)">
                  <use xlink:href="#rim" fill="#404040">
                        <set attributeName="fill" to="#808080" begin="arrowLeft.mouseover" end="arrowLeft.mouseout"/>
                  </use>
                  <path fill="none" stroke="white" stroke-width="1.5" d="M0,-3.0v7 M-2.5,-0.5L0,-3.0L2.5,-0.5"/>
                </g>
        </g>
        <svg viewBox="0 0 15 15" width="100%" height="30px" preserveAspectRatio="xMaxYMin meet">
         <g id="arrow_out" transform="scale(0.3 0.3)">
          <a xlink:href="Third__Party__Modules_2ElmerFSI_2trunk_2include_2ExampleProgram_8H__dep__incl_org.svg" target="_base">
           <rect id="button" ry="5" rx="5" y="6" x="6" height="38" width="38"
                fill="#f2f5e9" fill-opacity="0.5" stroke="#606060" stroke-width="1.0"/>
           <path id="arrow"
             d="M 11.500037,31.436501 C 11.940474,20.09759 22.043105,11.32322 32.158766,21.979434 L 37.068811,17.246167 C 37.068811,17.246167 37.088388,32 37.088388,32 L 22.160133,31.978069 C 22.160133,31.978069 26.997745,27.140456 26.997745,27.140456 C 18.528582,18.264221 13.291696,25.230495 11.500037,31.436501 z"
             style="fill:#404040;"/>
          </a>
         </g>
        </svg>
</svg>
