<?xml version="1.0" encoding="UTF-8" standalone="no"?>
<!DOCTYPE svg PUBLIC "-//W3C//DTD SVG 1.1//EN"
 "http://www.w3.org/Graphics/SVG/1.1/DTD/svg11.dtd">
<!-- Generated by graphviz version 2.26.0 (20091210.2329)
 -->
<!-- Title: main Pages: 1 -->
<svg width="330pt" height="42pt"
 viewBox="0.00 0.00 330.00 42.00" xmlns="http://www.w3.org/2000/svg" xmlns:xlink="http://www.w3.org/1999/xlink">
<g id="graph1" class="graph" transform="scale(1 1) rotate(0) translate(4 38)">
<title>main</title>
<!-- Node1 -->
<g id="node1" class="node"><title>Node1</title>
<polygon fill="#bfbfbf" stroke="black" points="0,-6.5 0,-27.5 38,-27.5 38,-6.5 0,-6.5"/>
<text text-anchor="middle" x="19" y="-14.5" font-family="Helvetica,sans-Serif" font-size="10.00">main</text>
</g>
<!-- Node2 -->
<g id="node3" class="node"><title>Node2</title>
<a xlink:href="namespaceElmerModuleDriver_ab4c303c5755207acda2729884495664e.html#ab4c303c5755207acda2729884495664e" target="_top" xlink:title="Creates a new project from an ElmerModuleDriver base. ">
<polygon fill="none" stroke="black" points="74,-0 74,-34 180,-34 180,-0 74,-0"/>
<text text-anchor="start" x="82" y="-21" font-family="Helvetica,sans-Serif" font-size="10.00">ElmerModuleDriver::</text>
<text text-anchor="middle" x="127" y="-8" font-family="Helvetica,sans-Serif" font-size="10.00">MakeProject</text>
</a>
</g>
<!-- Node1&#45;&gt;Node2 -->
<g id="edge2" class="edge"><title>Node1&#45;&gt;Node2</title>
<path fill="none" stroke="midnightblue" d="M38.0596,-17C45.4418,-17 54.3507,-17 63.6408,-17"/>
<polygon fill="midnightblue" stroke="midnightblue" points="63.817,-20.5001 73.8169,-17 63.8169,-13.5001 63.817,-20.5001"/>
</g>
<!-- Node3 -->
<g id="node5" class="node"><title>Node3</title>
<a xlink:href="namespaceElmerModuleDriver_a1e8f13b4d7c0a595f378800f7005a6d7.html#a1e8f13b4d7c0a595f378800f7005a6d7" target="_top" xlink:title="Exclude certain template files from conversion in project creation. ">
<polygon fill="none" stroke="black" points="216,-0 216,-34 322,-34 322,-0 216,-0"/>
<text text-anchor="start" x="224" y="-21" font-family="Helvetica,sans-Serif" font-size="10.00">ElmerModuleDriver::</text>
<text text-anchor="middle" x="269" y="-8" font-family="Helvetica,sans-Serif" font-size="10.00">Excluded</text>
</a>
</g>
<!-- Node2&#45;&gt;Node3 -->
<g id="edge4" class="edge"><title>Node2&#45;&gt;Node3</title>
<path fill="none" stroke="midnightblue" d="M180.28,-17C188.56,-17 197.184,-17 205.661,-17"/>
<polygon fill="midnightblue" stroke="midnightblue" points="205.894,-20.5001 215.894,-17 205.894,-13.5001 205.894,-20.5001"/>
</g>
</g>
</svg>
