<?xml version="1.0" encoding="UTF-8" standalone="no"?>
<!DOCTYPE svg PUBLIC "-//W3C//DTD SVG 1.1//EN"
 "http://www.w3.org/Graphics/SVG/1.1/DTD/svg11.dtd">
<!-- Generated by graphviz version 2.26.0 (20091210.2329)
 -->
<!-- Title: ExampleHeader.H Pages: 1 -->
<!--zoomable 204 -->
<svg id="main" version="1.1" xmlns="http://www.w3.org/2000/svg" xmlns:xlink="http://www.w3.org/1999/xlink" xml:space="preserve" onload="init(evt)">
<style type="text/css"><![CDATA[
.edge:hover path { stroke: red; }
.edge:hover polygon { stroke: red; fill: red; }
]]></style>
<script type="text/javascript"><![CDATA[
var edges = document.getElementsByTagName('g');
if (edges && edges.length) {
  for (var i=0;i<edges.length;i++) {
    if (edges[i].id.substr(0,4)=='edge') {
      edges[i].setAttribute('class','edge');
    }
  }
}
]]></script>
        <defs>
                <circle id="rim" cx="0" cy="0" r="7"/>
                <circle id="rim2" cx="0" cy="0" r="3.5"/>
                <g id="zoomPlus">
                        <use xlink:href="#rim" fill="#404040">
                                <set attributeName="fill" to="#808080" begin="zoomplus.mouseover" end="zoomplus.mouseout"/>
                        </use>
                        <path d="M-4,0h8M0,-4v8" fill="none" stroke="white" stroke-width="1.5" pointer-events="none"/>
                </g>
                <g id="zoomMin">
                        <use xlink:href="#rim" fill="#404040">
                                <set attributeName="fill" to="#808080" begin="zoomminus.mouseover" end="zoomminus.mouseout"/>
                        </use>
                        <path d="M-4,0h8" fill="none" stroke="white" stroke-width="1.5" pointer-events="none"/>
                </g>
                <g id="dirArrow">
                        <path fill="none" stroke="white" stroke-width="1.5" d="M0,-3.0v7 M-2.5,-0.5L0,-3.0L2.5,-0.5"/>
                </g>
               <g id="resetDef">
                       <use xlink:href="#rim2" fill="#404040">
                               <set attributeName="fill" to="#808080" begin="reset.mouseover" end="reset.mouseout"/>
                       </use>
               </g>
        </defs>

<script type="text/javascript">
var viewWidth = 784;
var viewHeight = 204;
var sectionId = 'dynsection-1';
</script>
<script xlink:href="svgpan.js"/>
<svg id="graph" class="graph">
<g id="viewport">
<title>ExampleHeader.H</title>
<!-- Node1 -->
<g id="node1" class="node"><title>Node1</title>
<polygon fill="#bfbfbf" stroke="black" points="300.5,-174.5 300.5,-195.5 397.5,-195.5 397.5,-174.5 300.5,-174.5"/>
<text text-anchor="middle" x="349" y="-182.5" font-family="Helvetica,sans-Serif" font-size="10.00">ExampleHeader.H</text>
</g>
<!-- Node2 -->
<g id="node3" class="node"><title>Node2</title>
<a xlink:href="src_2ExampleParallelProgram_8C.html" target="_top" xlink:title="Example parallel program. ">
<polygon fill="none" stroke="black" points="0,-116.5 0,-137.5 134,-137.5 134,-116.5 0,-116.5"/>
<text text-anchor="middle" x="67" y="-124.5" font-family="Helvetica,sans-Serif" font-size="10.00">ExampleParallelProgram.C</text>
</a>
</g>
<!-- Node1&#45;&gt;Node2 -->
<g id="edge2" class="edge"><title>Node1&#45;&gt;Node2</title>
<path fill="none" stroke="midnightblue" d="M290.333,-172.934C239.456,-162.47 166.565,-147.478 118.056,-137.501"/>
<polygon fill="midnightblue" stroke="midnightblue" points="289.701,-176.377 300.201,-174.963 291.111,-169.52 289.701,-176.377"/>
</g>
<!-- Node3 -->
<g id="node5" class="node"><title>Node3</title>
<a xlink:href="src_2ExampleSourceFile_8C.html" target="_top" xlink:title="Example C++ source code file for ElmerFoamFSI. ">
<polygon fill="none" stroke="black" points="152,-116.5 152,-137.5 264,-137.5 264,-116.5 152,-116.5"/>
<text text-anchor="middle" x="208" y="-124.5" font-family="Helvetica,sans-Serif" font-size="10.00">ExampleSourceFile.C</text>
</a>
</g>
<!-- Node1&#45;&gt;Node3 -->
<g id="edge4" class="edge"><title>Node1&#45;&gt;Node3</title>
<path fill="none" stroke="midnightblue" d="M314.03,-170.615C289.17,-160.389 256.328,-146.88 233.821,-137.621"/>
<polygon fill="midnightblue" stroke="midnightblue" points="312.886,-173.929 323.466,-174.497 315.549,-167.456 312.886,-173.929"/>
</g>
<!-- Node4 -->
<g id="node7" class="node"><title>Node4</title>
<a xlink:href="Third__Party__Modules_2ElmerFSI_2trunk_2src_2ExampleParallelProgram_8C.html" target="_top" xlink:title="Example parallel program. ">
<polygon fill="none" stroke="black" points="282,-116.5 282,-137.5 416,-137.5 416,-116.5 282,-116.5"/>
<text text-anchor="middle" x="349" y="-124.5" font-family="Helvetica,sans-Serif" font-size="10.00">ExampleParallelProgram.C</text>
</a>
</g>
<!-- Node1&#45;&gt;Node4 -->
<g id="edge6" class="edge"><title>Node1&#45;&gt;Node4</title>
<path fill="none" stroke="midnightblue" d="M349,-164.191C349,-155.168 349,-144.994 349,-137.571"/>
<polygon fill="midnightblue" stroke="midnightblue" points="345.5,-164.362 349,-174.362 352.5,-164.362 345.5,-164.362"/>
</g>
<!-- Node5 -->
<g id="node9" class="node"><title>Node5</title>
<a xlink:href="Third__Party__Modules_2ElmerFSI_2trunk_2src_2ExampleSourceFile_8C.html" target="_top" xlink:title="Example C++ source code file for ElmerModuleDriver. ">
<polygon fill="none" stroke="black" points="434,-116.5 434,-137.5 546,-137.5 546,-116.5 434,-116.5"/>
<text text-anchor="middle" x="490" y="-124.5" font-family="Helvetica,sans-Serif" font-size="10.00">ExampleSourceFile.C</text>
</a>
</g>
<!-- Node1&#45;&gt;Node5 -->
<g id="edge8" class="edge"><title>Node1&#45;&gt;Node5</title>
<path fill="none" stroke="midnightblue" d="M383.97,-170.615C408.83,-160.389 441.672,-146.88 464.179,-137.621"/>
<polygon fill="midnightblue" stroke="midnightblue" points="382.451,-167.456 374.534,-174.497 385.114,-173.929 382.451,-167.456"/>
</g>
<!-- Node6 -->
<g id="node11" class="node"><title>Node6</title>
<a xlink:href="ElmerModuleDriverTest_8H.html" target="_top" xlink:title="Testing object for ElmerModuleDriver. ">
<polygon fill="none" stroke="black" points="564,-116.5 564,-137.5 694,-137.5 694,-116.5 564,-116.5"/>
<text text-anchor="middle" x="629" y="-124.5" font-family="Helvetica,sans-Serif" font-size="10.00">ElmerModuleDriverTest.H</text>
</a>
</g>
<!-- Node1&#45;&gt;Node6 -->
<g id="edge10" class="edge"><title>Node1&#45;&gt;Node6</title>
<path fill="none" stroke="midnightblue" d="M407.862,-172.807C458.224,-162.375 529.978,-147.512 577.949,-137.575"/>
<polygon fill="midnightblue" stroke="midnightblue" points="406.854,-169.441 397.772,-174.897 408.274,-176.296 406.854,-169.441"/>
</g>
<!-- Node7 -->
<g id="node13" class="node"><title>Node7</title>
<a xlink:href="TestElmerModuleDriver_8H.html" target="_top" xlink:title="Testing utilities for ElmerModuleDriver. ">
<polygon fill="none" stroke="black" points="564,-58.5 564,-79.5 694,-79.5 694,-58.5 564,-58.5"/>
<text text-anchor="middle" x="629" y="-66.5" font-family="Helvetica,sans-Serif" font-size="10.00">TestElmerModuleDriver.H</text>
</a>
</g>
<!-- Node6&#45;&gt;Node7 -->
<g id="edge12" class="edge"><title>Node6&#45;&gt;Node7</title>
<path fill="none" stroke="midnightblue" d="M629,-106.191C629,-97.1684 629,-86.9941 629,-79.5707"/>
<polygon fill="midnightblue" stroke="midnightblue" points="625.5,-106.362 629,-116.362 632.5,-106.362 625.5,-106.362"/>
</g>
<!-- Node8 -->
<g id="node15" class="node"><title>Node8</title>
<a xlink:href="ParallelTestElmerModuleDriver_8C.html" target="_top" xlink:title="Implements a command&#45;line interface for the ElmerModuleDriver tests. ">
<polygon fill="none" stroke="black" points="466,-0.5 466,-21.5 628,-21.5 628,-0.5 466,-0.5"/>
<text text-anchor="middle" x="547" y="-8.5" font-family="Helvetica,sans-Serif" font-size="10.00">ParallelTestElmerModuleDriver.C</text>
</a>
</g>
<!-- Node7&#45;&gt;Node8 -->
<g id="edge14" class="edge"><title>Node7&#45;&gt;Node8</title>
<path fill="none" stroke="midnightblue" d="M605.73,-52.5407C591.672,-42.5973 574.17,-30.2177 561.945,-21.5707"/>
<polygon fill="midnightblue" stroke="midnightblue" points="603.775,-55.4447 613.96,-58.3619 607.817,-49.7298 603.775,-55.4447"/>
</g>
<!-- Node9 -->
<g id="node17" class="node"><title>Node9</title>
<a xlink:href="TestElmerModuleDriver_8C.html" target="_top" xlink:title="Implements a command&#45;line interface for the ElmerModuleDriver tests. ">
<polygon fill="none" stroke="black" points="646,-0.5 646,-21.5 776,-21.5 776,-0.5 646,-0.5"/>
<text text-anchor="middle" x="711" y="-8.5" font-family="Helvetica,sans-Serif" font-size="10.00">TestElmerModuleDriver.C</text>
</a>
</g>
<!-- Node7&#45;&gt;Node9 -->
<g id="edge16" class="edge"><title>Node7&#45;&gt;Node9</title>
<path fill="none" stroke="midnightblue" d="M652.27,-52.5407C666.328,-42.5973 683.83,-30.2177 696.055,-21.5707"/>
<polygon fill="midnightblue" stroke="midnightblue" points="650.183,-49.7298 644.04,-58.3619 654.225,-55.4447 650.183,-49.7298"/>
</g>
</g>
</svg>
        <g id="navigator" transform="translate(0 0)" fill="#404254">
                <rect fill="#f2f5e9" fill-opacity="0.5" stroke="#606060" stroke-width=".5" x="0" y="0" width="60" height="60"/>
                <use id="zoomplus" xlink:href="#zoomPlus" x="17" y="9" onmousedown="handleZoom(evt,'in')"/>
                <use id="zoomminus" xlink:href="#zoomMin" x="42" y="9" onmousedown="handleZoom(evt,'out')"/>
                <use id="reset" xlink:href="#resetDef" x="30" y="36" onmousedown="handleReset()"/>
                <g id="arrowUp" xlink:href="#dirArrow" transform="translate(30 24)" onmousedown="handlePan(0,-1)">
                  <use xlink:href="#rim" fill="#404040">
                        <set attributeName="fill" to="#808080" begin="arrowUp.mouseover" end="arrowUp.mouseout"/>
                  </use>
                  <path fill="none" stroke="white" stroke-width="1.5" d="M0,-3.0v7 M-2.5,-0.5L0,-3.0L2.5,-0.5"/>
                </g>
                <g id="arrowRight" xlink:href="#dirArrow" transform="rotate(90) translate(36 -43)" onmousedown="handlePan(1,0)">
                  <use xlink:href="#rim" fill="#404040">
                        <set attributeName="fill" to="#808080" begin="arrowRight.mouseover" end="arrowRight.mouseout"/>
                  </use>
                  <path fill="none" stroke="white" stroke-width="1.5" d="M0,-3.0v7 M-2.5,-0.5L0,-3.0L2.5,-0.5"/>
                </g>
                <g id="arrowDown" xlink:href="#dirArrow" transform="rotate(180) translate(-30 -48)" onmousedown="handlePan(0,1)">
                  <use xlink:href="#rim" fill="#404040">
                        <set attributeName="fill" to="#808080" begin="arrowDown.mouseover" end="arrowDown.mouseout"/>
                  </use>
                  <path fill="none" stroke="white" stroke-width="1.5" d="M0,-3.0v7 M-2.5,-0.5L0,-3.0L2.5,-0.5"/>
                </g>
                <g id="arrowLeft" xlink:href="#dirArrow" transform="rotate(270) translate(-36 17)" onmousedown="handlePan(-1,0)">
                  <use xlink:href="#rim" fill="#404040">
                        <set attributeName="fill" to="#808080" begin="arrowLeft.mouseover" end="arrowLeft.mouseout"/>
                  </use>
                  <path fill="none" stroke="white" stroke-width="1.5" d="M0,-3.0v7 M-2.5,-0.5L0,-3.0L2.5,-0.5"/>
                </g>
        </g>
        <svg viewBox="0 0 15 15" width="100%" height="30px" preserveAspectRatio="xMaxYMin meet">
         <g id="arrow_out" transform="scale(0.3 0.3)">
          <a xlink:href="Third__Party__Modules_2ElmerFSI_2trunk_2include_2ExampleHeader_8H__dep__incl_org.svg" target="_base">
           <rect id="button" ry="5" rx="5" y="6" x="6" height="38" width="38"
                fill="#f2f5e9" fill-opacity="0.5" stroke="#606060" stroke-width="1.0"/>
           <path id="arrow"
             d="M 11.500037,31.436501 C 11.940474,20.09759 22.043105,11.32322 32.158766,21.979434 L 37.068811,17.246167 C 37.068811,17.246167 37.088388,32 37.088388,32 L 22.160133,31.978069 C 22.160133,31.978069 26.997745,27.140456 26.997745,27.140456 C 18.528582,18.264221 13.291696,25.230495 11.500037,31.436501 z"
             style="fill:#404040;"/>
          </a>
         </g>
        </svg>
</svg>
