<?xml version="1.0" encoding="UTF-8" standalone="no"?>
<!DOCTYPE svg PUBLIC "-//W3C//DTD SVG 1.1//EN"
 "http://www.w3.org/Graphics/SVG/1.1/DTD/svg11.dtd">
<!-- Generated by graphviz version 2.30.1 (20150305.2338)
 -->
<!-- Title: deprecatedtimestepper Pages: 1 -->
<svg width="468pt" height="104pt"
 viewBox="0.00 0.00 468.00 104.00" xmlns="http://www.w3.org/2000/svg" xmlns:xlink="http://www.w3.org/1999/xlink">
<g id="graph0" class="graph" transform="scale(1 1) rotate(0) translate(4 100)">
<title>deprecatedtimestepper</title>
<!-- Node1 -->
<g id="node1" class="node"><title>Node1</title>
<polygon fill="#bfbfbf" stroke="black" points="0,-38.5 0,-57.5 116,-57.5 116,-38.5 0,-38.5"/>
<text text-anchor="middle" x="58" y="-45.5" font-family="Helvetica,sans-Serif" font-size="10.00">deprecatedtimestepper</text>
</g>
<!-- Node2 -->
<g id="node2" class="node"><title>Node2</title>
<g id="a_node2"><a xlink:href="classgeneralmodule_a22c594fc74d4a28dc4fd20412caed9c5.html#a22c594fc74d4a28dc4fd20412caed9c5" target="_top" xlink:title="Saves current timestep to external files. ">
<polygon fill="none" stroke="black" points="152.5,-76.5 152.5,-95.5 289.5,-95.5 289.5,-76.5 152.5,-76.5"/>
<text text-anchor="middle" x="221" y="-83.5" font-family="Helvetica,sans-Serif" font-size="10.00">generalmodule::savecurrent</text>
</a>
</g>
</g>
<!-- Node1&#45;&gt;Node2 -->
<g id="edge1" class="edge"><title>Node1&#45;&gt;Node2</title>
<path fill="none" stroke="midnightblue" d="M99.6271,-57.589C120.968,-62.6261 147.312,-68.8438 169.908,-74.1771"/>
<polygon fill="midnightblue" stroke="midnightblue" points="169.128,-77.5891 179.665,-76.4799 170.736,-70.7763 169.128,-77.5891"/>
</g>
<!-- Node3 -->
<g id="node3" class="node"><title>Node3</title>
<g id="a_node3"><a xlink:href="classgeneralmodule_aa4606faf69704584d197ae7ccfbf8068.html#aa4606faf69704584d197ae7ccfbf8068" target="_top" xlink:title="Saves results file to post processing file of ElmerPost format, if requested. ">
<polygon fill="none" stroke="black" points="326,-57.5 326,-76.5 460,-76.5 460,-57.5 326,-57.5"/>
<text text-anchor="middle" x="393" y="-64.5" font-family="Helvetica,sans-Serif" font-size="10.00">generalmodule::savetopost</text>
</a>
</g>
</g>
<!-- Node1&#45;&gt;Node3 -->
<g id="edge3" class="edge"><title>Node1&#45;&gt;Node3</title>
<path fill="none" stroke="midnightblue" d="M116.245,-51.2662C171.266,-54.4056 254.786,-59.171 315.492,-62.6347"/>
<polygon fill="midnightblue" stroke="midnightblue" points="315.605,-66.1467 325.788,-63.2222 316.004,-59.1581 315.605,-66.1467"/>
</g>
<!-- Node4 -->
<g id="node4" class="node"><title>Node4</title>
<g id="a_node4"><a xlink:href="classtimemodule_ac02e054b725f683bf66b8d664a323d2d.html#ac02e054b725f683bf66b8d664a323d2d" target="_top" xlink:title="timemodule::updateloads">
<polygon fill="none" stroke="black" points="158.5,-0.5 158.5,-19.5 283.5,-19.5 283.5,-0.5 158.5,-0.5"/>
<text text-anchor="middle" x="221" y="-7.5" font-family="Helvetica,sans-Serif" font-size="10.00">timemodule::updateloads</text>
</a>
</g>
</g>
<!-- Node1&#45;&gt;Node4 -->
<g id="edge4" class="edge"><title>Node1&#45;&gt;Node4</title>
<path fill="none" stroke="midnightblue" d="M99.6271,-38.411C120.968,-33.3739 147.312,-27.1562 169.908,-21.8229"/>
<polygon fill="midnightblue" stroke="midnightblue" points="170.736,-25.2237 179.665,-19.5201 169.128,-18.4109 170.736,-25.2237"/>
</g>
<!-- Node2&#45;&gt;Node3 -->
<g id="edge2" class="edge"><title>Node2&#45;&gt;Node3</title>
<path fill="none" stroke="midnightblue" d="M289.677,-78.4361C298.262,-77.4766 307.093,-76.4896 315.8,-75.5165"/>
<polygon fill="midnightblue" stroke="midnightblue" points="316.392,-78.9721 325.942,-74.383 315.615,-72.0154 316.392,-78.9721"/>
</g>
</g>
</svg>
